# https://github.com/mikedh/trimesh
v -0.00002167 -0.33076176 -0.50000000
v -0.10224885 -0.31457335 -0.50000000
v 0.10220551 -0.31457335 -0.50000000
v -0.00002167 -0.33076176 0.50000000
v -0.19443010 -0.26756218 -0.50000000
v -0.10224885 -0.31457335 0.50000000
v 0.10970763 -0.31075287 -0.50000000
v 0.10220551 -0.31457335 0.50000000
v -0.26755422 -0.19439052 -0.50000000
v -0.19443010 -0.26756218 0.50000000
v 0.10970763 0.31075287 -0.50000000
v 0.10970763 -0.31075287 0.50000000
v -0.31459337 -0.10218129 -0.50000000
v -0.26755422 -0.19439052 0.50000000
v 0.10220551 0.31457335 -0.50000000
v 0.10970763 0.31075287 0.50000000
v -0.33076176 0.00000000 -0.50000000
v -0.31459337 -0.10218129 0.50000000
v -0.00002167 0.33076176 -0.50000000
v 0.10220551 0.31457335 0.50000000
v -0.31459337 0.10218129 -0.50000000
v -0.33076176 0.00000000 0.50000000
v -0.10224885 0.31457335 -0.50000000
v -0.00002167 0.33076176 0.50000000
v -0.26755422 0.19439052 -0.50000000
v -0.31459337 0.10218129 0.50000000
v -0.19443010 0.26756218 -0.50000000
v -0.10224885 0.31457335 0.50000000
v -0.26755422 0.19439052 0.50000000
v -0.19443010 0.26756218 0.50000000
f 1 2 5
f 1 5 9
f 1 9 13
f 1 13 17
f 1 17 21
f 1 21 25
f 1 25 27
f 1 27 23
f 1 23 19
f 1 19 15
f 1 15 11
f 1 11 7
f 1 7 3
f 1 3 8
f 1 8 4
f 1 4 6
f 1 6 2
f 2 6 10
f 2 10 5
f 3 7 12
f 3 12 8
f 4 8 12
f 4 12 16
f 4 16 20
f 4 20 24
f 4 24 28
f 4 28 30
f 4 30 29
f 4 29 26
f 4 26 22
f 4 22 18
f 4 18 14
f 4 14 10
f 4 10 6
f 5 10 14
f 5 14 9
f 7 11 16
f 7 16 12
f 9 14 18
f 9 18 13
f 11 15 20
f 11 20 16
f 13 18 22
f 13 22 17
f 15 19 24
f 15 24 20
f 17 22 26
f 17 26 21
f 19 23 28
f 19 28 24
f 21 26 29
f 21 29 25
f 23 27 30
f 23 30 28
f 25 29 30
f 25 30 27

