# https://github.com/mikedh/trimesh
v -0.24890931 -0.14498994 0.23098694
v -0.24890931 -0.04836757 0.23098694
v -0.24885091 -0.15498996 0.23098694
v -0.28371593 -0.04836757 0.36153790
v 0.25339243 -0.04836757 0.23098694
v -0.28622717 -0.04836757 0.37158030
v -0.28459194 -0.04836757 0.36500078
v -0.24861731 -0.16498998 0.23098694
v 0.27768698 -0.04836757 0.30474651
v 0.25339243 -0.15096033 0.23098694
v -0.28967276 -0.04836757 0.38580477
v -0.24768290 -0.17498998 0.23098694
v -0.29381919 -0.04836757 0.40471748
v -0.29177520 -0.04836757 0.39499477
v -0.29101598 -0.04836757 0.39161178
v 0.27867979 -0.04836757 0.30780983
v 0.25333402 -0.15498996 0.23098694
v -0.24657328 -0.17903444 0.23098694
v -0.27828470 -0.14498994 0.44499356
v -0.27927750 -0.13650104 0.43497783
v -0.29854962 -0.04836757 0.43497783
v -0.29738164 -0.04836757 0.42544156
v -0.29673922 -0.04836757 0.42157909
v -0.29562962 -0.04836757 0.41499960
v -0.29504561 -0.04836757 0.41164327
v 0.27990618 -0.04836757 0.31199193
v 0.25298363 -0.16498998 0.23098694
v -0.24487968 -0.18499000 0.23098694
v -0.27612388 -0.15498996 0.45498267
v -0.29919204 -0.04836757 0.44499356
v 0.28159982 -0.04836757 0.31803867
v 0.25164041 -0.17498998 0.23098694
v 0.28422782 -0.04836757 0.32837409
v 0.28586304 -0.04836757 0.33500683
v 0.28802386 -0.04836757 0.34451646
v 0.28878304 -0.04836757 0.34827238
v 0.28965905 -0.04836757 0.35285404
v -0.24347807 -0.18761224 0.23098694
v -0.27063426 -0.17109369 0.45780626
v -0.27238625 -0.16564181 0.45468965
v -0.27063426 -0.17109369 0.46268094
v -0.27168545 -0.16546404 0.46561107
v -0.29773203 -0.04836757 0.46483859
v -0.29913363 -0.04836757 0.45498267
v 0.25029719 -0.18063444 0.23098694
v 0.29082707 -0.04836757 0.35988638
v 0.29217029 -0.04836757 0.36811739
v 0.29322147 -0.04836757 0.37491000
v 0.29462308 -0.04836757 0.38497901
v 0.28008139 -0.14029364 0.41936818
v -0.24137565 -0.19149372 0.23098694
v -0.26234138 -0.18232334 0.46499842
v -0.26175740 -0.18195295 0.47213730
v -0.26975825 -0.16910850 0.46936697
v -0.29049039 -0.07201205 0.47083205
v -0.29352719 -0.04836757 0.47509408
v 0.24726038 -0.18562704 0.23098694
v 0.27686939 -0.15498996 0.43497783
v 0.27383256 -0.16498998 0.44499356
v 0.27120453 -0.17227887 0.45498267
v 0.29497349 -0.04836757 0.38833535
v 0.29561591 -0.04836757 0.39499477
v 0.29590791 -0.04836757 0.39835110
v 0.29637510 -0.04836757 0.40498385
v 0.29707590 -0.04836757 0.41499960
v 0.29742631 -0.04836757 0.42498872
v 0.28013980 -0.14076771 0.42498872
v 0.27932218 -0.14581957 0.43497783
v -0.23757963 -0.19374557 0.23098694
v -0.25142053 -0.19087149 0.46499842
v -0.25644296 -0.18733075 0.46499842
v -0.25153732 -0.19090112 0.47197747
v -0.25837016 -0.17498998 0.47890323
v -0.26368460 -0.17498998 0.47389537
v -0.25486615 -0.18524185 0.47538710
v -0.25159574 -0.18186407 0.48079452
v -0.27040064 -0.16244182 0.47056568
v -0.29002318 -0.05023424 0.48004866
v -0.29025677 -0.04836757 0.48031503
v 0.24428196 -0.18934557 0.23098694
v 0.26758370 -0.17728628 0.45498267
v 0.27710298 -0.15498996 0.44499356
v 0.27359894 -0.16498998 0.45498267
v 0.27067894 -0.17162701 0.46145561
v 0.26273647 -0.18297517 0.46499842
v 0.29730952 -0.04836757 0.42834505
v 0.29707590 -0.04836757 0.43497783
v -0.23495162 -0.19527149 0.23098694
v -0.24499647 -0.19401222 0.46499842
v -0.23495162 -0.19709373 0.46499842
v -0.24470448 -0.19211593 0.47517398
v -0.24785809 -0.18853074 0.47863686
v -0.25953817 -0.16814554 0.47972900
v -0.25334772 -0.17498998 0.48156703
v -0.26502782 -0.16528627 0.47514734
v -0.24120045 -0.19045667 0.48036832
v -0.24470448 -0.18510851 0.48164693
v -0.24499647 -0.17498998 0.48425740
v -0.28511754 -0.04836757 0.48415086
v 0.24223794 -0.19181964 0.23098694
v 0.27546775 -0.15498996 0.45498267
v 0.29649189 -0.04836757 0.44499356
v 0.29491508 -0.04836757 0.45498267
v 0.27149653 -0.16498998 0.46294731
v 0.26881012 -0.16498998 0.46795517
v 0.26273647 -0.17498998 0.47309625
v 0.26758370 -0.17497517 0.46486521
v 0.26133487 -0.18186407 0.47163117
v 0.25152361 -0.19085667 0.47171110
v 0.25695485 -0.18798259 0.46499842
v -0.22496514 -0.19827890 0.23098694
v -0.22496514 -0.19845667 0.45498267
v -0.22496514 -0.19835299 0.46499842
v -0.22496514 -0.19614556 0.47498751
v -0.23495162 -0.19484186 0.47498751
v -0.27740869 -0.04836757 0.48891899
v -0.27238625 -0.04836757 0.49089018
v -0.23495162 -0.19125667 0.48106089
v -0.23495162 -0.18499000 0.48388448
v -0.23495162 -0.17498998 0.48622859
v -0.24499647 -0.16498998 0.48532292
v -0.26496941 -0.04836757 0.49326092
v 0.25193241 -0.19104928 0.46499842
v 0.23931792 -0.19330111 0.23098694
v 0.29217029 -0.04836757 0.46486521
v 0.29111907 -0.04836757 0.46816829
v 0.29030147 -0.04836757 0.47056568
v 0.28708944 -0.04836757 0.47544035
v 0.28533742 -0.04836757 0.47789103
v 0.25748044 -0.17498998 0.47810411
v 0.28200862 -0.04836757 0.48207313
v 0.25111482 -0.18156777 0.48068798
v 0.25467724 -0.18504927 0.47501415
v 0.24784438 -0.18823445 0.47839713
v 0.24118674 -0.19053075 0.48050150
v 0.24469076 -0.19199741 0.47501415
v 0.23499630 -0.19472334 0.47498751
v 0.23499630 -0.19669372 0.46499842
v 0.24498276 -0.19389372 0.46499842
v -0.21900831 -0.19879743 0.23098694
v -0.21497868 -0.19913816 0.23098694
v -0.21497868 -0.19916779 0.45498267
v -0.21497868 -0.19891594 0.46499842
v -0.21497868 -0.19676779 0.47498751
v -0.22496514 -0.19205669 0.48175347
v -0.22496514 -0.18499000 0.48518974
v -0.22496514 -0.17498998 0.48742729
v -0.23495162 -0.16498998 0.48718756
v -0.24499647 -0.04836757 0.49704346
v -0.25498295 -0.04836757 0.49549848
v 0.23499630 -0.19547890 0.23098694
v 0.25864846 -0.16498998 0.47911635
v 0.25245801 -0.17498998 0.48146045
v 0.27575976 -0.04836757 0.48724082
v 0.24498276 -0.17498998 0.48476353
v 0.24469076 -0.18493074 0.48188666
v 0.23499630 -0.18499000 0.48460370
v 0.23499630 -0.19136038 0.48127401
v 0.22495143 -0.19624928 0.47498751
v 0.22495143 -0.19811594 0.46499842
v 0.22495143 -0.19814557 0.45498267
v 0.22495143 -0.19787890 0.23098694
v -0.20499222 -0.19941965 0.23098694
v -0.20499222 -0.19941965 0.45498267
v -0.20499222 -0.19915298 0.46499842
v -0.20499222 -0.19715297 0.47498751
v -0.21497868 -0.19244185 0.48212641
v -0.20499222 -0.19270852 0.48241943
v -0.20499222 -0.18499000 0.48652160
v -0.21497868 -0.18499000 0.48588231
v -0.21497868 -0.17498998 0.48809323
v -0.20522581 -0.16510849 0.48969150
v -0.21497868 -0.16498998 0.48905218
v -0.22496514 -0.16498998 0.48835960
v -0.23495162 -0.04836757 0.49816224
v 0.27324855 -0.04836757 0.48899889
v 0.27091253 -0.04836757 0.49057052
v 0.26513091 -0.04836757 0.49307448
v 0.26162687 -0.04836757 0.49435306
v 0.24498276 -0.16498998 0.48598886
v 0.23499630 -0.17498998 0.48737401
v 0.22495143 -0.18499000 0.48622859
v 0.22495143 -0.19224927 0.48215303
v 0.21496497 -0.19270852 0.48265916
v 0.21496497 -0.19699001 0.47498751
v 0.21496497 -0.19875298 0.46499842
v 0.21496497 -0.19890113 0.45498267
v 0.21496497 -0.19879743 0.23098694
v -0.19903538 -0.19953817 0.23098694
v -0.19494735 -0.19962706 0.44499356
v -0.19494735 -0.19961224 0.45498267
v -0.19494735 -0.19931594 0.46499842
v -0.19494735 -0.19739002 0.47498751
v -0.19494735 -0.19287148 0.48263252
v -0.19494735 -0.18499000 0.48694780
v -0.20499222 -0.17498998 0.48873252
v -0.19494735 -0.17498998 0.48918536
v -0.20837943 -0.04925647 0.49992031
v -0.21497868 -0.04836757 0.49957404
v -0.21661389 -0.04836757 0.49946749
v -0.19494735 -0.16866405 0.48987794
v 0.25496924 -0.04836757 0.49648407
v 0.23499630 -0.16498998 0.48843950
v 0.22016260 -0.17020479 0.49001113
v 0.22407542 -0.17411591 0.48899889
v 0.25164041 -0.04836757 0.49722993
v 0.21496497 -0.17608628 0.48947838
v 0.21496497 -0.18499000 0.48716092
v 0.20497850 -0.18499000 0.48758709
v 0.19499204 -0.18499000 0.48796004
v 0.20497850 -0.19291595 0.48289889
v 0.20497850 -0.19733076 0.47498751
v 0.20497850 -0.19907892 0.46499842
v 0.20497850 -0.19930112 0.45498267
v 0.20497850 -0.19927150 0.23098694
v 0.21093534 -0.19899002 0.23098694
v -0.19494735 -0.19961224 0.23098694
v -0.18899050 -0.19965670 0.23098694
v -0.18496089 -0.19968632 0.23098694
v -0.18496089 -0.19968632 0.44499356
v -0.18496089 -0.19967151 0.45498267
v -0.18496089 -0.19936040 0.46499842
v -0.17497441 -0.19753817 0.47498751
v -0.18496089 -0.19747891 0.47498751
v -0.17497441 -0.19299001 0.48284560
v -0.15494308 -0.18499000 0.48777357
v -0.16498795 -0.18499000 0.48758709
v -0.14495662 -0.17870851 0.48982468
v -0.15494308 -0.17813073 0.48974475
v -0.16498795 -0.17727147 0.48963821
v -0.17497441 -0.17627887 0.48953167
v -0.16498795 -0.17226405 0.49027753
v -0.17497441 -0.17127146 0.49014431
v -0.18916571 -0.16971591 0.48995787
v -0.20499222 -0.04836757 0.50016010
v -0.20756184 -0.04836757 0.50002688
v -0.21106586 -0.04836757 0.49981380
v -0.19494735 -0.04836757 0.50053298
v -0.19880177 -0.04836757 0.50039983
v -0.20324020 -0.04836757 0.50023997
v -0.16498795 -0.05500463 0.50087929
v 0.24463236 -0.04836757 0.49858844
v 0.24060273 -0.04836757 0.49914783
v 0.23587230 -0.04836757 0.49978715
v 0.23236828 -0.04836757 0.50021333
v 0.23084986 -0.05098980 0.50010681
v 0.22495143 -0.04836757 0.50074613
v 0.22173941 -0.04836757 0.50090593
v 0.21163614 -0.04836757 0.50135875
v 0.20497850 -0.04836757 0.50165176
v 0.19499204 -0.16498998 0.49139631
v 0.21496497 -0.17109369 0.49011767
v 0.20497850 -0.17756777 0.48969150
v 0.19499204 -0.17900480 0.48985130
v 0.18815918 -0.17980480 0.48995787
v 0.19499204 -0.19304927 0.48308536
v 0.18488877 -0.18402703 0.48854607
v 0.17496070 -0.18515296 0.48825306
v 0.19499204 -0.19753817 0.47498751
v 0.19499204 -0.19922706 0.46499842
v 0.19499204 -0.19947891 0.45498267
v 0.20094886 -0.19936040 0.23098694
v 0.19090401 -0.19955298 0.23098694
v 0.19499204 -0.19947891 0.23098694
v 0.17496070 -0.19968632 0.23098694
v 0.17496070 -0.19968632 0.44499356
v -0.17497441 -0.19937521 0.46499842
v 0.17496070 -0.19967151 0.45498267
v -0.09496589 -0.19771594 0.47498751
v -0.15494308 -0.19761224 0.47498751
v -0.16498795 -0.19758260 0.47498751
v -0.13497016 -0.19309372 0.48311198
v -0.14495662 -0.19307891 0.48305872
v -0.15494308 -0.19304927 0.48300543
v -0.16498795 -0.19301964 0.48292553
v -0.08497942 -0.18537518 0.48830634
v -0.14495662 -0.18499000 0.48790675
v -0.11038359 -0.18001221 0.48998451
v -0.12498368 -0.17949370 0.48993123
v -0.13497016 -0.17910850 0.48987794
v -0.14495662 -0.17371590 0.49046397
v -0.15494308 -0.17313813 0.49038407
v -0.15494308 -0.16498998 0.49118319
v -0.15494308 -0.05500463 0.50114566
v -0.17871204 -0.04836757 0.50103909
v -0.16498795 -0.04836757 0.50146532
v 0.19499204 -0.04836757 0.50197142
v 0.18494716 -0.16498998 0.49163604
v 0.19499204 -0.17399739 0.49049062
v 0.20497850 -0.17257516 0.49030414
v 0.18488877 -0.17587888 0.49051726
v 0.18150154 -0.18005666 0.49001113
v 0.18494716 -0.19313815 0.48319191
v 0.17496070 -0.18016036 0.49003777
v 0.14494289 -0.18051592 0.49014431
v 0.15498777 -0.18539000 0.48830634
v 0.18494716 -0.19767150 0.47498751
v 0.18494716 -0.19934557 0.46499842
v 0.18494716 -0.19962706 0.45498267
v 0.18494716 -0.19964188 0.44499356
v 0.18494716 -0.19964188 0.23098694
v -0.00497089 -0.19777520 0.47498751
v -0.05496162 -0.19774558 0.47498751
v -0.07499295 -0.19773075 0.47498751
v 0.17496070 -0.19937521 0.46499842
v -0.00497089 -0.19321224 0.48343164
v -0.01495736 -0.19321224 0.48340499
v -0.03498869 -0.19319743 0.48337835
v -0.08497942 -0.19316779 0.48329845
v -0.09496589 -0.19315296 0.48327181
v -0.11499722 -0.19312334 0.48319191
v -0.01495736 -0.18583444 0.48841289
v -0.03498869 -0.18571593 0.48838624
v -0.05496162 -0.18559740 0.48835960
v -0.06494809 -0.18553814 0.48833296
v -0.04497515 -0.18064925 0.49019760
v -0.07499295 -0.18047148 0.49011767
v -0.08497942 -0.18038258 0.49009106
v -0.09496589 -0.18024924 0.49006441
v -0.08497942 -0.17498998 0.49089018
v -0.09496589 -0.17498998 0.49081028
v -0.13497016 -0.17411591 0.49051726
v -0.11499722 -0.16498998 0.49163604
v -0.14495662 -0.16498998 0.49131638
v -0.08497942 -0.16498998 0.49195570
v -0.12498368 -0.06500464 0.50066620
v -0.14495662 -0.05500463 0.50130546
v -0.15494308 -0.04836757 0.50173169
v 0.19160481 -0.04836757 0.50205135
v 0.18494716 -0.04836757 0.50218451
v 0.16497423 -0.04836757 0.50245088
v 0.15160054 -0.04836757 0.50261074
v 0.14494289 -0.05500463 0.50207800
v 0.16497423 -0.16498998 0.49184912
v 0.17496070 -0.17498998 0.49073035
v 0.16497423 -0.17498998 0.49081028
v 0.14494289 -0.17498998 0.49094346
v 0.14494289 -0.18550852 0.48833296
v 0.13495643 -0.18559740 0.48835960
v 0.17496070 -0.19316779 0.48324519
v 0.12496997 -0.17498998 0.49105000
v 0.13495643 -0.18058999 0.49017096
v 0.17496070 -0.19771594 0.47498751
v 0.08496571 -0.19777520 0.47498751
v 0.15498777 -0.19774558 0.47498751
v 0.12496997 -0.19776039 0.47498751
v -0.02494382 -0.19319743 0.48340499
v -0.07499295 -0.19316779 0.48332509
v 0.07497924 -0.19321224 0.48343164
v 0.04496144 -0.18589370 0.48843950
v 0.00495717 -0.18587889 0.48843950
v -0.01495736 -0.18082702 0.49025089
v -0.01495736 -0.17498998 0.49118319
v -0.07499295 -0.17498998 0.49094346
v -0.03498869 -0.17498998 0.49110329
v -0.08497942 -0.06500464 0.50117230
v -0.11499722 -0.06500464 0.50079936
v -0.09496589 -0.06500464 0.50106573
v -0.07499295 -0.16498998 0.49200895
v -0.07499295 -0.05500463 0.50215787
v -0.11499722 -0.05500463 0.50170505
v -0.14495662 -0.04836757 0.50189149
v 0.13162762 -0.04836757 0.50277054
v 0.14494289 -0.16498998 0.49200895
v 0.15498777 -0.16498998 0.49192905
v 0.12496997 -0.05500463 0.50221115
v 0.11498350 -0.18568629 0.48838624
v 0.08496571 -0.18082702 0.49025089
v 0.15498777 -0.19318260 0.48329845
v 0.09495217 -0.18577519 0.48841289
v 0.06499277 -0.18589370 0.48843950
v 0.13495643 -0.16498998 0.49206221
v 0.11498350 -0.16498998 0.49214214
v 0.08496571 -0.16498998 0.49224871
v 0.10499704 -0.17498998 0.49110329
v 0.06499277 -0.17498998 0.49120983
v 0.13495643 -0.19319743 0.48335174
v 0.12496997 -0.19319743 0.48337835
v 0.09495217 -0.19321224 0.48340499
v 0.10499704 -0.19319743 0.48340499
v 0.00495717 -0.18088630 0.49025089
v -0.00497089 -0.18087147 0.49025089
v 0.00495717 -0.17498998 0.49120983
v -0.00497089 -0.16498998 0.49227533
v -0.02494382 -0.16498998 0.49222207
v -0.08497942 -0.05500463 0.50207800
v -0.09496589 -0.05500463 0.50197142
v -0.01495736 -0.05500463 0.50247753
v -0.03498869 -0.05500463 0.50237095
v -0.07499295 -0.04836757 0.50271726
v -0.08497942 -0.04836757 0.50266397
v -0.09496589 -0.04836757 0.50255746
v 0.12164114 -0.04836757 0.50282383
v 0.10499704 -0.05500463 0.50231773
v 0.07497924 -0.18087147 0.49025089
v 0.06499277 -0.18088630 0.49025089
v 0.07497924 -0.05500463 0.50247753
v 0.07497924 -0.16498998 0.49227533
v -0.00497089 -0.05500463 0.50250417
v -0.00829971 -0.04836757 0.50306356
v -0.01495736 -0.04836757 0.50303692
v -0.03498869 -0.04836757 0.50293040
v 0.08163688 -0.04836757 0.50303692
v 0.07159202 -0.04836757 0.50306356
v 0.04496144 -0.05500463 0.50250417
v 0.05494791 -0.06500464 0.50157189
v 0.01161482 -0.04836757 0.50309020
f 1 2 5
f 1 5 10
f 1 10 17
f 1 17 27
f 1 27 32
f 1 32 45
f 1 45 57
f 1 57 80
f 1 80 100
f 1 100 124
f 1 124 151
f 1 151 162
f 1 162 188
f 1 188 216
f 1 216 215
f 1 215 262
f 1 262 264
f 1 264 263
f 1 263 301
f 1 301 265
f 1 265 219
f 1 219 218
f 1 218 217
f 1 217 189
f 1 189 163
f 1 163 141
f 1 141 140
f 1 140 111
f 1 111 88
f 1 88 69
f 1 69 51
f 1 51 38
f 1 38 28
f 1 28 18
f 1 18 12
f 1 12 8
f 1 8 3
f 1 3 4
f 1 4 2
f 2 4 7
f 2 7 6
f 2 6 11
f 2 11 15
f 2 15 14
f 2 14 13
f 2 13 25
f 2 25 24
f 2 24 23
f 2 23 22
f 2 22 21
f 2 21 30
f 2 30 44
f 2 44 43
f 2 43 56
f 2 56 79
f 2 79 99
f 2 99 116
f 2 116 117
f 2 117 122
f 2 122 150
f 2 150 149
f 2 149 175
f 2 175 200
f 2 200 199
f 2 199 237
f 2 237 236
f 2 236 235
f 2 235 240
f 2 240 239
f 2 239 238
f 2 238 285
f 2 285 286
f 2 286 328
f 2 328 362
f 2 362 392
f 2 392 391
f 2 391 390
f 2 390 402
f 2 402 401
f 2 401 400
f 2 400 407
f 2 407 404
f 2 404 403
f 2 403 393
f 2 393 363
f 2 363 332
f 2 332 331
f 2 331 330
f 2 330 329
f 2 329 287
f 2 287 250
f 2 250 249
f 2 249 248
f 2 248 247
f 2 247 245
f 2 245 244
f 2 244 243
f 2 243 242
f 2 242 206
f 2 206 202
f 2 202 179
f 2 179 178
f 2 178 177
f 2 177 176
f 2 176 154
f 2 154 131
f 2 131 129
f 2 129 128
f 2 128 127
f 2 127 126
f 2 126 125
f 2 125 103
f 2 103 102
f 2 102 87
f 2 87 86
f 2 86 66
f 2 66 65
f 2 65 64
f 2 64 63
f 2 63 62
f 2 62 61
f 2 61 49
f 2 49 48
f 2 48 47
f 2 47 46
f 2 46 37
f 2 37 36
f 2 36 35
f 2 35 34
f 2 34 33
f 2 33 31
f 2 31 26
f 2 26 16
f 2 16 9
f 2 9 5
f 3 6 7
f 3 7 4
f 3 8 6
f 5 9 10
f 6 8 11
f 8 12 13
f 8 13 14
f 8 14 15
f 8 15 11
f 9 16 10
f 10 16 17
f 12 18 19
f 12 19 20
f 12 20 21
f 12 21 22
f 12 22 23
f 12 23 24
f 12 24 25
f 12 25 13
f 16 26 17
f 17 26 27
f 18 28 19
f 19 29 30
f 19 30 21
f 19 21 20
f 19 28 29
f 26 31 27
f 27 31 33
f 27 33 34
f 27 34 35
f 27 35 36
f 27 36 37
f 27 37 32
f 28 38 39
f 28 39 40
f 28 40 29
f 29 40 39
f 29 39 41
f 29 41 42
f 29 42 43
f 29 43 44
f 29 44 30
f 32 37 46
f 32 46 47
f 32 47 48
f 32 48 49
f 32 49 50
f 32 50 45
f 38 51 39
f 39 52 41
f 39 51 52
f 41 52 53
f 41 53 54
f 41 54 42
f 42 54 43
f 43 55 56
f 43 54 55
f 45 50 58
f 45 58 59
f 45 59 60
f 45 60 57
f 49 61 50
f 50 61 62
f 50 62 63
f 50 63 64
f 50 64 65
f 50 65 66
f 50 66 67
f 50 67 68
f 50 68 58
f 51 69 70
f 51 70 71
f 51 71 52
f 52 71 72
f 52 72 53
f 53 73 74
f 53 74 54
f 53 72 75
f 53 75 76
f 53 76 73
f 54 74 77
f 54 77 78
f 54 78 56
f 54 56 55
f 56 78 79
f 57 60 81
f 57 81 80
f 58 68 82
f 58 82 59
f 59 82 83
f 59 83 60
f 60 83 84
f 60 84 85
f 60 85 81
f 66 86 68
f 66 68 67
f 68 86 87
f 68 87 82
f 69 88 70
f 70 72 71
f 70 88 89
f 70 89 72
f 72 89 90
f 72 90 91
f 72 91 92
f 72 92 75
f 73 93 74
f 73 76 94
f 73 94 93
f 74 95 77
f 74 93 95
f 75 92 76
f 76 92 96
f 76 96 97
f 76 97 98
f 76 98 94
f 77 95 79
f 77 79 78
f 79 95 93
f 79 93 99
f 80 81 100
f 81 85 100
f 82 101 83
f 82 87 102
f 82 102 103
f 82 103 101
f 83 101 84
f 84 101 104
f 84 104 105
f 84 105 106
f 84 106 107
f 84 107 108
f 84 108 85
f 85 108 109
f 85 109 110
f 85 110 100
f 88 111 90
f 88 90 89
f 90 111 112
f 90 112 113
f 90 113 114
f 90 114 115
f 90 115 91
f 91 115 96
f 91 96 92
f 93 94 116
f 93 116 99
f 94 117 116
f 94 98 117
f 96 115 118
f 96 118 119
f 96 119 97
f 97 119 98
f 98 119 120
f 98 120 121
f 98 121 122
f 98 122 117
f 100 110 123
f 100 123 124
f 101 103 104
f 103 125 104
f 104 125 126
f 104 126 127
f 104 127 105
f 105 127 128
f 105 128 129
f 105 129 106
f 106 130 108
f 106 108 107
f 106 129 131
f 106 131 130
f 108 130 132
f 108 132 133
f 108 133 109
f 109 134 135
f 109 135 136
f 109 136 137
f 109 137 138
f 109 138 139
f 109 139 123
f 109 123 110
f 109 133 134
f 111 140 112
f 112 140 141
f 112 141 142
f 112 142 113
f 113 142 143
f 113 143 144
f 113 144 114
f 114 145 118
f 114 118 115
f 114 144 145
f 118 145 146
f 118 146 119
f 119 146 120
f 120 146 147
f 120 147 148
f 120 148 149
f 120 149 150
f 120 150 121
f 121 150 122
f 123 139 151
f 123 151 124
f 130 131 152
f 130 152 153
f 130 153 132
f 131 154 152
f 132 153 155
f 132 155 156
f 132 156 135
f 132 135 134
f 132 134 133
f 135 157 158
f 135 158 137
f 135 137 136
f 135 156 157
f 137 158 159
f 137 159 138
f 138 159 160
f 138 160 161
f 138 161 162
f 138 162 151
f 138 151 139
f 141 163 142
f 142 163 164
f 142 164 143
f 143 164 165
f 143 165 166
f 143 166 144
f 144 167 145
f 144 166 168
f 144 168 167
f 145 167 169
f 145 169 170
f 145 170 146
f 146 170 147
f 147 170 171
f 147 171 172
f 147 172 173
f 147 173 174
f 147 174 175
f 147 175 149
f 147 149 148
f 152 154 176
f 152 176 177
f 152 177 153
f 153 177 155
f 155 177 178
f 155 178 179
f 155 179 180
f 155 180 181
f 155 181 157
f 155 157 156
f 157 181 182
f 157 182 158
f 158 182 183
f 158 183 159
f 159 183 184
f 159 184 185
f 159 185 160
f 160 185 186
f 160 186 187
f 160 187 161
f 161 187 188
f 161 188 162
f 163 189 190
f 163 190 164
f 164 190 191
f 164 191 165
f 165 191 192
f 165 192 193
f 165 193 166
f 166 193 194
f 166 194 168
f 167 168 169
f 168 194 195
f 168 195 169
f 169 196 171
f 169 171 170
f 169 195 197
f 169 197 196
f 171 196 172
f 172 198 199
f 172 199 200
f 172 200 173
f 172 196 201
f 172 201 198
f 173 200 174
f 174 200 175
f 179 202 180
f 180 202 181
f 181 203 204
f 181 204 205
f 181 205 182
f 181 202 206
f 181 206 203
f 182 205 207
f 182 207 208
f 182 208 183
f 183 208 184
f 184 208 209
f 184 209 210
f 184 210 211
f 184 211 185
f 185 211 212
f 185 212 186
f 186 212 213
f 186 213 214
f 186 214 187
f 187 214 215
f 187 215 216
f 187 216 188
f 189 217 190
f 190 217 218
f 190 218 219
f 190 219 220
f 190 220 221
f 190 221 191
f 191 221 192
f 192 221 222
f 192 222 271
f 192 271 223
f 192 223 224
f 192 224 193
f 193 224 225
f 193 225 194
f 194 225 226
f 194 226 227
f 194 227 195
f 195 227 228
f 195 228 229
f 195 229 230
f 195 230 197
f 196 197 201
f 197 230 231
f 197 231 232
f 197 232 233
f 197 233 234
f 197 234 201
f 198 201 235
f 198 235 236
f 198 236 237
f 198 237 199
f 201 238 239
f 201 239 240
f 201 240 235
f 201 234 241
f 201 241 238
f 203 206 242
f 203 242 204
f 204 242 243
f 204 243 244
f 204 244 245
f 204 245 246
f 204 246 247
f 204 247 248
f 204 248 249
f 204 249 250
f 204 250 251
f 204 251 252
f 204 252 207
f 204 207 205
f 207 252 253
f 207 253 208
f 208 253 254
f 208 254 255
f 208 255 209
f 209 255 210
f 210 256 211
f 210 255 257
f 210 257 258
f 210 258 256
f 211 256 212
f 212 256 259
f 212 259 213
f 213 259 260
f 213 260 261
f 213 261 214
f 214 262 215
f 214 261 263
f 214 263 264
f 214 264 262
f 219 265 266
f 219 266 220
f 220 266 268
f 220 268 221
f 221 267 222
f 221 268 305
f 221 305 267
f 222 267 269
f 222 269 270
f 222 270 271
f 223 271 272
f 223 272 273
f 223 273 224
f 224 273 274
f 224 274 275
f 224 275 225
f 225 275 276
f 225 276 277
f 225 277 226
f 226 277 278
f 226 278 279
f 226 279 280
f 226 280 228
f 226 228 227
f 228 280 322
f 228 322 281
f 228 281 282
f 228 282 229
f 229 282 230
f 230 282 232
f 230 232 231
f 232 282 283
f 232 283 233
f 233 283 234
f 234 283 284
f 234 284 241
f 238 241 285
f 241 284 328
f 241 328 286
f 241 286 285
f 245 247 246
f 250 287 251
f 251 287 288
f 251 288 289
f 251 289 290
f 251 290 252
f 252 290 253
f 253 290 289
f 253 289 254
f 254 289 255
f 255 291 292
f 255 292 257
f 255 289 291
f 256 258 293
f 256 293 259
f 257 292 258
f 258 292 294
f 258 294 295
f 258 295 296
f 258 296 293
f 259 293 297
f 259 297 260
f 260 297 298
f 260 298 299
f 260 299 261
f 261 299 300
f 261 300 263
f 263 300 301
f 265 301 300
f 265 300 266
f 266 300 299
f 266 299 268
f 267 302 303
f 267 303 304
f 267 304 269
f 267 305 344
f 267 344 302
f 268 299 298
f 268 298 305
f 269 304 306
f 269 306 307
f 269 307 308
f 269 308 309
f 269 309 270
f 270 309 271
f 271 309 310
f 271 310 311
f 271 311 272
f 272 311 312
f 272 312 313
f 272 313 314
f 272 314 273
f 273 314 315
f 273 315 276
f 273 276 274
f 274 276 275
f 276 315 314
f 276 314 316
f 276 316 317
f 276 317 318
f 276 318 319
f 276 319 277
f 277 319 278
f 278 319 320
f 278 320 321
f 278 321 279
f 279 322 280
f 279 321 322
f 281 323 324
f 281 324 283
f 281 283 282
f 281 322 321
f 281 321 325
f 281 325 323
f 283 324 357
f 283 357 326
f 283 326 327
f 283 327 284
f 284 327 362
f 284 362 328
f 287 329 288
f 288 329 330
f 288 330 331
f 288 331 332
f 288 332 333
f 288 333 334
f 288 334 335
f 288 335 291
f 288 291 289
f 291 335 292
f 292 335 336
f 292 336 337
f 292 337 294
f 293 296 338
f 293 338 339
f 293 339 340
f 293 340 297
f 294 337 341
f 294 341 295
f 295 338 296
f 295 341 342
f 295 342 339
f 295 339 338
f 297 340 343
f 297 343 298
f 298 343 305
f 302 306 303
f 302 344 349
f 302 349 306
f 303 306 304
f 305 343 345
f 305 345 346
f 305 346 344
f 306 347 348
f 306 348 308
f 306 308 307
f 306 349 371
f 306 371 350
f 306 350 351
f 306 351 347
f 308 348 309
f 309 348 351
f 309 351 312
f 309 312 310
f 310 312 311
f 312 352 313
f 312 351 352
f 313 352 314
f 314 352 316
f 316 352 353
f 316 353 317
f 317 354 318
f 317 353 355
f 317 355 354
f 318 354 319
f 319 354 320
f 320 354 359
f 320 359 325
f 320 325 321
f 323 325 356
f 323 356 358
f 323 358 324
f 324 358 357
f 325 359 360
f 325 360 356
f 326 357 361
f 326 361 327
f 327 361 362
f 332 363 333
f 333 364 365
f 333 365 334
f 333 363 366
f 333 366 364
f 334 365 336
f 334 336 335
f 336 365 364
f 336 364 337
f 337 364 372
f 337 372 341
f 339 367 340
f 339 342 368
f 339 368 367
f 340 369 343
f 340 367 370
f 340 370 371
f 340 371 369
f 341 372 373
f 341 373 374
f 341 374 398
f 341 398 375
f 341 375 342
f 342 375 376
f 342 376 368
f 343 369 377
f 343 377 345
f 344 346 349
f 345 377 378
f 345 378 379
f 345 379 349
f 345 349 346
f 347 351 348
f 349 379 378
f 349 378 380
f 349 380 371
f 350 371 396
f 350 396 381
f 350 381 351
f 351 381 382
f 351 382 352
f 352 382 383
f 352 383 353
f 353 384 385
f 353 385 355
f 353 383 384
f 354 355 385
f 354 385 359
f 356 360 386
f 356 386 387
f 356 387 358
f 357 358 387
f 357 387 361
f 359 385 388
f 359 388 389
f 359 389 360
f 360 390 391
f 360 391 386
f 360 389 402
f 360 402 390
f 361 387 392
f 361 392 362
f 363 393 394
f 363 394 366
f 364 366 394
f 364 394 372
f 367 368 370
f 368 376 395
f 368 395 371
f 368 371 370
f 369 371 377
f 371 395 396
f 371 380 378
f 371 378 377
f 372 394 397
f 372 397 373
f 373 397 374
f 374 397 398
f 375 398 376
f 376 398 384
f 376 384 383
f 376 383 381
f 376 381 396
f 376 396 395
f 381 383 382
f 384 399 388
f 384 388 385
f 384 398 405
f 384 405 399
f 386 391 392
f 386 392 387
f 388 399 400
f 388 400 401
f 388 401 402
f 388 402 389
f 393 403 394
f 394 403 397
f 397 403 404
f 397 404 405
f 397 405 406
f 397 406 398
f 398 406 405
f 399 405 407
f 399 407 400
f 404 407 405

