# https://github.com/mikedh/trimesh
v -0.24887797 -0.04835276 0.23098718
v -0.28368378 -0.04835276 0.36155275
v -0.30017394 -0.00047715 0.29933262
v -0.29116821 -0.00252648 0.27818960
v -0.29159421 0.00499383 0.27754483
v -0.28751731 0.00499383 0.27252099
v -0.24887797 0.04511127 0.23098718
v 0.25343305 -0.04835276 0.23098718
v -0.28459650 -0.04835276 0.36501840
v -0.28623945 -0.04835276 0.37160039
v -0.28715217 -0.04835276 0.37533468
v -0.29104656 -0.04835276 0.39161509
v -0.29177672 -0.04835276 0.39497325
v -0.29378474 -0.04835276 0.40472537
v -0.30078244 -0.00133713 0.30500120
v -0.30412912 0.00499383 0.32501590
v -0.30266875 0.00499383 0.31502199
v -0.30017394 0.00226749 0.29933262
v -0.29494089 0.00499383 0.28501338
v -0.29092485 0.01094969 0.27851197
v -0.29974800 0.00893696 0.30067587
v -0.30041730 0.01068438 0.30733848
v -0.27090544 0.04511127 0.31668764
v 0.25343305 0.04511127 0.23098718
v 0.25391984 -0.00499665 0.23098718
v 0.29286343 -0.00499665 0.24785861
v 0.29201150 -0.01159293 0.24836905
v 0.29365444 -0.01269993 0.25500479
v 0.27868551 -0.04835276 0.30782205
v -0.29506260 -0.04835276 0.41165662
v -0.29567111 -0.04835276 0.41498792
v -0.29737484 -0.04835276 0.42543855
v -0.29853100 -0.04835276 0.43497574
v -0.30163431 -0.00219712 0.31502199
v -0.30522442 0.00499383 0.33500978
v -0.31015325 0.00947674 0.37807494
v -0.31015325 0.01029098 0.37807494
v -0.30084330 0.00535978 0.30441016
v -0.29853100 0.00535978 0.29559833
v -0.30102581 0.01161755 0.31502199
v -0.27905923 0.04511127 0.35534686
v -0.27504319 0.04511127 0.33511725
v -0.27297431 0.04511127 0.32512334
v 0.27071428 0.04511127 0.28646410
v 0.30369461 0.01374007 0.28501338
v 0.30211252 0.01222137 0.27501947
v 0.30071294 0.01079416 0.26854491
v 0.29870492 0.00887292 0.26188231
v 0.30138230 0.00220345 0.25804058
v 0.29182899 0.00221260 0.24877203
v 0.25391984 -0.00096203 0.23098718
v 0.30138230 -0.00276434 0.25804058
v 0.29937428 -0.00936977 0.26502556
v 0.27990252 -0.04835276 0.31198621
v -0.29907864 -0.04835276 0.44384131
v -0.29938287 -0.04749277 0.44499654
v -0.29907864 -0.04627599 0.43497574
v -0.31064004 0.00813186 0.39497325
v -0.30248618 0.01351135 0.33500978
v -0.30181688 0.01270626 0.32501590
v -0.31064004 0.01130649 0.39497325
v -0.31033576 0.01073012 0.38497934
v -0.28909934 0.04511127 0.42605644
v -0.28903854 0.04511127 0.42527735
v -0.28812575 0.04511127 0.41498792
v -0.28703046 0.04511127 0.40510148
v -0.28082383 0.04511127 0.36501840
v 0.27333081 0.04511127 0.29503417
v 0.30570263 0.01576195 0.30500120
v 0.31008375 0.01018119 0.29911768
v 0.27576476 0.04511127 0.30489373
v 0.30582428 0.00499383 0.27501947
v 0.30259931 0.00532319 0.26513302
v 0.30272096 -0.00436538 0.26502556
v 0.28951669 -0.04835276 0.35206929
v 0.28878653 -0.04835276 0.34825441
v 0.28805631 -0.04835276 0.34452012
v 0.28586572 -0.04835276 0.33500978
v 0.28422278 -0.04835276 0.32837406
v 0.28160626 -0.04835276 0.31805778
v -0.29913950 -0.04835276 0.44499654
v -0.29913950 -0.04835276 0.45499045
v -0.30053902 -0.04242434 0.45499045
v -0.30053902 -0.04248839 0.44499654
v -0.31082255 0.00746400 0.40499401
v -0.28575265 0.04511127 0.39510757
v -0.28417057 0.04511127 0.38497934
v -0.28252763 0.04511127 0.37498543
v -0.31082255 0.01180053 0.40499401
v -0.30905795 0.01738129 0.43497574
v -0.30802351 0.01699704 0.41498792
v -0.30747586 0.01680492 0.40499401
v -0.28940362 0.04511127 0.43497574
v 0.30990124 0.01968678 0.35064542
v 0.31044883 0.01076671 0.30500120
v 0.31008375 0.00951333 0.29911768
v 0.30771065 0.00499383 0.28501338
v 0.27752936 0.04511127 0.31502199
v 0.30369461 -0.00463070 0.27501947
v 0.29462802 -0.04835276 0.38497934
v 0.29371530 -0.04835276 0.37834361
v 0.29213321 -0.04835276 0.36813477
v 0.29164642 -0.04835276 0.36501840
v 0.29049027 -0.04835276 0.35787222
v -0.30029565 -0.04135393 0.46127692
v -0.29773998 -0.04835276 0.46485001
v -0.30218196 -0.03499553 0.45499045
v -0.30224282 -0.03499553 0.44499654
v -0.31070089 0.00733592 0.41498792
v -0.30437255 -0.02499590 0.44499654
v -0.30631971 -0.01499628 0.44499654
v -0.31070089 0.01200180 0.41498792
v -0.31033576 0.01238605 0.43497574
v -0.31021404 0.01180053 0.44209507
v -0.30924046 0.01507580 0.44526517
v -0.30297303 0.02237653 0.46498436
v -0.28922105 0.04511127 0.44564128
v -0.28934276 0.04511127 0.44042942
v -0.28940362 0.04511127 0.43610409
v 0.31014460 0.02018997 0.35730803
v 0.28038931 0.04511127 0.33546650
v 0.28166711 0.04511127 0.34492311
v 0.31075311 0.01142543 0.31502199
v 0.31044883 0.00863505 0.30500120
v 0.30874509 0.00570743 0.29546401
v 0.29712284 -0.04835276 0.41498792
v 0.29590589 -0.04835276 0.39833143
v 0.29560161 -0.04835276 0.39497325
v 0.29499310 -0.04835276 0.38833752
v -0.29859185 -0.04481218 0.46476942
v -0.29944372 -0.03717294 0.46793953
v -0.30084330 -0.03430022 0.46476942
v -0.30260789 -0.02499590 0.46498436
v -0.30412912 -0.02499590 0.45499045
v -0.29494089 -0.04835276 0.47164696
v -0.31033576 0.00772017 0.43497574
v -0.31021404 0.00831484 0.44209507
v -0.30802351 -0.00499665 0.44499654
v -0.30826688 0.00499383 0.45499045
v -0.30638057 0.01499346 0.46498436
v -0.30796266 0.01499346 0.45499045
v -0.30163431 0.02160803 0.47497827
v -0.28788239 0.04511127 0.45499045
v -0.28916019 0.04511127 0.44631293
v 0.31032717 0.02044613 0.36501840
v 0.28282326 0.04511127 0.35489017
v 0.28483129 0.04511127 0.37487796
v 0.28562236 0.04511127 0.38487187
v 0.31081396 0.01499346 0.37498543
v 0.31075311 0.00802208 0.31502199
v 0.31050968 0.02070230 0.37498543
v 0.29736626 -0.04835276 0.42498183
v -0.30005223 -0.03050347 0.47024995
v -0.29348052 -0.04835276 0.47508574
v -0.30059987 -0.02499590 0.47164696
v -0.30418998 -0.01499628 0.46498436
v -0.30577207 -0.01499628 0.45499045
v -0.30711073 -0.00499665 0.45499045
v -0.30552870 -0.00499665 0.46498436
v -0.30650228 0.00499383 0.46498436
v -0.30345982 0.01499346 0.47497827
v -0.30035651 0.02056507 0.48070058
v -0.28417057 0.04511127 0.46506494
v 0.28617001 0.04511127 0.39486578
v 0.31057054 0.01499346 0.39497325
v 0.31038803 0.00869909 0.36501840
v 0.31069225 0.00825080 0.33500978
v 0.31075311 0.00807697 0.32501590
v 0.31050968 0.02084868 0.38497934
v 0.31050968 0.02085783 0.39497325
v 0.28690016 0.04511127 0.41488048
v 0.29730541 -0.04835276 0.42834002
v 0.30071294 -0.03326641 0.42498183
v -0.29731399 -0.03430022 0.47414544
v -0.29834843 -0.02499590 0.47667077
v -0.29932207 -0.01674369 0.47863194
v -0.29025549 -0.04835276 0.48032445
v -0.30114752 -0.01404480 0.47516632
v -0.29999137 -0.01007423 0.48000208
v -0.30242538 -0.00499665 0.47497827
v -0.30333811 0.00499383 0.47497827
v -0.30066073 0.01499346 0.48113042
v -0.29688805 0.01499346 0.48612738
v -0.29135078 0.02147995 0.49123180
v -0.28082383 0.04511127 0.47102904
v 0.31026632 0.01654875 0.41498792
v 0.31032717 0.01428900 0.40472537
v 0.31002289 0.00987928 0.40123287
v 0.31008375 0.00961397 0.39497325
v 0.31038803 0.02076634 0.40499401
v 0.31026632 0.02056507 0.41498792
v 0.30673707 -0.00499665 0.42498183
v 0.30466819 -0.01499628 0.42498183
v 0.30253845 -0.02499590 0.42498183
v 0.28690016 0.04511127 0.41498792
v 0.29706198 -0.04835276 0.43497574
v -0.28824747 -0.04835276 0.48185578
v -0.28879511 -0.01696327 0.48932436
v -0.29001212 -0.01030295 0.49004972
v -0.29074228 -0.04499515 0.48078117
v -0.30023479 -0.00499665 0.48037818
v -0.29202014 -0.03499553 0.48212445
v -0.29329795 -0.02499590 0.48336023
v -0.29469752 -0.01352332 0.48464978
v -0.29055977 -0.00499665 0.49045271
v -0.29554939 -0.00499665 0.48537514
v -0.29141164 0.00499383 0.49117807
v -0.29640126 0.00499383 0.48596618
v -0.30059987 0.00499383 0.48096922
v -0.29189843 0.01499346 0.49168849
v -0.28496158 0.01499346 0.49598694
v -0.27248752 0.02199228 0.50066149
v -0.28496158 0.02311758 0.49324667
v -0.26962757 0.04511127 0.47984087
v -0.27267003 0.04511127 0.47758418
v -0.27358282 0.04511127 0.47688571
v -0.27413040 0.04511127 0.47645587
v 0.31008375 0.01823213 0.42318186
v 0.30977952 0.01493856 0.42589527
v 0.30984038 0.01154436 0.41498792
v 0.30856252 0.00499383 0.42498183
v 0.30880594 0.00499383 0.41498792
v 0.28665680 0.04511127 0.42498183
v 0.31008375 0.02028146 0.42318186
v 0.29986107 0.02996088 0.44671592
v 0.30625027 -0.00499665 0.43497574
v 0.30424225 -0.01499628 0.43497574
v 0.30053043 -0.03243387 0.43497574
v 0.29687947 -0.04835276 0.43833393
v -0.28514415 -0.04835276 0.48416620
v -0.27741629 -0.04835276 0.48892137
v -0.27942431 -0.03877398 0.48978108
v -0.28526586 -0.01418203 0.49150044
v -0.28496158 -0.00499665 0.49316609
v -0.28496158 0.00499383 0.49472427
v -0.27747715 0.01499346 0.49929139
v -0.27248752 0.01499346 0.50066149
v -0.26494217 0.01499346 0.50192422
v -0.25496292 0.02499308 0.50224662
v -0.26433367 0.02519436 0.50109136
v -0.26062191 0.03010725 0.50012422
v -0.26555067 0.04511127 0.48161399
v 0.30868423 0.01499346 0.44499654
v 0.30929273 0.01499346 0.43497574
v 0.30807573 0.00499383 0.43497574
v 0.28592658 0.04511127 0.43497574
v 0.30412054 0.02474606 0.45499045
v 0.30357289 0.02424288 0.46498436
v 0.30789316 0.01499346 0.45499045
v 0.30746722 0.00499383 0.44499654
v 0.30558091 -0.00499665 0.44499654
v 0.30357289 -0.01499628 0.44499654
v 0.30150402 -0.02499590 0.44499654
v 0.30022615 -0.03103410 0.44499654
v 0.29645354 -0.04835276 0.44499654
v -0.27242666 -0.04835276 0.49088255
v -0.26494217 -0.04835276 0.49327356
v -0.27078372 0.00864420 0.50020480
v -0.25496292 0.00499383 0.50187045
v -0.25496292 0.01499346 0.50291824
v -0.25496292 -0.04835276 0.49550337
v -0.24498361 -0.04835276 0.49703473
v -0.23494348 -0.04835276 0.49816304
v -0.25496292 0.03050980 0.50055408
v -0.24498361 0.02499308 0.50291824
v -0.25496292 0.04511127 0.48524082
v -0.23463923 0.04511127 0.48916316
v -0.24486192 0.04511127 0.48747063
v 0.28470957 0.04511127 0.44499654
v 0.30253845 0.02311758 0.47497827
v 0.30655450 0.01499346 0.46498436
v 0.28245819 0.04511127 0.45499045
v 0.30649364 0.00499383 0.45499045
v 0.30004364 -0.03021986 0.45018154
v 0.29487145 -0.04835276 0.45499045
v -0.23841189 -0.02904882 0.49988243
v -0.23506518 -0.02542589 0.50044662
v -0.21498491 -0.03499553 0.50084960
v -0.24498361 0.00499383 0.50262272
v -0.24498361 0.01499346 0.50345552
v -0.22447740 -0.04835276 0.49891528
v -0.23494348 -0.04499515 0.49851230
v -0.24498361 0.03096724 0.50101078
v -0.21662784 0.04511127 0.49147359
v -0.23494348 0.02499308 0.50318688
v 0.30119973 0.02152569 0.48258114
v 0.30436391 0.01499346 0.47497827
v 0.28051102 0.04511127 0.46098143
v 0.30491155 0.00499383 0.46498436
v 0.30448562 -0.00499665 0.45499045
v 0.29213321 -0.04835276 0.46487689
v 0.30259931 -0.00499665 0.46498436
v 0.30004364 -0.01034869 0.47019622
v -0.23506518 -0.03469362 0.49956006
v -0.21498491 -0.04835276 0.49958691
v -0.21109055 -0.04835276 0.49982870
v -0.20756128 -0.04835276 0.50004363
v -0.21498491 -0.02499590 0.50173616
v -0.21498491 -0.01499628 0.50254214
v -0.21498491 -0.00499665 0.50324059
v -0.20494477 -0.00499665 0.50353611
v -0.21498491 0.00499383 0.50377792
v -0.23494348 0.01499346 0.50369734
v -0.22496419 0.02499308 0.50342864
v -0.23494348 0.03120511 0.50119883
v -0.19496548 0.04511127 0.49233326
v -0.21577595 0.04511127 0.49152732
v 0.29262000 0.02130612 0.49184969
v 0.29894835 0.01499346 0.48843780
v 0.30144316 0.01499346 0.48344085
v 0.27795535 0.04511127 0.46595150
v 0.27290481 0.04511127 0.47376931
v 0.26864541 0.04511127 0.47871256
v 0.30077380 0.00747315 0.48201698
v 0.30199081 0.00448150 0.47556931
v 0.29115963 -0.04835276 0.46818131
v -0.20500562 -0.04554408 0.50041974
v -0.20494477 -0.03499553 0.50136006
v -0.20324099 -0.04835276 0.50023168
v -0.20494477 -0.02499590 0.50219285
v -0.20494477 -0.01499628 0.50291824
v -0.16496678 -0.02499590 0.50334805
v -0.16496678 -0.01499628 0.50393909
v -0.20494477 0.00499383 0.50399280
v -0.22496419 0.01499346 0.50391221
v -0.21498491 0.01499346 0.50410032
v -0.21498491 0.02499308 0.50353611
v -0.22496419 0.03142468 0.50136006
v -0.18498620 0.04511127 0.49257505
v 0.27497369 0.01921105 0.49942571
v 0.28525722 0.01553323 0.49837798
v 0.29395866 0.01499346 0.49338102
v 0.26858455 0.04511127 0.47876626
v 0.26365572 0.04511127 0.48233935
v 0.25507599 0.04511127 0.48669153
v 0.25495428 0.04511127 0.48674527
v 0.24746983 0.04511127 0.48935121
v 0.29280257 0.00499383 0.49281687
v 0.29809642 0.00448150 0.48518708
v 0.29030776 -0.04835276 0.47057235
v -0.19879898 -0.04835276 0.50039285
v -0.19496548 -0.04835276 0.50052720
v -0.19496548 -0.03499553 0.50170928
v -0.16496678 -0.03499553 0.50262272
v -0.19496548 -0.02499590 0.50248837
v -0.15498748 -0.02499590 0.50356299
v -0.16496678 -0.00499665 0.50434208
v -0.15498748 -0.01499628 0.50410032
v -0.15498748 -0.00499665 0.50450325
v -0.16496678 0.00499383 0.50453013
v -0.15498748 0.00499383 0.50463760
v -0.20494477 0.01499346 0.50418091
v -0.21498491 0.03153446 0.50141376
v -0.16496678 0.01499346 0.50442266
v -0.15498748 0.01499346 0.50444955
v -0.14494735 0.01499346 0.50447643
v -0.12498878 0.01499346 0.50450325
v -0.09499007 0.01499346 0.50453013
v -0.20494477 0.02499308 0.50353611
v -0.15498748 0.04511127 0.49316609
v -0.16496678 0.04511127 0.49303177
v -0.17494607 0.04511127 0.49281687
v 0.27497369 0.01421581 0.50162870
v 0.28209311 0.01255988 0.50087643
v 0.24248017 0.04511127 0.49056017
v 0.23505656 0.04511127 0.49171537
v 0.22495557 0.04511127 0.49273625
v 0.28209311 0.00707060 0.50087643
v 0.28525722 0.00423448 0.49816304
v 0.27576476 -0.04835276 0.48722887
v 0.28197140 -0.04835276 0.48207071
v 0.28531808 -0.04835276 0.47787970
v 0.28708273 -0.04835276 0.47546184
v -0.18498620 -0.04499515 0.50114512
v -0.17871872 -0.04835276 0.50103766
v -0.16496678 -0.04499515 0.50176299
v -0.15498748 -0.04835276 0.50173616
v -0.15498748 -0.03499553 0.50283766
v -0.14494735 -0.03499553 0.50299883
v -0.09499007 -0.03499553 0.50364357
v -0.09499007 -0.02499590 0.50428832
v -0.09499007 -0.01499628 0.50474507
v -0.10496936 -0.00499665 0.50493312
v -0.09499007 -0.00499665 0.50501370
v -0.08494994 -0.00499665 0.50509429
v -0.09499007 0.00499383 0.50496000
v -0.00499395 0.04511127 0.49418700
v -0.01497324 0.04511127 0.49416012
v -0.07497066 0.04511127 0.49389148
v -0.09499007 0.04511127 0.49373028
v -0.18498620 0.03153446 0.50136006
v 0.13508116 0.04511127 0.49416012
v 0.08506303 0.04511127 0.49424070
v 0.05494262 0.04511127 0.49424070
v 0.01496462 0.04511127 0.49421385
v -0.08494994 0.00499383 0.50501370
v -0.06499136 0.00499383 0.50506747
v -0.01497324 0.00499383 0.50517488
v 0.00498534 0.00499383 0.50520176
v -0.06499136 0.01499346 0.50453013
v 0.21497630 0.00499383 0.50525552
v -0.17494607 0.02499308 0.50345552
v -0.03499266 0.01499346 0.50450325
v -0.01497324 0.01499346 0.50447643
v 0.00498534 0.01499346 0.50444955
v 0.26499444 0.01469155 0.50216597
v 0.25495428 0.00499383 0.50463760
v 0.26499444 0.00499383 0.50385851
v 0.21497630 0.04511127 0.49330044
v 0.26511610 -0.04835276 0.49308550
v 0.27095765 -0.04835276 0.49058703
v 0.27576476 0.00423448 0.50187045
v 0.25495428 -0.04835276 0.49647054
v 0.26158684 -0.04835276 0.49434817
v 0.27326995 -0.04835276 0.48900196
v -0.16496678 -0.04835276 0.50146747
v -0.13831478 -0.04835276 0.50197792
v -0.14494735 -0.04499515 0.50216597
v -0.09833679 -0.04835276 0.50251526
v -0.09499007 -0.04499515 0.50283766
v -0.08494994 -0.03499553 0.50375104
v -0.08494994 -0.02499590 0.50436896
v -0.08494994 -0.01499628 0.50482565
v -0.07497066 -0.01499628 0.50487936
v -0.02495252 -0.01499628 0.50509429
v -0.00499395 -0.01499628 0.50517488
v -0.02495252 -0.00499665 0.50530922
v -0.16496678 0.02499308 0.50342864
v -0.17494607 0.03152532 0.50133318
v 0.14506043 0.04511127 0.49413323
v 0.00498534 -0.00499665 0.50538981
v 0.07496204 -0.00499665 0.50541669
v 0.18497759 -0.00499665 0.50533611
v 0.19495687 -0.00499665 0.50530922
v 0.20499700 -0.00499665 0.50525552
v 0.22495557 0.00499383 0.50520176
v 0.06498275 0.01499346 0.50423461
v 0.02494391 0.01499346 0.50439584
v 0.08494133 -0.00499665 0.50541669
v 0.25495428 0.01483793 0.50243461
v 0.24497500 0.00499383 0.50496000
v 0.23499571 -0.00499665 0.50479877
v 0.24497500 -0.00499665 0.50442266
v 0.25495428 -0.00499665 0.50367045
v 0.23231834 -0.04835276 0.50023168
v 0.23718628 -0.04835276 0.49961376
v 0.26499444 -0.00499665 0.50238091
v 0.20505786 0.04511127 0.49356908
v 0.25160760 -0.04835276 0.49722278
v -0.08829665 -0.04835276 0.50262272
v -0.08494994 -0.04499515 0.50294507
v -0.07497066 -0.04835276 0.50273013
v -0.06499136 -0.03499553 0.50385851
v -0.06499136 -0.02499590 0.50447643
v -0.04497194 -0.02499590 0.50458384
v -0.00499395 -0.02499590 0.50477195
v 0.01496462 -0.01499628 0.50520176
v -0.16496678 0.03147957 0.50127941
v 0.08494133 0.01499346 0.50412714
v 0.09498146 0.01499346 0.50404656
v 0.10496075 0.01499346 0.50396597
v 0.18509929 0.04511127 0.49399894
v 0.09498146 -0.01499628 0.50520176
v 0.14499959 -0.01499628 0.50506747
v 0.15497887 -0.01499628 0.50504059
v 0.17499830 -0.01499628 0.50496000
v 0.21497630 -0.00499665 0.50517488
v 0.19495687 -0.01499628 0.50485253
v 0.23499571 0.00499383 0.50509429
v 0.20499700 0.01499346 0.50297195
v 0.13495946 0.01499346 0.50367045
v 0.19507857 0.04511127 0.49383771
v 0.22495557 0.01499346 0.50275701
v 0.22495557 -0.00499665 0.50501370
v 0.20499700 -0.01499628 0.50471818
v 0.21497630 -0.01499628 0.50450325
v 0.20499700 -0.02499590 0.50393909
v 0.23499571 -0.01499628 0.50388539
v 0.22495557 -0.04835276 0.50074214
v 0.24460991 -0.04835276 0.49859291
v -0.07831737 -0.04835276 0.50270331
v -0.06499136 -0.04835276 0.50278389
v -0.03499266 -0.03499553 0.50401968
v -0.00499395 -0.03499553 0.50415403
v 0.03498404 -0.02499590 0.50479877
v 0.06498275 -0.02499590 0.50479877
v 0.08494133 -0.02499590 0.50477195
v 0.09498146 -0.02499590 0.50474507
v 0.12498017 -0.02499590 0.50463760
v 0.14499959 -0.02499590 0.50453013
v 0.16495816 -0.02499590 0.50442266
v 0.18497759 -0.02499590 0.50423461
v 0.19495687 -0.02499590 0.50412714
v 0.19495687 -0.03499553 0.50326747
v 0.20499700 -0.03499553 0.50299883
v 0.21497630 -0.02499590 0.50361669
v 0.20499700 -0.04835276 0.50165558
v 0.21162958 -0.04835276 0.50136006
v 0.22179142 -0.04835276 0.50090331
v -0.05495123 -0.04835276 0.50283766
v -0.01497324 -0.04499515 0.50332117
v -0.00499395 -0.04835276 0.50307941
v 0.00498534 -0.04499515 0.50337493
v 0.07496204 -0.03499553 0.50415403
v 0.08494133 -0.03499553 0.50412714
v 0.11494003 -0.03499553 0.50399280
v 0.12498017 -0.03499553 0.50393909
v 0.14499959 -0.03499553 0.50383162
v 0.15497887 -0.03499553 0.50375104
v 0.17499830 -0.03499553 0.50353611
v 0.18497759 -0.04499515 0.50248837
v 0.19495687 -0.04499515 0.50232720
v 0.19495687 -0.04835276 0.50197792
v -0.01831995 -0.04835276 0.50302565
v 0.05159590 -0.04835276 0.50307941
v 0.02494391 -0.04499515 0.50337493
v 0.07496204 -0.04499515 0.50334805
v 0.09498146 -0.04499515 0.50326747
v 0.12498017 -0.04499515 0.50310630
v 0.13495946 -0.04499515 0.50305253
v 0.14499959 -0.04499515 0.50297195
v 0.14499959 -0.04835276 0.50267643
v 0.15497887 -0.04835276 0.50256896
v 0.16495816 -0.04499515 0.50275701
v 0.17499830 -0.04499515 0.50262272
v 0.18163088 -0.04835276 0.50221974
v 0.18497759 -0.04835276 0.50216597
v 0.19161016 -0.04835276 0.50205851
v 0.07496204 -0.04835276 0.50305253
v 0.09498146 -0.04835276 0.50297195
v 0.12498017 -0.04835276 0.50281078
v 0.14159203 -0.04835276 0.50270331
v 0.16161145 -0.04835276 0.50248837
f 1 2 3
f 1 3 4
f 1 4 5
f 1 5 6
f 1 6 7
f 1 7 24
f 1 24 51
f 1 51 25
f 1 25 8
f 1 8 29
f 1 29 54
f 1 54 80
f 1 80 79
f 1 79 78
f 1 78 77
f 1 77 76
f 1 76 75
f 1 75 104
f 1 104 103
f 1 103 102
f 1 102 101
f 1 101 100
f 1 100 129
f 1 129 128
f 1 128 127
f 1 127 126
f 1 126 152
f 1 152 172
f 1 172 196
f 1 196 229
f 1 229 255
f 1 255 275
f 1 275 291
f 1 291 316
f 1 316 340
f 1 340 373
f 1 373 372
f 1 372 371
f 1 371 370
f 1 370 415
f 1 415 411
f 1 411 410
f 1 410 414
f 1 414 413
f 1 413 449
f 1 449 480
f 1 480 446
f 1 446 445
f 1 445 479
f 1 479 499
f 1 499 498
f 1 498 497
f 1 497 513
f 1 513 528
f 1 528 527
f 1 527 526
f 1 526 533
f 1 533 523
f 1 523 522
f 1 522 532
f 1 532 531
f 1 531 530
f 1 530 529
f 1 529 515
f 1 515 502
f 1 502 514
f 1 514 500
f 1 500 482
f 1 482 452
f 1 452 481
f 1 481 450
f 1 450 419
f 1 419 417
f 1 417 377
f 1 377 416
f 1 416 375
f 1 375 342
f 1 342 341
f 1 341 319
f 1 319 297
f 1 297 296
f 1 296 295
f 1 295 281
f 1 281 263
f 1 263 262
f 1 262 261
f 1 261 257
f 1 257 256
f 1 256 231
f 1 231 230
f 1 230 197
f 1 197 177
f 1 177 154
f 1 154 135
f 1 135 106
f 1 106 82
f 1 82 81
f 1 81 55
f 1 55 33
f 1 33 32
f 1 32 31
f 1 31 30
f 1 30 14
f 1 14 13
f 1 13 12
f 1 12 11
f 1 11 10
f 1 10 9
f 1 9 2
f 2 9 3
f 3 9 10
f 3 10 11
f 3 11 12
f 3 12 13
f 3 13 14
f 3 14 15
f 3 15 16
f 3 16 17
f 3 17 18
f 3 18 19
f 3 19 4
f 4 19 5
f 5 19 20
f 5 20 7
f 5 7 6
f 7 20 21
f 7 21 22
f 7 22 23
f 7 23 43
f 7 43 42
f 7 42 41
f 7 41 67
f 7 67 88
f 7 88 87
f 7 87 86
f 7 86 66
f 7 66 65
f 7 65 64
f 7 64 63
f 7 63 93
f 7 93 119
f 7 119 118
f 7 118 117
f 7 117 144
f 7 144 143
f 7 143 163
f 7 163 185
f 7 185 217
f 7 217 216
f 7 216 215
f 7 215 214
f 7 214 242
f 7 242 266
f 7 266 268
f 7 268 267
f 7 267 284
f 7 284 307
f 7 307 306
f 7 306 329
f 7 329 362
f 7 362 361
f 7 361 360
f 7 360 390
f 7 390 389
f 7 389 388
f 7 388 387
f 7 387 395
f 7 395 394
f 7 394 393
f 7 393 392
f 7 392 430
f 7 430 462
f 7 462 472
f 7 472 448
f 7 448 409
f 7 409 367
f 7 367 366
f 7 366 365
f 7 365 337
f 7 337 336
f 7 336 335
f 7 335 334
f 7 334 333
f 7 333 313
f 7 313 312
f 7 312 311
f 7 311 288
f 7 288 272
f 7 272 269
f 7 269 246
f 7 246 223
f 7 223 195
f 7 195 171
f 7 171 164
f 7 164 148
f 7 148 147
f 7 147 146
f 7 146 122
f 7 122 121
f 7 121 98
f 7 98 71
f 7 71 68
f 7 68 44
f 7 44 24
f 8 25 26
f 8 26 27
f 8 27 28
f 8 28 29
f 14 30 15
f 15 30 31
f 15 31 32
f 15 32 33
f 15 33 34
f 15 34 35
f 15 35 16
f 16 35 36
f 16 36 37
f 16 37 22
f 16 22 17
f 17 22 21
f 17 21 38
f 17 38 18
f 18 21 39
f 18 39 19
f 18 38 21
f 19 39 21
f 19 21 20
f 22 37 40
f 22 40 41
f 22 41 42
f 22 42 43
f 22 43 23
f 24 44 45
f 24 45 46
f 24 46 47
f 24 47 48
f 24 48 49
f 24 49 50
f 24 50 26
f 24 26 51
f 25 51 26
f 26 50 49
f 26 49 52
f 26 52 27
f 27 52 28
f 28 52 53
f 28 53 54
f 28 54 29
f 33 55 56
f 33 56 57
f 33 57 36
f 33 36 34
f 34 36 35
f 36 58 61
f 36 61 37
f 36 57 56
f 36 56 58
f 37 59 60
f 37 60 40
f 37 61 62
f 37 62 63
f 37 63 64
f 37 64 65
f 37 65 66
f 37 66 59
f 40 60 67
f 40 67 41
f 44 68 45
f 45 69 70
f 45 70 46
f 45 68 71
f 45 71 69
f 46 70 72
f 46 72 73
f 46 73 47
f 47 73 49
f 47 49 48
f 49 73 72
f 49 72 52
f 52 72 74
f 52 74 53
f 53 74 75
f 53 75 76
f 53 76 77
f 53 77 78
f 53 78 79
f 53 79 80
f 53 80 54
f 55 81 56
f 56 81 82
f 56 82 83
f 56 83 84
f 56 84 85
f 56 85 58
f 58 85 89
f 58 89 61
f 59 66 86
f 59 86 60
f 60 86 87
f 60 87 88
f 60 88 67
f 61 89 90
f 61 90 91
f 61 91 92
f 61 92 63
f 61 63 62
f 63 92 91
f 63 91 90
f 63 90 93
f 69 94 70
f 69 71 94
f 70 94 95
f 70 95 124
f 70 124 96
f 70 96 97
f 70 97 72
f 71 98 94
f 72 97 74
f 74 97 99
f 74 99 100
f 74 100 101
f 74 101 102
f 74 102 103
f 74 103 104
f 74 104 75
f 82 105 83
f 82 106 105
f 83 107 108
f 83 108 84
f 83 105 107
f 84 108 85
f 85 109 112
f 85 112 89
f 85 108 110
f 85 110 111
f 85 111 109
f 89 112 90
f 90 112 113
f 90 113 114
f 90 114 115
f 90 115 116
f 90 116 117
f 90 117 118
f 90 118 119
f 90 119 93
f 94 120 95
f 94 98 121
f 94 121 122
f 94 122 120
f 95 123 150
f 95 150 124
f 95 120 123
f 96 124 97
f 97 124 125
f 97 125 99
f 99 125 124
f 99 124 126
f 99 126 127
f 99 127 128
f 99 128 129
f 99 129 100
f 105 106 130
f 105 130 131
f 105 131 132
f 105 132 133
f 105 133 134
f 105 134 107
f 106 135 131
f 106 131 130
f 107 134 111
f 107 111 110
f 107 110 108
f 109 136 137
f 109 137 114
f 109 114 112
f 109 111 138
f 109 138 136
f 111 134 138
f 112 114 113
f 114 137 139
f 114 139 140
f 114 140 141
f 114 141 115
f 115 141 116
f 116 141 140
f 116 140 142
f 116 142 143
f 116 143 144
f 116 144 117
f 120 145 123
f 120 122 146
f 120 146 147
f 120 147 148
f 120 148 145
f 123 149 150
f 123 145 151
f 123 151 149
f 124 150 126
f 126 150 152
f 131 153 133
f 131 133 132
f 131 135 154
f 131 154 153
f 133 153 155
f 133 155 156
f 133 156 157
f 133 157 134
f 134 157 138
f 136 138 137
f 137 138 157
f 137 157 158
f 137 158 139
f 139 158 159
f 139 159 160
f 139 160 140
f 140 160 161
f 140 161 162
f 140 162 142
f 142 162 163
f 142 163 143
f 145 148 164
f 145 164 151
f 149 165 166
f 149 166 167
f 149 167 168
f 149 168 150
f 149 151 169
f 149 169 170
f 149 170 165
f 150 168 152
f 151 164 171
f 151 171 169
f 152 168 173
f 152 173 172
f 153 154 174
f 153 174 175
f 153 175 176
f 153 176 155
f 154 175 174
f 154 177 176
f 154 176 175
f 155 178 156
f 155 176 179
f 155 179 178
f 156 159 158
f 156 158 157
f 156 178 180
f 156 180 159
f 159 180 160
f 160 180 181
f 160 181 161
f 161 181 182
f 161 182 162
f 162 182 183
f 162 183 184
f 162 184 185
f 162 185 163
f 165 186 187
f 165 187 188
f 165 188 189
f 165 189 166
f 165 170 190
f 165 190 191
f 165 191 186
f 166 189 192
f 166 192 193
f 166 193 167
f 167 193 194
f 167 194 168
f 168 194 173
f 169 171 170
f 170 171 195
f 170 195 190
f 172 173 194
f 172 194 196
f 176 177 179
f 177 197 198
f 177 198 199
f 177 199 200
f 177 200 179
f 178 179 180
f 179 201 181
f 179 181 180
f 179 200 202
f 179 202 203
f 179 203 204
f 179 204 199
f 179 199 205
f 179 205 206
f 179 206 207
f 179 207 208
f 179 208 201
f 181 201 209
f 181 209 182
f 182 209 183
f 183 209 208
f 183 208 210
f 183 210 184
f 184 210 211
f 184 211 212
f 184 212 213
f 184 213 214
f 184 214 215
f 184 215 216
f 184 216 217
f 184 217 185
f 186 191 224
f 186 224 218
f 186 218 219
f 186 219 220
f 186 220 187
f 187 220 188
f 188 220 221
f 188 221 222
f 188 222 192
f 188 192 189
f 190 195 223
f 190 223 191
f 191 223 225
f 191 225 224
f 192 222 221
f 192 221 245
f 192 245 226
f 192 226 227
f 192 227 193
f 193 227 228
f 193 228 194
f 194 228 196
f 196 228 229
f 197 230 198
f 198 230 231
f 198 231 199
f 199 204 203
f 199 203 202
f 199 202 200
f 199 231 232
f 199 232 233
f 199 233 234
f 199 234 235
f 199 235 205
f 201 208 209
f 205 235 211
f 205 211 207
f 205 207 206
f 207 210 208
f 207 211 210
f 211 235 236
f 211 236 212
f 212 237 238
f 212 238 239
f 212 239 240
f 212 240 241
f 212 241 213
f 212 236 237
f 213 241 214
f 214 241 242
f 218 243 244
f 218 244 219
f 218 224 243
f 219 244 245
f 219 245 221
f 219 221 220
f 223 246 225
f 224 247 248
f 224 248 249
f 224 249 243
f 224 225 247
f 225 248 247
f 225 246 248
f 226 245 250
f 226 250 251
f 226 251 252
f 226 252 227
f 227 252 253
f 227 253 254
f 227 254 228
f 228 254 229
f 229 254 255
f 231 256 232
f 232 256 236
f 232 236 234
f 232 234 233
f 234 236 235
f 236 256 257
f 236 257 258
f 236 258 237
f 237 258 238
f 238 259 260
f 238 260 239
f 238 258 261
f 238 261 262
f 238 262 263
f 238 263 259
f 239 264 241
f 239 241 240
f 239 260 265
f 239 265 264
f 241 266 242
f 241 264 267
f 241 267 268
f 241 268 266
f 243 249 250
f 243 250 245
f 243 245 244
f 246 269 248
f 248 270 271
f 248 271 249
f 248 269 272
f 248 272 270
f 249 271 273
f 249 273 250
f 250 273 251
f 251 273 274
f 251 274 252
f 252 274 253
f 253 274 254
f 254 274 255
f 255 274 275
f 257 261 258
f 259 263 276
f 259 276 260
f 260 276 277
f 260 277 278
f 260 278 279
f 260 279 280
f 260 280 265
f 263 281 282
f 263 282 276
f 264 265 283
f 264 283 284
f 264 284 267
f 265 280 285
f 265 285 283
f 270 286 287
f 270 287 271
f 270 272 288
f 270 288 286
f 271 287 289
f 271 289 273
f 273 289 290
f 273 290 274
f 274 290 289
f 274 289 275
f 275 289 292
f 275 292 293
f 275 293 291
f 276 282 294
f 276 294 295
f 276 295 277
f 277 295 278
f 278 295 296
f 278 296 297
f 278 297 298
f 278 298 279
f 279 298 280
f 280 298 299
f 280 299 300
f 280 300 301
f 280 301 302
f 280 302 303
f 280 303 304
f 280 304 285
f 281 295 294
f 281 294 282
f 283 285 305
f 283 305 306
f 283 306 307
f 283 307 284
f 285 304 305
f 286 308 309
f 286 309 310
f 286 310 287
f 286 288 311
f 286 311 312
f 286 312 313
f 286 313 308
f 287 310 314
f 287 314 315
f 287 315 289
f 289 315 293
f 289 293 292
f 291 293 316
f 293 315 314
f 293 314 316
f 297 317 318
f 297 318 298
f 297 319 317
f 298 318 320
f 298 320 299
f 299 320 321
f 299 321 300
f 300 321 301
f 301 322 323
f 301 323 302
f 301 321 322
f 302 323 324
f 302 324 325
f 302 325 303
f 303 325 304
f 304 325 326
f 304 326 327
f 304 327 328
f 304 328 305
f 305 328 306
f 306 328 329
f 308 330 331
f 308 331 332
f 308 332 309
f 308 313 333
f 308 333 334
f 308 334 335
f 308 335 336
f 308 336 337
f 308 337 330
f 309 332 338
f 309 338 339
f 309 339 314
f 309 314 310
f 314 339 340
f 314 340 316
f 317 319 341
f 317 341 318
f 318 341 342
f 318 342 343
f 318 343 320
f 320 343 344
f 320 344 345
f 320 345 321
f 321 345 322
f 322 345 344
f 322 344 378
f 322 378 346
f 322 346 323
f 323 347 324
f 323 346 348
f 323 348 349
f 323 349 347
f 324 347 349
f 324 349 326
f 324 326 325
f 326 350 351
f 326 351 352
f 326 352 327
f 326 349 350
f 327 353 328
f 327 352 354
f 327 354 355
f 327 355 356
f 327 356 357
f 327 357 358
f 327 358 400
f 327 400 359
f 327 359 353
f 328 353 360
f 328 360 361
f 328 361 362
f 328 362 329
f 330 363 364
f 330 364 331
f 330 337 365
f 330 365 366
f 330 366 367
f 330 367 363
f 331 364 332
f 332 364 368
f 332 368 338
f 338 368 369
f 338 369 370
f 338 370 371
f 338 371 372
f 338 372 373
f 338 373 339
f 339 373 340
f 342 374 343
f 342 375 374
f 343 374 376
f 343 376 344
f 344 376 377
f 344 377 378
f 346 378 379
f 346 379 380
f 346 380 381
f 346 381 348
f 348 381 382
f 348 382 349
f 349 351 350
f 349 382 383
f 349 383 351
f 351 383 384
f 351 384 385
f 351 385 386
f 351 386 354
f 351 354 352
f 353 387 388
f 353 388 389
f 353 389 390
f 353 390 360
f 353 359 391
f 353 391 392
f 353 392 393
f 353 393 394
f 353 394 395
f 353 395 387
f 354 386 396
f 354 396 397
f 354 397 355
f 355 397 356
f 356 397 398
f 356 398 399
f 356 399 357
f 357 399 358
f 358 399 401
f 358 401 400
f 359 402 391
f 359 400 403
f 359 403 404
f 359 404 405
f 359 405 402
f 363 367 406
f 363 406 407
f 363 407 408
f 363 408 364
f 364 408 368
f 367 409 406
f 368 410 411
f 368 411 369
f 368 408 412
f 368 412 413
f 368 413 414
f 368 414 410
f 369 411 415
f 369 415 370
f 374 375 416
f 374 416 376
f 376 416 377
f 377 417 418
f 377 418 379
f 377 379 378
f 379 418 417
f 379 417 419
f 379 419 420
f 379 420 380
f 380 420 451
f 380 451 421
f 380 421 381
f 381 421 422
f 381 422 423
f 381 423 382
f 382 423 385
f 382 385 384
f 382 384 383
f 385 396 386
f 385 423 424
f 385 424 425
f 385 425 426
f 385 426 427
f 385 427 396
f 391 402 428
f 391 428 429
f 391 429 430
f 391 430 392
f 396 427 431
f 396 431 397
f 397 431 398
f 398 431 399
f 399 431 432
f 399 432 401
f 400 401 403
f 401 433 434
f 401 434 435
f 401 435 436
f 401 436 459
f 401 459 437
f 401 437 438
f 401 438 405
f 401 405 404
f 401 404 403
f 401 432 439
f 401 439 433
f 402 405 438
f 402 438 428
f 406 409 440
f 406 440 441
f 406 441 407
f 407 441 442
f 407 442 443
f 407 443 444
f 407 444 408
f 408 444 445
f 408 445 446
f 408 446 447
f 408 447 412
f 409 448 440
f 412 447 449
f 412 449 413
f 419 450 451
f 419 451 420
f 421 451 452
f 421 452 482
f 421 482 453
f 421 453 454
f 421 454 422
f 422 454 424
f 422 424 423
f 424 454 455
f 424 455 456
f 424 456 425
f 425 456 426
f 426 456 457
f 426 457 431
f 426 431 427
f 428 458 429
f 428 438 437
f 428 437 459
f 428 459 460
f 428 460 461
f 428 461 462
f 428 462 458
f 429 458 462
f 429 462 430
f 431 457 432
f 432 457 463
f 432 463 439
f 433 439 463
f 433 463 464
f 433 464 465
f 433 465 434
f 434 465 466
f 434 466 435
f 435 467 436
f 435 466 468
f 435 468 467
f 436 467 469
f 436 469 470
f 436 470 471
f 436 471 461
f 436 461 460
f 436 460 459
f 440 448 472
f 440 472 462
f 440 462 473
f 440 473 469
f 440 469 441
f 441 469 467
f 441 467 474
f 441 474 442
f 442 474 475
f 442 475 476
f 442 476 477
f 442 477 478
f 442 478 443
f 443 478 479
f 443 479 445
f 443 445 444
f 446 480 447
f 447 480 449
f 450 481 451
f 451 481 452
f 453 482 483
f 453 483 454
f 454 483 455
f 455 483 456
f 456 483 484
f 456 484 485
f 456 485 457
f 457 485 486
f 457 486 463
f 461 471 462
f 462 471 470
f 462 470 473
f 463 486 487
f 463 487 488
f 463 488 464
f 464 488 465
f 465 488 489
f 465 489 466
f 466 489 490
f 466 490 491
f 466 491 468
f 467 468 475
f 467 475 474
f 468 491 492
f 468 492 493
f 468 493 475
f 469 473 470
f 475 477 476
f 475 493 477
f 477 493 494
f 477 494 512
f 477 512 495
f 477 495 496
f 477 496 478
f 478 496 495
f 478 495 497
f 478 497 498
f 478 498 499
f 478 499 479
f 482 500 483
f 483 500 501
f 483 501 484
f 484 501 502
f 484 502 503
f 484 503 516
f 484 516 504
f 484 504 486
f 484 486 485
f 486 504 487
f 487 504 488
f 488 504 505
f 488 505 489
f 489 505 506
f 489 506 507
f 489 507 508
f 489 508 490
f 490 508 491
f 491 509 492
f 491 508 509
f 492 509 510
f 492 510 493
f 493 510 494
f 494 510 525
f 494 525 511
f 494 511 512
f 495 512 497
f 497 512 513
f 500 514 501
f 501 514 502
f 502 515 516
f 502 516 503
f 504 516 517
f 504 517 505
f 505 517 518
f 505 518 506
f 506 518 507
f 507 518 508
f 508 518 519
f 508 519 520
f 508 520 521
f 508 521 509
f 509 521 522
f 509 522 510
f 510 522 523
f 510 523 524
f 510 524 525
f 511 526 527
f 511 527 512
f 511 525 526
f 512 527 528
f 512 528 513
f 515 529 517
f 515 517 516
f 517 529 530
f 517 530 518
f 518 530 531
f 518 531 519
f 519 531 520
f 520 532 522
f 520 522 521
f 520 531 532
f 523 533 524
f 524 533 525
f 525 533 526

