# https://github.com/mikedh/trimesh
v 0.25490770 0.13499765 -0.24497069
v 0.25490770 -0.14496706 -0.24497069
v 0.25490770 0.13499765 -0.42497671
v 0.25471026 0.14496706 -0.21498170
v 0.25485834 0.13499765 -0.17497236
v 0.25480899 -0.15497558 -0.21498170
v 0.25490770 -0.14496706 -0.42497671
v 0.25485834 -0.14496706 -0.17497236
v 0.25485834 0.13499765 -0.43499708
v 0.25471026 0.14496706 -0.43499708
v 0.25426602 0.15497558 -0.18499272
v 0.25466090 0.14496706 -0.14498337
v 0.25461155 0.14496706 -0.08500539
v 0.25480899 0.13499765 -0.11506647
v 0.25441408 -0.16498409 -0.19494098
v 0.25480899 -0.15497558 -0.43499708
v 0.25475961 -0.15497558 -0.14498337
v 0.25485834 -0.14496706 -0.43499708
v 0.25480899 -0.14496706 -0.11506647
v 0.25475961 0.13499765 -0.44494534
v 0.25456217 0.14496706 -0.44494534
v 0.25416729 0.15497558 -0.44494534
v 0.25426602 0.15497558 -0.43499708
v 0.25313070 0.16498409 -0.15493163
v 0.25421664 0.15497558 -0.12501474
v 0.25318006 0.16498409 -0.22492997
v 0.25475961 0.13499765 -0.07505712
v 0.25416729 0.15497558 -0.07505712
v 0.25387111 0.15497558 0.05499128
v 0.25431538 0.14496706 0.04497091
v 0.25451282 0.13499765 0.03495057
v 0.25308135 -0.17499261 -0.23495033
v 0.25441408 -0.16498409 -0.43499708
v 0.25436473 -0.16498409 -0.13503510
v 0.25298262 -0.17499261 -0.10504611
v 0.25431538 -0.16498409 -0.44494534
v 0.25466090 -0.15497558 -0.44494534
v 0.25475961 -0.14496706 -0.44494534
v 0.25471026 -0.15497558 -0.09502575
v 0.25431538 -0.16498409 -0.08500539
v 0.25475961 -0.14496706 -0.07505712
v 0.25431538 0.13499765 -0.46498606
v 0.25416729 0.14496706 -0.46498606
v 0.25396985 0.15497558 -0.45496571
v 0.25303200 0.16498409 -0.44494534
v 0.25318006 0.16498409 -0.43499708
v 0.25110692 0.17358516 -0.09502575
v 0.25308135 0.16498409 -0.09502575
v 0.25115627 0.17374155 -0.24497069
v 0.25115627 0.17370245 -0.22492997
v 0.25303200 0.16498409 -0.06503676
v 0.25278518 0.16498409 0.04497091
v 0.25273582 0.16498409 0.06493956
v 0.25263709 0.16498409 0.08498026
v 0.25224221 0.16498409 0.16499898
v 0.25332814 0.15497558 0.16499898
v 0.25396985 0.14496706 0.12498963
v 0.25416729 0.14496706 0.08498026
v 0.25426602 0.14496706 0.06493956
v 0.25446346 0.13499765 0.05499128
v 0.25451282 -0.14496706 0.03495057
v 0.25100818 -0.18195166 -0.23495033
v 0.25308135 -0.17499261 -0.42497671
v 0.25095883 -0.18187347 -0.10504611
v 0.25303200 -0.17499261 -0.43499708
v 0.25293326 -0.17499261 -0.07505712
v 0.25081074 -0.18159980 0.04497091
v 0.25090948 -0.18175618 -0.04506813
v 0.25293326 -0.17499261 -0.44494534
v 0.25273582 -0.17499261 -0.45496571
v 0.25387111 -0.16498409 -0.46498606
v 0.25426602 -0.15497558 -0.46498606
v 0.25431538 -0.14496706 -0.46498606
v 0.25466090 -0.15497558 -0.06503676
v 0.25416729 -0.16498409 -0.01500706
v 0.25406855 0.13499765 -0.47493434
v 0.25392050 0.14496706 -0.47493434
v 0.25372306 0.15497558 -0.46498606
v 0.25263709 0.16498409 -0.46498606
v 0.25105754 0.17350698 -0.44494534
v 0.25076139 0.17241229 -0.47493434
v 0.25086010 0.17280325 -0.46498606
v 0.25115627 0.17370245 -0.43499708
v 0.25115627 0.17374155 -0.42497671
v 0.24952736 0.17862852 -0.13503510
v 0.24947798 0.17851123 -0.06503676
v 0.24947798 0.17847213 -0.05501641
v 0.25105754 0.17342877 -0.04506813
v 0.24952736 0.17870671 -0.20496134
v 0.25095883 0.17311601 0.04497091
v 0.25090948 0.17303783 0.07495990
v 0.25061330 0.17209953 0.19498795
v 0.25209412 0.16498409 0.19498795
v 0.25318006 0.15497558 0.19498795
v 0.25392050 0.14496706 0.13493788
v 0.25377241 0.13499765 0.19498795
v 0.25392050 0.13499765 0.16499898
v 0.25446346 -0.14496706 0.05499128
v 0.25392050 -0.00093830 0.23088825
v 0.25436473 -0.15497558 0.06493956
v 0.24775037 -0.18695591 -0.23495033
v 0.25100818 -0.18195166 -0.42497671
v 0.24775037 -0.18687773 -0.11506647
v 0.24775037 -0.18691681 -0.17497236
v 0.25090948 -0.18179527 -0.05501641
v 0.24770102 -0.18676044 -0.03504778
v 0.24775037 -0.18683863 -0.09502575
v 0.25095883 -0.18195166 -0.43499708
v 0.25090948 -0.18183437 -0.44494534
v 0.25278518 -0.17499261 -0.00505878
v 0.25076139 -0.18152161 0.07495990
v 0.24760228 -0.18652587 0.07495990
v 0.24760228 -0.18656495 0.06493956
v 0.24765164 -0.18664315 0.02493021
v 0.25071201 -0.18144341 -0.46498606
v 0.25061330 -0.18120883 -0.47493434
v 0.25229156 -0.17499261 -0.47493434
v 0.25362432 -0.16498409 -0.47493434
v 0.25401920 -0.15497558 -0.47493434
v 0.25406855 -0.14496706 -0.47493434
v 0.25273582 -0.17499261 0.01498194
v 0.25401920 -0.16498409 0.04497091
v 0.25263709 -0.17499261 0.05499128
v 0.25308135 0.13499765 -0.48495468
v 0.25293326 0.14496706 -0.48495468
v 0.25253838 0.15497558 -0.48495468
v 0.25347623 0.15497558 -0.47493434
v 0.25239030 0.16498409 -0.47493434
v 0.24947798 0.17851123 -0.44494534
v 0.25046521 0.17147399 -0.48271993
v 0.24908310 0.17741655 -0.47493434
v 0.24923119 0.17780751 -0.46498606
v 0.24952736 0.17870671 -0.43499708
v 0.24533167 0.18496203 -0.11506647
v 0.24528232 0.18496203 -0.07505712
v 0.24518359 0.18496203 -0.01500706
v 0.24508488 0.18496203 0.03495057
v 0.24503553 0.18496203 0.05499128
v 0.24498615 0.18496203 0.07495990
v 0.25100818 0.17331149 -0.00505878
v 0.24937928 0.17815937 0.03495057
v 0.24538103 0.18496203 -0.19494098
v 0.24932992 0.17808117 0.06493956
v 0.24932992 0.17800298 0.07495990
v 0.24928054 0.17788570 0.09492853
v 0.24903375 0.17710379 0.19498795
v 0.24898440 0.17686921 0.21495658
v 0.25056395 0.17202133 0.20493624
v 0.25204477 0.16498409 0.20493624
v 0.25313070 0.15497558 0.20493624
v 0.25352558 0.14496706 0.20493624
v 0.25362432 0.13499765 0.21495658
v 0.25406855 -0.15497558 0.12498963
v 0.25426602 -0.15497558 0.08498026
v 0.25392050 -0.00496516 0.23088825
v 0.25392050 -0.14496706 0.16499898
v 0.25342688 0.13499765 0.23088825
v 0.25396985 -0.16498409 0.06493956
v 0.24276492 -0.19207746 -0.18499272
v 0.24775037 -0.18695591 -0.42497671
v 0.24775037 -0.18691681 -0.43499708
v 0.24271557 -0.19203836 -0.05501641
v 0.24261683 -0.19199927 0.06493956
v 0.24770102 -0.18683863 -0.44494534
v 0.25258774 -0.17499261 0.07495990
v 0.25061330 -0.18124793 0.13493788
v 0.24735549 -0.18590033 0.20493624
v 0.24750355 -0.18629128 0.12498963
v 0.24227130 -0.19184288 0.22497696
v 0.24232066 -0.19184288 0.21495658
v 0.24237004 -0.19188198 0.19498795
v 0.24251810 -0.19196017 0.11496925
v 0.24745420 -0.18640858 -0.46498606
v 0.24730611 -0.18621309 -0.47493434
v 0.25036648 -0.18070059 -0.48214322
v 0.25115627 -0.17546175 -0.48531514
v 0.25268644 -0.16498409 -0.48495468
v 0.25303200 -0.15497558 -0.48495468
v 0.25308135 -0.14496706 -0.48495468
v 0.25110692 0.13499765 -0.49324492
v 0.25105754 0.14496706 -0.49310073
v 0.25086010 0.15497558 -0.49259612
v 0.25046521 0.16279474 -0.49151477
v 0.25115627 0.16564873 -0.48560348
v 0.24523297 0.18496203 -0.44494534
v 0.24429509 0.18496203 -0.47493434
v 0.24493679 0.18496203 -0.45496571
v 0.24987289 0.16944101 -0.48942420
v 0.24873757 0.17487532 -0.48560348
v 0.24286363 0.18550937 -0.48408961
v 0.24538103 0.18496203 -0.43499708
v 0.24079049 0.19063091 -0.07505712
v 0.24074110 0.19059181 -0.01500706
v 0.24069175 0.19055273 0.04497091
v 0.24064240 0.19051363 0.08498026
v 0.24059305 0.19047453 0.11496925
v 0.24044496 0.19035724 0.19498795
v 0.24483806 0.18496203 0.11496925
v 0.24083984 0.19067001 -0.21498170
v 0.24449256 0.18496203 0.19498795
v 0.24444318 0.18496203 0.20493624
v 0.25051457 0.17186496 0.21495658
v 0.24419639 0.18496203 0.23088825
v 0.24888566 0.17655644 0.23088825
v 0.25046521 0.17166947 0.22497696
v 0.25194603 0.16498409 0.21495658
v 0.25303200 0.15497558 0.21495658
v 0.25332814 0.14496706 0.22497696
v 0.25377241 -0.14496706 0.19498795
v 0.25362432 -0.15497558 0.20493624
v 0.25332814 -0.16498409 0.19498795
v 0.25347623 -0.16498409 0.16499898
v 0.25387111 -0.16498409 0.08498026
v 0.25342688 -0.14496706 0.23088825
v 0.25362432 -0.14496706 0.21495658
v 0.25322944 0.14496706 0.23088825
v 0.23496589 -0.19579156 -0.19494098
v 0.24276492 -0.19207746 -0.43499708
v 0.23496589 -0.19575246 -0.04506813
v 0.24266618 -0.19203836 -0.01500706
v 0.23496589 -0.19571336 0.03495057
v 0.23496589 -0.19555698 0.19498795
v 0.23496589 -0.19559607 0.16499898
v 0.23496589 -0.19567427 0.09492853
v 0.24271557 -0.19199927 -0.44494534
v 0.24241939 -0.19184288 -0.46498606
v 0.24227130 -0.19172560 -0.47493434
v 0.25253838 -0.17499261 0.08498026
v 0.25046521 -0.18093516 0.19498795
v 0.25051457 -0.18105245 0.17494723
v 0.25041586 -0.18089607 0.20493624
v 0.24730611 -0.18582213 0.21495658
v 0.24740484 -0.18605670 0.17494723
v 0.24424574 -0.18934076 0.23088825
v 0.24222195 -0.19180378 0.23088825
v 0.23930964 -0.19328943 0.23088825
v 0.23496589 -0.19547878 0.23088825
v 0.23496589 -0.19551788 0.21495658
v 0.24172834 -0.19133464 -0.48495468
v 0.24725676 -0.18441468 -0.48531514
v 0.24977416 -0.17913677 -0.48884749
v 0.25051457 -0.17245139 -0.49158686
v 0.25090948 -0.16498409 -0.49274030
v 0.25105754 -0.15497558 -0.49317282
v 0.25110692 -0.14496706 -0.49324492
v 0.24858949 0.13499765 -0.49829113
v 0.24849078 0.14496706 -0.49807486
v 0.24819461 0.15497558 -0.49757025
v 0.24789846 0.16564873 -0.49490297
v 0.24074110 0.19059181 -0.44494534
v 0.24005008 0.19004448 -0.48019683
v 0.24019814 0.19012266 -0.47493434
v 0.24390021 0.17585272 -0.49591219
v 0.24202451 0.18249899 -0.49324492
v 0.23881605 0.18918437 -0.48682901
v 0.24083984 0.19063091 -0.43499708
v 0.24083984 0.19067001 -0.42497671
v 0.23496589 0.19371948 -0.11506647
v 0.23496589 0.19368038 -0.04506813
v 0.23496589 0.19364129 0.01498194
v 0.23496589 0.19360219 0.06493956
v 0.24064240 0.19055273 0.06493956
v 0.23496589 0.19352400 0.11496925
v 0.23496589 0.19336762 0.19498795
v 0.23496589 0.19332851 0.21495658
v 0.24049431 0.19043544 0.15497860
v 0.24039561 0.19035724 0.20493624
v 0.24039561 0.19031815 0.21495658
v 0.24034622 0.19027905 0.22497696
v 0.24029687 0.19027905 0.23088825
v 0.25041586 0.17155218 0.23088825
v 0.25120562 0.16768171 0.23088825
v 0.25174859 0.16498409 0.23088825
v 0.25283456 0.15497558 0.23088825
v 0.25308135 0.14903302 0.23088825
v 0.25342688 -0.15497558 0.22497696
v 0.25318006 -0.16498409 0.21495658
v 0.25184733 -0.17499261 0.21495658
v 0.25224221 -0.17499261 0.14495826
v 0.25234094 -0.17499261 0.12498963
v 0.25337753 -0.15094872 0.23088825
v 0.23496589 -0.19579156 -0.42497671
v 0.22499499 -0.19794182 0.10494889
v 0.22499499 -0.19798091 -0.11506647
v 0.23496589 -0.19575246 -0.43499708
v 0.23496589 -0.19567427 -0.44494534
v 0.22499499 -0.19790272 0.20493624
v 0.22499499 -0.19786362 0.23088825
v 0.23496589 -0.19536150 -0.46498606
v 0.23496589 -0.19516602 -0.47493434
v 0.25036648 -0.18081787 0.21495658
v 0.24725676 -0.18562666 0.23088825
v 0.23496589 -0.19442320 -0.48495468
v 0.24083984 -0.19063091 -0.49165896
v 0.24306107 -0.18496203 -0.49497506
v 0.24779972 -0.17546175 -0.49490297
v 0.24829334 -0.16498409 -0.49771443
v 0.24854013 -0.15497558 -0.49821904
v 0.24858949 -0.14496706 -0.49829113
v 0.24360406 0.13499765 -0.50153518
v 0.24350533 0.14496706 -0.50146306
v 0.24320915 0.15497558 -0.50139093
v 0.24246874 0.16498409 -0.50117469
v 0.24123472 0.17311601 -0.50059795
v 0.23980325 0.17976229 -0.49987710
v 0.23496589 0.19356309 -0.44494534
v 0.23496589 0.19371948 -0.43499708
v 0.23496589 0.19332851 -0.45496571
v 0.23526207 0.19168650 -0.48408961
v 0.23496589 0.19278118 -0.47493434
v 0.23496589 0.19305485 -0.46498606
v 0.23600248 0.18578304 -0.49620056
v 0.23215231 0.19106096 -0.49252403
v 0.22499499 0.19700353 -0.01500706
v 0.22499499 0.19696443 0.10494889
v 0.22499499 0.19692533 0.17494723
v 0.22499499 0.19688624 0.22497696
v 0.23496589 0.19328943 0.22497696
v 0.23496589 0.19325033 0.23088825
v 0.25332814 -0.15497558 0.23088825
v 0.25313070 -0.16095723 0.23088825
v 0.25298262 -0.16498409 0.23088825
v 0.25219285 -0.17092665 0.23088825
v 0.25164989 -0.17499261 0.23088825
v 0.25086010 -0.17831574 0.23088825
v 0.25031713 -0.18070059 0.22497696
v 0.22499499 -0.19798091 -0.43499708
v 0.21497473 -0.19880192 0.23088825
v 0.21497473 -0.19884102 0.10494889
v 0.22499499 -0.19774634 -0.45496571
v 0.22094738 -0.19825459 0.23088825
v 0.22499499 -0.19758996 -0.46498606
v 0.22499499 -0.19739448 -0.47493434
v 0.22499499 -0.19672985 -0.48495468
v 0.25026777 -0.18062240 0.23088825
v 0.23447227 -0.19164741 -0.49497506
v 0.23748329 -0.18832426 -0.49829113
v 0.24113601 -0.18163890 -0.50059795
v 0.24241939 -0.17499261 -0.50110257
v 0.24330789 -0.16498409 -0.50146306
v 0.24355468 -0.15497558 -0.50146306
v 0.24360406 -0.14496706 -0.50153518
v 0.23496589 0.13499765 -0.50376987
v 0.23496589 0.15497558 -0.50362575
v 0.23496589 0.16498409 -0.50319320
v 0.23585439 0.17585272 -0.50160724
v 0.22499499 0.18922347 -0.49937248
v 0.23313954 0.18238170 -0.50081426
v 0.22499499 0.19688624 -0.44494534
v 0.22499499 0.19700353 -0.43499708
v 0.22499499 0.19614342 -0.47493434
v 0.22499499 0.19665167 -0.45496571
v 0.22499499 0.19504873 -0.48495468
v 0.22499499 0.19203836 -0.49432626
v 0.21497473 0.19837187 0.07495990
v 0.21497473 0.19833277 0.20493624
v 0.21497473 0.19829369 0.23088825
v 0.22499499 0.19684714 0.23088825
v 0.21497473 -0.19884102 -0.43499708
v 0.21497473 -0.19876283 -0.44494534
v 0.21092713 -0.19899741 0.23088825
v 0.20495448 -0.19927108 0.23088825
v 0.21497473 -0.19845006 -0.46498606
v 0.21497473 -0.19829369 -0.47493434
v 0.21497473 -0.19758996 -0.48495468
v 0.21497473 -0.19469687 -0.49497506
v 0.22499499 -0.19375858 -0.49497506
v 0.23077023 -0.19023995 -0.50016546
v 0.23447227 -0.18496203 -0.50117469
v 0.23496589 -0.17499261 -0.50312114
v 0.23496589 -0.16498409 -0.50362575
v 0.23496589 -0.15497558 -0.50376987
v 0.22499499 0.14496706 -0.50470704
v 0.22499499 0.15497558 -0.50456285
v 0.22499499 0.16498409 -0.50420243
v 0.22499499 0.17499261 -0.50333738
v 0.21956530 0.18992719 -0.49994919
v 0.22499499 0.18421921 -0.50131887
v 0.21497473 0.19825459 -0.44494534
v 0.21497473 0.19837187 -0.43499708
v 0.21497473 0.19641709 -0.48495468
v 0.21497473 0.19747268 -0.47493434
v 0.21497473 0.19774634 -0.46498606
v 0.21571514 0.19231203 -0.49591219
v 0.20495448 0.19903651 0.19498795
v 0.20900205 0.19872373 0.23088825
v 0.20495448 -0.19927108 -0.43499708
v 0.20495448 -0.19919288 -0.44494534
v 0.19498357 -0.19946656 0.23088825
v 0.20495448 -0.19888012 -0.46498606
v 0.20495448 -0.19868463 -0.47493434
v 0.20495448 -0.19802001 -0.48495468
v 0.20495448 -0.19512692 -0.49497506
v 0.21497473 -0.19117825 -0.50081426
v 0.22499499 -0.19067001 -0.50045383
v 0.22499499 -0.18496203 -0.50240022
v 0.22499499 -0.17499261 -0.50420243
v 0.22499499 -0.16498409 -0.50463498
v 0.22499499 -0.15497558 -0.50470704
v 0.21497473 0.13499765 -0.50513959
v 0.21497473 0.14496706 -0.50506747
v 0.21497473 0.15497558 -0.50492334
v 0.21497473 0.16498409 -0.50456285
v 0.21497473 0.17499261 -0.50376987
v 0.21290156 0.19020087 -0.50009334
v 0.20495448 0.19344580 -0.49497506
v 0.21571514 0.18593942 -0.50131887
v 0.20495448 0.19888012 -0.44494534
v 0.20495448 0.19903651 -0.43499708
v 0.20495448 0.19841097 -0.46498606
v 0.20495448 0.19704261 -0.48495468
v 0.20495448 0.19813730 -0.47493434
v 0.19498357 0.19938837 -0.05501641
v 0.19903117 0.19923198 0.23088825
v 0.20495448 0.19899741 0.23088825
v 0.19498357 -0.19946656 -0.43499708
v 0.19498357 -0.19938837 -0.44494534
v 0.19093597 -0.19954474 0.23088825
v 0.19498357 -0.19907559 -0.46498606
v 0.19498357 -0.19891921 -0.47493434
v 0.19498357 -0.19821548 -0.48495468
v 0.19498357 -0.19536150 -0.49497506
v 0.20495448 -0.19141284 -0.50095844
v 0.21497473 -0.18496203 -0.50297689
v 0.21497473 -0.17499261 -0.50456285
v 0.21497473 -0.16498409 -0.50499541
v 0.21497473 -0.14496706 -0.50513959
v 0.20495448 0.13499765 -0.50528377
v 0.19498357 0.14496706 -0.50535583
v 0.20495448 0.15497558 -0.50513959
v 0.20495448 0.16498409 -0.50477910
v 0.20495448 0.17499261 -0.50398612
v 0.20495448 0.18496203 -0.50196767
v 0.20495448 0.19035724 -0.50023758
v 0.19498357 0.19371948 -0.49497506
v 0.19498357 0.19739448 -0.48495468
v 0.19498357 0.19923198 -0.44494534
v 0.19498357 0.19934927 -0.43499708
v 0.19498357 0.19938837 -0.42497671
v 0.19498357 0.19848916 -0.47493434
v 0.19498357 0.19899741 -0.45496571
v 0.18496332 0.19962294 0.21495658
v 0.19498357 0.19934927 0.23088825
v 0.18496332 -0.19962294 -0.43499708
v 0.18496332 -0.19954474 -0.44494534
v 0.18496332 -0.19962294 0.23088825
v 0.18496332 -0.19923198 -0.46498606
v 0.18496332 -0.19903651 -0.47493434
v 0.18496332 -0.19833277 -0.48495468
v 0.18496332 -0.19551788 -0.49497506
v 0.19498357 -0.19153012 -0.50103050
v 0.19498357 -0.18496203 -0.50333738
v 0.20495448 -0.18496203 -0.50319320
v 0.19498357 -0.17499261 -0.50485122
v 0.20495448 -0.16498409 -0.50513959
v 0.20495448 -0.15497558 -0.50528377
v 0.19498357 -0.15497558 -0.50535583
v 0.18496332 0.14496706 -0.50542796
v 0.19498357 0.15497558 -0.50521171
v 0.19498357 0.16498409 -0.50485122
v 0.19498357 0.17499261 -0.50405824
v 0.19498357 0.18496203 -0.50211185
v 0.19498357 0.19051363 -0.50030959
v 0.18496332 0.19391495 -0.49497506
v 0.18496332 0.19762905 -0.48495468
v 0.18496332 0.19946656 -0.44494534
v 0.18496332 0.19958384 -0.43499708
v 0.18496332 0.19962294 -0.42497671
v 0.18496332 0.19872373 -0.47493434
v 0.18496332 0.19923198 -0.45496571
v 0.17499241 0.19970113 0.23088825
v 0.17899063 0.19966203 0.23088825
v 0.18496332 0.19958384 0.23088825
v 0.18901089 0.19950566 0.23088825
v 0.17499241 -0.19970113 -0.42497671
v 0.17499241 -0.19966203 -0.43499708
v 0.18091571 -0.19966203 0.23088825
v 0.17499241 -0.19958384 -0.44494534
v 0.17499241 -0.19927108 -0.46498606
v 0.17499241 -0.19911470 -0.47493434
v 0.17499241 -0.19841097 -0.48495468
v 0.17499241 -0.19555698 -0.49497506
v 0.18496332 -0.19160831 -0.50110257
v 0.18496332 -0.18496203 -0.50340945
v 0.17499241 -0.17499261 -0.50492334
v 0.17499241 -0.16498409 -0.50535583
v 0.19498357 -0.16498409 -0.50521171
v 0.18496332 -0.15497558 -0.50542796
v 0.18496332 0.15497558 -0.50528377
v -0.18499660 0.14496706 -0.50542796
v 0.18496332 0.16498409 -0.50492334
v 0.18496332 0.17499261 -0.50413036
v 0.17499241 0.18496203 -0.50225604
v 0.18496332 0.19059181 -0.50038171
v 0.17499241 0.19399315 -0.49497506
v 0.17499241 0.19766815 -0.48495468
v 0.17499241 0.19954474 -0.44494534
v 0.17499241 0.19966203 -0.43499708
v 0.17499241 0.19970113 -0.42497671
v 0.17499241 0.19876283 -0.47493434
v 0.17499241 0.19903651 -0.46498606
v -0.18499660 0.19970113 0.23088825
v -0.18499660 -0.19970113 -0.42497671
v 0.17499241 -0.19970113 0.23088825
v -0.18499660 -0.19966203 -0.43499708
v -0.18499660 -0.19958384 -0.44494534
v -0.18499660 -0.19927108 -0.46498606
v -0.18499660 -0.19911470 -0.47493434
v -0.18499660 -0.19841097 -0.48495468
v -0.18499660 -0.19555698 -0.49497506
v 0.17499241 -0.19164741 -0.50110257
v -0.19496751 -0.18496203 -0.50340945
v -0.18499660 -0.17499261 -0.50492334
v -0.18499660 -0.16498409 -0.50535583
v -0.19496751 -0.15497558 -0.50542796
v -0.19496751 0.15497558 -0.50528377
v -0.19496751 0.13499765 -0.50542796
v -0.20498779 0.13499765 -0.50535583
v -0.19496751 0.16498409 -0.50492334
v -0.19496751 0.17499261 -0.50413036
v -0.18499660 0.18496203 -0.50225604
v 0.17499241 0.19063091 -0.50038171
v -0.18499660 0.19399315 -0.49497506
v -0.18499660 0.19766815 -0.48495468
v -0.18499660 0.19954474 -0.44494534
v -0.18499660 0.19966203 -0.43499708
v -0.18499660 0.19970113 -0.42497671
v -0.18499660 0.19876283 -0.47493434
v -0.18499660 0.19903651 -0.46498606
v -0.19091994 0.19962294 0.23088825
v -0.19496751 -0.19962294 -0.42497671
v -0.18499660 -0.19970113 0.23088825
v -0.19496751 -0.19958384 -0.43499708
v -0.19496751 -0.19950566 -0.44494534
v -0.19496751 -0.19919288 -0.46498606
v -0.19496751 -0.19903651 -0.47493434
v -0.19496751 -0.19833277 -0.48495468
v -0.19496751 -0.19547878 -0.49497506
v -0.19496751 -0.19160831 -0.50110257
v -0.18499660 -0.19164741 -0.50110257
v -0.20498779 -0.19149102 -0.50103050
v -0.21495867 -0.19133464 -0.50095844
v -0.20498779 -0.18496203 -0.50326526
v -0.21495867 -0.17499261 -0.50470704
v -0.20498779 -0.17499261 -0.50477910
v -0.20498779 -0.16498409 -0.50521171
v -0.20498779 -0.15497558 -0.50535583
v -0.20498779 0.14496706 -0.50528377
v -0.21495867 0.14496706 -0.50521171
v -0.21495867 0.15497558 -0.50506747
v -0.20498779 0.16498409 -0.50485122
v -0.21495867 0.17499261 -0.50391412
v -0.19496751 0.18496203 -0.50218391
v -0.19496751 0.19055273 -0.50038171
v -0.18499660 0.19063091 -0.50038171
v -0.19496751 0.19387586 -0.49497506
v -0.19496751 0.19755086 -0.48495468
v -0.19496751 0.19942746 -0.44494534
v -0.19496751 0.19954474 -0.43499708
v -0.19496751 0.19864555 -0.47493434
v -0.19496751 0.19891921 -0.46498606
v -0.19496751 0.19954474 0.23088825
v -0.20498779 -0.19938837 -0.43499708
v -0.19496751 -0.19962294 0.23088825
v -0.20903537 -0.19931017 0.23088825
v -0.20498779 -0.19931017 -0.44494534
v -0.20498779 -0.19899741 -0.46498606
v -0.20498779 -0.19884102 -0.47493434
v -0.20498779 -0.19813730 -0.48495468
v -0.20498779 -0.19528331 -0.49497506
v -0.21495867 -0.19500963 -0.49497506
v -0.22497895 -0.19086549 -0.50059795
v -0.22497895 -0.18496203 -0.50261647
v -0.21495867 -0.18496203 -0.50312114
v -0.22497895 -0.17499261 -0.50434661
v -0.21495867 -0.16498409 -0.50506747
v -0.21495867 -0.15497558 -0.50521171
v -0.22497895 0.14496706 -0.50485122
v -0.22497895 0.15497558 -0.50470704
v -0.21495867 0.16498409 -0.50470704
v -0.22497895 0.16498409 -0.50434661
v -0.22497895 0.17499261 -0.50348151
v -0.21495867 0.18496203 -0.50189555
v -0.20498779 0.18496203 -0.50203979
v -0.20498779 0.19043544 -0.50030959
v -0.20498779 0.19364129 -0.49497506
v -0.20498779 0.19727719 -0.48495468
v -0.20498779 0.19911470 -0.44494534
v -0.20498779 0.19923198 -0.43499708
v -0.20094019 0.19938837 0.23088825
v -0.20498779 0.19833277 -0.47493434
v -0.20498779 0.19860645 -0.46498606
v -0.21495867 -0.19915380 -0.43499708
v -0.21495867 -0.19911470 0.23088825
v -0.21495867 -0.19915380 0.19498795
v -0.21495867 -0.19891921 -0.45496571
v -0.21495867 -0.19876283 -0.46498606
v -0.21495867 -0.19856735 -0.47493434
v -0.21495867 -0.19786362 -0.48495468
v -0.22497895 -0.19411044 -0.49497506
v -0.22497895 -0.19704261 -0.48495468
v -0.23075417 -0.19031815 -0.50023758
v -0.23499921 -0.17499261 -0.50276065
v -0.23445624 -0.18449289 -0.50103050
v -0.22497895 -0.16498409 -0.50470704
v -0.23499921 -0.16498409 -0.50333738
v -0.22497895 -0.15497558 -0.50485122
v -0.23499921 0.13499765 -0.50348151
v -0.23499921 0.14496706 -0.50340945
v -0.23499921 0.15497558 -0.50326526
v -0.23499921 0.16498409 -0.50276065
v -0.23549283 0.17507081 -0.50146306
v -0.23248181 0.18253809 -0.50081426
v -0.22453469 0.18550937 -0.50117469
v -0.22093135 0.19012266 -0.50009334
v -0.21495867 0.19027905 -0.50016546
v -0.21495867 0.19325033 -0.49497506
v -0.21495867 0.19684714 -0.48495468
v -0.21495867 0.19794182 -0.47493434
v -0.21495867 0.19868463 -0.44494534
v -0.21495867 0.19884102 -0.43499708
v -0.21495867 0.19821548 -0.46498606
v -0.20498779 0.19923198 0.23088825
v -0.22497895 -0.19829369 -0.43499708
v -0.22497895 -0.19821548 -0.44494534
v -0.22497895 -0.19825459 0.23088825
v -0.22497895 -0.19829369 0.13493788
v -0.22497895 -0.19790272 -0.46498606
v -0.22497895 -0.19774634 -0.47493434
v -0.23445624 -0.19153012 -0.49447042
v -0.23499921 -0.19403225 -0.48495468
v -0.23499921 -0.19481416 -0.47493434
v -0.23741788 -0.18754235 -0.49749815
v -0.24037954 -0.18085697 -0.50023758
v -0.24033019 -0.19031815 -0.49086598
v -0.24097186 -0.17499261 -0.50074220
v -0.24151483 -0.16498409 -0.50110257
v -0.23499921 -0.15497558 -0.50348151
v -0.24171230 0.13499765 -0.50117469
v -0.24161357 0.14496706 -0.50117469
v -0.24146548 0.15497558 -0.50103050
v -0.24102125 0.16498409 -0.50074220
v -0.24042889 0.17178676 -0.50030959
v -0.23914552 0.17843303 -0.49930039
v -0.22759506 0.18918437 -0.49937248
v -0.22453469 0.19192107 -0.49562386
v -0.22497895 0.19555698 -0.48495468
v -0.22497895 0.19665167 -0.47493434
v -0.22497895 0.19739448 -0.44494534
v -0.22497895 0.19751176 -0.43499708
v -0.21495867 0.19884102 0.23088825
v -0.22497895 0.19715990 -0.45496571
v -0.23499921 -0.19540060 -0.43499708
v -0.23499921 -0.19532241 -0.44494534
v -0.22902653 -0.19704261 0.23088825
v -0.23499921 -0.19528331 0.21495658
v -0.23499921 -0.19532241 0.17494723
v -0.23499921 -0.19536150 0.10494889
v -0.23499921 -0.19540060 0.00496158
v -0.23499921 -0.19500963 -0.46498606
v -0.24082381 -0.19086549 -0.48495468
v -0.24121869 -0.19129553 -0.47493434
v -0.24156421 -0.18449289 -0.49447042
v -0.24422970 -0.17499261 -0.49497506
v -0.24398288 -0.18496203 -0.48495468
v -0.24521691 -0.16498409 -0.49497506
v -0.24166292 -0.15497558 -0.50117469
v -0.24546373 -0.15497558 -0.49497506
v -0.24171230 -0.14496706 -0.50117469
v -0.24551308 0.13499765 -0.49497506
v -0.24541435 0.14496706 -0.49497506
v -0.24511820 0.15497558 -0.49497506
v -0.24427906 0.16498409 -0.49497506
v -0.24215654 0.17507081 -0.49555176
v -0.24111995 0.18199076 -0.49259612
v -0.23559153 0.18558756 -0.49598429
v -0.23203754 0.19117825 -0.49266821
v -0.23376518 0.19223385 -0.48495468
v -0.23455495 0.19274208 -0.47493434
v -0.23499921 0.19321123 -0.44494534
v -0.23475239 0.19289847 -0.46498606
v -0.23499921 0.19332851 -0.43499708
v -0.23499921 0.19336762 -0.42497671
v -0.22497895 0.19751176 0.18496761
v -0.22497895 0.19747268 0.23088825
v -0.24156421 -0.19160831 -0.43499708
v -0.24151483 -0.19156921 -0.44494534
v -0.24141613 -0.19149102 -0.45496571
v -0.23499921 -0.19524421 0.23088825
v -0.24141613 -0.19149102 0.22497696
v -0.24146548 -0.19153012 0.16499898
v -0.24151483 -0.19156921 0.08498026
v -0.24151483 -0.19160831 -0.00505878
v -0.24156421 -0.19160831 -0.07505712
v -0.24467394 -0.18496203 -0.47493434
v -0.24487138 -0.18496203 -0.46498606
v -0.24699390 -0.17499261 -0.48495468
v -0.24788240 -0.16498409 -0.48495468
v -0.24812919 -0.15497558 -0.48495468
v -0.24551308 -0.14496706 -0.49497506
v -0.24817857 0.13499765 -0.48495468
v -0.24807984 0.14496706 -0.48495468
v -0.24778366 0.15497558 -0.48495468
v -0.24704325 0.16498409 -0.48495468
v -0.24526626 0.17499261 -0.48495468
v -0.24200845 0.18367186 -0.48495468
v -0.23875064 0.18867612 -0.48495468
v -0.23954040 0.18949714 -0.47493434
v -0.23973784 0.18969262 -0.46498606
v -0.23998466 0.19000538 -0.45013574
v -0.24013275 0.19012266 -0.43499708
v -0.23499921 0.19336762 -0.16495200
v -0.23499921 0.19332851 -0.00505878
v -0.23499921 0.19328943 0.08498026
v -0.23499921 0.19321123 0.18496761
v -0.23494986 0.19317214 0.23088825
v -0.24526626 -0.18496203 -0.43499708
v -0.24516755 -0.18496203 -0.44494534
v -0.24136677 -0.19149102 0.23088825
v -0.24348927 -0.18762054 0.23088825
v -0.24497011 -0.18496203 0.21495658
v -0.24501947 -0.18496203 0.18496761
v -0.24511820 -0.18496203 0.11496925
v -0.24516755 -0.18496203 0.07495990
v -0.24521691 -0.18496203 0.00496158
v -0.24526626 -0.18496203 -0.07505712
v -0.24763557 -0.17499261 -0.47493434
v -0.24778366 -0.17499261 -0.46498606
v -0.24852407 -0.16498409 -0.47493434
v -0.24817857 -0.14496706 -0.48495468
v -0.24877089 -0.15497558 -0.47493434
v -0.24882025 0.13499765 -0.47493434
v -0.24872154 0.14496706 -0.47493434
v -0.24842536 0.15497558 -0.47493434
v -0.24768496 0.16498409 -0.47493434
v -0.24595731 0.17499261 -0.47493434
v -0.24240333 0.18449289 -0.47493434
v -0.23988593 0.18984900 -0.45684001
v -0.24274886 0.18496203 -0.44494534
v -0.24250206 0.18468836 -0.46498606
v -0.24284759 0.18496203 -0.43499708
v -0.24013275 0.19012266 -0.14498337
v -0.24008337 0.19012266 -0.02502742
v -0.24008337 0.19008358 0.07495990
v -0.24003401 0.19004448 0.14495826
v -0.23598641 0.19254661 0.21481240
v -0.23697364 0.19188198 0.23088825
v -0.24812919 -0.17499261 -0.43499708
v -0.24793175 -0.17499261 -0.45496571
v -0.24492076 -0.18496203 0.23088825
v -0.24773431 -0.17499261 0.22497696
v -0.24783304 -0.17499261 0.18496761
v -0.24788240 -0.17499261 0.15497860
v -0.24798110 -0.17499261 0.08498026
v -0.24803048 -0.17499261 0.04497091
v -0.24807984 -0.17499261 -0.02502742
v -0.24812919 -0.17499261 -0.10504611
v -0.24867216 -0.16498409 -0.46498606
v -0.24882025 -0.14496706 -0.47493434
v -0.24891898 -0.15497558 -0.46498606
v -0.24896833 0.13499765 -0.46498606
v -0.24886960 0.14496706 -0.46498606
v -0.24857345 0.15497558 -0.46498606
v -0.24783304 0.16498409 -0.46498606
v -0.24615476 0.17499261 -0.46498606
v -0.24645093 0.17499261 -0.44494534
v -0.24654967 0.17499261 -0.43499708
v -0.24284759 0.18496203 -0.11506647
v -0.24274886 0.18496203 0.06493956
v -0.24279824 0.18496203 -0.01500706
v -0.23998466 0.19000538 0.20493624
v -0.23993531 0.18992719 0.23088825
v -0.23998466 0.18996629 0.21812850
v -0.23993531 0.18996629 0.22497696
v -0.24901769 -0.16498409 -0.43499708
v -0.24896833 -0.16498409 -0.44494534
v -0.24768496 -0.17499261 0.23088825
v -0.24822792 -0.16901097 0.23088825
v -0.24862280 -0.16498409 0.22497696
v -0.24867216 -0.16498409 0.21495658
v -0.24872154 -0.16498409 0.19498795
v -0.24891898 -0.16498409 0.06493956
v -0.24901769 -0.16498409 -0.07505712
v -0.24896833 -0.14496706 -0.46498606
v -0.24921513 -0.15497558 -0.44494534
v -0.24926451 0.13499765 -0.44494534
v -0.24901769 0.14496706 -0.45496571
v -0.24886960 0.15497558 -0.44494534
v -0.24812919 0.16498409 -0.44494534
v -0.24822792 0.16498409 -0.43499708
v -0.24654967 0.17499261 -0.18499272
v -0.24650028 0.17499261 -0.04506813
v -0.24640158 0.17499261 0.08498026
v -0.24265015 0.18496203 0.14495826
v -0.24645093 0.17499261 0.02493021
v -0.24146548 0.18695591 0.23088825
v -0.24255142 0.18496203 0.20493624
v -0.24250206 0.18496203 0.22497696
v -0.24250206 0.18492293 0.23088825
v -0.24926451 -0.15497558 -0.43499708
v -0.24857345 -0.16498409 0.23088825
v -0.24872154 -0.15900245 0.23088825
v -0.24886960 -0.15497558 0.22497696
v -0.24891898 -0.15497558 0.21495658
v -0.24906707 -0.15497558 0.12498963
v -0.24916577 -0.15497558 0.06493956
v -0.24926451 -0.15497558 -0.07505712
v -0.24926451 -0.14496706 -0.44494534
v -0.24931386 0.13499765 -0.43499708
v -0.24921513 0.14496706 -0.43499708
v -0.24891898 0.15497558 -0.43499708
v -0.24896833 0.15497558 -0.42497671
v -0.24822792 0.16498409 -0.19494098
v -0.24817857 0.16498409 -0.05501641
v -0.24807984 0.16498409 0.07495990
v -0.24798110 0.16498409 0.14495826
v -0.24625349 0.17499261 0.18496761
v -0.24812919 0.16498409 0.01498194
v -0.24398288 0.18089607 0.23088825
v -0.24936321 -0.14496706 -0.42497671
v -0.24931386 -0.14496706 -0.43499708
v -0.24882025 -0.15497558 0.23088825
v -0.24886960 -0.14903302 0.23088825
v -0.24891898 -0.14496706 0.22497696
v -0.24896833 -0.14496706 0.21495658
v -0.24911642 -0.14496706 0.12498963
v -0.24921513 -0.14496706 0.06493956
v -0.24931386 -0.14496706 -0.07505712
v -0.24936321 -0.14496706 -0.24497069
v -0.24936321 0.13499765 -0.42497671
v -0.24921513 0.14496706 -0.10504611
v -0.24896833 0.15497558 -0.22492997
v -0.24891898 0.15497558 -0.05501641
v -0.24882025 0.15497558 0.07495990
v -0.24867216 0.15497558 0.16499898
v -0.24788240 0.16498409 0.20493624
v -0.24615476 0.17499261 0.22497696
v -0.24610540 0.17499261 0.23088825
v -0.24886960 0.13499765 0.23088825
v -0.24891898 0.13499765 0.22497696
v -0.24896833 0.13499765 0.21495658
v -0.24911642 0.13499765 0.12498963
v -0.24921513 0.13499765 0.06493956
v -0.24931386 0.13499765 -0.07505712
v -0.24936321 0.13499765 -0.24497069
v -0.24916577 0.14496706 -0.02502742
v -0.24911642 0.14496706 0.04497091
v -0.24906707 0.14496706 0.08498026
v -0.24891898 0.14496706 0.18496761
v -0.24862280 0.15497558 0.19498795
v -0.24857345 0.15497558 0.21495658
v -0.24852407 0.15497558 0.23088825
v -0.24778366 0.16498409 0.23088825
v -0.24679646 0.17092665 0.23088825
v -0.24882025 0.14094020 0.23088825
v -0.24882025 0.14496706 0.22497696
v -0.24877089 0.14496706 0.23088825
f 1 2 7
f 1 7 3
f 1 3 10
f 1 10 4
f 1 4 12
f 1 12 5
f 1 5 8
f 1 8 2
f 2 6 16
f 2 16 7
f 2 8 17
f 2 17 6
f 3 7 18
f 3 18 9
f 3 9 10
f 4 10 23
f 4 23 11
f 4 11 12
f 5 12 13
f 5 13 14
f 5 14 19
f 5 19 8
f 6 15 33
f 6 33 16
f 6 17 15
f 7 16 18
f 8 19 17
f 9 18 38
f 9 38 20
f 9 20 10
f 10 20 21
f 10 21 22
f 10 22 23
f 11 24 25
f 11 25 13
f 11 13 12
f 11 23 46
f 11 46 26
f 11 26 24
f 13 27 14
f 13 25 28
f 13 28 29
f 13 29 30
f 13 30 31
f 13 31 27
f 14 27 41
f 14 41 19
f 15 32 63
f 15 63 33
f 15 17 34
f 15 34 35
f 15 35 32
f 16 33 36
f 16 36 37
f 16 37 38
f 16 38 18
f 17 19 39
f 17 39 40
f 17 40 34
f 19 41 39
f 20 38 73
f 20 73 42
f 20 42 43
f 20 43 21
f 21 43 44
f 21 44 22
f 22 44 79
f 22 79 45
f 22 45 46
f 22 46 23
f 24 47 48
f 24 48 25
f 24 26 47
f 25 48 28
f 26 46 84
f 26 84 49
f 26 49 50
f 26 50 47
f 27 31 61
f 27 61 41
f 28 48 51
f 28 51 52
f 28 52 29
f 29 52 53
f 29 53 54
f 29 54 55
f 29 55 56
f 29 56 57
f 29 57 58
f 29 58 59
f 29 59 30
f 30 59 60
f 30 60 31
f 31 60 98
f 31 98 61
f 32 62 102
f 32 102 63
f 32 35 64
f 32 64 62
f 33 63 65
f 33 65 69
f 33 69 36
f 34 40 35
f 35 40 66
f 35 66 67
f 35 67 68
f 35 68 64
f 36 69 70
f 36 70 71
f 36 71 72
f 36 72 37
f 37 72 38
f 38 72 73
f 39 41 74
f 39 74 40
f 40 74 75
f 40 75 110
f 40 110 66
f 41 61 74
f 42 73 120
f 42 120 76
f 42 76 77
f 42 77 43
f 43 77 127
f 43 127 78
f 43 78 44
f 44 78 79
f 45 80 46
f 45 79 81
f 45 81 82
f 45 82 80
f 46 80 83
f 46 83 84
f 47 85 86
f 47 86 87
f 47 87 88
f 47 88 51
f 47 51 48
f 47 50 85
f 49 89 85
f 49 85 50
f 49 84 133
f 49 133 89
f 51 88 90
f 51 90 91
f 51 91 52
f 52 91 53
f 53 91 92
f 53 92 54
f 54 92 55
f 55 92 93
f 55 93 94
f 55 94 56
f 56 94 57
f 57 60 58
f 57 94 150
f 57 150 95
f 57 95 96
f 57 96 97
f 57 97 60
f 58 60 59
f 60 97 99
f 60 99 155
f 60 155 98
f 61 98 100
f 61 100 74
f 62 101 160
f 62 160 102
f 62 64 103
f 62 103 104
f 62 104 101
f 63 102 108
f 63 108 65
f 64 68 105
f 64 105 106
f 64 106 107
f 64 107 103
f 65 108 109
f 65 109 69
f 66 110 67
f 67 111 112
f 67 112 113
f 67 113 114
f 67 114 105
f 67 105 68
f 67 110 111
f 69 109 115
f 69 115 116
f 69 116 70
f 70 116 117
f 70 117 71
f 71 117 118
f 71 118 119
f 71 119 72
f 72 119 120
f 72 120 73
f 74 100 75
f 75 121 110
f 75 100 122
f 75 122 123
f 75 123 121
f 76 120 179
f 76 179 124
f 76 124 125
f 76 125 77
f 77 125 126
f 77 126 127
f 78 127 128
f 78 128 79
f 79 128 81
f 80 129 83
f 80 82 129
f 81 128 130
f 81 130 131
f 81 131 132
f 81 132 129
f 81 129 82
f 83 129 133
f 83 133 84
f 85 134 135
f 85 135 136
f 85 136 86
f 85 89 134
f 86 136 137
f 86 137 138
f 86 138 139
f 86 139 87
f 87 140 88
f 87 139 141
f 87 141 140
f 88 140 90
f 89 133 191
f 89 191 142
f 89 142 134
f 90 141 143
f 90 143 91
f 90 140 141
f 91 143 144
f 91 144 145
f 91 145 146
f 91 146 92
f 92 146 147
f 92 147 148
f 92 148 149
f 92 149 93
f 93 149 150
f 93 150 94
f 95 150 151
f 95 151 96
f 96 151 152
f 96 152 99
f 96 99 97
f 98 153 154
f 98 154 100
f 98 155 156
f 98 156 153
f 99 152 157
f 99 157 216
f 99 216 275
f 99 275 274
f 99 274 273
f 99 273 272
f 99 272 271
f 99 271 204
f 99 204 203
f 99 203 270
f 99 270 319
f 99 319 358
f 99 358 357
f 99 357 386
f 99 386 415
f 99 415 414
f 99 414 443
f 99 443 474
f 99 474 473
f 99 473 472
f 99 472 471
f 99 471 502
f 99 502 530
f 99 530 562
f 99 562 590
f 99 590 623
f 99 623 651
f 99 651 685
f 99 685 716
f 99 716 747
f 99 747 772
f 99 772 796
f 99 796 799
f 99 799 819
f 99 819 838
f 99 838 854
f 99 854 853
f 99 853 852
f 99 852 857
f 99 857 855
f 99 855 839
f 99 839 823
f 99 823 822
f 99 822 802
f 99 802 801
f 99 801 778
f 99 778 777
f 99 777 750
f 99 750 720
f 99 720 719
f 99 719 689
f 99 689 655
f 99 655 626
f 99 626 594
f 99 594 565
f 99 565 564
f 99 564 532
f 99 532 504
f 99 504 477
f 99 477 446
f 99 446 418
f 99 418 389
f 99 389 362
f 99 362 361
f 99 361 328
f 99 328 331
f 99 331 288
f 99 288 237
f 99 237 236
f 99 236 235
f 99 235 234
f 99 234 292
f 99 292 335
f 99 335 325
f 99 325 324
f 99 324 323
f 99 323 322
f 99 322 321
f 99 321 320
f 99 320 281
f 99 281 214
f 99 214 155
f 100 154 213
f 100 213 158
f 100 158 122
f 101 159 218
f 101 218 160
f 101 104 159
f 102 160 161
f 102 161 108
f 103 162 159
f 103 159 104
f 103 107 163
f 103 163 162
f 105 114 106
f 106 114 163
f 106 163 107
f 108 161 164
f 108 164 109
f 109 164 115
f 110 121 111
f 111 123 165
f 111 165 166
f 111 166 167
f 111 167 168
f 111 168 112
f 111 121 123
f 112 168 169
f 112 169 170
f 112 170 171
f 112 171 113
f 113 171 114
f 114 171 172
f 114 172 163
f 115 164 116
f 116 164 173
f 116 173 174
f 116 174 175
f 116 175 117
f 117 175 176
f 117 176 177
f 117 177 118
f 118 177 119
f 119 177 178
f 119 178 179
f 119 179 120
f 122 158 165
f 122 165 123
f 124 179 245
f 124 245 180
f 124 180 181
f 124 181 125
f 125 181 182
f 125 182 126
f 126 182 183
f 126 183 184
f 126 184 128
f 126 128 127
f 128 184 130
f 129 185 133
f 129 132 186
f 129 186 187
f 129 187 185
f 130 184 188
f 130 188 189
f 130 189 131
f 131 189 190
f 131 190 186
f 131 186 132
f 133 185 191
f 134 192 135
f 134 142 192
f 135 192 193
f 135 193 194
f 135 194 136
f 136 194 137
f 137 194 195
f 137 195 138
f 138 195 139
f 139 143 141
f 139 195 196
f 139 196 197
f 139 197 198
f 139 198 143
f 142 191 257
f 142 257 199
f 142 199 192
f 143 198 200
f 143 200 144
f 144 200 201
f 144 201 145
f 145 201 146
f 146 201 147
f 147 202 148
f 147 201 203
f 147 203 204
f 147 204 205
f 147 205 202
f 148 202 149
f 149 202 205
f 149 205 206
f 149 206 207
f 149 207 150
f 150 207 208
f 150 208 151
f 151 208 152
f 152 208 157
f 153 156 209
f 153 209 210
f 153 210 211
f 153 211 212
f 153 212 213
f 153 213 154
f 155 214 215
f 155 215 209
f 155 209 156
f 157 208 216
f 158 213 228
f 158 228 165
f 159 217 282
f 159 282 218
f 159 162 219
f 159 219 217
f 160 218 161
f 161 218 225
f 161 225 164
f 162 163 220
f 162 220 221
f 162 221 219
f 163 172 222
f 163 222 223
f 163 223 224
f 163 224 220
f 164 225 226
f 164 226 227
f 164 227 173
f 165 228 229
f 165 229 230
f 165 230 166
f 166 230 167
f 167 230 229
f 167 229 231
f 167 231 291
f 167 291 232
f 167 232 169
f 167 169 233
f 167 233 168
f 168 233 169
f 169 232 234
f 169 234 235
f 169 235 236
f 169 236 237
f 169 237 171
f 169 171 170
f 171 237 238
f 171 238 222
f 171 222 172
f 173 227 174
f 174 227 239
f 174 239 240
f 174 240 175
f 175 240 241
f 175 241 176
f 176 241 242
f 176 242 177
f 177 242 243
f 177 243 178
f 178 243 244
f 178 244 245
f 178 245 179
f 180 245 299
f 180 299 246
f 180 246 181
f 181 246 247
f 181 247 182
f 182 247 248
f 182 248 183
f 183 188 184
f 183 248 249
f 183 249 188
f 185 250 191
f 185 187 250
f 186 190 251
f 186 251 252
f 186 252 187
f 187 252 250
f 188 249 253
f 188 253 254
f 188 254 189
f 189 254 190
f 190 254 255
f 190 255 251
f 191 250 256
f 191 256 257
f 192 258 259
f 192 259 260
f 192 260 261
f 192 261 193
f 192 199 258
f 193 261 194
f 194 261 262
f 194 262 195
f 195 262 263
f 195 263 264
f 195 264 265
f 195 265 196
f 196 265 266
f 196 266 197
f 197 266 265
f 197 265 267
f 197 267 268
f 197 268 198
f 198 268 200
f 199 257 307
f 199 307 258
f 200 268 201
f 201 268 269
f 201 269 270
f 201 270 203
f 204 271 205
f 205 271 272
f 205 272 206
f 206 272 273
f 206 273 274
f 206 274 207
f 207 274 208
f 208 274 275
f 208 275 216
f 209 215 210
f 210 215 276
f 210 276 277
f 210 277 211
f 211 277 278
f 211 278 279
f 211 279 280
f 211 280 212
f 212 280 228
f 212 228 213
f 214 281 276
f 214 276 215
f 217 219 283
f 217 283 284
f 217 284 327
f 217 327 282
f 218 282 285
f 218 285 286
f 218 286 225
f 219 221 287
f 219 287 283
f 220 224 221
f 221 224 287
f 222 238 288
f 222 288 287
f 222 287 223
f 223 287 224
f 225 286 226
f 226 289 227
f 226 286 289
f 227 289 290
f 227 290 239
f 228 280 229
f 229 278 231
f 229 280 279
f 229 279 278
f 231 278 291
f 232 291 292
f 232 292 234
f 237 288 238
f 239 293 294
f 239 294 240
f 239 290 293
f 240 294 241
f 241 294 295
f 241 295 296
f 241 296 242
f 242 296 297
f 242 297 243
f 243 297 298
f 243 298 244
f 244 298 299
f 244 299 245
f 246 299 342
f 246 342 300
f 246 300 301
f 246 301 302
f 246 302 247
f 247 302 248
f 248 302 303
f 248 303 304
f 248 304 249
f 249 304 305
f 249 305 253
f 250 306 307
f 250 307 256
f 250 252 308
f 250 308 306
f 251 255 309
f 251 309 310
f 251 310 252
f 252 310 311
f 252 311 308
f 253 305 254
f 254 305 312
f 254 312 255
f 255 312 313
f 255 313 309
f 256 307 257
f 258 314 315
f 258 315 316
f 258 316 259
f 258 307 350
f 258 350 314
f 259 316 260
f 260 316 317
f 260 317 261
f 261 317 263
f 261 263 262
f 263 317 264
f 264 317 265
f 265 317 318
f 265 318 268
f 265 268 267
f 268 318 270
f 268 270 269
f 270 318 319
f 276 281 320
f 276 320 321
f 276 321 322
f 276 322 277
f 277 322 323
f 277 323 278
f 278 323 324
f 278 324 325
f 278 325 326
f 278 326 291
f 282 327 285
f 283 287 328
f 283 328 329
f 283 329 284
f 284 329 359
f 284 359 327
f 285 327 286
f 286 327 330
f 286 330 332
f 286 332 289
f 287 288 331
f 287 331 328
f 289 332 333
f 289 333 290
f 290 333 334
f 290 334 293
f 291 326 292
f 292 326 335
f 293 334 336
f 293 336 294
f 294 336 337
f 294 337 295
f 295 337 338
f 295 338 296
f 296 338 297
f 297 338 339
f 297 339 340
f 297 340 298
f 298 340 341
f 298 341 342
f 298 342 299
f 300 342 372
f 300 372 343
f 300 343 344
f 300 344 301
f 301 344 302
f 302 344 303
f 303 344 345
f 303 345 304
f 304 345 346
f 304 346 305
f 305 347 312
f 305 346 348
f 305 348 347
f 306 349 307
f 306 308 352
f 306 352 349
f 307 349 350
f 308 311 351
f 308 351 352
f 309 353 351
f 309 351 310
f 309 313 353
f 310 351 311
f 312 347 313
f 313 354 353
f 313 347 354
f 314 355 356
f 314 356 315
f 314 350 380
f 314 380 355
f 315 356 316
f 316 356 317
f 317 356 357
f 317 357 358
f 317 358 319
f 317 319 318
f 325 335 326
f 327 359 360
f 327 360 330
f 328 361 329
f 329 361 362
f 329 362 387
f 329 387 359
f 330 360 363
f 330 363 332
f 332 363 364
f 332 364 333
f 333 364 334
f 334 365 366
f 334 366 367
f 334 367 336
f 334 364 365
f 336 367 368
f 336 368 337
f 337 368 338
f 338 368 369
f 338 369 370
f 338 370 339
f 339 370 340
f 340 370 371
f 340 371 372
f 340 372 342
f 340 342 341
f 343 372 399
f 343 399 373
f 343 373 344
f 344 373 374
f 344 374 375
f 344 375 345
f 345 375 376
f 345 376 346
f 346 376 348
f 347 348 377
f 347 377 354
f 348 376 378
f 348 378 377
f 349 379 380
f 349 380 350
f 349 352 379
f 351 353 381
f 351 381 382
f 351 382 383
f 351 383 352
f 352 383 379
f 353 354 381
f 354 377 384
f 354 384 381
f 355 385 356
f 355 380 409
f 355 409 385
f 356 385 386
f 356 386 357
f 359 387 388
f 359 388 360
f 360 388 390
f 360 390 363
f 362 389 416
f 362 416 387
f 363 390 364
f 364 391 392
f 364 392 365
f 364 390 391
f 365 392 393
f 365 393 366
f 366 393 394
f 366 394 395
f 366 395 367
f 367 395 368
f 368 395 396
f 368 396 369
f 369 396 370
f 370 396 397
f 370 397 371
f 371 397 398
f 371 398 372
f 372 398 399
f 373 399 427
f 373 427 400
f 373 400 401
f 373 401 402
f 373 402 374
f 374 402 403
f 374 403 375
f 375 403 404
f 375 404 376
f 376 404 378
f 377 405 406
f 377 406 384
f 377 378 407
f 377 407 405
f 378 404 407
f 379 408 409
f 379 409 380
f 379 383 410
f 379 410 408
f 381 384 406
f 381 406 411
f 381 411 412
f 381 412 382
f 382 412 410
f 382 410 383
f 385 413 414
f 385 414 415
f 385 415 386
f 385 409 439
f 385 439 413
f 387 416 417
f 387 417 388
f 388 417 419
f 388 419 390
f 389 418 416
f 390 419 420
f 390 420 391
f 391 420 392
f 392 421 422
f 392 422 393
f 392 420 421
f 393 422 423
f 393 423 394
f 394 423 424
f 394 424 395
f 395 424 396
f 396 424 397
f 397 425 426
f 397 426 398
f 397 424 425
f 398 426 427
f 398 427 399
f 400 427 456
f 400 456 428
f 400 428 429
f 400 429 401
f 401 429 430
f 401 430 402
f 402 430 431
f 402 431 403
f 403 431 432
f 403 432 404
f 404 432 433
f 404 433 407
f 405 434 406
f 405 407 433
f 405 433 434
f 406 434 435
f 406 435 436
f 406 436 411
f 408 437 409
f 408 410 441
f 408 441 437
f 409 437 438
f 409 438 439
f 410 412 440
f 410 440 441
f 411 436 440
f 411 440 412
f 413 442 443
f 413 443 414
f 413 439 468
f 413 468 442
f 416 444 445
f 416 445 417
f 416 418 444
f 417 445 447
f 417 447 419
f 418 446 444
f 419 447 420
f 420 448 449
f 420 449 421
f 420 447 448
f 421 449 450
f 421 450 422
f 422 450 451
f 422 451 423
f 423 451 452
f 423 452 453
f 423 453 424
f 424 453 425
f 425 453 452
f 425 452 454
f 425 454 426
f 426 454 455
f 426 455 456
f 426 456 427
f 428 456 457
f 428 457 429
f 429 457 488
f 429 488 458
f 429 458 489
f 429 489 459
f 429 459 430
f 430 459 460
f 430 460 431
f 431 460 461
f 431 461 432
f 432 461 462
f 432 462 433
f 433 462 434
f 434 463 435
f 434 462 463
f 435 463 464
f 435 464 465
f 435 465 436
f 436 465 469
f 436 469 440
f 437 466 467
f 437 467 438
f 437 441 470
f 437 470 466
f 438 467 468
f 438 468 439
f 440 469 470
f 440 470 441
f 442 471 472
f 442 472 473
f 442 473 474
f 442 474 443
f 442 468 499
f 442 499 471
f 444 475 476
f 444 476 478
f 444 478 445
f 444 446 477
f 444 477 475
f 445 478 479
f 445 479 447
f 447 479 480
f 447 480 448
f 448 480 481
f 448 481 449
f 449 481 450
f 450 482 511
f 450 511 483
f 450 483 451
f 450 481 482
f 451 483 452
f 452 484 454
f 452 483 484
f 454 485 486
f 454 486 487
f 454 487 455
f 454 484 485
f 455 487 457
f 455 457 456
f 457 487 486
f 457 486 488
f 458 488 515
f 458 515 517
f 458 517 490
f 458 490 516
f 458 516 489
f 459 489 491
f 459 491 460
f 460 491 492
f 460 492 461
f 461 492 493
f 461 493 462
f 462 493 494
f 462 494 463
f 463 494 464
f 464 494 495
f 464 495 465
f 465 495 496
f 465 496 500
f 465 500 469
f 466 497 498
f 466 498 467
f 466 470 497
f 467 498 499
f 467 499 468
f 469 500 501
f 469 501 470
f 470 501 497
f 471 499 527
f 471 527 502
f 475 503 505
f 475 505 476
f 475 477 504
f 475 504 532
f 475 532 503
f 476 505 506
f 476 506 478
f 478 506 507
f 478 507 479
f 479 507 508
f 479 508 480
f 480 508 509
f 480 509 481
f 481 509 510
f 481 510 482
f 482 510 540
f 482 540 511
f 483 511 484
f 484 512 513
f 484 513 485
f 484 511 540
f 484 540 512
f 485 513 514
f 485 514 486
f 486 514 515
f 486 515 488
f 489 516 519
f 489 519 491
f 490 517 518
f 490 518 516
f 491 519 520
f 491 520 492
f 492 520 521
f 492 521 493
f 493 521 555
f 493 555 522
f 493 522 494
f 494 522 495
f 495 522 555
f 495 555 523
f 495 523 524
f 495 524 496
f 496 524 528
f 496 528 500
f 497 525 526
f 497 526 498
f 497 501 529
f 497 529 525
f 498 526 527
f 498 527 499
f 500 528 529
f 500 529 501
f 502 527 530
f 503 531 533
f 503 533 505
f 503 532 564
f 503 564 531
f 505 533 534
f 505 534 506
f 506 534 535
f 506 535 507
f 507 535 536
f 507 536 508
f 508 536 537
f 508 537 509
f 509 537 538
f 509 538 510
f 510 538 539
f 510 539 540
f 512 540 539
f 512 539 541
f 512 541 542
f 512 542 543
f 512 543 544
f 512 544 545
f 512 545 513
f 513 545 546
f 513 546 514
f 514 546 547
f 514 547 515
f 515 547 518
f 515 518 517
f 516 518 548
f 516 548 549
f 516 549 550
f 516 550 551
f 516 551 519
f 518 547 577
f 518 577 549
f 518 549 548
f 519 551 520
f 520 552 553
f 520 553 521
f 520 551 552
f 521 553 554
f 521 554 555
f 523 555 554
f 523 554 556
f 523 556 557
f 523 557 524
f 524 557 560
f 524 560 528
f 525 558 559
f 525 559 526
f 525 529 561
f 525 561 558
f 526 559 527
f 527 559 530
f 528 560 561
f 528 561 529
f 530 559 562
f 531 563 533
f 531 564 565
f 531 565 563
f 533 563 566
f 533 566 534
f 534 566 567
f 534 567 535
f 535 567 568
f 535 568 536
f 536 568 569
f 536 569 537
f 537 569 570
f 537 570 538
f 538 570 541
f 538 541 539
f 541 570 542
f 542 570 571
f 542 571 572
f 542 572 573
f 542 573 574
f 542 574 543
f 543 574 544
f 544 574 575
f 544 575 605
f 544 605 576
f 544 576 546
f 544 546 545
f 546 576 577
f 546 577 547
f 549 578 579
f 549 579 550
f 549 577 607
f 549 607 578
f 550 579 581
f 550 581 580
f 550 580 551
f 551 580 552
f 552 580 581
f 552 581 582
f 552 582 583
f 552 583 584
f 552 584 553
f 553 584 585
f 553 585 554
f 554 585 556
f 556 585 586
f 556 586 557
f 557 586 587
f 557 587 560
f 558 588 589
f 558 589 559
f 558 561 592
f 558 592 588
f 559 589 590
f 559 590 562
f 560 587 591
f 560 591 592
f 560 592 561
f 563 593 566
f 563 565 593
f 565 594 595
f 565 595 593
f 566 593 596
f 566 596 597
f 566 597 567
f 567 597 568
f 568 597 598
f 568 598 599
f 568 599 569
f 569 599 571
f 569 571 570
f 571 600 572
f 571 599 601
f 571 601 600
f 572 600 602
f 572 602 573
f 573 603 575
f 573 575 574
f 573 602 604
f 573 604 603
f 575 603 606
f 575 606 605
f 576 605 607
f 576 607 577
f 578 607 638
f 578 638 608
f 578 608 609
f 578 609 610
f 578 610 579
f 579 610 581
f 581 610 611
f 581 611 582
f 582 611 612
f 582 612 613
f 582 613 614
f 582 614 583
f 583 614 615
f 583 615 616
f 583 616 585
f 583 585 584
f 585 616 586
f 586 616 615
f 586 615 617
f 586 617 587
f 587 617 618
f 587 618 619
f 587 619 591
f 588 620 621
f 588 621 589
f 588 592 622
f 588 622 620
f 589 621 651
f 589 651 623
f 589 623 590
f 591 619 622
f 591 622 592
f 593 624 625
f 593 625 596
f 593 595 627
f 593 627 624
f 594 626 595
f 595 626 627
f 596 625 628
f 596 628 597
f 597 628 629
f 597 629 598
f 598 629 601
f 598 601 599
f 600 601 630
f 600 630 602
f 601 631 630
f 601 629 632
f 601 632 631
f 602 633 634
f 602 634 604
f 602 630 635
f 602 635 633
f 603 604 634
f 603 634 636
f 603 636 606
f 605 606 638
f 605 638 607
f 606 636 637
f 606 637 638
f 608 638 669
f 608 669 639
f 608 639 640
f 608 640 609
f 609 640 610
f 610 640 641
f 610 641 642
f 610 642 611
f 611 642 643
f 611 643 612
f 612 643 644
f 612 644 613
f 613 644 645
f 613 645 614
f 614 645 615
f 615 645 646
f 615 646 617
f 617 646 618
f 618 646 647
f 618 647 648
f 618 648 619
f 619 648 622
f 620 649 621
f 620 622 652
f 620 652 649
f 621 649 650
f 621 650 684
f 621 684 651
f 622 648 652
f 624 653 654
f 624 654 625
f 624 627 659
f 624 659 653
f 625 654 660
f 625 660 628
f 626 655 656
f 626 656 657
f 626 657 658
f 626 658 627
f 627 658 659
f 628 660 629
f 629 660 632
f 630 631 635
f 631 661 635
f 631 632 661
f 632 660 662
f 632 662 661
f 633 635 634
f 634 635 663
f 634 663 664
f 634 664 636
f 635 661 665
f 635 665 663
f 636 664 666
f 636 666 637
f 637 667 638
f 637 666 668
f 637 668 667
f 638 667 669
f 639 670 671
f 639 671 640
f 639 669 700
f 639 700 670
f 640 671 641
f 641 671 672
f 641 672 642
f 642 672 673
f 642 673 643
f 643 673 674
f 643 674 644
f 644 674 675
f 644 675 676
f 644 676 645
f 645 676 677
f 645 677 646
f 646 677 647
f 647 677 678
f 647 678 648
f 648 678 679
f 648 679 652
f 649 680 682
f 649 682 650
f 649 652 681
f 649 681 680
f 650 682 683
f 650 683 712
f 650 712 684
f 651 684 685
f 652 679 681
f 653 686 687
f 653 687 654
f 653 659 694
f 653 694 686
f 654 687 688
f 654 688 662
f 654 662 660
f 655 689 656
f 656 689 690
f 656 690 691
f 656 691 657
f 657 691 692
f 657 692 658
f 658 692 693
f 658 693 694
f 658 694 659
f 661 662 695
f 661 695 665
f 662 688 696
f 662 696 695
f 663 665 697
f 663 697 664
f 664 697 666
f 665 695 697
f 666 697 698
f 666 698 699
f 666 699 668
f 667 668 700
f 667 700 669
f 668 699 730
f 668 730 700
f 670 700 730
f 670 730 701
f 670 701 702
f 670 702 671
f 671 702 703
f 671 703 672
f 672 703 704
f 672 704 673
f 673 704 705
f 673 705 674
f 674 705 675
f 675 705 706
f 675 706 707
f 675 707 677
f 675 677 676
f 677 707 678
f 678 707 708
f 678 708 679
f 679 708 709
f 679 709 710
f 679 710 681
f 680 710 711
f 680 711 682
f 680 681 710
f 682 711 683
f 683 711 742
f 683 742 712
f 684 712 713
f 684 713 714
f 684 714 715
f 684 715 685
f 685 715 716
f 686 717 687
f 686 694 726
f 686 726 717
f 687 717 718
f 687 718 688
f 688 718 696
f 689 719 690
f 690 719 720
f 690 720 721
f 690 721 722
f 690 722 723
f 690 723 724
f 690 724 691
f 691 724 692
f 692 724 725
f 692 725 726
f 692 726 694
f 692 694 693
f 695 696 727
f 695 727 697
f 696 728 727
f 696 718 749
f 696 749 728
f 697 727 729
f 697 729 698
f 698 729 731
f 698 731 699
f 699 731 759
f 699 759 730
f 701 732 733
f 701 733 702
f 701 730 759
f 701 759 732
f 702 733 734
f 702 734 703
f 703 734 735
f 703 735 704
f 704 735 736
f 704 736 705
f 705 736 737
f 705 737 706
f 706 737 708
f 706 708 707
f 708 737 709
f 709 737 738
f 709 738 710
f 710 739 711
f 710 738 737
f 710 737 740
f 710 740 739
f 711 739 741
f 711 741 768
f 711 768 742
f 712 742 713
f 713 742 743
f 713 743 744
f 713 744 714
f 714 744 715
f 715 745 746
f 715 746 716
f 715 744 745
f 716 746 747
f 717 748 749
f 717 749 718
f 717 726 757
f 717 757 748
f 720 750 721
f 721 750 751
f 721 751 752
f 721 752 753
f 721 753 722
f 722 753 754
f 722 754 723
f 723 754 755
f 723 755 724
f 724 755 756
f 724 756 725
f 725 756 757
f 725 757 726
f 727 728 758
f 727 758 729
f 728 749 776
f 728 776 758
f 729 758 760
f 729 760 731
f 731 760 784
f 731 784 759
f 732 761 762
f 732 762 733
f 732 759 784
f 732 784 761
f 733 762 763
f 733 763 734
f 734 763 764
f 734 764 735
f 735 764 765
f 735 765 736
f 736 765 737
f 737 765 739
f 737 739 740
f 739 766 767
f 739 767 741
f 739 765 766
f 741 767 791
f 741 791 768
f 742 768 744
f 742 744 743
f 744 769 745
f 744 768 770
f 744 770 769
f 745 771 746
f 745 769 771
f 746 771 747
f 747 771 773
f 747 773 774
f 747 774 772
f 748 775 776
f 748 776 749
f 748 757 783
f 748 783 775
f 750 777 751
f 751 777 778
f 751 778 779
f 751 779 780
f 751 780 781
f 751 781 752
f 752 781 753
f 753 781 782
f 753 782 754
f 754 782 755
f 755 782 783
f 755 783 756
f 756 783 757
f 758 776 785
f 758 785 760
f 760 785 808
f 760 808 784
f 761 786 787
f 761 787 762
f 761 784 808
f 761 808 786
f 762 787 788
f 762 788 763
f 763 788 789
f 763 789 764
f 764 789 766
f 764 766 765
f 766 789 790
f 766 790 767
f 767 790 813
f 767 813 791
f 768 792 770
f 768 791 792
f 769 793 794
f 769 794 771
f 769 770 792
f 769 792 795
f 769 795 793
f 771 794 773
f 772 774 773
f 772 773 796
f 773 794 797
f 773 797 798
f 773 798 799
f 773 799 796
f 775 800 785
f 775 785 776
f 775 783 807
f 775 807 800
f 778 801 779
f 779 801 802
f 779 802 803
f 779 803 804
f 779 804 780
f 780 804 781
f 781 804 805
f 781 805 806
f 781 806 782
f 782 806 807
f 782 807 783
f 785 800 821
f 785 821 808
f 786 808 821
f 786 821 809
f 786 809 810
f 786 810 787
f 787 810 788
f 788 810 811
f 788 811 790
f 788 790 789
f 790 811 812
f 790 812 832
f 790 832 813
f 791 813 814
f 791 814 792
f 792 814 818
f 792 818 795
f 793 815 816
f 793 816 817
f 793 817 794
f 793 795 818
f 793 818 815
f 794 817 797
f 797 819 799
f 797 799 798
f 797 817 819
f 800 820 821
f 800 807 829
f 800 829 820
f 802 822 803
f 803 822 823
f 803 823 824
f 803 824 825
f 803 825 804
f 804 825 826
f 804 826 805
f 805 826 827
f 805 827 806
f 806 827 828
f 806 828 807
f 807 828 829
f 809 830 810
f 809 821 820
f 809 820 830
f 810 812 811
f 810 830 845
f 810 845 831
f 810 831 832
f 810 832 812
f 813 832 833
f 813 833 814
f 814 833 818
f 815 834 816
f 815 818 834
f 816 834 835
f 816 835 850
f 816 850 836
f 816 836 817
f 817 836 837
f 817 837 819
f 818 833 834
f 819 837 838
f 820 829 845
f 820 845 830
f 823 839 840
f 823 840 824
f 824 840 841
f 824 841 825
f 825 841 842
f 825 842 826
f 826 842 843
f 826 843 827
f 827 843 844
f 827 844 828
f 828 844 845
f 828 845 829
f 831 844 846
f 831 846 833
f 831 833 832
f 831 845 844
f 833 846 847
f 833 847 834
f 834 847 848
f 834 848 849
f 834 849 835
f 835 849 850
f 836 850 851
f 836 851 852
f 836 852 853
f 836 853 837
f 837 853 854
f 837 854 838
f 839 855 840
f 840 855 856
f 840 856 841
f 841 856 849
f 841 849 842
f 842 849 843
f 843 849 848
f 843 848 847
f 843 847 846
f 843 846 844
f 849 856 850
f 850 856 851
f 851 856 852
f 852 856 857
f 855 857 856

