# https://github.com/mikedh/trimesh
v -0.24888459 0.04511127 0.23096034
v -0.27094412 0.04511127 0.31668133
v -0.24888459 0.13499613 0.23096034
v 0.25340700 0.04511127 0.23096034
v -0.27297518 0.04511127 0.32513487
v -0.24877176 0.14499848 0.23096034
v -0.24882817 0.14095819 0.23096034
v 0.25340700 0.13499613 0.23096034
v 0.27067098 0.04511127 0.28644961
v -0.27500623 0.04511127 0.33500591
v -0.24848966 0.15498568 0.23096034
v 0.25335059 0.13903642 0.23096034
v 0.27332264 0.04511127 0.29503199
v -0.27906835 0.04511127 0.35544389
v -0.24809474 0.16094774 0.23096034
v 0.25323775 0.14499848 0.23096034
v 0.27580506 0.04511127 0.30500615
v 0.25284281 0.15498568 0.23096034
v -0.28081730 0.04511127 0.36497989
v -0.24775623 0.16498801 0.23096034
v 0.27665132 0.05500768 0.31500608
v 0.27749759 0.04511127 0.31490299
v 0.27992359 0.07897698 0.35077900
v 0.27941582 0.07539067 0.34513471
v 0.27890804 0.06501003 0.33500591
v 0.25239149 0.15902597 0.23096034
v -0.28420240 0.04511127 0.38497975
v -0.24679711 0.17095008 0.23096034
v -0.28572571 0.04511127 0.39497966
v -0.27929401 0.09465387 0.39536625
v -0.27929401 0.10468647 0.40534040
v -0.27923760 0.11468881 0.41523725
v 0.27823102 0.05500768 0.32500601
v 0.28014925 0.04511127 0.33374304
v 0.27992359 0.08964513 0.36028922
v 0.28082627 0.09580391 0.37415510
v 0.28178540 0.08501470 0.37497982
v 0.28483197 0.04511127 0.37487674
v 0.28381646 0.04511127 0.36487681
v 0.28280091 0.04511127 0.35490265
v 0.28014925 0.07231884 0.34856251
v 0.27981076 0.06501003 0.34142339
v 0.25171447 0.16498801 0.23096034
v -0.24612010 0.17499036 0.23096034
v -0.27872983 0.12499379 0.42497945
v -0.28702331 0.04511127 0.40510845
v -0.27974537 0.10780369 0.41206717
v -0.28815168 0.04511127 0.41497952
v -0.28008386 0.11113276 0.41874236
v -0.27974537 0.11797249 0.42497945
v 0.27998000 0.05998616 0.34003165
v 0.28167254 0.04511127 0.34492850
v 0.27992359 0.09966260 0.37028915
v 0.28037494 0.10299167 0.37693858
v 0.28031850 0.09298933 0.36693865
v 0.28076985 0.10580625 0.38423234
v 0.28184181 0.09500191 0.38497975
v 0.28562182 0.04511127 0.38487667
v 0.25120670 0.16769667 0.23096034
v 0.27998000 0.13003279 0.40992799
v 0.27992359 0.10966495 0.38041794
v -0.24397621 0.18092215 0.23096034
v -0.27799639 0.13499613 0.43497935
v -0.27681163 0.14499848 0.44497928
v -0.27466774 0.15498568 0.45497918
v -0.27150831 0.16521500 0.45564929
v -0.27009785 0.17023887 0.45943794
v -0.28905436 0.04511127 0.42528871
v -0.27951971 0.12417666 0.43528864
v -0.28911081 0.04511127 0.42603612
v 0.28060061 0.11514278 0.39518586
v 0.28161612 0.10500425 0.39497966
v 0.28031850 0.11190450 0.38706735
v 0.28618601 0.04511127 0.39497966
v 0.25041685 0.17157049 0.23096034
v 0.27896446 0.13594946 0.41497952
v 0.28009284 0.13095586 0.41497952
v 0.28076985 0.12499379 0.41497952
v 0.28127763 0.11500659 0.40497959
v 0.28031850 0.12446417 0.40595895
v -0.24250934 0.18494731 0.23096034
v -0.27827850 0.13499613 0.44497928
v -0.27630386 0.14499848 0.45497918
v -0.27190325 0.15556070 0.46585542
v -0.27100053 0.16498801 0.46278840
v -0.27009785 0.17023887 0.46057194
v -0.26129660 0.18143664 0.46497911
v -0.23991409 0.18995604 0.23096034
v -0.24149381 0.18697500 0.23096034
v -0.28944930 0.04511127 0.43497935
v 0.28691944 0.04511127 0.41497952
v 0.24951416 0.17453639 0.23096034
v 0.27552295 0.15498568 0.43497935
v 0.27755401 0.14499848 0.42497945
v 0.28014925 0.13121310 0.42497945
v 0.27952865 0.13622184 0.42497945
v 0.28161612 0.11500659 0.41497952
v -0.28933647 0.04511127 0.44044322
v -0.28922364 0.04511127 0.44564939
v -0.27342653 0.14499848 0.46497911
v -0.28916723 0.04511127 0.44631946
v -0.28786960 0.04511127 0.45497918
v -0.26987219 0.15926808 0.46979868
v -0.26925159 0.16498801 0.46778837
v -0.26095811 0.18117940 0.47124195
v -0.25091565 0.19057646 0.47103578
v -0.25091565 0.19057646 0.46706674
v -0.23698033 0.19187781 0.23096034
v 0.28669378 0.04511127 0.42497945
v 0.28065702 0.12499379 0.42497945
v 0.24889356 0.17656410 0.23096034
v 0.27213788 0.16575976 0.44472155
v 0.27580506 0.15498568 0.44497928
v 0.27817461 0.14499848 0.43497935
v 0.28003642 0.13038084 0.43054640
v -0.28420240 0.04511127 0.46500489
v -0.27026710 0.15259480 0.47036567
v -0.26428676 0.16498801 0.47420585
v -0.26259422 0.17499036 0.47289142
v -0.25695240 0.17499036 0.47789139
v -0.25052071 0.18057412 0.48026252
v -0.25407508 0.18420583 0.47448936
v -0.24499173 0.18765596 0.47809756
v -0.23912424 0.18962313 0.47977281
v -0.24499173 0.19192322 0.47309762
v -0.23494929 0.19664444 0.46497911
v -0.24589442 0.19264956 0.46423170
v -0.22496326 0.19749184 0.23096034
v -0.23494929 0.19317919 0.23096034
v 0.28596035 0.04511127 0.43487626
v 0.24421084 0.18499270 0.23096034
v 0.27038890 0.17063230 0.44789162
v 0.27044532 0.17079875 0.45497918
v 0.27732834 0.14499848 0.44497928
v 0.27219430 0.16498801 0.45497918
v 0.27416891 0.15498568 0.45497918
v 0.27941582 0.13422440 0.43433502
v 0.27981076 0.12499379 0.43786591
v -0.28087375 0.04511127 0.47101000
v -0.26592290 0.15556070 0.47397390
v -0.25853211 0.16498801 0.47920582
v -0.25193116 0.17499036 0.48085529
v -0.24499173 0.17499036 0.48294288
v -0.24499173 0.18264721 0.48103571
v -0.23545705 0.18577957 0.48198929
v -0.23246688 0.19054618 0.48046869
v -0.23545705 0.19298247 0.47585532
v -0.22496326 0.19494964 0.47497904
v -0.22496326 0.19803660 0.46497911
v -0.22496326 0.19826359 0.45497918
v -0.22095756 0.19803660 0.23096034
v 0.28471914 0.04511127 0.44497928
v 0.27998000 0.11992453 0.43992776
v 0.24263112 0.18714146 0.23096034
v 0.26683456 0.17580749 0.45497918
v 0.24031799 0.19027382 0.23096034
v 0.26192617 0.18223865 0.46497911
v 0.27016324 0.17043558 0.46041730
v 0.27811819 0.13499613 0.44497928
v 0.27518445 0.14499848 0.45497918
v 0.27078384 0.16498801 0.46157709
v 0.27157369 0.15498568 0.46291727
v -0.27415997 0.04511127 0.47647387
v -0.25937837 0.15498568 0.47966972
v -0.25356731 0.16498801 0.48155117
v -0.24499173 0.16498801 0.48420578
v -0.23494929 0.17499036 0.48500472
v -0.22496326 0.18499270 0.48366454
v -0.22496326 0.19109094 0.48090684
v -0.21497722 0.19563058 0.47497904
v -0.21497722 0.19867215 0.46497911
v -0.21497722 0.19908071 0.45497918
v -0.21497722 0.19883859 0.23096034
v 0.28246242 0.04511127 0.45500499
v 0.26181334 0.18173929 0.45497918
v 0.25126311 0.19069752 0.46497911
v 0.25628433 0.18724740 0.46497911
v 0.23715855 0.19205940 0.23096034
v 0.25081179 0.19047053 0.47080383
v 0.26079780 0.18116426 0.47093269
v 0.26198259 0.17499036 0.47222131
v 0.26813218 0.16498801 0.46657705
v 0.28054419 0.04511127 0.46098429
v 0.27196860 0.14499848 0.46358737
v 0.26869637 0.15498568 0.46791723
v -0.26964650 0.04511127 0.47982436
v -0.25977331 0.14787358 0.47990167
v -0.25435716 0.15498568 0.48186043
v -0.24499173 0.15498568 0.48477277
v -0.23494929 0.16498801 0.48613876
v -0.22496326 0.17499036 0.48621607
v -0.21497722 0.18499270 0.48436040
v -0.20499119 0.18499270 0.48495319
v -0.21497722 0.19148439 0.48129344
v -0.20499119 0.19177189 0.48157692
v -0.20499119 0.19603916 0.47497904
v -0.19494875 0.19632667 0.47497904
v -0.20499119 0.19894452 0.46497911
v -0.20499119 0.19938335 0.45497918
v -0.20499119 0.19926229 0.23096034
v 0.23495825 0.19326997 0.23096034
v 0.24494427 0.19319431 0.46497911
v 0.23495825 0.19611481 0.46497911
v 0.24494427 0.19163570 0.47289142
v 0.23930246 0.18968366 0.47972128
v 0.24494427 0.18753490 0.47789139
v 0.25385836 0.18409990 0.47420585
v 0.25024760 0.18036227 0.48015940
v 0.25628433 0.17499036 0.47722131
v 0.25763837 0.16498801 0.47838107
v 0.26311094 0.16498801 0.47338110
v 0.27794895 0.04511127 0.46603581
v 0.26909128 0.14499848 0.46858734
v 0.26373154 0.15498568 0.47389656
v -0.26682559 0.04511127 0.48106146
v -0.25588045 0.14472610 0.48165426
v -0.26485094 0.04511127 0.48186043
v -0.25497776 0.13499613 0.48232436
v -0.24499173 0.14499848 0.48508206
v -0.23494929 0.15498568 0.48662844
v -0.25497776 0.04511127 0.48523670
v -0.22496326 0.16498801 0.48732430
v -0.20499119 0.17499036 0.48750472
v -0.19494875 0.18499270 0.48539132
v -0.19494875 0.19196862 0.48178312
v -0.18496272 0.19641745 0.47497904
v -0.19494875 0.19912611 0.46497911
v -0.18496272 0.19204427 0.48188621
v -0.16499066 0.19216533 0.48204085
v -0.15494822 0.19221073 0.48211816
v -0.19494875 0.19959521 0.45497918
v -0.19494875 0.19961034 0.44497928
v -0.19494875 0.19956493 0.23096034
v 0.22903433 0.19541875 0.23096034
v 0.22497222 0.19687143 0.23096034
v 0.22497222 0.19771883 0.45497918
v 0.22497222 0.19771883 0.46497911
v 0.22497222 0.19513123 0.47497904
v 0.23557885 0.19284627 0.47582954
v 0.24494427 0.18254130 0.48119032
v 0.23264509 0.19066724 0.48059756
v 0.23557885 0.18580984 0.48242745
v 0.24494427 0.17499036 0.48338103
v 0.25131953 0.17499036 0.48075220
v 0.25831538 0.15498568 0.47889653
v 0.25261715 0.16498801 0.48149961
v 0.27292773 0.04511127 0.47376770
v 0.26863992 0.04511127 0.47871614
v -0.26552796 0.04511127 0.48160270
v -0.24487889 0.04511127 0.48747894
v -0.23494929 0.14499848 0.48688617
v -0.25486493 0.04511127 0.48526245
v -0.22496326 0.15498568 0.48781401
v -0.20499119 0.15498568 0.48912841
v -0.20499119 0.16498801 0.48861295
v -0.19494875 0.17499036 0.48794287
v -0.17497669 0.18499270 0.48577791
v -0.16499066 0.17499036 0.48861295
v -0.15494822 0.17499036 0.48881912
v -0.16499066 0.18499270 0.48595834
v -0.15494822 0.18499270 0.48613876
v -0.14496219 0.19225612 0.48216972
v -0.16499066 0.19653851 0.47497904
v -0.18496272 0.19918664 0.46497911
v -0.14496219 0.18499270 0.48626763
v -0.13497616 0.18499270 0.48634493
v -0.09497563 0.18499270 0.48665422
v -0.18496272 0.19965574 0.45497918
v -0.18496272 0.19970113 0.44497928
v -0.18496272 0.19970113 0.23096034
v -0.19094306 0.19962546 0.23096034
v 0.21899188 0.19773395 0.23096034
v 0.21498619 0.19830897 0.23096034
v 0.21498619 0.19868729 0.45497918
v 0.21498619 0.19847542 0.46497911
v 0.21498619 0.19594836 0.47497904
v 0.22497222 0.19134820 0.48126766
v 0.23495825 0.17499036 0.48603565
v 0.22497222 0.18499270 0.48459238
v 0.24494427 0.16498801 0.48482433
v 0.26356229 0.04511127 0.48237589
v 0.26858351 0.04511127 0.47876766
v 0.25329417 0.15498568 0.48186043
v 0.24494427 0.15498568 0.48552018
v -0.23466720 0.04511127 0.48917997
v -0.22496326 0.04511127 0.49041706
v -0.21661335 0.04511127 0.49147376
v -0.21576709 0.04511127 0.49152529
v -0.19494875 0.15498568 0.48959231
v -0.19494875 0.16498801 0.48905110
v -0.16499066 0.16636504 0.48969543
v -0.15494822 0.16772693 0.48979852
v -0.14496219 0.16861972 0.48987585
v -0.14496219 0.17499036 0.48897380
v -0.11494768 0.19231665 0.48227280
v -0.14496219 0.19664444 0.47497904
v -0.15494822 0.19659904 0.47497904
v -0.08498960 0.18499270 0.48670575
v -0.07494716 0.18499270 0.48675731
v -0.09497563 0.19675037 0.47497904
v -0.08498960 0.19676550 0.47497904
v -0.07494716 0.19678062 0.47497904
v -0.00498853 0.19684115 0.47497904
v -0.04498907 0.19920176 0.46497911
v -0.09497563 0.17579237 0.48930883
v -0.08498960 0.17604961 0.48933458
v -0.07494716 0.17620093 0.48936039
v -0.06496112 0.17630686 0.48938614
v 0.17498566 0.19965574 0.45497918
v 0.17498566 0.19970113 0.44497928
v 0.17498566 0.19970113 0.23096034
v 0.20900585 0.19873267 0.23096034
v 0.20494375 0.19902018 0.23096034
v 0.20494375 0.19918664 0.45497918
v 0.20494375 0.19883859 0.46497911
v 0.20494375 0.19632667 0.47497904
v 0.21498619 0.19186269 0.48175734
v 0.20494375 0.19208968 0.48201507
v 0.21498619 0.18499270 0.48552018
v 0.23495825 0.16498801 0.48735008
v 0.22497222 0.17499036 0.48745316
v 0.25498673 0.04511127 0.48675731
v 0.23495825 0.15498568 0.48799440
v 0.24494427 0.14499848 0.48595834
v -0.19494875 0.04511127 0.49232426
v -0.17125309 0.16040298 0.49003047
v -0.19122514 0.14135163 0.49003047
v -0.17497669 0.14499848 0.49036551
v -0.16499066 0.15498568 0.49036551
v -0.18496272 0.16498801 0.48930883
v -0.16499066 0.16137144 0.49010777
v -0.15494822 0.16273333 0.49021089
v -0.14496219 0.16362613 0.49028820
v -0.09497563 0.16498801 0.49067479
v -0.13497616 0.16919476 0.48992738
v -0.12019458 0.17001188 0.48997891
v -0.09497563 0.17079875 0.49010777
v -0.08498960 0.17105600 0.49015933
v -0.08498960 0.19237718 0.48235011
v -0.06496112 0.19239232 0.48240167
v -0.03494662 0.17665489 0.48943770
v -0.00498853 0.17695753 0.48948926
v -0.02496059 0.18499270 0.48691195
v -0.04498907 0.19240744 0.48242745
v -0.00498853 0.19243771 0.48247898
v 0.08499856 0.19684115 0.47497904
v 0.17498566 0.19920176 0.46497911
v -0.07494716 0.17120732 0.49018511
v -0.06496112 0.17131326 0.49021089
v -0.02496059 0.17176720 0.49028820
v 0.18497169 0.19915637 0.46497911
v 0.18497169 0.19959521 0.45497918
v 0.18497169 0.19961034 0.44497928
v 0.18497169 0.19961034 0.23096034
v 0.19901982 0.19923204 0.23096034
v 0.19495772 0.19936822 0.23096034
v 0.18903379 0.19951954 0.23096034
v 0.19495772 0.19941363 0.45497918
v 0.19495772 0.19902018 0.46497911
v 0.19495772 0.19655365 0.47497904
v 0.19495772 0.19224098 0.48216972
v 0.20494375 0.18499270 0.48598412
v 0.19495772 0.18499270 0.48631915
v 0.21498619 0.17499036 0.48832947
v 0.22497222 0.16498801 0.48871607
v 0.24748309 0.04511127 0.48936039
v 0.22418237 0.15487975 0.48943770
v 0.23495825 0.14499848 0.48835522
v 0.24246188 0.04511127 0.49057171
v -0.17497669 0.04511127 0.49283972
v -0.15494822 0.15498568 0.49057171
v -0.16499066 0.14499848 0.49062324
v -0.15494822 0.14499848 0.49085522
v -0.14496219 0.15498568 0.49072635
v -0.10496166 0.15498568 0.49116448
v -0.09497563 0.15498568 0.49126756
v -0.08498960 0.16498801 0.49075210
v -0.06496112 0.16498801 0.49085522
v -0.01497456 0.16498801 0.49106139
v -0.00498853 0.18499270 0.48696348
v -0.00498853 0.17196393 0.49031398
v 0.00499750 0.17698780 0.48948926
v 0.07495611 0.19243771 0.48247898
v 0.14497115 0.19681090 0.47497904
v 0.16499962 0.19678062 0.47497904
v 0.17498566 0.19676550 0.47497904
v -0.00498853 0.16498801 0.49108717
v 0.18497169 0.19672009 0.47497904
v 0.18497169 0.19233179 0.48229858
v 0.18497169 0.18499270 0.48655111
v 0.20494375 0.17499036 0.48871607
v 0.18497169 0.17535353 0.48923153
v 0.20494375 0.16721244 0.48974699
v 0.21498619 0.16445839 0.48961812
v 0.19044425 0.17010269 0.49000472
v 0.21837129 0.15814829 0.48992738
v 0.22034591 0.15147503 0.49003047
v 0.22621343 0.14499848 0.48951501
v 0.23495825 0.04511127 0.49173149
v -0.16499066 0.04511127 0.49304593
v -0.14496219 0.14499848 0.49100983
v -0.11494768 0.14499848 0.49134490
v -0.09497563 0.14499848 0.49155107
v -0.08498960 0.15498568 0.49134490
v -0.06496112 0.15498568 0.49144799
v -0.03494662 0.15498568 0.49157685
v -0.01497456 0.15498568 0.49165416
v 0.03495558 0.17700294 0.48948926
v 0.07495611 0.18499270 0.48696348
v 0.01498352 0.17199419 0.49031398
v 0.13498512 0.19240744 0.48242745
v 0.09498459 0.19243771 0.48245323
v 0.12499909 0.19242257 0.48242745
v 0.17498566 0.19237718 0.48235011
v 0.14497115 0.19240744 0.48240167
v -0.00498853 0.15498568 0.49167994
v 0.05498406 0.15498568 0.49170572
v 0.07495611 0.16498801 0.49108717
v 0.05498406 0.17200932 0.49031398
v 0.17498566 0.18499270 0.48665422
v 0.16499962 0.17591342 0.48933458
v 0.17498566 0.17568643 0.48928306
v 0.19428070 0.17405216 0.48923153
v 0.18497169 0.17035992 0.49005625
v 0.20494375 0.16220370 0.49018511
v 0.21165751 0.16076615 0.49005625
v 0.19428070 0.16529065 0.49028820
v 0.18497169 0.16498801 0.49052018
v 0.19495772 0.15498568 0.49088097
v 0.20494375 0.15498568 0.49052018
v 0.21498619 0.14499848 0.49049437
v 0.21498619 0.04511127 0.49330366
v 0.22497222 0.04511127 0.49273664
v -0.15494822 0.04511127 0.49317479
v -0.08498960 0.04511127 0.49381912
v -0.08498960 0.13499613 0.49186036
v -0.08498960 0.14499848 0.49162841
v -0.07494716 0.14499848 0.49170572
v -0.04498907 0.14499848 0.49183458
v -0.01497456 0.14499848 0.49196345
v 0.06497008 0.17700294 0.48948926
v 0.07495611 0.17697267 0.48948926
v 0.09498459 0.18499270 0.48693770
v 0.12499909 0.18499270 0.48686039
v 0.14497115 0.18499270 0.48680884
v 0.16499962 0.18499270 0.48670575
v -0.00498853 0.14499848 0.49198920
v 0.06497008 0.14499848 0.49201500
v 0.06497008 0.15498568 0.49170572
v 0.08499856 0.16498801 0.49106139
v 0.13498512 0.17146456 0.49023664
v 0.11495665 0.17166129 0.49026245
v 0.09498459 0.17182773 0.49028820
v 0.07495611 0.17197907 0.49031398
v 0.06497008 0.17200932 0.49031398
v 0.13498512 0.17647330 0.48941192
v 0.14497115 0.17632198 0.48938614
v 0.15495718 0.17612527 0.48936039
v 0.14497115 0.17132838 0.49021089
v 0.17498566 0.17067769 0.49010777
v 0.17498566 0.16498801 0.49062324
v 0.18497169 0.15498568 0.49111295
v 0.19495772 0.14499848 0.49121603
v 0.20494375 0.04511127 0.49358714
v -0.04498907 0.04511127 0.49402529
v -0.01497456 0.04511127 0.49415416
v 0.09498459 0.17682135 0.48946345
v 0.11495665 0.17665489 0.48943770
v 0.00499750 0.04511127 0.49420571
v 0.00499750 0.13499613 0.49222118
v 0.06508292 0.04511127 0.49425724
v 0.08505498 0.04511127 0.49423146
v 0.13509797 0.04511127 0.49415416
v 0.08499856 0.14499848 0.49196345
v 0.08499856 0.15498568 0.49165416
v 0.09498459 0.16498801 0.49103561
v 0.13498512 0.16498801 0.49090675
v 0.14497115 0.16498801 0.49085522
v 0.16499962 0.16498801 0.49070057
v 0.17498566 0.15498568 0.49121603
v 0.18497169 0.14499848 0.49144799
v 0.19507055 0.04511127 0.49384487
v 0.15507002 0.04511127 0.49410260
v 0.10497062 0.14499848 0.49191189
v 0.10497062 0.15498568 0.49160263
v 0.13498512 0.15498568 0.49149954
v 0.14497115 0.15498568 0.49144799
v 0.16499962 0.15498568 0.49129334
v 0.16499962 0.14499848 0.49160263
v 0.17498566 0.13499613 0.49178302
v 0.18508452 0.04511127 0.49399951
v 0.13498512 0.14499848 0.49180880
v 0.14497115 0.14499848 0.49175727
f 1 2 3
f 1 3 7
f 1 7 6
f 1 6 11
f 1 11 15
f 1 15 20
f 1 20 28
f 1 28 44
f 1 44 62
f 1 62 81
f 1 81 89
f 1 89 88
f 1 88 108
f 1 108 129
f 1 129 128
f 1 128 151
f 1 151 173
f 1 173 200
f 1 200 233
f 1 233 271
f 1 271 270
f 1 270 311
f 1 311 354
f 1 354 357
f 1 357 356
f 1 356 355
f 1 355 313
f 1 313 312
f 1 312 273
f 1 273 272
f 1 272 235
f 1 235 234
f 1 234 201
f 1 201 178
f 1 178 156
f 1 156 154
f 1 154 131
f 1 131 111
f 1 111 92
f 1 92 75
f 1 75 59
f 1 59 43
f 1 43 26
f 1 26 18
f 1 18 16
f 1 16 12
f 1 12 8
f 1 8 4
f 1 4 9
f 1 9 13
f 1 13 17
f 1 17 22
f 1 22 34
f 1 34 52
f 1 52 40
f 1 40 39
f 1 39 38
f 1 38 58
f 1 58 74
f 1 74 91
f 1 91 109
f 1 109 130
f 1 130 152
f 1 152 174
f 1 174 183
f 1 183 212
f 1 212 247
f 1 247 248
f 1 248 282
f 1 282 281
f 1 281 322
f 1 322 366
f 1 366 369
f 1 369 399
f 1 399 433
f 1 433 432
f 1 432 464
f 1 464 482
f 1 482 491
f 1 491 483
f 1 483 473
f 1 473 472
f 1 472 471
f 1 471 469
f 1 469 466
f 1 466 465
f 1 465 435
f 1 435 434
f 1 434 400
f 1 400 370
f 1 370 325
f 1 325 288
f 1 288 287
f 1 287 286
f 1 286 285
f 1 285 250
f 1 250 252
f 1 252 221
f 1 221 217
f 1 217 249
f 1 249 215
f 1 215 186
f 1 186 163
f 1 163 139
f 1 139 116
f 1 116 102
f 1 102 101
f 1 101 99
f 1 99 98
f 1 98 90
f 1 90 70
f 1 70 68
f 1 68 48
f 1 48 46
f 1 46 29
f 1 29 27
f 1 27 19
f 1 19 14
f 1 14 10
f 1 10 5
f 1 5 2
f 2 5 6
f 2 6 7
f 2 7 3
f 4 8 9
f 5 10 11
f 5 11 6
f 8 12 13
f 8 13 9
f 10 14 11
f 11 14 15
f 12 16 13
f 13 16 18
f 13 18 17
f 14 19 15
f 15 19 20
f 17 21 22
f 17 18 21
f 18 23 24
f 18 24 25
f 18 25 21
f 18 26 23
f 19 27 20
f 20 27 29
f 20 29 30
f 20 30 31
f 20 31 32
f 20 32 28
f 21 25 33
f 21 33 22
f 22 33 34
f 23 35 36
f 23 36 37
f 23 37 38
f 23 38 39
f 23 39 40
f 23 40 41
f 23 41 42
f 23 42 25
f 23 25 24
f 23 26 43
f 23 43 35
f 25 42 33
f 28 32 45
f 28 45 44
f 29 46 31
f 29 31 30
f 31 46 47
f 31 47 32
f 32 47 46
f 32 46 48
f 32 48 49
f 32 49 50
f 32 50 45
f 33 42 51
f 33 51 34
f 34 51 52
f 35 53 54
f 35 54 55
f 35 55 36
f 35 43 53
f 36 55 54
f 36 54 56
f 36 56 57
f 36 57 37
f 37 57 38
f 38 57 58
f 40 52 41
f 41 52 42
f 42 52 51
f 43 59 60
f 43 60 61
f 43 61 54
f 43 54 53
f 44 45 63
f 44 63 64
f 44 64 65
f 44 65 66
f 44 66 67
f 44 67 62
f 45 50 63
f 48 68 49
f 49 68 50
f 50 69 63
f 50 68 70
f 50 70 69
f 54 61 56
f 56 71 72
f 56 72 57
f 56 61 73
f 56 73 71
f 57 72 74
f 57 74 58
f 59 75 60
f 60 76 77
f 60 77 78
f 60 78 79
f 60 79 80
f 60 80 71
f 60 71 73
f 60 73 61
f 60 75 76
f 62 67 81
f 63 69 82
f 63 82 64
f 64 82 83
f 64 83 65
f 65 83 84
f 65 84 85
f 65 85 86
f 65 86 67
f 65 67 66
f 67 86 87
f 67 87 88
f 67 88 89
f 67 89 81
f 69 70 90
f 69 90 82
f 71 79 72
f 71 80 79
f 72 79 74
f 74 79 91
f 75 92 93
f 75 93 94
f 75 94 76
f 76 94 77
f 77 95 78
f 77 94 114
f 77 114 96
f 77 96 95
f 78 97 79
f 78 95 97
f 79 97 91
f 82 90 98
f 82 98 99
f 82 99 83
f 83 100 84
f 83 99 101
f 83 101 102
f 83 102 100
f 84 100 103
f 84 103 85
f 85 103 104
f 85 104 86
f 86 104 105
f 86 105 87
f 87 105 106
f 87 106 107
f 87 107 88
f 88 107 108
f 91 97 110
f 91 110 109
f 92 111 93
f 93 112 113
f 93 113 114
f 93 114 94
f 93 111 112
f 95 96 114
f 95 114 115
f 95 115 110
f 95 110 97
f 100 102 116
f 100 116 103
f 103 116 117
f 103 117 118
f 103 118 119
f 103 119 104
f 104 119 105
f 105 119 120
f 105 120 121
f 105 121 122
f 105 122 106
f 106 122 123
f 106 123 124
f 106 124 125
f 106 125 126
f 106 126 127
f 106 127 107
f 107 127 128
f 107 128 129
f 107 129 108
f 109 110 115
f 109 115 130
f 111 131 132
f 111 132 112
f 112 132 133
f 112 133 113
f 113 134 114
f 113 133 135
f 113 135 136
f 113 136 134
f 114 134 137
f 114 137 115
f 115 137 138
f 115 138 130
f 116 139 117
f 117 140 118
f 117 139 140
f 118 141 120
f 118 120 119
f 118 140 141
f 120 141 142
f 120 142 121
f 121 142 143
f 121 143 144
f 121 144 124
f 121 124 123
f 121 123 122
f 124 145 146
f 124 146 147
f 124 147 125
f 124 144 145
f 125 147 126
f 126 148 149
f 126 149 150
f 126 150 128
f 126 128 127
f 126 147 148
f 128 150 151
f 130 138 153
f 130 153 152
f 131 154 132
f 132 155 133
f 132 154 156
f 132 156 155
f 133 155 157
f 133 157 158
f 133 158 135
f 134 159 153
f 134 153 138
f 134 138 137
f 134 136 160
f 134 160 159
f 135 158 136
f 136 158 161
f 136 161 162
f 136 162 160
f 139 163 164
f 139 164 140
f 140 164 141
f 141 165 142
f 141 164 165
f 142 165 166
f 142 166 143
f 143 166 167
f 143 167 144
f 144 167 145
f 145 167 168
f 145 168 146
f 146 168 169
f 146 169 148
f 146 148 147
f 148 169 170
f 148 170 149
f 149 170 171
f 149 171 172
f 149 172 150
f 150 173 151
f 150 172 173
f 152 153 159
f 152 159 160
f 152 160 174
f 155 175 157
f 155 156 175
f 156 176 177
f 156 177 157
f 156 157 175
f 156 178 176
f 157 177 179
f 157 179 180
f 157 180 158
f 158 180 181
f 158 181 182
f 158 182 161
f 160 162 183
f 160 183 174
f 161 182 162
f 162 184 183
f 162 182 185
f 162 185 213
f 162 213 184
f 163 186 187
f 163 187 164
f 164 187 188
f 164 188 165
f 165 188 189
f 165 189 166
f 166 189 190
f 166 190 167
f 167 190 191
f 167 191 168
f 168 191 192
f 168 192 169
f 169 192 193
f 169 193 194
f 169 194 170
f 170 194 195
f 170 195 196
f 170 196 171
f 171 196 197
f 171 197 198
f 171 198 199
f 171 199 172
f 172 199 200
f 172 200 173
f 176 178 201
f 176 201 202
f 176 202 179
f 176 179 177
f 179 202 203
f 179 203 204
f 179 204 205
f 179 205 206
f 179 206 207
f 179 207 180
f 180 207 208
f 180 208 209
f 180 209 181
f 181 209 210
f 181 210 211
f 181 211 182
f 182 211 185
f 183 184 212
f 184 213 212
f 185 211 214
f 185 214 213
f 186 215 187
f 187 216 188
f 187 215 216
f 188 216 217
f 188 217 218
f 188 218 189
f 189 219 220
f 189 220 190
f 189 218 221
f 189 221 219
f 190 220 253
f 190 253 222
f 190 222 191
f 191 222 255
f 191 255 223
f 191 223 192
f 192 223 193
f 193 223 256
f 193 256 224
f 193 224 194
f 194 224 195
f 195 224 225
f 195 225 196
f 196 225 197
f 197 226 227
f 197 227 198
f 197 225 228
f 197 228 229
f 197 229 230
f 197 230 226
f 198 227 231
f 198 231 199
f 199 231 232
f 199 232 233
f 199 233 200
f 201 234 202
f 202 234 235
f 202 235 203
f 203 235 236
f 203 236 237
f 203 237 238
f 203 238 239
f 203 239 204
f 204 239 205
f 205 240 208
f 205 208 206
f 205 239 241
f 205 241 242
f 205 242 240
f 206 208 207
f 208 240 243
f 208 243 244
f 208 244 209
f 209 244 210
f 210 245 211
f 210 244 246
f 210 246 245
f 211 245 214
f 212 213 247
f 213 214 247
f 214 245 248
f 214 248 247
f 215 249 216
f 216 249 217
f 217 221 218
f 219 250 251
f 219 251 220
f 219 221 252
f 219 252 250
f 220 251 253
f 222 253 254
f 222 254 255
f 223 255 290
f 223 290 256
f 224 257 225
f 224 256 258
f 224 258 259
f 224 259 257
f 225 257 260
f 225 260 261
f 225 261 228
f 226 230 262
f 226 262 263
f 226 263 264
f 226 264 227
f 227 264 268
f 227 268 231
f 228 261 265
f 228 265 229
f 229 265 230
f 230 265 266
f 230 266 267
f 230 267 262
f 231 268 269
f 231 269 232
f 232 269 270
f 232 270 271
f 232 271 233
f 235 272 236
f 236 272 273
f 236 273 274
f 236 274 237
f 237 274 275
f 237 275 276
f 237 276 238
f 238 277 241
f 238 241 239
f 238 276 277
f 240 242 278
f 240 278 243
f 241 277 279
f 241 279 242
f 242 279 278
f 243 280 244
f 243 278 280
f 244 280 246
f 245 281 282
f 245 282 248
f 245 246 283
f 245 283 281
f 246 280 284
f 246 284 283
f 250 285 251
f 251 285 286
f 251 286 287
f 251 287 253
f 253 287 254
f 254 287 288
f 254 288 289
f 254 289 255
f 255 289 290
f 256 290 291
f 256 291 292
f 256 292 258
f 257 259 260
f 258 292 259
f 259 261 260
f 259 292 293
f 259 293 294
f 259 294 261
f 261 294 265
f 262 295 296
f 262 296 297
f 262 297 263
f 262 267 298
f 262 298 299
f 262 299 295
f 263 297 264
f 264 297 296
f 264 296 300
f 264 300 301
f 264 301 302
f 264 302 303
f 264 303 304
f 264 304 268
f 265 294 305
f 265 305 306
f 265 306 266
f 266 306 267
f 267 306 307
f 267 307 308
f 267 308 298
f 268 304 347
f 268 347 309
f 268 309 310
f 268 310 269
f 269 310 311
f 269 311 270
f 273 312 274
f 274 312 313
f 274 313 314
f 274 314 275
f 275 314 315
f 275 315 316
f 275 316 276
f 276 317 277
f 276 316 318
f 276 318 317
f 277 317 319
f 277 319 279
f 278 320 280
f 278 279 321
f 278 321 320
f 279 319 321
f 280 320 284
f 281 283 322
f 283 284 322
f 284 320 323
f 284 323 324
f 284 324 322
f 288 325 289
f 289 326 290
f 289 325 327
f 289 327 328
f 289 328 372
f 289 372 329
f 289 329 326
f 290 326 330
f 290 330 291
f 291 331 332
f 291 332 292
f 291 330 331
f 292 332 333
f 292 333 293
f 293 333 334
f 293 334 335
f 293 335 294
f 294 335 336
f 294 336 337
f 294 337 338
f 294 338 305
f 295 299 339
f 295 339 296
f 296 339 340
f 296 340 300
f 298 308 341
f 298 341 299
f 299 341 342
f 299 342 343
f 299 343 339
f 300 340 344
f 300 344 345
f 300 345 301
f 301 345 302
f 302 345 303
f 303 345 383
f 303 383 346
f 303 346 347
f 303 347 304
f 305 338 306
f 306 338 348
f 306 348 307
f 307 348 349
f 307 349 308
f 308 349 350
f 308 350 341
f 309 347 351
f 309 351 352
f 309 352 310
f 310 352 353
f 310 353 354
f 310 354 311
f 313 355 314
f 314 355 356
f 314 356 357
f 314 357 358
f 314 358 315
f 315 358 352
f 315 352 359
f 315 359 360
f 315 360 316
f 316 360 361
f 316 361 318
f 317 318 362
f 317 362 319
f 318 361 363
f 318 363 362
f 319 364 321
f 319 362 364
f 320 321 365
f 320 365 323
f 321 364 365
f 322 324 366
f 323 365 367
f 323 367 368
f 323 368 369
f 323 369 366
f 323 366 324
f 325 370 372
f 325 372 328
f 325 328 327
f 326 329 371
f 326 371 331
f 326 331 330
f 329 372 373
f 329 373 371
f 331 371 332
f 332 371 374
f 332 374 333
f 333 374 375
f 333 375 376
f 333 376 334
f 334 337 336
f 334 336 335
f 334 376 404
f 334 404 377
f 334 377 337
f 337 377 338
f 338 377 378
f 338 378 379
f 338 379 348
f 339 343 340
f 340 343 380
f 340 380 344
f 341 350 342
f 342 380 343
f 342 350 381
f 342 381 382
f 342 382 380
f 344 380 345
f 345 380 409
f 345 409 383
f 346 383 384
f 346 384 347
f 347 384 385
f 347 385 386
f 347 386 388
f 347 388 351
f 348 379 349
f 349 379 350
f 350 379 387
f 350 387 381
f 351 388 359
f 351 359 352
f 352 358 353
f 353 358 354
f 354 358 357
f 359 388 360
f 360 388 389
f 360 389 361
f 361 389 390
f 361 390 363
f 362 391 364
f 362 363 391
f 363 390 392
f 363 392 391
f 364 393 394
f 364 394 365
f 364 391 395
f 364 395 393
f 365 394 396
f 365 396 367
f 367 396 397
f 367 397 398
f 367 398 368
f 368 398 399
f 368 399 369
f 370 400 373
f 370 373 372
f 371 373 401
f 371 401 374
f 373 400 401
f 374 401 402
f 374 402 375
f 375 402 403
f 375 403 376
f 376 403 437
f 376 437 404
f 377 404 405
f 377 405 378
f 378 405 406
f 378 406 379
f 379 406 407
f 379 407 416
f 379 416 387
f 380 382 408
f 380 408 441
f 380 441 409
f 381 387 410
f 381 410 382
f 382 410 408
f 383 409 411
f 383 411 413
f 383 413 412
f 383 412 384
f 384 412 413
f 384 413 385
f 385 413 411
f 385 411 386
f 386 414 388
f 386 411 415
f 386 415 414
f 387 416 417
f 387 417 449
f 387 449 418
f 387 418 455
f 387 455 419
f 387 419 410
f 388 414 389
f 389 414 420
f 389 420 390
f 390 420 421
f 390 421 422
f 390 422 392
f 391 392 423
f 391 423 395
f 392 424 395
f 392 395 423
f 392 422 424
f 393 425 394
f 393 395 425
f 394 425 426
f 394 426 396
f 395 427 425
f 395 424 428
f 395 428 427
f 396 426 429
f 396 429 430
f 396 430 431
f 396 431 397
f 397 431 432
f 397 432 433
f 397 433 399
f 397 399 398
f 400 434 401
f 401 434 402
f 402 434 403
f 403 435 436
f 403 436 437
f 403 434 435
f 404 437 438
f 404 438 405
f 405 438 439
f 405 439 440
f 405 440 406
f 406 440 407
f 407 440 447
f 407 447 416
f 408 410 419
f 408 419 455
f 408 455 441
f 409 441 442
f 409 442 443
f 409 443 411
f 411 443 414
f 411 414 415
f 414 443 444
f 414 444 445
f 414 445 446
f 414 446 420
f 416 447 417
f 417 448 449
f 417 447 448
f 418 449 450
f 418 450 451
f 418 451 452
f 418 452 453
f 418 453 454
f 418 454 455
f 420 446 456
f 420 456 457
f 420 457 458
f 420 458 421
f 421 458 459
f 421 459 460
f 421 460 422
f 422 460 424
f 424 460 461
f 424 461 428
f 425 429 426
f 425 427 429
f 427 428 462
f 427 462 429
f 428 461 480
f 428 480 462
f 429 463 431
f 429 431 430
f 429 462 481
f 429 481 463
f 431 463 432
f 432 463 464
f 435 465 438
f 435 438 436
f 436 438 437
f 438 465 439
f 439 465 466
f 439 466 440
f 440 466 469
f 440 469 447
f 441 455 454
f 441 454 442
f 442 454 453
f 442 453 467
f 442 467 445
f 442 445 444
f 442 444 443
f 445 467 468
f 445 468 456
f 445 456 446
f 447 469 470
f 447 470 448
f 448 470 471
f 448 471 472
f 448 472 473
f 448 473 474
f 448 474 475
f 448 475 449
f 449 475 450
f 450 475 485
f 450 485 476
f 450 476 451
f 451 456 452
f 451 476 477
f 451 477 459
f 451 459 456
f 452 456 468
f 452 468 467
f 452 467 453
f 456 459 457
f 457 459 458
f 459 477 478
f 459 478 460
f 460 478 479
f 460 479 461
f 461 479 488
f 461 488 480
f 462 480 481
f 463 482 464
f 463 481 482
f 469 471 470
f 473 483 484
f 473 484 474
f 474 484 485
f 474 485 475
f 476 485 477
f 477 485 486
f 477 486 487
f 477 487 478
f 478 487 488
f 478 488 479
f 480 488 489
f 480 489 481
f 481 489 490
f 481 490 491
f 481 491 482
f 483 491 492
f 483 492 484
f 484 492 486
f 484 486 485
f 486 492 493
f 486 493 487
f 487 493 489
f 487 489 488
f 489 493 490
f 490 493 491
f 491 493 492

