# https://github.com/mikedh/trimesh
v 0.05500607 0.05766777 0.46485728
v 0.04501095 0.05503371 0.46485728
v 0.05500607 0.05744360 0.48499963
v 0.06498974 0.05762294 0.48499963
v 0.06498974 0.05747722 0.46485728
v 0.04501095 0.05428273 0.48499963
v 0.03695074 0.05159263 0.46485728
v 0.04530863 0.05198494 0.49485704
v 0.05500607 0.05441724 0.49499696
v 0.07499630 0.05316186 0.49387753
v 0.07499630 0.05626668 0.48499963
v 0.06517293 0.05746602 0.46485728
v 0.03796972 0.05096494 0.48499963
v 0.03883985 0.05053901 0.49142870
v 0.03197036 0.04900341 0.46485728
v 0.03296643 0.04848781 0.48499963
v 0.04885787 0.05058385 0.50033379
v 0.02813489 0.04153839 0.50110340
v 0.05500607 0.05071835 0.50036490
v 0.06453177 0.05328515 0.49568108
v 0.06089094 0.05037088 0.50015497
v 0.08499142 0.05204098 0.49282414
v 0.07499630 0.05613218 0.47500232
v 0.09150599 0.05086406 0.49140149
v 0.08499142 0.05392405 0.48499963
v 0.07514514 0.05594163 0.46485728
v 0.02668085 0.04283860 0.49499696
v 0.02411623 0.04344387 0.46485728
v 0.02593665 0.04348871 0.48499963
v 0.03500438 0.04251355 0.50139493
v 0.03500438 0.03499249 0.50300026
v 0.02168901 0.03767137 0.49499696
v 0.01939918 0.03123755 0.50058645
v 0.02488333 0.03474589 0.50175256
v 0.06194426 0.04499068 0.50026774
v 0.08499142 0.03499249 0.49802104
v 0.08499142 0.04499068 0.49681219
v 0.09490639 0.04499068 0.49307680
v 0.11148478 0.03167470 0.49149090
v 0.10140951 0.04166169 0.49123436
v 0.09697869 0.04747903 0.48499963
v 0.09198686 0.05114428 0.48499963
v 0.08500287 0.05326273 0.46485728
v 0.02093337 0.03881466 0.48499963
v 0.02378421 0.04308520 0.46485728
v 0.02014337 0.03982345 0.46848774
v 0.02045250 0.03944235 0.47500232
v 0.02500927 0.02499428 0.50324517
v 0.02500927 0.01499608 0.50411582
v 0.02500927 0.00499789 0.50444233
v 0.03500438 0.02499428 0.50321794
v 0.01764746 0.03381556 0.48499963
v 0.01849470 0.03267227 0.49499696
v 0.01773905 0.02499428 0.50141829
v 0.01426996 0.02499428 0.49499696
v 0.01077796 0.01847080 0.49499696
v 0.00953000 0.01166709 0.50067973
v 0.01455618 0.01499608 0.50218791
v 0.04501095 0.02499428 0.50225008
v 0.06289454 0.03499249 0.50032604
v 0.07499630 0.01499608 0.49931154
v 0.08499142 0.01499608 0.49826592
v 0.09499799 0.01499608 0.49721256
v 0.10499310 0.01499608 0.49606201
v 0.10499310 0.02499428 0.49566942
v 0.10484426 0.03500369 0.49282804
v 0.11202289 0.03240326 0.48499963
v 0.10723714 0.03740236 0.48499963
v 0.10224530 0.04247992 0.48499963
v 0.11325940 0.02499428 0.49250540
v 0.11628197 0.02499428 0.48499963
v 0.10209647 0.04217729 0.47500232
v 0.09641768 0.04717639 0.47500232
v 0.09087629 0.05058385 0.46485728
v 0.01720094 0.03586677 0.46485728
v 0.01500270 0.00499789 0.50356001
v 0.02500927 -0.01499851 0.50456673
v 0.03500438 -0.01499851 0.50365329
v 0.03500438 0.00499789 0.50346673
v 0.01718949 0.03444325 0.47500232
v 0.01178549 0.02677647 0.46485728
v 0.01218621 0.02592461 0.47500232
v 0.01218621 0.02419846 0.48524064
v 0.01012536 0.01962529 0.48873505
v 0.00901479 0.01347170 0.49499696
v 0.00777828 0.00499789 0.49499696
v 0.00919798 0.00499789 0.50109953
v 0.04501095 0.01499608 0.50236672
v 0.05500607 0.01499608 0.50135994
v 0.06966099 0.00686975 0.49996454
v 0.08499142 0.00499789 0.49837863
v 0.07401168 0.00411239 0.49954087
v 0.09499799 -0.00498911 0.49741468
v 0.10499310 -0.00498911 0.49631464
v 0.11499967 -0.00498911 0.49400967
v 0.11154202 0.03197733 0.47500232
v 0.10708830 0.03697643 0.47500232
v 0.12068990 0.00221812 0.49084568
v 0.11881224 0.01499608 0.48499963
v 0.11857180 0.01499608 0.47500232
v 0.11549199 0.02499428 0.47500232
v 0.10154691 0.04160564 0.46485728
v 0.09579943 0.04668320 0.46485728
v 0.01588429 -0.01499851 0.50248718
v 0.02500927 -0.02499671 0.50412750
v 0.00940406 -0.00233263 0.50078470
v 0.04501095 -0.03499492 0.50279039
v 0.04501095 -0.01499851 0.50265431
v 0.04501095 -0.00498911 0.50257272
v 0.04501095 0.00499789 0.50247163
v 0.00892320 0.02179979 0.46485728
v 0.00981623 0.02034266 0.48207274
v 0.00635859 0.01499608 0.46485728
v 0.00453817 0.00499789 0.46485728
v 0.00666771 0.00499789 0.48499963
v 0.00732031 -0.00498911 0.48499963
v 0.00877436 -0.00540383 0.49523020
v 0.05500607 0.00499789 0.50146878
v 0.06579117 0.00411239 0.50038821
v 0.07001591 0.00021175 0.49999952
v 0.08499142 -0.01499851 0.49855745
v 0.09499799 -0.02499671 0.49757403
v 0.10499310 -0.01499851 0.49617863
v 0.11537749 -0.01480796 0.49258316
v 0.12048382 -0.01135567 0.49067464
v 0.12088454 -0.00498911 0.49114108
v 0.10499310 -0.02499671 0.49554893
v 0.11100391 0.03132723 0.46485728
v 0.10648149 0.03640479 0.46485728
v 0.12149134 -0.00498911 0.48499963
v 0.12094179 0.00388822 0.48499963
v 0.12059831 0.00311482 0.47500232
v 0.12023193 0.00118691 0.46776086
v 0.11746123 0.01499608 0.46485728
v 0.11436997 0.02499428 0.46485728
v 0.11432417 0.02508395 0.46485728
v 0.01726963 -0.02499671 0.50209850
v 0.02570767 -0.03466986 0.50161648
v 0.03592032 -0.04433180 0.50092465
v 0.03987028 -0.05007067 0.50007725
v 0.04501095 -0.04499311 0.50180697
v 0.01896411 -0.03111669 0.50105292
v 0.01080086 -0.01550291 0.49523020
v 0.01045739 -0.00900184 0.49871683
v 0.05500607 -0.02499671 0.50172144
v 0.07086316 -0.05021638 0.50011611
v 0.07137837 -0.04499311 0.50017053
v 0.07129823 -0.03499492 0.50014722
v 0.05500607 -0.01499851 0.50165147
v 0.05500607 -0.00498911 0.50156987
v 0.00453817 0.00480734 0.46485728
v 0.00512208 -0.00498911 0.46485728
v 0.00514498 -0.00516845 0.46485728
v 0.00679365 -0.01499851 0.46485728
v 0.01014826 -0.01917937 0.48871559
v 0.06498974 -0.00498911 0.50055534
v 0.07097764 -0.02499671 0.50010836
v 0.09499799 -0.03499492 0.49717757
v 0.11233202 -0.02499671 0.49203509
v 0.12052961 -0.01157985 0.48499963
v 0.11080927 -0.03140812 0.49105945
v 0.11467909 -0.02499671 0.48499963
v 0.11854891 -0.01657895 0.48499963
v 0.10513049 -0.03483799 0.49320120
v 0.12022048 -0.01075040 0.47770378
v 0.12062120 -0.00538141 0.47462529
v 0.12023193 -0.00229901 0.46776086
v 0.11963658 -0.00517965 0.46485728
v 0.11928165 0.00448228 0.46485728
v 0.01375474 -0.02499671 0.49499696
v 0.02838677 -0.04167532 0.49499696
v 0.03419150 -0.04667442 0.49499696
v 0.03327556 -0.04776167 0.48499963
v 0.03918333 -0.05044056 0.49499696
v 0.04501095 -0.05319791 0.48499963
v 0.04501095 -0.05193132 0.49499696
v 0.04501095 -0.05042935 0.50038433
v 0.05305971 -0.05049661 0.50043488
v 0.01810542 -0.03212547 0.49499696
v 0.02338349 -0.03712457 0.49499696
v 0.07451544 -0.05250297 0.49566165
v 0.08314811 -0.05167352 0.49277362
v 0.10187893 -0.04160807 0.49189517
v 0.06447452 -0.05263747 0.49595705
v 0.06498974 -0.01499851 0.50063699
v 0.00683945 -0.01517785 0.46485728
v 0.00979333 -0.02045717 0.48205331
v 0.11867484 -0.01444929 0.47462529
v 0.10761496 -0.03687798 0.48499963
v 0.11111841 -0.03187888 0.48499963
v 0.11419822 -0.02499671 0.47500232
v 0.11988845 -0.00896821 0.47103760
v 0.11754139 -0.01499851 0.46500111
v 0.11960223 -0.00549350 0.46485728
v 0.01209461 -0.02426814 0.48522899
v 0.01198012 -0.02624088 0.47500232
v 0.01136187 -0.02733934 0.46485728
v 0.02724185 -0.04276257 0.48499963
v 0.03198181 -0.04889376 0.46485728
v 0.03827884 -0.05091133 0.48499963
v 0.03689349 -0.05160627 0.46485728
v 0.04481632 -0.05410582 0.46485728
v 0.04501095 -0.05415066 0.46485728
v 0.05500607 -0.05524911 0.48499963
v 0.06498974 -0.05638120 0.48499963
v 0.05584186 -0.05233484 0.49595705
v 0.01751007 -0.03284283 0.48499963
v 0.02223857 -0.03784193 0.48499963
v 0.07499630 -0.05585439 0.48499963
v 0.08468229 -0.05245814 0.48499963
v 0.09499799 -0.04708914 0.48499963
v 0.10261168 -0.04228059 0.48499963
v 0.00876291 -0.02242991 0.46485728
v 0.10715699 -0.03626150 0.47500232
v 0.11076348 -0.03126240 0.47500232
v 0.10216516 -0.04196675 0.47500232
v 0.10169575 -0.04159686 0.46485728
v 0.11033987 -0.03056746 0.46667251
v 0.11024827 -0.03041054 0.46485728
v 0.11185115 -0.02746264 0.46485728
v 0.11242361 -0.02640902 0.46485728
v 0.11268694 -0.02591583 0.46485728
v 0.11683153 -0.01656774 0.46485728
v 0.11755283 -0.01485280 0.46485728
v 0.11751848 -0.01499851 0.46485728
v 0.01152216 -0.02755231 0.46485728
v 0.02115090 -0.03907490 0.46485728
v 0.02603969 -0.04381619 0.46485728
v 0.05482288 -0.05600010 0.46485728
v 0.05500607 -0.05602252 0.46485728
v 0.06479510 -0.05682954 0.46485728
v 0.06498974 -0.05684076 0.46485728
v 0.01642240 -0.03397492 0.46485728
v 0.02094482 -0.03886193 0.46485728
v 0.07499630 -0.05552933 0.46485728
v 0.08443041 -0.05230121 0.47500232
v 0.08943369 -0.04968958 0.47500232
v 0.08902153 -0.04948781 0.46485728
v 0.09499799 -0.04666322 0.47500232
v 0.09499799 -0.04610278 0.46485728
v 0.10734018 -0.03449052 0.46485728
v 0.10831336 -0.03313426 0.46485728
v 0.10159270 -0.04167532 0.46485728
v 0.08404114 -0.05217791 0.46485728
f 1 2 3
f 1 3 4
f 1 4 5
f 1 5 12
f 1 12 26
f 1 26 43
f 1 43 74
f 1 74 103
f 1 103 102
f 1 102 129
f 1 129 128
f 1 128 136
f 1 136 135
f 1 135 134
f 1 134 169
f 1 169 168
f 1 168 194
f 1 194 224
f 1 224 225
f 1 225 223
f 1 223 222
f 1 222 221
f 1 221 220
f 1 220 219
f 1 219 242
f 1 242 241
f 1 241 217
f 1 217 243
f 1 243 240
f 1 240 238
f 1 238 244
f 1 244 235
f 1 235 232
f 1 232 231
f 1 231 230
f 1 230 229
f 1 229 203
f 1 203 202
f 1 202 201
f 1 201 199
f 1 199 228
f 1 228 227
f 1 227 234
f 1 234 233
f 1 233 226
f 1 226 197
f 1 197 213
f 1 213 186
f 1 186 154
f 1 154 153
f 1 153 152
f 1 152 151
f 1 151 114
f 1 114 113
f 1 113 111
f 1 111 81
f 1 81 75
f 1 75 45
f 1 45 28
f 1 28 15
f 1 15 7
f 1 7 2
f 2 6 3
f 2 7 6
f 3 6 8
f 3 8 9
f 3 9 4
f 4 10 11
f 4 11 12
f 4 12 5
f 4 9 10
f 6 7 13
f 6 13 14
f 6 14 8
f 7 15 16
f 7 16 13
f 8 17 9
f 8 14 18
f 8 18 17
f 9 17 19
f 9 19 20
f 9 20 10
f 10 20 21
f 10 21 22
f 10 22 11
f 11 23 12
f 11 22 24
f 11 24 25
f 11 25 23
f 12 23 26
f 13 16 14
f 14 16 27
f 14 27 18
f 15 28 16
f 16 28 29
f 16 29 27
f 17 18 30
f 17 30 31
f 17 31 19
f 18 31 30
f 18 27 32
f 18 32 33
f 18 33 34
f 18 34 31
f 19 21 20
f 19 31 21
f 21 31 35
f 21 35 36
f 21 36 37
f 21 37 22
f 22 37 24
f 23 25 26
f 24 38 39
f 24 39 40
f 24 40 41
f 24 41 42
f 24 42 25
f 24 37 38
f 25 42 43
f 25 43 26
f 27 29 44
f 27 44 32
f 28 45 46
f 28 46 29
f 29 46 47
f 29 47 44
f 31 34 48
f 31 48 49
f 31 49 50
f 31 50 51
f 31 51 35
f 32 44 52
f 32 52 53
f 32 53 33
f 33 54 34
f 33 53 55
f 33 55 56
f 33 56 57
f 33 57 54
f 34 54 58
f 34 58 48
f 35 51 59
f 35 59 60
f 35 60 36
f 36 61 62
f 36 62 63
f 36 63 64
f 36 64 65
f 36 65 37
f 36 60 61
f 37 65 66
f 37 66 38
f 38 66 39
f 39 67 68
f 39 68 69
f 39 69 40
f 39 66 65
f 39 65 70
f 39 70 71
f 39 71 67
f 40 69 41
f 41 69 72
f 41 72 73
f 41 73 74
f 41 74 42
f 42 74 43
f 44 47 52
f 45 75 46
f 46 75 47
f 47 75 52
f 48 58 76
f 48 76 49
f 49 76 50
f 50 76 77
f 50 77 78
f 50 78 79
f 50 79 59
f 50 59 51
f 52 75 80
f 52 80 81
f 52 81 82
f 52 82 83
f 52 83 53
f 53 83 84
f 53 84 55
f 54 57 58
f 55 84 56
f 56 84 85
f 56 85 57
f 57 85 86
f 57 86 87
f 57 87 76
f 57 76 58
f 59 88 89
f 59 89 60
f 59 79 88
f 60 89 90
f 60 90 61
f 61 90 62
f 62 91 63
f 62 90 92
f 62 92 91
f 63 91 93
f 63 93 94
f 63 94 64
f 64 94 95
f 64 95 65
f 65 95 70
f 67 96 97
f 67 97 68
f 67 71 96
f 68 97 72
f 68 72 69
f 70 95 98
f 70 98 71
f 71 98 99
f 71 99 100
f 71 100 101
f 71 101 96
f 72 102 103
f 72 103 73
f 72 97 102
f 73 103 74
f 75 81 80
f 76 104 105
f 76 105 77
f 76 87 106
f 76 106 104
f 77 105 107
f 77 107 78
f 78 107 108
f 78 108 109
f 78 109 79
f 79 109 110
f 79 110 88
f 81 111 82
f 82 111 83
f 83 111 112
f 83 112 84
f 84 112 113
f 84 113 85
f 85 113 114
f 85 114 115
f 85 115 86
f 86 115 116
f 86 116 117
f 86 117 106
f 86 106 87
f 88 110 118
f 88 118 89
f 89 118 119
f 89 119 90
f 90 119 120
f 90 120 92
f 91 92 120
f 91 120 93
f 93 121 122
f 93 122 94
f 93 120 121
f 94 123 95
f 94 122 123
f 95 124 125
f 95 125 126
f 95 126 98
f 95 123 127
f 95 127 124
f 96 128 129
f 96 129 97
f 96 101 128
f 97 129 102
f 98 126 130
f 98 130 131
f 98 131 99
f 99 131 100
f 100 131 132
f 100 132 133
f 100 133 134
f 100 134 101
f 101 134 135
f 101 135 136
f 101 136 128
f 104 137 105
f 104 106 137
f 105 138 139
f 105 139 140
f 105 140 141
f 105 141 107
f 105 137 142
f 105 142 138
f 106 117 143
f 106 143 144
f 106 144 137
f 107 145 108
f 107 141 146
f 107 146 147
f 107 147 148
f 107 148 145
f 108 145 149
f 108 149 150
f 108 150 109
f 109 150 118
f 109 118 110
f 111 113 112
f 114 151 115
f 115 151 152
f 115 152 116
f 116 152 153
f 116 153 154
f 116 154 155
f 116 155 117
f 117 155 143
f 118 150 119
f 119 150 120
f 120 150 156
f 120 156 157
f 120 157 121
f 121 157 148
f 121 148 122
f 122 158 123
f 122 148 147
f 122 147 146
f 122 146 158
f 123 158 127
f 124 127 159
f 124 159 125
f 125 160 130
f 125 130 126
f 125 159 161
f 125 161 162
f 125 162 163
f 125 163 160
f 127 164 159
f 127 158 164
f 130 160 165
f 130 165 166
f 130 166 167
f 130 167 133
f 130 133 132
f 130 132 131
f 133 167 168
f 133 168 169
f 133 169 134
f 137 170 142
f 137 144 143
f 137 143 170
f 138 142 140
f 138 140 139
f 140 171 172
f 140 172 173
f 140 173 174
f 140 174 175
f 140 175 176
f 140 176 177
f 140 177 141
f 140 142 171
f 141 177 178
f 141 178 146
f 142 170 179
f 142 179 180
f 142 180 171
f 143 155 170
f 145 148 149
f 146 181 182
f 146 182 183
f 146 183 158
f 146 178 184
f 146 184 181
f 148 157 149
f 149 157 185
f 149 185 156
f 149 156 150
f 154 186 187
f 154 187 155
f 155 187 170
f 156 185 157
f 158 183 164
f 159 164 161
f 160 163 188
f 160 188 165
f 161 164 183
f 161 183 189
f 161 189 190
f 161 190 162
f 162 191 163
f 162 190 191
f 163 191 188
f 165 192 166
f 165 188 193
f 165 193 192
f 166 192 167
f 167 192 168
f 168 192 194
f 170 187 195
f 170 195 196
f 170 196 197
f 170 197 179
f 171 198 172
f 171 180 198
f 172 198 173
f 173 198 199
f 173 199 200
f 173 200 174
f 174 200 175
f 175 200 201
f 175 201 202
f 175 202 203
f 175 203 204
f 175 204 176
f 176 204 205
f 176 205 177
f 177 205 206
f 177 206 184
f 177 184 178
f 179 207 208
f 179 208 198
f 179 198 180
f 179 197 207
f 181 205 209
f 181 209 182
f 181 184 205
f 182 209 210
f 182 210 211
f 182 211 183
f 183 212 189
f 183 211 212
f 184 206 205
f 186 213 187
f 187 213 195
f 188 191 193
f 189 214 215
f 189 215 190
f 189 212 216
f 189 216 217
f 189 217 214
f 190 215 191
f 191 215 218
f 191 218 219
f 191 219 220
f 191 220 221
f 191 221 222
f 191 222 223
f 191 223 193
f 192 193 224
f 192 224 194
f 193 223 225
f 193 225 224
f 195 213 197
f 195 197 196
f 197 226 207
f 198 208 227
f 198 227 228
f 198 228 199
f 199 201 200
f 203 229 204
f 204 229 230
f 204 230 205
f 205 231 232
f 205 232 209
f 205 230 231
f 207 233 234
f 207 234 208
f 207 226 233
f 208 234 227
f 209 232 235
f 209 235 210
f 210 236 211
f 210 235 236
f 211 236 237
f 211 237 238
f 211 238 239
f 211 239 212
f 212 239 240
f 212 240 216
f 214 241 215
f 214 217 241
f 215 241 242
f 215 242 218
f 216 240 243
f 216 243 217
f 218 242 219
f 235 244 236
f 236 244 237
f 237 244 238
f 238 240 239

