# https://github.com/mikedh/trimesh
v -0.10526820 0.07875965 0.35212111
v -0.14499484 0.07875965 0.34641260
v -0.13500184 0.06499717 0.34741998
v -0.10526820 0.05458046 0.35136560
v -0.10526820 0.07875965 -0.50550002
v -0.15123466 0.07875965 0.34548917
v -0.15499447 0.05500204 0.34422994
v -0.11135551 0.04500307 0.35019031
v -0.10526820 0.04469264 0.35102978
v -0.10526820 0.03961075 -0.50550002
v -0.15499447 0.07875965 -0.50550002
v -0.15499447 0.07875965 0.34490153
v -0.15499447 0.07499997 0.34481758
v -0.16123429 0.07875965 0.34389412
v -0.16499409 0.05500204 0.34255096
v -0.15499447 0.03961075 0.34372625
v -0.15039252 0.03961075 0.34439784
v -0.12101696 0.03961075 0.34859526
v -0.10526820 0.04051905 0.35086188
v -0.15499447 0.03961075 -0.50550002
v -0.10526820 0.03961075 0.34632865
v -0.16499409 0.07875965 -0.50466055
v -0.16499409 0.07875965 0.34322256
v -0.16499409 0.07499997 0.34313861
v -0.16801123 0.03961075 0.34129173
v -0.16499409 0.03961075 0.34204727
v -0.10968448 0.03961075 0.35019031
v -0.10532788 0.03961075 0.35077795
v -0.10526820 0.03963758 0.35077795
v -0.16499409 0.03961075 -0.50466055
v -0.16799134 0.03961075 -0.50340128
v -0.17149916 0.07875965 -0.50189018
v -0.17110793 0.07875965 0.34112382
v -0.17084932 0.05500204 0.34078804
v -0.17065039 0.03961075 0.34053618
v -0.17149916 0.03961075 -0.50189018
v -0.17206943 0.07875965 -0.49928781
v -0.17261317 0.07875965 0.33499557
v -0.17247392 0.06499717 0.33499557
v -0.17235456 0.05500204 0.33499557
v -0.17222857 0.04500307 0.33499557
v -0.17215563 0.03961075 0.33499557
v -0.17145938 0.03961075 0.33759797
v -0.17072333 0.04500307 0.34062013
v -0.17219542 0.03961075 -0.49870017
v -0.17300442 0.07875965 -0.49492249
v -0.17287841 0.07875965 0.32869941
v -0.17300442 0.03961075 0.32492170
v -0.17264633 0.03961075 0.32953888
v -0.17300442 0.03961075 -0.49492249
v -0.17300442 0.07875965 0.32492170
f 1 2 3
f 1 3 4
f 1 4 9
f 1 9 19
f 1 19 29
f 1 29 21
f 1 21 10
f 1 10 5
f 1 5 11
f 1 11 22
f 1 22 32
f 1 32 37
f 1 37 46
f 1 46 51
f 1 51 47
f 1 47 38
f 1 38 33
f 1 33 23
f 1 23 14
f 1 14 12
f 1 12 6
f 1 6 2
f 2 6 7
f 2 7 3
f 3 8 4
f 3 7 8
f 4 8 9
f 5 10 20
f 5 20 11
f 6 12 13
f 6 13 7
f 7 13 14
f 7 14 15
f 7 15 26
f 7 26 16
f 7 16 17
f 7 17 8
f 8 18 19
f 8 19 9
f 8 17 18
f 10 21 28
f 10 28 27
f 10 27 18
f 10 18 17
f 10 17 16
f 10 16 26
f 10 26 25
f 10 25 35
f 10 35 43
f 10 43 42
f 10 42 49
f 10 49 48
f 10 48 50
f 10 50 45
f 10 45 36
f 10 36 31
f 10 31 30
f 10 30 20
f 11 20 30
f 11 30 22
f 12 14 13
f 14 23 24
f 14 24 15
f 15 25 26
f 15 24 25
f 18 27 19
f 19 28 29
f 19 27 28
f 21 29 28
f 22 31 32
f 22 30 31
f 23 33 34
f 23 34 35
f 23 35 24
f 24 35 25
f 31 36 32
f 32 36 37
f 33 38 39
f 33 39 40
f 33 40 41
f 33 41 42
f 33 42 34
f 34 42 43
f 34 43 44
f 34 44 35
f 35 44 43
f 36 45 37
f 37 45 46
f 38 47 48
f 38 48 49
f 38 49 39
f 39 49 40
f 40 49 41
f 41 49 42
f 45 50 46
f 46 50 48
f 46 48 51
f 47 51 48

