# https://github.com/mikedh/trimesh
v 0.06495152 0.07875965 -0.50550002
v 0.12397375 0.07875965 -0.50550002
v 0.06491683 0.07875965 -0.49983454
v 0.06491683 0.08500555 -0.50550002
v 0.12397375 0.15499292 -0.50550002
v 0.12397375 0.07875965 0.41302443
v 0.06491683 0.07875965 0.41320425
v 0.06491683 0.15499292 -0.50550002
v 0.12397375 0.15601699 -0.50541008
v 0.12397375 0.08184108 0.41140574
v 0.06491683 0.08211786 0.41131580
v 0.06491683 0.16504911 -0.50460070
v 0.12397375 0.16499376 -0.50460070
v 0.12397375 0.08719208 0.40834814
v 0.06491683 0.08721054 0.40834814
v 0.06491683 0.17149799 -0.50190288
v 0.12397375 0.17149799 -0.50190288
v 0.12397375 0.16565803 -0.50433093
v 0.12397375 0.09377012 0.40385175
v 0.06491683 0.09444360 0.40340215
v 0.06491683 0.17301103 -0.49497843
v 0.12397375 0.17301103 -0.49497843
v 0.12397375 0.09451741 0.40331221
v 0.12397375 0.09951783 0.39962512
v 0.06500355 0.09952706 0.39962512
v 0.06491683 0.09952706 0.39962512
v 0.06491683 0.17301103 0.32498491
v 0.12397375 0.17301103 0.32498491
v 0.06491683 0.10500722 0.39539856
v 0.12397375 0.16171858 0.35133380
v 0.06491683 0.17300180 0.33496696
v 0.12397375 0.17300180 0.33496696
v 0.06491683 0.11091176 0.39081222
v 0.12397375 0.16620234 0.34755683
v 0.06491683 0.16171858 0.35133380
v 0.06491683 0.17299257 0.33505684
v 0.12397375 0.17285419 0.33568633
v 0.12397375 0.16671899 0.34710723
v 0.06500355 0.16671899 0.34710723
v 0.06491683 0.16667286 0.34710723
v 0.06491683 0.17149799 0.34207124
v 0.12397375 0.17149799 0.34207124
v 0.12397375 0.17100902 0.34261084
f 1 2 6
f 1 6 7
f 1 7 3
f 1 3 4
f 1 4 8
f 1 8 5
f 1 5 2
f 2 5 9
f 2 9 13
f 2 13 18
f 2 18 17
f 2 17 22
f 2 22 28
f 2 28 32
f 2 32 37
f 2 37 42
f 2 42 43
f 2 43 38
f 2 38 34
f 2 34 30
f 2 30 24
f 2 24 23
f 2 23 19
f 2 19 14
f 2 14 10
f 2 10 6
f 3 7 11
f 3 11 15
f 3 15 20
f 3 20 26
f 3 26 29
f 3 29 33
f 3 33 35
f 3 35 40
f 3 40 41
f 3 41 36
f 3 36 31
f 3 31 27
f 3 27 21
f 3 21 16
f 3 16 12
f 3 12 8
f 3 8 4
f 5 8 9
f 6 10 7
f 7 10 11
f 8 12 9
f 9 12 13
f 10 14 11
f 11 14 15
f 12 16 17
f 12 17 18
f 12 18 13
f 14 19 15
f 15 19 20
f 16 21 22
f 16 22 17
f 19 23 20
f 20 23 24
f 20 24 25
f 20 25 26
f 21 27 28
f 21 28 22
f 24 29 25
f 24 30 29
f 25 29 26
f 27 31 32
f 27 32 28
f 29 30 33
f 30 34 35
f 30 35 33
f 31 36 32
f 32 36 37
f 34 38 39
f 34 39 35
f 35 39 40
f 36 41 42
f 36 42 37
f 38 43 39
f 39 43 41
f 39 41 40
f 41 43 42

