# https://github.com/mikedh/trimesh
v -0.10526820 0.03960693 -0.50550002
v -0.10526820 0.15499051 -0.50550002
v -0.05782038 0.03960693 -0.50550002
v -0.10526820 0.03960693 0.43526489
v -0.10526820 0.16499321 -0.50467122
v -0.05782038 0.15499051 -0.50550002
v -0.05782038 0.03960693 0.43526489
v -0.05782038 0.08331323 0.41463733
v -0.05782038 0.08446236 0.41399270
v -0.10526820 0.08219021 0.41113800
v -0.10526820 0.17149627 -0.50190860
v -0.05782038 0.16499321 -0.50467122
v -0.05782038 0.08952900 0.41012502
v -0.10526820 0.09938806 0.39971918
v -0.10526820 0.09451729 0.40331054
v -0.10526820 0.08706097 0.40837538
v -0.10526820 0.17301103 -0.49490994
v -0.05782038 0.17149627 -0.50190860
v -0.05782038 0.09575783 0.40515232
v -0.10526820 0.16154580 0.35146534
v -0.05782038 0.17301103 -0.49490994
v -0.10526820 0.17301103 0.32494420
v -0.05782038 0.16171557 0.35128117
v -0.05782038 0.16671690 0.34713727
v -0.10526820 0.16671690 0.34713727
v -0.05782038 0.17301103 0.32494420
v -0.10526820 0.17299798 0.33498174
v -0.05782038 0.17015126 0.34354585
v -0.10526820 0.17136568 0.34225661
v -0.05782038 0.17299798 0.33498174
v -0.10526820 0.17149627 0.34207243
v -0.05782038 0.17258011 0.33700764
v -0.05782038 0.17149627 0.34207243
f 1 2 6
f 1 6 3
f 1 3 7
f 1 7 4
f 1 4 10
f 1 10 16
f 1 16 15
f 1 15 14
f 1 14 20
f 1 20 25
f 1 25 29
f 1 29 31
f 1 31 27
f 1 27 22
f 1 22 17
f 1 17 11
f 1 11 5
f 1 5 2
f 2 5 12
f 2 12 6
f 3 6 12
f 3 12 18
f 3 18 21
f 3 21 26
f 3 26 30
f 3 30 32
f 3 32 33
f 3 33 28
f 3 28 24
f 3 24 23
f 3 23 19
f 3 19 13
f 3 13 9
f 3 9 8
f 3 8 7
f 4 7 8
f 4 8 9
f 4 9 10
f 5 11 18
f 5 18 12
f 9 13 14
f 9 14 15
f 9 15 16
f 9 16 10
f 11 17 21
f 11 21 18
f 13 19 20
f 13 20 14
f 17 22 26
f 17 26 21
f 19 23 20
f 20 23 24
f 20 24 25
f 22 27 30
f 22 30 26
f 24 28 25
f 25 28 29
f 27 31 32
f 27 32 30
f 28 33 29
f 29 33 31
f 31 33 32

