# https://github.com/mikedh/trimesh
v -0.15499447 0.07875965 -0.50550002
v -0.10526820 0.07875965 -0.50550002
v -0.16499409 0.07875965 -0.50460082
v -0.15499447 0.15499292 -0.50550002
v -0.10526820 0.15499292 -0.50550002
v -0.10526820 0.07875965 0.41311127
v -0.16499409 0.15499292 -0.50460082
v -0.16744095 0.07875965 -0.50361168
v -0.16499409 0.16499376 -0.50397140
v -0.15499447 0.16499376 -0.50460082
v -0.10526820 0.16516905 -0.50460082
v -0.10526820 0.08199792 0.41131294
v -0.15499447 0.07875965 0.41311127
v -0.17149916 0.15499292 -0.50190324
v -0.17128697 0.16499376 -0.50163352
v -0.17149916 0.07875965 -0.50190324
v -0.17071006 0.17071378 -0.50091416
v -0.16499409 0.17128579 -0.50163352
v -0.15499447 0.17149799 -0.50190324
v -0.10526820 0.17149799 -0.50190324
v -0.15499447 0.08719208 0.40834558
v -0.10526820 0.08719208 0.40834558
v -0.16499409 0.08184108 0.41095322
v -0.16499409 0.07875965 0.41248184
v -0.17206943 0.07875965 -0.49929559
v -0.17300442 0.15499292 -0.49497950
v -0.17257339 0.16499376 -0.49497950
v -0.17106815 0.17107360 -0.49497950
v -0.16499409 0.17257741 -0.49497950
v -0.15499447 0.17301103 -0.49497950
v -0.10526820 0.17154412 -0.50172341
v -0.15499447 0.09451741 0.40331012
v -0.16499409 0.08684149 0.40789598
v -0.10526820 0.09451741 0.40331012
v -0.17049125 0.08099230 0.41050363
v -0.17072996 0.07875965 0.41095322
v -0.17300442 0.07875965 -0.49497950
v -0.17300442 0.15499292 0.33497179
v -0.17257339 0.16499376 0.33497179
v -0.17106815 0.17107360 0.33497179
v -0.16499409 0.17257741 0.33497179
v -0.10526820 0.17301103 -0.49497950
v -0.15499447 0.17301103 0.32499081
v -0.15499447 0.09951783 0.39962345
v -0.16499409 0.09410225 0.40286052
v -0.10526820 0.09951783 0.39962345
v -0.17020610 0.11030286 0.39018196
v -0.17100184 0.09246005 0.40160167
v -0.17149916 0.08459961 0.40492868
v -0.17218879 0.07875965 0.40492868
v -0.17300442 0.07875965 0.32499081
v -0.17300442 0.14499210 0.34495276
v -0.17262644 0.15499292 0.34495276
v -0.17132676 0.16445866 0.34459311
v -0.17071006 0.17071378 0.34099633
v -0.16499409 0.17128579 0.34180564
v -0.15499447 0.17300180 0.33497179
v -0.10526820 0.17301103 0.32499081
v -0.15499447 0.11595831 0.38685495
v -0.16201012 0.15018626 0.36005914
v -0.16499409 0.11070880 0.39054167
v -0.10526820 0.11595831 0.38685495
v -0.17069679 0.12118015 0.38083041
v -0.16867433 0.14976186 0.35969949
v -0.17049125 0.16075909 0.35052776
v -0.17160526 0.12471365 0.37489575
v -0.17180419 0.09547690 0.39539725
v -0.17240761 0.10500722 0.38496667
v -0.17300442 0.08500555 0.39494765
v -0.17267948 0.07875965 0.39494765
v -0.17295137 0.12500888 0.36491477
v -0.17277896 0.11500805 0.37498569
v -0.17096868 0.13202053 0.37147886
v -0.16499409 0.16643299 0.34684110
v -0.15499447 0.17149799 0.34207535
v -0.15499447 0.16671899 0.34711081
v -0.10526820 0.17296490 0.33515161
v -0.10526820 0.17300180 0.33497179
v -0.10526820 0.13366273 0.37309736
v -0.10526820 0.16154328 0.35142696
v -0.15499447 0.14499210 0.36428535
v -0.15499447 0.15527892 0.35628253
v -0.15499447 0.16171858 0.35124707
v -0.16499409 0.16143258 0.35106725
v -0.10526820 0.17136882 0.34225523
v -0.10526820 0.17149799 0.34207535
v -0.10526820 0.16671899 0.34711081
f 1 2 6
f 1 6 13
f 1 13 24
f 1 24 36
f 1 36 50
f 1 50 70
f 1 70 51
f 1 51 37
f 1 37 25
f 1 25 16
f 1 16 8
f 1 8 3
f 1 3 7
f 1 7 4
f 1 4 5
f 1 5 2
f 2 5 11
f 2 11 20
f 2 20 31
f 2 31 42
f 2 42 58
f 2 58 78
f 2 78 77
f 2 77 86
f 2 86 85
f 2 85 87
f 2 87 80
f 2 80 79
f 2 79 62
f 2 62 46
f 2 46 34
f 2 34 22
f 2 22 12
f 2 12 6
f 3 8 7
f 4 7 9
f 4 9 10
f 4 10 11
f 4 11 5
f 6 12 13
f 7 8 14
f 7 14 15
f 7 15 9
f 8 16 14
f 9 15 17
f 9 17 18
f 9 18 10
f 10 18 19
f 10 19 11
f 11 19 20
f 12 21 13
f 12 22 21
f 13 23 24
f 13 21 23
f 14 16 25
f 14 25 26
f 14 26 15
f 15 26 27
f 15 27 17
f 17 27 28
f 17 28 29
f 17 29 18
f 18 29 30
f 18 30 19
f 19 30 31
f 19 31 20
f 21 32 33
f 21 33 23
f 21 22 34
f 21 34 32
f 23 33 35
f 23 35 24
f 24 35 36
f 25 37 26
f 26 37 51
f 26 51 69
f 26 69 52
f 26 52 38
f 26 38 39
f 26 39 27
f 27 39 40
f 27 40 28
f 28 40 41
f 28 41 29
f 29 41 43
f 29 43 30
f 30 42 31
f 30 43 58
f 30 58 42
f 32 44 45
f 32 45 33
f 32 34 46
f 32 46 44
f 33 45 35
f 35 45 47
f 35 47 48
f 35 48 49
f 35 49 36
f 36 49 50
f 38 52 53
f 38 53 39
f 39 53 54
f 39 54 55
f 39 55 40
f 40 55 41
f 41 55 56
f 41 56 57
f 41 57 43
f 43 57 78
f 43 78 58
f 44 59 60
f 44 60 61
f 44 61 45
f 44 46 62
f 44 62 59
f 45 61 47
f 47 63 48
f 47 61 64
f 47 64 65
f 47 65 63
f 48 63 66
f 48 66 49
f 49 66 67
f 49 67 50
f 50 67 68
f 50 68 69
f 50 69 70
f 51 70 69
f 52 69 71
f 52 71 53
f 53 71 72
f 53 72 66
f 53 66 54
f 54 65 55
f 54 66 73
f 54 73 65
f 55 65 74
f 55 74 56
f 56 75 57
f 56 74 76
f 56 76 75
f 57 75 77
f 57 77 78
f 59 62 79
f 59 79 80
f 59 80 81
f 59 81 60
f 60 81 82
f 60 82 83
f 60 83 84
f 60 84 61
f 61 84 64
f 63 73 66
f 63 65 73
f 64 84 65
f 65 84 74
f 66 72 68
f 66 68 67
f 68 72 69
f 69 72 71
f 74 84 76
f 75 76 85
f 75 85 86
f 75 86 77
f 76 84 83
f 76 83 80
f 76 80 87
f 76 87 85
f 80 83 82
f 80 82 81

