# https://github.com/mikedh/trimesh
v -0.14499480 0.07875965 0.38271108
v -0.15499938 0.07875965 0.38273165
v -0.10526820 0.07875965 0.38271108
v -0.10526820 0.03961075 0.40038165
v -0.16499732 0.07875965 0.38348788
v -0.10526820 0.07875965 0.41310856
v -0.10526820 0.03961075 0.43526492
v -0.16499732 0.03961075 0.40688914
v -0.16499732 0.06889098 0.38934720
v -0.17029464 0.06946969 0.38969699
v -0.17126262 0.07875965 0.38697052
v -0.15499938 0.07875965 0.41310856
v -0.14499480 0.03961075 0.43526492
v -0.17089134 0.03961075 0.40870506
v -0.17098415 0.05729003 0.39858115
v -0.17097090 0.07499997 0.38829261
v -0.17133555 0.04500307 0.40724409
v -0.17136869 0.06568319 0.39514992
v -0.17247589 0.07499997 0.39500073
v -0.17267479 0.07875965 0.39500073
v -0.16499732 0.07875965 0.41254783
v -0.16033648 0.03961075 0.43498713
v -0.15499938 0.03961075 0.43525463
v -0.15053080 0.03961075 0.43525976
v -0.17221069 0.03961075 0.41490906
v -0.17284717 0.04500307 0.41499650
v -0.17299303 0.06499717 0.40500119
v -0.17262837 0.07499997 0.40500119
v -0.17218417 0.07875965 0.40499604
v -0.17072558 0.07875965 0.41101485
v -0.17072558 0.06159392 0.42084038
v -0.16499732 0.03961075 0.43471962
v -0.17241623 0.03961075 0.42517185
v -0.17280076 0.05500204 0.41499650
v -0.17102394 0.03961075 0.43237382
v -0.17112339 0.07499997 0.41184306
v -0.17092448 0.04224367 0.43123180
f 1 2 5
f 1 5 11
f 1 11 20
f 1 20 29
f 1 29 30
f 1 30 21
f 1 21 12
f 1 12 6
f 1 6 3
f 1 3 4
f 1 4 2
f 2 4 5
f 3 6 7
f 3 7 4
f 4 7 13
f 4 13 24
f 4 24 23
f 4 23 22
f 4 22 32
f 4 32 35
f 4 35 33
f 4 33 25
f 4 25 14
f 4 14 8
f 4 8 9
f 4 9 5
f 5 9 10
f 5 10 11
f 6 12 13
f 6 13 7
f 8 14 10
f 8 10 9
f 10 14 15
f 10 15 16
f 10 16 11
f 11 15 17
f 11 17 18
f 11 18 19
f 11 19 20
f 11 16 15
f 12 21 22
f 12 22 23
f 12 23 24
f 12 24 13
f 14 25 17
f 14 17 15
f 17 25 19
f 17 19 18
f 19 25 26
f 19 26 27
f 19 27 20
f 20 27 28
f 20 28 29
f 21 30 31
f 21 31 32
f 21 32 22
f 25 33 26
f 26 34 27
f 26 33 34
f 27 34 28
f 28 34 35
f 28 35 29
f 29 35 36
f 29 36 30
f 30 36 31
f 31 36 37
f 31 37 32
f 32 37 35
f 33 35 34
f 35 37 36

