# https://github.com/mikedh/trimesh
v 0.17301103 -0.01849973 0.32489842
v 0.17301103 -0.15499607 0.32489842
v 0.17301103 -0.01849973 -0.49493402
v 0.17270620 -0.01848461 0.32726520
v 0.17260459 -0.01848461 0.32844859
v 0.17233361 -0.13504496 0.35803318
v 0.17257072 -0.13498446 0.35499018
v 0.17294329 -0.14498270 0.34493142
v 0.17301103 -0.15499607 -0.49493402
v 0.17294329 -0.15498093 0.33495718
v 0.17290942 -0.15729520 0.32726520
v 0.17257072 -0.16499430 0.32726520
v 0.17202878 -0.01849973 -0.49941397
v 0.17148685 -0.01849973 -0.50186527
v 0.16725303 -0.01849973 -0.50364035
v 0.16498370 -0.01849973 -0.50457013
v 0.15499187 -0.01849973 -0.50549996
v -0.17267233 -0.01848461 0.32726520
v 0.17175782 -0.01848461 0.33495718
v 0.17185943 -0.12534925 0.35803318
v 0.17148685 -0.14487682 0.35803318
v 0.17175782 -0.14584488 0.35583550
v 0.17257072 -0.15498093 0.34493142
v 0.17257072 -0.16499430 -0.49493402
v 0.17128363 -0.16499430 -0.50152713
v 0.17148685 -0.15499607 -0.50186527
v 0.17253685 -0.16497916 0.33495718
v 0.17104654 -0.17105979 0.32726520
v 0.16498370 -0.15499607 -0.50457013
v 0.15499187 -0.15499607 -0.50549996
v -0.15499187 -0.01849973 -0.50549996
v -0.16149503 -0.01849973 -0.50490826
v -0.16498370 -0.01849973 -0.50457013
v -0.17148685 -0.01849973 -0.50186527
v -0.17301103 -0.01849973 -0.49493402
v -0.17301103 -0.01849973 0.32489842
v -0.17175782 -0.01848461 0.33495718
v 0.17023364 -0.01848461 0.34019792
v 0.17097880 -0.11908712 0.35803318
v 0.17003042 -0.14800788 0.35803318
v 0.17043686 -0.16074392 0.35051024
v 0.17108041 -0.15498093 0.35270798
v 0.17128363 -0.16443464 0.34459335
v 0.17104654 -0.17105979 -0.49493402
v 0.17070784 -0.17071190 -0.50085092
v 0.16498370 -0.16499430 -0.50389391
v 0.17101267 -0.17104466 0.33495718
v 0.17067397 -0.17069677 0.34104317
v 0.16640626 -0.17222449 0.32726520
v -0.15499187 -0.15499607 -0.50549996
v 0.15499187 -0.16499430 -0.50457013
v -0.16498370 -0.15499607 -0.50457013
v -0.17148685 -0.15499607 -0.50186527
v -0.17301103 -0.15499607 -0.49493402
v -0.17294329 -0.14498270 0.34493142
v -0.17267233 -0.13194415 0.35803318
v -0.17301103 -0.15499607 0.32489842
v -0.17023364 -0.01848461 0.34019792
v 0.16833688 -0.01848461 0.34070504
v 0.05934129 -0.01848461 0.35803318
v 0.16494983 -0.01848461 0.34129673
v 0.16146116 -0.01848461 0.34188843
v 0.16664335 -0.15222801 0.35803318
v 0.16494983 -0.16140945 0.35110193
v 0.16494983 -0.16641614 0.34679103
v 0.16498370 -0.17255726 -0.49493402
v 0.16498370 -0.17127156 -0.50152713
v 0.16494983 -0.17255726 0.33495718
v 0.16494983 -0.17127156 0.34180391
v 0.16498370 -0.17255726 0.32726520
v -0.15499187 -0.16499430 -0.50457013
v -0.16498370 -0.16499430 -0.50389391
v 0.15499187 -0.17149845 -0.50186527
v -0.17128363 -0.16499430 -0.50152713
v -0.17257072 -0.16499430 -0.49493402
v -0.17294329 -0.15498093 0.33495718
v -0.17257072 -0.15498093 0.34493142
v -0.17152072 -0.12223332 0.35803318
v -0.17175782 -0.14336422 0.35803318
v -0.17257072 -0.16499430 0.32726520
v -0.17267233 -0.16268003 0.32726520
v -0.17253685 -0.16497916 0.33495718
v -0.16494983 -0.01848461 0.34129673
v -0.17097880 -0.11908712 0.35803318
v -0.17033525 -0.11830057 0.35803318
v -0.05957839 -0.01848461 0.35803318
v 0.16393371 -0.15260616 0.35803318
v 0.15495799 -0.16169685 0.35127097
v 0.15495799 -0.16670352 0.34712917
v 0.15807410 -0.15298432 0.35803318
v 0.15499187 -0.17301103 -0.49493402
v 0.15495799 -0.17298079 0.33495718
v 0.15499187 -0.17301103 0.32489842
v 0.15495799 -0.17148331 0.34205753
v -0.15499187 -0.17149845 -0.50186527
v -0.16498370 -0.17127156 -0.50152713
v -0.17070784 -0.17071190 -0.50085092
v -0.17104654 -0.17105979 -0.49493402
v -0.17141911 -0.16965309 0.32726520
v -0.17128363 -0.16443464 0.34459335
v -0.17148685 -0.14487682 0.35803318
v -0.17108041 -0.15498093 0.35270798
v -0.17101267 -0.17104466 0.33495718
v -0.17067397 -0.17069677 0.34104317
v -0.15495799 -0.16169685 0.35127097
v 0.15495799 -0.15307507 0.35803318
v -0.15495799 -0.16670352 0.34712917
v -0.15499187 -0.17301103 -0.49493402
v -0.15495799 -0.17298079 0.33495718
v -0.15499187 -0.17301103 0.32489842
v -0.15495799 -0.17148331 0.34205753
v -0.16498370 -0.17255726 -0.49493402
v -0.16965784 -0.17142281 0.32726520
v -0.17104654 -0.17105979 0.32726520
v -0.17043686 -0.16074392 0.35051024
v -0.16921753 -0.15103307 0.35803318
v -0.16494983 -0.17255726 0.33495718
v -0.16494983 -0.17127156 0.34180391
v -0.16494983 -0.16641614 0.34679103
v -0.16494983 -0.16140945 0.35110193
v -0.15495799 -0.15307507 0.35803318
v -0.16268049 -0.17267826 0.32726520
v -0.16498370 -0.17255726 0.32726520
v -0.16664335 -0.15222801 0.35803318
v -0.16393371 -0.15260616 0.35803318
f 1 2 9
f 1 9 3
f 1 3 4
f 1 4 5
f 1 5 6
f 1 6 7
f 1 7 8
f 1 8 2
f 2 8 10
f 2 10 11
f 2 11 12
f 2 12 24
f 2 24 9
f 3 9 13
f 3 13 4
f 4 13 14
f 4 14 15
f 4 15 16
f 4 16 17
f 4 17 31
f 4 31 18
f 4 18 37
f 4 37 58
f 4 58 83
f 4 83 86
f 4 86 60
f 4 60 62
f 4 62 61
f 4 61 59
f 4 59 38
f 4 38 19
f 4 19 5
f 5 19 6
f 6 19 20
f 6 20 39
f 6 39 60
f 6 60 86
f 6 86 85
f 6 85 84
f 6 84 78
f 6 78 56
f 6 56 79
f 6 79 101
f 6 101 116
f 6 116 124
f 6 124 125
f 6 125 121
f 6 121 106
f 6 106 90
f 6 90 87
f 6 87 63
f 6 63 40
f 6 40 21
f 6 21 22
f 6 22 23
f 6 23 7
f 7 23 8
f 8 23 10
f 9 24 25
f 9 25 26
f 9 26 13
f 10 23 27
f 10 27 11
f 11 27 12
f 12 27 47
f 12 47 28
f 12 28 44
f 12 44 24
f 13 26 14
f 14 26 15
f 15 26 29
f 15 29 16
f 16 29 30
f 16 30 17
f 17 30 50
f 17 50 31
f 18 31 32
f 18 32 33
f 18 33 34
f 18 34 35
f 18 35 36
f 18 36 37
f 19 38 20
f 20 38 39
f 21 40 41
f 21 41 42
f 21 42 23
f 21 23 22
f 23 43 27
f 23 42 43
f 24 44 45
f 24 45 25
f 25 45 46
f 25 46 29
f 25 29 26
f 27 43 48
f 27 48 47
f 28 49 44
f 28 47 49
f 29 46 30
f 30 46 51
f 30 51 71
f 30 71 50
f 31 50 32
f 32 50 52
f 32 52 33
f 33 52 53
f 33 53 34
f 34 53 54
f 34 54 35
f 35 54 57
f 35 57 36
f 36 55 56
f 36 56 37
f 36 57 55
f 37 56 58
f 38 59 39
f 39 59 61
f 39 61 62
f 39 62 60
f 40 63 41
f 41 63 64
f 41 64 65
f 41 65 48
f 41 48 43
f 41 43 42
f 44 66 45
f 44 49 66
f 45 67 46
f 45 66 67
f 46 67 51
f 47 48 68
f 47 68 49
f 48 69 68
f 48 65 69
f 49 68 70
f 49 70 66
f 50 71 72
f 50 72 52
f 51 67 73
f 51 73 95
f 51 95 71
f 52 72 74
f 52 74 53
f 53 74 54
f 54 75 80
f 54 80 57
f 54 74 75
f 55 76 77
f 55 77 56
f 55 57 76
f 56 78 58
f 56 77 79
f 57 80 81
f 57 81 82
f 57 82 76
f 58 78 84
f 58 84 85
f 58 85 83
f 63 87 64
f 64 88 89
f 64 89 65
f 64 87 90
f 64 90 88
f 65 89 69
f 66 91 67
f 66 70 93
f 66 93 91
f 67 91 73
f 68 69 92
f 68 92 93
f 68 93 70
f 69 94 92
f 69 89 94
f 71 95 96
f 71 96 72
f 72 96 97
f 72 97 74
f 73 91 108
f 73 108 95
f 74 97 75
f 75 97 98
f 75 98 99
f 75 99 80
f 76 82 77
f 77 82 100
f 77 100 79
f 79 100 102
f 79 102 101
f 80 99 82
f 80 82 81
f 82 103 104
f 82 104 100
f 82 99 103
f 83 85 86
f 88 105 107
f 88 107 89
f 88 90 106
f 88 106 121
f 88 121 105
f 89 107 111
f 89 111 94
f 91 93 110
f 91 110 108
f 92 94 111
f 92 111 109
f 92 109 110
f 92 110 93
f 95 108 96
f 96 108 112
f 96 112 97
f 97 112 98
f 98 112 113
f 98 113 114
f 98 114 99
f 99 114 103
f 100 115 102
f 100 104 115
f 101 102 115
f 101 115 116
f 103 117 104
f 103 114 113
f 103 113 117
f 104 117 118
f 104 118 119
f 104 119 115
f 105 120 107
f 105 121 120
f 107 119 118
f 107 118 111
f 107 120 119
f 108 110 122
f 108 122 112
f 109 111 118
f 109 118 117
f 109 117 122
f 109 122 110
f 112 122 123
f 112 123 113
f 113 123 117
f 115 119 120
f 115 120 124
f 115 124 116
f 117 123 122
f 120 121 125
f 120 125 124

