# https://github.com/mikedh/trimesh
v 0.12397953 0.07875965 -0.50550002
v 0.12397953 0.15499292 -0.50550002
v 0.15499859 0.07875965 -0.50550002
v 0.12397953 0.07875965 0.41311127
v 0.12397953 0.15601699 -0.50541008
v 0.15499859 0.15499292 -0.50550002
v 0.16123791 0.07875965 -0.50496048
v 0.15499859 0.07875965 0.41311127
v 0.12397953 0.08184108 0.41140282
v 0.12397953 0.16499376 -0.50460082
v 0.15499859 0.16499376 -0.50460082
v 0.16499591 0.16499376 -0.50397140
v 0.16499591 0.15499292 -0.50460082
v 0.16499591 0.07875965 -0.50460082
v 0.16049880 0.07875965 0.41284156
v 0.16499591 0.08184108 0.41095322
v 0.15499859 0.08719208 0.40834558
v 0.12397953 0.08719208 0.40834558
v 0.12397953 0.16565803 -0.50433105
v 0.15499859 0.17149799 -0.50190324
v 0.16499591 0.17128579 -0.50163352
v 0.17071208 0.17071378 -0.50091416
v 0.17128803 0.16499376 -0.50163352
v 0.17150401 0.15499292 -0.50190324
v 0.17150401 0.07875965 -0.50190324
v 0.16499591 0.07875965 0.41248184
v 0.16844673 0.07875965 0.41194236
v 0.17049611 0.08099230 0.41050363
v 0.16499591 0.08684149 0.40789598
v 0.15499859 0.09451741 0.40331012
v 0.12397953 0.09377012 0.40384966
v 0.12397953 0.17149799 -0.50190324
v 0.15499859 0.17301103 -0.49497950
v 0.16499591 0.17257741 -0.49497950
v 0.17107205 0.17107360 -0.49497950
v 0.17257909 0.16499376 -0.49497950
v 0.17300624 0.15499292 -0.49497950
v 0.17244470 0.07875965 -0.49758714
v 0.17072649 0.07875965 0.41095322
v 0.17126884 0.07875965 0.40915483
v 0.17149921 0.08459961 0.40492868
v 0.17100006 0.09246005 0.40160167
v 0.17020334 0.11030286 0.39018196
v 0.16499591 0.09410225 0.40286052
v 0.15499859 0.09951783 0.39962345
v 0.12397953 0.09451741 0.40331012
v 0.12397953 0.17301103 -0.49497950
v 0.15499859 0.17301103 0.32499081
v 0.16499591 0.17257741 0.33497179
v 0.17107205 0.17107360 0.33497179
v 0.17257909 0.16499376 0.33497179
v 0.17300624 0.07875965 -0.49497950
v 0.17300624 0.15499292 0.33497179
v 0.17218553 0.07875965 0.40492868
v 0.17180637 0.09547690 0.39539725
v 0.17160480 0.12471365 0.37489575
v 0.17069769 0.12118015 0.38083041
v 0.16499591 0.11070880 0.39054167
v 0.17049131 0.16075909 0.35052776
v 0.16867711 0.14976186 0.35969949
v 0.16201063 0.15018626 0.36005914
v 0.15499859 0.11595831 0.38685495
v 0.12397953 0.09951783 0.39962345
v 0.12397953 0.17301103 0.32499081
v 0.15499859 0.17300180 0.33497179
v 0.16499591 0.17128579 0.34180564
v 0.17071208 0.17071378 0.34099633
v 0.17132643 0.16445866 0.34459311
v 0.17262709 0.15499292 0.34495276
v 0.17300624 0.07875965 0.32499081
v 0.17300144 0.14499210 0.34495276
v 0.17300624 0.08500555 0.39494765
v 0.17277107 0.07875965 0.40115207
v 0.17241111 0.10500722 0.38496667
v 0.17278066 0.11500805 0.37498569
v 0.17097126 0.13202053 0.37147886
v 0.16499591 0.16143258 0.35106725
v 0.16499591 0.16643299 0.34684110
v 0.15499859 0.16171858 0.35124707
v 0.15499859 0.15527892 0.35628253
v 0.15499859 0.14499210 0.36428535
v 0.12397953 0.12174293 0.38235903
v 0.12397953 0.11595831 0.38685495
v 0.12397953 0.17300180 0.33497179
v 0.12397953 0.17285419 0.33569115
v 0.15499859 0.17149799 0.34207535
v 0.15499859 0.16671899 0.34711081
v 0.17295344 0.12500888 0.36491477
v 0.12397953 0.16106354 0.35178661
v 0.12397953 0.16620234 0.34756041
v 0.12397953 0.14973418 0.36059868
v 0.12397953 0.14499210 0.36428535
v 0.12397953 0.17149799 0.34207535
v 0.12397953 0.17100902 0.34261489
v 0.12397953 0.16671899 0.34711081
f 1 2 6
f 1 6 3
f 1 3 7
f 1 7 14
f 1 14 25
f 1 25 38
f 1 38 52
f 1 52 70
f 1 70 73
f 1 73 54
f 1 54 40
f 1 40 39
f 1 39 27
f 1 27 26
f 1 26 15
f 1 15 8
f 1 8 4
f 1 4 9
f 1 9 18
f 1 18 31
f 1 31 46
f 1 46 63
f 1 63 83
f 1 83 82
f 1 82 92
f 1 92 91
f 1 91 89
f 1 89 90
f 1 90 95
f 1 95 94
f 1 94 93
f 1 93 85
f 1 85 84
f 1 84 64
f 1 64 47
f 1 47 32
f 1 32 19
f 1 19 10
f 1 10 5
f 1 5 2
f 2 5 6
f 3 6 7
f 4 8 9
f 5 10 11
f 5 11 6
f 6 11 12
f 6 12 13
f 6 13 7
f 7 13 14
f 8 15 16
f 8 16 17
f 8 17 9
f 9 17 18
f 10 19 11
f 11 19 20
f 11 20 21
f 11 21 12
f 12 21 22
f 12 22 23
f 12 23 13
f 13 23 24
f 13 24 25
f 13 25 14
f 15 26 16
f 16 26 27
f 16 27 28
f 16 28 29
f 16 29 17
f 17 29 30
f 17 30 31
f 17 31 18
f 19 32 20
f 20 32 47
f 20 47 33
f 20 33 21
f 21 33 34
f 21 34 22
f 22 34 35
f 22 35 36
f 22 36 23
f 23 36 37
f 23 37 24
f 24 37 38
f 24 38 25
f 27 39 28
f 28 39 40
f 28 40 41
f 28 41 42
f 28 42 43
f 28 43 44
f 28 44 29
f 29 44 30
f 30 44 45
f 30 45 63
f 30 63 46
f 30 46 31
f 33 47 64
f 33 64 48
f 33 48 49
f 33 49 34
f 34 49 50
f 34 50 35
f 35 50 51
f 35 51 36
f 36 51 53
f 36 53 37
f 37 52 38
f 37 53 72
f 37 72 70
f 37 70 52
f 40 54 41
f 41 54 55
f 41 55 56
f 41 56 42
f 42 56 57
f 42 57 43
f 43 58 44
f 43 57 59
f 43 59 60
f 43 60 58
f 44 58 45
f 45 58 61
f 45 61 62
f 45 62 83
f 45 83 63
f 48 64 84
f 48 84 65
f 48 65 49
f 49 65 66
f 49 66 67
f 49 67 50
f 50 67 51
f 51 67 68
f 51 68 69
f 51 69 53
f 53 69 71
f 53 71 72
f 54 73 74
f 54 74 55
f 55 74 56
f 56 74 75
f 56 75 69
f 56 69 68
f 56 68 76
f 56 76 57
f 57 76 59
f 58 60 77
f 58 77 61
f 59 68 67
f 59 67 78
f 59 78 77
f 59 77 60
f 59 76 68
f 61 77 79
f 61 79 80
f 61 80 81
f 61 81 62
f 62 82 83
f 62 81 82
f 65 84 85
f 65 85 86
f 65 86 66
f 66 86 87
f 66 87 78
f 66 78 67
f 69 88 71
f 69 75 88
f 70 72 73
f 71 88 72
f 72 88 75
f 72 75 74
f 72 74 73
f 77 78 87
f 77 87 79
f 79 89 80
f 79 87 90
f 79 90 89
f 80 89 81
f 81 89 91
f 81 91 92
f 81 92 82
f 85 93 86
f 86 93 94
f 86 94 87
f 87 94 95
f 87 95 90

