# https://github.com/mikedh/trimesh
v -0.06411614 0.02499875 0.35707879
v -0.06411614 0.02597111 0.35707879
v -0.06404841 -0.00393329 0.35707879
v -0.17087477 0.03960693 0.40870190
v -0.06404841 0.03960693 0.35707879
v -0.06401454 -0.01499888 0.35707879
v -0.17060381 -0.01848460 0.42079481
v -0.17131509 -0.01848460 0.42299095
v -0.17219572 0.03960693 0.41491950
v -0.06398067 -0.01848460 0.35707879
v 0.06360810 0.03960693 0.35707879
v -0.17175540 -0.01848460 0.42507297
v -0.17283924 -0.01848460 0.43150446
v -0.17294085 0.03499531 0.42500168
v -0.17239894 0.03960693 0.42518705
v 0.06381132 -0.01848460 0.35707879
v 0.16979094 0.03960693 0.40794608
v 0.06367584 0.02499875 0.35707879
v -0.17277151 -0.01848460 0.43499830
v -0.17256829 -0.00486016 0.49499232
v -0.17300859 -0.01499888 0.43499830
v -0.17300859 0.01499650 0.43499830
v -0.17256829 0.00486915 0.49499232
v -0.17101026 0.03960693 0.43237436
v 0.06381132 -0.01499888 0.35707879
v 0.16962159 -0.01848460 0.41993919
v 0.17087477 0.03960693 0.40870190
v 0.06374358 0.00500562 0.35707879
v -0.17185701 -0.01848460 0.44142979
v -0.17131509 -0.01848460 0.44374001
v -0.16498138 -0.00980158 0.49499232
v -0.17172153 -0.00324524 0.50169474
v -0.17172153 0.00324854 0.50169474
v -0.16498138 0.00980488 0.49499232
v -0.16498138 0.03960693 0.43471310
v 0.17060381 -0.01848460 0.42079481
v 0.17151831 0.03960693 0.41134009
v 0.17175540 -0.01848460 0.42507297
v -0.16555718 -0.01848460 0.44747627
v -0.16498138 -0.01848460 0.44769016
v -0.15498969 -0.01848460 0.44867414
v -0.15498969 -0.00988119 0.49499232
v -0.15498969 -0.00492839 0.50273579
v -0.16498138 -0.00489996 0.50265020
v -0.16498138 0.00489758 0.50265020
v -0.15498969 0.00491464 0.50273579
v -0.15498969 0.00987312 0.49499232
v -0.00497891 0.03960693 0.43802154
v -0.00894171 0.03960693 0.43795022
v -0.15498969 0.03960693 0.43525499
v -0.16030730 0.03960693 0.43498403
v 0.17219572 0.03960693 0.41491950
v 0.17287311 0.03960693 0.42039552
v 0.17300859 -0.01499888 0.43499830
v 0.17277151 -0.01848460 0.43499830
v -0.14499800 -0.01848460 0.44868839
v -0.00497891 -0.00988119 0.49499232
v -0.08498015 -0.00492839 0.50273579
v 0.15498969 0.00490895 0.50273579
v 0.15498969 0.00986743 0.49499232
v 0.00084675 0.03960693 0.43800727
v 0.17256829 0.00486915 0.49499232
v 0.17294085 0.03499531 0.42500168
v 0.17239894 0.03960693 0.42518705
v 0.17256829 -0.00486016 0.49499232
v 0.17300859 0.01499650 0.43499830
v 0.17131509 -0.01848460 0.44374001
v 0.14506574 -0.01848460 0.44868839
v 0.06499677 -0.00987550 0.49499232
v 0.02499615 -0.00492271 0.50273579
v 0.15498969 -0.00490565 0.50273579
v 0.16498138 0.00489189 0.50265020
v 0.16498138 0.00979919 0.49499232
v 0.00497891 0.03960693 0.43799302
v 0.17148444 0.03960693 0.43016398
v 0.17101026 0.03960693 0.43237436
v 0.17172153 0.00324854 0.50169474
v 0.17172153 -0.00324524 0.50169474
v 0.16498138 -0.00979589 0.49499232
v 0.16498138 -0.01848460 0.44769016
v 0.15505743 -0.01848460 0.44867414
v 0.15498969 -0.00986413 0.49499232
v 0.12498076 -0.00986981 0.49499232
v 0.08498015 -0.00491702 0.50273579
v 0.13497245 -0.00491134 0.50273579
v 0.16498138 -0.00488859 0.50265020
v 0.16853774 0.03960693 0.43358651
v 0.16498138 0.03960693 0.43471310
v 0.15498969 0.03960693 0.43525499
f 1 2 5
f 1 5 11
f 1 11 18
f 1 18 28
f 1 28 25
f 1 25 16
f 1 16 10
f 1 10 6
f 1 6 3
f 1 3 4
f 1 4 2
f 2 4 5
f 3 6 4
f 4 7 8
f 4 8 9
f 4 9 15
f 4 15 24
f 4 24 35
f 4 35 51
f 4 51 50
f 4 50 49
f 4 49 48
f 4 48 61
f 4 61 74
f 4 74 89
f 4 89 88
f 4 88 87
f 4 87 76
f 4 76 75
f 4 75 64
f 4 64 53
f 4 53 52
f 4 52 37
f 4 37 27
f 4 27 17
f 4 17 11
f 4 11 5
f 4 6 10
f 4 10 7
f 7 10 16
f 7 16 26
f 7 26 36
f 7 36 38
f 7 38 55
f 7 55 67
f 7 67 80
f 7 80 81
f 7 81 68
f 7 68 56
f 7 56 41
f 7 41 40
f 7 40 39
f 7 39 30
f 7 30 29
f 7 29 19
f 7 19 13
f 7 13 12
f 7 12 8
f 8 12 9
f 9 12 13
f 9 13 14
f 9 14 15
f 11 17 18
f 13 19 20
f 13 20 21
f 13 21 14
f 14 21 22
f 14 22 23
f 14 23 15
f 15 23 24
f 16 25 17
f 16 17 26
f 17 27 26
f 17 25 28
f 17 28 18
f 19 29 20
f 20 29 30
f 20 30 31
f 20 31 32
f 20 32 33
f 20 33 23
f 20 23 22
f 20 22 21
f 23 33 24
f 24 33 34
f 24 34 35
f 26 27 36
f 27 37 38
f 27 38 36
f 30 39 31
f 31 39 40
f 31 40 41
f 31 41 42
f 31 42 43
f 31 43 44
f 31 44 32
f 32 44 45
f 32 45 33
f 33 45 34
f 34 45 46
f 34 46 47
f 34 47 48
f 34 48 49
f 34 49 50
f 34 50 51
f 34 51 35
f 37 52 38
f 38 52 53
f 38 53 54
f 38 54 55
f 41 56 42
f 42 56 68
f 42 68 57
f 42 57 58
f 42 58 43
f 43 46 45
f 43 45 44
f 43 58 70
f 43 70 84
f 43 84 85
f 43 85 71
f 43 71 59
f 43 59 46
f 46 59 60
f 46 60 47
f 47 60 48
f 48 60 61
f 53 62 63
f 53 63 54
f 53 64 62
f 54 65 55
f 54 63 66
f 54 66 62
f 54 62 65
f 55 65 67
f 57 68 69
f 57 69 70
f 57 70 58
f 59 71 86
f 59 86 72
f 59 72 73
f 59 73 60
f 60 73 74
f 60 74 61
f 62 66 63
f 62 64 75
f 62 75 76
f 62 76 77
f 62 77 78
f 62 78 65
f 65 78 79
f 65 79 67
f 67 79 80
f 68 81 82
f 68 82 83
f 68 83 69
f 69 83 84
f 69 84 70
f 71 85 82
f 71 82 79
f 71 79 86
f 72 86 78
f 72 78 77
f 72 77 73
f 73 77 76
f 73 76 87
f 73 87 88
f 73 88 89
f 73 89 74
f 78 86 79
f 79 82 81
f 79 81 80
f 82 85 83
f 83 85 84

