# https://github.com/mikedh/trimesh
v -0.05782038 0.03960693 -0.50550002
v -0.05782038 0.15498525 -0.50550002
v 0.06037546 0.03960693 -0.50550002
v -0.05782038 0.03960693 0.43522763
v -0.05782038 0.16498747 -0.50456238
v 0.06491683 0.16503972 -0.50456238
v 0.06491683 0.15498525 -0.50550002
v 0.06491683 0.03965916 -0.50550002
v 0.06491683 0.03960693 -0.50090563
v -0.03096861 0.03960693 0.43729043
v -0.00499388 0.04936107 0.45079234
v -0.01126530 0.04964834 0.45041728
v -0.02499755 0.05838398 0.45069858
v -0.03003150 0.05997702 0.44994846
v -0.03003150 0.06013372 0.44994846
v -0.04293477 0.07501955 0.44235364
v -0.05122457 0.09501098 0.43203968
v -0.05091221 0.10199688 0.43100828
v -0.05782038 0.08332428 0.41459969
v -0.05782038 0.16681556 -0.50381231
v 0.06491683 0.17150331 -0.50174952
v 0.06491683 0.03960693 0.43522763
v -0.01948302 0.03960693 0.43766546
v 0.00497792 0.05500202 0.45229256
v -0.00499388 0.05500202 0.45238632
v -0.00895857 0.03960693 0.43794677
v 0.00497792 0.03960693 0.43794677
v 0.00497792 0.04941330 0.45069858
v -0.01474942 0.05472781 0.45144868
v -0.02499755 0.06176594 0.45069858
v -0.03499337 0.07501955 0.44535407
v -0.04226197 0.08265834 0.44113472
v -0.04498920 0.10381190 0.43185213
v -0.04196162 0.12238003 0.42153817
v -0.05782038 0.17149025 0.34202686
v -0.05782038 0.16671111 0.34699631
v -0.05782038 0.16530086 0.34821525
v -0.05782038 0.09576833 0.40522334
v -0.05782038 0.08446031 0.41394335
v -0.05782038 0.17149025 -0.50174952
v -0.05782038 0.17190808 -0.49987420
v -0.05782038 0.17300494 -0.49490476
v 0.06491683 0.17300494 -0.49490476
v 0.04223400 0.08267140 0.44122848
v 0.04288276 0.07501955 0.44235364
v 0.03002755 0.06014678 0.44994846
v 0.03002755 0.05997702 0.44994846
v 0.02498158 0.05838398 0.45069858
v 0.01109315 0.04970057 0.45032352
v 0.02489748 0.03960693 0.43738419
v 0.06491683 0.08222744 0.41122422
v 0.05090826 0.10199688 0.43100828
v 0.01498576 0.06333287 0.45144868
v 0.01464936 0.05472781 0.45144868
v 0.02498158 0.06176594 0.45069858
v 0.00497792 0.06333287 0.45154244
v -0.00499388 0.06333287 0.45154244
v -0.01498971 0.06333287 0.45144868
v 0.01027619 0.03960693 0.43785301
v 0.01498576 0.03960693 0.43775922
v -0.02499755 0.06676705 0.44919837
v -0.03499337 0.08397718 0.44179106
v -0.03499337 0.11074557 0.42922676
v -0.03499337 0.11500240 0.42716399
v -0.03040394 0.13012327 0.42003796
v -0.03423648 0.12542248 0.42191324
v -0.03499337 0.09501098 0.43663406
v 0.06491683 0.17149025 0.34202686
v -0.05782038 0.17257404 0.33686987
v -0.02092473 0.14054337 0.41075540
v -0.01498971 0.14149658 0.41178679
v -0.00499388 0.14225394 0.41244313
v -0.05782038 0.17300494 0.33480707
v 0.06491683 0.17300494 0.33480707
v 0.04499727 0.10381190 0.43185213
v 0.03498942 0.08400329 0.44179106
v 0.03498942 0.07501955 0.44544783
v 0.06491683 0.08718938 0.40831754
v 0.06491683 0.09455395 0.40334809
v 0.06491683 0.09954202 0.39959756
v 0.06491683 0.16164470 0.35121566
v 0.06491683 0.16665888 0.34709007
v 0.04195767 0.12238003 0.42153817
v 0.01498576 0.06833398 0.44919837
v 0.03136113 0.07202933 0.44685429
v -0.01498971 0.06833398 0.44919837
v -0.01498971 0.13029303 0.42003796
v -0.02499755 0.13025385 0.42003796
v -0.00499388 0.13529414 0.41750634
v 0.00497792 0.14225394 0.41244313
v 0.01498576 0.14149658 0.41178679
v 0.02090877 0.14054337 0.41075540
v 0.03038798 0.13012327 0.42003796
v 0.03498942 0.09501098 0.43663406
v 0.03424454 0.12542248 0.42191324
v 0.03498942 0.11500240 0.42716399
v 0.03498942 0.11074557 0.42922676
v 0.01498576 0.13029303 0.42003796
v 0.00497792 0.13529414 0.41750634
v 0.02498158 0.13025385 0.42003796
f 1 2 7
f 1 7 8
f 1 8 3
f 1 3 9
f 1 9 22
f 1 22 50
f 1 50 60
f 1 60 59
f 1 59 27
f 1 27 26
f 1 26 23
f 1 23 10
f 1 10 4
f 1 4 19
f 1 19 39
f 1 39 38
f 1 38 37
f 1 37 36
f 1 36 35
f 1 35 69
f 1 69 73
f 1 73 42
f 1 42 41
f 1 41 40
f 1 40 20
f 1 20 5
f 1 5 2
f 2 5 6
f 2 6 7
f 3 8 9
f 4 10 11
f 4 11 12
f 4 12 13
f 4 13 14
f 4 14 15
f 4 15 16
f 4 16 17
f 4 17 18
f 4 18 19
f 5 20 6
f 6 20 21
f 6 21 43
f 6 43 74
f 6 74 68
f 6 68 82
f 6 82 81
f 6 81 80
f 6 80 79
f 6 79 78
f 6 78 51
f 6 51 22
f 6 22 9
f 6 9 8
f 6 8 7
f 10 23 11
f 11 24 25
f 11 25 12
f 11 23 26
f 11 26 27
f 11 27 28
f 11 28 24
f 12 25 29
f 12 29 13
f 13 30 15
f 13 15 14
f 13 29 25
f 13 25 30
f 15 30 31
f 15 31 16
f 16 31 32
f 16 32 18
f 16 18 17
f 18 33 34
f 18 34 35
f 18 35 36
f 18 36 37
f 18 37 38
f 18 38 39
f 18 39 19
f 18 32 33
f 20 40 21
f 21 40 41
f 21 41 42
f 21 42 43
f 22 44 45
f 22 45 46
f 22 46 47
f 22 47 48
f 22 48 49
f 22 49 28
f 22 28 50
f 22 51 52
f 22 52 44
f 24 53 25
f 24 28 49
f 24 49 54
f 24 54 48
f 24 48 55
f 24 55 53
f 25 53 56
f 25 56 57
f 25 57 58
f 25 58 30
f 27 59 28
f 28 59 60
f 28 60 50
f 30 58 61
f 30 61 31
f 31 62 32
f 31 61 58
f 31 58 62
f 32 62 33
f 33 63 64
f 33 64 65
f 33 65 66
f 33 66 34
f 33 62 67
f 33 67 63
f 34 66 65
f 34 65 35
f 35 68 69
f 35 65 70
f 35 70 71
f 35 71 72
f 35 72 90
f 35 90 68
f 42 73 74
f 42 74 43
f 44 75 76
f 44 76 77
f 44 77 45
f 44 52 75
f 45 77 46
f 46 55 48
f 46 48 47
f 46 77 55
f 48 54 49
f 51 78 52
f 52 78 79
f 52 79 80
f 52 80 81
f 52 81 82
f 52 82 83
f 52 83 75
f 53 84 56
f 53 55 85
f 53 85 77
f 53 77 76
f 53 76 84
f 55 77 85
f 56 84 86
f 56 86 57
f 57 86 58
f 58 86 62
f 62 86 67
f 63 87 88
f 63 88 65
f 63 65 64
f 63 67 87
f 65 89 72
f 65 72 71
f 65 71 70
f 65 88 89
f 67 86 87
f 68 90 91
f 68 91 92
f 68 92 93
f 68 93 83
f 68 83 82
f 68 74 69
f 69 74 73
f 72 89 99
f 72 99 90
f 75 94 76
f 75 83 95
f 75 95 93
f 75 93 96
f 75 96 97
f 75 97 94
f 76 94 84
f 83 93 95
f 84 94 98
f 84 98 87
f 84 87 86
f 87 98 99
f 87 99 89
f 87 89 88
f 90 99 93
f 90 93 91
f 91 93 92
f 93 100 97
f 93 97 96
f 93 99 100
f 94 97 98
f 97 100 98
f 98 100 99

