# https://github.com/mikedh/trimesh
v 0.17301103 0.03960693 0.32498011
v 0.17213039 0.03960693 0.33494318
v 0.17301103 -0.01848460 0.32498011
v 0.17301103 0.03960693 -0.49494591
v 0.17064010 0.03960693 0.34051573
v 0.17179169 -0.01848460 0.33494318
v 0.17263846 -0.01848460 0.32844186
v 0.17301103 -0.01848460 -0.49494591
v 0.17202878 -0.01848460 -0.49950528
v 0.17148685 0.03960693 -0.50186944
v 0.17057236 0.03499531 0.34051573
v 0.17026751 -0.01848460 0.34017798
v 0.16762561 0.03960693 0.34136006
v 0.17148685 -0.01848460 -0.50186944
v 0.16498370 0.03960693 -0.50465572
v 0.16837075 -0.01848460 0.34068459
v 0.16498370 0.03960693 0.34203550
v 0.16498370 -0.01848460 -0.50465572
v 0.15499187 0.03960693 -0.50550002
v 0.16498370 -0.01848460 0.34136006
v 0.15959828 0.03960693 0.34296426
v 0.15499187 -0.01848460 -0.50550002
v -0.15499187 0.03960693 -0.50550002
v 0.15499187 0.03960693 0.34372416
v 0.06381221 -0.01848460 0.35706455
v -0.15499187 -0.01848460 -0.50550002
v -0.16498370 0.03960693 -0.50465572
v 0.06360899 0.03960693 0.35706455
v 0.06367673 0.02499875 0.35706455
v 0.06374447 0.00500562 0.35706455
v 0.06381221 -0.01499888 0.35706455
v -0.06398156 -0.01848460 0.35706455
v -0.16498370 -0.01848460 -0.50465572
v -0.16921753 -0.01848460 -0.50288260
v -0.16796431 0.03960693 -0.50338918
v -0.06404930 0.03960693 0.35706455
v -0.06401543 -0.01499888 0.35706455
v -0.15499187 0.03960693 0.34372416
v -0.15848054 -0.01848460 0.34237325
v -0.17148685 -0.01848460 -0.50186944
v -0.17148685 0.03960693 -0.50186944
v -0.06411705 0.02597111 0.35706455
v -0.06404930 -0.00393329 0.35706455
v -0.16037729 0.03960693 0.34287983
v -0.16498370 -0.01848460 0.34136006
v -0.06411705 0.02499875 0.35706455
v -0.17301103 -0.01848460 -0.49494591
v -0.17219813 0.03960693 -0.49866095
v -0.16498370 0.03960693 0.34211993
v -0.17026751 -0.01848460 0.34017798
v -0.17301103 0.03960693 -0.49494591
v -0.17301103 -0.01848460 0.32498011
v -0.16799818 0.03960693 0.34127563
v -0.17057236 0.03499531 0.34051573
v -0.17064010 0.03960693 0.34051573
v -0.17080945 -0.01848460 0.33832046
v -0.17301103 0.03960693 0.32498011
v -0.17179169 -0.01848460 0.33494318
v -0.17213039 0.03960693 0.33494318
v -0.17263846 0.03960693 0.32953948
v -0.17145298 0.03960693 0.33756059
f 1 2 3
f 1 3 8
f 1 8 4
f 1 4 10
f 1 10 15
f 1 15 19
f 1 19 23
f 1 23 27
f 1 27 35
f 1 35 41
f 1 41 48
f 1 48 51
f 1 51 57
f 1 57 60
f 1 60 59
f 1 59 61
f 1 61 55
f 1 55 53
f 1 53 49
f 1 49 44
f 1 44 38
f 1 38 36
f 1 36 28
f 1 28 24
f 1 24 21
f 1 21 17
f 1 17 13
f 1 13 5
f 1 5 2
f 2 5 6
f 2 6 7
f 2 7 3
f 3 7 6
f 3 6 12
f 3 12 16
f 3 16 20
f 3 20 25
f 3 25 32
f 3 32 39
f 3 39 45
f 3 45 50
f 3 50 56
f 3 56 58
f 3 58 52
f 3 52 47
f 3 47 40
f 3 40 34
f 3 34 33
f 3 33 26
f 3 26 22
f 3 22 18
f 3 18 14
f 3 14 9
f 3 9 8
f 4 8 9
f 4 9 10
f 5 11 12
f 5 12 6
f 5 13 11
f 9 14 10
f 10 14 18
f 10 18 15
f 11 13 12
f 12 13 16
f 13 17 16
f 15 18 22
f 15 22 19
f 16 17 20
f 17 21 20
f 19 22 26
f 19 26 23
f 20 21 24
f 20 24 25
f 23 26 33
f 23 33 27
f 24 28 29
f 24 29 30
f 24 30 31
f 24 31 25
f 25 31 30
f 25 30 29
f 25 29 28
f 25 28 36
f 25 36 42
f 25 42 46
f 25 46 43
f 25 43 37
f 25 37 32
f 27 33 34
f 27 34 35
f 32 37 38
f 32 38 39
f 34 40 41
f 34 41 35
f 36 38 42
f 37 43 38
f 38 44 45
f 38 45 39
f 38 43 46
f 38 46 42
f 40 47 48
f 40 48 41
f 44 49 45
f 45 49 50
f 47 51 48
f 47 52 57
f 47 57 51
f 49 53 50
f 50 54 55
f 50 55 56
f 50 53 54
f 52 58 59
f 52 59 60
f 52 60 57
f 53 55 54
f 55 61 58
f 55 58 56
f 58 61 59

