# https://github.com/mikedh/trimesh
v -0.06319839 -0.07497124 0.35803622
v -0.16500673 -0.07497124 0.38590130
v -0.06313065 -0.07334012 0.35803622
v 0.06316452 -0.07497124 0.35803622
v -0.17096755 -0.07497124 0.38831508
v -0.05960834 -0.01848460 0.35803622
v 0.05937126 -0.01848460 0.35803622
v 0.16493899 -0.07497124 0.38589242
v -0.17245777 -0.07497124 0.39500627
v -0.17134011 -0.06568213 0.39515713
v -0.17096755 -0.05728323 0.39858258
v -0.17076434 -0.03831796 0.40904531
v -0.17029019 -0.06946966 0.38969946
v -0.17035793 -0.01929740 0.41958788
v -0.17059501 -0.01848460 0.42078590
v 0.16964670 -0.01848460 0.41992512
v 0.17035793 -0.01929740 0.41958788
v 0.17029019 -0.06946966 0.38969946
v 0.17093369 -0.07497124 0.38829735
v -0.17262711 -0.07497124 0.40499866
v -0.17299967 -0.06499651 0.40499866
v -0.17283031 -0.04500280 0.41499990
v -0.17252550 -0.02500357 0.42499229
v -0.17134011 -0.04500280 0.40724382
v -0.17130624 -0.01848460 0.42297783
v 0.17059501 -0.01848460 0.42078590
v 0.17076434 -0.03831796 0.40904531
v 0.17096755 -0.05728323 0.39858258
v 0.17134011 -0.06568213 0.39515713
v 0.17245777 -0.07497124 0.39497963
v -0.17188200 -0.01848460 0.44143626
v -0.17235616 -0.02500357 0.43499357
v -0.17279644 -0.05499965 0.41499990
v -0.17110303 -0.07497124 0.41184956
v -0.17293192 -0.03500042 0.42499229
v -0.17283031 -0.01848460 0.43151486
v -0.17174652 -0.01848460 0.42507216
v 0.17174652 -0.01848460 0.42507216
v 0.17103529 -0.02500357 0.41823015
v 0.17134011 -0.04500280 0.40724382
v 0.17252550 -0.02500357 0.42499229
v 0.17283031 -0.04500280 0.41499990
v 0.17299967 -0.06499651 0.40499866
v 0.17262711 -0.07497124 0.40496317
v -0.17276259 -0.01848460 0.43499357
v -0.17134011 -0.01848460 0.44374356
v -0.16497286 -0.07497124 0.41444972
v -0.17069662 -0.06159050 0.42083916
v 0.17276259 -0.01848460 0.43499357
v 0.17293192 -0.03500042 0.42499229
v 0.17279644 -0.05499965 0.41499990
v 0.17235616 -0.02500357 0.43499357
v 0.17134011 -0.01848460 0.44374356
v 0.17110303 -0.07497124 0.41182294
v -0.17083208 -0.02500357 0.44140962
v -0.17012085 -0.03021763 0.44012287
v -0.16554862 -0.01848460 0.44748849
v -0.16497286 -0.01848460 0.44768372
v -0.15498169 -0.07497124 0.41520402
v -0.15491395 -0.01848460 0.44868651
v 0.16497286 -0.01848460 0.44768372
v 0.17012085 -0.03021763 0.44012287
v 0.17083208 -0.02500357 0.44140962
v 0.17069662 -0.06159050 0.42083916
v 0.16497286 -0.07497124 0.41444972
v 0.15498169 -0.07497124 0.41520402
v 0.14505824 -0.01848460 0.44868651
v 0.15498169 -0.01848460 0.44867763
f 1 2 3
f 1 3 6
f 1 6 7
f 1 7 4
f 1 4 8
f 1 8 19
f 1 19 30
f 1 30 44
f 1 44 54
f 1 54 65
f 1 65 66
f 1 66 59
f 1 59 47
f 1 47 34
f 1 34 20
f 1 20 9
f 1 9 5
f 1 5 2
f 2 5 6
f 2 6 3
f 4 7 8
f 5 9 10
f 5 10 11
f 5 11 12
f 5 12 13
f 5 13 6
f 6 13 14
f 6 14 15
f 6 15 25
f 6 25 37
f 6 37 36
f 6 36 45
f 6 45 31
f 6 31 46
f 6 46 57
f 6 57 58
f 6 58 60
f 6 60 67
f 6 67 68
f 6 68 61
f 6 61 53
f 6 53 49
f 6 49 38
f 6 38 26
f 6 26 16
f 6 16 7
f 7 16 17
f 7 17 18
f 7 18 19
f 7 19 8
f 9 20 21
f 9 21 22
f 9 22 23
f 9 23 24
f 9 24 10
f 10 24 11
f 11 24 12
f 12 24 25
f 12 25 15
f 12 15 14
f 12 14 13
f 16 26 17
f 17 26 27
f 17 27 18
f 18 27 28
f 18 28 19
f 19 28 29
f 19 29 30
f 20 31 32
f 20 32 33
f 20 33 21
f 20 34 31
f 21 33 35
f 21 35 36
f 21 36 22
f 22 36 23
f 23 37 24
f 23 36 37
f 24 37 25
f 26 38 39
f 26 39 27
f 27 39 40
f 27 40 28
f 28 40 29
f 29 40 30
f 30 41 42
f 30 42 43
f 30 43 44
f 30 40 41
f 31 45 32
f 31 34 46
f 32 45 35
f 32 35 33
f 34 47 48
f 34 48 46
f 35 45 36
f 38 49 41
f 38 41 40
f 38 40 39
f 41 49 50
f 41 50 42
f 42 50 43
f 43 50 51
f 43 51 44
f 44 51 52
f 44 52 53
f 44 53 54
f 46 48 55
f 46 55 56
f 46 56 57
f 47 58 56
f 47 56 48
f 47 59 60
f 47 60 58
f 48 56 55
f 49 53 52
f 49 52 50
f 50 52 51
f 53 61 62
f 53 62 63
f 53 63 64
f 53 64 54
f 54 64 65
f 56 58 57
f 59 66 67
f 59 67 60
f 61 68 65
f 61 65 62
f 62 65 64
f 62 64 63
f 65 68 66
f 66 68 67

