# https://github.com/mikedh/trimesh
v 0.17260459 -0.07497124 0.40496728
v 0.17260459 -0.07500184 0.40499526
v 0.17301103 -0.08500372 0.39499456
v 0.17246911 -0.07497124 0.39497218
v 0.17111428 -0.07497124 0.41182280
v 0.17111428 -0.07500184 0.41183960
v 0.17148685 -0.08459844 0.40498406
v 0.17179169 -0.09547206 0.39547023
v 0.17240135 -0.10500750 0.38500506
v 0.17290942 -0.09500562 0.38500506
v 0.17277394 -0.11499410 0.37500435
v 0.17294329 -0.12499599 0.36500365
v 0.17246911 -0.10500750 0.37500435
v 0.17189330 -0.12537068 0.35803619
v 0.17131750 -0.09571676 0.37527299
v 0.17094493 -0.07497124 0.38829011
v 0.16498370 -0.07497124 0.41445309
v 0.17047073 -0.08098920 0.41053006
v 0.17097880 -0.09245926 0.40164304
v 0.17158847 -0.12470541 0.37490362
v 0.17175782 -0.13521199 0.36523870
v 0.17236748 -0.13505906 0.35803619
v 0.17152072 -0.14488506 0.35803619
v 0.17101267 -0.11910038 0.35803619
v 0.17094493 -0.11783103 0.35860702
v 0.17087719 -0.08814652 0.37878188
v 0.17030138 -0.09952482 0.36967662
v 0.16498370 -0.07500184 0.38587809
v 0.16494983 -0.07497124 0.38588926
v 0.16498370 -0.08183798 0.41100013
v 0.15499187 -0.07497124 0.41520861
v 0.16498370 -0.08683893 0.40790537
v 0.16498370 -0.09410330 0.40290782
v 0.17019977 -0.11029902 0.39022645
v 0.17067397 -0.12117264 0.38089731
v 0.17097880 -0.14309573 0.36206555
v 0.17094493 -0.13202330 0.37150103
v 0.17006429 -0.14803551 0.35803619
v 0.16772722 -0.11689048 0.35803619
v 0.16498370 -0.11536114 0.35803619
v 0.06316867 -0.07497124 0.35803619
v 0.15499187 -0.07500184 0.41519183
v 0.15499187 -0.08219738 0.41120720
v 0.15499187 -0.08719068 0.40834746
v -0.15499187 -0.07497124 0.41520861
v 0.15499187 -0.09452387 0.40334994
v 0.16498370 -0.11070430 0.39053985
v 0.16867560 -0.14976367 0.35977107
v 0.16667724 -0.15225649 0.35803619
v -0.06320255 -0.07497124 0.35803619
v -0.15499187 -0.07500184 0.41519183
v -0.15499187 -0.08219738 0.41120720
v -0.15499187 -0.08719068 0.40834746
v -0.16498370 -0.07497124 0.41445309
v -0.16498370 -0.08183798 0.41100013
v 0.15499187 -0.09951717 0.39962274
v -0.15499187 -0.09452387 0.40334994
v 0.16200309 -0.15018424 0.36014602
v 0.16396758 -0.15261589 0.35803619
v -0.16498370 -0.11536114 0.35803619
v -0.17030138 -0.09952482 0.36967662
v -0.16501758 -0.07497124 0.38589486
v -0.16498370 -0.08683893 0.40790537
v -0.17111428 -0.07497124 0.41185078
v -0.17047073 -0.08098920 0.41053006
v 0.15499187 -0.10500750 0.39536393
v -0.15499187 -0.09951717 0.39962274
v -0.16498370 -0.09410330 0.40290782
v -0.16498370 -0.11070430 0.39053985
v 0.15499187 -0.11096428 0.39074132
v 0.15499187 -0.14499977 0.36432090
v 0.15810797 -0.15300587 0.35803619
v -0.17036912 -0.11831277 0.35803619
v -0.17094493 -0.11783103 0.35860702
v -0.17087719 -0.08814652 0.37878188
v -0.17094493 -0.07497124 0.38830692
v -0.17260459 -0.07497124 0.40499526
v -0.17260459 -0.07500184 0.40499526
v -0.17111428 -0.07500184 0.41183960
v -0.17019977 -0.11029902 0.39022645
v -0.17148685 -0.08459844 0.40498406
v -0.17097880 -0.09245926 0.40164304
v -0.15499187 -0.10500750 0.39536393
v -0.16200309 -0.15018424 0.36014602
v -0.16867560 -0.14976367 0.35977107
v -0.15499187 -0.11096428 0.39074132
v 0.15499187 -0.15308999 0.35803619
v -0.15499187 -0.14499977 0.36432090
v -0.17101267 -0.11910038 0.35803619
v -0.17155460 -0.12225083 0.35803619
v -0.17131750 -0.09571676 0.37527299
v -0.17246911 -0.07497124 0.39500016
v -0.17301103 -0.08500372 0.39499456
v -0.17240135 -0.10500750 0.38500506
v -0.17179169 -0.09547206 0.39547023
v -0.17067397 -0.12117264 0.38089731
v -0.17158847 -0.12470541 0.37490362
v -0.16396758 -0.15261589 0.35803619
v -0.15499187 -0.15308999 0.35803619
v -0.16667724 -0.15225649 0.35803619
v -0.16925140 -0.15105596 0.35803619
v -0.17270620 -0.13196214 0.35803619
v -0.17290942 -0.09500562 0.38500506
v -0.17294329 -0.12499599 0.36500365
v -0.17277394 -0.11499410 0.37500435
v -0.17094493 -0.13202330 0.37150103
v -0.17097880 -0.14309573 0.36206555
v -0.17175782 -0.13521199 0.36523870
v -0.17152072 -0.14488506 0.35803619
v -0.17179169 -0.14338632 0.35803619
f 1 2 3
f 1 3 4
f 1 4 16
f 1 16 29
f 1 29 41
f 1 41 50
f 1 50 62
f 1 62 76
f 1 76 92
f 1 92 77
f 1 77 64
f 1 64 54
f 1 54 45
f 1 45 31
f 1 31 17
f 1 17 5
f 1 5 2
f 2 5 6
f 2 6 7
f 2 7 8
f 2 8 9
f 2 9 3
f 3 10 4
f 3 9 11
f 3 11 12
f 3 12 10
f 4 10 12
f 4 12 13
f 4 13 14
f 4 14 15
f 4 15 16
f 5 17 6
f 6 17 18
f 6 18 7
f 7 18 19
f 7 19 20
f 7 20 8
f 8 20 9
f 9 20 11
f 11 20 21
f 11 21 12
f 12 22 14
f 12 14 13
f 12 21 23
f 12 23 22
f 14 22 23
f 14 23 38
f 14 38 49
f 14 49 59
f 14 59 72
f 14 72 87
f 14 87 99
f 14 99 98
f 14 98 100
f 14 100 101
f 14 101 109
f 14 109 110
f 14 110 102
f 14 102 90
f 14 90 89
f 14 89 73
f 14 73 60
f 14 60 50
f 14 50 41
f 14 41 40
f 14 40 39
f 14 39 24
f 14 24 15
f 15 24 25
f 15 25 26
f 15 26 16
f 16 26 27
f 16 27 28
f 16 28 29
f 17 30 18
f 17 31 30
f 18 30 32
f 18 32 33
f 18 33 34
f 18 34 19
f 19 34 35
f 19 35 20
f 20 36 21
f 20 35 37
f 20 37 36
f 21 36 23
f 23 36 38
f 24 39 25
f 25 39 27
f 25 27 26
f 27 29 28
f 27 39 40
f 27 40 41
f 27 41 29
f 30 31 42
f 30 42 43
f 30 43 44
f 30 44 32
f 31 45 51
f 31 51 42
f 32 44 46
f 32 46 33
f 33 46 47
f 33 47 34
f 34 47 48
f 34 48 35
f 35 48 37
f 36 37 48
f 36 48 38
f 38 48 49
f 42 51 52
f 42 52 43
f 43 52 53
f 43 53 44
f 44 53 57
f 44 57 46
f 45 54 55
f 45 55 51
f 46 56 47
f 46 57 67
f 46 67 56
f 47 56 58
f 47 58 48
f 48 58 49
f 49 58 59
f 50 60 61
f 50 61 62
f 51 55 52
f 52 55 53
f 53 55 63
f 53 63 57
f 54 64 65
f 54 65 55
f 55 65 63
f 56 66 58
f 56 67 83
f 56 83 66
f 57 63 68
f 57 68 69
f 57 69 67
f 58 66 70
f 58 70 71
f 58 71 72
f 58 72 59
f 60 73 61
f 61 73 74
f 61 74 75
f 61 75 76
f 61 76 62
f 63 65 68
f 64 77 78
f 64 78 79
f 64 79 65
f 65 80 68
f 65 79 81
f 65 81 82
f 65 82 80
f 66 83 86
f 66 86 70
f 67 69 84
f 67 84 83
f 68 80 69
f 69 80 85
f 69 85 84
f 70 86 88
f 70 88 71
f 71 87 72
f 71 88 99
f 71 99 87
f 73 89 74
f 74 89 90
f 74 90 91
f 74 91 75
f 75 91 76
f 76 91 92
f 77 92 93
f 77 93 78
f 78 93 94
f 78 94 95
f 78 95 81
f 78 81 79
f 80 96 85
f 80 82 96
f 81 97 82
f 81 95 97
f 82 97 96
f 83 84 86
f 84 98 99
f 84 99 88
f 84 88 86
f 84 85 100
f 84 100 98
f 85 96 101
f 85 101 100
f 90 102 92
f 90 92 91
f 92 102 103
f 92 103 93
f 93 104 105
f 93 105 94
f 93 103 104
f 94 105 97
f 94 97 95
f 96 97 106
f 96 106 101
f 97 107 106
f 97 105 108
f 97 108 107
f 101 106 107
f 101 107 109
f 102 110 104
f 102 104 103
f 104 110 105
f 105 110 108
f 107 108 109
f 108 110 109

