# https://github.com/mikedh/trimesh
v 0.17301103 0.07875965 0.32494420
v 0.17276767 0.07875965 0.40119255
v 0.17298988 0.06499717 0.40496814
v 0.17301103 0.03961075 0.32494420
v 0.17301103 0.07875965 -0.49490994
v 0.17218572 0.07875965 0.40496814
v 0.17263012 0.07499997 0.40496814
v 0.17279941 0.05500204 0.41491359
v 0.17289464 0.03961075 0.42034674
v 0.17301103 0.03961075 -0.49490994
v 0.17243966 0.07875965 -0.49758047
v 0.17126518 0.07875965 0.40911210
v 0.17102182 0.03961075 0.43231809
v 0.17148739 0.03961075 0.43010801
v 0.17241850 0.03961075 0.42513525
v 0.17149797 0.03961075 -0.50190860
v 0.17149797 0.07875965 -0.50190860
v 0.17072555 0.07875965 0.41095382
v 0.17111705 0.07499997 0.41178262
v 0.17091602 0.04224367 0.43121302
v 0.16856706 0.03961075 0.43351525
v 0.16499072 0.03961075 -0.50467122
v 0.16499072 0.07875965 -0.50467122
v 0.16845068 0.07875965 0.41196680
v 0.17072555 0.06159392 0.42080718
v 0.16499072 0.03961075 0.43471235
v 0.15499181 0.03961075 -0.50550002
v 0.15499181 0.07875965 -0.50550002
v 0.16499072 0.07875965 0.41251928
v 0.15970029 0.03961075 0.43498862
v 0.16049385 0.07875965 0.41288763
v 0.06500147 0.03961075 -0.50550002
v 0.06494857 0.07875965 -0.50550002
v 0.15499181 0.03961075 0.43517280
v 0.15499181 0.07875965 0.41307181
v 0.06492740 0.03965291 -0.50550002
v 0.06492740 0.03961075 -0.50098771
v 0.06492740 0.07508045 -0.50550002
v 0.06492740 0.07875965 -0.49988264
v 0.14499287 0.03961075 0.43526489
v 0.06500147 0.07875965 0.41316390
v 0.06492740 0.03961075 0.43526489
v 0.06492740 0.07875965 0.41316390
f 1 2 3
f 1 3 4
f 1 4 10
f 1 10 5
f 1 5 11
f 1 11 17
f 1 17 23
f 1 23 28
f 1 28 33
f 1 33 39
f 1 39 43
f 1 43 41
f 1 41 35
f 1 35 31
f 1 31 29
f 1 29 24
f 1 24 18
f 1 18 12
f 1 12 6
f 1 6 2
f 2 6 7
f 2 7 8
f 2 8 3
f 3 8 9
f 3 9 4
f 4 9 15
f 4 15 14
f 4 14 13
f 4 13 21
f 4 21 26
f 4 26 30
f 4 30 34
f 4 34 40
f 4 40 42
f 4 42 37
f 4 37 32
f 4 32 27
f 4 27 22
f 4 22 16
f 4 16 10
f 5 10 11
f 6 12 13
f 6 13 7
f 7 13 14
f 7 14 8
f 8 14 15
f 8 15 9
f 10 16 11
f 11 16 17
f 12 18 19
f 12 19 20
f 12 20 13
f 13 20 21
f 16 22 23
f 16 23 17
f 18 24 25
f 18 25 19
f 19 25 20
f 20 25 21
f 21 25 26
f 22 27 28
f 22 28 23
f 24 29 26
f 24 26 25
f 26 29 31
f 26 31 30
f 27 32 36
f 27 36 38
f 27 38 33
f 27 33 28
f 30 31 34
f 31 35 34
f 32 37 36
f 33 38 39
f 34 35 40
f 35 41 40
f 36 37 42
f 36 42 43
f 36 43 39
f 36 39 38
f 40 41 43
f 40 43 42

