# https://github.com/mikedh/trimesh
v 0.21489282 -0.25720111 0.47373626
v 0.21489282 -0.25728908 0.48490250
v 0.21489282 -0.27394086 0.47373626
v 0.08985268 -0.32290220 0.47373626
v 0.08985268 -0.32297257 0.48490766
v 0.21489282 -0.25755298 0.48951507
v 0.08985268 -0.32316610 0.48951507
v 0.21489282 -0.28268459 0.47642046
v 0.20626387 -0.28069657 0.47373626
v 0.08985268 -0.33644003 0.47373626
v 0.21489282 -0.25832707 0.49360824
v 0.08985268 -0.32377306 0.49360824
v 0.21489282 -0.28437352 0.47724321
v 0.21033968 -0.28624716 0.47642046
v 0.19266564 -0.29842153 0.47642046
v 0.18893255 -0.29263341 0.47373626
v 0.08985268 -0.34353879 0.47642046
v 0.09096648 -0.33617613 0.47373626
v 0.21489282 -0.25979608 0.49680668
v 0.08985268 -0.32494301 0.49672955
v 0.08985268 -0.32497817 0.49680668
v 0.21489282 -0.28484851 0.47747719
v 0.21135557 -0.28761941 0.47747719
v 0.19359586 -0.29985535 0.47747719
v 0.17515072 -0.31099173 0.47747719
v 0.17430618 -0.30950513 0.47642046
v 0.17092805 -0.30350590 0.47373626
v 0.18685181 -0.29389134 0.47373626
v 0.08985268 -0.34399623 0.47669557
v 0.09517692 -0.34222811 0.47642046
v 0.09564202 -0.34387308 0.47747719
v 0.09332873 -0.33558676 0.47373626
v 0.21489282 -0.26197761 0.49849591
v 0.08985268 -0.32687822 0.49862701
v 0.08985268 -0.32698378 0.49872473
v 0.21489282 -0.28511241 0.47782943
v 0.21195531 -0.28844631 0.47923583
v 0.19414663 -0.30071741 0.47923583
v 0.21489282 -0.28615040 0.47923583
v 0.17564030 -0.31188017 0.47923583
v 0.15648526 -0.32192579 0.47923583
v 0.15604463 -0.32100216 0.47747719
v 0.15529802 -0.31946278 0.47642046
v 0.15229931 -0.31327003 0.47373626
v 0.08985268 -0.34528929 0.47747719
v 0.11342622 -0.32934123 0.47373626
v 0.11566608 -0.33585945 0.47642046
v 0.09591129 -0.34485829 0.47923583
v 0.08985268 -0.34634489 0.47923583
v 0.11622909 -0.33746922 0.47747719
v 0.11655957 -0.33843684 0.47923583
v 0.21489282 -0.26227671 0.49872473
v 0.08985268 -0.32935005 0.49960405
v 0.21226130 -0.28885972 0.48156008
v 0.19442815 -0.30114844 0.48156008
v 0.17589733 -0.31232882 0.48156008
v 0.21489282 -0.28680134 0.48156008
v 0.15671782 -0.32238320 0.48156008
v 0.13697529 -0.33125889 0.48156008
v 0.13677944 -0.33078387 0.47923583
v 0.13638778 -0.32983384 0.47747719
v 0.13573907 -0.32825926 0.47642046
v 0.15007170 -0.31427282 0.47373626
v 0.13310756 -0.32189059 0.47373626
v 0.09604593 -0.34535089 0.48156008
v 0.08985268 -0.34672314 0.48088133
v 0.11671868 -0.33892065 0.48156008
v 0.21489282 -0.26479250 0.49948320
v 0.08985268 -0.32956114 0.49968117
v 0.21489282 -0.28683653 0.48197919
v 0.21235922 -0.28899169 0.48428544
v 0.19452606 -0.30128920 0.48428544
v 0.17598301 -0.31247833 0.48428544
v 0.15679125 -0.32253274 0.48428544
v 0.13704872 -0.33141720 0.48428544
v 0.09609489 -0.34551802 0.48428544
v 0.08985268 -0.34700462 0.48347813
v 0.08985268 -0.34687269 0.48156008
v 0.11677988 -0.33907896 0.48428544
v 0.21489282 -0.26545224 0.49968117
v 0.08985268 -0.33249918 0.49999997
v 0.21489282 -0.28701246 0.48428544
v 0.21235922 -0.28899169 0.49035066
v 0.19452606 -0.30128920 0.49035066
v 0.17598301 -0.31247833 0.49035066
v 0.15679125 -0.32253274 0.49035066
v 0.13704872 -0.33141720 0.49035066
v 0.09609489 -0.34551802 0.49035066
v 0.08985268 -0.34704861 0.48428544
v 0.11677988 -0.33907896 0.49035066
v 0.21489282 -0.26907641 0.49999997
v 0.08985268 -0.33851600 0.49999997
v 0.21489282 -0.28701246 0.49035066
v 0.21489282 -0.28698608 0.49079290
v 0.21226130 -0.28885972 0.49332541
v 0.19442815 -0.30114844 0.49332541
v 0.17589733 -0.31232882 0.49332541
v 0.15671782 -0.32238320 0.49332541
v 0.13697529 -0.33125889 0.49332541
v 0.11671868 -0.33892065 0.49332541
v 0.09604593 -0.34535089 0.49332541
v 0.08985268 -0.34687269 0.49332541
v 0.08985268 -0.34692547 0.49244609
v 0.08985268 -0.34704861 0.49035066
v 0.21489282 -0.27650064 0.49999997
v 0.08985268 -0.34122533 0.49979943
v 0.09386727 -0.33753079 0.49999997
v 0.21489282 -0.28680134 0.49332541
v 0.21489282 -0.28670460 0.49373424
v 0.21195531 -0.28844631 0.49594024
v 0.19414663 -0.30071741 0.49594024
v 0.17564030 -0.31188017 0.49594024
v 0.15648526 -0.32192579 0.49594024
v 0.13677944 -0.33078387 0.49594024
v 0.11655957 -0.33843684 0.49594024
v 0.09591129 -0.34485829 0.49594024
v 0.08985268 -0.34634489 0.49594024
v 0.20745112 -0.28231514 0.49999997
v 0.20900556 -0.28443509 0.49979943
v 0.21489282 -0.27983451 0.49979943
v 0.08985268 -0.34353879 0.49919009
v 0.09457718 -0.34006417 0.49979943
v 0.11407492 -0.33125007 0.49999997
v 0.21489282 -0.28615040 0.49594024
v 0.21135557 -0.28761941 0.49797395
v 0.19359586 -0.29985535 0.49797395
v 0.17515072 -0.31099173 0.49797395
v 0.15604463 -0.32100216 0.49797395
v 0.13638778 -0.32983384 0.49797395
v 0.11621685 -0.33746922 0.49797395
v 0.09564202 -0.34387308 0.49797395
v 0.08985268 -0.34558839 0.49740574
v 0.19003412 -0.29432237 0.49999997
v 0.21033968 -0.28624716 0.49919009
v 0.19145392 -0.29653028 0.49979943
v 0.21489282 -0.28268459 0.49919009
v 0.08985268 -0.34528929 0.49797395
v 0.09517692 -0.34222811 0.49919009
v 0.11566608 -0.33585945 0.49919009
v 0.11494394 -0.33373070 0.49979943
v 0.13488230 -0.32618329 0.49979943
v 0.13386641 -0.32374668 0.49999997
v 0.21489282 -0.28484851 0.49797395
v 0.19266564 -0.29842153 0.49919009
v 0.17430618 -0.30950513 0.49919009
v 0.15529802 -0.31946278 0.49919009
v 0.13573907 -0.32825926 0.49919009
v 0.17190722 -0.30525643 0.49999997
v 0.17320462 -0.30755231 0.49979943
v 0.15431885 -0.31744838 0.49979943
v 0.15316832 -0.31507331 0.49999997
f 1 2 6
f 1 6 11
f 1 11 19
f 1 19 33
f 1 33 52
f 1 52 68
f 1 68 80
f 1 80 91
f 1 91 105
f 1 105 120
f 1 120 136
f 1 136 143
f 1 143 124
f 1 124 109
f 1 109 108
f 1 108 94
f 1 94 93
f 1 93 82
f 1 82 70
f 1 70 57
f 1 57 39
f 1 39 36
f 1 36 22
f 1 22 13
f 1 13 8
f 1 8 3
f 1 3 9
f 1 9 16
f 1 16 28
f 1 28 27
f 1 27 44
f 1 44 63
f 1 63 64
f 1 64 46
f 1 46 32
f 1 32 18
f 1 18 10
f 1 10 4
f 1 4 5
f 1 5 2
f 2 5 7
f 2 7 6
f 3 8 9
f 4 10 17
f 4 17 29
f 4 29 45
f 4 45 49
f 4 49 66
f 4 66 78
f 4 78 77
f 4 77 89
f 4 89 104
f 4 104 103
f 4 103 102
f 4 102 117
f 4 117 132
f 4 132 137
f 4 137 121
f 4 121 106
f 4 106 92
f 4 92 81
f 4 81 69
f 4 69 53
f 4 53 35
f 4 35 34
f 4 34 21
f 4 21 20
f 4 20 12
f 4 12 7
f 4 7 5
f 6 7 12
f 6 12 11
f 8 13 14
f 8 14 9
f 9 15 16
f 9 14 15
f 10 18 17
f 11 12 20
f 11 20 21
f 11 21 19
f 13 22 23
f 13 23 14
f 14 23 24
f 14 24 15
f 15 24 25
f 15 25 26
f 15 26 27
f 15 27 28
f 15 28 16
f 17 18 30
f 17 30 31
f 17 31 29
f 18 32 30
f 19 21 34
f 19 34 35
f 19 35 33
f 22 36 23
f 23 37 38
f 23 38 24
f 23 36 39
f 23 39 37
f 24 38 25
f 25 40 41
f 25 41 42
f 25 42 26
f 25 38 40
f 26 42 43
f 26 43 44
f 26 44 27
f 29 31 45
f 30 32 46
f 30 46 47
f 30 47 31
f 31 48 49
f 31 49 45
f 31 47 50
f 31 50 51
f 31 51 48
f 33 35 52
f 35 53 52
f 37 39 54
f 37 54 55
f 37 55 38
f 38 55 56
f 38 56 40
f 39 57 54
f 40 56 41
f 41 56 58
f 41 58 59
f 41 59 60
f 41 60 42
f 42 60 61
f 42 61 62
f 42 62 43
f 43 62 63
f 43 63 44
f 46 64 47
f 47 64 62
f 47 62 50
f 48 65 66
f 48 66 49
f 48 51 65
f 50 62 61
f 50 61 60
f 50 60 51
f 51 60 59
f 51 59 67
f 51 67 65
f 52 53 69
f 52 69 68
f 54 57 70
f 54 70 71
f 54 71 72
f 54 72 55
f 55 72 73
f 55 73 56
f 56 73 58
f 58 74 75
f 58 75 59
f 58 73 74
f 59 75 67
f 62 64 63
f 65 76 77
f 65 77 78
f 65 78 66
f 65 67 76
f 67 75 79
f 67 79 76
f 68 69 80
f 69 81 80
f 70 82 71
f 71 83 84
f 71 84 72
f 71 82 93
f 71 93 83
f 72 84 85
f 72 85 73
f 73 85 86
f 73 86 74
f 74 86 87
f 74 87 75
f 75 87 90
f 75 90 79
f 76 88 104
f 76 104 89
f 76 89 77
f 76 79 90
f 76 90 88
f 80 81 91
f 81 92 107
f 81 107 123
f 81 123 142
f 81 142 151
f 81 151 148
f 81 148 133
f 81 133 118
f 81 118 105
f 81 105 91
f 83 93 94
f 83 94 95
f 83 95 84
f 84 95 96
f 84 96 85
f 85 96 97
f 85 97 98
f 85 98 86
f 86 98 87
f 87 98 99
f 87 99 100
f 87 100 90
f 88 90 100
f 88 100 101
f 88 101 102
f 88 102 103
f 88 103 104
f 92 106 107
f 94 108 95
f 95 108 109
f 95 109 110
f 95 110 96
f 96 111 97
f 96 110 111
f 97 112 113
f 97 113 98
f 97 111 112
f 98 113 99
f 99 114 115
f 99 115 100
f 99 113 114
f 100 115 101
f 101 116 102
f 101 115 116
f 102 116 117
f 105 118 119
f 105 119 120
f 106 121 122
f 106 122 107
f 107 122 123
f 109 124 110
f 110 124 125
f 110 125 111
f 111 126 127
f 111 127 112
f 111 125 126
f 112 127 113
f 113 127 128
f 113 128 114
f 114 128 129
f 114 129 130
f 114 130 115
f 115 130 131
f 115 131 116
f 116 131 132
f 116 132 117
f 118 133 119
f 119 134 120
f 119 133 135
f 119 135 134
f 120 134 136
f 121 137 131
f 121 131 138
f 121 138 122
f 122 138 139
f 122 139 140
f 122 140 123
f 123 140 141
f 123 141 142
f 124 143 125
f 125 134 126
f 125 143 136
f 125 136 134
f 126 144 127
f 126 134 144
f 127 145 128
f 127 144 145
f 128 146 147
f 128 147 129
f 128 145 146
f 129 147 139
f 129 139 130
f 130 139 131
f 131 137 132
f 131 139 138
f 133 148 149
f 133 149 135
f 134 135 144
f 135 149 144
f 139 147 141
f 139 141 140
f 141 147 150
f 141 150 151
f 141 151 142
f 144 149 145
f 145 149 150
f 145 150 146
f 146 150 147
f 148 151 150
f 148 150 149

