# https://github.com/mikedh/trimesh
v 0.32002884 -0.09908941 0.47373626
v 0.33380955 -0.09908941 0.47373626
v 0.32010034 -0.09908941 0.48490250
v 0.33508903 0.00995501 0.48491538
v 0.33501753 0.00995501 0.47373626
v 0.34101602 -0.09908941 0.47642046
v 0.33547664 -0.09374128 0.47373626
v 0.32030731 -0.09908941 0.48951507
v 0.33528095 0.00995501 0.48952535
v 0.34816983 0.00995501 0.47373626
v 0.34131333 -0.09908941 0.47659531
v 0.34210360 -0.09559871 0.47642046
v 0.33993602 -0.07567929 0.47373626
v 0.34725159 -0.07477193 0.47642046
v 0.32063848 -0.09908941 0.49176219
v 0.33586425 0.00995501 0.49361339
v 0.35505265 0.00995501 0.47642046
v 0.35504514 -0.01095718 0.47642046
v 0.34815854 -0.01074369 0.47373626
v 0.34280729 -0.09908941 0.47747719
v 0.34375185 -0.09605774 0.47747719
v 0.34051931 -0.07330946 0.47373626
v 0.34388733 -0.05502330 0.47373626
v 0.35113519 -0.05365691 0.47642046
v 0.34891871 -0.07512420 0.47747719
v 0.32092071 -0.09908941 0.49360824
v 0.33688784 0.00995501 0.49639273
v 0.35676113 0.00995501 0.47747719
v 0.35674986 -0.01101056 0.47747719
v 0.35543650 -0.03253122 0.47747719
v 0.35373557 -0.03237110 0.47642046
v 0.34801176 -0.01317757 0.47373626
v 0.34473780 -0.09633528 0.47923583
v 0.34373304 -0.09908941 0.47899929
v 0.34432763 -0.05262144 0.47373626
v 0.35281733 -0.05392378 0.47747719
v 0.34991971 -0.07533769 0.47923583
v 0.35383716 -0.05407323 0.47923583
v 0.32214373 -0.09908941 0.49680668
v 0.33704212 0.00995501 0.49680668
v 0.35778472 0.00995501 0.47923583
v 0.35777721 -0.01104258 0.47923583
v 0.35646009 -0.03262729 0.47923583
v 0.34658176 -0.03416448 0.47373626
v 0.34687528 -0.03174128 0.47373626
v 0.34522703 -0.09646338 0.48156008
v 0.34441042 -0.09908941 0.48156008
v 0.34434268 -0.09908941 0.48126441
v 0.34387603 -0.09908941 0.47923583
v 0.35042772 -0.07544445 0.48156008
v 0.35434517 -0.05414796 0.48156008
v 0.32334042 -0.09908941 0.49793282
v 0.33898017 0.00995501 0.49872473
v 0.35829276 0.00995501 0.48156008
v 0.35828522 -0.01105326 0.48156008
v 0.35696810 -0.03266999 0.48156008
v 0.34539261 -0.09651676 0.48428544
v 0.34457225 -0.09908941 0.48394606
v 0.35059330 -0.07548714 0.48428544
v 0.35451075 -0.05417998 0.48428544
v 0.32418337 -0.09908941 0.49872473
v 0.34148642 0.00995501 0.49968117
v 0.35846961 0.00995501 0.48428544
v 0.35845080 -0.01105326 0.48428544
v 0.35713369 -0.03268067 0.48428544
v 0.34459105 -0.09908941 0.48428544
v 0.34539261 -0.09651676 0.49035066
v 0.35059330 -0.07548714 0.49035066
v 0.35451075 -0.05417998 0.49035066
v 0.32681006 -0.09908941 0.49968117
v 0.34433514 0.00995501 0.49999997
v 0.35846961 0.00995501 0.49035066
v 0.35845080 -0.01105326 0.49035066
v 0.35713369 -0.03268067 0.49035066
v 0.34459105 -0.09908941 0.49035066
v 0.34522703 -0.09646338 0.49332541
v 0.34441042 -0.09908941 0.49332541
v 0.35042772 -0.07544445 0.49332541
v 0.35434517 -0.05414796 0.49332541
v 0.35696810 -0.03266999 0.49332541
v 0.32979426 -0.09908941 0.49999997
v 0.35017559 0.00995501 0.49999997
v 0.35829276 0.00995501 0.49332541
v 0.35828522 -0.01105326 0.49332541
v 0.34473780 -0.09633528 0.49594024
v 0.34394756 -0.09908941 0.49559569
v 0.35383716 -0.05407323 0.49594024
v 0.34991971 -0.07533769 0.49594024
v 0.35646009 -0.03262729 0.49594024
v 0.35777721 -0.01104258 0.49594024
v 0.33591694 -0.09908941 0.49999997
v 0.35280982 0.00995501 0.49979943
v 0.35016808 -0.01080773 0.49999997
v 0.35280228 -0.01088246 0.49979943
v 0.35779977 0.00995501 0.49586567
v 0.34280729 -0.09908941 0.49797395
v 0.34296161 -0.09908941 0.49768084
v 0.34387603 -0.09908941 0.49594024
v 0.34891871 -0.07512420 0.49797395
v 0.34375185 -0.09605774 0.49797395
v 0.35281733 -0.05392378 0.49797395
v 0.35543650 -0.03253122 0.49797395
v 0.35674986 -0.01101056 0.49797395
v 0.35778472 0.00995501 0.49594024
v 0.35678747 0.00995501 0.49791738
v 0.33867159 -0.09908941 0.49979943
v 0.33741468 -0.09428570 0.49999997
v 0.35499620 0.00995501 0.49920553
v 0.34888482 -0.03193342 0.49999997
v 0.35150400 -0.03216827 0.49979943
v 0.35504514 -0.01095718 0.49919009
v 0.34101602 -0.09908941 0.49919009
v 0.35113519 -0.05365691 0.49919009
v 0.34725159 -0.07477193 0.49919009
v 0.34210360 -0.09559871 0.49919009
v 0.35373557 -0.03237110 0.49919009
v 0.35671222 0.00995501 0.49800739
v 0.34060210 -0.09908941 0.49929807
v 0.33994353 -0.09499024 0.49979943
v 0.34506145 -0.07429155 0.49979943
v 0.34248742 -0.07373645 0.49999997
v 0.35505265 0.00995501 0.49919009
v 0.34631833 -0.05293101 0.49999997
v 0.34891871 -0.05331531 0.49979943
f 1 2 6
f 1 6 11
f 1 11 20
f 1 20 34
f 1 34 49
f 1 49 48
f 1 48 47
f 1 47 58
f 1 58 66
f 1 66 75
f 1 75 77
f 1 77 86
f 1 86 98
f 1 98 97
f 1 97 96
f 1 96 112
f 1 112 118
f 1 118 106
f 1 106 91
f 1 91 81
f 1 81 70
f 1 70 61
f 1 61 52
f 1 52 39
f 1 39 26
f 1 26 15
f 1 15 8
f 1 8 3
f 1 3 4
f 1 4 5
f 1 5 10
f 1 10 19
f 1 19 32
f 1 32 45
f 1 45 44
f 1 44 35
f 1 35 23
f 1 23 22
f 1 22 13
f 1 13 7
f 1 7 2
f 2 7 6
f 3 8 9
f 3 9 4
f 4 9 16
f 4 16 27
f 4 27 40
f 4 40 53
f 4 53 62
f 4 62 71
f 4 71 82
f 4 82 92
f 4 92 108
f 4 108 122
f 4 122 117
f 4 117 105
f 4 105 104
f 4 104 95
f 4 95 83
f 4 83 72
f 4 72 63
f 4 63 54
f 4 54 41
f 4 41 28
f 4 28 17
f 4 17 10
f 4 10 5
f 6 7 12
f 6 12 11
f 7 13 14
f 7 14 12
f 8 15 16
f 8 16 9
f 10 17 18
f 10 18 19
f 11 12 21
f 11 21 20
f 12 14 21
f 13 22 14
f 14 22 23
f 14 23 24
f 14 24 25
f 14 25 21
f 15 26 16
f 16 26 27
f 17 28 18
f 18 29 30
f 18 30 31
f 18 31 32
f 18 32 19
f 18 28 29
f 20 21 33
f 20 33 34
f 21 25 33
f 23 35 24
f 24 36 25
f 24 35 31
f 24 31 30
f 24 30 36
f 25 37 33
f 25 36 38
f 25 38 37
f 26 39 40
f 26 40 27
f 28 41 42
f 28 42 29
f 29 42 43
f 29 43 30
f 30 43 38
f 30 38 36
f 31 35 44
f 31 44 45
f 31 45 32
f 33 46 47
f 33 47 48
f 33 48 49
f 33 49 34
f 33 37 50
f 33 50 46
f 37 38 50
f 38 51 50
f 38 43 51
f 39 52 53
f 39 53 40
f 41 54 55
f 41 55 42
f 42 55 56
f 42 56 43
f 43 56 51
f 46 57 58
f 46 58 47
f 46 50 57
f 50 51 59
f 50 59 57
f 51 60 59
f 51 56 60
f 52 61 53
f 53 61 62
f 54 63 55
f 55 64 65
f 55 65 56
f 55 63 64
f 56 65 60
f 57 66 58
f 57 59 68
f 57 68 67
f 57 67 75
f 57 75 66
f 59 60 69
f 59 69 68
f 60 65 74
f 60 74 69
f 61 70 62
f 62 70 71
f 63 72 73
f 63 73 64
f 64 73 74
f 64 74 65
f 67 76 77
f 67 77 75
f 67 68 78
f 67 78 76
f 68 69 79
f 68 79 78
f 69 74 80
f 69 80 79
f 70 81 71
f 71 81 91
f 71 91 107
f 71 107 121
f 71 121 123
f 71 123 109
f 71 109 93
f 71 93 82
f 72 83 84
f 72 84 73
f 73 84 74
f 74 84 80
f 76 85 77
f 76 78 85
f 77 85 86
f 78 79 87
f 78 87 88
f 78 88 85
f 79 80 89
f 79 89 87
f 80 84 90
f 80 90 89
f 82 93 94
f 82 94 92
f 83 95 84
f 84 95 90
f 85 96 97
f 85 97 98
f 85 98 86
f 85 88 99
f 85 99 100
f 85 100 96
f 87 101 99
f 87 99 88
f 87 89 102
f 87 102 101
f 89 90 103
f 89 103 102
f 90 95 104
f 90 104 105
f 90 105 103
f 91 106 107
f 92 94 108
f 93 109 94
f 94 109 110
f 94 110 111
f 94 111 108
f 96 100 112
f 99 101 113
f 99 113 114
f 99 114 100
f 100 114 115
f 100 115 112
f 101 102 113
f 102 116 113
f 102 103 111
f 102 111 116
f 103 105 117
f 103 117 111
f 106 118 115
f 106 115 119
f 106 119 107
f 107 119 120
f 107 120 121
f 108 111 122
f 109 123 110
f 110 123 124
f 110 124 113
f 110 113 116
f 110 116 111
f 111 117 122
f 112 115 118
f 113 124 120
f 113 120 114
f 114 120 115
f 115 120 119
f 120 124 123
f 120 123 121

