# https://github.com/mikedh/trimesh
v -0.35846210 0.01028739 0.48428544
v -0.35828853 0.01028739 0.48165521
v -0.35846210 0.01028739 0.49035066
v -0.35845420 0.01106658 0.48428544
v -0.35828066 0.01104926 0.48156008
v -0.35828066 0.01028739 0.48156008
v -0.35828066 0.01028739 0.49332541
v -0.35828066 0.01104926 0.49332541
v -0.35845420 0.01106658 0.49035066
v -0.35713688 0.03269336 0.48428544
v -0.35777581 0.01103195 0.47923583
v -0.35696334 0.03267604 0.48156008
v -0.35777581 0.01028739 0.47923583
v -0.35826486 0.01028739 0.49341542
v -0.35777581 0.01103195 0.49594024
v -0.35696334 0.03267604 0.49332541
v -0.35713688 0.03269336 0.49035066
v -0.35451010 0.05418161 0.48428544
v -0.35434446 0.05416429 0.48156008
v -0.35645849 0.03262410 0.47923583
v -0.35544091 0.03252020 0.47747719
v -0.35675034 0.01099732 0.47747719
v -0.35675034 0.01028739 0.47747719
v -0.35777581 0.01028739 0.49594024
v -0.35675034 0.01099732 0.49797395
v -0.35544091 0.03252020 0.49797395
v -0.35645849 0.03262410 0.49594024
v -0.35434446 0.05416429 0.49332541
v -0.35451010 0.05418161 0.49035066
v -0.35058969 0.07549670 0.48428544
v -0.35383171 0.05407771 0.47923583
v -0.35042402 0.07546207 0.48156008
v -0.34992707 0.07534087 0.47923583
v -0.35282204 0.05392187 0.47747719
v -0.35374495 0.03238168 0.47642046
v -0.35503861 0.01094537 0.47642046
v -0.35503861 0.01028739 0.47642046
v -0.35675034 0.01028739 0.49797395
v -0.35503861 0.01094537 0.49919009
v -0.35374495 0.03238168 0.49919009
v -0.35509384 0.01028739 0.49915409
v -0.35282204 0.05392187 0.49797395
v -0.35383171 0.05407771 0.49594024
v -0.34992707 0.07534087 0.49594024
v -0.35042402 0.07546207 0.49332541
v -0.35058969 0.07549670 0.49035066
v -0.34539139 0.09651744 0.48428544
v -0.34522572 0.09648281 0.48156008
v -0.34473667 0.09634429 0.47923583
v -0.34375063 0.09606724 0.47747719
v -0.34891739 0.07513309 0.47747719
v -0.35113397 0.05366215 0.47642046
v -0.34725299 0.07476946 0.47642046
v -0.34687436 0.03174102 0.47373626
v -0.34816012 0.01073759 0.47373626
v -0.34432647 0.05264055 0.47373626
v -0.34658250 0.03416515 0.47373626
v -0.34816012 0.01028739 0.47373882
v -0.35279837 0.01089343 0.49979943
v -0.35503861 0.01028739 0.49919009
v -0.35149682 0.03217389 0.49979943
v -0.34891739 0.05333316 0.49979943
v -0.35113397 0.05366215 0.49919009
v -0.34725299 0.07476946 0.49919009
v -0.34891739 0.07513309 0.49797395
v -0.34375063 0.09606724 0.49797395
v -0.34473667 0.09634429 0.49594024
v -0.34522572 0.09648281 0.49332541
v -0.34539139 0.09651744 0.49035066
v -0.33894673 0.11719188 0.48428544
v -0.33877319 0.11712261 0.48156008
v -0.33829203 0.11696678 0.47923583
v -0.33732966 0.11662047 0.47747719
v -0.34210989 0.09559973 0.47642046
v -0.34051648 0.07333229 0.47373626
v -0.34756061 0.01028739 0.47373626
v -0.35279837 0.01028739 0.49979943
v -0.35016373 0.01080685 0.49999997
v -0.34888583 0.03193148 0.49999997
v -0.34631428 0.05293490 0.49999997
v -0.34506008 0.07430195 0.49979943
v -0.34210989 0.09559973 0.49919009
v -0.33732966 0.11662047 0.49797395
v -0.33829203 0.11696678 0.49594024
v -0.33877319 0.11712261 0.49332541
v -0.33894673 0.11719188 0.49035066
v -0.33124000 0.13743342 0.48428544
v -0.33108222 0.13736416 0.48156008
v -0.33060893 0.13717370 0.47923583
v -0.32967025 0.13679276 0.47747719
v -0.33571258 0.11606638 0.47642046
v -0.32920486 0.11381540 0.47373626
v -0.33474234 0.09608456 0.47373626
v -0.33546805 0.09374700 0.47373626
v -0.33500266 0.01028739 0.47373626
v -0.35016373 0.01028739 0.49999997
v -0.34248063 0.07374786 0.49999997
v -0.33740854 0.09430109 0.49999997
v -0.33994064 0.09501101 0.49979943
v -0.33359069 0.11533915 0.49979943
v -0.33571258 0.11606638 0.49919009
v -0.32967025 0.13679276 0.49797395
v -0.33060893 0.13717370 0.49594024
v -0.33108222 0.13736416 0.49332541
v -0.33124000 0.13743342 0.49035066
v -0.32233426 0.15719014 0.48428544
v -0.32218438 0.15710357 0.48156008
v -0.32171896 0.15687847 0.47923583
v -0.32808474 0.13611747 0.47642046
v -0.32080394 0.15642828 0.47747719
v -0.31926575 0.15568373 0.47642046
v -0.32172686 0.13348556 0.47373626
v -0.32833716 0.11610101 0.47373626
v -0.33507365 0.01028739 0.48491281
v -0.27788439 0.18718021 0.47373626
v -0.34437379 0.01028739 0.49999997
v -0.33109802 0.11447338 0.49999997
v -0.32358846 0.13426474 0.49999997
v -0.32601804 0.13526902 0.49979943
v -0.32808474 0.13611747 0.49919009
v -0.31926575 0.15568373 0.49919009
v -0.32080394 0.15642828 0.49797395
v -0.32171896 0.15687847 0.49594024
v -0.32218438 0.15710357 0.49332541
v -0.32233426 0.15719014 0.49035066
v -0.31226894 0.17635816 0.48428544
v -0.31211907 0.17628890 0.48156008
v -0.31166944 0.17602918 0.47923583
v -0.31308141 0.15267086 0.47373626
v -0.31077808 0.17552704 0.47747719
v -0.30929509 0.17467858 0.47642046
v -0.31194553 0.15483528 0.47373626
v -0.33527085 0.01028739 0.48952535
v -0.27796328 0.18718021 0.48490250
v -0.29154670 0.18718021 0.47373626
v -0.34151039 0.01028739 0.49968630
v -0.28574890 0.18718021 0.49968117
v -0.28921181 0.18718021 0.49999997
v -0.31489569 0.15355395 0.49999997
v -0.31726214 0.15471408 0.49979943
v -0.30929509 0.17467858 0.49919009
v -0.31077808 0.17552704 0.49797395
v -0.31166944 0.17602918 0.49594024
v -0.31211907 0.17628890 0.49332541
v -0.31226894 0.17635816 0.49035066
v -0.30572966 0.18718021 0.48428544
v -0.30561131 0.18718021 0.48268881
v -0.30552456 0.18718021 0.48156008
v -0.30516958 0.18718021 0.48017427
v -0.30492505 0.18718021 0.47923583
v -0.30418357 0.18718021 0.47814310
v -0.30372605 0.18718021 0.47747719
v -0.30173823 0.18718021 0.47642046
v -0.30329221 0.17130211 0.47373626
v -0.33585459 0.01028739 0.49361852
v -0.27820781 0.18718021 0.48951507
v -0.29370019 0.18718021 0.47375682
v -0.30203009 0.17337993 0.47373626
v -0.33898619 0.01028739 0.49873245
v -0.28270409 0.18718021 0.49872473
v -0.28544915 0.18718021 0.49958861
v -0.29604298 0.18718021 0.49999997
v -0.30504337 0.17228907 0.49999997
v -0.30734673 0.17358771 0.49979943
v -0.30173823 0.18718021 0.49919009
v -0.30372605 0.18718021 0.49797395
v -0.30492505 0.18718021 0.49594024
v -0.30552456 0.18718021 0.49332541
v -0.30572966 0.18718021 0.49035066
v -0.33703780 0.01028739 0.49681696
v -0.27871266 0.18718021 0.49246410
v -0.27891776 0.18718021 0.49360824
v -0.28032973 0.18718021 0.49680668
v -0.29911935 0.18718021 0.49979943
v -0.29982930 0.18718021 0.49963489
v -0.27998266 0.18718021 0.49602509
f 1 2 6
f 1 6 13
f 1 13 23
f 1 23 37
f 1 37 58
f 1 58 76
f 1 76 95
f 1 95 114
f 1 114 133
f 1 133 155
f 1 155 170
f 1 170 159
f 1 159 136
f 1 136 116
f 1 116 96
f 1 96 77
f 1 77 60
f 1 60 41
f 1 41 38
f 1 38 24
f 1 24 14
f 1 14 7
f 1 7 3
f 1 3 9
f 1 9 4
f 1 4 5
f 1 5 2
f 2 5 6
f 3 7 8
f 3 8 9
f 4 9 17
f 4 17 10
f 4 10 12
f 4 12 5
f 5 11 13
f 5 13 6
f 5 12 11
f 7 14 8
f 8 14 15
f 8 15 16
f 8 16 17
f 8 17 9
f 10 17 29
f 10 29 18
f 10 18 19
f 10 19 12
f 11 12 20
f 11 20 21
f 11 21 22
f 11 22 23
f 11 23 13
f 12 19 20
f 14 24 15
f 15 24 38
f 15 38 25
f 15 25 26
f 15 26 27
f 15 27 16
f 16 27 28
f 16 28 17
f 17 28 29
f 18 29 46
f 18 46 30
f 18 30 19
f 19 31 20
f 19 30 32
f 19 32 33
f 19 33 31
f 20 31 34
f 20 34 21
f 21 35 22
f 21 34 35
f 22 35 36
f 22 36 37
f 22 37 23
f 25 39 40
f 25 40 26
f 25 38 41
f 25 41 39
f 26 42 27
f 26 40 42
f 27 42 43
f 27 43 28
f 28 43 44
f 28 44 45
f 28 45 46
f 28 46 29
f 30 46 69
f 30 69 47
f 30 47 48
f 30 48 32
f 31 33 34
f 32 48 49
f 32 49 33
f 33 49 50
f 33 50 51
f 33 51 34
f 34 52 35
f 34 51 53
f 34 53 52
f 35 54 55
f 35 55 36
f 35 52 56
f 35 56 57
f 35 57 54
f 36 55 37
f 37 55 58
f 39 59 40
f 39 41 60
f 39 60 77
f 39 77 59
f 40 59 61
f 40 61 62
f 40 62 63
f 40 63 42
f 42 63 64
f 42 64 65
f 42 65 44
f 42 44 43
f 44 65 66
f 44 66 67
f 44 67 45
f 45 67 68
f 45 68 69
f 45 69 46
f 47 69 86
f 47 86 70
f 47 70 48
f 48 70 71
f 48 71 72
f 48 72 49
f 49 72 73
f 49 73 50
f 50 74 53
f 50 53 51
f 50 73 74
f 52 53 56
f 53 74 75
f 53 75 56
f 54 57 56
f 54 56 75
f 54 75 94
f 54 94 93
f 54 93 92
f 54 92 113
f 54 113 112
f 54 112 129
f 54 129 132
f 54 132 154
f 54 154 158
f 54 158 135
f 54 135 115
f 54 115 95
f 54 95 76
f 54 76 55
f 55 76 58
f 59 77 96
f 59 96 78
f 59 78 79
f 59 79 61
f 61 79 62
f 62 80 81
f 62 81 64
f 62 64 63
f 62 79 80
f 64 81 82
f 64 82 66
f 64 66 65
f 66 82 83
f 66 83 67
f 67 83 84
f 67 84 68
f 68 84 85
f 68 85 86
f 68 86 69
f 70 86 105
f 70 105 87
f 70 87 88
f 70 88 71
f 71 88 72
f 72 88 89
f 72 89 90
f 72 90 73
f 73 90 91
f 73 91 74
f 74 91 92
f 74 92 93
f 74 93 94
f 74 94 75
f 78 96 116
f 78 116 138
f 78 138 162
f 78 162 163
f 78 163 139
f 78 139 118
f 78 118 117
f 78 117 98
f 78 98 97
f 78 97 80
f 78 80 79
f 80 97 81
f 81 97 98
f 81 98 99
f 81 99 82
f 82 99 100
f 82 100 101
f 82 101 83
f 83 101 102
f 83 102 84
f 84 102 103
f 84 103 104
f 84 104 85
f 85 104 86
f 86 104 105
f 87 105 125
f 87 125 106
f 87 106 107
f 87 107 88
f 88 107 89
f 89 107 108
f 89 108 90
f 90 109 91
f 90 108 110
f 90 110 111
f 90 111 109
f 91 109 112
f 91 112 113
f 91 113 92
f 95 115 114
f 98 117 100
f 98 100 99
f 100 117 118
f 100 118 119
f 100 119 101
f 101 119 120
f 101 120 102
f 102 120 121
f 102 121 122
f 102 122 123
f 102 123 103
f 103 123 124
f 103 124 104
f 104 124 105
f 105 124 125
f 106 125 145
f 106 145 126
f 106 126 127
f 106 127 107
f 107 127 108
f 108 127 128
f 108 128 110
f 109 111 129
f 109 129 112
f 110 128 130
f 110 130 131
f 110 131 111
f 111 131 132
f 111 132 129
f 114 115 134
f 114 134 133
f 115 135 157
f 115 157 153
f 115 153 152
f 115 152 151
f 115 151 150
f 115 150 149
f 115 149 148
f 115 148 147
f 115 147 146
f 115 146 169
f 115 169 168
f 115 168 167
f 115 167 166
f 115 166 165
f 115 165 175
f 115 175 174
f 115 174 162
f 115 162 138
f 115 138 137
f 115 137 161
f 115 161 160
f 115 160 173
f 115 173 176
f 115 176 172
f 115 172 171
f 115 171 156
f 115 156 134
f 116 136 137
f 116 137 138
f 118 139 140
f 118 140 119
f 119 140 120
f 120 140 121
f 121 140 141
f 121 141 122
f 122 141 142
f 122 142 143
f 122 143 123
f 123 143 144
f 123 144 124
f 124 144 125
f 125 144 145
f 126 145 169
f 126 169 146
f 126 146 127
f 127 146 147
f 127 147 148
f 127 148 149
f 127 149 150
f 127 150 128
f 128 150 151
f 128 151 130
f 130 151 152
f 130 152 153
f 130 153 131
f 131 153 154
f 131 154 132
f 133 134 156
f 133 156 155
f 135 158 157
f 136 159 160
f 136 160 161
f 136 161 137
f 139 163 164
f 139 164 140
f 140 164 141
f 141 164 165
f 141 165 142
f 142 165 166
f 142 166 167
f 142 167 143
f 143 167 144
f 144 167 168
f 144 168 169
f 144 169 145
f 153 157 158
f 153 158 154
f 155 156 171
f 155 171 172
f 155 172 170
f 159 170 173
f 159 173 160
f 162 174 164
f 162 164 163
f 164 174 175
f 164 175 165
f 170 172 176
f 170 176 173

