# https://github.com/mikedh/trimesh
v 0.16500276 0.31822550 0.49035066
v 0.17638031 0.31226015 0.49035066
v 0.16500276 0.31822550 0.48428544
v 0.16500276 0.31803307 0.49332541
v 0.17638031 0.31226015 0.48428544
v 0.17629765 0.31210619 0.49332541
v 0.19481027 0.30089390 0.49332541
v 0.19490668 0.30103502 0.49035066
v 0.16500276 0.31814852 0.48317218
v 0.16500276 0.31769952 0.49484751
v 0.17629765 0.31210619 0.48156008
v 0.16500276 0.31803307 0.48156008
v 0.19490668 0.30103502 0.48428544
v 0.19481027 0.30089390 0.48156008
v 0.16500276 0.31745577 0.49594024
v 0.17603594 0.31165719 0.49594024
v 0.19453478 0.30045772 0.49594024
v 0.21263416 0.28857833 0.49332541
v 0.21273059 0.28871948 0.49035066
v 0.17603594 0.31165719 0.47923583
v 0.16500276 0.31745577 0.47923583
v 0.19453478 0.30045772 0.47923583
v 0.21273059 0.28871948 0.48428544
v 0.21263416 0.28857833 0.48156008
v 0.16500276 0.31630120 0.49797395
v 0.17554006 0.31075919 0.49797395
v 0.19398381 0.29959822 0.49797395
v 0.21172506 0.28734678 0.49797395
v 0.21231735 0.28816783 0.49594024
v 0.22934234 0.27482596 0.49594024
v 0.22967292 0.27521083 0.49332541
v 0.22978312 0.27535194 0.49035066
v 0.17554006 0.31075919 0.47747719
v 0.16500276 0.31630120 0.47747719
v 0.16500276 0.31695545 0.47847220
v 0.19398381 0.29959822 0.47747719
v 0.21231735 0.28816783 0.47923583
v 0.21172506 0.28734678 0.47747719
v 0.22978312 0.27535194 0.48428544
v 0.22967292 0.27521083 0.48156008
v 0.22934234 0.27482596 0.47923583
v 0.16500276 0.31540316 0.49854475
v 0.17469984 0.30928388 0.49919009
v 0.19304717 0.29816139 0.49919009
v 0.21070576 0.28596130 0.49919009
v 0.22759300 0.27272207 0.49919009
v 0.22868118 0.27404341 0.49797395
v 0.24479707 0.25973940 0.49797395
v 0.24549955 0.26047063 0.49594024
v 0.24584392 0.26085550 0.49332541
v 0.24596788 0.26097095 0.49035066
v 0.17469984 0.30928388 0.47642046
v 0.16500276 0.31437689 0.47642046
v 0.19304717 0.29816139 0.47642046
v 0.21070576 0.28596130 0.47642046
v 0.22868118 0.27404341 0.47747719
v 0.22759300 0.27272207 0.47642046
v 0.24596788 0.26097095 0.48428544
v 0.24584392 0.26085550 0.48156008
v 0.24549955 0.26047063 0.47923583
v 0.24479707 0.25973940 0.47747719
v 0.16500276 0.31437689 0.49919009
v 0.16500276 0.31184962 0.49979943
v 0.17359790 0.30733392 0.49979943
v 0.19183502 0.29628840 0.49979943
v 0.20936966 0.28416526 0.49979943
v 0.22616048 0.27100301 0.49979943
v 0.24208353 0.25686577 0.49979943
v 0.24362625 0.25848219 0.49919009
v 0.25879171 0.24331865 0.49919009
v 0.26003140 0.24448606 0.49797395
v 0.26077521 0.24519165 0.49594024
v 0.26116088 0.24553803 0.49332541
v 0.26127109 0.24565348 0.49035066
v 0.18931434 0.29238847 0.47373626
v 0.17131138 0.30329287 0.47373626
v 0.16500276 0.30660269 0.47373626
v 0.20661481 0.28043211 0.47373626
v 0.24362625 0.25848219 0.47642046
v 0.23890167 0.25347900 0.47373626
v 0.22500345 0.26582021 0.47373626
v 0.22317147 0.26743662 0.47373626
v 0.26127109 0.24565348 0.48428544
v 0.26116088 0.24553803 0.48156008
v 0.26077521 0.24519165 0.47923583
v 0.26003140 0.24448606 0.47747719
v 0.25879171 0.24331865 0.47642046
v 0.16500276 0.30887336 0.49999997
v 0.17230311 0.30503759 0.49999997
v 0.19040251 0.29406902 0.49999997
v 0.20781317 0.28203571 0.49999997
v 0.22446625 0.26898891 0.49999997
v 0.24027911 0.25494146 0.49999997
v 0.25523797 0.23997036 0.49999997
v 0.25715259 0.24177921 0.49979943
v 0.27128497 0.22582029 0.49979943
v 0.27300677 0.22724427 0.49919009
v 0.27431530 0.22834754 0.49797395
v 0.27511421 0.22900181 0.49594024
v 0.27549991 0.22932252 0.49332541
v 0.27562386 0.22943799 0.49035066
v 0.16500276 0.29202926 0.47373626
v 0.24062346 0.25175995 0.47373626
v 0.27562386 0.22943799 0.48428544
v 0.27549991 0.22932252 0.48156008
v 0.27511421 0.22900181 0.47923583
v 0.27431530 0.22834754 0.47747719
v 0.25538948 0.23677601 0.47373626
v 0.25376412 0.23859769 0.47373626
v 0.27300677 0.22724427 0.47642046
v 0.26771745 0.22284403 0.47373626
v 0.16500276 0.30226657 0.49999997
v 0.26926017 0.22412691 0.49999997
v 0.28230438 0.20746240 0.49999997
v 0.28442562 0.20902751 0.49979943
v 0.28623006 0.21034887 0.49919009
v 0.28760749 0.21136233 0.49797395
v 0.28843394 0.21196528 0.49594024
v 0.28884715 0.21227318 0.49332541
v 0.28898489 0.21237580 0.49035066
v 0.16500276 0.29172137 0.47375426
v 0.27786908 0.18718022 0.47373626
v 0.28898489 0.21237580 0.48428544
v 0.28884715 0.21227318 0.48156008
v 0.28843394 0.21196528 0.47923583
v 0.28760749 0.21136233 0.47747719
v 0.28623006 0.21034887 0.47642046
v 0.28067902 0.20626934 0.47373626
v 0.16500276 0.29904658 0.49968117
v 0.28606474 0.18718022 0.49971458
v 0.28917775 0.18718022 0.49999997
v 0.29431555 0.19004101 0.49999997
v 0.29653320 0.19146501 0.49979943
v 0.29840648 0.19268373 0.49919009
v 0.29983902 0.19360739 0.49797395
v 0.30070680 0.19417186 0.49594024
v 0.30113381 0.19444126 0.49332541
v 0.30127156 0.19453107 0.49035066
v 0.27795172 0.18718022 0.48490250
v 0.16500276 0.29181117 0.48490250
v 0.28989401 0.18718022 0.47373626
v 0.30127156 0.19453107 0.48428544
v 0.30113381 0.19444126 0.48156008
v 0.30070680 0.19417186 0.47923583
v 0.29983902 0.19360739 0.47747719
v 0.29840648 0.19268373 0.47642046
v 0.28207022 0.20426805 0.47373626
v 0.16500276 0.29651931 0.49882498
v 0.28572041 0.18718022 0.49968117
v 0.29603732 0.18718022 0.49999997
v 0.29910898 0.18718022 0.49979943
v 0.30172610 0.18718022 0.49919009
v 0.30306220 0.18718022 0.49837762
v 0.30372337 0.18718022 0.49797395
v 0.30492172 0.18718022 0.49594024
v 0.30551404 0.18718022 0.49332541
v 0.30559665 0.18718022 0.49215558
v 0.30570686 0.18718022 0.49035066
v 0.27802059 0.18718022 0.48637062
v 0.16500276 0.29202926 0.48951507
v 0.29262131 0.18895057 0.47373626
v 0.29369569 0.18718022 0.47376454
v 0.30570686 0.18718022 0.48428544
v 0.30563799 0.18718022 0.48321074
v 0.30551404 0.18718022 0.48156008
v 0.30492172 0.18718022 0.47923583
v 0.30372337 0.18718022 0.47747719
v 0.30235970 0.18718022 0.47675213
v 0.30172610 0.18718022 0.47642046
v 0.16500276 0.29622427 0.49872473
v 0.28267628 0.18718022 0.49872473
v 0.27818587 0.18718022 0.48951507
v 0.16500276 0.29270920 0.49365452
v 0.27839249 0.18718022 0.49077234
v 0.27888837 0.18718022 0.49360824
v 0.16500276 0.29412034 0.49689925
v 0.28087187 0.18718022 0.49726433
v 0.16500276 0.29401773 0.49680668
v 0.27928782 0.18718022 0.49451071
v 0.28030711 0.18718022 0.49680668
f 1 2 5
f 1 5 3
f 1 3 9
f 1 9 12
f 1 12 21
f 1 21 35
f 1 35 34
f 1 34 53
f 1 53 77
f 1 77 102
f 1 102 121
f 1 121 140
f 1 140 160
f 1 160 173
f 1 173 178
f 1 178 176
f 1 176 170
f 1 170 148
f 1 148 129
f 1 129 112
f 1 112 88
f 1 88 63
f 1 63 62
f 1 62 42
f 1 42 25
f 1 25 15
f 1 15 10
f 1 10 4
f 1 4 2
f 2 4 6
f 2 6 7
f 2 7 8
f 2 8 13
f 2 13 5
f 3 5 9
f 4 10 6
f 5 11 12
f 5 12 9
f 5 13 14
f 5 14 11
f 6 10 15
f 6 15 16
f 6 16 17
f 6 17 7
f 7 17 18
f 7 18 19
f 7 19 8
f 8 19 23
f 8 23 13
f 11 20 21
f 11 21 12
f 11 14 22
f 11 22 20
f 13 23 24
f 13 24 14
f 14 24 22
f 15 25 16
f 16 25 26
f 16 26 27
f 16 27 17
f 17 27 28
f 17 28 29
f 17 29 18
f 18 29 30
f 18 30 31
f 18 31 32
f 18 32 19
f 19 32 39
f 19 39 23
f 20 33 34
f 20 34 35
f 20 35 21
f 20 22 36
f 20 36 33
f 22 24 37
f 22 37 38
f 22 38 36
f 23 39 24
f 24 39 40
f 24 40 41
f 24 41 37
f 25 42 26
f 26 42 43
f 26 43 27
f 27 43 44
f 27 44 28
f 28 44 45
f 28 45 46
f 28 46 47
f 28 47 30
f 28 30 29
f 30 47 48
f 30 48 49
f 30 49 50
f 30 50 31
f 31 50 32
f 32 50 51
f 32 51 58
f 32 58 39
f 33 52 34
f 33 36 52
f 34 52 53
f 36 54 52
f 36 38 54
f 37 41 38
f 38 55 54
f 38 41 56
f 38 56 57
f 38 57 55
f 39 58 59
f 39 59 40
f 40 59 41
f 41 59 60
f 41 60 61
f 41 61 56
f 42 62 43
f 43 62 63
f 43 63 64
f 43 64 65
f 43 65 44
f 44 65 45
f 45 65 66
f 45 66 67
f 45 67 46
f 46 67 68
f 46 68 69
f 46 69 48
f 46 48 47
f 48 69 70
f 48 70 71
f 48 71 72
f 48 72 49
f 49 72 73
f 49 73 50
f 50 73 51
f 51 73 74
f 51 74 83
f 51 83 58
f 52 54 75
f 52 75 76
f 52 76 53
f 53 76 77
f 54 55 75
f 55 78 75
f 55 57 78
f 56 61 57
f 57 61 79
f 57 79 80
f 57 80 81
f 57 81 82
f 57 82 78
f 58 83 84
f 58 84 59
f 59 84 60
f 60 84 85
f 60 85 61
f 61 85 86
f 61 86 87
f 61 87 79
f 63 88 64
f 64 88 89
f 64 89 65
f 65 90 91
f 65 91 66
f 65 89 90
f 66 91 92
f 66 92 67
f 67 92 68
f 68 93 94
f 68 94 95
f 68 95 70
f 68 70 69
f 68 92 93
f 70 95 96
f 70 96 97
f 70 97 98
f 70 98 71
f 71 98 99
f 71 99 72
f 72 99 73
f 73 99 100
f 73 100 101
f 73 101 74
f 74 101 104
f 74 104 83
f 75 78 82
f 75 82 81
f 75 81 80
f 75 80 103
f 75 103 109
f 75 109 108
f 75 108 111
f 75 111 128
f 75 128 147
f 75 147 161
f 75 161 141
f 75 141 122
f 75 122 102
f 75 102 77
f 75 77 76
f 79 87 103
f 79 103 80
f 83 104 84
f 84 104 105
f 84 105 106
f 84 106 85
f 85 106 86
f 86 106 107
f 86 107 87
f 87 108 109
f 87 109 103
f 87 107 110
f 87 110 111
f 87 111 108
f 88 112 131
f 88 131 150
f 88 150 132
f 88 132 114
f 88 114 113
f 88 113 94
f 88 94 93
f 88 93 92
f 88 92 91
f 88 91 90
f 88 90 89
f 94 113 96
f 94 96 95
f 96 113 114
f 96 114 115
f 96 115 116
f 96 116 97
f 97 116 98
f 98 116 117
f 98 117 99
f 99 117 118
f 99 118 119
f 99 119 100
f 100 119 120
f 100 120 101
f 101 120 123
f 101 123 104
f 102 122 121
f 104 123 105
f 105 123 124
f 105 124 106
f 106 124 125
f 106 125 126
f 106 126 107
f 107 126 127
f 107 127 110
f 110 127 111
f 111 127 128
f 112 129 130
f 112 130 131
f 114 132 115
f 115 132 133
f 115 133 116
f 116 133 134
f 116 134 117
f 117 134 135
f 117 135 136
f 117 136 118
f 118 136 119
f 119 136 137
f 119 137 120
f 120 137 138
f 120 138 142
f 120 142 123
f 121 122 139
f 121 139 140
f 122 141 162
f 122 162 169
f 122 169 168
f 122 168 167
f 122 167 166
f 122 166 165
f 122 165 164
f 122 164 163
f 122 163 158
f 122 158 157
f 122 157 156
f 122 156 155
f 122 155 154
f 122 154 153
f 122 153 152
f 122 152 151
f 122 151 150
f 122 150 131
f 122 131 130
f 122 130 149
f 122 149 171
f 122 171 177
f 122 177 180
f 122 180 179
f 122 179 175
f 122 175 174
f 122 174 172
f 122 172 159
f 122 159 139
f 123 142 143
f 123 143 124
f 124 143 144
f 124 144 125
f 125 144 126
f 126 144 145
f 126 145 146
f 126 146 127
f 127 146 147
f 127 147 128
f 129 148 149
f 129 149 130
f 132 150 133
f 133 150 151
f 133 151 152
f 133 152 134
f 134 152 153
f 134 153 154
f 134 154 135
f 135 154 136
f 136 154 155
f 136 155 156
f 136 156 137
f 137 156 157
f 137 157 138
f 138 157 158
f 138 158 163
f 138 163 142
f 139 159 140
f 140 159 160
f 141 161 162
f 142 163 164
f 142 164 143
f 143 164 165
f 143 165 144
f 144 165 166
f 144 166 167
f 144 167 145
f 145 167 168
f 145 168 146
f 146 168 169
f 146 169 161
f 146 161 147
f 148 170 171
f 148 171 149
f 159 172 160
f 160 172 174
f 160 174 175
f 160 175 173
f 161 169 162
f 170 176 171
f 171 176 177
f 173 175 179
f 173 179 180
f 173 180 178
f 176 178 180
f 176 180 177

