# https://github.com/mikedh/trimesh
v 0.27786952 0.18718021 0.47373626
v 0.27795631 0.18718021 0.48490250
v 0.28990912 0.18718021 0.47373626
v 0.33501422 0.00998302 0.47373626
v 0.33508524 0.00998302 0.48491538
v 0.27819300 0.18718021 0.48951507
v 0.33527458 0.00998302 0.48952535
v 0.29370403 0.18718021 0.47376454
v 0.29389340 0.18685061 0.47373626
v 0.34816629 0.00998302 0.47373626
v 0.27890307 0.18718021 0.49360824
v 0.33585843 0.00998302 0.49361339
v 0.30174360 0.18718021 0.47642046
v 0.30351087 0.17092629 0.47373626
v 0.34816629 0.01031261 0.47373626
v 0.35504603 0.00998302 0.47642046
v 0.28032318 0.18718021 0.49680668
v 0.33703399 0.00998302 0.49680668
v 0.30373177 0.18718021 0.47747719
v 0.31099814 0.17514154 0.47747719
v 0.30951488 0.17429155 0.47642046
v 0.31327826 0.15227851 0.47373626
v 0.34706172 0.02887364 0.47373626
v 0.35377580 0.03192668 0.47642046
v 0.35504603 0.01050342 0.47642046
v 0.35675812 0.00998302 0.47747719
v 0.28088334 0.18718021 0.49726433
v 0.33897483 0.00998302 0.49872473
v 0.30448920 0.18718021 0.47859049
v 0.31188968 0.17564461 0.47923583
v 0.32191741 0.15649378 0.47923583
v 0.32099432 0.15604277 0.47747719
v 0.31946373 0.15529686 0.47642046
v 0.32826069 0.13572970 0.47642046
v 0.32189375 0.13309300 0.47373626
v 0.34691182 0.03131954 0.47373626
v 0.35547209 0.03208280 0.47747719
v 0.35675812 0.01055546 0.47747719
v 0.34468693 0.04979384 0.47373626
v 0.35120380 0.05322850 0.47642046
v 0.35289216 0.05348870 0.47747719
v 0.35778376 0.00998302 0.47923583
v 0.28269008 0.18718021 0.49872473
v 0.34148374 0.00998302 0.49968117
v 0.30492312 0.18718021 0.47923583
v 0.30529392 0.18718021 0.48066279
v 0.31233940 0.17588747 0.48156008
v 0.32237503 0.15670195 0.48156008
v 0.33125088 0.13696133 0.48156008
v 0.33078539 0.13677052 0.47923583
v 0.32983863 0.13637154 0.47747719
v 0.33746791 0.11621460 0.47747719
v 0.33585054 0.11565951 0.47642046
v 0.32933369 0.11340442 0.47373626
v 0.35648984 0.03216953 0.47923583
v 0.35778376 0.01059016 0.47923583
v 0.35390204 0.05364482 0.47923583
v 0.34439501 0.05220504 0.47373626
v 0.34734574 0.07433951 0.47642046
v 0.34901837 0.07470380 0.47747719
v 0.35002035 0.07491195 0.47923583
v 0.35828871 0.00998302 0.48156008
v 0.28572759 0.18718021 0.49968117
v 0.34433192 0.00998302 0.49999997
v 0.30552274 0.18718021 0.48156008
v 0.30564895 0.18718021 0.48321074
v 0.31248927 0.17597419 0.48428544
v 0.32253280 0.15678868 0.48428544
v 0.33140865 0.13703072 0.48428544
v 0.33891961 0.11671765 0.48156008
v 0.33843833 0.11654419 0.47923583
v 0.34386641 0.09564134 0.47747719
v 0.34221748 0.09517297 0.47642046
v 0.33558229 0.09333422 0.47373626
v 0.33005953 0.11107995 0.47373626
v 0.35700268 0.03222157 0.48156008
v 0.35828871 0.01060750 0.48156008
v 0.35440698 0.05373156 0.48156008
v 0.34104982 0.07050587 0.47373626
v 0.33616611 0.09097506 0.47373626
v 0.34060800 0.07289973 0.47373626
v 0.34485263 0.09591889 0.47923583
v 0.35051739 0.07501604 0.48156008
v 0.35846227 0.00998302 0.48420575
v 0.28607476 0.18718021 0.49971458
v 0.35017812 0.00998302 0.49999997
v 0.28919116 0.18718021 0.49999997
v 0.30572787 0.18718021 0.48428544
v 0.31248927 0.17597419 0.49035066
v 0.32253280 0.15678868 0.49035066
v 0.33140865 0.13703072 0.49035066
v 0.33907741 0.11676969 0.48428544
v 0.34550747 0.09609235 0.48428544
v 0.34534177 0.09604031 0.48156008
v 0.35717624 0.03223892 0.48428544
v 0.35846227 0.01062485 0.48428544
v 0.35068306 0.07505073 0.48428544
v 0.35457265 0.05374890 0.48428544
v 0.35846227 0.00998302 0.49035066
v 0.35280538 0.00998302 0.49979943
v 0.35017812 0.01036465 0.49999997
v 0.29603937 0.18718021 0.49999997
v 0.30572787 0.18718021 0.49035066
v 0.31233940 0.17588747 0.49332541
v 0.32237503 0.15670195 0.49332541
v 0.33125088 0.13696133 0.49332541
v 0.33891961 0.11671765 0.49332541
v 0.33907741 0.11676969 0.49035066
v 0.34550747 0.09609235 0.49035066
v 0.35717624 0.03223892 0.49035066
v 0.35846227 0.01062485 0.49035066
v 0.35068306 0.07505073 0.49035066
v 0.35457265 0.05374890 0.49035066
v 0.35829657 0.00998302 0.49323544
v 0.35499081 0.00998302 0.49920553
v 0.35280538 0.01045138 0.49979943
v 0.35154304 0.03173586 0.49979943
v 0.34891579 0.03149301 0.49999997
v 0.30526236 0.17189771 0.49999997
v 0.29912421 0.18718021 0.49979943
v 0.30552274 0.18718021 0.49332541
v 0.30515981 0.18718021 0.49494007
v 0.31188968 0.17564461 0.49594024
v 0.32191741 0.15649378 0.49594024
v 0.33078539 0.13677052 0.49594024
v 0.33843833 0.11654419 0.49594024
v 0.34485263 0.09591889 0.49594024
v 0.34534177 0.09604031 0.49332541
v 0.35051739 0.07501604 0.49332541
v 0.35700268 0.03222157 0.49332541
v 0.35440698 0.05373156 0.49332541
v 0.35828871 0.01060750 0.49332541
v 0.35828871 0.00998302 0.49332541
v 0.35504603 0.00998302 0.49919009
v 0.35504603 0.01050342 0.49919009
v 0.35377580 0.03192668 0.49919009
v 0.35120380 0.05322850 0.49919009
v 0.34898680 0.05289891 0.49979943
v 0.34638321 0.05249994 0.49999997
v 0.30755037 0.17319871 0.49979943
v 0.31508499 0.15316319 0.49999997
v 0.30174360 0.18718021 0.49919009
v 0.30951488 0.17429155 0.49919009
v 0.30492312 0.18718021 0.49594024
v 0.30373177 0.18718021 0.49797395
v 0.31099814 0.17514154 0.49797395
v 0.32099432 0.15604277 0.49797395
v 0.32983863 0.13637154 0.49797395
v 0.33746791 0.11621460 0.49797395
v 0.34386641 0.09564134 0.49797395
v 0.34901837 0.07470380 0.49797395
v 0.35002035 0.07491195 0.49594024
v 0.35648984 0.03216953 0.49594024
v 0.35778376 0.01059016 0.49594024
v 0.35390204 0.05364482 0.49594024
v 0.35779953 0.00998302 0.49586567
v 0.35671076 0.00998302 0.49800739
v 0.35675812 0.01055546 0.49797395
v 0.35547209 0.03208280 0.49797395
v 0.35289216 0.05348870 0.49797395
v 0.34734574 0.07433951 0.49919009
v 0.34515244 0.07387115 0.49979943
v 0.34257251 0.07331605 0.49999997
v 0.31745186 0.15430810 0.49979943
v 0.32375571 0.13385625 0.49999997
v 0.32618570 0.13486236 0.49979943
v 0.31946373 0.15529686 0.49919009
v 0.32826069 0.13572970 0.49919009
v 0.33585054 0.11565951 0.49919009
v 0.34221748 0.09517297 0.49919009
v 0.35778376 0.00998302 0.49594024
v 0.35678178 0.00998302 0.49791738
v 0.34005570 0.09458318 0.49979943
v 0.33752313 0.09387197 0.49999997
v 0.33124298 0.11406360 0.49999997
v 0.33373612 0.11493094 0.49979943
f 1 2 6
f 1 6 11
f 1 11 17
f 1 17 27
f 1 27 43
f 1 43 63
f 1 63 85
f 1 85 87
f 1 87 102
f 1 102 120
f 1 120 142
f 1 142 145
f 1 145 144
f 1 144 122
f 1 122 121
f 1 121 103
f 1 103 88
f 1 88 66
f 1 66 65
f 1 65 46
f 1 46 45
f 1 45 29
f 1 29 19
f 1 19 13
f 1 13 8
f 1 8 3
f 1 3 9
f 1 9 14
f 1 14 22
f 1 22 35
f 1 35 54
f 1 54 75
f 1 75 74
f 1 74 80
f 1 80 81
f 1 81 79
f 1 79 58
f 1 58 39
f 1 39 36
f 1 36 23
f 1 23 15
f 1 15 10
f 1 10 4
f 1 4 5
f 1 5 2
f 2 5 7
f 2 7 6
f 3 8 9
f 4 10 16
f 4 16 26
f 4 26 42
f 4 42 62
f 4 62 84
f 4 84 99
f 4 99 114
f 4 114 133
f 4 133 156
f 4 156 171
f 4 171 172
f 4 172 157
f 4 157 134
f 4 134 115
f 4 115 100
f 4 100 86
f 4 86 64
f 4 64 44
f 4 44 28
f 4 28 18
f 4 18 12
f 4 12 7
f 4 7 5
f 6 7 12
f 6 12 11
f 8 13 9
f 9 13 14
f 10 15 25
f 10 25 16
f 11 12 18
f 11 18 17
f 13 19 20
f 13 20 21
f 13 21 14
f 14 21 22
f 15 23 24
f 15 24 25
f 16 25 38
f 16 38 26
f 17 18 28
f 17 28 27
f 19 29 20
f 20 29 30
f 20 30 31
f 20 31 32
f 20 32 33
f 20 33 21
f 21 33 22
f 22 33 34
f 22 34 35
f 23 36 24
f 24 37 38
f 24 38 25
f 24 36 39
f 24 39 40
f 24 40 41
f 24 41 37
f 26 38 56
f 26 56 42
f 27 28 43
f 28 44 43
f 29 45 30
f 30 45 46
f 30 46 47
f 30 47 31
f 31 48 49
f 31 49 50
f 31 50 32
f 31 47 48
f 32 50 51
f 32 51 33
f 33 51 34
f 34 51 52
f 34 52 53
f 34 53 35
f 35 53 54
f 37 55 56
f 37 56 38
f 37 41 57
f 37 57 55
f 39 58 40
f 40 58 59
f 40 59 60
f 40 60 41
f 41 60 61
f 41 61 57
f 42 56 77
f 42 77 62
f 43 44 63
f 44 64 63
f 46 65 47
f 47 65 66
f 47 66 67
f 47 67 68
f 47 68 48
f 48 68 49
f 49 68 69
f 49 69 70
f 49 70 50
f 50 70 71
f 50 71 52
f 50 52 51
f 52 71 72
f 52 72 53
f 53 72 73
f 53 73 74
f 53 74 75
f 53 75 54
f 55 57 76
f 55 76 56
f 56 76 77
f 57 61 78
f 57 78 76
f 58 79 59
f 59 80 73
f 59 73 72
f 59 72 60
f 59 79 81
f 59 81 80
f 60 72 82
f 60 82 61
f 61 82 83
f 61 83 78
f 62 77 84
f 63 64 85
f 64 86 101
f 64 101 118
f 64 118 139
f 64 139 163
f 64 163 174
f 64 174 175
f 64 175 165
f 64 165 141
f 64 141 119
f 64 119 102
f 64 102 87
f 64 87 85
f 66 88 67
f 67 88 103
f 67 103 89
f 67 89 90
f 67 90 68
f 68 90 91
f 68 91 69
f 69 91 108
f 69 108 92
f 69 92 70
f 70 92 93
f 70 93 94
f 70 94 82
f 70 82 71
f 71 82 72
f 73 80 74
f 76 95 96
f 76 96 77
f 76 78 95
f 77 96 84
f 78 83 97
f 78 97 98
f 78 98 95
f 82 94 83
f 83 94 93
f 83 93 97
f 84 96 111
f 84 111 99
f 86 100 116
f 86 116 101
f 89 103 104
f 89 104 90
f 90 105 106
f 90 106 91
f 90 104 105
f 91 106 107
f 91 107 108
f 92 108 109
f 92 109 93
f 93 109 112
f 93 112 97
f 95 110 111
f 95 111 96
f 95 98 113
f 95 113 110
f 97 112 113
f 97 113 98
f 99 111 114
f 100 115 116
f 101 116 117
f 101 117 118
f 102 119 120
f 103 121 104
f 104 121 122
f 104 122 123
f 104 123 124
f 104 124 105
f 105 124 106
f 106 124 125
f 106 125 107
f 107 125 126
f 107 126 127
f 107 127 128
f 107 128 109
f 107 109 108
f 109 128 129
f 109 129 112
f 110 130 132
f 110 132 111
f 110 113 131
f 110 131 130
f 111 132 114
f 112 129 131
f 112 131 113
f 114 132 133
f 115 134 135
f 115 135 116
f 116 135 136
f 116 136 117
f 117 136 137
f 117 137 138
f 117 138 139
f 117 139 118
f 119 140 120
f 119 141 140
f 120 140 143
f 120 143 142
f 122 144 123
f 123 144 145
f 123 145 146
f 123 146 124
f 124 147 125
f 124 146 147
f 125 148 149
f 125 149 126
f 125 147 148
f 126 149 150
f 126 150 127
f 127 150 151
f 127 151 152
f 127 152 129
f 127 129 128
f 129 152 131
f 130 153 154
f 130 154 132
f 130 131 155
f 130 155 153
f 131 152 155
f 132 154 156
f 132 156 133
f 134 157 158
f 134 158 135
f 135 158 136
f 136 159 160
f 136 160 137
f 136 158 159
f 137 160 151
f 137 151 161
f 137 161 138
f 138 161 162
f 138 162 139
f 139 162 163
f 140 141 164
f 140 164 143
f 141 165 166
f 141 166 164
f 142 143 146
f 142 146 145
f 143 164 167
f 143 167 146
f 146 167 147
f 147 167 148
f 148 167 168
f 148 168 149
f 149 168 169
f 149 169 150
f 150 170 161
f 150 161 151
f 150 169 170
f 151 160 152
f 152 160 155
f 153 155 159
f 153 159 154
f 154 159 158
f 154 158 171
f 154 171 156
f 155 160 159
f 157 172 158
f 158 172 171
f 161 170 173
f 161 173 162
f 162 173 174
f 162 174 163
f 164 166 168
f 164 168 167
f 165 175 176
f 165 176 166
f 166 176 168
f 168 176 169
f 169 176 170
f 170 176 173
f 173 176 174
f 174 176 175

