# https://github.com/mikedh/trimesh
v 0.01106336 0.35845158 0.49035066
v 0.01106336 0.35845158 0.48428544
v 0.01044306 0.35845158 0.49043295
v 0.01106336 0.35828176 0.49332541
v 0.03268295 0.35713223 0.49035066
v 0.01106336 0.35828176 0.48156008
v 0.01044306 0.35845158 0.48428544
v 0.03268295 0.35713223 0.48428544
v 0.01044306 0.35828176 0.49332541
v 0.01044306 0.35826871 0.49339741
v 0.01103310 0.35777232 0.49594024
v 0.03266782 0.35696241 0.49332541
v 0.05418152 0.35450661 0.49035066
v 0.01103310 0.35777232 0.47923583
v 0.01044306 0.35828176 0.48156008
v 0.03266782 0.35696241 0.48156008
v 0.05418152 0.35450661 0.48428544
v 0.01044306 0.35777232 0.49594024
v 0.01044306 0.35774618 0.49599680
v 0.01100284 0.35674688 0.49797395
v 0.03262243 0.35645297 0.49594024
v 0.05416639 0.35433680 0.49332541
v 0.07545314 0.35042447 0.49332541
v 0.07549853 0.35058776 0.49035066
v 0.01100284 0.35674688 0.47747719
v 0.01044306 0.35777232 0.47923583
v 0.03262243 0.35645297 0.47923583
v 0.05416639 0.35433680 0.48156008
v 0.07549853 0.35058776 0.48428544
v 0.07545314 0.35042447 0.48156008
v 0.01044306 0.35674688 0.49797395
v 0.01095745 0.35503566 0.49919009
v 0.03236524 0.35372937 0.49919009
v 0.03253166 0.35542753 0.49797395
v 0.05392432 0.35282150 0.49797395
v 0.05409074 0.35382733 0.49594024
v 0.07534724 0.34992155 0.49594024
v 0.09645244 0.34523198 0.49332541
v 0.09651296 0.34538874 0.49035066
v 0.03253166 0.35542753 0.47747719
v 0.03236524 0.35372937 0.47642046
v 0.01095745 0.35503566 0.47642046
v 0.01044306 0.35670117 0.47745147
v 0.01044306 0.35677302 0.47752348
v 0.05409074 0.35382733 0.47923583
v 0.05392432 0.35282150 0.47747719
v 0.07534724 0.34992155 0.47923583
v 0.09651296 0.34538874 0.48428544
v 0.09645244 0.34523198 0.48156008
v 0.01044306 0.35503566 0.49919009
v 0.01089694 0.35279536 0.49979943
v 0.03216856 0.35149562 0.49979943
v 0.05333428 0.34891570 0.49979943
v 0.05366712 0.35112986 0.49919009
v 0.07477233 0.34725672 0.49919009
v 0.07513542 0.34892222 0.49797395
v 0.09604395 0.34374934 0.49797395
v 0.09633141 0.34472907 0.49594024
v 0.11696760 0.33828908 0.49594024
v 0.11713403 0.33877239 0.49332541
v 0.11717942 0.33892915 0.49035066
v 0.05366712 0.35112986 0.47642046
v 0.03416561 0.34657747 0.47373626
v 0.03174494 0.34687138 0.47373626
v 0.01316631 0.34800783 0.47373626
v 0.01074564 0.34815153 0.47373626
v 0.01044306 0.34815806 0.47373882
v 0.01044306 0.35498992 0.47640505
v 0.07513542 0.34892222 0.47747719
v 0.07477233 0.34725672 0.47642046
v 0.09633141 0.34472907 0.47923583
v 0.09604395 0.34374934 0.47747719
v 0.11717942 0.33892915 0.48428544
v 0.11713403 0.33877239 0.48156008
v 0.11696760 0.33828908 0.47923583
v 0.01044306 0.35279536 0.49979943
v 0.01080616 0.35016322 0.49999997
v 0.03192649 0.34886998 0.49999997
v 0.05294092 0.34631619 0.49999997
v 0.07430332 0.34506217 0.49979943
v 0.09559008 0.34210342 0.49919009
v 0.11607499 0.33570915 0.49919009
v 0.11661964 0.33732241 0.49797395
v 0.13678683 0.32966760 0.49797395
v 0.13718019 0.33060813 0.49594024
v 0.13737687 0.33107838 0.49332541
v 0.13743739 0.33124167 0.49035066
v 0.05262321 0.34432411 0.47373626
v 0.01044306 0.34777272 0.47373626
v 0.09559008 0.34210342 0.47642046
v 0.09372919 0.33547401 0.47373626
v 0.07331993 0.34052283 0.47373626
v 0.11661964 0.33732241 0.47747719
v 0.11607499 0.33570915 0.47642046
v 0.13743739 0.33124167 0.48428544
v 0.13737687 0.33107838 0.48156008
v 0.13718019 0.33060813 0.47923583
v 0.13678683 0.32966760 0.47747719
v 0.01044306 0.35016322 0.49999997
v 0.07375868 0.34248877 0.49999997
v 0.09498491 0.33994153 0.49979943
v 0.11533365 0.33359298 0.49979943
v 0.13613628 0.32808697 0.49919009
v 0.15569830 0.31928262 0.49919009
v 0.15643963 0.32081097 0.49797395
v 0.15689352 0.32173190 0.49594024
v 0.15710533 0.32218912 0.49332541
v 0.15718096 0.32234585 0.49035066
v 0.01044306 0.33552629 0.47373626
v 0.09605908 0.33474904 0.47373626
v 0.13613628 0.32808697 0.47642046
v 0.13348867 0.32173190 0.47373626
v 0.11610524 0.32832864 0.47373626
v 0.11382074 0.32919079 0.47373626
v 0.15718096 0.32234585 0.48428544
v 0.15710533 0.32218912 0.48156008
v 0.15689352 0.32173190 0.47923583
v 0.15643963 0.32081097 0.47747719
v 0.15569830 0.31928262 0.47642046
v 0.01044306 0.34434369 0.49999997
v 0.09427384 0.33740732 0.49999997
v 0.11447129 0.33109796 0.49999997
v 0.13426027 0.32358682 0.49999997
v 0.13527392 0.32601652 0.49979943
v 0.15471491 0.31726441 0.49979943
v 0.16498762 0.31185639 0.49979943
v 0.16498762 0.31439060 0.49919009
v 0.16498762 0.31631082 0.49797395
v 0.16498762 0.31682026 0.49708694
v 0.16498762 0.31746688 0.49594024
v 0.16498762 0.31804818 0.49332541
v 0.16498762 0.31824413 0.49035066
v 0.01044306 0.33499724 0.47374654
v 0.16482121 0.29183757 0.47373626
v 0.13571265 0.32073259 0.47373626
v 0.16498762 0.31824413 0.48428544
v 0.16498762 0.31804818 0.48156008
v 0.16498762 0.31746688 0.47923583
v 0.16498762 0.31631082 0.47747719
v 0.16498762 0.31439060 0.47642046
v 0.16498762 0.30661166 0.47373626
v 0.15483594 0.31194782 0.47373626
v 0.15267247 0.31308430 0.47373626
v 0.01044306 0.34148294 0.49968374
v 0.16498762 0.29906133 0.49968117
v 0.16498762 0.29962957 0.49973774
v 0.16498762 0.30228132 0.49999997
v 0.15354997 0.31490004 0.49999997
v 0.16498762 0.30888459 0.49999997
v 0.16498762 0.29173309 0.47375426
v 0.01044306 0.33506909 0.48490250
v 0.16498762 0.29204005 0.47373626
v 0.01044306 0.33896181 0.49872473
v 0.16498762 0.29622668 0.49872473
v 0.16498762 0.29181799 0.48490250
v 0.01044306 0.33525848 0.48951507
v 0.01044306 0.33702198 0.49680668
v 0.16498762 0.29402560 0.49680668
v 0.16498762 0.29413012 0.49689925
v 0.16498762 0.29204005 0.48951507
v 0.01044306 0.33583978 0.49360824
v 0.16498762 0.29272586 0.49365452
f 1 2 7
f 1 7 3
f 1 3 4
f 1 4 5
f 1 5 8
f 1 8 2
f 2 6 15
f 2 15 7
f 2 8 6
f 3 7 15
f 3 15 26
f 3 26 44
f 3 44 43
f 3 43 68
f 3 68 67
f 3 67 89
f 3 89 109
f 3 109 133
f 3 133 151
f 3 151 156
f 3 156 161
f 3 161 157
f 3 157 153
f 3 153 144
f 3 144 120
f 3 120 99
f 3 99 76
f 3 76 50
f 3 50 31
f 3 31 19
f 3 19 18
f 3 18 10
f 3 10 9
f 3 9 4
f 4 9 10
f 4 10 11
f 4 11 12
f 4 12 5
f 5 12 22
f 5 22 13
f 5 13 17
f 5 17 8
f 6 14 26
f 6 26 15
f 6 8 16
f 6 16 14
f 8 17 28
f 8 28 16
f 10 18 11
f 11 18 19
f 11 19 20
f 11 20 21
f 11 21 12
f 12 21 22
f 13 22 23
f 13 23 24
f 13 24 29
f 13 29 17
f 14 25 26
f 14 16 27
f 14 27 25
f 16 28 27
f 17 29 30
f 17 30 28
f 19 31 20
f 20 32 33
f 20 33 34
f 20 34 21
f 20 31 50
f 20 50 32
f 21 34 35
f 21 35 36
f 21 36 22
f 22 36 37
f 22 37 23
f 23 37 38
f 23 38 24
f 24 38 39
f 24 39 48
f 24 48 29
f 25 27 40
f 25 40 41
f 25 41 42
f 25 42 43
f 25 43 44
f 25 44 26
f 27 28 45
f 27 45 46
f 27 46 40
f 28 30 47
f 28 47 45
f 29 48 49
f 29 49 30
f 30 49 47
f 32 51 33
f 32 50 76
f 32 76 51
f 33 51 52
f 33 52 53
f 33 53 54
f 33 54 35
f 33 35 34
f 35 54 55
f 35 55 56
f 35 56 37
f 35 37 36
f 37 56 57
f 37 57 58
f 37 58 38
f 38 58 59
f 38 59 60
f 38 60 39
f 39 60 61
f 39 61 73
f 39 73 48
f 40 46 41
f 41 46 62
f 41 62 63
f 41 63 64
f 41 64 65
f 41 65 42
f 42 66 67
f 42 67 68
f 42 68 43
f 42 65 66
f 45 47 46
f 46 47 69
f 46 69 70
f 46 70 62
f 47 49 71
f 47 71 72
f 47 72 69
f 48 73 74
f 48 74 49
f 49 74 75
f 49 75 71
f 51 76 99
f 51 99 77
f 51 77 52
f 52 77 78
f 52 78 79
f 52 79 53
f 53 79 80
f 53 80 55
f 53 55 54
f 55 80 81
f 55 81 57
f 55 57 56
f 57 81 82
f 57 82 83
f 57 83 59
f 57 59 58
f 59 83 84
f 59 84 85
f 59 85 60
f 60 85 86
f 60 86 87
f 60 87 61
f 61 87 95
f 61 95 73
f 62 70 88
f 62 88 63
f 63 88 92
f 63 92 91
f 63 91 110
f 63 110 114
f 63 114 113
f 63 113 112
f 63 112 135
f 63 135 143
f 63 143 142
f 63 142 141
f 63 141 152
f 63 152 134
f 63 134 109
f 63 109 89
f 63 89 66
f 63 66 65
f 63 65 64
f 66 89 67
f 69 72 70
f 70 72 90
f 70 90 91
f 70 91 92
f 70 92 88
f 71 75 72
f 72 75 93
f 72 93 94
f 72 94 90
f 73 95 74
f 74 95 96
f 74 96 97
f 74 97 75
f 75 97 98
f 75 98 93
f 77 99 120
f 77 120 147
f 77 147 149
f 77 149 148
f 77 148 123
f 77 123 122
f 77 122 121
f 77 121 100
f 77 100 79
f 77 79 78
f 79 100 80
f 80 100 101
f 80 101 81
f 81 101 102
f 81 102 82
f 82 102 103
f 82 103 84
f 82 84 83
f 84 103 104
f 84 104 105
f 84 105 106
f 84 106 85
f 85 106 86
f 86 106 107
f 86 107 108
f 86 108 87
f 87 108 115
f 87 115 95
f 90 94 110
f 90 110 91
f 93 98 94
f 94 98 111
f 94 111 112
f 94 112 113
f 94 113 114
f 94 114 110
f 95 115 96
f 96 115 116
f 96 116 117
f 96 117 97
f 97 117 98
f 98 117 118
f 98 118 119
f 98 119 111
f 100 121 101
f 101 121 102
f 102 121 122
f 102 122 123
f 102 123 124
f 102 124 103
f 103 124 104
f 104 125 126
f 104 126 127
f 104 127 128
f 104 128 105
f 104 124 125
f 105 128 129
f 105 129 106
f 106 129 130
f 106 130 131
f 106 131 107
f 107 131 108
f 108 131 132
f 108 132 136
f 108 136 115
f 109 134 133
f 111 135 112
f 111 119 135
f 115 136 137
f 115 137 116
f 116 137 117
f 117 137 138
f 117 138 139
f 117 139 118
f 118 139 119
f 119 139 140
f 119 140 141
f 119 141 142
f 119 142 143
f 119 143 135
f 120 144 145
f 120 145 146
f 120 146 147
f 123 148 125
f 123 125 124
f 125 148 149
f 125 149 126
f 126 149 147
f 126 147 146
f 126 146 145
f 126 145 154
f 126 154 159
f 126 159 158
f 126 158 162
f 126 162 160
f 126 160 155
f 126 155 150
f 126 150 152
f 126 152 141
f 126 141 140
f 126 140 139
f 126 139 138
f 126 138 137
f 126 137 136
f 126 136 132
f 126 132 131
f 126 131 130
f 126 130 129
f 126 129 128
f 126 128 127
f 133 150 151
f 133 134 150
f 134 152 150
f 144 153 154
f 144 154 145
f 150 155 151
f 151 155 156
f 153 157 158
f 153 158 159
f 153 159 154
f 155 160 156
f 156 160 161
f 157 161 162
f 157 162 158
f 160 162 161

