# https://github.com/mikedh/trimesh
v -0.15303801 -0.29804474 0.47373626
v -0.15303801 -0.31289923 0.47373626
v -0.15303801 -0.29812166 0.48490250
v 0.08985268 -0.32297969 0.48490766
v 0.08985268 -0.32290870 0.47373626
v -0.15268138 -0.31308854 0.47373626
v -0.15303801 -0.32048324 0.47642046
v -0.15303801 -0.29826364 0.48796213
v 0.08985268 -0.32317489 0.48951507
v 0.08985268 -0.33644396 0.47373626
v -0.13349453 -0.32173145 0.47373626
v -0.15303801 -0.32235262 0.47747719
v -0.13613361 -0.32809681 0.47642046
v -0.15303801 -0.29834053 0.48951507
v 0.08985268 -0.32378423 0.49360824
v 0.08985268 -0.34353697 0.47642046
v 0.07287696 -0.34061459 0.47373626
v -0.11380841 -0.32920307 0.47373626
v -0.15303801 -0.32347661 0.47923583
v -0.13677555 -0.32966450 0.47747719
v -0.13717973 -0.33061695 0.47923583
v -0.11606708 -0.33570451 0.47642046
v -0.11663769 -0.33732542 0.47747719
v -0.15303801 -0.29899719 0.49360824
v 0.08985268 -0.32495555 0.49672955
v 0.08985268 -0.34529394 0.47747719
v 0.07432726 -0.34734672 0.47642046
v 0.05321460 -0.35120380 0.47642046
v 0.05219226 -0.34438884 0.47373626
v -0.09374187 -0.33547378 0.47373626
v -0.09559636 -0.34210536 0.47642046
v -0.15303801 -0.32358900 0.47969604
v -0.11697055 -0.33828968 0.47923583
v -0.11713698 -0.33877477 0.48156008
v -0.13736995 -0.33108428 0.48156008
v -0.15303801 -0.32403269 0.48156008
v -0.09604809 -0.34375584 0.47747719
v -0.09633340 -0.34473786 0.47923583
v -0.15303801 -0.29992005 0.49584767
v 0.08985268 -0.32498512 0.49680668
v 0.08985268 -0.34634694 0.47923583
v 0.07489788 -0.35002065 0.47923583
v 0.07468390 -0.34901497 0.47747719
v 0.05347613 -0.35288978 0.47747719
v 0.03207817 -0.35548088 0.47747719
v 0.03191174 -0.35377714 0.47642046
v 0.03129358 -0.34691486 0.47373626
v -0.07331870 -0.34052584 0.47373626
v -0.07474523 -0.34725797 0.47642046
v -0.07512563 -0.34893215 0.47747719
v -0.09645228 -0.34522888 0.48156008
v -0.11718453 -0.33894041 0.48428544
v -0.13744128 -0.33123809 0.48428544
v -0.15303801 -0.32422200 0.48428544
v -0.15303801 -0.32407409 0.48212573
v -0.07533962 -0.34993190 0.47923583
v -0.07543472 -0.35042882 0.48156008
v -0.15303801 -0.30031639 0.49680668
v 0.08985268 -0.32699057 0.49872473
v 0.08985268 -0.34687936 0.48156008
v 0.07501675 -0.35052347 0.48156008
v 0.05361879 -0.35390729 0.47923583
v 0.03214949 -0.35649839 0.47923583
v 0.01053755 -0.35677052 0.47747719
v 0.01049000 -0.35506088 0.47642046
v 0.01029979 -0.34818083 0.47373626
v -0.05501155 -0.34389192 0.47373626
v -0.05365635 -0.35113871 0.47642046
v -0.05391788 -0.35282472 0.47747719
v -0.09649983 -0.34539452 0.48428544
v -0.11718453 -0.33894041 0.49035066
v -0.13744128 -0.33123809 0.49035066
v -0.15303801 -0.32422200 0.49035066
v -0.05406053 -0.35383630 0.47923583
v -0.05413186 -0.35434505 0.48156008
v -0.07548227 -0.35059446 0.48428544
v -0.15303801 -0.30251706 0.49872473
v 0.08985268 -0.32935098 0.49960405
v 0.08985268 -0.34705684 0.48428544
v 0.07504053 -0.35068911 0.48428544
v 0.05371389 -0.35458168 0.48428544
v 0.05369011 -0.35440421 0.48156008
v 0.03219704 -0.35700715 0.48156008
v 0.01058510 -0.35830271 0.48156008
v 0.01058510 -0.35778803 0.47923583
v -0.01105062 -0.35777029 0.47923583
v -0.01100307 -0.35675278 0.47747719
v -0.01095552 -0.35504904 0.47642046
v -0.01074154 -0.34816310 0.47373626
v -0.05261023 -0.34432968 0.47373626
v -0.03416042 -0.34658358 0.47373626
v -0.03173532 -0.34687936 0.47373626
v -0.03235348 -0.35373574 0.47642046
v -0.03251991 -0.35543948 0.47747719
v -0.09649983 -0.34539452 0.49035066
v -0.11713698 -0.33877477 0.49332541
v -0.13736995 -0.33108428 0.49332541
v -0.15303801 -0.32403269 0.49332541
v -0.03259124 -0.35645700 0.47923583
v -0.03266257 -0.35696575 0.48156008
v -0.03266257 -0.35713729 0.48428544
v -0.05415563 -0.35451069 0.48428544
v -0.07548227 -0.35059446 0.49035066
v -0.15303801 -0.30480647 0.49949604
v 0.08985268 -0.32956395 0.49968117
v 0.08985268 -0.34705684 0.49035066
v 0.07504053 -0.35068911 0.49035066
v 0.05371389 -0.35458168 0.49035066
v 0.03222083 -0.35717872 0.48428544
v 0.01058510 -0.35847425 0.48428544
v -0.01105062 -0.35829088 0.48156008
v -0.01319042 -0.34801519 0.47373626
v -0.09645228 -0.34522888 0.49332541
v -0.09633340 -0.34473786 0.49594024
v -0.11697055 -0.33828968 0.49594024
v -0.13717973 -0.33061695 0.49594024
v -0.15303801 -0.32392028 0.49386021
v -0.03266257 -0.35713729 0.49035066
v -0.01107440 -0.35845652 0.48428544
v -0.05415563 -0.35451069 0.49035066
v -0.05413186 -0.35434505 0.49332541
v -0.07543472 -0.35042882 0.49332541
v -0.15303801 -0.30535662 0.49968117
v 0.08985268 -0.33249816 0.49999997
v 0.08985268 -0.34687936 0.49332541
v 0.07501675 -0.35052347 0.49332541
v 0.05369011 -0.35440421 0.49332541
v 0.03219704 -0.35700715 0.49332541
v 0.03222083 -0.35717872 0.49035066
v 0.01058510 -0.35847425 0.49035066
v -0.07533962 -0.34993190 0.49594024
v -0.09604809 -0.34375584 0.49797395
v -0.11663769 -0.33732542 0.49797395
v -0.13677555 -0.32966450 0.49797395
v -0.15303801 -0.32235262 0.49797395
v -0.15303801 -0.32326365 0.49633104
v -0.15303801 -0.32347661 0.49594024
v -0.01107440 -0.35845652 0.49035066
v -0.01105062 -0.35829088 0.49332541
v -0.03266257 -0.35696575 0.49332541
v -0.05406053 -0.35383630 0.49594024
v -0.15303801 -0.30856889 0.49999997
v 0.08985268 -0.33852041 0.49999997
v 0.08985268 -0.34634694 0.49594024
v 0.07489788 -0.35002065 0.49594024
v 0.05361879 -0.35390729 0.49594024
v 0.03214949 -0.35649839 0.49594024
v 0.01058510 -0.35830271 0.49332541
v -0.07512563 -0.34893215 0.49797395
v -0.05391788 -0.35282472 0.49797395
v -0.09559636 -0.34210536 0.49919009
v -0.11606708 -0.33570451 0.49919009
v -0.13613361 -0.32809681 0.49919009
v -0.15303801 -0.32048324 0.49919009
v 0.01058510 -0.35778803 0.49594024
v -0.01105062 -0.35777029 0.49594024
v -0.03259124 -0.35645700 0.49594024
v -0.03251991 -0.35543948 0.49797395
v -0.15303801 -0.31513539 0.49999997
v 0.08985268 -0.34122390 0.49979943
v 0.07330491 -0.34257862 0.49999997
v 0.07385176 -0.34515789 0.49979943
v 0.08985268 -0.34558973 0.49740574
v 0.07468390 -0.34901497 0.49797395
v 0.05347613 -0.35288978 0.49797395
v 0.03207817 -0.35548088 0.49797395
v 0.01053755 -0.35677052 0.49797395
v -0.05365635 -0.35113871 0.49919009
v -0.07474523 -0.34725797 0.49919009
v -0.07429349 -0.34506324 0.49979943
v -0.09497820 -0.33994609 0.49979943
v -0.11533004 -0.33359256 0.49979943
v -0.13527769 -0.32602039 0.49979943
v -0.15303801 -0.31802228 0.49979943
v -0.01100307 -0.35675278 0.49797395
v -0.01095552 -0.35504904 0.49919009
v -0.03235348 -0.35373574 0.49919009
v -0.13425535 -0.32359493 0.49999997
v 0.08985268 -0.34296313 0.49934179
v 0.05247756 -0.34638244 0.49999997
v 0.05288175 -0.34897947 0.49979943
v 0.05321460 -0.35120380 0.49919009
v 0.07432726 -0.34734672 0.49919009
v 0.08985268 -0.34529394 0.49797395
v 0.03191174 -0.35377714 0.49919009
v 0.01049000 -0.35506088 0.49919009
v -0.03216328 -0.35150549 0.49979943
v -0.05332349 -0.34892032 0.49979943
v -0.07372288 -0.34248987 0.49999997
v -0.09426493 -0.33741415 0.49999997
v -0.11447412 -0.33109611 0.49999997
v -0.01088419 -0.35280696 0.49979943
v 0.01041867 -0.35282472 0.49979943
v 0.08985268 -0.34353697 0.49919009
v 0.03148378 -0.34892032 0.49999997
v 0.03172154 -0.35154098 0.49979943
v -0.01081287 -0.35017446 0.49999997
v -0.03190175 -0.34887889 0.49999997
v -0.05291931 -0.34631145 0.49999997
v 0.01034735 -0.35018629 0.49999997
f 1 2 7
f 1 7 12
f 1 12 19
f 1 19 32
f 1 32 36
f 1 36 55
f 1 55 54
f 1 54 73
f 1 73 98
f 1 98 117
f 1 117 137
f 1 137 136
f 1 136 135
f 1 135 154
f 1 154 174
f 1 174 159
f 1 159 142
f 1 142 123
f 1 123 104
f 1 104 77
f 1 77 58
f 1 58 39
f 1 39 24
f 1 24 14
f 1 14 8
f 1 8 3
f 1 3 4
f 1 4 5
f 1 5 10
f 1 10 17
f 1 17 29
f 1 29 47
f 1 47 66
f 1 66 89
f 1 89 112
f 1 112 92
f 1 92 91
f 1 91 90
f 1 90 67
f 1 67 48
f 1 48 30
f 1 30 18
f 1 18 11
f 1 11 6
f 1 6 2
f 2 6 7
f 3 8 9
f 3 9 4
f 4 9 15
f 4 15 25
f 4 25 40
f 4 40 59
f 4 59 78
f 4 78 105
f 4 105 124
f 4 124 143
f 4 143 160
f 4 160 179
f 4 179 194
f 4 194 184
f 4 184 163
f 4 163 144
f 4 144 125
f 4 125 106
f 4 106 79
f 4 79 60
f 4 60 41
f 4 41 26
f 4 26 16
f 4 16 10
f 4 10 5
f 6 11 7
f 7 11 13
f 7 13 12
f 8 14 9
f 9 14 15
f 10 16 17
f 11 18 13
f 12 13 20
f 12 20 21
f 12 21 19
f 13 22 23
f 13 23 20
f 13 18 22
f 14 24 15
f 15 24 25
f 16 26 27
f 16 27 17
f 17 27 28
f 17 28 29
f 18 30 31
f 18 31 22
f 19 21 32
f 20 23 21
f 21 23 33
f 21 33 34
f 21 34 35
f 21 35 36
f 21 36 32
f 22 31 23
f 23 31 37
f 23 37 38
f 23 38 33
f 24 39 40
f 24 40 25
f 26 41 42
f 26 42 43
f 26 43 27
f 27 43 44
f 27 44 28
f 28 44 45
f 28 45 46
f 28 46 47
f 28 47 29
f 30 48 31
f 31 49 50
f 31 50 37
f 31 48 49
f 33 38 34
f 34 38 51
f 34 51 70
f 34 70 52
f 34 52 35
f 35 52 53
f 35 53 54
f 35 54 55
f 35 55 36
f 37 50 56
f 37 56 38
f 38 56 57
f 38 57 51
f 39 58 40
f 40 58 59
f 41 60 42
f 42 61 62
f 42 62 44
f 42 44 43
f 42 60 61
f 44 62 45
f 45 63 64
f 45 64 65
f 45 65 46
f 45 62 63
f 46 65 66
f 46 66 47
f 48 67 68
f 48 68 49
f 49 68 50
f 50 68 69
f 50 69 56
f 51 57 76
f 51 76 70
f 52 71 72
f 52 72 53
f 52 70 95
f 52 95 71
f 53 72 73
f 53 73 54
f 56 69 74
f 56 74 75
f 56 75 57
f 57 75 76
f 58 77 59
f 59 77 78
f 60 79 61
f 61 80 81
f 61 81 82
f 61 82 62
f 61 79 80
f 62 82 83
f 62 83 63
f 63 83 84
f 63 84 85
f 63 85 64
f 64 85 86
f 64 86 87
f 64 87 88
f 64 88 65
f 65 88 66
f 66 88 89
f 67 90 68
f 68 90 91
f 68 91 92
f 68 92 93
f 68 93 94
f 68 94 69
f 69 94 74
f 70 76 103
f 70 103 95
f 71 95 113
f 71 113 96
f 71 96 97
f 71 97 72
f 72 97 73
f 73 97 98
f 74 94 99
f 74 99 100
f 74 100 75
f 75 100 101
f 75 101 102
f 75 102 76
f 76 102 120
f 76 120 103
f 77 104 105
f 77 105 78
f 79 106 107
f 79 107 80
f 80 107 108
f 80 108 81
f 81 108 129
f 81 129 109
f 81 109 83
f 81 83 82
f 83 109 84
f 84 109 110
f 84 110 111
f 84 111 85
f 85 111 86
f 86 111 99
f 86 99 87
f 87 99 94
f 87 94 88
f 88 94 93
f 88 93 92
f 88 92 112
f 88 112 89
f 95 103 122
f 95 122 113
f 96 113 114
f 96 114 115
f 96 115 116
f 96 116 97
f 97 116 117
f 97 117 98
f 99 111 100
f 100 111 101
f 101 118 120
f 101 120 102
f 101 111 119
f 101 119 138
f 101 138 118
f 103 120 121
f 103 121 122
f 104 123 105
f 105 123 124
f 106 125 126
f 106 126 107
f 107 126 108
f 108 126 127
f 108 127 128
f 108 128 129
f 109 129 130
f 109 130 110
f 110 130 138
f 110 138 119
f 110 119 111
f 113 122 114
f 114 122 131
f 114 131 132
f 114 132 133
f 114 133 115
f 115 133 116
f 116 133 134
f 116 134 135
f 116 135 136
f 116 136 137
f 116 137 117
f 118 138 139
f 118 139 140
f 118 140 121
f 118 121 120
f 121 140 157
f 121 157 141
f 121 141 131
f 121 131 122
f 123 142 124
f 124 142 159
f 124 159 178
f 124 178 191
f 124 191 190
f 124 190 189
f 124 189 199
f 124 199 198
f 124 198 197
f 124 197 200
f 124 200 195
f 124 195 180
f 124 180 161
f 124 161 143
f 125 144 145
f 125 145 126
f 126 145 146
f 126 146 127
f 127 146 128
f 128 147 148
f 128 148 129
f 128 146 147
f 129 148 130
f 130 148 139
f 130 139 138
f 131 149 132
f 131 141 150
f 131 150 149
f 132 149 151
f 132 151 133
f 133 151 152
f 133 152 153
f 133 153 134
f 134 153 135
f 135 153 154
f 139 148 155
f 139 155 156
f 139 156 157
f 139 157 140
f 141 157 158
f 141 158 150
f 143 161 162
f 143 162 160
f 144 163 145
f 145 164 165
f 145 165 146
f 145 163 164
f 146 165 166
f 146 166 147
f 147 166 167
f 147 167 155
f 147 155 148
f 149 150 168
f 149 168 169
f 149 169 151
f 150 158 168
f 151 169 170
f 151 170 171
f 151 171 172
f 151 172 152
f 152 172 153
f 153 172 173
f 153 173 174
f 153 174 154
f 155 167 156
f 156 167 175
f 156 175 157
f 157 175 158
f 158 175 176
f 158 176 177
f 158 177 168
f 159 174 178
f 160 162 179
f 161 180 162
f 162 180 181
f 162 181 182
f 162 182 183
f 162 183 179
f 163 184 164
f 164 183 165
f 164 184 183
f 165 182 166
f 165 183 182
f 166 185 186
f 166 186 167
f 166 182 185
f 167 186 176
f 167 176 175
f 168 170 169
f 168 177 187
f 168 187 188
f 168 188 170
f 170 188 189
f 170 189 190
f 170 190 171
f 171 190 172
f 172 191 178
f 172 178 173
f 172 190 191
f 173 178 174
f 176 192 187
f 176 187 177
f 176 186 193
f 176 193 192
f 179 183 194
f 180 195 196
f 180 196 181
f 181 196 182
f 182 196 185
f 183 184 194
f 185 196 193
f 185 193 186
f 187 192 197
f 187 197 198
f 187 198 199
f 187 199 188
f 188 199 189
f 192 193 197
f 193 196 195
f 193 195 200
f 193 200 197

