# https://github.com/mikedh/trimesh
v -0.35846612 -0.01056369 -0.49034050
v -0.35846612 -0.01056369 -0.48426893
v -0.35842589 0.01101507 -0.49034050
v -0.35828513 -0.01050022 -0.49330476
v -0.35715905 -0.03220592 -0.49034050
v -0.35715905 -0.03220592 -0.48426893
v -0.35828513 -0.01050022 -0.48155048
v -0.35842589 0.01101507 -0.48426893
v -0.35709873 0.03259383 -0.49034050
v -0.35695797 0.03253036 -0.49330476
v -0.35824493 0.01101507 -0.49330476
v -0.35647535 -0.03214245 -0.49593151
v -0.35697809 -0.03214245 -0.49330476
v -0.35776231 0.01101507 -0.49593151
v -0.35776231 -0.01050022 -0.49593151
v -0.35482648 -0.05016706 -0.49330842
v -0.35498735 -0.05016706 -0.49034417
v -0.35697809 -0.03214245 -0.48155048
v -0.35498735 -0.05016706 -0.48426893
v -0.35496724 -0.05016706 -0.48383236
v -0.35482648 -0.05016706 -0.48155048
v -0.35776231 -0.01050022 -0.47924659
v -0.35776231 0.01101507 -0.47924659
v -0.35824493 0.01101507 -0.48155048
v -0.35647535 -0.03214245 -0.47924659
v -0.35695797 0.03253036 -0.48155048
v -0.35709873 0.03259383 -0.48426893
v -0.35450473 0.05410912 -0.49034050
v -0.35643515 0.03253036 -0.49593151
v -0.35434389 0.05404565 -0.49330476
v -0.35546994 -0.03201552 -0.49795657
v -0.35390151 -0.05353081 -0.49593151
v -0.35673678 0.01095160 -0.49795657
v -0.35673678 -0.01050022 -0.49795657
v -0.35440421 -0.05365774 -0.49330842
v -0.35456508 -0.05365774 -0.49034417
v -0.35456508 -0.05365774 -0.48427260
v -0.35440421 -0.05365774 -0.48155048
v -0.35390151 -0.05353081 -0.47924292
v -0.35546994 -0.03201552 -0.47747096
v -0.35673678 -0.01050022 -0.47747096
v -0.35643515 0.03253036 -0.47924659
v -0.35673678 0.01095160 -0.47747096
v -0.35434389 0.05404565 -0.48155048
v -0.35450473 0.05410912 -0.48426893
v -0.35058358 0.07543401 -0.49034050
v -0.35281563 0.05385526 -0.49795657
v -0.35540962 0.03240343 -0.49795657
v -0.35380095 0.05398219 -0.49593151
v -0.35042274 0.07537055 -0.49330476
v -0.34992000 0.07524361 -0.49593151
v -0.35376072 -0.03188858 -0.49918190
v -0.35327813 -0.05016706 -0.49796024
v -0.35504767 -0.01043676 -0.49918190
v -0.35287595 -0.05340388 -0.49796024
v -0.34901512 -0.07460184 -0.49796024
v -0.35000044 -0.07485570 -0.49593151
v -0.35500747 0.01088814 -0.49918190
v -0.35374063 0.03233996 -0.49918190
v -0.35050315 -0.07498264 -0.49330842
v -0.35066402 -0.07498264 -0.49034417
v -0.35066402 -0.07498264 -0.48427260
v -0.35050315 -0.07498264 -0.48155048
v -0.35287595 -0.05340388 -0.47747096
v -0.35327813 -0.05016706 -0.47747096
v -0.35000044 -0.07485570 -0.47924292
v -0.34901512 -0.07460184 -0.47747096
v -0.34374672 -0.05207107 -0.46252131
v -0.34626028 -0.03119045 -0.46252131
v -0.34748688 -0.01024636 -0.46252131
v -0.35540962 0.03240343 -0.47747096
v -0.35281563 0.05385526 -0.47747096
v -0.35380095 0.05398219 -0.47924659
v -0.34748688 0.01063427 -0.46252131
v -0.34704450 0.01844070 -0.46252131
v -0.34992000 0.07524361 -0.47924659
v -0.35042274 0.07537055 -0.48155048
v -0.35058358 0.07543401 -0.48426893
v -0.34537551 0.09644157 -0.49034050
v -0.35112652 0.05353792 -0.49918190
v -0.34891459 0.07505322 -0.49795657
v -0.34724557 0.07467241 -0.49918190
v -0.34519452 0.09644157 -0.49330476
v -0.34471190 0.09625117 -0.49593151
v -0.34374672 0.09599730 -0.49795657
v -0.35152870 -0.03163471 -0.49977988
v -0.34897491 -0.05289614 -0.49978355
v -0.35118684 -0.05321347 -0.49918190
v -0.35279551 0.01082467 -0.49977988
v -0.35279551 -0.01037329 -0.49977988
v -0.34734613 -0.07428450 -0.49918190
v -0.34221846 -0.09510165 -0.49918190
v -0.34384724 -0.09554593 -0.49796024
v -0.34483257 -0.09586326 -0.49593151
v -0.34891459 0.05322058 -0.49977988
v -0.35148847 0.03208609 -0.49977988
v -0.34533527 -0.09599020 -0.49330842
v -0.34549615 -0.09605366 -0.49034417
v -0.34549615 -0.09605366 -0.48427260
v -0.34533527 -0.09599020 -0.48155048
v -0.34483257 -0.09586326 -0.47924292
v -0.34384724 -0.09554593 -0.47747096
v -0.33682939 -0.08551815 -0.46252131
v -0.33996633 -0.07269783 -0.46252131
v -0.34622005 0.03164183 -0.46252131
v -0.33990598 0.07308574 -0.46252131
v -0.34891459 0.07505322 -0.47747096
v -0.34366629 0.05245898 -0.46252131
v -0.34374672 0.09599730 -0.47747096
v -0.34471190 0.09625117 -0.47924659
v -0.34519452 0.09644157 -0.48155048
v -0.34537551 0.09644157 -0.48426893
v -0.34193695 0.10748482 -0.49034050
v -0.34207770 0.09548957 -0.49918190
v -0.33992609 0.09491836 -0.49977988
v -0.34505376 0.07422815 -0.49977988
v -0.33875981 0.11706833 -0.49330476
v -0.34123313 0.10748482 -0.49593151
v -0.34075055 0.10748482 -0.49684131
v -0.34014729 0.10748482 -0.49795657
v -0.33835763 0.10748482 -0.49918190
v -0.34891459 -0.03144431 -0.49999633
v -0.34897491 -0.05016706 -0.49981290
v -0.35018143 -0.01030982 -0.49999633
v -0.34638092 -0.05245187 -0.49999633
v -0.34513420 -0.07384023 -0.49978355
v -0.34887436 0.03183223 -0.49999633
v -0.35016131 0.01076120 -0.49999633
v -0.34004676 -0.09453046 -0.49978355
v -0.33371258 -0.11490334 -0.49978355
v -0.33584410 -0.11560148 -0.49918190
v -0.33745277 -0.11617268 -0.49796024
v -0.33841798 -0.11649001 -0.49593151
v -0.34247988 0.07365694 -0.49999633
v -0.34628040 0.05290325 -0.49999633
v -0.33890057 -0.11661695 -0.49330842
v -0.33908156 -0.11668041 -0.49034417
v -0.33908156 -0.11668041 -0.48427260
v -0.33890057 -0.11661695 -0.48155048
v -0.33841798 -0.11649001 -0.47924292
v -0.33745277 -0.11617268 -0.47747096
v -0.33495933 -0.09307072 -0.46252131
v -0.33803591 0.08063830 -0.46252131
v -0.33483866 0.09352209 -0.46252131
v -0.33254629 0.10094772 -0.46252131
v -0.32858491 0.11357765 -0.46252131
v -0.33727178 0.11656059 -0.47747096
v -0.34123313 0.10748482 -0.47924659
v -0.33875981 0.11706833 -0.48155048
v -0.34193695 0.10748482 -0.48426893
v -0.33892068 0.11713179 -0.49033317
v -0.33739245 0.09415676 -0.49999633
v -0.33600494 0.10748482 -0.49977988
v -0.33105826 0.11446618 -0.50000000
v -0.33322999 0.10748482 -0.50000000
v -0.33105826 0.13731429 -0.49330476
v -0.33827722 0.11687793 -0.49593151
v -0.33727178 0.11656059 -0.49795291
v -0.33568323 0.11598939 -0.49918190
v -0.34256032 -0.07326903 -0.49999633
v -0.33751309 -0.09383231 -0.49999633
v -0.33123925 -0.11401480 -0.49999633
v -0.32617190 -0.13483196 -0.49978355
v -0.32824308 -0.13572049 -0.49918190
v -0.32981154 -0.13629170 -0.49796024
v -0.33077675 -0.13667250 -0.49593151
v -0.33123925 -0.13692637 -0.49330842
v -0.33140010 -0.13698983 -0.49034417
v -0.33140010 -0.13698983 -0.48427260
v -0.33123925 -0.13692637 -0.48155048
v -0.33077675 -0.13667250 -0.47924292
v -0.32872570 -0.11312627 -0.46252131
v -0.32981154 -0.13629170 -0.47747096
v -0.32112467 0.13318893 -0.46252131
v -0.32961047 0.13674308 -0.47747096
v -0.33827722 0.11687793 -0.47925025
v -0.33105826 0.13731429 -0.48155048
v -0.33892068 0.11713179 -0.48426893
v -0.33117890 0.13737775 -0.49033317
v -0.33357182 0.11522779 -0.49977621
v -0.32599095 0.13521987 -0.49977621
v -0.32355779 0.13420440 -0.50000000
v -0.32711703 0.10748482 -0.50000000
v -0.15305811 -0.31507808 -0.49999633
v -0.15358093 -0.31482422 -0.49999633
v -0.17230192 -0.30498683 -0.49999633
v -0.19041964 -0.29407054 -0.49999633
v -0.20783357 -0.28201181 -0.49999633
v -0.22448339 -0.26893759 -0.49999633
v -0.24028865 -0.25491142 -0.49999633
v -0.25524935 -0.23993322 -0.49999633
v -0.26926494 -0.22412995 -0.49999633
v -0.28229523 -0.20743814 -0.49999633
v -0.29432011 -0.18998474 -0.49999633
v -0.29922655 -0.18186097 -0.49999633
v -0.30523899 -0.17183319 -0.49999633
v -0.31507203 -0.15304698 -0.49999633
v -0.32373878 -0.13381650 -0.49999633
v -0.32217032 0.15705250 -0.49330476
v -0.33057567 0.13712388 -0.49593151
v -0.32961047 0.13674308 -0.49795291
v -0.32806212 0.13604495 -0.49918190
v -0.31744483 -0.15425284 -0.49978355
v -0.31945568 -0.15526831 -0.49918190
v -0.32098392 -0.15602992 -0.49796024
v -0.32190892 -0.15641072 -0.49593151
v -0.32237142 -0.15660112 -0.49330842
v -0.32253230 -0.15672806 -0.49034417
v -0.32253230 -0.15672806 -0.48427260
v -0.32237142 -0.15660112 -0.48155048
v -0.32190892 -0.15641072 -0.47924292
v -0.32098392 -0.15602992 -0.47747096
v -0.32126546 -0.13273755 -0.46252131
v -0.31249815 0.15235595 -0.46252131
v -0.32078284 0.15635437 -0.47747096
v -0.33057567 0.13712388 -0.47925025
v -0.32217032 0.15705250 -0.48155048
v -0.33117890 0.13737775 -0.48426893
v -0.32229099 0.15711597 -0.49033317
v -0.31921437 0.15565623 -0.49918190
v -0.31722364 0.15464076 -0.49977621
v -0.31483072 0.15343489 -0.50000000
v -0.15305811 0.30842113 -0.50000000
v -0.15305811 -0.31799757 -0.49978721
v -0.15474722 -0.31723595 -0.49978721
v -0.17360896 -0.30727166 -0.49978721
v -0.19184735 -0.29629189 -0.49978721
v -0.20938194 -0.28410619 -0.49978721
v -0.22617251 -0.27096856 -0.49978721
v -0.24209841 -0.25681543 -0.49978721
v -0.25713953 -0.24177375 -0.49978721
v -0.27127579 -0.22578008 -0.49978721
v -0.28440663 -0.20902482 -0.49978721
v -0.29651192 -0.19144447 -0.49978721
v -0.30079502 -0.18186097 -0.49988994
v -0.30753136 -0.17316599 -0.49978355
v -0.30230317 -0.18186097 -0.49978721
v -0.32168773 0.15679863 -0.49593151
v -0.31223673 0.17634645 -0.49033317
v -0.31207588 0.17621952 -0.49330476
v -0.31163350 0.17596565 -0.49593151
v -0.32078284 0.15635437 -0.49795291
v -0.30950201 -0.17424493 -0.49918190
v -0.31096992 -0.17507000 -0.49796024
v -0.31187478 -0.17557774 -0.49593151
v -0.31231719 -0.17583160 -0.49330842
v -0.31247804 -0.17595854 -0.49034417
v -0.31247804 -0.17595854 -0.48427260
v -0.31231719 -0.17583160 -0.48155048
v -0.31187478 -0.17557774 -0.47924292
v -0.31267914 -0.15190457 -0.46252131
v -0.31096992 -0.17507000 -0.47747096
v -0.30292651 -0.17050038 -0.46252131
v -0.30885851 0.15927385 -0.46252131
v -0.31072861 0.17545791 -0.47747096
v -0.31163350 0.17596565 -0.47925025
v -0.32168773 0.15679863 -0.47925025
v -0.31207588 0.17621952 -0.48155048
v -0.31223673 0.17634645 -0.48426893
v -0.32229099 0.15711597 -0.48426893
v -0.31072861 0.17545791 -0.49795291
v -0.30924058 0.17456938 -0.49918190
v -0.30731016 0.17349043 -0.49977621
v -0.30497760 0.17222109 -0.50000000
v -0.15305811 0.31502169 -0.50000000
v -0.15305811 -0.32040930 -0.49918190
v -0.15571243 -0.31926692 -0.49918190
v -0.17471492 -0.30923909 -0.49918190
v -0.19307396 -0.29813242 -0.49918190
v -0.21070910 -0.28594673 -0.49918190
v -0.22760020 -0.27268213 -0.49918190
v -0.24364676 -0.25846559 -0.49918190
v -0.25876832 -0.24329697 -0.49918190
v -0.27300513 -0.22723983 -0.49918190
v -0.28623649 -0.21029416 -0.49918190
v -0.29840213 -0.19265035 -0.49918190
v -0.30491728 -0.18186097 -0.49918190
v -0.30099612 0.19481534 -0.49033317
v -0.30085534 0.19468839 -0.49330476
v -0.30043307 0.19443452 -0.49593151
v -0.29958850 0.19386333 -0.49795291
v -0.30692810 -0.18186097 -0.49796391
v -0.30811450 -0.18186097 -0.49593151
v -0.30869764 -0.18186097 -0.49331209
v -0.30111676 -0.19442742 -0.49331209
v -0.30127764 -0.19449088 -0.49034783
v -0.30127764 -0.19449088 -0.48427626
v -0.30111676 -0.19442742 -0.48155048
v -0.30869764 -0.18186097 -0.48155048
v -0.30831558 -0.18186097 -0.48000598
v -0.30811450 -0.18186097 -0.47923926
v -0.30692810 -0.18186097 -0.47747096
v -0.29208806 -0.18846153 -0.46252131
v -0.30268523 0.17088829 -0.46252131
v -0.29958850 0.19386333 -0.47747096
v -0.30043307 0.19443452 -0.47925025
v -0.30085534 0.19468839 -0.48155048
v -0.30099612 0.19481534 -0.48426893
v -0.29812059 0.19297479 -0.49918190
v -0.29625052 0.19170545 -0.49977621
v -0.29405868 0.19030918 -0.50000000
v -0.17196007 0.30512089 -0.50000000
v -0.15434507 0.31730652 -0.49977621
v -0.15305811 0.31787771 -0.49977621
v -0.15305811 -0.32231331 -0.49796391
v -0.15645644 -0.32079011 -0.49796391
v -0.17555949 -0.31076235 -0.49796391
v -0.19399895 -0.29959214 -0.49796391
v -0.21173462 -0.28734303 -0.49796391
v -0.22870617 -0.27401495 -0.49796391
v -0.24479294 -0.25967145 -0.49796391
v -0.26003516 -0.24443936 -0.49796391
v -0.27431217 -0.22831877 -0.49796391
v -0.28760386 -0.21130963 -0.49796391
v -0.29982981 -0.19360235 -0.49796391
v -0.28866962 0.21264954 -0.49033317
v -0.28854898 0.21252261 -0.49330476
v -0.28812668 0.21220528 -0.49593151
v -0.28730226 0.21163407 -0.49795291
v -0.30069447 -0.19411008 -0.49593151
v -0.28842831 -0.21194430 -0.49593151
v -0.28883049 -0.21226163 -0.49331209
v -0.28897125 -0.21232510 -0.49034783
v -0.28897125 -0.21232510 -0.48427626
v -0.28883049 -0.21226163 -0.48155048
v -0.28842831 -0.21194430 -0.47923926
v -0.30069447 -0.19411008 -0.47923926
v -0.29982981 -0.19360235 -0.47747096
v -0.28760386 -0.21130963 -0.47747096
v -0.28012353 -0.20578800 -0.46252131
v -0.29180655 0.18884943 -0.46252131
v -0.27988222 0.20617591 -0.46252131
v -0.28730226 0.21163407 -0.47747096
v -0.28812668 0.21220528 -0.47925025
v -0.28854898 0.21252261 -0.48155048
v -0.28866962 0.21264954 -0.48426893
v -0.28591475 0.21061860 -0.49918190
v -0.28414521 0.20928580 -0.49977621
v -0.28199360 0.20769912 -0.50000000
v -0.17322691 0.30740571 -0.49977621
v -0.19007781 0.29420453 -0.50000000
v -0.19150549 0.29642588 -0.49977621
v -0.15533036 0.31933749 -0.49918190
v -0.15305811 0.32035297 -0.49918190
v -0.17437309 0.30937314 -0.49918190
v -0.15305811 -0.32345569 -0.49593151
v -0.15689883 -0.32167864 -0.49593151
v -0.17606220 -0.31165087 -0.49593151
v -0.19456199 -0.30041718 -0.49593151
v -0.21233788 -0.28816807 -0.49593151
v -0.22934964 -0.27477658 -0.49593151
v -0.24549673 -0.26043302 -0.49593151
v -0.26077917 -0.24513751 -0.49593151
v -0.27509642 -0.22895344 -0.49593151
v -0.27531761 0.22965868 -0.49033317
v -0.27517682 0.22953175 -0.49330476
v -0.27477467 0.22921441 -0.49593151
v -0.27399045 0.22851628 -0.49795291
v -0.27268338 0.22750081 -0.49918190
v -0.27549857 -0.22927077 -0.49331209
v -0.27561921 -0.22939770 -0.49034783
v -0.27561921 -0.22939770 -0.48427626
v -0.27549857 -0.22927077 -0.48155048
v -0.27509642 -0.22895344 -0.47923926
v -0.27431217 -0.22831877 -0.47747096
v -0.27199969 -0.21619658 -0.46252131
v -0.27507630 0.21226874 -0.46252131
v -0.27399045 0.22851628 -0.47747096
v -0.27477467 0.22921441 -0.47925025
v -0.27517682 0.22953175 -0.48155048
v -0.27531761 0.22965868 -0.48426893
v -0.27097416 0.22604106 -0.49977621
v -0.26894322 0.22439092 -0.50000000
v -0.20747162 0.28220934 -0.50000000
v -0.20908031 0.28430372 -0.49977621
v -0.21040747 0.28614426 -0.49918190
v -0.19271201 0.29826647 -0.49918190
v -0.15609449 0.32086068 -0.49795291
v -0.15305811 0.32193959 -0.49814001
v -0.17517743 0.31083292 -0.49795291
v -0.19363700 0.29972619 -0.49795291
v -0.15305811 -0.32389998 -0.49385139
v -0.15714014 -0.32212293 -0.49331209
v -0.19482340 -0.30086148 -0.49331209
v -0.17630351 -0.31209511 -0.49331209
v -0.21263951 -0.28854889 -0.49331209
v -0.22967137 -0.27522081 -0.49331209
v -0.24587880 -0.26081383 -0.49331209
v -0.26114112 -0.24551831 -0.49331209
v -0.26094005 0.24584275 -0.49033317
v -0.26081941 0.24571581 -0.49330476
v -0.26041722 0.24533501 -0.49593151
v -0.25967321 0.24470034 -0.49795291
v -0.25846669 0.24349448 -0.49918190
v -0.26126179 -0.24564524 -0.49034783
v -0.26126179 -0.24564524 -0.48427626
v -0.26114112 -0.24551831 -0.48155048
v -0.26077917 -0.24513751 -0.47923926
v -0.26003516 -0.24443936 -0.47747096
v -0.25333905 -0.23809268 -0.46252131
v -0.26719376 -0.22228941 -0.46252131
v -0.26691225 0.22261386 -0.46252131
v -0.25303742 0.23835365 -0.46252131
v -0.25967321 0.24470034 -0.47747096
v -0.26041722 0.24533501 -0.47925025
v -0.26081941 0.24571581 -0.48155048
v -0.26094005 0.24584275 -0.48426893
v -0.25679770 0.24197127 -0.49977621
v -0.25492761 0.24019420 -0.50000000
v -0.22414154 0.26913512 -0.50000000
v -0.22585076 0.27116609 -0.49977621
v -0.22729857 0.27287966 -0.49918190
v -0.22838444 0.27421248 -0.49795291
v -0.21139278 0.28747708 -0.49795291
v -0.17566003 0.31172144 -0.49593151
v -0.15651676 0.32174921 -0.49593151
v -0.15305811 0.32333589 -0.49593151
v -0.15305811 0.32238388 -0.49764842
v -0.15305811 0.32219350 -0.49795291
v -0.21201614 0.28830212 -0.49593151
v -0.19417992 0.30055124 -0.49593151
v -0.15305811 -0.32396346 -0.49331209
v -0.15305811 -0.32421732 -0.49034783
v -0.15722057 -0.32231331 -0.49034783
v -0.19492394 -0.30098844 -0.49034783
v -0.17638394 -0.31222206 -0.49034783
v -0.21274005 -0.28867584 -0.49034783
v -0.22979203 -0.27534777 -0.49034783
v -0.24597934 -0.26094079 -0.49034783
v -0.24569783 0.26113826 -0.49033317
v -0.24559727 0.26101136 -0.49330476
v -0.24523532 0.26063055 -0.49593151
v -0.24455164 0.25986892 -0.49795291
v -0.24338534 0.25872654 -0.49918190
v -0.24597934 -0.26094079 -0.48427626
v -0.24587880 -0.26081383 -0.48155048
v -0.24549673 -0.26043302 -0.47923926
v -0.24479294 -0.25967145 -0.47747096
v -0.23853920 -0.25288045 -0.46252131
v -0.23819736 0.25314146 -0.46252131
v -0.24455164 0.25986892 -0.47747096
v -0.24523532 0.26063055 -0.47925025
v -0.24559727 0.26101136 -0.48155048
v -0.24569783 0.26113826 -0.48426893
v -0.24181689 0.25701296 -0.49977621
v -0.24004734 0.25504547 -0.50000000
v -0.22902790 0.27497411 -0.49593151
v -0.17594156 0.31222916 -0.49330476
v -0.15675807 0.32225692 -0.49330476
v -0.15305811 0.32346284 -0.49546191
v -0.22936974 0.27541834 -0.49330476
v -0.21231776 0.28874642 -0.49330476
v -0.19448155 0.30099553 -0.49330476
v -0.15305811 -0.32421732 -0.48427626
v -0.15722057 -0.32231331 -0.48427626
v -0.19492394 -0.30098844 -0.48427626
v -0.17638394 -0.31222206 -0.48427626
v -0.21274005 -0.28867584 -0.48427626
v -0.22979203 -0.27534777 -0.48427626
v -0.22949040 0.27554530 -0.49033317
v -0.22967137 -0.27522081 -0.48155048
v -0.22934964 -0.27477658 -0.47923926
v -0.22870617 -0.27401495 -0.47747096
v -0.22281438 -0.26677972 -0.46252131
v -0.23236591 0.25840920 -0.46252131
v -0.22838444 0.27421248 -0.47747096
v -0.22902790 0.27497411 -0.47925025
v -0.22936974 0.27541834 -0.48155048
v -0.22949040 0.27554530 -0.48426893
v -0.17602199 0.31235611 -0.49033317
v -0.15681839 0.32238388 -0.49033317
v -0.15305811 0.32416093 -0.49033317
v -0.15305811 0.32403404 -0.49274713
v -0.21239820 0.28887331 -0.49033317
v -0.19454189 0.30112249 -0.49033317
v -0.15305811 -0.32402694 -0.48211545
v -0.15714014 -0.32212293 -0.48155048
v -0.17630351 -0.31209511 -0.48155048
v -0.19482340 -0.30086148 -0.48155048
v -0.21263951 -0.28854889 -0.48155048
v -0.21233788 -0.28816807 -0.47923926
v -0.21173462 -0.28734303 -0.47747096
v -0.20630534 -0.27979046 -0.46252131
v -0.22247255 0.26710415 -0.46252131
v -0.20594338 0.28005141 -0.46252131
v -0.21139278 0.28747708 -0.47747096
v -0.21201614 0.28830212 -0.47925025
v -0.21231776 0.28874642 -0.48155048
v -0.21239820 0.28887331 -0.48426893
v -0.17602199 0.31235611 -0.48426893
v -0.15681839 0.32238388 -0.48426893
v -0.15305811 0.32416093 -0.48426893
v -0.19454189 0.30112249 -0.48426893
v -0.15305811 -0.32396346 -0.48155048
v -0.15305811 -0.32345569 -0.47923926
v -0.15689883 -0.32167864 -0.47923926
v -0.17606220 -0.31165087 -0.47923926
v -0.19456199 -0.30041718 -0.47923926
v -0.19399895 -0.29959214 -0.47747096
v -0.18899193 -0.29172224 -0.46252131
v -0.18862998 0.29198325 -0.46252131
v -0.19363700 0.29972619 -0.47747096
v -0.19417992 0.30055124 -0.47925025
v -0.19448155 0.30099553 -0.48155048
v -0.17594156 0.31222916 -0.48155048
v -0.15675807 0.32225692 -0.48155048
v -0.15305811 0.32390708 -0.48155048
v -0.15305811 -0.32231331 -0.47747096
v -0.15645644 -0.32079011 -0.47747096
v -0.17555949 -0.31076235 -0.47747096
v -0.17101496 -0.30257511 -0.46252131
v -0.18197408 0.29604512 -0.46252131
v -0.17517743 0.31083292 -0.47747096
v -0.17566003 0.31172144 -0.47925025
v -0.15651676 0.32174921 -0.47925025
v -0.15305811 0.32384360 -0.48112491
v -0.15305811 -0.31203169 -0.46252131
v -0.15935206 -0.30873138 -0.46252131
v -0.17067313 0.30283606 -0.46252131
v -0.15609449 0.32086068 -0.47747096
v -0.15305811 0.32314551 -0.47893474
v -0.15305811 0.32333589 -0.47925025
v -0.15305811 0.31203878 -0.46252131
v -0.15305811 0.32219350 -0.47747096
f 1 2 8
f 1 8 3
f 1 3 4
f 1 4 13
f 1 13 5
f 1 5 6
f 1 6 2
f 2 6 18
f 2 18 7
f 2 7 8
f 3 8 27
f 3 27 9
f 3 9 10
f 3 10 11
f 3 11 4
f 4 12 13
f 4 11 14
f 4 14 15
f 4 15 12
f 5 13 16
f 5 16 17
f 5 17 19
f 5 19 6
f 6 19 20
f 6 20 21
f 6 21 18
f 7 22 23
f 7 23 24
f 7 24 8
f 7 18 25
f 7 25 22
f 8 24 26
f 8 26 27
f 9 27 45
f 9 45 28
f 9 28 10
f 10 29 14
f 10 14 11
f 10 28 30
f 10 30 29
f 12 15 31
f 12 31 32
f 12 32 16
f 12 16 13
f 14 29 33
f 14 33 34
f 14 34 15
f 15 34 31
f 16 32 35
f 16 35 36
f 16 36 17
f 17 36 37
f 17 37 19
f 18 21 25
f 19 37 20
f 20 37 38
f 20 38 21
f 21 38 39
f 21 39 25
f 22 25 40
f 22 40 41
f 22 41 43
f 22 43 23
f 23 42 26
f 23 26 24
f 23 43 42
f 25 39 40
f 26 42 44
f 26 44 45
f 26 45 27
f 28 45 78
f 28 78 46
f 28 46 50
f 28 50 30
f 29 47 48
f 29 48 33
f 29 30 49
f 29 49 47
f 30 50 51
f 30 51 49
f 31 52 53
f 31 53 32
f 31 34 54
f 31 54 52
f 32 53 55
f 32 55 56
f 32 56 57
f 32 57 60
f 32 60 35
f 33 58 54
f 33 54 34
f 33 48 59
f 33 59 58
f 35 60 61
f 35 61 36
f 36 61 62
f 36 62 37
f 37 62 63
f 37 63 38
f 38 63 66
f 38 66 39
f 39 64 65
f 39 65 40
f 39 66 67
f 39 67 64
f 40 65 68
f 40 68 69
f 40 69 41
f 41 70 74
f 41 74 43
f 41 69 70
f 42 43 71
f 42 71 72
f 42 72 73
f 42 73 44
f 43 74 75
f 43 75 71
f 44 73 76
f 44 76 77
f 44 77 78
f 44 78 45
f 46 78 112
f 46 112 79
f 46 79 50
f 47 80 59
f 47 59 48
f 47 49 51
f 47 51 81
f 47 81 82
f 47 82 80
f 50 79 83
f 50 83 84
f 50 84 51
f 51 84 85
f 51 85 81
f 52 86 87
f 52 87 88
f 52 88 53
f 52 54 86
f 53 88 55
f 54 58 89
f 54 89 90
f 54 90 86
f 55 88 56
f 56 91 92
f 56 92 93
f 56 93 94
f 56 94 57
f 56 88 91
f 57 94 97
f 57 97 60
f 58 59 89
f 59 80 95
f 59 95 96
f 59 96 89
f 60 97 98
f 60 98 61
f 61 98 99
f 61 99 62
f 62 99 63
f 63 99 100
f 63 100 101
f 63 101 66
f 64 68 65
f 64 67 68
f 66 101 67
f 67 101 102
f 67 102 103
f 67 103 104
f 67 104 68
f 68 104 103
f 68 103 142
f 68 142 172
f 68 172 213
f 68 213 251
f 68 251 253
f 68 253 293
f 68 293 330
f 68 330 366
f 68 366 401
f 68 401 400
f 68 400 439
f 68 439 464
f 68 464 483
f 68 483 500
f 68 500 511
f 68 511 518
f 68 518 517
f 68 517 523
f 68 523 519
f 68 519 512
f 68 512 501
f 68 501 485
f 68 485 484
f 68 484 465
f 68 465 440
f 68 440 403
f 68 403 402
f 68 402 367
f 68 367 332
f 68 332 331
f 68 331 294
f 68 294 254
f 68 254 214
f 68 214 174
f 68 174 146
f 68 146 145
f 68 145 144
f 68 144 143
f 68 143 106
f 68 106 108
f 68 108 105
f 68 105 75
f 68 75 74
f 68 74 70
f 68 70 69
f 71 75 105
f 71 105 72
f 72 106 107
f 72 107 76
f 72 76 73
f 72 105 108
f 72 108 106
f 76 107 109
f 76 109 110
f 76 110 77
f 77 110 111
f 77 111 112
f 77 112 78
f 79 112 150
f 79 150 113
f 79 113 83
f 80 82 95
f 81 85 82
f 82 85 114
f 82 114 115
f 82 115 116
f 82 116 95
f 83 113 117
f 83 117 118
f 83 118 84
f 84 118 85
f 85 118 119
f 85 119 120
f 85 120 121
f 85 121 114
f 86 122 123
f 86 123 87
f 86 90 124
f 86 124 122
f 87 123 125
f 87 125 126
f 87 126 91
f 87 91 88
f 89 96 127
f 89 127 128
f 89 128 124
f 89 124 90
f 91 126 129
f 91 129 92
f 92 129 130
f 92 130 131
f 92 131 132
f 92 132 93
f 93 132 94
f 94 132 133
f 94 133 97
f 95 116 134
f 95 134 135
f 95 135 127
f 95 127 96
f 97 133 136
f 97 136 137
f 97 137 98
f 98 137 138
f 98 138 99
f 99 138 100
f 100 138 139
f 100 139 140
f 100 140 101
f 101 140 141
f 101 141 102
f 102 141 142
f 102 142 103
f 106 143 109
f 106 109 107
f 109 143 144
f 109 144 145
f 109 145 146
f 109 146 147
f 109 147 148
f 109 148 110
f 110 148 111
f 111 148 149
f 111 149 150
f 111 150 112
f 113 150 178
f 113 178 151
f 113 151 117
f 114 121 115
f 115 152 134
f 115 134 116
f 115 121 153
f 115 153 154
f 115 154 155
f 115 155 152
f 117 151 156
f 117 156 200
f 117 200 157
f 117 157 118
f 118 157 119
f 119 157 120
f 120 157 158
f 120 158 159
f 120 159 121
f 121 159 153
f 122 125 123
f 122 124 155
f 122 155 125
f 124 128 155
f 125 155 160
f 125 160 126
f 126 160 161
f 126 161 129
f 127 135 155
f 127 155 128
f 129 161 162
f 129 162 130
f 130 162 163
f 130 163 164
f 130 164 131
f 131 164 132
f 132 164 165
f 132 165 166
f 132 166 133
f 133 166 167
f 133 167 136
f 134 152 155
f 134 155 135
f 136 167 137
f 137 167 168
f 137 168 169
f 137 169 138
f 138 169 170
f 138 170 139
f 139 170 140
f 140 170 171
f 140 171 141
f 141 172 142
f 141 171 173
f 141 173 172
f 146 174 175
f 146 175 147
f 147 175 176
f 147 176 148
f 148 176 149
f 149 176 216
f 149 216 177
f 149 177 178
f 149 178 150
f 151 178 218
f 151 218 179
f 151 179 156
f 153 159 180
f 153 180 154
f 154 180 181
f 154 181 182
f 154 182 222
f 154 222 264
f 154 264 301
f 154 301 339
f 154 339 373
f 154 373 409
f 154 409 446
f 154 446 410
f 154 410 374
f 154 374 341
f 154 341 302
f 154 302 265
f 154 265 223
f 154 223 183
f 154 183 155
f 155 183 184
f 155 184 185
f 155 185 186
f 155 186 187
f 155 187 188
f 155 188 189
f 155 189 190
f 155 190 191
f 155 191 192
f 155 192 193
f 155 193 194
f 155 194 195
f 155 195 196
f 155 196 197
f 155 197 198
f 155 198 162
f 155 162 161
f 155 161 160
f 156 179 219
f 156 219 199
f 156 199 200
f 157 200 201
f 157 201 158
f 158 201 159
f 159 201 202
f 159 202 181
f 159 181 180
f 162 198 163
f 163 198 203
f 163 203 164
f 164 203 204
f 164 204 205
f 164 205 165
f 165 205 166
f 166 205 206
f 166 206 167
f 167 206 207
f 167 207 208
f 167 208 168
f 168 208 209
f 168 209 169
f 169 209 170
f 170 209 210
f 170 210 211
f 170 211 171
f 171 211 212
f 171 212 173
f 172 173 213
f 173 212 213
f 174 214 175
f 175 214 215
f 175 215 216
f 175 216 176
f 177 216 217
f 177 217 260
f 177 260 218
f 177 218 178
f 179 218 260
f 179 260 219
f 181 202 220
f 181 220 221
f 181 221 182
f 182 221 222
f 183 223 184
f 184 224 225
f 184 225 185
f 184 223 265
f 184 265 304
f 184 304 344
f 184 344 379
f 184 379 419
f 184 419 418
f 184 418 417
f 184 417 450
f 184 450 473
f 184 473 472
f 184 472 492
f 184 492 507
f 184 507 516
f 184 516 522
f 184 522 521
f 184 521 524
f 184 524 523
f 184 523 517
f 184 517 508
f 184 508 495
f 184 495 494
f 184 494 476
f 184 476 454
f 184 454 423
f 184 423 422
f 184 422 382
f 184 382 346
f 184 346 305
f 184 305 266
f 184 266 224
f 185 225 186
f 186 226 227
f 186 227 187
f 186 225 226
f 187 227 188
f 188 228 229
f 188 229 189
f 188 227 228
f 189 229 190
f 190 230 231
f 190 231 191
f 190 229 230
f 191 231 192
f 192 232 233
f 192 233 193
f 192 231 232
f 193 233 194
f 194 233 234
f 194 234 235
f 194 235 195
f 195 235 196
f 196 236 203
f 196 203 197
f 196 235 237
f 196 237 236
f 197 203 198
f 199 238 200
f 199 219 239
f 199 239 240
f 199 240 241
f 199 241 238
f 200 238 242
f 200 242 201
f 201 242 202
f 202 242 220
f 203 236 204
f 204 236 243
f 204 243 205
f 205 243 244
f 205 244 245
f 205 245 206
f 206 245 246
f 206 246 207
f 207 246 247
f 207 247 208
f 208 247 248
f 208 248 209
f 209 248 249
f 209 249 210
f 210 249 211
f 211 249 250
f 211 250 212
f 212 251 213
f 212 250 252
f 212 252 253
f 212 253 251
f 214 254 215
f 215 254 255
f 215 255 256
f 215 256 257
f 215 257 216
f 216 257 217
f 217 257 256
f 217 256 258
f 217 258 259
f 217 259 260
f 219 260 259
f 219 259 239
f 220 242 261
f 220 261 262
f 220 262 263
f 220 263 221
f 221 263 264
f 221 264 222
f 224 266 267
f 224 267 225
f 225 267 268
f 225 268 226
f 226 268 227
f 227 269 270
f 227 270 228
f 227 268 269
f 228 270 229
f 229 270 271
f 229 271 272
f 229 272 230
f 230 272 231
f 231 273 274
f 231 274 232
f 231 272 273
f 232 274 233
f 233 275 276
f 233 276 234
f 233 274 275
f 234 276 237
f 234 237 235
f 236 237 243
f 237 276 277
f 237 277 243
f 238 241 242
f 239 259 298
f 239 298 278
f 239 278 279
f 239 279 240
f 240 279 280
f 240 280 241
f 241 280 281
f 241 281 261
f 241 261 242
f 243 277 282
f 243 282 244
f 244 282 245
f 245 282 283
f 245 283 246
f 246 283 284
f 246 284 247
f 247 284 285
f 247 285 286
f 247 286 287
f 247 287 248
f 248 287 288
f 248 288 289
f 248 289 249
f 249 289 290
f 249 290 250
f 250 290 291
f 250 291 292
f 250 292 252
f 252 292 253
f 253 292 293
f 254 294 255
f 255 294 295
f 255 295 256
f 256 295 296
f 256 296 258
f 258 296 297
f 258 297 259
f 259 297 298
f 261 281 299
f 261 299 262
f 262 299 263
f 263 299 300
f 263 300 301
f 263 301 264
f 265 302 303
f 265 303 304
f 266 305 267
f 267 305 306
f 267 306 307
f 267 307 268
f 268 307 269
f 269 307 308
f 269 308 309
f 269 309 270
f 270 309 271
f 271 309 310
f 271 310 272
f 272 311 312
f 272 312 273
f 272 310 311
f 273 312 274
f 274 312 313
f 274 313 314
f 274 314 275
f 275 314 315
f 275 315 276
f 276 315 282
f 276 282 277
f 278 298 336
f 278 336 316
f 278 316 317
f 278 317 279
f 279 317 280
f 280 317 318
f 280 318 319
f 280 319 281
f 281 319 299
f 282 315 283
f 283 315 320
f 283 320 285
f 283 285 284
f 285 320 321
f 285 321 322
f 285 322 286
f 286 322 323
f 286 323 324
f 286 324 287
f 287 324 325
f 287 325 288
f 288 325 326
f 288 326 327
f 288 327 291
f 288 291 290
f 288 290 289
f 291 327 328
f 291 328 292
f 292 328 293
f 293 328 329
f 293 329 330
f 294 331 295
f 295 332 333
f 295 333 296
f 295 331 332
f 296 333 334
f 296 334 335
f 296 335 297
f 297 335 298
f 298 335 336
f 299 319 337
f 299 337 338
f 299 338 300
f 300 338 301
f 301 338 339
f 302 340 303
f 302 341 342
f 302 342 340
f 303 343 344
f 303 344 304
f 303 340 345
f 303 345 343
f 305 346 306
f 306 346 347
f 306 347 348
f 306 348 307
f 307 348 308
f 308 349 350
f 308 350 309
f 308 348 349
f 309 350 310
f 310 350 351
f 310 351 352
f 310 352 311
f 311 352 312
f 312 352 353
f 312 353 313
f 313 354 321
f 313 321 314
f 313 353 354
f 314 321 315
f 315 321 320
f 316 336 371
f 316 371 355
f 316 355 317
f 317 355 356
f 317 356 357
f 317 357 318
f 318 357 319
f 319 357 358
f 319 358 359
f 319 359 337
f 321 354 360
f 321 360 322
f 322 360 361
f 322 361 323
f 323 361 362
f 323 362 324
f 324 362 325
f 325 362 363
f 325 363 364
f 325 364 326
f 326 329 328
f 326 328 327
f 326 364 365
f 326 365 329
f 329 366 330
f 329 365 366
f 332 367 368
f 332 368 333
f 333 368 369
f 333 369 334
f 334 369 335
f 335 369 370
f 335 370 371
f 335 371 336
f 337 359 338
f 338 359 372
f 338 372 373
f 338 373 339
f 340 342 345
f 341 374 342
f 342 374 375
f 342 375 376
f 342 376 377
f 342 377 345
f 343 378 379
f 343 379 344
f 343 345 378
f 345 380 378
f 345 377 381
f 345 381 380
f 346 382 347
f 347 382 383
f 347 383 385
f 347 385 348
f 348 384 349
f 348 385 384
f 349 384 350
f 350 386 387
f 350 387 351
f 350 384 386
f 351 387 352
f 352 387 388
f 352 388 353
f 353 388 389
f 353 389 354
f 354 389 360
f 355 371 407
f 355 407 390
f 355 390 391
f 355 391 356
f 356 391 357
f 357 391 392
f 357 392 393
f 357 393 358
f 358 393 359
f 359 393 394
f 359 394 372
f 360 389 395
f 360 395 361
f 361 395 396
f 361 396 362
f 362 396 397
f 362 397 363
f 363 397 364
f 364 397 398
f 364 398 365
f 365 398 399
f 365 399 400
f 365 400 401
f 365 401 366
f 367 402 368
f 368 402 403
f 368 403 404
f 368 404 369
f 369 404 405
f 369 405 406
f 369 406 370
f 370 406 371
f 371 406 407
f 372 394 408
f 372 408 409
f 372 409 373
f 374 410 411
f 374 411 375
f 375 411 376
f 376 411 412
f 376 412 413
f 376 413 414
f 376 414 381
f 376 381 377
f 378 380 415
f 378 415 416
f 378 416 417
f 378 417 418
f 378 418 419
f 378 419 379
f 380 381 415
f 381 414 420
f 381 420 421
f 381 421 415
f 382 422 383
f 383 422 423
f 383 423 424
f 383 424 385
f 384 385 425
f 384 425 427
f 384 427 386
f 385 424 426
f 385 426 425
f 386 427 428
f 386 428 387
f 387 428 388
f 388 428 429
f 388 429 395
f 388 395 389
f 390 407 444
f 390 444 430
f 390 430 431
f 390 431 391
f 391 431 432
f 391 432 392
f 392 432 393
f 393 432 433
f 393 433 434
f 393 434 394
f 394 434 408
f 395 429 435
f 395 435 396
f 396 435 436
f 396 436 397
f 397 436 398
f 398 436 437
f 398 437 399
f 399 437 438
f 399 438 400
f 400 438 439
f 403 440 441
f 403 441 404
f 404 441 442
f 404 442 405
f 405 442 406
f 406 442 443
f 406 443 407
f 407 443 444
f 408 434 445
f 408 445 409
f 409 445 446
f 410 446 411
f 411 446 445
f 411 445 434
f 411 434 412
f 412 434 413
f 413 434 433
f 413 433 432
f 413 432 447
f 413 447 420
f 413 420 414
f 415 448 416
f 415 421 448
f 416 449 450
f 416 450 417
f 416 448 449
f 420 447 451
f 420 451 452
f 420 452 453
f 420 453 421
f 421 453 448
f 423 454 455
f 423 455 424
f 424 455 457
f 424 457 426
f 425 426 457
f 425 457 456
f 425 456 458
f 425 458 427
f 427 458 459
f 427 459 428
f 428 459 435
f 428 435 429
f 430 444 469
f 430 469 460
f 430 460 431
f 431 460 451
f 431 451 432
f 432 451 447
f 435 459 436
f 436 459 461
f 436 461 437
f 437 461 462
f 437 462 463
f 437 463 438
f 438 463 439
f 439 463 464
f 440 465 441
f 441 465 466
f 441 466 442
f 442 466 467
f 442 467 468
f 442 468 443
f 443 468 469
f 443 469 444
f 448 453 470
f 448 470 449
f 449 470 471
f 449 471 472
f 449 472 473
f 449 473 450
f 451 460 452
f 452 474 453
f 452 460 474
f 453 474 475
f 453 475 470
f 454 476 477
f 454 477 455
f 455 477 478
f 455 478 457
f 456 457 478
f 456 478 479
f 456 479 480
f 456 480 458
f 458 480 459
f 459 480 461
f 460 469 489
f 460 489 474
f 461 480 481
f 461 481 462
f 462 481 463
f 463 481 482
f 463 482 483
f 463 483 464
f 465 484 466
f 466 484 485
f 466 485 486
f 466 486 487
f 466 487 467
f 467 487 468
f 468 487 488
f 468 488 469
f 469 488 489
f 470 490 491
f 470 491 471
f 470 475 493
f 470 493 490
f 471 491 492
f 471 492 472
f 474 489 493
f 474 493 475
f 476 494 477
f 477 494 495
f 477 495 496
f 477 496 497
f 477 497 478
f 478 497 479
f 479 498 481
f 479 481 480
f 479 497 498
f 481 498 499
f 481 499 482
f 482 499 483
f 483 499 500
f 485 501 502
f 485 502 486
f 486 502 487
f 487 502 503
f 487 503 504
f 487 504 488
f 488 504 489
f 489 504 493
f 490 505 506
f 490 506 491
f 490 493 504
f 490 504 505
f 491 506 492
f 492 506 507
f 495 508 509
f 495 509 496
f 496 509 497
f 497 510 499
f 497 499 498
f 497 509 510
f 499 510 500
f 500 510 511
f 501 512 502
f 502 512 513
f 502 513 514
f 502 514 503
f 503 514 505
f 503 505 504
f 505 514 515
f 505 515 506
f 506 515 516
f 506 516 507
f 508 517 509
f 509 517 518
f 509 518 510
f 510 518 511
f 512 519 513
f 513 520 514
f 513 519 520
f 514 520 515
f 515 520 521
f 515 521 522
f 515 522 516
f 519 523 520
f 520 524 521
f 520 523 524

