# https://github.com/mikedh/trimesh
v -0.15303802 -0.32418051 -0.49033317
v -0.15303802 -0.32418051 -0.48426893
v -0.15303802 -0.32397309 -0.49330476
v -0.13726619 -0.33102542 -0.49330476
v -0.13736634 -0.33116370 -0.49033317
v -0.15303802 -0.32404223 -0.48211545
v -0.13736634 -0.33116370 -0.48426893
v -0.15303802 -0.32341996 -0.49593151
v -0.13711599 -0.33054143 -0.49593151
v -0.11708826 -0.33870006 -0.49330476
v -0.11713833 -0.33890748 -0.49033317
v -0.15303802 -0.32397309 -0.48155048
v -0.13726619 -0.33102542 -0.48155048
v -0.11713833 -0.33890748 -0.48426893
v -0.15303802 -0.32231370 -0.49795291
v -0.11653750 -0.33724809 -0.49795291
v -0.11688799 -0.33821607 -0.49593151
v -0.13666536 -0.32957348 -0.49795291
v -0.09625942 -0.34471530 -0.49593151
v -0.09635957 -0.34519926 -0.49330476
v -0.09640963 -0.34533754 -0.49033317
v -0.15303802 -0.32341996 -0.47925392
v -0.13711599 -0.33054143 -0.47925392
v -0.11708826 -0.33870006 -0.48155048
v -0.09640963 -0.34533754 -0.48426893
v -0.09635957 -0.34519926 -0.48155048
v -0.15303802 -0.32044691 -0.49918190
v -0.13606453 -0.32805237 -0.49918190
v -0.11598673 -0.33565786 -0.49918190
v -0.09555845 -0.34208792 -0.49918190
v -0.09600908 -0.34367818 -0.49795291
v -0.07503003 -0.34886372 -0.49795291
v -0.07523030 -0.34990084 -0.49593151
v -0.07533045 -0.35038483 -0.49330476
v -0.07538052 -0.35052311 -0.49033317
v -0.15303802 -0.32252112 -0.47778279
v -0.11688799 -0.33821607 -0.47925392
v -0.11653750 -0.33724809 -0.47747096
v -0.13666536 -0.32957348 -0.47747096
v -0.09625942 -0.34471530 -0.47925392
v -0.07538052 -0.35052311 -0.48426893
v -0.07533045 -0.35038483 -0.48155048
v -0.15303802 -0.31795785 -0.49977621
v -0.13516328 -0.32597816 -0.49977621
v -0.11528577 -0.33351448 -0.49977621
v -0.09490755 -0.33987543 -0.49977621
v -0.07422891 -0.34506097 -0.49977621
v -0.07472961 -0.34720436 -0.49918190
v -0.05360036 -0.35107622 -0.49918190
v -0.05385071 -0.35273561 -0.49795291
v -0.05400091 -0.35377270 -0.49593151
v -0.05405098 -0.35425669 -0.49330476
v -0.05405098 -0.35446411 -0.49033317
v -0.13321058 -0.32106918 -0.46252131
v -0.15233707 -0.31249574 -0.46252131
v -0.15303802 -0.31215003 -0.46252131
v -0.10091586 -0.33254653 -0.46252131
v -0.11353333 -0.32853636 -0.46252131
v -0.09600908 -0.34367818 -0.47747096
v -0.07523030 -0.34990084 -0.47925392
v -0.07503003 -0.34886372 -0.47747096
v -0.05405098 -0.35446411 -0.48426893
v -0.05405098 -0.35425669 -0.48155048
v -0.05400091 -0.35377270 -0.47925392
v -0.15303802 -0.31505394 -0.50000000
v -0.13416189 -0.32355824 -0.50000000
v -0.11438452 -0.33102542 -0.50000000
v -0.09415650 -0.33738637 -0.50000000
v -0.05284932 -0.34630552 -0.50000000
v -0.05324988 -0.34886372 -0.49977621
v -0.07367815 -0.34243363 -0.50000000
v -0.03212062 -0.35149106 -0.49977621
v -0.03227083 -0.35370356 -0.49918190
v -0.03242104 -0.35543209 -0.49795291
v -0.03252117 -0.35640007 -0.49593151
v -0.03257124 -0.35688403 -0.49330476
v -0.03257124 -0.35709146 -0.49033317
v -0.15303802 -0.15305734 -0.46252131
v -0.09355567 -0.33482817 -0.46252131
v -0.05385071 -0.35273561 -0.47747096
v -0.05239870 -0.34367818 -0.46252131
v -0.07307732 -0.33987543 -0.46252131
v -0.03257124 -0.35709146 -0.48426893
v -0.03257124 -0.35688403 -0.48155048
v -0.03252117 -0.35640007 -0.47925392
v -0.03242104 -0.35543209 -0.47747096
v -0.15303802 -0.30848557 -0.50000000
v -0.03187028 -0.34879458 -0.50000000
v -0.01079109 -0.35273561 -0.49977621
v -0.01074103 -0.35010827 -0.50000000
v -0.01089123 -0.35494810 -0.49918190
v -0.01089123 -0.35667661 -0.49795291
v -0.01099136 -0.35771373 -0.49593151
v -0.01099136 -0.35819772 -0.49330476
v -0.01099136 -0.35840514 -0.49033317
v -0.15303802 -0.15305734 -0.46535349
v -0.15298796 0.31212112 -0.46252131
v -0.15298796 0.31246683 -0.47271642
v -0.03161992 -0.34616724 -0.46252131
v -0.01099136 -0.35840514 -0.48426893
v -0.01099136 -0.35819772 -0.48155048
v -0.01099136 -0.35771373 -0.47925392
v -0.01089123 -0.35667661 -0.47747096
v -0.01064088 -0.34748092 -0.46252131
v 0.30835074 -0.15305734 -0.50000000
v -0.15303802 -0.30530509 -0.49966249
v 0.11528346 0.33071998 -0.49999633
v 0.01038823 -0.35017741 -0.50000000
v 0.01048837 -0.35273561 -0.49977621
v 0.01053844 -0.35501724 -0.49918190
v 0.01058851 -0.35674575 -0.49795291
v 0.01063858 -0.35771373 -0.49593151
v 0.01063858 -0.35826686 -0.49330476
v 0.01063858 -0.35847428 -0.49033317
v -0.15193650 0.31267425 -0.46252131
v -0.15208670 0.31295082 -0.47271642
v 0.11528346 0.33355474 -0.49978721
v 0.11528346 0.33348560 -0.49979454
v 0.01063858 -0.35847428 -0.48426893
v 0.01063858 -0.35826686 -0.48155048
v 0.01063858 -0.35771373 -0.47925392
v 0.01058851 -0.35674575 -0.47747096
v 0.01028809 -0.34755006 -0.46252131
v 0.31506005 -0.15305734 -0.50000000
v 0.13425973 0.32352933 -0.49999633
v 0.03176783 -0.35149106 -0.49977621
v 0.03151748 -0.34886372 -0.50000000
v 0.03201818 -0.35370356 -0.49918190
v 0.03211831 -0.35543209 -0.49795291
v 0.03221846 -0.35640007 -0.49593151
v 0.03226852 -0.35695317 -0.49330476
v 0.03226852 -0.35716060 -0.49033317
v -0.14482667 0.31585473 -0.46252131
v -0.13826758 0.31917349 -0.47271642
v 0.11528346 0.33590552 -0.49918190
v 0.11533353 0.33355474 -0.49978721
v 0.13526112 0.32594925 -0.49978721
v 0.03226852 -0.35716060 -0.48426893
v 0.03226852 -0.35695317 -0.48155048
v 0.03221846 -0.35640007 -0.47925392
v 0.03211831 -0.35543209 -0.47747096
v 0.03131720 -0.34623638 -0.46252131
v 0.31716296 -0.15471672 -0.49977621
v 0.30494606 -0.17227843 -0.50000000
v 0.15353642 0.31488675 -0.49999633
v 0.17226234 0.30499965 -0.49999633
v 0.19038743 0.29400626 -0.49999633
v 0.20776150 0.28197581 -0.49999633
v 0.22443458 0.26897734 -0.49999633
v 0.24025649 0.25494179 -0.49999633
v 0.25522721 0.23993826 -0.49999633
v 0.26924664 0.22410505 -0.49999633
v 0.27660680 0.21470192 -0.49999633
v 0.28226465 0.20744215 -0.49999633
v 0.29428127 0.19001870 -0.49999633
v 0.30524647 0.17190383 -0.49999633
v 0.31506005 0.15309757 -0.49999633
v 0.32372203 0.13387647 -0.49999633
v 0.33123243 0.11403310 -0.49999633
v 0.33749110 0.09384402 -0.49999633
v 0.33849248 0.08983386 -0.49999633
v 0.34254810 0.07324009 -0.49999633
v 0.34625322 0.05242875 -0.49999633
v 0.34890690 0.03147913 -0.49999633
v 0.35015863 0.01025294 -0.49999633
v 0.35015863 -0.01076582 -0.49999633
v 0.34885684 -0.03171545 -0.49999633
v 0.34620315 -0.05287249 -0.49999633
v 0.34244797 -0.07368384 -0.49999633
v 0.33739096 -0.09421862 -0.49999633
v 0.33108222 -0.11440770 -0.49999633
v 0.32357183 -0.13425107 -0.49999633
v 0.32602525 -0.13521904 -0.49977988
v 0.31796408 -0.15298820 -0.49977988
v 0.05324757 -0.35114536 -0.49918190
v 0.05289708 -0.34893286 -0.49977621
v 0.05259667 -0.34630552 -0.50000000
v 0.05354799 -0.35280475 -0.49795291
v 0.05369819 -0.35384184 -0.49593151
v 0.05379833 -0.35432583 -0.49330476
v 0.05379833 -0.35453326 -0.49033317
v -0.13275996 0.32124770 -0.46252131
v -0.13286009 0.32152426 -0.47271642
v 0.11608457 0.33569810 -0.49918190
v -0.11318286 0.32899144 -0.47271642
v -0.09315512 0.33521411 -0.47271642
v -0.07843474 0.33887857 -0.47271642
v -0.07272685 0.34026137 -0.47271642
v 0.11528346 0.33770317 -0.49796391
v 0.13611230 0.32802349 -0.49918190
v 0.15468802 0.31723753 -0.49978721
v 0.05379833 -0.35453326 -0.48426893
v 0.05379833 -0.35432583 -0.48155048
v 0.05369819 -0.35384184 -0.47925392
v 0.05354799 -0.35280475 -0.47747096
v 0.05214604 -0.34374732 -0.46252131
v 0.32046753 -0.15298820 -0.49918190
v 0.31916574 -0.15568468 -0.49918190
v 0.30920196 -0.17469837 -0.49918190
v 0.30719918 -0.17359212 -0.49977621
v 0.29618391 -0.19184525 -0.49977621
v 0.29398087 -0.19039330 -0.50000000
v 0.17356414 0.30728129 -0.49978721
v 0.19178939 0.29628792 -0.49978721
v 0.20936371 0.28411916 -0.49978721
v 0.22608685 0.27098241 -0.49978721
v 0.24205898 0.25680858 -0.49978721
v 0.25712985 0.24173592 -0.49978721
v 0.27124938 0.22576442 -0.49978721
v 0.27795869 0.21470192 -0.49991563
v 0.28441763 0.20896325 -0.49978355
v 0.29653442 0.19140151 -0.49978355
v 0.30749959 0.17314836 -0.49978355
v 0.31741330 0.15427297 -0.49978355
v 0.32617545 0.13484444 -0.49978355
v 0.33363575 0.11493193 -0.49978355
v 0.33999455 0.09453543 -0.49978355
v 0.34059539 0.08983386 -0.49983492
v 0.34510165 0.07379322 -0.49977988
v 0.34895697 0.05284360 -0.49977988
v 0.35146046 0.03168655 -0.49977988
v 0.35276225 0.01039122 -0.49977988
v 0.35276225 -0.01083496 -0.49977988
v 0.35146046 -0.03213029 -0.49977988
v 0.34890690 -0.05328734 -0.49977988
v 0.34505159 -0.07423697 -0.49977988
v 0.33989441 -0.09491003 -0.49977988
v 0.33358568 -0.11530653 -0.49977988
v 0.32807809 -0.13604873 -0.49918190
v 0.07392620 -0.34513012 -0.49977621
v 0.07437682 -0.34727350 -0.49918190
v 0.07477738 -0.34900200 -0.49795291
v 0.07342550 -0.34250277 -0.50000000
v 0.07497765 -0.34996998 -0.49593151
v 0.07507779 -0.35045397 -0.49330476
v 0.07512786 -0.35066137 -0.49033317
v -0.11308271 0.32871488 -0.46252131
v 0.11663533 0.33728832 -0.49796391
v 0.13676320 0.32961372 -0.49796391
v -0.09305498 0.33493754 -0.46252131
v -0.08549452 0.33680436 -0.46252131
v -0.07262670 0.33991569 -0.46252131
v -0.06501617 0.34136763 -0.46252131
v -0.05785625 0.34295785 -0.47271642
v 0.11528346 0.33874029 -0.49593151
v 0.11693574 0.33825630 -0.49593151
v -0.05204821 0.34399498 -0.47271642
v -0.03116931 0.34655318 -0.47271642
v -0.01019026 0.34786686 -0.47271642
v 0.15568940 0.31924263 -0.49918190
v 0.07512786 -0.35066137 -0.48426893
v 0.07507779 -0.35045397 -0.48155048
v 0.07497765 -0.34996998 -0.47925392
v 0.07477738 -0.34900200 -0.47747096
v 0.07282467 -0.33994457 -0.46252131
v 0.32963023 -0.13674013 -0.49795657
v 0.32232010 -0.15298820 -0.49795657
v 0.32071787 -0.15644522 -0.49795291
v 0.31070402 -0.17552805 -0.49795291
v 0.29813662 -0.19302064 -0.49918190
v 0.28591970 -0.21072066 -0.49918190
v 0.28406715 -0.20933785 -0.49977621
v 0.28191417 -0.20781675 -0.50000000
v 0.17466567 0.30921721 -0.49918190
v 0.19304112 0.29815471 -0.49918190
v 0.21066552 0.28591681 -0.49918190
v 0.22753888 0.27271095 -0.49918190
v 0.24361113 0.25846797 -0.49918190
v 0.25878215 0.24325702 -0.49918190
v 0.27300182 0.22721638 -0.49918190
v 0.27996147 0.21470192 -0.49978721
v 0.28086269 0.21470192 -0.49959645
v 0.28281540 0.21470192 -0.49918190
v 0.28622013 0.21027692 -0.49918190
v 0.29838696 0.19264604 -0.49918190
v 0.30950236 0.17425463 -0.49918190
v 0.31941608 0.15524094 -0.49918190
v 0.32822829 0.13560498 -0.49918190
v 0.33578873 0.11562333 -0.49918190
v 0.34214753 0.09515769 -0.49918190
v 0.34119624 0.08983386 -0.49978355
v 0.34349942 0.08983386 -0.49918190
v 0.34725463 0.07427721 -0.49918190
v 0.35116002 0.05318930 -0.49918190
v 0.35376364 0.03189397 -0.49918190
v 0.35501537 0.01046036 -0.49918190
v 0.35501537 -0.01090411 -0.49918190
v 0.35371357 -0.03233771 -0.49918190
v 0.35110995 -0.05363304 -0.49918190
v 0.34720457 -0.07472095 -0.49918190
v 0.34199733 -0.09553229 -0.49918190
v 0.33568859 -0.11599793 -0.49918190
v 0.33729082 -0.11662020 -0.49795657
v 0.09390385 -0.33745551 -0.50000000
v 0.09460483 -0.34001371 -0.49977621
v 0.09520566 -0.34215707 -0.49918190
v 0.09560622 -0.34381646 -0.49795291
v 0.09590663 -0.34478444 -0.49593151
v 0.09610691 -0.34533754 -0.49330476
v 0.09615698 -0.34547582 -0.49033317
v 0.13716376 0.33058169 -0.49593151
v 0.15644044 0.32076371 -0.49796391
v -0.05199814 0.34371841 -0.46252131
v 0.01083886 0.34779772 -0.47271642
v 0.11528346 0.33929342 -0.49331209
v 0.11713602 0.33874029 -0.49331209
v -0.03116931 0.34620747 -0.46252131
v -0.01019026 0.34752116 -0.46252131
v 0.01078878 0.34752116 -0.46252131
v 0.17551684 0.31073833 -0.49796391
v 0.09615698 -0.34547582 -0.48426893
v 0.09610691 -0.34533754 -0.48155048
v 0.09590663 -0.34478444 -0.47925392
v 0.09560622 -0.34381646 -0.47747096
v 0.09320289 -0.33496645 -0.46252131
v 0.33053148 -0.13715498 -0.49593151
v 0.32342163 -0.15298820 -0.49593151
v 0.33829221 -0.11696590 -0.49593151
v 0.32166919 -0.15686007 -0.49593151
v 0.31155521 -0.17601204 -0.49593151
v 0.30038974 -0.19454174 -0.49593151
v 0.29953855 -0.19398861 -0.49795291
v 0.28717142 -0.21168862 -0.49795291
v 0.27395314 -0.22862808 -0.49795291
v 0.27250111 -0.22759098 -0.49918190
v 0.27089891 -0.22613902 -0.49977621
v 0.26889613 -0.22447965 -0.50000000
v 0.21166690 0.28729963 -0.49796391
v 0.19394237 0.29953754 -0.49796391
v 0.22864039 0.27402461 -0.49796391
v 0.24476272 0.25971249 -0.49796391
v 0.25998378 0.24443240 -0.49796391
v 0.27430362 0.22832263 -0.49796391
v 0.28496838 0.21470192 -0.49796391
v 0.28762206 0.21131402 -0.49796024
v 0.31095436 0.17508431 -0.49796024
v 0.29978889 0.19354486 -0.49796024
v 0.32096821 0.15600148 -0.49796024
v 0.32983050 0.13636553 -0.49796024
v 0.33744103 0.11617646 -0.49796024
v 0.34384990 0.09557253 -0.49796024
v 0.34480122 0.08983386 -0.49828675
v 0.34900704 0.07462291 -0.49795657
v 0.35286239 0.05346586 -0.49795657
v 0.35546598 0.03203226 -0.49795657
v 0.35671774 0.01052950 -0.49795657
v 0.35671774 -0.01097325 -0.49795657
v 0.35541591 -0.03247600 -0.49795657
v 0.35281232 -0.05384047 -0.49795657
v 0.34890690 -0.07499751 -0.49795657
v 0.34374976 -0.09601627 -0.49795657
v 0.11398166 -0.33116370 -0.50000000
v 0.11478277 -0.33365276 -0.49977621
v 0.11553381 -0.33579615 -0.49918190
v 0.11608457 -0.33745551 -0.49795291
v 0.11638498 -0.33842349 -0.49593151
v 0.11658526 -0.33890748 -0.49330476
v 0.11663533 -0.33904576 -0.49033317
v 0.13736403 0.33106568 -0.49331209
v 0.15689106 0.32166255 -0.49593151
v 0.17601755 0.31163713 -0.49593151
v 0.03176783 0.34648404 -0.47271642
v 0.03176783 0.34620747 -0.46252131
v 0.11528346 0.33950084 -0.49034783
v 0.11718609 0.33887857 -0.49034783
v 0.19454318 0.30043635 -0.49593151
v 0.11663533 -0.33904576 -0.48426893
v 0.11658526 -0.33890748 -0.48155048
v 0.11638498 -0.33842349 -0.47925392
v 0.11608457 -0.33745551 -0.47747096
v 0.11303034 -0.32874379 -0.46252131
v 0.33108222 -0.13736241 -0.49330476
v 0.32387227 -0.15305734 -0.49385139
v 0.34470108 -0.09629284 -0.49593151
v 0.33874285 -0.11710418 -0.49330476
v 0.32206976 -0.15713663 -0.49330476
v 0.31200582 -0.17628860 -0.49330476
v 0.32402247 -0.15298820 -0.49330476
v 0.30079031 -0.19481830 -0.49330476
v 0.28812277 -0.21231090 -0.49593151
v 0.27465409 -0.22931950 -0.49593151
v 0.26043442 -0.24549842 -0.49593151
v 0.25963330 -0.24480700 -0.49795291
v 0.25843164 -0.24356247 -0.49918190
v 0.25672930 -0.24204138 -0.49977621
v 0.25482666 -0.24031286 -0.50000000
v 0.21226773 0.28812930 -0.49593151
v 0.22929130 0.27478516 -0.49593151
v 0.24546368 0.26047304 -0.49593151
v 0.26073483 0.24512380 -0.49593151
v 0.27505466 0.22894490 -0.49593151
v 0.28627020 0.21470192 -0.49593151
v 0.30069014 0.19409800 -0.49593151
v 0.28842318 0.21193630 -0.49593151
v 0.31185561 0.17563744 -0.49593151
v 0.32186949 0.15648547 -0.49593151
v 0.33073175 0.13678038 -0.49593151
v 0.33839235 0.11652216 -0.49593151
v 0.34485129 0.09584910 -0.49593151
v 0.35000843 0.07489947 -0.49593151
v 0.35386378 0.05360414 -0.49593151
v 0.35776919 0.01052950 -0.49593151
v 0.35646737 0.03210139 -0.49593151
v 0.35776919 -0.01097325 -0.49593151
v 0.35641730 -0.03247600 -0.49593151
v 0.35381371 -0.05404789 -0.49593151
v 0.34990829 -0.07527407 -0.49593151
v 0.13370897 -0.32369652 -0.50000000
v 0.13476042 -0.32611644 -0.49977621
v 0.13551146 -0.32819065 -0.49918190
v 0.13631257 -0.32978091 -0.49795291
v 0.13661298 -0.33074886 -0.49593151
v 0.13681327 -0.33116370 -0.49330476
v 0.13686334 -0.33137113 -0.49033317
v 0.15719149 0.32228482 -0.49034783
v 0.15709135 0.32214653 -0.49331209
v 0.13741410 0.33120397 -0.49034783
v 0.17626789 0.31205198 -0.49331209
v 0.11528346 0.33950084 -0.48427626
v 0.05264674 0.34364927 -0.46252131
v 0.11528346 0.33929342 -0.48155048
v 0.11718609 0.33887857 -0.48427626
v 0.19479354 0.30085120 -0.49331209
v 0.21256815 0.28854415 -0.49331209
v 0.13686334 -0.33137113 -0.48426893
v 0.13681327 -0.33116370 -0.48155048
v 0.13661298 -0.33074886 -0.47925392
v 0.13631257 -0.32978091 -0.47747096
v 0.13275765 -0.32127661 -0.46252131
v 0.33123243 -0.13743155 -0.49034050
v 0.34515172 -0.09643112 -0.49330476
v 0.35040897 -0.07541236 -0.49330476
v 0.34530193 -0.09650026 -0.49034050
v 0.33884299 -0.11717332 -0.49034050
v 0.32216990 -0.15720578 -0.49033317
v 0.31215602 -0.17635775 -0.49033317
v 0.32412261 -0.15305734 -0.49033317
v 0.30094051 -0.19488744 -0.49033317
v 0.28867352 -0.21272573 -0.49033317
v 0.28847325 -0.21265659 -0.49330476
v 0.27515480 -0.22966520 -0.49330476
v 0.26073483 -0.24584413 -0.49330476
v 0.24541362 -0.26098594 -0.49330476
v 0.24501307 -0.26070938 -0.49593151
v 0.24436216 -0.26001796 -0.49795291
v 0.24316050 -0.25870427 -0.49918190
v 0.24175856 -0.25711405 -0.49977621
v 0.23980586 -0.25497067 -0.50000000
v 0.22964178 0.27520001 -0.49331209
v 0.24581417 0.26081875 -0.49331209
v 0.26113540 0.24553865 -0.49331209
v 0.27550530 0.22929060 -0.49331209
v 0.28692108 0.21470192 -0.49331209
v 0.30114079 0.19437456 -0.49330842
v 0.28882372 0.21221285 -0.49330842
v 0.31230623 0.17584486 -0.49330842
v 0.32237017 0.15669289 -0.49330842
v 0.33123243 0.13691866 -0.49330842
v 0.33889306 0.11666044 -0.49330842
v 0.34530193 0.09598738 -0.49330842
v 0.34685406 0.08983386 -0.49330842
v 0.35040897 0.07496861 -0.49330476
v 0.35436445 0.05367329 -0.49330476
v 0.35826987 0.01059864 -0.49330476
v 0.35696808 0.03217053 -0.49330476
v 0.35826987 -0.01097325 -0.49330476
v 0.35431439 -0.05411703 -0.49330476
v 0.35691801 -0.03247600 -0.49330476
v 0.15303573 -0.31505394 -0.50000000
v 0.15428746 -0.31740472 -0.49977621
v 0.14182019 -0.32542503 -0.49918190
v 0.15523878 -0.31940979 -0.49918190
v 0.15593974 -0.32093090 -0.49795291
v 0.15649050 -0.32189885 -0.49593151
v 0.14182019 -0.32895121 -0.49330476
v 0.14182019 -0.32915863 -0.49033317
v 0.17636803 0.31219026 -0.49034783
v 0.15719149 0.32228482 -0.48427626
v 0.13741410 0.33120397 -0.48427626
v 0.11713602 0.33874029 -0.48155048
v 0.07327530 0.33984655 -0.46252131
v 0.11528346 0.33874029 -0.47923926
v 0.11528346 0.33880943 -0.47942635
v 0.19489369 0.30098948 -0.49034783
v 0.21266828 0.28868243 -0.49034783
v 0.14182019 -0.32915863 -0.48426893
v 0.14182019 -0.32895121 -0.48155048
v 0.15649050 -0.32189885 -0.47925392
v 0.15188414 -0.31263402 -0.46252131
v 0.33123243 -0.13743155 -0.48426893
v 0.35446459 -0.05411703 -0.49034050
v 0.35045904 -0.07541236 -0.49034050
v 0.34530193 -0.09650026 -0.48426893
v 0.33884299 -0.11717332 -0.48426893
v 0.32216990 -0.15720578 -0.48426893
v 0.31215602 -0.17635775 -0.48426893
v 0.32412261 -0.15305734 -0.48426893
v 0.30094051 -0.19488744 -0.48426893
v 0.27525494 -0.22973435 -0.49033317
v 0.28867352 -0.21272573 -0.48426893
v 0.26083499 -0.24598239 -0.49033317
v 0.24561390 -0.26105505 -0.49033317
v 0.22919117 -0.27543634 -0.49330476
v 0.22889075 -0.27509063 -0.49593151
v 0.22818978 -0.27426094 -0.49795291
v 0.22708824 -0.27294725 -0.49918190
v 0.22573638 -0.27121875 -0.49977621
v 0.22393388 -0.26921368 -0.50000000
v 0.22974193 0.27533829 -0.49034783
v 0.24596438 0.26095703 -0.49034783
v 0.26123554 0.24560779 -0.49034783
v 0.27560544 0.22935975 -0.49034783
v 0.28897393 0.21235113 -0.49034417
v 0.30124092 0.19451284 -0.49034417
v 0.31245643 0.17591400 -0.49034417
v 0.32252038 0.15676203 -0.49034417
v 0.33138263 0.13698781 -0.49034417
v 0.33904326 0.11672958 -0.49034417
v 0.34550220 0.09605652 -0.49034417
v 0.35065934 0.07503776 -0.49034050
v 0.35456473 0.05367329 -0.49034050
v 0.35847014 0.01059864 -0.49034050
v 0.35716835 0.03217053 -0.49034050
v 0.35842007 -0.01097325 -0.49034050
v 0.35711828 -0.03247600 -0.49034050
v 0.17176166 -0.30523595 -0.50000000
v 0.17316359 -0.30751759 -0.49977621
v 0.17426512 -0.30945355 -0.49918190
v 0.17506623 -0.31097463 -0.49795291
v 0.17546678 -0.31180432 -0.49593151
v 0.17576720 -0.31228831 -0.49330476
v 0.15659064 -0.32231370 -0.49330476
v 0.15659064 -0.32245198 -0.49033317
v 0.17636803 0.31219026 -0.48427626
v 0.13736403 0.33106568 -0.48155048
v 0.15709135 0.32214653 -0.48155048
v 0.11693574 0.33825630 -0.47923926
v 0.09370358 0.33486840 -0.46252131
v 0.11528346 0.33770317 -0.47747096
v 0.19489369 0.30098948 -0.48427626
v 0.21266828 0.28868243 -0.48427626
v 0.15659064 -0.32245198 -0.48426893
v 0.15659064 -0.32231370 -0.48155048
v 0.17576720 -0.31228831 -0.48155048
v 0.17546678 -0.31180432 -0.47925392
v 0.17506623 -0.31097463 -0.47747096
v 0.17050992 -0.30288517 -0.46252131
v 0.33108222 -0.13736241 -0.48155048
v 0.32407254 -0.15298820 -0.48211545
v 0.33874285 -0.11710418 -0.48155048
v 0.35446459 -0.05411703 -0.48426893
v 0.35045904 -0.07541236 -0.48426893
v 0.35040897 -0.07541236 -0.48155048
v 0.34515172 -0.09643112 -0.48155048
v 0.32206976 -0.15713663 -0.48155048
v 0.31200582 -0.17628860 -0.48155048
v 0.30079031 -0.19481830 -0.48155048
v 0.27525494 -0.22973435 -0.48426893
v 0.28847325 -0.21265659 -0.48155048
v 0.27515480 -0.22966520 -0.48155048
v 0.26083499 -0.24598239 -0.48426893
v 0.24561390 -0.26105505 -0.48426893
v 0.22934137 -0.27543634 -0.49033317
v 0.21226773 -0.28891876 -0.49033317
v 0.21216759 -0.28878048 -0.49330476
v 0.21186718 -0.28836563 -0.49593151
v 0.21126634 -0.28760508 -0.49795291
v 0.21026495 -0.28622228 -0.49918190
v 0.20896316 -0.28414807 -0.49977621
v 0.20731087 -0.28228125 -0.50000000
v 0.22974193 0.27533829 -0.48427626
v 0.24596438 0.26095703 -0.48427626
v 0.26123554 0.24560779 -0.48427626
v 0.27560544 0.22935975 -0.48427626
v 0.28897393 0.21235113 -0.48427260
v 0.30124092 0.19451284 -0.48427260
v 0.31245643 0.17591400 -0.48427260
v 0.32252038 0.15676203 -0.48427260
v 0.33138263 0.13698781 -0.48427260
v 0.33904326 0.11672958 -0.48427260
v 0.34550220 0.09605652 -0.48427260
v 0.35065934 0.07503776 -0.48426893
v 0.35456473 0.05367329 -0.48426893
v 0.35847014 0.01059864 -0.48426893
v 0.35716835 0.03217053 -0.48426893
v 0.35842007 -0.01097325 -0.48426893
v 0.35711828 -0.03247600 -0.48426893
v 0.18993682 -0.29424259 -0.50000000
v 0.19128868 -0.29645509 -0.49977621
v 0.19254042 -0.29832190 -0.49918190
v 0.19344166 -0.29977384 -0.49795291
v 0.19414264 -0.30067268 -0.49593151
v 0.17586733 -0.31242660 -0.49033317
v 0.19434291 -0.30108753 -0.49330476
v 0.17626789 0.31205198 -0.48155048
v 0.13716376 0.33058169 -0.47923926
v 0.15689106 0.32166255 -0.47923926
v 0.17601755 0.31163713 -0.47923926
v 0.11663533 0.33728832 -0.47747096
v 0.11348096 0.32857659 -0.46252131
v 0.19479354 0.30085120 -0.48155048
v 0.21256815 0.28854415 -0.48155048
v 0.17586733 -0.31242660 -0.48426893
v 0.19434291 -0.30108753 -0.48155048
v 0.19414264 -0.30067268 -0.47925392
v 0.18848480 -0.29203010 -0.46252131
v 0.33053148 -0.13715498 -0.47924659
v 0.32352176 -0.15305734 -0.47970149
v 0.32402247 -0.15298820 -0.48155048
v 0.33829221 -0.11696590 -0.47924659
v 0.35431439 -0.05411703 -0.48155048
v 0.35381371 -0.05404789 -0.47924659
v 0.34990829 -0.07527407 -0.47924659
v 0.34470108 -0.09629284 -0.47924659
v 0.32166919 -0.15686007 -0.47925392
v 0.31155521 -0.17601204 -0.47925392
v 0.30038974 -0.19454174 -0.47925392
v 0.28812277 -0.21231090 -0.47925392
v 0.27465409 -0.22931950 -0.47925392
v 0.26043442 -0.24549842 -0.47925392
v 0.26073483 -0.24584413 -0.48155048
v 0.24541362 -0.26098594 -0.48155048
v 0.22919117 -0.27543634 -0.48155048
v 0.22934137 -0.27543634 -0.48426893
v 0.21226773 -0.28891876 -0.48426893
v 0.19439298 -0.30122581 -0.49033317
v 0.22964178 0.27520001 -0.48155048
v 0.24581417 0.26081875 -0.48155048
v 0.26113540 0.24553865 -0.48155048
v 0.27550530 0.22929060 -0.48155048
v 0.28697115 0.21470192 -0.48193568
v 0.28882372 0.21221285 -0.48155048
v 0.30114079 0.19437456 -0.48155048
v 0.31230623 0.17584486 -0.48155048
v 0.32237017 0.15669289 -0.48155048
v 0.33123243 0.13691866 -0.48155048
v 0.33889306 0.11666044 -0.48155048
v 0.34530193 0.09598738 -0.48155048
v 0.34685406 0.08983386 -0.48155048
v 0.35040897 0.07496861 -0.48155048
v 0.35436445 0.05367329 -0.48155048
v 0.35826987 0.01059864 -0.48155048
v 0.35826987 -0.01097325 -0.48155048
v 0.35696808 0.03217053 -0.48155048
v 0.35691801 -0.03247600 -0.48155048
v 0.13676320 0.32961372 -0.47747096
v 0.15644044 0.32076371 -0.47747096
v 0.17551684 0.31073833 -0.47747096
v 0.19454318 0.30043635 -0.47923926
v 0.13310814 0.32110941 -0.46252131
v 0.21226773 0.28812930 -0.47923926
v 0.19439298 -0.30122581 -0.48426893
v 0.21216759 -0.28878048 -0.48155048
v 0.21186718 -0.28836563 -0.47925392
v 0.21126634 -0.28760508 -0.47747096
v 0.20585886 -0.28013790 -0.46252131
v 0.32963023 -0.13674013 -0.47747096
v 0.32342163 -0.15298820 -0.47924659
v 0.34374976 -0.09601627 -0.47747096
v 0.33729082 -0.11662020 -0.47747096
v 0.35641730 -0.03247600 -0.47924659
v 0.35541591 -0.03247600 -0.47747096
v 0.35281232 -0.05384047 -0.47747096
v 0.34890690 -0.07499751 -0.47747096
v 0.32071787 -0.15644522 -0.47747096
v 0.31070402 -0.17552805 -0.47747096
v 0.32232010 -0.15298820 -0.47747096
v 0.29953855 -0.19398861 -0.47747096
v 0.27981126 -0.20622651 -0.46252131
v 0.26689336 -0.22275114 -0.46252131
v 0.27395314 -0.22862808 -0.47747096
v 0.25963330 -0.24480700 -0.47747096
v 0.24436216 -0.26001796 -0.47747096
v 0.24501307 -0.26070938 -0.47925392
v 0.22889075 -0.27509063 -0.47925392
v 0.22929130 0.27478516 -0.47923926
v 0.24546368 0.26047304 -0.47923926
v 0.26073483 0.24512380 -0.47923926
v 0.27505466 0.22894490 -0.47923926
v 0.28627020 0.21470192 -0.47923926
v 0.28692108 0.21470192 -0.48155048
v 0.28842318 0.21193630 -0.47924292
v 0.30069014 0.19409800 -0.47924292
v 0.31185561 0.17563744 -0.47924292
v 0.32186949 0.15648547 -0.47924292
v 0.33073175 0.13678038 -0.47924292
v 0.33839235 0.11652216 -0.47924292
v 0.34485129 0.09584910 -0.47924292
v 0.34670386 0.08983386 -0.48088279
v 0.35000843 0.07489947 -0.47924659
v 0.35386378 0.05360414 -0.47924659
v 0.35776919 0.01052950 -0.47924659
v 0.35776919 -0.01097325 -0.47924659
v 0.35646737 0.03210139 -0.47924659
v 0.15218455 0.31246683 -0.46252131
v 0.15919426 0.30887151 -0.46252131
v 0.19394237 0.29953754 -0.47747096
v 0.17086041 0.30264884 -0.46252131
v 0.18893543 0.29179376 -0.46252131
v 0.21166690 0.28729963 -0.47747096
v 0.22864039 0.27402461 -0.47747096
v 0.22818978 -0.27426094 -0.47747096
v 0.22233167 -0.26720858 -0.46252131
v 0.31245643 -0.15236592 -0.46252131
v 0.32577488 -0.12083778 -0.46252131
v 0.32096821 -0.13314483 -0.46252131
v 0.33473730 -0.09352721 -0.46252131
v 0.32847863 -0.11357801 -0.46252131
v 0.33979428 -0.07313071 -0.46252131
v 0.35671774 -0.01097325 -0.47747096
v 0.34615308 -0.03157717 -0.46252131
v 0.34359956 -0.05245765 -0.46252131
v 0.31210595 -0.15305734 -0.46252131
v 0.30885145 -0.15927999 -0.46252131
v 0.30269292 -0.17096476 -0.46252131
v 0.29863733 -0.17767142 -0.46252131
v 0.29177782 -0.18894134 -0.46252131
v 0.26168615 -0.22862808 -0.46252131
v 0.25292403 -0.23844607 -0.46252131
v 0.23800336 -0.25331131 -0.46252131
v 0.24476272 0.25971249 -0.47747096
v 0.25998378 0.24443240 -0.47747096
v 0.27430362 0.22832263 -0.47747096
v 0.28762206 0.21131402 -0.47747096
v 0.29978889 0.19354486 -0.47747096
v 0.31095436 0.17508431 -0.47747096
v 0.32096821 0.15600148 -0.47747096
v 0.32983050 0.13636553 -0.47747096
v 0.33744103 0.11617646 -0.47747096
v 0.34384990 0.09557253 -0.47747096
v 0.34900704 0.07462291 -0.47747096
v 0.35286239 0.05346586 -0.47747096
v 0.35546598 0.03203226 -0.47747096
v 0.35671774 0.01052950 -0.47747096
v 0.20610920 0.27990156 -0.46252131
v 0.22273222 0.26690313 -0.46252131
v 0.34740484 -0.01069668 -0.46252131
v 0.23840392 0.25293672 -0.46252131
v 0.24391155 0.24747461 -0.46252131
v 0.25322443 0.23807147 -0.46252131
v 0.25838158 0.23226365 -0.46252131
v 0.26709366 0.22237653 -0.46252131
v 0.28001153 0.20585191 -0.46252131
v 0.29197809 0.18849760 -0.46252131
v 0.30284315 0.17059016 -0.46252131
v 0.31255656 0.15192218 -0.46252131
v 0.31576103 0.14486983 -0.46252131
v 0.32121858 0.13263194 -0.46252131
v 0.32867891 0.11313426 -0.46252131
v 0.33488750 0.09315261 -0.46252131
v 0.33674008 0.08561628 -0.46252131
v 0.33989441 0.07275611 -0.46252131
v 0.34129637 0.06508150 -0.46252131
v 0.34364963 0.05208305 -0.46252131
v 0.34620315 0.03120257 -0.46252131
v 0.34740484 0.01025294 -0.46252131
f 1 2 6
f 1 6 12
f 1 12 22
f 1 22 36
f 1 36 56
f 1 56 78
f 1 78 96
f 1 96 106
f 1 106 87
f 1 87 65
f 1 65 43
f 1 43 27
f 1 27 15
f 1 15 8
f 1 8 3
f 1 3 4
f 1 4 5
f 1 5 7
f 1 7 2
f 2 7 6
f 3 8 9
f 3 9 4
f 4 9 10
f 4 10 11
f 4 11 5
f 5 11 14
f 5 14 7
f 6 7 13
f 6 13 12
f 7 14 13
f 8 15 9
f 9 16 17
f 9 17 10
f 9 15 18
f 9 18 16
f 10 17 19
f 10 19 20
f 10 20 11
f 11 20 21
f 11 21 25
f 11 25 14
f 12 13 23
f 12 23 22
f 13 14 24
f 13 24 23
f 14 25 26
f 14 26 24
f 15 27 28
f 15 28 18
f 16 18 28
f 16 28 29
f 16 29 30
f 16 30 31
f 16 31 19
f 16 19 17
f 19 32 33
f 19 33 34
f 19 34 20
f 19 31 32
f 20 34 35
f 20 35 21
f 21 35 41
f 21 41 25
f 22 23 36
f 23 24 37
f 23 37 38
f 23 38 39
f 23 39 36
f 24 26 40
f 24 40 37
f 25 41 42
f 25 42 26
f 26 42 60
f 26 60 40
f 27 43 44
f 27 44 28
f 28 44 45
f 28 45 29
f 29 45 30
f 30 45 46
f 30 46 47
f 30 47 48
f 30 48 32
f 30 32 31
f 32 49 50
f 32 50 33
f 32 48 49
f 33 50 51
f 33 51 34
f 34 51 52
f 34 52 53
f 34 53 35
f 35 53 62
f 35 62 41
f 36 39 54
f 36 54 55
f 36 55 56
f 37 40 38
f 38 57 58
f 38 58 54
f 38 54 39
f 38 40 59
f 38 59 57
f 40 60 61
f 40 61 59
f 41 62 42
f 42 62 63
f 42 63 64
f 42 64 60
f 43 65 66
f 43 66 44
f 44 66 45
f 45 67 68
f 45 68 46
f 45 66 67
f 46 68 47
f 47 69 70
f 47 70 49
f 47 49 48
f 47 68 71
f 47 71 69
f 49 70 72
f 49 72 73
f 49 73 74
f 49 74 50
f 50 74 51
f 51 74 75
f 51 75 76
f 51 76 52
f 52 76 77
f 52 77 53
f 53 77 83
f 53 83 62
f 54 58 57
f 54 57 79
f 54 79 82
f 54 82 81
f 54 81 99
f 54 99 104
f 54 104 123
f 54 123 142
f 54 142 196
f 54 196 255
f 54 255 315
f 54 315 371
f 54 371 429
f 54 429 489
f 54 489 547
f 54 547 606
f 54 606 656
f 54 656 703
f 54 703 720
f 54 720 719
f 54 719 718
f 54 718 670
f 54 670 669
f 54 669 717
f 54 717 716
f 54 716 715
f 54 715 714
f 54 714 713
f 54 713 704
f 54 704 706
f 54 706 705
f 54 705 708
f 54 708 707
f 54 707 709
f 54 709 712
f 54 712 711
f 54 711 737
f 54 737 756
f 54 756 755
f 54 755 754
f 54 754 753
f 54 753 752
f 54 752 751
f 54 751 750
f 54 750 749
f 54 749 748
f 54 748 747
f 54 747 746
f 54 746 745
f 54 745 744
f 54 744 743
f 54 743 742
f 54 742 741
f 54 741 740
f 54 740 739
f 54 739 738
f 54 738 736
f 54 736 735
f 54 735 699
f 54 699 698
f 54 698 696
f 54 696 695
f 54 695 650
f 54 650 600
f 54 600 538
f 54 538 481
f 54 481 420
f 54 420 363
f 54 363 309
f 54 309 308
f 54 308 307
f 54 307 303
f 54 303 243
f 54 243 242
f 54 242 241
f 54 241 240
f 54 240 237
f 54 237 182
f 54 182 133
f 54 133 115
f 54 115 97
f 54 97 78
f 54 78 56
f 54 56 55
f 57 59 79
f 59 61 79
f 60 64 80
f 60 80 61
f 61 80 81
f 61 81 82
f 61 82 79
f 62 83 84
f 62 84 63
f 63 84 85
f 63 85 64
f 64 85 86
f 64 86 80
f 65 87 105
f 65 105 124
f 65 124 144
f 65 144 202
f 65 202 263
f 65 263 327
f 65 327 386
f 65 386 448
f 65 448 508
f 65 508 570
f 65 570 588
f 65 588 526
f 65 526 469
f 65 469 408
f 65 408 352
f 65 352 294
f 65 294 233
f 65 233 177
f 65 177 127
f 65 127 108
f 65 108 90
f 65 90 88
f 65 88 69
f 65 69 71
f 65 71 68
f 65 68 67
f 65 67 66
f 69 88 72
f 69 72 70
f 72 89 73
f 72 88 90
f 72 90 89
f 73 91 74
f 73 89 91
f 74 91 92
f 74 92 93
f 74 93 75
f 75 93 76
f 76 93 94
f 76 94 95
f 76 95 77
f 77 95 100
f 77 100 83
f 78 97 98
f 78 98 96
f 80 86 81
f 81 86 99
f 83 100 101
f 83 101 84
f 84 101 102
f 84 102 85
f 85 102 86
f 86 102 103
f 86 103 104
f 86 104 99
f 87 106 98
f 87 98 107
f 87 107 105
f 89 90 108
f 89 108 109
f 89 109 110
f 89 110 91
f 91 110 92
f 92 111 93
f 92 110 111
f 93 112 113
f 93 113 94
f 93 111 112
f 94 113 114
f 94 114 95
f 95 114 119
f 95 119 100
f 96 98 106
f 97 115 116
f 97 116 98
f 98 116 117
f 98 117 118
f 98 118 107
f 100 119 120
f 100 120 101
f 101 120 102
f 102 120 121
f 102 121 122
f 102 122 103
f 103 122 123
f 103 123 104
f 105 107 124
f 107 118 125
f 107 125 124
f 108 126 109
f 108 127 126
f 109 126 110
f 110 126 128
f 110 128 129
f 110 129 111
f 111 129 130
f 111 130 112
f 112 130 131
f 112 131 113
f 113 131 132
f 113 132 114
f 114 132 138
f 114 138 119
f 115 133 134
f 115 134 116
f 116 134 135
f 116 135 117
f 117 135 136
f 117 136 118
f 118 136 137
f 118 137 125
f 119 138 139
f 119 139 120
f 120 139 121
f 121 139 140
f 121 140 122
f 122 140 141
f 122 141 123
f 123 141 142
f 124 143 144
f 124 125 145
f 124 145 146
f 124 146 147
f 124 147 148
f 124 148 149
f 124 149 150
f 124 150 151
f 124 151 152
f 124 152 153
f 124 153 154
f 124 154 155
f 124 155 156
f 124 156 157
f 124 157 158
f 124 158 159
f 124 159 160
f 124 160 161
f 124 161 162
f 124 162 163
f 124 163 164
f 124 164 165
f 124 165 166
f 124 166 167
f 124 167 168
f 124 168 169
f 124 169 170
f 124 170 171
f 124 171 172
f 124 172 173
f 124 173 174
f 124 174 143
f 125 137 145
f 126 175 128
f 126 127 176
f 126 176 175
f 127 177 176
f 128 175 129
f 129 175 178
f 129 178 179
f 129 179 130
f 130 179 131
f 131 179 180
f 131 180 181
f 131 181 132
f 132 181 192
f 132 192 138
f 133 182 134
f 134 182 183
f 134 183 135
f 135 184 136
f 135 183 185
f 135 185 186
f 135 186 187
f 135 187 188
f 135 188 189
f 135 189 184
f 136 184 137
f 137 190 191
f 137 191 145
f 137 184 190
f 138 192 193
f 138 193 139
f 139 193 194
f 139 194 140
f 140 194 141
f 141 194 195
f 141 195 196
f 141 196 142
f 143 174 197
f 143 197 198
f 143 198 199
f 143 199 200
f 143 200 144
f 144 200 201
f 144 201 202
f 145 191 203
f 145 203 146
f 146 203 204
f 146 204 147
f 147 204 205
f 147 205 148
f 148 205 149
f 149 206 150
f 149 205 206
f 150 206 207
f 150 207 208
f 150 208 151
f 151 208 152
f 152 209 210
f 152 210 153
f 152 208 209
f 153 210 154
f 154 211 212
f 154 212 155
f 154 210 211
f 155 212 156
f 156 213 214
f 156 214 157
f 156 212 213
f 157 214 215
f 157 215 158
f 158 215 159
f 159 215 216
f 159 216 217
f 159 217 160
f 160 217 218
f 160 218 161
f 161 218 162
f 162 218 219
f 162 219 220
f 162 220 163
f 163 220 164
f 164 220 221
f 164 221 222
f 164 222 165
f 165 222 223
f 165 223 166
f 166 223 224
f 166 224 167
f 167 224 225
f 167 225 168
f 168 225 169
f 169 225 226
f 169 226 170
f 170 227 228
f 170 228 171
f 170 226 227
f 171 228 172
f 172 228 173
f 173 229 197
f 173 197 174
f 173 228 229
f 175 176 230
f 175 230 231
f 175 231 232
f 175 232 178
f 176 177 230
f 177 233 230
f 178 232 179
f 179 232 234
f 179 234 235
f 179 235 180
f 180 235 236
f 180 236 181
f 181 236 251
f 181 251 192
f 182 237 185
f 182 185 183
f 184 189 238
f 184 238 239
f 184 239 190
f 185 237 240
f 185 240 186
f 186 240 187
f 187 240 241
f 187 241 188
f 188 241 242
f 188 242 243
f 188 243 244
f 188 244 189
f 189 245 246
f 189 246 238
f 189 244 247
f 189 247 248
f 189 248 249
f 189 249 245
f 190 239 250
f 190 250 191
f 191 250 203
f 192 251 193
f 193 251 252
f 193 252 253
f 193 253 194
f 194 253 254
f 194 254 195
f 195 254 196
f 196 254 255
f 197 229 256
f 197 256 257
f 197 257 258
f 197 258 198
f 198 258 199
f 199 258 259
f 199 259 260
f 199 260 201
f 199 201 200
f 201 260 261
f 201 261 262
f 201 262 263
f 201 263 202
f 203 264 265
f 203 265 204
f 203 250 264
f 204 265 205
f 205 265 266
f 205 266 267
f 205 267 206
f 206 267 268
f 206 268 207
f 207 268 208
f 208 268 269
f 208 269 270
f 208 270 209
f 209 270 271
f 209 271 210
f 210 271 211
f 211 271 272
f 211 272 273
f 211 273 274
f 211 274 275
f 211 275 212
f 212 275 276
f 212 276 213
f 213 276 214
f 214 276 277
f 214 277 215
f 215 277 278
f 215 278 279
f 215 279 216
f 216 279 217
f 217 279 280
f 217 280 281
f 217 281 218
f 218 281 219
f 219 281 282
f 219 282 283
f 219 283 284
f 219 284 220
f 220 284 285
f 220 285 221
f 221 285 222
f 222 286 287
f 222 287 223
f 222 285 286
f 223 287 288
f 223 288 224
f 224 288 225
f 225 289 226
f 225 288 289
f 226 290 227
f 226 289 290
f 227 291 292
f 227 292 228
f 227 290 291
f 228 292 229
f 229 292 293
f 229 293 256
f 230 233 294
f 230 294 295
f 230 295 296
f 230 296 231
f 231 296 232
f 232 296 297
f 232 297 298
f 232 298 234
f 234 298 299
f 234 299 235
f 235 299 236
f 236 299 300
f 236 300 311
f 236 311 251
f 238 246 301
f 238 301 239
f 239 301 302
f 239 302 250
f 243 303 244
f 244 303 247
f 245 249 304
f 245 304 305
f 245 305 246
f 246 305 306
f 246 306 359
f 246 359 301
f 247 303 248
f 248 303 307
f 248 307 308
f 248 308 249
f 249 308 309
f 249 309 304
f 250 302 310
f 250 310 264
f 251 311 312
f 251 312 252
f 252 312 253
f 253 312 313
f 253 313 254
f 254 313 314
f 254 314 315
f 254 315 255
f 256 316 317
f 256 317 257
f 256 293 318
f 256 318 316
f 257 317 319
f 257 319 258
f 258 319 259
f 259 319 320
f 259 320 321
f 259 321 322
f 259 322 260
f 260 322 261
f 261 322 323
f 261 323 324
f 261 324 325
f 261 325 326
f 261 326 262
f 262 326 327
f 262 327 263
f 264 310 265
f 265 328 266
f 265 310 329
f 265 329 328
f 266 328 330
f 266 330 267
f 267 330 268
f 268 330 331
f 268 331 269
f 269 332 333
f 269 333 270
f 269 331 332
f 270 273 272
f 270 272 271
f 270 333 273
f 273 333 334
f 273 334 335
f 273 335 274
f 274 335 275
f 275 336 276
f 275 335 337
f 275 337 336
f 276 336 338
f 276 338 277
f 277 338 339
f 277 339 278
f 278 339 279
f 279 340 341
f 279 341 280
f 279 339 340
f 280 341 282
f 280 282 281
f 282 341 342
f 282 342 343
f 282 343 283
f 283 343 284
f 284 344 285
f 284 343 344
f 285 344 345
f 285 345 286
f 286 345 346
f 286 346 347
f 286 347 287
f 287 347 348
f 287 348 288
f 288 348 349
f 288 349 289
f 289 349 350
f 289 350 290
f 290 350 351
f 290 351 291
f 291 351 292
f 292 351 293
f 293 351 318
f 294 352 295
f 295 352 353
f 295 353 354
f 295 354 296
f 296 354 355
f 296 355 297
f 297 355 356
f 297 356 298
f 298 356 299
f 299 356 357
f 299 357 358
f 299 358 300
f 300 358 367
f 300 367 311
f 301 359 416
f 301 416 360
f 301 360 302
f 302 360 361
f 302 361 310
f 304 362 305
f 304 309 363
f 304 363 362
f 305 362 364
f 305 364 306
f 306 364 365
f 306 365 417
f 306 417 359
f 310 361 366
f 310 366 329
f 311 367 368
f 311 368 312
f 312 368 369
f 312 369 313
f 313 369 370
f 313 370 314
f 314 370 315
f 315 370 371
f 316 318 372
f 316 372 317
f 317 373 319
f 317 372 373
f 318 351 374
f 318 374 431
f 318 431 375
f 318 375 372
f 319 376 377
f 319 377 320
f 319 373 378
f 319 378 376
f 320 377 321
f 321 379 380
f 321 380 322
f 321 377 379
f 322 380 323
f 323 380 324
f 324 381 382
f 324 382 383
f 324 383 384
f 324 384 325
f 324 380 381
f 325 384 326
f 326 384 385
f 326 385 386
f 326 386 327
f 328 329 366
f 328 366 387
f 328 387 330
f 330 388 389
f 330 389 331
f 330 387 388
f 331 389 332
f 332 390 333
f 332 389 390
f 333 390 391
f 333 391 392
f 333 392 334
f 334 392 335
f 335 393 337
f 335 392 394
f 335 394 393
f 336 337 393
f 336 393 395
f 336 395 338
f 338 396 339
f 338 395 396
f 339 396 397
f 339 397 398
f 339 398 340
f 340 398 399
f 340 399 341
f 341 399 400
f 341 400 343
f 341 343 342
f 343 400 344
f 344 401 345
f 344 400 401
f 345 402 346
f 345 401 403
f 345 403 402
f 346 402 404
f 346 404 347
f 347 404 348
f 348 405 406
f 348 406 349
f 348 404 405
f 349 406 407
f 349 407 350
f 350 407 351
f 351 407 374
f 352 408 409
f 352 409 353
f 353 409 354
f 354 409 410
f 354 410 411
f 354 411 355
f 355 411 412
f 355 412 356
f 356 412 357
f 357 412 413
f 357 413 414
f 357 414 358
f 358 414 425
f 358 425 367
f 359 415 416
f 359 417 415
f 360 416 361
f 361 418 423
f 361 423 366
f 361 416 418
f 362 363 419
f 362 419 364
f 363 420 421
f 363 421 419
f 364 419 422
f 364 422 365
f 365 422 479
f 365 479 417
f 366 423 424
f 366 424 387
f 367 425 368
f 368 425 426
f 368 426 427
f 368 427 369
f 369 427 428
f 369 428 370
f 370 428 429
f 370 429 371
f 372 430 378
f 372 378 373
f 372 375 430
f 374 407 432
f 374 432 431
f 375 431 433
f 375 433 434
f 375 434 430
f 376 378 437
f 376 437 435
f 376 435 436
f 376 436 377
f 377 436 438
f 377 438 379
f 378 430 437
f 379 438 439
f 379 439 440
f 379 440 380
f 380 440 441
f 380 441 381
f 381 441 382
f 382 442 443
f 382 443 444
f 382 444 445
f 382 445 383
f 382 441 442
f 383 445 384
f 384 445 446
f 384 446 447
f 384 447 385
f 385 447 386
f 386 447 448
f 387 424 449
f 387 449 388
f 388 449 389
f 389 450 451
f 389 451 390
f 389 449 450
f 390 451 391
f 391 452 392
f 391 451 452
f 392 453 394
f 392 452 453
f 393 394 454
f 393 454 395
f 394 453 455
f 394 455 454
f 395 456 457
f 395 457 396
f 395 454 456
f 396 457 397
f 397 458 459
f 397 459 398
f 397 457 458
f 398 459 399
f 399 459 460
f 399 460 461
f 399 461 400
f 400 461 462
f 400 462 463
f 400 463 401
f 401 463 465
f 401 465 403
f 402 403 465
f 402 465 464
f 402 464 466
f 402 466 404
f 404 466 468
f 404 468 405
f 405 467 406
f 405 468 467
f 406 467 432
f 406 432 407
f 408 469 470
f 408 470 409
f 409 470 471
f 409 471 410
f 410 471 411
f 411 471 472
f 411 472 473
f 411 473 474
f 411 474 412
f 412 474 475
f 412 475 413
f 413 475 414
f 414 475 476
f 414 476 486
f 414 486 425
f 415 477 418
f 415 418 416
f 415 417 479
f 415 479 478
f 415 478 534
f 415 534 477
f 418 477 484
f 418 484 423
f 419 421 480
f 419 480 422
f 420 481 482
f 420 482 483
f 420 483 421
f 421 483 480
f 422 480 535
f 422 535 479
f 423 484 485
f 423 485 424
f 424 485 509
f 424 509 449
f 425 486 487
f 425 487 426
f 426 487 427
f 427 487 488
f 427 488 428
f 428 488 429
f 429 488 489
f 430 434 494
f 430 494 490
f 430 490 497
f 430 497 437
f 431 432 433
f 432 467 491
f 432 491 492
f 432 492 433
f 433 492 552
f 433 552 493
f 433 493 494
f 433 494 434
f 435 437 497
f 435 497 495
f 435 495 496
f 435 496 436
f 436 496 498
f 436 498 438
f 438 498 500
f 438 500 439
f 439 499 441
f 439 441 440
f 439 500 558
f 439 558 499
f 441 499 501
f 441 501 442
f 442 501 502
f 442 502 443
f 443 502 503
f 443 503 504
f 443 504 444
f 444 504 445
f 445 504 505
f 445 505 506
f 445 506 446
f 446 506 447
f 447 506 507
f 447 507 508
f 447 508 448
f 449 509 510
f 449 510 450
f 450 510 451
f 451 511 512
f 451 512 452
f 451 510 511
f 452 512 513
f 452 513 453
f 453 513 455
f 454 514 515
f 454 515 456
f 454 455 513
f 454 513 514
f 456 515 516
f 456 516 457
f 457 516 517
f 457 517 458
f 458 517 518
f 458 518 459
f 459 518 519
f 459 519 460
f 460 519 461
f 461 520 462
f 461 519 520
f 462 520 463
f 463 520 521
f 463 521 523
f 463 523 465
f 464 522 466
f 464 465 523
f 464 523 522
f 466 524 525
f 466 525 468
f 466 522 524
f 467 468 525
f 467 525 491
f 469 526 527
f 469 527 470
f 470 527 528
f 470 528 472
f 470 472 471
f 472 528 529
f 472 529 473
f 473 529 474
f 474 529 530
f 474 530 531
f 474 531 532
f 474 532 475
f 475 532 476
f 476 532 533
f 476 533 542
f 476 542 486
f 477 534 540
f 477 540 484
f 478 479 535
f 478 535 536
f 478 536 595
f 478 595 534
f 480 483 537
f 480 537 596
f 480 596 535
f 481 538 482
f 482 539 537
f 482 537 483
f 482 538 539
f 484 540 541
f 484 541 485
f 485 541 571
f 485 571 509
f 486 542 543
f 486 543 487
f 487 543 488
f 488 543 544
f 488 544 545
f 488 545 546
f 488 546 489
f 489 546 547
f 490 548 549
f 490 549 497
f 490 494 550
f 490 550 548
f 491 551 552
f 491 552 492
f 491 525 587
f 491 587 551
f 493 552 553
f 493 553 554
f 493 554 550
f 493 550 494
f 495 497 549
f 495 549 555
f 495 555 496
f 496 555 556
f 496 556 557
f 496 557 498
f 498 557 500
f 499 558 561
f 499 561 501
f 500 557 559
f 500 559 560
f 500 560 558
f 501 561 562
f 501 562 502
f 502 562 624
f 502 624 563
f 502 563 503
f 503 563 564
f 503 564 565
f 503 565 504
f 504 565 566
f 504 566 567
f 504 567 505
f 505 567 568
f 505 568 506
f 506 568 507
f 507 568 569
f 507 569 570
f 507 570 508
f 509 571 572
f 509 572 510
f 510 572 573
f 510 573 511
f 511 573 574
f 511 574 512
f 512 574 575
f 512 575 513
f 513 575 576
f 513 576 514
f 514 576 577
f 514 577 515
f 515 577 578
f 515 578 516
f 516 578 579
f 516 579 517
f 517 579 580
f 517 580 518
f 518 580 581
f 518 581 519
f 519 581 582
f 519 582 520
f 520 582 583
f 520 583 521
f 521 583 585
f 521 585 523
f 522 523 585
f 522 585 584
f 522 584 586
f 522 586 524
f 524 586 587
f 524 587 525
f 526 588 527
f 527 588 589
f 527 589 590
f 527 590 528
f 528 590 529
f 529 590 591
f 529 591 592
f 529 592 530
f 530 592 531
f 531 593 532
f 531 592 594
f 531 594 593
f 532 593 533
f 533 593 603
f 533 603 542
f 534 595 601
f 534 601 540
f 535 596 597
f 535 597 536
f 536 597 598
f 536 598 595
f 537 539 599
f 537 599 596
f 538 599 539
f 538 600 599
f 540 601 602
f 540 602 541
f 541 602 627
f 541 627 571
f 542 603 543
f 543 603 544
f 544 603 604
f 544 604 605
f 544 605 545
f 545 605 546
f 546 605 606
f 546 606 547
f 548 607 608
f 548 608 609
f 548 609 549
f 548 550 610
f 548 610 607
f 549 609 555
f 550 554 614
f 550 614 610
f 551 611 553
f 551 553 552
f 551 587 611
f 553 611 612
f 553 612 613
f 553 613 614
f 553 614 554
f 555 615 556
f 555 609 615
f 556 615 616
f 556 616 617
f 556 617 557
f 557 617 618
f 557 618 559
f 558 560 561
f 559 618 560
f 560 619 620
f 560 620 621
f 560 621 561
f 560 618 619
f 561 621 562
f 562 622 623
f 562 623 624
f 562 621 622
f 563 624 625
f 563 625 564
f 564 625 652
f 564 652 626
f 564 626 594
f 564 594 565
f 565 594 592
f 565 592 566
f 566 592 567
f 567 592 591
f 567 591 568
f 568 591 590
f 568 590 589
f 568 589 569
f 569 589 570
f 570 589 588
f 571 627 572
f 572 628 629
f 572 629 573
f 572 627 628
f 573 629 630
f 573 630 574
f 574 630 575
f 575 631 632
f 575 632 633
f 575 633 576
f 575 630 631
f 576 633 577
f 577 633 634
f 577 634 635
f 577 635 578
f 578 635 636
f 578 636 579
f 579 636 637
f 579 637 580
f 580 637 581
f 581 638 639
f 581 639 582
f 581 637 638
f 582 640 641
f 582 641 583
f 582 639 640
f 583 641 644
f 583 644 585
f 584 585 644
f 584 644 642
f 584 642 643
f 584 643 586
f 586 643 587
f 587 645 611
f 587 643 645
f 593 594 626
f 593 626 652
f 593 652 603
f 595 598 649
f 595 649 601
f 596 646 647
f 596 647 597
f 596 599 646
f 597 647 598
f 598 648 649
f 598 647 648
f 599 600 650
f 599 650 646
f 601 649 602
f 602 651 627
f 602 649 651
f 603 652 604
f 604 652 625
f 604 625 653
f 604 653 605
f 605 653 654
f 605 654 655
f 605 655 656
f 605 656 606
f 607 610 657
f 607 657 658
f 607 658 608
f 608 658 615
f 608 615 609
f 610 614 659
f 610 659 660
f 610 660 657
f 611 645 661
f 611 661 612
f 612 661 662
f 612 662 663
f 612 663 613
f 613 663 664
f 613 664 659
f 613 659 614
f 615 665 666
f 615 666 616
f 615 658 667
f 615 667 665
f 616 666 617
f 617 668 618
f 617 666 668
f 618 668 669
f 618 669 670
f 618 670 671
f 618 671 619
f 619 671 620
f 620 672 673
f 620 673 674
f 620 674 622
f 620 622 621
f 620 671 672
f 622 674 675
f 622 675 623
f 623 675 653
f 623 653 625
f 623 625 624
f 627 651 676
f 627 676 677
f 627 677 628
f 628 677 629
f 629 678 679
f 629 679 630
f 629 677 678
f 630 679 680
f 630 680 681
f 630 681 631
f 631 681 632
f 632 681 682
f 632 682 633
f 633 683 684
f 633 684 634
f 633 682 683
f 634 684 635
f 635 685 686
f 635 686 636
f 635 684 685
f 636 686 687
f 636 687 637
f 637 687 688
f 637 688 638
f 638 688 639
f 639 688 689
f 639 689 690
f 639 690 640
f 640 690 641
f 641 691 694
f 641 694 644
f 641 690 691
f 642 692 693
f 642 693 643
f 642 644 694
f 642 694 692
f 643 693 661
f 643 661 645
f 646 650 647
f 647 650 695
f 647 695 696
f 647 696 648
f 648 697 649
f 648 696 698
f 648 698 699
f 648 699 697
f 649 697 700
f 649 700 651
f 651 700 701
f 651 701 676
f 653 675 654
f 654 675 655
f 655 675 702
f 655 702 703
f 655 703 656
f 657 704 667
f 657 667 658
f 657 660 705
f 657 705 706
f 657 706 704
f 659 707 708
f 659 708 660
f 659 664 709
f 659 709 707
f 660 708 705
f 661 693 662
f 662 693 710
f 662 710 711
f 662 711 663
f 663 711 712
f 663 712 709
f 663 709 664
f 665 713 714
f 665 714 666
f 665 667 704
f 665 704 713
f 666 714 715
f 666 715 716
f 666 716 668
f 668 716 717
f 668 717 669
f 670 718 672
f 670 672 671
f 672 718 719
f 672 719 720
f 672 720 673
f 673 720 703
f 673 703 702
f 673 702 675
f 673 675 674
f 676 701 677
f 677 721 722
f 677 722 678
f 677 701 721
f 678 722 723
f 678 723 679
f 679 723 680
f 680 724 682
f 680 682 681
f 680 723 724
f 682 724 683
f 683 725 726
f 683 726 684
f 683 724 725
f 684 726 727
f 684 727 685
f 685 727 728
f 685 728 686
f 686 728 687
f 687 729 688
f 687 728 729
f 688 730 731
f 688 731 690
f 688 690 689
f 688 729 730
f 690 731 732
f 690 732 691
f 691 732 733
f 691 733 694
f 692 694 733
f 692 733 734
f 692 734 710
f 692 710 693
f 697 699 700
f 699 735 700
f 700 735 736
f 700 736 701
f 701 736 721
f 710 734 756
f 710 756 737
f 710 737 711
f 721 736 738
f 721 738 739
f 721 739 722
f 722 739 740
f 722 740 723
f 723 740 741
f 723 741 742
f 723 742 724
f 724 742 743
f 724 743 744
f 724 744 725
f 725 744 745
f 725 745 726
f 726 745 727
f 727 745 746
f 727 746 747
f 727 747 728
f 728 747 748
f 728 748 749
f 728 749 729
f 729 749 730
f 730 749 750
f 730 750 731
f 731 750 751
f 731 751 752
f 731 752 753
f 731 753 732
f 732 754 755
f 732 755 733
f 732 753 754
f 733 755 734
f 734 755 756

