# https://github.com/mikedh/trimesh
v 0.21490550 -0.28699321 0.48428544
v 0.21490550 -0.28699321 0.49035066
v 0.21490550 -0.28682765 0.48197919
v 0.22944230 -0.27562517 0.48428544
v 0.21490550 -0.28697479 0.49079290
v 0.22944230 -0.27562517 0.49035066
v 0.21490550 -0.28679085 0.48156008
v 0.22932804 -0.27549639 0.48156008
v 0.24565494 -0.26127714 0.48428544
v 0.21490550 -0.28679085 0.49332541
v 0.22932804 -0.27549639 0.49332541
v 0.24565494 -0.26127714 0.49035066
v 0.21490550 -0.28612864 0.47923583
v 0.22899793 -0.27511010 0.47923583
v 0.24519788 -0.26078048 0.47923583
v 0.24554068 -0.26114839 0.48156008
v 0.26097885 -0.24597260 0.48428544
v 0.21490550 -0.28612864 0.49594024
v 0.22899793 -0.27511010 0.49594024
v 0.24554068 -0.26114839 0.49332541
v 0.24519788 -0.26078048 0.49594024
v 0.26097885 -0.24597260 0.49035066
v 0.21490550 -0.28484100 0.47747719
v 0.22835045 -0.27431911 0.47747719
v 0.24449961 -0.26002628 0.47747719
v 0.25974736 -0.24479532 0.47747719
v 0.26049641 -0.24549434 0.47923583
v 0.26086459 -0.24584383 0.48156008
v 0.27523634 -0.22965634 0.48156008
v 0.27536330 -0.22976670 0.48428544
v 0.21490550 -0.28590789 0.49630532
v 0.22835045 -0.27431911 0.49797395
v 0.26086459 -0.24584383 0.49332541
v 0.26049641 -0.24549434 0.49594024
v 0.25974736 -0.24479532 0.49797395
v 0.24449961 -0.26002628 0.49797395
v 0.27536330 -0.22976670 0.49035066
v 0.27523634 -0.22965634 0.49332541
v 0.21490550 -0.28436273 0.47724321
v 0.22725859 -0.27301309 0.47642046
v 0.24331889 -0.25879383 0.47642046
v 0.25850317 -0.24361806 0.47642046
v 0.27274793 -0.22757772 0.47642046
v 0.27405563 -0.22866301 0.47747719
v 0.27483007 -0.22932522 0.47923583
v 0.28817344 -0.21230996 0.47923583
v 0.28859240 -0.21262267 0.48156008
v 0.28871936 -0.21271464 0.48428544
v 0.21490550 -0.28484100 0.49797395
v 0.22725859 -0.27301309 0.49919009
v 0.27483007 -0.22932522 0.49594024
v 0.27405563 -0.22866301 0.49797395
v 0.27274793 -0.22757772 0.49919009
v 0.25850317 -0.24361806 0.49919009
v 0.24331889 -0.25879383 0.49919009
v 0.28871936 -0.21271464 0.49035066
v 0.28859240 -0.21262267 0.49332541
v 0.28817344 -0.21230996 0.49594024
v 0.21490550 -0.28267041 0.47642046
v 0.21490550 -0.27393281 0.47373626
v 0.22284043 -0.26771536 0.47373626
v 0.23678051 -0.25539079 0.47373626
v 0.23860872 -0.25377202 0.47373626
v 0.25348830 -0.23890896 0.47373626
v 0.26582870 -0.22498403 0.47373626
v 0.26744106 -0.22316293 0.47373626
v 0.27893084 -0.20852061 0.47373626
v 0.28042895 -0.20660754 0.47373626
v 0.28596437 -0.21069120 0.47642046
v 0.28734821 -0.21170291 0.47747719
v 0.29959974 -0.19397025 0.47747719
v 0.30046305 -0.19452210 0.47923583
v 0.30089471 -0.19479802 0.48156008
v 0.30104706 -0.19488999 0.48428544
v 0.21490550 -0.28322226 0.49888155
v 0.22581127 -0.27128395 0.49979943
v 0.21490550 -0.27981919 0.49979943
v 0.21490550 -0.28267041 0.49919009
v 0.24178270 -0.25715670 0.49979943
v 0.28734821 -0.21170291 0.49797395
v 0.28596437 -0.21069120 0.49919009
v 0.28416154 -0.20936677 0.49979943
v 0.27102131 -0.22614291 0.49979943
v 0.25686538 -0.24209127 0.49979943
v 0.30104706 -0.19488999 0.49035066
v 0.30089471 -0.19479802 0.49332541
v 0.30046305 -0.19452210 0.49594024
v 0.29961243 -0.19397025 0.49797395
v 0.21490550 -0.25717509 0.47373626
v 0.29100463 -0.19132139 0.47373626
v 0.29816508 -0.19305050 0.47642046
v 0.30928668 -0.17471080 0.47642046
v 0.31077212 -0.17553857 0.47747719
v 0.31166083 -0.17605363 0.47923583
v 0.31210518 -0.17629276 0.48156008
v 0.31225753 -0.17638473 0.48428544
v 0.22413541 -0.26926053 0.49999997
v 0.21490550 -0.27648973 0.49999997
v 0.23997988 -0.25524363 0.49999997
v 0.29816508 -0.19305050 0.49919009
v 0.29629880 -0.19183645 0.49979943
v 0.28204134 -0.20780320 0.49999997
v 0.29407701 -0.19042003 0.49999997
v 0.26898995 -0.22445057 0.49999997
v 0.25494832 -0.24028859 0.49999997
v 0.31225753 -0.17638473 0.49035066
v 0.31210518 -0.17629276 0.49332541
v 0.31166083 -0.17605363 0.49594024
v 0.31077212 -0.17553857 0.49797395
v 0.30928668 -0.17471080 0.49919009
v 0.21490550 -0.25728545 0.48503107
v 0.32001472 -0.09910781 0.47373626
v 0.29238847 -0.18931635 0.47373626
v 0.30202463 -0.17340477 0.47373626
v 0.30328155 -0.17132615 0.47373626
v 0.31194013 -0.15484431 0.47373626
v 0.31926566 -0.15570888 0.47642046
v 0.32080185 -0.15646307 0.47747719
v 0.32171595 -0.15690455 0.47923583
v 0.32218570 -0.15712529 0.48156008
v 0.32233804 -0.15721726 0.48428544
v 0.21490550 -0.26905817 0.49999997
v 0.30733153 -0.17360711 0.49979943
v 0.30503356 -0.17230107 0.49999997
v 0.32233804 -0.15721726 0.49035066
v 0.32218570 -0.15712529 0.49332541
v 0.32171595 -0.15690455 0.49594024
v 0.32080185 -0.15646307 0.49797395
v 0.31926566 -0.15570888 0.49919009
v 0.31724700 -0.15473396 0.49979943
v 0.21490550 -0.25754297 0.48951507
v 0.32009089 -0.09910781 0.48490250
v 0.33380243 -0.09910781 0.47373626
v 0.31307006 -0.15269211 0.47373626
v 0.32808930 -0.13615511 0.47642046
v 0.32966357 -0.13679893 0.47747719
v 0.33060306 -0.13718523 0.47923583
v 0.33108550 -0.13738757 0.48156008
v 0.33123785 -0.13746116 0.48428544
v 0.21490550 -0.26543438 0.49968117
v 0.32979053 -0.09910781 0.49999997
v 0.32877487 -0.09910781 0.49989200
v 0.32680699 -0.09910781 0.49968117
v 0.31488556 -0.15357508 0.49999997
v 0.33123785 -0.13746116 0.49035066
v 0.33108550 -0.13738757 0.49332541
v 0.33060306 -0.13718523 0.49594024
v 0.32966357 -0.13679893 0.49797395
v 0.32808930 -0.13615511 0.49919009
v 0.32601985 -0.13529055 0.49979943
v 0.21490550 -0.25831556 0.49360824
v 0.32029402 -0.09910781 0.48951507
v 0.34101370 -0.09910781 0.47642046
v 0.32920653 -0.11384211 0.47373626
v 0.32071298 -0.13573202 0.47373626
v 0.32171595 -0.13350625 0.47373626
v 0.33570683 -0.11608629 0.47642046
v 0.33731920 -0.11665653 0.47747719
v 0.33829677 -0.11698764 0.47923583
v 0.33877921 -0.11715319 0.48156008
v 0.33893156 -0.11720838 0.48428544
v 0.21490550 -0.26227048 0.49872473
v 0.32580402 -0.09910781 0.49931866
v 0.32417896 -0.09910781 0.49872473
v 0.33590996 -0.09910781 0.49999997
v 0.32358226 -0.13427883 0.49999997
v 0.33893156 -0.11720838 0.49035066
v 0.33877921 -0.11715319 0.49332541
v 0.33829677 -0.11698764 0.49594024
v 0.33731920 -0.11665653 0.49797395
v 0.33570683 -0.11608629 0.49919009
v 0.33358660 -0.11536889 0.49979943
v 0.33109820 -0.11450433 0.49999997
v 0.21490550 -0.25971359 0.49665242
v 0.32091612 -0.09910781 0.49360824
v 0.34280381 -0.09910781 0.47747719
v 0.34373063 -0.09910781 0.47899929
v 0.34387028 -0.09910781 0.47923583
v 0.34434003 -0.09910781 0.48126441
v 0.34440351 -0.09910781 0.48156008
v 0.34459394 -0.09910781 0.48428544
v 0.21490550 -0.25978714 0.49680668
v 0.32332835 -0.09910781 0.49793282
v 0.32213491 -0.09910781 0.49680668
v 0.33866495 -0.09910781 0.49979943
v 0.34459394 -0.09910781 0.49035066
v 0.34442890 -0.09910781 0.49294746
v 0.34440351 -0.09910781 0.49332541
v 0.34394646 -0.09910781 0.49559569
v 0.34387028 -0.09910781 0.49594024
v 0.34280381 -0.09910781 0.49797395
v 0.34253719 -0.09910781 0.49815652
v 0.34101370 -0.09910781 0.49919009
v 0.32160169 -0.09910781 0.49540800
f 1 2 5
f 1 5 10
f 1 10 18
f 1 18 31
f 1 31 49
f 1 49 75
f 1 75 78
f 1 78 77
f 1 77 98
f 1 98 122
f 1 122 140
f 1 140 162
f 1 162 182
f 1 182 174
f 1 174 151
f 1 151 131
f 1 131 111
f 1 111 89
f 1 89 60
f 1 60 59
f 1 59 39
f 1 39 23
f 1 23 13
f 1 13 7
f 1 7 3
f 1 3 4
f 1 4 6
f 1 6 2
f 2 6 5
f 3 7 8
f 3 8 4
f 4 8 16
f 4 16 9
f 4 9 12
f 4 12 6
f 5 6 10
f 6 11 10
f 6 12 20
f 6 20 11
f 7 13 14
f 7 14 8
f 8 14 15
f 8 15 16
f 9 16 28
f 9 28 17
f 9 17 22
f 9 22 12
f 10 11 19
f 10 19 18
f 11 20 21
f 11 21 19
f 12 22 33
f 12 33 20
f 13 23 14
f 14 24 15
f 14 23 24
f 15 25 26
f 15 26 27
f 15 27 28
f 15 28 16
f 15 24 25
f 17 28 29
f 17 29 30
f 17 30 37
f 17 37 22
f 18 19 31
f 19 21 32
f 19 32 31
f 20 33 21
f 21 33 34
f 21 34 35
f 21 35 36
f 21 36 32
f 22 37 38
f 22 38 33
f 23 39 24
f 24 39 40
f 24 40 25
f 25 40 41
f 25 41 26
f 26 42 43
f 26 43 44
f 26 44 27
f 26 41 42
f 27 44 45
f 27 45 29
f 27 29 28
f 29 45 46
f 29 46 47
f 29 47 30
f 30 47 48
f 30 48 56
f 30 56 37
f 31 32 49
f 32 50 49
f 32 36 50
f 33 38 34
f 34 38 51
f 34 51 52
f 34 52 35
f 35 52 53
f 35 53 54
f 35 54 55
f 35 55 36
f 36 55 50
f 37 56 57
f 37 57 38
f 38 57 58
f 38 58 51
f 39 59 40
f 40 59 60
f 40 60 61
f 40 61 62
f 40 62 41
f 41 62 63
f 41 63 64
f 41 64 42
f 42 64 43
f 43 64 65
f 43 65 66
f 43 66 67
f 43 67 68
f 43 68 69
f 43 69 70
f 43 70 44
f 44 70 46
f 44 46 45
f 46 70 71
f 46 71 72
f 46 72 47
f 47 72 73
f 47 73 74
f 47 74 48
f 48 74 85
f 48 85 56
f 49 50 75
f 50 76 77
f 50 77 78
f 50 78 75
f 50 55 79
f 50 79 76
f 51 58 52
f 52 58 80
f 52 80 53
f 53 80 81
f 53 81 82
f 53 82 83
f 53 83 84
f 53 84 54
f 54 84 55
f 55 84 79
f 56 85 57
f 57 85 86
f 57 86 87
f 57 87 58
f 58 87 88
f 58 88 80
f 60 89 112
f 60 112 133
f 60 133 154
f 60 154 156
f 60 156 155
f 60 155 134
f 60 134 116
f 60 116 115
f 60 115 114
f 60 114 113
f 60 113 90
f 60 90 68
f 60 68 67
f 60 67 66
f 60 66 65
f 60 65 64
f 60 64 63
f 60 63 62
f 60 62 61
f 68 90 69
f 69 90 91
f 69 91 70
f 70 91 71
f 71 91 92
f 71 92 93
f 71 93 94
f 71 94 72
f 72 94 73
f 73 94 95
f 73 95 96
f 73 96 74
f 74 96 106
f 74 106 85
f 76 79 97
f 76 97 98
f 76 98 77
f 79 99 97
f 79 84 99
f 80 88 100
f 80 100 81
f 81 100 101
f 81 101 82
f 82 102 83
f 82 101 103
f 82 103 102
f 83 102 104
f 83 104 105
f 83 105 84
f 84 105 99
f 85 106 107
f 85 107 86
f 86 107 108
f 86 108 87
f 87 108 88
f 88 108 109
f 88 109 110
f 88 110 100
f 89 111 112
f 90 113 91
f 91 113 92
f 92 113 114
f 92 114 115
f 92 115 116
f 92 116 117
f 92 117 118
f 92 118 93
f 93 118 94
f 94 118 119
f 94 119 120
f 94 120 95
f 95 120 121
f 95 121 96
f 96 121 125
f 96 125 106
f 97 99 105
f 97 105 104
f 97 104 102
f 97 102 103
f 97 103 124
f 97 124 144
f 97 144 166
f 97 166 173
f 97 173 165
f 97 165 141
f 97 141 122
f 97 122 98
f 100 110 101
f 101 110 123
f 101 123 103
f 103 123 124
f 106 125 126
f 106 126 107
f 107 126 108
f 108 126 127
f 108 127 128
f 108 128 109
f 109 128 110
f 110 128 129
f 110 129 130
f 110 130 123
f 111 131 132
f 111 132 112
f 112 132 152
f 112 152 175
f 112 175 194
f 112 194 184
f 112 184 183
f 112 183 164
f 112 164 163
f 112 163 143
f 112 143 142
f 112 142 141
f 112 141 165
f 112 165 185
f 112 185 193
f 112 193 192
f 112 192 191
f 112 191 190
f 112 190 189
f 112 189 188
f 112 188 187
f 112 187 186
f 112 186 181
f 112 181 180
f 112 180 179
f 112 179 178
f 112 178 177
f 112 177 176
f 112 176 153
f 112 153 133
f 116 134 117
f 117 134 135
f 117 135 118
f 118 135 136
f 118 136 137
f 118 137 119
f 119 137 138
f 119 138 120
f 120 138 121
f 121 138 139
f 121 139 145
f 121 145 125
f 122 141 142
f 122 142 143
f 122 143 140
f 123 130 144
f 123 144 124
f 125 145 146
f 125 146 126
f 126 146 127
f 127 146 147
f 127 147 128
f 128 147 148
f 128 148 149
f 128 149 129
f 129 149 130
f 130 149 150
f 130 150 144
f 131 151 152
f 131 152 132
f 133 153 154
f 134 155 135
f 135 155 156
f 135 156 154
f 135 154 157
f 135 157 158
f 135 158 136
f 136 158 159
f 136 159 137
f 137 159 138
f 138 159 160
f 138 160 139
f 139 160 161
f 139 161 167
f 139 167 145
f 140 143 163
f 140 163 164
f 140 164 162
f 144 150 166
f 145 167 168
f 145 168 146
f 146 168 169
f 146 169 147
f 147 169 148
f 148 169 170
f 148 170 149
f 149 170 171
f 149 171 172
f 149 172 150
f 150 172 173
f 150 173 166
f 151 174 175
f 151 175 152
f 153 176 158
f 153 158 157
f 153 157 154
f 158 176 159
f 159 176 177
f 159 177 178
f 159 178 179
f 159 179 160
f 160 179 180
f 160 180 181
f 160 181 161
f 161 181 186
f 161 186 167
f 162 164 183
f 162 183 184
f 162 184 182
f 165 173 172
f 165 172 185
f 167 186 168
f 168 186 187
f 168 187 188
f 168 188 189
f 168 189 169
f 169 189 190
f 169 190 191
f 169 191 170
f 170 191 192
f 170 192 171
f 171 192 193
f 171 193 172
f 172 193 185
f 174 182 175
f 175 182 194
f 182 184 194

