# https://github.com/mikedh/trimesh
v -0.12864508 0.33459505 0.49035066
v -0.12864508 0.33459505 0.48428544
v -0.13705269 0.33140606 0.49035066
v -0.13698334 0.33124733 0.49332541
v -0.12864508 0.33440745 0.49332541
v -0.12864508 0.33440745 0.48156008
v -0.13698334 0.33124733 0.48156008
v -0.13705269 0.33140606 0.48428544
v -0.15679756 0.32253173 0.49035066
v -0.15672821 0.32237300 0.49332541
v -0.15650286 0.32191125 0.49594024
v -0.13677531 0.33077115 0.49594024
v -0.12864508 0.33385912 0.49594024
v -0.12864508 0.33385912 0.47923583
v -0.13677531 0.33077115 0.47923583
v -0.15650286 0.32191125 0.47923583
v -0.15672821 0.32237300 0.48156008
v -0.15679756 0.32253173 0.48428544
v -0.17598769 0.31247416 0.49035066
v -0.17591836 0.31232986 0.49332541
v -0.15606947 0.32100219 0.49797395
v -0.17565832 0.31188256 0.49594024
v -0.13639393 0.32983321 0.49797395
v -0.12864508 0.33319536 0.49717951
v -0.12864508 0.33342624 0.47853905
v -0.13639393 0.32983321 0.47747719
v -0.15606947 0.32100219 0.47747719
v -0.17565832 0.31188256 0.47923583
v -0.17591836 0.31232986 0.48156008
v -0.17598769 0.31247416 0.48428544
v -0.19453643 0.30127662 0.49035066
v -0.19444975 0.30113232 0.49332541
v -0.19417238 0.30069944 0.49594024
v -0.15530673 0.31945819 0.49919009
v -0.13573520 0.32824594 0.49919009
v -0.17515559 0.31098789 0.49797395
v -0.17432350 0.30950162 0.49919009
v -0.12864508 0.33094430 0.49919009
v -0.12864508 0.33208427 0.49842906
v -0.12864508 0.33276248 0.49797395
v -0.12864508 0.33276248 0.47747719
v -0.13573520 0.32824594 0.47642046
v -0.12864508 0.33160809 0.47680613
v -0.12864508 0.33094430 0.47642046
v -0.15530673 0.31945819 0.47642046
v -0.17432350 0.30950162 0.47642046
v -0.17515559 0.31098789 0.47747719
v -0.19417238 0.30069944 0.47923583
v -0.19444975 0.30113232 0.48156008
v -0.19453643 0.30127662 0.48428544
v -0.21237442 0.28898245 0.49035066
v -0.21227041 0.28883815 0.49332541
v -0.21197571 0.28843412 0.49594024
v -0.21136898 0.28761160 0.49797395
v -0.19361766 0.29983366 0.49797395
v -0.15433595 0.31743801 0.49979943
v -0.13488577 0.32618248 0.49979943
v -0.19269890 0.29840511 0.49919009
v -0.19146809 0.29652923 0.49979943
v -0.17321405 0.30753917 0.49979943
v -0.12864508 0.32854897 0.49979943
v -0.13082932 0.32274818 0.47373626
v -0.13310024 0.32188240 0.47373626
v -0.15007147 0.31426346 0.47373626
v -0.12864508 0.32357067 0.47373626
v -0.15230772 0.31325337 0.47373626
v -0.17094313 0.30349883 0.47373626
v -0.19269890 0.29840511 0.47642046
v -0.19361766 0.29983366 0.47747719
v -0.21136898 0.28761160 0.47747719
v -0.21197571 0.28843412 0.47923583
v -0.21227041 0.28883815 0.48156008
v -0.21237442 0.28898245 0.48428544
v -0.22941498 0.27563488 0.49035066
v -0.22931097 0.27550501 0.49332541
v -0.22898160 0.27510098 0.49594024
v -0.22832286 0.27432176 0.49797395
v -0.21036352 0.28622636 0.49919009
v -0.22723074 0.27300864 0.49919009
v -0.15317449 0.31507152 0.49999997
v -0.17193124 0.30524483 0.49999997
v -0.13388033 0.32374382 0.49999997
v -0.12864508 0.32573515 0.49999997
v -0.20902871 0.28442264 0.49979943
v -0.20746854 0.28230146 0.49999997
v -0.19004659 0.29430705 0.49999997
v -0.12864508 0.30947277 0.47373626
v -0.18685691 0.29388857 0.47373626
v -0.21036352 0.28622636 0.47642046
v -0.18895447 0.29261875 0.47373626
v -0.22723074 0.27300864 0.47642046
v -0.22832286 0.27432176 0.47747719
v -0.22898160 0.27510098 0.47923583
v -0.22931097 0.27550501 0.48156008
v -0.22941498 0.27563488 0.48428544
v -0.24564080 0.26127723 0.49035066
v -0.24553679 0.26114735 0.49332541
v -0.24517274 0.26080105 0.49594024
v -0.24447933 0.26005068 0.49797395
v -0.24330054 0.25880975 0.49919009
v -0.24177504 0.25717917 0.49979943
v -0.22579192 0.27127707 0.49979943
v -0.12864508 0.31947261 0.49999997
v -0.22411039 0.26925692 0.49999997
v -0.12864508 0.30954492 0.48490250
v -0.27795374 0.18719463 0.48490250
v -0.27786705 0.18719463 0.47373626
v -0.20627241 0.28067088 0.47373626
v -0.22282758 0.26771292 0.47373626
v -0.23676515 0.25540429 0.47373626
v -0.24330054 0.25880975 0.47642046
v -0.24447933 0.26005068 0.47747719
v -0.24517274 0.26080105 0.47923583
v -0.24553679 0.26114735 0.48156008
v -0.24564080 0.26127723 0.48428544
v -0.26096517 0.24598163 0.49035066
v -0.26084381 0.24586619 0.49332541
v -0.26047978 0.24551989 0.49594024
v -0.25973436 0.24481282 0.49797395
v -0.25848624 0.24364401 0.49919009
v -0.23997216 0.25524557 0.49999997
v -0.25685671 0.24210003 0.49979943
v -0.25493249 0.24029630 0.49999997
v -0.12864508 0.31642792 0.49968117
v -0.28920433 0.18719463 0.49999997
v -0.12864508 0.30976135 0.48951507
v -0.27819642 0.18719463 0.48951507
v -0.29152724 0.18719463 0.47373626
v -0.23858534 0.25378817 0.47373626
v -0.25848624 0.24364401 0.47642046
v -0.25973436 0.24481282 0.47747719
v -0.26047978 0.24551989 0.47923583
v -0.26084381 0.24586619 0.48156008
v -0.26096517 0.24598163 0.48428544
v -0.27533612 0.22977698 0.49035066
v -0.27521476 0.22966154 0.49332541
v -0.27481604 0.22932965 0.49594024
v -0.27403596 0.22868031 0.49797395
v -0.27271849 0.22758365 0.49919009
v -0.27100229 0.22615509 0.49979943
v -0.26897407 0.22445238 0.49999997
v -0.12864508 0.31375840 0.49872473
v -0.28573728 0.18719463 0.49968117
v -0.29603443 0.18719463 0.49999997
v -0.12864508 0.30977580 0.48961532
v -0.27869916 0.18719463 0.49246410
v -0.29367682 0.18719463 0.47375682
v -0.29239401 0.18931581 0.47373626
v -0.25347632 0.23891103 0.47373626
v -0.26581904 0.22500071 0.47373626
v -0.27271849 0.22758365 0.47642046
v -0.27403596 0.22868031 0.47747719
v -0.27481604 0.22932965 0.47923583
v -0.27521476 0.22966154 0.48156008
v -0.27533612 0.22977698 0.48428544
v -0.28871894 0.21272095 0.49035066
v -0.28858024 0.21261993 0.49332541
v -0.28816420 0.21233134 0.49594024
v -0.28734946 0.21172529 0.49797395
v -0.28596264 0.21070078 0.49919009
v -0.28415978 0.20937324 0.49979943
v -0.28204486 0.20781481 0.49999997
v -0.12864508 0.31166610 0.49680668
v -0.28268626 0.18719463 0.49872473
v -0.29407555 0.19039804 0.49999997
v -0.29629445 0.19184104 0.49979943
v -0.29910275 0.18719463 0.49979943
v -0.12864508 0.31041071 0.49364680
v -0.27890718 0.18719463 0.49360824
v -0.30172038 0.18719463 0.47642046
v -0.29816666 0.19305313 0.47642046
v -0.28043267 0.20661715 0.47373626
v -0.26743123 0.22316812 0.47373626
v -0.28596264 0.21070078 0.47642046
v -0.28734946 0.21172529 0.47747719
v -0.28816420 0.21233134 0.47923583
v -0.28858024 0.21261993 0.48156008
v -0.28871894 0.21272095 0.48428544
v -0.30104432 0.19491458 0.49035066
v -0.30088830 0.19481356 0.49332541
v -0.30047226 0.19453940 0.49594024
v -0.29960549 0.19397664 0.49797395
v -0.29816666 0.19305313 0.49919009
v -0.28031135 0.18719463 0.49680668
v -0.30172038 0.18719463 0.49919009
v -0.29981351 0.18719463 0.49963489
v -0.27996463 0.18719463 0.49602509
v -0.30302054 0.18719463 0.47710440
v -0.29960549 0.19397664 0.47747719
v -0.30047226 0.19453940 0.47923583
v -0.30088830 0.19481356 0.48156008
v -0.30104432 0.19491458 0.48428544
v -0.30570751 0.18719463 0.49035066
v -0.30563816 0.18719463 0.49158478
v -0.30551681 0.18719463 0.49332541
v -0.30527413 0.18719463 0.49438730
v -0.30491006 0.18719463 0.49594024
v -0.30371395 0.18719463 0.49797395
v -0.30239648 0.18719463 0.49878386
v -0.30371395 0.18719463 0.47747719
v -0.30491006 0.18719463 0.47923583
v -0.30551681 0.18719463 0.48156008
v -0.30560350 0.18719463 0.48268881
v -0.30570751 0.18719463 0.48428544
f 1 2 8
f 1 8 3
f 1 3 4
f 1 4 5
f 1 5 13
f 1 13 24
f 1 24 40
f 1 40 39
f 1 39 38
f 1 38 61
f 1 61 83
f 1 83 103
f 1 103 124
f 1 124 142
f 1 142 163
f 1 163 168
f 1 168 145
f 1 145 126
f 1 126 105
f 1 105 87
f 1 87 65
f 1 65 44
f 1 44 43
f 1 43 41
f 1 41 25
f 1 25 14
f 1 14 6
f 1 6 2
f 2 6 7
f 2 7 8
f 3 8 18
f 3 18 9
f 3 9 10
f 3 10 4
f 4 10 11
f 4 11 12
f 4 12 13
f 4 13 5
f 6 14 7
f 7 14 15
f 7 15 16
f 7 16 17
f 7 17 18
f 7 18 8
f 9 18 30
f 9 30 19
f 9 19 20
f 9 20 10
f 10 20 11
f 11 21 12
f 11 20 22
f 11 22 21
f 12 21 23
f 12 23 13
f 13 23 24
f 14 25 26
f 14 26 15
f 15 26 27
f 15 27 16
f 16 28 29
f 16 29 17
f 16 27 28
f 17 29 18
f 18 29 30
f 19 30 50
f 19 50 31
f 19 31 20
f 20 31 32
f 20 32 33
f 20 33 22
f 21 34 35
f 21 35 23
f 21 22 36
f 21 36 37
f 21 37 34
f 22 33 36
f 23 35 38
f 23 38 39
f 23 39 40
f 23 40 24
f 25 41 26
f 26 42 27
f 26 41 43
f 26 43 44
f 26 44 42
f 27 42 45
f 27 45 46
f 27 46 47
f 27 47 28
f 28 47 48
f 28 48 29
f 29 48 49
f 29 49 50
f 29 50 30
f 31 50 73
f 31 73 51
f 31 51 32
f 32 51 52
f 32 52 53
f 32 53 33
f 33 53 54
f 33 54 55
f 33 55 36
f 34 56 57
f 34 57 35
f 34 37 56
f 35 57 38
f 36 55 58
f 36 58 37
f 37 58 59
f 37 59 60
f 37 60 56
f 38 57 61
f 42 44 62
f 42 62 63
f 42 63 64
f 42 64 45
f 44 65 62
f 45 64 66
f 45 66 67
f 45 67 46
f 46 67 68
f 46 68 47
f 47 68 69
f 47 69 48
f 48 69 70
f 48 70 71
f 48 71 49
f 49 71 72
f 49 72 73
f 49 73 50
f 51 73 95
f 51 95 74
f 51 74 75
f 51 75 52
f 52 75 53
f 53 75 76
f 53 76 77
f 53 77 54
f 54 78 58
f 54 58 55
f 54 77 79
f 54 79 78
f 56 80 57
f 56 60 81
f 56 81 80
f 57 80 82
f 57 82 83
f 57 83 61
f 58 78 84
f 58 84 59
f 59 84 85
f 59 85 86
f 59 86 81
f 59 81 60
f 62 65 87
f 62 87 107
f 62 107 128
f 62 128 148
f 62 148 172
f 62 172 173
f 62 173 150
f 62 150 149
f 62 149 129
f 62 129 110
f 62 110 109
f 62 109 108
f 62 108 90
f 62 90 88
f 62 88 67
f 62 67 66
f 62 66 64
f 62 64 63
f 67 88 68
f 68 89 70
f 68 70 69
f 68 88 90
f 68 90 89
f 70 89 91
f 70 91 92
f 70 92 71
f 71 92 93
f 71 93 94
f 71 94 72
f 72 94 73
f 73 94 95
f 74 95 115
f 74 115 96
f 74 96 97
f 74 97 75
f 75 97 98
f 75 98 76
f 76 98 77
f 77 98 99
f 77 99 79
f 78 79 84
f 79 99 100
f 79 100 101
f 79 101 102
f 79 102 84
f 80 81 86
f 80 86 85
f 80 85 104
f 80 104 121
f 80 121 123
f 80 123 141
f 80 141 162
f 80 162 165
f 80 165 144
f 80 144 125
f 80 125 103
f 80 103 83
f 80 83 82
f 84 102 104
f 84 104 85
f 87 105 106
f 87 106 107
f 89 90 108
f 89 108 109
f 89 109 91
f 91 109 110
f 91 110 111
f 91 111 112
f 91 112 92
f 92 112 113
f 92 113 93
f 93 113 94
f 94 113 114
f 94 114 115
f 94 115 95
f 96 115 134
f 96 134 116
f 96 116 97
f 97 116 117
f 97 117 118
f 97 118 98
f 98 118 99
f 99 118 119
f 99 119 120
f 99 120 100
f 100 120 101
f 101 121 104
f 101 104 102
f 101 120 122
f 101 122 123
f 101 123 121
f 103 125 124
f 105 126 127
f 105 127 106
f 106 127 146
f 106 146 169
f 106 169 187
f 106 187 184
f 106 184 164
f 106 164 143
f 106 143 125
f 106 125 144
f 106 144 167
f 106 167 186
f 106 186 185
f 106 185 199
f 106 199 198
f 106 198 197
f 106 197 196
f 106 196 195
f 106 195 194
f 106 194 193
f 106 193 204
f 106 204 203
f 106 203 202
f 106 202 201
f 106 201 200
f 106 200 188
f 106 188 170
f 106 170 147
f 106 147 128
f 106 128 107
f 110 129 111
f 111 129 130
f 111 130 112
f 112 130 131
f 112 131 132
f 112 132 113
f 113 132 133
f 113 133 114
f 114 133 134
f 114 134 115
f 116 134 155
f 116 155 135
f 116 135 136
f 116 136 117
f 117 136 118
f 118 136 137
f 118 137 138
f 118 138 119
f 119 138 120
f 120 138 139
f 120 139 140
f 120 140 122
f 122 140 123
f 123 140 141
f 124 125 143
f 124 143 142
f 126 145 146
f 126 146 127
f 128 147 148
f 129 149 130
f 130 149 150
f 130 150 151
f 130 151 152
f 130 152 131
f 131 152 132
f 132 152 153
f 132 153 154
f 132 154 133
f 133 154 155
f 133 155 134
f 135 155 178
f 135 178 156
f 135 156 136
f 136 156 157
f 136 157 158
f 136 158 137
f 137 158 138
f 138 158 159
f 138 159 139
f 139 159 160
f 139 160 140
f 140 160 161
f 140 161 162
f 140 162 141
f 142 143 164
f 142 164 163
f 144 165 166
f 144 166 167
f 145 168 169
f 145 169 146
f 147 170 148
f 148 170 171
f 148 171 172
f 150 173 151
f 151 173 172
f 151 172 174
f 151 174 175
f 151 175 152
f 152 175 176
f 152 176 153
f 153 176 154
f 154 176 177
f 154 177 178
f 154 178 155
f 156 178 192
f 156 192 179
f 156 179 157
f 157 179 180
f 157 180 181
f 157 181 158
f 158 181 159
f 159 181 182
f 159 182 183
f 159 183 160
f 160 183 166
f 160 166 161
f 161 166 162
f 162 166 165
f 163 164 184
f 163 184 168
f 166 183 185
f 166 185 186
f 166 186 167
f 168 184 187
f 168 187 169
f 170 188 171
f 171 188 189
f 171 189 175
f 171 175 174
f 171 174 172
f 175 189 190
f 175 190 176
f 176 190 177
f 177 190 191
f 177 191 192
f 177 192 178
f 179 192 204
f 179 204 193
f 179 193 194
f 179 194 195
f 179 195 180
f 180 195 181
f 181 195 196
f 181 196 197
f 181 197 198
f 181 198 182
f 182 198 199
f 182 199 183
f 183 199 185
f 188 200 189
f 189 200 190
f 190 200 201
f 190 201 202
f 190 202 191
f 191 202 192
f 192 202 203
f 192 203 204

