# https://github.com/mikedh/trimesh
v -0.01061631 0.35846952 0.49035066
v 0.01044306 0.35845512 0.49035066
v -0.01061631 0.35846952 0.48428544
v -0.03223382 0.35716990 0.49035066
v -0.03223382 0.35700685 0.49332541
v -0.01061631 0.35829687 0.49332541
v 0.01044306 0.35845512 0.48428544
v 0.01044306 0.35828248 0.49332541
v -0.01061631 0.35829687 0.48156008
v -0.03223382 0.35700685 0.48156008
v -0.03223382 0.35716990 0.48428544
v -0.05375603 0.35457066 0.49035066
v -0.03217936 0.35649851 0.49594024
v -0.01060270 0.35778853 0.49594024
v -0.05371519 0.35440761 0.49332541
v 0.01044306 0.35828248 0.48156008
v 0.01044306 0.35777414 0.49594024
v 0.01044306 0.35778853 0.47930011
v -0.01060270 0.35778853 0.47923583
v -0.03217936 0.35649851 0.47923583
v -0.05371519 0.35440761 0.48156008
v -0.05375603 0.35457066 0.48428544
v -0.07504682 0.35068139 0.49035066
v -0.05364713 0.35389927 0.49594024
v -0.05349739 0.35288739 0.49797395
v -0.03208407 0.35547224 0.49797395
v -0.01056186 0.35676226 0.49797395
v -0.07500599 0.35051355 0.49332541
v -0.07489708 0.35001481 0.49594024
v 0.01044306 0.35674787 0.49797395
v 0.01044306 0.35777414 0.47923583
v -0.01056186 0.35676226 0.47747719
v -0.03208407 0.35547224 0.47747719
v -0.05349739 0.35288739 0.47747719
v -0.05364713 0.35389927 0.47923583
v -0.07489708 0.35001481 0.47923583
v -0.07500599 0.35051355 0.48156008
v -0.07504682 0.35068139 0.48428544
v -0.09607897 0.34551650 0.49035066
v -0.05323873 0.35119933 0.49919009
v -0.03193433 0.35377458 0.49919009
v -0.07469289 0.34901252 0.49797395
v -0.07432534 0.34734845 0.49919009
v -0.01052102 0.35505500 0.49919009
v -0.09603813 0.34534866 0.49332541
v -0.09590200 0.34485471 0.49594024
v -0.09562974 0.34387162 0.49797395
v 0.01044306 0.35504064 0.49919009
v 0.01044306 0.35677186 0.47752348
v -0.01052102 0.35505500 0.47642046
v -0.03193433 0.35377458 0.47642046
v 0.01044306 0.35670471 0.47745147
v -0.05323873 0.35119933 0.47642046
v -0.07432534 0.34734845 0.47642046
v -0.07469289 0.34901252 0.47747719
v -0.09562974 0.34387162 0.47747719
v -0.09590200 0.34485471 0.47923583
v -0.09603813 0.34534866 0.48156008
v -0.09607897 0.34551650 0.48428544
v -0.11677079 0.33908078 0.49035066
v -0.05289841 0.34897897 0.49979943
v -0.03173013 0.35153982 0.49979943
v -0.01045295 0.35281545 0.49979943
v -0.09516689 0.34222192 0.49919009
v -0.09456792 0.34006390 0.49979943
v -0.07386249 0.34514725 0.49979943
v -0.11671634 0.33891293 0.49332541
v -0.11655298 0.33843338 0.49594024
v -0.11621265 0.33746466 0.49797395
v -0.11565452 0.33584854 0.49919009
v 0.01044306 0.35279629 0.49979943
v 0.01044306 0.35499269 0.47640505
v -0.01031682 0.34817329 0.47373626
v -0.02888501 0.34706071 0.47373626
v -0.03132174 0.34691206 0.47373626
v -0.05220415 0.34438956 0.47373626
v -0.07289597 0.34060580 0.47373626
v -0.09096047 0.33617464 0.47373626
v -0.09516689 0.34222192 0.47642046
v -0.07048646 0.34104699 0.47373626
v -0.11565452 0.33584854 0.47642046
v -0.11621265 0.33746466 0.47747719
v -0.11655298 0.33843338 0.47923583
v -0.11671634 0.33891293 0.48156008
v -0.11677079 0.33908078 0.48428544
v -0.12862775 0.33459207 0.49035066
v -0.12862775 0.33448657 0.49209642
v -0.12862775 0.33440983 0.49332541
v -0.05251725 0.34637493 0.49999997
v -0.07331797 0.34258160 0.49999997
v -0.03149871 0.34891662 0.49999997
v -0.01037128 0.35018265 0.49999997
v -0.11491942 0.33373845 0.49979943
v -0.09386005 0.33753181 0.49999997
v -0.12862775 0.33408853 0.49487835
v -0.12862775 0.33386794 0.49594024
v -0.12862775 0.33277452 0.49797395
v -0.12862775 0.33094740 0.49919009
v -0.12862775 0.33013216 0.49939835
v 0.01044306 0.35016349 0.49999997
v 0.01044306 0.34815410 0.47373882
v -0.00786648 0.34816849 0.47373626
v -0.09332913 0.33558956 0.47373626
v -0.11108054 0.33007461 0.47373626
v -0.11340837 0.32934567 0.47373626
v -0.12862775 0.33094740 0.47642046
v -0.12862775 0.33277452 0.47747719
v -0.12862775 0.33343634 0.47853905
v -0.12862775 0.33386794 0.47923583
v -0.12862775 0.33440983 0.48156008
v -0.12862775 0.33459207 0.48428544
v -0.11406180 0.33124474 0.49999997
v -0.12862775 0.32854959 0.49979943
v -0.12862775 0.32573935 0.49999997
v 0.01044306 0.34434637 0.49999997
v 0.01044306 0.34777045 0.47373626
v -0.12862775 0.32358611 0.47373626
v -0.12862775 0.31948584 0.49999997
v 0.01044306 0.34148338 0.49968374
v -0.12862775 0.31644064 0.49968117
v 0.01044306 0.33552721 0.47373626
v -0.12862775 0.30948216 0.47373626
v 0.01044306 0.33896568 0.49872473
v -0.12862775 0.31618646 0.49959117
v -0.12862775 0.31375986 0.49872473
v 0.01044306 0.33499491 0.47374654
v 0.01032054 0.33500451 0.47373626
v 0.01044306 0.33506685 0.48490250
v -0.12862775 0.30955890 0.48490250
v 0.01044306 0.33701867 0.49680668
v -0.12862775 0.31167856 0.49680668
v 0.01044306 0.33525866 0.48951507
v -0.12862775 0.30956370 0.48503363
v 0.01044306 0.33584374 0.49360824
v -0.12862775 0.31042692 0.49364680
v -0.12862775 0.30977470 0.48951507
f 1 2 7
f 1 7 3
f 1 3 11
f 1 11 4
f 1 4 5
f 1 5 6
f 1 6 8
f 1 8 2
f 2 8 17
f 2 17 30
f 2 30 48
f 2 48 71
f 2 71 100
f 2 100 115
f 2 115 119
f 2 119 123
f 2 123 130
f 2 130 134
f 2 134 132
f 2 132 128
f 2 128 126
f 2 126 121
f 2 121 116
f 2 116 101
f 2 101 72
f 2 72 52
f 2 52 49
f 2 49 31
f 2 31 18
f 2 18 16
f 2 16 7
f 3 9 10
f 3 10 11
f 3 7 16
f 3 16 9
f 4 11 22
f 4 22 12
f 4 12 5
f 5 13 14
f 5 14 6
f 5 12 15
f 5 15 13
f 6 14 8
f 8 14 17
f 9 16 18
f 9 18 19
f 9 19 10
f 10 19 20
f 10 20 21
f 10 21 22
f 10 22 11
f 12 22 38
f 12 38 23
f 12 23 15
f 13 15 24
f 13 24 25
f 13 25 26
f 13 26 27
f 13 27 14
f 14 27 17
f 15 23 28
f 15 28 29
f 15 29 24
f 17 27 30
f 18 31 19
f 19 31 32
f 19 32 20
f 20 33 34
f 20 34 35
f 20 35 21
f 20 32 33
f 21 35 36
f 21 36 37
f 21 37 38
f 21 38 22
f 23 38 59
f 23 59 39
f 23 39 45
f 23 45 28
f 24 29 25
f 25 40 41
f 25 41 26
f 25 29 42
f 25 42 43
f 25 43 40
f 26 41 27
f 27 41 44
f 27 44 30
f 28 45 29
f 29 45 46
f 29 46 47
f 29 47 42
f 30 44 48
f 31 49 32
f 32 50 51
f 32 51 33
f 32 49 52
f 32 52 50
f 33 51 34
f 34 51 53
f 34 53 54
f 34 54 55
f 34 55 36
f 34 36 35
f 36 55 56
f 36 56 57
f 36 57 58
f 36 58 37
f 37 58 59
f 37 59 38
f 39 59 85
f 39 85 60
f 39 60 45
f 40 61 62
f 40 62 41
f 40 43 61
f 41 62 63
f 41 63 44
f 42 47 43
f 43 47 64
f 43 64 65
f 43 65 66
f 43 66 61
f 44 63 48
f 45 60 67
f 45 67 68
f 45 68 46
f 46 68 47
f 47 68 69
f 47 69 70
f 47 70 64
f 48 63 71
f 50 52 72
f 50 72 73
f 50 73 51
f 51 74 75
f 51 75 76
f 51 76 53
f 51 73 74
f 53 76 54
f 54 77 78
f 54 78 79
f 54 79 56
f 54 56 55
f 54 76 80
f 54 80 77
f 56 79 81
f 56 81 82
f 56 82 83
f 56 83 57
f 57 83 58
f 58 83 84
f 58 84 85
f 58 85 59
f 60 85 111
f 60 111 86
f 60 86 87
f 60 87 88
f 60 88 67
f 61 89 62
f 61 66 90
f 61 90 89
f 62 89 91
f 62 91 63
f 63 92 71
f 63 91 92
f 64 70 93
f 64 93 65
f 65 94 90
f 65 90 66
f 65 93 94
f 67 88 95
f 67 95 68
f 68 95 96
f 68 96 97
f 68 97 69
f 69 97 70
f 70 97 98
f 70 98 99
f 70 99 93
f 71 92 100
f 72 101 73
f 73 101 102
f 73 102 116
f 73 116 121
f 73 121 127
f 73 127 122
f 73 122 117
f 73 117 105
f 73 105 104
f 73 104 103
f 73 103 78
f 73 78 77
f 73 77 80
f 73 80 76
f 73 76 75
f 73 75 74
f 78 103 79
f 79 104 81
f 79 103 104
f 81 104 105
f 81 105 106
f 81 106 107
f 81 107 82
f 82 107 83
f 83 107 108
f 83 108 109
f 83 109 110
f 83 110 84
f 84 110 85
f 85 110 111
f 86 111 110
f 86 110 109
f 86 109 108
f 86 108 107
f 86 107 106
f 86 106 117
f 86 117 122
f 86 122 129
f 86 129 133
f 86 133 136
f 86 136 135
f 86 135 131
f 86 131 125
f 86 125 124
f 86 124 120
f 86 120 118
f 86 118 114
f 86 114 113
f 86 113 99
f 86 99 98
f 86 98 97
f 86 97 96
f 86 96 95
f 86 95 88
f 86 88 87
f 89 90 94
f 89 94 112
f 89 112 114
f 89 114 118
f 89 118 115
f 89 115 100
f 89 100 92
f 89 92 91
f 93 112 94
f 93 99 113
f 93 113 114
f 93 114 112
f 101 116 102
f 105 117 106
f 115 118 120
f 115 120 119
f 119 120 124
f 119 124 125
f 119 125 123
f 121 126 127
f 122 126 128
f 122 128 129
f 122 127 126
f 123 125 131
f 123 131 130
f 128 132 133
f 128 133 129
f 130 131 135
f 130 135 134
f 132 134 136
f 132 136 133
f 134 135 136

