# https://github.com/mikedh/trimesh
v -0.35847014 -0.01062244 0.48428544
v -0.35847014 -0.01062244 0.49035066
v -0.35845712 0.01028739 0.48428544
v -0.35830098 -0.01060534 0.48156008
v -0.35717553 -0.03225094 0.48428544
v -0.35830098 -0.01060534 0.49332541
v -0.35845712 0.01028739 0.49035066
v -0.35717553 -0.03225094 0.49035066
v -0.35828799 0.01028739 0.48165521
v -0.35828149 0.01028739 0.48156008
v -0.35779357 0.01028739 0.47931552
v -0.35778055 -0.01060534 0.47923583
v -0.35649246 -0.03218250 0.47923583
v -0.35700640 -0.03223383 0.48156008
v -0.35458633 -0.05374255 0.48428544
v -0.35778055 -0.01060534 0.49594024
v -0.35777405 0.01028739 0.49594024
v -0.35826847 0.01028739 0.49341542
v -0.35828149 0.01028739 0.49332541
v -0.35700640 -0.03223383 0.49332541
v -0.35649246 -0.03218250 0.49594024
v -0.35458633 -0.05374255 0.49035066
v -0.35777405 0.01028739 0.47923583
v -0.35675919 -0.01057111 0.47747719
v -0.35547757 -0.03209694 0.47747719
v -0.35390973 -0.05365700 0.47923583
v -0.35441068 -0.05372544 0.48156008
v -0.35052034 -0.07502882 0.48156008
v -0.35068297 -0.07506305 0.48428544
v -0.35675919 -0.01057111 0.49797395
v -0.35774153 0.01028739 0.49600965
v -0.35547757 -0.03209694 0.49797395
v -0.35441068 -0.05372544 0.49332541
v -0.35390973 -0.05365700 0.49594024
v -0.35068297 -0.07506305 0.49035066
v -0.35052034 -0.07502882 0.49332541
v -0.35675266 0.01028739 0.47747719
v -0.35506123 -0.01051978 0.47642046
v -0.35377312 -0.03194294 0.47642046
v -0.35120344 -0.05324633 0.47642046
v -0.35289487 -0.05350299 0.47747719
v -0.34901756 -0.07470372 0.47747719
v -0.35001943 -0.07492616 0.47923583
v -0.34534842 -0.09604132 0.48156008
v -0.34551105 -0.09607554 0.48428544
v -0.35506123 -0.01051978 0.49919009
v -0.35675266 0.01028739 0.49797395
v -0.35377312 -0.03194294 0.49919009
v -0.35289487 -0.05350299 0.49797395
v -0.35120344 -0.05324633 0.49919009
v -0.35001943 -0.07492616 0.49594024
v -0.34901756 -0.07470372 0.49797395
v -0.34551105 -0.09607554 0.49035066
v -0.34534842 -0.09604132 0.49332541
v -0.35504171 0.01028739 0.47642046
v -0.34815884 0.01028739 0.47373882
v -0.34816533 -0.00788466 0.47373626
v -0.34816533 -0.01031444 0.47373626
v -0.34691626 -0.03132694 0.47373626
v -0.34468484 -0.04978988 0.47373626
v -0.34439209 -0.05220255 0.47373626
v -0.34735215 -0.07434438 0.47642046
v -0.34222576 -0.09516865 0.47642046
v -0.34386516 -0.09561354 0.47747719
v -0.34485400 -0.09590443 0.47923583
v -0.33892092 -0.11671159 0.48156008
v -0.33908355 -0.11676293 0.48428544
v -0.35281029 -0.01045133 0.49979943
v -0.35280380 0.01028739 0.49979943
v -0.35504171 0.01028739 0.49919009
v -0.35509375 0.01028739 0.49915409
v -0.35154173 -0.03173761 0.49979943
v -0.34735215 -0.07434438 0.49919009
v -0.34898502 -0.05290410 0.49979943
v -0.34485400 -0.09590443 0.49594024
v -0.34386516 -0.09561354 0.49797395
v -0.34222576 -0.09516865 0.49919009
v -0.33908355 -0.11676293 0.49035066
v -0.33892092 -0.11671159 0.49332541
v -0.34756032 0.01028739 0.47373626
v -0.34061238 -0.07290704 0.47373626
v -0.33616906 -0.09095931 0.47373626
v -0.33558357 -0.09332065 0.47373626
v -0.32933822 -0.11340915 0.47373626
v -0.33585030 -0.11566781 0.47642046
v -0.33747017 -0.11621537 0.47747719
v -0.33843300 -0.11654048 0.47923583
v -0.33078897 -0.13676587 0.47923583
v -0.33126387 -0.13697121 0.48156008
v -0.33142000 -0.13703965 0.48428544
v -0.35018206 -0.01038289 0.49999997
v -0.35016903 0.01028739 0.49999997
v -0.34638280 -0.05251054 0.49999997
v -0.34891999 -0.03149805 0.49999997
v -0.34515324 -0.07388238 0.49979943
v -0.33843300 -0.11654048 0.49594024
v -0.33747017 -0.11621537 0.49797395
v -0.33585030 -0.11566781 0.49919009
v -0.33373597 -0.11493203 0.49979943
v -0.34005940 -0.09456976 0.49979943
v -0.33142000 -0.13703965 0.49035066
v -0.33126387 -0.13697121 0.49332541
v -0.33078897 -0.13676587 0.49594024
v -0.33500457 0.01028739 0.47373626
v -0.32190236 -0.13310409 0.47373626
v -0.32825831 -0.13572209 0.47642046
v -0.32983914 -0.13637231 0.47747719
v -0.32192838 -0.15649503 0.47923583
v -0.32238376 -0.15671748 0.48156008
v -0.32253990 -0.15678591 0.48428544
v -0.34437257 0.01028739 0.49999997
v -0.34257704 -0.07331771 0.49999997
v -0.33752874 -0.09386820 0.49999997
v -0.32983914 -0.13637231 0.49797395
v -0.32825831 -0.13572209 0.49919009
v -0.32618302 -0.13486654 0.49979943
v -0.32375646 -0.13385697 0.49999997
v -0.33124435 -0.11407648 0.49999997
v -0.32253990 -0.15678591 0.49035066
v -0.32238376 -0.15671748 0.49332541
v -0.32192838 -0.15649503 0.49594024
v -0.29200929 -0.16452016 0.47373626
v -0.33507612 0.01028739 0.48491281
v -0.31327599 -0.15228568 0.47373626
v -0.31946927 -0.15529725 0.47642046
v -0.32100460 -0.15603302 0.47747719
v -0.31656128 -0.16452016 0.47747719
v -0.31771928 -0.16452016 0.47923583
v -0.31795999 -0.16452016 0.48019740
v -0.31829828 -0.16452016 0.48156008
v -0.31849346 -0.16452016 0.48428544
v -0.34151015 0.01028739 0.49968630
v -0.30253530 -0.16452016 0.49999997
v -0.29931504 -0.16452016 0.49968117
v -0.32100460 -0.15603302 0.49797395
v -0.31946927 -0.15529725 0.49919009
v -0.31745255 -0.15432191 0.49979943
v -0.31508452 -0.15315835 0.49999997
v -0.31849346 -0.16452016 0.49035066
v -0.31841537 -0.16452016 0.49155137
v -0.31829828 -0.16452016 0.49332541
v -0.31771928 -0.16452016 0.49594024
v -0.31722486 -0.16452016 0.49681440
v -0.31656128 -0.16452016 0.49797395
v -0.29209387 -0.16452016 0.48490509
v -0.30686802 -0.16452016 0.47373626
v -0.33527130 0.01028739 0.48952535
v -0.31464216 -0.16452016 0.47642046
v -0.31567004 -0.16452016 0.47698611
v -0.33898598 0.01028739 0.49873245
v -0.29649162 -0.16452016 0.49872473
v -0.30913845 -0.16452016 0.49999997
v -0.31464216 -0.16452016 0.49919009
v -0.31210497 -0.16452016 0.49979943
v -0.29231507 -0.16452016 0.48951507
v -0.33585680 0.01028739 0.49361852
v -0.33703431 0.01028739 0.49681696
v -0.29627043 -0.16452016 0.49853188
v -0.29429275 -0.16452016 0.49680668
v -0.29297212 -0.16452016 0.49360824
v -0.29422119 -0.16452016 0.49664471
f 1 2 7
f 1 7 3
f 1 3 4
f 1 4 14
f 1 14 5
f 1 5 8
f 1 8 2
f 2 6 7
f 2 8 20
f 2 20 6
f 3 7 19
f 3 19 18
f 3 18 17
f 3 17 31
f 3 31 47
f 3 47 71
f 3 71 70
f 3 70 69
f 3 69 92
f 3 92 111
f 3 111 132
f 3 132 150
f 3 150 157
f 3 157 156
f 3 156 147
f 3 147 123
f 3 123 104
f 3 104 80
f 3 80 56
f 3 56 55
f 3 55 37
f 3 37 23
f 3 23 11
f 3 11 10
f 3 10 9
f 3 9 4
f 4 9 10
f 4 10 11
f 4 11 12
f 4 12 13
f 4 13 14
f 5 14 15
f 5 15 22
f 5 22 8
f 6 16 17
f 6 17 18
f 6 18 19
f 6 19 7
f 6 20 21
f 6 21 16
f 8 22 20
f 11 23 12
f 12 23 24
f 12 24 25
f 12 25 13
f 13 25 26
f 13 26 14
f 14 26 27
f 14 27 15
f 15 27 28
f 15 28 29
f 15 29 35
f 15 35 22
f 16 30 31
f 16 31 17
f 16 21 32
f 16 32 30
f 20 22 33
f 20 33 34
f 20 34 21
f 21 34 32
f 22 35 36
f 22 36 33
f 23 37 24
f 24 37 38
f 24 38 25
f 25 39 40
f 25 40 41
f 25 41 26
f 25 38 39
f 26 41 42
f 26 42 43
f 26 43 28
f 26 28 27
f 28 43 44
f 28 44 45
f 28 45 29
f 29 45 53
f 29 53 35
f 30 46 47
f 30 47 31
f 30 32 46
f 32 48 46
f 32 34 49
f 32 49 50
f 32 50 48
f 33 36 34
f 34 36 51
f 34 51 52
f 34 52 49
f 35 53 54
f 35 54 36
f 36 54 51
f 37 55 38
f 38 55 56
f 38 56 57
f 38 57 58
f 38 58 59
f 38 59 39
f 39 59 40
f 40 59 60
f 40 60 61
f 40 61 62
f 40 62 41
f 41 62 42
f 42 62 63
f 42 63 64
f 42 64 65
f 42 65 43
f 43 65 44
f 44 65 66
f 44 66 67
f 44 67 45
f 45 67 78
f 45 78 53
f 46 68 69
f 46 69 70
f 46 70 71
f 46 71 47
f 46 48 72
f 46 72 68
f 48 50 72
f 49 52 73
f 49 73 50
f 50 74 72
f 50 73 74
f 51 54 75
f 51 75 52
f 52 75 76
f 52 76 77
f 52 77 73
f 53 78 54
f 54 78 79
f 54 79 75
f 56 80 57
f 57 80 104
f 57 104 122
f 57 122 146
f 57 146 124
f 57 124 105
f 57 105 84
f 57 84 83
f 57 83 82
f 57 82 81
f 57 81 61
f 57 61 60
f 57 60 59
f 57 59 58
f 61 81 62
f 62 81 82
f 62 82 63
f 63 82 83
f 63 83 84
f 63 84 85
f 63 85 86
f 63 86 64
f 64 86 65
f 65 86 87
f 65 87 66
f 66 87 88
f 66 88 89
f 66 89 67
f 67 89 90
f 67 90 101
f 67 101 78
f 68 91 69
f 68 72 91
f 69 91 92
f 72 74 93
f 72 93 94
f 72 94 91
f 73 95 74
f 73 77 95
f 74 95 93
f 75 79 96
f 75 96 97
f 75 97 76
f 76 97 77
f 77 97 98
f 77 98 99
f 77 99 100
f 77 100 95
f 78 101 102
f 78 102 79
f 79 102 103
f 79 103 96
f 84 105 85
f 85 105 106
f 85 106 86
f 86 106 107
f 86 107 88
f 86 88 87
f 88 107 108
f 88 108 89
f 89 108 109
f 89 109 110
f 89 110 90
f 90 110 119
f 90 119 101
f 91 94 93
f 91 93 112
f 91 112 113
f 91 113 118
f 91 118 117
f 91 117 138
f 91 138 152
f 91 152 133
f 91 133 111
f 91 111 92
f 93 95 112
f 95 100 113
f 95 113 112
f 96 103 97
f 97 103 114
f 97 114 115
f 97 115 98
f 98 115 99
f 99 115 116
f 99 116 117
f 99 117 118
f 99 118 113
f 99 113 100
f 101 119 120
f 101 120 102
f 102 120 121
f 102 121 103
f 103 121 114
f 104 123 122
f 105 124 125
f 105 125 106
f 106 125 107
f 107 125 126
f 107 126 108
f 108 126 127
f 108 127 128
f 108 128 129
f 108 129 130
f 108 130 109
f 109 130 131
f 109 131 110
f 110 131 139
f 110 139 119
f 111 133 134
f 111 134 132
f 114 121 135
f 114 135 136
f 114 136 115
f 115 136 137
f 115 137 116
f 116 137 117
f 117 137 138
f 119 139 120
f 120 139 140
f 120 140 141
f 120 141 121
f 121 141 142
f 121 142 143
f 121 143 144
f 121 144 135
f 122 145 155
f 122 155 160
f 122 160 161
f 122 161 159
f 122 159 158
f 122 158 151
f 122 151 134
f 122 134 133
f 122 133 152
f 122 152 154
f 122 154 153
f 122 153 144
f 122 144 143
f 122 143 142
f 122 142 141
f 122 141 140
f 122 140 139
f 122 139 131
f 122 131 130
f 122 130 129
f 122 129 128
f 122 128 127
f 122 127 149
f 122 149 148
f 122 148 146
f 122 123 145
f 123 147 145
f 124 146 148
f 124 148 125
f 125 148 126
f 126 148 149
f 126 149 127
f 132 134 151
f 132 151 150
f 135 144 153
f 135 153 136
f 136 153 137
f 137 153 154
f 137 154 152
f 137 152 138
f 145 147 155
f 147 156 155
f 150 151 158
f 150 158 159
f 150 159 157
f 155 156 160
f 156 157 160
f 157 159 161
f 157 161 160

