# https://github.com/mikedh/trimesh
v -0.01061220 0.35846838 -0.48427796
v -0.01061220 0.35829669 -0.48155394
v 0.01103274 0.35845655 -0.48427796
v -0.01061220 0.35846838 -0.49034834
v -0.03220461 0.35717174 -0.48427796
v -0.03220461 0.35700598 -0.48155394
v -0.01061220 0.35778749 -0.47923583
v 0.01103274 0.35827893 -0.48155394
v 0.01103274 0.35845655 -0.49034834
v 0.03265141 0.35696453 -0.48155394
v 0.03265141 0.35713029 -0.48427796
v -0.01061220 0.35829669 -0.49331540
v -0.03220461 0.35700598 -0.49331540
v -0.03220461 0.35717174 -0.49034834
v -0.05374447 0.35457256 -0.48427796
v -0.05369193 0.35440680 -0.48155394
v -0.03215207 0.35649678 -0.47923583
v -0.01055967 0.35676321 -0.47747052
v 0.01100647 0.35776973 -0.47923583
v 0.01103274 0.35827893 -0.49331540
v 0.03265141 0.35713029 -0.49034834
v 0.03265141 0.35696453 -0.49331540
v 0.03259887 0.35645536 -0.47923583
v 0.05405993 0.35383248 -0.47923583
v 0.05413874 0.35433576 -0.48155394
v 0.05416500 0.35450745 -0.48427796
v -0.01061220 0.35778749 -0.49593264
v -0.03215207 0.35649678 -0.49593264
v -0.05369193 0.35440680 -0.49331540
v -0.05374447 0.35457256 -0.49034834
v -0.07504793 0.35068268 -0.48427796
v -0.05361313 0.35389760 -0.47923583
v -0.07499538 0.35051098 -0.48155394
v -0.07489032 0.35001364 -0.47923583
v -0.05348179 0.35289109 -0.47747052
v -0.03207327 0.35547251 -0.47747052
v -0.01053340 0.35505214 -0.47641295
v 0.01092766 0.35504031 -0.47641295
v 0.01098020 0.35674545 -0.47747052
v -0.03191566 0.35377327 -0.47641295
v 0.01100647 0.35776973 -0.49593264
v 0.05416500 0.35450745 -0.49034834
v 0.03259887 0.35645536 -0.49593264
v 0.05413874 0.35433576 -0.49331540
v 0.05405993 0.35383248 -0.49593264
v 0.03252007 0.35543108 -0.47747052
v 0.05390232 0.35282004 -0.47747052
v 0.07512698 0.34892425 -0.47747052
v 0.07533711 0.34992483 -0.47923583
v 0.07544219 0.35042217 -0.48155394
v 0.07546845 0.35058796 -0.48427796
v -0.01055967 0.35676321 -0.49796498
v -0.03207327 0.35547251 -0.49796498
v -0.05348179 0.35289109 -0.49796498
v -0.05361313 0.35389760 -0.49593264
v -0.07489032 0.35001364 -0.49593264
v -0.07499538 0.35051098 -0.49331540
v -0.07504793 0.35068268 -0.49034834
v -0.09608869 0.34551394 -0.48427796
v -0.09603617 0.34534815 -0.48155394
v -0.09590483 0.34485674 -0.47923583
v -0.07468017 0.34901306 -0.47747052
v -0.05321911 0.35119778 -0.47641295
v -0.07431242 0.34734935 -0.47641295
v -0.01615478 0.34751511 -0.47271681
v -0.01029699 0.34786445 -0.47271681
v 0.00485973 0.34785259 -0.47271681
v 0.01071752 0.34784669 -0.47271681
v 0.03236246 0.35373184 -0.47641295
v -0.03709048 0.34590468 -0.47271681
v -0.03125895 0.34660333 -0.47271681
v 0.01098020 0.35674545 -0.49796498
v 0.07546845 0.35058796 -0.49034834
v 0.07544219 0.35042217 -0.49331540
v 0.05390232 0.35282004 -0.49796498
v 0.03252007 0.35543108 -0.49796498
v 0.07533711 0.34992483 -0.49593264
v 0.07512698 0.34892425 -0.49796498
v 0.05363964 0.35113266 -0.47641295
v 0.07475922 0.34725460 -0.47641295
v 0.09558985 0.34210360 -0.47641295
v 0.09603640 0.34374955 -0.47747052
v 0.09632535 0.34473240 -0.47923583
v 0.09645669 0.34522974 -0.48155394
v 0.09650923 0.34538960 -0.48427796
v 0.01092766 0.35504031 -0.49918279
v -0.01053340 0.35505214 -0.49918279
v -0.03191566 0.35377327 -0.49918279
v -0.05321911 0.35119778 -0.49918279
v -0.07431242 0.34734935 -0.49918279
v -0.07468017 0.34901306 -0.49796498
v -0.09590483 0.34485674 -0.49593264
v -0.09603617 0.34534815 -0.49331540
v -0.09608869 0.34551394 -0.49034834
v -0.11676171 0.33908406 -0.48427796
v -0.11670917 0.33891237 -0.48155394
v -0.11655156 0.33843279 -0.47923583
v -0.09561586 0.34387389 -0.47747052
v -0.05214212 0.34408113 -0.47271681
v -0.09516931 0.34222203 -0.47641295
v -0.09322546 0.33529484 -0.47271681
v -0.07851532 0.33890644 -0.47271681
v -0.07281514 0.34030372 -0.47271681
v 0.02584796 0.34692305 -0.47271681
v 0.03170575 0.34656188 -0.47271681
v 0.05256265 0.34401599 -0.47271681
v 0.09650923 0.34538960 -0.49034834
v 0.09645669 0.34522974 -0.49331540
v 0.05363964 0.35113266 -0.49918279
v 0.03236246 0.35373184 -0.49918279
v 0.09632535 0.34473240 -0.49593264
v 0.07475922 0.34725460 -0.49918279
v 0.09603640 0.34374955 -0.49796498
v 0.09558985 0.34210360 -0.49918279
v 0.07323566 0.34022084 -0.47271681
v 0.09364600 0.33517051 -0.47271681
v 0.10811974 0.33065301 -0.47271681
v 0.11531721 0.33594611 -0.47641295
v 0.11531721 0.33762166 -0.47740376
v 0.11531721 0.33773416 -0.47747052
v 0.11531721 0.33780521 -0.47758538
v 0.11531721 0.33880579 -0.47923583
v 0.11531721 0.33885315 -0.47942275
v 0.11531721 0.33934456 -0.48155394
v 0.11531721 0.33951628 -0.48427796
v 0.01087513 0.35279638 -0.49978903
v -0.01045459 0.35281414 -0.49978903
v 0.03215231 0.35149974 -0.49978903
v -0.03170551 0.35154119 -0.49978903
v -0.05287762 0.34897754 -0.49978903
v -0.07386586 0.34514683 -0.49978903
v -0.09456515 0.34006691 -0.49978903
v -0.09516931 0.34222203 -0.49918279
v -0.09561586 0.34387389 -0.49796498
v -0.11655156 0.33843279 -0.49593264
v -0.11670917 0.33891237 -0.49331540
v -0.11676171 0.33908406 -0.49034834
v -0.13701445 0.33140495 -0.48427796
v -0.13696191 0.33125100 -0.48155394
v -0.11621009 0.33746180 -0.47747052
v -0.13675176 0.33078328 -0.47923583
v -0.11565845 0.33584544 -0.47641295
v -0.09884685 0.33355415 -0.47271681
v 0.11531721 0.33951628 -0.49034834
v 0.11531721 0.33934456 -0.49331540
v 0.05332443 0.34891239 -0.49978903
v 0.07428639 0.34506395 -0.49978903
v 0.11531721 0.33880579 -0.49593264
v 0.11531721 0.33872291 -0.49609289
v 0.11531721 0.33773416 -0.49796498
v 0.09498568 0.33993664 -0.49978903
v 0.11531721 0.33594611 -0.49918279
v 0.11531721 0.33360150 -0.49978903
v 0.11371484 0.32890049 -0.47271681
v 0.11531721 0.32829657 -0.47271681
v 0.01079632 0.35016167 -0.49999735
v -0.01037579 0.35017943 -0.49999735
v 0.05290413 0.34631321 -0.49999735
v 0.03191590 0.34887096 -0.49999735
v -0.03146910 0.34891239 -0.49999735
v -0.05248360 0.34637243 -0.49999735
v -0.07331423 0.34258318 -0.49999735
v -0.09385590 0.33753285 -0.49999735
v -0.11492294 0.33373177 -0.49978903
v -0.11565845 0.33584544 -0.49918279
v -0.11621009 0.33746180 -0.49796498
v -0.13675176 0.33078328 -0.49593264
v -0.13696191 0.33125100 -0.49331540
v -0.13701445 0.33140495 -0.49034834
v -0.15303801 0.32422906 -0.48427796
v -0.15303801 0.32403368 -0.48155394
v -0.15303801 0.32393304 -0.48112395
v -0.15303801 0.32347715 -0.47923583
v -0.13635774 0.32983005 -0.47747052
v -0.13572730 0.32825515 -0.47641295
v -0.15303801 0.32235813 -0.47747052
v -0.11329432 0.32904258 -0.47271681
v -0.13296916 0.32161212 -0.47271681
v -0.11878437 0.32697034 -0.47271681
v 0.09427644 0.33740851 -0.49999735
v 0.07373476 0.34248847 -0.49999735
v 0.11531721 0.33350086 -0.49979705
v 0.11531721 0.31452507 -0.47271681
v -0.11405610 0.33123916 -0.49999735
v -0.13386227 0.32375541 -0.49999735
v -0.13486046 0.32618883 -0.49978903
v -0.13572730 0.32825515 -0.49918279
v -0.13635774 0.32983005 -0.49796498
v -0.15303801 0.32253575 -0.49764720
v -0.15303801 0.32347715 -0.49593264
v -0.15303801 0.32403368 -0.49331540
v -0.15303801 0.32422906 -0.49034834
v -0.15303801 0.32070628 -0.47653848
v -0.15303801 0.32048127 -0.47641295
v -0.13832785 0.31920832 -0.47271681
v 0.11447662 0.33109707 -0.49999735
v 0.11531721 0.33078328 -0.49999735
v 0.11531721 0.31463757 -0.48489490
v -0.15303801 0.29798859 -0.47271681
v -0.15303801 0.31514081 -0.49999735
v -0.15303801 0.31784067 -0.49980238
v -0.15303801 0.31802419 -0.49978903
v -0.15303801 0.32048127 -0.49918279
v -0.15303801 0.32207987 -0.49814659
v -0.15303801 0.32235813 -0.49796498
v -0.15235503 0.31288505 -0.47271681
v -0.15214489 0.31299162 -0.47271681
v -0.15303801 0.31252980 -0.47271681
v 0.11531721 0.32453695 -0.49999735
v 0.11531721 0.31478560 -0.48811302
v -0.15303801 0.29811293 -0.48489490
v -0.15303801 0.30855110 -0.49999735
v 0.11531721 0.32408106 -0.49994928
v -0.15303801 0.30533618 -0.49967420
v 0.11531721 0.31485072 -0.48950708
v -0.15303801 0.29818991 -0.48654801
v 0.11531721 0.32148778 -0.49967420
v -0.15303801 0.30251202 -0.49871543
v 0.11531721 0.31528884 -0.49239671
v -0.15303801 0.29833201 -0.48950708
v 0.11531721 0.32094902 -0.49948192
v -0.15303801 0.30095488 -0.49736676
v 0.11531721 0.31880572 -0.49871543
v 0.11531721 0.31547239 -0.49359849
v -0.15303801 0.29898921 -0.49359849
v -0.15303801 0.30030361 -0.49679792
v 0.11531721 0.31829655 -0.49824807
v 0.11531721 0.31672165 -0.49679792
f 1 2 3
f 1 3 9
f 1 9 4
f 1 4 14
f 1 14 5
f 1 5 6
f 1 6 2
f 2 7 8
f 2 8 3
f 2 6 7
f 3 8 10
f 3 10 11
f 3 11 21
f 3 21 9
f 4 9 12
f 4 12 13
f 4 13 14
f 5 14 30
f 5 30 15
f 5 15 6
f 6 15 16
f 6 16 17
f 6 17 7
f 7 18 19
f 7 19 8
f 7 17 18
f 8 19 10
f 9 20 12
f 9 21 22
f 9 22 20
f 10 19 23
f 10 23 24
f 10 24 25
f 10 25 26
f 10 26 11
f 11 26 42
f 11 42 21
f 12 20 27
f 12 27 13
f 13 28 29
f 13 29 30
f 13 30 14
f 13 27 28
f 15 30 58
f 15 58 31
f 15 31 16
f 16 32 17
f 16 31 33
f 16 33 34
f 16 34 32
f 17 32 35
f 17 35 36
f 17 36 18
f 18 37 38
f 18 38 39
f 18 39 19
f 18 36 40
f 18 40 37
f 19 39 23
f 20 41 27
f 20 22 41
f 21 42 22
f 22 43 41
f 22 42 44
f 22 44 45
f 22 45 43
f 23 46 47
f 23 47 24
f 23 39 46
f 24 47 48
f 24 48 49
f 24 49 25
f 25 49 50
f 25 50 26
f 26 50 51
f 26 51 73
f 26 73 42
f 27 41 52
f 27 52 28
f 28 53 54
f 28 54 55
f 28 55 29
f 28 52 53
f 29 55 56
f 29 56 57
f 29 57 58
f 29 58 30
f 31 58 94
f 31 94 59
f 31 59 60
f 31 60 33
f 32 34 35
f 33 60 34
f 34 60 61
f 34 61 62
f 34 62 35
f 35 63 40
f 35 40 36
f 35 62 64
f 35 64 63
f 37 40 65
f 37 65 66
f 37 66 38
f 38 66 67
f 38 67 68
f 38 68 104
f 38 104 69
f 38 69 46
f 38 46 39
f 40 63 70
f 40 70 71
f 40 71 65
f 41 72 52
f 41 43 72
f 42 73 74
f 42 74 44
f 43 45 75
f 43 75 76
f 43 76 72
f 44 74 77
f 44 77 45
f 45 77 78
f 45 78 75
f 46 69 47
f 47 69 79
f 47 79 48
f 48 79 80
f 48 80 81
f 48 81 82
f 48 82 83
f 48 83 49
f 49 83 84
f 49 84 50
f 50 84 85
f 50 85 51
f 51 85 107
f 51 107 73
f 52 72 86
f 52 86 87
f 52 87 88
f 52 88 53
f 53 88 54
f 54 88 89
f 54 89 90
f 54 90 91
f 54 91 56
f 54 56 55
f 56 91 92
f 56 92 93
f 56 93 57
f 57 93 58
f 58 93 94
f 59 94 137
f 59 137 95
f 59 95 60
f 60 95 96
f 60 96 97
f 60 97 61
f 61 98 62
f 61 97 98
f 62 98 64
f 63 99 70
f 63 64 99
f 64 98 100
f 64 100 101
f 64 101 102
f 64 102 103
f 64 103 99
f 65 71 70
f 65 70 99
f 65 99 103
f 65 103 102
f 65 102 101
f 65 101 143
f 65 143 177
f 65 177 179
f 65 179 178
f 65 178 195
f 65 195 207
f 65 207 206
f 65 206 208
f 65 208 199
f 65 199 183
f 65 183 155
f 65 155 154
f 65 154 117
f 65 117 116
f 65 116 115
f 65 115 106
f 65 106 105
f 65 105 104
f 65 104 68
f 65 68 67
f 65 67 66
f 69 105 106
f 69 106 79
f 69 104 105
f 72 76 86
f 73 107 74
f 74 107 108
f 74 108 77
f 75 109 110
f 75 110 76
f 75 78 109
f 76 110 86
f 77 108 111
f 77 111 78
f 78 112 109
f 78 111 113
f 78 113 114
f 78 114 112
f 79 106 115
f 79 115 80
f 80 115 81
f 81 115 116
f 81 116 117
f 81 117 118
f 81 118 119
f 81 119 82
f 82 119 120
f 82 120 121
f 82 121 83
f 83 121 122
f 83 122 123
f 83 123 84
f 84 123 124
f 84 124 85
f 85 124 125
f 85 125 144
f 85 144 107
f 86 126 127
f 86 127 87
f 86 110 128
f 86 128 126
f 87 127 88
f 88 129 89
f 88 127 129
f 89 129 130
f 89 130 90
f 90 131 132
f 90 132 133
f 90 133 134
f 90 134 91
f 90 130 131
f 91 134 92
f 92 134 135
f 92 135 93
f 93 135 136
f 93 136 137
f 93 137 94
f 95 137 169
f 95 169 138
f 95 138 139
f 95 139 96
f 96 139 97
f 97 140 98
f 97 139 141
f 97 141 140
f 98 140 142
f 98 142 100
f 100 142 143
f 100 143 101
f 107 144 145
f 107 145 108
f 108 145 111
f 109 146 128
f 109 128 110
f 109 112 147
f 109 147 146
f 111 145 148
f 111 148 149
f 111 149 113
f 112 114 147
f 113 149 150
f 113 150 114
f 114 151 147
f 114 150 152
f 114 152 153
f 114 153 151
f 117 154 118
f 118 154 155
f 118 155 183
f 118 183 198
f 118 198 210
f 118 210 215
f 118 215 219
f 118 219 224
f 118 224 228
f 118 228 227
f 118 227 223
f 118 223 221
f 118 221 217
f 118 217 213
f 118 213 209
f 118 209 197
f 118 197 182
f 118 182 153
f 118 153 152
f 118 152 150
f 118 150 149
f 118 149 148
f 118 148 145
f 118 145 144
f 118 144 125
f 118 125 124
f 118 124 123
f 118 123 122
f 118 122 121
f 118 121 120
f 118 120 119
f 126 156 157
f 126 157 127
f 126 128 156
f 127 157 129
f 128 146 158
f 128 158 159
f 128 159 156
f 129 160 161
f 129 161 130
f 129 157 160
f 130 161 162
f 130 162 131
f 131 162 132
f 132 162 163
f 132 163 164
f 132 164 133
f 133 164 165
f 133 165 134
f 134 165 166
f 134 166 135
f 135 166 167
f 135 167 168
f 135 168 136
f 136 168 137
f 137 168 169
f 138 169 192
f 138 192 170
f 138 170 139
f 139 170 171
f 139 171 172
f 139 172 173
f 139 173 141
f 140 141 174
f 140 174 175
f 140 175 142
f 141 173 176
f 141 176 174
f 142 177 143
f 142 175 178
f 142 178 179
f 142 179 177
f 146 147 158
f 147 151 180
f 147 180 181
f 147 181 158
f 151 153 182
f 151 182 180
f 156 159 158
f 156 158 181
f 156 181 180
f 156 180 196
f 156 196 197
f 156 197 209
f 156 209 212
f 156 212 200
f 156 200 185
f 156 185 184
f 156 184 163
f 156 163 162
f 156 162 161
f 156 161 160
f 156 160 157
f 163 184 164
f 164 184 185
f 164 185 186
f 164 186 187
f 164 187 165
f 165 187 166
f 166 187 188
f 166 188 167
f 167 188 189
f 167 189 190
f 167 190 168
f 168 190 191
f 168 191 192
f 168 192 169
f 170 192 191
f 170 191 190
f 170 190 189
f 170 189 205
f 170 205 204
f 170 204 203
f 170 203 202
f 170 202 201
f 170 201 200
f 170 200 212
f 170 212 214
f 170 214 218
f 170 218 222
f 170 222 226
f 170 226 225
f 170 225 220
f 170 220 216
f 170 216 211
f 170 211 199
f 170 199 208
f 170 208 194
f 170 194 193
f 170 193 176
f 170 176 173
f 170 173 172
f 170 172 171
f 174 176 175
f 175 176 193
f 175 193 194
f 175 194 195
f 175 195 178
f 180 182 196
f 182 197 196
f 183 199 198
f 185 200 201
f 185 201 186
f 186 201 202
f 186 202 203
f 186 203 187
f 187 203 204
f 187 204 205
f 187 205 188
f 188 205 189
f 194 206 207
f 194 207 195
f 194 208 206
f 198 199 211
f 198 211 210
f 209 213 214
f 209 214 212
f 210 211 216
f 210 216 215
f 213 217 214
f 214 217 218
f 215 216 220
f 215 220 219
f 217 221 218
f 218 221 223
f 218 223 222
f 219 220 224
f 220 225 224
f 222 223 226
f 223 227 226
f 224 225 228
f 225 226 228
f 226 227 228

