# https://github.com/mikedh/trimesh
v 0.01029243 -0.34818184 0.47373366
v 0.03128625 -0.34688675 0.47373366
v -0.01070140 -0.34811366 0.47373366
v -0.01070140 -0.34750021 -0.46252131
v 0.01022427 -0.34750021 -0.46252131
v 0.02344765 -0.34675038 -0.46252131
v 0.03121809 -0.34627324 -0.46252131
v 0.05214375 -0.34436470 0.47373366
v 0.04437331 -0.34470552 -0.46252131
v -0.01315522 -0.34797734 0.47373366
v -0.01847184 -0.34702307 -0.46252131
v 0.07286493 -0.34061569 0.47373366
v 0.05207559 -0.34375119 -0.46252131
v -0.03169522 -0.34681857 0.47373366
v -0.03162706 -0.34620512 -0.46252131
v 0.09331346 -0.33557165 0.47373366
v 0.07272860 -0.34000224 -0.46252131
v -0.03414905 -0.34654593 0.47373366
v -0.05248456 -0.34368306 -0.46252131
v 0.11103552 -0.33005041 0.47373366
v 0.09310897 -0.33495814 -0.46252131
v 0.11314853 -0.32875532 -0.46252131
v -0.05262088 -0.34429651 0.47373366
v -0.07313757 -0.33986592 -0.46252131
v -0.05500655 -0.34388757 0.47373366
v 0.11342118 -0.32930058 0.47373366
v 0.12555398 -0.32405204 -0.46252131
v 0.13080244 -0.32275695 0.47373366
v -0.08070353 -0.33802551 -0.46252131
v -0.07327390 -0.34047937 0.47373366
v -0.07565957 -0.33993405 0.47373366
v 0.13284728 -0.32125735 -0.46252131
v 0.13305177 -0.32187080 0.47373366
v -0.09351794 -0.33482182 -0.46252131
v -0.09372243 -0.33543527 0.47373366
v 0.14491192 -0.31587243 -0.46252131
v 0.15002406 -0.31423652 0.47373366
v -0.10094758 -0.33250427 -0.46252131
v -0.11376199 -0.32916427 0.47373366
v 0.15200074 -0.31266874 -0.46252131
v 0.15227339 -0.31321406 0.47373366
v -0.11355750 -0.32855082 -0.46252131
v -0.13346075 -0.32166630 0.47373366
v -0.12085082 -0.32582426 -0.46252131
v 0.16372457 -0.30653405 -0.46252131
v 0.16876854 -0.30462545 0.47373366
v -0.13571008 -0.32071203 0.47373366
v -0.13318810 -0.32112098 -0.46252131
v 0.17060891 -0.30292141 -0.46252131
v 0.17088155 -0.30346668 0.47373366
v -0.15268236 -0.31307775 0.47373366
v -0.14034508 -0.31791735 -0.46252131
v 0.18192376 -0.29610509 -0.46252131
v 0.18887626 -0.29262877 0.47373366
v -0.17129052 -0.30326223 0.47373366
v -0.17094971 -0.30271691 -0.46252131
v -0.15929405 -0.30885160 -0.46252131
v -0.15240972 -0.31246424 -0.46252131
v 0.18853545 -0.29208344 -0.46252131
v 0.20421265 -0.28206342 0.47373366
v 0.19944133 -0.28458548 -0.46252131
v -0.18928523 -0.29235607 0.47373366
v -0.17762956 -0.29869527 -0.46252131
v 0.20625751 -0.28063202 0.47373366
v 0.20584854 -0.28015488 -0.46252131
v -0.20659831 -0.28042752 0.47373366
v -0.18894441 -0.29181075 -0.46252131
v 0.22091229 -0.26918054 0.47373366
v 0.21627729 -0.27204341 -0.46252131
v -0.20850685 -0.27892792 0.47373366
v -0.22275266 -0.26693118 -0.46252131
v -0.21232390 -0.27511078 -0.46252131
v -0.20618935 -0.27988219 -0.46252131
v -0.19535163 -0.28738016 -0.46252131
v 0.22282082 -0.26768094 0.47373366
v 0.22241184 -0.26720381 -0.46252131
v -0.22316162 -0.26740831 0.47373366
v -0.23842986 -0.25302589 -0.46252131
v 0.23856619 -0.25377566 0.47373366
v 0.23229530 -0.25847894 -0.46252131
v -0.23890699 -0.25343484 0.47373366
v -0.25328913 -0.23816626 -0.46252131
v 0.25172141 -0.24062014 0.47373366
v 0.23815721 -0.25329852 -0.46252131
v -0.25376627 -0.23857524 0.47373366
v -0.25846943 -0.23230422 -0.46252131
v 0.25342545 -0.23884790 0.47373366
v 0.25301647 -0.23843892 -0.46252131
v -0.26767126 -0.22282952 0.47373366
v -0.26719412 -0.22242054 -0.46252131
v 0.26739863 -0.22317034 0.47373366
v 0.26692149 -0.22276135 -0.46252131
v -0.28069016 -0.20626584 0.47373366
v -0.27203360 -0.21628584 -0.46252131
v 0.27891794 -0.20851523 0.47373366
v 0.27510089 -0.21233237 -0.46252131
v 0.28041750 -0.20660666 0.47373366
v -0.29261845 -0.18888420 0.47373366
v -0.29207316 -0.18854338 -0.46252131
v -0.28457537 -0.19944951 -0.46252131
v -0.28014487 -0.20585686 -0.46252131
v 0.27987221 -0.20619766 -0.46252131
v 0.29234582 -0.18929318 0.47373366
v 0.28743818 -0.19535971 -0.46252131
v 0.29186869 -0.18895236 -0.46252131
v -0.30345619 -0.17088908 0.47373366
v -0.30291089 -0.17061643 -0.46252131
v -0.29609472 -0.18193154 -0.46252131
v 0.30202478 -0.17334296 0.47373366
v 0.29868487 -0.17763725 -0.46252131
v -0.30461493 -0.16870785 0.47373366
v -0.31265804 -0.15200785 -0.46252131
v 0.30325171 -0.17129806 0.47373366
v 0.30270642 -0.17095724 -0.46252131
v -0.31320333 -0.15228049 0.47373366
v -0.32131457 -0.13285396 -0.46252131
v -0.31422576 -0.15003110 0.47373366
v 0.31306699 -0.15262131 0.47373366
v 0.31252170 -0.15234867 -0.46252131
v -0.32874420 -0.11315476 -0.46252131
v -0.32185987 -0.13305844 0.47373366
v -0.32274598 -0.13080905 0.47373366
v 0.32172355 -0.13346742 0.47373366
v 0.31790647 -0.14035192 -0.46252131
v -0.33106169 -0.10572496 -0.46252131
v -0.32928950 -0.11335925 0.47373366
v -0.33003929 -0.11104170 0.47373366
v 0.32833523 -0.11608578 0.47373366
v 0.32111010 -0.13319477 -0.46252131
v 0.32860789 -0.11356375 -0.46252131
v -0.33494693 -0.09311475 -0.46252131
v -0.33556038 -0.09331924 0.47373366
v 0.32915318 -0.11376823 0.47373366
v 0.33481061 -0.09352373 -0.46252131
v 0.33474243 -0.09604578 0.47373366
v -0.33999088 -0.07273392 -0.46252131
v -0.34060436 -0.07287025 0.47373366
v 0.33801422 -0.08070903 -0.46252131
v 0.33542407 -0.09372822 0.47373366
v -0.34373981 -0.05208044 -0.46252131
v -0.34435326 -0.05214861 0.47373366
v 0.33985457 -0.07314290 -0.46252131
v 0.33992273 -0.07566494 0.47373366
v -0.34469405 -0.04430983 -0.46252131
v -0.34687522 -0.03129064 0.47373366
v 0.34367162 -0.05248942 -0.46252131
v 0.34387612 -0.05501147 0.47373366
v 0.34046802 -0.07327923 0.47373366
v -0.34626177 -0.03122247 -0.46252131
v -0.34817031 -0.01029634 0.47373366
v 0.34530753 -0.03940207 -0.46252131
v 0.34428510 -0.05255759 0.47373366
v -0.34673890 -0.02345186 -0.46252131
v -0.34810215 0.01069796 0.47373366
v -0.34748870 0.01069796 -0.46252131
v -0.34748870 -0.01022818 -0.46252131
v 0.34626177 -0.03163145 -0.46252131
v 0.34687522 -0.03169962 0.47373366
v -0.34796584 0.01315184 0.47373366
v -0.34626177 0.03162409 -0.46252131
v 0.34748870 -0.01070532 -0.46252131
v 0.34796584 -0.01315920 0.47373366
v -0.34687522 0.03169226 0.47373366
v -0.34530753 0.03939471 -0.46252131
v 0.34748870 0.01022081 -0.46252131
v 0.34817031 0.01028898 0.47373366
v 0.34810215 -0.01070532 0.47373366
v -0.34428510 0.05261839 0.47373366
v -0.34367162 0.05248206 -0.46252131
v 0.34673890 0.02344450 -0.46252131
v 0.34687522 0.03128327 0.47373366
v 0.34626177 0.03121511 -0.46252131
v -0.34387612 0.05500410 0.47373366
v -0.33985457 0.07313554 -0.46252131
v 0.34435326 0.05214125 0.47373366
v 0.34469405 0.04430247 -0.46252131
v -0.34046802 0.07327187 0.47373366
v -0.33801422 0.08070167 -0.46252131
v -0.33992273 0.07565758 0.47373366
v 0.34060436 0.07286289 0.47373366
v 0.34373981 0.05207308 -0.46252131
v -0.33481061 0.09351637 -0.46252131
v -0.33542407 0.09372086 0.47373366
v 0.33556038 0.09331188 0.47373366
v 0.33999088 0.07272656 -0.46252131
v -0.32860789 0.11362454 -0.46252131
v -0.33474243 0.09603842 0.47373366
v 0.33003929 0.11103434 0.47373366
v 0.33494693 0.09310739 -0.46252131
v 0.33106169 0.10571760 -0.46252131
v 0.32874420 0.11321557 -0.46252131
v -0.32111010 0.13325557 -0.46252131
v -0.32915318 0.11376087 0.47373366
v -0.32833523 0.11607842 0.47373366
v -0.32172355 0.13346006 0.47373366
v 0.32928950 0.11335189 0.47373366
v 0.32131457 0.13284659 -0.46252131
v 0.32274598 0.13080169 0.47373366
v -0.31252170 0.15234131 -0.46252131
v -0.31306699 0.15261395 0.47373366
v 0.31265804 0.15200049 -0.46252131
v 0.31422576 0.15002374 0.47373366
v 0.32185987 0.13305108 0.47373366
v -0.30270642 0.17094988 -0.46252131
v -0.30325171 0.17129070 0.47373366
v 0.30652347 0.16372457 -0.46252131
v 0.30461493 0.16870049 0.47373366
v 0.31320333 0.15227313 0.47373366
v -0.29868487 0.17762989 -0.46252131
v -0.30202478 0.17333560 0.47373366
v 0.30291089 0.17060907 -0.46252131
v 0.30345619 0.17088172 0.47373366
v -0.29186869 0.18894500 -0.46252131
v -0.29234582 0.18928581 0.47373366
v 0.29207316 0.18860418 -0.46252131
v 0.29261845 0.18887684 0.47373366
v -0.28743818 0.19535235 -0.46252131
v -0.28041750 0.20659930 0.47373366
v 0.28014487 0.20584950 -0.46252131
v 0.28205338 0.20421357 0.47373366
v -0.27987221 0.20619030 -0.46252131
v -0.27891794 0.20850787 0.47373366
v -0.26692149 0.22275399 -0.46252131
v -0.27510089 0.21232501 -0.46252131
v 0.27203360 0.21627848 -0.46252131
v 0.28062201 0.20625848 0.47373366
v -0.26739863 0.22316298 0.47373366
v -0.25301647 0.23843156 -0.46252131
v 0.26719412 0.22241318 -0.46252131
v 0.26767126 0.22282216 0.47373366
v 0.26917082 0.22091359 0.47373366
v -0.25342545 0.23890869 0.47373366
v -0.23815721 0.25329113 -0.46252131
v 0.25846943 0.23229685 -0.46252131
v 0.25376627 0.23856787 0.47373366
v -0.23856619 0.25376832 0.47373366
v -0.23229530 0.25847155 -0.46252131
v 0.25328913 0.23815890 -0.46252131
v 0.24061105 0.25172341 0.47373366
v -0.22282082 0.26767361 0.47373366
v -0.22241184 0.26719648 -0.46252131
v 0.23842986 0.25301850 -0.46252131
v 0.23883884 0.25342751 0.47373366
v -0.22091229 0.26917320 0.47373366
v -0.21627729 0.27203608 -0.46252131
v 0.22275266 0.26692379 -0.46252131
v 0.22316162 0.26740098 0.47373366
v -0.20625751 0.28062463 0.47373366
v -0.20584854 0.28014749 -0.46252131
v 0.21232390 0.27510339 -0.46252131
v 0.20659831 0.28042012 0.47373366
v 0.20850685 0.27892053 0.47373366
v -0.20421265 0.28205609 0.47373366
v -0.18860361 0.29207605 -0.46252131
v 0.20618935 0.27987486 -0.46252131
v 0.18928523 0.29234874 0.47373366
v 0.19535163 0.28744096 -0.46252131
v -0.18887626 0.29262137 0.47373366
v -0.17060891 0.30291402 -0.46252131
v 0.17333537 0.30202794 0.47373366
v 0.18894441 0.29180342 -0.46252131
v 0.17762956 0.29868793 -0.46252131
v -0.17088155 0.30345935 0.47373366
v -0.16372457 0.30652672 -0.46252131
v -0.16876854 0.30461812 0.47373366
v 0.17129052 0.30325484 0.47373366
v 0.17094971 0.30270952 -0.46252131
v -0.15200074 0.31266141 -0.46252131
v -0.15227339 0.31320667 0.47373366
v 0.15261419 0.31307036 0.47373366
v 0.15929405 0.30884427 -0.46252131
v -0.13284728 0.32131815 -0.46252131
v -0.15002406 0.31422913 0.47373366
v 0.13346075 0.32172710 0.47373366
v 0.15234154 0.31245691 -0.46252131
v 0.14034508 0.31790996 -0.46252131
v -0.11314853 0.32874793 -0.46252131
v -0.13305177 0.32186341 0.47373366
v -0.13080244 0.32274956 0.47373366
v 0.11376199 0.32915694 0.47373366
v 0.13318810 0.32111365 -0.46252131
v 0.12085082 0.32581693 -0.46252131
v -0.10571890 0.33106548 -0.46252131
v -0.11342118 0.32929325 0.47373366
v -0.11103552 0.33004302 0.47373366
v 0.09603993 0.33474630 0.47373366
v 0.11355750 0.32854342 -0.46252131
v -0.09310897 0.33495080 -0.46252131
v -0.09331346 0.33556426 0.47373366
v 0.09372243 0.33542794 0.47373366
v 0.10094758 0.33249688 -0.46252131
v 0.09351794 0.33481449 -0.46252131
v -0.07272860 0.33999485 -0.46252131
v -0.07286493 0.34060836 0.47373366
v 0.07565957 0.33992672 0.47373366
v 0.08070353 0.33801812 -0.46252131
v -0.05207559 0.34374386 -0.46252131
v -0.05214375 0.34435731 0.47373366
v 0.07327390 0.34047204 0.47373366
v 0.07313757 0.33985853 -0.46252131
v -0.04437331 0.34469813 -0.46252131
v -0.03128625 0.34687936 0.47373366
v 0.05500655 0.34388018 0.47373366
v 0.05248456 0.34367567 -0.46252131
v -0.03121809 0.34626591 -0.46252131
v -0.01029243 0.34817445 0.47373366
v 0.05255272 0.34428918 0.47373366
v 0.03162706 0.34619772 -0.46252131
v 0.03414905 0.34653854 0.47373366
v -0.02344765 0.34674305 -0.46252131
v -0.01022427 0.34749281 -0.46252131
v 0.01070140 0.34810632 0.47373366
v 0.01070140 0.34749281 -0.46252131
v 0.01847184 0.34701568 -0.46252131
v 0.01315522 0.34797001 0.47373366
v 0.03169522 0.34681118 0.47373366
f 1 2 8
f 1 8 12
f 1 12 16
f 1 16 20
f 1 20 26
f 1 26 28
f 1 28 33
f 1 33 37
f 1 37 41
f 1 41 46
f 1 46 50
f 1 50 54
f 1 54 60
f 1 60 64
f 1 64 68
f 1 68 75
f 1 75 79
f 1 79 83
f 1 83 87
f 1 87 91
f 1 91 95
f 1 95 97
f 1 97 103
f 1 103 109
f 1 109 113
f 1 113 118
f 1 118 123
f 1 123 128
f 1 128 133
f 1 133 135
f 1 135 139
f 1 139 143
f 1 143 148
f 1 148 147
f 1 147 152
f 1 152 158
f 1 158 162
f 1 162 167
f 1 167 166
f 1 166 171
f 1 171 175
f 1 175 180
f 1 180 184
f 1 184 188
f 1 188 196
f 1 196 198
f 1 198 203
f 1 203 202
f 1 202 208
f 1 208 207
f 1 207 212
f 1 212 216
f 1 216 220
f 1 220 226
f 1 226 231
f 1 231 230
f 1 230 235
f 1 235 239
f 1 239 243
f 1 243 247
f 1 247 252
f 1 252 251
f 1 251 256
f 1 256 260
f 1 260 266
f 1 266 270
f 1 270 274
f 1 274 280
f 1 280 286
f 1 286 290
f 1 290 295
f 1 295 299
f 1 299 303
f 1 303 307
f 1 307 309
f 1 309 316
f 1 316 315
f 1 315 312
f 1 312 306
f 1 306 302
f 1 302 298
f 1 298 294
f 1 294 289
f 1 289 285
f 1 285 284
f 1 284 279
f 1 279 278
f 1 278 273
f 1 273 269
f 1 269 265
f 1 265 263
f 1 263 258
f 1 258 253
f 1 253 248
f 1 248 244
f 1 244 240
f 1 240 236
f 1 236 232
f 1 232 227
f 1 227 222
f 1 222 218
f 1 218 214
f 1 214 210
f 1 210 205
f 1 205 200
f 1 200 195
f 1 195 194
f 1 194 193
f 1 193 187
f 1 187 183
f 1 183 179
f 1 179 177
f 1 177 173
f 1 173 168
f 1 168 163
f 1 163 159
f 1 159 154
f 1 154 150
f 1 150 145
f 1 145 141
f 1 141 137
f 1 137 132
f 1 132 127
f 1 127 126
f 1 126 122
f 1 122 121
f 1 121 117
f 1 117 115
f 1 115 111
f 1 111 106
f 1 106 98
f 1 98 93
f 1 93 89
f 1 89 85
f 1 85 81
f 1 81 77
f 1 77 70
f 1 70 66
f 1 66 62
f 1 62 55
f 1 55 51
f 1 51 47
f 1 47 43
f 1 43 39
f 1 39 35
f 1 35 31
f 1 31 30
f 1 30 25
f 1 25 23
f 1 23 18
f 1 18 14
f 1 14 10
f 1 10 3
f 1 3 4
f 1 4 5
f 1 5 6
f 1 6 7
f 1 7 2
f 2 7 9
f 2 9 8
f 3 10 4
f 4 11 15
f 4 15 19
f 4 19 24
f 4 24 29
f 4 29 34
f 4 34 38
f 4 38 42
f 4 42 44
f 4 44 48
f 4 48 52
f 4 52 58
f 4 58 57
f 4 57 56
f 4 56 63
f 4 63 67
f 4 67 74
f 4 74 73
f 4 73 72
f 4 72 71
f 4 71 78
f 4 78 82
f 4 82 86
f 4 86 90
f 4 90 94
f 4 94 101
f 4 101 100
f 4 100 99
f 4 99 108
f 4 108 107
f 4 107 112
f 4 112 116
f 4 116 120
f 4 120 125
f 4 125 131
f 4 131 136
f 4 136 140
f 4 140 144
f 4 144 149
f 4 149 153
f 4 153 156
f 4 156 155
f 4 155 160
f 4 160 164
f 4 164 169
f 4 169 174
f 4 174 178
f 4 178 182
f 4 182 186
f 4 186 192
f 4 192 199
f 4 199 204
f 4 204 209
f 4 209 213
f 4 213 217
f 4 217 221
f 4 221 224
f 4 224 223
f 4 223 228
f 4 228 233
f 4 233 237
f 4 237 241
f 4 241 245
f 4 245 249
f 4 249 254
f 4 254 259
f 4 259 264
f 4 264 268
f 4 268 272
f 4 272 277
f 4 277 283
f 4 283 288
f 4 288 293
f 4 293 297
f 4 297 301
f 4 301 305
f 4 305 310
f 4 310 311
f 4 311 313
f 4 313 314
f 4 314 308
f 4 308 304
f 4 304 300
f 4 300 296
f 4 296 292
f 4 292 291
f 4 291 287
f 4 287 282
f 4 282 281
f 4 281 276
f 4 276 275
f 4 275 271
f 4 271 267
f 4 267 262
f 4 262 261
f 4 261 257
f 4 257 255
f 4 255 250
f 4 250 246
f 4 246 242
f 4 242 238
f 4 238 234
f 4 234 229
f 4 229 225
f 4 225 219
f 4 219 215
f 4 215 211
f 4 211 206
f 4 206 201
f 4 201 197
f 4 197 191
f 4 191 190
f 4 190 189
f 4 189 185
f 4 185 181
f 4 181 176
f 4 176 172
f 4 172 170
f 4 170 165
f 4 165 161
f 4 161 157
f 4 157 151
f 4 151 146
f 4 146 142
f 4 142 138
f 4 138 134
f 4 134 130
f 4 130 129
f 4 129 124
f 4 124 119
f 4 119 114
f 4 114 110
f 4 110 105
f 4 105 104
f 4 104 102
f 4 102 96
f 4 96 92
f 4 92 88
f 4 88 84
f 4 84 80
f 4 80 76
f 4 76 69
f 4 69 65
f 4 65 61
f 4 61 59
f 4 59 53
f 4 53 49
f 4 49 45
f 4 45 40
f 4 40 36
f 4 36 32
f 4 32 27
f 4 27 22
f 4 22 21
f 4 21 17
f 4 17 13
f 4 13 9
f 4 9 7
f 4 7 6
f 4 6 5
f 4 10 11
f 8 9 13
f 8 13 12
f 10 14 15
f 10 15 11
f 12 13 17
f 12 17 16
f 14 18 15
f 15 18 19
f 16 17 21
f 16 21 22
f 16 22 20
f 18 23 19
f 19 23 25
f 19 25 24
f 20 22 26
f 22 27 28
f 22 28 26
f 24 25 30
f 24 30 31
f 24 31 29
f 27 32 28
f 28 32 33
f 29 31 35
f 29 35 34
f 32 36 33
f 33 36 37
f 34 35 38
f 35 39 38
f 36 40 37
f 37 40 41
f 38 39 42
f 39 43 44
f 39 44 42
f 40 45 46
f 40 46 41
f 43 47 48
f 43 48 44
f 45 49 46
f 46 49 50
f 47 51 52
f 47 52 48
f 49 53 54
f 49 54 50
f 51 55 56
f 51 56 57
f 51 57 58
f 51 58 52
f 53 59 54
f 54 59 61
f 54 61 60
f 55 62 63
f 55 63 56
f 60 61 65
f 60 65 64
f 62 66 67
f 62 67 63
f 64 65 69
f 64 69 68
f 66 70 71
f 66 71 72
f 66 72 73
f 66 73 74
f 66 74 67
f 68 69 75
f 69 76 75
f 70 77 71
f 71 77 78
f 75 76 80
f 75 80 79
f 77 81 78
f 78 81 85
f 78 85 82
f 79 80 84
f 79 84 88
f 79 88 83
f 82 85 86
f 83 88 87
f 85 89 86
f 86 89 90
f 87 88 91
f 88 92 91
f 89 93 94
f 89 94 90
f 91 92 95
f 92 96 97
f 92 97 95
f 93 98 99
f 93 99 100
f 93 100 101
f 93 101 94
f 96 102 97
f 97 102 104
f 97 104 105
f 97 105 103
f 98 106 107
f 98 107 108
f 98 108 99
f 103 105 109
f 105 110 109
f 106 111 107
f 107 111 112
f 109 110 114
f 109 114 113
f 111 115 112
f 112 115 117
f 112 117 116
f 113 114 119
f 113 119 118
f 116 117 121
f 116 121 122
f 116 122 120
f 118 119 123
f 119 124 123
f 120 122 126
f 120 126 127
f 120 127 125
f 123 124 129
f 123 129 130
f 123 130 128
f 125 127 132
f 125 132 131
f 128 130 133
f 130 134 135
f 130 135 133
f 131 132 136
f 132 137 136
f 134 138 139
f 134 139 135
f 136 137 140
f 137 141 140
f 138 142 143
f 138 143 139
f 140 141 144
f 141 145 144
f 142 146 147
f 142 147 148
f 142 148 143
f 144 145 149
f 145 150 149
f 146 151 152
f 146 152 147
f 149 150 153
f 150 154 155
f 150 155 156
f 150 156 153
f 151 157 158
f 151 158 152
f 154 159 155
f 155 159 160
f 157 161 162
f 157 162 158
f 159 163 160
f 160 163 164
f 161 165 166
f 161 166 167
f 161 167 162
f 163 168 164
f 164 168 169
f 165 170 166
f 166 170 172
f 166 172 171
f 168 173 169
f 169 173 174
f 171 172 176
f 171 176 175
f 173 177 174
f 174 177 179
f 174 179 178
f 175 176 181
f 175 181 180
f 178 179 183
f 178 183 182
f 180 181 185
f 180 185 184
f 182 183 187
f 182 187 186
f 184 185 189
f 184 189 190
f 184 190 191
f 184 191 188
f 186 187 193
f 186 193 194
f 186 194 195
f 186 195 192
f 188 191 196
f 191 197 198
f 191 198 196
f 192 195 199
f 195 200 199
f 197 201 202
f 197 202 203
f 197 203 198
f 199 200 205
f 199 205 204
f 201 206 207
f 201 207 208
f 201 208 202
f 204 205 210
f 204 210 209
f 206 211 207
f 207 211 212
f 209 210 213
f 210 214 213
f 211 215 216
f 211 216 212
f 213 214 218
f 213 218 217
f 215 219 220
f 215 220 216
f 217 218 221
f 218 222 223
f 218 223 224
f 218 224 221
f 219 225 226
f 219 226 220
f 222 227 223
f 223 227 228
f 225 229 230
f 225 230 231
f 225 231 226
f 227 232 228
f 228 232 236
f 228 236 233
f 229 234 230
f 230 234 235
f 233 236 237
f 234 238 235
f 235 238 242
f 235 242 239
f 236 240 237
f 237 240 241
f 239 242 243
f 240 244 245
f 240 245 241
f 242 246 247
f 242 247 243
f 244 248 245
f 245 248 249
f 246 250 251
f 246 251 252
f 246 252 247
f 248 253 249
f 249 253 254
f 250 255 251
f 251 255 257
f 251 257 256
f 253 258 254
f 254 258 263
f 254 263 259
f 256 257 261
f 256 261 262
f 256 262 260
f 259 263 265
f 259 265 264
f 260 262 267
f 260 267 266
f 264 265 268
f 265 269 268
f 266 267 271
f 266 271 270
f 268 269 273
f 268 273 272
f 270 271 275
f 270 275 276
f 270 276 274
f 272 273 278
f 272 278 279
f 272 279 277
f 274 276 281
f 274 281 282
f 274 282 280
f 277 279 284
f 277 284 285
f 277 285 283
f 280 282 287
f 280 287 286
f 283 285 289
f 283 289 288
f 286 287 291
f 286 291 292
f 286 292 290
f 288 289 293
f 289 294 293
f 290 292 296
f 290 296 295
f 293 294 297
f 294 298 297
f 295 296 300
f 295 300 299
f 297 298 301
f 298 302 301
f 299 300 303
f 300 304 303
f 301 302 305
f 302 306 305
f 303 304 307
f 304 308 309
f 304 309 307
f 305 306 310
f 306 311 310
f 306 312 313
f 306 313 311
f 308 314 315
f 308 315 316
f 308 316 309
f 312 315 313
f 313 315 314

