# https://github.com/mikedh/trimesh
v -0.29199719 -0.16452017 0.47373626
v -0.30684865 -0.16452017 0.47373626
v -0.29207817 -0.16452017 0.48490509
v -0.15303802 -0.29803365 0.47373626
v -0.30462986 -0.16877210 0.47373626
v -0.31462261 -0.16452017 0.47642046
v -0.29230490 -0.16452017 0.48951507
v -0.15303802 -0.29825249 0.48796213
v -0.15303802 -0.29811180 0.48490250
v -0.15303802 -0.31288409 0.47373626
v -0.30950475 -0.17432147 0.47642046
v -0.30349615 -0.17092931 0.47373626
v -0.31565914 -0.16452017 0.47698611
v -0.29295275 -0.16452017 0.49352339
v -0.15303802 -0.29833066 0.48951507
v -0.15303802 -0.32046565 0.47642046
v -0.15571031 -0.31926200 0.47642046
v -0.15485194 -0.31194618 0.47373626
v -0.31097856 -0.17514998 0.47747719
v -0.31654990 -0.16452017 0.47747719
v -0.29389209 -0.18687403 0.47373626
v -0.29841071 -0.19268915 0.47642046
v -0.29983592 -0.19361144 0.47747719
v -0.29296893 -0.16452017 0.49360824
v -0.15303802 -0.29898721 0.49360824
v -0.15303802 -0.29876834 0.49227643
v -0.15303802 -0.32202888 0.47729978
v -0.15645531 -0.32080957 0.47747719
v -0.17470787 -0.30928874 0.47642046
v -0.17130677 -0.30328602 0.47373626
v -0.31186932 -0.17565021 0.47923583
v -0.31771597 -0.16452017 0.47923583
v -0.30069429 -0.19417420 0.47923583
v -0.29262882 -0.18895309 0.47373626
v -0.28069258 -0.20627342 0.47373626
v -0.28623152 -0.21035339 0.47642046
v -0.28760815 -0.21136947 0.47747719
v -0.29428080 -0.16452017 0.49680668
v -0.15303802 -0.29990950 0.49584767
v -0.15303802 -0.32234150 0.47747719
v -0.15690878 -0.32173187 0.47923583
v -0.17555004 -0.31077379 0.47747719
v -0.15303802 -0.32254472 0.47778830
v -0.19398077 -0.29961249 0.47747719
v -0.19305761 -0.29817432 0.47642046
v -0.18931641 -0.29239047 0.47373626
v -0.31232280 -0.17590031 0.48156008
v -0.31828284 -0.16452017 0.48156008
v -0.28843415 -0.21197912 0.47923583
v -0.30113158 -0.19443995 0.48156008
v -0.26922601 -0.22092067 0.47373626
v -0.27301583 -0.22725165 0.47642046
v -0.27431148 -0.22834590 0.47747719
v -0.27510506 -0.22900245 0.47923583
v -0.29625666 -0.16452017 0.49853188
v -0.15303802 -0.30031592 0.49680668
v -0.15713553 -0.32218519 0.48156008
v -0.17629506 -0.31211814 0.48156008
v -0.17603593 -0.31166482 0.47923583
v -0.15303802 -0.32346702 0.47923583
v -0.15303802 -0.32402977 0.48156008
v -0.19454762 -0.30045661 0.47923583
v -0.21233051 -0.28816980 0.47923583
v -0.21173127 -0.28734130 0.47747719
v -0.21071093 -0.28596568 0.47642046
v -0.20662962 -0.28043193 0.47373626
v -0.31246859 -0.17599410 0.48428544
v -0.31836382 -0.16452017 0.48266309
v -0.28883904 -0.21227613 0.48156008
v -0.27550995 -0.22933072 0.48156008
v -0.30127734 -0.19453374 0.48428544
v -0.26771984 -0.22284341 0.47373626
v -0.25377533 -0.23860052 0.47373626
v -0.25877979 -0.24332142 0.47642046
v -0.26002687 -0.24447818 0.47747719
v -0.26077187 -0.24518164 0.47923583
v -0.29648340 -0.16452017 0.49872473
v -0.15303802 -0.30194166 0.49823365
v -0.15720031 -0.32234150 0.48428544
v -0.17637603 -0.31225884 0.48428544
v -0.19482294 -0.30089432 0.48156008
v -0.15303802 -0.32420170 0.48428544
v -0.21263823 -0.28857625 0.48156008
v -0.22967611 -0.27522647 0.48156008
v -0.22933599 -0.27483565 0.47923583
v -0.22868817 -0.27403843 0.47747719
v -0.22758687 -0.27272534 0.47642046
v -0.22318164 -0.26744169 0.47373626
v -0.31246859 -0.17599410 0.49035066
v -0.31847718 -0.16452017 0.48428544
v -0.28898481 -0.21236992 0.48428544
v -0.26116055 -0.24552554 0.48156008
v -0.27563953 -0.22944014 0.48428544
v -0.30127734 -0.19453374 0.49035066
v -0.24363682 -0.25848451 0.47642046
v -0.23890767 -0.25346664 0.47373626
v -0.24480291 -0.25973508 0.47747719
v -0.24549931 -0.26046979 0.47923583
v -0.29930145 -0.16452017 0.49968117
v -0.15303802 -0.30250442 0.49872473
v -0.15720031 -0.32234150 0.49035066
v -0.17637603 -0.31225884 0.49035066
v -0.19490393 -0.30103499 0.48428544
v -0.21273540 -0.28871694 0.48428544
v -0.15303802 -0.32420170 0.49035066
v -0.22977328 -0.27535152 0.48428544
v -0.24596900 -0.26097003 0.48428544
v -0.24585563 -0.26084495 0.48156008
v -0.22499555 -0.26583159 0.47373626
v -0.31232280 -0.17590031 0.49332541
v -0.31841239 -0.16452017 0.49155137
v -0.31847718 -0.16452017 0.49035066
v -0.28898481 -0.21236992 0.49035066
v -0.26127395 -0.24563496 0.48428544
v -0.27563953 -0.22944014 0.49035066
v -0.30113158 -0.19443995 0.49332541
v -0.30252442 -0.16452017 0.49999997
v -0.15303802 -0.30534944 0.49968117
v -0.15303802 -0.32417047 0.49097288
v -0.15303802 -0.32402977 0.49332541
v -0.15713553 -0.32218519 0.49332541
v -0.17629506 -0.31211814 0.49332541
v -0.19490393 -0.30103499 0.49035066
v -0.21273540 -0.28871694 0.49035066
v -0.22977328 -0.27535152 0.49035066
v -0.24596900 -0.26097003 0.49035066
v -0.31771597 -0.16452017 0.49594024
v -0.31805611 -0.16452017 0.49440271
v -0.31828284 -0.16452017 0.49332541
v -0.30069429 -0.19417420 0.49594024
v -0.31186932 -0.17565021 0.49594024
v -0.27550995 -0.22933072 0.49332541
v -0.28883904 -0.21227613 0.49332541
v -0.26127395 -0.24563496 0.49035066
v -0.26116055 -0.24552554 0.49332541
v -0.28843415 -0.21197912 0.49594024
v -0.30913225 -0.16452017 0.49999997
v -0.15303802 -0.30855402 0.49999997
v -0.15303802 -0.32346702 0.49594024
v -0.15690878 -0.32173187 0.49594024
v -0.17603593 -0.31166482 0.49594024
v -0.19454762 -0.30045661 0.49594024
v -0.19482294 -0.30089432 0.49332541
v -0.21263823 -0.28857625 0.49332541
v -0.22967611 -0.27522647 0.49332541
v -0.24585563 -0.26084495 0.49332541
v -0.31097856 -0.17514998 0.49797395
v -0.31654990 -0.16452017 0.49797395
v -0.29983592 -0.19361144 0.49797395
v -0.28760815 -0.21136947 0.49797395
v -0.26077187 -0.24518164 0.49594024
v -0.27510506 -0.22900245 0.49594024
v -0.24549931 -0.26046979 0.49594024
v -0.31209606 -0.16452017 0.49979943
v -0.30754507 -0.17321160 0.49979943
v -0.30524528 -0.17192978 0.49999997
v -0.15303802 -0.31511950 0.49999997
v -0.15303802 -0.32234150 0.49797395
v -0.15645531 -0.32080957 0.49797395
v -0.17555004 -0.31077379 0.49797395
v -0.19398077 -0.29961249 0.49797395
v -0.21233051 -0.28816980 0.49594024
v -0.22933599 -0.27483565 0.49594024
v -0.30950475 -0.17432147 0.49919009
v -0.31552956 -0.16452017 0.49862444
v -0.29841071 -0.19268915 0.49919009
v -0.27431148 -0.22834590 0.49797395
v -0.27301583 -0.22725165 0.49919009
v -0.28623152 -0.21035339 0.49919009
v -0.24480291 -0.25973508 0.49797395
v -0.26002687 -0.24447818 0.49797395
v -0.31339175 -0.16452017 0.49948832
v -0.29653201 -0.19146985 0.49979943
v -0.29431319 -0.19004734 0.49999997
v -0.15357247 -0.31488502 0.49999997
v -0.15303802 -0.31801143 0.49979943
v -0.15303802 -0.32073140 0.49901783
v -0.15571031 -0.31926200 0.49919009
v -0.17470787 -0.30928874 0.49919009
v -0.15303802 -0.32046565 0.49919009
v -0.19305761 -0.29817432 0.49919009
v -0.21173127 -0.28734130 0.49797395
v -0.22868817 -0.27403843 0.49797395
v -0.31462261 -0.16452017 0.49919009
v -0.28443381 -0.20902467 0.49979943
v -0.25877979 -0.24332142 0.49919009
v -0.25716022 -0.24178948 0.49979943
v -0.27128288 -0.22581351 0.49979943
v -0.24363682 -0.25848451 0.49919009
v -0.28229597 -0.20747709 0.49999997
v -0.17229471 -0.30503681 0.49999997
v -0.17359036 -0.30733472 0.49979943
v -0.15472236 -0.31724545 0.49979943
v -0.19182673 -0.29628286 0.49979943
v -0.20938289 -0.28416800 0.49979943
v -0.21071093 -0.28596568 0.49919009
v -0.22758687 -0.27272534 0.49919009
v -0.26925841 -0.22414087 0.49999997
v -0.24208203 -0.25685880 0.49979943
v -0.24028429 -0.25493604 0.49999997
v -0.25523293 -0.23997615 0.49999997
v -0.22616164 -0.27100581 0.49979943
v -0.19040152 -0.29407874 0.49999997
v -0.20781191 -0.28204203 0.49999997
v -0.22447729 -0.26898926 0.49999997
f 1 2 6
f 1 6 13
f 1 13 20
f 1 20 32
f 1 32 48
f 1 48 68
f 1 68 90
f 1 90 112
f 1 112 111
f 1 111 129
f 1 129 128
f 1 128 127
f 1 127 148
f 1 148 165
f 1 165 184
f 1 184 172
f 1 172 154
f 1 154 137
f 1 137 117
f 1 117 99
f 1 99 77
f 1 77 55
f 1 55 38
f 1 38 24
f 1 24 14
f 1 14 7
f 1 7 3
f 1 3 4
f 1 4 10
f 1 10 18
f 1 18 30
f 1 30 46
f 1 46 66
f 1 66 88
f 1 88 109
f 1 109 96
f 1 96 73
f 1 73 72
f 1 72 51
f 1 51 35
f 1 35 34
f 1 34 21
f 1 21 12
f 1 12 5
f 1 5 2
f 2 5 6
f 3 7 8
f 3 8 9
f 3 9 4
f 4 9 8
f 4 8 15
f 4 15 26
f 4 26 25
f 4 25 39
f 4 39 56
f 4 56 78
f 4 78 100
f 4 100 118
f 4 118 138
f 4 138 157
f 4 157 176
f 4 176 180
f 4 180 177
f 4 177 158
f 4 158 139
f 4 139 120
f 4 120 119
f 4 119 105
f 4 105 82
f 4 82 61
f 4 61 60
f 4 60 43
f 4 43 40
f 4 40 27
f 4 27 16
f 4 16 10
f 5 11 6
f 5 12 11
f 6 11 13
f 7 14 15
f 7 15 8
f 10 16 17
f 10 17 18
f 11 19 20
f 11 20 13
f 11 12 21
f 11 21 22
f 11 22 23
f 11 23 19
f 14 24 25
f 14 25 26
f 14 26 15
f 16 27 28
f 16 28 17
f 17 28 29
f 17 29 18
f 18 29 30
f 19 31 32
f 19 32 20
f 19 23 33
f 19 33 31
f 21 34 22
f 22 34 35
f 22 35 36
f 22 36 37
f 22 37 23
f 23 37 33
f 24 38 25
f 25 38 39
f 27 40 28
f 28 41 42
f 28 42 29
f 28 40 43
f 28 43 41
f 29 42 44
f 29 44 45
f 29 45 46
f 29 46 30
f 31 47 32
f 31 33 47
f 32 47 48
f 33 37 49
f 33 49 50
f 33 50 47
f 35 51 52
f 35 52 36
f 36 52 37
f 37 52 53
f 37 53 54
f 37 54 49
f 38 55 56
f 38 56 39
f 41 57 58
f 41 58 59
f 41 59 42
f 41 43 60
f 41 60 61
f 41 61 57
f 42 59 62
f 42 62 44
f 44 62 63
f 44 63 64
f 44 64 45
f 45 64 65
f 45 65 66
f 45 66 46
f 47 67 68
f 47 68 48
f 47 50 71
f 47 71 67
f 49 69 50
f 49 54 70
f 49 70 69
f 50 69 91
f 50 91 71
f 51 72 52
f 52 72 73
f 52 73 74
f 52 74 75
f 52 75 53
f 53 75 54
f 54 75 76
f 54 76 70
f 55 77 56
f 56 77 78
f 57 79 58
f 57 61 79
f 58 79 80
f 58 80 103
f 58 103 81
f 58 81 62
f 58 62 59
f 61 82 79
f 62 81 63
f 63 81 83
f 63 83 84
f 63 84 85
f 63 85 64
f 64 85 86
f 64 86 65
f 65 86 87
f 65 87 66
f 66 87 88
f 67 89 112
f 67 112 90
f 67 90 68
f 67 71 94
f 67 94 89
f 69 70 91
f 70 76 92
f 70 92 93
f 70 93 91
f 71 91 113
f 71 113 94
f 73 95 74
f 73 96 95
f 74 95 97
f 74 97 75
f 75 97 76
f 76 97 98
f 76 98 92
f 77 99 100
f 77 100 78
f 79 82 105
f 79 105 101
f 79 101 102
f 79 102 80
f 80 102 123
f 80 123 103
f 81 103 104
f 81 104 83
f 83 104 84
f 84 104 106
f 84 106 107
f 84 107 108
f 84 108 98
f 84 98 85
f 85 98 97
f 85 97 86
f 86 97 95
f 86 95 87
f 87 95 88
f 88 95 109
f 89 94 116
f 89 116 110
f 89 110 111
f 89 111 112
f 91 93 115
f 91 115 113
f 92 98 108
f 92 108 107
f 92 107 114
f 92 114 93
f 93 114 134
f 93 134 115
f 94 113 133
f 94 133 116
f 95 96 109
f 99 117 118
f 99 118 100
f 101 105 119
f 101 119 120
f 101 120 121
f 101 121 122
f 101 122 102
f 102 122 143
f 102 143 123
f 103 123 124
f 103 124 104
f 104 124 125
f 104 125 106
f 106 125 126
f 106 126 107
f 107 126 134
f 107 134 114
f 110 127 128
f 110 128 129
f 110 129 111
f 110 116 130
f 110 130 131
f 110 131 127
f 113 115 132
f 113 132 133
f 115 134 135
f 115 135 132
f 116 133 136
f 116 136 130
f 117 137 156
f 117 156 174
f 117 174 190
f 117 190 198
f 117 198 201
f 117 201 200
f 117 200 205
f 117 205 204
f 117 204 203
f 117 203 191
f 117 191 175
f 117 175 157
f 117 157 138
f 117 138 118
f 120 139 140
f 120 140 121
f 121 140 122
f 122 140 141
f 122 141 142
f 122 142 143
f 123 143 124
f 124 143 144
f 124 144 145
f 124 145 125
f 125 145 126
f 126 145 146
f 126 146 135
f 126 135 134
f 127 131 147
f 127 147 148
f 130 149 147
f 130 147 131
f 130 136 150
f 130 150 149
f 132 135 151
f 132 151 152
f 132 152 136
f 132 136 133
f 135 146 153
f 135 153 151
f 136 152 150
f 137 154 155
f 137 155 156
f 139 158 140
f 140 159 160
f 140 160 141
f 140 158 159
f 141 160 142
f 142 160 161
f 142 161 162
f 142 162 143
f 143 162 144
f 144 162 145
f 145 162 163
f 145 163 153
f 145 153 146
f 147 164 165
f 147 165 148
f 147 149 164
f 149 166 164
f 149 150 166
f 150 152 167
f 150 167 168
f 150 168 169
f 150 169 166
f 151 153 170
f 151 170 171
f 151 171 152
f 152 171 167
f 153 163 170
f 154 164 155
f 154 172 164
f 155 164 173
f 155 173 156
f 156 173 174
f 157 175 176
f 158 177 159
f 159 178 179
f 159 179 160
f 159 177 180
f 159 180 178
f 160 179 161
f 161 181 182
f 161 182 162
f 161 179 181
f 162 182 163
f 163 182 183
f 163 183 170
f 164 172 184
f 164 184 165
f 164 166 173
f 166 169 185
f 166 185 173
f 167 171 168
f 168 171 186
f 168 186 187
f 168 187 188
f 168 188 185
f 168 185 169
f 170 189 186
f 170 186 171
f 170 183 189
f 173 185 174
f 174 185 190
f 175 191 192
f 175 192 193
f 175 193 176
f 176 193 178
f 176 178 180
f 178 193 179
f 179 193 192
f 179 192 181
f 181 192 194
f 181 194 195
f 181 195 196
f 181 196 182
f 182 196 183
f 183 196 197
f 183 197 189
f 185 188 198
f 185 198 190
f 186 189 187
f 187 189 199
f 187 199 200
f 187 200 201
f 187 201 198
f 187 198 188
f 189 197 202
f 189 202 199
f 191 203 192
f 192 203 194
f 194 203 195
f 195 203 204
f 195 204 205
f 195 205 202
f 195 202 196
f 196 202 197
f 199 202 205
f 199 205 200

