# https://github.com/mikedh/trimesh
v 0.00499825 -0.00198591 0.43500495
v 0.01499635 -0.00287415 0.43500495
v 0.01499635 -0.00297744 0.42500725
v 0.00499825 -0.00221314 0.42500725
v -0.00499985 -0.00215116 0.43500495
v -0.00499985 -0.00301875 0.48499355
v 0.00499825 -0.00289481 0.48499355
v 0.01499635 -0.00380372 0.48499355
v 0.02499445 -0.00531166 0.48499355
v 0.02499445 -0.00454736 0.43500495
v 0.02499445 -0.00432013 0.41500074
v 0.01499635 -0.00322532 0.41500074
v 0.00499825 -0.00258496 0.41500074
v -0.02499605 -0.00471261 0.41500074
v -0.01499795 -0.00345255 0.43500495
v -0.01499795 -0.00454736 0.48499355
v -0.01499795 -0.00508443 0.49499124
v -0.00499985 -0.00378305 0.49499124
v 0.00499825 -0.00367977 0.49499124
v 0.01499635 -0.00452670 0.49499124
v 0.02499445 -0.00615859 0.49499124
v 0.03348145 -0.00869939 0.49499124
v 0.03426805 -0.00828625 0.48499355
v 0.03499255 -0.00628253 0.41500074
v -0.03547024 -0.00702618 0.41500074
v -0.02499605 -0.00611728 0.48499355
v -0.02499605 -0.00681961 0.49499124
v -0.02499605 -0.00874070 0.50141585
v -0.01499795 -0.00776982 0.50223434
v -0.00499985 -0.00725341 0.50251591
v 0.00499825 -0.00721209 0.50254232
v 0.01499635 -0.00760457 0.50231349
v 0.02499445 -0.00847216 0.50162703
v 0.03184615 -0.00940172 0.50074697
v 0.03849085 -0.01068244 0.49499124
v 0.03927745 -0.01033127 0.48499355
v 0.04132675 -0.00878201 0.41500074
v -0.04435055 -0.01159135 0.41500074
v -0.04039685 -0.00981485 0.43138784
v -0.04499225 -0.01357440 0.48499355
v -0.03348305 -0.00845150 0.48499355
v -0.03263434 -0.00890595 0.49499124
v -0.03122675 -0.00956697 0.50055337
v -0.04499225 -0.01754051 0.50202310
v -0.03472504 -0.01456593 0.50249833
v -0.02499605 -0.01502038 0.50415289
v -0.01499795 -0.01502038 0.50482178
v -0.00499985 -0.01502038 0.50490975
v 0.00499825 -0.01502038 0.50490093
v 0.01499635 -0.01502038 0.50486577
v 0.02499445 -0.01502038 0.50434649
v 0.03509605 -0.01442133 0.50263917
v 0.04499065 -0.01710672 0.50226068
v 0.05202865 -0.01880059 0.50119579
v 0.04499065 -0.01365703 0.49499124
v 0.04499065 -0.01301666 0.48499355
v 0.05447125 -0.01770577 0.48499355
v 0.05678965 -0.01648702 0.41500074
v -0.05530084 -0.01735460 0.41500074
v -0.05356205 -0.01782971 0.48499355
v -0.04499225 -0.01435936 0.49499124
v -0.03764375 -0.01109558 0.49499124
v -0.05138854 -0.01911043 0.50090539
v -0.05482474 -0.02483238 0.50257754
v -0.04499225 -0.02501830 0.50454015
v -0.05499034 -0.03501621 0.50466335
v -0.07498655 -0.05501204 0.50471616
v -0.08498465 -0.07500786 0.50482178
v 0.09498115 -0.10500161 0.50485694
v 0.04499065 -0.02501830 0.50468093
v 0.05521645 -0.02456384 0.50285035
v 0.06318595 -0.02760040 0.50172389
v 0.06985135 -0.03014119 0.49926844
v 0.05873545 -0.02086627 0.49499124
v 0.05374675 -0.01797431 0.49499124
v 0.05948065 -0.02032919 0.48499355
v 0.06107455 -0.01890387 0.41500074
v -0.05933734 -0.02045313 0.43500495
v -0.05855075 -0.02099021 0.48499355
v -0.06567154 -0.02431596 0.41500074
v -0.05279614 -0.01826350 0.49499124
v -0.05780555 -0.02154794 0.49499124
v -0.06248374 -0.02803420 0.50155663
v -0.06548525 -0.03447913 0.50302637
v -0.07546265 -0.04464230 0.50295597
v -0.08498465 -0.06500995 0.50423211
v -0.09498274 -0.09500369 0.50381845
v -0.09498274 -0.10500161 0.50420570
v -0.08498465 -0.14499326 0.50468975
v -0.02499605 -0.19498283 0.50469851
v 0.03499255 -0.19498283 0.50472492
v 0.08498305 -0.14499326 0.50477773
v 0.09498115 -0.11499952 0.50479537
v 0.10216405 -0.10500161 0.50219911
v 0.09498115 -0.09500369 0.50464571
v 0.08498305 -0.06500995 0.50460172
v 0.07589575 -0.04412588 0.50318480
v 0.06591835 -0.03408665 0.50318480
v 0.07316335 -0.03679270 0.50178546
v 0.07982875 -0.04020108 0.49907482
v 0.07510915 -0.03487161 0.49583614
v 0.07038955 -0.02968674 0.49260622
v 0.06591835 -0.02650559 0.49556330
v 0.06496615 -0.02185780 0.41500074
v 0.06498685 -0.02477041 0.48499355
v -0.06442954 -0.02600982 0.48499355
v -0.06403624 -0.02654690 0.49499124
v -0.06697565 -0.02549340 0.41500074
v -0.06904565 -0.03088484 0.49499124
v -0.07244045 -0.03745372 0.50167108
v -0.08165194 -0.04772017 0.50143343
v -0.08498465 -0.05563174 0.50221670
v -0.09160864 -0.06500995 0.50152147
v -0.09343024 -0.07500786 0.50257754
v -0.10086154 -0.09500369 0.50107259
v -0.10125484 -0.10500161 0.50146866
v -0.09498274 -0.11499952 0.50407368
v -0.08558495 -0.15536299 0.50288558
v -0.07498655 -0.16498908 0.50437289
v -0.06498844 -0.17498700 0.50448734
v -0.03499414 -0.19498283 0.50460172
v -0.09498274 -0.12499744 0.50336963
v -0.09260225 -0.14499326 0.50223434
v -0.00499985 -0.20498075 0.50331682
v 0.00499825 -0.20498075 0.50339603
v 0.02499445 -0.20390660 0.50270075
v 0.03499255 -0.20250192 0.50224310
v 0.04550815 -0.19568518 0.50291198
v 0.05498875 -0.18498492 0.50451374
v 0.06498685 -0.17498700 0.50465453
v 0.07498495 -0.16498908 0.50460172
v 0.08498305 -0.15499118 0.50400329
v 0.09498115 -0.12499744 0.50436413
v 0.10203985 -0.11499952 0.50211108
v 0.10183285 -0.09500369 0.50194389
v 0.10493785 -0.10500161 0.49499124
v 0.09498115 -0.08500578 0.50387126
v 0.09249715 -0.06500995 0.50211990
v 0.08535565 -0.05497072 0.50273597
v 0.08227135 -0.04685258 0.50169748
v 0.09096535 -0.05825516 0.50103742
v 0.08866765 -0.05201679 0.49499124
v 0.08314075 -0.04412588 0.49544010
v 0.08032555 -0.03960203 0.49241263
v 0.07063795 -0.02945951 0.48499355
v 0.07564735 -0.03435519 0.48499355
v 0.07185925 -0.02817879 0.41500074
v -0.07407574 -0.03191768 0.41500074
v -0.06941824 -0.03053367 0.48499355
v -0.07397225 -0.03588380 0.49499124
v -0.07896095 -0.04123392 0.49499124
v -0.08274905 -0.04623288 0.49499124
v -0.09036665 -0.05937063 0.50042135
v -0.10036474 -0.08831087 0.50048298
v -0.10309714 -0.10500161 0.49499124
v -0.10110994 -0.11499952 0.50132781
v -0.08239714 -0.16498908 0.50177670
v -0.09113254 -0.15228513 0.50118703
v -0.07459325 -0.17440861 0.50197029
v -0.06434675 -0.18459244 0.50191748
v -0.05499034 -0.18498492 0.50432891
v -0.04509575 -0.19545794 0.50274473
v -0.03499414 -0.20219207 0.50202310
v -0.02499605 -0.20365870 0.50266552
v -0.09539674 -0.13412777 0.50221670
v -0.10048895 -0.12499744 0.50062376
v -0.10005424 -0.13020296 0.50007808
v -0.01470815 -0.20570374 0.50234872
v -0.00499985 -0.21043415 0.50057095
v 0.00499825 -0.21049613 0.50065017
v 0.01512055 -0.20580703 0.50241035
v 0.01189135 -0.21024825 0.50035095
v 0.04252735 -0.20113859 0.50121343
v 0.05498875 -0.19277255 0.50204068
v 0.06471775 -0.18492295 0.50240153
v 0.07496425 -0.17486307 0.50251591
v 0.08473465 -0.16410086 0.50183827
v 0.09140005 -0.15499118 0.50127500
v 0.09359425 -0.14499326 0.50254232
v 0.10143955 -0.12499744 0.50163585
v 0.10468945 -0.11499952 0.49499124
v 0.10429615 -0.09500369 0.49499124
v 0.10098415 -0.08500578 0.50112540
v 0.10564165 -0.10500161 0.48499355
v 0.09541585 -0.07548297 0.50238395
v 0.10025965 -0.07913923 0.50035971
v 0.09558145 -0.06500995 0.49499124
v 0.09168985 -0.05701575 0.49499124
v 0.08897815 -0.05160366 0.48499355
v 0.08454835 -0.04501412 0.48499355
v 0.08055325 -0.03935415 0.48499355
v 0.07686865 -0.03317775 0.41500074
v -0.07612504 -0.03383877 0.41500074
v -0.07432415 -0.03553263 0.48499355
v -0.07931285 -0.04084144 0.48499355
v -0.08303884 -0.04584040 0.48499355
v -0.08802754 -0.05271913 0.48499355
v -0.08773775 -0.05340080 0.49499124
v -0.09100834 -0.05839976 0.49499124
v -0.09394775 -0.06500995 0.49499124
v -0.09752885 -0.07500786 0.49499124
v -0.10073734 -0.08630716 0.49499124
v -0.10210355 -0.09500369 0.49499124
v -0.09957814 -0.08130820 0.49499124
v -0.10286944 -0.11499952 0.49499124
v -0.10373884 -0.10500161 0.48499355
v -0.10357324 -0.11499952 0.48499355
v -0.08055484 -0.17069039 0.50057095
v -0.09597635 -0.14499326 0.49499124
v -0.09193984 -0.15383440 0.49499124
v -0.08929025 -0.15883335 0.49499124
v -0.07099144 -0.18097749 0.50088781
v -0.06057934 -0.19043833 0.50047415
v -0.05499034 -0.19217351 0.50168866
v -0.04184585 -0.20087004 0.50097579
v -0.01120985 -0.21016562 0.50025415
v -0.10150325 -0.12499744 0.49499124
v -0.10034405 -0.13171092 0.49499124
v -0.09903994 -0.13673052 0.49499124
v -0.00499985 -0.21148765 0.49499124
v 0.00499825 -0.21157029 0.49499124
v 0.01512055 -0.21045482 0.49427837
v 0.01855675 -0.20966986 0.49712986
v 0.04550815 -0.20179960 0.49484164
v 0.04919275 -0.19948602 0.49807152
v 0.06119875 -0.19087213 0.50089657
v 0.03499255 -0.20564178 0.49499124
v 0.07161085 -0.18155588 0.50127500
v 0.08121565 -0.17145468 0.50109899
v 0.09011665 -0.16017604 0.50013089
v 0.09970075 -0.13931262 0.49898681
v 0.10069435 -0.13264047 0.50084376
v 0.10537255 -0.11499952 0.48499355
v 0.10330255 -0.12499744 0.49499124
v 0.10497925 -0.09500369 0.48499355
v 0.10257805 -0.08500578 0.49499124
v 0.10624195 -0.11499952 0.43500495
v 0.10646965 -0.10500161 0.43500495
v 0.10584865 -0.09500369 0.43500495
v 0.10059085 -0.07800311 0.49499124
v 0.09889345 -0.07300415 0.49499124
v 0.09622315 -0.06500995 0.48499355
v 0.09928675 -0.07219853 0.48499355
v 0.09191755 -0.05660261 0.48499355
v 0.09088255 -0.04916615 0.41500074
v 0.08779825 -0.04507609 0.41500074
v 0.08177455 -0.03819736 0.41500074
v -0.07776035 -0.03573920 0.41500074
v -0.08034784 -0.03958137 0.43222392
v -0.09150514 -0.05771808 0.48499355
v -0.09475505 -0.06500995 0.48499355
v -0.09997144 -0.08011010 0.48824102
v -0.10077874 -0.08405557 0.48494074
v -0.10253824 -0.09500369 0.48499355
v -0.10427704 -0.09500369 0.41500074
v -0.10473245 -0.10500161 0.43500495
v -0.10500155 -0.11499952 0.41500074
v -0.10320064 -0.08434476 0.41500074
v -0.10413215 -0.12499744 0.41500074
v -0.10208284 -0.12499744 0.48499355
v -0.08560564 -0.16498908 0.49499124
v -0.08130004 -0.17153731 0.49499124
v -0.07695305 -0.17653626 0.49499124
v -0.09961955 -0.13827980 0.48499355
v -0.09682504 -0.14499326 0.48499355
v -0.09218825 -0.15430951 0.48499355
v -0.08962145 -0.15930846 0.48499355
v -0.08643364 -0.16498908 0.48499355
v -0.07194364 -0.18192771 0.49499124
v -0.06639604 -0.18692666 0.49499124
v -0.06140735 -0.19114065 0.49499124
v -0.05499034 -0.19510677 0.49499124
v -0.04815935 -0.19896960 0.49499124
v -0.04317065 -0.20153105 0.49499124
v -0.03499414 -0.20508403 0.49499124
v -0.02499605 -0.20818256 0.49499124
v -0.01826855 -0.20960788 0.49499124
v -0.01327985 -0.21047547 0.49499124
v -0.10065454 -0.13328083 0.48499355
v -0.00499985 -0.21212801 0.48499355
v 0.00499825 -0.21216933 0.48499355
v 0.02012995 -0.21002102 0.49045885
v 0.02408365 -0.20867833 0.49427837
v 0.04499065 -0.20281178 0.48499355
v 0.05039335 -0.20025033 0.49140051
v 0.05422285 -0.19708984 0.49484164
v 0.06227515 -0.19173971 0.49499124
v 0.06726385 -0.18758768 0.49499124
v 0.03499255 -0.20634410 0.48499355
v 0.07268725 -0.18258873 0.49499124
v 0.07769665 -0.17750713 0.49499124
v 0.08222995 -0.17250818 0.49499124
v 0.08723935 -0.16587734 0.49499124
v 0.09050995 -0.16087838 0.49499124
v 0.09340795 -0.15499118 0.49499124
v 0.10040455 -0.14084125 0.49232459
v 0.10123255 -0.13557374 0.49538729
v 0.10375795 -0.12499744 0.48499355
v 0.10566235 -0.12499744 0.41500074
v 0.10210195 -0.13499536 0.48499355
v 0.10512415 -0.08500578 0.41500074
v 0.10324045 -0.08500578 0.48499355
v 0.10617985 -0.11499952 0.41500074
v 0.10560025 -0.09500369 0.41500074
v 0.09330445 -0.05358671 0.41500074
v 0.10013545 -0.06967840 0.43112382
v 0.10255735 -0.07504918 0.41500074
v -0.08308025 -0.04296909 0.41500074
v -0.08875205 -0.05181022 0.43500495
v -0.09189844 -0.05682984 0.43500495
v -0.09576935 -0.06500995 0.43500495
v -0.09885364 -0.07335532 0.43500495
v -0.10493945 -0.10500161 0.41500074
v -0.09502415 -0.06500995 0.41500074
v -0.10202074 -0.13491273 0.41500953
v -0.10202074 -0.13491273 0.41500074
v -0.08179685 -0.17207439 0.48499355
v -0.07742915 -0.17707334 0.48499355
v -0.10007495 -0.14024219 0.43209189
v -0.09305764 -0.15660241 0.41500074
v -0.09044944 -0.16075444 0.43305120
v -0.06697565 -0.18742242 0.48499355
v -0.07244045 -0.18242347 0.48499355
v -0.06198695 -0.19163643 0.48499355
v -0.05499034 -0.19593304 0.48499355
v -0.04861474 -0.19927946 0.48499355
v -0.04362604 -0.20175828 0.48499355
v -0.03499414 -0.20582768 0.48499355
v -0.02402315 -0.20923606 0.48450068
v -0.01982105 -0.20995906 0.48750177
v -0.00499985 -0.21289232 0.43500495
v 0.00499825 -0.21299560 0.43500495
v -0.01499795 -0.21167356 0.43500495
v 0.01499635 -0.21190080 0.43500495
v 0.02261395 -0.21059942 0.43500495
v 0.02530495 -0.20892620 0.48499355
v 0.04499065 -0.20353477 0.43500495
v 0.05064175 -0.20039493 0.48499355
v 0.03499255 -0.20725301 0.43500495
v 0.05563045 -0.19715181 0.48499355
v 0.06275125 -0.19215286 0.48499355
v 0.06776065 -0.18787688 0.48499355
v 0.02760265 -0.20942196 0.43500495
v 0.07299775 -0.18287793 0.48499355
v 0.07798645 -0.17787898 0.48499355
v 0.08268535 -0.17288001 0.48499355
v 0.08767405 -0.16651770 0.48499355
v 0.09090325 -0.16151874 0.48499355
v 0.09407035 -0.15499118 0.48499355
v 0.10063225 -0.14133701 0.48499355
v 0.10361305 -0.13575965 0.41500074
v 0.10259875 -0.07519378 0.41500074
v -0.08386684 -0.04429113 0.41500074
v -0.09158795 -0.05819319 0.41500074
v -0.10024054 -0.13962248 0.41500074
v -0.10007495 -0.14024219 0.42948687
v -0.08223154 -0.17271475 0.43500495
v -0.07798804 -0.17771371 0.43500495
v -0.09082204 -0.16077510 0.41500074
v -0.08813104 -0.16478252 0.41500074
v -0.06759664 -0.18795951 0.43500495
v -0.07299934 -0.18296054 0.43500495
v -0.06258725 -0.19202891 0.43500495
v -0.05033284 -0.20018837 0.43131742
v -0.03499414 -0.20671593 0.43500495
v -0.02706605 -0.20936000 0.43500495
v -0.02520305 -0.20911211 0.47499582
v -0.02207735 -0.21047547 0.43500495
v -0.01499795 -0.21144634 0.41500074
v -0.00499985 -0.21247917 0.41500074
v 0.00499825 -0.21260312 0.41500074
v 0.01501705 -0.21173555 0.41500074
v 0.01572085 -0.21167356 0.41500074
v 0.02269675 -0.21062008 0.42701384
v 0.04499065 -0.20347279 0.41500074
v 0.05097295 -0.20084938 0.41500074
v 0.05120065 -0.20070478 0.43500495
v 0.05621005 -0.19760627 0.43500495
v 0.03499255 -0.20706709 0.42500725
v 0.06347575 -0.19260730 0.43500495
v 0.06846445 -0.18862052 0.43500495
v 0.07378435 -0.18362157 0.43500495
v 0.07877305 -0.17870525 0.43500495
v 0.08320285 -0.17370629 0.43500495
v 0.08821225 -0.16736463 0.43500495
v 0.09144145 -0.16236567 0.43500495
v 0.09520885 -0.15499118 0.43500495
v 0.09874855 -0.14743078 0.43500495
v 0.10098415 -0.14243181 0.43500495
v 0.09171055 -0.16205582 0.41500074
v -0.08196244 -0.17215702 0.41500074
v -0.07771894 -0.17744517 0.42500725
v -0.06722405 -0.18767032 0.42500725
v -0.06194554 -0.19171906 0.41500074
v -0.07273024 -0.18267135 0.42500725
v -0.05441074 -0.19713116 0.41500074
v -0.05033284 -0.20018837 0.42887962
v -0.04548905 -0.20219207 0.41500074
v -0.03499414 -0.20630279 0.42500725
v -0.02652785 -0.20902950 0.42500725
v -0.02073185 -0.21033087 0.41500074
v -0.03499414 -0.20586899 0.41500074
v 0.02424925 -0.20962854 0.41500074
v 0.02551195 -0.20929803 0.41500074
v 0.03497185 -0.20675725 0.41500074
v 0.05596165 -0.19731706 0.41500074
v 0.06335155 -0.19244204 0.42500725
v 0.06834025 -0.18862052 0.42500725
v 0.07382575 -0.18362157 0.42500725
v 0.07881445 -0.17876720 0.42500725
v 0.08305795 -0.17376825 0.42500725
v 0.08278885 -0.17364430 0.41500074
v -0.07734635 -0.17715597 0.41500074
v -0.06693424 -0.18729848 0.41500074
v -0.07235765 -0.18229952 0.41500074
v -0.04993955 -0.20008507 0.41500074
v 0.06287545 -0.19231811 0.41500074
v 0.06786415 -0.18822804 0.41500074
v 0.07372225 -0.18322909 0.41500074
v 0.07873165 -0.17864327 0.41500074
f 1 2 3
f 1 3 4
f 1 4 5
f 1 5 6
f 1 6 7
f 1 7 2
f 2 7 8
f 2 8 9
f 2 9 10
f 2 10 11
f 2 11 3
f 3 12 4
f 3 11 12
f 4 12 13
f 4 13 5
f 5 13 14
f 5 14 15
f 5 15 6
f 6 15 16
f 6 16 17
f 6 17 18
f 6 18 7
f 7 19 20
f 7 20 8
f 7 18 19
f 8 20 9
f 9 21 22
f 9 22 23
f 9 23 24
f 9 24 10
f 9 20 21
f 10 24 11
f 11 24 37
f 11 37 58
f 11 58 77
f 11 77 104
f 11 104 147
f 11 147 192
f 11 192 247
f 11 247 246
f 11 246 245
f 11 245 305
f 11 305 307
f 11 307 352
f 11 352 301
f 11 301 304
f 11 304 303
f 11 303 299
f 11 299 351
f 11 351 390
f 11 390 412
f 11 412 420
f 11 420 419
f 11 419 418
f 11 418 417
f 11 417 406
f 11 406 376
f 11 376 375
f 11 375 405
f 11 405 404
f 11 404 403
f 11 403 373
f 11 373 372
f 11 372 371
f 11 371 370
f 11 370 369
f 11 369 401
f 11 401 402
f 11 402 398
f 11 398 416
f 11 416 396
f 11 396 394
f 11 394 414
f 11 414 415
f 11 415 413
f 11 413 391
f 11 391 360
f 11 360 359
f 11 359 320
f 11 320 355
f 11 355 316
f 11 316 259
f 11 259 257
f 11 257 313
f 11 313 255
f 11 255 258
f 11 258 314
f 11 314 354
f 11 354 353
f 11 353 308
f 11 308 248
f 11 248 193
f 11 193 148
f 11 148 108
f 11 108 80
f 11 80 59
f 11 59 38
f 11 38 25
f 11 25 14
f 11 14 13
f 11 13 12
f 14 25 26
f 14 26 15
f 15 26 16
f 16 26 17
f 17 26 27
f 17 27 28
f 17 28 18
f 18 28 29
f 18 29 30
f 18 30 19
f 19 31 32
f 19 32 20
f 19 30 31
f 20 32 33
f 20 33 21
f 21 33 34
f 21 34 22
f 22 34 35
f 22 35 23
f 23 35 36
f 23 36 37
f 23 37 24
f 25 38 39
f 25 39 40
f 25 40 41
f 25 41 26
f 26 41 42
f 26 42 27
f 27 42 43
f 27 43 28
f 28 43 44
f 28 44 45
f 28 45 46
f 28 46 29
f 29 47 30
f 29 46 47
f 30 47 48
f 30 48 31
f 31 49 50
f 31 50 32
f 31 48 49
f 32 50 51
f 32 51 33
f 33 51 52
f 33 52 53
f 33 53 34
f 34 53 54
f 34 54 55
f 34 55 35
f 35 55 36
f 36 55 56
f 36 56 37
f 37 56 57
f 37 57 58
f 38 59 39
f 39 59 60
f 39 60 40
f 40 60 61
f 40 61 41
f 41 61 62
f 41 62 42
f 42 62 43
f 43 62 61
f 43 61 63
f 43 63 44
f 44 63 64
f 44 64 65
f 44 65 46
f 44 46 45
f 46 65 47
f 47 65 66
f 47 66 67
f 47 67 48
f 48 67 68
f 48 68 69
f 48 69 49
f 49 69 50
f 50 70 51
f 50 69 70
f 51 70 53
f 51 53 52
f 53 70 71
f 53 71 54
f 54 71 72
f 54 72 73
f 54 73 74
f 54 74 75
f 54 75 55
f 55 75 56
f 56 75 57
f 57 75 76
f 57 76 58
f 58 76 77
f 59 78 79
f 59 79 60
f 59 80 78
f 60 79 81
f 60 81 61
f 61 81 63
f 63 81 82
f 63 82 83
f 63 83 64
f 64 83 84
f 64 84 65
f 65 84 66
f 66 84 67
f 67 84 85
f 67 85 86
f 67 86 68
f 68 86 87
f 68 87 88
f 68 88 89
f 68 89 90
f 68 90 91
f 68 91 69
f 69 92 93
f 69 93 94
f 69 94 95
f 69 95 96
f 69 96 70
f 69 91 92
f 70 96 97
f 70 97 98
f 70 98 71
f 71 98 72
f 72 98 99
f 72 99 73
f 73 99 100
f 73 100 101
f 73 101 102
f 73 102 103
f 73 103 74
f 74 76 75
f 74 103 76
f 76 104 77
f 76 103 102
f 76 102 105
f 76 105 104
f 78 80 79
f 79 106 107
f 79 107 82
f 79 82 81
f 79 80 106
f 80 108 106
f 82 107 83
f 83 107 109
f 83 109 110
f 83 110 84
f 84 110 85
f 85 110 111
f 85 111 112
f 85 112 86
f 86 112 113
f 86 113 114
f 86 114 87
f 87 114 115
f 87 115 116
f 87 116 88
f 88 116 117
f 88 117 89
f 89 118 119
f 89 119 120
f 89 120 121
f 89 121 90
f 89 117 122
f 89 122 123
f 89 123 118
f 90 121 124
f 90 124 125
f 90 125 91
f 91 125 126
f 91 126 127
f 91 127 128
f 91 128 129
f 91 129 130
f 91 130 92
f 92 131 132
f 92 132 133
f 92 133 93
f 92 130 131
f 93 133 134
f 93 134 94
f 94 135 95
f 94 134 136
f 94 136 135
f 95 135 137
f 95 137 96
f 96 137 138
f 96 138 139
f 96 139 97
f 97 99 98
f 97 139 140
f 97 140 99
f 99 140 100
f 100 140 141
f 100 141 142
f 100 142 143
f 100 143 144
f 100 144 101
f 101 144 102
f 102 145 105
f 102 144 146
f 102 146 145
f 104 105 145
f 104 145 147
f 106 108 148
f 106 148 149
f 106 149 109
f 106 109 107
f 109 149 150
f 109 150 110
f 110 150 151
f 110 151 111
f 111 151 152
f 111 152 153
f 111 153 112
f 112 153 113
f 113 153 154
f 113 154 114
f 114 154 115
f 115 154 155
f 115 155 116
f 116 156 117
f 116 155 156
f 117 156 122
f 118 157 119
f 118 123 158
f 118 158 157
f 119 159 120
f 119 157 159
f 120 159 160
f 120 160 161
f 120 161 121
f 121 161 162
f 121 162 163
f 121 163 164
f 121 164 124
f 122 165 123
f 122 156 166
f 122 166 165
f 123 165 166
f 123 166 167
f 123 167 158
f 124 164 168
f 124 168 169
f 124 169 170
f 124 170 125
f 125 170 171
f 125 171 126
f 126 171 172
f 126 172 127
f 127 172 173
f 127 173 128
f 128 173 174
f 128 174 129
f 129 174 175
f 129 175 176
f 129 176 130
f 130 176 131
f 131 176 132
f 132 177 178
f 132 178 179
f 132 179 133
f 132 176 177
f 133 179 180
f 133 180 134
f 134 180 181
f 134 181 136
f 135 136 182
f 135 182 183
f 135 183 137
f 136 181 184
f 136 184 182
f 137 185 138
f 137 183 185
f 138 185 183
f 138 183 186
f 138 186 141
f 138 141 139
f 139 141 140
f 141 186 187
f 141 187 188
f 141 188 142
f 142 188 189
f 142 189 190
f 142 190 144
f 142 144 143
f 144 190 191
f 144 191 146
f 145 146 147
f 146 192 147
f 146 191 192
f 148 193 149
f 149 193 194
f 149 194 150
f 150 194 195
f 150 195 151
f 151 195 152
f 152 195 196
f 152 196 197
f 152 197 198
f 152 198 153
f 153 199 200
f 153 200 201
f 153 201 154
f 153 198 199
f 154 202 203
f 154 203 155
f 154 201 204
f 154 204 202
f 155 205 156
f 155 203 206
f 155 206 207
f 155 207 205
f 156 205 166
f 157 208 159
f 157 158 208
f 158 167 209
f 158 209 210
f 158 210 211
f 158 211 208
f 159 212 160
f 159 208 212
f 160 213 214
f 160 214 161
f 160 212 213
f 161 214 162
f 162 215 163
f 162 214 215
f 163 215 216
f 163 216 164
f 164 216 168
f 166 205 167
f 167 205 217
f 167 217 218
f 167 218 219
f 167 219 209
f 168 216 169
f 169 216 220
f 169 220 221
f 169 221 170
f 170 221 172
f 170 172 171
f 172 221 222
f 172 222 223
f 172 223 173
f 173 224 225
f 173 225 226
f 173 226 174
f 173 223 227
f 173 227 224
f 174 226 175
f 175 226 228
f 175 228 176
f 176 228 229
f 176 229 177
f 177 229 230
f 177 230 178
f 178 230 231
f 178 231 232
f 178 232 179
f 179 232 180
f 180 232 181
f 181 233 184
f 181 232 234
f 181 234 233
f 182 184 235
f 182 235 236
f 182 236 186
f 182 186 183
f 184 237 238
f 184 238 239
f 184 239 235
f 184 233 237
f 186 236 240
f 186 240 241
f 186 241 187
f 187 242 188
f 187 241 243
f 187 243 242
f 188 242 244
f 188 244 245
f 188 245 189
f 189 245 190
f 190 245 191
f 191 245 246
f 191 246 247
f 191 247 192
f 193 248 195
f 193 195 194
f 195 248 249
f 195 249 196
f 196 249 197
f 197 249 250
f 197 250 198
f 198 250 199
f 199 250 251
f 199 251 200
f 200 251 252
f 200 252 201
f 201 252 204
f 202 204 252
f 202 252 253
f 202 253 254
f 202 254 203
f 203 254 206
f 205 207 217
f 206 255 256
f 206 256 257
f 206 257 207
f 206 254 258
f 206 258 255
f 207 257 259
f 207 259 260
f 207 260 217
f 208 211 261
f 208 261 262
f 208 262 263
f 208 263 212
f 209 219 264
f 209 264 265
f 209 265 210
f 210 265 266
f 210 266 267
f 210 267 211
f 211 267 268
f 211 268 261
f 212 263 269
f 212 269 270
f 212 270 213
f 213 270 271
f 213 271 272
f 213 272 273
f 213 273 215
f 213 215 214
f 215 274 275
f 215 275 276
f 215 276 216
f 215 273 274
f 216 276 277
f 216 277 278
f 216 278 220
f 217 260 279
f 217 279 218
f 218 279 264
f 218 264 219
f 220 278 280
f 220 280 221
f 221 281 222
f 221 280 281
f 222 282 223
f 222 281 282
f 223 282 283
f 223 283 227
f 224 284 285
f 224 285 225
f 224 227 284
f 225 285 286
f 225 286 226
f 226 287 288
f 226 288 228
f 226 286 287
f 227 283 289
f 227 289 284
f 228 288 290
f 228 290 291
f 228 291 229
f 229 292 230
f 229 291 292
f 230 293 294
f 230 294 295
f 230 295 296
f 230 296 231
f 230 292 293
f 231 296 297
f 231 297 232
f 232 297 234
f 233 234 298
f 233 298 299
f 233 299 237
f 234 297 300
f 234 300 298
f 235 239 301
f 235 301 302
f 235 302 236
f 236 302 240
f 237 299 303
f 237 303 238
f 238 303 304
f 238 304 301
f 238 301 239
f 240 243 241
f 240 302 243
f 242 305 244
f 242 243 306
f 242 306 305
f 243 302 307
f 243 307 306
f 244 305 245
f 248 308 249
f 249 308 309
f 249 309 250
f 250 309 310
f 250 310 311
f 250 311 251
f 251 311 312
f 251 312 258
f 251 258 252
f 252 258 253
f 253 258 254
f 255 313 256
f 256 313 257
f 258 312 311
f 258 311 314
f 259 315 264
f 259 264 279
f 259 279 260
f 259 316 315
f 261 268 317
f 261 317 262
f 262 317 263
f 263 318 269
f 263 317 318
f 264 315 319
f 264 319 265
f 265 320 266
f 265 319 320
f 266 320 321
f 266 321 267
f 267 321 268
f 268 321 317
f 269 322 270
f 269 318 323
f 269 323 322
f 270 322 324
f 270 324 271
f 271 324 272
f 272 324 325
f 272 325 273
f 273 326 274
f 273 325 326
f 274 327 328
f 274 328 275
f 274 326 327
f 275 328 276
f 276 329 330
f 276 330 277
f 276 328 329
f 277 330 278
f 278 330 280
f 280 331 332
f 280 332 281
f 280 330 333
f 280 333 331
f 281 332 334
f 281 334 282
f 282 335 336
f 282 336 289
f 282 289 283
f 282 334 335
f 284 337 338
f 284 338 285
f 284 289 339
f 284 339 337
f 285 338 340
f 285 340 287
f 285 287 286
f 287 340 341
f 287 341 288
f 288 342 290
f 288 341 342
f 289 336 343
f 289 343 339
f 290 342 344
f 290 344 345
f 290 345 291
f 291 345 346
f 291 346 292
f 292 346 347
f 292 347 293
f 293 347 294
f 294 347 348
f 294 348 295
f 295 349 296
f 295 348 349
f 296 349 350
f 296 350 300
f 296 300 297
f 298 300 299
f 299 300 351
f 300 350 351
f 301 352 302
f 302 352 307
f 305 306 307
f 308 353 310
f 308 310 309
f 310 354 314
f 310 314 311
f 310 353 354
f 315 316 356
f 315 356 319
f 316 355 356
f 317 357 358
f 317 358 318
f 317 321 359
f 317 359 360
f 317 360 357
f 318 358 323
f 319 356 320
f 320 359 321
f 320 356 355
f 322 323 361
f 322 361 324
f 323 358 362
f 323 362 361
f 324 363 364
f 324 364 325
f 324 361 363
f 325 364 326
f 326 364 327
f 327 364 328
f 328 365 366
f 328 366 367
f 328 367 329
f 328 364 365
f 329 368 330
f 329 367 366
f 329 366 368
f 330 368 333
f 331 369 370
f 331 370 371
f 331 371 332
f 331 333 369
f 332 371 372
f 332 372 373
f 332 373 334
f 333 368 369
f 334 374 335
f 334 373 374
f 335 374 343
f 335 343 336
f 337 375 376
f 337 376 377
f 337 377 338
f 337 339 375
f 338 377 378
f 338 378 340
f 339 379 375
f 339 343 379
f 340 378 380
f 340 380 341
f 341 380 381
f 341 381 342
f 342 381 382
f 342 382 344
f 343 374 379
f 344 382 383
f 344 383 345
f 345 383 346
f 346 384 385
f 346 385 347
f 346 383 384
f 347 385 386
f 347 386 348
f 348 386 387
f 348 387 349
f 349 387 350
f 350 387 388
f 350 388 389
f 350 389 351
f 351 389 388
f 351 388 390
f 357 391 358
f 357 360 391
f 358 391 392
f 358 392 362
f 361 393 394
f 361 394 363
f 361 362 395
f 361 395 393
f 362 392 395
f 363 394 396
f 363 396 397
f 363 397 364
f 364 397 365
f 365 398 399
f 365 399 366
f 365 397 398
f 366 400 401
f 366 401 368
f 366 399 402
f 366 402 400
f 368 401 369
f 373 403 374
f 374 403 404
f 374 404 405
f 374 405 379
f 375 379 405
f 376 378 377
f 376 406 407
f 376 407 380
f 376 380 378
f 380 407 408
f 380 408 381
f 381 408 409
f 381 409 382
f 382 409 410
f 382 410 383
f 383 410 384
f 384 410 411
f 384 411 385
f 385 390 386
f 385 411 390
f 386 390 387
f 387 390 388
f 390 411 412
f 391 413 392
f 392 413 395
f 393 395 414
f 393 414 394
f 395 413 415
f 395 415 414
f 396 416 397
f 397 416 398
f 398 402 399
f 400 402 401
f 406 417 407
f 407 417 408
f 408 418 419
f 408 419 409
f 408 417 418
f 409 419 420
f 409 420 410
f 410 420 411
f 411 420 412

