# https://github.com/mikedh/trimesh
v -0.22428179 0.04496487 0.22500858
v -0.22406217 0.04496487 0.23501453
v -0.22419395 0.05498499 0.22500858
v -0.22265671 0.02746307 0.16749245
v -0.22270063 0.01748749 0.16749245
v -0.22270063 0.01499359 0.16749245
v -0.22265671 0.00497348 0.16749245
v -0.22419395 0.02496917 0.22500858
v -0.22406217 0.03498929 0.23501453
v -0.22362296 0.04496487 0.24502049
v -0.22397433 0.05498499 0.23501453
v -0.19454738 0.17495918 0.37497687
v -0.22208574 0.06393629 0.22500858
v -0.22019714 0.07083904 0.16749245
v -0.22072420 0.06683099 0.16749245
v -0.22089988 0.06513871 0.16749245
v -0.22164653 0.05752342 0.16749245
v -0.22186613 0.05498499 0.16749245
v -0.22239318 0.04496487 0.16749245
v -0.22256887 0.03498929 0.16749245
v -0.22243711 -0.02499780 0.16749245
v -0.22401826 0.01499359 0.22500858
v -0.22397433 0.02496917 0.23501453
v -0.22362296 0.03498929 0.24502049
v -0.22287631 0.04496487 0.25500223
v -0.22349121 0.05498499 0.24502049
v -0.19402035 0.17495918 0.38498285
v -0.19055060 0.19067961 0.39099127
v -0.19182430 0.18578091 0.38437715
v -0.21927480 0.07417908 0.16749245
v -0.19055060 0.19067961 0.38730869
v -0.22226143 -0.03497339 0.16749245
v -0.22379865 0.01499359 0.23501453
v -0.22371081 0.00497348 0.22500858
v -0.22353512 0.02496917 0.24502049
v -0.22283240 0.02496917 0.25500223
v -0.22287631 0.03498929 0.25500223
v -0.22195397 0.04496487 0.26500818
v -0.22274455 0.05498499 0.25500223
v -0.19173646 0.17495918 0.39256606
v -0.19129725 0.18497929 0.39200884
v -0.22002146 0.06006185 0.28024730
v -0.21694700 0.05498499 0.30498359
v -0.21549761 0.05498499 0.31498957
v -0.21382862 0.05498499 0.32499552
v -0.21215963 0.05498499 0.33497727
v -0.21066633 0.05498499 0.34326306
v -0.20592289 0.05498499 0.36499515
v -0.20355116 0.05498499 0.37497687
v -0.20113552 0.05498499 0.38401374
v -0.19968612 0.05498499 0.38902885
v -0.18497266 0.19174844 0.39244491
v -0.17495871 0.19566742 0.38498285
v -0.18585107 0.19259459 0.38437715
v -0.18497266 0.18497929 0.39576408
v -0.21887952 0.07560416 0.16749245
v -0.09177269 0.22082904 0.16749245
v -0.09677966 0.21824607 0.16749245
v -0.10450973 0.21325830 0.16749245
v -0.10824300 0.21054173 0.16749245
v -0.10947277 0.20960650 0.16749245
v -0.11083432 0.20853770 0.16749245
v -0.11641227 0.20390618 0.16749245
v -0.12054082 0.20047706 0.16749245
v -0.12554780 0.19606823 0.16749245
v -0.12695326 0.19482127 0.16749245
v -0.13121358 0.19103590 0.16749245
v -0.13617663 0.18653798 0.16749245
v -0.13753818 0.18529102 0.16749245
v -0.14157890 0.18155017 0.16749245
v -0.14658587 0.17651787 0.16749245
v -0.15528218 0.16774470 0.16749245
v -0.16143110 0.16146541 0.16749245
v -0.16520829 0.15741283 0.16749245
v -0.16643807 0.15607682 0.16749245
v -0.17087407 0.15104449 0.16749245
v -0.17592497 0.14476523 0.16749245
v -0.18071234 0.13875315 0.16749245
v -0.18365502 0.13505685 0.16749245
v -0.18738830 0.13029173 0.16749245
v -0.18883769 0.12842131 0.16749245
v -0.19235136 0.12343352 0.16749245
v -0.19612855 0.11791132 0.16749245
v -0.20074022 0.11109763 0.16749245
v -0.20469309 0.10499650 0.16749245
v -0.20794325 0.09987511 0.16749245
v -0.20895341 0.09822735 0.16749245
v -0.21185219 0.09323956 0.16749245
v -0.21479489 0.08704936 0.16749245
v -0.21571723 0.08495627 0.16749245
v -0.21808894 0.07827619 0.16749245
v -0.22191006 -0.04499350 0.16749245
v -0.22335945 0.01499359 0.24502049
v -0.22309592 -0.00495757 0.23501453
v -0.22243711 -0.01497769 0.24502049
v -0.22010930 -0.08186753 0.16749245
v -0.22261278 0.01499359 0.25500223
v -0.22089988 0.02496917 0.27501416
v -0.22195397 0.03498929 0.26500818
v -0.22094379 0.04496487 0.27501416
v -0.22177829 0.05498499 0.26500818
v -0.19749008 0.05498499 0.39498881
v -0.19279055 0.05498499 0.40228128
v -0.18497266 0.17495918 0.39668474
v -0.22076811 0.05498499 0.27501416
v -0.22010930 0.05498499 0.28097412
v -0.21721053 0.04496487 0.30498359
v -0.21576114 0.04496487 0.31498957
v -0.21246709 0.04496487 0.33497727
v -0.21079808 0.04496487 0.34398991
v -0.20974399 0.04496487 0.34898075
v -0.20627424 0.04496487 0.36499515
v -0.20390253 0.04496487 0.37497687
v -0.20131120 0.04496487 0.38474056
v -0.19990572 0.04496487 0.38973144
v -0.19801714 0.04496487 0.39498881
v -0.17495871 0.19255003 0.39343825
v -0.17495871 0.18497929 0.39755693
v -0.17495871 0.19629088 0.37497687
v -0.16498868 0.19589007 0.38498285
v -0.08496496 0.21793434 0.24502049
v -0.08149522 0.22007197 0.23060513
v -0.09497891 0.21753353 0.24502049
v -0.08487713 0.22051731 0.22539622
v -0.09497891 0.21864688 0.23501453
v -0.08496496 0.22163066 0.21500260
v -0.09115780 0.22020558 0.22229508
v -0.09216797 0.22056183 0.21500260
v -0.17495871 0.19611275 0.36499515
v -0.16094796 0.20043254 0.33497727
v -0.08667788 0.22265494 0.16749245
v -0.22147085 -0.02499780 0.25500223
v -0.22006539 -0.08111046 0.17146575
v -0.22028498 -0.04134173 0.26268235
v -0.21980186 -0.08667719 0.16749245
v -0.22164653 0.01499359 0.26500818
v -0.22041675 -0.03497339 0.26399064
v -0.22006539 0.01704215 0.28085300
v -0.22015323 0.02496917 0.28150713
v -0.22019714 0.03498929 0.28174940
v -0.22094379 0.03498929 0.27501416
v -0.21901128 -0.04499350 0.27501416
v -0.22019714 0.04496487 0.28167671
v -0.19309801 0.04496487 0.40257204
v -0.18497266 0.04496487 0.40574583
v -0.18497266 0.05498499 0.40521282
v -0.21721053 0.03498929 0.30498359
v -0.21576114 0.03498929 0.31498957
v -0.21413608 0.03498929 0.32499552
v -0.21246709 0.03498929 0.33497727
v -0.21084201 0.03498929 0.34408680
v -0.20978792 0.03498929 0.34907767
v -0.20851421 0.03498929 0.35498917
v -0.20631817 0.03498929 0.36499515
v -0.20399037 0.03498929 0.37497687
v -0.20135511 0.03498929 0.38486171
v -0.19994965 0.03498929 0.38985258
v -0.19810498 0.03498929 0.39498881
v -0.19314192 0.03498929 0.40264469
v -0.16498868 0.18497929 0.39762962
v -0.16498868 0.19255003 0.39346248
v -0.14496079 0.19593462 0.38498285
v -0.17495871 0.17495918 0.39825952
v -0.07978231 0.05983918 0.40998563
v -0.07315026 0.06023998 0.41010678
v -0.04499703 0.05498499 0.41102743
v -0.00498516 0.05498499 0.41168156
v -0.09251934 0.22082904 0.20502087
v -0.08496496 0.22318932 0.17500298
v -0.08496496 0.22323388 0.16749245
v -0.13499077 0.19994268 0.35966510
v -0.12497683 0.20542032 0.32499552
v -0.09497891 0.21481696 0.26500818
v -0.10499285 0.21045265 0.29303944
v -0.06498099 0.21935943 0.23591095
v -0.07499494 0.21935943 0.23588672
v -0.07499494 0.22011650 0.23089585
v -0.07499494 0.22096264 0.22500858
v -0.07499494 0.22225413 0.21500260
v -0.07499494 0.22341201 0.20502087
v -0.07499494 0.22425815 0.19501489
v -0.08496496 0.22238773 0.20502087
v -0.08496496 0.22274399 0.19501489
v -0.21971402 -0.08462863 0.17488185
v -0.21457528 -0.08498490 0.30498359
v -0.21857208 -0.09496048 0.16749245
v -0.21844031 -0.09496048 0.17500298
v -0.21044673 -0.11197241 0.32499552
v -0.21295021 -0.09496048 0.31498957
v -0.21716660 0.02496917 0.30498359
v -0.21764974 -0.05496908 0.28502011
v -0.21628819 -0.06498920 0.29497764
v -0.21483880 -0.07496478 0.30498359
v -0.18497266 0.03498929 0.40586698
v -0.17495871 0.04496487 0.40642419
v -0.17495871 0.05498499 0.40596387
v -0.10319210 -0.08431689 0.41500074
v -0.09502283 -0.06498920 0.41500074
v -0.21571723 0.02496917 0.31498957
v -0.21242316 0.02496917 0.33497727
v -0.21079808 0.02496917 0.34391722
v -0.20974399 0.02496917 0.34890807
v -0.20842637 0.02496917 0.35498917
v -0.20623033 0.02496917 0.36499515
v -0.20390253 0.02496917 0.37497687
v -0.20131120 0.02496917 0.38471633
v -0.19990572 0.02496917 0.38970721
v -0.19801714 0.02496917 0.39498881
v -0.19309801 0.02496917 0.40257204
v -0.15497474 0.18497929 0.39765385
v 0.16498838 0.19255003 0.39346248
v -0.10499285 0.18497929 0.39767808
v 0.14496049 0.19593462 0.38498285
v -0.07587335 0.05592020 0.41032481
v -0.06498099 0.05498499 0.41068822
v -0.06563981 -0.02428526 0.41500074
v -0.06480531 -0.02370632 0.41500074
v -0.05531842 -0.01733798 0.41500074
v -0.03546621 -0.00700613 0.41500074
v 0.00498486 0.05498499 0.41165733
v 0.16498838 0.18497929 0.39762962
v 0.15497443 0.18497929 0.39765385
v 0.10499255 0.18497929 0.39767808
v -0.02501306 -0.00469037 0.41500074
v 0.00498486 -0.00255274 0.41500074
v -0.08496496 0.22301120 0.18500894
v -0.07745451 0.22488162 0.16749245
v 0.13499047 0.19994268 0.35966510
v -0.10499285 0.20858222 0.30498359
v 0.10499255 0.21045265 0.29301521
v 0.06498069 0.21935943 0.23591095
v 0.10499255 0.20858222 0.30498359
v 0.07499464 0.22011650 0.23089585
v -0.06498099 0.22243226 0.21500260
v -0.06498099 0.22376826 0.20502087
v -0.06498099 0.22474802 0.19501489
v -0.06498099 0.22541603 0.18500894
v -0.07499494 0.22479254 0.18500894
v -0.07499494 0.22523788 0.17500298
v -0.21659563 -0.10498060 0.16749245
v -0.21650779 -0.10498060 0.17500298
v -0.21624427 -0.10498060 0.18500894
v -0.20034494 -0.16127139 0.36499515
v -0.21005143 -0.11117080 0.33032557
v -0.20008141 -0.16100419 0.37049478
v -0.18497266 0.02496917 0.40577006
v -0.10499285 -0.11495618 0.41500074
v -0.10490501 -0.10498060 0.41500074
v -0.10424620 -0.09496048 0.41500074
v -0.09159701 -0.05817552 0.41500074
v -0.08386695 -0.04423643 0.41500074
v -0.08307637 -0.04294495 0.41500074
v -0.07776195 -0.03568593 0.41500074
v -0.07613688 -0.03381551 0.41500074
v -0.07407260 -0.03185602 0.41500074
v -0.06695743 -0.02544314 0.41500074
v -0.20917302 -0.10498060 0.33567986
v -0.20732835 -0.10498060 0.34498322
v -0.20517623 -0.10498060 0.35498917
v -0.20319979 -0.09496048 0.36499515
v -0.19946653 -0.12497629 0.37776303
v -0.19674343 -0.16496769 0.38498285
v -0.19257095 -0.18496338 0.39438313
v -0.19270271 -0.17498779 0.39472231
v -0.19226351 -0.16456687 0.39595792
v -0.18984786 -0.16768426 0.39993122
v -0.18997963 -0.16100419 0.40000391
v 0.17495841 0.19255003 0.39341402
v 0.16498838 0.19584554 0.38498285
v -0.04433821 -0.01154858 0.41500074
v 0.06902140 0.05961651 0.40996140
v 0.17495841 0.18497929 0.39753270
v 0.01499881 -0.00317622 0.41500074
v 0.02496883 -0.00428956 0.41500074
v 0.03498277 -0.00624905 0.41500074
v -0.07499494 0.22537148 0.16749245
v 0.08079218 0.22007197 0.23060513
v 0.07499464 0.21935943 0.23588672
v 0.06498069 0.22243226 0.21500260
v 0.05496674 0.22376826 0.20502087
v -0.01499911 0.22488162 0.19501489
v -0.05496705 0.22479254 0.19501489
v -0.05496705 0.22554964 0.18500894
v -0.00748865 0.22728646 0.16749245
v -0.01499911 0.22719738 0.16749245
v -0.01745868 0.22715285 0.16749245
v -0.06498099 0.22590590 0.17500298
v -0.06748448 0.22595042 0.16749245
v -0.21365294 -0.11495618 0.16749245
v -0.19520621 -0.18496338 0.38498285
v -0.20917302 -0.11468898 0.33417773
v -0.20706482 -0.11495618 0.34498322
v -0.20021318 -0.15499210 0.37102780
v -0.20425390 -0.13499641 0.35498917
v -0.19639206 -0.17498779 0.38498285
v -0.18589500 -0.16456687 0.40092456
v -0.18435776 -0.17498779 0.40102145
v -0.10411444 -0.12497629 0.41500074
v -0.20491271 -0.11495618 0.35498917
v -0.20293626 -0.10498060 0.36499515
v -0.20267273 -0.11495618 0.36499515
v -0.19907123 -0.15499210 0.37601867
v -0.18848632 -0.18496338 0.39937401
v -0.18932082 -0.17498779 0.39971316
v -0.19134118 -0.19498351 0.39232379
v -0.18347934 -0.18496338 0.40080342
v 0.17495841 0.19544473 0.38498285
v 0.18325944 0.19165936 0.39225110
v 0.07499464 0.05307003 0.41017947
v 0.08189020 0.05111054 0.41005832
v 0.17495841 0.17495918 0.39823529
v 0.04130737 -0.00874295 0.41500074
v 0.05676750 -0.01644731 0.41500074
v 0.18593861 0.18591452 0.39351094
v 0.18497235 0.05498499 0.40492210
v 0.18497235 0.17495918 0.39544913
v 0.08746815 0.21971568 0.22704369
v 0.08448153 0.22029462 0.22423328
v 0.07499464 0.22305572 0.20502087
v 0.06498069 0.22367921 0.20502087
v 0.05496674 0.22479254 0.19501489
v 0.01499881 0.22488162 0.19501489
v -0.00498516 0.22666296 0.17500298
v 0.00498486 0.22733098 0.16749245
v -0.04745659 0.22652936 0.16749245
v -0.05747053 0.22630671 0.16749245
v -0.06498099 0.22608402 0.16749245
v -0.21084201 -0.12127998 0.16749245
v -0.18993570 -0.19992676 0.38052499
v -0.19173646 -0.19591871 0.38430446
v -0.19011138 -0.20014942 0.39028868
v -0.20460525 -0.12497629 0.35498917
v -0.10200624 -0.13490734 0.41500074
v -0.10314818 -0.12960783 0.41500074
v -0.18519226 -0.19502804 0.39741156
v -0.18202996 -0.19173253 0.40046424
v -0.09080643 -0.16078150 0.41500074
v -0.09304640 -0.15659532 0.41500074
v -0.10024941 -0.13958341 0.41500074
v 0.18422569 0.19255003 0.38498285
v 0.17495841 0.19575649 0.37497687
v 0.16046454 0.20012081 0.35152465
v 0.09010340 0.22002742 0.22038111
v 0.19050637 0.18315339 0.39087012
v 0.18923266 0.18863106 0.38498285
v 0.06107174 -0.01889667 0.41500074
v 0.17495841 0.05498499 0.40625459
v 0.18497235 0.04496487 0.40545511
v 0.19191183 0.05498499 0.40186942
v 0.07499464 0.22372374 0.19501489
v 0.06498069 0.22456989 0.19501489
v 0.05496674 0.22554964 0.18500894
v 0.00498486 0.22666296 0.17500298
v 0.01499881 0.22719738 0.16749245
v -0.21000752 -0.12252693 0.16749245
v -0.16876587 -0.16884214 0.16749245
v -0.16503261 -0.17227125 0.16749245
v -0.16375890 -0.17342913 0.16749245
v -0.16235344 -0.17467606 0.16749245
v -0.15804920 -0.17841691 0.16749245
v -0.15431593 -0.18140069 0.16749245
v -0.15308614 -0.18238044 0.16749245
v -0.14294043 -0.19035199 0.16749245
v -0.14166674 -0.19133171 0.16749245
v -0.13477117 -0.19636405 0.16749245
v -0.18268877 -0.20193079 0.36499515
v -0.18418208 -0.20259878 0.37497687
v -0.18593891 -0.20215344 0.38430446
v -0.19011138 -0.20014942 0.38721177
v -0.20746011 -0.12626776 0.16749245
v -0.20372684 -0.13138917 0.16749245
v -0.20245314 -0.13308147 0.16749245
v -0.20144296 -0.13432840 0.16749245
v -0.19832458 -0.13806924 0.16749245
v -0.19459131 -0.14238903 0.16749245
v -0.18892552 -0.14880189 0.16749245
v -0.18391855 -0.15401235 0.16749245
v -0.17899942 -0.15900016 0.16749245
v -0.17495871 -0.20531535 0.38498285
v -0.18497266 -0.20126277 0.39215419
v -0.17495871 -0.19787821 0.39898634
v -0.06195046 -0.19173253 0.41500074
v -0.06691351 -0.18727913 0.41500074
v -0.07235969 -0.18229136 0.41500074
v -0.07732274 -0.17716995 0.41500074
v -0.08197835 -0.17213765 0.41500074
v -0.08812726 -0.16478956 0.41500074
v -0.03498308 -0.20584977 0.41500074
v -0.04548015 -0.20219800 0.41500074
v -0.04991616 -0.20006037 0.41500074
v -0.05435216 -0.19716567 0.41500074
v 0.18290807 0.19223830 0.37497687
v 0.08957634 0.21980476 0.16749245
v 0.16028886 0.20012081 0.33841756
v 0.16055238 0.20020986 0.34498322
v 0.09032300 0.22007197 0.21500260
v 0.07499464 0.22439176 0.17500298
v 0.07499464 0.22416908 0.18500894
v 0.19085774 0.18359873 0.38498285
v 0.19076990 0.17495918 0.39133045
v 0.19551334 0.05498499 0.39498881
v 0.19836819 0.05498499 0.38498285
v 0.19994935 0.04888385 0.37994352
v 0.20104736 0.05498499 0.37427428
v 0.20333125 0.05498499 0.36499515
v 0.20579082 0.05498499 0.35498917
v 0.20807470 0.05498499 0.34498322
v 0.20956801 0.05498499 0.33834487
v 0.21062210 0.05498499 0.33332980
v 0.21224718 0.05498499 0.32499552
v 0.21417969 0.05498499 0.31498957
v 0.21593653 0.05498499 0.30498359
v 0.22024076 0.06059625 0.27205840
v 0.22335914 0.05498499 0.24502049
v 0.17377254 0.14516604 0.16749245
v 0.16990751 0.14988661 0.16749245
v 0.16569111 0.15474081 0.16749245
v 0.16208960 0.15879339 0.16749245
v 0.16050845 0.16053021 0.16749245
v 0.18053634 0.19050148 0.35811454
v 0.18150261 0.19130310 0.36499515
v 0.21716630 0.07498068 0.16749245
v 0.21374048 0.08495627 0.16749245
v 0.21088563 0.09154728 0.16749245
v 0.20794293 0.09653507 0.16749245
v 0.20280419 0.10481837 0.16749245
v 0.20192578 0.10619891 0.16749245
v 0.19972974 0.10958348 0.16749245
v 0.19626001 0.11474941 0.16749245
v 0.19050637 0.12329991 0.16749245
v 0.18791504 0.12704074 0.16749245
v 0.18290807 0.13367629 0.16749245
v 0.06493677 -0.02183590 0.41500074
v 0.07183234 -0.02815971 0.41500074
v 0.07683931 -0.03314750 0.41500074
v 0.08175844 -0.03817982 0.41500074
v 0.08777559 -0.04503804 0.41500074
v 0.17495841 0.04496487 0.40669072
v 0.19221929 0.04496487 0.40216017
v 0.18497235 0.03498929 0.40550354
v 0.19226320 0.03498929 0.40220863
v 0.19599648 0.04496487 0.39498881
v 0.06498069 0.22519335 0.18500894
v 0.05496674 0.22608402 0.17500298
v 0.04499672 0.22657391 0.16749245
v -0.12980811 -0.19983768 0.16749245
v -0.12291255 -0.20438015 0.16749245
v -0.11711500 -0.20812100 0.16749245
v -0.11210803 -0.21128288 0.16749245
v -0.17495871 -0.20549348 0.36499515
v -0.17495871 -0.20593882 0.37497687
v -0.10499285 -0.21493468 0.16749245
v -0.09695534 -0.21863097 0.16749245
v -0.09322207 -0.22027874 0.16749245
v -0.17495871 -0.20233157 0.39399546
v -0.01499911 -0.22197101 0.37497687
v -0.01499911 -0.22130302 0.38498285
v -0.02141155 -0.22014514 0.39096704
v -0.01499911 -0.21947712 0.39758116
v -0.12001377 -0.20999140 0.39002216
v -0.01499911 -0.21141648 0.41500074
v -0.02070882 -0.21030316 0.41500074
v 0.11434768 0.20346084 0.16749245
v 0.10784740 0.20849317 0.16749245
v 0.10288435 0.21196681 0.16749245
v 0.09497861 0.21677646 0.16749245
v 0.09366098 0.21753353 0.16749245
v 0.08584308 0.22127438 0.16749245
v 0.08456937 0.22176424 0.16749245
v 0.08465721 0.22176424 0.17500298
v 0.08478898 0.22171971 0.18500894
v 0.07499464 0.22443628 0.16749245
v 0.06498069 0.22581682 0.16749245
v 0.06498069 0.22563869 0.17500298
v 0.22212936 0.06384722 0.22500858
v 0.22397403 0.05498499 0.23501453
v 0.22432540 0.05498499 0.22500858
v 0.19898309 0.04532114 0.38403797
v 0.20368262 0.04496487 0.36499515
v 0.20614219 0.04496487 0.35498917
v 0.20846999 0.04496487 0.34498322
v 0.20978761 0.04496487 0.33912015
v 0.21075387 0.04496487 0.33412930
v 0.21444322 0.04496487 0.31498957
v 0.21620005 0.04496487 0.30498359
v 0.21993332 0.04496487 0.27961740
v 0.21975763 0.05498499 0.27879366
v 0.22041644 0.05498499 0.27377856
v 0.22142662 0.05498499 0.26500818
v 0.22248073 0.05498499 0.25500223
v 0.22265641 0.04496487 0.25500223
v 0.22349091 0.04496487 0.24502049
v 0.14935257 0.17184180 0.16749245
v 0.14065625 0.18061498 0.16749245
v 0.13512222 0.18560275 0.16749245
v 0.13011526 0.19010067 0.16749245
v 0.12879764 0.19125855 0.16749245
v 0.11935466 0.19945279 0.16749245
v 0.11557747 0.20248109 0.16749245
v 0.21927451 0.06447070 0.16749245
v 0.09089397 -0.04913515 0.41500074
v 0.17495841 0.03498929 0.40671492
v 0.09330961 -0.05354400 0.41500074
v 0.10253298 -0.07500932 0.41500074
v 0.10512431 -0.08498490 0.41500074
v 0.10556352 -0.09496048 0.41500074
v 0.10617841 -0.11500071 0.41500074
v 0.19608432 0.03498929 0.39498881
v 0.10565136 -0.12497629 0.41500074
v 0.18497235 0.02496917 0.40535820
v 0.19217536 0.02496917 0.40211171
v 0.19595255 0.02496917 0.39498881
v 0.19880740 0.03498929 0.38512820
v 0.05496674 0.22635123 0.16749245
v -0.09194838 -0.22081313 0.16749245
v -0.08496496 -0.22286168 0.16749245
v -0.16498868 -0.20745298 0.36499515
v -0.15159284 -0.21043676 0.32499552
v -0.10024941 -0.22001153 0.24095027
v -0.15080225 -0.21008047 0.34105837
v -0.07499494 -0.22410864 0.20502087
v -0.07499494 -0.22450945 0.19501489
v -0.06498099 -0.22584546 0.17500298
v -0.00498516 -0.22259450 0.37497687
v -0.00498516 -0.22192648 0.38498285
v -0.01499911 -0.22041234 0.39259028
v -0.00498516 -0.21983340 0.39925286
v -0.00498516 -0.21248531 0.41500074
v 0.22410579 0.04496487 0.23501453
v 0.22441325 0.04496487 0.22500858
v 0.22107525 0.03498929 0.16749245
v 0.22085565 0.04496487 0.16749245
v 0.22032860 0.05453965 0.16749245
v 0.22002116 0.05832503 0.16749245
v 0.21993332 0.05930477 0.16749245
v 0.19999327 0.04220377 0.38008890
v 0.20618610 0.03498929 0.35498917
v 0.20851390 0.03498929 0.34498322
v 0.20983154 0.03498929 0.33921707
v 0.21079779 0.03498929 0.33420199
v 0.21448714 0.03498929 0.31498957
v 0.21620005 0.03498929 0.30498359
v 0.21769336 0.03498929 0.29497764
v 0.22050428 0.04496487 0.27462652
v 0.21993332 0.03498929 0.27969006
v 0.22160231 0.04496487 0.26500818
v 0.22265641 0.03498929 0.25500223
v 0.22349091 0.03498929 0.24502049
v 0.19898309 0.02510278 0.38403797
v 0.10358708 -0.13575348 0.41500074
v 0.18290807 -0.17498779 0.40099722
v 0.18330336 -0.16496769 0.40111837
v 0.18831033 -0.16496769 0.39874408
v 0.19169223 -0.17498779 0.39351094
v 0.19156048 -0.18496338 0.39317176
v 0.19450316 -0.16496769 0.38498285
v 0.19999327 0.02853188 0.38008890
v -0.07499494 -0.22486570 0.16749245
v -0.08496496 -0.22299528 0.19501489
v -0.10029333 -0.22005606 0.23501453
v -0.07499494 -0.22482118 0.17500298
v -0.07499494 -0.22468758 0.18500894
v -0.06498099 -0.22606814 0.16749245
v 0.00498486 -0.22268355 0.37497687
v -0.05496705 -0.22651348 0.16749245
v -0.03498308 -0.22722602 0.16749245
v -0.02246565 -0.22740415 0.16749245
v -0.01249562 -0.22753775 0.16749245
v 0.00498486 -0.22201556 0.38498285
v 0.00498486 -0.22076860 0.39460117
v -0.00498516 -0.22067952 0.39426199
v 0.00498486 -0.21987793 0.39961627
v 0.00498486 -0.21257436 0.41500074
v 0.22410579 0.03498929 0.23501453
v 0.22432540 0.02496917 0.22500858
v 0.22111918 0.02496917 0.16749245
v 0.22406188 0.02496917 0.23501453
v 0.20609826 0.02496917 0.35498917
v 0.20842606 0.02496917 0.34498322
v 0.20978761 0.02496917 0.33899903
v 0.21075387 0.02496917 0.33398393
v 0.21439929 0.02496917 0.31498957
v 0.21611221 0.02496917 0.30498359
v 0.21760552 0.02496917 0.29497764
v 0.21988940 0.02496917 0.27935088
v 0.22050428 0.03498929 0.27467498
v 0.22160231 0.03498929 0.26500818
v 0.22256857 0.02496917 0.25500223
v 0.22344698 0.02496917 0.24502049
v 0.19994935 0.02185180 0.37987083
v 0.09168454 -0.16202846 0.41500074
v 0.18233711 -0.18496338 0.40077919
v 0.18791504 -0.17498779 0.39850181
v 0.19305378 -0.18496338 0.38498285
v 0.19415180 -0.17498779 0.38498285
v 0.18734407 -0.18496338 0.39818683
v 0.19094558 -0.19226694 0.39198458
v 0.20442927 -0.12497629 0.34498322
v 0.01499881 -0.22219369 0.37497687
v 0.01499881 -0.22157022 0.38498285
v -0.00498516 -0.22758228 0.16749245
v 0.00498486 -0.22762680 0.16749245
v 0.01499881 -0.22753775 0.16749245
v 0.02496883 -0.22740415 0.16749245
v 0.02747232 -0.22735962 0.16749245
v 0.03748626 -0.22713694 0.16749245
v 0.04745629 -0.22691429 0.16749245
v 0.05747023 -0.22655800 0.16749245
v 0.01499881 -0.22054592 0.39343825
v 0.01499881 -0.21965525 0.39845335
v 0.01570154 -0.21168369 0.41500074
v 0.22419363 0.01499359 0.22500858
v 0.22094350 0.01494906 0.16749245
v 0.22384226 0.01499359 0.23501453
v 0.20715237 -0.10498060 0.33497727
v 0.21132484 -0.09496048 0.31498957
v 0.21334520 -0.08498490 0.30498359
v 0.21975763 0.01499359 0.27816373
v 0.22032860 0.01499359 0.27317286
v 0.22046037 0.02496917 0.27433580
v 0.22151446 0.02496917 0.26500818
v 0.22230504 0.01499359 0.25500223
v 0.22318345 0.01499359 0.24502049
v 0.08276862 -0.17360726 0.41500074
v 0.18137084 -0.19159892 0.40044001
v 0.19107734 -0.19284588 0.38498285
v 0.21097347 -0.11232868 0.16749245
v 0.21233502 -0.10680648 0.16749245
v 0.21273030 -0.10498060 0.16749245
v 0.21057819 -0.10342191 0.31498957
v 0.20003718 -0.15022698 0.36014965
v 0.18527980 -0.19529524 0.39557028
v 0.18251279 -0.20148546 0.39249337
v 0.18874954 -0.19787821 0.38498285
v 0.21005113 -0.10270937 0.32036805
v 0.20921664 -0.10560407 0.32422024
v 0.02540804 -0.22059047 0.38517666
v 0.06498069 -0.22611266 0.16749245
v 0.06498069 -0.22584546 0.17500298
v 0.06498069 -0.22548920 0.18500894
v 0.07499464 -0.22397503 0.20502087
v 0.15031883 -0.21003595 0.34064651
v 0.16498838 -0.20727485 0.36499515
v 0.02233358 -0.22023419 0.39166963
v 0.02540804 -0.21925446 0.39498881
v 0.17495841 -0.20513722 0.38498285
v 0.17495841 -0.20228705 0.39394704
v 0.17495841 -0.19783366 0.39896214
v 0.02422218 -0.20963514 0.41500074
v 0.22379835 0.00497348 0.22500858
v 0.21984547 -0.02499780 0.16749245
v 0.22032860 -0.00798587 0.16749245
v 0.22059213 0.00141077 0.16749245
v 0.22195368 -0.01497769 0.24502049
v 0.21576084 -0.08498490 0.16749245
v 0.21492635 -0.07496478 0.29497764
v 0.22125094 0.01499359 0.26500818
v 0.22006507 -0.03328110 0.26086530
v 0.07872790 -0.17863959 0.41500074
v 0.07372093 -0.18322656 0.41500074
v 0.06783554 -0.18821436 0.41500074
v 0.06287249 -0.19231147 0.41500074
v 0.05597692 -0.19729927 0.41500074
v 0.05096995 -0.20081744 0.41500074
v 0.04499672 -0.20344493 0.41500074
v 0.19063814 -0.19115359 0.36499515
v 0.20873351 -0.11731647 0.16749245
v 0.21396008 -0.09745438 0.16749245
v 0.21435538 -0.09496048 0.16749245
v 0.18378648 -0.20237613 0.38498285
v 0.18308376 -0.20219800 0.37497687
v 0.18809073 -0.19694299 0.37497687
v 0.19028677 -0.19048560 0.35792071
v 0.02900955 -0.21987793 0.38864121
v 0.06748418 -0.22580093 0.16749245
v 0.07499464 -0.22433132 0.19501489
v 0.15071411 -0.21012500 0.33497727
v 0.17495841 -0.20549348 0.37497687
v 0.03498277 -0.20674044 0.41500074
v 0.22037253 -0.03377097 0.25500223
v 0.21646357 -0.07745868 0.16749245
v 0.21668318 -0.07496478 0.16749245
v 0.21721023 -0.06748310 0.16749245
v 0.21923058 -0.03742275 0.16749245
v 0.21958195 -0.03595313 0.26452366
v 0.21813256 -0.04499350 0.27501416
v 0.20776725 -0.11923143 0.16749245
v 0.18172221 -0.20130730 0.36499515
v 0.18672918 -0.19614139 0.36499515
v 0.17495841 -0.20473641 0.36499515
v 0.09150886 -0.22067952 0.16749245
v 0.09651583 -0.21836376 0.16749245
v 0.09858011 -0.21733949 0.16749245
v 0.10499255 -0.21413305 0.16749245
v 0.10657370 -0.21328691 0.16749245
v 0.11122931 -0.21074849 0.16749245
v 0.18971580 -0.18959489 0.35125816
v 0.19705057 -0.13646603 0.16749245
v 0.20104736 -0.13143370 0.16749245
v 0.20385830 -0.12662405 0.16749245
v 0.20478064 -0.12497629 0.16749245
v 0.07499464 -0.22482118 0.16749245
v 0.07499464 -0.22468758 0.17500298
v 0.15071411 -0.21021408 0.32499552
v 0.08496466 -0.22263902 0.16749245
v 0.08663365 -0.22214916 0.16749245
v 0.11496258 -0.20834365 0.16749245
v 0.11812487 -0.20629510 0.16749245
v 0.12888548 -0.19925874 0.16749245
v 0.13499047 -0.19480535 0.16749245
v 0.14065625 -0.19053012 0.16749245
v 0.14443344 -0.18759090 0.16749245
v 0.15207566 -0.18162334 0.16749245
v 0.15703872 -0.17757076 0.16749245
v 0.15848809 -0.17632383 0.16749245
v 0.16274841 -0.17258298 0.16749245
v 0.16775540 -0.16786239 0.16749245
v 0.16907302 -0.16661543 0.16749245
v 0.17675915 -0.15926737 0.16749245
v 0.17798895 -0.15806493 0.16749245
v 0.18290807 -0.15307716 0.16749245
v 0.18664134 -0.14889097 0.16749245
v 0.18787113 -0.14746588 0.16749245
v 0.18892522 -0.14621893 0.16749245
v 0.19582079 -0.13798016 0.16749245
v 0.07745420 -0.22433132 0.16749245
f 1 2 11
f 1 11 3
f 1 3 4
f 1 4 5
f 1 5 6
f 1 6 7
f 1 7 8
f 1 8 9
f 1 9 2
f 2 10 11
f 2 9 24
f 2 24 10
f 3 11 12
f 3 12 13
f 3 13 14
f 3 14 15
f 3 15 16
f 3 16 17
f 3 17 18
f 3 18 19
f 3 19 20
f 3 20 4
f 4 20 19
f 4 19 18
f 4 18 17
f 4 17 16
f 4 16 15
f 4 15 14
f 4 14 30
f 4 30 56
f 4 56 91
f 4 91 90
f 4 90 89
f 4 89 88
f 4 88 87
f 4 87 86
f 4 86 85
f 4 85 84
f 4 84 83
f 4 83 82
f 4 82 81
f 4 81 80
f 4 80 79
f 4 79 78
f 4 78 77
f 4 77 76
f 4 76 75
f 4 75 74
f 4 74 73
f 4 73 72
f 4 72 71
f 4 71 70
f 4 70 69
f 4 69 68
f 4 68 67
f 4 67 66
f 4 66 65
f 4 65 64
f 4 64 63
f 4 63 62
f 4 62 61
f 4 61 60
f 4 60 59
f 4 59 58
f 4 58 57
f 4 57 131
f 4 131 170
f 4 170 227
f 4 227 276
f 4 276 288
f 4 288 327
f 4 327 326
f 4 326 325
f 4 325 286
f 4 286 285
f 4 285 284
f 4 284 324
f 4 324 354
f 4 354 445
f 4 445 514
f 4 514 473
f 4 473 472
f 4 472 469
f 4 469 468
f 4 468 393
f 4 393 467
f 4 467 466
f 4 466 465
f 4 465 464
f 4 464 463
f 4 463 499
f 4 499 498
f 4 498 497
f 4 497 496
f 4 496 495
f 4 495 494
f 4 494 493
f 4 493 419
f 4 419 418
f 4 418 417
f 4 417 416
f 4 416 415
f 4 415 432
f 4 432 431
f 4 431 430
f 4 430 429
f 4 429 428
f 4 428 427
f 4 427 426
f 4 426 425
f 4 425 424
f 4 424 423
f 4 423 422
f 4 422 500
f 4 500 535
f 4 535 534
f 4 534 533
f 4 533 532
f 4 532 531
f 4 531 576
f 4 576 613
f 4 613 653
f 4 653 652
f 4 652 651
f 4 651 684
f 4 684 683
f 4 683 682
f 4 682 681
f 4 681 655
f 4 655 669
f 4 669 668
f 4 668 629
f 4 629 628
f 4 628 627
f 4 627 667
f 4 667 687
f 4 687 701
f 4 701 700
f 4 700 699
f 4 699 698
f 4 698 725
f 4 725 724
f 4 724 723
f 4 723 722
f 4 722 721
f 4 721 720
f 4 720 719
f 4 719 718
f 4 718 717
f 4 717 716
f 4 716 715
f 4 715 714
f 4 714 713
f 4 713 712
f 4 712 711
f 4 711 710
f 4 710 709
f 4 709 708
f 4 708 707
f 4 707 696
f 4 696 695
f 4 695 694
f 4 694 693
f 4 693 692
f 4 692 691
f 4 691 706
f 4 706 705
f 4 705 726
f 4 726 702
f 4 702 675
f 4 675 638
f 4 638 608
f 4 608 607
f 4 607 606
f 4 606 605
f 4 605 604
f 4 604 603
f 4 603 602
f 4 602 601
f 4 601 568
f 4 568 567
f 4 567 566
f 4 566 565
f 4 565 563
f 4 563 558
f 4 558 516
f 4 516 515
f 4 515 454
f 4 454 453
f 4 453 452
f 4 452 449
f 4 449 448
f 4 448 447
f 4 447 446
f 4 446 365
f 4 365 364
f 4 364 363
f 4 363 362
f 4 362 361
f 4 361 360
f 4 360 359
f 4 359 358
f 4 358 357
f 4 357 356
f 4 356 378
f 4 378 377
f 4 377 376
f 4 376 375
f 4 375 374
f 4 374 373
f 4 373 372
f 4 372 371
f 4 371 370
f 4 370 355
f 4 355 328
f 4 328 289
f 4 289 240
f 4 240 186
f 4 186 135
f 4 135 96
f 4 96 92
f 4 92 32
f 4 32 21
f 4 21 7
f 4 7 6
f 4 6 5
f 7 21 8
f 8 22 33
f 8 33 23
f 8 23 9
f 8 21 32
f 8 32 22
f 9 23 35
f 9 35 24
f 10 25 39
f 10 39 26
f 10 26 11
f 10 24 37
f 10 37 25
f 11 26 12
f 12 27 28
f 12 28 29
f 12 29 14
f 12 14 13
f 12 26 27
f 14 29 31
f 14 31 30
f 22 32 34
f 22 34 33
f 23 33 93
f 23 93 35
f 24 35 36
f 24 36 37
f 25 38 39
f 25 37 99
f 25 99 38
f 26 39 27
f 27 40 41
f 27 41 28
f 27 39 42
f 27 42 43
f 27 43 44
f 27 44 45
f 27 45 46
f 27 46 47
f 27 47 48
f 27 48 49
f 27 49 50
f 27 50 51
f 27 51 40
f 28 52 53
f 28 53 54
f 28 54 31
f 28 31 29
f 28 41 55
f 28 55 52
f 30 31 56
f 31 54 57
f 31 57 58
f 31 58 59
f 31 59 60
f 31 60 61
f 31 61 62
f 31 62 63
f 31 63 64
f 31 64 65
f 31 65 66
f 31 66 67
f 31 67 68
f 31 68 69
f 31 69 70
f 31 70 71
f 31 71 72
f 31 72 73
f 31 73 74
f 31 74 75
f 31 75 76
f 31 76 77
f 31 77 78
f 31 78 79
f 31 79 80
f 31 80 81
f 31 81 82
f 31 82 83
f 31 83 84
f 31 84 85
f 31 85 86
f 31 86 87
f 31 87 88
f 31 88 89
f 31 89 90
f 31 90 91
f 31 91 56
f 32 92 34
f 33 34 94
f 33 94 95
f 33 95 93
f 34 92 96
f 34 96 94
f 35 93 36
f 36 93 97
f 36 97 136
f 36 136 98
f 36 98 99
f 36 99 37
f 38 100 105
f 38 105 101
f 38 101 39
f 38 99 141
f 38 141 100
f 39 101 42
f 40 51 102
f 40 102 103
f 40 103 41
f 41 103 104
f 41 104 55
f 42 101 105
f 42 105 106
f 42 106 43
f 43 106 107
f 43 107 108
f 43 108 44
f 44 108 109
f 44 109 45
f 45 109 46
f 46 109 47
f 47 109 110
f 47 110 111
f 47 111 112
f 47 112 48
f 48 112 113
f 48 113 49
f 49 113 114
f 49 114 50
f 50 114 115
f 50 115 51
f 51 115 116
f 51 116 102
f 52 117 53
f 52 55 118
f 52 118 117
f 53 119 54
f 53 117 120
f 53 120 121
f 53 121 122
f 53 122 123
f 53 123 124
f 53 124 125
f 53 125 126
f 53 126 127
f 53 127 128
f 53 128 119
f 54 119 129
f 54 129 130
f 54 130 57
f 55 104 118
f 57 130 131
f 93 95 132
f 93 132 97
f 94 96 95
f 95 96 133
f 95 133 134
f 95 134 132
f 96 135 133
f 97 132 137
f 97 137 136
f 98 138 139
f 98 139 140
f 98 140 141
f 98 141 99
f 98 136 137
f 98 137 142
f 98 142 138
f 100 143 106
f 100 106 105
f 100 141 140
f 100 140 143
f 102 116 103
f 103 116 144
f 103 144 145
f 103 145 146
f 103 146 104
f 104 146 118
f 106 143 107
f 107 143 140
f 107 140 147
f 107 147 148
f 107 148 108
f 108 148 149
f 108 149 109
f 109 149 150
f 109 150 151
f 109 151 110
f 110 151 152
f 110 152 111
f 111 152 153
f 111 153 112
f 112 153 154
f 112 154 155
f 112 155 113
f 113 155 114
f 114 155 156
f 114 156 157
f 114 157 115
f 115 157 158
f 115 158 116
f 116 158 159
f 116 159 144
f 117 118 160
f 117 160 161
f 117 161 162
f 117 162 120
f 118 146 163
f 118 163 164
f 118 164 165
f 118 165 166
f 118 166 167
f 118 167 160
f 119 128 168
f 119 168 169
f 119 169 170
f 119 170 130
f 119 130 129
f 120 162 171
f 120 171 172
f 120 172 173
f 120 173 121
f 121 173 174
f 121 174 175
f 121 175 176
f 121 176 177
f 121 177 122
f 122 177 178
f 122 178 179
f 122 179 124
f 122 124 123
f 124 179 180
f 124 180 126
f 124 126 125
f 126 180 181
f 126 181 182
f 126 182 127
f 127 182 128
f 128 182 183
f 128 183 168
f 130 170 131
f 132 134 137
f 133 135 134
f 134 142 137
f 134 135 184
f 134 184 185
f 134 185 142
f 135 186 187
f 135 187 188
f 135 188 189
f 135 189 185
f 135 185 184
f 138 190 139
f 138 142 191
f 138 191 192
f 138 192 193
f 138 193 190
f 139 190 140
f 140 190 147
f 142 185 191
f 144 159 194
f 144 194 145
f 145 195 196
f 145 196 146
f 145 194 197
f 145 197 198
f 145 198 195
f 146 196 163
f 147 190 199
f 147 199 148
f 148 199 149
f 149 199 200
f 149 200 150
f 150 200 151
f 151 200 201
f 151 201 202
f 151 202 152
f 152 202 153
f 153 202 203
f 153 203 204
f 153 204 154
f 154 204 205
f 154 205 155
f 155 205 206
f 155 206 156
f 156 206 207
f 156 207 157
f 157 207 208
f 157 208 158
f 158 208 159
f 159 208 209
f 159 209 194
f 160 210 161
f 160 167 210
f 161 211 213
f 161 213 162
f 161 210 212
f 161 212 223
f 161 223 211
f 162 213 228
f 162 228 171
f 163 196 164
f 164 214 215
f 164 215 165
f 164 196 216
f 164 216 217
f 164 217 218
f 164 218 214
f 165 215 166
f 166 215 219
f 166 219 167
f 167 220 221
f 167 221 222
f 167 222 223
f 167 223 212
f 167 212 210
f 167 219 224
f 167 224 225
f 167 225 220
f 168 183 226
f 168 226 169
f 169 226 227
f 169 227 170
f 171 228 232
f 171 232 229
f 171 229 172
f 172 229 174
f 172 174 173
f 174 230 231
f 174 231 175
f 174 229 232
f 174 232 230
f 175 231 233
f 175 233 177
f 175 177 176
f 177 233 279
f 177 279 234
f 177 234 178
f 178 234 235
f 178 235 179
f 179 235 180
f 180 235 236
f 180 236 181
f 181 236 237
f 181 237 238
f 181 238 182
f 182 238 239
f 182 239 183
f 183 239 226
f 185 189 193
f 185 193 192
f 185 192 191
f 186 240 241
f 186 241 187
f 187 241 242
f 187 242 243
f 187 243 188
f 188 244 189
f 188 243 245
f 188 245 244
f 189 244 199
f 189 199 190
f 189 190 193
f 194 209 246
f 194 246 247
f 194 247 248
f 194 248 249
f 194 249 197
f 195 198 250
f 195 250 251
f 195 251 252
f 195 252 253
f 195 253 254
f 195 254 196
f 196 254 255
f 196 255 256
f 196 256 216
f 197 249 248
f 197 248 247
f 197 247 298
f 197 298 334
f 197 334 333
f 197 333 339
f 197 339 338
f 197 338 337
f 197 337 387
f 197 387 386
f 197 386 385
f 197 385 384
f 197 384 383
f 197 383 382
f 197 382 391
f 197 391 390
f 197 390 389
f 197 389 388
f 197 388 462
f 197 462 461
f 197 461 528
f 197 528 573
f 197 573 611
f 197 611 649
f 197 649 679
f 197 679 665
f 197 665 664
f 197 664 663
f 197 663 662
f 197 662 661
f 197 661 660
f 197 660 659
f 197 659 624
f 197 624 591
f 197 591 550
f 197 550 509
f 197 509 507
f 197 507 506
f 197 506 505
f 197 505 504
f 197 504 503
f 197 503 501
f 197 501 437
f 197 437 436
f 197 436 435
f 197 435 434
f 197 434 433
f 197 433 346
f 197 346 313
f 197 313 312
f 197 312 275
f 197 275 274
f 197 274 273
f 197 273 225
f 197 225 224
f 197 224 219
f 197 219 270
f 197 270 218
f 197 218 217
f 197 217 216
f 197 216 256
f 197 256 255
f 197 255 254
f 197 254 253
f 197 253 252
f 197 252 251
f 197 251 250
f 197 250 198
f 199 244 200
f 200 244 201
f 201 244 257
f 201 257 258
f 201 258 202
f 202 258 259
f 202 259 203
f 203 259 204
f 204 259 260
f 204 260 261
f 204 261 205
f 205 261 262
f 205 262 206
f 206 262 207
f 207 262 208
f 208 262 263
f 208 263 264
f 208 264 265
f 208 265 266
f 208 266 267
f 208 267 209
f 209 267 266
f 209 266 246
f 211 268 213
f 211 223 222
f 211 222 221
f 211 221 268
f 213 268 269
f 213 269 228
f 214 218 270
f 214 270 219
f 214 219 215
f 220 271 272
f 220 272 221
f 220 225 273
f 220 273 274
f 220 274 275
f 220 275 271
f 221 272 268
f 226 239 227
f 227 239 276
f 228 230 232
f 228 269 230
f 230 277 233
f 230 233 278
f 230 278 231
f 230 269 277
f 231 278 233
f 233 277 279
f 234 279 280
f 234 280 235
f 235 280 322
f 235 322 281
f 235 281 282
f 235 282 236
f 236 283 237
f 236 282 284
f 236 284 283
f 237 283 285
f 237 285 286
f 237 286 287
f 237 287 238
f 238 287 239
f 239 287 288
f 239 288 276
f 240 289 290
f 240 290 241
f 241 290 242
f 242 290 243
f 243 290 245
f 244 245 291
f 244 291 292
f 244 292 257
f 245 293 294
f 245 294 291
f 245 290 295
f 245 295 293
f 246 266 296
f 246 296 297
f 246 297 298
f 246 298 247
f 257 292 258
f 258 292 299
f 258 299 259
f 259 299 301
f 259 301 300
f 259 300 260
f 260 300 261
f 261 300 301
f 261 301 262
f 262 301 302
f 262 302 293
f 262 293 295
f 262 295 263
f 263 303 304
f 263 304 266
f 263 266 264
f 263 295 290
f 263 290 305
f 263 305 303
f 264 266 265
f 266 304 306
f 266 306 297
f 266 297 296
f 268 307 269
f 268 272 308
f 268 308 307
f 269 307 277
f 271 309 310
f 271 310 311
f 271 311 272
f 271 275 312
f 271 312 313
f 271 313 309
f 272 314 308
f 272 311 315
f 272 315 316
f 272 316 314
f 277 317 318
f 277 318 319
f 277 319 320
f 277 320 279
f 277 307 317
f 279 320 280
f 280 320 321
f 280 321 322
f 281 322 353
f 281 353 323
f 281 323 282
f 282 323 284
f 283 284 285
f 284 323 324
f 286 325 287
f 287 325 326
f 287 326 327
f 287 327 288
f 289 328 329
f 289 329 330
f 289 330 290
f 290 330 331
f 290 331 305
f 291 294 292
f 292 294 293
f 292 293 332
f 292 332 299
f 293 302 301
f 293 301 299
f 293 299 332
f 297 306 333
f 297 333 334
f 297 334 298
f 303 305 335
f 303 335 336
f 303 336 306
f 303 306 304
f 305 331 335
f 306 336 337
f 306 337 338
f 306 338 339
f 306 339 333
f 307 308 340
f 307 340 341
f 307 341 342
f 307 342 343
f 307 343 317
f 308 314 344
f 308 344 345
f 308 345 340
f 309 313 346
f 309 346 310
f 310 347 311
f 310 346 347
f 311 347 315
f 314 316 344
f 315 347 348
f 315 348 349
f 315 349 316
f 316 349 344
f 317 343 318
f 318 343 319
f 319 350 351
f 319 351 320
f 319 343 350
f 320 351 321
f 321 351 352
f 321 352 324
f 321 324 322
f 322 324 353
f 323 353 324
f 324 352 354
f 328 355 329
f 329 356 357
f 329 357 358
f 329 358 359
f 329 359 360
f 329 360 361
f 329 361 362
f 329 362 363
f 329 363 364
f 329 364 365
f 329 365 366
f 329 366 367
f 329 367 368
f 329 368 369
f 329 369 330
f 329 355 370
f 329 370 371
f 329 371 372
f 329 372 373
f 329 373 374
f 329 374 375
f 329 375 376
f 329 376 377
f 329 377 378
f 329 378 356
f 330 369 331
f 331 369 368
f 331 368 379
f 331 379 380
f 331 380 335
f 335 380 381
f 335 381 336
f 336 382 383
f 336 383 384
f 336 384 385
f 336 385 386
f 336 386 387
f 336 387 337
f 336 381 388
f 336 388 389
f 336 389 390
f 336 390 391
f 336 391 382
f 340 345 392
f 340 392 393
f 340 393 394
f 340 394 341
f 341 394 395
f 341 395 342
f 342 395 396
f 342 396 343
f 343 396 397
f 343 397 398
f 343 398 350
f 344 399 345
f 344 349 400
f 344 400 401
f 344 401 402
f 344 402 403
f 344 403 404
f 344 404 405
f 344 405 406
f 344 406 407
f 344 407 408
f 344 408 409
f 344 409 410
f 344 410 411
f 344 411 412
f 344 412 413
f 344 413 414
f 344 414 399
f 345 415 416
f 345 416 417
f 345 417 418
f 345 418 419
f 345 419 420
f 345 420 421
f 345 421 392
f 345 399 422
f 345 422 423
f 345 423 424
f 345 424 425
f 345 425 426
f 345 426 427
f 345 427 428
f 345 428 429
f 345 429 430
f 345 430 431
f 345 431 432
f 345 432 415
f 346 433 347
f 347 433 434
f 347 434 435
f 347 435 436
f 347 436 437
f 347 437 438
f 347 438 348
f 348 439 349
f 348 438 440
f 348 440 441
f 348 441 439
f 349 439 442
f 349 442 401
f 349 401 400
f 350 398 474
f 350 474 443
f 350 443 351
f 351 443 352
f 352 443 444
f 352 444 354
f 354 444 445
f 365 446 366
f 366 446 447
f 366 447 448
f 366 448 449
f 366 449 367
f 367 450 451
f 367 451 368
f 367 449 452
f 367 452 453
f 367 453 454
f 367 454 450
f 368 451 379
f 379 455 380
f 379 451 456
f 379 456 457
f 379 457 458
f 379 458 459
f 379 459 460
f 379 460 455
f 380 455 381
f 381 455 461
f 381 461 462
f 381 462 388
f 392 421 463
f 392 463 464
f 392 464 465
f 392 465 466
f 392 466 467
f 392 467 393
f 393 468 394
f 394 468 469
f 394 469 395
f 395 469 470
f 395 470 471
f 395 471 396
f 396 471 472
f 396 472 397
f 397 472 473
f 397 473 398
f 398 473 474
f 399 475 422
f 399 414 476
f 399 476 477
f 399 477 475
f 401 442 402
f 402 442 478
f 402 478 403
f 403 406 405
f 403 405 404
f 403 478 479
f 403 479 480
f 403 480 406
f 406 480 481
f 406 481 407
f 407 481 408
f 408 481 482
f 408 482 409
f 409 482 410
f 410 482 483
f 410 483 411
f 411 483 484
f 411 484 485
f 411 485 412
f 412 485 486
f 412 486 487
f 412 487 413
f 413 487 488
f 413 488 489
f 413 489 490
f 413 490 414
f 414 490 491
f 414 491 492
f 414 492 529
f 414 529 476
f 419 493 420
f 420 494 421
f 420 493 494
f 421 494 495
f 421 495 496
f 421 496 497
f 421 497 498
f 421 498 499
f 421 499 463
f 422 475 477
f 422 477 500
f 437 501 438
f 438 502 440
f 438 501 503
f 438 503 504
f 438 504 505
f 438 505 506
f 438 506 507
f 438 507 502
f 439 441 508
f 439 508 442
f 440 502 507
f 440 507 509
f 440 509 510
f 440 510 511
f 440 511 441
f 441 511 512
f 441 512 508
f 442 508 513
f 442 513 478
f 443 474 444
f 444 474 514
f 444 514 445
f 450 454 515
f 450 515 516
f 450 516 451
f 451 517 456
f 451 516 518
f 451 518 519
f 451 519 520
f 451 520 517
f 455 460 459
f 455 459 461
f 456 520 519
f 456 519 521
f 456 521 522
f 456 522 523
f 456 523 524
f 456 524 525
f 456 525 457
f 456 517 520
f 457 525 526
f 457 526 458
f 458 526 459
f 459 526 527
f 459 527 461
f 461 527 528
f 469 472 470
f 470 472 471
f 473 514 474
f 476 529 477
f 477 529 530
f 477 530 531
f 477 531 532
f 477 532 533
f 477 533 534
f 477 534 535
f 477 535 500
f 478 513 536
f 478 536 479
f 479 536 480
f 480 536 513
f 480 513 537
f 480 537 538
f 480 538 481
f 481 538 539
f 481 539 482
f 482 539 483
f 483 539 484
f 484 539 540
f 484 540 541
f 484 541 485
f 485 541 542
f 485 542 543
f 485 543 486
f 486 544 489
f 486 489 488
f 486 488 487
f 486 543 545
f 486 545 544
f 489 544 546
f 489 546 491
f 489 491 490
f 491 546 587
f 491 587 547
f 491 547 548
f 491 548 492
f 492 548 574
f 492 574 529
f 508 512 549
f 508 549 513
f 509 550 551
f 509 551 510
f 510 551 552
f 510 552 511
f 511 552 553
f 511 553 554
f 511 554 512
f 512 554 555
f 512 555 556
f 512 556 549
f 513 549 557
f 513 557 537
f 516 558 518
f 518 558 559
f 518 559 560
f 518 560 519
f 519 560 559
f 519 559 561
f 519 561 562
f 519 562 522
f 519 522 521
f 522 562 563
f 522 563 523
f 523 563 524
f 524 564 569
f 524 569 525
f 524 563 565
f 524 565 566
f 524 566 567
f 524 567 568
f 524 568 564
f 525 569 570
f 525 570 571
f 525 571 526
f 526 571 527
f 527 571 570
f 527 570 572
f 527 572 528
f 528 572 573
f 529 574 530
f 530 575 576
f 530 576 531
f 530 574 577
f 530 577 575
f 537 557 578
f 537 578 579
f 537 579 538
f 538 579 539
f 539 579 580
f 539 580 581
f 539 581 540
f 540 581 541
f 541 581 582
f 541 582 583
f 541 583 542
f 542 583 584
f 542 584 543
f 543 584 545
f 544 545 546
f 545 584 585
f 545 585 620
f 545 620 586
f 545 586 546
f 546 586 587
f 547 587 621
f 547 621 588
f 547 588 589
f 547 589 548
f 548 589 577
f 548 577 574
f 549 590 578
f 549 578 557
f 549 556 590
f 550 591 592
f 550 592 551
f 551 592 593
f 551 593 553
f 551 553 552
f 553 593 555
f 553 555 554
f 555 594 595
f 555 595 556
f 555 593 596
f 555 596 597
f 555 597 594
f 556 595 598
f 556 598 580
f 556 580 579
f 556 579 578
f 556 578 590
f 558 563 561
f 558 561 559
f 561 563 562
f 564 599 600
f 564 600 569
f 564 568 601
f 564 601 602
f 564 602 603
f 564 603 604
f 564 604 605
f 564 605 606
f 564 606 607
f 564 607 608
f 564 608 599
f 569 600 609
f 569 609 570
f 570 609 610
f 570 610 572
f 572 610 573
f 573 610 611
f 575 577 612
f 575 612 576
f 576 612 613
f 577 589 614
f 577 614 612
f 580 598 615
f 580 615 616
f 580 616 581
f 581 616 582
f 582 616 617
f 582 617 583
f 583 617 584
f 584 617 585
f 585 617 618
f 585 618 619
f 585 619 620
f 586 620 587
f 587 620 621
f 588 621 657
f 588 657 622
f 588 622 623
f 588 623 589
f 589 623 614
f 591 624 625
f 591 625 592
f 592 625 596
f 592 596 593
f 594 597 626
f 594 626 627
f 594 627 628
f 594 628 629
f 594 629 630
f 594 630 631
f 594 631 595
f 595 631 598
f 596 625 632
f 596 632 597
f 597 632 633
f 597 633 634
f 597 634 626
f 598 631 635
f 598 635 636
f 598 636 615
f 599 637 600
f 599 608 638
f 599 638 639
f 599 639 640
f 599 640 641
f 599 641 642
f 599 642 643
f 599 643 637
f 600 637 644
f 600 644 609
f 609 644 610
f 610 644 645
f 610 645 646
f 610 646 647
f 610 647 611
f 611 647 648
f 611 648 649
f 612 614 650
f 612 650 651
f 612 651 652
f 612 652 653
f 612 653 613
f 614 623 654
f 614 654 650
f 615 636 635
f 615 635 616
f 616 635 617
f 617 635 630
f 617 630 655
f 617 655 656
f 617 656 618
f 618 656 619
f 619 657 621
f 619 621 620
f 619 656 657
f 622 657 658
f 622 658 623
f 623 658 654
f 624 659 625
f 625 659 660
f 625 660 661
f 625 661 662
f 625 662 663
f 625 663 664
f 625 664 665
f 625 665 648
f 625 648 633
f 625 633 632
f 626 634 666
f 626 666 627
f 627 666 667
f 629 668 630
f 630 668 669
f 630 669 655
f 630 635 631
f 633 648 647
f 633 647 646
f 633 646 670
f 633 670 634
f 634 671 672
f 634 672 673
f 634 673 666
f 634 670 671
f 637 674 644
f 637 643 646
f 637 646 674
f 638 675 676
f 638 676 639
f 639 676 641
f 639 641 640
f 641 676 642
f 642 676 677
f 642 677 643
f 643 678 646
f 643 677 678
f 644 674 646
f 644 646 645
f 646 678 670
f 648 665 679
f 648 679 649
f 650 680 681
f 650 681 682
f 650 682 683
f 650 683 684
f 650 684 651
f 650 654 680
f 654 658 680
f 655 681 680
f 655 680 656
f 656 680 658
f 656 658 685
f 656 685 686
f 656 686 657
f 657 686 685
f 657 685 658
f 666 673 687
f 666 687 667
f 670 678 671
f 671 688 689
f 671 689 672
f 671 678 690
f 671 690 691
f 671 691 692
f 671 692 693
f 671 693 694
f 671 694 695
f 671 695 696
f 671 696 688
f 672 689 697
f 672 697 673
f 673 697 698
f 673 698 699
f 673 699 700
f 673 700 701
f 673 701 687
f 675 702 703
f 675 703 676
f 676 703 677
f 677 703 702
f 677 702 704
f 677 704 678
f 678 704 705
f 678 705 706
f 678 706 691
f 678 691 690
f 688 696 707
f 688 707 708
f 688 708 709
f 688 709 710
f 688 710 711
f 688 711 712
f 688 712 713
f 688 713 714
f 688 714 715
f 688 715 716
f 688 716 717
f 688 717 718
f 688 718 719
f 688 719 720
f 688 720 721
f 688 721 689
f 689 721 697
f 697 721 722
f 697 722 723
f 697 723 724
f 697 724 725
f 697 725 698
f 702 726 704
f 704 726 705

