# https://github.com/mikedh/trimesh
v 0.47455204 -0.16699795 0.31500039
v 0.47176486 -0.17490141 0.31505936
v 0.47064996 -0.18188281 0.31177559
v 0.47064996 -0.18188281 0.30908176
v 0.47185779 -0.17500021 0.30792162
v 0.47315842 -0.16699795 0.30723342
v 0.47102159 -0.16699795 0.32337689
v 0.47046417 -0.17147659 0.32113528
v 0.46925640 -0.17816159 0.31842175
v 0.46312463 -0.18580161 0.32579547
v 0.46795571 -0.18514298 0.31505936
v 0.46312463 -0.19587852 0.31584588
v 0.46126652 -0.20285992 0.31311271
v 0.44993198 -0.23002806 0.31002557
v 0.46052325 -0.17167416 0.25943220
v 0.46293879 -0.16699795 0.26501653
v 0.44993198 -0.23002806 0.31000593
v 0.44974619 -0.19966561 0.26141816
v 0.47046417 -0.16699795 0.32467467
v 0.46767700 -0.17490141 0.32467467
v 0.46117359 -0.18296954 0.33259892
v 0.45977998 -0.18965454 0.32966912
v 0.46135938 -0.19311231 0.32300329
v 0.45987290 -0.19979732 0.31975886
v 0.45021069 -0.22047806 0.32044709
v 0.45104688 -0.22429806 0.31399754
v 0.44853842 -0.22713014 0.31667173
v 0.44602996 -0.23401274 0.31399754
v 0.43107212 -0.26183951 0.31256214
v 0.46108067 -0.16699795 0.25894061
v 0.44129175 -0.18290368 0.21349898
v 0.44407892 -0.17500021 0.21349898
v 0.44454348 -0.17351831 0.21349898
v 0.44649446 -0.16699795 0.21349898
v 0.44017690 -0.22037926 0.25982547
v 0.43107212 -0.26183951 0.30876714
v 0.42977142 -0.23967689 0.26147717
v 0.46507561 -0.16699795 0.33672819
v 0.46897769 -0.16722848 0.32782078
v 0.46033746 -0.16699795 0.34728733
v 0.45829350 -0.17546125 0.34512439
v 0.45457727 -0.18501127 0.34498674
v 0.45866513 -0.18580161 0.33554840
v 0.45494890 -0.19502231 0.33499783
v 0.45002490 -0.19018145 0.35013849
v 0.44166338 -0.21455047 0.34455416
v 0.44036269 -0.22087324 0.34093612
v 0.44649446 -0.22429806 0.32426172
v 0.44026977 -0.23048910 0.33055395
v 0.44129175 -0.23430911 0.32402578
v 0.43999106 -0.24007206 0.32005382
v 0.42958564 -0.25936967 0.31920829
v 0.42763460 -0.26509970 0.31553128
v 0.42010921 -0.28018212 0.31028122
v 0.43887621 -0.18790920 0.21349898
v -0.44651610 -0.16699795 0.21349898
v 0.41462779 -0.23361756 0.21349898
v 0.43525285 -0.19502231 0.21349898
v 0.43590319 -0.19377093 0.21349898
v 0.40022737 -0.26045641 0.21349898
v 0.40059900 -0.25979778 0.21349898
v 0.40403652 -0.25340915 0.21349898
v 0.41026121 -0.24178448 0.21349898
v 0.42010921 -0.28018212 0.30984861
v 0.41035414 -0.27066505 0.25958949
v 0.45950127 -0.16699795 0.34899804
v 0.45931548 -0.16818348 0.34854579
v 0.45113975 -0.18501127 0.35212448
v 0.44853842 -0.19686645 0.34691373
v 0.45011783 -0.20029129 0.34024790
v 0.44036269 -0.21089511 0.35078737
v 0.43032885 -0.17085089 0.40051559
v 0.42075956 -0.19169627 0.40104651
v 0.43878329 -0.21754718 0.34760195
v 0.43664646 -0.22452858 0.34455416
v 0.43032885 -0.23065376 0.35068905
v 0.42847073 -0.23733878 0.34691373
v 0.42503321 -0.24511051 0.34508505
v 0.42986435 -0.24981967 0.32974777
v 0.41992342 -0.24998432 0.34994185
v 0.41964471 -0.25946847 0.33936307
v 0.42131698 -0.26207003 0.33269724
v 0.42308223 -0.26523143 0.32496962
v 0.42075956 -0.27125782 0.32162687
v 0.41852981 -0.27794281 0.31692737
v 0.41119027 -0.29177389 0.31266046
v 0.39019358 -0.32032514 0.31055650
v -0.44410056 -0.17500021 0.21349898
v -0.46045196 -0.17167416 0.25943220
v -0.46268171 -0.16699795 0.26336482
v 0.39976287 -0.26118088 0.21349898
v 0.39019358 -0.32032514 0.30969131
v 0.41119027 -0.29177389 0.30872780
v 0.39000773 -0.30010545 0.25994343
v 0.39697570 -0.26536316 0.21349898
v 0.43097919 -0.16699795 0.40142012
v 0.41100448 -0.21185011 0.40132177
v 0.42633390 -0.16699795 0.40645388
v 0.42475450 -0.17444038 0.40490049
v 0.42224604 -0.18501127 0.40275720
v 0.41267675 -0.20500043 0.40315047
v 0.40059900 -0.23114774 0.40086952
v 0.41852981 -0.25568140 0.34595025
v 0.38991487 -0.24998432 0.39990604
v 0.41128320 -0.26193830 0.35216379
v 0.40896052 -0.26862332 0.34813285
v 0.41072571 -0.27112609 0.34146702
v 0.40849602 -0.27781108 0.33708215
v 0.41908729 -0.26872212 0.32829270
v 0.40821731 -0.28739405 0.32498926
v 0.40961087 -0.28953457 0.31930661
v 0.40747404 -0.29506698 0.31559026
v 0.40208548 -0.30277288 0.31498072
v 0.39809054 -0.30777839 0.31498072
v 0.38861418 -0.31831634 0.31720266
v 0.37923068 -0.32911775 0.31855941
v 0.38081008 -0.33106068 0.31191325
v -0.44372892 -0.17602107 0.21349898
v -0.47067159 -0.18188281 0.30908176
v -0.44122046 -0.18290368 0.21349898
v -0.44976777 -0.19966561 0.26141816
v -0.47187936 -0.17500021 0.30792162
v -0.47318006 -0.16699795 0.30723342
v 0.38081008 -0.33106068 0.30902275
v 0.38285398 -0.28350818 0.21349898
v 0.39195877 -0.27241039 0.21349898
v 0.38062423 -0.31084099 0.25947151
v 0.34225416 -0.33283895 0.21349898
v 0.34299743 -0.33194983 0.21349898
v 0.35080153 -0.32253152 0.21349898
v 0.35999918 -0.31133494 0.21349898
v 0.40775275 -0.20500043 0.40814492
v 0.39911252 -0.21860099 0.40938368
v 0.39734733 -0.22502255 0.40769267
v 0.40227133 -0.22502255 0.40269822
v 0.42484742 -0.16699795 0.40798759
v 0.41908729 -0.17802987 0.40928537
v 0.41750789 -0.18501127 0.40775165
v 0.40933216 -0.19874352 0.40954101
v 0.38870704 -0.23789860 0.40906909
v 0.39465302 -0.23453963 0.40495947
v 0.39205170 -0.24329931 0.40240327
v 0.39112264 -0.29154336 0.35196716
v 0.40004158 -0.28021505 0.35023680
v 0.38099587 -0.26157606 0.40130213
v 0.40143514 -0.28219092 0.34498674
v 0.39957702 -0.28940284 0.33918610
v 0.40292168 -0.29509991 0.32473364
v 0.40059900 -0.30086285 0.32123360
v 0.38155329 -0.32197168 0.32498926
v 0.37542152 -0.31555012 0.34577328
v 0.36975425 -0.31979823 0.34968624
v 0.37068331 -0.33076429 0.33120283
v 0.36947554 -0.33942518 0.31905100
v 0.37114787 -0.34126931 0.31240484
v 0.39130843 -0.31163132 0.32241338
v -0.47067159 -0.18188281 0.31177559
v -0.47457361 -0.16699795 0.31362393
v -0.44995362 -0.23002806 0.31000593
v -0.43926942 -0.18715179 0.21349898
v -0.44010556 -0.22037926 0.25982547
v 0.37114787 -0.34126931 0.30882612
v 0.36771035 -0.32760292 0.26501653
v 0.37114787 -0.32144481 0.25911757
v 0.34160382 -0.33359638 0.21349898
v 0.39065808 -0.23121360 0.41046518
v 0.40097064 -0.21191597 0.41072080
v 0.42140990 -0.16699795 0.41099608
v 0.42057377 -0.17137779 0.41044551
v 0.41091156 -0.19205852 0.41066182
v 0.38201785 -0.24310172 0.41123202
v 0.37978810 -0.24975380 0.40987527
v 0.37802291 -0.25502276 0.40838087
v 0.38322562 -0.25502276 0.40338641
v 0.36966139 -0.27962232 0.39904085
v 0.36027789 -0.29042369 0.40041727
v 0.37913775 -0.30902976 0.34850645
v 0.38852125 -0.29822838 0.34734631
v 0.39883381 -0.29849184 0.32789943
v 0.39799762 -0.28719646 0.34498674
v 0.36854649 -0.26803055 0.40899044
v 0.37207693 -0.27293730 0.40232462
v 0.38238949 -0.31475979 0.33415231
v 0.36873233 -0.32865670 0.33786866
v 0.35089439 -0.30119216 0.40114480
v 0.34141803 -0.31149960 0.40149873
v 0.36009210 -0.33013859 0.35019749
v 0.35888427 -0.33883241 0.33810461
v 0.35795522 -0.34785554 0.32498926
v 0.36129987 -0.35141209 0.31266046
v 0.34968662 -0.35974365 0.31956223
v 0.35553968 -0.35556141 0.31610152
v -0.44995362 -0.23002806 0.31002557
v -0.46119517 -0.20285992 0.31311271
v -0.46314621 -0.19587852 0.31584588
v -0.46797734 -0.18514298 0.31505936
v -0.46314621 -0.18580161 0.32579547
v -0.46927798 -0.17816159 0.31842175
v -0.47178644 -0.17490141 0.31505936
v -0.47448075 -0.16699795 0.31500039
v -0.42979306 -0.23967689 0.26147717
v -0.43100083 -0.26183951 0.30876714
v -0.43889779 -0.18790920 0.21349898
v -0.43471706 -0.19597732 0.21349898
v -0.43127954 -0.20243181 0.21349898
v -0.41827273 -0.22680083 0.21349898
v -0.40851760 -0.24504465 0.21349898
v -0.40238583 -0.25650465 0.21349898
v -0.40024900 -0.26045641 0.21349898
v 0.36129987 -0.35141209 0.30872780
v 0.34801435 -0.34805313 0.26501653
v 0.36269343 -0.33287188 0.26501653
v 0.33779466 -0.33781156 0.21349898
v 0.39233041 -0.22502255 0.41142866
v 0.40273583 -0.20500043 0.41164497
v 0.42048085 -0.16699795 0.41140899
v 0.41249096 -0.18501127 0.41158599
v 0.38517666 -0.23473722 0.41190058
v 0.37579316 -0.24586794 0.41249049
v 0.37300599 -0.25502276 0.41154665
v 0.37086916 -0.26137847 0.41060281
v 0.36241472 -0.28502300 0.40246224
v 0.36185730 -0.27250919 0.41113371
v 0.35925591 -0.27916127 0.40952134
v 0.36575931 -0.27606574 0.40592298
v 0.35451776 -0.29427665 0.40291449
v 0.34782851 -0.29500112 0.40834153
v 0.34429806 -0.30425477 0.40464485
v 0.34039605 -0.35039124 0.35063007
v 0.33742309 -0.30735028 0.40816456
v 0.32460207 -0.32463911 0.40499881
v 0.32162911 -0.33171931 0.40173471
v 0.35098732 -0.35101691 0.33167475
v 0.35145181 -0.36148900 0.31291607
v 0.33890957 -0.35901919 0.33834058
v 0.34095347 -0.36092919 0.33167475
v 0.34299743 -0.36283919 0.32498926
v 0.33937407 -0.36949128 0.31907064
v 0.34550589 -0.36550659 0.31598353
v -0.43100083 -0.26183951 0.31256214
v -0.44112754 -0.24204792 0.31498072
v -0.44001269 -0.24007206 0.32005382
v -0.44856000 -0.22713014 0.31667173
v -0.45106846 -0.22429806 0.31399754
v -0.45013940 -0.22047806 0.32044709
v -0.45980161 -0.19979732 0.31975886
v -0.46138102 -0.19311231 0.32300329
v -0.46769857 -0.17490141 0.32467467
v -0.45980161 -0.18965454 0.32966912
v -0.45868677 -0.18580161 0.33554840
v -0.45961583 -0.17908366 0.33926475
v -0.47048581 -0.17147659 0.32113528
v -0.47150773 -0.16699795 0.32227576
v -0.41037571 -0.27066505 0.25958949
v -0.42003793 -0.28018212 0.30984861
v -0.39792633 -0.26398003 0.21349898
v 0.35145181 -0.36148900 0.30864915
v 0.34309030 -0.35309157 0.26501653
v 0.33798051 -0.35806417 0.26501653
v 0.31085199 -0.38075370 0.25939286
v 0.33277780 -0.34232312 0.21349898
v 0.39548922 -0.21514322 0.41217586
v 0.38499081 -0.22502255 0.41363093
v 0.40496558 -0.18501127 0.41376859
v 0.39493173 -0.20500043 0.41382757
v 0.41499943 -0.16699795 0.41315901
v 0.36492318 -0.25502276 0.41372925
v 0.36510897 -0.26483625 0.41192025
v 0.35553968 -0.27550590 0.41239217
v 0.35256672 -0.28331059 0.41138935
v 0.34058183 -0.30066526 0.41036683
v 0.34987247 -0.28996268 0.40997359
v 0.35553968 -0.28597802 0.40794829
v 0.31150234 -0.34133518 0.40145943
v 0.33008349 -0.36010590 0.35017782
v 0.32088584 -0.32095084 0.41052416
v 0.31754124 -0.32763585 0.40840054
v 0.31447536 -0.33461723 0.40493980
v 0.34132510 -0.37117076 0.31240484
v 0.33751595 -0.36781177 0.32498926
v 0.32181489 -0.37159887 0.34282377
v 0.32683182 -0.37723008 0.32498926
v 0.32896864 -0.37907422 0.31828412
v -0.42003793 -0.28018212 0.31028122
v -0.42765617 -0.26509970 0.31553128
v -0.42960721 -0.25936967 0.31920829
v -0.44131333 -0.23430911 0.32402578
v -0.43146533 -0.25271761 0.32308194
v -0.44159210 -0.22452858 0.33432928
v -0.44038427 -0.22087324 0.34093612
v -0.45125425 -0.21425408 0.32426172
v -0.44865292 -0.21705322 0.32711288
v -0.44856000 -0.19686645 0.34691373
v -0.45004648 -0.19018145 0.35013849
v -0.46899927 -0.16722848 0.32782078
v -0.45831513 -0.17546125 0.34512439
v -0.45459890 -0.18501127 0.34498674
v -0.47104323 -0.16699795 0.32337689
v -0.39699727 -0.26536316 0.21349898
v -0.39002937 -0.30010545 0.25994343
v -0.41111898 -0.29177389 0.30872780
v -0.39021516 -0.32032514 0.30969131
v 0.34132510 -0.37117076 0.30882612
v 0.32042128 -0.39036959 0.30955365
v 0.30007493 -0.39004028 0.25996310
v 0.32673889 -0.34732863 0.21349898
v 0.37495703 -0.23500067 0.41420117
v 0.41295546 -0.16699795 0.41361129
v 0.40496558 -0.17500021 0.41435850
v 0.39493173 -0.19502231 0.41437814
v 0.38499081 -0.21501149 0.41435850
v 0.35498226 -0.26500088 0.41414219
v 0.33491462 -0.29500112 0.41355228
v 0.34290451 -0.29500112 0.41136968
v 0.33445007 -0.30441943 0.41136968
v 0.30713576 -0.33748224 0.40812525
v 0.29663742 -0.34709811 0.40773198
v 0.30100399 -0.35091811 0.40106615
v 0.29050565 -0.36046815 0.40061390
v 0.30908680 -0.37930474 0.34878173
v 0.31549728 -0.37545180 0.34579292
v 0.32450914 -0.31449634 0.41146800
v 0.31447536 -0.32457325 0.41148764
v 0.31085199 -0.33086309 0.41050449
v 0.32469499 -0.38473836 0.31454811
v 0.32042128 -0.39036959 0.31083179
v 0.32432336 -0.37439799 0.33393604
v 0.31800574 -0.37825093 0.33692482
v 0.32014257 -0.38012803 0.33025900
v 0.32181489 -0.38160992 0.32498926
v 0.31837738 -0.38869008 0.31747794
v -0.39021516 -0.32032514 0.31055650
v -0.41111898 -0.29177389 0.31266046
v -0.41855145 -0.27794281 0.31692737
v -0.42078120 -0.27125782 0.32162687
v -0.41966629 -0.25946847 0.33936307
v -0.41994500 -0.24998432 0.34994185
v -0.42849237 -0.25561553 0.32585445
v -0.42849237 -0.23733878 0.34691373
v -0.43146533 -0.23440790 0.34414122
v -0.43035048 -0.23065376 0.35068905
v -0.43861908 -0.22752531 0.33721977
v -0.43880492 -0.21754718 0.34760195
v -0.43666804 -0.22452858 0.34455416
v -0.44660896 -0.21425408 0.33421132
v -0.44038427 -0.21089511 0.35078737
v -0.42068827 -0.19169627 0.40104651
v -0.43025756 -0.17085089 0.40051559
v -0.45116138 -0.18501127 0.35212448
v -0.46212423 -0.16699795 0.34325638
v -0.46881348 -0.16699795 0.32839102
v -0.45933706 -0.16818348 0.34854579
v -0.39188749 -0.27241039 0.21349898
v -0.38064587 -0.31084099 0.25947151
v -0.38083166 -0.33106068 0.30902275
v -0.38844997 -0.27665851 0.21349898
v -0.36438733 -0.30600011 0.21349898
v -0.34794301 -0.32602221 0.21349898
v -0.34654945 -0.32770172 0.21349898
v -0.34227580 -0.33283895 0.21349898
v 0.28028601 -0.42020515 0.30969131
v 0.27071673 -0.41049048 0.25953051
v 0.26532817 -0.39702165 0.21349898
v 0.27108830 -0.39283940 0.21349898
v 0.27229607 -0.39195028 0.21349898
v 0.27313226 -0.39132458 0.21349898
v 0.31131655 -0.36000711 0.21349898
v 0.36492318 -0.24501172 0.41437814
v 0.40496558 -0.16699795 0.41435850
v 0.40301454 -0.16699795 0.41437814
v 0.34494841 -0.27501196 0.41431916
v 0.32497370 -0.30501217 0.41361129
v 0.30044657 -0.34041309 0.41026855
v 0.28994823 -0.35002899 0.41001290
v 0.28493130 -0.35704333 0.40763366
v 0.29357153 -0.35381606 0.40417296
v 0.28019309 -0.40015012 0.35031545
v 0.29134178 -0.39102820 0.35175088
v 0.30249047 -0.38190630 0.35283235
v 0.28493130 -0.36254281 0.40261954
v 0.27276063 -0.37205988 0.40222630
v 0.26161194 -0.38114887 0.40142012
v 0.30945843 -0.38961217 0.32929552
v 0.31178105 -0.39139044 0.32262969
v 0.31131655 -0.38114887 0.34211591
v 0.29803103 -0.38855839 0.34730700
v 0.30044657 -0.39033666 0.34064117
v 0.31493986 -0.31502324 0.41367027
v 0.30499893 -0.32500136 0.41365060
v 0.29496509 -0.33501241 0.41347364
v 0.28493130 -0.34499052 0.41327700
v 0.30425566 -0.33451843 0.41133034
v 0.28493130 -0.35203779 0.41107473
v 0.31503278 -0.39277357 0.31448913
v 0.30760032 -0.39817426 0.31498072
v 0.30258340 -0.40196133 0.31498072
v 0.29162049 -0.41121498 0.31266046
v 0.28028601 -0.42020515 0.31057614
v 0.31503278 -0.38707647 0.32557917
v -0.38083166 -0.33106068 0.31191325
v -0.38473374 -0.32470497 0.31454811
v -0.40062064 -0.30086285 0.32123360
v -0.39811218 -0.30777839 0.31498072
v -0.40210712 -0.30277288 0.31498072
v -0.40749562 -0.29506698 0.31559026
v -0.40963250 -0.28953457 0.31930661
v -0.41910887 -0.26872212 0.32829270
v -0.41158348 -0.28238851 0.32498926
v -0.41855145 -0.25568140 0.34595025
v -0.41771531 -0.26523143 0.33560741
v -0.41074735 -0.27112609 0.34146702
v -0.40898216 -0.26862332 0.34813285
v -0.41121185 -0.26193830 0.35216379
v -0.38993645 -0.24998432 0.39990604
v -0.40062064 -0.23114774 0.40086952
v -0.41093314 -0.21185011 0.40132177
v -0.41260546 -0.20500043 0.40315047
v -0.42217475 -0.18501127 0.40275720
v -0.42468321 -0.17444038 0.40490049
v -0.42635554 -0.16699795 0.40645388
v -0.42793494 -0.16699795 0.40474319
v -0.43100083 -0.16699795 0.40142012
v -0.46026611 -0.16699795 0.34728733
v -0.37116945 -0.32144481 0.25911757
v -0.36773199 -0.32760292 0.26501653
v -0.37116945 -0.34126931 0.30882612
v -0.33781630 -0.33781156 0.21349898
v 0.26161194 -0.43100655 0.30886546
v 0.23996487 -0.43001863 0.25998276
v 0.26040417 -0.40024891 0.21349898
v 0.33491462 -0.28502300 0.41437814
v -0.39495337 -0.16699795 0.41437814
v 0.27238899 -0.36181831 0.41109440
v 0.27907825 -0.35934848 0.40954101
v 0.26792955 -0.36847040 0.40889210
v 0.28047180 -0.41032583 0.33067194
v 0.24990579 -0.38994148 0.39982739
v 0.26857984 -0.40914032 0.34829015
v 0.27471167 -0.40673634 0.34496707
v 0.26477075 -0.37482610 0.40515611
v 0.25492269 -0.37811923 0.40851849
v 0.25492269 -0.38332233 0.40350440
v 0.24321659 -0.39198321 0.40226561
v 0.30509186 -0.39507872 0.32514659
v 0.30063236 -0.40051237 0.32097799
v 0.29496509 -0.40736204 0.31559026
v 0.32497370 -0.29500112 0.41437814
v 0.30499893 -0.31502324 0.41437814
v 0.28493130 -0.33501241 0.41437814
v 0.27499038 -0.34499052 0.41433883
v 0.27545488 -0.35559434 0.41237250
v 0.26495653 -0.35496867 0.41410285
v 0.25492269 -0.36497971 0.41374892
v 0.28948367 -0.40963429 0.31930661
v 0.28493130 -0.41496912 0.31494138
v 0.27796334 -0.41869032 0.31722230
v 0.26161194 -0.43100655 0.31232616
v -0.37116945 -0.34126931 0.31240484
v -0.37516445 -0.33524293 0.31547228
v -0.37915939 -0.32911775 0.31855941
v -0.38947195 -0.30939201 0.32907921
v -0.39188749 -0.30241063 0.33499783
v -0.38854289 -0.29822838 0.34734631
v -0.39885539 -0.29849184 0.32789943
v -0.40127099 -0.29183975 0.33252028
v -0.40294325 -0.29509991 0.32473364
v -0.38148201 -0.32197168 0.32498926
v -0.40489429 -0.28485835 0.33480120
v -0.40145677 -0.28219092 0.34498674
v -0.40006316 -0.28021505 0.35023680
v -0.39207327 -0.24329931 0.40240327
v -0.39114422 -0.29154336 0.35196716
v -0.38101751 -0.26157606 0.40130213
v -0.39467466 -0.23453963 0.40495947
v -0.38872868 -0.23789860 0.40906909
v -0.40229291 -0.22502255 0.40269822
v -0.39736891 -0.22502255 0.40769267
v -0.40508008 -0.21520907 0.40535274
v -0.40777439 -0.20500043 0.40814492
v -0.41743654 -0.18501127 0.40775165
v -0.40935373 -0.19874352 0.40954101
v -0.41901594 -0.17802987 0.40928537
v -0.42059535 -0.17137779 0.41044551
v -0.42133862 -0.16699795 0.41099608
v -0.36271507 -0.33287188 0.26501653
v -0.34803593 -0.34805313 0.26501653
v -0.36132145 -0.35141209 0.30872780
v -0.33707303 -0.33850309 0.21349898
v -0.33790922 -0.35806417 0.26501653
v -0.34301901 -0.35309157 0.26501653
v 0.24284495 -0.44151157 0.30841321
v 0.22305602 -0.45155555 0.30839354
v 0.22008304 -0.44002968 0.25994343
v 0.18784472 -0.43894297 0.21349898
v 0.19499847 -0.43525466 0.21349898
v 0.24600376 -0.40798771 0.21349898
v 0.25975382 -0.40061116 0.21349898
v -0.40498722 -0.16699795 0.41435850
v -0.39495337 -0.19502231 0.41437814
v 0.26477075 -0.36507851 0.41190058
v 0.25492269 -0.37311369 0.41154665
v 0.26124030 -0.37094024 0.41062248
v 0.27471167 -0.41216996 0.33440793
v 0.28251576 -0.41177478 0.32498926
v 0.24981290 -0.41990876 0.34984356
v 0.26189065 -0.41118205 0.35206550
v 0.23113883 -0.40070996 0.40094817
v 0.26514238 -0.41292739 0.34496707
v 0.27127415 -0.42079791 0.32160720
v 0.24981290 -0.37986457 0.40991461
v 0.23773514 -0.38859129 0.40893143
v 0.24498180 -0.36497971 0.41437814
v 0.23494796 -0.37499076 0.41418150
v 0.22491413 -0.38496888 0.41363093
v 0.24581794 -0.37591285 0.41247082
v 0.27471167 -0.41691205 0.32494995
v 0.25919640 -0.42949173 0.31897235
v 0.25548017 -0.43331173 0.31537396
v 0.24721153 -0.43838313 0.31498072
v 0.24228753 -0.44121519 0.31498072
v -0.36132145 -0.35141209 0.31266046
v -0.36540931 -0.34541863 0.31584588
v -0.36940426 -0.33942518 0.31905100
v -0.38008845 -0.32019341 0.33023936
v -0.37237728 -0.33267429 0.32498926
v -0.37061203 -0.33076429 0.33120283
v -0.36875391 -0.32865670 0.33786866
v -0.37163401 -0.32197168 0.34302041
v -0.36977589 -0.31979823 0.34968624
v -0.37915939 -0.30902976 0.34850645
v -0.39950573 -0.28940284 0.33918610
v -0.39801925 -0.28719646 0.34498674
v -0.38324726 -0.25502276 0.40338641
v -0.36029953 -0.29042369 0.40041727
v -0.36959010 -0.27962232 0.39904085
v -0.37209851 -0.27293730 0.40232462
v -0.36856812 -0.26803055 0.40899044
v -0.39058679 -0.23121360 0.41046518
v -0.39913410 -0.21860099 0.40938368
v -0.37971681 -0.24975380 0.40987527
v -0.38203943 -0.24310172 0.41123202
v -0.40099221 -0.21191597 0.41072080
v -0.41084027 -0.19205852 0.41066182
v -0.41251254 -0.18501127 0.41158599
v -0.41539264 -0.17483555 0.41199890
v -0.41502100 -0.16699795 0.41315901
v -0.35147345 -0.36148900 0.30864915
v -0.33279938 -0.34232312 0.21349898
v -0.31087363 -0.38075370 0.25939286
v -0.32127905 -0.37110490 0.25917655
v -0.34134674 -0.37117076 0.30882612
v 0.20308128 -0.46130317 0.31323069
v 0.20308128 -0.46130317 0.30853119
v 0.19992247 -0.44997486 0.26012039
v 0.18282782 -0.44128105 0.21349898
v -0.40498722 -0.17500021 0.41435850
v -0.39495337 -0.20500043 0.41382757
v -0.38491952 -0.21501149 0.41435850
v -0.36494482 -0.24501172 0.41437814
v 0.24312368 -0.38193923 0.41119272
v 0.24312368 -0.42195052 0.35298967
v 0.23736352 -0.42863551 0.34724802
v 0.24516760 -0.42507896 0.34520304
v 0.23067430 -0.43034792 0.35074806
v 0.22491413 -0.39744976 0.40781063
v 0.22491413 -0.40242237 0.40281618
v 0.21172151 -0.41088566 0.40120381
v 0.26514238 -0.42290550 0.32494995
v 0.25548017 -0.42837209 0.32589379
v 0.25250715 -0.43156639 0.32314092
v 0.23104592 -0.39066595 0.41046518
v 0.21859655 -0.39926097 0.40946233
v 0.19499847 -0.39497992 0.41437814
v 0.21497323 -0.38496888 0.41435850
v 0.20493940 -0.39497992 0.41380790
v 0.22491413 -0.39244425 0.41142866
v 0.23457634 -0.38516647 0.41186124
v 0.21515903 -0.39553976 0.41217586
v 0.24015069 -0.44009554 0.32025045
v 0.22249860 -0.45125920 0.31498072
v -0.35147345 -0.36148900 0.31291607
v -0.35556132 -0.35556141 0.31610152
v -0.35955626 -0.34960088 0.31930661
v -0.36773199 -0.33764690 0.32498926
v -0.36011368 -0.33013859 0.35019749
v -0.35091603 -0.30119216 0.40114480
v -0.36243635 -0.28502300 0.40246224
v -0.36578095 -0.27606574 0.40592298
v -0.35927755 -0.27916127 0.40952134
v -0.36187887 -0.27250919 0.41113371
v -0.37089074 -0.26137847 0.41060281
v -0.39235198 -0.22502255 0.41142866
v -0.37302756 -0.25502276 0.41154665
v -0.37581480 -0.24586794 0.41249049
v -0.38519824 -0.23473722 0.41190058
v -0.40275747 -0.20500043 0.41164497
v -0.40498722 -0.18501127 0.41376859
v -0.32174361 -0.35141209 0.21349898
v -0.30000365 -0.39004028 0.25996310
v -0.32034999 -0.39036959 0.30955365
v -0.34134674 -0.37117076 0.31240484
v 0.21497323 -0.45504627 0.31498072
v 0.20586845 -0.45896506 0.31592456
v 0.19982958 -0.45992005 0.31987685
v 0.18162003 -0.47065559 0.31167728
v 0.18162003 -0.47065559 0.30912107
v 0.17158622 -0.46057868 0.25939286
v 0.17493083 -0.44411314 0.21349898
v -0.39551079 -0.21514322 0.41217586
v -0.38491952 -0.22502255 0.41363093
v -0.37497860 -0.23500067 0.41420117
v -0.34497005 -0.27501196 0.41431916
v -0.33493620 -0.28502300 0.41437814
v 0.24042940 -0.43028206 0.34058219
v 0.23439053 -0.43156639 0.34435752
v 0.22435671 -0.43663776 0.34437719
v 0.21079245 -0.44039193 0.35078737
v 0.21515903 -0.40508980 0.40533307
v 0.20493940 -0.40772426 0.40802693
v 0.20493940 -0.41256514 0.40301281
v 0.19183968 -0.42086378 0.40124312
v 0.24275206 -0.43159932 0.33499783
v 0.21190733 -0.40097338 0.41070113
v 0.19871470 -0.40930498 0.40948200
v 0.14492224 -0.41496912 0.41437814
v 0.17493083 -0.40499097 0.41435850
v 0.18496464 -0.40499097 0.41382757
v 0.20493940 -0.40271875 0.41162530
v 0.23708481 -0.43851483 0.32691628
v 0.23420472 -0.44128105 0.32414377
v 0.22026885 -0.45013952 0.32030943
v -0.34552747 -0.36550659 0.31598353
v -0.34970826 -0.35974365 0.31956223
v -0.35686201 -0.33672482 0.34498674
v -0.35026568 -0.34024847 0.35041377
v -0.34134674 -0.31149960 0.40149873
v -0.34431970 -0.30425477 0.40464485
v -0.34785014 -0.29500112 0.40834153
v -0.35453933 -0.29427665 0.40291449
v -0.35556132 -0.28597802 0.40794829
v -0.34989405 -0.28996268 0.40997359
v -0.36513060 -0.26483625 0.41192025
v -0.34051055 -0.30066526 0.41036683
v -0.35258830 -0.28331059 0.41138935
v -0.35556132 -0.27550590 0.41239217
v -0.36494482 -0.25502276 0.41372925
v -0.29842424 -0.37057799 0.21349898
v -0.27659136 -0.38845956 0.21349898
v -0.27231771 -0.39195028 0.21349898
v -0.26534975 -0.39702165 0.21349898
v -0.27073830 -0.41049048 0.25953051
v -0.28030759 -0.42020515 0.30969131
v -0.32034999 -0.39036959 0.31083179
v -0.32462364 -0.38473836 0.31454811
v -0.33939570 -0.36949128 0.31907064
v 0.21422997 -0.45132506 0.32418308
v 0.20493940 -0.45530969 0.32498926
v 0.20047991 -0.45020539 0.34050354
v 0.19676368 -0.44869056 0.34716934
v 0.19499847 -0.45498040 0.33499783
v 0.17493083 -0.46769178 0.32481229
v 0.17149331 -0.47062266 0.32137126
v 0.17818253 -0.46927249 0.31832346
v 0.17493083 -0.47193992 0.31500039
v 0.16498990 -0.47546354 0.31498072
v 0.15244761 -0.48073250 0.31197223
v 0.15244761 -0.48073250 0.30900308
v 0.14185636 -0.47049093 0.25947151
v 0.16498990 -0.44714278 0.21349898
v -0.35491097 -0.26500088 0.41414219
v -0.33493620 -0.29500112 0.41355228
v -0.32499528 -0.30501217 0.41361129
v -0.31496149 -0.31502324 0.41367027
v -0.32499528 -0.29500112 0.41437814
v 0.21711005 -0.44855884 0.32697526
v 0.22435671 -0.44144571 0.33427030
v 0.20493940 -0.44180796 0.35297000
v 0.20428905 -0.44664884 0.34429854
v 0.20716913 -0.44865763 0.33716080
v 0.21042083 -0.45023832 0.33049497
v 0.18496464 -0.41760361 0.40788931
v 0.19527718 -0.41510084 0.40535274
v 0.19007446 -0.45004073 0.35007951
v 0.18496464 -0.42231274 0.40289485
v 0.16498990 -0.43136880 0.40177405
v 0.17056425 -0.43021619 0.40035829
v 0.19202548 -0.41101739 0.41072080
v 0.11491367 -0.42498016 0.41437814
v 0.12494750 -0.42498016 0.41420117
v 0.15495607 -0.41496912 0.41418150
v 0.16498990 -0.41496912 0.41335565
v 0.18496464 -0.41259807 0.41162530
v -0.34301901 -0.36283919 0.32498926
v -0.34097511 -0.36092919 0.33167475
v -0.33893114 -0.35901919 0.33834058
v -0.34032476 -0.35039124 0.35063007
v -0.33149868 -0.32164237 0.40161672
v -0.33447170 -0.31449634 0.40488082
v -0.33735174 -0.30735028 0.40816456
v -0.34283322 -0.29500112 0.41136968
v -0.33075547 -0.31080806 0.41044551
v -0.33437878 -0.30441943 0.41136968
v -0.26042575 -0.40024891 0.21349898
v -0.23998648 -0.43001863 0.25998276
v -0.26163352 -0.43100655 0.30886546
v -0.28030759 -0.42020515 0.31057614
v -0.29164213 -0.41121498 0.31266046
v -0.30260497 -0.40196133 0.31498072
v -0.30762190 -0.39817426 0.31498072
v -0.31505436 -0.39277357 0.31448913
v -0.31839895 -0.38869008 0.31747794
v -0.33753759 -0.36781177 0.32498926
v -0.32685339 -0.37723008 0.32498926
v 0.20428905 -0.45132506 0.33428997
v 0.17223655 -0.46090800 0.34199792
v 0.16833451 -0.45936024 0.34866375
v 0.16740546 -0.46910784 0.32803705
v 0.16443247 -0.47157767 0.32481229
v 0.14808105 -0.47941527 0.31861839
v 0.14482933 -0.48178631 0.31517735
v 0.13498132 -0.48471719 0.31498072
v 0.12104546 -0.49024960 0.31073347
v 0.12104546 -0.49024960 0.30961266
v 0.12624818 -0.45889920 0.21349898
v 0.13330902 -0.45675868 0.21349898
v 0.10943223 -0.47984338 0.26128054
v 0.10348625 -0.46574885 0.21349898
v 0.10497275 -0.46532077 0.21349898
v -0.32453078 -0.31449634 0.41146800
v -0.31449693 -0.32457325 0.41148764
v -0.30492765 -0.32500136 0.41365060
v -0.28495288 -0.33501241 0.41437814
v -0.29498672 -0.32500136 0.41437814
v 0.17781089 -0.41908550 0.40928537
v 0.16498990 -0.42669258 0.40678814
v 0.18496464 -0.45106161 0.35192785
v 0.16164529 -0.46061161 0.35129863
v 0.17530245 -0.45820764 0.34518337
v 0.15495607 -0.42860258 0.40885279
v 0.15495607 -0.43321294 0.40385833
v 0.14148474 -0.44045779 0.40071222
v 0.17112169 -0.42046860 0.41034719
v 0.07496418 -0.43499121 0.41437814
v 0.08499800 -0.43499121 0.41422084
v 0.09493893 -0.43499121 0.41374892
v 0.13498132 -0.42498016 0.41357195
v 0.15495607 -0.42359707 0.41199890
v 0.16498990 -0.42168707 0.41117305
v -0.33679432 -0.35704333 0.34498674
v -0.32508820 -0.36708730 0.34569460
v -0.33010513 -0.36010590 0.35017782
v -0.31143105 -0.34133518 0.40145943
v -0.32165068 -0.33171931 0.40173471
v -0.32462364 -0.32463911 0.40499881
v -0.32750374 -0.31749305 0.40828255
v -0.31756282 -0.32763585 0.40840054
v -0.32081455 -0.32095084 0.41052416
v -0.24500340 -0.40851462 0.21349898
v -0.22177695 -0.42092964 0.21349898
v -0.19594914 -0.43472779 0.21349898
v -0.18907411 -0.43831727 0.21349898
v -0.18786633 -0.43894297 0.21349898
v -0.22010465 -0.44002968 0.25994343
v -0.22307763 -0.45155555 0.30839354
v -0.24277367 -0.44151157 0.30841321
v -0.26163352 -0.43100655 0.31232616
v -0.27129573 -0.42079791 0.32160720
v -0.27789205 -0.41869032 0.31722230
v -0.28486001 -0.41496912 0.31494138
v -0.28950530 -0.40963429 0.31930661
v -0.29498672 -0.40736204 0.31559026
v -0.30065399 -0.40051237 0.32097799
v -0.31170976 -0.39139044 0.32262969
v -0.31505436 -0.38707647 0.32557917
v -0.31133813 -0.38114887 0.34211591
v -0.32183647 -0.38160992 0.32498926
v -0.32016420 -0.38012803 0.33025900
v -0.31802738 -0.37825093 0.33692482
v -0.31551892 -0.37545180 0.34579292
v 0.16498990 -0.46219230 0.34518337
v 0.16071624 -0.47026044 0.33059329
v 0.15495607 -0.47454149 0.32498926
v 0.14139183 -0.48043615 0.32101730
v 0.13498132 -0.48142406 0.32323924
v 0.12457588 -0.48781270 0.31443015
v 0.11491367 -0.48896527 0.31745827
v 0.11491367 -0.49090821 0.31248349
v 0.09493893 -0.49406961 0.31498072
v 0.07050470 -0.50006306 0.31020254
v 0.12596947 -0.48277426 0.32599211
v 0.07050470 -0.50006306 0.30988795
v 0.10274301 -0.48053491 0.25941253
v 0.09419568 -0.46821868 0.21349898
v -0.31087363 -0.33086309 0.41050449
v -0.30427730 -0.33451843 0.41133034
v -0.28495288 -0.34499052 0.41327700
v -0.29498672 -0.33501241 0.41347364
v -0.27491909 -0.34499052 0.41433883
v -0.24491049 -0.36497971 0.41437814
v 0.13117218 -0.47035921 0.35076773
v 0.13786140 -0.46933836 0.34852612
v 0.15495607 -0.46565008 0.34498674
v 0.14919591 -0.42968932 0.40979663
v 0.13498132 -0.43693414 0.40700445
v 0.13498132 -0.44144571 0.40200999
v 0.10989676 -0.44997486 0.39996502
v 0.00491320 -0.44496936 0.41386691
v 0.01494703 -0.44496936 0.41374892
v 0.02498086 -0.44496936 0.41361129
v -0.07498579 -0.43499121 0.41437814
v 0.08499800 -0.44319105 0.41203821
v 0.03492178 -0.44496936 0.41345397
v 0.04495560 -0.44496936 0.41311970
v 0.10497275 -0.43499121 0.41304106
v 0.12494750 -0.43337759 0.41201857
v 0.13498132 -0.43192863 0.41136968
v 0.14250669 -0.43077603 0.41060281
v -0.30910838 -0.37930474 0.34878173
v -0.29052722 -0.36046815 0.40061390
v -0.30102557 -0.35091811 0.40106615
v -0.30715740 -0.33748224 0.40812525
v -0.31449693 -0.33461723 0.40493980
v -0.30409151 -0.34420019 0.40460554
v -0.18712309 -0.43930519 0.21349898
v -0.19994408 -0.44997486 0.26012039
v -0.20310289 -0.46130317 0.31323069
v -0.23496957 -0.44493639 0.31498072
v -0.20310289 -0.46130317 0.30853119
v -0.24221623 -0.44121519 0.31498072
v -0.24723314 -0.43838313 0.31498072
v -0.25550175 -0.43331173 0.31537396
v -0.25921798 -0.42949173 0.31897235
v -0.25252879 -0.43156639 0.32314092
v -0.25550175 -0.42837209 0.32589379
v -0.26516396 -0.41292739 0.34496707
v -0.26860148 -0.40914032 0.34829015
v -0.27473325 -0.41216996 0.33440793
v -0.27473325 -0.41691205 0.32494995
v -0.28040051 -0.41032583 0.33067194
v -0.28244442 -0.41177478 0.32498926
v -0.29498672 -0.40281755 0.32459602
v -0.28746134 -0.40815237 0.32498926
v -0.28486001 -0.40489221 0.33484054
v -0.30948001 -0.38961217 0.32929552
v 0.15495607 -0.46894318 0.33761305
v 0.14269251 -0.47082025 0.34186029
v 0.13498132 -0.47921768 0.32825336
v 0.12996441 -0.47997510 0.32998371
v 0.11491367 -0.48580390 0.32498926
v 0.10850317 -0.48965684 0.31922796
v 0.10506566 -0.49183029 0.31553128
v 0.09493893 -0.49113876 0.32262969
v 0.08499800 -0.49588081 0.31498072
v 0.07431383 -0.49795547 0.31411552
v 0.07496418 -0.49357563 0.32498926
v 0.06493035 -0.49848238 0.31616050
v 0.05498943 -0.49914098 0.31787118
v 0.05498943 -0.50105101 0.31287673
v 0.12494750 -0.47467321 0.34498674
v 0.12327519 -0.48083133 0.33195004
v 0.11723632 -0.47938234 0.33861586
v 0.05498943 -0.50105101 0.30855083
v 0.04244715 -0.49024960 0.25972715
v 0.04904346 -0.48982149 0.26120189
v 0.08536962 -0.46966767 0.21349898
v -0.30046815 -0.34041309 0.41026855
v -0.28495288 -0.35203779 0.41107473
v -0.27547652 -0.35559434 0.41237250
v -0.25494432 -0.36497971 0.41374892
v -0.26497817 -0.35496867 0.41410285
v -0.23496957 -0.37499076 0.41418150
v -0.21499483 -0.38496888 0.41435850
v -0.19492717 -0.39497992 0.41437814
v 0.12494750 -0.47121543 0.35241944
v 0.12494750 -0.43838313 0.40865615
v 0.12494750 -0.44296056 0.40364203
v 0.11482076 -0.44368502 0.40574598
v 0.10320754 -0.45069936 0.40104651
v 0.08499800 -0.48063374 0.35135761
v 0.09047945 -0.48010683 0.35023680
v 0.00491320 -0.45228004 0.41168427
v -0.00493481 -0.44496936 0.41386691
v -0.11493528 -0.42498016 0.41437814
v -0.08492670 -0.43499121 0.41422084
v -0.03494338 -0.44496936 0.41345397
v -0.02490956 -0.44496936 0.41361129
v -0.01496864 -0.44496936 0.41374892
v 0.09493893 -0.44217020 0.41156632
v 0.07496418 -0.44404727 0.41217586
v 0.03492178 -0.45162141 0.41127136
v 0.04495560 -0.45116037 0.41093707
v 0.05498943 -0.45053470 0.41042584
v 0.06112121 -0.45013952 0.41011122
v 0.06771752 -0.44961262 0.40973765
v 0.07496418 -0.44905281 0.40928537
v 0.01494703 -0.45208246 0.41156632
v 0.02498086 -0.45185193 0.41142866
v 0.10497275 -0.44108346 0.41085842
v 0.11138325 -0.44035900 0.41030785
v 0.11807247 -0.43940398 0.40956065
v -0.29805261 -0.38855839 0.34730700
v -0.29136342 -0.39102820 0.35175088
v -0.30241919 -0.38190630 0.35283235
v -0.28495288 -0.36254281 0.40261954
v -0.28495288 -0.35704333 0.40763366
v -0.29359311 -0.35381606 0.40417296
v -0.28021473 -0.40015012 0.35031545
v -0.26163352 -0.38114887 0.40142012
v -0.27278221 -0.37205988 0.40222630
v -0.29665905 -0.34709811 0.40773198
v -0.28996980 -0.35002899 0.41001290
v -0.18284942 -0.44128105 0.21349898
v -0.17151491 -0.46057868 0.25939286
v -0.18154874 -0.47065559 0.30912107
v -0.18154874 -0.47065559 0.31167728
v -0.19985119 -0.45992005 0.31987685
v -0.20579715 -0.45896506 0.31592456
v -0.21499483 -0.45504627 0.31498072
v -0.22252020 -0.45125920 0.31498072
v -0.24017230 -0.44009554 0.32025045
v -0.24045101 -0.43028206 0.34058219
v -0.24983451 -0.41990876 0.34984356
v -0.27473325 -0.40673634 0.34496707
v -0.27789205 -0.40858048 0.33733776
v -0.26191223 -0.41118205 0.35206550
v -0.24983451 -0.38994148 0.39982739
v -0.29498672 -0.39712045 0.33539110
v 0.11426333 -0.48152286 0.33517480
v 0.09493893 -0.48577097 0.33499783
v 0.08815680 -0.48965684 0.32923651
v 0.08490510 -0.49183029 0.32553983
v 0.07496418 -0.48857009 0.33670855
v 0.06493035 -0.48922873 0.33820292
v 0.06493035 -0.49136925 0.33318883
v 0.05498943 -0.49614426 0.32498926
v 0.08146758 -0.49024960 0.33063260
v 0.04662791 -0.49963498 0.31912965
v 0.04393364 -0.50131446 0.31547228
v 0.03492178 -0.50210476 0.31498072
v 0.04495560 -0.50164378 0.30796096
v 0.11426333 -0.47760406 0.34416088
v 0.09716866 -0.47938234 0.34860477
v 0.03492178 -0.50200599 0.30762666
v 0.03492178 -0.49044719 0.25947151
v 0.00491320 -0.47757113 0.21349898
v 0.01346054 -0.47674787 0.21349898
v 0.02498086 -0.47562820 0.21349898
v -0.27241063 -0.36181831 0.41109440
v -0.26469940 -0.36507851 0.41190058
v -0.25494432 -0.37311369 0.41154665
v -0.24583955 -0.37591285 0.41247082
v -0.22493574 -0.38496888 0.41363093
v -0.20496100 -0.39497992 0.41380790
v -0.18498625 -0.40499097 0.41382757
v -0.17495243 -0.40499097 0.41435850
v -0.14494385 -0.41496912 0.41437814
v 0.09493893 -0.44717574 0.40724039
v 0.09493893 -0.45158848 0.40224594
v 0.08499800 -0.45264229 0.40342575
v 0.05108739 -0.46011764 0.40022063
v 0.07496418 -0.48142406 0.35293067
v 0.07496418 -0.48501354 0.34498674
v 0.08499800 -0.48343286 0.34498674
v 0.00491320 -0.45728558 0.40733871
v -0.00493481 -0.45228004 0.41168427
v -0.12496910 -0.42498016 0.41420117
v -0.09496053 -0.43499121 0.41374892
v -0.08492670 -0.44319105 0.41203821
v -0.04497721 -0.44496936 0.41311970
v -0.03494338 -0.45162141 0.41127136
v -0.02490956 -0.45185193 0.41142866
v -0.01496864 -0.45208246 0.41156632
v 0.08499800 -0.44819659 0.40843987
v 0.01494703 -0.45708799 0.40708309
v 0.02498086 -0.45685747 0.40680781
v 0.03492178 -0.45662695 0.40649319
v 0.04495560 -0.45616591 0.40582466
v 0.07496418 -0.45353144 0.40429091
v -0.29480094 -0.39251012 0.34437719
v -0.26795113 -0.36847040 0.40889210
v -0.27909982 -0.35934848 0.40954101
v -0.24323820 -0.39198321 0.40226561
v -0.25494432 -0.38332233 0.40350440
v -0.25494432 -0.37811923 0.40851849
v -0.26479232 -0.37482610 0.40515611
v -0.17597438 -0.44375089 0.21349898
v -0.17495243 -0.44411314 0.21349898
v -0.14178506 -0.47049093 0.25947151
v -0.15237631 -0.48073250 0.30900308
v -0.15237631 -0.48073250 0.31197223
v -0.16491860 -0.47546354 0.31498072
v -0.17485952 -0.47193992 0.31500039
v -0.17820413 -0.46927249 0.31832346
v -0.18563659 -0.45853695 0.33543041
v -0.19009607 -0.45004073 0.35007951
v -0.20050152 -0.45020539 0.34050354
v -0.20496100 -0.45530969 0.32498926
v -0.17151491 -0.47062266 0.32137126
v -0.21425158 -0.45132506 0.32418308
v -0.22029045 -0.45013952 0.32030943
v -0.23441213 -0.43156639 0.34435752
v -0.23738512 -0.42863551 0.34724802
v -0.24314529 -0.42195052 0.35298967
v -0.23116043 -0.40070996 0.40094817
v 0.08490510 -0.48804322 0.33436862
v 0.05099448 -0.49011788 0.34028724
v 0.04495560 -0.48833960 0.34610754
v 0.03993869 -0.49999720 0.31999481
v 0.02498086 -0.50253290 0.31498072
v 0.00491320 -0.50338912 0.31498072
v 0.00491320 -0.49252185 0.26501653
v 0.00491320 -0.50263166 0.30719408
v 0.02498086 -0.49064475 0.25927490
v 0.01494703 -0.49080944 0.25907826
v 0.00491320 -0.49097407 0.25890130
v -0.00493481 -0.47757113 0.21349898
v -0.26126194 -0.37094024 0.41062248
v -0.24314529 -0.38193923 0.41119272
v -0.23459795 -0.38516647 0.41186124
v -0.22493574 -0.39244425 0.41142866
v -0.21518064 -0.39553976 0.41217586
v -0.20496100 -0.40271875 0.41162530
v -0.18498625 -0.41259807 0.41162530
v -0.16491860 -0.41496912 0.41335565
v -0.15497768 -0.41496912 0.41418150
v 0.04495560 -0.46051282 0.40083021
v 0.06493035 -0.48208269 0.35391384
v 0.06493035 -0.48629785 0.34498674
v -0.00493481 -0.45728558 0.40733871
v 0.00491320 -0.46159953 0.40234429
v -0.13491003 -0.42498016 0.41357195
v -0.10499436 -0.43499121 0.41304106
v -0.07498579 -0.44905281 0.40928537
v -0.06773913 -0.44961262 0.40973765
v -0.06104992 -0.45013952 0.41011122
v -0.05491813 -0.45053470 0.41042584
v -0.04497721 -0.45116037 0.41093707
v -0.07498579 -0.44404727 0.41217586
v -0.12496910 -0.43337759 0.41201857
v -0.09496053 -0.44217020 0.41156632
v -0.03494338 -0.45662695 0.40649319
v -0.02490956 -0.45685747 0.40680781
v -0.01496864 -0.45708799 0.40708309
v 0.01494703 -0.46140194 0.40208864
v 0.02498086 -0.46120435 0.40179369
v 0.03492178 -0.46097386 0.40147910
v -0.23775674 -0.38859129 0.40893143
v -0.24983451 -0.37986457 0.40991461
v -0.16649799 -0.44668177 0.21349898
v -0.12784919 -0.45840523 0.21349898
v -0.11502819 -0.46229109 0.21349898
v -0.10499436 -0.46532077 0.21349898
v -0.10945383 -0.47984338 0.26128054
v -0.12106706 -0.49024960 0.30961266
v -0.12106706 -0.49024960 0.31073347
v -0.14485094 -0.48178631 0.31517735
v -0.14810266 -0.47941527 0.31861839
v -0.15544221 -0.47846025 0.31517735
v -0.16445407 -0.47157767 0.32481229
v -0.17225815 -0.46090800 0.34199792
v -0.18498625 -0.45106161 0.35192785
v -0.17058586 -0.43021619 0.40035829
v -0.19176838 -0.42086378 0.40124312
v -0.20496100 -0.44180796 0.35297000
v -0.19669238 -0.44869056 0.34716934
v -0.17532405 -0.45820764 0.34518337
v -0.16835612 -0.45936024 0.34866375
v -0.16166690 -0.46061161 0.35129863
v -0.20421775 -0.44664884 0.34429854
v -0.21044244 -0.45023832 0.33049497
v -0.16742706 -0.46910784 0.32803705
v -0.21713166 -0.44855884 0.32697526
v -0.21443740 -0.44161037 0.34437719
v -0.21741037 -0.43871242 0.34730700
v -0.23069590 -0.43034792 0.35074806
v -0.22493574 -0.40242237 0.40281618
v -0.22493574 -0.39744976 0.40781063
v -0.21174312 -0.41088566 0.40120381
v 0.05452490 -0.48797736 0.34418055
v 0.03492178 -0.48873478 0.34701204
v 0.02498086 -0.49426720 0.33499783
v 0.01494703 -0.49469531 0.33499783
v 0.01494703 -0.50052410 0.32125327
v 0.00491320 -0.50072169 0.32174486
v -0.00493481 -0.50338912 0.31498072
v -0.00493481 -0.49252185 0.26501653
v -0.00493481 -0.50263166 0.30719408
v -0.00493481 -0.49097407 0.25890130
v -0.01496864 -0.49080944 0.25907826
v -0.02490956 -0.49064475 0.25927490
v -0.03494338 -0.49044719 0.25947151
v -0.04237585 -0.49024960 0.25972715
v -0.01645513 -0.47645146 0.21349898
v -0.23106752 -0.39066595 0.41046518
v -0.21192893 -0.40097338 0.41070113
v -0.19204709 -0.41101739 0.41072080
v -0.17114329 -0.42046860 0.41034719
v -0.16491860 -0.42168707 0.41117305
v -0.15497768 -0.42359707 0.41199890
v -0.00493481 -0.46159953 0.40234429
v 0.00491320 -0.48936045 0.34850645
v -0.07498579 -0.45353144 0.40429091
v -0.04497721 -0.45616591 0.40582466
v -0.08492670 -0.44819659 0.40843987
v -0.13491003 -0.43192863 0.41136968
v -0.10499436 -0.44108346 0.41085842
v -0.03494338 -0.46097386 0.40147910
v -0.04497721 -0.46051282 0.40083021
v -0.02490956 -0.46120435 0.40179369
v -0.01496864 -0.46140194 0.40208864
v -0.21861815 -0.39926097 0.40946233
v -0.09421729 -0.46821868 0.21349898
v -0.10276462 -0.48053491 0.25941253
v -0.07052631 -0.50006306 0.30988795
v -0.12459748 -0.48781270 0.31443015
v -0.13491003 -0.48471719 0.31498072
v -0.07052631 -0.50006306 0.31020254
v -0.09496053 -0.49406961 0.31498072
v -0.11493528 -0.49090821 0.31248349
v -0.11493528 -0.48896527 0.31745827
v -0.12589817 -0.48277426 0.32599211
v -0.13491003 -0.48142406 0.32323924
v -0.14141344 -0.48043615 0.32101730
v -0.15497768 -0.47454149 0.32498926
v -0.16073784 -0.47026044 0.33059329
v -0.14150634 -0.44045779 0.40071222
v -0.16491860 -0.43136880 0.40177405
v -0.18498625 -0.42231274 0.40289485
v -0.20496100 -0.40772426 0.40802693
v -0.20496100 -0.41256514 0.40301281
v -0.21072116 -0.44039193 0.35078737
v -0.18498625 -0.41760361 0.40788931
v -0.16501151 -0.46219230 0.34518337
v -0.15497768 -0.46565008 0.34498674
v -0.13119379 -0.47035921 0.35076773
v -0.21425158 -0.44651711 0.33428997
v -0.21518064 -0.40508980 0.40533307
v 0.02498086 -0.49107289 0.34250918
v 0.00491320 -0.49861410 0.32673931
v -0.00493481 -0.50072169 0.32174486
v -0.01496864 -0.50052410 0.32125327
v -0.03996030 -0.49999720 0.31999481
v -0.01496864 -0.50296104 0.31498072
v -0.04497721 -0.50164378 0.30796096
v -0.03494338 -0.50200599 0.30762666
v -0.02490956 -0.47562820 0.21349898
v -0.05491813 -0.50105101 0.30855083
v -0.04906506 -0.48982149 0.26120189
v -0.08492670 -0.46970057 0.21349898
v -0.08111757 -0.47009575 0.21349898
v -0.19864340 -0.40930498 0.40948200
v -0.17783250 -0.41908550 0.40928537
v -0.15497768 -0.42860258 0.40885279
v -0.14921752 -0.42968932 0.40979663
v -0.14252830 -0.43077603 0.41060281
v -0.00493481 -0.48936045 0.34850645
v -0.08492670 -0.45264229 0.40342575
v -0.05110899 -0.46011764 0.40022063
v -0.11140486 -0.44035900 0.41030785
v -0.09496053 -0.44717574 0.40724039
v -0.03494338 -0.48873478 0.34701204
v -0.06495196 -0.48208269 0.35391384
v -0.04497721 -0.48833960 0.34610754
v -0.08669192 -0.46943715 0.21349898
v -0.05491813 -0.50105101 0.31287673
v -0.05491813 -0.49914098 0.31787118
v -0.06495196 -0.49848238 0.31616050
v -0.07498579 -0.49357563 0.32498926
v -0.07424254 -0.49795547 0.31411552
v -0.08492670 -0.49588081 0.31498072
v -0.09496053 -0.49113876 0.32262969
v -0.10508727 -0.49183029 0.31553128
v -0.10852478 -0.48965684 0.31922796
v -0.11493528 -0.48580390 0.32498926
v -0.12496910 -0.47467321 0.34498674
v -0.12989311 -0.47997510 0.32998371
v -0.12329680 -0.48083133 0.33195004
v -0.13491003 -0.47921768 0.32825336
v -0.15497768 -0.46894318 0.33761305
v -0.13491003 -0.44144571 0.40200999
v -0.15497768 -0.43321294 0.40385833
v -0.10991836 -0.44997486 0.39996502
v -0.16491860 -0.42669258 0.40678814
v -0.14559419 -0.46848214 0.34510472
v -0.12496910 -0.47121543 0.35241944
v -0.00493481 -0.49861410 0.32673931
v -0.01496864 -0.49469531 0.33499783
v -0.03494338 -0.49383909 0.33499783
v -0.04664952 -0.49963498 0.31912965
v -0.04395525 -0.50131446 0.31547228
v -0.03494338 -0.50210476 0.31498072
v -0.13491003 -0.43693414 0.40700445
v -0.12496910 -0.43838313 0.40865615
v -0.11809408 -0.43940398 0.40956065
v -0.09496053 -0.45158848 0.40224594
v -0.08492670 -0.48063374 0.35135761
v -0.07498579 -0.48142406 0.35293067
v -0.11484237 -0.44368502 0.40574598
v -0.10322915 -0.45069936 0.40104651
v -0.05454651 -0.48797736 0.34418055
v -0.05092318 -0.49011788 0.34028724
v -0.06495196 -0.48629785 0.34498674
v -0.05491813 -0.49614426 0.32498926
v -0.06495196 -0.49136925 0.33320850
v -0.07498579 -0.48857009 0.33670855
v -0.08148919 -0.49024960 0.33063260
v -0.08483380 -0.49183029 0.32553983
v -0.08817841 -0.48965684 0.32923651
v -0.09050106 -0.48010683 0.35023680
v -0.09496053 -0.48577097 0.33499783
v -0.11428494 -0.48152286 0.33517480
v -0.11716501 -0.47938234 0.33861586
v -0.11428494 -0.47760406 0.34416088
v -0.12496910 -0.44296056 0.40364203
v -0.09719027 -0.47938234 0.34860477
v -0.08492670 -0.48343286 0.34498674
v -0.07498579 -0.48501354 0.34498674
v -0.05761240 -0.48968977 0.33930409
v -0.06495196 -0.48922873 0.33820292
v -0.08483380 -0.48804322 0.33436862
f 1 2 3
f 1 3 4
f 1 4 5
f 1 5 6
f 1 6 16
f 1 16 30
f 1 30 34
f 1 34 56
f 1 56 90
f 1 90 123
f 1 123 158
f 1 158 200
f 1 200 253
f 1 253 298
f 1 298 351
f 1 351 350
f 1 350 423
f 1 423 422
f 1 422 421
f 1 421 420
f 1 420 484
f 1 484 546
f 1 546 498
f 1 498 432
f 1 432 370
f 1 370 369
f 1 369 308
f 1 308 266
f 1 266 216
f 1 216 168
f 1 168 136
f 1 136 98
f 1 98 96
f 1 96 66
f 1 66 40
f 1 40 38
f 1 38 19
f 1 19 7
f 1 7 8
f 1 8 9
f 1 9 2
f 2 9 3
f 3 9 10
f 3 10 11
f 3 11 12
f 3 12 13
f 3 13 14
f 3 14 17
f 3 17 4
f 4 15 16
f 4 16 5
f 4 17 18
f 4 18 15
f 5 16 6
f 7 19 8
f 8 19 20
f 8 20 9
f 9 20 21
f 9 21 10
f 10 21 22
f 10 22 23
f 10 23 11
f 11 23 12
f 12 23 24
f 12 24 13
f 13 24 25
f 13 25 26
f 13 26 14
f 14 26 25
f 14 25 27
f 14 27 28
f 14 28 29
f 14 29 36
f 14 36 17
f 15 30 16
f 15 18 31
f 15 31 32
f 15 32 33
f 15 33 34
f 15 34 30
f 17 35 18
f 17 36 37
f 17 37 35
f 18 35 31
f 19 38 39
f 19 39 20
f 20 39 38
f 20 38 40
f 20 40 41
f 20 41 21
f 21 41 42
f 21 42 43
f 21 43 22
f 22 44 23
f 22 43 45
f 22 45 44
f 23 44 24
f 24 44 25
f 25 46 47
f 25 47 48
f 25 48 27
f 25 44 46
f 27 48 49
f 27 49 50
f 27 50 51
f 27 51 28
f 28 51 52
f 28 52 29
f 29 52 53
f 29 53 54
f 29 54 64
f 29 64 36
f 31 35 55
f 31 55 59
f 31 59 58
f 31 58 57
f 31 57 63
f 31 63 62
f 31 62 61
f 31 61 60
f 31 60 91
f 31 91 95
f 31 95 126
f 31 126 125
f 31 125 131
f 31 131 130
f 31 130 129
f 31 129 128
f 31 128 165
f 31 165 213
f 31 213 261
f 31 261 306
f 31 306 367
f 31 367 366
f 31 366 365
f 31 365 364
f 31 364 363
f 31 363 430
f 31 430 497
f 31 497 496
f 31 496 495
f 31 495 494
f 31 494 555
f 31 555 608
f 31 608 669
f 31 669 725
f 31 725 724
f 31 724 728
f 31 728 727
f 31 727 793
f 31 793 865
f 31 865 947
f 31 947 946
f 31 946 945
f 31 945 1016
f 31 1016 1093
f 31 1093 1146
f 31 1146 1150
f 31 1150 1149
f 31 1149 1164
f 31 1164 1112
f 31 1112 1052
f 31 1052 1051
f 31 1051 1050
f 31 1050 1049
f 31 1049 987
f 31 987 986
f 31 986 912
f 31 912 824
f 31 824 762
f 31 762 761
f 31 761 760
f 31 760 759
f 31 759 758
f 31 758 703
f 31 703 650
f 31 650 649
f 31 649 648
f 31 648 647
f 31 647 598
f 31 598 548
f 31 548 488
f 31 488 427
f 31 427 360
f 31 360 359
f 31 359 358
f 31 358 357
f 31 357 356
f 31 356 353
f 31 353 299
f 31 299 256
f 31 256 209
f 31 209 208
f 31 208 207
f 31 207 206
f 31 206 205
f 31 205 204
f 31 204 203
f 31 203 160
f 31 160 120
f 31 120 118
f 31 118 88
f 31 88 56
f 31 56 34
f 31 34 33
f 31 33 32
f 35 57 58
f 35 58 59
f 35 59 55
f 35 37 60
f 35 60 61
f 35 61 62
f 35 62 63
f 35 63 57
f 36 64 65
f 36 65 37
f 37 65 60
f 40 66 67
f 40 67 41
f 41 67 68
f 41 68 42
f 42 68 45
f 42 45 43
f 44 45 69
f 44 69 70
f 44 70 46
f 45 71 69
f 45 68 72
f 45 72 73
f 45 73 71
f 46 71 74
f 46 74 47
f 46 70 69
f 46 69 71
f 47 49 48
f 47 74 75
f 47 75 49
f 49 75 76
f 49 76 77
f 49 77 78
f 49 78 79
f 49 79 50
f 50 79 51
f 51 79 52
f 52 79 80
f 52 80 81
f 52 81 82
f 52 82 83
f 52 83 53
f 53 83 84
f 53 84 85
f 53 85 54
f 54 85 111
f 54 111 86
f 54 86 87
f 54 87 92
f 54 92 64
f 56 88 89
f 56 89 90
f 60 65 91
f 64 92 93
f 64 93 94
f 64 94 65
f 65 94 95
f 65 95 91
f 66 96 72
f 66 72 67
f 67 72 68
f 71 76 74
f 71 73 97
f 71 97 76
f 72 96 98
f 72 98 99
f 72 99 100
f 72 100 73
f 73 100 101
f 73 101 97
f 74 76 75
f 76 80 77
f 76 97 102
f 76 102 80
f 77 80 78
f 78 80 79
f 80 103 81
f 80 102 104
f 80 104 105
f 80 105 103
f 81 103 105
f 81 105 106
f 81 106 107
f 81 107 108
f 81 108 82
f 82 109 84
f 82 84 83
f 82 108 110
f 82 110 109
f 84 109 110
f 84 110 111
f 84 111 85
f 86 111 112
f 86 112 113
f 86 113 87
f 87 114 115
f 87 115 116
f 87 116 117
f 87 117 124
f 87 124 92
f 87 113 114
f 88 118 89
f 89 119 90
f 89 118 120
f 89 120 121
f 89 121 119
f 90 119 122
f 90 122 123
f 92 94 93
f 92 124 94
f 94 125 126
f 94 126 95
f 94 124 127
f 94 127 128
f 94 128 129
f 94 129 130
f 94 130 131
f 94 131 125
f 97 101 132
f 97 132 133
f 97 133 134
f 97 134 135
f 97 135 102
f 98 136 137
f 98 137 99
f 99 137 100
f 100 137 138
f 100 138 101
f 101 139 132
f 101 138 139
f 102 135 140
f 102 140 141
f 102 141 142
f 102 142 104
f 104 143 144
f 104 144 105
f 104 142 145
f 104 145 143
f 105 144 106
f 106 144 146
f 106 146 108
f 106 108 107
f 108 146 147
f 108 147 110
f 110 147 111
f 111 147 148
f 111 148 149
f 111 149 112
f 112 149 113
f 113 149 115
f 113 115 114
f 115 149 116
f 116 150 151
f 116 151 152
f 116 152 153
f 116 153 154
f 116 154 155
f 116 155 117
f 116 149 156
f 116 156 150
f 117 155 162
f 117 162 124
f 119 157 158
f 119 158 122
f 119 121 159
f 119 159 193
f 119 193 157
f 120 160 161
f 120 161 121
f 121 161 159
f 122 158 123
f 124 162 163
f 124 163 164
f 124 164 127
f 127 164 165
f 127 165 128
f 132 139 133
f 133 166 140
f 133 140 134
f 133 139 167
f 133 167 166
f 134 140 135
f 136 168 169
f 136 169 137
f 137 169 170
f 137 170 139
f 137 139 138
f 139 170 167
f 140 142 141
f 140 166 171
f 140 171 172
f 140 172 173
f 140 173 174
f 140 174 142
f 142 174 145
f 143 145 175
f 143 175 176
f 143 176 152
f 143 152 177
f 143 177 178
f 143 178 179
f 143 179 147
f 143 147 180
f 143 180 144
f 144 180 147
f 144 147 146
f 145 174 173
f 145 173 181
f 145 181 182
f 145 182 175
f 147 179 149
f 147 149 148
f 149 179 178
f 149 178 156
f 150 183 151
f 150 156 183
f 151 177 152
f 151 183 156
f 151 156 178
f 151 178 177
f 152 184 153
f 152 176 185
f 152 185 186
f 152 186 187
f 152 187 184
f 153 184 187
f 153 187 188
f 153 188 189
f 153 189 154
f 154 190 155
f 154 189 191
f 154 191 192
f 154 192 190
f 155 190 210
f 155 210 162
f 157 193 194
f 157 194 195
f 157 195 196
f 157 196 197
f 157 197 198
f 157 198 199
f 157 199 200
f 157 200 158
f 159 161 201
f 159 201 202
f 159 202 240
f 159 240 193
f 160 203 161
f 161 203 204
f 161 204 205
f 161 205 206
f 161 206 207
f 161 207 208
f 161 208 209
f 161 209 201
f 162 210 211
f 162 211 212
f 162 212 163
f 163 212 213
f 163 213 164
f 164 213 165
f 166 167 214
f 166 214 171
f 167 170 215
f 167 215 214
f 168 216 217
f 168 217 169
f 169 217 170
f 170 217 215
f 171 218 219
f 171 219 220
f 171 220 221
f 171 221 172
f 171 214 218
f 172 221 181
f 172 181 173
f 175 182 176
f 176 182 222
f 176 222 185
f 181 221 223
f 181 223 224
f 181 224 225
f 181 225 182
f 182 225 222
f 185 226 227
f 185 227 228
f 185 228 186
f 185 222 226
f 186 229 187
f 186 228 230
f 186 230 231
f 186 231 232
f 186 232 229
f 187 229 233
f 187 233 188
f 188 233 189
f 189 233 191
f 190 192 234
f 190 234 257
f 190 257 210
f 191 233 229
f 191 229 235
f 191 235 236
f 191 236 237
f 191 237 238
f 191 238 239
f 191 239 234
f 191 234 192
f 193 240 241
f 193 241 242
f 193 242 243
f 193 243 244
f 193 244 194
f 194 244 245
f 194 245 246
f 194 246 195
f 195 246 247
f 195 247 196
f 196 247 197
f 197 248 198
f 197 247 249
f 197 249 250
f 197 250 251
f 197 251 248
f 198 248 252
f 198 252 199
f 199 252 200
f 200 252 253
f 201 209 254
f 201 254 202
f 202 254 255
f 202 255 284
f 202 284 240
f 209 256 254
f 210 257 211
f 211 257 258
f 211 258 213
f 211 213 212
f 213 258 259
f 213 259 260
f 213 260 261
f 214 215 262
f 214 262 263
f 214 263 218
f 215 264 265
f 215 265 262
f 215 217 264
f 216 266 217
f 217 266 264
f 218 263 219
f 219 263 267
f 219 267 268
f 219 268 220
f 220 268 223
f 220 223 221
f 222 225 226
f 223 268 269
f 223 269 270
f 223 270 271
f 223 271 272
f 223 272 224
f 224 272 227
f 224 227 273
f 224 273 226
f 224 226 225
f 226 273 227
f 227 272 271
f 227 271 228
f 228 271 230
f 229 232 274
f 229 274 275
f 229 275 235
f 230 271 276
f 230 276 277
f 230 277 231
f 231 277 232
f 232 277 278
f 232 278 274
f 234 239 279
f 234 279 303
f 234 303 257
f 235 280 238
f 235 238 236
f 235 275 281
f 235 281 280
f 236 238 237
f 238 279 239
f 238 280 282
f 238 282 283
f 238 283 279
f 240 284 285
f 240 285 286
f 240 286 241
f 241 286 242
f 242 287 243
f 242 286 288
f 242 288 287
f 243 287 289
f 243 289 290
f 243 290 245
f 243 245 244
f 245 291 247
f 245 247 246
f 245 290 292
f 245 292 291
f 247 291 293
f 247 293 294
f 247 294 249
f 248 295 252
f 248 251 296
f 248 296 295
f 249 294 250
f 250 297 251
f 250 294 297
f 251 297 296
f 252 295 298
f 252 298 253
f 254 256 299
f 254 299 300
f 254 300 255
f 255 300 301
f 255 301 302
f 255 302 332
f 255 332 284
f 257 303 259
f 257 259 258
f 259 303 260
f 260 303 304
f 260 304 305
f 260 305 261
f 261 305 306
f 262 265 263
f 263 307 267
f 263 265 307
f 264 266 308
f 264 308 309
f 264 309 265
f 265 309 310
f 265 310 311
f 265 311 307
f 267 307 312
f 267 312 313
f 267 313 269
f 267 269 268
f 269 313 314
f 269 314 270
f 270 314 271
f 271 314 315
f 271 315 276
f 274 278 316
f 274 316 317
f 274 317 318
f 274 318 275
f 275 318 319
f 275 319 320
f 275 320 321
f 275 321 281
f 276 322 323
f 276 323 324
f 276 324 277
f 276 315 322
f 277 324 316
f 277 316 278
f 279 283 325
f 279 325 326
f 279 326 304
f 279 304 303
f 280 281 327
f 280 327 282
f 281 321 328
f 281 328 329
f 281 329 327
f 282 327 329
f 282 329 330
f 282 330 283
f 283 330 331
f 283 331 325
f 284 332 333
f 284 333 406
f 284 406 334
f 284 334 285
f 285 334 335
f 285 335 286
f 286 335 336
f 286 336 337
f 286 337 338
f 286 338 288
f 287 290 289
f 287 288 337
f 287 337 339
f 287 339 340
f 287 340 341
f 287 341 342
f 287 342 290
f 288 338 337
f 290 343 292
f 290 342 344
f 290 344 343
f 291 292 345
f 291 345 293
f 292 343 346
f 292 346 345
f 293 345 346
f 293 346 294
f 294 346 347
f 294 347 348
f 294 348 349
f 294 349 297
f 295 350 351
f 295 351 298
f 295 296 352
f 295 352 350
f 296 297 349
f 296 349 352
f 299 353 300
f 300 354 355
f 300 355 302
f 300 302 301
f 300 353 356
f 300 356 357
f 300 357 358
f 300 358 359
f 300 359 360
f 300 360 354
f 302 355 400
f 302 400 332
f 304 326 398
f 304 398 361
f 304 361 305
f 305 361 362
f 305 362 363
f 305 363 364
f 305 364 365
f 305 365 366
f 305 366 367
f 305 367 306
f 307 311 368
f 307 368 371
f 307 371 312
f 308 369 309
f 309 369 370
f 309 370 310
f 310 370 432
f 310 432 499
f 310 499 559
f 310 559 613
f 310 613 674
f 310 674 733
f 310 733 732
f 310 732 799
f 310 799 873
f 310 873 956
f 310 956 883
f 310 883 810
f 310 810 743
f 310 743 688
f 310 688 625
f 310 625 573
f 310 573 512
f 310 512 449
f 310 449 448
f 310 448 447
f 310 447 431
f 310 431 368
f 310 368 311
f 312 371 313
f 313 315 314
f 313 371 372
f 313 372 322
f 313 322 315
f 316 324 373
f 316 373 374
f 316 374 317
f 317 374 375
f 317 375 376
f 317 376 318
f 318 376 319
f 319 377 378
f 319 378 379
f 319 379 320
f 319 376 375
f 319 375 380
f 319 380 381
f 319 381 382
f 319 382 377
f 320 383 384
f 320 384 385
f 320 385 321
f 320 379 378
f 320 378 386
f 320 386 387
f 320 387 383
f 321 385 328
f 322 372 388
f 322 388 323
f 323 388 389
f 323 389 390
f 323 390 391
f 323 391 392
f 323 392 324
f 324 392 393
f 324 393 373
f 325 331 326
f 326 331 384
f 326 384 394
f 326 394 395
f 326 395 396
f 326 396 397
f 326 397 398
f 328 385 329
f 329 385 330
f 330 385 331
f 331 385 399
f 331 399 384
f 332 400 401
f 332 401 402
f 332 402 403
f 332 403 404
f 332 404 333
f 333 404 405
f 333 405 406
f 334 406 335
f 335 407 336
f 335 406 408
f 335 408 407
f 336 409 337
f 336 407 410
f 336 410 411
f 336 411 412
f 336 412 413
f 336 413 409
f 337 341 339
f 337 409 413
f 337 413 414
f 337 414 415
f 337 415 341
f 339 341 340
f 341 346 343
f 341 343 344
f 341 344 342
f 341 415 416
f 341 416 346
f 346 416 347
f 347 417 418
f 347 418 348
f 347 416 417
f 348 418 419
f 348 419 420
f 348 420 421
f 348 421 422
f 348 422 352
f 348 352 349
f 350 352 423
f 352 422 423
f 354 424 355
f 354 360 424
f 355 424 425
f 355 425 426
f 355 426 458
f 355 458 400
f 360 427 424
f 361 398 457
f 361 457 428
f 361 428 429
f 361 429 362
f 362 430 363
f 362 429 430
f 368 431 371
f 371 431 388
f 371 388 372
f 373 393 374
f 374 393 433
f 374 433 434
f 374 434 375
f 375 434 435
f 375 435 380
f 377 436 387
f 377 387 386
f 377 386 378
f 377 382 437
f 377 437 438
f 377 438 439
f 377 439 436
f 380 435 381
f 381 435 440
f 381 440 382
f 382 440 441
f 382 441 442
f 382 442 443
f 382 443 437
f 383 444 384
f 383 387 444
f 384 444 445
f 384 445 446
f 384 446 396
f 384 396 395
f 384 395 394
f 384 399 385
f 387 436 444
f 388 431 447
f 388 447 448
f 388 448 449
f 388 449 389
f 389 449 450
f 389 450 390
f 390 450 391
f 391 451 393
f 391 393 392
f 391 450 452
f 391 452 453
f 391 453 451
f 393 451 433
f 396 446 397
f 397 446 454
f 397 454 455
f 397 455 398
f 398 455 456
f 398 456 457
f 400 458 459
f 400 459 460
f 400 460 401
f 401 460 402
f 402 461 462
f 402 462 463
f 402 463 464
f 402 464 465
f 402 465 466
f 402 466 406
f 402 406 405
f 402 405 404
f 402 404 403
f 402 460 467
f 402 467 461
f 406 466 465
f 406 465 468
f 406 468 408
f 407 408 411
f 407 411 410
f 408 468 411
f 411 468 469
f 411 469 412
f 412 469 470
f 412 470 413
f 413 470 414
f 414 471 415
f 414 470 472
f 414 472 473
f 414 473 471
f 415 471 474
f 415 474 475
f 415 475 476
f 415 476 416
f 416 476 477
f 416 477 478
f 416 478 479
f 416 479 417
f 417 480 418
f 417 479 481
f 417 481 480
f 418 480 482
f 418 482 419
f 419 482 420
f 420 482 483
f 420 483 484
f 424 427 425
f 425 485 426
f 425 427 485
f 426 485 486
f 426 486 487
f 426 487 521
f 426 521 458
f 427 488 489
f 427 489 490
f 427 490 486
f 427 486 485
f 428 457 491
f 428 491 429
f 429 491 492
f 429 492 493
f 429 493 494
f 429 494 495
f 429 495 496
f 429 496 497
f 429 497 430
f 432 498 556
f 432 556 499
f 433 500 501
f 433 501 502
f 433 502 434
f 433 451 500
f 434 502 435
f 435 502 441
f 435 441 440
f 436 439 438
f 436 438 503
f 436 503 456
f 436 456 504
f 436 504 454
f 436 454 444
f 437 505 506
f 437 506 438
f 437 443 507
f 437 507 505
f 438 506 505
f 438 505 508
f 438 508 509
f 438 509 503
f 441 502 510
f 441 510 511
f 441 511 442
f 442 511 443
f 443 511 507
f 444 454 445
f 445 454 446
f 449 512 450
f 450 512 513
f 450 513 452
f 451 453 500
f 452 513 453
f 453 501 500
f 453 513 514
f 453 514 515
f 453 515 501
f 454 504 455
f 455 504 456
f 456 503 516
f 456 516 509
f 456 509 517
f 456 517 457
f 457 517 518
f 457 518 519
f 457 519 520
f 457 520 491
f 458 521 582
f 458 582 522
f 458 522 523
f 458 523 459
f 459 523 460
f 460 524 467
f 460 523 525
f 460 525 526
f 460 526 527
f 460 527 528
f 460 528 529
f 460 529 524
f 461 463 462
f 461 467 524
f 461 524 530
f 461 530 463
f 463 472 464
f 463 530 472
f 464 472 465
f 465 472 531
f 465 531 468
f 468 531 469
f 469 531 532
f 469 532 470
f 470 532 472
f 471 475 474
f 471 473 533
f 471 533 475
f 472 530 529
f 472 529 534
f 472 534 535
f 472 535 473
f 472 532 531
f 473 535 536
f 473 536 537
f 473 537 533
f 475 538 539
f 475 539 477
f 475 477 476
f 475 533 537
f 475 537 540
f 475 540 541
f 475 541 538
f 477 539 478
f 478 539 479
f 479 539 481
f 480 481 482
f 481 539 542
f 481 542 543
f 481 543 483
f 481 483 482
f 483 543 544
f 483 544 484
f 484 544 545
f 484 545 546
f 486 490 547
f 486 547 487
f 487 547 581
f 487 581 521
f 488 548 549
f 488 549 550
f 488 550 489
f 489 551 547
f 489 547 490
f 489 550 549
f 489 549 551
f 491 520 552
f 491 552 492
f 492 552 553
f 492 553 554
f 492 554 493
f 493 554 494
f 494 554 555
f 498 546 556
f 499 556 557
f 499 557 558
f 499 558 559
f 501 515 560
f 501 560 502
f 502 560 510
f 503 509 516
f 505 507 561
f 505 561 562
f 505 562 563
f 505 563 508
f 507 564 562
f 507 562 561
f 507 511 565
f 507 565 566
f 507 566 567
f 507 567 564
f 508 568 509
f 508 563 569
f 508 569 568
f 509 568 570
f 509 570 517
f 510 560 571
f 510 571 511
f 511 571 572
f 511 572 565
f 512 573 574
f 512 574 513
f 513 574 575
f 513 575 514
f 514 576 577
f 514 577 515
f 514 575 578
f 514 578 576
f 515 577 560
f 517 570 519
f 517 519 518
f 519 570 579
f 519 579 520
f 520 579 580
f 520 580 552
f 521 581 582
f 522 583 523
f 522 582 633
f 522 633 583
f 523 583 584
f 523 584 525
f 524 529 530
f 525 584 526
f 526 584 527
f 527 529 528
f 527 584 585
f 527 585 529
f 529 585 586
f 529 586 534
f 534 587 536
f 534 536 535
f 534 586 587
f 536 587 588
f 536 588 537
f 537 588 589
f 537 589 590
f 537 590 591
f 537 591 540
f 538 592 542
f 538 542 539
f 538 541 592
f 540 591 541
f 541 591 593
f 541 593 594
f 541 594 595
f 541 595 592
f 542 596 543
f 542 592 596
f 543 596 544
f 544 546 545
f 544 596 597
f 544 597 546
f 546 597 556
f 547 551 601
f 547 601 581
f 548 598 599
f 548 599 549
f 549 600 551
f 549 599 600
f 551 600 653
f 551 653 601
f 552 580 602
f 552 602 603
f 552 603 604
f 552 604 605
f 552 605 606
f 552 606 553
f 553 606 554
f 554 606 607
f 554 607 555
f 555 607 608
f 556 597 557
f 557 597 596
f 557 596 609
f 557 609 610
f 557 610 611
f 557 611 558
f 558 611 559
f 559 611 612
f 559 612 613
f 560 577 576
f 560 576 571
f 562 614 563
f 562 564 615
f 562 615 614
f 563 614 570
f 563 570 569
f 564 616 615
f 564 567 617
f 564 617 616
f 565 572 566
f 566 572 618
f 566 618 567
f 567 618 619
f 567 619 620
f 567 620 621
f 567 621 617
f 568 569 570
f 570 614 622
f 570 622 579
f 571 576 623
f 571 623 572
f 572 623 687
f 572 687 624
f 572 624 619
f 572 619 618
f 573 625 626
f 573 626 627
f 573 627 575
f 573 575 574
f 575 628 578
f 575 627 628
f 576 578 628
f 576 628 623
f 579 622 614
f 579 614 629
f 579 629 630
f 579 630 631
f 579 631 580
f 580 631 602
f 581 601 632
f 581 632 633
f 581 633 582
f 583 633 584
f 584 633 634
f 584 634 585
f 585 634 635
f 585 635 636
f 585 636 586
f 586 636 637
f 586 637 638
f 586 638 639
f 586 639 587
f 587 639 588
f 588 639 589
f 589 639 640
f 589 640 638
f 589 638 641
f 589 641 590
f 590 642 593
f 590 593 591
f 590 641 643
f 590 643 644
f 590 644 645
f 590 645 642
f 592 595 609
f 592 609 596
f 593 642 594
f 594 610 595
f 594 642 646
f 594 646 610
f 595 610 609
f 598 647 599
f 599 647 648
f 599 648 649
f 599 649 650
f 599 650 651
f 599 651 652
f 599 652 600
f 600 652 706
f 600 706 653
f 601 653 654
f 601 654 655
f 601 655 632
f 602 656 603
f 602 631 656
f 603 656 657
f 603 657 604
f 604 657 658
f 604 658 659
f 604 659 660
f 604 660 661
f 604 661 662
f 604 662 663
f 604 663 605
f 605 663 664
f 605 664 665
f 605 665 666
f 605 666 667
f 605 667 606
f 606 667 607
f 607 667 668
f 607 668 608
f 608 668 669
f 610 646 611
f 611 646 670
f 611 670 612
f 612 670 671
f 612 671 672
f 612 672 673
f 612 673 613
f 613 673 674
f 614 615 629
f 615 616 629
f 616 675 676
f 616 676 629
f 616 617 675
f 617 621 677
f 617 677 659
f 617 659 678
f 617 678 679
f 617 679 680
f 617 680 675
f 619 624 681
f 619 681 682
f 619 682 621
f 619 621 620
f 621 683 659
f 621 659 677
f 621 682 681
f 621 681 684
f 621 684 685
f 621 685 686
f 621 686 683
f 623 628 687
f 624 687 681
f 625 688 689
f 625 689 626
f 626 689 690
f 626 690 627
f 627 690 691
f 627 691 692
f 627 692 628
f 628 692 687
f 629 676 631
f 629 631 630
f 631 676 675
f 631 675 680
f 631 680 656
f 632 655 633
f 633 655 693
f 633 693 694
f 633 694 695
f 633 695 696
f 633 696 635
f 633 635 634
f 635 696 697
f 635 697 636
f 636 698 699
f 636 699 637
f 636 697 754
f 636 754 698
f 637 699 643
f 637 643 638
f 638 640 639
f 638 643 641
f 642 645 646
f 643 700 644
f 643 699 701
f 643 701 702
f 643 702 700
f 644 700 645
f 645 700 671
f 645 671 646
f 646 671 670
f 650 703 651
f 651 703 704
f 651 704 652
f 652 704 705
f 652 705 766
f 652 766 706
f 653 706 707
f 653 707 708
f 653 708 709
f 653 709 710
f 653 710 711
f 653 711 654
f 654 711 655
f 655 712 695
f 655 695 694
f 655 694 693
f 655 711 713
f 655 713 712
f 656 680 657
f 657 714 658
f 657 680 714
f 658 714 679
f 658 679 678
f 658 678 659
f 659 683 715
f 659 715 660
f 660 715 661
f 661 715 662
f 662 715 716
f 662 716 717
f 662 717 718
f 662 718 665
f 662 665 664
f 662 664 663
f 665 718 719
f 665 719 666
f 666 719 720
f 666 720 721
f 666 721 722
f 666 722 723
f 666 723 667
f 667 723 668
f 668 724 725
f 668 725 669
f 668 723 726
f 668 726 727
f 668 727 728
f 668 728 724
f 671 700 702
f 671 702 729
f 671 729 672
f 672 729 673
f 673 729 730
f 673 730 731
f 673 731 732
f 673 732 733
f 673 733 674
f 679 714 680
f 681 734 735
f 681 735 684
f 681 687 734
f 683 686 736
f 683 736 737
f 683 737 716
f 683 716 738
f 683 738 715
f 684 735 685
f 685 735 739
f 685 739 740
f 685 740 741
f 685 741 686
f 686 741 737
f 686 737 736
f 687 692 742
f 687 742 734
f 688 743 744
f 688 744 689
f 689 744 745
f 689 745 746
f 689 746 690
f 690 746 691
f 691 746 747
f 691 747 692
f 692 747 748
f 692 748 742
f 695 749 696
f 695 712 750
f 695 750 751
f 695 751 749
f 696 749 751
f 696 751 752
f 696 752 753
f 696 753 697
f 697 753 754
f 698 754 755
f 698 755 699
f 699 755 701
f 701 755 756
f 701 756 757
f 701 757 729
f 701 729 702
f 703 758 704
f 704 759 760
f 704 760 761
f 704 761 762
f 704 762 763
f 704 763 764
f 704 764 765
f 704 765 705
f 704 758 759
f 705 765 766
f 706 766 767
f 706 767 768
f 706 768 769
f 706 769 707
f 707 769 770
f 707 770 771
f 707 771 708
f 708 771 772
f 708 772 773
f 708 773 709
f 709 773 710
f 710 773 711
f 711 773 774
f 711 774 775
f 711 775 776
f 711 776 713
f 712 713 750
f 713 776 777
f 713 777 778
f 713 778 779
f 713 779 750
f 715 738 716
f 716 737 780
f 716 780 717
f 717 780 737
f 717 737 781
f 717 781 718
f 718 781 782
f 718 782 719
f 719 782 783
f 719 783 720
f 720 783 784
f 720 784 721
f 721 784 785
f 721 785 722
f 722 786 787
f 722 787 788
f 722 788 789
f 722 789 791
f 722 791 723
f 722 785 790
f 722 790 786
f 723 791 726
f 726 791 792
f 726 792 793
f 726 793 727
f 729 757 730
f 730 794 795
f 730 795 796
f 730 796 797
f 730 797 731
f 730 757 794
f 731 797 798
f 731 798 732
f 732 798 799
f 734 742 739
f 734 739 735
f 737 741 800
f 737 800 801
f 737 801 802
f 737 802 781
f 739 803 740
f 739 742 803
f 740 803 804
f 740 804 805
f 740 805 741
f 741 805 806
f 741 806 800
f 742 748 803
f 743 807 808
f 743 808 809
f 743 809 744
f 743 810 882
f 743 882 807
f 744 811 745
f 744 809 812
f 744 812 813
f 744 813 811
f 745 811 814
f 745 814 746
f 746 814 815
f 746 815 747
f 747 815 816
f 747 816 748
f 748 816 817
f 748 817 803
f 750 779 751
f 751 779 818
f 751 818 819
f 751 819 820
f 751 820 752
f 752 821 822
f 752 822 753
f 752 820 823
f 752 823 821
f 753 822 756
f 753 756 754
f 754 756 755
f 756 822 821
f 756 821 794
f 756 794 757
f 762 824 825
f 762 825 763
f 763 825 764
f 764 826 827
f 764 827 765
f 764 825 828
f 764 828 826
f 765 827 829
f 765 829 766
f 766 829 830
f 766 830 831
f 766 831 832
f 766 832 767
f 767 832 833
f 767 833 834
f 767 834 835
f 767 835 836
f 767 836 837
f 767 837 838
f 767 838 768
f 768 839 840
f 768 840 769
f 768 838 839
f 769 840 770
f 770 841 772
f 770 772 771
f 770 840 839
f 770 839 842
f 770 842 843
f 770 843 841
f 772 841 844
f 772 844 773
f 773 844 774
f 774 844 775
f 775 779 778
f 775 778 777
f 775 777 776
f 775 844 818
f 775 818 779
f 781 802 845
f 781 845 782
f 782 845 846
f 782 846 847
f 782 847 784
f 782 784 783
f 784 847 848
f 784 848 790
f 784 790 785
f 786 849 850
f 786 850 787
f 786 790 849
f 787 850 851
f 787 851 788
f 788 852 853
f 788 853 789
f 788 851 852
f 789 853 854
f 789 854 855
f 789 855 856
f 789 856 857
f 789 857 858
f 789 858 862
f 789 862 791
f 790 848 859
f 790 859 860
f 790 860 861
f 790 861 849
f 791 862 863
f 791 863 864
f 791 864 792
f 792 864 865
f 792 865 793
f 794 821 866
f 794 866 867
f 794 867 795
f 795 867 796
f 796 867 868
f 796 868 869
f 796 869 870
f 796 870 798
f 796 798 797
f 798 870 871
f 798 871 799
f 799 871 872
f 799 872 873
f 800 848 801
f 800 806 874
f 800 874 859
f 800 859 848
f 801 848 847
f 801 847 846
f 801 846 845
f 801 845 802
f 803 817 875
f 803 875 804
f 804 875 876
f 804 876 805
f 805 876 806
f 806 876 877
f 806 877 878
f 806 878 879
f 806 879 880
f 806 880 874
f 807 881 808
f 807 882 965
f 807 965 881
f 808 881 809
f 809 881 812
f 810 883 884
f 810 884 885
f 810 885 886
f 810 886 887
f 810 887 882
f 811 888 815
f 811 815 814
f 811 813 889
f 811 889 890
f 811 890 891
f 811 891 892
f 811 892 893
f 811 893 894
f 811 894 895
f 811 895 888
f 812 881 896
f 812 896 897
f 812 897 890
f 812 890 813
f 813 890 889
f 815 888 898
f 815 898 816
f 816 898 899
f 816 899 817
f 817 899 900
f 817 900 875
f 818 844 901
f 818 901 902
f 818 902 903
f 818 903 819
f 819 904 905
f 819 905 906
f 819 906 820
f 819 903 902
f 819 902 907
f 819 907 908
f 819 908 909
f 819 909 904
f 820 906 910
f 820 910 823
f 821 823 910
f 821 910 911
f 821 911 866
f 824 912 825
f 825 912 913
f 825 913 914
f 825 914 828
f 826 915 916
f 826 916 917
f 826 917 918
f 826 918 919
f 826 919 827
f 826 828 914
f 826 914 915
f 827 920 829
f 827 919 920
f 829 920 830
f 830 833 832
f 830 832 831
f 830 920 833
f 833 920 921
f 833 921 834
f 834 921 922
f 834 922 835
f 835 922 836
f 836 923 924
f 836 924 839
f 836 839 837
f 836 922 925
f 836 925 926
f 836 926 908
f 836 908 907
f 836 907 923
f 837 839 838
f 839 924 907
f 839 907 843
f 839 843 842
f 841 843 927
f 841 927 844
f 843 907 927
f 844 927 901
f 849 861 928
f 849 928 929
f 849 929 852
f 849 852 850
f 850 852 851
f 852 929 880
f 852 880 930
f 852 930 931
f 852 931 853
f 853 931 854
f 854 931 855
f 855 932 933
f 855 933 934
f 855 934 935
f 855 935 857
f 855 857 856
f 855 931 936
f 855 936 932
f 857 935 937
f 857 937 858
f 858 937 938
f 858 938 939
f 858 939 940
f 858 940 862
f 859 874 941
f 859 941 861
f 859 861 860
f 861 941 942
f 861 942 928
f 862 940 863
f 863 940 943
f 863 943 944
f 863 944 945
f 863 945 946
f 863 946 947
f 863 947 865
f 863 865 864
f 866 911 867
f 867 911 948
f 867 948 868
f 868 948 949
f 868 949 869
f 869 949 950
f 869 950 951
f 869 951 952
f 869 952 871
f 869 871 870
f 871 952 953
f 871 953 872
f 872 953 954
f 872 954 873
f 873 954 955
f 873 955 956
f 874 880 942
f 874 942 941
f 875 900 876
f 876 900 877
f 877 900 899
f 877 899 957
f 877 957 878
f 878 957 958
f 878 958 879
f 879 959 960
f 879 960 961
f 879 961 962
f 879 962 963
f 879 963 880
f 879 958 959
f 880 963 930
f 880 929 942
f 881 964 896
f 881 965 1029
f 881 1029 964
f 882 887 965
f 883 956 966
f 883 966 884
f 884 966 967
f 884 967 968
f 884 968 969
f 884 969 885
f 885 969 970
f 885 970 971
f 885 971 972
f 885 972 965
f 885 965 886
f 886 965 887
f 888 895 973
f 888 973 898
f 890 897 964
f 890 964 974
f 890 974 975
f 890 975 976
f 890 976 891
f 891 976 977
f 891 977 892
f 892 977 893
f 893 977 894
f 894 977 895
f 895 977 978
f 895 978 973
f 896 964 897
f 898 973 899
f 899 973 957
f 901 927 979
f 901 979 907
f 901 907 902
f 904 909 980
f 904 980 905
f 905 980 981
f 905 981 911
f 905 911 910
f 905 910 906
f 907 979 927
f 907 924 923
f 908 926 982
f 908 982 983
f 908 983 984
f 908 984 985
f 908 985 909
f 909 985 980
f 911 981 948
f 912 986 913
f 913 986 987
f 913 987 988
f 913 988 989
f 913 989 914
f 914 989 990
f 914 990 915
f 915 990 991
f 915 991 992
f 915 992 993
f 915 993 916
f 916 994 995
f 916 995 996
f 916 996 997
f 916 997 917
f 916 993 998
f 916 998 994
f 917 997 999
f 917 999 918
f 918 1000 919
f 918 999 1000
f 919 1000 920
f 920 1000 1001
f 920 1001 921
f 921 1001 1002
f 921 1002 922
f 922 1002 1003
f 922 1003 1004
f 922 1004 925
f 925 1004 926
f 926 1004 982
f 928 942 929
f 930 963 1005
f 930 1005 931
f 931 1005 936
f 932 936 962
f 932 962 933
f 933 1006 935
f 933 935 934
f 933 962 1006
f 935 1006 937
f 936 1005 963
f 936 963 962
f 937 1006 1007
f 937 1007 1008
f 937 1008 938
f 938 1008 939
f 939 1008 1009
f 939 1009 940
f 940 1009 1010
f 940 1010 943
f 943 1011 944
f 943 1010 1012
f 943 1012 1011
f 944 1011 1013
f 944 1013 945
f 945 1013 1014
f 945 1014 1015
f 945 1015 1088
f 945 1088 1016
f 948 1017 950
f 948 950 949
f 948 981 1017
f 950 1017 1018
f 950 1018 951
f 951 1018 1019
f 951 1019 952
f 952 1019 1020
f 952 1020 1021
f 952 1021 953
f 953 1021 1022
f 953 1022 954
f 954 1023 1024
f 954 1024 1025
f 954 1025 955
f 954 1022 1023
f 955 1025 966
f 955 966 956
f 957 973 959
f 957 959 958
f 959 973 978
f 959 978 960
f 960 1026 1027
f 960 1027 961
f 960 978 1026
f 961 1027 1007
f 961 1007 1028
f 961 1028 962
f 962 1028 1006
f 964 1029 1100
f 964 1100 1030
f 964 1030 1044
f 964 1044 974
f 965 972 1029
f 966 1025 1031
f 966 1031 967
f 967 1032 968
f 967 1031 1032
f 968 1033 1034
f 968 1034 1035
f 968 1035 1036
f 968 1036 1037
f 968 1037 970
f 968 970 1038
f 968 1038 969
f 968 1032 1039
f 968 1039 1040
f 968 1040 1033
f 969 1038 970
f 970 1037 1041
f 970 1041 1042
f 970 1042 1043
f 970 1043 1029
f 970 1029 971
f 971 1029 972
f 974 1044 1045
f 974 1045 975
f 975 1045 1046
f 975 1046 976
f 976 1046 1026
f 976 1026 977
f 977 1026 978
f 980 985 984
f 980 984 1017
f 980 1017 981
f 982 1004 1047
f 982 1047 983
f 983 1047 984
f 984 1048 1017
f 984 1047 1048
f 987 1049 988
f 988 1049 1050
f 988 1050 1051
f 988 1051 1052
f 988 1052 1053
f 988 1053 1054
f 988 1054 989
f 989 1054 1055
f 989 1055 990
f 990 1055 1056
f 990 1056 1057
f 990 1057 1058
f 990 1058 991
f 991 1058 1059
f 991 1059 998
f 991 998 992
f 992 998 993
f 994 998 1060
f 994 1060 995
f 995 1061 1062
f 995 1062 1063
f 995 1063 1064
f 995 1064 1065
f 995 1065 996
f 995 1060 1066
f 995 1066 1067
f 995 1067 1068
f 995 1068 1061
f 996 1065 1069
f 996 1069 1070
f 996 1070 997
f 997 1070 999
f 998 1059 1071
f 998 1071 1067
f 998 1067 1060
f 999 1070 1000
f 1000 1070 1072
f 1000 1072 1001
f 1001 1072 1073
f 1001 1073 1074
f 1001 1074 1075
f 1001 1075 1002
f 1002 1075 1004
f 1002 1004 1003
f 1004 1076 1077
f 1004 1077 1047
f 1004 1075 1078
f 1004 1078 1076
f 1006 1028 1079
f 1006 1079 1007
f 1007 1079 1028
f 1007 1027 1026
f 1007 1026 1080
f 1007 1080 1008
f 1008 1080 1081
f 1008 1081 1082
f 1008 1082 1083
f 1008 1083 1010
f 1008 1010 1009
f 1010 1083 1084
f 1010 1084 1140
f 1010 1140 1085
f 1010 1085 1087
f 1010 1087 1012
f 1011 1015 1014
f 1011 1014 1013
f 1011 1012 1087
f 1011 1087 1086
f 1011 1086 1088
f 1011 1088 1015
f 1016 1088 1089
f 1016 1089 1090
f 1016 1090 1091
f 1016 1091 1092
f 1016 1092 1093
f 1017 1048 1018
f 1018 1094 1020
f 1018 1020 1019
f 1018 1048 1094
f 1020 1094 1095
f 1020 1095 1022
f 1020 1022 1021
f 1022 1095 1096
f 1022 1096 1023
f 1023 1097 1098
f 1023 1098 1099
f 1023 1099 1024
f 1023 1096 1097
f 1024 1099 1031
f 1024 1031 1025
f 1026 1046 1080
f 1029 1043 1110
f 1029 1110 1100
f 1030 1100 1156
f 1030 1156 1101
f 1030 1101 1044
f 1031 1039 1032
f 1031 1099 1039
f 1033 1102 1103
f 1033 1103 1034
f 1033 1040 1104
f 1033 1104 1102
f 1034 1103 1035
f 1035 1103 1036
f 1036 1103 1037
f 1037 1103 1041
f 1039 1099 1105
f 1039 1105 1106
f 1039 1106 1040
f 1040 1106 1104
f 1041 1107 1109
f 1041 1109 1042
f 1041 1103 1108
f 1041 1108 1107
f 1042 1109 1043
f 1043 1109 1110
f 1044 1101 1045
f 1045 1101 1046
f 1046 1101 1080
f 1047 1077 1111
f 1047 1111 1094
f 1047 1094 1048
f 1052 1112 1053
f 1053 1112 1113
f 1053 1113 1114
f 1053 1114 1054
f 1054 1114 1117
f 1054 1117 1055
f 1055 1115 1116
f 1055 1116 1056
f 1055 1117 1118
f 1055 1118 1119
f 1055 1119 1120
f 1055 1120 1121
f 1055 1121 1115
f 1056 1116 1122
f 1056 1122 1123
f 1056 1123 1057
f 1057 1123 1124
f 1057 1124 1059
f 1057 1059 1058
f 1059 1124 1125
f 1059 1125 1071
f 1060 1067 1066
f 1061 1068 1062
f 1062 1068 1126
f 1062 1126 1127
f 1062 1127 1128
f 1062 1128 1063
f 1063 1129 1130
f 1063 1130 1078
f 1063 1078 1131
f 1063 1131 1064
f 1063 1128 1132
f 1063 1132 1129
f 1064 1131 1065
f 1065 1131 1069
f 1067 1071 1133
f 1067 1133 1068
f 1068 1133 1071
f 1068 1071 1125
f 1068 1125 1134
f 1068 1134 1135
f 1068 1135 1126
f 1069 1131 1070
f 1070 1131 1073
f 1070 1073 1136
f 1070 1136 1072
f 1072 1136 1073
f 1073 1131 1074
f 1074 1131 1075
f 1075 1131 1078
f 1076 1137 1111
f 1076 1111 1077
f 1076 1078 1137
f 1078 1130 1129
f 1078 1129 1137
f 1080 1101 1138
f 1080 1138 1082
f 1080 1082 1081
f 1082 1138 1101
f 1082 1101 1139
f 1082 1139 1083
f 1083 1139 1084
f 1084 1139 1186
f 1084 1186 1140
f 1085 1140 1141
f 1085 1141 1142
f 1085 1142 1143
f 1085 1143 1144
f 1085 1144 1145
f 1085 1145 1087
f 1086 1087 1145
f 1086 1145 1091
f 1086 1091 1090
f 1086 1090 1089
f 1086 1089 1088
f 1091 1145 1092
f 1092 1146 1093
f 1092 1145 1144
f 1092 1144 1147
f 1092 1147 1114
f 1092 1114 1148
f 1092 1148 1149
f 1092 1149 1150
f 1092 1150 1146
f 1094 1111 1095
f 1095 1111 1096
f 1096 1111 1151
f 1096 1151 1132
f 1096 1132 1152
f 1096 1152 1097
f 1097 1152 1153
f 1097 1153 1154
f 1097 1154 1098
f 1098 1154 1155
f 1098 1155 1099
f 1099 1155 1105
f 1100 1110 1156
f 1101 1156 1186
f 1101 1186 1139
f 1102 1104 1157
f 1102 1157 1158
f 1102 1158 1108
f 1102 1108 1103
f 1104 1106 1159
f 1104 1159 1160
f 1104 1160 1157
f 1105 1155 1159
f 1105 1159 1106
f 1107 1108 1161
f 1107 1161 1156
f 1107 1156 1109
f 1108 1158 1162
f 1108 1162 1163
f 1108 1163 1161
f 1109 1156 1110
f 1111 1137 1129
f 1111 1129 1151
f 1112 1164 1148
f 1112 1148 1113
f 1113 1148 1114
f 1114 1147 1165
f 1114 1165 1117
f 1115 1121 1122
f 1115 1122 1116
f 1117 1165 1166
f 1117 1166 1167
f 1117 1167 1168
f 1117 1168 1169
f 1117 1169 1170
f 1117 1170 1118
f 1118 1171 1172
f 1118 1172 1119
f 1118 1170 1171
f 1119 1172 1173
f 1119 1173 1120
f 1120 1173 1174
f 1120 1174 1121
f 1121 1175 1176
f 1121 1176 1122
f 1121 1174 1177
f 1121 1177 1175
f 1122 1176 1123
f 1123 1176 1178
f 1123 1178 1124
f 1124 1179 1125
f 1124 1178 1179
f 1125 1179 1134
f 1126 1180 1181
f 1126 1181 1127
f 1126 1135 1182
f 1126 1182 1180
f 1127 1183 1128
f 1127 1181 1153
f 1127 1153 1183
f 1128 1183 1132
f 1129 1132 1151
f 1132 1183 1152
f 1134 1179 1184
f 1134 1184 1135
f 1135 1184 1178
f 1135 1178 1176
f 1135 1176 1175
f 1135 1175 1185
f 1135 1185 1182
f 1140 1186 1141
f 1141 1186 1187
f 1141 1187 1142
f 1142 1188 1161
f 1142 1161 1163
f 1142 1163 1189
f 1142 1189 1190
f 1142 1190 1191
f 1142 1191 1143
f 1142 1187 1188
f 1143 1191 1144
f 1144 1191 1165
f 1144 1165 1147
f 1148 1164 1149
f 1152 1183 1153
f 1153 1181 1154
f 1154 1181 1192
f 1154 1192 1193
f 1154 1193 1155
f 1155 1193 1194
f 1155 1194 1159
f 1156 1161 1187
f 1156 1187 1186
f 1157 1160 1195
f 1157 1195 1158
f 1158 1195 1196
f 1158 1196 1197
f 1158 1197 1162
f 1159 1194 1198
f 1159 1198 1160
f 1160 1198 1199
f 1160 1199 1195
f 1161 1188 1187
f 1162 1197 1163
f 1163 1200 1201
f 1163 1201 1189
f 1163 1197 1202
f 1163 1202 1200
f 1165 1191 1190
f 1165 1190 1189
f 1165 1189 1166
f 1166 1189 1203
f 1166 1203 1168
f 1166 1168 1167
f 1168 1204 1205
f 1168 1205 1206
f 1168 1206 1207
f 1168 1207 1169
f 1168 1203 1204
f 1169 1207 1170
f 1170 1207 1171
f 1171 1173 1172
f 1171 1207 1208
f 1171 1208 1209
f 1171 1209 1210
f 1171 1210 1174
f 1171 1174 1173
f 1174 1210 1211
f 1174 1211 1212
f 1174 1212 1177
f 1175 1177 1212
f 1175 1212 1213
f 1175 1213 1185
f 1178 1184 1179
f 1180 1214 1192
f 1180 1192 1181
f 1180 1182 1214
f 1182 1209 1196
f 1182 1196 1199
f 1182 1199 1198
f 1182 1198 1214
f 1182 1185 1209
f 1185 1213 1215
f 1185 1215 1209
f 1189 1201 1203
f 1192 1214 1193
f 1193 1214 1194
f 1194 1214 1198
f 1195 1199 1196
f 1196 1209 1216
f 1196 1216 1217
f 1196 1217 1197
f 1197 1217 1202
f 1200 1218 1201
f 1200 1202 1219
f 1200 1219 1218
f 1201 1218 1204
f 1201 1204 1203
f 1202 1217 1219
f 1204 1219 1205
f 1204 1218 1219
f 1205 1219 1217
f 1205 1217 1206
f 1206 1216 1220
f 1206 1220 1208
f 1206 1208 1207
f 1206 1217 1216
f 1208 1220 1216
f 1208 1216 1209
f 1209 1215 1210
f 1210 1215 1211
f 1211 1213 1212
f 1211 1215 1213

