# https://github.com/mikedh/trimesh
v -0.35154447 -0.15840608 -0.41437808
v -0.07491643 -0.38498056 -0.41431662
v -0.10498852 -0.37498277 -0.41431662
v -0.13497268 -0.36498502 -0.41431662
v -0.21498907 -0.32499394 -0.41431662
v -0.26493335 -0.28500286 -0.41431662
v -0.28498140 -0.26500732 -0.41431662
v -0.32498959 -0.21501845 -0.41431662
v -0.35497376 -0.15840608 -0.41431662
v 0.34494972 -0.15840608 -0.41437808
v -0.00492408 -0.39497831 -0.41364056
v -0.07491643 -0.39251012 -0.41216552
v -0.08494046 -0.38498056 -0.41382495
v -0.14499672 -0.36498502 -0.41419369
v 0.07491643 -0.38498056 -0.41431662
v -0.16495684 -0.35498723 -0.41419369
v -0.20496503 -0.33499169 -0.41394785
v -0.23494919 -0.31502739 -0.41376349
v -0.24497321 -0.30502963 -0.41407079
v -0.25499725 -0.29500061 -0.41425517
v -0.27574876 -0.28578392 -0.41259575
v -0.28568485 -0.27578616 -0.41259575
v -0.29491749 -0.25500953 -0.41425517
v -0.30494153 -0.24501178 -0.41407079
v -0.31496558 -0.23501399 -0.41376349
v -0.33492571 -0.20502070 -0.41394785
v -0.35497376 -0.16502962 -0.41419369
v -0.36262366 -0.15840608 -0.41296449
v 0.35497376 -0.15840608 -0.41431662
v 0.32498959 -0.21501845 -0.41431662
v 0.28498140 -0.26500732 -0.41431662
v 0.26493335 -0.28500286 -0.41431662
v 0.21498907 -0.32499394 -0.41431662
v 0.13497268 -0.36498502 -0.41431662
v 0.10498852 -0.37498277 -0.41431662
v -0.00492408 -0.40128940 -0.41142800
v 0.00492408 -0.39497831 -0.41364056
v -0.08494046 -0.39163530 -0.41161236
v -0.01494811 -0.40082076 -0.41099778
v -0.02497214 -0.40032089 -0.41044462
v -0.03059967 -0.40003967 -0.41007587
v -0.11492462 -0.38201246 -0.41185820
v -0.14499672 -0.37238961 -0.41198114
v -0.16495684 -0.36320415 -0.41198114
v 0.14499672 -0.36498502 -0.41419369
v 0.08494046 -0.38498056 -0.41382495
v 0.07491643 -0.39251012 -0.41216552
v -0.21498907 -0.33530414 -0.41228843
v -0.22492516 -0.32499394 -0.41333327
v -0.25490931 -0.30509213 -0.41234991
v -0.26528507 -0.29540679 -0.41253427
v -0.27293497 -0.29231372 -0.41142800
v -0.28287110 -0.28297204 -0.41142800
v -0.29227960 -0.27297428 -0.41142800
v -0.29535717 -0.26535100 -0.41253427
v -0.30502948 -0.25494707 -0.41234991
v -0.32498959 -0.22501624 -0.41333327
v -0.33527741 -0.21501845 -0.41228843
v -0.36315125 -0.16502962 -0.41198114
v -0.36499777 -0.15840608 -0.41234991
v 0.36499777 -0.15840608 -0.41234991
v 0.35497376 -0.16502962 -0.41419369
v 0.33492571 -0.20502070 -0.41394785
v 0.31496558 -0.23501399 -0.41376349
v 0.30494153 -0.24501178 -0.41407079
v 0.29491749 -0.25500953 -0.41425517
v 0.28568485 -0.27578616 -0.41259575
v 0.27574876 -0.28578392 -0.41259575
v 0.25499725 -0.29500061 -0.41425517
v 0.24497321 -0.30502963 -0.41407079
v 0.23494919 -0.31502739 -0.41376349
v 0.20496503 -0.33499169 -0.41394785
v 0.16495684 -0.35498723 -0.41419369
v -0.00492408 -0.40322649 -0.40497467
v 0.00492408 -0.40128940 -0.41142800
v -0.07491643 -0.39594686 -0.40497467
v -0.09206280 -0.39063555 -0.41075194
v -0.12310212 -0.38091895 -0.41099778
v -0.02497214 -0.40128940 -0.40497467
v -0.03438066 -0.40038335 -0.40466738
v -0.06498034 -0.39857125 -0.39495668
v -0.15282249 -0.37120238 -0.41118217
v -0.17243090 -0.36129832 -0.41118217
v -0.20496503 -0.34242755 -0.41173530
v 0.16495684 -0.36320415 -0.41198114
v 0.14499672 -0.37238961 -0.41198114
v 0.11492462 -0.38201246 -0.41185820
v 0.08494046 -0.39163530 -0.41161236
v 0.03059967 -0.40003967 -0.41007587
v 0.02497214 -0.40032089 -0.41044462
v 0.01494811 -0.40082076 -0.41099778
v -0.21164772 -0.34086537 -0.41087484
v -0.22492516 -0.33167994 -0.41112068
v -0.24444564 -0.31477746 -0.41191968
v -0.26220751 -0.30184284 -0.41136652
v -0.27952975 -0.28962681 -0.40835500
v -0.28955376 -0.27962905 -0.40835500
v -0.30177605 -0.26225793 -0.41136652
v -0.31470177 -0.24451187 -0.41191968
v -0.32437408 -0.23407671 -0.41130507
v -0.33167228 -0.22501624 -0.41112068
v -0.34081700 -0.21167545 -0.41087484
v -0.34239975 -0.20502070 -0.41173530
v -0.36130473 -0.17252794 -0.41118217
v -0.36992186 -0.15840608 -0.40903103
v 0.36842707 -0.15840608 -0.40970710
v 0.36957017 -0.15959331 -0.40853935
v 0.36315125 -0.16502962 -0.41198114
v 0.33527741 -0.21501845 -0.41228843
v 0.32498959 -0.22501624 -0.41333327
v 0.30502948 -0.25494707 -0.41234991
v 0.29535717 -0.26535100 -0.41253427
v 0.29227960 -0.27297428 -0.41142800
v 0.28287110 -0.28297204 -0.41142800
v 0.27293497 -0.29231372 -0.41142800
v 0.26528507 -0.29540679 -0.41253427
v 0.22492516 -0.32499394 -0.41333327
v 0.25490931 -0.30509213 -0.41234991
v 0.21498907 -0.33530414 -0.41228843
v 0.00492408 -0.40322649 -0.40497467
v -0.00123102 -0.41009995 -0.35095119
v -0.00492408 -0.40566343 -0.38493866
v -0.07491643 -0.39747775 -0.39495668
v -0.08494046 -0.39400977 -0.40497467
v -0.12978481 -0.37985671 -0.40952274
v -0.02497214 -0.40250790 -0.39495668
v -0.04484434 -0.40053958 -0.39507958
v -0.04141507 -0.40013343 -0.40116414
v -0.03499617 -0.40513229 -0.36496410
v -0.06840961 -0.43984330 -0.04875156
v -0.07491643 -0.41200578 -0.27498642
v -0.07535608 -0.40953755 -0.29514536
v -0.06955270 -0.39994597 -0.37965310
v -0.15950517 -0.36964023 -0.40853935
v -0.19203931 -0.35108185 -0.41105923
v 0.17243090 -0.36129832 -0.41118217
v 0.15282249 -0.37120238 -0.41118217
v 0.20496503 -0.34242755 -0.41173530
v 0.12310212 -0.38091895 -0.41099778
v 0.09206280 -0.39063555 -0.41075194
v 0.07491643 -0.39594686 -0.40497467
v 0.06498034 -0.39857125 -0.39495668
v 0.03438066 -0.40038335 -0.40466738
v 0.02497214 -0.40128940 -0.40497467
v -0.21305460 -0.34164646 -0.40497467
v -0.21806662 -0.33880335 -0.40497467
v -0.23002510 -0.33008653 -0.41007587
v -0.23398195 -0.32440031 -0.41130507
v -0.25148004 -0.31127822 -0.41105923
v -0.28032112 -0.29028291 -0.40171728
v -0.24075258 -0.32065114 -0.41062900
v -0.29025722 -0.28034765 -0.40171728
v -0.33000162 -0.23010884 -0.41007587
v -0.32059309 -0.24085644 -0.41062900
v -0.31118459 -0.25154155 -0.41105923
v -0.33879462 -0.21814276 -0.40497467
v -0.34160838 -0.21314389 -0.40497467
v -0.36957017 -0.15959331 -0.40853935
v -0.35101691 -0.19208607 -0.41105923
v -0.37027359 -0.15840608 -0.40749454
v 0.37027359 -0.15840608 -0.40749454
v 0.37097704 -0.15840608 -0.40331525
v 0.37018567 -0.16049936 -0.40190166
v 0.36763570 -0.16431102 -0.40509760
v 0.35198414 -0.19380444 -0.40497467
v 0.34160838 -0.21314389 -0.40497467
v 0.34081700 -0.21167545 -0.41087484
v 0.36130473 -0.17252794 -0.41118217
v 0.34239975 -0.20502070 -0.41173530
v 0.33167228 -0.22501624 -0.41112068
v 0.32437408 -0.23407671 -0.41130507
v 0.31470177 -0.24451187 -0.41191968
v 0.30177605 -0.26225793 -0.41136652
v 0.28955376 -0.27962905 -0.40835500
v 0.27952975 -0.28962681 -0.40835500
v 0.26220751 -0.30184284 -0.41136652
v 0.24444564 -0.31477746 -0.41191968
v 0.22492516 -0.33167994 -0.41112068
v 0.21164772 -0.34086537 -0.41087484
v 0.00492408 -0.40566343 -0.38493866
v 0.00123102 -0.41009995 -0.35095119
v 0.00000000 -0.44999731 -0.02004966
v -0.00492408 -0.41288057 -0.32495356
v -0.00492408 -0.40806913 -0.36496410
v -0.01494811 -0.40469491 -0.38493866
v -0.08001637 -0.39997721 -0.37000385
v -0.08494046 -0.39535323 -0.39495668
v -0.09522828 -0.39107293 -0.40429860
v -0.12582795 -0.38160631 -0.40571219
v -0.13119169 -0.38035658 -0.40288502
v -0.14499672 -0.37716979 -0.39495668
v -0.14499672 -0.37563887 -0.40497467
v -0.15572418 -0.37188971 -0.40509760
v -0.02497214 -0.40491360 -0.37498212
v -0.01442053 -0.42041016 -0.25470456
v -0.03499617 -0.43968710 -0.07745345
v -0.06709065 -0.44971609 0.03231440
v -0.08494046 -0.46964917 0.21288440
v -0.08722664 -0.45971388 0.13218719
v -0.07896122 -0.40988123 -0.28918374
v -0.07491643 -0.40025839 -0.37227786
v -0.16047241 -0.37023383 -0.40190166
v -0.17542052 -0.36189196 -0.40411425
v -0.19370998 -0.35198790 -0.40497467
v 0.15950517 -0.36964023 -0.40853935
v 0.19203931 -0.35108185 -0.41105923
v 0.12978481 -0.37985671 -0.40952274
v 0.08494046 -0.39400977 -0.40497467
v 0.07491643 -0.39747775 -0.39495668
v 0.03499617 -0.40513229 -0.36496410
v 0.04484434 -0.40053958 -0.39507958
v 0.04141507 -0.40013343 -0.40116414
v 0.06955270 -0.39994597 -0.37965310
v 0.07535608 -0.40953755 -0.29514536
v 0.07491643 -0.41200578 -0.27498642
v 0.06840961 -0.43984330 -0.04875156
v 0.02497214 -0.40250790 -0.39495668
v -0.21551664 -0.34189641 -0.39409623
v -0.21912177 -0.33955318 -0.39680046
v -0.19960129 -0.34980088 -0.39852136
v -0.22492516 -0.33433560 -0.40497467
v -0.23064062 -0.33052394 -0.40497467
v -0.25279900 -0.31230927 -0.40497467
v -0.25877824 -0.30902874 -0.39495668
v -0.27020916 -0.30021819 -0.39120761
v -0.28885034 -0.30909121 -0.23497587
v -0.28928998 -0.29943714 -0.29496098
v -0.29008135 -0.29012671 -0.35064387
v -0.28876239 -0.28878325 -0.36496410
v -0.28594863 -0.28597137 -0.39495668
v -0.31821898 -0.30787274 -0.07505651
v -0.29966572 -0.26963127 -0.39784530
v -0.32639647 -0.23567010 -0.40497467
v -0.33044127 -0.23067123 -0.40497467
v -0.33677223 -0.22404769 -0.39409623
v -0.33431017 -0.22501624 -0.40497467
v -0.33949807 -0.21920502 -0.39680046
v -0.34187219 -0.21554959 -0.39409623
v -0.34978589 -0.19964689 -0.39852136
v -0.35198414 -0.19380444 -0.40497467
v -0.36763570 -0.16431102 -0.40509760
v -0.37018567 -0.16049936 -0.40190166
v -0.37097704 -0.15840608 -0.40331525
v 0.37933040 -0.15840608 -0.34099466
v 0.37959418 -0.15906219 -0.33730704
v 0.38003382 -0.16018693 -0.33066934
v 0.37071323 -0.16137417 -0.39495668
v 0.35998577 -0.18008874 -0.40018079
v 0.34978589 -0.19964689 -0.39852136
v 0.34187219 -0.21554959 -0.39409623
v 0.33949807 -0.21920502 -0.39680046
v 0.33879462 -0.21814276 -0.40497467
v 0.35101691 -0.19208607 -0.41105923
v 0.33000162 -0.23010884 -0.41007587
v 0.32059309 -0.24085644 -0.41062900
v 0.31118459 -0.25154155 -0.41105923
v 0.29025722 -0.28034765 -0.40171728
v 0.28032112 -0.29028291 -0.40171728
v 0.25148004 -0.31127822 -0.41105923
v 0.23002510 -0.33008653 -0.41007587
v 0.24075258 -0.32065114 -0.41062900
v 0.23398195 -0.32440031 -0.41130507
v 0.21806662 -0.33880335 -0.40497467
v 0.21305460 -0.34164646 -0.40497467
v 0.01494811 -0.40469491 -0.38493866
v 0.00492408 -0.40806913 -0.36496410
v 0.00492408 -0.41288057 -0.32495356
v -0.00149481 -0.47011781 0.14878142
v -0.00492408 -0.47758490 0.21349898
v -0.00571546 -0.46077615 0.07416878
v -0.00800164 -0.43981206 -0.09847283
v 0.00800164 -0.43981206 -0.09847283
v 0.00571546 -0.46077615 0.07416878
v 0.00492408 -0.47758490 0.21349898
v 0.00149481 -0.47011781 0.14878142
v -0.01494811 -0.40710062 -0.36496410
v -0.09048006 -0.46012002 0.13888633
v -0.09074385 -0.45021600 0.05806621
v -0.09443691 -0.44871634 0.05480883
v -0.08397323 -0.39829007 -0.37399876
v -0.10577989 -0.39151034 -0.37541234
v -0.14499672 -0.38341838 -0.34498957
v -0.15106389 -0.39032310 -0.27498642
v -0.15941724 -0.39982098 -0.17861688
v -0.14693117 -0.37907562 -0.37498212
v -0.15941724 -0.38979197 -0.25863802
v -0.15000872 -0.37998167 -0.36004728
v -0.15493281 -0.37354559 -0.39495668
v -0.15897760 -0.37963799 -0.33730704
v -0.16012068 -0.38007540 -0.33066934
v -0.01450846 -0.45043468 -0.00480754
v -0.06498034 -0.45865160 0.10496031
v -0.07518023 -0.47068018 0.21349898
v -0.08494046 -0.46971166 0.21349898
v -0.08669906 -0.46943045 0.21349898
v -0.09417312 -0.46821198 0.21349898
v -0.06506827 -0.47061771 0.20464873
v -0.03499617 -0.47361702 0.20495602
v -0.03649098 -0.47449183 0.21349898
v -0.16390169 -0.37207717 -0.37498212
v -0.16636372 -0.36804682 -0.39495668
v 0.19370998 -0.35198790 -0.40497467
v 0.17542052 -0.36189196 -0.40411425
v 0.16047241 -0.37023383 -0.40190166
v 0.15572418 -0.37188971 -0.40509760
v 0.13119169 -0.38035658 -0.40288502
v 0.12582795 -0.38160631 -0.40571219
v 0.09522828 -0.39107293 -0.40429860
v 0.14499672 -0.37563887 -0.40497467
v 0.14499672 -0.37716979 -0.39495668
v 0.08494046 -0.39535323 -0.39495668
v 0.08001637 -0.39997721 -0.37000385
v 0.01442053 -0.42041016 -0.25470456
v 0.02497214 -0.40491360 -0.37498212
v 0.03499617 -0.43968710 -0.07745345
v 0.07491643 -0.40025839 -0.37227786
v 0.07896122 -0.40988123 -0.28918374
v 0.08722664 -0.45971388 0.13218719
v 0.08494046 -0.46964917 0.21288440
v 0.06709065 -0.44971609 0.03231440
v -0.22976132 -0.34986338 -0.27910426
v -0.22000107 -0.34002182 -0.39016277
v -0.19406170 -0.35742420 -0.36422658
v -0.21498907 -0.35426864 -0.30497900
v -0.25499725 -0.39525950 0.15498891
v -0.22395793 -0.33677256 -0.39409623
v -0.22677170 -0.33783481 -0.37498212
v -0.22905788 -0.33939695 -0.35494611
v -0.22976132 -0.33983436 -0.34904593
v -0.23996121 -0.34995711 -0.22981322
v -0.25156799 -0.36129832 -0.09503106
v -0.25614035 -0.36682835 -0.03504594
v -0.26053685 -0.36045477 -0.05299231
v -0.27829874 -0.38710508 0.21349898
v -0.30441394 -0.36567235 0.21349898
v -0.32674819 -0.34733269 0.21349898
v -0.33202401 -0.34167770 0.20495602
v -0.29948989 -0.30962235 -0.17499074
v -0.30977771 -0.30980980 -0.11881614
v -0.34090495 -0.33108631 0.19499949
v -0.34767556 -0.31721440 0.16494545
v -0.33905840 -0.30887252 0.06494976
v -0.34714797 -0.30656055 0.10496031
v -0.33721188 -0.28662747 -0.06503850
v -0.30643636 -0.26569465 -0.37498212
v -0.33677223 -0.23429540 -0.34541979
v -0.32718784 -0.23660740 -0.39495668
v -0.33360675 -0.23445162 -0.36496410
v -0.33984977 -0.22979641 -0.34904593
v -0.33993772 -0.22004858 -0.39016277
v -0.34987381 -0.22979641 -0.27910426
v -0.34477386 -0.21501845 -0.37498212
v -0.34776348 -0.20430210 -0.39507958
v -0.37238392 -0.16584192 -0.36527142
v -0.35769960 -0.18574373 -0.39495668
v -0.37071323 -0.16137417 -0.39495668
v -0.35998577 -0.18008874 -0.40018079
v -0.38003382 -0.16018693 -0.33066934
v -0.37977004 -0.15840608 -0.33810601
v 0.39023373 -0.15840608 -0.25765467
v 0.38979408 -0.15946835 -0.25863802
v 0.37748384 -0.16412356 -0.33435696
v 0.39023373 -0.16056186 -0.25193888
v 0.41001800 -0.17012222 -0.07044700
v 0.37238392 -0.16584192 -0.36527142
v 0.35769960 -0.18574373 -0.39495668
v 0.34477386 -0.21501845 -0.37498212
v 0.34776348 -0.20430210 -0.39507958
v 0.34987381 -0.22979641 -0.27910426
v 0.33993772 -0.22004858 -0.39016277
v 0.33984977 -0.22979641 -0.34904593
v 0.33677223 -0.22404769 -0.39409623
v 0.33431017 -0.22501624 -0.40497467
v 0.33044127 -0.23067123 -0.40497467
v 0.32639647 -0.23567010 -0.40497467
v 0.29008135 -0.29012671 -0.35064387
v 0.28876239 -0.28878325 -0.36496410
v 0.28594863 -0.28597137 -0.39495668
v 0.29966572 -0.26963127 -0.39784530
v 0.31821898 -0.30787274 -0.07505651
v 0.28928998 -0.29943714 -0.29496098
v 0.28885034 -0.30909121 -0.23497587
v 0.27020916 -0.30021819 -0.39120761
v 0.25877824 -0.30902874 -0.39495668
v 0.23064062 -0.33052394 -0.40497467
v 0.25279900 -0.31230927 -0.40497467
v 0.22492516 -0.33433560 -0.40497467
v 0.21912177 -0.33955318 -0.39680046
v 0.21551664 -0.34189641 -0.39409623
v 0.19960129 -0.34980088 -0.39852136
v 0.01494811 -0.40710062 -0.36496410
v -0.01644293 -0.47646016 0.21349898
v -0.01494811 -0.47558534 0.20495602
v -0.01494811 -0.46718097 0.13495287
v 0.01450846 -0.45043468 -0.00480754
v 0.01494811 -0.46718097 0.13495287
v 0.01494811 -0.47558534 0.20495602
v 0.02347733 -0.47577280 0.21349898
v -0.09496449 -0.46699351 0.20495602
v -0.09188694 -0.46049494 0.14497089
v -0.10015237 -0.46005756 0.15947551
v -0.10129546 -0.46040124 0.16494545
v -0.09443691 -0.43871856 -0.02521231
v -0.08942490 -0.39982098 -0.34861571
v -0.14499672 -0.41716087 -0.07505651
v -0.17339812 -0.44103056 0.18498147
v -0.17577223 -0.44149917 0.19450778
v -0.17014472 -0.42006648 0.00945123
v -0.15088803 -0.38032535 -0.35494611
v -0.17955324 -0.43987456 0.19088164
v -0.17005679 -0.41003746 -0.07044700
v -0.18034461 -0.43018922 0.11848155
v -0.17040850 -0.40022713 -0.14167933
v -0.16715509 -0.37848198 -0.31499699
v -0.10498852 -0.46533763 0.21349898
v 0.16636372 -0.36804682 -0.39495668
v 0.16390169 -0.37207717 -0.37498212
v 0.16012068 -0.38007540 -0.33066934
v 0.15897760 -0.37963799 -0.33730704
v 0.15493281 -0.37354559 -0.39495668
v 0.10577989 -0.39151034 -0.37541234
v 0.08397323 -0.39829007 -0.37399876
v 0.15000872 -0.37998167 -0.36004728
v 0.15941724 -0.38979197 -0.25863802
v 0.14693117 -0.37907562 -0.37498212
v 0.15941724 -0.39982098 -0.17861688
v 0.15106389 -0.39032310 -0.27498642
v 0.14499672 -0.38341838 -0.34498957
v 0.09443691 -0.44871634 0.05480883
v 0.09074385 -0.45021600 0.05806621
v 0.09048006 -0.46012002 0.13888633
v 0.08538011 -0.46964917 0.21349898
v 0.08494046 -0.46971166 0.21349898
v 0.08151119 -0.47005534 0.21349898
v 0.06348553 -0.47183618 0.21349898
v 0.03499617 -0.47361702 0.20495602
v 0.06506827 -0.47061771 0.20464873
v 0.06498034 -0.45865160 0.10496031
v -0.24022500 -0.36017358 -0.16134658
v -0.25948170 -0.38969824 0.13194135
v -0.18562041 -0.41206825 0.00545631
v -0.21657181 -0.39816511 0.02493919
v -0.26000926 -0.40000844 0.20987284
v -0.19625995 -0.42800221 0.16494545
v -0.24426977 -0.40775672 0.20489457
v -0.25042489 -0.37032756 -0.04242116
v -0.26871434 -0.38897967 0.17496344
v -0.27390221 -0.38319969 0.16494545
v -0.27152810 -0.39129165 0.20495602
v -0.27231947 -0.39194775 0.21349898
v -0.33281538 -0.34233382 0.21349898
v -0.33000162 -0.33005530 0.11958785
v -0.34231183 -0.33280468 0.21349898
v -0.34732383 -0.32674354 0.21349898
v -0.35743579 -0.31446502 0.21349898
v -0.36666846 -0.29596916 0.17496344
v -0.38064933 -0.28081629 0.18498147
v -0.36130473 -0.25160405 -0.09503106
v -0.36675638 -0.25429094 -0.04549417
v -0.38047349 -0.26060206 0.07681156
v -0.36983395 -0.24979195 -0.04912032
v -0.36016163 -0.24029407 -0.16134658
v -0.39014578 -0.26028961 0.13857904
v -0.37985796 -0.24979195 0.02088282
v -0.38970613 -0.24947953 0.09211514
v -0.37748384 -0.16412356 -0.33435696
v -0.41889894 -0.18796200 0.06494976
v -0.40843526 -0.17708942 -0.05502049
v -0.41001800 -0.17012222 -0.07044700
v -0.39023373 -0.16056186 -0.25193888
v -0.38979408 -0.15946835 -0.25863802
v -0.39023373 -0.15840608 -0.25765467
v 0.40025777 -0.15840608 -0.17769498
v 0.39981809 -0.15946835 -0.17861688
v 0.41608515 -0.16502962 -0.03504594
v 0.43947458 -0.17843287 0.18498147
v 0.43982628 -0.17965135 0.19088164
v 0.40843526 -0.17708942 -0.05502049
v 0.44026595 -0.18068236 0.19751933
v 0.43015397 -0.18040118 0.11848155
v 0.41889894 -0.18796200 0.06494976
v 0.38970613 -0.24947953 0.09211514
v 0.37985796 -0.24979195 0.02088282
v 0.39014578 -0.26028961 0.13857904
v 0.36016163 -0.24029407 -0.16134658
v 0.33677223 -0.23429540 -0.34541979
v 0.33360675 -0.23445162 -0.36496410
v 0.36983395 -0.24979195 -0.04912032
v 0.38047349 -0.26060206 0.07681156
v 0.32718784 -0.23660740 -0.39495668
v 0.30977771 -0.30980980 -0.11881614
v 0.33202401 -0.34167770 0.20495602
v 0.29948989 -0.30962235 -0.17499074
v 0.30643636 -0.26569465 -0.37498212
v 0.34714797 -0.30656055 0.10496031
v 0.33905840 -0.30887252 0.06494976
v 0.34767556 -0.31721440 0.16494545
v 0.34090495 -0.33108631 0.19499949
v 0.32674819 -0.34733269 0.21349898
v 0.30441394 -0.36567235 0.21349898
v 0.27390221 -0.38319969 0.16494545
v 0.26053685 -0.36045477 -0.05299231
v 0.23996121 -0.34995711 -0.22981322
v 0.22976132 -0.33983436 -0.34904593
v 0.22905788 -0.33939695 -0.35494611
v 0.22677170 -0.33783481 -0.37498212
v 0.22395793 -0.33677256 -0.39409623
v 0.25614035 -0.36682835 -0.03504594
v 0.25156799 -0.36129832 -0.09503106
v 0.22000107 -0.34002182 -0.39016277
v 0.21498907 -0.35426864 -0.30497900
v 0.19406170 -0.35742420 -0.36422658
v 0.22976132 -0.34986338 -0.27910426
v 0.25499725 -0.39525950 0.15498891
v -0.10498852 -0.46427536 0.20495602
v -0.15000872 -0.44999731 0.19991627
v -0.14499672 -0.43465698 0.06494976
v -0.16645165 -0.44668555 0.21349898
v -0.17498086 -0.44409236 0.21349898
v -0.18060839 -0.44028071 0.19751933
v -0.18711522 -0.43931216 0.21349898
v -0.18904969 -0.43831241 0.21349898
v -0.19590823 -0.43475071 0.21349898
v -0.19379792 -0.43203256 0.18498147
v -0.11633150 -0.46190089 0.21349898
v 0.16715509 -0.37848198 -0.31499699
v 0.17040850 -0.40022713 -0.14167933
v 0.18034461 -0.43018922 0.11848155
v 0.17005679 -0.41003746 -0.07044700
v 0.15088803 -0.38032535 -0.35494611
v 0.08942490 -0.39982098 -0.34861571
v 0.17955324 -0.43987456 0.19088164
v 0.17014472 -0.42006648 0.00945123
v 0.17577223 -0.44149917 0.19450778
v 0.17339812 -0.44103056 0.18498147
v 0.14499672 -0.41716087 -0.07505651
v 0.09443691 -0.43871856 -0.02521231
v 0.10129546 -0.46040124 0.16494545
v 0.10015237 -0.46005756 0.15947551
v 0.09496449 -0.46699351 0.20495602
v 0.09188694 -0.46049494 0.14497089
v 0.09417312 -0.46821198 0.21349898
v 0.09188694 -0.46858689 0.21349898
v -0.26018512 -0.39016688 0.13857904
v -0.26036099 -0.40025839 0.21349898
v -0.26396611 -0.39791515 0.21349898
v -0.22826651 -0.41747332 0.21349898
v -0.24110429 -0.41059983 0.21349898
v -0.26642817 -0.39619678 0.21349898
v -0.33703601 -0.33852217 0.21349898
v -0.33782738 -0.33780357 0.21349898
v -0.38284761 -0.28350317 0.21349898
v -0.37933040 -0.26922512 0.11497834
v -0.39128888 -0.27159959 0.20495602
v -0.39190438 -0.27241191 0.21349898
v -0.39700434 -0.26538223 0.21349898
v -0.40025777 -0.26044583 0.21349898
v -0.39999396 -0.26003966 0.20987284
v -0.39955431 -0.25919610 0.20317367
v -0.39964223 -0.24935454 0.16494545
v -0.41230416 -0.23579508 0.20489457
v -0.42936262 -0.19883457 0.18498147
v -0.42452645 -0.18502516 0.09494231
v -0.43015397 -0.18040118 0.11848155
v -0.44026595 -0.18068236 0.19751933
v -0.43982628 -0.17965135 0.19088164
v -0.43947458 -0.17843287 0.18498147
v -0.41608515 -0.16502962 -0.03504594
v -0.39981809 -0.15946835 -0.17861688
v -0.40025777 -0.15840608 -0.17769498
v 0.41951445 -0.15840608 -0.02367581
v 0.42734021 -0.16502962 0.05499320
v 0.44149697 -0.17577721 0.19450778
v 0.44404694 -0.17502739 0.21349898
v 0.42452645 -0.18502516 0.09494231
v 0.44123316 -0.18290062 0.21349898
v 0.43894699 -0.18789950 0.21349898
v 0.43525392 -0.19502291 0.21349898
v 0.42936262 -0.19883457 0.18498147
v 0.41230416 -0.23579508 0.20489457
v 0.39964223 -0.24935454 0.16494545
v 0.39955431 -0.25919610 0.20317367
v 0.39999396 -0.26003966 0.20987284
v 0.40025777 -0.26044583 0.21349898
v 0.39700434 -0.26538223 0.21349898
v 0.39190438 -0.27241191 0.21349898
v 0.39128888 -0.27159959 0.20495602
v 0.36675638 -0.25429094 -0.04549417
v 0.36130473 -0.25160405 -0.09503106
v 0.33000162 -0.33005530 0.11958785
v 0.33281538 -0.34233382 0.21349898
v 0.36666846 -0.29596916 0.17496344
v 0.36016163 -0.31024721 0.20876655
v 0.34732383 -0.32674354 0.21349898
v 0.34231183 -0.33280468 0.21349898
v 0.27311084 -0.39132288 0.21349898
v 0.29948989 -0.36957774 0.21263853
v 0.28172800 -0.38141882 0.19499949
v 0.26871434 -0.38897967 0.17496344
v 0.25042489 -0.37032756 -0.04242116
v 0.24022500 -0.36017358 -0.16134658
v 0.21657181 -0.39816511 0.02493919
v 0.18562041 -0.41206825 0.00545631
v 0.25948170 -0.38969824 0.13194135
v 0.26000926 -0.40000844 0.20987284
v 0.24426977 -0.40775672 0.20489457
v 0.19625995 -0.42800221 0.16494545
v -0.13497268 -0.45624590 0.21349898
v -0.17594810 -0.44374868 0.21349898
v -0.18166356 -0.44074935 0.20495602
v -0.18280666 -0.44128048 0.21349898
v -0.20241506 -0.43128273 0.21349898
v 0.18781866 -0.43893725 0.21349898
v 0.18667558 -0.43837488 0.20495602
v 0.18166356 -0.44074935 0.20495602
v 0.18060839 -0.44028071 0.19751933
v 0.19379792 -0.43203256 0.18498147
v 0.19494100 -0.43525058 0.21349898
v 0.17498086 -0.44409236 0.21349898
v 0.17348605 -0.44456100 0.21349898
v 0.15000872 -0.44999731 0.19991627
v 0.14499672 -0.43465698 0.06494976
v 0.10498852 -0.46427536 0.20495602
v 0.10498852 -0.46533763 0.21349898
v 0.10349371 -0.46574378 0.21349898
v -0.26528507 -0.39700910 0.21349898
v -0.41379899 -0.23513897 0.21349898
v -0.43525392 -0.19502291 0.21349898
v -0.42804366 -0.20636414 0.20495602
v -0.43894699 -0.18789950 0.21349898
v -0.43929872 -0.18714967 0.21349898
v -0.44123316 -0.18290062 0.21349898
v -0.44369522 -0.17602715 0.21349898
v -0.44404694 -0.17502739 0.21349898
v -0.44149697 -0.17577721 0.19450778
v -0.42734021 -0.16502962 0.05499320
v -0.41951445 -0.15840608 -0.02367581
v 0.44914687 -0.15840608 0.21349898
v 0.43982628 -0.15943711 0.14134473
v 0.43358326 -0.16502962 0.10496031
v 0.44606933 -0.16502962 0.20495602
v 0.44712448 -0.16502962 0.21349898
v 0.40403876 -0.25341615 0.21349898
v 0.42804366 -0.20636414 0.20495602
v 0.38284761 -0.28350317 0.21349898
v 0.38064933 -0.28081629 0.18498147
v 0.37933040 -0.26922512 0.11497834
v 0.33782738 -0.33780357 0.21349898
v 0.38223207 -0.28425300 0.21349898
v 0.35998577 -0.31134072 0.21349898
v 0.27231947 -0.39194775 0.21349898
v 0.27152810 -0.39129165 0.20495602
v 0.26018512 -0.39016688 0.13857904
v 0.26115236 -0.39975852 0.21349898
v 0.26036099 -0.40025839 0.21349898
v 0.25974548 -0.40060207 0.21349898
v 0.24048878 -0.41094351 0.21349898
v 0.18359803 -0.44093680 0.21349898
v 0.18280666 -0.44128048 0.21349898
v 0.20241506 -0.43128273 0.21349898
v 0.13497268 -0.45624590 0.21349898
v 0.13497268 -0.45518363 0.20495602
v -0.44668484 -0.16652927 0.21349898
v -0.43358326 -0.16502962 0.10496031
v -0.43982628 -0.15943711 0.14134473
v -0.44000214 -0.15840608 0.14029992
v -0.44914687 -0.15840608 0.21349898
v 0.27108845 -0.39285380 0.21349898
v 0.26528507 -0.39700910 0.21349898
f 1 2 3
f 1 3 4
f 1 4 5
f 1 5 6
f 1 6 7
f 1 7 8
f 1 8 9
f 1 9 28
f 1 28 60
f 1 60 105
f 1 105 160
f 1 160 243
f 1 243 359
f 1 359 472
f 1 472 570
f 1 570 637
f 1 637 666
f 1 666 667
f 1 667 638
f 1 638 571
f 1 571 473
f 1 473 360
f 1 360 244
f 1 244 162
f 1 162 161
f 1 161 106
f 1 106 61
f 1 61 29
f 1 29 10
f 1 10 15
f 1 15 2
f 2 11 12
f 2 12 13
f 2 13 14
f 2 14 3
f 2 15 37
f 2 37 11
f 3 14 4
f 4 14 5
f 5 14 16
f 5 16 17
f 5 17 18
f 5 18 19
f 5 19 20
f 5 20 6
f 6 20 21
f 6 21 7
f 7 21 22
f 7 22 23
f 7 23 8
f 8 23 24
f 8 24 25
f 8 25 26
f 8 26 27
f 8 27 9
f 9 27 28
f 10 29 30
f 10 30 31
f 10 31 32
f 10 32 33
f 10 33 34
f 10 34 35
f 10 35 15
f 11 36 12
f 11 37 75
f 11 75 36
f 12 38 13
f 12 36 39
f 12 39 40
f 12 40 41
f 12 41 38
f 13 38 42
f 13 42 43
f 13 43 14
f 14 43 44
f 14 44 16
f 15 35 45
f 15 45 46
f 15 46 47
f 15 47 37
f 16 44 17
f 17 48 49
f 17 49 18
f 17 44 48
f 18 49 50
f 18 50 51
f 18 51 19
f 19 51 21
f 19 21 20
f 21 52 53
f 21 53 22
f 21 51 52
f 22 54 55
f 22 55 24
f 22 24 23
f 22 53 54
f 24 55 25
f 25 55 56
f 25 56 57
f 25 57 26
f 26 57 58
f 26 58 59
f 26 59 27
f 27 59 60
f 27 60 28
f 29 61 62
f 29 62 30
f 30 63 64
f 30 64 65
f 30 65 66
f 30 66 31
f 30 62 63
f 31 66 67
f 31 67 68
f 31 68 32
f 32 68 69
f 32 69 33
f 33 70 71
f 33 71 72
f 33 72 73
f 33 73 45
f 33 45 34
f 33 69 70
f 34 45 35
f 36 74 39
f 36 75 120
f 36 120 74
f 37 47 75
f 38 41 76
f 38 76 77
f 38 77 78
f 38 78 42
f 39 74 40
f 40 74 41
f 41 74 79
f 41 79 80
f 41 80 81
f 41 81 76
f 42 78 43
f 43 82 44
f 43 78 82
f 44 82 83
f 44 83 84
f 44 84 48
f 45 73 85
f 45 85 86
f 45 86 46
f 46 87 88
f 46 88 47
f 46 86 87
f 47 88 89
f 47 89 90
f 47 90 91
f 47 91 75
f 48 84 92
f 48 92 93
f 48 93 49
f 49 93 94
f 49 94 50
f 50 95 52
f 50 52 51
f 50 94 95
f 52 96 53
f 52 95 96
f 53 96 97
f 53 97 54
f 54 97 98
f 54 98 56
f 54 56 55
f 56 98 99
f 56 99 57
f 57 100 101
f 57 101 58
f 57 99 100
f 58 101 102
f 58 102 103
f 58 103 59
f 59 103 104
f 59 104 105
f 59 105 60
f 61 106 107
f 61 107 108
f 61 108 62
f 62 108 63
f 63 109 110
f 63 110 64
f 63 108 109
f 64 111 112
f 64 112 65
f 64 110 111
f 65 112 67
f 65 67 66
f 67 112 113
f 67 113 114
f 67 114 68
f 68 114 115
f 68 115 116
f 68 116 70
f 68 70 69
f 70 116 71
f 71 117 72
f 71 116 118
f 71 118 117
f 72 117 119
f 72 119 85
f 72 85 73
f 74 120 181
f 74 181 121
f 74 121 122
f 74 122 185
f 74 185 126
f 74 126 79
f 75 91 120
f 76 123 124
f 76 124 77
f 76 81 123
f 77 124 125
f 77 125 78
f 78 125 82
f 79 126 127
f 79 127 81
f 79 81 128
f 79 128 80
f 80 128 81
f 81 127 129
f 81 129 130
f 81 130 131
f 81 131 132
f 81 132 133
f 81 133 123
f 82 134 83
f 82 125 134
f 83 134 135
f 83 135 84
f 84 135 92
f 85 136 137
f 85 137 86
f 85 119 138
f 85 138 136
f 86 137 139
f 86 139 87
f 87 139 88
f 88 140 141
f 88 141 89
f 88 139 140
f 89 142 143
f 89 143 144
f 89 144 120
f 89 120 90
f 89 141 142
f 90 120 91
f 92 145 146
f 92 146 147
f 92 147 93
f 92 135 134
f 92 134 145
f 93 147 148
f 93 148 94
f 94 148 149
f 94 149 95
f 95 149 96
f 96 150 97
f 96 149 151
f 96 151 147
f 96 147 150
f 97 150 152
f 97 152 153
f 97 153 154
f 97 154 155
f 97 155 98
f 98 155 99
f 99 155 100
f 100 155 154
f 100 154 153
f 100 153 101
f 101 153 102
f 102 153 156
f 102 156 157
f 102 157 158
f 102 158 104
f 102 104 159
f 102 159 103
f 103 159 104
f 104 158 105
f 105 158 160
f 106 161 107
f 107 161 162
f 107 162 163
f 107 163 164
f 107 164 165
f 107 165 166
f 107 166 167
f 107 167 168
f 107 168 108
f 108 168 169
f 108 169 109
f 109 170 110
f 109 169 167
f 109 167 170
f 110 170 171
f 110 171 172
f 110 172 111
f 111 172 173
f 111 173 113
f 111 113 112
f 113 174 114
f 113 173 174
f 114 175 115
f 114 174 175
f 115 175 176
f 115 176 118
f 115 118 116
f 117 118 177
f 117 177 178
f 117 178 119
f 118 176 177
f 119 179 138
f 119 178 179
f 120 180 181
f 120 144 217
f 120 217 265
f 120 265 180
f 121 182 183
f 121 183 184
f 121 184 122
f 121 181 182
f 122 184 276
f 122 276 185
f 123 133 186
f 123 186 124
f 124 187 188
f 124 188 125
f 124 186 187
f 125 188 189
f 125 189 190
f 125 190 191
f 125 191 192
f 125 192 193
f 125 193 134
f 126 185 276
f 126 276 194
f 126 194 127
f 127 194 129
f 129 194 195
f 129 195 196
f 129 196 130
f 130 197 198
f 130 198 131
f 130 196 197
f 131 198 132
f 132 198 199
f 132 199 200
f 132 200 133
f 133 200 201
f 133 201 186
f 134 193 202
f 134 202 203
f 134 203 204
f 134 204 145
f 136 205 137
f 136 138 206
f 136 206 205
f 137 205 207
f 137 207 139
f 138 179 206
f 139 207 140
f 140 208 141
f 140 207 208
f 141 208 209
f 141 209 142
f 142 210 211
f 142 211 144
f 142 144 212
f 142 212 143
f 142 209 213
f 142 213 214
f 142 214 215
f 142 215 216
f 142 216 210
f 143 212 144
f 144 211 217
f 145 218 219
f 145 219 146
f 145 204 202
f 145 202 220
f 145 220 218
f 146 219 221
f 146 221 147
f 147 151 148
f 147 221 222
f 147 222 223
f 147 223 150
f 148 151 149
f 150 223 222
f 150 222 224
f 150 224 225
f 150 225 226
f 150 226 227
f 150 227 228
f 150 228 229
f 150 229 230
f 150 230 152
f 152 230 229
f 152 229 228
f 152 228 231
f 152 231 232
f 152 232 233
f 152 233 153
f 153 233 234
f 153 234 235
f 153 235 236
f 153 236 156
f 156 237 157
f 156 236 237
f 157 238 239
f 157 239 240
f 157 240 158
f 157 237 238
f 158 240 241
f 158 241 242
f 158 242 243
f 158 243 160
f 162 244 245
f 162 245 246
f 162 246 163
f 163 246 247
f 163 247 248
f 163 248 165
f 163 165 164
f 165 248 249
f 165 249 166
f 166 249 250
f 166 250 251
f 166 251 252
f 166 252 167
f 167 169 253
f 167 253 168
f 167 252 254
f 167 254 170
f 168 253 169
f 170 254 171
f 171 255 256
f 171 256 172
f 171 254 255
f 172 256 173
f 173 256 174
f 174 257 258
f 174 258 175
f 174 256 255
f 174 255 254
f 174 254 257
f 175 259 176
f 175 258 260
f 175 260 261
f 175 261 259
f 176 259 177
f 177 262 178
f 177 259 262
f 178 262 260
f 178 260 179
f 179 260 263
f 179 263 264
f 179 264 205
f 179 205 206
f 180 265 391
f 180 391 266
f 180 266 181
f 181 266 267
f 181 267 182
f 182 268 269
f 182 269 270
f 182 270 271
f 182 271 183
f 182 267 272
f 182 272 273
f 182 273 274
f 182 274 275
f 182 275 268
f 183 271 195
f 183 195 276
f 183 276 184
f 186 201 200
f 186 200 277
f 186 277 278
f 186 278 279
f 186 279 280
f 186 280 187
f 187 280 188
f 188 280 281
f 188 281 190
f 188 190 189
f 190 281 191
f 191 282 283
f 191 283 284
f 191 284 285
f 191 285 286
f 191 286 287
f 191 287 288
f 191 288 193
f 191 193 192
f 191 281 282
f 193 288 289
f 193 289 290
f 193 290 202
f 194 276 195
f 195 271 291
f 195 291 196
f 196 291 197
f 197 291 292
f 197 292 198
f 198 293 294
f 198 294 295
f 198 295 296
f 198 296 277
f 198 277 199
f 198 292 297
f 198 297 298
f 198 298 299
f 198 299 293
f 199 277 200
f 202 290 300
f 202 300 301
f 202 301 220
f 202 204 203
f 205 264 302
f 205 302 303
f 205 303 304
f 205 304 305
f 205 305 207
f 207 306 307
f 207 307 308
f 207 308 208
f 207 305 309
f 207 309 310
f 207 310 306
f 208 311 312
f 208 312 209
f 208 308 311
f 209 312 213
f 210 313 314
f 210 314 211
f 210 216 315
f 210 315 313
f 211 314 217
f 213 312 316
f 213 316 317
f 213 317 214
f 214 317 318
f 214 318 319
f 214 319 215
f 215 319 216
f 216 319 320
f 216 320 315
f 217 314 391
f 217 391 265
f 218 321 322
f 218 322 219
f 218 220 323
f 218 323 324
f 218 324 325
f 218 325 321
f 219 322 326
f 219 326 222
f 219 222 221
f 220 301 323
f 222 326 327
f 222 327 328
f 222 328 329
f 222 329 330
f 222 330 331
f 222 331 332
f 222 332 333
f 222 333 224
f 224 333 334
f 224 334 226
f 224 226 225
f 226 334 335
f 226 335 336
f 226 336 337
f 226 337 338
f 226 338 227
f 227 338 228
f 228 338 337
f 228 337 339
f 228 339 231
f 231 339 340
f 231 340 341
f 231 341 342
f 231 342 343
f 231 343 344
f 231 344 345
f 231 345 232
f 232 345 346
f 232 346 347
f 232 347 233
f 233 347 346
f 233 346 348
f 233 348 234
f 234 348 349
f 234 349 235
f 235 349 237
f 235 237 236
f 237 349 350
f 237 350 351
f 237 351 238
f 238 351 352
f 238 352 353
f 238 353 239
f 239 353 352
f 239 352 354
f 239 354 355
f 239 355 356
f 239 356 357
f 239 357 240
f 240 357 242
f 240 242 241
f 242 356 358
f 242 358 243
f 242 357 356
f 243 358 359
f 244 360 361
f 244 361 245
f 245 361 246
f 246 362 247
f 246 361 363
f 246 363 364
f 246 364 362
f 247 362 365
f 247 365 366
f 247 366 249
f 247 249 248
f 249 367 368
f 249 368 250
f 249 366 365
f 249 365 367
f 250 368 367
f 250 367 369
f 250 369 251
f 251 370 371
f 251 371 372
f 251 372 373
f 251 373 252
f 251 369 370
f 252 373 254
f 254 373 372
f 254 372 374
f 254 374 375
f 254 375 257
f 257 376 377
f 257 377 378
f 257 378 258
f 257 375 379
f 257 379 380
f 257 380 376
f 258 378 377
f 258 377 376
f 258 376 381
f 258 381 382
f 258 382 383
f 258 383 384
f 258 384 385
f 258 385 386
f 258 386 260
f 259 261 262
f 260 385 387
f 260 387 263
f 260 262 261
f 260 386 385
f 263 387 388
f 263 388 264
f 264 389 390
f 264 390 304
f 264 304 302
f 264 388 389
f 266 391 267
f 267 391 313
f 267 313 272
f 268 275 274
f 268 274 269
f 269 392 393
f 269 393 394
f 269 394 270
f 269 274 398
f 269 398 435
f 269 435 434
f 269 434 433
f 269 433 432
f 269 432 543
f 269 543 542
f 269 542 625
f 269 625 624
f 269 624 661
f 269 661 620
f 269 620 619
f 269 619 659
f 269 659 658
f 269 658 613
f 269 613 618
f 269 618 660
f 269 660 657
f 269 657 656
f 269 656 655
f 269 655 654
f 269 654 669
f 269 669 668
f 269 668 651
f 269 651 596
f 269 596 500
f 269 500 499
f 269 499 591
f 269 591 648
f 269 648 595
f 269 595 594
f 269 594 650
f 269 650 649
f 269 649 645
f 269 645 586
f 269 586 585
f 269 585 584
f 269 584 643
f 269 643 578
f 269 578 577
f 269 577 576
f 269 576 574
f 269 574 642
f 269 642 638
f 269 638 667
f 269 667 663
f 269 663 634
f 269 634 633
f 269 633 632
f 269 632 631
f 269 631 630
f 269 630 628
f 269 628 627
f 269 627 557
f 269 557 556
f 269 556 555
f 269 555 552
f 269 552 455
f 269 455 454
f 269 454 453
f 269 453 551
f 269 551 550
f 269 550 451
f 269 451 336
f 269 336 335
f 269 335 334
f 269 334 450
f 269 450 549
f 269 549 626
f 269 626 546
f 269 546 545
f 269 545 548
f 269 548 547
f 269 547 612
f 269 612 523
f 269 523 522
f 269 522 521
f 269 521 611
f 269 611 609
f 269 609 519
f 269 519 518
f 269 518 608
f 269 608 525
f 269 525 415
f 269 415 296
f 269 296 295
f 269 295 294
f 269 294 293
f 269 293 299
f 269 299 392
f 270 394 291
f 270 291 271
f 272 313 395
f 272 395 273
f 273 395 396
f 273 396 274
f 274 396 397
f 274 397 398
f 277 296 399
f 277 399 400
f 277 400 278
f 278 400 399
f 278 399 401
f 278 401 402
f 278 402 279
f 279 403 404
f 279 404 280
f 279 402 403
f 280 404 281
f 281 404 282
f 282 405 406
f 282 406 407
f 282 407 283
f 282 404 405
f 283 407 408
f 283 408 284
f 284 286 285
f 284 408 286
f 286 290 289
f 286 289 409
f 286 409 287
f 286 408 410
f 286 410 411
f 286 411 290
f 287 409 289
f 287 289 288
f 290 411 412
f 290 412 413
f 290 413 414
f 290 414 300
f 291 394 298
f 291 298 292
f 292 298 297
f 296 415 399
f 298 394 393
f 298 393 392
f 298 392 299
f 300 414 323
f 300 323 301
f 302 304 303
f 304 416 417
f 304 417 418
f 304 418 305
f 304 390 416
f 305 418 419
f 305 419 420
f 305 420 310
f 305 310 309
f 306 421 308
f 306 308 307
f 306 310 421
f 308 422 311
f 308 421 422
f 310 420 423
f 310 423 424
f 310 424 425
f 310 425 426
f 310 426 427
f 310 427 428
f 310 428 421
f 311 422 312
f 312 317 316
f 312 422 429
f 312 429 430
f 312 430 431
f 312 431 317
f 313 391 314
f 313 315 395
f 315 320 395
f 317 431 318
f 318 431 319
f 319 431 432
f 319 432 433
f 319 433 434
f 319 434 435
f 319 435 436
f 319 436 437
f 319 437 438
f 319 438 320
f 320 438 395
f 321 439 329
f 321 329 322
f 321 325 440
f 321 440 439
f 322 329 328
f 322 328 326
f 323 414 441
f 323 441 442
f 323 442 325
f 323 325 324
f 325 443 440
f 325 442 441
f 325 441 444
f 325 444 445
f 325 445 443
f 326 328 327
f 329 439 446
f 329 446 330
f 330 446 447
f 330 447 332
f 330 332 331
f 332 447 448
f 332 448 333
f 333 448 334
f 334 448 447
f 334 447 449
f 334 449 450
f 336 451 337
f 337 451 452
f 337 452 339
f 339 452 340
f 340 452 453
f 340 453 454
f 340 454 455
f 340 455 341
f 341 455 456
f 341 456 343
f 341 343 342
f 343 456 344
f 344 346 345
f 344 456 457
f 344 457 458
f 344 458 346
f 346 349 348
f 346 458 459
f 346 459 460
f 346 460 349
f 349 460 461
f 349 461 463
f 349 463 462
f 349 462 351
f 349 351 350
f 351 462 463
f 351 463 464
f 351 464 465
f 351 465 352
f 352 465 354
f 354 466 356
f 354 356 355
f 354 465 467
f 354 467 468
f 354 468 466
f 356 466 358
f 358 466 469
f 358 469 470
f 358 470 471
f 358 471 359
f 359 471 472
f 360 473 361
f 361 473 474
f 361 474 475
f 361 475 476
f 361 476 477
f 361 477 364
f 361 364 363
f 362 364 478
f 362 478 365
f 364 477 479
f 364 479 480
f 364 480 478
f 365 478 481
f 365 481 482
f 365 482 367
f 367 482 369
f 369 482 483
f 369 483 484
f 369 484 485
f 369 485 371
f 369 371 370
f 371 486 487
f 371 487 374
f 371 374 372
f 371 485 484
f 371 484 488
f 371 488 489
f 371 489 486
f 374 487 375
f 375 487 486
f 375 486 490
f 375 490 379
f 376 380 491
f 376 491 492
f 376 492 493
f 376 493 381
f 379 490 486
f 379 486 494
f 379 494 380
f 380 494 495
f 380 495 496
f 380 496 497
f 380 497 498
f 380 498 491
f 381 493 382
f 382 384 383
f 382 493 492
f 382 492 499
f 382 499 500
f 382 500 384
f 384 500 501
f 384 501 502
f 384 502 385
f 385 503 504
f 385 504 505
f 385 505 506
f 385 506 507
f 385 507 388
f 385 388 387
f 385 502 508
f 385 508 509
f 385 509 503
f 388 507 510
f 388 510 389
f 389 511 512
f 389 512 390
f 389 510 513
f 389 513 514
f 389 514 511
f 390 512 416
f 395 438 436
f 395 436 396
f 396 436 397
f 397 436 398
f 398 436 435
f 399 415 401
f 401 415 402
f 402 415 515
f 402 515 516
f 402 516 517
f 402 517 403
f 403 517 405
f 403 405 404
f 405 517 406
f 406 517 516
f 406 516 407
f 407 516 518
f 407 518 519
f 407 519 410
f 407 410 408
f 410 520 412
f 410 412 411
f 410 519 520
f 412 441 414
f 412 414 413
f 412 520 521
f 412 521 522
f 412 522 523
f 412 523 524
f 412 524 441
f 415 525 515
f 416 512 417
f 417 526 418
f 417 512 526
f 418 424 419
f 418 526 527
f 418 527 528
f 418 528 529
f 418 529 424
f 419 424 530
f 419 530 423
f 419 423 420
f 421 531 422
f 421 428 531
f 422 531 429
f 423 530 424
f 424 426 425
f 424 529 532
f 424 532 533
f 424 533 426
f 426 533 427
f 427 533 534
f 427 534 428
f 428 534 535
f 428 535 536
f 428 536 531
f 429 531 537
f 429 537 538
f 429 538 430
f 430 538 539
f 430 539 540
f 430 540 541
f 430 541 431
f 431 541 540
f 431 540 542
f 431 542 543
f 431 543 432
f 436 438 437
f 439 440 544
f 439 544 446
f 440 443 544
f 441 524 444
f 443 545 546
f 443 546 544
f 443 445 547
f 443 547 548
f 443 548 545
f 444 524 445
f 445 524 547
f 446 544 447
f 447 544 449
f 449 544 450
f 450 544 549
f 451 550 452
f 452 550 551
f 452 551 453
f 455 552 456
f 456 552 457
f 457 553 458
f 457 552 554
f 457 554 553
f 458 553 554
f 458 554 459
f 459 554 460
f 460 554 463
f 460 463 461
f 463 554 555
f 463 555 556
f 463 556 557
f 463 557 558
f 463 558 559
f 463 559 464
f 464 559 465
f 465 559 560
f 465 560 561
f 465 561 562
f 465 562 467
f 466 468 469
f 467 562 563
f 467 563 468
f 468 563 564
f 468 564 469
f 469 564 565
f 469 565 566
f 469 566 471
f 469 471 470
f 471 566 567
f 471 567 568
f 471 568 569
f 471 569 570
f 471 570 472
f 473 571 475
f 473 475 474
f 475 571 572
f 475 572 573
f 475 573 476
f 476 573 477
f 477 573 574
f 477 574 479
f 478 480 575
f 478 575 481
f 479 574 576
f 479 576 577
f 479 577 480
f 480 577 578
f 480 578 575
f 481 575 579
f 481 579 482
f 482 579 580
f 482 580 581
f 482 581 582
f 482 582 483
f 483 582 484
f 484 582 583
f 484 583 584
f 484 584 585
f 484 585 586
f 484 586 587
f 484 587 489
f 484 489 488
f 486 489 588
f 486 588 589
f 486 589 494
f 489 587 588
f 491 498 590
f 491 590 492
f 492 590 591
f 492 591 499
f 494 589 592
f 494 592 495
f 495 592 497
f 495 497 496
f 497 592 593
f 497 593 498
f 498 593 594
f 498 594 595
f 498 595 590
f 500 596 597
f 500 597 501
f 501 598 596
f 501 596 599
f 501 599 508
f 501 508 502
f 501 597 598
f 503 509 508
f 503 508 599
f 503 599 600
f 503 600 504
f 504 513 510
f 504 510 505
f 504 600 601
f 504 601 513
f 505 510 507
f 505 507 506
f 511 514 512
f 512 602 603
f 512 603 526
f 512 514 602
f 513 601 604
f 513 604 514
f 514 604 605
f 514 605 606
f 514 606 607
f 514 607 603
f 514 603 602
f 515 525 516
f 516 608 518
f 516 525 608
f 519 609 610
f 519 610 520
f 520 610 521
f 521 610 611
f 523 612 524
f 524 612 547
f 526 603 528
f 526 528 527
f 528 613 614
f 528 614 615
f 528 615 616
f 528 616 532
f 528 532 529
f 528 603 617
f 528 617 618
f 528 618 613
f 531 536 537
f 532 616 619
f 532 619 620
f 532 620 534
f 532 534 533
f 534 620 621
f 534 621 535
f 535 621 622
f 535 622 536
f 536 622 537
f 537 622 538
f 538 623 624
f 538 624 539
f 538 622 621
f 538 621 623
f 539 624 625
f 539 625 540
f 540 625 542
f 544 546 626
f 544 626 549
f 552 555 554
f 557 627 558
f 558 627 561
f 558 561 559
f 559 561 560
f 561 627 628
f 561 628 629
f 561 629 562
f 562 629 628
f 562 628 563
f 563 628 564
f 564 628 630
f 564 630 565
f 565 630 631
f 565 631 632
f 565 632 633
f 565 633 634
f 565 634 566
f 566 634 635
f 566 635 567
f 567 635 568
f 568 635 636
f 568 636 637
f 568 637 570
f 568 570 569
f 571 638 639
f 571 639 572
f 572 639 640
f 572 640 573
f 573 640 641
f 573 641 642
f 573 642 574
f 575 578 579
f 578 643 580
f 578 580 644
f 578 644 579
f 579 644 580
f 580 643 582
f 580 582 581
f 582 643 583
f 583 643 584
f 586 645 587
f 587 645 646
f 587 646 647
f 587 647 589
f 587 589 588
f 589 647 646
f 589 646 592
f 590 648 591
f 590 595 648
f 592 646 645
f 592 645 649
f 592 649 593
f 593 650 594
f 593 649 650
f 596 651 652
f 596 652 599
f 596 598 597
f 599 652 653
f 599 653 600
f 600 653 601
f 601 653 604
f 603 607 617
f 604 653 605
f 605 653 654
f 605 654 655
f 605 655 656
f 605 656 657
f 605 657 606
f 606 657 607
f 607 657 617
f 609 611 610
f 613 658 615
f 613 615 614
f 615 658 659
f 615 659 619
f 615 619 616
f 617 657 660
f 617 660 618
f 620 661 621
f 621 661 662
f 621 662 623
f 623 662 661
f 623 661 624
f 634 663 635
f 635 663 664
f 635 664 636
f 636 664 665
f 636 665 637
f 637 665 666
f 638 642 641
f 638 641 639
f 639 641 640
f 651 668 653
f 651 653 652
f 653 669 654
f 653 668 669
f 663 667 665
f 663 665 664
f 665 667 666

