# https://github.com/mikedh/trimesh
v 0.00495620 0.50338900 0.31498852
v 0.01493564 0.50240469 0.30730364
v 0.00495620 0.50260156 0.30718166
v -0.00502324 0.50338900 0.31498852
v 0.00495620 0.50069863 0.32174987
v 0.02498537 0.50030494 0.32075658
v 0.03496481 0.50010806 0.32025123
v 0.02498537 0.50253594 0.31498852
v 0.04494426 0.50161731 0.30794838
v 0.03496481 0.50194538 0.30761731
v 0.02498537 0.50220788 0.30746046
v 0.00495620 0.49249637 0.26501051
v -0.00502324 0.50260156 0.30718166
v -0.00502324 0.50069863 0.32174987
v -0.01500268 0.50240469 0.30730364
v -0.02505240 0.50220788 0.30746046
v -0.03503184 0.50194538 0.30761731
v -0.04501128 0.50161731 0.30794838
v -0.02505240 0.50253594 0.31498852
v -0.03503184 0.50010806 0.32025123
v -0.02505240 0.50030494 0.32075658
v 0.00495620 0.49859887 0.32675114
v 0.03496481 0.49085593 0.34201640
v 0.04002480 0.49997681 0.32000726
v 0.01493564 0.49840200 0.32624578
v 0.02498537 0.49426806 0.33499369
v 0.03496481 0.50207663 0.31498852
v 0.05499397 0.50102675 0.31286255
v 0.05499397 0.50102675 0.30854088
v 0.04241425 0.49019974 0.25973040
v 0.03496481 0.49046224 0.25946900
v 0.00495620 0.49098718 0.25889394
v -0.00502324 0.49249637 0.26501051
v -0.00502324 0.49859887 0.32675114
v -0.03503184 0.49046224 0.25946900
v -0.03503184 0.50207663 0.31498852
v -0.04248128 0.49019974 0.25973040
v -0.05506101 0.50102675 0.30854088
v -0.05506101 0.50102675 0.31286255
v -0.04009184 0.49997681 0.32000726
v -0.02505240 0.49426806 0.33499369
v -0.01500268 0.49840200 0.32624578
v -0.03503184 0.49085593 0.34201640
v 0.00495620 0.48934674 0.34851635
v 0.01493564 0.48914987 0.34801099
v 0.03496481 0.48869056 0.34701771
v 0.04494426 0.49046224 0.34111026
v 0.04396036 0.50128919 0.31547648
v 0.04663092 0.49964875 0.31911853
v 0.05499397 0.49912381 0.31786385
v 0.07052536 0.50004244 0.31019637
v 0.07052536 0.50004244 0.30988270
v 0.04909064 0.48980606 0.26119417
v 0.08493230 0.46966130 0.21351638
v 0.08113730 0.47005498 0.21351638
v 0.06658980 0.47149861 0.21351638
v 0.01648176 0.47641999 0.21351638
v 0.00643204 0.47740424 0.21351638
v 0.00495620 0.47753549 0.21351638
v -0.00502324 0.49098718 0.25889394
v -0.00502324 0.48934674 0.34851635
v -0.00502324 0.47753549 0.21351638
v -0.04402740 0.50128919 0.31547648
v -0.04915767 0.48980606 0.26119417
v -0.07059239 0.50004244 0.30988270
v -0.01352684 0.47674805 0.21351638
v -0.08162600 0.47005498 0.21351638
v -0.08542100 0.46966130 0.21351638
v -0.07059239 0.50004244 0.31019637
v -0.05506101 0.49912381 0.31786385
v -0.04669795 0.49964875 0.31911853
v -0.04501128 0.49046224 0.34111026
v -0.01500268 0.48914987 0.34801099
v -0.03503184 0.48869056 0.34701771
v 0.00495620 0.46533048 0.39152396
v 0.00847009 0.46519929 0.39152396
v 0.01844953 0.46480554 0.39152396
v 0.02498537 0.46454310 0.39152396
v 0.03496481 0.46408379 0.39152396
v 0.05499397 0.48271930 0.35461548
v 0.04494426 0.48829681 0.34611154
v 0.05457230 0.48796874 0.34417725
v 0.05766453 0.48967481 0.33929795
v 0.05499397 0.49610537 0.32499111
v 0.06497341 0.49485862 0.32499111
v 0.07495286 0.49354625 0.32499111
v 0.06497341 0.49846762 0.31615609
v 0.07432036 0.49794269 0.31411722
v 0.08493230 0.49584287 0.31498852
v 0.09498201 0.49407119 0.31498852
v 0.11494091 0.49092156 0.31246176
v 0.12105507 0.49019974 0.31070173
v 0.12105507 0.49019974 0.30958644
v 0.10945925 0.47983211 0.26128131
v 0.10278285 0.48048830 0.25939929
v 0.09420896 0.46821773 0.21351638
v 0.08668925 0.46939886 0.21351638
v -0.00502324 0.46533048 0.39152396
v -0.03503184 0.46408379 0.39152396
v -0.02505240 0.46454310 0.39152396
v -0.09427600 0.46821773 0.21351638
v -0.10284989 0.48048830 0.25939929
v -0.10952627 0.47983211 0.26128131
v -0.12112210 0.49019974 0.30958644
v -0.06504045 0.49846762 0.31615609
v -0.12112210 0.49019974 0.31070173
v -0.11500794 0.49092156 0.31246176
v -0.09504905 0.49407119 0.31498852
v -0.08506961 0.49584287 0.31498852
v -0.07438739 0.49794269 0.31411722
v -0.07501989 0.49354625 0.32499111
v -0.06504045 0.49485862 0.32499111
v -0.05506101 0.49610537 0.32499111
v -0.05773156 0.48967481 0.33929795
v -0.04501128 0.48829681 0.34611154
v -0.05463934 0.48796874 0.34417725
v -0.05506101 0.48271930 0.35461548
v 0.04494426 0.46316510 0.39152396
v 0.06497341 0.48206311 0.35391843
v 0.07495286 0.48140693 0.35292515
v 0.07495286 0.48501593 0.34499627
v 0.06497341 0.48921549 0.33820009
v 0.07495286 0.49072468 0.33170018
v 0.08148868 0.49026537 0.33063716
v 0.08486202 0.49184018 0.32554874
v 0.09498201 0.49111843 0.32262117
v 0.10186924 0.49039662 0.32093084
v 0.10510202 0.49184018 0.31552875
v 0.11494091 0.48895299 0.31746304
v 0.10847536 0.48967481 0.31924051
v 0.12597451 0.48271930 0.32598442
v 0.12463924 0.48777187 0.31443089
v 0.13497007 0.48468781 0.31498852
v 0.15239894 0.48075074 0.31195641
v 0.15239894 0.48075074 0.30897653
v 0.14185730 0.47051436 0.25946900
v 0.10496145 0.46533048 0.21351638
v -0.04156768 0.46349323 0.39152396
v -0.10502850 0.46533048 0.21351638
v -0.14192432 0.47051436 0.25946900
v -0.15239570 0.48075074 0.30897653
v -0.15239570 0.48075074 0.31195641
v -0.13503709 0.48468781 0.31498852
v -0.12470627 0.48777187 0.31443089
v -0.12604155 0.48271930 0.32598442
v -0.11500794 0.48895299 0.31746304
v -0.10861266 0.48967481 0.31924051
v -0.10516904 0.49184018 0.31552875
v -0.10193627 0.49039662 0.32093084
v -0.09504905 0.49111843 0.32262117
v -0.08492905 0.49184018 0.32554874
v -0.08155572 0.49026537 0.33063716
v -0.07501989 0.49072468 0.33170018
v -0.06504045 0.48921549 0.33820009
v -0.06504045 0.48206311 0.35391843
v -0.07501989 0.48140693 0.35292515
v -0.07501989 0.48501593 0.34499627
v -0.04501128 0.46316510 0.39152396
v 0.04845814 0.46277142 0.39152396
v 0.06574647 0.46054041 0.39152396
v 0.07003342 0.45994985 0.39152396
v 0.07193092 0.45968735 0.39152396
v 0.07607730 0.45909679 0.39152396
v 0.08493230 0.48061949 0.35137421
v 0.08493230 0.48344111 0.34499627
v 0.08816507 0.48967481 0.32924309
v 0.09498201 0.48895299 0.32762244
v 0.09716062 0.47937280 0.34860349
v 0.11430842 0.47760111 0.34415981
v 0.11494091 0.48580337 0.32499111
v 0.09048425 0.48009455 0.35024154
v 0.12991005 0.47996336 0.32997498
v 0.13497007 0.48140693 0.32324851
v 0.12330395 0.48081636 0.33196154
v 0.14143562 0.48042268 0.32101798
v 0.14487922 0.48173499 0.31518021
v 0.14811200 0.47937280 0.31863058
v 0.15542090 0.47845411 0.31518021
v 0.16497868 0.47543567 0.31498852
v 0.18156421 0.47064555 0.31166014
v 0.18156421 0.47064555 0.30911595
v 0.17158478 0.46054041 0.25939929
v 0.17594200 0.44374216 0.21351638
v 0.17495811 0.44407028 0.21351638
v 0.15774006 0.44931972 0.21351638
v 0.14586312 0.45292872 0.21351638
v 0.12618536 0.45889992 0.21351638
v -0.12625238 0.45889992 0.21351638
v -0.16364014 0.44754803 0.21351638
v -0.17347904 0.44452959 0.21351638
v -0.17495486 0.44407028 0.21351638
v -0.17158154 0.46054041 0.25939929
v -0.18163125 0.47064555 0.30911595
v -0.16497542 0.47543567 0.31498852
v -0.15541765 0.47845411 0.31518021
v -0.14810877 0.47937280 0.31863058
v -0.14150265 0.48042268 0.32101798
v -0.14487599 0.48173499 0.31518021
v -0.18163125 0.47064555 0.31166014
v -0.13503709 0.48140693 0.32324851
v -0.13004738 0.47996336 0.32997498
v -0.12337099 0.48081636 0.33196154
v -0.11500794 0.48580337 0.32499111
v -0.11437543 0.47760111 0.34415981
v -0.09722766 0.47937280 0.34860349
v -0.09055127 0.48009455 0.35024154
v -0.09504905 0.48895299 0.32762244
v -0.08823211 0.48967481 0.32924309
v -0.08506961 0.48344111 0.34499627
v -0.08506961 0.48061949 0.35137421
v -0.08099350 0.45830935 0.39152396
v -0.07614433 0.45909679 0.39152396
v -0.07199794 0.45968735 0.39152396
v -0.06426739 0.46073723 0.39152396
v 0.08514313 0.45745635 0.39152396
v 0.12499061 0.47123611 0.35241979
v 0.12499061 0.47464830 0.34499627
v 0.11718979 0.47937280 0.33861834
v 0.09842563 0.45463479 0.39152396
v 0.11494091 0.47241724 0.35426694
v 0.12597451 0.47871661 0.33516794
v 0.13117507 0.47031748 0.35076430
v 0.13497007 0.47622311 0.33499369
v 0.14487922 0.47779793 0.32460773
v 0.15499923 0.47451705 0.32499111
v 0.16441643 0.47156423 0.32481685
v 0.17151451 0.47057998 0.32138392
v 0.17488784 0.47195792 0.31498852
v 0.17819089 0.46926761 0.31833434
v 0.19983643 0.45988423 0.31986785
v 0.20306921 0.46126217 0.31321108
v 0.20306921 0.46126217 0.30852345
v 0.19990671 0.44997591 0.26011378
v 0.18282923 0.44124866 0.21351638
v -0.18282598 0.44124866 0.21351638
v -0.19990347 0.44997591 0.26011378
v -0.20306596 0.46126217 0.30852345
v -0.17488459 0.47195792 0.31498852
v -0.17151125 0.47057998 0.32138392
v -0.16441320 0.47156423 0.32481685
v -0.15499598 0.47451705 0.32499111
v -0.13503709 0.47622311 0.33499369
v -0.15499598 0.46893948 0.33760762
v -0.17818764 0.46926761 0.31833434
v -0.20306596 0.46126217 0.31321108
v -0.19983318 0.45988423 0.31986785
v -0.13124210 0.47031748 0.35076430
v -0.12505765 0.47464830 0.34499627
v -0.12604155 0.47871661 0.33516794
v -0.13791849 0.46933323 0.34851635
v -0.11725682 0.47937280 0.33861834
v -0.12505765 0.47123611 0.35241979
v -0.11500794 0.47241724 0.35426694
v -0.10158488 0.45397860 0.39152396
v -0.08521016 0.45745635 0.39152396
v 0.11494091 0.45096016 0.39152396
v 0.11922786 0.44991028 0.39152396
v 0.12147674 0.44925410 0.39152396
v 0.15499923 0.46172154 0.35315168
v 0.10552368 0.45305991 0.39152396
v 0.16167560 0.46060598 0.35130453
v 0.13785145 0.46933323 0.34851635
v 0.15499923 0.46565861 0.34499627
v 0.15499923 0.46893948 0.33760762
v 0.16076201 0.47025186 0.33058488
v 0.16743839 0.46907073 0.32804069
v 0.16835201 0.45935929 0.34865576
v 0.17488784 0.46769273 0.32481685
v 0.19316006 0.46126217 0.32281286
v 0.19590089 0.45883435 0.32568815
v 0.19498727 0.45496285 0.33499369
v 0.20046893 0.45017272 0.34050035
v 0.20496672 0.45529097 0.32499111
v 0.20581004 0.45896554 0.31592953
v 0.21480560 0.45509410 0.31500596
v 0.21480560 0.45365047 0.30740818
v 0.21480560 0.44288915 0.26499307
v 0.21480560 0.44118309 0.25924248
v 0.21480560 0.42464733 0.21355124
v 0.19590089 0.43475252 0.21351638
v 0.18908393 0.43829590 0.21351638
v 0.18781894 0.43895203 0.21351638
v 0.18711618 0.43928015 0.21351638
v -0.18359903 0.44092059 0.21351638
v -0.18781570 0.43895203 0.21351638
v -0.22007319 0.44000196 0.25995693
v -0.22309513 0.45155072 0.30838406
v -0.16834876 0.45935929 0.34865576
v -0.16743514 0.46907073 0.32804069
v -0.17488459 0.46769273 0.32481685
v -0.16075876 0.47025186 0.33058488
v -0.15499598 0.46565861 0.34499627
v -0.19315681 0.46126217 0.32281286
v -0.23497207 0.44492328 0.31498852
v -0.22253290 0.45122260 0.31498852
v -0.21494290 0.45502847 0.31498852
v -0.20580681 0.45896554 0.31592953
v -0.20496348 0.45529097 0.32499111
v -0.20046569 0.45017272 0.34050035
v -0.19498402 0.45496285 0.33499369
v -0.19589764 0.45883435 0.32568815
v -0.16167237 0.46060598 0.35130453
v -0.15499598 0.46172154 0.35315168
v -0.13236654 0.44597316 0.39152396
v -0.12154377 0.44925410 0.39152396
v -0.11739738 0.45036960 0.39152396
v -0.11500794 0.45096016 0.39152396
v -0.11360238 0.45128822 0.39152396
v 0.14487922 0.44210172 0.39152396
v 0.15043119 0.44039565 0.39152396
v 0.16497868 0.46218085 0.34518796
v 0.15120423 0.44013315 0.39152396
v 0.15450728 0.43895203 0.39152396
v 0.15577227 0.43849272 0.39152396
v 0.16469756 0.43514621 0.39152396
v 0.18493757 0.45102578 0.35193187
v 0.19006783 0.45004147 0.35008469
v 0.17530951 0.45817816 0.34518796
v 0.17889366 0.45955610 0.33907139
v 0.18936506 0.45975298 0.32946962
v 0.19674420 0.44866353 0.34715712
v 0.20426393 0.44662935 0.34429923
v 0.21044838 0.45023835 0.33049777
v 0.21480560 0.45122260 0.32384101
v 0.21480560 0.45502847 0.31518021
v 0.21480560 0.42451608 0.21351638
v 0.20665339 0.42897809 0.21351638
v -0.19498402 0.43521184 0.21351638
v -0.24003208 0.43002802 0.25997436
v -0.24284318 0.44151115 0.30840147
v -0.16497542 0.46218085 0.34518796
v -0.17530626 0.45817816 0.34518796
v -0.19006458 0.45004147 0.35008469
v -0.18936181 0.45975298 0.32946962
v -0.17889042 0.45955610 0.33907139
v -0.24228096 0.44118309 0.31498852
v -0.24017262 0.44006753 0.32025123
v -0.22028401 0.45010710 0.32030350
v -0.21424013 0.45128822 0.32417208
v -0.21044514 0.45023835 0.33049777
v -0.20426069 0.44662935 0.34429923
v -0.19674097 0.44866353 0.34715712
v -0.16469431 0.43514621 0.39152396
v -0.15576904 0.43849272 0.39152396
v -0.15120098 0.44013315 0.39152396
v -0.15042792 0.44039565 0.39152396
v -0.18493430 0.45102578 0.35193187
v 0.18029922 0.42884690 0.39152396
v 0.18500784 0.42694396 0.39152396
v 0.20496672 0.44177365 0.35295999
v 0.21079978 0.44039565 0.35079917
v 0.21480560 0.44131428 0.34470004
v 0.21480560 0.45082891 0.32467744
v 0.21480560 -0.16696502 0.21351638
v -0.20144957 0.43179971 0.21351638
v -0.23511264 0.41382033 0.21351638
v -0.25338483 0.40404326 0.21351638
v -0.26041263 0.40023738 0.21351638
v -0.27074346 0.41047382 0.25952128
v -0.28030121 0.42018527 0.30967358
v -0.26160735 0.43094665 0.30883712
v -0.26160735 0.43094665 0.31230491
v -0.18500459 0.42694396 0.39152396
v -0.21079652 0.44039565 0.35079917
v -0.20496348 0.44177365 0.35295999
v -0.24727067 0.43836147 0.31498852
v -0.25254151 0.43153721 0.32314396
v -0.24502179 0.43501496 0.32502598
v -0.24270263 0.43160284 0.33499369
v -0.24045373 0.43022484 0.34058747
v -0.23708040 0.43849272 0.32690799
v -0.22436014 0.44144553 0.33426180
v -0.23040402 0.44019878 0.33044547
v -0.17678209 0.43029046 0.39152396
v -0.18163125 0.42832196 0.39152396
v 0.18845144 0.42543471 0.39152396
v 0.19505754 0.42248189 0.39152396
v 0.19716588 0.42149764 0.39152396
v 0.20011756 0.42005408 0.39152396
v 0.21480560 0.41263920 0.39152396
v 0.21480560 -0.16696502 0.39140195
v -0.44650814 -0.16696502 0.21351638
v -0.26533207 0.39702213 0.21351638
v -0.30004928 0.39000100 0.25995693
v -0.32042983 0.39032906 0.30953416
v -0.28030121 0.42018527 0.31056231
v -0.26498067 0.42753452 0.31538934
v -0.25921792 0.42950302 0.31897911
v -0.25549316 0.43330890 0.31538934
v -0.19182153 0.42392552 0.39152396
v -0.21262375 0.41375470 0.39152396
v -0.20123875 0.41946352 0.39152396
v -0.19913042 0.42051339 0.39152396
v -0.19505431 0.42248189 0.39152396
v -0.21747291 0.43868959 0.34731394
v -0.23068513 0.43035609 0.35074687
v -0.25921792 0.41952908 0.33905399
v -0.24516234 0.42510664 0.34520540
v -0.23736152 0.42858440 0.34726167
v -0.23440985 0.43153721 0.34435150
v -0.23419902 0.43645859 0.33426180
v -0.22724152 0.43862396 0.33711967
v 0.21480560 0.32530159 0.39152396
v -0.34622177 -0.16696502 0.39152396
v -0.46267202 -0.16696502 0.26337245
v -0.47054312 -0.14209576 0.25938186
v -0.44714063 -0.16499646 0.21351638
v -0.27235985 0.39190391 0.21351638
v -0.28346372 0.38284862 0.21351638
v -0.31066123 0.36053848 0.21351638
v -0.33188510 0.34308410 0.21351638
v -0.31087205 0.38074884 0.25938186
v -0.27313289 0.39131334 0.21351638
v -0.32042983 0.39032906 0.31080627
v -0.34130234 0.37116861 0.30880228
v -0.27791178 0.41867608 0.31721908
v -0.27474928 0.42195696 0.31432635
v -0.29161596 0.41119564 0.31263602
v -0.28493956 0.41493583 0.31493625
v -0.27123541 0.42077583 0.32161045
v -0.26856485 0.41913539 0.32826722
v -0.21894875 0.41053945 0.39152396
v -0.24319458 0.42195696 0.35297742
v -0.23082569 0.40404326 0.39152396
v -0.22492236 0.40732414 0.39152396
v -0.22126791 0.40929270 0.39152396
v -0.27123541 0.41080189 0.34161562
v -0.26856485 0.40909582 0.34828982
v -0.24987096 0.41985720 0.34984073
v -0.43427980 -0.16696502 0.39152396
v -0.47321367 -0.16696502 0.30721650
v -0.48087397 -0.15246342 0.30887198
v -0.49015063 -0.12076990 0.30965614
v -0.47989008 -0.10974608 0.26054943
v -0.46534258 -0.10495596 0.21351638
v -0.46485063 -0.10659640 0.21351638
v -0.33357179 0.34164047 0.21351638
v -0.32127315 0.37110299 0.25917277
v -0.33792901 0.35804498 0.26501051
v -0.33778843 0.33776903 0.21351638
v -0.31839177 0.38868862 0.31748047
v -0.31501845 0.39275694 0.31448317
v -0.30264956 0.40194348 0.31498852
v -0.34130234 0.37116861 0.31239206
v -0.33940482 0.36946255 0.31906626
v -0.32893342 0.37904277 0.31828207
v -0.35149258 0.36145714 0.30862802
v -0.28247982 0.41178620 0.32499111
v -0.28044179 0.41034257 0.33067203
v -0.27474928 0.41690439 0.32495627
v -0.29498929 0.40732414 0.31558102
v -0.28950763 0.40962079 0.31931022
v -0.23391791 0.40220594 0.39152396
v -0.26188844 0.41119564 0.35207126
v -0.27474928 0.41217989 0.33440122
v -0.27474928 0.40673357 0.34496140
v -0.28023094 0.40017179 0.35031122
v -0.43505287 -0.16499646 0.39152396
v -0.46049342 -0.16145308 0.35107797
v -0.46028256 -0.16696502 0.34729651
v -0.47454897 -0.16696502 0.31359446
v -0.48087397 -0.15246342 0.31225264
v -0.49015063 -0.12076990 0.31057975
v -0.50013006 -0.07076895 0.30976072
v -0.48059285 -0.10305305 0.25932959
v -0.46822396 -0.09419461 0.21351638
v -0.34305927 0.35305804 0.26501051
v -0.34158343 0.33356947 0.21351638
v -0.37117037 0.32143015 0.25912046
v -0.36772674 0.32753259 0.26501051
v -0.36266679 0.33284765 0.26501051
v -0.35788786 0.33783466 0.26501051
v -0.35289815 0.34301847 0.26501051
v -0.34804899 0.34800541 0.26501051
v -0.32183540 0.38160187 0.32499111
v -0.31129372 0.38114256 0.34212098
v -0.31171539 0.39137897 0.32263860
v -0.30068177 0.40049988 0.32098311
v -0.35149258 0.36145714 0.31289741
v -0.34551901 0.36545986 0.31598184
v -0.34973568 0.35968545 0.31955418
v -0.34305927 0.36283511 0.32499111
v -0.34102121 0.36093217 0.33166531
v -0.33750731 0.36782208 0.32499111
v -0.33251762 0.37221849 0.32499111
v -0.36133149 0.35141757 0.30871513
v -0.27791178 0.40857089 0.33734623
v -0.28486928 0.40489629 0.33483687
v -0.23876707 0.39925313 0.39152396
v -0.25633651 0.38836053 0.39152396
v -0.25190902 0.39118212 0.39152396
v -0.30946648 0.38960728 0.32929537
v -0.30040067 0.39032906 0.34063974
v -0.29801124 0.38855737 0.34729651
v -0.29140511 0.39098525 0.35174018
v -0.26919734 0.37943649 0.39152396
v -0.26729983 0.38081446 0.39152396
v -0.26434818 0.38291425 0.39152396
v -0.26174790 0.38475156 0.39152396
v -0.44018313 -0.15049489 0.39152396
v -0.46161786 -0.15495692 0.35299486
v -0.46941867 -0.13783060 0.34874287
v -0.46857536 -0.14570476 0.34524024
v -0.46555340 -0.15495692 0.34499627
v -0.46203953 -0.16486524 0.34511825
v -0.44215092 -0.14491735 0.39152396
v -0.46168813 -0.16696502 0.34422952
v -0.47454897 -0.16696502 0.31500596
v -0.47110534 -0.16696502 0.32338792
v -0.47953868 -0.14839511 0.31890941
v -0.48185784 -0.14504857 0.31533706
v -0.49092367 -0.11499552 0.31253147
v -0.50013006 -0.07076895 0.31038806
v -0.50048149 -0.06499456 0.30918565
v -0.49008036 -0.04176578 0.25985238
v -0.48979923 -0.04845881 0.26161242
v -0.46969980 -0.08494245 0.21351638
v -0.34228623 0.33278203 0.21351638
v -0.38058758 0.31080002 0.25946900
v -0.38086870 0.33101034 0.30901140
v -0.37117037 0.34124678 0.30880228
v -0.31551039 0.37543380 0.34579787
v -0.30911511 0.37930524 0.34877774
v -0.33476651 0.36480367 0.33464518
v -0.36133149 0.35141757 0.31263602
v -0.35957456 0.34958029 0.31931022
v -0.36772674 0.33763778 0.32499111
v -0.35493621 0.34492141 0.33488914
v -0.34207538 0.35207376 0.34499627
v -0.34038872 0.35036767 0.35064232
v -0.33891290 0.35896367 0.33833951
v -0.33012816 0.36007917 0.35018924
v -0.28557205 0.36736277 0.39152396
v -0.28142565 0.37044680 0.39152396
v -0.30243874 0.38186437 0.35282058
v -0.44425926 -0.13842116 0.39152396
v -0.44531342 -0.13494341 0.39152396
v -0.47026202 -0.13120319 0.35067719
v -0.47750062 -0.11440496 0.34424695
v -0.47180814 -0.13468094 0.34524024
v -0.47623563 -0.13494341 0.33499369
v -0.48045230 -0.14176770 0.32113996
v -0.47089452 -0.14288320 0.34206870
v -0.46984035 -0.14957623 0.33971617
v -0.46892673 -0.15495692 0.33760762
v -0.47117564 -0.15495692 0.33260632
v -0.48895591 -0.11499552 0.31753275
v -0.48972896 -0.10889305 0.31944960
v -0.49197784 -0.10534967 0.31566817
v -0.49113452 -0.09498201 0.32263860
v -0.49352396 -0.07496850 0.32499111
v -0.49858394 -0.06499456 0.31650460
v -0.50048149 -0.06499456 0.31150332
v -0.50273037 -0.02496755 0.31498852
v -0.50104368 -0.05495501 0.30847117
v -0.50146532 -0.04498106 0.30805296
v -0.49036145 -0.03494149 0.25955611
v -0.47757089 -0.00495405 0.21351638
v -0.47743034 -0.00646326 0.21351638
v -0.47068369 -0.07516536 0.21351638
v -0.34305927 0.33186340 0.21351638
v -0.39007509 0.30003864 0.25993949
v -0.38086870 0.33101034 0.31188670
v -0.39021564 0.32024902 0.30967358
v -0.37117037 0.34124678 0.31239206
v -0.31965679 0.36965939 0.34949219
v -0.29751927 0.35778254 0.39152396
v -0.29421622 0.36060411 0.39152396
v -0.29245928 0.36204770 0.39152396
v -0.36941344 0.33940947 0.31906626
v -0.36161262 0.33173215 0.34499627
v -0.37243539 0.33265081 0.32499111
v -0.37067842 0.33068228 0.33121222
v -0.35683370 0.33671913 0.34499627
v -0.35022759 0.34026250 0.35041580
v -0.33673427 0.35706073 0.34499627
v -0.33638287 0.32129890 0.39152396
v -0.32900372 0.32897621 0.39152396
v -0.32401401 0.33396316 0.39152396
v -0.32127315 0.33665353 0.39152396
v -0.31888372 0.33895016 0.39152396
v -0.31129372 0.34570879 0.39152396
v -0.29028067 0.36375377 0.39152396
v -0.44714063 -0.12844722 0.39152396
v -0.47110534 -0.12496947 0.35222811
v -0.47862506 -0.10495596 0.34693056
v -0.48017117 -0.11066474 0.34041321
v -0.48263091 -0.12575687 0.32586241
v -0.48136592 -0.13494341 0.32319623
v -0.49043173 -0.10226561 0.32108766
v -0.48579341 -0.11499552 0.32499111
v -0.48080367 -0.10495596 0.34194672
v -0.48825312 -0.10534967 0.32466003
v -0.49169675 -0.08461435 0.32544419
v -0.47946841 -0.09708180 0.34883001
v -0.48150647 -0.09419461 0.34529251
v -0.48853424 -0.07496850 0.33661431
v -0.49148589 -0.06499456 0.33347762
v -0.49507007 -0.06499456 0.32499111
v -0.49914619 -0.05495501 0.31796840
v -0.50104368 -0.05495501 0.31296712
v -0.50315201 -0.01499361 0.31498852
v -0.50230867 -0.02496755 0.30737334
v -0.50188702 -0.03494149 0.30768701
v -0.50146532 -0.04498106 0.31404752
v -0.50160587 -0.03520396 0.31582499
v -0.50013006 -0.03198868 0.32039064
v -0.50041115 -0.02496755 0.32103539
v -0.49071285 -0.02496755 0.25917277
v -0.47757089 0.00501989 0.21351638
v -0.49085340 -0.01499361 0.25899848
v -0.49085340 -0.00495405 0.25898108
v -0.35078984 0.32248002 0.21351638
v -0.37313813 0.29531413 0.21351638
v -0.39134008 0.27313524 0.21351638
v -0.39281595 0.27110109 0.21351638
v -0.39696231 0.26532668 0.21351638
v -0.41038537 0.27064174 0.25959098
v -0.42008370 0.28015637 0.30983043
v -0.41115841 0.29170513 0.30871513
v -0.36105037 0.31001258 0.21351638
v -0.37918204 0.32904184 0.31856090
v -0.37517619 0.33520991 0.31547648
v -0.39021564 0.32024902 0.31054488
v -0.38473397 0.32464540 0.31455287
v -0.36871064 0.32858250 0.33786899
v -0.36006647 0.33009171 0.35020667
v -0.37742507 0.32694203 0.32499111
v -0.36976480 0.31978968 0.34968388
v -0.34601092 0.31119370 0.39152396
v -0.45107618 -0.11374877 0.39152396
v -0.47237036 -0.11499552 0.35414496
v -0.45198980 -0.11020540 0.39152396
v -0.45318452 -0.10548089 0.39152396
v -0.48003063 -0.09038876 0.35015440
v -0.45480090 -0.09845977 0.39152396
v -0.45557398 -0.09498201 0.39152396
v -0.48487979 -0.07496850 0.34499627
v -0.48649618 -0.06499456 0.34499627
v -0.48979923 -0.05777659 0.33955932
v -0.49984896 -0.03868173 0.31971100
v -0.49619451 -0.05495501 0.32499111
v -0.49710813 -0.04498106 0.32499111
v -0.50315201 0.01505946 0.31498852
v -0.50251949 -0.01499361 0.30725136
v -0.50062203 -0.01499361 0.32147104
v -0.49823257 -0.03520396 0.32424179
v -0.49830285 -0.02496755 0.32603669
v -0.49232924 -0.01499361 0.26501051
v -0.47658703 0.01505946 0.21351638
v -0.49085340 0.00501989 0.25898108
v -0.49085340 0.01505946 0.25899848
v -0.49071285 0.02503340 0.25917277
v -0.49036145 0.03500734 0.25955611
v -0.49008036 0.04183161 0.25985238
v -0.40019509 0.26040533 0.21351638
v -0.42978203 0.23960441 0.26147300
v -0.43104702 0.26178330 0.30875000
v -0.42008370 0.28015637 0.31026608
v -0.38157147 0.32188946 0.32499111
v -0.38859928 0.31828046 0.31720164
v -0.40061677 0.30082607 0.32122707
v -0.41115841 0.29170513 0.31265345
v -0.40216288 0.30272898 0.31498852
v -0.36716455 0.32517034 0.34581530
v -0.34861121 0.30843776 0.39152396
v -0.35261703 0.30364764 0.39152396
v -0.37538704 0.31552452 0.34576303
v -0.37918204 0.30896270 0.34851635
v -0.39112926 0.29150829 0.35198414
v -0.38185260 0.30233526 0.35273346
v -0.48052257 -0.08494245 0.35113025
v -0.45676869 -0.08842020 0.39152396
v -0.48811257 -0.05462691 0.34412497
v -0.48136592 -0.07496850 0.35278574
v -0.48213896 -0.06499456 0.35404041
v -0.49078313 -0.03494149 0.34182471
v -0.50273037 0.02503340 0.31498852
v -0.50230867 0.02503340 0.30737334
v -0.50251949 0.01505946 0.30725136
v -0.50062203 0.01505946 0.32147104
v -0.50041115 0.02503340 0.32103539
v -0.48923701 -0.01499361 0.34825495
v -0.48902619 -0.02496755 0.34778446
v -0.49232924 0.01505946 0.26501051
v -0.47068369 0.07523121 0.21351638
v -0.50188702 0.03500734 0.30768701
v -0.50146532 0.04504690 0.30805296
v -0.50104368 0.05502085 0.30847117
v -0.50048149 0.06506041 0.30918565
v -0.50013006 0.07083479 0.30976072
v -0.48979923 0.04852466 0.26161242
v -0.46969980 0.08500829 0.21351638
v -0.47005120 0.08159616 0.21351638
v -0.40314674 0.25502467 0.21351638
v -0.44011286 0.22031271 0.25983495
v -0.44995174 0.22995856 0.30996981
v -0.43104702 0.26178330 0.31254888
v -0.42078647 0.27123231 0.32162789
v -0.41853759 0.27785975 0.31692284
v -0.41488314 0.28481525 0.31477943
v -0.42767370 0.26506424 0.31552875
v -0.39506480 0.30509123 0.32514796
v -0.40750399 0.29505166 0.31558102
v -0.40961230 0.28947413 0.31931022
v -0.40293592 0.29505166 0.32472971
v -0.39956260 0.28934291 0.33917597
v -0.39267537 0.29492044 0.34440377
v -0.38852900 0.29820132 0.34733137
v -0.35781759 0.29728270 0.39152396
v -0.37946314 0.26919815 0.39152396
v -0.37763593 0.27182287 0.39152396
v -0.37159204 0.28015637 0.39152396
v -0.37088925 0.28107503 0.39152396
v -0.39801648 0.28717750 0.34499627
v -0.40012482 0.28015637 0.35024154
v -0.46063396 -0.06604445 0.39152396
v -0.48277146 -0.05495501 0.35472003
v -0.48818284 -0.04498106 0.34583274
v -0.48860452 -0.03494149 0.34682602
v -0.46161786 -0.05882646 0.39152396
v -0.46210980 -0.05495501 0.39152396
v -0.50160587 0.03526981 0.31582499
v -0.50146532 0.04504690 0.31404752
v -0.50104368 0.05502085 0.31296712
v -0.50048149 0.06506041 0.31150332
v -0.50013006 0.03205453 0.32039064
v -0.49830285 0.02503340 0.32603669
v -0.48923701 0.01505946 0.34825495
v -0.46471009 -0.02496755 0.39152396
v -0.46499118 -0.01847138 0.39152396
v -0.46513173 -0.01499361 0.39152396
v -0.50013006 0.07083479 0.31038806
v -0.49015063 0.12083575 0.30965614
v -0.47989008 0.10981192 0.26054943
v -0.48059285 0.10311887 0.25932959
v -0.46962953 0.08546762 0.21351638
v -0.41059619 0.24111363 0.21351638
v -0.43589619 0.19373740 0.21351638
v -0.43891814 0.18783177 0.21351638
v -0.44088590 0.18363222 0.21351638
v -0.44123730 0.18284480 0.21351638
v -0.44981119 0.19964303 0.26142073
v -0.44995174 0.22995856 0.31000468
v -0.47061342 0.18186054 0.30906367
v -0.44601619 0.23396127 0.31401268
v -0.42957118 0.25935546 0.31922308
v -0.42303535 0.26519546 0.32497370
v -0.42127842 0.26204580 0.33269346
v -0.41966203 0.25942108 0.33936763
v -0.41909981 0.26867321 0.32830209
v -0.41073674 0.27110109 0.34147620
v -0.41158009 0.28232175 0.32499111
v -0.40820676 0.28730875 0.32499111
v -0.41129899 0.26191455 0.35217583
v -0.38276619 0.26434243 0.39152396
v -0.40905008 0.26854199 0.34813297
v -0.46302339 -0.04498106 0.39152396
v -0.46358564 -0.03841926 0.39152396
v -0.46442896 -0.02844532 0.39152396
v -0.49984896 0.03874756 0.31971100
v -0.49914619 0.05502085 0.31796840
v -0.49858394 0.06506041 0.31650460
v -0.49823257 0.03526981 0.32424179
v -0.49710813 0.04504690 0.32499111
v -0.48902619 0.02503340 0.34778446
v -0.49078313 0.03500734 0.34182471
v -0.46513173 0.01505946 0.39152396
v -0.46471009 0.02503340 0.39152396
v -0.49352396 0.07503435 0.32499111
v -0.49113452 0.09504785 0.32263860
v -0.49197784 0.10541551 0.31566817
v -0.49092367 0.11506136 0.31253147
v -0.49015063 0.12083575 0.31057975
v -0.48087397 0.15252927 0.30887198
v -0.47054312 0.14216162 0.25938186
v -0.46534258 0.10502180 0.21351638
v -0.46822396 0.09426044 0.21351638
v -0.44404840 0.17497064 0.21351638
v -0.46049342 0.17162412 0.25943416
v -0.45107618 0.22424980 0.31401268
v -0.44854620 0.22707137 0.31667888
v -0.47061342 0.18186054 0.31176472
v -0.46126646 0.20279269 0.31308910
v -0.44130757 0.23428935 0.32403269
v -0.43997231 0.23999813 0.32005954
v -0.43146870 0.25266242 0.32307425
v -0.42985231 0.24977522 0.32974845
v -0.41994315 0.24990645 0.34994528
v -0.42155954 0.25279364 0.34327108
v -0.41853759 0.25561523 0.34595472
v -0.39935175 0.23888263 0.39152396
v -0.39759481 0.24176982 0.39152396
v -0.39534593 0.24544442 0.39152396
v -0.39246452 0.24990645 0.39152396
v -0.39119953 0.25180936 0.39152396
v -0.39049676 0.25285926 0.39152396
v -0.38459343 0.26165208 0.39152396
v -0.49619451 0.05502085 0.32499111
v -0.48979923 0.05784243 0.33955932
v -0.49507007 0.06506041 0.32499111
v -0.48277146 0.05502085 0.35472003
v -0.48860452 0.03500734 0.34682602
v -0.48811257 0.05469276 0.34412497
v -0.46302339 0.04504690 0.39152396
v -0.49169675 0.08468021 0.32544419
v -0.49148589 0.06506041 0.33347762
v -0.48853424 0.07503435 0.33661431
v -0.49043173 0.10233146 0.32108766
v -0.48150647 0.09426044 0.34529251
v -0.47946841 0.09714764 0.34883001
v -0.48972896 0.10895889 0.31944960
v -0.48895591 0.11506136 0.31753275
v -0.48045230 0.14183353 0.32113996
v -0.48185784 0.14511442 0.31533706
v -0.48087397 0.15252927 0.31225264
v -0.44454035 0.17346142 0.21351638
v -0.44714063 0.16506231 0.21351638
v -0.45016259 0.22044395 0.32044291
v -0.44039398 0.22083765 0.34093601
v -0.44025341 0.23048350 0.33055004
v -0.47180814 0.17483941 0.31505823
v -0.46927813 0.17812030 0.31842148
v -0.46801314 0.18507582 0.31505823
v -0.46316397 0.19583718 0.31584242
v -0.45986092 0.19970864 0.31976330
v -0.43139842 0.24249160 0.33499369
v -0.43146870 0.23435497 0.34414241
v -0.43034425 0.23061475 0.35069460
v -0.40391982 0.23074599 0.39152396
v -0.48649618 0.06506041 0.34499627
v -0.48213896 0.06506041 0.35404041
v -0.48818284 0.04504690 0.34583274
v -0.46210980 0.05502085 0.39152396
v -0.48487979 0.07503435 0.34499627
v -0.48003063 0.09045459 0.35015440
v -0.48825312 0.10541551 0.32466003
v -0.47237036 0.11506136 0.35414496
v -0.47110534 0.12503530 0.35222811
v -0.47862506 0.10502180 0.34693056
v -0.48080367 0.10502180 0.34194672
v -0.45557398 0.09504785 0.39152396
v -0.48017117 0.11073057 0.34041321
v -0.48579341 0.11506136 0.32499111
v -0.48263091 0.12582272 0.32586241
v -0.48136592 0.13500924 0.32319623
v -0.47953868 0.14846095 0.31890941
v -0.47623563 0.13500924 0.33499369
v -0.46941867 0.13789645 0.34874287
v -0.45508203 0.20495808 0.32499111
v -0.45016259 0.21033877 0.33035836
v -0.44861647 0.21703181 0.32711709
v -0.44165897 0.21447271 0.34456062
v -0.43884787 0.21749114 0.34761018
v -0.43863702 0.22746508 0.33722425
v -0.46309370 0.18573201 0.32579273
v -0.47047284 0.17142726 0.32113996
v -0.45965007 0.17903896 0.33926308
v -0.46133673 0.19308123 0.32300454
v -0.45494148 0.19498414 0.33499369
v -0.44039398 0.21086371 0.35078174
v -0.43189037 0.22497159 0.35294259
v -0.41263425 0.21506327 0.39152396
v -0.40919065 0.22129698 0.39152396
v -0.48136592 0.07503435 0.35278574
v -0.48052257 0.08500829 0.35113025
v -0.46077451 0.06506041 0.39152396
v -0.45409814 0.10154404 0.39152396
v -0.45318452 0.10554674 0.39152396
v -0.47026202 0.13126902 0.35067719
v -0.45107618 0.11381462 0.39152396
v -0.44903815 0.12155755 0.39152396
v -0.44629729 0.13153149 0.39152396
v -0.47750062 0.11447079 0.34424695
v -0.45733091 0.08520515 0.39152396
v -0.47180814 0.13474678 0.34524024
v -0.47089452 0.14294903 0.34206870
v -0.46984035 0.14964208 0.33971617
v -0.47117564 0.15502276 0.33260632
v -0.47019175 0.16060029 0.33042806
v -0.46161786 0.15502276 0.35299486
v -0.46049342 0.16151895 0.35107797
v -0.46857536 0.14577061 0.34524024
v -0.44531342 0.13500924 0.39152396
v -0.45866618 0.18573201 0.33555132
v -0.45979062 0.18960346 0.32966131
v -0.46899703 0.16722772 0.32781413
v -0.46260175 0.17542997 0.33555132
v -0.45831481 0.17542997 0.34511825
v -0.45466036 0.18494458 0.34499627
v -0.45002201 0.19012842 0.35015440
v -0.45107618 0.19406550 0.34414241
v -0.44854620 0.19682145 0.34691316
v -0.42837647 0.18159807 0.39152396
v -0.42050537 0.19905247 0.39152396
v -0.41769424 0.20508933 0.39152396
v -0.45114645 0.18494458 0.35212356
v -0.46035287 0.06761951 0.39152396
v -0.45965007 0.07175345 0.39152396
v -0.45803368 0.08113683 0.39152396
v -0.46555340 0.15502276 0.34499627
v -0.46892673 0.15502276 0.33760762
v -0.46203953 0.16493107 0.34511825
v -0.44215092 0.14498319 0.39152396
v -0.43990204 0.15134814 0.39152396
v -0.43505287 0.16506231 0.39152396
v -0.45929870 0.16821198 0.34855118
v -0.43034425 0.17713603 0.39152396
v -0.43160924 0.17392075 0.39152396
f 1 2 3
f 1 3 13
f 1 13 4
f 1 4 14
f 1 14 5
f 1 5 6
f 1 6 7
f 1 7 8
f 1 8 9
f 1 9 10
f 1 10 11
f 1 11 2
f 2 12 3
f 2 11 12
f 3 12 33
f 3 33 13
f 4 13 15
f 4 15 16
f 4 16 17
f 4 17 18
f 4 18 19
f 4 19 20
f 4 20 21
f 4 21 14
f 5 14 34
f 5 34 22
f 5 22 6
f 6 22 25
f 6 25 7
f 7 23 24
f 7 24 8
f 7 25 26
f 7 26 23
f 8 24 27
f 8 27 9
f 9 28 29
f 9 29 30
f 9 30 31
f 9 31 10
f 9 27 28
f 10 31 11
f 11 31 12
f 12 32 60
f 12 60 33
f 12 31 32
f 13 33 15
f 14 21 34
f 15 33 16
f 16 35 17
f 16 33 35
f 17 35 18
f 18 36 19
f 18 35 37
f 18 37 38
f 18 38 39
f 18 39 36
f 19 36 40
f 19 40 20
f 20 41 42
f 20 42 34
f 20 34 21
f 20 40 43
f 20 43 41
f 22 34 61
f 22 61 44
f 22 44 45
f 22 45 25
f 23 26 45
f 23 45 46
f 23 46 81
f 23 81 47
f 23 47 24
f 24 48 27
f 24 47 49
f 24 49 48
f 25 45 26
f 27 48 28
f 28 48 49
f 28 49 50
f 28 50 51
f 28 51 52
f 28 52 29
f 29 52 30
f 30 52 53
f 30 53 54
f 30 54 55
f 30 55 56
f 30 56 57
f 30 57 58
f 30 58 59
f 30 59 31
f 31 59 32
f 32 59 62
f 32 62 60
f 33 60 35
f 34 42 73
f 34 73 61
f 35 60 62
f 35 62 37
f 36 39 63
f 36 63 40
f 37 64 65
f 37 65 38
f 37 62 66
f 37 66 67
f 37 67 68
f 37 68 64
f 38 65 69
f 38 69 39
f 39 69 70
f 39 70 71
f 39 71 63
f 40 72 43
f 40 63 71
f 40 71 72
f 41 43 73
f 41 73 42
f 43 72 115
f 43 115 74
f 43 74 73
f 44 61 98
f 44 98 75
f 44 75 76
f 44 76 77
f 44 77 78
f 44 78 79
f 44 79 45
f 45 79 46
f 46 79 80
f 46 80 81
f 47 81 82
f 47 82 83
f 47 83 49
f 49 83 84
f 49 84 85
f 49 85 50
f 50 85 86
f 50 86 87
f 50 87 51
f 51 87 86
f 51 86 88
f 51 88 89
f 51 89 90
f 51 90 91
f 51 91 92
f 51 92 93
f 51 93 52
f 52 93 94
f 52 94 95
f 52 95 53
f 53 95 96
f 53 96 97
f 53 97 54
f 54 97 96
f 54 96 137
f 54 137 187
f 54 187 186
f 54 186 185
f 54 185 184
f 54 184 183
f 54 183 234
f 54 234 283
f 54 283 282
f 54 282 281
f 54 281 280
f 54 280 327
f 54 327 326
f 54 326 354
f 54 354 382
f 54 382 407
f 54 407 436
f 54 436 435
f 54 435 466
f 54 466 517
f 54 517 560
f 54 560 559
f 54 559 558
f 54 558 610
f 54 610 650
f 54 650 686
f 54 686 694
f 54 694 693
f 54 693 737
f 54 737 778
f 54 778 777
f 54 777 818
f 54 818 817
f 54 817 779
f 54 779 742
f 54 742 741
f 54 741 740
f 54 740 739
f 54 739 738
f 54 738 695
f 54 695 656
f 54 656 617
f 54 617 616
f 54 616 615
f 54 615 614
f 54 614 621
f 54 621 613
f 54 613 561
f 54 561 518
f 54 518 468
f 54 468 440
f 54 440 437
f 54 437 411
f 54 411 410
f 54 410 409
f 54 409 413
f 54 413 408
f 54 408 383
f 54 383 358
f 54 358 357
f 54 357 356
f 54 356 355
f 54 355 328
f 54 328 285
f 54 285 284
f 54 284 235
f 54 235 191
f 54 191 190
f 54 190 189
f 54 189 188
f 54 188 139
f 54 139 101
f 54 101 68
f 54 68 67
f 54 67 66
f 54 66 62
f 54 62 59
f 54 59 58
f 54 58 57
f 54 57 56
f 54 56 55
f 61 73 99
f 61 99 100
f 61 100 98
f 64 68 101
f 64 101 102
f 64 102 65
f 65 102 103
f 65 103 104
f 65 104 106
f 65 106 69
f 69 105 70
f 69 106 107
f 69 107 108
f 69 108 109
f 69 109 110
f 69 110 111
f 69 111 105
f 70 105 111
f 70 111 112
f 70 112 71
f 71 112 113
f 71 113 114
f 71 114 72
f 72 114 116
f 72 116 115
f 73 74 99
f 74 115 117
f 74 117 99
f 75 98 100
f 75 100 99
f 75 99 138
f 75 138 158
f 75 158 214
f 75 214 213
f 75 213 212
f 75 212 211
f 75 211 255
f 75 255 254
f 75 254 308
f 75 308 307
f 75 307 306
f 75 306 305
f 75 305 304
f 75 304 346
f 75 346 345
f 75 345 344
f 75 344 343
f 75 343 374
f 75 374 375
f 75 375 363
f 75 363 390
f 75 390 394
f 75 394 393
f 75 393 392
f 75 392 391
f 75 391 422
f 75 422 426
f 75 426 425
f 75 425 424
f 75 424 453
f 75 453 489
f 75 489 491
f 75 491 490
f 75 490 499
f 75 499 498
f 75 498 497
f 75 497 496
f 75 496 534
f 75 534 533
f 75 533 583
f 75 583 569
f 75 569 568
f 75 568 567
f 75 567 582
f 75 582 581
f 75 581 580
f 75 580 579
f 75 579 578
f 75 578 577
f 75 577 630
f 75 630 666
f 75 666 667
f 75 667 710
f 75 710 714
f 75 714 713
f 75 713 712
f 75 712 711
f 75 711 756
f 75 756 798
f 75 798 797
f 75 797 796
f 75 796 795
f 75 795 794
f 75 794 793
f 75 793 792
f 75 792 830
f 75 830 864
f 75 864 863
f 75 863 896
f 75 896 895
f 75 895 894
f 75 894 908
f 75 908 909
f 75 909 906
f 75 906 905
f 75 905 904
f 75 904 884
f 75 884 873
f 75 873 872
f 75 872 871
f 75 871 869
f 75 869 868
f 75 868 842
f 75 842 875
f 75 875 900
f 75 900 899
f 75 899 898
f 75 898 867
f 75 867 834
f 75 834 805
f 75 805 769
f 75 769 768
f 75 768 732
f 75 732 731
f 75 731 730
f 75 730 760
f 75 760 759
f 75 759 758
f 75 758 722
f 75 722 721
f 75 721 717
f 75 717 673
f 75 673 637
f 75 637 636
f 75 636 634
f 75 634 633
f 75 633 631
f 75 631 584
f 75 584 537
f 75 537 536
f 75 536 506
f 75 506 500
f 75 500 458
f 75 458 430
f 75 430 404
f 75 404 403
f 75 403 380
f 75 380 379
f 75 379 378
f 75 378 377
f 75 377 376
f 75 376 349
f 75 349 348
f 75 348 315
f 75 315 314
f 75 314 313
f 75 313 312
f 75 312 310
f 75 310 309
f 75 309 258
f 75 258 257
f 75 257 256
f 75 256 260
f 75 260 219
f 75 219 215
f 75 215 163
f 75 163 162
f 75 162 161
f 75 161 160
f 75 160 159
f 75 159 118
f 75 118 79
f 75 79 78
f 75 78 77
f 75 77 76
f 79 118 80
f 80 118 119
f 80 119 81
f 81 119 120
f 81 120 82
f 82 120 121
f 82 121 122
f 82 122 83
f 83 122 85
f 83 85 84
f 85 122 123
f 85 123 86
f 86 123 124
f 86 124 125
f 86 125 88
f 88 125 89
f 89 125 90
f 90 125 126
f 90 126 127
f 90 127 128
f 90 128 91
f 91 129 92
f 91 128 130
f 91 130 129
f 92 129 131
f 92 131 132
f 92 132 133
f 92 133 134
f 92 134 135
f 92 135 93
f 93 135 136
f 93 136 94
f 94 137 96
f 94 96 95
f 94 136 137
f 99 117 138
f 101 139 103
f 101 103 102
f 103 139 140
f 103 140 104
f 104 140 141
f 104 141 142
f 104 142 106
f 106 142 143
f 106 143 144
f 106 144 145
f 106 145 146
f 106 146 107
f 107 146 147
f 107 147 148
f 107 148 108
f 108 148 149
f 108 149 150
f 108 150 151
f 108 151 109
f 109 151 110
f 110 151 111
f 111 151 152
f 111 152 153
f 111 153 112
f 112 154 114
f 112 114 113
f 112 153 154
f 114 154 116
f 115 155 117
f 115 116 156
f 115 156 155
f 116 154 157
f 116 157 156
f 117 155 158
f 117 158 138
f 118 159 119
f 119 159 120
f 120 159 160
f 120 160 161
f 120 161 162
f 120 162 163
f 120 163 164
f 120 164 121
f 121 124 123
f 121 123 122
f 121 164 165
f 121 165 124
f 124 165 166
f 124 166 125
f 125 166 126
f 126 166 167
f 126 167 127
f 127 168 169
f 127 169 170
f 127 170 130
f 127 130 128
f 127 167 171
f 127 171 168
f 129 130 170
f 129 170 131
f 131 172 173
f 131 173 132
f 131 170 174
f 131 174 172
f 132 173 133
f 133 173 175
f 133 175 176
f 133 176 134
f 134 176 177
f 134 177 178
f 134 178 179
f 134 179 180
f 134 180 181
f 134 181 135
f 135 181 182
f 135 182 136
f 136 182 183
f 136 183 184
f 136 184 185
f 136 185 186
f 136 186 187
f 136 187 137
f 139 188 140
f 140 188 189
f 140 189 190
f 140 190 191
f 140 191 192
f 140 192 141
f 141 192 193
f 141 193 199
f 141 199 142
f 142 194 195
f 142 195 196
f 142 196 197
f 142 197 198
f 142 198 143
f 142 199 194
f 143 198 197
f 143 197 200
f 143 200 144
f 144 200 145
f 145 200 201
f 145 201 202
f 145 202 203
f 145 203 146
f 146 203 147
f 147 203 149
f 147 149 148
f 149 203 204
f 149 204 205
f 149 205 206
f 149 206 207
f 149 207 150
f 150 207 208
f 150 208 151
f 151 208 152
f 152 208 209
f 152 209 157
f 152 157 153
f 153 157 154
f 155 156 158
f 156 157 210
f 156 210 211
f 156 211 212
f 156 212 213
f 156 213 214
f 156 214 158
f 157 209 210
f 163 215 164
f 164 215 171
f 164 171 165
f 165 171 166
f 166 171 167
f 168 171 216
f 168 216 169
f 169 216 217
f 169 217 218
f 169 218 170
f 170 218 174
f 171 215 219
f 171 219 220
f 171 220 216
f 172 174 221
f 172 221 217
f 172 217 222
f 172 222 223
f 172 223 173
f 173 223 224
f 173 224 175
f 174 218 217
f 174 217 221
f 175 224 225
f 175 225 177
f 175 177 176
f 177 225 226
f 177 226 178
f 178 226 179
f 179 227 228
f 179 228 180
f 179 226 227
f 180 228 229
f 180 229 230
f 180 230 231
f 180 231 232
f 180 232 181
f 181 232 233
f 181 233 182
f 182 233 234
f 182 234 183
f 191 235 192
f 192 235 236
f 192 236 193
f 193 236 237
f 193 237 245
f 193 245 199
f 194 238 239
f 194 239 240
f 194 240 195
f 194 199 238
f 195 240 196
f 196 240 241
f 196 241 197
f 197 242 201
f 197 201 200
f 197 241 243
f 197 243 242
f 199 244 238
f 199 245 246
f 199 246 244
f 201 247 248
f 201 248 249
f 201 249 202
f 201 242 250
f 201 250 247
f 202 251 203
f 202 249 248
f 202 248 251
f 203 251 204
f 204 251 248
f 204 248 252
f 204 252 205
f 205 252 206
f 206 210 209
f 206 209 208
f 206 208 207
f 206 252 253
f 206 253 254
f 206 254 210
f 210 255 211
f 210 254 255
f 216 220 256
f 216 256 257
f 216 257 258
f 216 258 259
f 216 259 222
f 216 222 217
f 219 260 220
f 220 260 256
f 222 259 261
f 222 261 262
f 222 262 223
f 223 262 263
f 223 263 264
f 223 264 224
f 224 264 225
f 225 264 265
f 225 265 226
f 226 265 266
f 226 266 227
f 227 266 267
f 227 267 268
f 227 268 229
f 227 229 228
f 229 268 269
f 229 269 230
f 230 269 270
f 230 270 271
f 230 271 272
f 230 272 273
f 230 273 274
f 230 274 231
f 231 274 275
f 231 275 232
f 232 275 276
f 232 276 277
f 232 277 233
f 233 277 278
f 233 278 279
f 233 279 280
f 233 280 281
f 233 281 282
f 233 282 283
f 233 283 234
f 235 284 236
f 236 284 285
f 236 285 286
f 236 286 287
f 236 287 237
f 237 287 245
f 238 244 239
f 239 288 289
f 239 289 240
f 239 244 290
f 239 290 288
f 240 291 241
f 240 289 291
f 241 291 243
f 242 243 292
f 242 292 250
f 243 291 292
f 244 246 293
f 244 293 290
f 245 287 294
f 245 294 295
f 245 295 296
f 245 296 297
f 245 297 246
f 246 297 298
f 246 298 299
f 246 299 300
f 246 300 301
f 246 301 293
f 247 252 248
f 247 250 302
f 247 302 303
f 247 303 252
f 250 292 302
f 252 303 304
f 252 304 305
f 252 305 306
f 252 306 307
f 252 307 308
f 252 308 254
f 252 254 253
f 258 309 259
f 259 309 310
f 259 310 261
f 261 267 311
f 261 311 266
f 261 266 265
f 261 265 263
f 261 263 262
f 261 310 312
f 261 312 313
f 261 313 314
f 261 314 315
f 261 315 316
f 261 316 317
f 261 317 267
f 263 265 264
f 266 311 267
f 267 318 268
f 267 317 318
f 268 318 319
f 268 319 317
f 268 317 320
f 268 320 269
f 269 320 271
f 269 271 270
f 271 321 272
f 271 320 317
f 271 317 321
f 272 322 323
f 272 323 273
f 272 321 322
f 273 323 324
f 273 324 274
f 274 324 325
f 274 325 275
f 275 325 324
f 275 324 353
f 275 353 352
f 275 352 380
f 275 380 403
f 275 403 381
f 275 381 354
f 275 354 326
f 275 326 279
f 275 279 278
f 275 278 277
f 275 277 276
f 279 326 327
f 279 327 280
f 285 328 329
f 285 329 286
f 286 329 287
f 287 329 330
f 287 330 294
f 288 302 331
f 288 331 289
f 288 290 332
f 288 332 333
f 288 333 302
f 289 331 302
f 289 302 291
f 290 293 334
f 290 334 333
f 290 333 335
f 290 335 332
f 291 302 292
f 293 301 300
f 293 300 334
f 294 330 336
f 294 336 337
f 294 337 295
f 295 338 296
f 295 337 338
f 296 338 339
f 296 339 297
f 297 339 340
f 297 340 298
f 298 340 299
f 299 341 342
f 299 342 300
f 299 340 341
f 300 333 334
f 300 342 333
f 302 343 344
f 302 344 345
f 302 345 346
f 302 346 303
f 302 333 347
f 302 347 343
f 303 346 304
f 315 348 316
f 316 349 317
f 316 348 349
f 317 349 350
f 317 350 351
f 317 351 321
f 317 319 318
f 321 351 322
f 322 351 323
f 323 351 352
f 323 352 353
f 323 353 324
f 328 355 329
f 329 356 357
f 329 357 358
f 329 358 359
f 329 359 360
f 329 360 361
f 329 361 330
f 329 355 356
f 330 361 362
f 330 362 336
f 332 335 333
f 333 363 347
f 333 342 364
f 333 364 365
f 333 365 363
f 336 362 366
f 336 366 337
f 337 366 367
f 337 367 368
f 337 368 369
f 337 369 370
f 337 370 371
f 337 371 338
f 338 372 340
f 338 340 339
f 338 371 373
f 338 373 372
f 340 372 364
f 340 364 341
f 341 364 342
f 343 347 374
f 347 363 375
f 347 375 374
f 349 376 350
f 350 376 377
f 350 377 351
f 351 377 378
f 351 378 379
f 351 379 380
f 351 380 352
f 354 381 404
f 354 404 430
f 354 430 460
f 354 460 507
f 354 507 509
f 354 509 508
f 354 508 461
f 354 461 431
f 354 431 405
f 354 405 382
f 358 383 359
f 359 383 384
f 359 384 360
f 360 384 385
f 360 385 414
f 360 414 386
f 360 386 362
f 360 362 361
f 362 387 388
f 362 388 389
f 362 389 366
f 362 386 387
f 363 365 390
f 364 391 392
f 364 392 393
f 364 393 394
f 364 394 365
f 364 372 395
f 364 395 396
f 364 396 391
f 365 394 390
f 366 389 388
f 366 388 367
f 367 388 397
f 367 397 398
f 367 398 370
f 367 370 369
f 367 369 368
f 370 399 400
f 370 400 371
f 370 398 399
f 371 400 401
f 371 401 373
f 372 373 401
f 372 401 402
f 372 402 395
f 381 403 404
f 382 405 406
f 382 406 407
f 383 408 384
f 384 409 410
f 384 410 411
f 384 411 412
f 384 412 385
f 384 408 413
f 384 413 409
f 385 412 415
f 385 415 444
f 385 444 414
f 386 416 417
f 386 417 387
f 386 414 418
f 386 418 419
f 386 419 416
f 387 417 388
f 388 417 416
f 388 416 420
f 388 420 421
f 388 421 397
f 391 396 422
f 395 402 400
f 395 400 396
f 396 400 399
f 396 399 423
f 396 423 424
f 396 424 425
f 396 425 426
f 396 426 422
f 397 421 427
f 397 427 428
f 397 428 398
f 398 428 429
f 398 429 399
f 399 429 423
f 400 402 401
f 405 431 432
f 405 432 406
f 406 432 433
f 406 433 434
f 406 434 435
f 406 435 436
f 406 436 407
f 411 437 412
f 412 438 439
f 412 439 415
f 412 437 440
f 412 440 438
f 414 441 442
f 414 442 443
f 414 443 418
f 414 444 445
f 414 445 446
f 414 446 441
f 415 439 447
f 415 447 479
f 415 479 444
f 416 419 448
f 416 448 449
f 416 449 450
f 416 450 420
f 418 451 452
f 418 452 419
f 418 443 451
f 419 452 448
f 420 450 421
f 421 450 427
f 423 453 424
f 423 429 454
f 423 454 453
f 427 450 455
f 427 455 449
f 427 449 456
f 427 456 428
f 428 454 429
f 428 456 457
f 428 457 454
f 430 458 459
f 430 459 460
f 431 461 432
f 432 462 463
f 432 463 433
f 432 461 508
f 432 508 462
f 433 463 513
f 433 513 464
f 433 464 434
f 434 464 465
f 434 465 466
f 434 466 435
f 438 440 439
f 439 440 467
f 439 467 447
f 440 468 469
f 440 469 470
f 440 470 471
f 440 471 472
f 440 472 473
f 440 473 474
f 440 474 467
f 441 446 475
f 441 475 476
f 441 476 477
f 441 477 442
f 442 477 443
f 443 477 478
f 443 478 452
f 443 452 451
f 444 479 480
f 444 480 445
f 445 480 481
f 445 481 482
f 445 482 483
f 445 483 484
f 445 484 485
f 445 485 475
f 445 475 446
f 447 474 486
f 447 486 525
f 447 525 479
f 447 467 474
f 448 452 449
f 449 457 487
f 449 487 456
f 449 455 450
f 449 452 488
f 449 488 457
f 452 478 488
f 453 454 489
f 454 490 491
f 454 491 489
f 454 457 490
f 456 487 457
f 457 488 478
f 457 478 492
f 457 492 493
f 457 493 494
f 457 494 495
f 457 495 496
f 457 496 497
f 457 497 498
f 457 498 499
f 457 499 490
f 458 500 459
f 459 501 502
f 459 502 503
f 459 503 504
f 459 504 505
f 459 505 460
f 459 500 506
f 459 506 501
f 460 505 507
f 462 508 509
f 462 509 510
f 462 510 511
f 462 511 463
f 463 511 512
f 463 512 513
f 464 513 553
f 464 553 514
f 464 514 515
f 464 515 516
f 464 516 465
f 465 516 517
f 465 517 466
f 468 518 469
f 469 519 520
f 469 520 470
f 469 518 519
f 470 520 521
f 470 521 471
f 471 521 472
f 472 521 473
f 473 521 486
f 473 486 474
f 475 522 523
f 475 523 476
f 475 485 524
f 475 524 522
f 476 523 492
f 476 492 477
f 477 492 478
f 479 481 480
f 479 525 481
f 481 525 526
f 481 526 527
f 481 527 528
f 481 528 529
f 481 529 483
f 481 483 482
f 483 529 530
f 483 530 531
f 483 531 532
f 483 532 524
f 483 524 484
f 484 524 485
f 486 521 565
f 486 565 525
f 492 523 494
f 492 494 493
f 494 523 495
f 495 533 534
f 495 534 496
f 495 523 535
f 495 535 533
f 501 506 536
f 501 536 502
f 502 536 537
f 502 537 538
f 502 538 539
f 502 539 540
f 502 540 541
f 502 541 542
f 502 542 510
f 502 510 543
f 502 543 503
f 503 543 544
f 503 544 504
f 504 544 545
f 504 545 505
f 505 545 509
f 505 509 507
f 509 545 546
f 509 546 510
f 510 542 511
f 510 546 544
f 510 544 543
f 511 542 512
f 512 542 547
f 512 547 548
f 512 548 549
f 512 549 513
f 513 549 550
f 513 550 551
f 513 551 552
f 513 552 553
f 514 553 554
f 514 554 555
f 514 555 515
f 515 555 556
f 515 556 557
f 515 557 558
f 515 558 559
f 515 559 560
f 515 560 517
f 515 517 516
f 518 561 562
f 518 562 519
f 519 562 520
f 520 563 565
f 520 565 521
f 520 562 564
f 520 564 624
f 520 624 563
f 522 566 523
f 522 524 532
f 522 532 566
f 523 567 568
f 523 568 569
f 523 569 535
f 523 566 567
f 525 565 570
f 525 570 526
f 526 570 527
f 527 571 528
f 527 570 572
f 527 572 573
f 527 573 571
f 528 571 574
f 528 574 575
f 528 575 530
f 528 530 529
f 530 532 576
f 530 576 531
f 530 575 577
f 530 577 578
f 530 578 579
f 530 579 580
f 530 580 581
f 530 581 532
f 531 576 532
f 532 581 582
f 532 582 567
f 532 567 566
f 533 535 583
f 535 569 583
f 537 584 538
f 538 585 586
f 538 586 539
f 538 584 585
f 539 586 587
f 539 587 540
f 540 587 588
f 540 588 541
f 541 588 589
f 541 589 542
f 542 589 547
f 544 546 545
f 547 589 588
f 547 588 548
f 548 590 549
f 548 588 591
f 548 591 587
f 548 587 592
f 548 592 593
f 548 593 590
f 549 590 550
f 550 594 551
f 550 590 595
f 550 595 596
f 550 596 597
f 550 597 594
f 551 598 599
f 551 599 552
f 551 594 597
f 551 597 598
f 552 600 601
f 552 601 553
f 552 599 600
f 553 601 554
f 554 602 603
f 554 603 604
f 554 604 556
f 554 556 555
f 554 601 605
f 554 605 606
f 554 606 607
f 554 607 608
f 554 608 602
f 556 604 557
f 557 604 603
f 557 603 609
f 557 609 558
f 558 609 611
f 558 611 612
f 558 612 651
f 558 651 610
f 561 613 562
f 562 614 615
f 562 615 616
f 562 616 617
f 562 617 618
f 562 618 619
f 562 619 620
f 562 620 564
f 562 613 621
f 562 621 614
f 563 622 623
f 563 623 565
f 563 624 625
f 563 625 622
f 564 620 619
f 564 619 659
f 564 659 624
f 565 623 570
f 570 623 622
f 570 622 572
f 571 573 626
f 571 626 627
f 571 627 575
f 571 575 574
f 572 622 628
f 572 628 573
f 573 628 629
f 573 629 626
f 575 627 630
f 575 630 577
f 584 631 585
f 585 632 595
f 585 595 586
f 585 631 633
f 585 633 634
f 585 634 632
f 586 595 592
f 586 592 587
f 587 591 588
f 590 593 595
f 592 595 593
f 595 635 596
f 595 632 636
f 595 636 637
f 595 637 635
f 596 635 597
f 597 635 638
f 597 638 639
f 597 639 598
f 598 640 599
f 598 639 640
f 599 640 600
f 600 641 601
f 600 640 642
f 600 642 643
f 600 643 641
f 601 641 605
f 602 644 680
f 602 680 645
f 602 645 603
f 602 608 646
f 602 646 681
f 602 681 644
f 603 645 609
f 605 641 606
f 606 641 607
f 607 641 643
f 607 643 647
f 607 647 648
f 607 648 608
f 608 648 646
f 609 645 649
f 609 649 611
f 610 651 652
f 610 652 653
f 610 653 654
f 610 654 655
f 610 655 650
f 611 649 612
f 612 649 685
f 612 685 651
f 617 656 618
f 618 656 657
f 618 657 658
f 618 658 619
f 619 658 698
f 619 698 659
f 622 660 628
f 622 625 661
f 622 661 662
f 622 662 660
f 624 661 625
f 624 659 663
f 624 663 664
f 624 664 661
f 626 629 665
f 626 665 627
f 627 665 629
f 627 629 666
f 627 666 630
f 628 660 629
f 629 667 666
f 629 660 668
f 629 668 669
f 629 669 670
f 629 670 671
f 629 671 667
f 632 634 636
f 635 672 638
f 635 637 672
f 637 673 672
f 638 672 639
f 639 674 640
f 639 672 675
f 639 675 676
f 639 676 674
f 640 677 643
f 640 643 642
f 640 674 677
f 643 677 647
f 644 678 679
f 644 679 680
f 644 681 682
f 644 682 678
f 645 680 685
f 645 685 649
f 646 648 683
f 646 683 729
f 646 729 681
f 647 677 648
f 648 677 684
f 648 684 683
f 650 655 686
f 651 685 652
f 652 685 653
f 653 685 680
f 653 680 679
f 653 679 654
f 654 679 687
f 654 687 688
f 654 688 655
f 655 688 689
f 655 689 690
f 655 690 691
f 655 691 692
f 655 692 693
f 655 693 694
f 655 694 686
f 656 695 696
f 656 696 657
f 657 696 697
f 657 697 658
f 658 697 744
f 658 744 698
f 659 699 700
f 659 700 701
f 659 701 663
f 659 698 702
f 659 702 699
f 660 662 703
f 660 703 668
f 661 664 662
f 662 664 704
f 662 704 705
f 662 705 706
f 662 706 707
f 662 707 708
f 662 708 709
f 662 709 703
f 663 701 705
f 663 705 704
f 663 704 664
f 667 671 710
f 668 703 709
f 668 709 669
f 669 709 670
f 670 711 712
f 670 712 713
f 670 713 714
f 670 714 710
f 670 710 671
f 670 709 708
f 670 708 707
f 670 707 715
f 670 715 716
f 670 716 711
f 672 673 675
f 673 717 675
f 674 676 718
f 674 718 719
f 674 719 720
f 674 720 677
f 675 717 676
f 676 717 721
f 676 721 722
f 676 722 718
f 677 720 684
f 678 723 724
f 678 724 725
f 678 725 726
f 678 726 690
f 678 690 689
f 678 689 688
f 678 688 687
f 678 687 679
f 678 682 727
f 678 727 723
f 681 728 682
f 681 729 728
f 682 728 727
f 683 684 730
f 683 730 731
f 683 731 732
f 683 732 768
f 683 768 729
f 684 720 718
f 684 718 730
f 690 726 733
f 690 733 691
f 691 733 774
f 691 774 734
f 691 734 735
f 691 735 736
f 691 736 692
f 692 736 737
f 692 737 693
f 695 738 696
f 696 739 740
f 696 740 741
f 696 741 742
f 696 742 743
f 696 743 697
f 696 738 739
f 697 743 745
f 697 745 783
f 697 783 744
f 698 746 747
f 698 747 702
f 698 744 746
f 699 748 749
f 699 749 750
f 699 750 751
f 699 751 752
f 699 752 753
f 699 753 754
f 699 754 705
f 699 705 701
f 699 701 700
f 699 702 747
f 699 747 748
f 705 754 707
f 705 707 706
f 707 754 716
f 707 716 715
f 711 716 755
f 711 755 756
f 716 754 752
f 716 752 757
f 716 757 755
f 718 720 719
f 718 722 758
f 718 758 759
f 718 759 760
f 718 760 730
f 723 727 761
f 723 761 724
f 724 761 725
f 725 761 762
f 725 762 763
f 725 763 726
f 726 763 733
f 727 728 764
f 727 764 765
f 727 765 761
f 728 729 766
f 728 766 767
f 728 767 764
f 729 768 769
f 729 769 766
f 733 763 770
f 733 770 771
f 733 771 772
f 733 772 773
f 733 773 774
f 734 774 816
f 734 816 775
f 734 775 776
f 734 776 735
f 735 776 777
f 735 777 778
f 735 778 737
f 735 737 736
f 742 779 780
f 742 780 743
f 743 780 745
f 744 781 782
f 744 782 746
f 744 783 784
f 744 784 781
f 745 780 775
f 745 775 816
f 745 816 783
f 746 782 785
f 746 785 786
f 746 786 747
f 747 786 785
f 747 785 787
f 747 787 788
f 747 788 789
f 747 789 790
f 747 790 750
f 747 750 749
f 747 749 748
f 750 790 789
f 750 789 791
f 750 791 755
f 750 755 757
f 750 757 752
f 750 752 751
f 752 754 753
f 755 791 789
f 755 789 792
f 755 792 793
f 755 793 794
f 755 794 795
f 755 795 796
f 755 796 797
f 755 797 798
f 755 798 756
f 761 765 762
f 762 765 799
f 762 799 800
f 762 800 801
f 762 801 763
f 763 801 770
f 764 767 765
f 765 767 800
f 765 800 799
f 766 802 803
f 766 803 767
f 766 769 802
f 767 803 804
f 767 804 800
f 769 805 802
f 770 806 771
f 770 801 807
f 770 807 808
f 770 808 806
f 771 809 772
f 771 806 808
f 771 808 810
f 771 810 811
f 771 811 809
f 772 809 812
f 772 812 773
f 773 812 813
f 773 813 814
f 773 814 815
f 773 815 774
f 774 815 816
f 775 780 776
f 776 780 779
f 776 779 817
f 776 817 818
f 776 818 777
f 781 819 782
f 781 784 819
f 782 820 821
f 782 821 785
f 782 819 820
f 783 822 823
f 783 823 824
f 783 824 784
f 783 816 822
f 784 824 825
f 784 825 826
f 784 826 819
f 785 821 827
f 785 827 787
f 787 827 788
f 788 827 789
f 789 827 828
f 789 828 829
f 789 829 792
f 792 829 830
f 800 807 801
f 800 804 831
f 800 831 807
f 802 832 804
f 802 804 833
f 802 833 803
f 802 805 834
f 802 834 832
f 803 833 804
f 804 832 831
f 807 831 808
f 808 831 835
f 808 835 836
f 808 836 810
f 809 811 837
f 809 837 812
f 810 836 811
f 811 838 839
f 811 839 840
f 811 840 841
f 811 841 837
f 811 836 842
f 811 842 838
f 812 837 841
f 812 841 843
f 812 843 844
f 812 844 845
f 812 845 813
f 813 845 846
f 813 846 814
f 814 847 815
f 814 846 848
f 814 848 849
f 814 849 847
f 815 847 816
f 816 847 823
f 816 823 822
f 819 826 850
f 819 850 851
f 819 851 852
f 819 852 853
f 819 853 854
f 819 854 820
f 820 854 829
f 820 829 855
f 820 855 821
f 821 855 829
f 821 829 828
f 821 828 827
f 823 856 824
f 823 847 857
f 823 857 858
f 823 858 856
f 824 856 859
f 824 859 825
f 825 859 826
f 826 860 850
f 826 859 860
f 829 854 861
f 829 861 862
f 829 862 863
f 829 863 864
f 829 864 830
f 831 832 865
f 831 865 866
f 831 866 835
f 832 834 867
f 832 867 865
f 835 866 836
f 836 866 842
f 838 842 868
f 838 868 869
f 838 869 839
f 839 870 840
f 839 869 871
f 839 871 872
f 839 872 873
f 839 873 870
f 840 843 841
f 840 870 874
f 840 874 843
f 842 866 865
f 842 865 875
f 843 845 844
f 843 874 876
f 843 876 848
f 843 848 845
f 845 848 846
f 847 849 877
f 847 877 878
f 847 878 879
f 847 879 880
f 847 880 857
f 848 876 849
f 849 881 882
f 849 882 883
f 849 883 877
f 849 876 874
f 849 874 870
f 849 870 884
f 849 884 881
f 850 860 851
f 851 860 861
f 851 861 853
f 851 853 852
f 853 861 854
f 856 858 885
f 856 885 886
f 856 886 859
f 857 880 887
f 857 887 888
f 857 888 858
f 858 889 890
f 858 890 885
f 858 888 887
f 858 887 880
f 858 880 889
f 859 886 860
f 860 886 891
f 860 891 892
f 860 892 893
f 860 893 861
f 861 894 895
f 861 895 896
f 861 896 862
f 861 893 891
f 861 891 897
f 861 897 894
f 862 896 863
f 865 867 898
f 865 898 899
f 865 899 900
f 865 900 875
f 870 873 884
f 877 883 878
f 878 883 901
f 878 901 902
f 878 902 879
f 879 902 880
f 880 902 903
f 880 903 889
f 881 884 904
f 881 904 882
f 882 903 901
f 882 901 883
f 882 904 905
f 882 905 906
f 882 906 897
f 882 897 907
f 882 907 903
f 885 890 886
f 886 890 891
f 889 903 907
f 889 907 897
f 889 897 890
f 890 897 891
f 891 893 892
f 894 897 908
f 897 906 909
f 897 909 908
f 901 903 902

