# https://github.com/mikedh/trimesh
v 0.34498948 -0.15834662 -0.41431668
v 0.15843730 0.34495413 -0.41437814
v 0.35498723 -0.14496571 -0.41437814
v 0.35498723 -0.15834662 -0.41431668
v 0.15843730 -0.15834662 -0.38752005
v 0.15843730 0.35155541 -0.41437814
v 0.36498502 -0.13497460 -0.41437814
v 0.36498502 -0.14496571 -0.41419378
v 0.36504751 -0.15834662 -0.41234997
v 0.15843730 -0.15834662 0.21349898
v 0.17502734 0.34495413 -0.41437814
v 0.15843730 0.35494524 -0.41431668
v 0.37498277 -0.10494190 -0.41437814
v 0.38498056 -0.07496865 -0.41431668
v 0.37498277 -0.11499244 -0.41400939
v 0.37238961 -0.14496571 -0.41198120
v 0.37120238 -0.15287530 -0.41118222
v 0.36845300 -0.15834662 -0.40970719
v 0.44912252 -0.15834662 0.21349898
v 0.15843730 0.44914687 0.21349898
v 0.21501844 0.32497197 -0.41437814
v 0.16502957 0.35494524 -0.41419378
v 0.15843730 0.36267644 -0.41296455
v 0.38498056 -0.06497757 -0.41437814
v 0.39497834 -0.00497161 -0.41364062
v 0.39251015 -0.07496865 -0.41216558
v 0.38498056 -0.08495973 -0.41382501
v 0.38201249 -0.11499244 -0.41185829
v 0.38091898 -0.12313995 -0.41099784
v 0.37985671 -0.12980065 -0.40952280
v 0.37032759 -0.15834662 -0.40749460
v 0.44930997 -0.15775189 0.21349898
v 0.44840392 -0.15834662 0.20759881
v 0.15843730 0.43433866 0.09494231
v 0.17502734 0.44409186 0.21349898
v 0.17965132 0.43986943 0.19088164
v 0.17137191 0.44040468 0.17496347
v 0.24501175 0.30498981 -0.41407084
v 0.25500953 0.29499876 -0.41425523
v 0.26500729 0.28494817 -0.41437814
v 0.20502067 0.33496308 -0.41394794
v 0.23501398 0.31498092 -0.41376355
v 0.15843730 0.36499578 -0.41234997
v 0.16502957 0.36321166 -0.41198120
v 0.38498056 0.06502544 -0.41437814
v 0.39497834 0.00501947 -0.41364062
v 0.40128943 -0.00497161 -0.41142806
v 0.39163533 -0.08495973 -0.41161245
v 0.40082079 -0.01496269 -0.41099784
v 0.40032089 -0.02495377 -0.41044471
v 0.40003970 -0.03066295 -0.41007593
v 0.39063555 -0.09209622 -0.41075200
v 0.39400980 -0.08495973 -0.40497473
v 0.39107296 -0.09524816 -0.40429869
v 0.38160631 -0.12587559 -0.40571228
v 0.38035661 -0.13116848 -0.40288511
v 0.37716979 -0.14496571 -0.39495674
v 0.37563890 -0.14496571 -0.40497473
v 0.37188974 -0.15572989 -0.40509766
v 0.37095243 -0.15834662 -0.40331531
v 0.45112208 -0.15186429 0.21349898
v 0.44740415 -0.15834662 0.19954753
v 0.15843730 0.40026194 -0.17769502
v 0.18290059 0.44129673 0.21349898
v 0.18171336 0.44076151 0.20495602
v 0.18068233 0.44028574 0.19751933
v 0.18040115 0.43017569 0.11848155
v 0.17012219 0.41001514 -0.07044702
v 0.15946831 0.38979506 -0.25863808
v 0.26535097 0.29535556 -0.41253436
v 0.27578613 0.28572130 -0.41259581
v 0.28500283 0.26496601 -0.41437814
v 0.21501844 0.33526042 -0.41228849
v 0.22501621 0.32497197 -0.41333333
v 0.25494704 0.30504930 -0.41234997
v 0.15843730 0.36987239 -0.40903112
v 0.20502067 0.34239691 -0.41173536
v 0.17252791 0.36130860 -0.41118222
v 0.37498277 0.10504924 -0.41437814
v 0.38498056 0.07501652 -0.41431668
v 0.39251015 0.07501652 -0.41216558
v 0.40128943 0.00501947 -0.41142806
v 0.40322649 -0.00497161 -0.40497473
v 0.39594686 -0.07496865 -0.40497473
v 0.40128943 -0.02495377 -0.40497473
v 0.40038338 -0.03435014 -0.40466744
v 0.40013343 -0.04142717 -0.40116420
v 0.39857128 -0.06497757 -0.39495674
v 0.39747778 -0.07496865 -0.39495674
v 0.39997721 -0.07996419 -0.37000391
v 0.39535326 -0.08495973 -0.39495674
v 0.38085648 -0.13283366 -0.39495674
v 0.39829010 -0.08400820 -0.37399882
v 0.37354562 -0.15495679 -0.39495674
v 0.37907562 -0.14692822 -0.37498218
v 0.37957552 -0.14865288 -0.36674652
v 0.37998167 -0.15002072 -0.36004734
v 0.37938806 -0.15834662 -0.34099472
v 0.45624593 -0.13497460 0.21349898
v 0.45030975 -0.15103170 0.20495602
v 0.45518368 -0.13497460 0.20495602
v 0.44078064 -0.15834662 0.14650738
v 0.15843730 0.38997349 -0.25968289
v 0.18914920 0.43832320 0.21349898
v 0.18671224 0.43838266 0.20495602
v 0.19502288 0.43410078 0.20495602
v 0.18502511 0.42589381 0.10496031
v 0.17130943 0.40067822 -0.13498020
v 0.16090550 0.38045818 -0.32495362
v 0.16018690 0.38004190 -0.33066940
v 0.15906215 0.37962559 -0.33730710
v 0.15843730 0.37938771 -0.34099472
v 0.27297428 0.29226309 -0.41142806
v 0.28578392 0.27573022 -0.41259581
v 0.28297204 0.28292620 -0.41142806
v 0.29500061 0.25497496 -0.41425523
v 0.32499394 0.21495114 -0.41437814
v 0.21167544 0.34085068 -0.41087490
v 0.22501621 0.33169219 -0.41112077
v 0.24451187 0.31474304 -0.41191974
v 0.26225790 0.30177841 -0.41136661
v 0.15843730 0.37028867 -0.40749460
v 0.15959328 0.36963451 -0.40853944
v 0.19208604 0.35107964 -0.41105929
v 0.36498502 0.13502249 -0.41437814
v 0.36498502 0.14501357 -0.41419378
v 0.37498277 0.11504032 -0.41400939
v 0.38498056 0.08500761 -0.41382501
v 0.39163533 0.08500761 -0.41161245
v 0.40003970 0.03071083 -0.41007593
v 0.40032089 0.02500165 -0.41044471
v 0.40082079 0.01501057 -0.41099784
v 0.40322649 0.00501947 -0.40497473
v 0.41009998 -0.00122495 -0.35095125
v 0.40566346 -0.00497161 -0.38493872
v 0.40250790 -0.02495377 -0.39495674
v 0.40053961 -0.04487646 -0.39507964
v 0.39994597 -0.06955682 -0.37965316
v 0.40025842 -0.07496865 -0.37227792
v 0.40294531 -0.04499540 -0.37498218
v 0.40941262 -0.06497757 -0.30479467
v 0.41200578 -0.07496865 -0.27498648
v 0.40953758 -0.07538494 -0.29514542
v 0.40988126 -0.07901266 -0.28918377
v 0.46012008 -0.09049051 0.13888633
v 0.45021603 -0.09072839 0.05806620
v 0.44021827 -0.09078786 -0.02195495
v 0.39151037 -0.10577449 -0.37541240
v 0.39085424 -0.13283366 -0.31499705
v 0.40000847 -0.15002072 -0.20006654
v 0.40150812 -0.10577449 -0.29545271
v 0.44915378 -0.09721071 0.06494974
v 0.38032535 -0.15091276 -0.35494617
v 0.37910688 -0.15769243 -0.34498963
v 0.39288506 -0.15495679 -0.24499393
v 0.38947958 -0.15834662 -0.26367781
v 0.46058869 -0.12064216 0.21349898
v 0.42000401 -0.15002072 -0.04008570
v 0.46040124 -0.10131419 0.16494545
v 0.43078285 -0.15834662 0.06648625
v 0.19502288 0.43523073 0.21349898
v 0.20873858 0.42791581 0.21349898
v 0.24604277 0.40799314 0.21349898
v 0.25085419 0.40044034 0.17674580
v 0.22564107 0.39205498 0.01547430
v 0.18939914 0.40965831 0.00244474
v 0.16502957 0.37421376 -0.35494617
v 0.16412352 0.37748465 -0.33435699
v 0.16393606 0.37207282 -0.37498218
v 0.16049933 0.37022921 -0.40190172
v 0.15843730 0.37094286 -0.40331531
v 0.27962905 0.28958690 -0.40835506
v 0.29540676 0.26532286 -0.41253436
v 0.30502963 0.24498385 -0.41407084
v 0.29231372 0.27293509 -0.41142806
v 0.28962681 0.27959582 -0.40835506
v 0.35498723 0.16499573 -0.41419378
v 0.31502739 0.23499277 -0.41376355
v 0.33499169 0.20496006 -0.41394794
v 0.23010883 0.33008647 -0.41007593
v 0.21314386 0.34162378 -0.40497473
v 0.21814275 0.33876920 -0.40497473
v 0.23407668 0.32437730 -0.41130513
v 0.25154155 0.31123424 -0.41105929
v 0.19380441 0.35197169 -0.40497473
v 0.36320418 0.16499573 -0.41198120
v 0.37238961 0.14501357 -0.41198120
v 0.38201249 0.11504032 -0.41185829
v 0.38091898 0.12318781 -0.41099784
v 0.39063555 0.09220356 -0.41075200
v 0.39594686 0.07501652 -0.40497473
v 0.40038338 0.03445749 -0.40466744
v 0.40128943 0.02500165 -0.40497473
v 0.39747778 0.07501652 -0.39495674
v 0.39857128 0.06502544 -0.39495674
v 0.40566346 0.00501947 -0.38493872
v 0.41009998 0.00127283 -0.35095125
v 0.41288060 -0.00497161 -0.32495362
v 0.40806916 -0.00497161 -0.36496416
v 0.44999731 0.00002393 -0.02004968
v 0.40469491 -0.01496269 -0.38493872
v 0.40710062 -0.01496269 -0.36496416
v 0.42041016 -0.01442745 -0.25470462
v 0.44740415 -0.04499540 -0.00505339
v 0.43984336 -0.06842688 -0.04875158
v 0.45646465 -0.07496865 0.09494231
v 0.46964920 -0.08495973 0.21288440
v 0.45971391 -0.08721963 0.13218719
v 0.46858692 -0.09191781 0.21349898
v 0.46821201 -0.09417769 0.21349898
v 0.46699354 -0.09495081 0.20495602
v 0.46005759 -0.10018423 0.15947551
v 0.41025618 -0.15834662 -0.09773534
v 0.40025842 -0.15834662 -0.17769502
v 0.46533766 -0.10494190 0.21349898
v 0.25510326 0.40311652 0.21349898
v 0.25919610 0.39954829 0.20317367
v 0.25110415 0.39056820 0.10496031
v 0.23554511 0.37189439 -0.09410919
v 0.22582853 0.38236123 -0.05526636
v 0.17587091 0.37242961 -0.32538381
v 0.18502511 0.36487687 -0.34498963
v 0.19502288 0.35411263 -0.38493872
v 0.18008871 0.36000025 -0.40018085
v 0.24085642 0.32063061 -0.41062906
v 0.28034762 0.29024109 -0.40171736
v 0.28497159 0.28494817 -0.40503621
v 0.30509213 0.25491548 -0.41234997
v 0.30184284 0.26223037 -0.41136661
v 0.29028291 0.28030947 -0.40171736
v 0.33008653 0.23005670 -0.41007593
v 0.32065114 0.24082091 -0.41062906
v 0.31127822 0.25152564 -0.41105929
v 0.32499394 0.22494224 -0.41333333
v 0.33530414 0.21495114 -0.41228849
v 0.22501621 0.33430889 -0.40497473
v 0.21920499 0.33954233 -0.39680055
v 0.22404768 0.33674720 -0.39409629
v 0.23067120 0.33050275 -0.40497473
v 0.23567009 0.32639927 -0.40497473
v 0.19964686 0.34977126 -0.39852142
v 0.34242755 0.20496006 -0.41173536
v 0.36129835 0.17248905 -0.41118222
v 0.37120238 0.15286371 -0.41118222
v 0.37985671 0.12984854 -0.40952280
v 0.39400980 0.08500761 -0.40497473
v 0.40013343 0.04147504 -0.40116420
v 0.40053961 0.04492433 -0.39507964
v 0.40250790 0.02500165 -0.39495674
v 0.39997721 0.08007154 -0.37000391
v 0.40025842 0.07501652 -0.37227792
v 0.39994597 0.06966416 -0.37965316
v 0.40294531 0.04504327 -0.37498218
v 0.40953758 0.07543282 -0.29514542
v 0.41200578 0.07501652 -0.27498648
v 0.40941262 0.06502544 -0.30479467
v 0.40469491 0.01501057 -0.38493872
v 0.40806916 0.00501947 -0.36496416
v 0.41288060 0.00501947 -0.32495362
v 0.44999731 0.00008340 -0.02004968
v 0.45493373 -0.00497161 0.02493917
v 0.43981209 -0.00800461 -0.09847286
v 0.47011784 -0.00146283 0.14878142
v 0.47758493 -0.00497161 0.21349898
v 0.46814954 -0.00497161 0.13495287
v 0.46718100 -0.01496269 0.13495287
v 0.47061771 -0.06509651 0.20464873
v 0.46958673 -0.07556336 0.20464873
v 0.47183621 -0.06349079 0.21349898
v 0.47005534 -0.08151042 0.21349898
v 0.46971166 -0.08495973 0.21349898
v 0.46964920 -0.08537602 0.21349898
v 0.46574381 -0.10345513 0.21349898
v 0.26044580 0.40020245 0.21349898
v 0.26003966 0.39996457 0.20987284
v 0.26028961 0.39015192 0.13857904
v 0.25950852 0.38967615 0.13194132
v 0.24979194 0.37986347 0.02088280
v 0.23573257 0.36220068 -0.16478840
v 0.21501844 0.34477574 -0.37498218
v 0.22004856 0.34001809 -0.39016283
v 0.20049042 0.35024706 -0.39182225
v 0.27416152 0.29642606 -0.39471090
v 0.28097248 0.29077631 -0.39495674
v 0.29012671 0.29006267 -0.35064393
v 0.28950185 0.28946796 -0.35728166
v 0.28878325 0.28875431 -0.36496416
v 0.28784597 0.28780279 -0.37498218
v 0.28597137 0.28589973 -0.39495674
v 0.31477746 0.24444863 -0.41191974
v 0.30146793 0.27174568 -0.37498218
v 0.30631059 0.26407397 -0.38438559
v 0.31318405 0.25568861 -0.38438559
v 0.33052394 0.23059195 -0.40497473
v 0.31730813 0.24670851 -0.40497473
v 0.30331126 0.29398775 -0.24499393
v 0.29943714 0.28928953 -0.29496104
v 0.30278012 0.28334248 -0.30497906
v 0.34086540 0.21162078 -0.41087490
v 0.33167994 0.22494224 -0.41112077
v 0.32440031 0.23404124 -0.41130513
v 0.33677256 0.22399069 -0.39409629
v 0.33955318 0.21917357 -0.39680055
v 0.33433560 0.22494224 -0.40497473
v 0.33880335 0.21810310 -0.40497473
v 0.22979639 0.33983967 -0.34904599
v 0.23598251 0.33377367 -0.35574514
v 0.24566785 0.32300946 -0.37406027
v 0.23048374 0.34031543 -0.34240830
v 0.24060649 0.35048494 -0.22317556
v 0.23429540 0.33674720 -0.34541985
v 0.35108188 0.19205491 -0.41105929
v 0.36964023 0.15952443 -0.40853944
v 0.38160631 0.12592347 -0.40571228
v 0.39107296 0.09529604 -0.40429869
v 0.37188974 0.15571830 -0.40509766
v 0.37563890 0.14501357 -0.40497473
v 0.37716979 0.14501357 -0.39495674
v 0.38035661 0.13121636 -0.40288511
v 0.39535326 0.08500761 -0.39495674
v 0.40513232 0.03505220 -0.36496416
v 0.40710062 0.01501057 -0.36496416
v 0.40988126 0.07906053 -0.28918377
v 0.39829010 0.08405608 -0.37399882
v 0.44871634 0.09452292 0.05480882
v 0.45021603 0.09083574 0.05806620
v 0.46012008 0.09053838 0.13888633
v 0.43968713 0.03505220 -0.07745348
v 0.42041016 0.01447533 -0.25470462
v 0.45971391 0.08732696 0.13218719
v 0.46964920 0.08500761 0.21288440
v 0.46005759 0.08066624 0.12948292
v 0.44971615 0.06716639 0.03231440
v 0.43981209 0.00805248 -0.09847286
v 0.45493373 0.00501947 0.02493917
v 0.46814954 0.00501947 0.13495287
v 0.47758493 0.00501947 0.21349898
v 0.47011784 0.00157018 0.14878142
v 0.47577283 -0.02346700 0.21349898
v 0.47558537 -0.01496269 0.20495602
v 0.46971166 -0.04707688 0.18233868
v 0.26538220 0.39699104 0.21349898
v 0.27241188 0.39193603 0.21349898
v 0.27013114 0.39009243 0.18934515
v 0.24979194 0.36981291 -0.04912034
v 0.24029405 0.36017865 -0.16134661
v 0.28743979 0.29785335 -0.31499705
v 0.30006197 0.33002698 -0.04020862
v 0.28572142 0.29315513 -0.35433155
v 0.31015348 0.32009539 -0.05071830
v 0.33005530 0.33002698 0.11958783
v 0.31218427 0.29261991 -0.19496533
v 0.31765181 0.26710698 -0.29496104
v 0.38626152 0.27406505 0.18559608
v 0.31633961 0.25551018 -0.36496416
v 0.33361700 0.23439807 -0.36496416
v 0.33130503 0.23154348 -0.39495674
v 0.34033427 0.23041353 -0.34240830
v 0.33983436 0.22975937 -0.34904599
v 0.33939698 0.22910517 -0.35494617
v 0.30884129 0.29856700 -0.18494733
v 0.34089664 0.33109748 0.19499949
v 0.31746435 0.30689287 -0.08501308
v 0.34164646 0.21310756 -0.40497473
v 0.34002182 0.22000615 -0.39016283
v 0.34980091 0.19960770 -0.39852142
v 0.24029405 0.34019649 -0.29139635
v 0.25900865 0.36915874 -0.00505339
v 0.35198790 0.19377956 -0.40497473
v 0.36189196 0.17546257 -0.40411431
v 0.37023383 0.16047595 -0.40190172
v 0.38085648 0.13288154 -0.39495674
v 0.38888595 0.10641707 -0.39495674
v 0.39232266 0.09505816 -0.39495674
v 0.37354562 0.15494518 -0.39495674
v 0.38007540 0.16011913 -0.33066940
v 0.37963802 0.15904866 -0.33730710
v 0.37998167 0.15000911 -0.36004734
v 0.37957552 0.14864129 -0.36674652
v 0.38979200 0.15940548 -0.25863808
v 0.38098145 0.14525145 -0.36404225
v 0.37976298 0.13930438 -0.38813466
v 0.38988572 0.10968795 -0.37909999
v 0.43871859 0.09452292 -0.02521233
v 0.46102613 0.10344353 0.17496347
v 0.46040124 0.10136206 0.16494545
v 0.46005759 0.10023211 0.15947551
v 0.46699354 0.09505816 0.20495602
v 0.46821201 0.09428504 0.21349898
v 0.44740415 0.04504327 -0.00505339
v 0.46718100 0.01501057 0.13495287
v 0.46971166 0.08500761 0.21349898
v 0.47252357 0.05652113 0.21349898
v 0.47646016 0.01655680 0.21349898
v 0.47361708 0.03505220 0.20495602
v 0.47061771 0.06514438 0.20464873
v 0.46958673 0.07561123 0.20464873
v 0.47558537 0.01501057 0.20495602
v 0.29534429 0.37314329 0.21349898
v 0.28415927 0.37641418 0.17527077
v 0.31049716 0.33038384 0.01750249
v 0.31221554 0.35179329 0.16494545
v 0.31721440 0.34768981 0.16494545
v 0.33280468 0.34233743 0.21349898
v 0.33780357 0.33781767 0.21349898
v 0.33852217 0.33704454 0.21349898
v 0.34233382 0.33282214 0.21349898
v 0.34733272 0.32675612 0.21349898
v 0.36017358 0.31022325 0.20876655
v 0.38710511 0.27828747 0.21349898
v 0.39129165 0.27156729 0.20495602
v 0.36676586 0.25426129 -0.04549419
v 0.33183616 0.24224821 -0.33497161
v 0.36129835 0.25158513 -0.09503109
v 0.33761612 0.23707426 -0.32495362
v 0.38048157 0.26056519 0.07681156
v 0.36982769 0.24974152 -0.04912034
v 0.36017358 0.24022621 -0.16134661
v 0.34986338 0.22975937 -0.27910432
v 0.35751793 0.21411856 -0.28445134
v 0.39219770 0.25568861 0.13513726
v 0.37476408 0.23499277 -0.07505654
v 0.36982769 0.16969392 -0.36877471
v 0.36804682 0.16636357 -0.39495674
v 0.37748224 0.16410367 -0.33435699
v 0.38045031 0.16089225 -0.32495362
v 0.38032535 0.15090117 -0.35494617
v 0.39022940 0.16053542 -0.25193891
v 0.41003749 0.17005074 -0.07044702
v 0.43987459 0.17962554 0.19088164
v 0.43465698 0.14501357 0.06494974
v 0.42084756 0.13288154 -0.07505654
v 0.45518368 0.13502249 0.20495602
v 0.46190092 0.11640815 0.21349898
v 0.46427539 0.10504924 0.20495602
v 0.46533766 0.10504924 0.21349898
v 0.31068462 0.36053550 0.21349898
v 0.31024721 0.36017865 0.20876655
v 0.32674354 0.34733298 0.21349898
v 0.39194775 0.27234042 0.21349898
v 0.39060432 0.26086253 0.14497089
v 0.39016691 0.26020837 0.13857904
v 0.38969827 0.25949472 0.13194132
v 0.40000847 0.25997049 0.20987284
v 0.40238294 0.25646171 0.21349898
v 0.40775675 0.24427021 0.20489457
v 0.41066235 0.23124611 0.17496347
v 0.40863153 0.22744000 0.14497089
v 0.39988351 0.20977719 0.01080333
v 0.40747556 0.18408585 -0.03443136
v 0.42453426 0.18497789 0.09494231
v 0.43018925 0.18033919 0.11848155
v 0.44028074 0.18063654 0.19751933
v 0.44374871 0.17599782 0.21349898
v 0.44409239 0.17498681 0.21349898
v 0.44668555 0.16648251 0.21349898
v 0.45624593 0.13502249 0.21349898
v 0.39619681 0.26651227 0.21349898
v 0.39700913 0.26532286 0.21349898
v 0.39791518 0.26395503 0.21349898
v 0.40025842 0.26038677 0.21349898
v 0.40700692 0.24783847 0.21349898
v 0.41381788 0.23511171 0.21349898
v 0.41747332 0.22827259 0.21349898
v 0.42097253 0.20180811 0.13495287
v 0.42931443 0.18872455 0.14497089
v 0.43134522 0.19253068 0.17496347
v 0.43475074 0.19592051 0.21349898
v 0.43525061 0.19496898 0.21349898
v 0.43831241 0.18908137 0.21349898
v 0.43931222 0.18711884 0.21349898
v 0.44128051 0.18283695 0.21349898
v 0.43025172 0.20044029 0.19807249
f 1 2 3
f 1 3 4
f 1 4 9
f 1 9 18
f 1 18 31
f 1 31 60
f 1 60 98
f 1 98 156
f 1 156 214
f 1 214 213
f 1 213 160
f 1 160 102
f 1 102 62
f 1 62 33
f 1 33 19
f 1 19 10
f 1 10 5
f 1 5 2
f 2 6 11
f 2 11 21
f 2 21 40
f 2 40 72
f 2 72 117
f 2 117 125
f 2 125 79
f 2 79 45
f 2 45 24
f 2 24 13
f 2 13 7
f 2 7 3
f 2 5 10
f 2 10 20
f 2 20 34
f 2 34 63
f 2 63 103
f 2 103 112
f 2 112 171
f 2 171 122
f 2 122 76
f 2 76 43
f 2 43 23
f 2 23 12
f 2 12 6
f 3 7 4
f 4 8 9
f 4 7 8
f 6 12 11
f 7 13 8
f 8 13 14
f 8 14 15
f 8 15 16
f 8 16 9
f 9 16 17
f 9 17 18
f 10 19 32
f 10 32 61
f 10 61 99
f 10 99 157
f 10 157 215
f 10 215 273
f 10 273 210
f 10 210 209
f 10 209 272
f 10 272 271
f 10 271 270
f 10 270 269
f 10 269 339
f 10 339 264
f 10 264 337
f 10 337 394
f 10 394 393
f 10 393 392
f 10 392 389
f 10 389 436
f 10 436 434
f 10 434 457
f 10 457 456
f 10 456 455
f 10 455 454
f 10 454 472
f 10 472 471
f 10 471 470
f 10 470 469
f 10 469 468
f 10 468 464
f 10 464 463
f 10 463 462
f 10 462 445
f 10 445 461
f 10 461 460
f 10 460 459
f 10 459 458
f 10 458 440
f 10 440 410
f 10 410 408
f 10 408 407
f 10 407 406
f 10 406 405
f 10 405 404
f 10 404 439
f 10 439 437
f 10 437 399
f 10 399 343
f 10 343 342
f 10 342 274
f 10 274 216
f 10 216 163
f 10 163 162
f 10 162 161
f 10 161 104
f 10 104 64
f 10 64 35
f 10 35 20
f 11 12 21
f 12 22 21
f 12 23 22
f 13 24 14
f 14 24 25
f 14 25 26
f 14 26 27
f 14 27 15
f 15 27 16
f 16 27 28
f 16 28 29
f 16 29 17
f 17 29 30
f 17 30 31
f 17 31 18
f 19 33 32
f 20 35 36
f 20 36 37
f 20 37 34
f 21 38 39
f 21 39 40
f 21 22 41
f 21 41 74
f 21 74 42
f 21 42 38
f 22 23 43
f 22 43 44
f 22 44 41
f 24 45 46
f 24 46 25
f 25 46 82
f 25 82 47
f 25 47 26
f 26 48 27
f 26 47 49
f 26 49 50
f 26 50 51
f 26 51 48
f 27 48 28
f 28 48 29
f 29 52 30
f 29 48 52
f 30 53 54
f 30 54 55
f 30 55 56
f 30 56 57
f 30 57 58
f 30 58 59
f 30 59 31
f 30 52 53
f 31 59 60
f 32 33 61
f 33 62 61
f 34 37 63
f 35 64 65
f 35 65 66
f 35 66 36
f 36 66 67
f 36 67 68
f 36 68 69
f 36 69 63
f 36 63 37
f 38 42 70
f 38 70 71
f 38 71 39
f 39 71 40
f 40 71 114
f 40 114 72
f 41 44 73
f 41 73 74
f 42 74 75
f 42 75 70
f 43 76 44
f 44 77 73
f 44 76 78
f 44 78 77
f 45 79 80
f 45 80 46
f 46 80 81
f 46 81 82
f 47 82 133
f 47 133 83
f 47 83 49
f 48 51 84
f 48 84 52
f 49 83 50
f 50 83 51
f 51 83 85
f 51 85 86
f 51 86 87
f 51 87 88
f 51 88 89
f 51 89 84
f 52 84 53
f 53 84 89
f 53 89 90
f 53 90 91
f 53 91 54
f 54 92 55
f 54 91 93
f 54 93 92
f 55 92 57
f 55 57 56
f 57 94 59
f 57 59 58
f 57 92 95
f 57 95 96
f 57 96 97
f 57 97 94
f 59 94 98
f 59 98 60
f 61 62 100
f 61 100 101
f 61 101 99
f 62 102 100
f 63 69 103
f 64 104 105
f 64 105 65
f 65 105 67
f 65 67 66
f 67 105 104
f 67 104 106
f 67 106 107
f 67 107 108
f 67 108 109
f 67 109 68
f 68 109 110
f 68 110 69
f 69 110 111
f 69 111 112
f 69 112 103
f 70 75 113
f 70 113 71
f 71 113 115
f 71 115 114
f 72 116 117
f 72 114 116
f 73 77 118
f 73 118 119
f 73 119 74
f 74 119 120
f 74 120 75
f 75 120 121
f 75 121 113
f 76 122 123
f 76 123 78
f 77 78 124
f 77 124 118
f 78 123 124
f 79 125 126
f 79 126 80
f 80 126 127
f 80 127 128
f 80 128 81
f 81 128 129
f 81 129 130
f 81 130 131
f 81 131 132
f 81 132 82
f 82 132 133
f 83 133 197
f 83 197 134
f 83 134 135
f 83 135 201
f 83 201 136
f 83 136 85
f 85 136 137
f 85 137 87
f 85 87 86
f 87 137 88
f 88 138 139
f 88 139 89
f 88 137 140
f 88 140 141
f 88 141 142
f 88 142 143
f 88 143 138
f 89 139 90
f 90 93 91
f 90 139 144
f 90 144 145
f 90 145 146
f 90 146 147
f 90 147 93
f 92 93 148
f 92 148 151
f 92 151 149
f 92 149 150
f 92 150 95
f 93 151 148
f 93 147 152
f 93 152 151
f 94 97 153
f 94 153 154
f 94 154 98
f 95 150 155
f 95 155 96
f 96 155 156
f 96 156 97
f 97 156 153
f 98 154 153
f 98 153 156
f 99 101 157
f 100 102 158
f 100 158 101
f 101 159 157
f 101 158 159
f 102 160 158
f 104 161 106
f 106 161 162
f 106 162 163
f 106 163 107
f 107 163 164
f 107 164 165
f 107 165 166
f 107 166 167
f 107 167 108
f 108 167 168
f 108 168 109
f 109 168 167
f 109 167 169
f 109 169 170
f 109 170 110
f 110 170 171
f 110 171 111
f 111 171 112
f 113 121 172
f 113 172 115
f 114 173 174
f 114 174 116
f 114 115 175
f 114 175 173
f 115 172 176
f 115 176 175
f 116 174 117
f 117 177 126
f 117 126 125
f 117 174 178
f 117 178 179
f 117 179 177
f 118 180 119
f 118 124 123
f 118 123 181
f 118 181 182
f 118 182 180
f 119 180 183
f 119 183 120
f 120 183 184
f 120 184 121
f 121 184 172
f 122 171 123
f 123 171 170
f 123 170 185
f 123 185 181
f 126 177 186
f 126 186 187
f 126 187 127
f 127 187 128
f 128 187 188
f 128 188 129
f 129 188 189
f 129 189 190
f 129 190 191
f 129 191 130
f 130 192 193
f 130 193 133
f 130 133 131
f 130 191 194
f 130 194 195
f 130 195 192
f 131 133 132
f 133 193 249
f 133 249 257
f 133 257 196
f 133 196 197
f 134 198 199
f 134 199 135
f 134 197 260
f 134 260 200
f 134 200 198
f 135 199 202
f 135 202 201
f 136 201 137
f 137 201 202
f 137 202 140
f 138 143 144
f 138 144 139
f 140 202 203
f 140 203 204
f 140 204 141
f 141 204 205
f 141 205 142
f 142 144 143
f 142 205 206
f 142 206 207
f 142 207 208
f 142 208 144
f 144 208 145
f 145 208 207
f 145 207 209
f 145 209 210
f 145 210 211
f 145 211 146
f 146 211 212
f 146 212 152
f 146 152 147
f 149 151 150
f 150 151 152
f 150 152 158
f 150 158 160
f 150 160 213
f 150 213 155
f 152 212 159
f 152 159 158
f 155 214 156
f 155 213 214
f 157 159 215
f 159 212 215
f 163 216 217
f 163 217 164
f 164 217 218
f 164 218 219
f 164 219 220
f 164 220 165
f 165 220 166
f 166 220 221
f 166 221 167
f 167 221 222
f 167 222 280
f 167 280 223
f 167 223 169
f 169 223 170
f 170 223 224
f 170 224 185
f 172 184 225
f 172 225 180
f 172 180 226
f 172 226 227
f 172 227 176
f 173 228 178
f 173 178 174
f 173 175 228
f 175 176 229
f 175 229 228
f 176 227 230
f 176 230 231
f 176 231 232
f 176 232 233
f 176 233 229
f 177 179 186
f 178 228 234
f 178 234 179
f 179 234 235
f 179 235 186
f 180 225 183
f 180 182 236
f 180 236 237
f 180 237 238
f 180 238 239
f 180 239 240
f 180 240 226
f 181 185 224
f 181 224 241
f 181 241 237
f 181 237 182
f 182 237 236
f 183 225 184
f 186 235 242
f 186 242 243
f 186 243 244
f 186 244 187
f 187 244 189
f 187 189 188
f 189 244 245
f 189 245 190
f 190 245 246
f 190 246 191
f 191 246 194
f 192 247 193
f 192 195 247
f 193 247 248
f 193 248 249
f 194 246 250
f 194 250 251
f 194 251 252
f 194 252 195
f 195 253 248
f 195 248 247
f 195 252 254
f 195 254 255
f 195 255 256
f 195 256 253
f 196 257 322
f 196 322 258
f 196 258 197
f 197 258 259
f 197 259 260
f 198 203 202
f 198 202 199
f 198 200 261
f 198 261 262
f 198 262 203
f 200 260 338
f 200 338 263
f 200 263 264
f 200 264 265
f 200 265 261
f 203 262 266
f 203 266 204
f 204 266 267
f 204 267 268
f 204 268 206
f 204 206 205
f 206 268 207
f 207 268 267
f 207 267 269
f 207 269 270
f 207 270 271
f 207 271 272
f 207 272 209
f 210 273 211
f 211 273 212
f 212 273 215
f 216 274 275
f 216 275 217
f 217 275 276
f 217 276 277
f 217 277 278
f 217 278 218
f 218 278 219
f 219 278 279
f 219 279 280
f 219 280 220
f 220 280 221
f 221 280 222
f 223 280 281
f 223 281 282
f 223 282 224
f 224 282 281
f 224 281 241
f 226 230 227
f 226 240 239
f 226 239 283
f 226 283 284
f 226 284 285
f 226 285 286
f 226 286 287
f 226 287 288
f 226 288 289
f 226 289 230
f 228 290 234
f 228 229 290
f 229 233 290
f 230 291 292
f 230 292 293
f 230 293 294
f 230 294 295
f 230 295 231
f 230 289 288
f 230 288 287
f 230 287 286
f 230 286 285
f 230 285 296
f 230 296 297
f 230 297 298
f 230 298 291
f 231 299 300
f 231 300 301
f 231 301 232
f 231 295 294
f 231 294 302
f 231 302 303
f 231 303 304
f 231 304 305
f 231 305 299
f 232 301 233
f 233 301 290
f 234 290 301
f 234 301 300
f 234 300 235
f 235 300 299
f 235 299 242
f 237 241 281
f 237 281 238
f 238 281 306
f 238 306 239
f 239 307 308
f 239 308 283
f 239 306 309
f 239 309 310
f 239 310 311
f 239 311 307
f 242 299 312
f 242 312 243
f 243 312 313
f 243 313 244
f 244 313 245
f 245 314 315
f 245 315 246
f 245 313 316
f 245 316 317
f 245 317 318
f 245 318 319
f 245 319 314
f 246 315 320
f 246 320 250
f 248 253 321
f 248 321 322
f 248 322 257
f 248 257 249
f 250 323 251
f 250 320 324
f 250 324 325
f 250 325 326
f 250 326 327
f 250 327 323
f 251 323 252
f 252 323 254
f 253 256 328
f 253 328 329
f 253 329 321
f 254 323 255
f 255 323 330
f 255 330 331
f 255 331 332
f 255 332 333
f 255 333 256
f 256 333 328
f 258 322 259
f 259 322 329
f 259 329 334
f 259 334 260
f 260 334 335
f 260 335 336
f 260 336 337
f 260 337 338
f 261 265 266
f 261 266 262
f 263 338 337
f 263 337 264
f 264 339 340
f 264 340 266
f 264 266 265
f 266 340 341
f 266 341 267
f 267 341 340
f 267 340 339
f 267 339 269
f 274 342 276
f 274 276 275
f 276 278 277
f 276 342 343
f 276 343 344
f 276 344 345
f 276 345 309
f 276 309 346
f 276 346 278
f 278 346 281
f 278 281 279
f 279 281 280
f 281 346 306
f 283 347 284
f 283 308 348
f 283 348 347
f 284 347 349
f 284 349 285
f 285 349 347
f 285 347 350
f 285 350 351
f 285 351 296
f 291 298 292
f 292 298 352
f 292 352 353
f 292 353 354
f 292 354 355
f 292 355 293
f 293 355 356
f 293 356 357
f 293 357 294
f 294 357 358
f 294 358 359
f 294 359 360
f 294 360 302
f 296 361 352
f 296 352 298
f 296 298 297
f 296 351 362
f 296 362 363
f 296 363 361
f 299 313 312
f 299 305 364
f 299 364 313
f 302 365 303
f 302 360 365
f 303 365 366
f 303 366 364
f 303 364 305
f 303 305 304
f 306 346 309
f 307 311 310
f 307 310 367
f 307 367 308
f 308 367 368
f 308 368 348
f 309 345 344
f 309 344 310
f 310 344 368
f 310 368 367
f 313 364 369
f 313 369 370
f 313 370 371
f 313 371 316
f 314 319 318
f 314 318 372
f 314 372 373
f 314 373 315
f 315 373 374
f 315 374 324
f 315 324 320
f 316 375 318
f 316 318 317
f 316 371 376
f 316 376 377
f 316 377 375
f 318 375 378
f 318 378 379
f 318 379 380
f 318 380 381
f 318 381 382
f 318 382 372
f 321 329 322
f 323 327 330
f 324 374 373
f 324 373 383
f 324 383 384
f 324 384 325
f 325 385 386
f 325 386 387
f 325 387 326
f 325 384 385
f 326 387 388
f 326 388 327
f 327 388 389
f 327 389 331
f 327 331 330
f 328 333 390
f 328 390 391
f 328 391 329
f 329 391 334
f 331 389 392
f 331 392 393
f 331 393 394
f 331 394 395
f 331 395 396
f 331 396 397
f 331 397 333
f 331 333 332
f 333 397 396
f 333 396 391
f 333 391 390
f 334 391 335
f 335 391 336
f 336 391 337
f 337 398 394
f 337 391 398
f 343 399 344
f 344 399 400
f 344 400 368
f 347 348 401
f 347 401 350
f 348 368 402
f 348 402 403
f 348 403 401
f 350 401 403
f 350 403 404
f 350 404 351
f 351 404 405
f 351 405 406
f 351 406 407
f 351 407 362
f 352 361 363
f 352 363 408
f 352 408 409
f 352 409 354
f 352 354 353
f 354 409 410
f 354 410 411
f 354 411 412
f 354 412 355
f 355 413 356
f 355 412 414
f 355 414 413
f 356 413 415
f 356 415 358
f 356 358 357
f 358 415 414
f 358 414 412
f 358 412 416
f 358 416 417
f 358 417 359
f 359 417 442
f 359 442 418
f 359 418 419
f 359 419 360
f 360 419 365
f 362 407 408
f 362 408 363
f 364 366 369
f 365 420 366
f 365 419 421
f 365 421 422
f 365 422 420
f 366 423 424
f 366 424 371
f 366 371 369
f 366 420 423
f 368 400 402
f 369 371 370
f 371 424 425
f 371 425 426
f 371 426 376
f 372 382 381
f 372 381 383
f 372 383 373
f 375 427 378
f 375 377 427
f 376 428 377
f 376 426 429
f 376 429 428
f 377 428 380
f 377 380 427
f 378 427 380
f 378 380 379
f 380 428 429
f 380 429 430
f 380 430 381
f 381 430 431
f 381 431 432
f 381 432 385
f 381 385 384
f 381 384 383
f 385 431 433
f 385 433 434
f 385 434 435
f 385 435 436
f 385 436 386
f 385 432 431
f 386 436 387
f 387 436 388
f 388 436 389
f 391 396 395
f 391 395 394
f 391 394 398
f 399 437 438
f 399 438 403
f 399 403 402
f 399 402 400
f 403 438 439
f 403 439 404
f 408 410 409
f 410 440 411
f 411 440 441
f 411 441 442
f 411 442 416
f 411 416 412
f 413 414 415
f 416 442 417
f 418 442 443
f 418 443 419
f 419 443 421
f 420 422 423
f 421 443 444
f 421 444 445
f 421 445 446
f 421 446 447
f 421 447 448
f 421 448 422
f 422 448 449
f 422 449 423
f 423 425 424
f 423 449 425
f 425 449 450
f 425 450 451
f 425 451 452
f 425 452 426
f 426 452 429
f 429 452 430
f 430 452 453
f 430 453 454
f 430 454 455
f 430 455 456
f 430 456 433
f 430 433 431
f 433 456 457
f 433 457 434
f 434 436 435
f 437 439 438
f 440 458 441
f 441 458 459
f 441 459 442
f 442 459 460
f 442 460 461
f 442 461 443
f 443 461 444
f 444 461 445
f 445 462 446
f 446 462 463
f 446 463 447
f 447 463 464
f 447 464 465
f 447 465 448
f 448 465 449
f 449 465 450
f 450 465 451
f 451 465 466
f 451 466 452
f 452 466 467
f 452 467 468
f 452 468 469
f 452 469 470
f 452 470 471
f 452 471 453
f 453 471 472
f 453 472 454
f 464 468 473
f 464 473 465
f 465 473 467
f 465 467 466
f 467 473 468

