# https://github.com/mikedh/trimesh
v 0.00449769 0.38068318 0.48500198
v 0.00302201 0.38044804 0.47919753
v -0.00450612 0.38068318 0.48500198
v 0.00302201 0.38044804 0.49216038
v 0.00950219 0.37992096 0.48500198
v -0.00300905 0.38044804 0.47919753
v 0.07073240 0.37010908 0.47978622
v 0.07503113 0.36173248 0.46541053
v 0.00501097 0.37273639 0.46541053
v -0.00300905 0.38044804 0.49216038
v -0.00951062 0.37992096 0.48500198
v 0.00580228 0.37920737 0.49529612
v 0.05892693 0.36979282 0.49947971
v 0.06497937 0.36932251 0.49758807
v 0.06497937 0.37056318 0.49258816
v 0.07073240 0.37010908 0.49063373
v 0.07109597 0.37017396 0.48500198
v -0.00501940 0.37273639 0.46541053
v -0.05544932 0.36482203 0.46541053
v -0.07071945 0.37010908 0.47978622
v 0.10499395 0.36480579 0.48500198
v 0.11277872 0.36216226 0.47938985
v 0.11277872 0.36163518 0.47745895
v 0.10499395 0.35684279 0.46541053
v -0.06498781 0.37056318 0.49258816
v -0.06498781 0.36932251 0.49758807
v -0.05893536 0.36979282 0.49947971
v -0.00578933 0.37920737 0.49529612
v -0.07071945 0.37010908 0.49063373
v -0.07110441 0.37017396 0.48500198
v 0.00498959 0.37404194 0.50270963
v 0.01499858 0.37326348 0.50249380
v 0.02498618 0.37241203 0.50207388
v 0.03499518 0.37160113 0.50152439
v 0.05225427 0.37031180 0.50034314
v 0.11209434 0.36045939 0.50049615
v 0.10499395 0.36347592 0.49499786
v -0.07503957 0.36173248 0.46541053
v -0.10498099 0.35684279 0.46541053
v -0.10551566 0.35675359 0.46541053
v -0.10570815 0.36233255 0.47641894
v -0.10570815 0.36466795 0.48500198
v -0.10498099 0.36480579 0.48500198
v 0.11277872 0.36191088 0.49530399
v 0.11277872 0.36326510 0.48500198
v 0.11277872 0.35500205 0.46541053
v 0.11226544 0.35512367 0.46541053
v -0.10498099 0.36347592 0.49499786
v -0.05226270 0.37031180 0.50034314
v -0.10570815 0.36317590 0.49554729
v -0.10570815 0.36101079 0.50102597
v -0.03498222 0.37160113 0.50152832
v -0.02499461 0.37242013 0.50207388
v -0.01498562 0.37326348 0.50249380
v -0.00499802 0.37404194 0.50270963
v 0.00498959 0.36499232 0.50546074
v 0.01499858 0.36499232 0.50524491
v 0.02498618 0.36499232 0.50482500
v 0.07498837 0.36352459 0.50259584
v 0.08499736 0.36268124 0.50222301
v 0.09498496 0.36185414 0.50171280
v 0.04498278 0.37083077 0.50086904
v 0.10499395 0.36106756 0.50108486
v 0.11277872 0.35947007 0.50092006
v 0.11277872 0.36066210 0.49941692
v -0.10570815 0.35670492 0.46541053
v -0.10570815 0.35677791 0.46555182
v -0.10570815 0.36332998 0.49502534
v 0.11277872 0.29784989 0.46541053
v -0.04499121 0.37083077 0.50086904
v -0.10498099 0.36106756 0.50108486
v -0.10570815 0.36070266 0.50118297
v -0.09499340 0.36185414 0.50171280
v -0.08498441 0.36268124 0.50222301
v -0.02499461 0.36499232 0.50482500
v -0.07499680 0.36352459 0.50259584
v -0.01498562 0.36499232 0.50524491
v -0.00499802 0.36499232 0.50546074
v 0.06497937 0.35499391 0.50550002
v 0.07498837 0.35499391 0.50534695
v 0.08499736 0.35499391 0.50497019
v 0.09498496 0.35499391 0.50446391
v 0.10499395 0.35499391 0.50383598
v 0.11277872 0.35559398 0.50281954
v -0.10570815 0.30501011 0.46541053
v 0.11277872 0.32526636 0.50234073
v 0.10783839 0.29784989 0.46541053
v -0.10570815 0.35505068 0.50374180
v -0.10498099 0.35499391 0.50383598
v -0.09499340 0.35499391 0.50446391
v -0.08498441 0.35499391 0.50497019
v -0.07499680 0.35499391 0.50534695
v -0.06498781 0.35499391 0.50550002
v 0.11277872 0.34499553 0.50550002
v -0.10570815 0.32666111 0.50131249
v 0.11277872 0.33500525 0.50522530
v -0.10570815 0.33428356 0.50465232
v -0.10570815 0.32717198 0.50209349
v -0.10570815 0.35428843 0.50395370
v -0.10570815 0.34499553 0.50550002
v -0.10570815 0.34429005 0.50548822
v -0.10570815 0.33500525 0.50485635
f 1 2 6
f 1 6 3
f 1 3 10
f 1 10 4
f 1 4 5
f 1 5 2
f 2 5 7
f 2 7 8
f 2 8 9
f 2 9 18
f 2 18 6
f 3 6 11
f 3 11 10
f 4 10 28
f 4 28 12
f 4 12 13
f 4 13 14
f 4 14 15
f 4 15 16
f 4 16 5
f 5 16 17
f 5 17 7
f 6 18 19
f 6 19 20
f 6 20 11
f 7 17 21
f 7 21 22
f 7 22 23
f 7 23 24
f 7 24 8
f 8 24 47
f 8 47 46
f 8 46 69
f 8 69 87
f 8 87 85
f 8 85 66
f 8 66 40
f 8 40 39
f 8 39 38
f 8 38 19
f 8 19 18
f 8 18 9
f 10 25 26
f 10 26 27
f 10 27 28
f 10 11 29
f 10 29 25
f 11 20 30
f 11 30 29
f 12 31 32
f 12 32 33
f 12 33 34
f 12 34 35
f 12 35 13
f 12 28 55
f 12 55 31
f 13 35 36
f 13 36 37
f 13 37 14
f 14 37 15
f 15 37 16
f 16 37 21
f 16 21 17
f 19 38 20
f 20 38 39
f 20 39 40
f 20 40 41
f 20 41 42
f 20 42 43
f 20 43 30
f 21 37 44
f 21 44 45
f 21 45 22
f 22 45 44
f 22 44 65
f 22 65 64
f 22 64 84
f 22 84 94
f 22 94 96
f 22 96 86
f 22 86 69
f 22 69 46
f 22 46 23
f 23 46 47
f 23 47 24
f 25 29 48
f 25 48 26
f 26 48 27
f 27 49 28
f 27 48 50
f 27 50 51
f 27 51 49
f 28 49 52
f 28 52 53
f 28 53 54
f 28 54 55
f 29 30 43
f 29 43 48
f 31 56 57
f 31 57 58
f 31 58 32
f 31 55 78
f 31 78 56
f 32 58 59
f 32 59 60
f 32 60 33
f 33 60 61
f 33 61 34
f 34 62 35
f 34 61 63
f 34 63 62
f 35 62 63
f 35 63 36
f 36 63 64
f 36 64 65
f 36 65 37
f 37 65 44
f 40 66 67
f 40 67 41
f 41 67 66
f 41 66 85
f 41 85 95
f 41 95 98
f 41 98 97
f 41 97 102
f 41 102 101
f 41 101 100
f 41 100 99
f 41 99 88
f 41 88 72
f 41 72 51
f 41 51 50
f 41 50 68
f 41 68 42
f 42 68 48
f 42 48 43
f 48 68 50
f 49 70 52
f 49 51 71
f 49 71 70
f 51 72 71
f 52 70 71
f 52 71 73
f 52 73 53
f 53 73 74
f 53 74 54
f 54 75 55
f 54 74 76
f 54 76 75
f 55 75 77
f 55 77 78
f 56 79 80
f 56 80 57
f 56 78 93
f 56 93 79
f 57 80 81
f 57 81 58
f 58 81 82
f 58 82 59
f 59 82 83
f 59 83 60
f 60 83 61
f 61 83 84
f 61 84 63
f 63 84 64
f 69 86 87
f 71 72 73
f 72 88 73
f 73 88 89
f 73 89 74
f 74 89 76
f 75 76 90
f 75 90 91
f 75 91 77
f 76 89 90
f 77 91 92
f 77 92 78
f 78 92 93
f 79 94 80
f 79 93 100
f 79 100 94
f 80 94 81
f 81 94 82
f 82 94 83
f 83 94 84
f 85 87 95
f 86 96 97
f 86 97 98
f 86 98 87
f 87 98 95
f 88 99 89
f 89 99 90
f 90 99 100
f 90 100 91
f 91 100 92
f 92 100 93
f 94 100 101
f 94 101 96
f 96 101 102
f 96 102 97

