# https://github.com/mikedh/trimesh
v 0.11280096 0.36327180 0.48500198
v 0.11280096 0.36215171 0.47938985
v 0.11280096 0.36189625 0.49530399
v 0.11527000 0.36140499 0.49540210
v 0.11500307 0.36281982 0.48500198
v 0.12112004 0.36054036 0.47911906
v 0.11280096 0.36162114 0.47745895
v 0.11500307 0.36140499 0.47778469
v 0.11280096 0.36065826 0.49941692
v 0.11878446 0.35963643 0.49900091
v 0.12112004 0.36054036 0.49233699
v 0.12167612 0.36081547 0.48500198
v 0.12278830 0.35156003 0.46541053
v 0.11500307 0.35450763 0.46541053
v 0.16086918 0.34041816 0.47930744
v 0.11280096 0.35499889 0.46541053
v 0.11280096 0.35945958 0.50092006
v 0.12501265 0.35315174 0.50215232
v 0.13255319 0.35120633 0.50103778
v 0.13922626 0.34959498 0.49878508
v 0.16086918 0.34041816 0.49189353
v 0.20061833 0.32029593 0.49140689
v 0.13502222 0.35403600 0.48500198
v 0.20061833 0.32029593 0.47950366
v 0.14260727 0.34145963 0.46541053
v 0.11280096 0.29783529 0.46541053
v 0.11280096 0.35558841 0.50281954
v 0.11527000 0.35578492 0.50249773
v 0.12501265 0.34499675 0.50490350
v 0.14500956 0.33499458 0.50487208
v 0.16500647 0.32499242 0.50482893
v 0.20500030 0.30498809 0.50472689
v 0.14500956 0.34305131 0.50212097
v 0.15243888 0.34114522 0.50099462
v 0.18500338 0.32287017 0.50202674
v 0.20500030 0.31276974 0.50197965
v 0.19218802 0.32102299 0.50090432
v 0.21205148 0.31096190 0.50085723
v 0.17897539 0.32945311 0.49832198
v 0.19883884 0.31939200 0.49807081
v 0.21872453 0.30929160 0.49780786
v 0.22039279 0.31023481 0.49114001
v 0.18111077 0.33055353 0.48500198
v 0.22039279 0.31023481 0.47960177
v 0.20201966 0.31113875 0.46541053
v 0.16240397 0.33135921 0.46541053
v 0.11518102 0.29516280 0.46541053
v 0.11280096 0.32524788 0.50234073
v 0.11280096 0.34499675 0.50550002
v 0.11500307 0.34499675 0.50550002
v 0.13502222 0.33499458 0.50550002
v 0.15501913 0.32499242 0.50548822
v 0.19501296 0.30498809 0.50546074
v 0.21500987 0.29498595 0.50539011
v 0.22588694 0.29587021 0.50312567
v 0.21523230 0.30557764 0.50262719
v 0.16500647 0.33295092 0.50207776
v 0.22315100 0.30263004 0.50168926
v 0.22977956 0.29978070 0.49955034
v 0.22510841 0.30510601 0.49534714
v 0.23091397 0.30092043 0.49288252
v 0.23138109 0.30139205 0.48500198
v 0.22557554 0.30638331 0.48500198
v 0.22057074 0.31035271 0.48500198
v 0.21500987 0.31326100 0.48500198
v 0.22586469 0.29594883 0.46541053
v 0.22337343 0.29801214 0.46541053
v 0.21781255 0.30235493 0.46541053
v 0.21576615 0.30382872 0.46541053
v 0.20704669 0.30848593 0.46541053
v 0.23091397 0.30092043 0.47887179
v 0.26657030 0.16658890 0.46541053
v 0.29817832 0.16254087 0.50137526
v 0.11280096 0.33499458 0.50522530
v 0.30487365 0.16254087 0.50403613
v 0.11500307 0.33499458 0.50534302
v 0.31499442 0.16254087 0.50546861
v 0.31499442 0.16501684 0.50550002
v 0.20500030 0.29498595 0.50550002
v 0.22501944 0.28498378 0.50539011
v 0.26499102 0.24501446 0.50539011
v 0.29586500 0.22589442 0.50312567
v 0.28311947 0.24314766 0.50168926
v 0.24312566 0.28311697 0.50168926
v 0.23311608 0.29311913 0.50168926
v 0.26979563 0.25981137 0.49955034
v 0.23536268 0.29535931 0.49621838
v 0.24092355 0.29091826 0.49288252
v 0.24139066 0.29138988 0.48500198
v 0.23594101 0.28594667 0.46541053
v 0.24092355 0.29091826 0.47887179
v 0.25596017 0.26596200 0.46541053
v 0.27504510 0.16254087 0.46541053
v 0.30498484 0.16501684 0.50454241
v 0.32498175 0.16254087 0.50498980
v 0.31499442 0.17501900 0.50547254
v 0.29499751 0.20500582 0.50550002
v 0.22501944 0.27498162 0.50550002
v 0.24499412 0.25501662 0.50550002
v 0.29499751 0.21500799 0.50539011
v 0.30498484 0.20500582 0.50472689
v 0.30556318 0.21524379 0.50262719
v 0.30262703 0.22314334 0.50168926
v 0.29310679 0.23314549 0.50168926
v 0.28979254 0.23980704 0.49955034
v 0.29092693 0.24094678 0.49288252
v 0.27093005 0.26093146 0.49288252
v 0.27093005 0.26093146 0.47887179
v 0.28638929 0.24640965 0.48500198
v 0.29092693 0.24094678 0.47887179
v 0.27595708 0.24597734 0.46541053
v 0.33125442 0.16254087 0.46541053
v 0.33367896 0.16254087 0.50226223
v 0.32498175 0.16501684 0.50482893
v 0.30498484 0.19500367 0.50546074
v 0.31499442 0.18500152 0.50477791
v 0.33296716 0.16501684 0.50207776
v 0.31277007 0.20500582 0.50197572
v 0.31094611 0.21206039 0.50085723
v 0.29977986 0.22980489 0.49955034
v 0.30930009 0.21872196 0.49780786
v 0.30091429 0.23094463 0.49288252
v 0.29139405 0.24139875 0.48500198
v 0.30091429 0.23094463 0.47887179
v 0.28594440 0.23597518 0.46541053
v 0.32124484 0.18219148 0.46541053
v 0.33036467 0.18073733 0.47940555
v 0.33152133 0.16254087 0.46586579
v 0.33830562 0.16254087 0.49639109
v 0.33107647 0.17230722 0.50094748
v 0.32102242 0.19217399 0.50090432
v 0.32945269 0.17896879 0.49832198
v 0.31939864 0.19883554 0.49807081
v 0.30509606 0.22508875 0.49534714
v 0.32028836 0.20060410 0.49140689
v 0.31023431 0.22039226 0.49114001
v 0.30138141 0.23139659 0.48500198
v 0.29593176 0.22585511 0.46541053
v 0.31023431 0.22039226 0.47960177
v 0.31114629 0.20199928 0.46541053
v 0.34001836 0.16254087 0.48500198
v 0.33970696 0.16254087 0.48105779
v 0.33826113 0.16254087 0.47754529
v 0.32028836 0.20060410 0.47950366
v 0.33912861 0.16254087 0.49337310
v 0.33036467 0.18073733 0.49165413
v 0.31325942 0.21500799 0.48500198
v 0.31034553 0.22056910 0.48500198
v 0.30638617 0.22558001 0.48500198
v 0.32800686 0.18610194 0.48500198
v 0.31790832 0.20590976 0.48500198
v 0.29800040 0.22337914 0.46541053
v 0.30847707 0.20702983 0.46541053
v 0.30382818 0.21577436 0.46541053
v 0.30236012 0.21779837 0.46541053
f 1 2 7
f 1 7 16
f 1 16 26
f 1 26 48
f 1 48 74
f 1 74 49
f 1 49 27
f 1 27 17
f 1 17 9
f 1 9 3
f 1 3 4
f 1 4 5
f 1 5 6
f 1 6 2
f 2 6 8
f 2 8 7
f 3 9 4
f 4 10 11
f 4 11 5
f 4 9 10
f 5 11 12
f 5 12 6
f 6 13 14
f 6 14 8
f 6 12 15
f 6 15 13
f 7 8 16
f 8 14 16
f 9 17 10
f 10 17 18
f 10 18 19
f 10 19 20
f 10 20 11
f 11 20 21
f 11 21 12
f 12 21 22
f 12 22 23
f 12 23 24
f 12 24 15
f 13 15 24
f 13 24 25
f 13 25 46
f 13 46 45
f 13 45 70
f 13 70 69
f 13 69 68
f 13 68 67
f 13 67 66
f 13 66 90
f 13 90 92
f 13 92 111
f 13 111 125
f 13 125 138
f 13 138 152
f 13 152 155
f 13 155 154
f 13 154 153
f 13 153 140
f 13 140 126
f 13 126 112
f 13 112 93
f 13 93 72
f 13 72 47
f 13 47 26
f 13 26 16
f 13 16 14
f 17 27 28
f 17 28 18
f 18 28 29
f 18 29 30
f 18 30 31
f 18 31 32
f 18 32 33
f 18 33 19
f 19 34 20
f 19 33 35
f 19 35 36
f 19 36 34
f 20 34 37
f 20 37 38
f 20 38 39
f 20 39 22
f 20 22 21
f 22 39 40
f 22 40 41
f 22 41 42
f 22 42 23
f 23 42 43
f 23 43 44
f 23 44 24
f 24 44 45
f 24 45 46
f 24 46 25
f 26 47 48
f 27 49 50
f 27 50 29
f 27 29 28
f 29 50 51
f 29 51 52
f 29 52 53
f 29 53 30
f 30 53 31
f 31 53 32
f 32 53 54
f 32 54 55
f 32 55 56
f 32 56 36
f 32 36 35
f 32 35 57
f 32 57 33
f 33 57 35
f 34 36 37
f 36 56 38
f 36 38 37
f 38 56 58
f 38 58 41
f 38 41 40
f 38 40 39
f 41 58 59
f 41 59 60
f 41 60 42
f 42 60 61
f 42 61 62
f 42 62 63
f 42 63 64
f 42 64 65
f 42 65 43
f 43 65 44
f 44 66 67
f 44 67 68
f 44 68 69
f 44 69 70
f 44 70 45
f 44 65 64
f 44 64 63
f 44 63 62
f 44 62 71
f 44 71 66
f 47 72 73
f 47 73 48
f 48 73 75
f 48 75 74
f 49 74 76
f 49 76 77
f 49 77 78
f 49 78 97
f 49 97 99
f 49 99 98
f 49 98 79
f 49 79 51
f 49 51 50
f 51 79 52
f 52 79 53
f 53 79 54
f 54 79 98
f 54 98 80
f 54 80 55
f 55 58 56
f 55 80 81
f 55 81 82
f 55 82 83
f 55 83 84
f 55 84 85
f 55 85 58
f 58 85 59
f 59 85 86
f 59 86 87
f 59 87 61
f 59 61 60
f 61 87 88
f 61 88 89
f 61 89 62
f 62 89 91
f 62 91 71
f 66 71 90
f 71 91 92
f 71 92 90
f 72 93 73
f 73 93 112
f 73 112 128
f 73 128 143
f 73 143 142
f 73 142 141
f 73 141 145
f 73 145 129
f 73 129 113
f 73 113 95
f 73 95 77
f 73 77 75
f 74 75 94
f 74 94 77
f 74 77 76
f 75 77 94
f 77 95 78
f 78 95 96
f 78 96 97
f 80 98 99
f 80 99 81
f 81 99 100
f 81 100 82
f 82 100 101
f 82 101 102
f 82 102 103
f 82 103 104
f 82 104 83
f 83 104 120
f 83 120 105
f 83 105 86
f 83 86 84
f 84 86 85
f 86 105 106
f 86 106 87
f 87 107 88
f 87 106 107
f 88 107 89
f 89 108 91
f 89 107 106
f 89 106 109
f 89 109 110
f 89 110 108
f 91 108 92
f 92 108 110
f 92 110 111
f 95 113 114
f 95 114 96
f 96 114 115
f 96 115 97
f 97 115 100
f 97 100 99
f 100 115 101
f 101 115 116
f 101 116 117
f 101 117 118
f 101 118 102
f 102 118 119
f 102 119 103
f 103 120 104
f 103 119 121
f 103 121 120
f 105 120 122
f 105 122 106
f 106 122 137
f 106 137 123
f 106 123 109
f 109 123 110
f 110 123 137
f 110 137 124
f 110 124 125
f 110 125 111
f 112 126 127
f 112 127 128
f 113 129 117
f 113 117 114
f 114 117 116
f 114 116 115
f 117 129 130
f 117 130 118
f 118 130 131
f 118 131 119
f 119 131 132
f 119 132 133
f 119 133 121
f 120 121 134
f 120 134 122
f 121 133 135
f 121 135 136
f 121 136 134
f 122 134 136
f 122 136 137
f 124 138 125
f 124 137 139
f 124 139 138
f 126 140 127
f 127 141 142
f 127 142 143
f 127 143 128
f 127 140 144
f 127 144 141
f 129 145 132
f 129 132 130
f 130 132 131
f 132 145 146
f 132 146 133
f 133 146 135
f 135 146 141
f 135 141 136
f 136 147 148
f 136 148 149
f 136 149 137
f 136 141 150
f 136 150 151
f 136 151 147
f 137 149 139
f 138 139 152
f 139 149 148
f 139 148 147
f 139 147 151
f 139 151 150
f 139 150 141
f 139 141 144
f 139 144 140
f 139 140 153
f 139 153 154
f 139 154 155
f 139 155 152
f 141 146 145

