# https://github.com/mikedh/trimesh
v -0.10570814 0.36464870 0.48500198
v -0.10570814 0.36456954 0.48571625
v -0.10570814 0.36233360 0.47641894
v -0.11501990 0.36140358 0.47778469
v -0.12112071 0.36053294 0.47911906
v -0.11501990 0.36282828 0.48500198
v -0.10570814 0.36332297 0.49502534
v -0.11527219 0.36140358 0.49540210
v -0.10570814 0.35677335 0.46555182
v -0.11501990 0.35451761 0.46541053
v -0.12167116 0.36080998 0.48500198
v -0.12279499 0.35154951 0.46541053
v -0.16086769 0.34042904 0.47930744
v -0.12112071 0.36053294 0.49233699
v -0.11213005 0.36045378 0.50049615
v -0.10570814 0.36316466 0.49554729
v -0.11878131 0.35964251 0.49900091
v -0.10570814 0.35669422 0.46541053
v -0.12667108 0.35827720 0.48500198
v -0.13543238 0.34511861 0.46541053
v -0.20061469 0.32030532 0.47950366
v -0.16086769 0.34042904 0.49189353
v -0.13921672 0.34959054 0.49878508
v -0.12467569 0.35784188 0.49540210
v -0.10570814 0.36100784 0.50102597
v -0.12501973 0.35315228 0.50215232
v -0.11527219 0.35578400 0.50249773
v -0.13256547 0.35121313 0.50103778
v -0.10570814 0.30498993 0.46541053
v -0.14148732 0.35073823 0.48500198
v -0.20061469 0.32030532 0.49140689
v -0.14261115 0.34145796 0.46541053
v -0.19540836 0.31452742 0.46541053
v -0.20201375 0.31114379 0.46541053
v -0.22038497 0.31023359 0.47960177
v -0.20591275 0.31791106 0.48500198
v -0.17896371 0.32946685 0.49832198
v -0.15910168 0.33951882 0.49856135
v -0.21205944 0.31094593 0.50085723
v -0.17231244 0.33108941 0.50094748
v -0.10570814 0.36069125 0.50118297
v -0.12501973 0.34499991 0.50490350
v -0.14501935 0.34306073 0.50212097
v -0.20501828 0.30498993 0.50472689
v -0.16501901 0.32499492 0.50482893
v -0.14501935 0.33498752 0.50487208
v -0.10570814 0.35505188 0.50374180
v -0.20501828 0.31276634 0.50197572
v -0.10570814 0.32665706 0.50131249
v -0.29818171 0.16252124 0.50137526
v -0.27556747 0.16252124 0.46541053
v -0.22038497 0.31023359 0.49114001
v -0.21871069 0.30928379 0.49780786
v -0.19884866 0.31939510 0.49807081
v -0.20680724 0.30867037 0.46541053
v -0.21577497 0.30382249 0.46541053
v -0.21664651 0.30332780 0.46541053
v -0.22068313 0.30057737 0.46541053
v -0.23091230 0.30091375 0.47887179
v -0.23139395 0.30138865 0.48500198
v -0.22554542 0.30639485 0.48500198
v -0.22056845 0.31035230 0.48500198
v -0.21501809 0.31326103 0.48500198
v -0.22311428 0.30261546 0.50168926
v -0.21524745 0.30556378 0.50262719
v -0.11501990 0.34499991 0.50550002
v -0.10570814 0.35428014 0.50395370
v -0.19501846 0.30498993 0.50546074
v -0.15501918 0.32499492 0.50548822
v -0.13501954 0.33498752 0.50550002
v -0.16501901 0.33294943 0.50207776
v -0.22586653 0.29586798 0.50312567
v -0.21501809 0.29499733 0.50539011
v -0.10570814 0.32715175 0.50209349
v -0.29928261 0.16252124 0.50197184
v -0.33127746 0.16252124 0.46541053
v -0.23091230 0.30091375 0.49288252
v -0.22506379 0.30510867 0.49534714
v -0.22978847 0.29978588 0.49955034
v -0.22522433 0.29663968 0.46541053
v -0.22662339 0.29535350 0.46541053
v -0.23533882 0.28672624 0.46541053
v -0.23673789 0.28534114 0.46541053
v -0.27091157 0.26094335 0.47887179
v -0.27639312 0.25641206 0.48500198
v -0.27091157 0.26094335 0.49288252
v -0.23311409 0.29311755 0.50168926
v -0.10570814 0.34499991 0.50550002
v -0.20501828 0.29499733 0.50550002
v -0.23586634 0.28587538 0.50312567
v -0.28586543 0.23589262 0.50312567
v -0.29499370 0.21501699 0.50539011
v -0.10570814 0.33427519 0.50465232
v -0.30487886 0.16252124 0.50403613
v -0.33824980 0.16252124 0.47754139
v -0.33123159 0.16263996 0.46541053
v -0.23536177 0.29535350 0.49621838
v -0.23978829 0.28979328 0.49955034
v -0.27673715 0.24537075 0.46541053
v -0.30091104 0.23094580 0.47887179
v -0.29139286 0.24141328 0.48500198
v -0.30091104 0.23094580 0.49288252
v -0.29536068 0.23537815 0.49621838
v -0.24536158 0.28536093 0.49621838
v -0.27311337 0.25314716 0.50168926
v -0.10570814 0.34428754 0.50548822
v -0.31499335 0.16501445 0.50550002
v -0.31747037 0.16252124 0.50549608
v -0.31499335 0.16252124 0.50546861
v -0.28499389 0.21501699 0.50550002
v -0.29311302 0.23314218 0.50168926
v -0.29586524 0.22588024 0.50312567
v -0.30499354 0.20500462 0.50472689
v -0.30499354 0.19501202 0.50546074
v -0.29499370 0.20500462 0.50550002
v -0.10570814 0.33498752 0.50485635
v -0.30747056 0.16252124 0.50475043
v -0.34001583 0.16252124 0.48500198
v -0.33036005 0.18074536 0.47940555
v -0.32029143 0.20061183 0.47950366
v -0.31451172 0.19540776 0.46541053
v -0.28978738 0.23981051 0.49955034
v -0.28673697 0.23535836 0.46541053
v -0.29536068 0.22665194 0.46541053
v -0.29664505 0.22524704 0.46541053
v -0.30058995 0.22069596 0.46541053
v -0.31022280 0.22037935 0.47960177
v -0.30139267 0.23140089 0.48500198
v -0.31022280 0.22037935 0.49114001
v -0.30510819 0.22508875 0.49534714
v -0.29978719 0.22979812 0.49955034
v -0.30499354 0.18501942 0.50550002
v -0.31499335 0.17500705 0.50547254
v -0.32499316 0.16252124 0.50498980
v -0.30263120 0.22312979 0.50168926
v -0.30556691 0.21523465 0.50262719
v -0.31276861 0.20500462 0.50197572
v -0.32286018 0.18501942 0.50202674
v -0.33295172 0.16501445 0.50207776
v -0.31499335 0.18501942 0.50477791
v -0.32499316 0.16501445 0.50482893
v -0.33969474 0.16252124 0.48976642
v -0.33036005 0.18074536 0.49165413
v -0.32029143 0.20061183 0.49140295
v -0.31327319 0.21501699 0.48500198
v -0.31114021 0.20199694 0.46541053
v -0.30334219 0.21663955 0.46541053
v -0.30866319 0.20680526 0.46541053
v -0.31036040 0.22057724 0.48500198
v -0.30639258 0.22558343 0.48500198
v -0.30382383 0.21576892 0.46541053
v -0.30928245 0.21871722 0.49780786
v -0.32776836 0.16252124 0.50429910
v -0.31095672 0.21204890 0.50085723
v -0.32102534 0.19218242 0.50090432
v -0.33107105 0.17229617 0.50094748
v -0.33570397 0.16252124 0.50060213
v -0.33366275 0.16252124 0.50226223
v -0.33914429 0.16252124 0.49336916
v -0.32946557 0.17896450 0.49831805
v -0.31939694 0.19885075 0.49807081
v -0.33829570 0.16252124 0.49638715
f 1 2 7
f 1 7 16
f 1 16 25
f 1 25 41
f 1 41 47
f 1 47 67
f 1 67 88
f 1 88 106
f 1 106 116
f 1 116 93
f 1 93 74
f 1 74 49
f 1 49 29
f 1 29 18
f 1 18 9
f 1 9 3
f 1 3 4
f 1 4 5
f 1 5 6
f 1 6 2
f 2 6 8
f 2 8 7
f 3 9 4
f 4 10 5
f 4 9 10
f 5 11 6
f 5 10 12
f 5 12 13
f 5 13 11
f 6 11 14
f 6 14 8
f 7 8 15
f 7 15 16
f 8 14 17
f 8 17 15
f 9 18 10
f 10 18 29
f 10 29 51
f 10 51 76
f 10 76 96
f 10 96 121
f 10 121 146
f 10 146 148
f 10 148 151
f 10 151 147
f 10 147 126
f 10 126 125
f 10 125 124
f 10 124 123
f 10 123 99
f 10 99 83
f 10 83 82
f 10 82 81
f 10 81 80
f 10 80 58
f 10 58 57
f 10 57 56
f 10 56 55
f 10 55 34
f 10 34 33
f 10 33 32
f 10 32 20
f 10 20 12
f 11 13 19
f 11 19 14
f 12 20 13
f 13 20 21
f 13 21 19
f 14 19 22
f 14 22 23
f 14 23 24
f 14 24 17
f 15 25 16
f 15 17 26
f 15 26 27
f 15 27 25
f 17 24 23
f 17 23 28
f 17 28 26
f 19 21 30
f 19 30 31
f 19 31 22
f 20 32 21
f 21 33 34
f 21 34 35
f 21 35 36
f 21 36 30
f 21 32 33
f 22 31 37
f 22 37 23
f 23 37 38
f 23 38 39
f 23 39 40
f 23 40 28
f 25 27 41
f 26 42 27
f 26 28 43
f 26 43 44
f 26 44 45
f 26 45 46
f 26 46 42
f 27 42 47
f 27 47 41
f 28 40 48
f 28 48 43
f 29 49 50
f 29 50 51
f 30 36 31
f 31 36 52
f 31 52 53
f 31 53 54
f 31 54 37
f 34 55 35
f 35 55 56
f 35 56 57
f 35 57 58
f 35 58 59
f 35 59 60
f 35 60 61
f 35 61 62
f 35 62 63
f 35 63 36
f 36 63 52
f 37 54 39
f 37 39 38
f 39 53 64
f 39 64 65
f 39 65 48
f 39 48 40
f 39 54 53
f 42 66 67
f 42 67 47
f 42 46 68
f 42 68 69
f 42 69 70
f 42 70 66
f 43 48 71
f 43 71 44
f 44 48 65
f 44 65 72
f 44 72 73
f 44 73 68
f 44 68 45
f 44 71 48
f 45 68 46
f 49 74 50
f 50 75 94
f 50 94 117
f 50 117 109
f 50 109 108
f 50 108 134
f 50 134 153
f 50 153 158
f 50 158 157
f 50 157 162
f 50 162 159
f 50 159 142
f 50 142 118
f 50 118 95
f 50 95 76
f 50 76 51
f 50 74 75
f 52 63 62
f 52 62 61
f 52 61 60
f 52 60 77
f 52 77 78
f 52 78 53
f 53 78 79
f 53 79 64
f 58 80 59
f 59 80 81
f 59 81 82
f 59 82 83
f 59 83 99
f 59 99 84
f 59 84 60
f 60 84 85
f 60 85 86
f 60 86 77
f 64 79 87
f 64 87 72
f 64 72 65
f 66 88 67
f 66 70 89
f 66 89 110
f 66 110 115
f 66 115 132
f 66 132 107
f 66 107 88
f 68 73 89
f 68 89 69
f 69 89 70
f 72 87 105
f 72 105 90
f 72 90 73
f 73 90 91
f 73 91 92
f 73 92 110
f 73 110 89
f 74 93 94
f 74 94 75
f 76 95 96
f 77 79 78
f 77 86 104
f 77 104 97
f 77 97 79
f 79 97 104
f 79 104 98
f 79 98 105
f 79 105 87
f 84 99 100
f 84 100 101
f 84 101 85
f 85 101 102
f 85 102 86
f 86 102 103
f 86 103 104
f 88 107 108
f 88 108 109
f 88 109 106
f 90 105 91
f 91 105 111
f 91 111 112
f 91 112 92
f 92 112 113
f 92 113 114
f 92 114 115
f 92 115 110
f 93 116 117
f 93 117 94
f 95 118 119
f 95 119 96
f 96 119 120
f 96 120 121
f 98 104 103
f 98 103 122
f 98 122 105
f 99 123 100
f 100 123 124
f 100 124 125
f 100 125 126
f 100 126 127
f 100 127 128
f 100 128 101
f 101 128 102
f 102 128 129
f 102 129 130
f 102 130 131
f 102 131 103
f 103 131 122
f 105 122 111
f 106 109 116
f 107 132 108
f 108 132 115
f 108 115 133
f 108 133 134
f 109 117 116
f 111 122 131
f 111 131 135
f 111 135 112
f 112 135 136
f 112 136 113
f 113 136 137
f 113 137 138
f 113 138 139
f 113 139 140
f 113 140 114
f 114 140 141
f 114 141 133
f 114 133 115
f 118 142 143
f 118 143 144
f 118 144 145
f 118 145 120
f 118 120 119
f 120 145 127
f 120 127 146
f 120 146 121
f 126 147 127
f 127 148 146
f 127 145 149
f 127 149 150
f 127 150 128
f 127 147 151
f 127 151 148
f 128 150 129
f 129 152 130
f 129 150 149
f 129 149 145
f 129 145 144
f 129 144 152
f 130 152 131
f 131 152 135
f 133 141 134
f 134 141 153
f 135 152 154
f 135 154 136
f 136 154 137
f 137 154 155
f 137 155 138
f 138 155 156
f 138 156 139
f 139 156 157
f 139 157 158
f 139 158 141
f 139 141 140
f 141 158 153
f 142 159 143
f 143 159 160
f 143 160 161
f 143 161 144
f 144 161 152
f 152 161 154
f 154 161 160
f 154 160 155
f 155 160 156
f 156 160 162
f 156 162 157
f 159 162 160

