# https://github.com/mikedh/trimesh
v -0.38067293 -0.00450318 0.48500198
v -0.38044658 -0.00298548 0.47919753
v -0.37991157 -0.00949359 0.48500198
v -0.38044658 -0.00298548 0.49216038
v -0.38067293 0.00452586 0.48500198
v -0.38044658 0.00303388 0.47919753
v -0.37274036 -0.00501766 0.46541053
v -0.36173144 -0.07503775 0.46541053
v -0.37010643 -0.07071616 0.47978622
v -0.37430423 -0.04499239 0.48500198
v -0.37010643 -0.07071616 0.49062982
v -0.37920165 -0.00578937 0.49529612
v -0.38044658 0.00303388 0.49216038
v -0.37056944 -0.06497975 0.49258426
v -0.36979777 -0.05893467 0.49947971
v -0.37991157 0.00951627 0.48500198
v -0.37274036 0.00504033 0.46541053
v -0.37010643 0.07071311 0.47978622
v -0.36481804 0.05543319 0.46541053
v -0.35845962 -0.09487078 0.46541053
v -0.35756451 -0.10024704 0.46541053
v -0.36251336 -0.10024704 0.47539464
v -0.36427274 -0.10024704 0.48042202
v -0.36553824 -0.10024704 0.48500198
v -0.37016818 -0.07107629 0.48500198
v -0.37271976 -0.05499893 0.48500198
v -0.36421102 -0.10024704 0.49499786
v -0.37159830 -0.03498585 0.50152439
v -0.37241110 -0.02497930 0.50207388
v -0.37325478 -0.01499848 0.50249380
v -0.37404701 -0.00499193 0.50270963
v -0.37920165 0.00581205 0.49529612
v -0.37030193 -0.05224649 0.50034314
v -0.37083694 -0.04499239 0.50086904
v -0.36979777 0.05893163 0.49947971
v -0.37056944 0.06497671 0.49258426
v -0.37010643 0.07071311 0.49062982
v -0.36931419 -0.06497975 0.49758413
v -0.36143306 -0.10024704 0.50137919
v -0.37430423 0.04498934 0.48500198
v -0.37271976 0.05499589 0.48500198
v -0.36479747 0.10497717 0.48500198
v -0.36141247 0.11498372 0.47778863
v -0.36240020 0.10497717 0.47631299
v -0.35675171 0.10551737 0.46541053
v -0.36173144 0.07503471 0.46541053
v -0.30509210 -0.10024704 0.46541053
v -0.36184460 -0.09499939 0.50171280
v -0.36267799 -0.08499285 0.50222301
v -0.36499295 -0.02497930 0.50482500
v -0.36352167 -0.07498630 0.50259584
v -0.36499295 -0.01499848 0.50524491
v -0.36499295 -0.00499193 0.50546074
v -0.37404701 0.00501461 0.50270963
v -0.37325478 0.01502116 0.50249380
v -0.37241110 0.02500198 0.50207388
v -0.37159830 0.03498280 0.50152439
v -0.37083694 0.04498934 0.50086904
v -0.37031221 0.05226917 0.50034314
v -0.36045563 0.11210265 0.50049615
v -0.36347023 0.10497717 0.49499786
v -0.36931419 0.06497671 0.49758413
v -0.35499233 -0.10024704 0.50413030
v -0.36140218 0.11524095 0.49539816
v -0.36282203 0.11498372 0.48500198
v -0.36054823 0.12108024 0.47912297
v -0.35450876 0.11498372 0.46541053
v -0.32794333 -0.10024704 0.50174421
v -0.27557379 0.16249551 0.46541053
v -0.35499233 -0.09499939 0.50445998
v -0.35499233 -0.08499285 0.50497019
v -0.35499233 -0.07498630 0.50534695
v -0.36499295 0.00501461 0.50546074
v -0.35499233 -0.06497975 0.50550002
v -0.36499295 0.01502116 0.50524491
v -0.36499295 0.02500198 0.50482500
v -0.36352167 0.07498325 0.50259584
v -0.36267799 0.08498980 0.50222301
v -0.36184460 0.09499635 0.50171280
v -0.36106268 0.10497717 0.50108486
v -0.35578457 0.11524095 0.50249773
v -0.35315067 0.12499025 0.50215232
v -0.35964283 0.11876511 0.49899700
v -0.34499171 -0.10024704 0.50550002
v -0.36054823 0.12108024 0.49232915
v -0.36081573 0.12164617 0.48500198
v -0.35049617 0.14096472 0.47921324
v -0.35155591 0.12277801 0.46541053
v -0.35436472 0.11542102 0.46541053
v -0.33499110 -0.10024704 0.50449532
v -0.29819867 0.16249551 0.50137526
v -0.29929957 0.16249551 0.50197184
v -0.33128715 0.16249551 0.46541053
v -0.35499233 0.06497671 0.50550002
v -0.35499233 0.07498325 0.50534695
v -0.35499233 0.08498980 0.50497019
v -0.35499233 0.09499635 0.50445998
v -0.35499233 0.10497717 0.50383598
v -0.34499171 0.12499025 0.50490350
v -0.33499110 0.14497763 0.50487208
v -0.32778898 0.16249551 0.50429910
v -0.34305742 0.14497763 0.50212097
v -0.35121638 0.13252732 0.50103778
v -0.34959075 0.13918978 0.49878114
v -0.30747908 0.16249551 0.50475043
v -0.31500012 0.16249551 0.50546861
v -0.31747970 0.16249551 0.50549608
v -0.32500076 0.14497763 0.50550002
v -0.35049617 0.14096472 0.49211723
v -0.35828471 0.12663658 0.48500198
v -0.34042352 0.16084918 0.47930744
v -0.34146267 0.14258531 0.46541053
v -0.30488634 0.16249551 0.50403613
v -0.33826289 0.16249551 0.47754139
v -0.33135918 0.16239262 0.46541053
v -0.34499171 0.11498372 0.50550002
v -0.33499110 0.13499680 0.50550002
v -0.32500076 0.15498418 0.50548822
v -0.32500076 0.16249551 0.50498980
v -0.33367413 0.16249551 0.50226223
v -0.34115401 0.15241179 0.50099462
v -0.33952841 0.15907425 0.49855745
v -0.34042352 0.16084918 0.49188960
v -0.35403547 0.13499680 0.48500198
v -0.34064987 0.16126077 0.48500198
v -0.34001198 0.16249551 0.48500198
v -0.33571130 0.16249551 0.50060213
v -0.33831432 0.16249551 0.49638715
v -0.33913743 0.16249551 0.49336916
v -0.33971360 0.16249551 0.48976642
f 1 2 3
f 1 3 4
f 1 4 13
f 1 13 5
f 1 5 6
f 1 6 2
f 2 6 17
f 2 17 7
f 2 7 8
f 2 8 9
f 2 9 3
f 3 9 10
f 3 10 11
f 3 11 4
f 4 12 32
f 4 32 13
f 4 11 14
f 4 14 15
f 4 15 12
f 5 13 16
f 5 16 6
f 6 16 18
f 6 18 19
f 6 19 17
f 7 17 19
f 7 19 46
f 7 46 45
f 7 45 67
f 7 67 89
f 7 89 88
f 7 88 112
f 7 112 115
f 7 115 93
f 7 93 69
f 7 69 47
f 7 47 21
f 7 21 20
f 7 20 8
f 8 20 9
f 9 20 21
f 9 21 22
f 9 22 23
f 9 23 24
f 9 24 25
f 9 25 26
f 9 26 10
f 10 26 11
f 11 26 25
f 11 25 24
f 11 24 27
f 11 27 14
f 12 28 29
f 12 29 30
f 12 30 31
f 12 31 54
f 12 54 32
f 12 15 33
f 12 33 34
f 12 34 28
f 13 32 35
f 13 35 36
f 13 36 37
f 13 37 16
f 14 27 38
f 14 38 15
f 15 38 27
f 15 27 39
f 15 39 33
f 16 37 40
f 16 40 18
f 18 40 41
f 18 41 42
f 18 42 43
f 18 43 44
f 18 44 45
f 18 45 46
f 18 46 19
f 21 47 68
f 21 68 90
f 21 90 84
f 21 84 63
f 21 63 39
f 21 39 27
f 21 27 24
f 21 24 23
f 21 23 22
f 28 34 39
f 28 39 48
f 28 48 29
f 29 48 49
f 29 49 30
f 30 50 31
f 30 49 51
f 30 51 50
f 31 50 52
f 31 52 53
f 31 53 73
f 31 73 54
f 32 54 55
f 32 55 56
f 32 56 57
f 32 57 58
f 32 58 59
f 32 59 35
f 33 39 34
f 35 59 60
f 35 60 61
f 35 61 62
f 35 62 36
f 36 62 61
f 36 61 37
f 37 61 42
f 37 42 41
f 37 41 40
f 39 63 48
f 42 61 64
f 42 64 65
f 42 65 66
f 42 66 43
f 43 67 45
f 43 45 44
f 43 66 67
f 47 69 68
f 48 63 49
f 49 63 51
f 50 51 70
f 50 70 71
f 50 71 52
f 51 63 70
f 52 71 72
f 52 72 53
f 53 72 74
f 53 74 94
f 53 94 73
f 54 73 75
f 54 75 76
f 54 76 55
f 55 76 77
f 55 77 78
f 55 78 56
f 56 78 79
f 56 79 57
f 57 79 80
f 57 80 58
f 58 80 59
f 59 80 60
f 60 80 81
f 60 81 82
f 60 82 83
f 60 83 64
f 60 64 61
f 63 84 70
f 64 83 85
f 64 85 65
f 65 85 86
f 65 86 66
f 66 86 87
f 66 87 88
f 66 88 89
f 66 89 67
f 68 69 91
f 68 91 92
f 68 92 90
f 69 93 114
f 69 114 126
f 69 126 130
f 69 130 129
f 69 129 128
f 69 128 127
f 69 127 120
f 69 120 101
f 69 101 119
f 69 119 107
f 69 107 106
f 69 106 105
f 69 105 113
f 69 113 92
f 69 92 91
f 70 84 71
f 71 84 72
f 72 84 74
f 73 94 95
f 73 95 75
f 74 84 108
f 74 108 117
f 74 117 116
f 74 116 94
f 75 95 96
f 75 96 76
f 76 96 97
f 76 97 77
f 77 97 98
f 77 98 78
f 78 98 79
f 79 98 81
f 79 81 80
f 81 99 82
f 81 98 99
f 82 99 100
f 82 100 101
f 82 101 102
f 82 102 103
f 82 103 83
f 83 103 104
f 83 104 85
f 84 90 105
f 84 105 106
f 84 106 107
f 84 107 108
f 85 104 109
f 85 109 86
f 86 109 110
f 86 110 111
f 86 111 87
f 87 111 88
f 88 111 112
f 90 92 113
f 90 113 105
f 93 115 114
f 94 116 95
f 95 116 96
f 96 116 97
f 97 116 99
f 97 99 98
f 99 117 118
f 99 118 100
f 99 116 117
f 100 118 119
f 100 119 101
f 101 120 102
f 102 120 121
f 102 121 103
f 103 121 104
f 104 121 122
f 104 122 109
f 107 119 118
f 107 118 117
f 107 117 108
f 109 122 123
f 109 123 110
f 110 123 124
f 110 124 111
f 111 125 126
f 111 126 114
f 111 114 115
f 111 115 112
f 111 124 125
f 120 127 121
f 121 127 122
f 122 127 128
f 122 128 123
f 123 128 129
f 123 129 130
f 123 130 125
f 123 125 124
f 125 130 126

