# https://github.com/mikedh/trimesh
v 0.37113664 0.00494074 0.45238096
v 0.36481538 0.04497525 0.45238096
v 0.37113664 -0.00494074 0.45238096
v 0.37106398 0.00494074 -0.44745612
v 0.37084600 0.00646655 -0.44745612
v 0.36902955 0.01830979 -0.44745612
v 0.36132783 0.06699060 0.45238096
v 0.36285365 0.05739975 -0.44745612
v 0.36997411 -0.01242450 0.45238096
v 0.37041005 -0.00959084 -0.44745612
v 0.37106398 -0.00494074 -0.44745612
v 0.35689569 0.09496389 0.45238096
v 0.35689569 0.09496389 -0.44745612
v 0.36525133 -0.04235956 0.45238096
v 0.36997411 -0.01235185 -0.44745612
v 0.35529721 0.10499069 0.45238096
v 0.35529721 0.10499069 -0.44745612
v 0.35573316 -0.10237500 0.45238096
v 0.35689569 -0.09496389 -0.44745612
v 0.36481538 -0.04497525 -0.44745612
v 0.35282683 0.11494482 0.45238096
v 0.35282683 0.11494482 -0.44745612
v 0.35529721 -0.10499069 0.45238096
v 0.35529721 -0.10499069 -0.44745612
v 0.35224557 0.11654330 0.45238096
v 0.35057443 0.12112074 -0.44745612
v 0.35348076 -0.11232914 0.45238096
v 0.35282683 -0.11494482 -0.44745612
v 0.35057443 0.12112074 0.45238096
v 0.34803143 0.12613414 -0.44745612
v 0.35282683 -0.11494482 0.45238096
v 0.35057443 -0.12112074 -0.44745612
v 0.34803143 0.12613414 0.45238096
v 0.31657055 0.18789338 -0.44745612
v 0.34352663 0.13499841 0.45238096
v 0.35057443 -0.12112074 0.45238096
v 0.34803143 -0.12613414 -0.44745612
v 0.31017664 0.20039053 -0.44745612
v 0.31017664 0.20039053 0.45238096
v 0.34803143 -0.12613414 0.45238096
v 0.31773308 -0.18556832 -0.44745612
v 0.34352663 -0.13499841 0.45238096
v 0.30763361 0.20533127 -0.44745612
v 0.30763361 0.20533127 0.45238096
v 0.31017664 -0.20039053 -0.44745612
v 0.30952272 -0.20169838 0.45238096
v 0.30639842 0.20765632 -0.44745612
v 0.30632576 0.20780164 0.45238096
v 0.30763361 -0.20533127 -0.44745612
v 0.30763361 -0.20533127 0.45238096
v 0.30262023 0.21463148 -0.44745612
v 0.30262023 0.21463148 0.45238096
v 0.30385542 -0.21237908 -0.44745612
v 0.30392808 -0.21223377 0.45238096
v 0.30044049 0.21840970 -0.44745612
v 0.30051315 0.21833704 0.45238096
v 0.30262023 -0.21463148 -0.44745612
v 0.30262023 -0.21463148 0.45238096
v 0.29971391 0.21964487 -0.44745612
v 0.29971391 0.21964487 0.45238096
v 0.29971391 -0.21964487 -0.44745612
v 0.30189365 -0.21593933 0.45238096
v 0.29099494 0.22850914 -0.44745612
v 0.29106760 0.22843648 0.45238096
v 0.29353797 -0.22596613 -0.44745612
v 0.29971391 -0.21964487 0.45238096
v 0.22850914 0.29099494 -0.44745612
v 0.22843648 0.29106760 0.45238096
v 0.22596613 -0.29353797 -0.44745612
v 0.29600835 -0.22342309 0.45238096
v 0.28975978 -0.22974433 0.45238096
v 0.21964487 0.29971391 -0.44745612
v 0.21964487 0.29971391 0.45238096
v 0.21964487 -0.29971391 -0.44745612
v 0.22974433 -0.28975978 0.45238096
v 0.22342309 -0.29600835 0.45238096
v 0.21964487 -0.29971391 0.45238096
v 0.21840970 0.30044049 -0.44745612
v 0.21833704 0.30051315 0.45238096
v 0.21463148 -0.30262023 -0.44745612
v 0.21593933 -0.30189365 0.45238096
v 0.21463148 0.30262023 -0.44745612
v 0.21463148 0.30262023 0.45238096
v 0.21237908 -0.30385542 -0.44745612
v 0.21463148 -0.30262023 0.45238096
v 0.20765632 0.30639842 -0.44745612
v 0.20780164 0.30632576 0.45238096
v 0.20533127 -0.30763361 -0.44745612
v 0.21223377 -0.30392808 0.45238096
v 0.20533127 -0.30763361 0.45238096
v 0.20533127 0.30763361 -0.44745612
v 0.20533127 0.30763361 0.45238096
v 0.20039053 -0.31017664 -0.44745612
v 0.20169838 -0.30952272 0.45238096
v 0.20039053 0.31017664 -0.44745612
v 0.20039053 0.31017664 0.45238096
v 0.18556832 -0.31773308 -0.44745612
v 0.13499841 -0.34352663 0.45238096
v 0.18789338 0.31657055 -0.44745612
v 0.18803869 0.31649789 0.45238096
v 0.12613414 -0.34803143 -0.44745612
v 0.12613414 -0.34803143 0.45238096
v 0.12613414 0.34803143 -0.44745612
v 0.13499841 0.34352663 0.45238096
v 0.12112074 -0.35057443 -0.44745612
v 0.12112074 -0.35057443 0.45238096
v 0.12112074 0.35057443 -0.44745612
v 0.12613414 0.34803143 0.45238096
v 0.11494482 -0.35282683 -0.44745612
v 0.11494482 -0.35282683 0.45238096
v 0.11494482 0.35282683 -0.44745612
v 0.11654330 0.35224557 0.45238096
v 0.12112074 0.35057443 0.45238096
v 0.10499069 -0.35529721 -0.44745612
v 0.11232914 -0.35348076 0.45238096
v 0.10499069 0.35529721 -0.44745612
v 0.11494482 0.35282683 0.45238096
v 0.09496389 -0.35689569 -0.44745612
v 0.10499069 -0.35529721 0.45238096
v 0.10237500 -0.35573316 0.45238096
v 0.09496389 0.35689569 -0.44745612
v 0.10499069 0.35529721 0.45238096
v 0.04497525 -0.36481538 -0.44745612
v 0.04235956 -0.36525133 0.45238096
v 0.05739975 0.36285365 -0.44745612
v 0.09496389 0.35689569 0.45238096
v 0.01235185 -0.36997411 -0.44745612
v 0.01242450 -0.36997411 0.45238096
v 0.00959084 -0.37041005 -0.44745612
v 0.01830979 0.36902955 -0.44745612
v 0.04497525 0.36481538 0.45238096
v 0.06699060 0.36132783 0.45238096
v 0.00494074 -0.37113664 0.45238096
v 0.00494074 -0.37106398 -0.44745612
v 0.00646655 0.37084600 -0.44745612
v 0.00494074 0.37113664 0.45238096
v -0.00494074 -0.37113664 0.45238096
v -0.00494074 -0.37106398 -0.44745612
v 0.00494074 0.37106398 -0.44745612
v -0.00494074 0.37113664 0.45238096
v -0.04497525 -0.36481538 0.45238096
v -0.01830979 -0.36902955 -0.44745612
v -0.00646655 -0.37084600 -0.44745612
v -0.00494074 0.37106398 -0.44745612
v -0.01242450 0.36997411 0.45238096
v -0.00959084 0.37041005 -0.44745612
v -0.06699060 -0.36132783 0.45238096
v -0.05739975 -0.36285365 -0.44745612
v -0.04235956 0.36525133 0.45238096
v -0.01235185 0.36997411 -0.44745612
v -0.09496389 -0.35689569 0.45238096
v -0.09496389 -0.35689569 -0.44745612
v -0.10237500 0.35573316 0.45238096
v -0.04497525 0.36481538 -0.44745612
v -0.09496389 0.35689569 -0.44745612
v -0.10499069 -0.35529721 0.45238096
v -0.10499069 -0.35529721 -0.44745612
v -0.10499069 0.35529721 0.45238096
v -0.10499069 0.35529721 -0.44745612
v -0.11494482 -0.35282683 0.45238096
v -0.11494482 -0.35282683 -0.44745612
v -0.11232914 0.35348076 0.45238096
v -0.11494482 0.35282683 -0.44745612
v -0.11654330 -0.35224557 0.45238096
v -0.12112074 -0.35057443 -0.44745612
v -0.11494482 0.35282683 0.45238096
v -0.12112074 0.35057443 -0.44745612
v -0.12112074 -0.35057443 0.45238096
v -0.12613414 -0.34803143 -0.44745612
v -0.12112074 0.35057443 0.45238096
v -0.12613414 0.34803143 -0.44745612
v -0.12613414 -0.34803143 0.45238096
v -0.18789338 -0.31657055 -0.44745612
v -0.13499841 -0.34352663 0.45238096
v -0.12613414 0.34803143 0.45238096
v -0.18556832 0.31773308 -0.44745612
v -0.13499841 0.34352663 0.45238096
v -0.20039053 -0.31017664 -0.44745612
v -0.20039053 -0.31017664 0.45238096
v -0.20039053 0.31017664 -0.44745612
v -0.20169838 0.30952272 0.45238096
v -0.20533127 -0.30763361 -0.44745612
v -0.20533127 -0.30763361 0.45238096
v -0.20533127 0.30763361 -0.44745612
v -0.20533127 0.30763361 0.45238096
v -0.20765632 -0.30639842 -0.44745612
v -0.20780164 -0.30632576 0.45238096
v -0.21237908 0.30385542 -0.44745612
v -0.21223377 0.30392808 0.45238096
v -0.21463148 -0.30262023 -0.44745612
v -0.21463148 -0.30262023 0.45238096
v -0.21463148 0.30262023 -0.44745612
v -0.21463148 0.30262023 0.45238096
v -0.21840970 -0.30044049 -0.44745612
v -0.21833704 -0.30051315 0.45238096
v -0.21964487 0.29971391 -0.44745612
v -0.21593933 0.30189365 0.45238096
v -0.21964487 -0.29971391 -0.44745612
v -0.21964487 -0.29971391 0.45238096
v -0.22596613 0.29353797 -0.44745612
v -0.21964487 0.29971391 0.45238096
v -0.22850914 -0.29099494 -0.44745612
v -0.22843648 -0.29106760 0.45238096
v -0.29353797 0.22596613 -0.44745612
v -0.22974433 0.28975978 0.45238096
v -0.22342309 0.29600835 0.45238096
v -0.29099494 -0.22850914 -0.44745612
v -0.29106760 -0.22843648 0.45238096
v -0.29971391 0.21964487 -0.44745612
v -0.29971391 0.21964487 0.45238096
v -0.29600835 0.22342309 0.45238096
v -0.28975978 0.22974433 0.45238096
v -0.29971391 -0.21964487 -0.44745612
v -0.29971391 -0.21964487 0.45238096
v -0.30262023 0.21463148 -0.44745612
v -0.30189365 0.21593933 0.45238096
v -0.30044049 -0.21840970 -0.44745612
v -0.30051315 -0.21833704 0.45238096
v -0.30385542 0.21237908 -0.44745612
v -0.30262023 0.21463148 0.45238096
v -0.30262023 -0.21463148 -0.44745612
v -0.30262023 -0.21463148 0.45238096
v -0.30763361 0.20533127 -0.44745612
v -0.30763361 0.20533127 0.45238096
v -0.30392808 0.21223377 0.45238096
v -0.30639842 -0.20765632 -0.44745612
v -0.30632576 -0.20780164 0.45238096
v -0.31017664 0.20039053 -0.44745612
v -0.30952272 0.20169838 0.45238096
v -0.30763361 -0.20533127 -0.44745612
v -0.30763361 -0.20533127 0.45238096
v -0.31773308 0.18556832 -0.44745612
v -0.34352663 0.13499841 0.45238096
v -0.31017664 -0.20039053 -0.44745612
v -0.31017664 -0.20039053 0.45238096
v -0.34803143 0.12613414 -0.44745612
v -0.34803143 0.12613414 0.45238096
v -0.31657055 -0.18789338 -0.44745612
v -0.34352663 -0.13499841 0.45238096
v -0.35057443 0.12112074 -0.44745612
v -0.35057443 0.12112074 0.45238096
v -0.34803143 -0.12613414 -0.44745612
v -0.34803143 -0.12613414 0.45238096
v -0.35282683 0.11494482 -0.44745612
v -0.35282683 0.11494482 0.45238096
v -0.35057443 -0.12112074 -0.44745612
v -0.35057443 -0.12112074 0.45238096
v -0.35529721 0.10499069 -0.44745612
v -0.35348076 0.11232914 0.45238096
v -0.35282683 -0.11494482 -0.44745612
v -0.35224557 -0.11654330 0.45238096
v -0.35689569 0.09496389 -0.44745612
v -0.35573316 0.10237500 0.45238096
v -0.35529721 0.10499069 0.45238096
v -0.35529721 -0.10499069 -0.44745612
v -0.35282683 -0.11494482 0.45238096
v -0.36481538 0.04497525 -0.44745612
v -0.36525133 0.04235956 0.45238096
v -0.35689569 -0.09496389 -0.44745612
v -0.35529721 -0.10499069 0.45238096
v -0.36997411 0.01235185 -0.44745612
v -0.36997411 0.01242450 0.45238096
v -0.37041005 0.00959084 -0.44745612
v -0.36285365 -0.05739975 -0.44745612
v -0.35689569 -0.09496389 0.45238096
v -0.37113664 0.00494074 0.45238096
v -0.37106398 0.00494074 -0.44745612
v -0.36902955 -0.01830979 -0.44745612
v -0.36132783 -0.06699060 0.45238096
v -0.36481538 -0.04497525 0.45238096
v -0.37113664 -0.00494074 0.45238096
v -0.37106398 -0.00494074 -0.44745612
v -0.37084600 -0.00646655 -0.44745612
f 1 2 7
f 1 7 12
f 1 12 16
f 1 16 21
f 1 21 25
f 1 25 29
f 1 29 33
f 1 33 35
f 1 35 39
f 1 39 44
f 1 44 48
f 1 48 52
f 1 52 56
f 1 56 60
f 1 60 64
f 1 64 68
f 1 68 73
f 1 73 79
f 1 79 83
f 1 83 87
f 1 87 92
f 1 92 96
f 1 96 100
f 1 100 104
f 1 104 108
f 1 108 113
f 1 113 112
f 1 112 117
f 1 117 122
f 1 122 126
f 1 126 132
f 1 132 131
f 1 131 136
f 1 136 140
f 1 140 145
f 1 145 149
f 1 149 153
f 1 153 158
f 1 158 162
f 1 162 166
f 1 166 170
f 1 170 175
f 1 175 177
f 1 177 181
f 1 181 185
f 1 185 189
f 1 189 193
f 1 193 197
f 1 197 201
f 1 201 206
f 1 206 205
f 1 205 212
f 1 212 211
f 1 211 210
f 1 210 216
f 1 216 220
f 1 220 225
f 1 225 224
f 1 224 229
f 1 229 233
f 1 233 237
f 1 237 241
f 1 241 245
f 1 245 249
f 1 249 254
f 1 254 253
f 1 253 258
f 1 258 262
f 1 262 266
f 1 266 271
f 1 271 270
f 1 270 269
f 1 269 265
f 1 265 260
f 1 260 256
f 1 256 251
f 1 251 247
f 1 247 243
f 1 243 239
f 1 239 235
f 1 235 231
f 1 231 227
f 1 227 222
f 1 222 218
f 1 218 214
f 1 214 208
f 1 208 203
f 1 203 199
f 1 199 195
f 1 195 191
f 1 191 187
f 1 187 183
f 1 183 179
f 1 179 174
f 1 174 172
f 1 172 168
f 1 168 164
f 1 164 160
f 1 160 156
f 1 156 151
f 1 151 147
f 1 147 141
f 1 141 137
f 1 137 133
f 1 133 128
f 1 128 124
f 1 124 120
f 1 120 119
f 1 119 115
f 1 115 110
f 1 110 106
f 1 106 102
f 1 102 98
f 1 98 94
f 1 94 90
f 1 90 89
f 1 89 85
f 1 85 81
f 1 81 77
f 1 77 76
f 1 76 75
f 1 75 71
f 1 71 70
f 1 70 66
f 1 66 62
f 1 62 58
f 1 58 54
f 1 54 50
f 1 50 46
f 1 46 42
f 1 42 40
f 1 40 36
f 1 36 31
f 1 31 27
f 1 27 23
f 1 23 18
f 1 18 14
f 1 14 9
f 1 9 3
f 1 3 11
f 1 11 4
f 1 4 5
f 1 5 6
f 1 6 2
f 2 6 8
f 2 8 7
f 3 9 10
f 3 10 11
f 4 11 10
f 4 10 15
f 4 15 20
f 4 20 19
f 4 19 24
f 4 24 28
f 4 28 32
f 4 32 37
f 4 37 41
f 4 41 45
f 4 45 49
f 4 49 53
f 4 53 57
f 4 57 61
f 4 61 65
f 4 65 69
f 4 69 74
f 4 74 80
f 4 80 84
f 4 84 88
f 4 88 93
f 4 93 97
f 4 97 101
f 4 101 105
f 4 105 109
f 4 109 114
f 4 114 118
f 4 118 123
f 4 123 127
f 4 127 129
f 4 129 134
f 4 134 138
f 4 138 143
f 4 143 142
f 4 142 148
f 4 148 152
f 4 152 157
f 4 157 161
f 4 161 165
f 4 165 169
f 4 169 173
f 4 173 178
f 4 178 182
f 4 182 186
f 4 186 190
f 4 190 194
f 4 194 198
f 4 198 202
f 4 202 207
f 4 207 213
f 4 213 217
f 4 217 221
f 4 221 226
f 4 226 230
f 4 230 234
f 4 234 238
f 4 238 242
f 4 242 246
f 4 246 250
f 4 250 255
f 4 255 259
f 4 259 264
f 4 264 268
f 4 268 273
f 4 273 272
f 4 272 267
f 4 267 263
f 4 263 261
f 4 261 257
f 4 257 252
f 4 252 248
f 4 248 244
f 4 244 240
f 4 240 236
f 4 236 232
f 4 232 228
f 4 228 223
f 4 223 219
f 4 219 215
f 4 215 209
f 4 209 204
f 4 204 200
f 4 200 196
f 4 196 192
f 4 192 188
f 4 188 184
f 4 184 180
f 4 180 176
f 4 176 171
f 4 171 167
f 4 167 163
f 4 163 159
f 4 159 155
f 4 155 154
f 4 154 150
f 4 150 146
f 4 146 144
f 4 144 139
f 4 139 135
f 4 135 130
f 4 130 125
f 4 125 121
f 4 121 116
f 4 116 111
f 4 111 107
f 4 107 103
f 4 103 99
f 4 99 95
f 4 95 91
f 4 91 86
f 4 86 82
f 4 82 78
f 4 78 72
f 4 72 67
f 4 67 63
f 4 63 59
f 4 59 55
f 4 55 51
f 4 51 47
f 4 47 43
f 4 43 38
f 4 38 34
f 4 34 30
f 4 30 26
f 4 26 22
f 4 22 17
f 4 17 13
f 4 13 8
f 4 8 6
f 4 6 5
f 7 8 12
f 8 13 12
f 9 14 10
f 10 14 15
f 12 13 17
f 12 17 16
f 14 18 19
f 14 19 20
f 14 20 15
f 16 17 22
f 16 22 21
f 18 23 24
f 18 24 19
f 21 22 25
f 22 26 25
f 23 27 24
f 24 27 28
f 25 26 29
f 26 30 33
f 26 33 29
f 27 31 28
f 28 31 36
f 28 36 32
f 30 34 35
f 30 35 33
f 32 36 40
f 32 40 37
f 34 38 39
f 34 39 35
f 37 40 42
f 37 42 41
f 38 43 44
f 38 44 39
f 41 42 46
f 41 46 45
f 43 47 48
f 43 48 44
f 45 46 49
f 46 50 49
f 47 51 48
f 48 51 52
f 49 50 53
f 50 54 53
f 51 55 56
f 51 56 52
f 53 54 58
f 53 58 57
f 55 59 56
f 56 59 60
f 57 58 62
f 57 62 61
f 59 63 64
f 59 64 60
f 61 62 66
f 61 66 65
f 63 67 68
f 63 68 64
f 65 66 70
f 65 70 71
f 65 71 75
f 65 75 69
f 67 72 68
f 68 72 73
f 69 75 76
f 69 76 77
f 69 77 74
f 72 78 79
f 72 79 73
f 74 77 81
f 74 81 80
f 78 82 79
f 79 82 83
f 80 81 85
f 80 85 84
f 82 86 87
f 82 87 83
f 84 85 89
f 84 89 90
f 84 90 88
f 86 91 87
f 87 91 92
f 88 90 94
f 88 94 93
f 91 95 96
f 91 96 92
f 93 94 98
f 93 98 97
f 95 99 100
f 95 100 96
f 97 98 101
f 98 102 101
f 99 103 104
f 99 104 100
f 101 102 106
f 101 106 105
f 103 107 113
f 103 113 108
f 103 108 104
f 105 106 110
f 105 110 109
f 107 111 112
f 107 112 113
f 109 110 115
f 109 115 114
f 111 116 122
f 111 122 117
f 111 117 112
f 114 115 119
f 114 119 120
f 114 120 118
f 116 121 126
f 116 126 122
f 118 120 124
f 118 124 123
f 121 125 126
f 123 124 127
f 124 128 129
f 124 129 127
f 125 130 131
f 125 131 132
f 125 132 126
f 128 133 129
f 129 133 134
f 130 135 136
f 130 136 131
f 133 137 138
f 133 138 134
f 135 139 136
f 136 139 144
f 136 144 140
f 137 141 142
f 137 142 143
f 137 143 138
f 140 144 146
f 140 146 145
f 141 147 148
f 141 148 142
f 145 146 149
f 146 150 149
f 147 151 148
f 148 151 152
f 149 150 154
f 149 154 155
f 149 155 153
f 151 156 157
f 151 157 152
f 153 155 159
f 153 159 158
f 156 160 161
f 156 161 157
f 158 159 162
f 159 163 162
f 160 164 161
f 161 164 165
f 162 163 166
f 163 167 170
f 163 170 166
f 164 168 165
f 165 168 172
f 165 172 169
f 167 171 175
f 167 175 170
f 169 172 174
f 169 174 173
f 171 176 177
f 171 177 175
f 173 174 179
f 173 179 178
f 176 180 181
f 176 181 177
f 178 179 183
f 178 183 182
f 180 184 181
f 181 184 185
f 182 183 187
f 182 187 186
f 184 188 185
f 185 188 189
f 186 187 190
f 187 191 190
f 188 192 193
f 188 193 189
f 190 191 195
f 190 195 194
f 192 196 197
f 192 197 193
f 194 195 198
f 195 199 198
f 196 200 201
f 196 201 197
f 198 199 203
f 198 203 202
f 200 204 212
f 200 212 205
f 200 205 206
f 200 206 201
f 202 203 208
f 202 208 207
f 204 209 210
f 204 210 211
f 204 211 212
f 207 208 213
f 208 214 213
f 209 215 216
f 209 216 210
f 213 214 218
f 213 218 217
f 215 219 220
f 215 220 216
f 217 218 221
f 218 222 221
f 219 223 224
f 219 224 225
f 219 225 220
f 221 222 227
f 221 227 226
f 223 228 229
f 223 229 224
f 226 227 230
f 227 231 230
f 228 232 233
f 228 233 229
f 230 231 235
f 230 235 234
f 232 236 233
f 233 236 237
f 234 235 238
f 235 239 238
f 236 240 241
f 236 241 237
f 238 239 242
f 239 243 242
f 240 244 245
f 240 245 241
f 242 243 247
f 242 247 246
f 244 248 249
f 244 249 245
f 246 247 251
f 246 251 250
f 248 252 253
f 248 253 254
f 248 254 249
f 250 251 256
f 250 256 260
f 250 260 255
f 252 257 258
f 252 258 253
f 255 260 265
f 255 265 259
f 257 261 258
f 258 261 263
f 258 263 262
f 259 265 264
f 262 263 266
f 263 267 266
f 264 265 269
f 264 269 270
f 264 270 268
f 266 267 272
f 266 272 271
f 268 270 271
f 268 271 273
f 271 272 273

