# https://github.com/mikedh/trimesh
v -0.10051269 0.36551091 -0.48500213
v -0.10051269 0.36417964 -0.48021197
v -0.10051269 0.36491480 -0.48948535
v -0.10501392 0.36479560 -0.48500213
v -0.11500103 0.36139786 -0.47778586
v -0.10501392 0.36239135 -0.47631335
v -0.10051269 0.36251056 -0.47544011
v -0.10051269 0.36417964 -0.49499896
v -0.10501392 0.36346433 -0.49499896
v -0.11528236 0.36139786 -0.49540088
v -0.11500103 0.36282849 -0.48500213
v -0.12111989 0.36054346 -0.47911948
v -0.11500103 0.35577470 -0.46817267
v -0.10501392 0.35784116 -0.46817267
v -0.10051269 0.35843727 -0.46817267
v -0.10051269 0.36141774 -0.50136757
v -0.10501392 0.36106008 -0.50108624
v -0.11211743 0.36044413 -0.50049794
v -0.11879895 0.35964933 -0.49900353
v -0.12111989 0.36054346 -0.49233532
v -0.12165911 0.36082163 -0.48500213
v -0.12353462 0.35263529 -0.46817267
v -0.14100035 0.35048935 -0.47921449
v -0.10051269 0.32010844 -0.46817267
v -0.10051269 0.35499978 -0.50411522
v -0.10501392 0.35499978 -0.50383389
v -0.11528236 0.35577470 -0.50249660
v -0.12501159 0.35315192 -0.50215310
v -0.13256054 0.35120466 -0.50103873
v -0.13921860 0.34957534 -0.49878797
v -0.12468337 0.35784116 -0.49540088
v -0.14100035 0.35048935 -0.49211976
v -0.12667611 0.35827830 -0.48500213
v -0.18073779 0.33036125 -0.47940448
v -0.16317829 0.33242771 -0.46817267
v -0.10051269 0.32444006 -0.49499896
v -0.28621203 0.16530299 -0.46817267
v -0.10051269 0.34498543 -0.50550002
v -0.11500103 0.34498543 -0.50550002
v -0.12501159 0.34498543 -0.50490445
v -0.14500925 0.33499092 -0.50487155
v -0.16500692 0.32499641 -0.50482774
v -0.20500226 0.30498755 -0.50472909
v -0.14500925 0.34305805 -0.50212026
v -0.16500692 0.33296421 -0.50207639
v -0.18500459 0.32287034 -0.50202888
v -0.20500226 0.31277651 -0.50197774
v -0.15244098 0.34115055 -0.50099486
v -0.19217843 0.32102245 -0.50090355
v -0.21205889 0.31094849 -0.50085604
v -0.15909906 0.33952123 -0.49856144
v -0.17897950 0.32946712 -0.49832392
v -0.18073779 0.33036125 -0.49165574
v -0.20061825 0.32028729 -0.49140728
v -0.19501515 0.32346645 -0.48500213
v -0.20061825 0.32028729 -0.47950315
v -0.20279853 0.31222016 -0.46817267
v -0.10051269 0.32789740 -0.50176215
v -0.29472217 0.16254109 -0.49419513
v -0.29819185 0.16254109 -0.50137484
v -0.28982240 0.16254109 -0.46817267
v -0.10051269 0.33499092 -0.50450981
v -0.31497771 0.16254109 -0.50547081
v -0.31497771 0.16500494 -0.50550002
v -0.13502215 0.33499092 -0.50550002
v -0.15501982 0.32499641 -0.50548905
v -0.19501515 0.30498755 -0.50545985
v -0.21501282 0.29499304 -0.50539041
v -0.22586736 0.29586732 -0.50312507
v -0.21524726 0.30556378 -0.50262815
v -0.19883651 0.31939316 -0.49807182
v -0.22312441 0.30262303 -0.50168908
v -0.21871696 0.30929929 -0.49780875
v -0.22035803 0.31023318 -0.49114054
v -0.21501282 0.31327325 -0.48500213
v -0.22035803 0.31023318 -0.47960180
v -0.21548170 0.30530548 -0.46817267
v -0.30487338 0.16254109 -0.50403851
v -0.33270133 0.16254109 -0.46817267
v -0.30499059 0.16500494 -0.50454271
v -0.32498828 0.16254109 -0.50499213
v -0.31497771 0.17501931 -0.50547445
v -0.30499059 0.18501380 -0.50550002
v -0.20500226 0.29499304 -0.50550002
v -0.21501282 0.28499854 -0.50550002
v -0.24499759 0.25501505 -0.50550002
v -0.28499293 0.22501168 -0.50539041
v -0.27587324 0.24589482 -0.50312507
v -0.26311976 0.26314178 -0.50168908
v -0.23311153 0.29312530 -0.50168908
v -0.22978249 0.29978168 -0.49955162
v -0.22507027 0.30510676 -0.49534607
v -0.23090780 0.30091426 -0.49288341
v -0.23137668 0.30139112 -0.48500213
v -0.22556259 0.30637842 -0.48500213
v -0.22054559 0.31035239 -0.48500213
v -0.22134268 0.30123216 -0.46817267
v -0.23090780 0.30091426 -0.47887105
v -0.33241999 0.16317692 -0.46817267
v -0.33825752 0.16254109 -0.47754103
v -0.33366251 0.16254109 -0.50226271
v -0.32498828 0.16500494 -0.50482774
v -0.30499059 0.19500831 -0.50545985
v -0.29498005 0.20500281 -0.50550002
v -0.28499293 0.21501718 -0.50550002
v -0.29498005 0.21501718 -0.50539041
v -0.29587090 0.22588596 -0.50312507
v -0.29312798 0.23313843 -0.50168908
v -0.27978837 0.24980918 -0.49955162
v -0.23979305 0.28978717 -0.49955162
v -0.23536214 0.29535070 -0.49621567
v -0.25092891 0.28092524 -0.49288341
v -0.23639368 0.29638395 -0.48500213
v -0.22659412 0.29672173 -0.46817267
v -0.25092891 0.28092524 -0.47887105
v -0.23672189 0.28672722 -0.46817267
v -0.33035693 0.18074182 -0.47940448
v -0.31221133 0.20279726 -0.46817267
v -0.32029948 0.20061159 -0.47950315
v -0.33971107 0.16254109 -0.48106331
v -0.33830440 0.16254109 -0.49638742
v -0.33295920 0.16500494 -0.50207639
v -0.30499059 0.20500281 -0.50472909
v -0.30557668 0.21523574 -0.50262815
v -0.30262277 0.22314392 -0.50168908
v -0.29978603 0.22980030 -0.49955162
v -0.29092425 0.24094725 -0.49288341
v -0.27139544 0.26141313 -0.48500213
v -0.29092425 0.24094725 -0.47887105
v -0.28672779 0.23673485 -0.46817267
v -0.30529538 0.21547419 -0.46817267
v -0.31024206 0.22038202 -0.47960180
v -0.34001583 0.16254109 -0.48500213
v -0.33108369 0.17229715 -0.50095105
v -0.33912495 0.16254109 -0.49336937
v -0.32946604 0.17897341 -0.49832028
v -0.31277397 0.20500281 -0.50197774
v -0.31094536 0.21205658 -0.50085604
v -0.30928084 0.21871296 -0.49780875
v -0.30510783 0.22509116 -0.49534607
v -0.30091137 0.23093288 -0.49288341
v -0.30138025 0.23140976 -0.48500213
v -0.29139313 0.24140425 -0.48500213
v -0.30091137 0.23093288 -0.47887105
v -0.29671490 0.22660126 -0.46817267
v -0.30121613 0.22135565 -0.46817267
v -0.30637378 0.22556803 -0.48500213
v -0.31035927 0.22058073 -0.48500213
v -0.31326631 0.21501718 -0.48500213
v -0.31790820 0.20591682 -0.48500213
v -0.33035693 0.18074182 -0.49165207
v -0.31024206 0.22038202 -0.49114054
v -0.32029948 0.20061159 -0.49140361
v -0.32102624 0.19218680 -0.50090355
v -0.31938517 0.19884318 -0.49807182
f 1 2 7
f 1 7 15
f 1 15 24
f 1 24 36
f 1 36 58
f 1 58 62
f 1 62 38
f 1 38 25
f 1 25 16
f 1 16 8
f 1 8 3
f 1 3 4
f 1 4 5
f 1 5 2
f 2 5 6
f 2 6 7
f 3 8 9
f 3 9 4
f 4 9 10
f 4 10 11
f 4 11 12
f 4 12 5
f 5 12 13
f 5 13 14
f 5 14 6
f 6 14 7
f 7 14 15
f 8 16 17
f 8 17 18
f 8 18 9
f 9 18 19
f 9 19 10
f 10 19 20
f 10 20 11
f 11 20 21
f 11 21 12
f 12 22 13
f 12 21 23
f 12 23 22
f 13 22 35
f 13 35 57
f 13 57 77
f 13 77 97
f 13 97 114
f 13 114 116
f 13 116 130
f 13 130 145
f 13 145 146
f 13 146 131
f 13 131 118
f 13 118 99
f 13 99 79
f 13 79 61
f 13 61 37
f 13 37 24
f 13 24 15
f 13 15 14
f 16 25 26
f 16 26 27
f 16 27 17
f 17 27 18
f 18 27 28
f 18 28 19
f 19 28 29
f 19 29 30
f 19 30 31
f 19 31 20
f 20 31 30
f 20 30 32
f 20 32 21
f 21 32 33
f 21 33 23
f 22 23 34
f 22 34 35
f 23 33 34
f 24 37 36
f 25 38 39
f 25 39 40
f 25 40 26
f 26 40 27
f 27 40 28
f 28 40 41
f 28 41 42
f 28 42 43
f 28 43 44
f 28 44 29
f 29 44 45
f 29 45 46
f 29 46 47
f 29 47 48
f 29 48 30
f 30 48 49
f 30 49 50
f 30 50 51
f 30 51 32
f 32 51 52
f 32 52 53
f 32 53 33
f 33 53 54
f 33 54 55
f 33 55 56
f 33 56 34
f 34 56 35
f 35 56 57
f 36 37 59
f 36 59 60
f 36 60 58
f 37 61 59
f 38 62 63
f 38 63 64
f 38 64 83
f 38 83 104
f 38 104 105
f 38 105 86
f 38 86 85
f 38 85 84
f 38 84 65
f 38 65 39
f 39 65 40
f 40 65 66
f 40 66 67
f 40 67 41
f 41 67 42
f 42 67 43
f 43 68 69
f 43 69 70
f 43 70 47
f 43 47 46
f 43 46 45
f 43 45 44
f 43 67 68
f 47 70 50
f 47 50 49
f 47 49 48
f 50 71 52
f 50 52 51
f 50 70 72
f 50 72 73
f 50 73 71
f 52 71 54
f 52 54 53
f 54 71 73
f 54 73 74
f 54 74 75
f 54 75 55
f 55 75 76
f 55 76 56
f 56 76 57
f 57 76 77
f 58 60 78
f 58 78 62
f 59 61 79
f 59 79 100
f 59 100 120
f 59 120 133
f 59 133 135
f 59 135 121
f 59 121 101
f 59 101 81
f 59 81 63
f 59 63 78
f 59 78 60
f 62 78 80
f 62 80 63
f 63 80 78
f 63 81 64
f 64 81 82
f 64 82 83
f 65 84 66
f 66 84 67
f 67 84 68
f 68 84 85
f 68 85 86
f 68 86 87
f 68 87 88
f 68 88 69
f 69 72 70
f 69 88 89
f 69 89 90
f 69 90 72
f 72 90 91
f 72 91 73
f 73 91 92
f 73 92 74
f 74 92 93
f 74 93 94
f 74 94 95
f 74 95 96
f 74 96 75
f 75 96 76
f 76 97 77
f 76 96 95
f 76 95 94
f 76 94 98
f 76 98 97
f 79 99 100
f 81 101 102
f 81 102 103
f 81 103 82
f 82 103 104
f 82 104 83
f 86 105 87
f 87 105 106
f 87 106 107
f 87 107 88
f 88 107 108
f 88 108 89
f 89 109 110
f 89 110 90
f 89 108 109
f 90 110 91
f 91 110 111
f 91 111 93
f 91 93 92
f 93 111 112
f 93 112 113
f 93 113 94
f 94 113 98
f 97 98 114
f 98 113 115
f 98 115 116
f 98 116 114
f 99 117 100
f 99 118 119
f 99 119 117
f 100 117 120
f 101 121 122
f 101 122 102
f 102 122 123
f 102 123 103
f 103 123 106
f 103 106 104
f 104 106 105
f 106 123 107
f 107 123 124
f 107 124 125
f 107 125 108
f 108 125 126
f 108 126 109
f 109 126 127
f 109 127 112
f 109 112 110
f 110 112 111
f 112 128 113
f 112 127 128
f 113 128 115
f 115 128 129
f 115 129 116
f 116 129 130
f 117 119 120
f 118 131 132
f 118 132 119
f 119 132 133
f 119 133 120
f 121 134 122
f 121 135 136
f 121 136 134
f 122 134 137
f 122 137 123
f 123 137 124
f 124 137 138
f 124 138 125
f 125 138 139
f 125 139 126
f 126 139 140
f 126 140 141
f 126 141 127
f 127 141 142
f 127 142 143
f 127 143 128
f 128 143 129
f 129 143 142
f 129 142 144
f 129 144 130
f 130 144 145
f 131 146 132
f 132 146 144
f 132 144 142
f 132 142 147
f 132 147 148
f 132 148 149
f 132 149 150
f 132 150 133
f 133 151 135
f 133 150 152
f 133 152 153
f 133 153 151
f 134 136 154
f 134 154 137
f 135 151 136
f 136 151 153
f 136 153 155
f 136 155 138
f 136 138 154
f 137 154 138
f 138 155 139
f 139 155 153
f 139 153 152
f 139 152 140
f 140 152 141
f 141 152 142
f 142 152 147
f 144 146 145
f 147 152 148
f 148 152 149
f 149 152 150

