# https://github.com/mikedh/trimesh
v -0.38068321 -0.00449443 -0.48500288
v -0.38044584 -0.00300179 -0.47919920
v -0.38068321 0.00451471 -0.48500288
v -0.38044584 -0.00300179 -0.49216336
v -0.37991950 -0.00950544 -0.48500288
v -0.37275699 -0.00502752 -0.46543902
v -0.38044584 0.00302207 -0.47919920
v -0.37011492 -0.07073030 -0.47978741
v -0.36483079 -0.05548405 -0.46543902
v -0.38044584 0.00302207 -0.49216336
v -0.37991950 0.00952571 -0.48500288
v -0.37920737 -0.00580049 -0.49529654
v -0.36979499 -0.05892246 -0.49947676
v -0.36932024 -0.06499963 -0.49758273
v -0.37056902 -0.06499963 -0.49258295
v -0.37011492 -0.07073030 -0.49063009
v -0.37430510 -0.04498227 -0.48500288
v -0.37275699 0.00504780 -0.46543902
v -0.37011492 0.07072392 -0.47978741
v -0.37113667 -0.06499963 -0.48500288
v -0.36479983 -0.10498103 -0.48500288
v -0.36192039 -0.10977881 -0.47701889
v -0.36239511 -0.10498103 -0.47631305
v -0.35676008 -0.10554078 -0.46543902
v -0.35685295 -0.10498103 -0.46543902
v -0.36174494 -0.07502164 -0.46543902
v -0.37920737 0.00582077 -0.49529654
v -0.37011492 0.07072392 -0.49063009
v -0.37056902 0.06499325 -0.49258295
v -0.36932024 0.06499325 -0.49758273
v -0.36979499 0.05891608 -0.49947676
v -0.37113667 0.06499325 -0.48500288
v -0.37404707 -0.00497421 -0.50270802
v -0.37326270 -0.01499622 -0.50249624
v -0.37241641 -0.02499157 -0.50207663
v -0.37160110 -0.03498692 -0.50152767
v -0.37031102 -0.05225889 -0.50034338
v -0.36066127 -0.10977881 -0.50068849
v -0.36144564 -0.10977881 -0.49869642
v -0.36346847 -0.10498103 -0.49499851
v -0.36174494 0.07501526 -0.46543902
v -0.35685295 0.10497466 -0.46543902
v -0.36239511 0.10497466 -0.47631305
v -0.36140436 0.11499667 -0.47778749
v -0.36054772 0.12107384 -0.47912076
v -0.36479983 0.10497466 -0.48500288
v -0.36322078 -0.10977881 -0.48984188
v -0.36385033 -0.10977881 -0.48500288
v -0.35575897 -0.10977881 -0.46543902
v -0.37160110 0.03498054 -0.50152767
v -0.37241641 0.02501185 -0.50207663
v -0.37326270 0.01501649 -0.50249624
v -0.37404707 0.00502114 -0.50270802
v -0.37031102 0.05225251 -0.50034338
v -0.36346847 0.10497466 -0.49499851
v -0.36045486 0.11209135 -0.50049633
v -0.36499590 -0.00497421 -0.50546080
v -0.36499590 -0.01499622 -0.50524515
v -0.36499590 -0.02499157 -0.50482553
v -0.36352006 -0.07499498 -0.50259429
v -0.36267379 -0.08499034 -0.50222176
v -0.36184812 -0.09498568 -0.50171196
v -0.37082705 -0.04498227 -0.50086886
v -0.36106378 -0.10498103 -0.50108457
v -0.35860747 -0.10977881 -0.50174332
v -0.36250865 -0.10977881 -0.49518284
v -0.35453084 0.11499667 -0.46543902
v -0.35156882 0.12277971 -0.46543902
v -0.35049549 0.14095794 -0.47921488
v -0.35828751 0.12664458 -0.48500288
v -0.36081606 0.12163359 -0.48500288
v -0.36282858 0.11499667 -0.48500288
v -0.36140436 0.11523655 -0.49539852
v -0.30501261 -0.10977881 -0.46543902
v -0.37082705 0.04497590 -0.50086886
v -0.36106378 0.10497466 -0.50108457
v -0.36184812 0.09497932 -0.50171196
v -0.36267379 0.08498396 -0.50222176
v -0.36499590 0.02501185 -0.50482553
v -0.36352006 0.07498860 -0.50259429
v -0.36499590 0.01501649 -0.50524515
v -0.36499590 0.00502114 -0.50546080
v -0.35964984 0.11875492 -0.49899834
v -0.35314786 0.12499203 -0.50215507
v -0.35578993 0.11523655 -0.50249624
v -0.35499525 -0.06499963 -0.50549608
v -0.35499525 -0.07499498 -0.50534707
v -0.35499525 -0.08499034 -0.50497067
v -0.35499525 -0.09498568 -0.50446087
v -0.35499525 -0.10498103 -0.50383341
v -0.35536680 -0.10977881 -0.50320995
v -0.34147528 0.14258385 -0.46543902
v -0.34043288 0.16084202 -0.47930899
v -0.35049549 0.14095794 -0.49211630
v -0.36054772 0.12107384 -0.49233198
v -0.34064963 0.16126849 -0.48500288
v -0.34043288 0.16084202 -0.49188885
v -0.32152557 -0.10977881 -0.49499851
v -0.27536154 0.15535124 -0.46543902
v -0.35499525 0.10497466 -0.50383341
v -0.35499525 0.09497932 -0.50446087
v -0.35499525 0.08498396 -0.50497067
v -0.35499525 0.07498860 -0.50534707
v -0.35499525 0.06499325 -0.50549608
v -0.34958726 0.13919875 -0.49878266
v -0.35121793 0.13253517 -0.50103748
v -0.34499460 0.12499203 -0.50490397
v -0.34305432 0.14498273 -0.50211978
v -0.33499393 0.14498273 -0.50486869
v -0.34499460 -0.10977881 -0.50549608
v -0.35021681 -0.10977881 -0.50462949
v -0.33137143 0.16238797 -0.46543902
v -0.33128884 0.16252123 -0.46543902
v -0.33153653 0.16252123 -0.46586645
v -0.33826557 0.16252123 -0.47754437
v -0.33971044 0.16252123 -0.48106188
v -0.34000975 0.16252123 -0.48500288
v -0.33914283 0.16252123 -0.49337113
v -0.33831719 0.16252123 -0.49638671
v -0.33952469 0.15908283 -0.49855524
v -0.32264018 -0.10977881 -0.49695531
v -0.32607695 -0.10977881 -0.50223744
v -0.29820102 0.16252123 -0.50137472
v -0.27524802 0.16252123 -0.46543902
v -0.34499460 0.11499667 -0.50549608
v -0.34114501 0.15239261 -0.50099432
v -0.32500359 0.15497807 -0.50548828
v -0.33499393 0.13498737 -0.50549608
v -0.33367291 0.16252123 -0.50226098
v -0.32500359 0.16252123 -0.50499028
v -0.34021616 -0.10977881 -0.50542551
v -0.32500359 0.14498273 -0.50549608
v -0.31500295 0.16252123 -0.50546867
v -0.33012262 -0.10977881 -0.50369620
v -0.30488876 0.16252123 -0.50403738
v -0.33499393 -0.10977881 -0.50506866
v -0.31500295 0.15497807 -0.50538242
f 1 2 7
f 1 7 3
f 1 3 10
f 1 10 4
f 1 4 5
f 1 5 2
f 2 6 18
f 2 18 7
f 2 5 8
f 2 8 9
f 2 9 6
f 3 7 11
f 3 11 10
f 4 10 27
f 4 27 12
f 4 12 13
f 4 13 14
f 4 14 15
f 4 15 16
f 4 16 5
f 5 17 8
f 5 16 17
f 6 9 26
f 6 26 25
f 6 25 24
f 6 24 49
f 6 49 74
f 6 74 99
f 6 99 124
f 6 124 113
f 6 113 112
f 6 112 92
f 6 92 68
f 6 68 67
f 6 67 42
f 6 42 41
f 6 41 18
f 7 18 19
f 7 19 11
f 8 20 21
f 8 21 22
f 8 22 23
f 8 23 24
f 8 24 25
f 8 25 26
f 8 26 9
f 8 17 20
f 10 11 28
f 10 28 29
f 10 29 30
f 10 30 31
f 10 31 27
f 11 19 32
f 11 32 28
f 12 27 53
f 12 53 33
f 12 33 34
f 12 34 35
f 12 35 36
f 12 36 37
f 12 37 13
f 13 37 38
f 13 38 39
f 13 39 40
f 13 40 14
f 14 40 15
f 15 40 16
f 16 40 21
f 16 21 20
f 16 20 17
f 18 41 19
f 19 41 42
f 19 42 43
f 19 43 44
f 19 44 45
f 19 45 46
f 19 46 32
f 21 40 47
f 21 47 48
f 21 48 22
f 22 48 47
f 22 47 66
f 22 66 39
f 22 39 38
f 22 38 65
f 22 65 91
f 22 91 111
f 22 111 110
f 22 110 131
f 22 131 136
f 22 136 134
f 22 134 122
f 22 122 121
f 22 121 98
f 22 98 74
f 22 74 49
f 22 49 24
f 22 24 23
f 27 50 51
f 27 51 52
f 27 52 53
f 27 31 54
f 27 54 50
f 28 32 46
f 28 46 55
f 28 55 29
f 29 55 30
f 30 55 31
f 31 55 56
f 31 56 54
f 33 57 58
f 33 58 59
f 33 59 34
f 33 53 82
f 33 82 57
f 34 59 60
f 34 60 61
f 34 61 35
f 35 61 62
f 35 62 36
f 36 63 37
f 36 62 64
f 36 64 63
f 37 64 38
f 37 63 64
f 38 64 65
f 39 66 40
f 40 66 47
f 42 44 43
f 42 67 44
f 44 67 45
f 45 67 68
f 45 68 69
f 45 69 70
f 45 70 71
f 45 71 72
f 45 72 46
f 46 72 73
f 46 73 55
f 50 54 75
f 50 75 76
f 50 76 77
f 50 77 51
f 51 77 78
f 51 78 52
f 52 79 53
f 52 78 80
f 52 80 79
f 53 79 81
f 53 81 82
f 54 56 76
f 54 76 75
f 55 73 83
f 55 83 56
f 56 83 84
f 56 84 85
f 56 85 76
f 57 82 104
f 57 104 86
f 57 86 87
f 57 87 58
f 58 87 88
f 58 88 59
f 59 88 89
f 59 89 60
f 60 89 90
f 60 90 61
f 61 90 62
f 62 90 91
f 62 91 65
f 62 65 64
f 68 92 93
f 68 93 69
f 69 93 70
f 70 94 95
f 70 95 71
f 70 93 96
f 70 96 97
f 70 97 94
f 71 95 72
f 72 95 73
f 73 95 83
f 74 98 99
f 76 85 77
f 77 85 100
f 77 100 78
f 78 100 80
f 79 80 101
f 79 101 102
f 79 102 81
f 80 100 101
f 81 102 103
f 81 103 82
f 82 103 104
f 83 95 105
f 83 105 106
f 83 106 84
f 84 107 85
f 84 106 108
f 84 108 109
f 84 109 107
f 85 107 100
f 86 110 87
f 86 104 125
f 86 125 128
f 86 128 132
f 86 132 110
f 87 110 88
f 88 110 111
f 88 111 89
f 89 111 90
f 90 111 91
f 92 112 93
f 93 112 113
f 93 113 114
f 93 114 115
f 93 115 116
f 93 116 96
f 94 105 95
f 94 97 120
f 94 120 105
f 96 116 117
f 96 117 97
f 97 117 118
f 97 118 119
f 97 119 120
f 98 121 99
f 99 121 122
f 99 122 123
f 99 123 124
f 100 107 101
f 101 107 125
f 101 125 102
f 102 125 103
f 103 125 104
f 105 120 126
f 105 126 106
f 106 126 108
f 107 109 127
f 107 127 128
f 107 128 125
f 108 126 129
f 108 129 109
f 109 129 130
f 109 130 127
f 110 132 133
f 110 133 131
f 113 124 123
f 113 123 135
f 113 135 133
f 113 133 130
f 113 130 129
f 113 129 119
f 113 119 118
f 113 118 117
f 113 117 116
f 113 116 115
f 113 115 114
f 119 129 120
f 120 129 126
f 122 134 135
f 122 135 123
f 127 130 133
f 127 133 132
f 127 132 128
f 131 133 136
f 133 135 137
f 133 137 136
f 134 136 135
f 135 136 137

