# https://github.com/mikedh/trimesh
v 0.16252124 -0.34001583 -0.48500288
v 0.16252124 -0.33970442 -0.48106188
v 0.16252124 -0.33912608 -0.49337113
v 0.18073702 -0.33036214 -0.49165356
v 0.20060343 -0.32028586 -0.49140260
v 0.22039123 -0.31023178 -0.49113986
v 0.17501879 -0.33365420 -0.48500288
v 0.22039123 -0.31023178 -0.47960311
v 0.20060343 -0.32028586 -0.47950506
v 0.18073702 -0.33036214 -0.47940704
v 0.16252124 -0.33825859 -0.47754437
v 0.16252124 -0.33830309 -0.49638671
v 0.17896849 -0.32945016 -0.49831995
v 0.19883490 -0.31939611 -0.49806899
v 0.21872096 -0.30929756 -0.49781016
v 0.22508764 -0.30511576 -0.49534753
v 0.23094341 -0.30091175 -0.49288487
v 0.23141502 -0.30137885 -0.48500288
v 0.22557889 -0.30638367 -0.48500288
v 0.22056808 -0.31034300 -0.48500288
v 0.21500705 -0.31325689 -0.48500288
v 0.20590898 -0.31790578 -0.48500288
v 0.19500309 -0.32346666 -0.48500288
v 0.20704871 -0.30849677 -0.46543902
v 0.20201825 -0.31116599 -0.46543902
v 0.23094341 -0.30091175 -0.47886980
v 0.22587365 -0.29595146 -0.46543902
v 0.22333877 -0.29804233 -0.46543902
v 0.21785635 -0.30231309 -0.46543902
v 0.21577342 -0.30384791 -0.46543902
v 0.16252124 -0.33127415 -0.46543902
v 0.18221079 -0.32126456 -0.46543902
v 0.16252124 -0.33367643 -0.50226098
v 0.16501682 -0.33296463 -0.50207663
v 0.17230706 -0.33107394 -0.50094730
v 0.19217347 -0.32101989 -0.50090414
v 0.21205953 -0.31094357 -0.50085711
v 0.22314227 -0.30262449 -0.50168842
v 0.22980370 -0.29977733 -0.49955127
v 0.24094538 -0.29092443 -0.49288487
v 0.24094538 -0.29092443 -0.47886980
v 0.26094934 -0.27092752 -0.49288487
v 0.26140130 -0.27139461 -0.48500288
v 0.26094934 -0.27092752 -0.47886980
v 0.23597388 -0.28596413 -0.46543902
v 0.16252124 -0.27524275 -0.46543902
v 0.16252124 -0.32497922 -0.50499028
v 0.16501682 -0.32497922 -0.50482553
v 0.18500112 -0.31499189 -0.50477850
v 0.20500508 -0.30498230 -0.50472754
v 0.18500112 -0.32286608 -0.50202960
v 0.20500508 -0.31276754 -0.50197864
v 0.21524286 -0.30556065 -0.50262564
v 0.22589329 -0.29586247 -0.50312757
v 0.23314424 -0.29312652 -0.50168842
v 0.23980567 -0.28979000 -0.49955127
v 0.25980964 -0.26979309 -0.49955127
v 0.29535693 -0.23536015 -0.49621809
v 0.30091795 -0.23091143 -0.49288487
v 0.30138958 -0.23137856 -0.48500288
v 0.29138759 -0.24138813 -0.48500288
v 0.30091795 -0.23091143 -0.47886980
v 0.28596410 -0.23596072 -0.46543902
v 0.27596214 -0.24597029 -0.46543902
v 0.25597784 -0.26596719 -0.46543902
v 0.16252124 -0.29817581 -0.50137472
v 0.29535693 -0.11537868 -0.46543902
v 0.16252124 -0.31499189 -0.50546867
v 0.16501682 -0.31499189 -0.50549608
v 0.17501879 -0.31499189 -0.50547260
v 0.19500309 -0.30498230 -0.50546080
v 0.21500705 -0.29499498 -0.50539023
v 0.23589528 -0.28587514 -0.50312757
v 0.29586783 -0.22588441 -0.50312757
v 0.28311482 -0.24312313 -0.50168842
v 0.29311681 -0.23311354 -0.50168842
v 0.29977825 -0.22977702 -0.49955127
v 0.30510345 -0.22510588 -0.49534753
v 0.31023216 -0.22039026 -0.49113986
v 0.30638072 -0.22557300 -0.48500288
v 0.31023216 -0.22039026 -0.47960311
v 0.29594645 -0.22586216 -0.46543902
v 0.16252124 -0.30487108 -0.50403738
v 0.32524496 -0.11279843 -0.50233936
v 0.30111447 -0.11279843 -0.46543902
v 0.32023415 -0.11279843 -0.49499851
v 0.16501682 -0.30498230 -0.50454319
v 0.33499148 -0.11279843 -0.50522554
v 0.33499148 -0.11500054 -0.50534320
v 0.34499347 -0.11279843 -0.50549608
v 0.20500508 -0.29499498 -0.50549608
v 0.23501101 -0.27499807 -0.50539023
v 0.28498161 -0.22501691 -0.50539023
v 0.29498357 -0.21500733 -0.50539023
v 0.30498555 -0.20502000 -0.50472754
v 0.30557507 -0.21522976 -0.50262564
v 0.30262753 -0.22314847 -0.50168842
v 0.30928898 -0.21872200 -0.49781016
v 0.31325832 -0.21500733 -0.48500288
v 0.31035006 -0.22056821 -0.48500288
v 0.32029310 -0.20061579 -0.49140260
v 0.35403258 -0.13501969 -0.48500288
v 0.34819645 -0.14647511 -0.48500288
v 0.33055055 -0.18110824 -0.48500288
v 0.32029310 -0.20061579 -0.47950506
v 0.31115574 -0.20201713 -0.46543902
v 0.30848330 -0.20704415 -0.46543902
v 0.30384585 -0.21576361 -0.46543902
v 0.30233276 -0.21785450 -0.46543902
v 0.29804903 -0.22334865 -0.46543902
v 0.35501510 -0.11279843 -0.46543902
v 0.35558495 -0.11279843 -0.50282174
v 0.34499347 -0.11500054 -0.50549608
v 0.22500904 -0.27499807 -0.50549608
v 0.27499926 -0.22501691 -0.50549608
v 0.29498357 -0.20502000 -0.50549608
v 0.30498555 -0.19501042 -0.50546080
v 0.31276706 -0.20502000 -0.50197864
v 0.31498754 -0.18500085 -0.50477850
v 0.35314834 -0.12501012 -0.50215507
v 0.34304810 -0.14500703 -0.50211978
v 0.33296752 -0.16500394 -0.50207663
v 0.31095922 -0.21204895 -0.50085711
v 0.31938919 -0.19883631 -0.49806899
v 0.33953071 -0.15908717 -0.49855524
v 0.35049555 -0.14098096 -0.49211630
v 0.35827702 -0.12665614 -0.48500288
v 0.35049555 -0.14098096 -0.47921488
v 0.34147608 -0.14260474 -0.46543902
v 0.36161757 -0.11279843 -0.47746202
v 0.35452384 -0.11500054 -0.46543902
v 0.36140144 -0.11500054 -0.47778749
v 0.35945606 -0.11279843 -0.50091982
v 0.35578147 -0.11526746 -0.50249624
v 0.34499347 -0.12501012 -0.50490397
v 0.33499148 -0.13501969 -0.50549608
v 0.32498953 -0.15501660 -0.50548828
v 0.33499148 -0.14500703 -0.50486869
v 0.32498953 -0.16500394 -0.50482553
v 0.32102016 -0.19218549 -0.50090414
v 0.35120296 -0.13255066 -0.50103748
v 0.34114203 -0.15243635 -0.50099432
v 0.35963291 -0.11878193 -0.49899834
v 0.34959161 -0.13922372 -0.49878266
v 0.32945013 -0.17897286 -0.49831995
v 0.36053681 -0.12111750 -0.49233198
v 0.36081192 -0.12165134 -0.48500288
v 0.36053681 -0.12111750 -0.47912076
v 0.35155666 -0.12280801 -0.46543902
v 0.36216778 -0.11279843 -0.47939134
v 0.36065471 -0.11279843 -0.49941009
v 0.36140144 -0.11526746 -0.49539852
v 0.36281624 -0.11500054 -0.48500288
v 0.36324856 -0.11279843 -0.48500288
v 0.36189270 -0.11279843 -0.49530047
f 1 2 11
f 1 11 31
f 1 31 46
f 1 46 66
f 1 66 83
f 1 83 68
f 1 68 47
f 1 47 33
f 1 33 12
f 1 12 3
f 1 3 4
f 1 4 5
f 1 5 6
f 1 6 7
f 1 7 8
f 1 8 9
f 1 9 10
f 1 10 2
f 2 10 11
f 3 12 13
f 3 13 4
f 4 13 14
f 4 14 5
f 5 14 15
f 5 15 6
f 6 15 16
f 6 16 17
f 6 17 18
f 6 18 19
f 6 19 20
f 6 20 21
f 6 21 22
f 6 22 23
f 6 23 7
f 7 23 8
f 8 24 25
f 8 25 9
f 8 23 22
f 8 22 21
f 8 21 20
f 8 20 19
f 8 19 18
f 8 18 26
f 8 26 27
f 8 27 28
f 8 28 29
f 8 29 30
f 8 30 24
f 9 25 10
f 10 31 11
f 10 25 32
f 10 32 31
f 12 33 34
f 12 34 35
f 12 35 13
f 13 35 36
f 13 36 37
f 13 37 14
f 14 37 15
f 15 37 38
f 15 38 39
f 15 39 16
f 16 39 17
f 17 39 56
f 17 56 40
f 17 40 18
f 18 41 26
f 18 40 42
f 18 42 43
f 18 43 44
f 18 44 41
f 24 30 29
f 24 29 28
f 24 28 27
f 24 27 45
f 24 45 65
f 24 65 64
f 24 64 63
f 24 63 82
f 24 82 110
f 24 110 109
f 24 109 108
f 24 108 107
f 24 107 106
f 24 106 129
f 24 129 149
f 24 149 131
f 24 131 111
f 24 111 85
f 24 85 67
f 24 67 46
f 24 46 31
f 24 31 32
f 24 32 25
f 26 41 45
f 26 45 27
f 33 47 48
f 33 48 34
f 34 48 49
f 34 49 50
f 34 50 51
f 34 51 52
f 34 52 35
f 35 52 36
f 36 52 37
f 37 52 53
f 37 53 38
f 38 54 55
f 38 55 39
f 38 53 54
f 39 55 56
f 40 56 57
f 40 57 42
f 41 44 65
f 41 65 45
f 42 57 58
f 42 58 59
f 42 59 60
f 42 60 61
f 42 61 43
f 43 61 44
f 44 61 60
f 44 60 62
f 44 62 63
f 44 63 64
f 44 64 65
f 46 67 66
f 47 68 69
f 47 69 70
f 47 70 48
f 48 70 71
f 48 71 49
f 49 71 50
f 50 71 72
f 50 72 54
f 50 54 53
f 50 53 52
f 50 52 51
f 54 72 73
f 54 73 55
f 55 73 74
f 55 74 75
f 55 75 57
f 55 57 56
f 57 75 76
f 57 76 77
f 57 77 58
f 58 77 59
f 59 77 78
f 59 78 79
f 59 79 60
f 60 79 80
f 60 80 81
f 60 81 62
f 62 81 82
f 62 82 63
f 66 67 84
f 66 84 83
f 67 85 86
f 67 86 84
f 68 83 87
f 68 87 88
f 68 88 89
f 68 89 90
f 68 90 69
f 69 91 70
f 69 90 113
f 69 113 136
f 69 136 116
f 69 116 115
f 69 115 114
f 69 114 91
f 70 91 71
f 71 91 72
f 72 91 114
f 72 114 92
f 72 92 73
f 73 92 93
f 73 93 74
f 74 93 94
f 74 94 95
f 74 95 96
f 74 96 97
f 74 97 76
f 74 76 75
f 76 97 77
f 77 97 98
f 77 98 78
f 78 98 79
f 79 99 100
f 79 100 80
f 79 98 101
f 79 101 102
f 79 102 103
f 79 103 104
f 79 104 99
f 80 100 81
f 81 100 99
f 81 99 104
f 81 104 103
f 81 103 102
f 81 102 105
f 81 105 106
f 81 106 107
f 81 107 108
f 81 108 109
f 81 109 110
f 81 110 82
f 83 84 88
f 83 88 87
f 84 86 85
f 84 85 111
f 84 111 130
f 84 130 150
f 84 150 154
f 84 154 155
f 84 155 151
f 84 151 133
f 84 133 112
f 84 112 90
f 84 90 88
f 88 90 89
f 90 112 113
f 92 114 115
f 92 115 93
f 93 115 116
f 93 116 94
f 94 116 117
f 94 117 95
f 95 118 96
f 95 117 119
f 95 119 120
f 95 120 121
f 95 121 122
f 95 122 118
f 96 118 123
f 96 123 97
f 97 123 98
f 98 123 124
f 98 124 101
f 101 124 125
f 101 125 126
f 101 126 127
f 101 127 102
f 102 127 105
f 105 127 128
f 105 128 129
f 105 129 106
f 111 131 132
f 111 132 130
f 112 133 134
f 112 134 135
f 112 135 113
f 113 135 136
f 116 136 137
f 116 137 117
f 117 137 135
f 117 135 138
f 117 138 139
f 117 139 119
f 118 140 123
f 118 122 141
f 118 141 142
f 118 142 140
f 119 139 120
f 120 135 134
f 120 134 133
f 120 133 143
f 120 143 141
f 120 141 122
f 120 122 121
f 120 139 138
f 120 138 135
f 123 140 144
f 123 144 125
f 123 125 145
f 123 145 124
f 124 145 125
f 125 144 126
f 126 144 146
f 126 146 147
f 126 147 127
f 127 147 128
f 128 147 148
f 128 148 149
f 128 149 129
f 130 132 150
f 131 149 148
f 131 148 132
f 132 148 150
f 133 151 143
f 135 137 136
f 140 142 144
f 141 144 142
f 141 143 144
f 143 151 152
f 143 152 146
f 143 146 144
f 146 152 153
f 146 153 147
f 147 153 148
f 148 153 154
f 148 154 150
f 151 155 152
f 152 155 154
f 152 154 153

