# https://github.com/mikedh/trimesh
v -0.30500486 -0.10979261 -0.46543902
v -0.30110672 -0.11500040 -0.46543902
v -0.32150805 -0.10979261 -0.49499851
v -0.35576054 -0.10979261 -0.46543902
v -0.20064974 -0.25090024 -0.46543902
v -0.32262635 -0.10979261 -0.49695531
v -0.36192727 -0.10979261 -0.47701889
v -0.36140007 -0.11500040 -0.47778749
v -0.35453039 -0.11500040 -0.46543902
v -0.27080026 -0.25090024 -0.46543902
v -0.22832014 -0.25090024 -0.50083750
v -0.32606119 -0.10979261 -0.50223744
v -0.36386037 -0.10979261 -0.48500288
v -0.36053735 -0.12110608 -0.47912076
v -0.35437065 -0.11547007 -0.46543902
v -0.27536941 -0.24675611 -0.46543902
v -0.28096101 -0.25090024 -0.47885412
v -0.23023726 -0.25090024 -0.50173157
v -0.33011910 -0.10979261 -0.50369620
v -0.36322135 -0.10979261 -0.48984188
v -0.36140007 -0.11526286 -0.49539852
v -0.36282194 -0.11500040 -0.48500288
v -0.36080897 -0.12165863 -0.48500288
v -0.35828474 -0.12665921 -0.48500288
v -0.35048848 -0.14098409 -0.47921488
v -0.35157484 -0.12280518 -0.46543902
v -0.28676027 -0.23534593 -0.46543902
v -0.30091500 -0.23092553 -0.47886980
v -0.29093000 -0.24092670 -0.47886980
v -0.28190359 -0.25090024 -0.48500288
v -0.23910393 -0.25090024 -0.50451970
v -0.33499178 -0.10979261 -0.50506866
v -0.36250240 -0.10979261 -0.49518284
v -0.36053735 -0.12110608 -0.49233198
v -0.36144799 -0.10979261 -0.49869642
v -0.35964271 -0.11877155 -0.49899834
v -0.35074410 -0.14146757 -0.48500288
v -0.31022900 -0.22037181 -0.47960311
v -0.32029387 -0.20059049 -0.47950506
v -0.34042361 -0.16086210 -0.47930899
v -0.35048848 -0.14098409 -0.49211630
v -0.34042361 -0.16086210 -0.49188885
v -0.32029387 -0.20059049 -0.49140260
v -0.34147802 -0.14261411 -0.46543902
v -0.29535535 -0.22665708 -0.46543902
v -0.30057952 -0.22067572 -0.46543902
v -0.30139428 -0.23139520 -0.48500288
v -0.29666540 -0.22523426 -0.46543902
v -0.28097698 -0.25090024 -0.49282998
v -0.24910489 -0.25090024 -0.50549608
v -0.33499178 -0.11500040 -0.50534320
v -0.34021592 -0.10979261 -0.50542551
v -0.35783744 -0.12467003 -0.49539852
v -0.34959382 -0.13921593 -0.49878266
v -0.36064920 -0.10979261 -0.50068849
v -0.36045748 -0.11211332 -0.50049633
v -0.35314047 -0.12500156 -0.50215507
v -0.35120738 -0.13254388 -0.50103748
v -0.33364978 -0.17500740 -0.48500288
v -0.31022900 -0.22037181 -0.49113986
v -0.31326443 -0.21499826 -0.48500288
v -0.31035680 -0.22055140 -0.48500288
v -0.30639476 -0.22555198 -0.48500288
v -0.30334336 -0.21664210 -0.46543902
v -0.30383861 -0.21574420 -0.46543902
v -0.30869532 -0.20677906 -0.46543902
v -0.31115562 -0.20199950 -0.46543902
v -0.31452653 -0.19542415 -0.46543902
v -0.33952895 -0.15909395 -0.49855524
v -0.32946408 -0.17897195 -0.49831995
v -0.31939921 -0.19882233 -0.49806899
v -0.30928642 -0.21870035 -0.49781016
v -0.30091500 -0.23092553 -0.49288487
v -0.29093000 -0.24092670 -0.49288487
v -0.28096101 -0.25090024 -0.49290058
v -0.25910586 -0.25090024 -0.50539023
v -0.27500194 -0.22499943 -0.50549608
v -0.34499273 -0.10979261 -0.50549608
v -0.34114254 -0.15242189 -0.50099432
v -0.33107767 -0.17229991 -0.50094730
v -0.31094792 -0.21204211 -0.50085711
v -0.35860428 -0.10979261 -0.50174332
v -0.35577652 -0.11526286 -0.50249624
v -0.34499273 -0.12500156 -0.50490397
v -0.33499178 -0.14500390 -0.50486869
v -0.32499081 -0.16500624 -0.50482553
v -0.31498984 -0.18499476 -0.50477850
v -0.30498886 -0.20499709 -0.50472754
v -0.34305963 -0.14500390 -0.50211978
v -0.33296281 -0.16500624 -0.50207663
v -0.31276917 -0.20499709 -0.50197864
v -0.30510071 -0.22508231 -0.49534753
v -0.30262443 -0.22312075 -0.50168842
v -0.29978070 -0.22979280 -0.49955127
v -0.27981073 -0.24979514 -0.49955127
v -0.27893203 -0.25090024 -0.49888855
v -0.27086419 -0.25090024 -0.50312757
v -0.29498792 -0.21499826 -0.50539023
v -0.29498792 -0.20499709 -0.50549608
v -0.34499273 -0.11500040 -0.50549608
v -0.35021687 -0.10979261 -0.50462949
v -0.30557999 -0.21521927 -0.50262564
v -0.35536116 -0.10979261 -0.50320995
v -0.33499178 -0.13500273 -0.50549608
v -0.32499081 -0.15500507 -0.50548828
v -0.30498886 -0.19499592 -0.50546080
v -0.32286599 -0.18499476 -0.50202960
v -0.29586658 -0.22586969 -0.50312757
v -0.29311872 -0.23312192 -0.50168842
v -0.28311777 -0.24312308 -0.50168842
v -0.27759007 -0.25090024 -0.50025713
v -0.27397949 -0.25090024 -0.50213158
f 1 2 3
f 1 3 6
f 1 6 12
f 1 12 19
f 1 19 32
f 1 32 52
f 1 52 78
f 1 78 101
f 1 101 103
f 1 103 82
f 1 82 55
f 1 55 35
f 1 35 33
f 1 33 20
f 1 20 13
f 1 13 7
f 1 7 4
f 1 4 9
f 1 9 15
f 1 15 26
f 1 26 44
f 1 44 68
f 1 68 67
f 1 67 66
f 1 66 65
f 1 65 64
f 1 64 46
f 1 46 48
f 1 48 45
f 1 45 27
f 1 27 16
f 1 16 10
f 1 10 5
f 1 5 2
f 2 5 3
f 3 5 6
f 4 7 8
f 4 8 9
f 5 10 17
f 5 17 30
f 5 30 49
f 5 49 75
f 5 75 96
f 5 96 111
f 5 111 112
f 5 112 97
f 5 97 76
f 5 76 50
f 5 50 31
f 5 31 18
f 5 18 11
f 5 11 12
f 5 12 6
f 7 13 8
f 8 14 9
f 8 13 14
f 9 14 15
f 10 16 17
f 11 18 12
f 12 18 19
f 13 20 21
f 13 21 22
f 13 22 14
f 14 22 23
f 14 23 24
f 14 24 25
f 14 25 26
f 14 26 15
f 16 27 28
f 16 28 29
f 16 29 17
f 17 29 30
f 18 31 19
f 19 31 32
f 20 33 21
f 21 34 22
f 21 33 35
f 21 35 36
f 21 36 34
f 22 34 23
f 23 34 24
f 24 37 38
f 24 38 39
f 24 39 40
f 24 40 25
f 24 34 41
f 24 41 42
f 24 42 43
f 24 43 37
f 25 40 26
f 26 40 39
f 26 39 44
f 27 45 28
f 28 46 38
f 28 38 47
f 28 47 29
f 28 45 48
f 28 48 46
f 29 47 30
f 30 47 49
f 31 50 32
f 32 51 52
f 32 50 51
f 34 36 53
f 34 53 54
f 34 54 41
f 35 55 56
f 35 56 36
f 36 56 57
f 36 57 58
f 36 58 54
f 36 54 53
f 37 59 38
f 37 43 60
f 37 60 59
f 38 61 62
f 38 62 63
f 38 63 47
f 38 46 64
f 38 64 65
f 38 65 66
f 38 66 67
f 38 67 68
f 38 68 39
f 38 59 61
f 39 68 44
f 41 54 69
f 41 69 42
f 42 69 70
f 42 70 43
f 43 71 72
f 43 72 60
f 43 70 71
f 47 73 74
f 47 74 49
f 47 63 60
f 47 60 73
f 49 74 75
f 50 76 77
f 50 77 99
f 50 99 104
f 50 104 100
f 50 100 78
f 50 78 52
f 50 52 51
f 54 58 79
f 54 79 80
f 54 80 81
f 54 81 69
f 55 82 56
f 56 82 83
f 56 83 57
f 57 84 85
f 57 85 86
f 57 86 87
f 57 87 88
f 57 88 89
f 57 89 58
f 57 83 84
f 58 89 90
f 58 90 91
f 58 91 79
f 59 60 61
f 60 72 92
f 60 92 73
f 60 63 62
f 60 62 61
f 69 81 70
f 70 81 71
f 71 81 72
f 72 93 94
f 72 94 92
f 72 81 93
f 73 92 94
f 73 94 95
f 73 95 74
f 74 95 96
f 74 96 75
f 76 97 98
f 76 98 77
f 77 98 99
f 78 100 101
f 79 91 80
f 80 91 81
f 81 91 102
f 81 102 93
f 82 103 83
f 83 103 84
f 84 103 101
f 84 101 100
f 84 100 104
f 84 104 105
f 84 105 106
f 84 106 85
f 85 106 86
f 86 106 87
f 87 106 88
f 88 102 91
f 88 91 107
f 88 107 90
f 88 90 89
f 88 106 98
f 88 98 108
f 88 108 102
f 90 107 91
f 93 102 108
f 93 108 109
f 93 109 94
f 94 109 95
f 95 109 110
f 95 110 111
f 95 111 96
f 97 112 108
f 97 108 98
f 98 106 99
f 99 106 105
f 99 105 104
f 108 112 109
f 109 112 110
f 110 112 111

