# https://github.com/mikedh/trimesh
v 0.29957393 -0.11277620 -0.46542174
v 0.35500708 -0.11277620 -0.46542174
v 0.29957393 -0.10955498 -0.46542174
v 0.32526594 -0.11277620 -0.50234193
v 0.36162856 -0.11277620 -0.47746170
v 0.35684109 -0.10499339 -0.46542174
v 0.30494100 0.10808269 -0.46542174
v 0.32431322 0.10808269 -0.49877194
v 0.32653627 0.10808269 -0.50217718
v 0.33500764 -0.11277620 -0.50522542
v 0.33186361 0.10808269 -0.50409555
v 0.36216050 -0.11277620 -0.47939184
v 0.37011582 -0.07072740 -0.47978809
v 0.36239868 -0.10499339 -0.47631222
v 0.36173972 -0.07502957 -0.46542174
v 0.35615829 0.10808269 -0.46542174
v 0.34499544 -0.11277620 -0.50549608
v 0.33500764 0.10808269 -0.50497824
v 0.34191495 0.10808269 -0.50544906
v 0.36326408 -0.11277620 -0.48500186
v 0.36480433 -0.10499339 -0.48500186
v 0.37017140 -0.07109492 -0.48500186
v 0.37992102 -0.00950262 -0.48500186
v 0.38045296 -0.00299532 -0.47919571
v 0.36489168 -0.05498882 -0.46542174
v 0.36209700 0.10808269 -0.47676730
v 0.35675377 0.10553166 -0.46542174
v 0.35499913 -0.06499838 -0.50549608
v 0.35499913 -0.07498632 -0.50534701
v 0.35499913 -0.08499589 -0.50497043
v 0.35499913 -0.09498382 -0.50446039
v 0.35499913 -0.10499339 -0.50383270
v 0.35559461 -0.11277620 -0.50282055
v 0.34499544 0.10808269 -0.50549608
v 0.36190644 -0.11277620 -0.49529999
v 0.36347052 -0.10499339 -0.49499792
v 0.37011582 -0.07072740 -0.49063152
v 0.38045296 -0.00299532 -0.49216151
v 0.38068321 -0.00450865 -0.48500186
v 0.38045296 0.00299312 -0.47919571
v 0.37274379 -0.00502750 -0.46542174
v 0.36480433 0.10499118 -0.48500186
v 0.36419299 0.10808269 -0.48500186
v 0.35684901 0.10499118 -0.46542174
v 0.37011582 0.07072520 -0.47978416
v 0.36499488 -0.00498426 -0.50546080
v 0.35499913 0.06499618 -0.50549608
v 0.36499488 -0.01499382 -0.50524503
v 0.36499488 -0.02498176 -0.50482523
v 0.36352611 -0.07498632 -0.50259697
v 0.36267656 -0.08499589 -0.50222033
v 0.36185086 -0.09498382 -0.50171030
v 0.36106485 -0.10499339 -0.50108266
v 0.35946903 -0.11277620 -0.50092179
v 0.35191068 0.10808269 -0.50434667
v 0.35499913 0.08499368 -0.50497043
v 0.35499913 0.07498413 -0.50534701
v 0.36065996 -0.11277620 -0.49941140
v 0.36046147 -0.11208439 -0.50049418
v 0.36979824 -0.05892347 -0.49947807
v 0.36932188 -0.06499838 -0.49758324
v 0.37056836 -0.06499838 -0.49258128
v 0.38045296 0.00299312 -0.49216151
v 0.37920648 -0.00578416 -0.49529606
v 0.38068321 0.00450644 -0.48500186
v 0.36482817 0.05546224 -0.46542174
v 0.37274379 0.00502530 -0.46542174
v 0.37992102 0.00950041 -0.48500186
v 0.37430784 0.04499868 -0.48500186
v 0.37011582 0.07072520 -0.49063542
v 0.36347052 0.10499118 -0.49499792
v 0.36378810 0.10808269 -0.48812073
v 0.36173972 0.07502736 -0.46542174
v 0.37404585 -0.00498426 -0.50271070
v 0.36499488 0.00498206 -0.50546080
v 0.37325984 -0.01499382 -0.50249493
v 0.37241825 -0.02498176 -0.50207520
v 0.37160051 -0.03499132 -0.50152594
v 0.37083036 -0.04497926 -0.50086689
v 0.37030637 -0.05226484 -0.50034118
v 0.35523731 0.10808269 -0.50343257
v 0.35499913 0.10499118 -0.50383663
v 0.35499913 0.09498163 -0.50446039
v 0.36499488 0.02497956 -0.50482523
v 0.36499488 0.01499162 -0.50524503
v 0.37920648 0.00580358 -0.49529606
v 0.36979824 0.05892127 -0.49947807
v 0.36932188 0.06499618 -0.49758714
v 0.37056836 0.06499618 -0.49258915
v 0.36216846 0.10808269 -0.49738315
v 0.36285123 0.10808269 -0.49511954
v 0.37404585 0.00498206 -0.50271070
v 0.35948491 0.10808269 -0.50151026
v 0.36185086 0.09498163 -0.50171030
v 0.36268452 0.08499368 -0.50222033
v 0.36352611 0.07498413 -0.50259697
v 0.37325984 0.01499162 -0.50249493
v 0.37241825 0.02497956 -0.50207520
v 0.37160051 0.03498912 -0.50152594
v 0.37030637 0.05226264 -0.50034118
v 0.36080286 0.10808269 -0.50083154
v 0.36106485 0.10499118 -0.50108653
v 0.37083036 0.04499868 -0.50086689
f 1 2 6
f 1 6 15
f 1 15 25
f 1 25 41
f 1 41 67
f 1 67 66
f 1 66 73
f 1 73 44
f 1 44 27
f 1 27 16
f 1 16 7
f 1 7 3
f 1 3 4
f 1 4 10
f 1 10 17
f 1 17 33
f 1 33 54
f 1 54 58
f 1 58 35
f 1 35 20
f 1 20 12
f 1 12 5
f 1 5 2
f 2 5 6
f 3 7 8
f 3 8 9
f 3 9 4
f 4 9 11
f 4 11 10
f 5 12 13
f 5 13 14
f 5 14 6
f 6 14 13
f 6 13 15
f 7 16 26
f 7 26 43
f 7 43 72
f 7 72 91
f 7 91 90
f 7 90 101
f 7 101 93
f 7 93 81
f 7 81 55
f 7 55 34
f 7 34 19
f 7 19 18
f 7 18 11
f 7 11 9
f 7 9 8
f 10 11 18
f 10 18 19
f 10 19 17
f 12 20 21
f 12 21 13
f 13 21 22
f 13 22 23
f 13 23 24
f 13 24 15
f 15 24 25
f 16 27 26
f 17 28 29
f 17 29 30
f 17 30 31
f 17 31 32
f 17 32 33
f 17 19 34
f 17 34 47
f 17 47 28
f 20 35 21
f 21 35 36
f 21 36 37
f 21 37 22
f 22 37 23
f 23 37 38
f 23 38 39
f 23 39 24
f 24 39 65
f 24 65 40
f 24 40 67
f 24 67 41
f 24 41 25
f 26 42 43
f 26 27 44
f 26 44 45
f 26 45 42
f 28 46 29
f 28 47 75
f 28 75 46
f 29 46 48
f 29 48 30
f 30 48 49
f 30 49 31
f 31 49 50
f 31 50 32
f 32 50 51
f 32 51 52
f 32 52 33
f 33 52 53
f 33 53 54
f 34 55 56
f 34 56 57
f 34 57 47
f 35 58 36
f 36 58 59
f 36 59 60
f 36 60 61
f 36 61 62
f 36 62 37
f 37 62 38
f 38 63 65
f 38 65 39
f 38 62 61
f 38 61 60
f 38 60 64
f 38 64 86
f 38 86 63
f 40 66 67
f 40 65 68
f 40 68 45
f 40 45 66
f 42 69 70
f 42 70 71
f 42 71 72
f 42 72 43
f 42 45 69
f 44 73 45
f 45 73 66
f 45 68 69
f 46 74 48
f 46 75 92
f 46 92 74
f 47 57 75
f 48 74 49
f 49 74 76
f 49 76 50
f 50 76 51
f 51 76 77
f 51 77 52
f 52 77 78
f 52 78 53
f 53 59 54
f 53 78 79
f 53 79 80
f 53 80 59
f 54 59 58
f 55 81 82
f 55 82 83
f 55 83 56
f 56 83 84
f 56 84 85
f 56 85 57
f 57 85 75
f 59 80 60
f 60 80 64
f 63 68 65
f 63 86 87
f 63 87 88
f 63 88 89
f 63 89 70
f 63 70 68
f 64 80 78
f 64 78 77
f 64 77 76
f 64 76 74
f 64 74 92
f 64 92 86
f 68 70 69
f 70 89 71
f 71 90 91
f 71 91 72
f 71 89 88
f 71 88 87
f 71 87 90
f 75 85 92
f 78 80 79
f 81 93 94
f 81 94 82
f 82 94 95
f 82 95 96
f 82 96 83
f 83 96 84
f 84 97 92
f 84 92 85
f 84 96 97
f 86 92 97
f 86 97 98
f 86 98 99
f 86 99 100
f 86 100 87
f 87 100 101
f 87 101 90
f 93 101 102
f 93 102 94
f 94 102 99
f 94 99 98
f 94 98 95
f 95 98 97
f 95 97 96
f 99 103 100
f 99 102 103
f 100 103 102
f 100 102 101

