# https://github.com/mikedh/trimesh
v -0.37272334 -0.00506308 0.46541208
v -0.37272334 0.00496655 0.46541208
v -0.37110105 -0.00498933 0.45238221
v -0.36549678 -0.10027076 0.48499331
v -0.36490685 -0.10027076 0.48971963
v -0.36416945 -0.10027076 0.49499708
v -0.36166227 0.07495268 0.46541208
v -0.37014243 0.01108757 0.45238221
v -0.37110105 0.00496655 0.45238221
v -0.36136732 -0.10027076 0.50137687
v -0.37014243 -0.01118410 0.45238221
v -0.36136732 -0.11494646 0.47779202
v -0.36468562 -0.10499059 0.48499331
v -0.36343205 -0.10499059 0.49499708
v -0.36033493 -0.11207031 0.50049293
v -0.36099860 -0.10499059 0.50107527
v -0.35664791 0.10541029 0.46541208
v -0.35568929 0.10231290 0.45238221
v -0.36321083 0.05489343 0.45238221
v -0.35568929 -0.11516770 0.50248951
v -0.35495189 -0.10499059 0.50382578
v -0.35495189 -0.10027076 0.50412738
v -0.35148609 0.12266713 0.46541208
v -0.35450944 0.11492368 0.46541208
v -0.36321083 -0.05498996 0.45238221
v -0.36048242 -0.12106748 0.47911790
v -0.35524684 -0.10491683 0.45238221
v -0.36276838 -0.11494646 0.48499331
v -0.36136732 -0.11516770 0.49539745
v -0.35959753 -0.11870757 0.49899548
v -0.35310838 -0.12490234 0.50214636
v -0.35524684 0.10489405 0.45238221
v -0.34484944 -0.12490234 0.50489688
v -0.34484944 -0.11494646 0.50550002
v -0.34484944 -0.10027076 0.50550002
v -0.22656970 0.29530942 0.46540689
v -0.26528347 0.25673962 0.46540689
v -0.28526711 0.23668036 0.46540689
v -0.29529583 0.22657700 0.46540689
v -0.29654941 0.22524954 0.46540689
v -0.30053142 0.22067721 0.46540689
v -0.30325979 0.21662112 0.46540689
v -0.30377600 0.21573615 0.46540689
v -0.30856910 0.20673898 0.46540689
v -0.31107628 0.20194541 0.46540689
v -0.33128119 0.16249064 0.46540689
v -0.34145737 0.14250514 0.46541208
v -0.34986380 0.12237215 0.45238221
v -0.35052747 0.12104470 0.45238221
v -0.35273966 0.11492368 0.45238221
v -0.35052747 -0.12106748 0.45238221
v -0.34802029 -0.12608230 0.45238221
v -0.34042501 -0.16081724 0.47930509
v -0.35827020 -0.12659852 0.48499331
v -0.36077738 -0.12158372 0.48499331
v -0.35273966 -0.11487272 0.45238221
v -0.36048242 -0.12106748 0.49232456
v -0.35111737 -0.13249831 0.50102848
v -0.34949508 -0.13920930 0.49877191
v -0.33290347 -0.16494709 0.50207359
v -0.34300593 -0.14488783 0.50212038
v -0.30495584 -0.20491809 0.50472009
v -0.32493952 -0.16494709 0.50482410
v -0.33496821 -0.14488783 0.50487089
v -0.33496821 -0.13493197 0.50550002
v 0.33481660 0.13490918 0.50549483
v 0.32486165 0.14486505 0.50549483
v 0.31498042 0.16249064 0.50544804
v -0.12266935 0.35150480 0.46540689
v -0.16234174 0.33129805 0.46540689
v -0.19530374 0.31448370 0.46540689
v -0.20194037 0.31109130 0.46540689
v -0.20665976 0.30865765 0.46540689
v -0.21565610 0.30379033 0.46540689
v -0.21654099 0.30327410 0.46540689
v -0.22059672 0.30054545 0.46540689
v -0.22516863 0.29663688 0.46540689
v -0.16499640 -0.31494898 0.50550002
v -0.21956435 0.29973423 0.45238221
v -0.22472619 0.29471946 0.45238221
v -0.29337859 0.22606076 0.45238221
v -0.29964653 0.21964476 0.45238221
v -0.30259615 0.21462993 0.45238221
v -0.30761048 0.20541154 0.45238221
v -0.30753675 -0.20528683 0.45238221
v -0.33032256 -0.18072900 0.47939867
v -0.31786042 -0.20587680 0.48499331
v -0.33032256 -0.18072900 0.49165383
v -0.34042501 -0.16081724 0.49188781
v -0.31092882 -0.21199782 0.50085169
v -0.31933522 -0.19879706 0.49806997
v -0.31262484 -0.20491809 0.50196958
v -0.30495584 -0.19496222 0.50545323
v -0.30547202 -0.21516895 0.50261950
v -0.29573828 -0.22578856 0.50312388
v -0.29485339 -0.21494772 0.50538564
v -0.29485339 -0.20491809 0.50550002
v 0.34491906 0.12487955 0.50489169
v 0.32486165 0.15482093 0.50546885
v 0.34491906 0.11484993 0.50549483
v 0.32486165 0.16249064 0.50498009
v 0.10496752 0.35681462 0.46540689
v 0.07495514 0.36168194 0.46540689
v 0.00497542 0.37274402 0.46540689
v 0.00445924 0.37274402 0.46540689
v -0.00497954 0.37267029 0.46540689
v -0.05541803 0.36477929 0.46540689
v -0.07495926 0.36168194 0.46540689
v -0.10548782 0.35674089 0.46540689
v -0.11492661 0.35445470 0.46540689
v -0.12104706 0.35054612 0.45238221
v -0.20533244 0.30762523 0.45238221
v -0.21455000 0.30261040 0.45238221
v -0.20496374 -0.29488969 0.50550002
v -0.11492661 -0.34496409 0.50549483
v -0.06470934 -0.35491997 0.50549483
v 0.06492644 -0.35491997 0.50549483
v 0.11492249 -0.34496409 0.50549483
v 0.13490616 -0.33486074 0.50549483
v 0.20481214 -0.29496348 0.50549483
v 0.28496805 -0.21494772 0.50549483
v 0.29484928 -0.20491809 0.50549483
v 0.33481660 -0.13478446 0.50549483
v 0.34491906 -0.11487272 0.50549483
v 0.35480028 -0.06487209 0.50549483
v 0.35480028 0.06484930 0.50549483
v -0.30259615 -0.21457897 0.45238221
v -0.31011766 -0.22033127 0.47959626
v -0.31321478 -0.21494772 0.48499331
v -0.31011766 -0.22033127 0.49113908
v -0.30915904 -0.21863507 0.49779961
v -0.30259615 -0.22305991 0.50168359
v -0.29300988 -0.23308954 0.50168359
v -0.23586100 -0.28581882 0.50312388
v -0.21499245 -0.29488969 0.50538564
v -0.23497611 -0.26494837 0.50550002
v 0.35310426 0.12487955 0.50214118
v 0.33363676 0.16249064 0.50225037
v 0.33481660 0.14486505 0.50485528
v 0.35480028 0.09493817 0.50444454
v 0.35480028 0.10489405 0.50382060
v 0.35568517 0.11514492 0.50247914
v 0.35480028 0.07487892 0.50533366
v 0.35480028 0.08483481 0.50495410
v 0.21565199 0.30379033 0.46540689
v 0.20695060 0.30843645 0.46540689
v 0.20193626 0.31109130 0.46540689
v 0.14257516 0.34140146 0.46540689
v 0.12273898 0.35150480 0.46540689
v 0.11492249 0.35445470 0.46540689
v 0.10496752 0.35526592 0.45238221
v 0.05489773 0.36323065 0.45238221
v 0.01611024 0.36935163 0.45238221
v 0.00490168 0.37104785 0.45238221
v -0.00497954 0.37104785 0.45238221
v -0.01242733 0.36994159 0.45238221
v -0.05497559 0.36323065 0.45238221
v -0.10231698 0.35570842 0.45238221
v -0.10497164 0.35526592 0.45238221
v -0.11492661 0.35275853 0.45238221
v -0.19500877 -0.30491936 0.50545323
v -0.15489395 -0.32475734 0.50548965
v -0.13483654 -0.33486074 0.50549483
v -0.12480783 -0.34496409 0.50489169
v -0.09486920 -0.35491997 0.50444973
v -0.08491423 -0.35491997 0.50495929
v -0.07488552 -0.35491997 0.50532323
v -0.17495136 -0.31494898 0.50546885
v -0.00483206 -0.36487585 0.50544804
v 0.07495514 -0.35491997 0.50532323
v 0.00497542 -0.36487585 0.50544804
v 0.08491011 -0.35491997 0.50495929
v 0.09493881 -0.35491997 0.50444973
v 0.12487745 -0.34496409 0.50489169
v 0.19493091 -0.30491936 0.50544804
v 0.15481609 -0.32475734 0.50548965
v 0.21484084 -0.29496348 0.50537002
v 0.25067872 -0.25897479 0.50538045
v 0.29484928 -0.21494772 0.50538045
v 0.30495173 -0.19488846 0.50544804
v 0.32486165 -0.15484372 0.50548965
v 0.34491906 -0.12490234 0.50489169
v 0.35480028 -0.09488721 0.50444454
v 0.35480028 -0.08485759 0.50495410
v 0.35480028 -0.07497546 0.50533366
v 0.36490273 -0.00498933 0.50544804
v 0.36490273 0.00496655 0.50544804
v -0.29972026 -0.21959379 0.45238221
v -0.30635691 -0.22549357 0.48499331
v -0.31033888 -0.22047876 0.48499331
v -0.30090010 -0.23087712 0.47887871
v -0.30134255 -0.23131961 0.48499331
v -0.30090010 -0.23087712 0.49288091
v -0.30502957 -0.22497734 0.49534026
v -0.29972026 -0.22969715 0.49954143
v -0.23976925 -0.28972739 0.49954143
v -0.22974055 -0.29975706 0.49954143
v -0.23298512 -0.29304606 0.50168359
v -0.22583230 -0.29584843 0.50312388
v -0.20496374 -0.30491936 0.50472009
v 0.35111326 0.13240176 0.50102329
v 0.34300181 0.14486505 0.50210476
v 0.36033082 0.11197378 0.50047731
v 0.35959342 0.11868478 0.49898508
v 0.34101081 0.15223978 0.50097650
v 0.33938852 0.15895078 0.49853793
v 0.33828241 0.16249064 0.49636975
v 0.22575444 0.29589939 0.46540689
v 0.22324726 0.29796433 0.46540689
v 0.21771672 0.30231541 0.46540689
v 0.36490273 0.02495205 0.50480849
v 0.36335418 0.07487892 0.50257790
v 0.36261678 0.08483481 0.50220877
v 0.36173189 0.09493817 0.50169402
v 0.36099449 0.10489405 0.50107008
v 0.36490273 0.01499617 0.50522447
v 0.21963397 0.29973423 0.45238221
v 0.21461962 0.30261040 0.45238221
v 0.20532832 0.30762523 0.45238221
v 0.12111668 0.35054612 0.45238221
v 0.11654478 0.35224229 0.45238221
v 0.11492249 0.35275853 0.45238221
v 0.11271027 0.35334849 0.45238221
v -0.18498006 -0.31494898 0.50477731
v -0.16499640 -0.32497859 0.50482410
v -0.12480783 -0.35307628 0.50212556
v -0.11514783 -0.35565746 0.50247914
v -0.10489790 -0.35491997 0.50382060
v -0.07488552 -0.36347467 0.50257790
v -0.01486077 -0.37320930 0.50247914
v -0.02474199 -0.36487585 0.50480849
v -0.01486077 -0.36487585 0.50522965
v -0.00483206 -0.37394673 0.50269753
v 0.01493039 -0.36487585 0.50522965
v 0.00497542 -0.37394673 0.50269753
v 0.02495909 -0.36487585 0.50480849
v 0.10496752 -0.35491997 0.50382060
v 0.01493039 -0.37320930 0.50247914
v 0.07495514 -0.36347467 0.50257790
v 0.11521745 -0.35565746 0.50247914
v 0.12487745 -0.35307628 0.50213075
v 0.14493486 -0.34297293 0.50210476
v 0.20481214 -0.30491936 0.50470972
v 0.14493486 -0.33486074 0.50485528
v 0.22575444 -0.29584843 0.50310826
v 0.29580790 -0.22578856 0.50310826
v 0.30495173 -0.20491809 0.50471491
v 0.33481660 -0.14488783 0.50486571
v 0.35310426 -0.12490234 0.50214118
v 0.35575891 -0.11516770 0.50247914
v 0.35480028 -0.10491683 0.50382060
v 0.36335418 -0.07497546 0.50257790
v 0.36490273 -0.02497483 0.50480849
v 0.36490273 -0.01494521 0.50522447
v 0.37397280 -0.00498933 0.50269753
v 0.37397280 0.00496655 0.50269753
v -0.25473857 -0.26472712 0.45238221
v -0.23092039 -0.30086327 0.47887871
v -0.23136283 -0.30137950 0.48499331
v -0.23092039 -0.30086327 0.49288091
v -0.22502115 -0.30499309 0.49534026
v -0.21867947 -0.30919671 0.49779961
v -0.22310390 -0.30255944 0.50168359
v -0.21513993 -0.30550933 0.50261950
v -0.20496374 -0.31273657 0.50196958
v -0.16499640 -0.33286953 0.50207359
v 0.34949097 0.13911277 0.49876150
v 0.37021205 0.05216478 0.50033176
v 0.36969587 0.05887578 0.49946344
v 0.36335418 0.10489405 0.49498150
v 0.36047831 0.12097095 0.49231416
v 0.36128944 0.11514492 0.49538705
v 0.35044959 0.14088270 0.49210098
v 0.34034714 0.16079445 0.49187741
v 0.33894607 0.16249064 0.49335405
v 0.30229706 0.21780106 0.46540689
v 0.29588163 0.22583953 0.46540689
v 0.28592667 0.23594289 0.46540689
v 0.23593062 0.28594351 0.46540689
v 0.37316167 0.01499617 0.50247914
v 0.37235051 0.02495205 0.50205797
v 0.37072822 0.04493755 0.50085169
v 0.26837644 0.25106108 0.45238221
v -0.13240311 -0.35108513 0.50102848
v -0.11861363 -0.35956603 0.49898508
v -0.11197699 -0.36037725 0.50047213
v -0.10489790 -0.36096722 0.50107527
v -0.09486920 -0.36177844 0.50169402
v -0.08491423 -0.36258966 0.50219834
v -0.02474199 -0.37232429 0.50205797
v -0.05217345 -0.37025940 0.50033176
v -0.00571695 -0.37910908 0.49528307
v 0.00571283 -0.37910908 0.49528307
v 0.08491011 -0.36258966 0.50219834
v 0.09493881 -0.36177844 0.50169402
v 0.02495909 -0.37232429 0.50205797
v 0.10496752 -0.36096722 0.50107527
v 0.11204661 -0.36037725 0.50047213
v 0.13225150 -0.35108513 0.50102848
v 0.11860951 -0.35956603 0.49898508
v 0.21196496 -0.31089288 0.50084651
v 0.20481214 -0.31258905 0.50196439
v 0.21506207 -0.30550933 0.50261432
v 0.22302604 -0.30255944 0.50167322
v 0.23305474 -0.29297227 0.50167322
v 0.25296468 -0.27306056 0.50167841
v 0.30244455 -0.22305991 0.50167841
v 0.30546790 -0.21502146 0.50261432
v 0.29300576 -0.23301579 0.50167841
v 0.31269446 -0.20491809 0.50196439
v 0.33289936 -0.16494709 0.50206316
v 0.35111326 -0.13249831 0.50102848
v 0.35959342 -0.11863382 0.49898508
v 0.36033082 -0.11214407 0.50045133
v 0.36033082 -0.11199657 0.50047731
v 0.36099449 -0.10491683 0.50107008
v 0.36173189 -0.09488721 0.50169402
v 0.36261678 -0.08485759 0.50220877
v 0.37316167 -0.01494521 0.50247914
v 0.37913465 -0.00580055 0.49527267
v 0.37913465 0.00570402 0.49527267
v -0.21963809 -0.29968327 0.45238221
v -0.22030176 -0.31015539 0.47959626
v -0.22546358 -0.30632055 0.48499331
v -0.22030176 -0.31015539 0.49113908
v -0.20061305 -0.32018501 0.49139905
v -0.19876954 -0.31930006 0.49806997
v -0.21204282 -0.31089288 0.50085169
v -0.19213289 -0.32099622 0.50089848
v -0.17229670 -0.33102584 0.50094008
v 0.36925343 0.06484930 0.49756563
v 0.36475524 0.10489405 0.48499331
v 0.37006456 0.07060159 0.49061394
v 0.36269051 0.11484993 0.48499331
v 0.36077327 0.12156093 0.48499331
v 0.33997846 0.16249064 0.48499331
v 0.30377185 0.21573615 0.46540689
v 0.29964238 0.21964476 0.45238221
v 0.29470178 0.22473331 0.45238221
v -0.13911349 -0.34953642 0.49876150
v -0.12097333 -0.36045098 0.49231416
v -0.11514783 -0.36133599 0.49538705
v -0.10489790 -0.36340088 0.49498150
v -0.05881010 -0.36974317 0.49946344
v -0.00298855 -0.38036275 0.49214777
v 0.00305817 -0.38036275 0.49214777
v 0.05887972 -0.36974317 0.49946344
v 0.05216933 -0.37025940 0.50033176
v 0.10496752 -0.36340088 0.49498150
v 0.11521745 -0.36133599 0.49538705
v 0.13903563 -0.34953642 0.49876150
v 0.12096921 -0.36045098 0.49231416
v 0.21852787 -0.30919671 0.49779961
v 0.17892922 -0.32940340 0.49830395
v 0.22958894 -0.29968327 0.49953103
v 0.25067872 -0.27755910 0.50024855
v 0.29971614 -0.22969715 0.49954143
v 0.30922866 -0.21863507 0.49779961
v 0.31085095 -0.21192408 0.50084651
v 0.34949097 -0.13913555 0.49877191
v 0.36047831 -0.12106748 0.49231416
v 0.36128944 -0.11516770 0.49538705
v 0.36195311 -0.11214407 0.49526227
v 0.36335418 -0.10491683 0.49498150
v 0.36969587 -0.05889856 0.49946344
v 0.37021205 -0.05233506 0.50033176
v 0.37153938 -0.03493071 0.50151205
v 0.37235051 -0.02497483 0.50205797
v 0.38038823 -0.00307190 0.49214259
v 0.38038823 0.00290162 0.49214259
v -0.21455000 -0.30255944 0.45238221
v -0.22052298 -0.31030291 0.48499331
v -0.20776588 -0.30632055 0.45238221
v -0.20407885 -0.30823797 0.45238221
v -0.20061305 -0.32018501 0.47949746
v -0.17495136 -0.33360702 0.48499331
v -0.21499245 -0.31317902 0.48499331
v -0.12156326 -0.36074603 0.48498291
v -0.16079319 -0.34039176 0.49187741
v 0.38060945 0.00445032 0.48499331
v 0.37006456 0.07060159 0.47977823
v 0.36047831 0.12097095 0.47910750
v 0.35044959 0.14088270 0.47919589
v 0.34034714 0.16079445 0.47929469
v 0.33960974 0.16249064 0.48104170
v 0.30259201 0.21470369 0.45238221
v -0.11492661 -0.36273718 0.48498291
v -0.10489790 -0.36472833 0.48498291
v -0.07068232 -0.37003815 0.49061394
v -0.00446336 -0.38065773 0.48498291
v 0.00453298 -0.38065773 0.48498291
v 0.07067820 -0.37003815 0.49061394
v 0.10496752 -0.36472833 0.48498291
v 0.11492249 -0.36273718 0.48498291
v 0.12155913 -0.36074603 0.48498291
v 0.18062526 -0.33028841 0.49163303
v 0.22022390 -0.31015539 0.49111828
v 0.22486955 -0.30499309 0.49532986
v 0.23084253 -0.30078948 0.49287051
v 0.30089599 -0.23087712 0.49287051
v 0.31018728 -0.22025752 0.49112868
v 0.32021600 -0.20056701 0.49139386
v 0.32943356 -0.17888531 0.49830395
v 0.35826609 -0.12645103 0.48498291
v 0.36077327 -0.12143622 0.48498291
v 0.36269051 -0.11487272 0.48498291
v 0.36475524 -0.10491683 0.48499331
v 0.37006456 -0.07062437 0.49061394
v 0.36925343 -0.06487209 0.49756563
v 0.38060945 -0.00447310 0.48499331
v -0.16573380 -0.32778096 0.45238221
v -0.16079319 -0.34039176 0.47929469
v -0.12097333 -0.36045098 0.47909710
v 0.38038823 0.00290162 0.47918549
v 0.38038823 0.00312287 0.47936228
v 0.35524273 0.10489405 0.45238739
v 0.36128944 0.11484993 0.47780243
v 0.37006456 0.01108757 0.45238739
v 0.35044959 0.12104470 0.45238739
v 0.35273555 0.11484993 0.45238739
v 0.32943356 0.16249064 0.45238221
v 0.30827004 0.20408408 0.45238221
v -0.11492661 -0.36133599 0.47780243
v -0.07068232 -0.37003815 0.47976783
v -0.00298855 -0.38036275 0.47917509
v 0.00305817 -0.38036275 0.47917509
v 0.07067820 -0.37003815 0.47976783
v 0.11492249 -0.36133599 0.47780243
v 0.12096921 -0.36045098 0.47909710
v 0.18062526 -0.33028841 0.47938308
v 0.16624586 -0.33803183 0.48498291
v 0.22037138 -0.31030291 0.48498291
v 0.22545947 -0.30632055 0.48498291
v 0.21484084 -0.31317902 0.48498291
v 0.23128498 -0.30123198 0.48498291
v 0.30635279 -0.22549357 0.48498291
v 0.30133843 -0.23131961 0.48498291
v 0.31313691 -0.21494772 0.48498291
v 0.31026104 -0.22047876 0.48498291
v 0.31018728 -0.22025752 0.47958586
v 0.32021600 -0.20056701 0.47948706
v 0.36047831 -0.12106748 0.47910750
v 0.37006456 -0.07062437 0.47977823
v 0.38038823 -0.00307190 0.47918549
v -0.16248922 -0.32940340 0.45238221
v -0.12097333 -0.35049516 0.45238739
v -0.11492661 -0.35278130 0.45238739
v -0.10489790 -0.35514122 0.45238739
v 0.37094945 0.00496655 0.45238739
v 0.37094945 -0.00498933 0.45238739
v 0.36984333 -0.01251155 0.45238739
v 0.35524273 -0.10491683 0.45238739
v 0.35347295 -0.11199657 0.45238739
v 0.25067872 -0.26856196 0.45238739
v 0.21956024 -0.29968327 0.45238739
v -0.01095252 -0.37011188 0.45238739
v -0.05748277 -0.36273718 0.45238739
v -0.00483206 -0.37099689 0.45238739
v 0.00497542 -0.37099689 0.45238739
v 0.01109588 -0.37011188 0.45238739
v 0.10496752 -0.35514122 0.45238739
v 0.11492249 -0.35278130 0.45238739
v 0.12096921 -0.35049516 0.45238739
v 0.12229653 -0.34983140 0.45238739
v 0.20525458 -0.30757421 0.45238739
v 0.22022390 -0.31015539 0.47958586
v 0.23084253 -0.30078948 0.47888911
v 0.30089599 -0.23087712 0.47888911
v 0.29971614 -0.21959379 0.45239779
v 0.30760637 -0.20521308 0.45239779
v 0.35044959 -0.12106748 0.45239779
v 0.35273555 -0.11487272 0.45239779
v 0.36128944 -0.11487272 0.47780243
v 0.21587321 -0.30182195 0.45238739
v 0.29602912 -0.22335489 0.45239779
v 0.25473446 -0.26472712 0.45239779
f 1 2 9
f 1 9 3
f 1 3 4
f 1 4 5
f 1 5 6
f 1 6 2
f 2 7 8
f 2 8 9
f 2 6 10
f 2 10 7
f 3 11 12
f 3 12 4
f 3 9 8
f 3 8 19
f 3 19 18
f 3 18 32
f 3 32 50
f 3 50 49
f 3 49 48
f 3 48 84
f 3 84 83
f 3 83 82
f 3 82 81
f 3 81 80
f 3 80 79
f 3 79 113
f 3 113 112
f 3 112 111
f 3 111 160
f 3 160 159
f 3 159 158
f 3 158 157
f 3 157 156
f 3 156 155
f 3 155 154
f 3 154 153
f 3 153 152
f 3 152 151
f 3 151 223
f 3 223 222
f 3 222 221
f 3 221 220
f 3 220 219
f 3 219 218
f 3 218 217
f 3 217 283
f 3 283 339
f 3 339 338
f 3 338 386
f 3 386 422
f 3 422 421
f 3 421 445
f 3 445 411
f 3 411 374
f 3 374 373
f 3 373 371
f 3 371 322
f 3 322 257
f 3 257 188
f 3 188 127
f 3 127 85
f 3 85 52
f 3 52 51
f 3 51 56
f 3 56 27
f 3 27 25
f 3 25 11
f 4 12 13
f 4 13 5
f 5 13 14
f 5 14 6
f 6 14 15
f 6 15 16
f 6 16 10
f 7 17 18
f 7 18 19
f 7 19 8
f 7 10 17
f 10 16 20
f 10 20 21
f 10 21 22
f 10 22 23
f 10 23 24
f 10 24 17
f 11 25 12
f 12 26 13
f 12 25 27
f 12 27 26
f 13 26 28
f 13 28 14
f 14 28 29
f 14 29 30
f 14 30 15
f 15 30 31
f 15 31 20
f 15 20 16
f 17 24 32
f 17 32 18
f 20 31 33
f 20 33 21
f 21 33 22
f 22 33 34
f 22 34 35
f 22 35 36
f 22 36 37
f 22 37 38
f 22 38 39
f 22 39 40
f 22 40 41
f 22 41 42
f 22 42 43
f 22 43 44
f 22 44 45
f 22 45 46
f 22 46 47
f 22 47 23
f 23 47 48
f 23 48 49
f 23 49 24
f 24 50 32
f 24 49 50
f 26 51 52
f 26 52 53
f 26 53 54
f 26 54 55
f 26 55 28
f 26 27 56
f 26 56 51
f 28 55 57
f 28 57 29
f 29 57 30
f 30 58 31
f 30 57 59
f 30 59 58
f 31 58 60
f 31 60 61
f 31 61 62
f 31 62 63
f 31 63 64
f 31 64 33
f 33 64 65
f 33 65 34
f 34 65 97
f 34 97 136
f 34 136 114
f 34 114 78
f 34 78 35
f 35 66 67
f 35 67 68
f 35 68 69
f 35 69 70
f 35 70 71
f 35 71 72
f 35 72 73
f 35 73 74
f 35 74 75
f 35 75 76
f 35 76 77
f 35 77 36
f 35 78 66
f 36 77 79
f 36 79 80
f 36 80 37
f 37 80 81
f 37 81 38
f 38 81 39
f 39 81 82
f 39 82 40
f 40 82 41
f 41 82 42
f 42 82 83
f 42 83 43
f 43 83 84
f 43 84 44
f 44 84 45
f 45 84 46
f 46 84 47
f 47 84 48
f 52 85 86
f 52 86 53
f 53 86 54
f 54 57 55
f 54 86 87
f 54 87 88
f 54 88 89
f 54 89 57
f 57 89 59
f 58 59 90
f 58 90 60
f 59 89 91
f 59 91 90
f 60 92 62
f 60 62 61
f 60 90 92
f 62 93 63
f 62 92 94
f 62 94 95
f 62 95 96
f 62 96 93
f 63 93 64
f 64 93 65
f 65 93 97
f 66 98 99
f 66 99 67
f 66 78 100
f 66 100 98
f 67 99 68
f 68 99 101
f 68 101 102
f 68 102 103
f 68 103 104
f 68 104 105
f 68 105 106
f 68 106 107
f 68 107 108
f 68 108 109
f 68 109 110
f 68 110 69
f 69 111 112
f 69 112 70
f 69 110 111
f 70 112 71
f 71 112 72
f 72 112 73
f 73 112 74
f 74 112 113
f 74 113 79
f 74 79 75
f 75 79 76
f 76 79 77
f 78 114 115
f 78 115 116
f 78 116 117
f 78 117 118
f 78 118 119
f 78 119 120
f 78 120 121
f 78 121 122
f 78 122 123
f 78 123 124
f 78 124 125
f 78 125 126
f 78 126 100
f 85 127 128
f 85 128 86
f 86 128 87
f 87 128 129
f 87 129 130
f 87 130 88
f 88 130 91
f 88 91 89
f 90 91 131
f 90 131 132
f 90 132 94
f 90 94 92
f 91 130 131
f 93 96 97
f 94 132 95
f 95 132 133
f 95 133 134
f 95 134 96
f 96 134 135
f 96 135 136
f 96 136 97
f 98 137 138
f 98 138 139
f 98 139 101
f 98 101 99
f 98 100 140
f 98 140 141
f 98 141 142
f 98 142 137
f 100 126 143
f 100 143 144
f 100 144 140
f 101 139 138
f 101 138 145
f 101 145 146
f 101 146 147
f 101 147 148
f 101 148 149
f 101 149 150
f 101 150 102
f 102 150 151
f 102 151 103
f 103 151 152
f 103 152 104
f 104 152 153
f 104 153 154
f 104 154 155
f 104 155 105
f 105 155 106
f 106 155 156
f 106 156 107
f 107 157 108
f 107 156 157
f 108 158 109
f 108 157 158
f 109 158 159
f 109 159 110
f 110 159 160
f 110 160 111
f 114 136 135
f 114 135 161
f 114 161 162
f 114 162 163
f 114 163 115
f 115 164 165
f 115 165 166
f 115 166 167
f 115 167 116
f 115 163 168
f 115 168 164
f 116 167 169
f 116 169 171
f 116 171 117
f 117 170 118
f 117 171 170
f 118 170 172
f 118 172 173
f 118 173 174
f 118 174 175
f 118 175 119
f 119 176 120
f 119 175 176
f 120 175 177
f 120 177 178
f 120 178 179
f 120 179 121
f 120 176 175
f 121 179 122
f 122 179 180
f 122 180 181
f 122 181 123
f 123 181 124
f 124 181 182
f 124 182 183
f 124 183 184
f 124 184 185
f 124 185 125
f 125 185 186
f 125 186 187
f 125 187 126
f 126 187 143
f 127 188 128
f 128 189 190
f 128 190 129
f 128 188 191
f 128 191 192
f 128 192 189
f 129 190 130
f 130 190 189
f 130 189 193
f 130 193 194
f 130 194 131
f 131 194 195
f 131 195 132
f 132 195 133
f 133 196 197
f 133 197 198
f 133 198 199
f 133 199 134
f 133 195 196
f 134 199 135
f 135 199 200
f 135 200 161
f 137 201 202
f 137 202 138
f 137 142 203
f 137 203 204
f 137 204 201
f 138 202 205
f 138 205 206
f 138 206 207
f 138 207 208
f 138 208 209
f 138 209 210
f 138 210 145
f 140 144 211
f 140 211 212
f 140 212 141
f 141 212 213
f 141 213 214
f 141 214 142
f 142 214 215
f 142 215 203
f 143 187 216
f 143 216 144
f 144 216 211
f 145 210 217
f 145 217 218
f 145 218 219
f 145 219 146
f 146 219 147
f 147 219 148
f 148 219 220
f 148 220 149
f 149 220 150
f 150 220 221
f 150 221 222
f 150 222 223
f 150 223 151
f 161 200 224
f 161 224 225
f 161 225 164
f 161 164 168
f 161 168 162
f 162 168 163
f 164 226 227
f 164 227 228
f 164 228 165
f 164 225 226
f 165 228 229
f 165 229 230
f 165 230 231
f 165 231 166
f 166 231 232
f 166 232 167
f 167 232 169
f 169 232 233
f 169 233 235
f 169 235 171
f 170 171 234
f 170 234 172
f 171 235 234
f 172 234 236
f 172 236 173
f 173 237 174
f 173 236 238
f 173 238 239
f 173 239 237
f 174 237 240
f 174 240 241
f 174 241 242
f 174 242 243
f 174 243 244
f 174 244 175
f 175 243 177
f 175 244 243
f 177 245 179
f 177 179 178
f 177 243 245
f 179 245 246
f 179 246 247
f 179 247 180
f 180 247 248
f 180 248 182
f 180 182 181
f 182 249 250
f 182 250 251
f 182 251 183
f 182 248 247
f 182 247 249
f 183 251 252
f 183 252 253
f 183 253 184
f 184 253 254
f 184 254 185
f 185 254 186
f 186 254 255
f 186 255 256
f 186 256 187
f 187 256 216
f 188 257 191
f 189 192 193
f 191 257 258
f 191 258 259
f 191 259 192
f 192 259 193
f 193 195 194
f 193 259 260
f 193 260 197
f 193 197 196
f 193 196 195
f 197 260 261
f 197 261 262
f 197 262 263
f 197 263 198
f 198 263 199
f 199 263 264
f 199 264 200
f 200 264 265
f 200 265 266
f 200 266 224
f 201 204 267
f 201 267 205
f 201 205 202
f 203 215 268
f 203 268 269
f 203 269 270
f 203 270 204
f 204 271 267
f 204 270 272
f 204 272 271
f 205 267 206
f 206 267 207
f 207 267 273
f 207 273 274
f 207 274 275
f 207 275 276
f 207 276 277
f 207 277 278
f 207 278 279
f 207 279 208
f 208 279 217
f 208 217 209
f 209 217 210
f 211 216 256
f 211 256 280
f 211 280 212
f 212 280 213
f 213 280 281
f 213 281 214
f 214 281 215
f 215 281 282
f 215 282 268
f 217 279 283
f 224 266 225
f 225 266 226
f 226 266 284
f 226 284 285
f 226 285 286
f 226 286 227
f 227 286 287
f 227 287 288
f 227 288 228
f 228 288 289
f 228 289 229
f 229 289 230
f 230 290 291
f 230 291 292
f 230 292 233
f 230 233 231
f 230 289 290
f 231 233 232
f 233 292 293
f 233 293 235
f 234 235 236
f 235 293 238
f 235 238 236
f 237 239 294
f 237 294 295
f 237 295 240
f 238 293 296
f 238 296 294
f 238 294 239
f 240 295 297
f 240 297 298
f 240 298 241
f 241 299 242
f 241 298 300
f 241 300 299
f 242 299 301
f 242 301 302
f 242 302 303
f 242 303 243
f 243 303 245
f 245 303 304
f 245 304 305
f 245 305 306
f 245 306 309
f 245 309 246
f 246 307 308
f 246 308 247
f 246 309 307
f 247 308 310
f 247 310 311
f 247 311 249
f 249 311 312
f 249 312 313
f 249 313 314
f 249 314 250
f 250 314 315
f 250 315 316
f 250 316 317
f 250 317 251
f 251 317 318
f 251 318 252
f 252 318 319
f 252 319 253
f 253 319 255
f 253 255 254
f 255 319 320
f 255 320 321
f 255 321 256
f 256 321 280
f 257 322 258
f 258 323 259
f 258 322 323
f 259 323 324
f 259 324 325
f 259 325 260
f 260 325 261
f 261 325 262
f 262 325 326
f 262 326 327
f 262 327 328
f 262 328 263
f 263 328 264
f 264 328 265
f 265 329 330
f 265 330 266
f 265 328 329
f 266 330 284
f 267 271 273
f 268 282 281
f 268 281 321
f 268 321 269
f 269 331 270
f 269 321 331
f 270 332 272
f 270 331 333
f 270 333 332
f 271 272 332
f 271 332 334
f 271 334 335
f 271 335 273
f 273 335 336
f 273 336 274
f 274 336 275
f 275 336 276
f 276 336 337
f 276 337 338
f 276 338 277
f 277 338 339
f 277 339 278
f 278 339 283
f 278 283 279
f 280 321 281
f 284 340 285
f 284 330 340
f 285 340 341
f 285 341 342
f 285 342 286
f 286 342 343
f 286 343 344
f 286 344 291
f 286 291 287
f 287 291 288
f 288 291 290
f 288 290 289
f 291 344 292
f 292 345 346
f 292 346 293
f 292 344 345
f 293 346 347
f 293 347 348
f 293 348 296
f 294 296 295
f 295 296 348
f 295 348 297
f 297 348 298
f 298 348 347
f 298 347 349
f 298 349 350
f 298 350 300
f 299 300 351
f 299 351 301
f 300 350 352
f 300 352 351
f 301 353 304
f 301 304 303
f 301 303 302
f 301 351 354
f 301 354 353
f 304 353 355
f 304 355 305
f 305 355 356
f 305 356 357
f 305 357 306
f 306 357 309
f 307 309 357
f 307 357 358
f 307 358 359
f 307 359 308
f 308 359 310
f 310 359 312
f 310 312 311
f 312 359 360
f 312 360 313
f 313 360 361
f 313 361 362
f 313 362 363
f 313 363 314
f 314 363 364
f 314 364 365
f 314 365 366
f 314 366 316
f 314 316 315
f 316 366 367
f 316 367 317
f 317 367 318
f 318 367 368
f 318 368 319
f 319 368 320
f 320 368 367
f 320 367 366
f 320 366 365
f 320 365 369
f 320 369 370
f 320 370 321
f 321 370 331
f 322 371 323
f 323 372 324
f 323 371 373
f 323 373 374
f 323 374 375
f 323 375 376
f 323 376 377
f 323 377 372
f 324 372 325
f 325 372 377
f 325 377 376
f 325 376 326
f 326 376 378
f 326 378 379
f 326 379 327
f 327 379 340
f 327 340 328
f 328 340 329
f 329 340 330
f 331 370 333
f 332 333 380
f 332 380 381
f 332 381 382
f 332 382 334
f 333 370 380
f 334 382 335
f 335 382 383
f 335 383 384
f 335 384 336
f 336 384 385
f 336 385 337
f 337 385 338
f 338 385 384
f 338 384 386
f 340 379 341
f 341 378 387
f 341 387 342
f 341 379 378
f 342 387 388
f 342 388 343
f 343 388 389
f 343 389 344
f 344 389 345
f 345 390 391
f 345 391 346
f 345 389 390
f 346 391 392
f 346 392 347
f 347 392 349
f 349 393 350
f 349 392 393
f 350 393 394
f 350 394 352
f 351 352 354
f 352 394 395
f 352 395 396
f 352 396 354
f 353 354 397
f 353 397 398
f 353 398 355
f 354 396 397
f 355 398 399
f 355 399 357
f 355 357 356
f 357 400 401
f 357 401 358
f 357 399 400
f 358 401 402
f 358 402 403
f 358 403 359
f 359 403 360
f 360 403 361
f 361 404 405
f 361 405 406
f 361 406 407
f 361 407 363
f 361 363 362
f 361 403 402
f 361 402 404
f 363 407 364
f 364 407 408
f 364 408 409
f 364 409 365
f 365 409 369
f 369 410 380
f 369 380 370
f 369 409 408
f 369 408 410
f 374 411 375
f 375 411 412
f 375 412 378
f 375 378 376
f 378 412 413
f 378 413 387
f 380 410 444
f 380 444 414
f 380 414 415
f 380 415 381
f 381 416 417
f 381 417 382
f 381 415 414
f 381 414 418
f 381 418 416
f 382 419 383
f 382 417 416
f 382 416 420
f 382 420 419
f 383 419 421
f 383 421 422
f 383 422 384
f 384 422 386
f 387 413 388
f 388 413 423
f 388 423 424
f 388 424 390
f 388 390 389
f 390 425 426
f 390 426 391
f 390 424 425
f 391 426 427
f 391 427 393
f 391 393 392
f 393 427 428
f 393 428 429
f 393 429 394
f 394 429 395
f 395 429 430
f 395 430 431
f 395 431 396
f 396 431 397
f 397 432 433
f 397 433 399
f 397 399 398
f 397 431 434
f 397 434 432
f 399 433 435
f 399 435 437
f 399 437 400
f 400 436 401
f 400 437 436
f 401 438 404
f 401 404 402
f 401 436 439
f 401 439 438
f 404 438 440
f 404 440 441
f 404 441 442
f 404 442 405
f 405 442 406
f 406 442 407
f 407 443 410
f 407 410 408
f 407 442 443
f 410 443 444
f 411 445 446
f 411 446 412
f 412 446 413
f 413 446 447
f 413 447 448
f 413 448 423
f 414 444 450
f 414 450 449
f 414 449 418
f 416 418 421
f 416 421 420
f 418 449 421
f 419 420 421
f 421 449 450
f 421 450 451
f 421 451 452
f 421 452 453
f 421 453 454
f 421 454 455
f 421 455 445
f 423 448 424
f 424 456 425
f 424 448 457
f 424 457 456
f 425 456 458
f 425 458 459
f 425 459 426
f 426 459 460
f 426 460 427
f 427 460 461
f 427 461 428
f 428 461 429
f 429 461 462
f 429 462 463
f 429 463 464
f 429 464 430
f 430 464 465
f 430 465 466
f 430 466 431
f 431 466 434
f 432 434 466
f 432 466 433
f 433 466 467
f 433 467 435
f 435 467 468
f 435 468 437
f 436 437 440
f 436 440 439
f 437 468 440
f 438 439 440
f 440 468 469
f 440 469 470
f 440 470 441
f 441 470 471
f 441 471 442
f 442 471 472
f 442 472 453
f 442 453 452
f 442 452 473
f 442 473 443
f 443 473 452
f 443 452 451
f 443 451 444
f 444 451 450
f 445 455 474
f 445 474 465
f 445 465 464
f 445 464 463
f 445 463 462
f 445 462 461
f 445 461 460
f 445 460 459
f 445 459 458
f 445 458 456
f 445 456 457
f 445 457 448
f 445 448 447
f 445 447 446
f 453 472 471
f 453 471 470
f 453 470 469
f 453 469 454
f 454 469 475
f 454 475 476
f 454 476 455
f 455 476 467
f 455 467 466
f 455 466 474
f 465 474 466
f 467 476 468
f 468 475 469
f 468 476 475

