# https://github.com/mikedh/trimesh
v -0.37275928 -0.00504871 -0.46543872
v -0.37087300 -0.00645567 -0.44745815
v -0.37108260 -0.00498753 -0.44745815
v -0.37275928 0.00504473 -0.46543872
v -0.33267611 0.16250226 -0.46817219
v -0.36159888 -0.07582508 -0.46543872
v -0.36903915 -0.01832309 -0.44745815
v -0.32937515 0.16250226 -0.44745612
v -0.37108260 0.00498356 -0.44745815
v -0.37040144 0.00969382 -0.44745815
v -0.36998227 0.01238541 -0.44745815
v -0.36186084 0.07416944 -0.46543872
v -0.27074370 -0.25090027 -0.46543872
v -0.27530217 -0.24667935 -0.46543872
v -0.28672457 -0.23530130 -0.46543872
v -0.29531756 -0.22661482 -0.46543872
v -0.29662746 -0.22514670 -0.46543872
v -0.30055720 -0.22061993 -0.46543872
v -0.30333418 -0.21658258 -0.46543872
v -0.30867863 -0.20673384 -0.46543872
v -0.31114125 -0.20196240 -0.46543872
v -0.31449461 -0.19541694 -0.46543872
v -0.32471186 -0.17541361 -0.46543872
v -0.33136621 -0.16238390 -0.46543872
v -0.34147871 -0.14256407 -0.46543872
v -0.35153878 -0.12274423 -0.46543872
v -0.35436818 -0.11540356 -0.46543872
v -0.35452539 -0.11491418 -0.46543872
v -0.35672602 -0.10549365 -0.46543872
v -0.35683081 -0.10494310 -0.46543872
v -0.35683081 0.10493912 -0.46543872
v -0.35452539 0.11491021 -0.46543872
v -0.35153878 0.12274026 -0.46543872
v -0.33241415 0.16317517 -0.46817219
v -0.28981596 0.16250226 -0.46817219
v -0.35531130 -0.10494310 -0.44745815
v -0.35651642 -0.09741890 -0.44745815
v 0.16246885 0.16250226 -0.44745612
v -0.32780325 0.16574439 -0.44745612
v -0.35054326 0.12108861 -0.44745815
v -0.35111961 0.11962047 -0.44745815
v -0.35279629 0.11491021 -0.44745815
v -0.35342503 0.11252449 -0.44745815
v -0.35531130 0.10493912 -0.44745815
v -0.35279629 -0.11491418 -0.44745815
v -0.35227233 -0.11650467 -0.44745815
v -0.35054326 -0.12109259 -0.44745815
v -0.34802824 -0.12610872 -0.44745815
v -0.34352213 -0.13497870 -0.44745815
v -0.30825943 -0.20410343 -0.44745815
v -0.30763069 -0.20532687 -0.44745815
v -0.30642557 -0.20759024 -0.44745815
v -0.30265304 -0.21462505 -0.44745815
v -0.30045241 -0.21841775 -0.44745815
v -0.29971886 -0.21964119 -0.44745815
v -0.29474121 -0.22471850 -0.44745815
v -0.26859546 -0.25090027 -0.44745815
v -0.20063746 -0.25090027 -0.46543872
v -0.32947993 0.16250226 -0.44745815
v -0.30757830 0.20538406 -0.44745612
v -0.31213677 0.20281482 -0.46817219
v -0.34802824 0.12610474 -0.44745815
v 0.16246885 0.28980184 -0.46817219
v 0.16252124 -0.25090027 -0.46536976
v 0.16246885 0.32944149 -0.44745612
v 0.16252124 -0.25090027 -0.44745815
v -0.30385816 0.21241888 -0.44745612
v -0.30522045 0.21547750 -0.46817219
v 0.16246885 0.33268362 -0.46817219
v 0.16252124 0.16250226 -0.46536976
v 0.13826175 0.34510165 -0.46817219
v 0.12107576 0.35054594 -0.44745612
v 0.16252124 0.16250226 -0.44745815
v -0.30260062 0.21468225 -0.44745612
v -0.29966646 0.21963722 -0.44745612
v -0.30118597 0.22135003 -0.46817219
v 0.12348600 0.35256463 -0.46817219
v 0.11829877 0.35458332 -0.46817219
v 0.11646490 0.35225880 -0.44745612
v -0.29468882 0.22477569 -0.44745612
v -0.29662746 0.22661085 -0.46817219
v 0.11489300 0.35280937 -0.44745612
v 0.11494541 0.35574561 -0.46817219
v -0.27472579 0.24477904 -0.44745612
v -0.25670147 0.26673990 -0.46817219
v -0.28667217 0.23670429 -0.46817219
v 0.10488532 0.35531741 -0.44745612
v 0.10902463 0.35715258 -0.46817219
v -0.22594488 0.29347220 -0.44745612
v -0.23668611 0.28668207 -0.46817219
v 0.09456325 0.35966063 -0.46817219
v 0.07486224 0.36302513 -0.46817219
v 0.01109596 0.37012112 -0.44745612
v -0.21960491 0.29971176 -0.44745612
v -0.22646883 0.29665315 -0.46817219
v 0.00517517 0.37397498 -0.46817219
v 0.00643268 0.37085515 -0.44745612
v -0.21588477 0.30191398 -0.44745612
v -0.21536082 0.30527845 -0.46817219
v -0.22122920 0.30117989 -0.46817219
v -0.00530408 0.37403613 -0.46817219
v 0.00491320 0.37103868 -0.44745612
v -0.20535313 0.30760300 -0.44745612
v -0.20273331 0.31219095 -0.46817219
v -0.01248237 0.36993760 -0.44745612
v -0.00970537 0.37036580 -0.44745612
v -0.00509450 0.37103868 -0.44745612
v -0.07493876 0.36302513 -0.46817219
v -0.10501423 0.35531741 -0.44745612
v -0.12104750 0.35054594 -0.44745612
v -0.12340532 0.35256463 -0.46817219
v -0.10496183 0.35782546 -0.46817219
v -0.11491713 0.35280937 -0.44745612
v -0.11486473 0.35574561 -0.46817219
v -0.11958040 0.35109651 -0.44745612
f 1 2 3
f 1 3 9
f 1 9 4
f 1 4 5
f 1 5 6
f 1 6 7
f 1 7 2
f 2 7 8
f 2 8 3
f 3 8 9
f 4 9 10
f 4 10 11
f 4 11 12
f 4 12 5
f 5 13 14
f 5 14 15
f 5 15 16
f 5 16 17
f 5 17 18
f 5 18 19
f 5 19 20
f 5 20 21
f 5 21 22
f 5 22 23
f 5 23 24
f 5 24 25
f 5 25 26
f 5 26 27
f 5 27 28
f 5 28 29
f 5 29 30
f 5 30 6
f 5 12 31
f 5 31 32
f 5 32 33
f 5 33 34
f 5 34 61
f 5 61 68
f 5 68 76
f 5 76 81
f 5 81 86
f 5 86 85
f 5 85 90
f 5 90 95
f 5 95 100
f 5 100 99
f 5 99 104
f 5 104 111
f 5 111 114
f 5 114 112
f 5 112 108
f 5 108 101
f 5 101 96
f 5 96 92
f 5 92 91
f 5 91 88
f 5 88 83
f 5 83 78
f 5 78 77
f 5 77 71
f 5 71 69
f 5 69 63
f 5 63 35
f 5 35 58
f 5 58 13
f 6 30 36
f 6 36 37
f 6 37 7
f 7 37 8
f 8 38 65
f 8 65 72
f 8 72 79
f 8 79 82
f 8 82 87
f 8 87 93
f 8 93 97
f 8 97 102
f 8 102 107
f 8 107 106
f 8 106 105
f 8 105 109
f 8 109 113
f 8 113 115
f 8 115 110
f 8 110 103
f 8 103 98
f 8 98 94
f 8 94 89
f 8 89 84
f 8 84 80
f 8 80 75
f 8 75 74
f 8 74 67
f 8 67 60
f 8 60 39
f 8 39 40
f 8 40 41
f 8 41 42
f 8 42 43
f 8 43 44
f 8 44 11
f 8 11 10
f 8 10 9
f 8 37 36
f 8 36 45
f 8 45 46
f 8 46 47
f 8 47 48
f 8 48 49
f 8 49 50
f 8 50 51
f 8 51 52
f 8 52 53
f 8 53 54
f 8 54 55
f 8 55 56
f 8 56 57
f 8 57 66
f 8 66 38
f 11 44 12
f 12 44 31
f 13 57 14
f 13 58 64
f 13 64 66
f 13 66 57
f 14 57 15
f 15 56 16
f 15 57 56
f 16 56 55
f 16 55 17
f 17 55 18
f 18 55 19
f 19 53 20
f 19 55 54
f 19 54 53
f 20 52 51
f 20 51 21
f 20 53 52
f 21 51 50
f 21 50 22
f 22 50 23
f 23 50 24
f 24 50 25
f 25 50 49
f 25 49 48
f 25 48 26
f 26 48 47
f 26 47 27
f 27 46 45
f 27 45 28
f 27 47 46
f 28 45 36
f 28 36 29
f 29 36 30
f 31 44 32
f 32 44 43
f 32 43 42
f 32 42 41
f 32 41 33
f 33 41 40
f 33 40 34
f 34 59 60
f 34 60 61
f 34 40 62
f 34 62 59
f 35 63 64
f 35 64 58
f 38 66 73
f 38 73 65
f 39 60 59
f 39 59 62
f 39 62 40
f 60 67 61
f 61 67 68
f 63 69 70
f 63 70 64
f 64 70 73
f 64 73 66
f 65 69 71
f 65 71 72
f 65 73 69
f 67 74 68
f 68 74 75
f 68 75 76
f 69 73 70
f 71 77 72
f 72 77 78
f 72 78 79
f 75 80 81
f 75 81 76
f 78 82 79
f 78 83 82
f 80 84 85
f 80 85 86
f 80 86 81
f 82 83 87
f 83 88 87
f 84 89 85
f 85 89 90
f 87 88 91
f 87 91 92
f 87 92 93
f 89 94 90
f 90 94 95
f 92 96 97
f 92 97 93
f 94 98 99
f 94 99 100
f 94 100 95
f 96 101 102
f 96 102 97
f 98 103 104
f 98 104 99
f 101 105 106
f 101 106 107
f 101 107 102
f 101 108 109
f 101 109 105
f 103 110 104
f 104 110 111
f 108 112 109
f 109 112 114
f 109 114 113
f 110 115 111
f 111 115 114
f 113 114 115

