# https://github.com/mikedh/trimesh
v 0.16254096 0.27669919 -0.46542174
v 0.16254096 0.33130035 -0.46542174
v 0.16254096 0.29817641 -0.50137687
v 0.30493572 0.10808268 -0.46542174
v 0.20200403 0.31116262 -0.46542174
v 0.18074253 0.33036950 -0.47940361
v 0.16254096 0.33827022 -0.47754407
v 0.16254096 0.29928887 -0.50197315
v 0.32651308 0.10808268 -0.50217718
v 0.32430205 0.10808268 -0.49877194
v 0.35614493 0.10808268 -0.46542174
v 0.20680119 0.30868798 -0.46542174
v 0.22038329 0.31023180 -0.47960371
v 0.20060238 0.32028931 -0.47950169
v 0.16254096 0.34001836 -0.48500186
v 0.16254096 0.30487382 -0.50403672
v 0.33184326 0.10808268 -0.50409555
v 0.36208710 0.10808268 -0.47676730
v 0.36141589 0.11500715 -0.47778732
v 0.35452613 0.11500715 -0.46542174
v 0.21576379 0.30382949 -0.46542174
v 0.22557527 0.30639496 -0.48500186
v 0.22058070 0.31034529 -0.48500186
v 0.21501362 0.31327403 -0.48500186
v 0.19501558 0.32346773 -0.48500186
v 0.21665215 0.30333003 -0.46542174
v 0.22069915 0.30058295 -0.46542174
v 0.23094493 0.30092350 -0.47887009
v 0.23139898 0.30137753 -0.48500186
v 0.22038329 0.31023180 -0.49114153
v 0.20060238 0.32028931 -0.49140435
v 0.18074253 0.33036950 -0.49165544
v 0.16254096 0.33970052 -0.48977235
v 0.16254096 0.30746201 -0.50475073
v 0.33498216 0.10808268 -0.50497824
v 0.36419943 0.10808268 -0.48500186
v 0.36054727 0.12111431 -0.47912115
v 0.35436821 0.11546122 -0.46542174
v 0.22525941 0.29665530 -0.46542174
v 0.24640246 0.28639346 -0.48500186
v 0.23641330 0.29638284 -0.48500186
v 0.22666104 0.29533851 -0.46542174
v 0.23676865 0.28534910 -0.46542174
v 0.30092821 0.23092958 -0.47887009
v 0.23094493 0.30092350 -0.49288335
v 0.22510147 0.30510086 -0.49534708
v 0.21872500 0.30930096 -0.49780685
v 0.19884540 0.31940389 -0.49807361
v 0.17896581 0.32946140 -0.49832076
v 0.16254096 0.33831564 -0.49639061
v 0.16254096 0.33913293 -0.49336982
v 0.16254096 0.31499946 -0.50546867
v 0.34191138 0.10808268 -0.50544906
v 0.36378485 0.10808268 -0.48812073
v 0.36139613 0.11527959 -0.49540198
v 0.36281753 0.11500715 -0.48500186
v 0.35156494 0.12279434 -0.46542174
v 0.36082363 0.12165918 -0.48500186
v 0.34043077 0.16086757 -0.47930947
v 0.26140592 0.27138665 -0.48500186
v 0.30092821 0.23092958 -0.49288335
v 0.25676668 0.26534760 -0.46542174
v 0.29534140 0.22663869 -0.46542174
v 0.29664433 0.22523108 -0.46542174
v 0.30057287 0.22069044 -0.46542174
v 0.31022641 0.22039531 -0.47960371
v 0.30138227 0.23138365 -0.48500186
v 0.28535226 0.23674160 -0.46542174
v 0.23536700 0.29536122 -0.49621800
v 0.22979993 0.29978833 -0.49954870
v 0.21205240 0.31095830 -0.50085509
v 0.22314708 0.30262622 -0.50168681
v 0.17229322 0.33107331 -0.50094926
v 0.16254096 0.33570474 -0.50060403
v 0.16254096 0.31747410 -0.50549608
v 0.34499103 0.10808268 -0.50549608
v 0.36283726 0.10808268 -0.49511954
v 0.35963917 0.11877587 -0.49900338
v 0.36054727 0.12111431 -0.49233413
v 0.36216605 0.10808268 -0.49738315
v 0.32029453 0.20062084 -0.47950169
v 0.33492291 0.15544152 -0.46542174
v 0.34043077 0.16086757 -0.49189475
v 0.32029453 0.20062084 -0.49140435
v 0.35827699 0.12667659 -0.48500186
v 0.31022641 0.22039531 -0.49114153
v 0.30511340 0.22507216 -0.49534708
v 0.29978323 0.22979443 -0.49954870
v 0.30333668 0.21664928 -0.46542174
v 0.33365947 0.17501165 -0.48500186
v 0.31326661 0.21501465 -0.48500186
v 0.31034487 0.22057694 -0.48500186
v 0.30637684 0.22554894 -0.48500186
v 0.30383021 0.21576387 -0.46542174
v 0.30868658 0.20679611 -0.46542174
v 0.31115428 0.20200573 -0.46542174
v 0.31453004 0.19542181 -0.46542174
v 0.34064794 0.16129893 -0.48500186
v 0.24314512 0.28312421 -0.50168681
v 0.23313622 0.29311359 -0.50168681
v 0.20500472 0.31277454 -0.50197709
v 0.21523078 0.30557764 -0.50262833
v 0.22589113 0.29586068 -0.50312656
v 0.16500863 0.33295768 -0.50207907
v 0.16254096 0.33366147 -0.50226349
v 0.16254096 0.32498884 -0.50499004
v 0.17501754 0.31499946 -0.50547254
v 0.20500472 0.29499796 -0.50549608
v 0.34499103 0.11500715 -0.50549608
v 0.35190052 0.10808268 -0.50434667
v 0.36044857 0.11212385 -0.50049812
v 0.35314423 0.12501925 -0.50215364
v 0.35120958 0.13255671 -0.50103951
v 0.34959078 0.13923144 -0.49878761
v 0.36080390 0.10808268 -0.50083154
v 0.31940618 0.19884999 -0.49807361
v 0.30929857 0.21871528 -0.49780685
v 0.29311061 0.23310909 -0.50168681
v 0.28312147 0.24312119 -0.50168681
v 0.26314315 0.26312268 -0.50168681
v 0.30262598 0.22314240 -0.50168681
v 0.23588029 0.28587127 -0.50312656
v 0.20500472 0.30498737 -0.50472718
v 0.21501362 0.29499796 -0.50539017
v 0.16254096 0.32778135 -0.50429958
v 0.18500668 0.31499946 -0.50477821
v 0.16500863 0.32498884 -0.50482523
v 0.19501558 0.30498737 -0.50546080
v 0.28499690 0.21501465 -0.50549608
v 0.34499103 0.12501925 -0.50490373
v 0.33498216 0.13500865 -0.50549608
v 0.35523683 0.10808268 -0.50343257
v 0.35578960 0.11527959 -0.50249493
v 0.33498216 0.14502075 -0.50487232
v 0.32499298 0.16502225 -0.50482917
v 0.30499494 0.20500255 -0.50472718
v 0.34305638 0.14502075 -0.50212222
v 0.33296853 0.16502225 -0.50207907
v 0.31277305 0.20500255 -0.50197709
v 0.32102495 0.19217525 -0.50090218
v 0.31095687 0.21206324 -0.50085509
v 0.35948122 0.10808268 -0.50151026
v 0.29587442 0.22586678 -0.50312656
v 0.30556744 0.21524169 -0.50262833
v 0.29498607 0.21501465 -0.50539017
v 0.29498607 0.20500255 -0.50549608
v 0.32499298 0.15501015 -0.50548828
v 0.30499494 0.19501315 -0.50546080
f 1 2 7
f 1 7 15
f 1 15 33
f 1 33 51
f 1 51 50
f 1 50 74
f 1 74 105
f 1 105 125
f 1 125 106
f 1 106 75
f 1 75 52
f 1 52 34
f 1 34 16
f 1 16 8
f 1 8 3
f 1 3 4
f 1 4 11
f 1 11 20
f 1 20 38
f 1 38 57
f 1 57 82
f 1 82 97
f 1 97 96
f 1 96 95
f 1 95 94
f 1 94 89
f 1 89 65
f 1 65 64
f 1 64 63
f 1 63 68
f 1 68 62
f 1 62 43
f 1 43 42
f 1 42 39
f 1 39 27
f 1 27 26
f 1 26 21
f 1 21 12
f 1 12 5
f 1 5 2
f 2 5 6
f 2 6 7
f 3 8 9
f 3 9 10
f 3 10 4
f 4 10 9
f 4 9 17
f 4 17 35
f 4 35 53
f 4 53 76
f 4 76 110
f 4 110 132
f 4 132 142
f 4 142 115
f 4 115 80
f 4 80 77
f 4 77 54
f 4 54 36
f 4 36 18
f 4 18 11
f 5 12 13
f 5 13 14
f 5 14 6
f 6 15 7
f 6 14 15
f 8 16 9
f 9 16 17
f 11 18 19
f 11 19 20
f 12 21 13
f 13 22 23
f 13 23 24
f 13 24 25
f 13 25 15
f 13 15 14
f 13 21 26
f 13 26 27
f 13 27 28
f 13 28 29
f 13 29 22
f 15 25 30
f 15 30 31
f 15 31 32
f 15 32 33
f 16 34 17
f 17 34 35
f 18 36 19
f 19 37 20
f 19 36 37
f 20 37 38
f 22 29 30
f 22 30 23
f 23 30 24
f 24 30 25
f 27 39 28
f 28 40 41
f 28 41 29
f 28 39 42
f 28 42 43
f 28 43 44
f 28 44 40
f 29 41 45
f 29 45 30
f 30 45 46
f 30 46 47
f 30 47 31
f 31 47 48
f 31 48 32
f 32 49 50
f 32 50 51
f 32 51 33
f 32 48 49
f 34 52 35
f 35 52 53
f 36 54 55
f 36 55 56
f 36 56 37
f 37 57 38
f 37 56 58
f 37 58 59
f 37 59 57
f 40 60 61
f 40 61 45
f 40 45 41
f 40 44 60
f 43 62 44
f 44 63 64
f 44 64 65
f 44 65 66
f 44 66 67
f 44 67 60
f 44 62 68
f 44 68 63
f 45 69 70
f 45 70 46
f 45 61 69
f 46 70 47
f 47 71 48
f 47 70 72
f 47 72 71
f 48 71 49
f 49 73 50
f 49 71 73
f 50 73 74
f 52 75 76
f 52 76 53
f 54 77 55
f 55 78 79
f 55 79 56
f 55 77 80
f 55 80 78
f 56 79 58
f 57 59 81
f 57 81 82
f 58 79 83
f 58 83 84
f 58 84 85
f 58 85 81
f 58 81 59
f 60 67 61
f 61 67 86
f 61 86 87
f 61 87 88
f 61 88 69
f 65 89 66
f 66 90 91
f 66 91 92
f 66 92 93
f 66 93 67
f 66 89 94
f 66 94 95
f 66 95 96
f 66 96 97
f 66 97 81
f 66 81 98
f 66 98 90
f 67 93 86
f 69 88 70
f 70 99 100
f 70 100 72
f 70 88 99
f 71 101 73
f 71 72 102
f 71 102 101
f 72 100 103
f 72 103 102
f 73 104 74
f 73 101 104
f 74 104 105
f 75 106 107
f 75 107 108
f 75 108 129
f 75 129 146
f 75 146 131
f 75 131 109
f 75 109 76
f 76 109 110
f 78 80 111
f 78 111 112
f 78 112 113
f 78 113 114
f 78 114 79
f 79 114 83
f 80 115 111
f 81 97 82
f 81 85 98
f 83 114 116
f 83 116 84
f 84 116 117
f 84 117 86
f 84 86 91
f 84 91 90
f 84 90 98
f 84 98 85
f 86 117 87
f 86 93 92
f 86 92 91
f 87 117 88
f 88 118 119
f 88 119 120
f 88 120 99
f 88 117 121
f 88 121 118
f 99 120 143
f 99 143 122
f 99 122 103
f 99 103 100
f 101 102 123
f 101 123 104
f 102 103 123
f 103 124 123
f 103 122 124
f 104 125 105
f 104 123 126
f 104 126 125
f 106 125 127
f 106 127 128
f 106 128 107
f 107 128 108
f 108 128 124
f 108 124 129
f 109 130 110
f 109 131 130
f 110 130 132
f 111 133 112
f 111 115 133
f 112 133 130
f 112 130 134
f 112 134 135
f 112 135 136
f 112 136 137
f 112 137 113
f 113 137 138
f 113 138 139
f 113 139 140
f 113 140 141
f 113 141 114
f 114 141 116
f 115 142 133
f 116 141 117
f 117 141 121
f 118 121 143
f 118 143 119
f 119 143 120
f 121 141 144
f 121 144 143
f 122 143 145
f 122 145 124
f 123 128 126
f 123 124 128
f 124 145 129
f 125 126 127
f 126 128 127
f 129 145 146
f 130 133 132
f 130 131 147
f 130 147 148
f 130 148 134
f 131 146 147
f 132 133 142
f 134 148 135
f 135 148 136
f 136 148 145
f 136 145 143
f 136 143 144
f 136 144 139
f 136 139 138
f 136 138 137
f 139 144 141
f 139 141 140
f 145 148 146
f 146 148 147

