# https://github.com/mikedh/trimesh
v 0.16252121 -0.33129334 -0.46543720
v 0.18221483 -0.32124025 -0.46543720
v 0.20542738 -0.30761987 -0.44745791
v 0.16252121 -0.32947731 -0.44745791
v 0.16252121 -0.27519041 -0.46543720
v 0.20203193 -0.31112224 -0.46543720
v 0.20705308 -0.30846304 -0.46543720
v 0.21577837 -0.30379319 -0.46543720
v 0.21468771 -0.30262572 -0.44745791
v 0.16252121 -0.11278362 -0.44745791
v 0.29535541 -0.11537798 -0.46543720
v 0.16252121 -0.11278362 -0.46536857
v 0.16256237 0.33130550 -0.46542138
v 0.21787737 -0.30230141 -0.46543720
v 0.21970886 -0.29970706 -0.44745791
v 0.16256237 0.32942462 -0.44745791
v 0.30109683 -0.11278362 -0.46543720
v 0.17641169 0.32241982 -0.44745791
v 0.19542623 0.31450701 -0.46542138
v 0.35501248 -0.11278362 -0.46543720
v 0.22335126 -0.29802072 -0.46543720
v 0.22588241 -0.29594523 -0.46543720
v 0.22479175 -0.29471290 -0.44745791
v 0.20419267 0.30821574 -0.44745791
v 0.20201135 0.31113440 -0.46542138
v 0.37270999 -0.00498807 -0.46542138
v 0.36174166 -0.07497086 -0.46542138
v 0.35682338 -0.10493569 -0.46542138
v 0.35451859 -0.11498883 -0.46543720
v 0.20682672 0.30860490 -0.46542138
v 0.21575779 0.30380529 -0.46542138
v 0.21664266 0.30328643 -0.46542138
v 0.22071721 0.30056238 -0.46542138
v 0.22528563 0.29660594 -0.46542138
v 0.22668497 0.29530877 -0.46542138
v 0.23538968 0.28674740 -0.46542138
v 0.28533369 0.23667632 -0.46542138
v 0.29533485 0.22662318 -0.46542138
v 0.29665187 0.22519629 -0.46542138
v 0.30056179 0.22065616 -0.46542138
v 0.30331931 0.21657005 -0.46542138
v 0.30381319 0.21566202 -0.46542138
v 0.30864912 0.20671149 -0.46542138
v 0.31113914 0.20197679 -0.46542138
v 0.34511423 0.13543151 -0.46542138
v 0.35153472 0.12271917 -0.46542138
v 0.35433340 0.11539011 -0.46542138
v 0.35449803 0.11493610 -0.46542138
v 0.35672051 0.10553155 -0.46542138
v 0.35682338 0.10494782 -0.46542138
v 0.36174166 0.07504785 -0.46542138
v 0.37275115 0.00506506 -0.46542138
v 0.23600703 -0.28595698 -0.46543720
v 0.23357877 -0.28595698 -0.44745791
v 0.20542738 0.30756712 -0.44745791
v 0.37110487 -0.00492321 -0.44745791
v 0.37015826 -0.01108481 -0.44745791
v 0.35532117 -0.10493569 -0.44745791
v 0.35283116 -0.11498883 -0.44745791
v 0.35056752 -0.12115043 -0.44745791
v 0.35155529 -0.12277190 -0.46543720
v 0.35338679 -0.11278362 -0.44745791
v 0.21468771 0.30257297 -0.44745791
v 0.21970886 0.29971921 -0.44745791
v 0.22096415 0.29848689 -0.44745791
v 0.22479175 0.29472506 -0.44745791
v 0.23102704 0.28849858 -0.44745791
v 0.26100990 0.25853378 -0.44745791
v 0.29475865 0.22474226 -0.44745791
v 0.29973865 0.21961841 -0.44745791
v 0.30261964 0.21462427 -0.44745791
v 0.30764079 0.20534945 -0.44745791
v 0.34046349 0.14094453 -0.44745791
v 0.34865373 0.12485951 -0.44745791
v 0.35054696 0.12109769 -0.44745791
v 0.35227555 0.11642785 -0.44745791
v 0.35281059 0.11493610 -0.44745791
v 0.35532117 0.10494782 -0.44745791
v 0.36958206 0.01492362 -0.44745791
v 0.37110487 0.00500020 -0.44745791
v 0.28595105 -0.23595074 -0.46543720
v 0.29352394 -0.22596246 -0.44745791
v 0.33332276 -0.15500678 -0.44745791
v 0.33136779 -0.16240071 -0.46543720
v 0.29593161 -0.22583275 -0.46543720
v 0.29597276 -0.22349782 -0.44745791
v 0.30764079 -0.20540218 -0.44745791
v 0.31113914 -0.20196466 -0.46543720
v 0.29805121 -0.22330324 -0.46543720
v 0.29973865 -0.21967115 -0.44745791
v 0.30848449 -0.20702365 -0.46543720
v 0.30387491 -0.21240695 -0.44745791
v 0.30383375 -0.21571475 -0.46543720
v 0.30231094 -0.21785510 -0.46543720
v 0.30191997 -0.21590933 -0.44745791
f 1 2 3
f 1 3 4
f 1 4 10
f 1 10 12
f 1 12 5
f 1 5 11
f 1 11 17
f 1 17 20
f 1 20 29
f 1 29 61
f 1 61 84
f 1 84 88
f 1 88 91
f 1 91 93
f 1 93 94
f 1 94 89
f 1 89 85
f 1 85 81
f 1 81 53
f 1 53 22
f 1 22 21
f 1 21 14
f 1 14 8
f 1 8 7
f 1 7 6
f 1 6 2
f 2 6 3
f 3 6 7
f 3 7 8
f 3 8 9
f 3 9 15
f 3 15 23
f 3 23 54
f 3 54 82
f 3 82 86
f 3 86 90
f 3 90 95
f 3 95 92
f 3 92 87
f 3 87 83
f 3 83 60
f 3 60 59
f 3 59 62
f 3 62 58
f 3 58 57
f 3 57 56
f 3 56 80
f 3 80 79
f 3 79 78
f 3 78 77
f 3 77 76
f 3 76 75
f 3 75 74
f 3 74 73
f 3 73 72
f 3 72 71
f 3 71 70
f 3 70 69
f 3 69 68
f 3 68 67
f 3 67 66
f 3 66 65
f 3 65 64
f 3 64 63
f 3 63 55
f 3 55 24
f 3 24 18
f 3 18 16
f 3 16 10
f 3 10 4
f 5 12 13
f 5 13 11
f 8 14 15
f 8 15 9
f 10 16 13
f 10 13 12
f 11 13 17
f 13 16 18
f 13 18 19
f 13 19 20
f 13 20 17
f 14 21 15
f 15 21 22
f 15 22 23
f 18 24 19
f 19 25 20
f 19 24 25
f 20 26 27
f 20 27 28
f 20 28 29
f 20 25 30
f 20 30 31
f 20 31 32
f 20 32 33
f 20 33 34
f 20 34 35
f 20 35 36
f 20 36 37
f 20 37 38
f 20 38 39
f 20 39 40
f 20 40 41
f 20 41 42
f 20 42 43
f 20 43 44
f 20 44 45
f 20 45 46
f 20 46 47
f 20 47 48
f 20 48 49
f 20 49 50
f 20 50 51
f 20 51 52
f 20 52 26
f 22 53 23
f 23 53 54
f 24 55 30
f 24 30 25
f 26 56 57
f 26 57 27
f 26 52 56
f 27 58 28
f 27 57 58
f 28 58 29
f 29 59 60
f 29 60 61
f 29 58 62
f 29 62 59
f 30 55 31
f 31 63 64
f 31 64 32
f 31 55 63
f 32 64 33
f 33 64 34
f 34 64 35
f 35 64 65
f 35 65 66
f 35 66 36
f 36 66 67
f 36 67 68
f 36 68 69
f 36 69 37
f 37 69 38
f 38 69 70
f 38 70 39
f 39 70 40
f 40 70 41
f 41 70 71
f 41 71 42
f 42 71 72
f 42 72 43
f 43 72 44
f 44 72 45
f 45 73 74
f 45 74 46
f 45 72 73
f 46 74 75
f 46 75 47
f 47 75 76
f 47 76 48
f 48 77 78
f 48 78 49
f 48 76 77
f 49 78 50
f 50 78 51
f 51 79 52
f 51 78 79
f 52 79 80
f 52 80 56
f 53 81 82
f 53 82 54
f 60 83 61
f 61 83 84
f 81 85 86
f 81 86 82
f 83 87 84
f 84 87 88
f 85 89 90
f 85 90 86
f 87 91 88
f 87 92 93
f 87 93 91
f 89 94 90
f 90 94 93
f 90 93 95
f 92 95 93

