# https://github.com/mikedh/trimesh
v -0.11223470 -0.25091293 -0.44745612
v -0.11223470 -0.25091293 -0.46538177
v -0.26857936 -0.25091293 -0.44745612
v -0.11223470 -0.35352889 -0.44745612
v 0.16252121 -0.25092563 -0.44746748
v -0.23908529 -0.25091293 -0.50451142
v 0.16252121 -0.25092563 -0.46537042
v -0.28093380 -0.25091293 -0.47885302
v -0.26853585 -0.25100183 -0.44745612
v -0.11497530 -0.35283020 -0.44745612
v -0.12110902 -0.36054102 -0.47912005
v -0.10496994 -0.35529462 -0.44746748
v -0.02745014 -0.36759126 -0.44746748
v -0.01113705 -0.37017000 -0.44746748
v -0.00500333 -0.37111002 -0.44746748
v 0.00500203 -0.37111002 -0.44746748
v 0.00965670 -0.37039864 -0.44746748
v 0.01239730 -0.36997944 -0.44746748
v 0.10248905 -0.35570112 -0.44746748
v 0.10496864 -0.35529462 -0.44746748
v 0.11493050 -0.35283020 -0.44746748
v 0.11958518 -0.35112798 -0.44746748
v 0.12110772 -0.35055634 -0.44746748
v 0.14094445 -0.34047005 -0.44746748
v 0.16252121 -0.32948184 -0.44746748
v -0.24904716 -0.25091293 -0.50550002
v 0.16252121 -0.27516320 -0.46542722
v 0.16247773 -0.31502566 -0.50546592
v 0.16247773 -0.30491397 -0.50402844
v 0.16247773 -0.29823211 -0.50136948
v -0.28189084 -0.25091293 -0.48499489
v -0.27092844 -0.26094842 -0.47886437
v -0.25853050 -0.26101193 -0.44745612
v -0.12115253 -0.35056904 -0.44745612
v -0.12663373 -0.35827985 -0.48499489
v -0.12163104 -0.36080778 -0.48499489
v -0.11497530 -0.36281487 -0.48499489
v -0.11223470 -0.36337382 -0.48499489
v -0.10496994 -0.36478385 -0.48499489
v -0.07069071 -0.37009376 -0.47978479
v -0.11497530 -0.36140484 -0.47777918
v -0.14094573 -0.35049284 -0.47920528
v -0.18070617 -0.33035836 -0.47939846
v -0.00304576 -0.38043413 -0.47919390
v 0.00300096 -0.38043413 -0.47922233
v 0.07068940 -0.37009376 -0.47978479
v 0.11493050 -0.36137941 -0.47778484
v 0.12102073 -0.36051559 -0.47911435
v 0.14094445 -0.35046741 -0.47921094
v 0.16082466 -0.34040654 -0.47930753
v 0.16252121 -0.33127299 -0.46542722
v 0.16247773 -0.33969516 -0.48105749
v -0.12498067 -0.33498231 -0.50550002
v -0.24495801 -0.25501603 -0.50550002
v -0.25905252 -0.25091293 -0.50539207
v 0.14494658 -0.32499763 -0.50549436
v 0.16247773 -0.32499763 -0.50498301
v 0.15495196 -0.32499763 -0.50548297
v -0.23138550 -0.30140790 -0.48499489
v -0.28093380 -0.25091293 -0.49289241
v -0.27092844 -0.26094842 -0.49287537
v -0.23090699 -0.30095059 -0.47886437
v -0.22472978 -0.29477686 -0.44745612
v -0.12833029 -0.34692323 -0.44745612
v -0.12110902 -0.36054102 -0.49232993
v -0.20058641 -0.32028475 -0.47949505
v -0.22033611 -0.31023657 -0.47959161
v -0.21498543 -0.31327263 -0.48499489
v -0.20058641 -0.32028475 -0.49140382
v -0.18070617 -0.33035836 -0.49165380
v -0.11523631 -0.36140484 -0.49539232
v -0.11223470 -0.36240837 -0.49231288
v -0.10496994 -0.36345002 -0.49498895
v -0.07069071 -0.37009376 -0.49062541
v -0.04502477 -0.37429851 -0.48499489
v -0.00952749 -0.37988788 -0.48499489
v -0.00452481 -0.38067549 -0.48499489
v 0.00295746 -0.38067549 -0.48499489
v 0.00452352 -0.38065007 -0.48499489
v 0.06494720 -0.37111002 -0.48499489
v 0.10496864 -0.36477116 -0.48499489
v 0.00948270 -0.37988788 -0.48499489
v 0.12158624 -0.36080778 -0.48499489
v 0.11493050 -0.36281487 -0.48499489
v 0.12658891 -0.35827985 -0.48499489
v 0.16247773 -0.34000003 -0.48499489
v 0.16247773 -0.33912352 -0.49336398
v 0.16247773 -0.33829781 -0.49638095
v 0.16247773 -0.33366117 -0.50225580
v -0.11223470 -0.34497967 -0.50550002
v -0.25496337 -0.25501603 -0.50539207
v -0.21498543 -0.28502086 -0.50550002
v -0.27084145 -0.25091293 -0.50311941
v 0.13494122 -0.33498231 -0.50549436
v 0.14494658 -0.33498231 -0.50486368
v 0.12493586 -0.34497967 -0.50489777
v -0.23090699 -0.30095059 -0.49287537
v -0.22033611 -0.31023657 -0.49114245
v -0.22555628 -0.30641294 -0.48499489
v -0.27980277 -0.25091293 -0.49621618
v -0.27888924 -0.25091293 -0.49888086
v -0.22977597 -0.29980731 -0.49955133
v -0.21964008 -0.29978189 -0.44745612
v -0.22090164 -0.29856241 -0.44745612
v -0.20415354 -0.30828029 -0.44745612
v -0.11875995 -0.35963908 -0.49898884
v -0.13920568 -0.34959090 -0.49877861
v -0.20537156 -0.30765784 -0.44745612
v -0.21463740 -0.30266550 -0.44745612
v -0.21842206 -0.30049327 -0.44745612
v -0.22055361 -0.31036362 -0.48499489
v -0.21868306 -0.30930924 -0.49780706
v -0.19880283 -0.31939554 -0.49806273
v -0.17896610 -0.32945642 -0.49831840
v -0.11223470 -0.36049020 -0.50030130
v -0.11223470 -0.36200187 -0.49527872
v -0.05894528 -0.36977619 -0.49947178
v -0.06494850 -0.36930618 -0.49757409
v -0.06494850 -0.37055108 -0.49257421
v -0.00304576 -0.38043413 -0.49215379
v 0.00295746 -0.38043413 -0.49215379
v 0.07068940 -0.37009376 -0.49062541
v 0.10496864 -0.36343732 -0.49498895
v 0.11523501 -0.36137941 -0.49539232
v 0.12102073 -0.36051559 -0.49232423
v 0.14094445 -0.35046741 -0.49210835
v 0.16082466 -0.34040654 -0.49188107
v 0.15904111 -0.33951733 -0.49854565
v 0.15234184 -0.34113061 -0.50098878
v 0.14494658 -0.34303609 -0.50211376
v -0.11497530 -0.34497967 -0.50550002
v 0.11493050 -0.34497967 -0.50549436
v 0.06494720 -0.35497704 -0.50549436
v -0.22499079 -0.28502086 -0.50539207
v -0.20498005 -0.29501823 -0.50550002
v -0.27310351 -0.25313598 -0.50168765
v -0.27393004 -0.25091293 -0.50213081
v -0.22586080 -0.29589474 -0.50311941
v 0.12493586 -0.35313508 -0.50214785
v 0.11523501 -0.35576463 -0.50248873
v 0.10496864 -0.35497704 -0.50382394
v 0.09496327 -0.35497704 -0.50445461
v -0.22503427 -0.30512992 -0.49534121
v -0.27754068 -0.25091293 -0.50025016
v -0.26975390 -0.25980511 -0.49955133
v -0.22307670 -0.30264011 -0.50168765
v -0.24308744 -0.28314078 -0.50168765
v -0.23308206 -0.29313815 -0.50168765
v -0.13254994 -0.35120422 -0.50103992
v -0.12498067 -0.35314777 -0.50214785
v -0.11223470 -0.36042666 -0.50046039
v -0.11219120 -0.36043939 -0.50046039
v -0.21202731 -0.31096065 -0.50084674
v -0.15243015 -0.34114331 -0.50098878
v -0.05228954 -0.37028432 -0.50033540
v -0.00582986 -0.37918922 -0.49529007
v 0.00582856 -0.37918922 -0.49529007
v 0.06494720 -0.36930618 -0.49757409
v 0.06494720 -0.37055108 -0.49257421
v 0.05890048 -0.36977619 -0.49947178
v 0.11205941 -0.36043939 -0.50048310
v 0.11871514 -0.35962638 -0.49898884
v 0.13916087 -0.34957820 -0.49877292
v 0.13250515 -0.35120422 -0.50102854
v -0.12498067 -0.34497967 -0.50489777
v -0.13498603 -0.33498231 -0.50550002
v -0.06494850 -0.35497704 -0.50549436
v -0.07495385 -0.35497704 -0.50534093
v -0.08495922 -0.35497704 -0.50496024
v -0.09496458 -0.35497704 -0.50445461
v 0.08495792 -0.35497704 -0.50496024
v 0.07495257 -0.35497704 -0.50534093
v 0.00500203 -0.36497441 -0.50545454
v 0.00300096 -0.36295462 -0.50546592
v -0.21498543 -0.29501823 -0.50539207
v -0.19497469 -0.30500290 -0.50546026
v -0.20498005 -0.30500290 -0.50472164
v -0.21520293 -0.30558723 -0.50262511
v 0.10496864 -0.36104915 -0.50107402
v 0.09496327 -0.36183673 -0.50170469
v 0.08495792 -0.36266243 -0.50221032
v 0.07495257 -0.36350083 -0.50259101
v 0.02501275 -0.36497441 -0.50481820
v -0.20498005 -0.31277722 -0.50197172
v -0.18496934 -0.32286349 -0.50202852
v -0.14499140 -0.34304878 -0.50211376
v -0.11523631 -0.35577732 -0.50248873
v -0.11223470 -0.36027426 -0.50056267
v -0.18496934 -0.31500027 -0.50477278
v -0.14499140 -0.33498231 -0.50486368
v -0.11206070 -0.36043939 -0.50048310
v -0.10496994 -0.36104915 -0.50107402
v -0.04502477 -0.37081784 -0.50085807
v -0.00500333 -0.37403175 -0.50270462
v -0.03501941 -0.37158003 -0.50151718
v -0.02501405 -0.37240574 -0.50206828
v -0.01500869 -0.37325686 -0.50248873
v 0.00500203 -0.37403175 -0.50270462
v 0.01500739 -0.37323144 -0.50248873
v 0.02501275 -0.37240574 -0.50206828
v 0.05224474 -0.37028432 -0.50033540
v -0.11223470 -0.35554868 -0.50289214
v -0.10496994 -0.35497704 -0.50382394
v 0.00295746 -0.36295462 -0.50546592
v -0.00500333 -0.36497441 -0.50545454
v -0.01500869 -0.36497441 -0.50523865
v -0.02501405 -0.36497441 -0.50481820
v -0.07495385 -0.36350083 -0.50259101
v 0.01500739 -0.36497441 -0.50523865
v 0.04493648 -0.37080514 -0.50085807
v 0.03493112 -0.37158003 -0.50151718
v -0.11223470 -0.35733983 -0.50207967
v -0.09496458 -0.36183673 -0.50170469
v -0.08495922 -0.36266243 -0.50221032
f 1 2 6
f 1 6 26
f 1 26 55
f 1 55 93
f 1 93 137
f 1 137 144
f 1 144 101
f 1 101 100
f 1 100 60
f 1 60 31
f 1 31 8
f 1 8 3
f 1 3 9
f 1 9 33
f 1 33 63
f 1 63 104
f 1 104 103
f 1 103 110
f 1 110 109
f 1 109 108
f 1 108 105
f 1 105 64
f 1 64 34
f 1 34 10
f 1 10 4
f 1 4 25
f 1 25 5
f 1 5 7
f 1 7 2
f 2 7 6
f 3 8 9
f 4 10 11
f 4 11 12
f 4 12 13
f 4 13 14
f 4 14 15
f 4 15 16
f 4 16 17
f 4 17 18
f 4 18 19
f 4 19 20
f 4 20 21
f 4 21 22
f 4 22 23
f 4 23 24
f 4 24 25
f 5 25 51
f 5 51 27
f 5 27 7
f 6 7 26
f 7 27 28
f 7 28 29
f 7 29 30
f 7 30 26
f 8 31 32
f 8 32 9
f 9 32 33
f 10 34 11
f 11 35 36
f 11 36 37
f 11 37 38
f 11 38 39
f 11 39 40
f 11 40 41
f 11 41 12
f 11 34 42
f 11 42 43
f 11 43 35
f 12 40 13
f 12 41 40
f 13 40 14
f 14 44 15
f 14 40 44
f 15 44 16
f 16 44 45
f 16 45 17
f 17 45 18
f 18 45 46
f 18 46 19
f 19 46 20
f 20 47 48
f 20 48 21
f 20 46 47
f 21 48 22
f 22 48 23
f 23 48 49
f 23 49 50
f 23 50 24
f 24 50 25
f 25 50 52
f 25 52 51
f 26 53 90
f 26 90 131
f 26 131 166
f 26 166 135
f 26 135 92
f 26 92 54
f 26 54 91
f 26 91 55
f 26 30 29
f 26 29 28
f 26 28 56
f 26 56 53
f 27 51 28
f 28 51 57
f 28 57 58
f 28 58 56
f 31 59 32
f 31 60 61
f 31 61 59
f 32 59 62
f 32 62 33
f 33 62 63
f 34 64 43
f 34 43 42
f 35 65 36
f 35 43 66
f 35 66 67
f 35 67 68
f 35 68 69
f 35 69 70
f 35 70 65
f 36 65 37
f 37 65 71
f 37 71 38
f 38 71 72
f 38 72 39
f 39 73 74
f 39 74 75
f 39 75 40
f 39 72 73
f 40 75 76
f 40 76 77
f 40 77 44
f 43 64 66
f 44 77 78
f 44 78 45
f 45 78 79
f 45 79 46
f 46 80 81
f 46 81 47
f 46 79 82
f 46 82 80
f 47 81 48
f 48 83 49
f 48 81 84
f 48 84 83
f 49 85 50
f 49 83 85
f 50 86 52
f 50 85 86
f 51 52 86
f 51 86 87
f 51 87 88
f 51 88 89
f 51 89 57
f 53 56 90
f 54 92 134
f 54 134 91
f 55 91 93
f 56 58 94
f 56 94 90
f 57 89 95
f 57 95 58
f 58 95 96
f 58 96 94
f 59 97 98
f 59 98 99
f 59 99 67
f 59 67 62
f 59 61 97
f 60 100 61
f 61 100 101
f 61 101 102
f 61 102 97
f 62 67 103
f 62 103 104
f 62 104 63
f 64 105 66
f 65 106 71
f 65 70 107
f 65 107 106
f 66 105 67
f 67 105 108
f 67 108 109
f 67 109 110
f 67 110 103
f 67 99 111
f 67 111 68
f 68 111 98
f 68 98 69
f 69 98 112
f 69 112 113
f 69 113 114
f 69 114 70
f 70 114 107
f 71 106 115
f 71 115 116
f 71 116 73
f 71 73 72
f 73 117 118
f 73 118 119
f 73 119 74
f 73 116 115
f 73 115 117
f 74 119 120
f 74 120 77
f 74 77 76
f 74 76 75
f 77 120 121
f 77 121 78
f 78 121 79
f 79 121 82
f 80 122 81
f 80 82 122
f 81 122 123
f 81 123 124
f 81 124 84
f 82 121 122
f 83 84 125
f 83 125 126
f 83 126 85
f 84 124 125
f 85 126 127
f 85 127 86
f 86 127 87
f 87 127 88
f 88 127 128
f 88 128 89
f 89 128 129
f 89 129 130
f 89 130 95
f 90 94 132
f 90 132 133
f 90 133 167
f 90 167 131
f 91 134 93
f 92 135 175
f 92 175 134
f 93 136 137
f 93 134 138
f 93 138 136
f 94 96 132
f 95 130 139
f 95 139 96
f 96 139 140
f 96 140 141
f 96 141 142
f 96 142 132
f 97 102 143
f 97 143 98
f 98 111 99
f 98 143 112
f 101 144 145
f 101 145 102
f 102 146 112
f 102 112 143
f 102 145 136
f 102 136 147
f 102 147 148
f 102 148 146
f 106 107 149
f 106 149 150
f 106 150 151
f 106 151 152
f 106 152 115
f 107 114 153
f 107 153 154
f 107 154 149
f 112 146 153
f 112 153 113
f 113 153 114
f 115 152 117
f 117 155 156
f 117 156 120
f 117 120 118
f 117 152 155
f 118 120 119
f 120 156 157
f 120 157 121
f 121 157 158
f 121 158 159
f 121 159 122
f 122 159 123
f 123 159 158
f 123 158 160
f 123 160 161
f 123 161 124
f 124 161 162
f 124 162 125
f 125 162 163
f 125 163 126
f 126 163 128
f 126 128 127
f 128 163 129
f 129 163 164
f 129 164 130
f 130 164 139
f 131 165 166
f 131 167 168
f 131 168 169
f 131 169 170
f 131 170 165
f 132 142 171
f 132 171 172
f 132 172 133
f 133 172 173
f 133 173 174
f 133 174 204
f 133 204 167
f 134 175 138
f 135 176 175
f 135 166 176
f 136 145 144
f 136 144 137
f 136 138 147
f 138 175 177
f 138 177 178
f 138 178 146
f 138 146 148
f 138 148 147
f 139 164 162
f 139 162 161
f 139 161 140
f 140 161 179
f 140 179 180
f 140 180 141
f 141 180 181
f 141 181 182
f 141 182 142
f 142 182 183
f 142 183 171
f 146 178 153
f 149 154 184
f 149 184 185
f 149 185 186
f 149 186 150
f 150 165 187
f 150 187 188
f 150 188 151
f 150 186 177
f 150 177 189
f 150 189 190
f 150 190 165
f 151 188 152
f 152 188 191
f 152 191 192
f 152 192 155
f 153 178 184
f 153 184 154
f 155 192 193
f 155 193 156
f 156 194 198
f 156 198 157
f 156 193 195
f 156 195 196
f 156 196 197
f 156 197 194
f 157 198 199
f 157 199 200
f 157 200 201
f 157 201 160
f 157 160 158
f 160 201 161
f 161 201 179
f 162 164 163
f 165 202 187
f 165 190 176
f 165 176 166
f 165 170 203
f 165 203 202
f 167 204 205
f 167 205 168
f 168 205 206
f 168 206 169
f 169 206 207
f 169 207 170
f 170 207 208
f 170 208 203
f 171 183 209
f 171 209 172
f 172 209 173
f 173 198 194
f 173 194 205
f 173 205 204
f 173 204 174
f 173 209 198
f 175 176 177
f 176 190 189
f 176 189 177
f 177 184 178
f 177 186 185
f 177 185 184
f 179 201 210
f 179 210 211
f 179 211 180
f 180 211 200
f 180 200 181
f 181 200 199
f 181 199 182
f 182 199 183
f 183 199 198
f 183 198 209
f 187 202 212
f 187 212 188
f 188 212 192
f 188 192 191
f 192 213 195
f 192 195 193
f 192 212 213
f 194 197 207
f 194 207 206
f 194 206 205
f 195 213 196
f 196 213 214
f 196 214 197
f 197 214 208
f 197 208 207
f 200 211 201
f 201 211 210
f 202 203 213
f 202 213 212
f 203 208 214
f 203 214 213

