# https://github.com/mikedh/trimesh
v 0.00453610 0.38068321 -0.48500213
v 0.00953107 0.37991861 -0.48500213
v 0.00301702 0.38045207 -0.49216360
v -0.00450118 0.38068321 -0.48500213
v 0.00301702 0.38045207 -0.47919622
v 0.07073228 0.37011212 -0.47978449
v 0.04498503 0.37430856 -0.48500213
v 0.07073228 0.37011212 -0.49063632
v 0.00582347 0.37920734 -0.49529493
v -0.00300784 0.38045207 -0.49216360
v 0.06499064 0.37056553 -0.49258745
v 0.06499064 0.36932084 -0.49758953
v 0.05894004 0.36979204 -0.49948218
v -0.00949615 0.37991861 -0.48500213
v -0.00300784 0.38045207 -0.47919622
v 0.00525703 0.37405071 -0.46817267
v 0.07487759 0.36309731 -0.46817267
v 0.10497612 0.36240384 -0.47631335
v 0.11499180 0.36140808 -0.47778586
v 0.10497612 0.36480433 -0.48500213
v 0.07109274 0.37017435 -0.48500213
v 0.10497612 0.36347073 -0.49499896
v 0.03499510 0.37159687 -0.50152832
v 0.02500517 0.37241483 -0.50207639
v 0.01501524 0.37325943 -0.50249660
v 0.00502530 0.37404183 -0.50270849
v -0.00578854 0.37920734 -0.49529493
v 0.05227150 0.37030771 -0.50034451
v -0.05893086 0.36979204 -0.49947855
v -0.06498148 0.36932084 -0.49758586
v -0.06498148 0.37056553 -0.49258745
v -0.07072310 0.37011212 -0.49063632
v 0.11210811 0.36045676 -0.50049794
v -0.04497586 0.37430856 -0.48500213
v -0.07072310 0.37011212 -0.47978449
v -0.00522210 0.37405071 -0.46817267
v -0.07486841 0.36309731 -0.46817267
v 0.09462573 0.35973662 -0.46817267
v 0.10906994 0.35717607 -0.46817267
v 0.11499180 0.35578024 -0.46817267
v 0.12109390 0.36054567 -0.47911948
v 0.11499180 0.36283058 -0.48500213
v 0.11524928 0.36140808 -0.49540088
v 0.04498503 0.37083226 -0.50086701
v 0.10497612 0.36107022 -0.50108624
v 0.09498619 0.36185262 -0.50171101
v 0.08499625 0.36267945 -0.50222254
v 0.07498058 0.36352408 -0.50259525
v 0.03499510 0.36499995 -0.50427598
v 0.02500517 0.36499995 -0.50482404
v 0.01501524 0.36499995 -0.50524426
v 0.00502530 0.36499995 -0.50545985
v -0.00499038 0.37404183 -0.50270849
v -0.01498031 0.37325943 -0.50249660
v -0.02499599 0.37241483 -0.50207639
v -0.03498593 0.37159687 -0.50152469
v -0.05226232 0.37030771 -0.50034451
v -0.10051267 0.36141697 -0.50136757
v -0.10051267 0.36418200 -0.49499896
v -0.10051267 0.36550671 -0.48500213
v -0.07108356 0.37017435 -0.48500213
v 0.11875090 0.35964769 -0.49900353
v 0.12498173 0.35314858 -0.50215310
v 0.11524928 0.35578912 -0.50249660
v -0.10051267 0.36418200 -0.48021197
v -0.10051267 0.36251053 -0.47544011
v -0.10051267 0.35843855 -0.46817267
v 0.11833894 0.35460666 -0.46817267
v 0.12351415 0.35263291 -0.46817267
v 0.14097078 0.35049024 -0.47921449
v 0.12163459 0.36082128 -0.48500213
v 0.12109390 0.36054567 -0.49233532
v 0.10497612 0.35499784 -0.50383389
v 0.09498619 0.35499784 -0.50446236
v 0.08499625 0.35499784 -0.50497019
v 0.07498058 0.35499784 -0.50534654
v -0.00499038 0.36499995 -0.50545985
v 0.06499064 0.35499784 -0.50550002
v -0.01498031 0.36499995 -0.50524426
v -0.02499599 0.36499995 -0.50482404
v -0.07499714 0.36352408 -0.50259525
v -0.08498709 0.36267945 -0.50222254
v -0.09497701 0.36185262 -0.50171101
v -0.04497586 0.37083226 -0.50086701
v -0.10051267 0.35499784 -0.50411522
v 0.13919422 0.34959227 -0.49878797
v 0.13252568 0.35121927 -0.50103873
v 0.14498734 0.34305757 -0.50212026
v 0.16252123 0.32778326 -0.50429791
v 0.14498734 0.33500254 -0.50487155
v 0.12498173 0.34499574 -0.50490445
v -0.10051267 0.32012832 -0.46817267
v 0.16252123 0.33276209 -0.46817267
v 0.16084766 0.34042591 -0.47930950
v 0.12662956 0.35828742 -0.48500213
v 0.16084766 0.34042591 -0.49189323
v 0.14097078 0.35049024 -0.49211976
v 0.11499180 0.34499574 -0.50550002
v -0.06498148 0.35499784 -0.50550002
v -0.07499714 0.35499784 -0.50534654
v -0.08498709 0.35499784 -0.50497019
v -0.09497701 0.35499784 -0.50446236
v -0.10051267 0.34499574 -0.50550002
v 0.15907110 0.33952793 -0.49856144
v 0.15240255 0.34115493 -0.50099486
v 0.16252123 0.33368671 -0.50226271
v 0.16252123 0.32500046 -0.50499213
v 0.15497728 0.32500046 -0.50548905
v 0.13499741 0.33500254 -0.50550002
v 0.16252123 0.28985533 -0.46817267
v -0.10051267 0.32444924 -0.49499896
v 0.16252123 0.33826545 -0.47754470
v 0.16252123 0.34001693 -0.48500213
v 0.13499741 0.35403764 -0.48500213
v 0.16252123 0.33971465 -0.48977402
v 0.16252123 0.33914563 -0.49337301
v -0.10051267 0.33500254 -0.50450981
v 0.14498734 0.32500046 -0.50550002
v 0.16252123 0.31747890 -0.50549638
v 0.16252123 0.31500727 -0.50547081
v 0.16252123 0.30748570 -0.50475097
v 0.16252123 0.33831879 -0.49639106
v 0.16252123 0.33571380 -0.50060391
v 0.16252123 0.29472744 -0.49419513
v -0.10051267 0.32790774 -0.50176215
v 0.16252123 0.29582992 -0.49715105
v 0.16252123 0.30488959 -0.50403851
v 0.16252123 0.29929730 -0.50197411
v 0.16252123 0.29819486 -0.50137484
f 1 2 3
f 1 3 10
f 1 10 4
f 1 4 15
f 1 15 5
f 1 5 2
f 2 5 6
f 2 6 7
f 2 7 8
f 2 8 3
f 3 9 27
f 3 27 10
f 3 8 11
f 3 11 12
f 3 12 13
f 3 13 9
f 4 10 14
f 4 14 15
f 5 15 36
f 5 36 16
f 5 16 17
f 5 17 6
f 6 17 18
f 6 18 19
f 6 19 20
f 6 20 21
f 6 21 7
f 7 21 8
f 8 21 20
f 8 20 22
f 8 22 11
f 9 23 24
f 9 24 25
f 9 25 26
f 9 26 53
f 9 53 27
f 9 13 28
f 9 28 23
f 10 27 29
f 10 29 30
f 10 30 31
f 10 31 32
f 10 32 14
f 11 22 12
f 12 22 13
f 13 22 33
f 13 33 28
f 14 32 34
f 14 34 35
f 14 35 15
f 15 35 37
f 15 37 36
f 16 36 37
f 16 37 67
f 16 67 92
f 16 92 110
f 16 110 93
f 16 93 69
f 16 69 68
f 16 68 40
f 16 40 39
f 16 39 38
f 16 38 17
f 17 38 18
f 18 38 39
f 18 39 19
f 19 39 40
f 19 40 41
f 19 41 20
f 20 41 42
f 20 42 43
f 20 43 22
f 22 43 33
f 23 28 44
f 23 44 45
f 23 45 46
f 23 46 24
f 24 46 47
f 24 47 25
f 25 47 48
f 25 48 49
f 25 49 50
f 25 50 26
f 26 50 51
f 26 51 52
f 26 52 77
f 26 77 53
f 27 53 54
f 27 54 55
f 27 55 56
f 27 56 57
f 27 57 29
f 28 33 45
f 28 45 44
f 29 57 58
f 29 58 59
f 29 59 30
f 30 59 31
f 31 59 32
f 32 59 60
f 32 60 61
f 32 61 34
f 33 43 62
f 33 62 63
f 33 63 64
f 33 64 45
f 34 61 35
f 35 61 60
f 35 60 65
f 35 65 66
f 35 66 37
f 37 66 67
f 40 68 41
f 41 68 69
f 41 69 70
f 41 70 71
f 41 71 42
f 42 71 72
f 42 72 43
f 43 72 62
f 45 64 46
f 46 64 73
f 46 73 47
f 47 73 48
f 48 73 74
f 48 74 49
f 49 74 50
f 50 74 75
f 50 75 51
f 51 75 76
f 51 76 52
f 52 76 78
f 52 78 99
f 52 99 77
f 53 77 79
f 53 79 80
f 53 80 54
f 54 80 81
f 54 81 82
f 54 82 55
f 55 82 83
f 55 83 56
f 56 83 58
f 56 58 84
f 56 84 57
f 57 84 58
f 58 83 85
f 58 85 103
f 58 103 117
f 58 117 125
f 58 125 111
f 58 111 92
f 58 92 67
f 58 67 66
f 58 66 65
f 58 65 60
f 58 60 59
f 62 72 86
f 62 86 87
f 62 87 63
f 63 87 88
f 63 88 89
f 63 89 90
f 63 90 91
f 63 91 64
f 64 91 73
f 69 93 94
f 69 94 70
f 70 94 71
f 71 94 95
f 71 95 96
f 71 96 97
f 71 97 72
f 72 97 86
f 73 91 74
f 74 91 98
f 74 98 75
f 75 98 76
f 76 98 78
f 77 99 100
f 77 100 79
f 78 98 109
f 78 109 118
f 78 118 103
f 78 103 99
f 79 100 101
f 79 101 80
f 80 101 102
f 80 102 81
f 81 102 85
f 81 85 82
f 82 85 83
f 85 102 103
f 86 97 96
f 86 96 104
f 86 104 105
f 86 105 87
f 87 105 88
f 88 105 106
f 88 106 89
f 89 106 123
f 89 123 122
f 89 122 116
f 89 116 115
f 89 115 113
f 89 113 112
f 89 112 93
f 89 93 110
f 89 110 124
f 89 124 126
f 89 126 129
f 89 129 128
f 89 128 127
f 89 127 121
f 89 121 120
f 89 120 119
f 89 119 107
f 89 107 90
f 90 107 108
f 90 108 91
f 91 108 109
f 91 109 98
f 92 111 110
f 93 112 94
f 94 112 113
f 94 113 114
f 94 114 95
f 95 114 96
f 96 115 116
f 96 116 104
f 96 114 115
f 99 103 100
f 100 103 101
f 101 103 102
f 103 118 119
f 103 119 120
f 103 120 121
f 103 121 117
f 104 116 122
f 104 122 123
f 104 123 105
f 105 123 106
f 107 119 108
f 108 119 109
f 109 119 118
f 110 111 124
f 111 125 126
f 111 126 124
f 113 115 114
f 117 121 127
f 117 127 128
f 117 128 125
f 125 128 129
f 125 129 126

