# https://github.com/mikedh/trimesh
v 0.31586862 0.00000000 0.50000000
v 0.30974665 0.06159061 0.50000000
v 0.30974665 -0.06159061 0.50000000
v 0.31586862 0.00000000 -0.50000000
v 0.30974665 0.06159061 -0.50000000
v 0.29181361 0.12083138 0.50000000
v 0.29181361 -0.12083138 0.50000000
v 0.30974665 -0.06159061 -0.50000000
v 0.29181361 0.12083138 -0.50000000
v 0.26262608 0.17543431 0.50000000
v 0.26262608 -0.17543431 0.50000000
v 0.29181361 -0.12083138 -0.50000000
v 0.26262608 0.17543431 -0.50000000
v 0.22329709 0.22329688 0.50000000
v 0.22329709 -0.22329688 0.50000000
v 0.26262608 -0.17543431 -0.50000000
v 0.22329709 0.22329688 -0.50000000
v 0.17543447 0.26262584 0.50000000
v 0.17543447 -0.26262584 0.50000000
v 0.22329709 -0.22329688 -0.50000000
v 0.17543447 0.26262584 -0.50000000
v 0.12083150 0.29181334 0.50000000
v 0.12083150 -0.29181334 0.50000000
v 0.17543447 -0.26262584 -0.50000000
v 0.12083150 0.29181334 -0.50000000
v 0.06159067 0.30974635 0.50000000
v 0.06159067 -0.30974635 0.50000000
v 0.12083150 -0.29181334 -0.50000000
v 0.06159067 0.30974635 -0.50000000
v 0.00000000 0.31586832 0.50000000
v 0.00000000 -0.31586832 0.50000000
v 0.06159067 -0.30974635 -0.50000000
v 0.00000000 0.31586832 -0.50000000
v -0.06159067 0.30974635 0.50000000
v -0.06159067 -0.30974635 0.50000000
v -0.06159067 -0.30974635 -0.50000000
v 0.00000000 -0.31580648 -0.50000000
v -0.06159067 0.30974635 -0.50000000
v -0.12083150 0.29181334 0.50000000
v -0.12083150 -0.29181334 0.50000000
v -0.12083150 -0.29181334 -0.50000000
v -0.12083150 0.29181334 -0.50000000
v -0.17543447 0.26262584 0.50000000
v -0.17543447 -0.26262584 0.50000000
v -0.17543447 -0.26262584 -0.50000000
v -0.17543447 0.26262584 -0.50000000
v -0.22329709 0.22329688 0.50000000
v -0.22329709 -0.22329688 0.50000000
v -0.22329709 -0.22329688 -0.50000000
v -0.22329709 0.22329688 -0.50000000
v -0.26262608 0.17543431 0.50000000
v -0.26262608 -0.17543431 0.50000000
v -0.26262608 -0.17543431 -0.50000000
v -0.26262608 0.17543431 -0.50000000
v -0.29181361 0.12083138 0.50000000
v -0.29181361 -0.12083138 0.50000000
v -0.29181361 -0.12083138 -0.50000000
v -0.29181361 0.12083138 -0.50000000
v -0.30974665 0.06159061 0.50000000
v -0.30974665 -0.06159061 0.50000000
v -0.30974665 -0.06159061 -0.50000000
v -0.30974665 0.06159061 -0.50000000
v -0.31586862 0.00000000 0.50000000
v -0.31586862 0.00000000 -0.50000000
f 1 2 6
f 1 6 10
f 1 10 14
f 1 14 18
f 1 18 22
f 1 22 26
f 1 26 30
f 1 30 34
f 1 34 39
f 1 39 43
f 1 43 47
f 1 47 51
f 1 51 55
f 1 55 59
f 1 59 63
f 1 63 60
f 1 60 56
f 1 56 52
f 1 52 48
f 1 48 44
f 1 44 40
f 1 40 35
f 1 35 31
f 1 31 27
f 1 27 23
f 1 23 19
f 1 19 15
f 1 15 11
f 1 11 7
f 1 7 3
f 1 3 8
f 1 8 4
f 1 4 5
f 1 5 2
f 2 5 9
f 2 9 6
f 3 7 12
f 3 12 8
f 4 8 12
f 4 12 16
f 4 16 20
f 4 20 24
f 4 24 28
f 4 28 32
f 4 32 37
f 4 37 36
f 4 36 41
f 4 41 45
f 4 45 49
f 4 49 53
f 4 53 57
f 4 57 61
f 4 61 64
f 4 64 62
f 4 62 58
f 4 58 54
f 4 54 50
f 4 50 46
f 4 46 42
f 4 42 38
f 4 38 33
f 4 33 29
f 4 29 25
f 4 25 21
f 4 21 17
f 4 17 13
f 4 13 9
f 4 9 5
f 6 9 13
f 6 13 10
f 7 11 16
f 7 16 12
f 10 13 17
f 10 17 14
f 11 15 20
f 11 20 16
f 14 17 21
f 14 21 18
f 15 19 24
f 15 24 20
f 18 21 25
f 18 25 22
f 19 23 28
f 19 28 24
f 22 25 29
f 22 29 26
f 23 27 32
f 23 32 28
f 26 29 33
f 26 33 30
f 27 31 32
f 30 33 38
f 30 38 34
f 31 35 36
f 31 36 37
f 31 37 32
f 34 38 42
f 34 42 39
f 35 40 41
f 35 41 36
f 39 42 46
f 39 46 43
f 40 44 45
f 40 45 41
f 43 46 50
f 43 50 47
f 44 48 49
f 44 49 45
f 47 50 54
f 47 54 51
f 48 52 53
f 48 53 49
f 51 54 58
f 51 58 55
f 52 56 57
f 52 57 53
f 55 58 62
f 55 62 59
f 56 60 61
f 56 61 57
f 59 62 64
f 59 64 63
f 60 63 64
f 60 64 61

