# https://github.com/mikedh/trimesh
v 0.00000000 0.46989346 0.49563164
v 0.00000000 0.46989346 0.47999173
v -0.04599584 0.46759364 0.49563164
v -0.04562787 0.46409798 0.49924758
v 0.00000000 0.46630576 0.49924758
v 0.04562787 0.46409798 0.49924758
v 0.04599584 0.46759364 0.49563164
v 0.00000000 0.46179816 0.42537260
v -0.04525990 0.45959038 0.42537260
v -0.04599584 0.46759364 0.47999173
v 0.04599584 0.46759364 0.47999173
v 0.04525990 0.45959038 0.42537260
v -0.09162370 0.46078625 0.49563164
v -0.09153172 0.46041831 0.49609184
v -0.09097976 0.45738259 0.49924758
v -0.04562787 0.46363801 0.49970779
v 0.00000000 0.46584579 0.49970779
v 0.04562787 0.46363801 0.49970779
v 0.09097976 0.45738259 0.49924758
v 0.09153172 0.46041831 0.49609184
v 0.09162370 0.46078625 0.49563164
v -0.08702412 0.45333496 0.42537260
v -0.09162370 0.46078625 0.47999173
v 0.09162370 0.46078625 0.47999173
v 0.09005985 0.45287499 0.42537260
v -0.13633166 0.44965526 0.49563164
v -0.09088777 0.45692262 0.49970779
v -0.13531975 0.44625157 0.49924758
v -0.04544389 0.46225813 0.49975163
v 0.00000000 0.45683062 0.49999270
v 0.00000000 0.46446595 0.49975163
v 0.04544389 0.46225813 0.49975163
v 0.09088777 0.45692262 0.49970779
v 0.13531975 0.44625157 0.49924758
v 0.13633166 0.44965526 0.49563164
v -0.09005985 0.45287499 0.42537260
v -0.13403186 0.44192797 0.42537260
v -0.13633166 0.44965526 0.47999173
v 0.13633166 0.44965526 0.47999173
v 0.13403186 0.44192797 0.42537260
v -0.17975172 0.43410867 0.49563164
v -0.17827986 0.43042901 0.49970779
v -0.13256000 0.43714440 0.49999270
v -0.08932392 0.44937930 0.49994886
v -0.04470795 0.45462283 0.49999270
v -0.13522775 0.44579163 0.49970779
v -0.13476780 0.44450375 0.49975163
v 0.37983361 -0.25380492 0.50000000
v 0.04470795 0.45462283 0.49999270
v -0.37983361 -0.25380492 0.50000000
v 0.08932392 0.44937930 0.49994886
v 0.13256000 0.43714440 0.49999270
v 0.13476780 0.44450375 0.49975163
v 0.13522775 0.44579163 0.49970779
v 0.17827986 0.43042901 0.49970779
v 0.17975172 0.43410867 0.49563164
v -0.17671600 0.42665735 0.42537260
v -0.17975172 0.43410867 0.47999173
v 0.17975172 0.43410867 0.47999173
v 0.17671600 0.42665735 0.42537260
v -0.22142395 0.41433048 0.49563164
v -0.22123997 0.41396251 0.49609184
v -0.21976811 0.41129476 0.49924758
v -0.17533612 0.42334566 0.49994886
v -0.21958412 0.41083479 0.49970779
v -0.21894018 0.40963891 0.49975163
v -0.21599644 0.40411940 0.49994886
v -0.08904794 0.44799942 0.49999270
v -0.17478417 0.42205778 0.49999270
v 0.35306403 -0.28977367 0.50000000
v 0.35416794 -0.29069358 0.49995616
v 0.36014739 -0.29556912 0.49970779
v 0.38737693 -0.25877246 0.49970779
v 0.40411940 -0.21599635 0.49995616
v 0.40283152 -0.21535240 0.49999270
v 0.42205778 -0.17478409 0.49999270
v 0.43714443 -0.13255991 0.49999270
v 0.44799945 -0.08904786 0.49999270
v 0.45462283 -0.04470789 0.49999270
v 0.45683065 0.00000006 0.49999270
v 0.45462283 0.04470801 0.49999270
v 0.44799945 0.08904798 0.49999270
v 0.43714443 0.13256003 0.49999270
v 0.42205778 0.17478421 0.49999270
v 0.40283152 0.21535252 0.49999270
v 0.37983361 0.25380504 0.49999270
v 0.35306403 0.28977379 0.49999270
v 0.32298276 0.32298276 0.49999270
v 0.28977376 0.35306403 0.49999270
v 0.25380501 0.37983361 0.49999270
v 0.21535251 0.40283152 0.49999270
v 0.17478417 0.42205778 0.49999270
v 0.08904794 0.44799942 0.49999270
v -0.21535251 0.40283152 0.49999270
v -0.25380501 0.37983361 0.49999270
v -0.28977376 0.35306403 0.49999270
v -0.32298276 0.32298276 0.49999270
v -0.35306403 0.28977379 0.49999270
v -0.37983361 0.25380504 0.49999270
v -0.40283152 0.21535252 0.49999270
v -0.42205778 0.17478421 0.49999270
v -0.43714443 0.13256003 0.49999270
v -0.44799945 0.08904798 0.49999270
v -0.45462283 0.04470801 0.49999270
v -0.45683065 0.00000006 0.49999270
v -0.45462283 -0.04470789 0.49999270
v -0.44799945 -0.08904786 0.49999270
v -0.43714443 -0.13255991 0.49999270
v -0.42205778 -0.17478409 0.49999270
v -0.40283152 -0.21535240 0.49999270
v -0.40411940 -0.21599635 0.49995616
v -0.38737693 -0.25877246 0.49970779
v -0.36014739 -0.29556912 0.49970779
v -0.35416794 -0.29069358 0.49995616
v -0.35306403 -0.28977367 0.50000000
v 0.17533612 0.42334566 0.49994886
v 0.21599644 0.40411940 0.49994886
v 0.21894018 0.40963891 0.49975163
v 0.21958412 0.41083479 0.49970779
v 0.21976811 0.41129476 0.49924758
v 0.22123997 0.41396251 0.49609184
v 0.22142395 0.41433048 0.49563164
v -0.21765229 0.40724713 0.42537260
v -0.22142395 0.41433048 0.47999173
v 0.22142395 0.41433048 0.47999173
v 0.21765229 0.40724713 0.42537260
v -0.26098037 0.39068863 0.49563164
v -0.26079640 0.39032066 0.49609184
v -0.25904855 0.38774490 0.49924758
v -0.25877258 0.38737693 0.49970779
v 0.32298276 -0.32298264 0.50000000
v 0.32399467 -0.32399455 0.49995616
v 0.36051536 -0.29584512 0.49924758
v 0.32942218 -0.32942206 0.49970779
v 0.38774490 -0.25904843 0.49924758
v 0.41129476 -0.21976800 0.49924758
v 0.41083479 -0.21958402 0.49970779
v 0.43042904 -0.17827977 0.49970779
v 0.42334569 -0.17533603 0.49995616
v 0.43843231 -0.13301988 0.49995616
v 0.44937932 -0.08932384 0.49995616
v 0.45600271 -0.04489187 0.49995616
v 0.45821053 0.00000006 0.49995616
v 0.45600271 0.04489199 0.49995616
v 0.44937932 0.08932396 0.49995616
v 0.43843231 0.13302000 0.49995616
v 0.42334569 0.17533615 0.49995616
v 0.40411940 0.21599647 0.49995616
v 0.38737693 0.25877258 0.49970779
v 0.36014739 0.29556924 0.49970779
v 0.35416794 0.29069370 0.49994886
v 0.32399467 0.32399467 0.49994886
v 0.29069367 0.35416794 0.49994886
v 0.25877258 0.38737693 0.49970779
v 0.29556924 0.36014739 0.49970779
v -0.29556924 0.36014739 0.49970779
v -0.29069367 0.35416794 0.49994886
v -0.32399467 0.32399467 0.49994886
v -0.35416794 0.29069370 0.49994886
v -0.38737693 0.25877258 0.49970779
v -0.40411940 0.21599647 0.49995616
v -0.36014739 0.29556924 0.49970779
v -0.42334569 0.17533615 0.49995616
v -0.43843231 0.13302000 0.49995616
v -0.44937932 0.08932396 0.49995616
v -0.45600271 0.04489199 0.49995616
v -0.45821053 0.00000006 0.49995616
v -0.45600271 -0.04489187 0.49995616
v -0.44937932 -0.08932384 0.49995616
v -0.43843231 -0.13301988 0.49995616
v -0.42334569 -0.17533603 0.49995616
v -0.43042904 -0.17827977 0.49970779
v -0.41083479 -0.21958402 0.49970779
v -0.41129476 -0.21976800 0.49924758
v -0.38774490 -0.25904843 0.49924758
v -0.36051536 -0.29584512 0.49924758
v -0.32942218 -0.32942206 0.49970779
v -0.32399467 -0.32399455 0.49995616
v -0.32298276 -0.32298264 0.50000000
v 0.25904855 0.38774490 0.49924758
v 0.26079640 0.39032066 0.49609184
v 0.26098037 0.39068863 0.49563164
v -0.25656477 0.38397324 0.42537260
v -0.26098037 0.39068863 0.47999173
v 0.26098037 0.39068863 0.47999173
v 0.22032005 0.40568328 0.42537260
v -0.29805303 0.36318311 0.49563164
v -0.29584521 0.36051536 0.49924758
v 0.28977376 -0.35306391 0.50000000
v 0.29069367 -0.35416782 0.49995616
v 0.29556924 -0.36014727 0.49970779
v 0.33190596 -0.33190584 0.49609184
v 0.36318311 -0.29805291 0.49563164
v 0.39032066 -0.26079628 0.49609184
v 0.29584521 -0.36051524 0.49924758
v 0.41396251 -0.22123988 0.49609184
v 0.43410870 -0.17975163 0.49563164
v 0.44625160 -0.13531967 0.49924758
v 0.44579163 -0.13522768 0.49970779
v 0.44965529 -0.13633157 0.49563164
v 0.45692262 -0.09088770 0.49970779
v 0.46363801 -0.04562780 0.49970779
v 0.46584582 0.00000006 0.49970779
v 0.46363801 0.04562792 0.49970779
v 0.45692262 0.09088781 0.49970779
v 0.44579163 0.13522780 0.49970779
v 0.43042904 0.17827989 0.49970779
v 0.41083479 0.21958414 0.49970779
v 0.41129476 0.21976812 0.49924758
v 0.38774490 0.25904855 0.49924758
v 0.36051536 0.29584524 0.49924758
v 0.32942218 0.32942218 0.49970779
v 0.29584521 0.36051536 0.49924758
v -0.32942218 0.32942218 0.49970779
v -0.38774490 0.25904855 0.49924758
v -0.41129476 0.21976812 0.49924758
v -0.41083479 0.21958414 0.49970779
v -0.43042904 0.17827989 0.49970779
v -0.36051536 0.29584524 0.49924758
v -0.44579163 0.13522780 0.49970779
v -0.45692262 0.09088781 0.49970779
v -0.46363801 0.04562792 0.49970779
v -0.46584582 0.00000006 0.49970779
v -0.46363801 -0.04562780 0.49970779
v -0.45692262 -0.09088770 0.49970779
v -0.44579163 -0.13522768 0.49970779
v -0.44625160 -0.13531967 0.49924758
v -0.44965529 -0.13633157 0.49563164
v -0.43410870 -0.17975163 0.49563164
v -0.41396251 -0.22123988 0.49609184
v -0.39032066 -0.26079628 0.49609184
v -0.36318311 -0.29805291 0.49563164
v -0.33190596 -0.33190584 0.49609184
v -0.29584521 -0.36051524 0.49924758
v -0.29556924 -0.36014727 0.49970779
v -0.29069367 -0.35416782 0.49995616
v -0.28977376 -0.35306391 0.50000000
v 0.29805303 0.36318311 0.49563164
v -0.29050970 0.35876751 0.42537260
v -0.29805303 0.36318311 0.47999173
v 0.25904855 0.38213339 0.42537260
v 0.25656477 0.38397324 0.42537260
v 0.29805303 0.36318311 0.47999173
v -0.33218193 0.33218193 0.49563164
v -0.33190596 0.33190596 0.49609184
v 0.25380501 -0.37983349 0.50000000
v 0.25877258 -0.38737682 0.49970779
v 0.29805303 -0.36318299 0.49563164
v 0.33218193 -0.33218181 0.49563164
v 0.36318311 -0.29805291 0.47999173
v 0.39068863 -0.26098028 0.49563164
v 0.25904855 -0.38774478 0.49924758
v 0.26079640 -0.39032054 0.49609184
v 0.41433048 -0.22142386 0.49563164
v 0.43410870 -0.17975163 0.47999173
v 0.45738259 -0.09097969 0.49924758
v 0.44965529 -0.13633157 0.47999173
v 0.46078628 -0.09162363 0.49563164
v 0.46041831 -0.09153164 0.49609184
v 0.46409798 -0.04562780 0.49924758
v 0.46630579 0.00000006 0.49924758
v 0.46409798 0.04562792 0.49924758
v 0.45738259 0.09097981 0.49924758
v 0.44625160 0.13531978 0.49924758
v 0.44965529 0.13633169 0.49563164
v 0.43410870 0.17975175 0.49563164
v 0.41396251 0.22124000 0.49609184
v 0.39032066 0.26079640 0.49609184
v 0.36318311 0.29805303 0.49563164
v 0.33190596 0.33190596 0.49609184
v -0.39032066 0.26079640 0.49609184
v -0.41396251 0.22124000 0.49609184
v -0.43410870 0.17975175 0.49563164
v -0.44625160 0.13531978 0.49924758
v -0.44965529 0.13633169 0.49563164
v -0.36318311 0.29805303 0.49563164
v -0.45738259 0.09097981 0.49924758
v -0.46409798 0.04562792 0.49924758
v -0.46630579 0.00000006 0.49924758
v -0.46409798 -0.04562780 0.49924758
v -0.45738259 -0.09097969 0.49924758
v -0.46041831 -0.09153164 0.49609184
v -0.46078628 -0.09162363 0.49563164
v -0.44965529 -0.13633157 0.47999173
v -0.43410870 -0.17975163 0.47999173
v -0.41433048 -0.22142386 0.49563164
v -0.39068863 -0.26098028 0.49563164
v -0.33218193 -0.33218181 0.49563164
v -0.36318311 -0.29805291 0.47999173
v -0.29805303 -0.36318299 0.49563164
v -0.26079640 -0.39032054 0.49609184
v -0.25904855 -0.38774478 0.49924758
v -0.25877258 -0.38737682 0.49970779
v -0.25380501 -0.37983349 0.50000000
v 0.33218193 0.33218193 0.49563164
v -0.29290149 0.35692769 0.42537260
v -0.32427064 0.32859427 0.42537260
v -0.33218193 0.33218193 0.47999173
v 0.29290149 0.35692769 0.42537260
v 0.33218193 0.33218193 0.47999173
v 0.29520127 0.35490388 0.42537260
v 0.21535251 -0.40283141 0.50000000
v 0.21599644 -0.40411928 0.49995616
v 0.21958412 -0.41083467 0.49970779
v 0.21976811 -0.41129464 0.49924758
v 0.29805303 -0.36318299 0.47999173
v 0.26098037 -0.39068851 0.49563164
v 0.33218193 -0.33218181 0.47999173
v 0.35490388 -0.29520115 0.42537260
v 0.35692769 -0.29290137 0.42537260
v 0.38213339 -0.25904843 0.42537260
v 0.39068863 -0.26098028 0.47999173
v 0.22123997 -0.41396239 0.49609184
v 0.41433048 -0.22142386 0.47999173
v 0.40724713 -0.21765220 0.42537260
v 0.42665738 -0.17671591 0.42537260
v 0.46078628 -0.09162363 0.47999173
v 0.44192800 -0.13403179 0.42537260
v 0.46759367 -0.04599577 0.49563164
v 0.46989346 0.00000006 0.49563164
v 0.46759367 0.04599589 0.49563164
v 0.46041831 0.09153176 0.49609184
v 0.46078628 0.09162375 0.49563164
v 0.44965529 0.13633169 0.47999173
v 0.43410870 0.17975175 0.47999173
v 0.41433048 0.22142398 0.49563164
v 0.39068863 0.26098040 0.49563164
v 0.36318311 0.29805303 0.47999173
v -0.39068863 0.26098040 0.49563164
v -0.41433048 0.22142398 0.49563164
v -0.43410870 0.17975175 0.47999173
v -0.44965529 0.13633169 0.47999173
v -0.46078628 0.09162375 0.49563164
v -0.46041831 0.09153176 0.49609184
v -0.36318311 0.29805303 0.47999173
v -0.46759367 0.04599589 0.49563164
v -0.46989346 0.00000006 0.49563164
v -0.46759367 -0.04599577 0.49563164
v -0.46078628 -0.09162363 0.47999173
v -0.44192800 -0.13403179 0.42537260
v -0.42665738 -0.17671591 0.42537260
v -0.40724713 -0.21765220 0.42537260
v -0.41433048 -0.22142386 0.47999173
v -0.39068863 -0.26098028 0.47999173
v -0.33218193 -0.33218181 0.47999173
v -0.38397324 -0.25656468 0.42537260
v -0.35876751 -0.29050958 0.42537260
v -0.35692769 -0.29290137 0.42537260
v -0.32859424 -0.32427052 0.42537260
v -0.26098037 -0.39068851 0.49563164
v -0.29805303 -0.36318299 0.47999173
v -0.22123997 -0.41396239 0.49609184
v -0.21976811 -0.41129464 0.49924758
v -0.21958412 -0.41083467 0.49970779
v -0.21599644 -0.40411928 0.49995616
v -0.21535251 -0.40283141 0.50000000
v -0.32647845 0.32647845 0.42537260
v -0.35490388 0.29520127 0.42537260
v 0.32859424 0.32427064 0.42537260
v 0.32647845 0.32647845 0.42537260
v 0.17478417 -0.42205766 0.50000000
v 0.17533612 -0.42334554 0.49995616
v 0.17827986 -0.43042889 0.49970779
v 0.17975172 -0.43410856 0.49563164
v 0.26098037 -0.39068851 0.47999173
v 0.25656477 -0.38397312 0.42537260
v 0.29050970 -0.35876739 0.42537260
v 0.29290149 -0.35692757 0.42537260
v 0.32427064 -0.32859415 0.42537260
v 0.22142395 -0.41433036 0.49563164
v 0.32647845 -0.32647833 0.42537260
v 0.38397324 -0.25656468 0.42537260
v 0.40568328 -0.22031996 0.42537260
v 0.46759367 -0.04599577 0.47999173
v 0.45287499 -0.09005977 0.42537260
v 0.45959038 -0.04525984 0.42537260
v 0.46989346 0.00000006 0.47999173
v 0.46759367 0.04599589 0.47999173
v 0.46078628 0.09162375 0.47999173
v 0.44192800 0.13403191 0.42537260
v 0.42665738 0.17671603 0.42537260
v 0.40724713 0.21765232 0.42537260
v 0.41433048 0.22142398 0.47999173
v 0.39068863 0.26098040 0.47999173
v 0.38397324 0.25656480 0.42537260
v 0.35876751 0.29050970 0.42537260
v 0.35692769 0.29290149 0.42537260
v -0.39068863 0.26098040 0.47999173
v -0.41433048 0.22142398 0.47999173
v -0.40724713 0.21765232 0.42537260
v -0.42665738 0.17671603 0.42537260
v -0.46078628 0.09162375 0.47999173
v -0.44192800 0.13403191 0.42537260
v -0.35692769 0.29290149 0.42537260
v -0.38213339 0.25904855 0.42537260
v -0.46759367 0.04599589 0.47999173
v -0.46989346 0.00000006 0.47999173
v -0.46759367 -0.04599577 0.47999173
v -0.45959038 -0.04525984 0.42537260
v -0.45333496 -0.08702405 0.42537260
v -0.45287499 -0.09005977 0.42537260
v -0.32647845 -0.32647833 0.42537260
v -0.29520127 -0.35490376 0.42537260
v -0.22142395 -0.41433036 0.49563164
v -0.26098037 -0.39068851 0.47999173
v -0.29290149 -0.35692757 0.42537260
v -0.25904855 -0.38213328 0.42537260
v -0.17975172 -0.43410856 0.49563164
v -0.17827986 -0.43042889 0.49970779
v -0.17533612 -0.42334554 0.49995616
v -0.17478417 -0.42205766 0.50000000
v 0.13256000 -0.43714428 0.50000000
v 0.13522775 -0.44579151 0.49970779
v 0.13301995 -0.43843219 0.49995616
v 0.13531975 -0.44625145 0.49924758
v 0.13633166 -0.44965515 0.49563164
v 0.17975172 -0.43410856 0.47999173
v 0.22142395 -0.41433036 0.47999173
v 0.21765229 -0.40724701 0.42537260
v 0.46179819 0.00000006 0.42537260
v 0.45959038 0.04525996 0.42537260
v 0.45333496 0.08702417 0.42537260
v 0.45287499 0.09005989 0.42537260
v -0.38397324 0.25656480 0.42537260
v -0.40568328 0.22032008 0.42537260
v -0.45287499 0.09005989 0.42537260
v -0.45959038 0.04525996 0.42537260
v -0.46179819 0.00000006 0.42537260
v -0.22142395 -0.41433036 0.47999173
v -0.25656477 -0.38397312 0.42537260
v -0.22032005 -0.40568316 0.42537260
v -0.17975172 -0.43410856 0.47999173
v -0.13633166 -0.44965515 0.49563164
v -0.13531975 -0.44625145 0.49924758
v -0.13522775 -0.44579151 0.49970779
v -0.13301995 -0.43843219 0.49995616
v -0.13256000 -0.43714428 0.50000000
v 0.08904794 -0.44799930 0.50000000
v 0.08932392 -0.44937918 0.49995616
v 0.09088777 -0.45692250 0.49970779
v 0.09097976 -0.45738247 0.49924758
v 0.13633166 -0.44965515 0.47999173
v 0.09153172 -0.46041819 0.49609184
v 0.09162370 -0.46078613 0.49563164
v 0.17671600 -0.42665723 0.42537260
v -0.21765229 -0.40724701 0.42537260
v -0.17671600 -0.42665723 0.42537260
v -0.13633166 -0.44965515 0.47999173
v -0.09162370 -0.46078613 0.49563164
v -0.09153172 -0.46041819 0.49609184
v -0.09097976 -0.45738247 0.49924758
v -0.09088777 -0.45692250 0.49970779
v -0.08932392 -0.44937918 0.49995616
v -0.08904794 -0.44799930 0.50000000
v 0.04470795 -0.45462272 0.50000000
v 0.04489193 -0.45600259 0.49995616
v 0.04562787 -0.46363789 0.49970779
v 0.04562787 -0.46409786 0.49924758
v 0.13403186 -0.44192785 0.42537260
v 0.09162370 -0.46078613 0.47999173
v 0.04599584 -0.46759352 0.49563164
v -0.13403186 -0.44192785 0.42537260
v -0.09162370 -0.46078613 0.47999173
v -0.04599584 -0.46759352 0.49563164
v -0.04562787 -0.46409786 0.49924758
v -0.04562787 -0.46363789 0.49970779
v -0.04489193 -0.45600259 0.49995616
v -0.04470795 -0.45462272 0.50000000
v 0.00000000 -0.45683050 0.50000000
v 0.00000000 -0.45821038 0.49995616
v 0.00000000 -0.46584567 0.49970779
v 0.00000000 -0.46630564 0.49924758
v 0.00000000 -0.46989334 0.49563164
v 0.09005985 -0.45287487 0.42537260
v 0.04599584 -0.46759352 0.47999173
v 0.04525990 -0.45959026 0.42537260
v 0.08702412 -0.45333484 0.42537260
v -0.09005985 -0.45287487 0.42537260
v -0.04525990 -0.45959026 0.42537260
v -0.04599584 -0.46759352 0.47999173
v 0.00000000 -0.46989334 0.47999173
v 0.00000000 -0.46179804 0.42537260
f 1 2 10
f 1 10 3
f 1 3 4
f 1 4 5
f 1 5 6
f 1 6 7
f 1 7 11
f 1 11 2
f 2 8 9
f 2 9 10
f 2 11 12
f 2 12 8
f 3 10 23
f 3 23 13
f 3 13 14
f 3 14 4
f 4 14 15
f 4 15 16
f 4 16 17
f 4 17 5
f 5 17 18
f 5 18 6
f 6 18 19
f 6 19 20
f 6 20 7
f 7 20 21
f 7 21 24
f 7 24 11
f 8 12 25
f 8 25 40
f 8 40 60
f 8 60 126
f 8 126 186
f 8 186 242
f 8 242 241
f 8 241 299
f 8 299 301
f 8 301 360
f 8 360 359
f 8 359 387
f 8 387 386
f 8 386 385
f 8 385 382
f 8 382 381
f 8 381 380
f 8 380 423
f 8 423 422
f 8 422 421
f 8 421 420
f 8 420 376
f 8 376 375
f 8 375 318
f 8 318 316
f 8 316 315
f 8 315 373
f 8 373 372
f 8 372 311
f 8 311 310
f 8 310 309
f 8 309 371
f 8 371 369
f 8 369 368
f 8 368 367
f 8 367 366
f 8 366 419
f 8 419 445
f 8 445 459
f 8 459 474
f 8 474 477
f 8 477 476
f 8 476 482
f 8 482 479
f 8 479 478
f 8 478 462
f 8 462 447
f 8 447 446
f 8 446 431
f 8 431 430
f 8 430 407
f 8 407 406
f 8 406 403
f 8 403 402
f 8 402 349
f 8 349 348
f 8 348 347
f 8 347 346
f 8 346 342
f 8 342 341
f 8 341 340
f 8 340 401
f 8 401 400
f 8 400 399
f 8 399 428
f 8 428 427
f 8 427 426
f 8 426 393
f 8 393 391
f 8 391 390
f 8 390 425
f 8 425 424
f 8 424 395
f 8 395 394
f 8 394 358
f 8 358 357
f 8 357 297
f 8 297 296
f 8 296 239
f 8 239 183
f 8 183 123
f 8 123 57
f 8 57 37
f 8 37 36
f 8 36 22
f 8 22 9
f 9 22 23
f 9 23 10
f 11 24 12
f 12 24 25
f 13 23 38
f 13 38 26
f 13 26 14
f 14 26 15
f 15 27 16
f 15 26 28
f 15 28 46
f 15 46 27
f 16 29 30
f 16 30 31
f 16 31 17
f 16 27 29
f 17 31 18
f 18 31 30
f 18 30 32
f 18 32 33
f 18 33 19
f 19 33 54
f 19 54 34
f 19 34 35
f 19 35 20
f 20 35 21
f 21 35 39
f 21 39 24
f 22 36 23
f 23 36 37
f 23 37 38
f 24 39 40
f 24 40 25
f 26 38 58
f 26 58 41
f 26 41 42
f 26 42 28
f 27 43 44
f 27 44 45
f 27 45 29
f 27 46 47
f 27 47 43
f 28 42 46
f 29 45 30
f 30 48 49
f 30 49 32
f 30 45 50
f 30 50 48
f 32 49 33
f 33 49 51
f 33 51 52
f 33 52 53
f 33 53 54
f 34 54 55
f 34 55 35
f 35 55 56
f 35 56 59
f 35 59 39
f 37 57 38
f 38 57 58
f 39 59 60
f 39 60 40
f 41 58 124
f 41 124 61
f 41 61 62
f 41 62 63
f 41 63 42
f 42 64 47
f 42 47 46
f 42 63 65
f 42 65 66
f 42 66 67
f 42 67 64
f 43 68 44
f 43 47 64
f 43 64 69
f 43 69 50
f 43 50 68
f 44 68 45
f 45 68 50
f 48 70 71
f 48 71 72
f 48 72 73
f 48 73 74
f 48 74 75
f 48 75 76
f 48 76 77
f 48 77 78
f 48 78 79
f 48 79 80
f 48 80 81
f 48 81 82
f 48 82 83
f 48 83 84
f 48 84 85
f 48 85 86
f 48 86 87
f 48 87 88
f 48 88 89
f 48 89 90
f 48 90 91
f 48 91 92
f 48 92 52
f 48 52 93
f 48 93 49
f 48 50 115
f 48 115 179
f 48 179 237
f 48 237 294
f 48 294 356
f 48 356 411
f 48 411 437
f 48 437 454
f 48 454 468
f 48 468 469
f 48 469 455
f 48 455 438
f 48 438 412
f 48 412 361
f 48 361 302
f 48 302 246
f 48 246 189
f 48 189 131
f 48 131 70
f 49 93 51
f 50 69 94
f 50 94 95
f 50 95 96
f 50 96 97
f 50 97 98
f 50 98 99
f 50 99 100
f 50 100 101
f 50 101 102
f 50 102 103
f 50 103 104
f 50 104 105
f 50 105 106
f 50 106 107
f 50 107 108
f 50 108 109
f 50 109 110
f 50 110 111
f 50 111 112
f 50 112 113
f 50 113 114
f 50 114 115
f 51 93 52
f 52 92 116
f 52 116 53
f 53 116 55
f 53 55 54
f 55 116 117
f 55 117 118
f 55 118 119
f 55 119 120
f 55 120 56
f 56 120 121
f 56 121 122
f 56 122 125
f 56 125 59
f 57 123 58
f 58 123 124
f 59 125 126
f 59 126 60
f 61 124 184
f 61 184 127
f 61 127 128
f 61 128 62
f 62 128 63
f 63 128 129
f 63 129 130
f 63 130 65
f 64 67 69
f 65 130 66
f 66 130 95
f 66 95 67
f 67 95 94
f 67 94 69
f 70 131 71
f 71 131 132
f 71 132 72
f 72 133 135
f 72 135 73
f 72 132 134
f 72 134 133
f 73 135 136
f 73 136 137
f 73 137 74
f 74 137 138
f 74 138 139
f 74 139 76
f 74 76 75
f 76 139 77
f 77 140 141
f 77 141 78
f 77 139 140
f 78 141 79
f 79 141 142
f 79 142 80
f 80 143 144
f 80 144 81
f 80 142 143
f 81 144 145
f 81 145 82
f 82 145 83
f 83 145 146
f 83 146 147
f 83 147 84
f 84 147 148
f 84 148 85
f 85 148 86
f 86 148 149
f 86 149 150
f 86 150 151
f 86 151 87
f 87 151 88
f 88 152 153
f 88 153 89
f 88 151 152
f 89 153 90
f 90 154 118
f 90 118 117
f 90 117 91
f 90 153 155
f 90 155 154
f 91 117 92
f 92 117 116
f 95 130 156
f 95 156 157
f 95 157 96
f 96 157 97
f 97 157 158
f 97 158 159
f 97 159 98
f 98 159 99
f 99 160 161
f 99 161 100
f 99 159 162
f 99 162 160
f 100 161 101
f 101 163 102
f 101 161 163
f 102 164 165
f 102 165 103
f 102 163 164
f 103 165 104
f 104 165 166
f 104 166 105
f 105 167 168
f 105 168 106
f 105 166 167
f 106 168 169
f 106 169 107
f 107 169 108
f 108 169 170
f 108 170 171
f 108 171 109
f 109 171 111
f 109 111 110
f 111 171 172
f 111 172 173
f 111 173 112
f 112 173 174
f 112 174 175
f 112 175 176
f 112 176 113
f 113 176 177
f 113 177 178
f 113 178 114
f 114 178 179
f 114 179 115
f 118 154 119
f 119 154 120
f 120 154 180
f 120 180 181
f 120 181 121
f 121 181 182
f 121 182 122
f 122 182 185
f 122 185 125
f 123 183 184
f 123 184 124
f 125 185 186
f 125 186 126
f 127 184 240
f 127 240 187
f 127 187 128
f 128 187 188
f 128 188 129
f 129 188 156
f 129 156 130
f 131 189 190
f 131 190 132
f 132 190 191
f 132 191 134
f 133 134 192
f 133 192 193
f 133 193 194
f 133 194 135
f 134 191 195
f 134 195 192
f 135 194 136
f 136 194 196
f 136 196 197
f 136 197 138
f 136 138 137
f 138 198 199
f 138 199 139
f 138 197 200
f 138 200 198
f 139 199 140
f 140 199 201
f 140 201 141
f 141 201 142
f 142 201 202
f 142 202 143
f 143 202 203
f 143 203 204
f 143 204 144
f 144 204 205
f 144 205 145
f 145 205 146
f 146 206 147
f 146 205 206
f 147 206 207
f 147 207 148
f 148 207 208
f 148 208 149
f 149 208 209
f 149 209 210
f 149 210 211
f 149 211 150
f 150 211 212
f 150 212 152
f 150 152 151
f 152 212 155
f 152 155 153
f 154 155 213
f 154 213 180
f 155 212 213
f 156 188 214
f 156 214 158
f 156 158 157
f 158 214 162
f 158 162 159
f 160 215 216
f 160 216 217
f 160 217 161
f 160 162 219
f 160 219 215
f 161 217 218
f 161 218 163
f 162 214 219
f 163 218 220
f 163 220 164
f 164 220 221
f 164 221 165
f 165 221 166
f 166 221 222
f 166 222 167
f 167 222 223
f 167 223 224
f 167 224 168
f 168 224 225
f 168 225 169
f 169 225 170
f 170 226 171
f 170 225 226
f 171 226 172
f 172 226 227
f 172 227 228
f 172 228 229
f 172 229 174
f 172 174 173
f 174 230 231
f 174 231 175
f 174 229 230
f 175 231 176
f 176 232 233
f 176 233 177
f 176 231 232
f 177 233 234
f 177 234 235
f 177 235 178
f 178 235 236
f 178 236 179
f 179 236 237
f 180 213 181
f 181 213 238
f 181 238 182
f 182 238 243
f 182 243 185
f 183 239 240
f 183 240 184
f 185 241 242
f 185 242 186
f 185 243 241
f 187 240 298
f 187 298 244
f 187 244 245
f 187 245 188
f 188 245 214
f 189 246 190
f 190 246 191
f 191 246 247
f 191 247 252
f 191 252 195
f 192 195 248
f 192 248 249
f 192 249 193
f 193 250 312
f 193 312 251
f 193 251 194
f 193 249 308
f 193 308 250
f 194 251 254
f 194 254 196
f 195 252 253
f 195 253 248
f 196 254 197
f 197 254 314
f 197 314 255
f 197 255 257
f 197 257 200
f 198 200 256
f 198 256 201
f 198 201 199
f 200 257 317
f 200 317 258
f 200 258 259
f 200 259 256
f 201 256 202
f 202 260 261
f 202 261 203
f 202 256 260
f 203 261 262
f 203 262 204
f 204 262 263
f 204 263 205
f 205 263 264
f 205 264 206
f 206 264 207
f 207 264 265
f 207 265 266
f 207 266 209
f 207 209 208
f 209 267 268
f 209 268 210
f 209 266 267
f 210 268 211
f 211 269 270
f 211 270 212
f 211 268 269
f 212 270 213
f 213 270 238
f 214 245 219
f 215 219 271
f 215 271 216
f 216 271 272
f 216 272 273
f 216 273 218
f 216 218 217
f 218 274 220
f 218 273 275
f 218 275 274
f 219 245 276
f 219 276 271
f 220 274 277
f 220 277 221
f 221 277 222
f 222 278 279
f 222 279 223
f 222 277 278
f 223 279 280
f 223 280 224
f 224 280 281
f 224 281 225
f 225 281 227
f 225 227 226
f 227 281 228
f 228 281 282
f 228 282 283
f 228 283 339
f 228 339 284
f 228 284 285
f 228 285 229
f 229 285 343
f 229 343 286
f 229 286 230
f 230 286 287
f 230 287 231
f 231 287 232
f 232 288 233
f 232 287 344
f 232 344 289
f 232 289 345
f 232 345 288
f 233 288 290
f 233 290 234
f 234 290 291
f 234 291 292
f 234 292 293
f 234 293 235
f 235 293 294
f 235 294 236
f 236 294 237
f 238 270 295
f 238 295 300
f 238 300 243
f 239 296 240
f 240 296 297
f 240 297 298
f 241 243 299
f 243 300 301
f 243 301 299
f 244 298 335
f 244 335 276
f 244 276 245
f 246 302 303
f 246 303 247
f 247 303 304
f 247 304 305
f 247 305 252
f 248 306 308
f 248 308 249
f 248 253 307
f 248 307 365
f 248 365 306
f 250 308 309
f 250 309 310
f 250 310 311
f 250 311 312
f 251 312 314
f 251 314 254
f 252 305 253
f 253 305 313
f 253 313 370
f 253 370 307
f 255 314 315
f 255 315 316
f 255 316 257
f 256 259 260
f 257 316 318
f 257 318 317
f 258 319 259
f 258 317 374
f 258 374 319
f 259 319 260
f 260 319 320
f 260 320 261
f 261 320 262
f 262 320 321
f 262 321 322
f 262 322 263
f 263 265 264
f 263 322 265
f 265 322 323
f 265 323 379
f 265 379 324
f 265 324 325
f 265 325 266
f 266 325 383
f 266 383 326
f 266 326 267
f 267 326 327
f 267 327 268
f 268 327 269
f 269 327 384
f 269 384 328
f 269 328 300
f 269 300 295
f 269 295 270
f 271 276 329
f 271 329 330
f 271 330 272
f 272 330 273
f 273 330 389
f 273 389 331
f 273 331 332
f 273 332 275
f 274 275 277
f 275 332 392
f 275 392 333
f 275 333 334
f 275 334 277
f 276 335 388
f 276 388 329
f 277 334 278
f 278 334 336
f 278 336 337
f 278 337 279
f 279 337 280
f 280 337 338
f 280 338 282
f 280 282 281
f 282 338 283
f 283 338 398
f 283 398 339
f 284 339 340
f 284 340 341
f 284 341 285
f 285 341 342
f 285 342 343
f 286 343 344
f 286 344 287
f 288 345 351
f 288 351 290
f 289 344 346
f 289 346 347
f 289 347 348
f 289 348 349
f 289 349 345
f 290 350 291
f 290 351 405
f 290 405 350
f 291 350 404
f 291 404 352
f 291 352 353
f 291 353 292
f 292 353 293
f 293 353 354
f 293 354 355
f 293 355 294
f 294 355 356
f 297 357 298
f 298 357 358
f 298 358 335
f 300 359 360
f 300 360 301
f 300 328 359
f 302 361 303
f 303 361 362
f 303 362 363
f 303 363 304
f 304 363 305
f 305 363 364
f 305 364 313
f 306 365 366
f 306 366 367
f 306 367 368
f 306 368 369
f 306 369 308
f 307 370 418
f 307 418 365
f 308 369 371
f 308 371 309
f 311 372 312
f 312 372 373
f 312 373 314
f 313 364 370
f 314 373 315
f 317 318 375
f 317 375 376
f 317 376 374
f 319 374 377
f 319 377 320
f 320 377 378
f 320 378 321
f 321 378 379
f 321 379 323
f 321 323 322
f 324 379 380
f 324 380 381
f 324 381 325
f 325 381 382
f 325 382 383
f 326 383 384
f 326 384 327
f 328 384 385
f 328 385 386
f 328 386 387
f 328 387 359
f 329 388 389
f 329 389 330
f 331 389 390
f 331 390 391
f 331 391 332
f 332 391 393
f 332 393 392
f 333 392 396
f 333 396 336
f 333 336 334
f 335 358 394
f 335 394 395
f 335 395 388
f 336 396 397
f 336 397 337
f 337 397 398
f 337 398 338
f 339 398 399
f 339 399 400
f 339 400 401
f 339 401 340
f 342 346 344
f 342 344 343
f 345 349 402
f 345 402 403
f 345 403 351
f 350 405 429
f 350 429 404
f 351 403 406
f 351 406 407
f 351 407 405
f 352 404 408
f 352 408 353
f 353 408 409
f 353 409 354
f 354 409 355
f 355 409 410
f 355 410 411
f 355 411 356
f 361 412 362
f 362 413 363
f 362 412 414
f 362 414 413
f 363 413 415
f 363 415 416
f 363 416 364
f 364 416 442
f 364 442 417
f 364 417 418
f 364 418 370
f 365 418 419
f 365 419 366
f 374 376 377
f 376 420 377
f 377 420 421
f 377 421 378
f 378 421 379
f 379 421 422
f 379 422 423
f 379 423 380
f 382 385 384
f 382 384 383
f 388 395 424
f 388 424 425
f 388 425 389
f 389 425 390
f 392 393 426
f 392 426 427
f 392 427 396
f 396 427 397
f 397 427 428
f 397 428 399
f 397 399 398
f 404 429 432
f 404 432 408
f 405 407 430
f 405 430 431
f 405 431 429
f 408 432 448
f 408 448 433
f 408 433 409
f 409 433 434
f 409 434 435
f 409 435 410
f 410 435 436
f 410 436 437
f 410 437 411
f 412 438 439
f 412 439 414
f 413 414 440
f 413 440 441
f 413 441 415
f 414 439 440
f 415 441 416
f 416 441 443
f 416 443 444
f 416 444 460
f 416 460 442
f 417 442 445
f 417 445 419
f 417 419 418
f 429 431 446
f 429 446 432
f 432 447 448
f 432 446 447
f 433 449 450
f 433 450 451
f 433 451 434
f 433 448 463
f 433 463 449
f 434 451 452
f 434 452 435
f 435 452 436
f 436 452 453
f 436 453 437
f 437 453 454
f 438 455 439
f 439 455 456
f 439 456 440
f 440 456 457
f 440 457 441
f 441 457 458
f 441 458 443
f 442 459 445
f 442 460 459
f 443 458 461
f 443 461 444
f 444 461 475
f 444 475 460
f 447 462 448
f 448 462 463
f 449 463 480
f 449 480 464
f 449 464 450
f 450 464 465
f 450 465 451
f 451 465 466
f 451 466 452
f 452 466 467
f 452 467 453
f 453 467 468
f 453 468 454
f 455 469 456
f 456 469 470
f 456 470 457
f 457 470 471
f 457 471 472
f 457 472 458
f 458 472 473
f 458 473 461
f 459 460 474
f 460 475 476
f 460 476 477
f 460 477 474
f 461 473 481
f 461 481 475
f 462 478 463
f 463 478 479
f 463 479 480
f 464 480 481
f 464 481 473
f 464 473 465
f 465 473 472
f 465 472 471
f 465 471 466
f 466 471 470
f 466 470 467
f 467 470 469
f 467 469 468
f 475 481 476
f 476 481 482
f 479 482 481
f 479 481 480

