# https://github.com/mikedh/trimesh
v -0.46183342 -0.00000006 -0.47129551
v -0.45957309 -0.04520694 -0.47129551
v -0.46183342 -0.00000006 -0.30869803
v -0.46111012 0.01455656 -0.30869803
v -0.45957309 0.04520682 -0.47129551
v -0.45649901 -0.06591170 -0.47129551
v -0.45957309 -0.04520694 -0.30869803
v -0.45957309 0.04520682 -0.30869803
v -0.45740315 0.05976344 -0.30869803
v -0.45288247 0.09005205 -0.47129551
v -0.45505241 -0.07558597 -0.30869803
v -0.45288247 -0.09005217 -0.47129551
v -0.45288247 0.09005205 -0.30869803
v -0.44700557 0.11374045 -0.47129551
v -0.45288247 -0.09005217 -0.30869803
v -0.44194239 -0.13399325 -0.47129551
v -0.44935632 0.10424701 -0.30869803
v -0.44194239 0.13399313 -0.30869803
v -0.44194239 0.13399313 -0.47129551
v -0.44194239 -0.13399325 -0.30869803
v -0.43489012 -0.15370345 -0.47129551
v -0.42666247 0.17666844 -0.30869803
v -0.43371475 0.15704864 -0.47129551
v -0.42666247 -0.17666855 -0.30869803
v -0.42666247 -0.17666855 -0.47129551
v -0.42666247 0.17666844 -0.47129551
v -0.40722352 0.21762587 -0.30869803
v -0.41617447 0.19881980 -0.47129551
v -0.41355249 -0.20442557 -0.30869803
v -0.41771153 -0.19556503 -0.47129551
v -0.39971918 0.23019338 -0.30869803
v -0.40722352 0.21762587 -0.47129551
v -0.40722352 -0.21762599 -0.47129551
v -0.40722352 -0.21762599 -0.30869803
v -0.38398719 0.25650379 -0.30869803
v -0.38398719 0.25650379 -0.47129551
v -0.39655471 -0.23561832 -0.47129551
v -0.38398719 -0.25650391 -0.30869803
v -0.37521705 0.26834798 -0.30869803
v -0.35695347 0.29294053 -0.47129551
v -0.38398719 -0.25650391 -0.47129551
v -0.36572361 -0.28118685 -0.30869803
v -0.35695347 0.29294053 -0.30869803
v -0.34058860 0.31102329 -0.47129551
v -0.35695347 -0.29294065 -0.47129551
v -0.35695347 -0.29294065 -0.30869803
v -0.34709838 0.30379018 -0.30869803
v -0.32648405 0.32648405 -0.30869803
v -0.32648405 0.32648405 -0.47129551
v -0.34293935 -0.30840141 -0.47129551
v -0.32648405 -0.32648417 -0.30869803
v -0.29294056 0.35695347 -0.30869803
v -0.30840129 0.34293935 -0.47129551
v -0.32648405 -0.32648417 -0.47129551
v -0.31102329 -0.34058872 -0.47129551
v -0.30379018 -0.34709850 -0.30869803
v -0.28118676 0.36572361 -0.30869803
v -0.29294056 0.35695347 -0.47129551
v -0.29294056 -0.35695359 -0.47129551
v -0.29294056 -0.35695359 -0.30869803
v -0.25650379 0.38398719 -0.30869803
v -0.25650379 0.38398719 -0.47129551
v -0.26834801 -0.37521717 -0.30869803
v -0.25650379 -0.38398731 -0.47129551
v -0.21762589 0.40722352 -0.30869803
v -0.23561823 0.39655471 -0.47129551
v -0.25650379 -0.38398731 -0.30869803
v -0.21762589 -0.40722364 -0.47129551
v -0.23019341 -0.39971930 -0.30869803
v -0.20442548 0.41355249 -0.30869803
v -0.21762589 0.40722352 -0.47129551
v -0.19881983 -0.41617462 -0.47129551
v -0.21762589 -0.40722364 -0.30869803
v -0.17666847 0.42666247 -0.30869803
v -0.17666847 0.42666247 -0.47129551
v -0.19556494 0.41771153 -0.47129551
v -0.17666847 -0.42666259 -0.47129551
v -0.17666847 -0.42666259 -0.30869803
v -0.13399318 0.44194242 -0.30869803
v -0.15370338 0.43489015 -0.47129551
v -0.15704869 -0.43371490 -0.47129551
v -0.13399318 -0.44194254 -0.30869803
v -0.09005209 0.45288247 -0.30869803
v -0.13399318 0.44194242 -0.47129551
v -0.13399318 -0.44194254 -0.47129551
v -0.11374050 -0.44700572 -0.47129551
v -0.10424706 -0.44935647 -0.30869803
v -0.09005209 0.45288247 -0.47129551
v -0.07558589 0.45505241 -0.30869803
v -0.09005209 -0.45288259 -0.47129551
v -0.09005209 -0.45288259 -0.30869803
v -0.06591162 0.45649904 -0.47129551
v -0.04520687 0.45957309 -0.30869803
v -0.04520687 -0.45957321 -0.47129551
v -0.05976349 -0.45740330 -0.30869803
v -0.04520687 0.45957309 -0.47129551
v 0.00000000 0.46183345 -0.30869803
v 0.00000000 -0.46183357 -0.47129551
v -0.01455661 -0.46111026 -0.30869803
v -0.04520687 -0.45957321 -0.30869803
v -0.02079516 0.46074846 -0.47129551
v 0.01455661 0.46111014 -0.30869803
v 0.04520687 0.45957309 -0.47129551
v 0.00000000 0.46174303 -0.47129551
v 0.00000000 -0.46183357 -0.45630267
v 0.04520687 -0.45957321 -0.47129551
v 0.00000000 -0.46174315 -0.30869803
v 0.04520687 0.45957309 -0.30869803
v 0.05976349 0.45740318 -0.30869803
v 0.09005209 0.45288247 -0.47129551
v 0.04520687 -0.45957321 -0.30869803
v 0.03055985 -0.46029654 -0.30869803
v 0.06591162 -0.45649916 -0.47129551
v 0.09005209 0.45288247 -0.30869803
v 0.11374050 0.44700560 -0.47129551
v 0.07558589 -0.45505252 -0.30869803
v 0.09005209 -0.45288259 -0.47129551
v 0.10424706 0.44935635 -0.30869803
v 0.13399318 0.44194242 -0.30869803
v 0.13399318 0.44194242 -0.47129551
v 0.09005209 -0.45288259 -0.30869803
v 0.13399318 -0.44194254 -0.47129551
v 0.17666847 0.42666247 -0.30869803
v 0.15704869 0.43371478 -0.47129551
v 0.13399318 -0.44194254 -0.30869803
v 0.15370338 -0.43489027 -0.47129551
v 0.17666847 0.42666247 -0.47129551
v 0.21762589 0.40722352 -0.30869803
v 0.19881983 0.41617450 -0.47129551
v 0.17666847 -0.42666259 -0.30869803
v 0.17666847 -0.42666259 -0.47129551
v 0.23019341 0.39971918 -0.30869803
v 0.21762589 0.40722352 -0.47129551
v 0.20442548 -0.41355261 -0.30869803
v 0.19556494 -0.41771165 -0.47129551
v 0.25650379 0.38398719 -0.30869803
v 0.25650379 0.38398719 -0.47129551
v 0.21762589 -0.40722364 -0.47129551
v 0.21762589 -0.40722364 -0.30869803
v 0.26834801 0.37521705 -0.30869803
v 0.29294056 0.35695347 -0.47129551
v 0.23561823 -0.39655483 -0.47129551
v 0.25650379 -0.38398731 -0.30869803
v 0.29294056 0.35695347 -0.30869803
v 0.31102329 0.34058860 -0.47129551
v 0.25650379 -0.38398731 -0.47129551
v 0.28118676 -0.36572373 -0.30869803
v 0.30379018 0.34709838 -0.30869803
v 0.32648405 0.32648405 -0.30869803
v 0.32648405 0.32648405 -0.47129551
v 0.29294056 -0.35695359 -0.47129551
v 0.29294056 -0.35695359 -0.30869803
v 0.35695347 0.29294053 -0.30869803
v 0.34293935 0.30840129 -0.47129551
v 0.30840129 -0.34293947 -0.47129551
v 0.32648405 -0.32648417 -0.30869803
v 0.36572361 0.28118673 -0.30869803
v 0.35695347 0.29294053 -0.47129551
v 0.32648405 -0.32648417 -0.47129551
v 0.34058860 -0.31102341 -0.47129551
v 0.34709838 -0.30379030 -0.30869803
v 0.38398719 0.25650379 -0.30869803
v 0.38398719 0.25650379 -0.47129551
v 0.35695347 -0.29294065 -0.47129551
v 0.35695347 -0.29294065 -0.30869803
v 0.40722352 0.21762587 -0.30869803
v 0.39655471 0.23561820 -0.47129551
v 0.37521705 -0.26834810 -0.30869803
v 0.38398719 -0.25650391 -0.47129551
v 0.41355249 0.20442545 -0.30869803
v 0.40722352 0.21762587 -0.47129551
v 0.38398719 -0.25650391 -0.30869803
v 0.40722352 -0.21762599 -0.47129551
v 0.39971918 -0.23019350 -0.30869803
v 0.42666247 0.17666844 -0.30869803
v 0.42666247 0.17666844 -0.47129551
v 0.41771153 0.19556491 -0.47129551
v 0.41617447 -0.19881992 -0.47129551
v 0.40722352 -0.21762599 -0.30869803
v 0.44194239 0.13399313 -0.30869803
v 0.43489012 0.15370333 -0.47129551
v 0.42666247 -0.17666855 -0.47129551
v 0.42666247 -0.17666855 -0.30869803
v 0.45288247 0.09005205 -0.30869803
v 0.44194239 0.13399313 -0.47129551
v 0.43371475 -0.15704876 -0.47129551
v 0.44194239 -0.13399325 -0.30869803
v 0.45288247 0.09005205 -0.47129551
v 0.45505241 0.07558585 -0.30869803
v 0.44194239 -0.13399325 -0.47129551
v 0.44700557 -0.11374057 -0.47129551
v 0.44935632 -0.10424713 -0.30869803
v 0.45649901 0.06591158 -0.47129551
v 0.45957309 0.04520682 -0.30869803
v 0.45288247 -0.09005217 -0.47129551
v 0.45288247 -0.09005217 -0.30869803
v 0.45957309 0.04520682 -0.47129551
v 0.46183342 -0.00000006 -0.30869803
v 0.45957309 -0.04520694 -0.47129551
v 0.45740315 -0.05976356 -0.30869803
v 0.46183342 -0.00000006 -0.47129551
v 0.46111012 -0.01455668 -0.30869803
v 0.45957309 -0.04520694 -0.30869803
f 1 2 7
f 1 7 3
f 1 3 4
f 1 4 5
f 1 5 10
f 1 10 14
f 1 14 19
f 1 19 23
f 1 23 26
f 1 26 28
f 1 28 32
f 1 32 36
f 1 36 40
f 1 40 44
f 1 44 49
f 1 49 53
f 1 53 58
f 1 58 62
f 1 62 66
f 1 66 71
f 1 71 76
f 1 76 75
f 1 75 80
f 1 80 84
f 1 84 88
f 1 88 92
f 1 92 96
f 1 96 101
f 1 101 104
f 1 104 103
f 1 103 110
f 1 110 115
f 1 115 120
f 1 120 124
f 1 124 127
f 1 127 129
f 1 129 133
f 1 133 137
f 1 137 141
f 1 141 145
f 1 145 150
f 1 150 154
f 1 154 158
f 1 158 163
f 1 163 167
f 1 167 171
f 1 171 177
f 1 177 176
f 1 176 181
f 1 181 185
f 1 185 188
f 1 188 193
f 1 193 197
f 1 197 201
f 1 201 199
f 1 199 195
f 1 195 191
f 1 191 190
f 1 190 186
f 1 186 182
f 1 182 178
f 1 178 173
f 1 173 169
f 1 169 164
f 1 164 160
f 1 160 159
f 1 159 155
f 1 155 151
f 1 151 146
f 1 146 142
f 1 142 138
f 1 138 135
f 1 135 131
f 1 131 126
f 1 126 122
f 1 122 117
f 1 117 113
f 1 113 106
f 1 106 98
f 1 98 94
f 1 94 90
f 1 90 86
f 1 86 85
f 1 85 81
f 1 81 77
f 1 77 72
f 1 72 68
f 1 68 64
f 1 64 59
f 1 59 55
f 1 55 54
f 1 54 50
f 1 50 45
f 1 45 41
f 1 41 37
f 1 37 33
f 1 33 30
f 1 30 25
f 1 25 21
f 1 21 16
f 1 16 12
f 1 12 6
f 1 6 2
f 2 6 7
f 3 7 11
f 3 11 15
f 3 15 20
f 3 20 24
f 3 24 29
f 3 29 34
f 3 34 38
f 3 38 42
f 3 42 46
f 3 46 51
f 3 51 56
f 3 56 60
f 3 60 63
f 3 63 67
f 3 67 69
f 3 69 73
f 3 73 78
f 3 78 82
f 3 82 87
f 3 87 91
f 3 91 95
f 3 95 100
f 3 100 99
f 3 99 107
f 3 107 112
f 3 112 111
f 3 111 116
f 3 116 121
f 3 121 125
f 3 125 130
f 3 130 134
f 3 134 139
f 3 139 143
f 3 143 147
f 3 147 152
f 3 152 156
f 3 156 161
f 3 161 165
f 3 165 168
f 3 168 172
f 3 172 174
f 3 174 179
f 3 179 183
f 3 183 187
f 3 187 192
f 3 192 196
f 3 196 200
f 3 200 203
f 3 203 202
f 3 202 198
f 3 198 194
f 3 194 189
f 3 189 184
f 3 184 180
f 3 180 175
f 3 175 170
f 3 170 166
f 3 166 162
f 3 162 157
f 3 157 153
f 3 153 149
f 3 149 148
f 3 148 144
f 3 144 140
f 3 140 136
f 3 136 132
f 3 132 128
f 3 128 123
f 3 123 119
f 3 119 118
f 3 118 114
f 3 114 109
f 3 109 108
f 3 108 102
f 3 102 97
f 3 97 93
f 3 93 89
f 3 89 83
f 3 83 79
f 3 79 74
f 3 74 70
f 3 70 65
f 3 65 61
f 3 61 57
f 3 57 52
f 3 52 48
f 3 48 47
f 3 47 43
f 3 43 39
f 3 39 35
f 3 35 31
f 3 31 27
f 3 27 22
f 3 22 18
f 3 18 17
f 3 17 13
f 3 13 9
f 3 9 8
f 3 8 4
f 4 8 5
f 5 8 9
f 5 9 10
f 6 11 7
f 6 12 11
f 9 13 10
f 10 13 14
f 11 12 15
f 12 16 20
f 12 20 15
f 13 17 14
f 14 17 18
f 14 18 19
f 16 21 20
f 18 22 23
f 18 23 19
f 20 21 24
f 21 25 24
f 22 26 23
f 22 27 28
f 22 28 26
f 24 25 29
f 25 30 29
f 27 31 32
f 27 32 28
f 29 30 33
f 29 33 34
f 31 35 36
f 31 36 32
f 33 37 34
f 34 37 38
f 35 39 36
f 36 39 40
f 37 41 38
f 38 41 42
f 39 43 40
f 40 43 44
f 41 45 42
f 42 45 46
f 43 47 44
f 44 47 48
f 44 48 49
f 45 50 46
f 46 50 51
f 48 52 53
f 48 53 49
f 50 54 51
f 51 54 55
f 51 55 56
f 52 57 58
f 52 58 53
f 55 59 60
f 55 60 56
f 57 61 62
f 57 62 58
f 59 63 60
f 59 64 63
f 61 65 66
f 61 66 62
f 63 64 67
f 64 68 69
f 64 69 67
f 65 70 71
f 65 71 66
f 68 72 73
f 68 73 69
f 70 74 75
f 70 75 76
f 70 76 71
f 72 77 78
f 72 78 73
f 74 79 80
f 74 80 75
f 77 81 78
f 78 81 82
f 79 83 88
f 79 88 84
f 79 84 80
f 81 85 82
f 82 85 86
f 82 86 87
f 83 89 88
f 86 90 91
f 86 91 87
f 88 89 92
f 89 93 92
f 90 94 95
f 90 95 91
f 92 93 96
f 93 97 96
f 94 98 99
f 94 99 100
f 94 100 95
f 96 97 101
f 97 102 103
f 97 103 104
f 97 104 101
f 98 105 99
f 98 106 111
f 98 111 105
f 99 105 107
f 102 108 103
f 103 109 110
f 103 108 109
f 105 111 112
f 105 112 107
f 106 113 111
f 109 114 110
f 110 114 115
f 111 113 116
f 113 117 116
f 114 118 115
f 115 118 119
f 115 119 120
f 116 117 121
f 117 122 125
f 117 125 121
f 119 123 124
f 119 124 120
f 122 126 125
f 123 127 124
f 123 128 129
f 123 129 127
f 125 126 130
f 126 131 130
f 128 132 133
f 128 133 129
f 130 131 134
f 131 135 134
f 132 136 137
f 132 137 133
f 134 135 138
f 134 138 139
f 136 140 137
f 137 140 141
f 138 142 139
f 139 142 143
f 140 144 141
f 141 144 145
f 142 146 143
f 143 146 147
f 144 148 145
f 145 148 149
f 145 149 150
f 146 151 147
f 147 151 152
f 149 153 154
f 149 154 150
f 151 155 152
f 152 155 156
f 153 157 158
f 153 158 154
f 155 159 156
f 156 159 160
f 156 160 161
f 157 162 163
f 157 163 158
f 160 164 165
f 160 165 161
f 162 166 167
f 162 167 163
f 164 168 165
f 164 169 168
f 166 170 171
f 166 171 167
f 168 169 172
f 169 173 174
f 169 174 172
f 170 175 176
f 170 176 177
f 170 177 171
f 173 178 179
f 173 179 174
f 175 180 181
f 175 181 176
f 178 182 183
f 178 183 179
f 180 184 188
f 180 188 185
f 180 185 181
f 182 186 183
f 183 186 187
f 184 189 188
f 186 190 187
f 187 190 191
f 187 191 192
f 188 189 193
f 189 194 193
f 191 195 196
f 191 196 192
f 193 194 197
f 194 198 201
f 194 201 197
f 195 199 200
f 195 200 196
f 198 202 201
f 199 202 203
f 199 203 200
f 199 201 202

