# https://github.com/mikedh/trimesh
v -0.46183342 0.00000001 -0.30869806
v -0.45957309 -0.04520687 -0.30869806
v -0.45975390 -0.04213280 0.42537260
v -0.46183342 0.00000001 0.42537260
v -0.46111012 0.01455663 -0.30869806
v -0.45505241 -0.07558589 -0.30869806
v -0.45957309 -0.04520687 0.42537260
v -0.45957309 0.04520690 0.42537260
v -0.45957309 0.04520690 -0.30869806
v -0.45288247 -0.09005210 -0.30869806
v -0.45288247 -0.09005210 0.42537260
v -0.45912102 0.04828097 0.42537260
v -0.45740315 0.05976352 -0.30869806
v -0.44194239 -0.13399319 -0.30869806
v -0.44194239 -0.13399319 0.42537260
v -0.45288247 0.09005213 0.42537260
v -0.45288247 0.09005213 -0.30869806
v -0.42666247 -0.17666849 -0.30869806
v -0.42666247 -0.17666849 0.42537260
v -0.45215917 0.09303579 0.42537260
v -0.44935632 0.10424709 -0.30869806
v -0.41355249 -0.20442551 -0.30869806
v -0.40857974 -0.21491352 0.42537260
v -0.44194239 0.13399322 0.42537260
v -0.44194239 0.13399322 -0.30869806
v -0.40722352 -0.21762593 -0.30869806
v -0.40722352 -0.21762593 0.42537260
v -0.42666247 0.17666852 0.42537260
v -0.42666247 0.17666852 -0.30869806
v -0.38398719 -0.25650388 -0.30869806
v -0.38398719 -0.25650388 0.42537260
v -0.40722352 0.21762596 0.42537260
v -0.40722352 0.21762596 -0.30869806
v -0.36572361 -0.28118682 -0.30869806
v -0.35695347 -0.29294062 0.42537260
v -0.40568650 0.22033837 0.42537260
v -0.39971918 0.23019348 -0.30869806
v -0.35695347 -0.29294062 -0.30869806
v -0.32856357 -0.32422376 0.42537260
v -0.38398719 0.25650388 0.42537260
v -0.38398719 0.25650388 -0.30869806
v -0.32648405 -0.32648408 -0.30869806
v -0.32648405 -0.32648408 0.42537260
v -0.35695347 0.29294062 0.42537260
v -0.37521705 0.26834810 -0.30869806
v -0.30379018 -0.34709847 -0.30869806
v -0.29294056 -0.35695356 0.42537260
v -0.32648405 0.32648414 0.42537260
v -0.34709838 0.30379027 -0.30869806
v -0.35695347 0.29294062 -0.30869806
v -0.29294056 -0.35695356 -0.30869806
v -0.26834801 -0.37521714 -0.30869806
v -0.25650379 -0.38398725 0.42537260
v -0.32648405 0.32648414 -0.30869806
v -0.32422370 0.32856363 0.42537260
v -0.25650379 -0.38398725 -0.30869806
v -0.22033830 -0.40568656 0.42537260
v -0.29294056 0.35695356 -0.30869806
v -0.29294056 0.35695356 0.42537260
v -0.23019341 -0.39971924 -0.30869806
v -0.21762589 -0.40722358 -0.30869806
v -0.21762589 -0.40722358 0.42537260
v -0.28118676 0.36572373 -0.30869806
v -0.25650379 0.38398731 0.42537260
v -0.17666847 -0.42666256 -0.30869806
v -0.17666847 -0.42666256 0.42537260
v -0.25650379 0.38398731 -0.30869806
v -0.21762589 0.40722364 0.42537260
v -0.13399318 -0.44194251 -0.30869806
v -0.13399318 -0.44194251 0.42537260
v -0.21762589 0.40722364 -0.30869806
v -0.21491349 0.40857983 0.42537260
v -0.10424706 -0.44935644 -0.30869806
v -0.09303575 -0.45215923 0.42537260
v -0.20442548 0.41355258 -0.30869806
v -0.17666847 0.42666262 0.42537260
v -0.09005209 -0.45288259 -0.30869806
v -0.09005209 -0.45288259 0.42537260
v -0.17666847 0.42666262 -0.30869806
v -0.13399318 0.44194251 0.42537260
v -0.05976349 -0.45740324 -0.30869806
v -0.04828094 -0.45912111 0.42537260
v -0.13399318 0.44194251 -0.30869806
v -0.09005209 0.45288259 0.42537260
v -0.04520687 -0.45957321 -0.30869806
v -0.04520687 -0.45957321 0.42537260
v -0.09005209 0.45288259 -0.30869806
v -0.04520687 0.45957321 0.42537260
v -0.07558589 0.45505250 -0.30869806
v -0.01455661 -0.46111023 -0.30869806
v 0.00000000 -0.46183354 -0.30869806
v -0.00298365 -0.46165270 0.42537260
v -0.04213281 0.45975405 0.42537260
v -0.04520687 0.45957321 -0.30869806
v 0.04213281 -0.45975399 0.42537260
v 0.00000000 -0.46174312 0.42537260
v 0.04520687 -0.45957321 -0.30869806
v 0.00000000 0.46183354 0.42537260
v -0.03055985 0.46029651 -0.30869806
v 0.04520687 -0.45957321 0.42537260
v 0.07558589 -0.45505250 -0.30869806
v 0.01455661 0.46111023 -0.30869806
v 0.00000000 0.46174312 -0.30869806
v 0.04520687 0.45957321 0.42537260
v 0.09005209 -0.45288259 0.42537260
v 0.09005209 -0.45288259 -0.30869806
v 0.04520687 0.45957321 -0.30869806
v 0.04828094 0.45912117 0.42537260
v 0.13399318 -0.44194251 0.42537260
v 0.13399318 -0.44194251 -0.30869806
v 0.05976349 0.45740330 -0.30869806
v 0.09005209 0.45288259 0.42537260
v 0.09005209 0.45288259 -0.30869806
v 0.17666847 -0.42666256 0.42537260
v 0.17666847 -0.42666256 -0.30869806
v 0.09303575 0.45215929 0.42537260
v 0.10424706 0.44935644 -0.30869806
v 0.20442548 -0.41355258 -0.30869806
v 0.21491349 -0.40857983 0.42537260
v 0.13399318 0.44194251 0.42537260
v 0.13399318 0.44194251 -0.30869806
v 0.21762589 -0.40722358 -0.30869806
v 0.21762589 -0.40722358 0.42537260
v 0.17666847 0.42666262 0.42537260
v 0.17666847 0.42666262 -0.30869806
v 0.25650379 -0.38398725 -0.30869806
v 0.25650379 -0.38398725 0.42537260
v 0.21762589 0.40722364 0.42537260
v 0.21762589 0.40722364 -0.30869806
v 0.28118676 -0.36572367 -0.30869806
v 0.29294056 -0.35695356 0.42537260
v 0.22033830 0.40568662 0.42537260
v 0.23019341 0.39971930 -0.30869806
v 0.29294056 -0.35695356 -0.30869806
v 0.32422370 -0.32856363 0.42537260
v 0.25650379 0.38398731 0.42537260
v 0.25650379 0.38398731 -0.30869806
v 0.32648405 -0.32648408 -0.30869806
v 0.32648405 -0.32648408 0.42537260
v 0.29294056 0.35695356 0.42537260
v 0.26834801 0.37521714 -0.30869806
v 0.34709838 -0.30379027 -0.30869806
v 0.35695347 -0.29294062 0.42537260
v 0.32648405 0.32648414 0.42537260
v 0.30379018 0.34709847 -0.30869806
v 0.29294056 0.35695356 -0.30869806
v 0.35695347 -0.29294062 -0.30869806
v 0.37521705 -0.26834804 -0.30869806
v 0.38398719 -0.25650388 0.42537260
v 0.32648405 0.32648414 -0.30869806
v 0.32856357 0.32422382 0.42537260
v 0.38398719 -0.25650388 -0.30869806
v 0.40568650 -0.22033834 0.42537260
v 0.35695347 0.29294062 -0.30869806
v 0.35695347 0.29294062 0.42537260
v 0.39971918 -0.23019345 -0.30869806
v 0.40722352 -0.21762593 -0.30869806
v 0.40722352 -0.21762593 0.42537260
v 0.36572361 0.28118682 -0.30869806
v 0.38398719 0.25650388 0.42537260
v 0.42666247 -0.17666849 -0.30869806
v 0.42666247 -0.17666849 0.42537260
v 0.38398719 0.25650388 -0.30869806
v 0.40722352 0.21762596 0.42537260
v 0.44194239 -0.13399319 -0.30869806
v 0.44194239 -0.13399319 0.42537260
v 0.40722352 0.21762596 -0.30869806
v 0.40857974 0.21491355 0.42537260
v 0.44935632 -0.10424706 -0.30869806
v 0.45215917 -0.09303576 0.42537260
v 0.41355249 0.20442554 -0.30869806
v 0.42666247 0.17666852 0.42537260
v 0.45288247 -0.09005210 -0.30869806
v 0.45288247 -0.09005210 0.42537260
v 0.42666247 0.17666852 -0.30869806
v 0.44194239 0.13399322 0.42537260
v 0.45740315 -0.05976349 -0.30869806
v 0.45912102 -0.04828094 0.42537260
v 0.44194239 0.13399322 -0.30869806
v 0.45288247 0.09005213 0.42537260
v 0.45957309 -0.04520687 -0.30869806
v 0.45957309 -0.04520687 0.42537260
v 0.45288247 0.09005213 -0.30869806
v 0.45957309 0.04520690 0.42537260
v 0.45505241 0.07558592 -0.30869806
v 0.46111012 -0.01455660 -0.30869806
v 0.46183342 0.00000001 0.42537260
v 0.45975390 0.04213283 0.42537260
v 0.45957309 0.04520690 -0.30869806
v 0.46183342 0.00000001 -0.30869806
f 1 2 3
f 1 3 4
f 1 4 5
f 1 5 9
f 1 9 13
f 1 13 17
f 1 17 21
f 1 21 25
f 1 25 29
f 1 29 33
f 1 33 37
f 1 37 41
f 1 41 45
f 1 45 50
f 1 50 49
f 1 49 54
f 1 54 58
f 1 58 63
f 1 63 67
f 1 67 71
f 1 71 75
f 1 75 79
f 1 79 83
f 1 83 87
f 1 87 89
f 1 89 94
f 1 94 99
f 1 99 103
f 1 103 102
f 1 102 107
f 1 107 111
f 1 111 113
f 1 113 117
f 1 117 121
f 1 121 125
f 1 125 129
f 1 129 133
f 1 133 137
f 1 137 141
f 1 141 146
f 1 146 145
f 1 145 150
f 1 150 154
f 1 154 159
f 1 159 163
f 1 163 167
f 1 167 171
f 1 171 175
f 1 175 179
f 1 179 183
f 1 183 185
f 1 185 189
f 1 189 190
f 1 190 186
f 1 186 181
f 1 181 177
f 1 177 173
f 1 173 169
f 1 169 165
f 1 165 161
f 1 161 157
f 1 157 156
f 1 156 152
f 1 152 148
f 1 148 147
f 1 147 142
f 1 142 138
f 1 138 134
f 1 134 130
f 1 130 126
f 1 126 122
f 1 122 118
f 1 118 115
f 1 115 110
f 1 110 106
f 1 106 101
f 1 101 97
f 1 97 91
f 1 91 90
f 1 90 85
f 1 85 81
f 1 81 77
f 1 77 73
f 1 73 69
f 1 69 65
f 1 65 61
f 1 61 60
f 1 60 56
f 1 56 52
f 1 52 51
f 1 51 46
f 1 46 42
f 1 42 38
f 1 38 34
f 1 34 30
f 1 30 26
f 1 26 22
f 1 22 18
f 1 18 14
f 1 14 10
f 1 10 6
f 1 6 2
f 2 6 7
f 2 7 3
f 3 7 11
f 3 11 15
f 3 15 19
f 3 19 23
f 3 23 27
f 3 27 31
f 3 31 35
f 3 35 39
f 3 39 43
f 3 43 47
f 3 47 53
f 3 53 57
f 3 57 62
f 3 62 66
f 3 66 70
f 3 70 74
f 3 74 78
f 3 78 82
f 3 82 86
f 3 86 92
f 3 92 96
f 3 96 95
f 3 95 100
f 3 100 105
f 3 105 109
f 3 109 114
f 3 114 119
f 3 119 123
f 3 123 127
f 3 127 131
f 3 131 135
f 3 135 139
f 3 139 143
f 3 143 149
f 3 149 153
f 3 153 158
f 3 158 162
f 3 162 166
f 3 166 170
f 3 170 174
f 3 174 178
f 3 178 182
f 3 182 187
f 3 187 188
f 3 188 184
f 3 184 180
f 3 180 176
f 3 176 172
f 3 172 168
f 3 168 164
f 3 164 160
f 3 160 155
f 3 155 151
f 3 151 144
f 3 144 140
f 3 140 136
f 3 136 132
f 3 132 128
f 3 128 124
f 3 124 120
f 3 120 116
f 3 116 112
f 3 112 108
f 3 108 104
f 3 104 98
f 3 98 93
f 3 93 88
f 3 88 84
f 3 84 80
f 3 80 76
f 3 76 72
f 3 72 68
f 3 68 64
f 3 64 59
f 3 59 55
f 3 55 48
f 3 48 44
f 3 44 40
f 3 40 36
f 3 36 32
f 3 32 28
f 3 28 24
f 3 24 20
f 3 20 16
f 3 16 12
f 3 12 8
f 3 8 4
f 4 8 5
f 5 8 9
f 6 10 11
f 6 11 7
f 8 12 9
f 9 12 13
f 10 14 15
f 10 15 11
f 12 16 17
f 12 17 13
f 14 18 19
f 14 19 15
f 16 20 17
f 17 20 21
f 18 22 19
f 19 22 23
f 20 24 25
f 20 25 21
f 22 26 23
f 23 26 27
f 24 28 29
f 24 29 25
f 26 30 31
f 26 31 27
f 28 32 33
f 28 33 29
f 30 34 31
f 31 34 35
f 32 36 33
f 33 36 37
f 34 38 35
f 35 38 39
f 36 40 41
f 36 41 37
f 38 42 39
f 39 42 43
f 40 44 45
f 40 45 41
f 42 46 43
f 43 46 47
f 44 48 49
f 44 49 50
f 44 50 45
f 46 51 47
f 47 51 52
f 47 52 53
f 48 54 49
f 48 55 54
f 52 56 53
f 53 56 57
f 54 55 58
f 55 59 58
f 56 60 57
f 57 60 61
f 57 61 62
f 58 59 63
f 59 64 63
f 61 65 66
f 61 66 62
f 63 64 67
f 64 68 71
f 64 71 67
f 65 69 70
f 65 70 66
f 68 72 71
f 69 73 74
f 69 74 70
f 71 72 75
f 72 76 75
f 73 77 74
f 74 77 78
f 75 76 79
f 76 80 83
f 76 83 79
f 77 81 82
f 77 82 78
f 80 84 87
f 80 87 83
f 81 85 82
f 82 85 86
f 84 88 89
f 84 89 87
f 85 90 86
f 86 90 91
f 86 91 92
f 88 93 94
f 88 94 89
f 91 95 96
f 91 96 92
f 91 97 95
f 93 98 99
f 93 99 94
f 95 97 100
f 97 101 100
f 98 102 103
f 98 103 99
f 98 104 102
f 100 101 105
f 101 106 105
f 102 104 107
f 104 108 107
f 105 106 110
f 105 110 109
f 107 108 111
f 108 112 113
f 108 113 111
f 109 110 115
f 109 115 114
f 112 116 113
f 113 116 117
f 114 115 118
f 114 118 119
f 116 120 121
f 116 121 117
f 118 122 119
f 119 122 123
f 120 124 125
f 120 125 121
f 122 126 127
f 122 127 123
f 124 128 129
f 124 129 125
f 126 130 127
f 127 130 131
f 128 132 129
f 129 132 133
f 130 134 131
f 131 134 135
f 132 136 137
f 132 137 133
f 134 138 135
f 135 138 139
f 136 140 141
f 136 141 137
f 138 142 139
f 139 142 143
f 140 144 145
f 140 145 146
f 140 146 141
f 142 147 143
f 143 147 148
f 143 148 149
f 144 150 145
f 144 151 150
f 148 152 149
f 149 152 153
f 150 151 154
f 151 155 154
f 152 156 153
f 153 156 157
f 153 157 158
f 154 155 159
f 155 160 159
f 157 161 162
f 157 162 158
f 159 160 163
f 160 164 167
f 160 167 163
f 161 165 166
f 161 166 162
f 164 168 167
f 165 169 170
f 165 170 166
f 167 168 171
f 168 172 171
f 169 173 170
f 170 173 174
f 171 172 175
f 172 176 179
f 172 179 175
f 173 177 178
f 173 178 174
f 176 180 183
f 176 183 179
f 177 181 178
f 178 181 182
f 180 184 185
f 180 185 183
f 181 186 182
f 182 186 187
f 184 188 189
f 184 189 185
f 186 190 187
f 187 190 188
f 188 190 189

