# https://github.com/mikedh/trimesh
v -0.02265949 0.11497858 0.42356986
v -0.02265949 0.12498228 0.42355186
v -0.08019825 0.12498228 0.36233699
v -0.02265949 -0.11497373 0.42356986
v -0.02265949 0.13158949 0.42165163
v -0.04159687 0.13217327 0.40169626
v -0.05139789 0.13201405 0.39148778
v -0.06119328 0.13182831 0.38127330
v -0.07099430 0.13158949 0.37106484
v -0.07828311 0.13219979 0.36233699
v -0.08019825 -0.12497743 0.36233699
v -0.02265949 -0.12420791 0.42356384
v -0.03179584 0.13227941 0.41190472
v -0.02265949 0.13281010 0.42068055
v -0.05483388 0.13389803 0.38476804
v -0.06471376 0.13368575 0.37463751
v -0.07459364 0.13342041 0.36451295
v -0.07468940 0.13395111 0.36233699
v -0.07961807 -0.12962106 0.36233699
v -0.02265949 -0.12497743 0.42355186
v -0.02265949 0.13434914 0.41502181
v -0.02519987 0.13434914 0.41514170
v -0.03507975 0.13424300 0.40501717
v -0.04495963 0.13408378 0.39488661
v -0.06499540 0.13551667 0.36500448
v -0.06522635 0.13453488 0.36233699
v -0.07828311 -0.13219495 0.36233699
v -0.07099430 -0.13161118 0.37106484
v -0.05139789 -0.13200921 0.39148778
v -0.04159687 -0.13216841 0.40169626
v -0.03179584 -0.13230109 0.41190472
v -0.02265949 -0.12749825 0.42282054
v -0.02447888 0.13445528 0.40450764
v -0.02265949 0.13392457 0.40531087
v -0.04700433 0.13267744 0.37678349
v -0.05748128 0.13222633 0.36500448
v -0.05872612 0.13119146 0.36233699
v -0.07671720 -0.13336249 0.36233699
v -0.07459364 -0.13344209 0.36451295
v -0.06119328 -0.13182347 0.38127330
v -0.05483388 -0.13391973 0.38476804
v -0.02265949 -0.13280526 0.42068055
v -0.02745861 0.13259782 0.39726639
v -0.02265949 0.07217763 0.36237895
v -0.02265949 0.07050592 0.36233699
v -0.07468940 -0.13394625 0.36233699
v -0.06766533 -0.13556489 0.36233699
v -0.03507975 -0.13423814 0.40501717
v -0.02265949 -0.13437082 0.41774929
v -0.02265949 -0.06535328 0.36233699
v -0.06499540 -0.13551183 0.36500448
v -0.06522635 -0.13453002 0.36233699
v -0.02265949 -0.13445042 0.40637788
v -0.02265949 -0.07222585 0.36234897
v -0.02500272 -0.07222585 0.36233699
v -0.05992591 -0.13222149 0.36233699
v -0.04700433 -0.13267258 0.37678349
v -0.03723147 -0.13264604 0.38702795
v -0.02745861 -0.13259298 0.39726639
v -0.02265949 -0.13394625 0.40531087
v -0.05872612 -0.13118662 0.36233699
f 1 2 3
f 1 3 11
f 1 11 4
f 1 4 12
f 1 12 20
f 1 20 32
f 1 32 42
f 1 42 49
f 1 49 53
f 1 53 60
f 1 60 54
f 1 54 50
f 1 50 45
f 1 45 44
f 1 44 34
f 1 34 21
f 1 21 14
f 1 14 5
f 1 5 2
f 2 5 6
f 2 6 7
f 2 7 8
f 2 8 9
f 2 9 3
f 3 9 10
f 3 10 18
f 3 18 26
f 3 26 37
f 3 37 45
f 3 45 50
f 3 50 55
f 3 55 61
f 3 61 56
f 3 56 52
f 3 52 47
f 3 47 46
f 3 46 38
f 3 38 27
f 3 27 19
f 3 19 11
f 4 11 12
f 5 13 6
f 5 14 13
f 6 13 15
f 6 15 16
f 6 16 17
f 6 17 7
f 7 17 8
f 8 17 10
f 8 10 9
f 10 17 18
f 11 19 20
f 11 20 12
f 13 14 15
f 14 21 22
f 14 22 23
f 14 23 24
f 14 24 15
f 15 24 18
f 15 18 16
f 16 18 17
f 18 24 25
f 18 25 26
f 19 27 28
f 19 28 20
f 20 28 29
f 20 29 30
f 20 30 31
f 20 31 32
f 21 33 25
f 21 25 22
f 21 34 33
f 22 25 23
f 23 25 24
f 25 33 26
f 26 33 35
f 26 35 36
f 26 36 37
f 27 38 28
f 28 38 39
f 28 39 40
f 28 40 29
f 29 40 39
f 29 39 30
f 30 39 41
f 30 41 31
f 31 41 42
f 31 42 32
f 33 34 43
f 33 43 35
f 34 44 43
f 35 43 36
f 36 43 37
f 37 43 44
f 37 44 45
f 38 46 39
f 39 46 41
f 41 46 47
f 41 47 48
f 41 48 42
f 42 48 49
f 47 51 49
f 47 49 48
f 47 52 53
f 47 53 51
f 49 51 53
f 50 54 55
f 52 56 57
f 52 57 53
f 53 57 58
f 53 58 59
f 53 59 60
f 54 60 59
f 54 59 61
f 54 61 55
f 56 61 59
f 56 59 58
f 56 58 57

