# https://github.com/mikedh/trimesh
v -0.12963697 -0.11497569 0.30973905
v -0.12959504 -0.12499785 0.30973905
v -0.11999491 -0.12499785 0.32000002
v -0.12963697 0.11508203 0.30973905
v -0.12440510 -0.13353130 0.30973905
v -0.12306360 -0.13254771 0.31333271
v -0.11019356 -0.13039440 0.33021465
v -0.11529127 -0.12499785 0.32500437
v -0.11999491 0.12499785 0.32000002
v -0.12959504 0.12499785 0.30973905
v -0.12208263 -0.13451491 0.30973905
v -0.07672306 -0.13337180 0.36233097
v -0.08447862 -0.13313255 0.35437655
v -0.09435543 -0.13276038 0.34424946
v -0.11264180 -0.13233502 0.32500437
v -0.10039220 -0.13073999 0.34041896
v -0.09059084 -0.13105901 0.35063359
v -0.08079787 -0.13135143 0.36084306
v -0.07962406 -0.12959687 0.36233097
v -0.08020258 -0.12499785 0.36233097
v -0.08120032 -0.12499785 0.36127040
v -0.11529127 0.12499785 0.32500437
v -0.11019356 0.13039440 0.33021465
v -0.12954473 0.12510419 0.30973905
v -0.11542542 -0.13531244 0.30973905
v -0.10499524 -0.13565803 0.32500437
v -0.09499265 -0.13576436 0.33500275
v -0.07469404 -0.13395666 0.36233097
v -0.07829094 -0.13220210 0.36233097
v -0.10423225 -0.13233502 0.33412752
v -0.08020258 0.12499785 0.36233097
v -0.08120032 0.12499785 0.36127040
v -0.08079787 0.13135143 0.36084306
v -0.09059084 0.13105901 0.35063359
v -0.10039220 0.13073999 0.34041896
v -0.11264180 0.13233502 0.32500437
v -0.12306360 0.13254771 0.31333271
v -0.12440510 0.13353130 0.30973905
v -0.11047862 -0.13502002 0.30973905
v -0.08500684 -0.13576436 0.34499598
v -0.07500426 -0.13568461 0.35499951
v -0.06767630 -0.13555169 0.36233097
v -0.07829094 0.13220210 0.36233097
v -0.08447862 0.13313255 0.35437655
v -0.09435543 0.13276038 0.34424946
v -0.10423225 0.13233502 0.33412752
v -0.10499524 0.13565803 0.32500437
v -0.11542542 0.13531244 0.30973905
v -0.04500490 -0.12042541 0.30973905
v -0.04399877 -0.12037224 0.30976996
v -0.06523644 -0.13454150 0.36233097
v -0.07469404 0.13395666 0.36233097
v -0.09499265 0.13576436 0.33500275
v -0.08500684 0.13576436 0.34499598
v -0.07500426 0.13568461 0.35499951
v -0.04399877 0.12042541 0.30973905
v -0.04399877 -0.11287556 0.30973905
v -0.05873015 -0.13119192 0.36233097
v -0.05992912 -0.13222869 0.36233097
v -0.04399877 -0.07533899 0.36233097
v -0.06523644 0.13454150 0.36233097
v -0.05873015 0.13119192 0.36233097
v -0.05752280 0.12770942 0.36233097
v -0.04399877 0.07584408 0.36233097
f 1 2 3
f 1 3 9
f 1 9 4
f 1 4 10
f 1 10 24
f 1 24 38
f 1 38 48
f 1 48 56
f 1 56 57
f 1 57 49
f 1 49 39
f 1 39 25
f 1 25 11
f 1 11 5
f 1 5 2
f 2 5 6
f 2 6 7
f 2 7 3
f 3 7 8
f 3 8 22
f 3 22 9
f 4 9 10
f 5 11 12
f 5 12 13
f 5 13 6
f 6 13 14
f 6 14 15
f 6 15 7
f 7 15 16
f 7 16 17
f 7 17 18
f 7 18 19
f 7 19 20
f 7 20 21
f 7 21 8
f 8 21 32
f 8 32 22
f 9 22 23
f 9 23 10
f 10 23 24
f 11 25 26
f 11 26 12
f 12 26 27
f 12 27 28
f 12 28 42
f 12 42 51
f 12 51 59
f 12 59 58
f 12 58 60
f 12 60 64
f 12 64 63
f 12 63 62
f 12 62 61
f 12 61 52
f 12 52 43
f 12 43 31
f 12 31 20
f 12 20 19
f 12 19 29
f 12 29 13
f 13 29 18
f 13 18 14
f 14 18 17
f 14 17 30
f 14 30 15
f 15 30 17
f 15 17 16
f 18 29 19
f 20 31 32
f 20 32 21
f 22 32 23
f 23 32 31
f 23 31 33
f 23 33 34
f 23 34 35
f 23 35 36
f 23 36 37
f 23 37 24
f 24 37 38
f 25 39 27
f 25 27 26
f 27 40 28
f 27 39 40
f 28 40 41
f 28 41 42
f 31 43 33
f 33 43 44
f 33 44 45
f 33 45 34
f 34 45 46
f 34 46 36
f 34 36 35
f 36 46 45
f 36 45 37
f 37 45 44
f 37 44 38
f 38 44 47
f 38 47 48
f 39 42 41
f 39 41 40
f 39 49 50
f 39 50 42
f 42 50 51
f 43 52 44
f 44 52 47
f 47 53 48
f 47 52 53
f 48 53 54
f 48 54 55
f 48 55 56
f 49 57 50
f 50 58 59
f 50 59 51
f 50 57 56
f 50 56 64
f 50 64 60
f 50 60 58
f 52 61 55
f 52 55 54
f 52 54 53
f 55 61 56
f 56 61 62
f 56 62 63
f 56 63 64

