# https://github.com/mikedh/trimesh
v 0.00286762 0.11499386 0.50275004
v 0.00582465 0.11499386 0.49499822
v 0.00566611 0.12498398 0.49499822
v 0.00270909 0.12498398 0.50258523
v -0.00435147 0.11499386 0.50275004
v 0.00286762 -0.11499386 0.50275004
v 0.01000400 0.12498398 0.47001502
v 0.01000170 0.13000590 0.47000933
v 0.00582465 -0.11499386 0.49499822
v 0.00170044 0.13183205 0.50161338
v -0.00423659 0.12498398 0.50258523
v -0.00862962 0.12498398 0.49499822
v -0.00874679 0.11499386 0.49499822
v -0.00435147 -0.11499386 0.50275004
v 0.00270909 -0.12498398 0.50258523
v 0.00566611 -0.12498398 0.49499822
v 0.01007752 0.11499386 0.44469082
v 0.01007293 0.12498398 0.44469082
v 0.01000400 -0.12498398 0.47001502
v 0.01003387 0.13003275 0.44469082
v 0.00499981 0.13403417 0.46500245
v 0.00519510 0.13320166 0.47400460
v 0.00275274 0.13333593 0.49499822
v 0.01000170 -0.13000590 0.47000933
v -0.00274774 0.13183205 0.50161338
v -0.00425726 0.13333593 0.49499822
v -0.01109265 0.13210060 0.47277135
v -0.01327998 0.12498398 0.46500245
v -0.00874679 -0.11499386 0.49499822
v -0.00862962 -0.12498398 0.49499822
v -0.00423659 -0.12498398 0.50258523
v 0.00170044 -0.13183205 0.50161338
v 0.01007752 -0.12468857 0.44469082
v 0.00518132 0.13389990 0.44469082
v 0.00499981 0.13403417 0.44469082
v -0.00499939 0.13717623 0.46500245
v 0.00297331 0.13392675 0.48499584
v 0.00275274 -0.13333593 0.49499822
v 0.00519510 -0.13320166 0.47400460
v 0.00499981 -0.13403417 0.46500245
v 0.01003387 -0.13003275 0.44469082
v 0.01006604 -0.12984477 0.44469082
v -0.01163949 0.13314795 0.46500245
v -0.01338797 0.12498398 0.44469082
v -0.01339486 0.12468857 0.44469082
v -0.01327998 -0.12498398 0.46500245
v -0.01109265 -0.13210060 0.47277135
v -0.00425726 -0.13333593 0.49499822
v -0.00274774 -0.13183205 0.50161338
v -0.00468922 0.13706881 0.44469082
v -0.00499939 0.13712251 0.44469082
v -0.01169233 0.13314795 0.44469082
v -0.00499939 -0.13717623 0.46500245
v 0.00297331 -0.13392675 0.48499584
v 0.00499981 -0.13403417 0.44469082
v -0.01177275 0.13287941 0.44469082
v -0.01339486 -0.11499386 0.44469082
v -0.01338797 -0.12498398 0.44469082
v -0.01163949 -0.13314795 0.46500245
v -0.01169233 -0.13314795 0.44469082
v -0.00523145 -0.13701510 0.44469082
v -0.00499939 -0.13712251 0.44469082
f 1 2 3
f 1 3 4
f 1 4 11
f 1 11 5
f 1 5 14
f 1 14 6
f 1 6 9
f 1 9 2
f 2 7 8
f 2 8 3
f 2 9 19
f 2 19 7
f 3 8 10
f 3 10 4
f 4 10 25
f 4 25 11
f 5 11 12
f 5 12 13
f 5 13 29
f 5 29 14
f 6 14 31
f 6 31 15
f 6 15 16
f 6 16 9
f 7 17 18
f 7 18 8
f 7 19 33
f 7 33 17
f 8 20 21
f 8 21 22
f 8 22 23
f 8 23 10
f 8 18 20
f 9 16 24
f 9 24 19
f 10 23 26
f 10 26 25
f 11 25 12
f 12 25 26
f 12 26 27
f 12 27 28
f 12 28 13
f 13 28 46
f 13 46 29
f 14 29 30
f 14 30 31
f 15 31 49
f 15 49 32
f 15 32 16
f 16 32 24
f 17 33 42
f 17 42 41
f 17 41 55
f 17 55 62
f 17 62 61
f 17 61 60
f 17 60 58
f 17 58 57
f 17 57 45
f 17 45 44
f 17 44 56
f 17 56 52
f 17 52 51
f 17 51 50
f 17 50 35
f 17 35 34
f 17 34 20
f 17 20 18
f 19 24 33
f 20 34 21
f 21 35 36
f 21 36 37
f 21 37 23
f 21 23 22
f 21 34 35
f 23 37 36
f 23 36 26
f 24 32 38
f 24 38 39
f 24 39 40
f 24 40 41
f 24 41 42
f 24 42 33
f 26 36 43
f 26 43 27
f 27 43 28
f 28 43 44
f 28 44 45
f 28 45 57
f 28 57 46
f 29 46 30
f 30 46 47
f 30 47 48
f 30 48 49
f 30 49 31
f 32 49 48
f 32 48 38
f 35 50 36
f 36 50 51
f 36 51 52
f 36 52 43
f 38 48 53
f 38 53 54
f 38 54 40
f 38 40 39
f 40 53 55
f 40 55 41
f 40 54 53
f 43 52 56
f 43 56 44
f 46 57 58
f 46 58 59
f 46 59 47
f 47 59 48
f 48 59 53
f 53 60 61
f 53 61 62
f 53 62 55
f 53 59 60
f 58 60 59

