# https://github.com/mikedh/trimesh
v 0.03635727 -0.13842362 -0.48495260
v 0.03635727 -0.13812554 -0.49350032
v 0.11498183 -0.13842362 -0.48495260
v 0.03635727 -0.13842362 0.27497360
v 0.03634744 -0.12888464 0.30102775
v 0.03635727 -0.13804424 -0.49497974
v 0.11498183 -0.13804424 -0.49497974
v 0.12498073 -0.13826104 -0.48495260
v 0.11498183 -0.13842362 0.27497360
v 0.12498073 -0.13801713 -0.49497974
v 0.03635727 -0.13839653 0.28491858
v 0.03634744 -0.09801845 0.33415022
v 0.03634744 0.12888464 0.30102775
v 0.03635727 -0.12498233 -0.50550008
v 0.03635727 -0.13387093 -0.50270557
v 0.03635727 -0.13782744 0.28631580
v 0.03635727 -0.13419612 0.29494572
v 0.03635727 -0.12999572 0.29987711
v 0.12498073 -0.13387093 -0.50270557
v 0.13338688 -0.13403353 -0.48495260
v 0.12498073 -0.13826104 0.28491858
v 0.13325906 -0.13395223 -0.49497974
v 0.11498183 -0.13839653 0.28491858
v 0.13208908 -0.13257016 -0.50171930
v 0.12498073 -0.13782744 0.29494572
v 0.09547562 -0.13446711 0.33415022
v 0.08529975 -0.13400643 0.33415022
v 0.03634744 0.09801845 0.33415022
v 0.03635727 0.12999572 0.29987711
v 0.03635727 0.13056481 0.29921958
v 0.03635727 0.13419612 0.29494572
v 0.03635727 0.13839653 0.28491858
v 0.03635727 0.13842362 0.27497360
v 0.03635727 0.13842362 -0.48495260
v 0.03635727 0.13804424 -0.49497974
v 0.03635727 0.13752934 -0.49596602
v 0.03635727 0.13387093 -0.50270557
v 0.03635727 0.12498233 -0.50550008
v 0.12498073 -0.12498233 -0.50550008
v 0.13678867 -0.12498233 -0.48495260
v 0.13338688 -0.13403353 0.28491858
v 0.13654287 -0.12498233 -0.49497974
v 0.13314109 -0.12498233 -0.50270557
v 0.13295428 -0.13376254 0.29494572
v 0.13168599 -0.13232626 0.30193183
v 0.12512821 -0.13579498 0.30102775
v 0.11533577 -0.13446711 0.31524658
v 0.10545485 -0.13449422 0.32535592
v 0.09881842 -0.13357283 0.33415022
v 0.08529975 0.13400643 0.33415022
v 0.08570286 0.13425033 0.33415022
v 0.09547562 0.13446711 0.33415022
v 0.09694055 0.13449422 0.33415022
v 0.12498073 0.13782744 0.29494572
v 0.11498183 0.13839653 0.28491858
v 0.11498183 0.13842362 0.27497360
v 0.11498183 0.13842362 -0.48495260
v 0.11498183 0.13804424 -0.49497974
v 0.12498073 0.13387093 -0.50270557
v 0.12498073 0.12498233 -0.50550008
v 0.13678867 0.12498233 -0.48495260
v 0.13678867 -0.12498233 0.28491858
v 0.13654287 0.12498233 -0.49497974
v 0.13314109 0.12498233 -0.50270557
v 0.13593331 -0.12498233 0.29494572
v 0.13253151 -0.12498233 0.30291811
v 0.12804824 -0.12498233 0.30793169
v 0.10340985 -0.12498233 0.33415022
v 0.12203120 -0.13240756 0.31212336
v 0.12521669 -0.13441291 0.30513725
v 0.10242668 -0.13254306 0.33258861
v 0.09881842 0.13354574 0.33415022
v 0.10242668 0.13254306 0.33258861
v 0.12521669 0.13441291 0.30513725
v 0.10545485 0.13449422 0.32535592
v 0.13295428 0.13376254 0.29494572
v 0.13338688 0.13403353 0.28491858
v 0.12498073 0.13826104 0.28491858
v 0.12512821 0.13579498 0.30102775
v 0.13168599 0.13229917 0.30193183
v 0.12498073 0.13826104 -0.48495260
v 0.12498073 0.13801713 -0.49497974
v 0.13208908 0.13257016 -0.50171930
v 0.13338688 0.13403353 -0.48495260
v 0.13678867 0.12498233 0.28491858
v 0.13325906 0.13395223 -0.49497974
v 0.13593331 0.12498233 0.29494572
v 0.12888393 0.00200535 0.33415022
v 0.12887409 -0.00498629 0.33415022
v 0.10157131 0.13067320 0.33415022
v 0.12203120 0.13240756 0.31212336
v 0.10340985 0.12498233 0.33415022
v 0.12804824 0.12498233 0.30793169
v 0.13253151 0.12498233 0.30291811
v 0.12888393 0.00498629 0.33415022
f 1 2 3
f 1 3 9
f 1 9 4
f 1 4 5
f 1 5 2
f 2 5 6
f 2 6 7
f 2 7 3
f 3 8 21
f 3 21 9
f 3 7 10
f 3 10 8
f 4 9 23
f 4 23 11
f 4 11 5
f 5 12 28
f 5 28 13
f 5 13 38
f 5 38 14
f 5 14 15
f 5 15 6
f 5 11 16
f 5 16 17
f 5 17 18
f 5 18 12
f 6 15 19
f 6 19 7
f 7 19 10
f 8 20 41
f 8 41 21
f 8 10 22
f 8 22 20
f 9 21 23
f 10 19 24
f 10 24 22
f 11 23 25
f 11 25 26
f 11 26 27
f 11 27 16
f 12 27 26
f 12 26 49
f 12 49 68
f 12 68 89
f 12 89 88
f 12 88 95
f 12 95 92
f 12 92 90
f 12 90 72
f 12 72 53
f 12 53 52
f 12 52 51
f 12 51 50
f 12 50 28
f 12 18 27
f 13 28 29
f 13 29 30
f 13 30 31
f 13 31 32
f 13 32 33
f 13 33 34
f 13 34 35
f 13 35 36
f 13 36 37
f 13 37 38
f 14 39 19
f 14 19 15
f 14 38 60
f 14 60 39
f 16 27 17
f 17 27 18
f 19 39 24
f 20 40 62
f 20 62 41
f 20 22 40
f 21 41 25
f 21 25 23
f 22 24 42
f 22 42 40
f 24 39 43
f 24 43 42
f 25 41 44
f 25 44 45
f 25 45 46
f 25 46 47
f 25 47 48
f 25 48 26
f 26 48 49
f 28 50 29
f 29 50 30
f 30 50 31
f 31 50 51
f 31 51 32
f 32 51 52
f 32 52 53
f 32 53 54
f 32 54 55
f 32 55 56
f 32 56 33
f 33 56 57
f 33 57 34
f 34 57 58
f 34 58 35
f 35 58 36
f 36 59 37
f 36 58 59
f 37 59 60
f 37 60 38
f 39 60 64
f 39 64 43
f 40 61 85
f 40 85 62
f 40 42 63
f 40 63 61
f 41 62 44
f 42 43 64
f 42 64 63
f 44 62 65
f 44 65 45
f 45 66 67
f 45 67 68
f 45 68 69
f 45 69 70
f 45 70 46
f 45 65 66
f 46 70 47
f 47 71 49
f 47 49 48
f 47 70 71
f 49 71 68
f 53 72 73
f 53 73 74
f 53 74 75
f 53 75 54
f 54 76 77
f 54 77 78
f 54 78 55
f 54 75 79
f 54 79 80
f 54 80 76
f 55 78 56
f 56 78 81
f 56 81 57
f 57 81 82
f 57 82 58
f 58 82 59
f 59 82 83
f 59 83 60
f 60 83 64
f 61 84 77
f 61 77 85
f 61 63 86
f 61 86 84
f 62 85 87
f 62 87 65
f 63 64 83
f 63 83 86
f 65 87 95
f 65 95 88
f 65 88 89
f 65 89 66
f 66 89 67
f 67 89 68
f 68 71 69
f 69 71 70
f 72 90 73
f 73 91 74
f 73 90 91
f 74 91 80
f 74 80 79
f 74 79 75
f 76 87 85
f 76 85 77
f 76 80 87
f 77 84 81
f 77 81 78
f 80 91 92
f 80 92 93
f 80 93 94
f 80 94 87
f 81 84 86
f 81 86 82
f 82 86 83
f 87 94 95
f 90 92 91
f 92 95 93
f 93 95 94

