# https://github.com/mikedh/trimesh
v 0.03635759 -0.13511917 0.39488098
v 0.04500348 -0.13554376 0.38499579
v 0.03635759 -0.13230619 0.40312356
v 0.03635759 -0.13318193 0.38561544
v 0.04543984 -0.13331461 0.37554336
v 0.05531361 -0.13363306 0.36540243
v 0.06517724 -0.13387190 0.35526150
v 0.07505102 -0.13408419 0.34512058
v 0.08491465 -0.13426997 0.33497965
v 0.05500918 -0.13541108 0.37500238
v 0.04430328 -0.13257156 0.39419246
v 0.09263709 -0.13259810 0.34280911
v 0.04050802 -0.13092624 0.40053669
v 0.08194135 -0.05181785 0.41169071
v 0.07193565 -0.04207857 0.42127100
v 0.06127035 -0.03069397 0.43039882
v 0.03635759 -0.12498183 0.40549403
v 0.03635759 -0.13259810 0.38433677
v 0.04906259 -0.13153660 0.36900240
v 0.05884504 -0.13177544 0.35876313
v 0.06862748 -0.13198774 0.34853366
v 0.07840993 -0.13217349 0.33829439
v 0.08530026 -0.13403113 0.33415341
v 0.09547847 -0.13448226 0.33415341
v 0.09557994 -0.13448226 0.33555996
v 0.09882724 -0.13357998 0.33415341
v 0.06011350 -0.13020971 0.38011712
v 0.05031076 -0.13058124 0.39031705
v 0.10024792 -0.06020371 0.39030722
v 0.09184557 -0.05282627 0.40197274
v 0.08299672 -0.04499770 0.41291040
v 0.07314324 -0.03499305 0.42274639
v 0.06748078 -0.02498840 0.42858899
v 0.06247793 -0.02498840 0.43105784
v 0.05500918 -0.00497910 0.43462831
v 0.05916976 -0.03069397 0.43039882
v 0.04786515 -0.00497910 0.43186438
v 0.04286230 -0.00497910 0.42731032
v 0.03635759 -0.00497910 0.42131034
v 0.03635759 -0.09801969 0.33415341
v 0.10341402 -0.12498183 0.33415341
v 0.12029991 -0.05041136 0.37052700
v 0.11144090 -0.05189746 0.38155317
v 0.10142506 -0.05497582 0.39154655
v 0.08799957 -0.04499770 0.40795302
v 0.07338678 -0.02498840 0.42359230
v 0.06832305 -0.01498375 0.42859882
v 0.06364493 -0.00497910 0.43276930
v 0.06333034 -0.01498375 0.43199226
v 0.05500918 0.00499901 0.43463814
v 0.04786515 0.00499901 0.43186438
v 0.04286230 0.00499901 0.42731032
v 0.03635759 0.00499901 0.42131034
v 0.03635759 0.09803960 0.33415341
v 0.12888491 -0.00497910 0.33415341
v 0.13246708 -0.00497910 0.33767471
v 0.13763230 -0.00405029 0.34595662
v 0.13267003 -0.02498840 0.34628123
v 0.13141170 -0.03188816 0.34813040
v 0.13414146 -0.02498840 0.35500577
v 0.13175674 -0.03289659 0.35500577
v 0.13092461 -0.03196777 0.36113361
v 0.12115232 -0.04499770 0.37140241
v 0.11717439 -0.04499770 0.37639910
v 0.11217155 -0.04499770 0.38232037
v 0.09276902 -0.04499770 0.40295634
v 0.08308805 -0.03499305 0.41327432
v 0.07338678 -0.01498375 0.42360213
v 0.06863762 -0.00497910 0.42859882
v 0.06364493 0.00499901 0.43276930
v 0.06333034 0.01497712 0.43199226
v 0.06247793 0.02498177 0.43105784
v 0.06127035 0.03071388 0.43039882
v 0.05916976 0.03071388 0.43039882
v 0.03635759 0.12537326 0.40545470
v 0.03635759 0.13261801 0.38433677
v 0.05884504 0.13179535 0.35876313
v 0.07840993 0.13216686 0.33829439
v 0.08530026 0.13402450 0.33415341
v 0.12888491 0.00499901 0.33415341
v 0.13246708 0.00499901 0.33767471
v 0.13763230 0.00404366 0.34595662
v 0.14001702 -0.00009620 0.34993038
v 0.14001702 -0.00009620 0.35003859
v 0.13147259 -0.02498840 0.36170408
v 0.12186266 -0.03499305 0.37201223
v 0.12688580 -0.02498840 0.36670080
v 0.11717439 -0.03499305 0.37701878
v 0.11218169 -0.03499305 0.38233021
v 0.11718454 -0.02498840 0.37701878
v 0.13159437 -0.00497910 0.36170408
v 0.07339693 0.01497712 0.42360213
v 0.06863762 0.00499901 0.42859882
v 0.06832305 0.01497712 0.42859882
v 0.06748078 0.02498177 0.42858899
v 0.07315338 0.03498642 0.42274639
v 0.07193565 0.04207194 0.42127100
v 0.03635759 0.13232610 0.40312356
v 0.03635759 0.13298953 0.38487774
v 0.04543984 0.13333452 0.37554336
v 0.05531361 0.13362643 0.36540243
v 0.06517724 0.13389181 0.35526150
v 0.07505102 0.13410410 0.34512058
v 0.08491465 0.13426334 0.33497965
v 0.08571632 0.13426334 0.33415341
v 0.10341402 0.12497520 0.33415341
v 0.13265988 0.02498177 0.34628123
v 0.14001702 0.00008957 0.34993038
v 0.14001702 0.00008957 0.35003859
v 0.13157408 -0.01498375 0.36170408
v 0.13159437 0.00499901 0.36170408
v 0.08309820 0.01497712 0.41328415
v 0.08309820 0.02498177 0.41328415
v 0.07339693 0.02498177 0.42359230
v 0.08299672 0.04499107 0.41291040
v 0.08194135 0.05181122 0.41169071
v 0.09263709 0.13261801 0.34280911
v 0.03635759 0.13288338 0.40234649
v 0.04050802 0.13091961 0.40053669
v 0.03635759 0.13556367 0.39365146
v 0.04500348 0.13553713 0.38499579
v 0.05500918 0.13543099 0.37500238
v 0.09547847 0.13447563 0.33415341
v 0.13175674 0.03291649 0.35500577
v 0.13414146 0.02498177 0.35500577
v 0.13141170 0.03190807 0.34813040
v 0.10157727 0.13068077 0.33415341
v 0.13157408 0.01497712 0.36170408
v 0.13092461 0.03196114 0.36113361
v 0.13147259 0.02498177 0.36170408
v 0.12688580 0.02498177 0.36670080
v 0.12189311 0.02498177 0.37202206
v 0.08308805 0.03498642 0.41328415
v 0.08799957 0.04499107 0.40795302
v 0.09184557 0.05281964 0.40197274
v 0.10024792 0.06019708 0.39030722
v 0.09882724 0.13357335 0.33415341
v 0.05031076 0.13057461 0.39031705
v 0.06011350 0.13020308 0.38011712
v 0.09694990 0.13450217 0.33415341
v 0.11144090 0.05189083 0.38155317
v 0.12029991 0.05040473 0.37052700
v 0.12115232 0.04499107 0.37140241
v 0.11717439 0.04499107 0.37639910
v 0.12187281 0.03498642 0.37202206
v 0.11718454 0.03498642 0.37701878
v 0.10248043 0.04499107 0.39263836
v 0.09277917 0.04499107 0.40295634
v 0.10142506 0.05499572 0.39154655
v 0.11217155 0.04499107 0.38233021
f 1 2 3
f 1 3 17
f 1 17 39
f 1 39 53
f 1 53 75
f 1 75 98
f 1 98 118
f 1 118 120
f 1 120 99
f 1 99 76
f 1 76 54
f 1 54 40
f 1 40 18
f 1 18 4
f 1 4 2
f 2 4 5
f 2 5 6
f 2 6 7
f 2 7 8
f 2 8 9
f 2 9 10
f 2 10 11
f 2 11 3
f 3 11 12
f 3 12 13
f 3 13 14
f 3 14 15
f 3 15 16
f 3 16 17
f 4 18 5
f 5 18 19
f 5 19 20
f 5 20 21
f 5 21 6
f 6 21 22
f 6 22 7
f 7 22 8
f 8 22 23
f 8 23 9
f 9 23 24
f 9 24 10
f 10 24 25
f 10 25 11
f 11 26 12
f 11 25 26
f 12 27 28
f 12 28 13
f 12 26 29
f 12 29 27
f 13 28 29
f 13 29 14
f 14 29 30
f 14 30 31
f 14 31 32
f 14 32 15
f 15 32 16
f 16 32 33
f 16 33 34
f 16 34 35
f 16 35 36
f 16 36 17
f 17 36 35
f 17 35 37
f 17 37 38
f 17 38 39
f 18 40 19
f 19 40 20
f 20 40 21
f 21 40 22
f 22 40 23
f 23 40 54
f 23 54 79
f 23 79 105
f 23 105 123
f 23 123 140
f 23 140 137
f 23 137 127
f 23 127 106
f 23 106 80
f 23 80 55
f 23 55 41
f 23 41 26
f 23 26 24
f 24 26 25
f 26 41 42
f 26 42 43
f 26 43 29
f 27 29 28
f 29 43 44
f 29 44 30
f 30 45 31
f 30 44 45
f 31 45 46
f 31 46 32
f 32 46 33
f 33 46 47
f 33 47 48
f 33 48 49
f 33 49 34
f 34 49 35
f 35 49 48
f 35 48 50
f 35 50 37
f 37 50 51
f 37 51 52
f 37 52 38
f 38 52 53
f 38 53 39
f 41 55 56
f 41 56 57
f 41 57 58
f 41 58 59
f 41 59 60
f 41 60 61
f 41 61 62
f 41 62 42
f 42 62 63
f 42 63 43
f 43 63 64
f 43 64 65
f 43 65 44
f 44 65 66
f 44 66 45
f 45 66 67
f 45 67 46
f 46 67 68
f 46 68 69
f 46 69 47
f 47 69 48
f 48 69 93
f 48 93 70
f 48 70 50
f 50 70 71
f 50 71 72
f 50 72 73
f 50 73 74
f 50 74 75
f 50 75 51
f 51 75 52
f 52 75 53
f 54 76 77
f 54 77 78
f 54 78 79
f 55 80 81
f 55 81 56
f 56 81 82
f 56 82 57
f 57 82 108
f 57 108 83
f 57 83 58
f 58 83 59
f 59 83 60
f 60 62 61
f 60 83 84
f 60 84 62
f 62 85 63
f 62 84 85
f 63 85 64
f 64 85 86
f 64 86 65
f 65 86 87
f 65 87 88
f 65 88 89
f 65 89 67
f 65 67 66
f 67 89 87
f 67 87 90
f 67 90 68
f 68 90 91
f 68 91 92
f 68 92 69
f 69 92 93
f 70 93 94
f 70 94 95
f 70 95 71
f 71 95 72
f 72 95 73
f 73 95 96
f 73 96 97
f 73 97 98
f 73 98 75
f 73 75 74
f 76 99 77
f 77 99 100
f 77 100 78
f 78 100 101
f 78 101 102
f 78 102 103
f 78 103 79
f 79 103 104
f 79 104 105
f 80 106 81
f 81 106 82
f 82 106 107
f 82 107 108
f 83 108 109
f 83 109 84
f 84 109 111
f 84 111 91
f 84 91 110
f 84 110 85
f 85 110 87
f 85 87 86
f 87 89 88
f 87 110 91
f 87 91 90
f 91 111 113
f 91 113 112
f 91 112 92
f 92 112 113
f 92 113 114
f 92 114 93
f 93 114 94
f 94 114 95
f 95 114 96
f 96 114 115
f 96 115 116
f 96 116 97
f 97 116 98
f 98 117 118
f 98 116 119
f 98 119 117
f 99 120 100
f 100 120 101
f 101 120 102
f 102 120 103
f 103 120 104
f 104 120 105
f 105 120 121
f 105 121 122
f 105 122 123
f 106 124 125
f 106 125 126
f 106 126 107
f 106 127 124
f 107 126 108
f 108 126 125
f 108 125 109
f 109 128 111
f 109 125 129
f 109 129 130
f 109 130 128
f 111 128 131
f 111 131 132
f 111 132 113
f 113 132 133
f 113 133 114
f 114 133 134
f 114 134 115
f 115 134 135
f 115 135 116
f 116 135 136
f 116 136 119
f 117 137 118
f 117 119 138
f 117 138 139
f 117 139 136
f 117 136 127
f 117 127 137
f 118 137 140
f 118 140 122
f 118 122 121
f 118 121 120
f 119 136 138
f 122 140 123
f 124 129 125
f 124 127 129
f 127 136 141
f 127 141 142
f 127 142 129
f 128 130 131
f 129 142 143
f 129 143 130
f 130 143 144
f 130 144 145
f 130 145 131
f 131 145 132
f 132 145 146
f 132 146 133
f 133 146 147
f 133 147 148
f 133 148 134
f 134 148 149
f 134 149 135
f 135 149 136
f 136 149 141
f 136 139 138
f 141 150 144
f 141 144 143
f 141 143 142
f 141 149 150
f 144 150 145
f 145 150 146
f 146 150 147
f 147 150 149
f 147 149 148

