# https://github.com/mikedh/trimesh
v -0.00499852 0.13712382 0.44468278
v -0.00468665 0.13707002 0.44468278
v 0.03634744 0.13556346 0.39365935
v -0.00499852 0.13741976 0.43499243
v -0.02265386 0.13435283 0.41502324
v -0.01169218 0.13314220 0.44468278
v 0.00500444 0.13403000 0.44468278
v 0.03634744 0.13287318 0.40235001
v 0.03634744 0.13300769 0.38488805
v -0.02265386 0.13394929 0.40530872
v -0.02265386 0.13279247 0.42068267
v -0.01177304 0.13290007 0.44468278
v -0.02265386 0.13158184 0.42165008
v 0.00518925 0.13389549 0.44468278
v 0.01002902 0.13004838 0.44468278
v 0.03634744 0.13230821 0.40313202
v 0.03634744 0.13260415 0.38433179
v -0.02265386 0.07218035 0.36237937
v -0.01338437 0.12499064 0.44468278
v -0.02265386 0.12499064 0.42355269
v 0.03634744 0.12536728 0.40546191
v 0.01006945 0.12499064 0.44468278
v 0.03634744 0.00497703 0.42131150
v 0.03634744 0.07269150 0.36233103
v -0.01499570 0.07223415 0.36233103
v -0.02265386 0.07051237 0.36233103
v -0.01339015 0.12466781 0.44468278
v -0.02265386 0.11498278 0.42356881
v 0.01007523 0.11498278 0.44468278
v 0.03634744 -0.00497703 0.42131150
v 0.03634744 -0.07296053 0.36233103
v -0.02265386 -0.06534702 0.36233103
v -0.01339015 -0.11498278 0.44468278
v -0.02265386 -0.12421045 0.42356881
v 0.01007523 -0.12466781 0.44468278
v 0.01006368 -0.12986006 0.44468278
v 0.03634744 -0.12499064 0.40549415
v 0.03634744 -0.12781544 0.38196161
v -0.02265386 -0.07220725 0.36234713
v -0.01510544 -0.07223415 0.36233103
v -0.01338437 -0.12499064 0.44468278
v -0.02265386 -0.12499064 0.42355269
v 0.01002902 -0.13004838 0.44468278
v 0.03634744 -0.13230821 0.40313202
v 0.03634744 -0.13260415 0.38433179
v -0.02265386 -0.13394929 0.40530872
v -0.02265386 -0.12749261 0.42281905
v -0.02265386 -0.13279247 0.42068267
v -0.01169218 -0.13314220 0.44468278
v 0.00500444 -0.13403000 0.44468278
v 0.03441846 -0.13295388 0.40431711
v 0.03634744 -0.13513301 0.39488477
v 0.03634744 -0.13316910 0.38562974
v -0.02265386 -0.13446045 0.40637287
v -0.02265386 -0.13435283 0.41774815
v -0.00522953 -0.13701621 0.44468278
v -0.00499852 -0.13712382 0.44468278
v 0.03499600 -0.13556346 0.39500567
v -0.00499852 -0.13741976 0.43499243
f 1 2 3
f 1 3 4
f 1 4 5
f 1 5 6
f 1 6 12
f 1 12 19
f 1 19 27
f 1 27 33
f 1 33 41
f 1 41 49
f 1 49 56
f 1 56 57
f 1 57 50
f 1 50 43
f 1 43 36
f 1 36 35
f 1 35 29
f 1 29 22
f 1 22 15
f 1 15 14
f 1 14 7
f 1 7 2
f 2 7 3
f 3 7 8
f 3 8 16
f 3 16 21
f 3 21 23
f 3 23 30
f 3 30 37
f 3 37 44
f 3 44 52
f 3 52 53
f 3 53 45
f 3 45 38
f 3 38 31
f 3 31 24
f 3 24 17
f 3 17 9
f 3 9 10
f 3 10 4
f 4 10 5
f 5 10 18
f 5 18 26
f 5 26 32
f 5 32 39
f 5 39 46
f 5 46 54
f 5 54 55
f 5 55 48
f 5 48 47
f 5 47 42
f 5 42 34
f 5 34 28
f 5 28 20
f 5 20 13
f 5 13 11
f 5 11 6
f 6 11 13
f 6 13 12
f 7 14 8
f 8 14 15
f 8 15 16
f 9 17 10
f 10 17 18
f 12 13 19
f 13 20 19
f 15 21 16
f 15 22 23
f 15 23 21
f 17 24 25
f 17 25 18
f 18 25 26
f 19 20 27
f 20 28 27
f 22 29 23
f 23 29 35
f 23 35 30
f 24 31 40
f 24 40 32
f 24 32 26
f 24 26 25
f 27 28 34
f 27 34 33
f 30 35 36
f 30 36 37
f 31 38 39
f 31 39 40
f 32 40 39
f 33 34 41
f 34 42 41
f 36 43 37
f 37 43 44
f 38 45 39
f 39 45 46
f 41 42 47
f 41 47 48
f 41 48 49
f 43 50 44
f 44 50 51
f 44 51 52
f 45 53 54
f 45 54 46
f 48 55 49
f 49 55 56
f 50 57 58
f 50 58 52
f 50 52 51
f 52 58 53
f 53 58 54
f 54 58 59
f 54 59 55
f 55 59 57
f 55 57 56
f 57 59 58

