# https://github.com/mikedh/trimesh
v -0.12498393 -0.13842362 -0.48499149
v -0.13499916 -0.13427742 -0.48499149
v -0.13499916 -0.13411483 -0.49496645
v -0.12498393 -0.13807133 -0.49496645
v 0.03634743 -0.13812554 -0.49360985
v 0.03634743 -0.13842362 -0.48499149
v -0.12498393 -0.13842362 0.27494124
v -0.14002404 -0.13007702 -0.49496645
v -0.14000675 -0.13004991 -0.49999383
v -0.13499916 -0.13427742 0.28499600
v -0.13499916 -0.13197397 -0.50135040
v -0.12498393 -0.13387093 -0.50270700
v 0.03634743 -0.13444002 -0.50166965
v 0.03634743 -0.13807133 -0.49496645
v 0.03634743 -0.13842362 0.27494124
v -0.12498393 -0.13839653 0.28499600
v -0.14005856 -0.12498233 -0.49496645
v -0.14002404 -0.13007702 0.28499600
v -0.14002404 -0.12498233 -0.49999383
v -0.13499916 -0.12498233 -0.50278682
v -0.12498393 -0.13807133 0.29497099
v -0.13572440 -0.13330184 0.29409319
v -0.14000675 -0.13004991 0.29018298
v -0.12498393 -0.12498233 -0.50550002
v 0.03634743 -0.13387093 -0.50270700
v 0.03634743 -0.13839653 0.28499600
v -0.14005856 0.12498233 -0.49496645
v -0.14005856 -0.12498233 0.28499600
v -0.14002404 0.12498233 -0.49999383
v -0.13499916 0.12498233 -0.50278682
v -0.11541767 -0.13530719 0.30973393
v -0.12208297 -0.13452132 0.30973393
v -0.12583005 -0.13460262 0.30582374
v -0.13287523 -0.13265146 0.30311054
v -0.13933332 -0.12498233 0.29521036
v -0.14002404 -0.12498233 0.29026279
v 0.03634743 -0.12498233 -0.50550002
v -0.12498393 0.12498233 -0.50550002
v 0.03634743 -0.13419612 0.29497099
v -0.14002404 0.13007702 -0.49496645
v -0.14000675 0.13004991 -0.49999383
v -0.14005856 0.12498233 0.28499600
v -0.13499916 0.13197397 -0.50135040
v -0.11047913 -0.13500911 0.30973393
v -0.12439683 -0.13354574 0.30973393
v -0.13432571 -0.12498233 0.30462673
v -0.12959439 -0.12498233 0.30973393
v -0.13933332 0.12498233 0.29521036
v -0.14002404 0.12498233 0.29026279
v 0.03634743 0.12498233 -0.50550002
v -0.12498393 0.13387093 -0.50270700
v 0.03634743 0.13267855 -0.50310600
v 0.03634743 -0.12999572 0.29999837
v -0.13499916 0.13427742 -0.48499149
v -0.14002404 0.13007702 0.28499600
v -0.13499916 0.13411483 -0.49496645
v -0.14000675 0.13004991 0.29018298
v -0.12498393 0.13807133 -0.49496645
v 0.03634743 -0.12040254 0.30973393
v -0.13432571 0.12498233 0.30462673
v -0.12962893 -0.11498266 0.30973393
v -0.13287523 0.13265146 0.30311054
v 0.03634743 0.13752934 -0.49600384
v 0.03634743 0.13387093 -0.50270700
v -0.12498393 0.13842362 -0.48499149
v -0.13499916 0.13427742 0.28499600
v -0.13572440 0.13330184 0.29409319
v 0.03634743 0.13807133 -0.49496645
v 0.03634743 0.12040254 0.30973393
v -0.12962893 0.11509106 0.30973393
v -0.12959439 0.12498233 0.30973393
v -0.12498393 0.13807133 0.29497099
v -0.12954259 0.12509073 0.30973393
v -0.12439683 0.13354574 0.30973393
v -0.12583005 0.13460262 0.30582374
v 0.03634743 0.13842362 -0.48499149
v -0.12498393 0.13842362 0.27494124
v -0.12498393 0.13839653 0.28499600
v -0.11541767 0.13530719 0.30973393
v 0.03634743 0.12999572 0.29999837
v 0.03634743 0.13839653 0.28499600
v 0.03634743 0.13842362 0.27494124
v 0.03634743 0.13419612 0.29497099
f 1 2 3
f 1 3 4
f 1 4 5
f 1 5 6
f 1 6 15
f 1 15 7
f 1 7 10
f 1 10 2
f 2 8 9
f 2 9 3
f 2 10 18
f 2 18 8
f 3 9 11
f 3 11 4
f 4 11 12
f 4 12 13
f 4 13 14
f 4 14 5
f 5 14 13
f 5 13 25
f 5 25 37
f 5 37 50
f 5 50 52
f 5 52 64
f 5 64 63
f 5 63 68
f 5 68 76
f 5 76 82
f 5 82 81
f 5 81 83
f 5 83 80
f 5 80 69
f 5 69 59
f 5 59 53
f 5 53 39
f 5 39 26
f 5 26 15
f 5 15 6
f 7 15 26
f 7 26 16
f 7 16 10
f 8 17 9
f 8 18 28
f 8 28 17
f 9 19 20
f 9 20 11
f 9 17 19
f 10 16 21
f 10 21 22
f 10 22 23
f 10 23 18
f 11 20 24
f 11 24 12
f 12 25 13
f 12 24 37
f 12 37 25
f 16 26 21
f 17 27 29
f 17 29 19
f 17 28 42
f 17 42 27
f 18 23 28
f 19 29 30
f 19 30 20
f 20 30 38
f 20 38 24
f 21 31 32
f 21 32 33
f 21 33 34
f 21 34 22
f 21 26 31
f 22 34 23
f 23 34 35
f 23 35 36
f 23 36 28
f 24 38 50
f 24 50 37
f 26 39 31
f 27 40 41
f 27 41 29
f 27 42 55
f 27 55 40
f 28 36 49
f 28 49 42
f 29 41 30
f 30 41 43
f 30 43 38
f 31 39 44
f 31 44 59
f 31 59 69
f 31 69 79
f 31 79 74
f 31 74 73
f 31 73 71
f 31 71 70
f 31 70 61
f 31 61 47
f 31 47 45
f 31 45 32
f 32 45 33
f 33 45 34
f 34 46 35
f 34 45 47
f 34 47 46
f 35 46 60
f 35 60 48
f 35 48 49
f 35 49 36
f 38 43 51
f 38 51 52
f 38 52 50
f 39 53 44
f 40 54 41
f 40 55 66
f 40 66 54
f 41 54 56
f 41 56 43
f 42 49 57
f 42 57 55
f 43 56 58
f 43 58 51
f 44 53 59
f 46 47 61
f 46 61 70
f 46 70 60
f 48 60 62
f 48 62 57
f 48 57 49
f 51 58 63
f 51 63 64
f 51 64 52
f 54 65 56
f 54 66 77
f 54 77 65
f 55 57 66
f 56 65 58
f 57 67 66
f 57 62 67
f 58 68 63
f 58 65 76
f 58 76 68
f 60 70 71
f 60 71 62
f 62 72 67
f 62 71 73
f 62 73 74
f 62 74 75
f 62 75 72
f 65 77 82
f 65 82 76
f 66 67 72
f 66 72 78
f 66 78 77
f 69 80 79
f 72 81 78
f 72 75 79
f 72 79 81
f 74 79 75
f 77 78 81
f 77 81 82
f 79 80 83
f 79 83 81

