# https://github.com/mikedh/trimesh
v -0.04399039 -0.12038058 0.30976996
v -0.04399039 -0.11285974 0.30973905
v -0.03569395 -0.12042773 0.30973905
v -0.04399039 -0.07534985 0.36233097
v -0.04399039 0.12042773 0.30973905
v 0.03634744 -0.12042773 0.30973905
v 0.03634744 -0.07688231 0.35802171
v 0.03634744 -0.07296864 0.36233097
v -0.04399039 0.07584495 0.36233097
v 0.03634744 0.12042773 0.30973905
v 0.03634744 0.07268573 0.36233097
v -0.04161549 0.07577422 0.36233097
f 1 2 3
f 1 3 4
f 1 4 9
f 1 9 5
f 1 5 2
f 2 5 10
f 2 10 6
f 2 6 3
f 3 6 4
f 4 6 7
f 4 7 8
f 4 8 11
f 4 11 12
f 4 12 9
f 5 9 10
f 6 10 11
f 6 11 8
f 6 8 7
f 9 12 10
f 10 12 11

