# https://github.com/mikedh/trimesh
v -0.00003304 0.49911162 -0.14139746
v -0.03042797 0.49228030 0.02175799
v -0.00003304 0.49429718 0.02175799
v 0.03036189 0.49228030 0.02175799
v 0.07637258 0.48915741 0.02175799
v 0.07706970 0.49384174 -0.14139746
v 0.07699999 0.49351645 -0.14180261
v -0.00003304 0.49872127 -0.14180261
v -0.07706606 0.49351645 -0.14180261
v -0.07713577 0.49384174 -0.14139746
v -0.07643864 0.48915741 0.02175799
v 0.15270847 0.47015983 0.02175799
v 0.15417245 0.47464898 -0.14139746
v 0.15410274 0.47432369 -0.14180261
v 0.07539660 0.48323694 -0.14963542
v -0.00003304 0.48818150 -0.14963542
v -0.07546266 0.48323694 -0.14963542
v -0.15409909 0.47432369 -0.14180261
v -0.12244932 0.47770682 0.02175799
v -0.15416880 0.47464898 -0.14139746
v 0.21308005 0.44667307 0.02175799
v 0.21308005 0.45174778 -0.14139746
v 0.15082622 0.46430439 -0.14963542
v 0.21308005 0.45135742 -0.14180261
v 0.21308005 0.44023210 -0.14963542
v 0.07497831 0.48076463 -0.15068203
v -0.00003304 0.48570922 -0.15068203
v -0.07511409 0.48076463 -0.15068203
v -0.15082256 0.46430439 -0.14963542
v -0.21886259 0.43658873 -0.14963542
v -0.22360310 0.44589236 -0.14180261
v -0.15270482 0.47015983 0.02175799
v -0.22374251 0.44615260 -0.14139746
v -0.22165114 0.44198874 0.02175799
v 0.21308005 -0.16554382 0.02175799
v 0.15005937 0.46189716 -0.15066516
v 0.21308005 0.43788993 -0.15054700
v 0.21308005 0.43756464 -0.15066516
v -0.45609644 -0.16554382 -0.15066516
v -0.46188262 -0.15005949 -0.15066516
v -0.48077491 -0.07504503 -0.15066516
v -0.48565483 0.00003450 -0.15066516
v -0.47903207 0.07511401 -0.15066516
v -0.46188262 0.15012848 -0.15066516
v -0.43441567 0.21779114 -0.15066516
v -0.39293635 0.28545380 -0.15066516
v -0.34615880 0.33919355 -0.15066516
v -0.28543866 0.39293331 -0.15066516
v -0.21774720 0.43437669 -0.15066516
v -0.15005572 0.46189716 -0.15066516
v -0.28697234 0.39495018 -0.14963542
v -0.29310709 0.40347308 -0.14180261
v -0.29331625 0.40373331 -0.14139746
v -0.24904840 0.42526826 0.02175799
v 0.21308005 -0.16554382 -0.14403090
v -0.46529859 -0.16554382 0.02175799
v -0.45665416 -0.16554382 -0.15046260
v -0.46432260 -0.15084022 -0.14963542
v -0.48321486 -0.07537033 -0.14963542
v -0.48816448 0.00003450 -0.14963542
v -0.48147202 0.07543931 -0.14963542
v -0.46432260 0.15090920 -0.14963542
v -0.43657675 0.21889716 -0.14963542
v -0.39495802 0.28695017 -0.14963542
v -0.34790164 0.34095019 -0.14963542
v -0.35529125 0.34830198 -0.14180261
v -0.35550037 0.34856224 -0.14139746
v -0.31506675 0.37816465 0.02175799
v -0.29052770 0.39989477 0.02175799
v -0.47010878 -0.15272698 0.02175799
v -0.47464013 -0.15422335 -0.14139746
v -0.47031793 -0.16554382 -0.14139746
v -0.45874554 -0.16554382 -0.14963542
v -0.46996936 -0.16554382 -0.14180261
v -0.47429156 -0.15409324 -0.14180261
v -0.49346268 -0.07699683 -0.14180261
v -0.49876088 0.00003450 -0.14180261
v -0.49171987 0.07706582 -0.14180261
v -0.47429156 0.15416221 -0.14180261
v -0.44584861 0.22364655 -0.14180261
v -0.40346301 0.29313087 -0.14180261
v -0.40374187 0.29332608 -0.14139746
v -0.35215414 0.34524417 0.02175799
v -0.48161146 -0.10672936 0.02175799
v -0.47003907 -0.16554382 -0.14173508
v -0.49381125 -0.07706191 -0.14139746
v -0.49903974 0.00003450 -0.14139746
v -0.49206844 0.07713088 -0.14139746
v -0.47464013 0.15429233 -0.14139746
v -0.44619718 0.22377667 -0.14139746
v -0.39990765 0.29052848 0.02175799
v -0.41663879 0.26313812 0.02175799
v -0.48914048 -0.07634623 0.02175799
v -0.49227756 -0.03034864 0.02175799
v -0.49429926 0.00003450 0.02175799
v -0.49018618 0.04603209 0.02175799
v -0.48739764 0.07641522 0.02175799
v -0.47701040 0.12241282 0.02175799
v -0.47010878 0.15279594 0.02175799
v -0.45316848 0.19423932 0.02175799
v -0.44194469 0.22162968 0.02175799
f 1 2 3
f 1 3 4
f 1 4 5
f 1 5 6
f 1 6 7
f 1 7 8
f 1 8 9
f 1 9 10
f 1 10 11
f 1 11 2
f 2 11 19
f 2 19 32
f 2 32 34
f 2 34 54
f 2 54 69
f 2 69 68
f 2 68 83
f 2 83 91
f 2 91 92
f 2 92 101
f 2 101 100
f 2 100 99
f 2 99 98
f 2 98 97
f 2 97 96
f 2 96 95
f 2 95 94
f 2 94 93
f 2 93 84
f 2 84 70
f 2 70 56
f 2 56 35
f 2 35 21
f 2 21 12
f 2 12 5
f 2 5 4
f 2 4 3
f 5 12 6
f 6 12 13
f 6 13 14
f 6 14 7
f 7 14 15
f 7 15 8
f 8 15 16
f 8 16 17
f 8 17 9
f 9 17 18
f 9 18 20
f 9 20 10
f 10 19 11
f 10 20 19
f 12 21 22
f 12 22 13
f 13 22 14
f 14 23 15
f 14 22 24
f 14 24 25
f 14 25 23
f 15 23 26
f 15 26 27
f 15 27 16
f 16 27 17
f 17 27 28
f 17 28 29
f 17 29 18
f 18 29 30
f 18 30 31
f 18 31 20
f 19 20 32
f 20 31 33
f 20 33 34
f 20 34 32
f 21 35 55
f 21 55 38
f 21 38 37
f 21 37 25
f 21 25 24
f 21 24 22
f 23 36 26
f 23 25 37
f 23 37 36
f 26 28 27
f 26 36 38
f 26 38 39
f 26 39 28
f 28 39 40
f 28 40 41
f 28 41 42
f 28 42 43
f 28 43 44
f 28 44 45
f 28 45 46
f 28 46 47
f 28 47 48
f 28 48 49
f 28 49 50
f 28 50 29
f 29 50 49
f 29 49 30
f 30 49 51
f 30 51 52
f 30 52 31
f 31 52 53
f 31 53 33
f 33 53 34
f 34 53 54
f 35 56 72
f 35 72 85
f 35 85 74
f 35 74 73
f 35 73 57
f 35 57 39
f 35 39 55
f 36 37 38
f 38 55 39
f 39 57 40
f 40 58 41
f 40 57 58
f 41 59 60
f 41 60 42
f 41 58 59
f 42 60 43
f 43 60 61
f 43 61 62
f 43 62 44
f 44 62 45
f 45 62 63
f 45 63 64
f 45 64 46
f 46 64 47
f 47 64 65
f 47 65 51
f 47 51 48
f 48 51 49
f 51 65 52
f 52 65 66
f 52 66 67
f 52 67 53
f 53 67 68
f 53 68 69
f 53 69 54
f 56 70 71
f 56 71 72
f 57 73 58
f 58 73 74
f 58 74 75
f 58 75 59
f 59 76 77
f 59 77 60
f 59 75 76
f 60 77 61
f 61 77 78
f 61 78 79
f 61 79 62
f 62 79 63
f 63 80 81
f 63 81 64
f 63 79 80
f 64 81 65
f 65 81 66
f 66 81 82
f 66 82 67
f 67 82 83
f 67 83 68
f 70 84 71
f 71 75 85
f 71 85 72
f 71 84 86
f 71 86 76
f 71 76 75
f 74 85 75
f 76 86 77
f 77 86 87
f 77 87 88
f 77 88 78
f 78 88 89
f 78 89 79
f 79 89 90
f 79 90 80
f 80 90 81
f 81 90 82
f 82 91 83
f 82 90 92
f 82 92 91
f 84 93 86
f 86 93 94
f 86 94 87
f 87 94 95
f 87 95 96
f 87 96 88
f 88 96 97
f 88 97 98
f 88 98 89
f 89 98 99
f 89 99 100
f 89 100 90
f 90 100 101
f 90 101 92

