# https://github.com/mikedh/trimesh
v 0.21345985 0.21345991 0.13489664
v -0.38595521 -0.29556513 0.15068194
v 0.21345985 -0.29556513 0.13489664
v 0.21345985 0.21345991 0.02177487
v -0.43763494 0.21345991 0.15066932
v -0.39405638 -0.28629744 0.15068194
v -0.39503410 -0.29556513 0.14548326
v 0.21345985 -0.29556513 0.02177487
v -0.44531709 0.21345991 0.02177487
v -0.44489807 0.21345991 0.14548326
v -0.46976021 0.15262204 0.14548326
v -0.46326530 0.15052935 0.15066932
v -0.39957353 -0.29033336 0.14548326
v -0.48037550 0.07524188 0.15066932
v -0.48707989 -0.00004559 0.15066932
v -0.48212144 -0.07523341 0.15066932
v -0.46326530 -0.15052089 0.15066932
v -0.43560967 -0.22361600 0.15066932
v -0.40271622 -0.29556513 0.13334459
v -0.39552295 -0.29556513 0.02177487
v -0.47010937 0.15272170 0.02177487
v -0.47548687 0.15446562 0.13234776
v -0.45132309 0.21345991 0.13234776
v -0.45034537 0.21345991 0.13483354
v -0.47548687 0.15446562 0.13295344
v -0.48707989 0.07628823 0.14548326
v -0.40446216 -0.29382122 0.13295344
v -0.44161570 -0.22665539 0.14548326
v -0.49392396 -0.00004559 0.14548326
v -0.48875600 -0.07627977 0.14548326
v -0.46976021 -0.15261358 0.14548326
v -0.40292573 -0.29556513 0.13295344
v -0.40299556 -0.29556513 0.13234776
v -0.39992273 -0.29053268 0.02177487
v -0.47702330 0.12237752 0.02177487
v -0.49294624 0.07723493 0.13234776
v -0.45132309 0.21345991 0.13244870
v -0.45125327 0.21345991 0.13295344
v -0.49287641 0.07723493 0.13295344
v -0.49992999 -0.00004559 0.13295344
v -0.40446216 -0.29387105 0.13234776
v -0.44685352 -0.22934604 0.13295344
v -0.44692335 -0.22939584 0.13234776
v -0.47548687 -0.15445715 0.13295344
v -0.49462235 -0.07722646 0.13295344
v -0.42527372 -0.25216645 0.02177487
v -0.48742908 0.07633806 0.02177487
v -0.49999982 -0.00004559 0.13234776
v -0.44196489 -0.22685471 0.02177487
v -0.47548687 -0.15450698 0.13234776
v -0.49469218 -0.07722646 0.13234776
v -0.49434298 -0.00004559 0.02177487
v -0.48917502 -0.07637942 0.02177487
v -0.45893538 -0.18221039 0.02177487
v -0.47010937 -0.15276307 0.02177487
f 1 2 3
f 1 3 8
f 1 8 4
f 1 4 9
f 1 9 23
f 1 23 37
f 1 37 38
f 1 38 24
f 1 24 10
f 1 10 5
f 1 5 2
f 2 5 6
f 2 6 7
f 2 7 19
f 2 19 32
f 2 32 33
f 2 33 20
f 2 20 8
f 2 8 3
f 4 8 20
f 4 20 34
f 4 34 46
f 4 46 49
f 4 49 54
f 4 54 55
f 4 55 53
f 4 53 52
f 4 52 47
f 4 47 35
f 4 35 21
f 4 21 9
f 5 10 11
f 5 11 12
f 5 12 6
f 6 13 7
f 6 12 14
f 6 14 15
f 6 15 16
f 6 16 17
f 6 17 18
f 6 18 13
f 7 13 19
f 9 21 22
f 9 22 23
f 10 24 25
f 10 25 11
f 11 25 26
f 11 26 14
f 11 14 12
f 13 27 19
f 13 18 28
f 13 28 27
f 14 26 29
f 14 29 15
f 15 29 16
f 16 29 30
f 16 30 31
f 16 31 17
f 17 31 18
f 18 31 28
f 19 27 32
f 20 33 34
f 21 35 22
f 22 35 36
f 22 36 25
f 22 25 37
f 22 37 23
f 24 38 25
f 25 36 39
f 25 39 26
f 25 38 37
f 26 39 40
f 26 40 29
f 27 41 33
f 27 33 32
f 27 28 42
f 27 42 43
f 27 43 41
f 28 31 44
f 28 44 42
f 29 40 30
f 30 40 45
f 30 45 44
f 30 44 31
f 33 41 34
f 34 41 46
f 35 47 36
f 36 48 40
f 36 40 39
f 36 47 48
f 40 48 51
f 40 51 45
f 41 43 49
f 41 49 46
f 42 44 43
f 43 44 50
f 43 50 49
f 44 45 51
f 44 51 50
f 47 52 48
f 48 52 53
f 48 53 51
f 49 50 54
f 50 51 53
f 50 53 55
f 50 55 54

