# https://github.com/mikedh/trimesh
v 0.21308005 -0.16554384 0.02175799
v 0.21308005 -0.44699681 0.02175799
v 0.21308005 -0.16554384 -0.14403060
v -0.46529090 -0.16554384 0.02175799
v 0.15273580 -0.47014648 0.02175799
v 0.15420762 -0.47465232 -0.14139715
v 0.21308005 -0.45205772 -0.14139715
v 0.21308005 -0.43795243 -0.15066484
v -0.45605865 -0.16554384 -0.15068172
v -0.47037536 -0.16554384 -0.14139715
v -0.45893535 -0.18226123 0.02175799
v 0.07633545 -0.48745155 0.02175799
v 0.15407380 -0.47432581 -0.14180230
v 0.21308005 -0.45169854 -0.14180230
v 0.07707134 -0.49212068 -0.14139715
v 0.21308005 -0.44059718 -0.14963511
v 0.15086257 -0.46433455 -0.14963511
v 0.15005979 -0.46191835 -0.15066484
v -0.21775910 -0.43615660 -0.15066484
v -0.28546238 -0.39292648 -0.15066484
v -0.34266233 -0.34270900 -0.15066484
v -0.39290458 -0.28550419 -0.15066484
v -0.43438289 -0.22304252 -0.15066484
v -0.45666075 -0.16554384 -0.15046227
v 0.07499743 -0.47902757 -0.15066484
v -0.00006492 -0.48568839 -0.15066484
v -0.07506037 -0.48079073 -0.15066484
v -0.15005581 -0.46191835 -0.15066484
v -0.46997395 -0.16554384 -0.14180230
v -0.44588977 -0.22888708 -0.14180230
v -0.44615737 -0.22905034 -0.14139715
v -0.44194263 -0.22689536 0.02175799
v -0.00006492 -0.49434096 0.02175799
v 0.07700445 -0.49176151 -0.14180230
v 0.07539883 -0.48150906 -0.14963511
v -0.00006492 -0.49907538 -0.14139715
v -0.00006492 -0.49874887 -0.14180230
v -0.21889642 -0.43837690 -0.14963511
v -0.28693420 -0.39498350 -0.14963511
v -0.15085861 -0.46433455 -0.14963511
v -0.34446862 -0.34443951 -0.14963511
v -0.39497849 -0.28700614 -0.14963511
v -0.43659061 -0.22418532 -0.14963511
v -0.45873466 -0.16554384 -0.14963511
v -0.00006492 -0.48820254 -0.14963511
v -0.07546177 -0.48323959 -0.14963511
v -0.40347487 -0.29317719 -0.14180230
v -0.40374246 -0.29337311 -0.14139715
v -0.39992914 -0.29059777 0.02175799
v -0.04602555 -0.49123910 0.02175799
v -0.07639837 -0.48918208 0.02175799
v -0.07713428 -0.49385118 -0.14139715
v -0.07706738 -0.49352467 -0.14180230
v -0.15406984 -0.47432581 -0.14180230
v -0.22357944 -0.44761717 -0.14180230
v -0.29315597 -0.40347281 -0.14180230
v -0.35176077 -0.35181868 -0.14180230
v -0.35202837 -0.35204723 -0.14139715
v -0.34868336 -0.34871683 0.02175799
v -0.12242591 -0.47772151 0.02175799
v -0.15420364 -0.47465232 -0.14139715
v -0.22378016 -0.44794369 -0.14139715
v -0.29335666 -0.40376666 -0.14139715
v -0.32560271 -0.36909112 0.02175799
v -0.15273184 -0.47014648 0.02175799
v -0.22163934 -0.44369903 0.02175799
v -0.29054683 -0.39994648 0.02175799
f 1 2 7
f 1 7 14
f 1 14 16
f 1 16 8
f 1 8 3
f 1 3 9
f 1 9 24
f 1 24 44
f 1 44 29
f 1 29 10
f 1 10 4
f 1 4 11
f 1 11 32
f 1 32 49
f 1 49 59
f 1 59 64
f 1 64 67
f 1 67 66
f 1 66 65
f 1 65 60
f 1 60 51
f 1 51 50
f 1 50 33
f 1 33 12
f 1 12 5
f 1 5 2
f 2 5 6
f 2 6 7
f 3 8 9
f 4 10 11
f 5 12 6
f 6 13 14
f 6 14 7
f 6 12 15
f 6 15 13
f 8 16 17
f 8 17 18
f 8 18 9
f 9 19 20
f 9 20 21
f 9 21 22
f 9 22 23
f 9 23 24
f 9 18 25
f 9 25 26
f 9 26 27
f 9 27 28
f 9 28 19
f 10 29 30
f 10 30 31
f 10 31 32
f 10 32 11
f 12 33 15
f 13 15 34
f 13 34 35
f 13 35 17
f 13 17 16
f 13 16 14
f 15 33 36
f 15 36 37
f 15 37 34
f 17 35 25
f 17 25 18
f 19 38 39
f 19 39 20
f 19 28 40
f 19 40 38
f 20 39 21
f 21 39 41
f 21 41 42
f 21 42 22
f 22 42 23
f 23 42 43
f 23 43 24
f 24 43 44
f 25 35 26
f 26 35 45
f 26 45 27
f 27 46 40
f 27 40 28
f 27 45 46
f 29 44 43
f 29 43 30
f 30 43 47
f 30 47 48
f 30 48 31
f 31 48 32
f 32 48 49
f 33 50 36
f 34 37 35
f 35 37 45
f 36 50 51
f 36 51 52
f 36 52 37
f 37 52 53
f 37 53 46
f 37 46 45
f 38 40 54
f 38 54 55
f 38 55 56
f 38 56 39
f 39 56 41
f 40 46 54
f 41 56 57
f 41 57 47
f 41 47 42
f 42 47 43
f 46 53 54
f 47 57 58
f 47 58 48
f 48 58 49
f 49 58 59
f 51 60 52
f 52 60 61
f 52 61 53
f 53 61 54
f 54 61 62
f 54 62 55
f 55 62 56
f 56 63 57
f 56 62 63
f 57 63 58
f 58 63 64
f 58 64 59
f 60 65 61
f 61 65 66
f 61 66 62
f 62 66 63
f 63 66 67
f 63 67 64

