# https://github.com/mikedh/trimesh
v -0.00005406 0.49997196 0.13234755
v -0.00005406 0.49994391 0.13295323
v 0.07719100 0.49467087 0.13234755
v 0.07634501 0.48917341 0.02177487
v 0.03033637 0.49228674 0.02177487
v -0.00005406 0.49433428 0.02177487
v -0.03037941 0.49228674 0.02177487
v -0.07638805 0.48917341 0.02177487
v -0.07729912 0.49467087 0.13234755
v -0.07729912 0.49464279 0.13295323
v -0.07638805 0.48880878 0.14548302
v -0.00005406 0.49396965 0.14548302
v 0.07627992 0.48880878 0.14548302
v 0.07719100 0.49464279 0.13295323
v 0.15450113 0.47551394 0.13234755
v 0.12235364 0.47772974 0.02177487
v -0.12239669 0.47772974 0.02177487
v -0.15447909 0.47551394 0.13234755
v -0.15447909 0.47548589 0.13295323
v -0.15259188 0.46979213 0.14548302
v -0.07528176 0.48213333 0.15066907
v -0.00005406 0.48712587 0.15066907
v 0.07523872 0.48213333 0.15066907
v 0.15261392 0.46979213 0.14548302
v 0.15443604 0.47548589 0.13295323
v 0.21345986 0.45245835 0.13295323
v 0.21345986 0.45248640 0.13246112
v 0.21345986 0.45248640 0.13234755
v 0.21345986 0.44651213 0.02177487
v 0.19634490 0.45318761 0.02177487
v 0.15274407 0.47015676 0.02177487
v -0.15272205 0.47015676 0.02177487
v -0.22163740 0.44196832 0.02177487
v -0.22417535 0.44693285 0.13234755
v -0.22417535 0.44690481 0.13295323
v -0.22144216 0.44163176 0.14548302
v -0.15050946 0.46328494 0.15066907
v -0.21838360 0.43562946 0.15066907
v -0.43560684 0.21845248 0.15068169
v 0.15053149 0.46328494 0.15066907
v 0.21345986 0.43888304 0.15066907
v 0.21345986 0.44611949 0.14548302
v 0.21345986 0.21348795 0.02177487
v -0.29055274 0.39992413 0.02177487
v -0.29387158 0.40449598 0.13234755
v -0.29380652 0.40446794 0.13295323
v -0.29029244 0.39961562 0.14548302
v -0.28632280 0.39409012 0.15066907
v -0.44159383 0.22150972 0.14548302
v -0.44491267 0.21348795 0.14548302
v -0.43762422 0.21348795 0.15068169
v -0.34710366 0.34023762 0.15066907
v -0.39408845 0.28635710 0.15066907
v -0.39961988 0.29036799 0.14548302
v 0.21345986 0.21348795 0.13489641
v -0.44530314 0.21348795 0.02177487
v -0.35217959 0.34528631 0.02177487
v -0.35608411 0.34921303 0.13234755
v -0.35608411 0.34918499 0.13295323
v -0.35191929 0.34500581 0.14548302
v -0.44686496 0.22420235 0.13295323
v -0.40443552 0.29387403 0.13295323
v -0.45129013 0.21348795 0.13295323
v -0.45135522 0.21348795 0.13234755
v -0.44198430 0.22167802 0.02177487
v -0.39994526 0.29059237 0.02177487
v -0.40450054 0.29390204 0.13234755
v -0.44693005 0.22420235 0.13234755
f 1 2 14
f 1 14 3
f 1 3 4
f 1 4 5
f 1 5 6
f 1 6 7
f 1 7 8
f 1 8 9
f 1 9 10
f 1 10 2
f 2 10 11
f 2 11 12
f 2 12 13
f 2 13 14
f 3 14 15
f 3 15 4
f 4 15 16
f 4 16 31
f 4 31 30
f 4 30 29
f 4 29 43
f 4 43 56
f 4 56 65
f 4 65 66
f 4 66 57
f 4 57 44
f 4 44 33
f 4 33 32
f 4 32 17
f 4 17 8
f 4 8 7
f 4 7 6
f 4 6 5
f 8 17 18
f 8 18 9
f 9 18 19
f 9 19 10
f 10 19 11
f 11 19 20
f 11 20 21
f 11 21 12
f 12 21 22
f 12 22 23
f 12 23 13
f 13 23 24
f 13 24 25
f 13 25 14
f 14 25 15
f 15 25 26
f 15 26 27
f 15 27 28
f 15 28 29
f 15 29 30
f 15 30 31
f 15 31 16
f 17 32 18
f 18 32 33
f 18 33 34
f 18 34 35
f 18 35 19
f 19 35 36
f 19 36 20
f 20 37 21
f 20 36 38
f 20 38 37
f 21 37 39
f 21 39 22
f 22 39 23
f 23 39 40
f 23 40 24
f 24 40 41
f 24 41 42
f 24 42 25
f 25 42 26
f 26 42 41
f 26 41 55
f 26 55 43
f 26 43 29
f 26 29 28
f 26 28 27
f 33 44 45
f 33 45 34
f 34 45 35
f 35 45 46
f 35 46 36
f 36 46 47
f 36 47 38
f 37 38 39
f 38 47 48
f 38 48 39
f 39 49 50
f 39 50 51
f 39 51 41
f 39 41 40
f 39 48 52
f 39 52 53
f 39 53 54
f 39 54 49
f 41 51 55
f 43 55 51
f 43 51 50
f 43 50 63
f 43 63 64
f 43 64 56
f 44 57 45
f 45 57 58
f 45 58 59
f 45 59 46
f 46 59 60
f 46 60 47
f 47 60 52
f 47 52 48
f 49 61 50
f 49 54 62
f 49 62 61
f 50 61 63
f 52 60 54
f 52 54 53
f 54 60 62
f 56 64 65
f 57 66 67
f 57 67 58
f 58 67 59
f 59 67 62
f 59 62 60
f 61 68 64
f 61 64 63
f 61 62 67
f 61 67 68
f 64 68 65
f 65 68 67
f 65 67 66

