# https://github.com/mikedh/trimesh
v 0.21339950 -0.29556513 0.13489673
v 0.21339950 -0.43926588 0.15066943
v 0.21339950 -0.29556513 0.02177487
v -0.38595521 -0.29556513 0.15066943
v 0.15051916 -0.46329939 0.15068205
v 0.15263127 -0.46978301 0.14548336
v 0.21339950 -0.44646993 0.14548336
v 0.21339950 -0.44687015 0.02177487
v -0.39555019 -0.29556513 0.02177487
v -0.39416224 -0.29556513 0.14598809
v -0.34365278 -0.34369218 0.15066943
v -0.15048581 -0.46329939 0.15068205
v 0.07520758 -0.48040900 0.15068205
v 0.07629380 -0.48707274 0.14548336
v 0.15444164 -0.47548622 0.13295352
v 0.21339950 -0.44723034 0.14398180
v 0.21339950 -0.45281348 0.13234785
v 0.15450199 -0.47552624 0.13234785
v 0.15275195 -0.47016323 0.02177487
v -0.34872183 -0.34873500 0.02177487
v -0.40297273 -0.29556513 0.13234785
v -0.39500710 -0.29556513 0.14548336
v -0.34842011 -0.34847486 0.14548336
v -0.29030710 -0.39962360 0.14548336
v -0.28632426 -0.39412051 0.15066943
v -0.21843520 -0.43736482 0.15066943
v -0.15259792 -0.46978301 0.14548336
v -0.07529491 -0.48214996 0.15068205
v -0.00004367 -0.48713279 0.15068205
v -0.00004367 -0.49397662 0.14548336
v -0.00004367 -0.49995998 0.13295352
v 0.07719898 -0.49291602 0.13295352
v 0.21339950 -0.45277345 0.13295352
v 0.07719898 -0.49295604 0.13234785
v 0.07635415 -0.48745295 0.02177487
v -0.32560939 -0.36910644 0.02177487
v -0.29386747 -0.40450636 0.13234785
v -0.35264432 -0.35267723 0.13234785
v -0.40297273 -0.29556513 0.13295352
v -0.40273136 -0.29556513 0.13334468
v -0.35258397 -0.35265720 0.13295352
v -0.29386747 -0.40446633 0.13295352
v -0.22145250 -0.44336817 0.14548336
v -0.15446863 -0.47548622 0.13295352
v -0.07638114 -0.48881370 0.14548336
v -0.00004367 -0.50000000 0.13234785
v -0.07728633 -0.49465701 0.13295352
v 0.03031027 -0.49161530 0.02177487
v -0.29054847 -0.39994377 0.02177487
v -0.22416806 -0.44867116 0.13234785
v -0.22416806 -0.44865113 0.13295352
v -0.22163354 -0.44370836 0.02177487
v -0.15446863 -0.47552624 0.13234785
v -0.00004367 -0.49435684 0.02177487
v -0.07728633 -0.49467701 0.13234785
v -0.07644148 -0.48919392 0.02177487
v -0.19423653 -0.45423427 0.02177487
v -0.15271860 -0.47016323 0.02177487
f 1 2 7
f 1 7 16
f 1 16 33
f 1 33 17
f 1 17 8
f 1 8 3
f 1 3 9
f 1 9 21
f 1 21 39
f 1 39 40
f 1 40 22
f 1 22 10
f 1 10 4
f 1 4 2
f 2 5 6
f 2 6 7
f 2 4 5
f 3 8 19
f 3 19 35
f 3 35 48
f 3 48 54
f 3 54 56
f 3 56 58
f 3 58 57
f 3 57 52
f 3 52 49
f 3 49 36
f 3 36 20
f 3 20 9
f 4 10 11
f 4 11 12
f 4 12 5
f 5 13 6
f 5 12 28
f 5 28 29
f 5 29 13
f 6 13 14
f 6 14 15
f 6 15 7
f 7 15 16
f 8 17 18
f 8 18 19
f 9 20 21
f 10 22 23
f 10 23 11
f 11 23 24
f 11 24 25
f 11 25 12
f 12 25 26
f 12 26 27
f 12 27 28
f 13 29 30
f 13 30 14
f 14 30 31
f 14 31 32
f 14 32 15
f 15 18 33
f 15 33 16
f 15 32 18
f 17 33 18
f 18 32 34
f 18 34 35
f 18 35 19
f 20 36 37
f 20 37 38
f 20 38 21
f 21 38 39
f 22 40 23
f 23 41 42
f 23 42 24
f 23 40 41
f 24 43 26
f 24 26 25
f 24 42 43
f 26 43 27
f 27 43 44
f 27 44 45
f 27 45 28
f 28 45 30
f 28 30 29
f 30 45 31
f 31 46 34
f 31 34 32
f 31 45 47
f 31 47 46
f 34 46 35
f 35 46 48
f 36 49 37
f 37 50 51
f 37 51 42
f 37 42 38
f 37 49 52
f 37 52 50
f 38 42 41
f 38 41 39
f 39 41 40
f 42 51 43
f 43 51 44
f 44 51 53
f 44 53 47
f 44 47 45
f 46 54 48
f 46 47 55
f 46 55 56
f 46 56 54
f 47 53 55
f 50 52 53
f 50 53 51
f 52 57 53
f 53 57 58
f 53 58 56
f 53 56 55

