# https://github.com/mikedh/trimesh
v 0.21345985 -0.45282122 0.13234782
v 0.22420229 -0.44865620 0.13234782
v 0.21345985 -0.45273262 0.13295349
v 0.21345985 -0.44679523 0.02177487
v 0.22167796 -0.44369358 0.02177487
v 0.22420229 -0.44856757 0.13295349
v 0.29390198 -0.40443578 0.13234782
v 0.29387391 -0.40443578 0.13295349
v 0.21345985 -0.44723830 0.14398177
v 0.21345985 0.44647467 0.02177487
v 0.29059228 -0.39991626 0.02177487
v 0.22150968 -0.44333911 0.14548333
v 0.35440183 -0.35091048 0.13234782
v 0.35440183 -0.35082188 0.13295349
v 0.35022268 -0.34665683 0.14548333
v 0.29036790 -0.39956179 0.14548333
v 0.21345985 -0.44644073 0.14548333
v 0.21345985 0.45250067 0.13234782
v 0.22515593 0.44195515 0.02177487
v 0.35047510 -0.34692267 0.02177487
v 0.21845242 -0.43731308 0.15068202
v 0.21345985 -0.43926269 0.15068202
v 0.40449584 -0.29384047 0.13234782
v 0.40446779 -0.29384047 0.13295349
v 0.34542644 -0.34187144 0.15066940
v 0.28635702 -0.39406747 0.15068202
v 0.39961547 -0.29029575 0.14548333
v 0.21345985 0.45241207 0.13295349
v 0.22765222 0.44691774 0.13295349
v 0.22768027 0.44691774 0.13234782
v 0.29390198 0.40446970 0.13234782
v 0.26456359 0.41661039 0.02177487
v 0.39992398 -0.29056162 0.02177487
v 0.21345985 0.43885350 0.15066940
v 0.41596755 -0.26317862 0.02177487
v 0.44519371 -0.22418669 0.13234782
v 0.44516566 -0.22409807 0.13295349
v 0.43989262 -0.22143953 0.14548333
v 0.39408997 -0.28630793 0.15066940
v 0.43389031 -0.21842651 0.15066940
v 0.46328479 -0.15045647 0.15066940
v 0.48039415 -0.07521976 0.15066940
v 0.48712569 -0.00007166 0.15066940
v 0.48039415 0.07525368 0.15066940
v 0.46328479 0.15049039 0.15066940
v 0.43389031 0.21837181 0.15066940
v 0.39408997 0.28625324 0.15066940
v 0.34542644 0.34022161 0.15066940
v 0.28635702 0.39410138 0.15066940
v 0.22190234 0.43557465 0.15066940
v 0.21345985 0.44612017 0.14548333
v 0.22498764 0.44160065 0.14548333
v 0.29387391 0.40446970 0.13295349
v 0.35440183 0.34917206 0.13295349
v 0.35440183 0.34917206 0.13234782
v 0.32666221 0.36698428 0.02177487
v 0.29059228 0.39986157 0.02177487
v 0.44022921 -0.22161676 0.02177487
v 0.47551379 -0.15444429 0.13234782
v 0.47548574 -0.15444429 0.13295349
v 0.46979195 -0.15258332 0.14548333
v 0.48706961 -0.07628317 0.14548333
v 0.49396947 -0.00007166 0.14548333
v 0.48706961 0.07631709 0.14548333
v 0.46979195 0.15261723 0.14548333
v 0.43989262 0.22147344 0.14548333
v 0.39961547 0.29032966 0.14548333
v 0.35022268 0.34491837 0.14548333
v 0.29036790 0.39959571 0.14548333
v 0.40446779 0.29378578 0.13295349
v 0.40449584 0.29387438 0.13234782
v 0.38026223 0.31230694 0.02177487
v 0.35047510 0.34518424 0.02177487
v 0.47015658 -0.15276055 0.02177487
v 0.48746228 -0.07637180 0.02177487
v 0.49295974 -0.07716936 0.13234782
v 0.49290365 -0.07716936 0.13295349
v 0.49994373 -0.00007166 0.13295349
v 0.49290365 0.07720327 0.13295349
v 0.47548574 0.15447821 0.13295349
v 0.44516566 0.22413199 0.13295349
v 0.44519371 0.22413199 0.13234782
v 0.44022921 0.22165069 0.02177487
v 0.42421371 0.24903366 0.02177487
v 0.39992398 0.29050690 0.02177487
v 0.49433410 -0.00007166 0.02177487
v 0.49999982 -0.00007166 0.13234782
v 0.49295974 0.07720327 0.13234782
v 0.47551379 0.15447821 0.13234782
v 0.47015658 0.15270585 0.02177487
v 0.49161342 0.03032433 0.02177487
v 0.48746228 0.07631709 0.02177487
f 1 2 6
f 1 6 3
f 1 3 9
f 1 9 17
f 1 17 22
f 1 22 34
f 1 34 51
f 1 51 28
f 1 28 18
f 1 18 10
f 1 10 4
f 1 4 5
f 1 5 2
f 2 5 7
f 2 7 8
f 2 8 6
f 3 6 9
f 4 10 19
f 4 19 32
f 4 32 57
f 4 57 56
f 4 56 73
f 4 73 72
f 4 72 85
f 4 85 84
f 4 84 83
f 4 83 90
f 4 90 92
f 4 92 91
f 4 91 86
f 4 86 75
f 4 75 74
f 4 74 58
f 4 58 35
f 4 35 33
f 4 33 20
f 4 20 11
f 4 11 5
f 5 11 7
f 6 12 9
f 6 8 12
f 7 11 13
f 7 13 8
f 8 13 14
f 8 14 15
f 8 15 16
f 8 16 12
f 9 12 17
f 10 18 19
f 11 20 13
f 12 21 22
f 12 22 17
f 12 16 21
f 13 20 23
f 13 23 24
f 13 24 14
f 14 24 15
f 15 25 26
f 15 26 16
f 15 24 27
f 15 27 25
f 16 26 21
f 18 28 29
f 18 29 30
f 18 30 19
f 19 30 31
f 19 31 32
f 20 33 23
f 21 26 22
f 22 26 34
f 23 33 35
f 23 35 36
f 23 36 24
f 24 36 37
f 24 37 38
f 24 38 27
f 25 27 39
f 25 39 26
f 26 39 40
f 26 40 41
f 26 41 42
f 26 42 43
f 26 43 44
f 26 44 45
f 26 45 46
f 26 46 47
f 26 47 48
f 26 48 49
f 26 49 50
f 26 50 34
f 27 38 40
f 27 40 39
f 28 51 29
f 29 51 52
f 29 52 53
f 29 53 31
f 29 31 30
f 31 53 54
f 31 54 55
f 31 55 56
f 31 56 57
f 31 57 32
f 34 50 51
f 35 58 36
f 36 58 59
f 36 59 60
f 36 60 37
f 37 60 38
f 38 60 61
f 38 61 40
f 40 61 41
f 41 61 42
f 42 62 63
f 42 63 43
f 42 61 62
f 43 63 44
f 44 64 65
f 44 65 45
f 44 63 64
f 45 65 46
f 46 66 67
f 46 67 47
f 46 65 66
f 47 67 48
f 48 67 68
f 48 68 69
f 48 69 49
f 49 69 50
f 50 52 51
f 50 69 52
f 52 69 53
f 53 69 68
f 53 68 54
f 54 68 67
f 54 67 70
f 54 70 71
f 54 71 55
f 55 71 72
f 55 72 73
f 55 73 56
f 58 74 59
f 59 74 75
f 59 75 76
f 59 76 60
f 60 76 77
f 60 77 62
f 60 62 61
f 62 77 78
f 62 78 63
f 63 78 64
f 64 78 79
f 64 79 80
f 64 80 65
f 65 80 66
f 66 81 70
f 66 70 67
f 66 80 81
f 70 81 71
f 71 81 82
f 71 82 83
f 71 83 84
f 71 84 85
f 71 85 72
f 75 86 87
f 75 87 76
f 76 87 78
f 76 78 77
f 78 87 88
f 78 88 79
f 79 88 80
f 80 88 89
f 80 89 82
f 80 82 81
f 82 89 83
f 83 89 90
f 86 91 87
f 87 91 92
f 87 92 88
f 88 92 89
f 89 92 90

