# https://github.com/mikedh/trimesh
v 0.21308008 -0.45207053 -0.14139745
v 0.21308008 -0.45162821 -0.14180258
v 0.22366340 -0.44755852 -0.14180258
v 0.22380340 -0.44791240 -0.14139745
v 0.22167553 -0.44366580 0.02175799
v 0.21308008 -0.44693923 0.02175799
v 0.21308008 -0.45003575 -0.14293361
v 0.21893170 -0.43835753 -0.14963539
v 0.29318297 -0.40350002 -0.14180258
v 0.29337898 -0.40376538 -0.14139745
v 0.29057914 -0.39987266 0.02175799
v 0.21308008 0.44661760 0.02175799
v 0.21308008 -0.44056934 -0.14963539
v 0.21781178 -0.43614578 -0.15066513
v 0.28699538 -0.39491832 -0.14963539
v 0.34623963 -0.34272045 -0.14963539
v 0.35357514 -0.35006350 -0.14180258
v 0.35382712 -0.35024047 -0.14139745
v 0.35046735 -0.34696704 0.02175799
v 0.22514731 0.44192863 0.02175799
v 0.21308008 0.45174891 -0.14139745
v 0.21308008 -0.43791521 -0.15066513
v 0.22128356 0.43440861 -0.15068202
v 0.28551146 -0.39288348 -0.15066513
v 0.34447572 -0.34095103 -0.15066513
v 0.39294064 -0.28547972 -0.15066513
v 0.39498451 -0.28689528 -0.14963539
v 0.40349597 -0.29308820 -0.14180258
v 0.40377596 -0.29335362 -0.14139745
v 0.39994019 -0.29052258 0.02175799
v 0.22730318 0.44617522 -0.14139745
v 0.26456881 0.41662592 0.02175799
v 0.22713518 0.44582134 -0.14180258
v 0.21308008 0.45139503 -0.14173505
v 0.21308008 0.43759352 -0.15068202
v 0.22243148 0.43662035 -0.14963539
v 0.28699538 0.39495057 -0.14963539
v 0.28551146 0.39291573 -0.15066513
v 0.34447572 0.33921385 -0.15066513
v 0.39294064 0.28542346 -0.15066513
v 0.43267012 0.21774317 -0.15066513
v 0.46192825 0.15006289 -0.15066513
v 0.47903517 0.07503950 -0.15066513
v 0.48569876 -0.00007236 -0.15066513
v 0.47903517 -0.07500727 -0.15066513
v 0.46192825 -0.15003066 -0.15066513
v 0.43267012 -0.21771096 -0.15066513
v 0.43488199 -0.21886107 -0.14963539
v 0.44414937 -0.22363850 -0.14180258
v 0.44445735 -0.22372697 -0.14139745
v 0.44022965 -0.22160368 0.02175799
v 0.29337898 0.40370917 -0.14139745
v 0.29318297 0.40344375 -0.14180258
v 0.29057914 0.39990491 0.02175799
v 0.21308008 0.45130652 -0.14180258
v 0.21308008 0.44024765 -0.14963539
v 0.21308008 0.44175166 -0.14857188
v 0.34623963 0.34098327 -0.14963539
v 0.39498451 0.28692746 -0.14963539
v 0.43488199 0.21889330 -0.14963539
v 0.46433610 0.15085912 -0.14963539
v 0.48149902 0.07539339 -0.14963539
v 0.48821861 -0.00007236 -0.14963539
v 0.48149902 -0.07536115 -0.14963539
v 0.46433610 -0.15082690 -0.14963539
v 0.47433147 -0.15410033 -0.14180258
v 0.47466743 -0.15418880 -0.14139745
v 0.45212889 -0.19426614 0.02175799
v 0.32666886 0.36699373 0.02175799
v 0.35382712 0.34850329 -0.14139745
v 0.35357514 0.34832633 -0.14180258
v 0.40349597 0.29312044 -0.14180258
v 0.44414937 0.22358227 -0.14180258
v 0.47433147 0.15404408 -0.14180258
v 0.49874592 -0.00007236 -0.14180258
v 0.49177438 0.07698586 -0.14180258
v 0.49177438 -0.07704210 -0.14180258
v 0.49211034 -0.07704210 -0.14139745
v 0.48746264 -0.07633433 0.02175799
v 0.47015974 -0.15268479 0.02175799
v 0.35046735 0.34522986 0.02175799
v 0.40377596 0.29329741 -0.14139745
v 0.38025746 0.31231862 0.02175799
v 0.44445735 0.22375920 -0.14139745
v 0.47466743 0.15422101 -0.14139745
v 0.49910989 -0.00007236 -0.14139745
v 0.49211034 0.07707433 -0.14139745
v 0.49435019 -0.00007236 0.02175799
v 0.39994019 0.29055476 0.02175799
v 0.42421466 0.24906190 0.02175799
v 0.44022965 0.22163591 0.02175799
v 0.45826048 0.18014301 0.02175799
v 0.47015974 0.15271701 0.02175799
v 0.48746264 0.07636657 0.02175799
f 1 2 3
f 1 3 4
f 1 4 5
f 1 5 6
f 1 6 12
f 1 12 21
f 1 21 34
f 1 34 55
f 1 55 57
f 1 57 56
f 1 56 35
f 1 35 22
f 1 22 13
f 1 13 7
f 1 7 2
f 2 7 8
f 2 8 3
f 3 8 9
f 3 9 4
f 4 9 10
f 4 10 5
f 5 10 11
f 5 11 19
f 5 19 30
f 5 30 51
f 5 51 68
f 5 68 80
f 5 80 79
f 5 79 88
f 5 88 94
f 5 94 93
f 5 93 92
f 5 92 91
f 5 91 90
f 5 90 89
f 5 89 83
f 5 83 81
f 5 81 69
f 5 69 54
f 5 54 32
f 5 32 20
f 5 20 12
f 5 12 6
f 7 13 8
f 8 13 14
f 8 14 15
f 8 15 9
f 9 15 16
f 9 16 17
f 9 17 10
f 10 17 18
f 10 18 19
f 10 19 11
f 12 20 21
f 13 22 14
f 14 22 23
f 14 23 24
f 14 24 15
f 15 24 25
f 15 25 16
f 16 25 26
f 16 26 27
f 16 27 28
f 16 28 17
f 17 28 29
f 17 29 18
f 18 29 19
f 19 29 30
f 20 31 21
f 20 32 31
f 21 31 33
f 21 33 34
f 22 35 23
f 23 35 36
f 23 36 37
f 23 37 38
f 23 38 39
f 23 39 40
f 23 40 41
f 23 41 42
f 23 42 43
f 23 43 44
f 23 44 45
f 23 45 46
f 23 46 47
f 23 47 26
f 23 26 25
f 23 25 24
f 26 47 48
f 26 48 27
f 27 48 28
f 28 48 49
f 28 49 29
f 29 49 50
f 29 50 51
f 29 51 30
f 31 32 52
f 31 52 53
f 31 53 33
f 32 54 52
f 33 36 55
f 33 55 34
f 33 53 36
f 35 56 36
f 36 56 57
f 36 57 55
f 36 53 37
f 37 53 58
f 37 58 39
f 37 39 38
f 39 58 59
f 39 59 40
f 40 59 41
f 41 59 60
f 41 60 61
f 41 61 42
f 42 61 43
f 43 61 62
f 43 62 63
f 43 63 44
f 44 63 45
f 45 63 64
f 45 64 65
f 45 65 46
f 46 65 47
f 47 65 48
f 48 65 66
f 48 66 49
f 49 66 67
f 49 67 50
f 50 67 68
f 50 68 51
f 52 54 69
f 52 69 70
f 52 70 71
f 52 71 53
f 53 71 58
f 58 71 72
f 58 72 59
f 59 72 60
f 60 72 73
f 60 73 74
f 60 74 61
f 61 74 62
f 62 75 63
f 62 74 76
f 62 76 75
f 63 75 64
f 64 75 77
f 64 77 66
f 64 66 65
f 66 77 67
f 67 77 78
f 67 78 79
f 67 79 80
f 67 80 68
f 69 81 70
f 70 82 71
f 70 81 83
f 70 83 82
f 71 82 72
f 72 82 84
f 72 84 73
f 73 84 85
f 73 85 74
f 74 85 76
f 75 76 86
f 75 86 77
f 76 85 87
f 76 87 86
f 77 86 78
f 78 86 79
f 79 86 88
f 82 83 89
f 82 89 90
f 82 90 84
f 84 90 91
f 84 91 92
f 84 92 85
f 85 93 94
f 85 94 87
f 85 92 93
f 86 94 88
f 86 87 94

