# https://github.com/mikedh/trimesh
v 0.33927894 -0.00493645 0.35496724
v 0.33921301 0.00494740 0.35496724
v 0.33901531 0.00494740 0.38498557
v 0.33881754 -0.00493645 0.37495470
v 0.33861983 -0.01495208 0.35496724
v 0.33802658 -0.02496772 0.33497977
v 0.33861983 -0.01495208 0.32494891
v 0.33901531 -0.00493645 0.26498652
v 0.33914709 0.00494740 0.24499907
v 0.33921301 0.00494740 0.28497398
v 0.33855391 0.01496303 0.39494216
v 0.33868575 0.01496303 0.29493058
v 0.33822435 -0.00493645 0.38498557
v 0.33815843 0.00494740 0.39494216
v 0.33835614 -0.01495208 0.36499816
v 0.33789480 -0.02496772 0.34493637
v 0.33835614 -0.01495208 0.26498652
v 0.33710384 -0.03498335 0.33497977
v 0.33716977 -0.03498335 0.32494891
v 0.33466506 -0.03498335 -0.21493544
v 0.33525831 -0.02496772 -0.21493544
v 0.33637881 -0.00493645 -0.21493544
v 0.33842206 0.01496303 0.23496819
v 0.33604926 0.01496303 -0.18499140
v 0.33756524 0.02497867 0.39494216
v 0.32945800 0.05495968 0.42458898
v 0.33038080 0.04454869 0.42458898
v 0.33209449 0.02497867 0.42458898
v 0.33295137 0.01496303 0.42458898
v 0.33374232 0.00527686 0.42458898
v 0.33407187 -0.00493645 0.42458898
v 0.33796072 0.02497867 0.30496144
v 0.33710384 0.03499430 0.33497977
v 0.33334684 -0.01495208 0.42458898
v 0.33229226 -0.02463826 0.42458898
v 0.33031487 -0.04236329 0.42458898
v 0.32893074 -0.05475105 0.42458898
v 0.32767838 -0.06496436 0.42458898
v 0.32807386 -0.08499563 0.31499231
v 0.32965577 -0.07814283 0.30496144
v 0.33571970 -0.04499898 0.31499231
v 0.33453327 -0.05494873 0.27494311
v 0.33459920 -0.05494873 0.26498652
v 0.33591741 -0.04499898 0.28497398
v 0.33585149 -0.04499898 0.24499907
v 0.33361048 -0.04499898 -0.19494799
v 0.33347869 -0.04499898 -0.20497887
v 0.32807386 -0.06496436 -0.33434010
v 0.33334684 -0.01495208 -0.33434010
v 0.33407187 -0.00493645 -0.33434010
v 0.33611518 0.00494740 -0.21493544
v 0.33598334 0.01496303 -0.19494799
v 0.33611518 0.04494404 0.32494891
v 0.33710384 0.03499430 0.32494891
v 0.33571970 0.04494404 0.36499816
v 0.33440143 0.05495968 0.37495470
v 0.33255589 0.06497531 0.38498557
v 0.33064443 0.07387078 0.39494216
v 0.33038080 0.07261883 0.40081209
v 0.33611518 0.04494404 0.33497977
v 0.32767838 0.06497531 0.42458898
v 0.32550329 -0.07498000 0.42458898
v 0.32550329 -0.09494537 0.31499231
v 0.32820570 -0.08499563 0.30496144
v 0.33262181 -0.06496436 0.27494311
v 0.33440143 -0.05494873 0.28497398
v 0.33459920 -0.05494873 0.25495565
v 0.33169901 -0.05494873 -0.19494799
v 0.32622832 -0.07498000 -0.33434010
v 0.33374232 0.00494740 -0.33434010
v 0.33492875 0.02497867 -0.17496052
v 0.33295137 0.01437000 -0.33434010
v 0.32952392 0.05463022 -0.33434010
v 0.33064443 0.07400256 0.21498072
v 0.32978761 0.07901038 0.21498072
v 0.33446735 0.05495968 0.34493637
v 0.33446735 0.05495968 0.36499816
v 0.33262181 0.06497531 0.37495470
v 0.33077627 0.07400256 0.38498557
v 0.32972169 0.07887860 0.39494216
v 0.32741475 0.08494069 0.40497303
v 0.32761246 0.06530478 0.42458898
v 0.32247132 -0.08460028 0.42458898
v 0.30625695 -0.14495765 0.39494216
v 0.32227361 -0.10496101 0.31499231
v 0.32220769 -0.10496101 0.28497398
v 0.32207584 -0.10496101 0.25495565
v 0.32062578 -0.10186407 -0.21493544
v 0.32827163 -0.08499563 0.26498652
v 0.32332820 -0.08532509 -0.33434010
v 0.32273501 -0.09494537 -0.18499140
v 0.32781023 0.06438228 -0.33434010
v 0.32800794 0.08494069 0.20494984
v 0.32510781 0.09495632 0.20494984
v 0.32820570 0.08494069 0.39494216
v 0.32978761 0.07914217 0.37495470
v 0.33262181 0.06497531 0.36499816
v 0.32767838 0.06497531 -0.33434010
v 0.32510781 0.07439791 -0.33434010
v 0.31093669 0.12236753 0.42458898
v 0.31337547 0.11498759 0.42458898
v 0.32049400 0.09133225 0.42458898
v 0.32220769 0.08520426 0.42458898
v 0.32491010 0.07532041 0.42458898
v 0.31284815 -0.11497664 0.42458898
v 0.31166172 -0.13369006 0.28497398
v 0.31515509 -0.12499227 0.28497398
v 0.31845069 -0.11583325 0.30496144
v 0.32029623 -0.11069364 0.31499231
v 0.31067306 -0.12176355 0.42458898
v 0.30895936 -0.12696904 0.42458898
v 0.30487281 -0.14495765 0.40497303
v 0.30197269 -0.15385312 0.39494216
v 0.30124760 -0.16228734 0.02506269
v 0.32029623 -0.11089132 0.30496144
v 0.32029623 -0.11082543 0.28497398
v 0.30942070 -0.12802333 -0.33434010
v 0.31706655 -0.10555404 -0.33434010
v 0.31752795 -0.10417030 -0.33434010
v 0.32075763 -0.09402288 -0.33434010
v 0.32280087 -0.09494537 -0.17496052
v 0.30408186 -0.15497328 0.00500093
v 0.31337547 0.11498759 -0.33434010
v 0.32207584 0.10497196 0.20494984
v 0.32023031 0.11077049 0.29493058
v 0.31858253 0.11577830 0.29493058
v 0.31851661 0.11564652 0.30496144
v 0.31522101 0.12493734 0.30496144
v 0.31152993 0.13337155 0.32494891
v 0.30889344 0.12717767 0.42458898
v 0.30559784 -0.13467845 0.42458898
v 0.30118173 -0.15207402 0.40497303
v 0.30151129 -0.14284910 0.42458898
v 0.29913843 -0.15886094 0.39494216
v 0.29940206 -0.15886094 0.38498557
v 0.29861116 -0.16716337 0.03501927
v 0.29841340 -0.16729516 0.02506269
v 0.28101259 -0.18159379 -0.33434010
v 0.30619103 -0.13540326 -0.33434010
v 0.31093669 0.12236753 -0.33434010
v 0.32023031 0.11070459 0.20494984
v 0.32023031 0.11077049 0.21498072
v 0.31528693 0.12493734 0.27494311
v 0.31528693 0.12493734 0.29493058
v 0.31851661 0.11577830 0.21498072
v 0.31172764 0.13337155 0.27494311
v 0.30922300 0.13837937 0.32494891
v 0.30507052 0.13495296 0.42458898
v 0.28061712 -0.18067129 0.42458898
v 0.27751923 -0.18587679 0.42458898
v 0.27270764 -0.19292727 0.42458898
v 0.29169035 -0.17243475 0.37495470
v 0.29604059 -0.16498892 0.37495470
v 0.29393137 -0.17493866 0.03501927
v 0.29399729 -0.17493866 0.04505015
v 0.27778292 -0.18660161 -0.33434010
v 0.30882752 0.12730946 -0.33434010
v 0.31152993 0.13363512 0.24499907
v 0.31502324 0.12493734 0.22493730
v 0.30915707 0.13864294 0.24499907
v 0.29920435 0.15808117 0.28497398
v 0.30572963 0.14496860 0.32494891
v 0.28430820 0.17494962 0.42458898
v 0.28846067 0.16704254 0.42458898
v 0.30124760 0.14239880 0.42458898
v 0.30493873 0.13521653 0.42458898
v 0.26842338 -0.19813277 0.42458898
v 0.28022164 -0.19022569 0.34188998
v 0.28028756 -0.19042335 0.33497977
v 0.28397864 -0.18495430 0.33497977
v 0.28865838 -0.17790382 0.33497977
v 0.29050392 -0.18073718 0.05493243
v 0.29043806 -0.18060540 0.04505015
v 0.27745336 -0.18706284 -0.33434010
v 0.30507052 0.13495296 -0.33434010
v 0.30909115 0.13857704 0.23496819
v 0.31146401 0.13356923 0.23496819
v 0.28457183 0.17448837 -0.33434010
v 0.27732152 0.18615131 0.42458898
v 0.28088075 0.18127528 0.42458898
v 0.30151129 0.15208498 0.32494891
v 0.28107852 0.18094581 -0.33434010
v 0.28088075 0.18127528 -0.33434010
v 0.27718967 0.18628310 -0.33434010
v 0.27218038 0.19274054 -0.33434010
v 0.26328224 -0.20426075 0.42458898
v 0.25365907 -0.22442381 0.31499231
v 0.27191675 -0.20254755 0.29493058
v 0.28200126 -0.19266370 0.05493243
v 0.28694469 -0.18574500 0.05493243
v 0.27013707 -0.20024131 -0.22065677
v 0.27277356 -0.19319084 -0.33434010
v 0.30124760 0.14239880 -0.33434010
v 0.29472232 0.15498424 -0.33434010
v 0.28846067 0.16704254 -0.33434010
v 0.27218038 0.19274054 0.42458898
v 0.26321632 0.20400813 -0.33434010
v 0.24067436 -0.23114482 0.42458898
v 0.24917702 -0.22943161 0.31499231
v 0.24950659 -0.22949751 0.30496144
v 0.25392270 -0.22448969 0.30496144
v 0.26809382 -0.20768715 0.28497398
v 0.27330089 -0.20426075 0.06496331
v 0.27824426 -0.19767152 0.05493243
v 0.25214309 -0.22257882 -0.21493544
v 0.25075892 -0.22086562 -0.33434010
v 0.27330089 -0.20406307 0.05493243
v 0.26941204 -0.20926857 0.06496331
v 0.26321632 0.20400813 0.42458898
v 0.24996798 0.22054711 -0.33434010
v 0.24634281 0.22509368 0.42458898
v 0.23632416 -0.23595496 0.42458898
v 0.24449727 -0.23470300 0.30496144
v 0.23151258 -0.24102867 0.42458898
v 0.23981750 -0.23984261 0.29493058
v 0.24008115 -0.24004029 0.27122796
v 0.26440275 -0.21486941 0.06496331
v 0.23658781 -0.23694335 -0.33434010
v 0.24139939 -0.23160607 -0.33434010
v 0.24614507 -0.22626878 -0.33434010
v 0.25985479 -0.21981134 0.06496331
v 0.24621098 0.22522546 -0.33434010
v 0.24120165 0.23128755 0.42458898
v 0.24120165 0.23128755 -0.33434010
v 0.23942202 -0.23971082 0.30496144
v 0.23131484 -0.24122635 0.42458898
v 0.21365038 -0.26310259 0.31499231
v 0.22946930 -0.24952878 0.28497398
v 0.24008115 -0.24004029 0.24975444
v 0.23184213 -0.24168760 -0.33434010
v 0.23797196 -0.23799762 -0.18499140
v 0.24983615 -0.22982697 0.05493243
v 0.23579685 0.23649305 0.42458898
v 0.24087210 0.23161702 -0.33434010
v 0.22525091 -0.24616827 0.42458898
v 0.20264305 -0.27193218 0.30496144
v 0.20765238 -0.26811039 0.30496144
v 0.21371628 -0.26323438 0.29493058
v 0.22043933 -0.25005591 0.42458898
v 0.21477088 -0.25460249 0.42458898
v 0.19275622 -0.27219576 0.42458898
v 0.18629684 -0.27720356 0.42458898
v 0.21365038 -0.26330030 0.28497398
v 0.21371628 -0.26323438 0.27494311
v 0.23961976 -0.23971082 0.05493243
v 0.24482682 -0.23470300 0.05493243
v 0.18675822 -0.27753299 -0.33434010
v 0.23296264 -0.24280776 -0.19494799
v 0.22755784 -0.24781558 -0.20497887
v 0.22254851 -0.25216448 -0.21493544
v 0.20046794 -0.27035075 -0.21493544
v 0.23091936 0.24077605 0.42458898
v 0.23592868 0.23629537 -0.33434010
v 0.23124892 0.24051249 -0.33434010
v 0.23058981 0.24110551 -0.33434010
v 0.20758647 -0.26824218 0.29493058
v 0.18148525 -0.28076172 0.42458898
v 0.19025156 -0.28016871 0.32034212
v 0.19044930 -0.28030050 0.28497398
v 0.21180484 -0.26145530 -0.17496052
v 0.18649457 -0.27773070 -0.33434010
v 0.17555316 -0.28715330 -0.19494799
v 0.18181480 -0.28115708 -0.33434010
v 0.22518501 0.24565208 0.42458898
v 0.20910244 0.25922590 -0.33434010
v 0.20910244 0.25922590 0.42458898
v 0.17495994 -0.28431994 0.42458898
v 0.17278485 -0.29169989 0.31499231
v 0.17779417 -0.28853703 0.31499231
v 0.17792599 -0.28860295 0.27494311
v 0.17054383 -0.29031610 -0.19494799
v 0.17021427 -0.29018438 -0.22050814
v 0.17291667 -0.29183167 0.27494311
v 0.17535542 -0.28504473 -0.33434010
v 0.19816102 0.26845086 -0.33434010
v 0.19816102 0.26845086 0.42458898
v 0.16217299 -0.29097503 0.42458898
v 0.13870826 -0.30909544 0.31499231
v 0.15887739 -0.29940927 0.28497398
v 0.16494130 -0.29631233 0.27494311
v 0.13495126 -0.30507600 0.42458898
v 0.16494130 -0.29321539 -0.21493544
v 0.16823691 -0.28906417 -0.33434010
v 0.19315170 0.27253616 -0.33434010
v 0.19315170 0.27253616 0.42458898
v 0.13369894 -0.31159937 0.31499231
v 0.15399988 -0.30197906 0.27494311
v 0.15894330 -0.29947519 0.27494311
v 0.12730546 -0.30876601 0.42458898
v 0.15577951 -0.29802555 -0.21493544
v 0.16322759 -0.29176575 -0.33434010
v 0.18590136 0.27754396 -0.33434010
v 0.18590136 0.27754396 0.42458898
v 0.12499853 -0.31502575 0.31499231
v 0.12499853 -0.31515753 0.29493058
v 0.12499853 -0.31535524 0.25495565
v 0.13350120 -0.31173116 0.25495565
v 0.14496991 -0.30632800 0.26498652
v 0.12236205 -0.31094044 0.42458898
v 0.13547857 -0.30784351 -0.21493544
v 0.15498856 -0.29578519 -0.33434010
v 0.18115568 0.28031147 -0.33434010
v 0.18089204 0.28044325 0.42458898
v 0.11056378 -0.32016534 0.32041645
v 0.11076151 -0.32023126 0.31499231
v 0.11583675 -0.31858397 0.27494311
v 0.11583675 -0.31858397 0.25495565
v 0.11089333 -0.32029712 0.24499907
v 0.12499853 -0.31252187 -0.19494799
v 0.13046925 -0.31028152 -0.20497887
v 0.11497989 -0.31337845 0.42458898
v 0.07806908 -0.32952207 0.36499816
v 0.13046925 -0.31021559 -0.21493544
v 0.13033742 -0.31014973 -0.22065677
v 0.12776685 -0.30856830 -0.33434010
v 0.18056248 0.28064090 -0.33434010
v 0.17495994 0.28373784 0.42458898
v 0.10496124 -0.32220805 0.31499231
v 0.07859638 -0.32971972 0.35496724
v 0.11082742 -0.32029712 0.28497398
v 0.11089333 -0.32029712 0.25495565
v 0.10496124 -0.32227391 0.25495565
v 0.11497989 -0.31594825 -0.19494799
v 0.12499853 -0.31245595 -0.20497887
v 0.09105378 -0.32029712 0.42458898
v 0.07200517 -0.33057636 0.37495470
v 0.06495257 -0.33222365 0.37495470
v 0.12236205 -0.31094044 -0.33434010
v 0.12704182 -0.30889779 -0.33434010
v 0.17449856 0.28400141 -0.33434010
v 0.16711640 0.28808677 0.42458898
v 0.09494259 -0.32523906 0.31499231
v 0.10496124 -0.32227391 0.27494311
v 0.07912368 -0.32978565 0.34493637
v 0.09494259 -0.32530499 0.25495565
v 0.07497121 -0.32794064 -0.17496052
v 0.07497121 -0.32780886 -0.18499140
v 0.06765497 -0.32945615 -0.21493544
v 0.10555445 -0.31608003 -0.33434010
v 0.11497989 -0.31331253 -0.33434010
v 0.08466030 -0.32214212 0.42458898
v 0.07062101 -0.33037865 0.38075036
v 0.07497121 -0.32490963 0.42458898
v 0.06495257 -0.32767707 0.42458898
v 0.05499983 -0.33400273 0.37495470
v 0.05499983 -0.33446401 0.34493637
v 0.06495257 -0.33261901 0.34493637
v 0.06462301 -0.32774299 0.42458898
v 0.16210708 0.29085422 -0.33434010
v 0.14800188 0.29862952 0.42458898
v 0.09494259 -0.32530499 0.26498652
v 0.07912368 -0.32978565 0.27494311
v 0.06264564 -0.33051044 -0.21493544
v 0.06495257 -0.32767707 -0.33434010
v 0.06554577 -0.32754529 -0.33434010
v 0.07556442 -0.32477784 -0.33434010
v 0.09105378 -0.32029712 -0.33434010
v 0.04498119 -0.33505702 0.37495470
v 0.04498119 -0.33584774 0.32494891
v 0.05499983 -0.32945615 0.42458898
v 0.05499983 -0.33452988 0.27494311
v 0.06495257 -0.33261901 0.27494311
v 0.14272891 0.30152881 -0.33434010
v 0.14272891 0.30152881 0.42458898
v 0.04498119 -0.33255309 -0.15497306
v 0.00497251 -0.33373916 -0.33434010
v 0.04926547 -0.32998329 -0.33434010
v 0.05499983 -0.32945615 -0.33434010
v 0.05552713 -0.32939029 -0.33434010
v 0.03496254 -0.33690202 0.26498652
v 0.02494389 -0.33775860 0.25495565
v 0.04471754 -0.33037865 0.42458898
v 0.01466160 -0.33294845 0.42458898
v 0.00497251 -0.33373916 0.42458898
v 0.02494389 -0.33703381 0.36499816
v 0.03496254 -0.33696789 0.31499231
v 0.13495126 0.30554819 -0.33434010
v 0.13495126 0.30554819 0.41492963
v 0.13521492 0.30535054 0.42458898
v -0.00498023 -0.33406866 -0.33434010
v 0.00497251 -0.33907646 0.24499907
v 0.02494389 -0.33782452 0.30496144
v -0.00498023 -0.33406866 0.42458898
v 0.00497251 -0.33848345 0.35496724
v 0.01499116 -0.33808810 0.35496724
v 0.12697589 0.30897462 -0.33434010
v 0.12697589 0.30897462 0.42458898
v 0.13495126 0.30548233 0.42458898
v -0.01440566 -0.33340973 -0.33434010
v -0.00498023 -0.33874702 0.24499907
v -0.01499887 -0.33828574 0.23496819
v -0.02495161 -0.33762681 0.23496819
v 0.01499116 -0.33841753 0.30496144
v 0.00497251 -0.33894467 0.29493058
v -0.01499887 -0.33841753 0.32494891
v -0.01532843 -0.33334380 0.42458898
v -0.00498023 -0.33848345 0.34493637
v 0.12157110 0.31075370 -0.33434010
v 0.12677816 0.30904049 0.42458898
v -0.04294562 -0.33024687 -0.33434010
v -0.03497025 -0.33663845 0.23496819
v -0.02495161 -0.33789039 0.31499231
v -0.03497025 -0.33709967 0.31499231
v -0.00498023 -0.33861524 0.32494891
v -0.02495161 -0.33789039 0.32494891
v -0.05527120 -0.32886314 0.42458898
v 0.11497989 0.31286228 -0.33434010
v 0.11497989 0.31286228 0.42458898
v 0.12196658 0.31062192 0.42458898
v -0.04762539 -0.32971972 -0.33434010
v -0.05494164 -0.33459580 0.27494311
v -0.04498890 -0.33545238 0.23496819
v -0.06436707 -0.32780886 -0.33434010
v -0.06496029 -0.32767707 0.42458898
v -0.04498890 -0.33584774 0.30496144
v 0.09085604 0.32050580 -0.33434010
v 0.09125151 0.32037401 0.42458898
v -0.05494164 -0.33446401 0.28497398
v -0.06496029 -0.33255309 0.27494311
v -0.06496029 -0.33261901 0.26498652
v -0.06496029 -0.33261901 0.25495565
v -0.06496029 -0.33255309 0.24499907
v -0.07438572 -0.32563442 -0.33434010
v -0.06528984 -0.32761121 0.42458898
v 0.08439665 0.32254845 -0.33434010
v 0.08498986 0.32235074 0.42458898
v -0.07497893 -0.32550263 0.42458898
v -0.07122194 -0.33070815 0.27494311
v -0.07168332 -0.33077401 0.26498652
v -0.07168332 -0.33077401 0.25495565
v -0.07497893 -0.32550263 -0.33434010
v 0.07497121 0.32551360 -0.33434010
v 0.07497121 0.32551360 0.41492963
v 0.07530078 0.32538182 0.42458898
v -0.08499758 -0.32233983 0.42458898
v -0.11498760 -0.31285131 0.42458898
v -0.12197430 -0.31061095 0.42458898
v -0.12678587 -0.30902958 0.42458898
v -0.12698361 -0.30896366 0.42458898
v -0.12698361 -0.30896366 -0.33434010
v -0.12157882 -0.31074274 -0.33434010
v -0.11498760 -0.31285131 -0.33434010
v -0.09152288 -0.32029712 -0.33434010
v -0.08440436 -0.32253748 -0.33434010
v 0.07437801 0.32564539 -0.33434010
v 0.06528213 0.32762212 0.42458898
v -0.13495898 -0.30547136 0.42458898
v -0.13495898 -0.30553728 0.41492963
v -0.13495898 -0.30553728 -0.33434010
v 0.06495257 0.32768804 -0.33434010
v 0.06495257 0.32768804 0.42458898
v -0.13522263 -0.30533957 0.42458898
v -0.14273661 -0.30151784 0.42458898
v -0.14273661 -0.30151784 -0.33434010
v 0.05453845 0.32893997 -0.33434010
v 0.05532939 0.32887411 0.42458898
v -0.14800960 -0.29861856 0.42458898
v -0.18057020 -0.28069586 -0.33434010
v 0.04761767 0.32973069 -0.33434010
v 0.02527345 0.33223462 0.42458898
v 0.04293791 0.33025783 -0.33434010
v -0.18089975 -0.28049821 0.42458898
v -0.18590908 -0.27753299 -0.33434010
v -0.18590908 -0.27753299 0.42458898
v 0.01499116 0.33335477 0.42458898
v 0.01439795 0.33342069 -0.33434010
v -0.19315942 -0.27252519 -0.33434010
v -0.19315942 -0.27252519 0.42458898
v 0.00497251 0.33407956 0.42458898
v 0.00497251 0.33401370 -0.33434010
v -0.19816874 -0.26843989 -0.33434010
v -0.19816874 -0.26843989 0.42458898
v -0.00498023 0.33375013 0.42458898
v 0.00437930 0.33401370 -0.33434010
v -0.00498023 0.33375013 -0.33434010
v -0.21497634 -0.25427306 -0.33434010
v -0.21497634 -0.25427306 0.42458898
v -0.01460340 0.33295941 0.42458898
v -0.04459343 0.33038962 -0.33434010
v -0.23059751 -0.24109456 -0.33434010
v -0.22519273 -0.24564113 0.42458898
v -0.03464069 0.33124620 0.42458898
v -0.04986640 0.32992840 -0.33434010
v -0.04459343 0.33038962 0.42458898
v -0.23125663 -0.24050154 -0.33434010
v -0.23092708 -0.24076509 0.42458898
v -0.23580457 -0.23648210 0.42458898
v -0.05494164 0.32946712 -0.33434010
v -0.05494164 0.32946712 0.42458898
v -0.23593640 -0.23628442 -0.33434010
v -0.24120937 -0.23134249 0.42458898
v -0.24120937 -0.23134249 -0.33434010
v -0.06496029 0.32768804 -0.33434010
v -0.06463072 0.32775390 0.42458898
v -0.24635053 -0.22508273 0.42458898
v -0.24621870 -0.22521451 -0.33434010
v -0.06555349 0.32755625 -0.33434010
v -0.06496029 0.32768804 0.42458898
v -0.25920337 -0.20900500 0.42458898
v -0.25920337 -0.20900500 -0.33434010
v -0.24997570 -0.22053616 -0.33434010
v -0.07497893 0.32492054 -0.33434010
v -0.07497893 0.32492054 0.42458898
v -0.26803559 -0.19793509 0.42458898
v -0.27218807 -0.19272959 -0.33434010
v -0.08532714 0.32195538 -0.33434010
v -0.08460210 0.32215309 0.42458898
v -0.27218807 -0.19272959 0.42458898
v -0.27719742 -0.18627214 -0.33434010
v -0.27732921 -0.18614036 0.42458898
v -0.10556217 0.31609100 -0.33434010
v -0.11465804 0.31345528 0.42458898
v -0.09600490 0.31885844 0.41492963
v -0.28062487 -0.18159379 -0.33434010
v -0.28088850 -0.18126433 0.42458898
v -0.11498760 0.31332350 -0.33434010
v -0.12210612 0.31101727 0.42458898
v -0.12230385 0.31095141 -0.33434010
v -0.28108621 -0.18093486 -0.33434010
v -0.28418410 -0.17520224 0.42458898
v -0.12250160 0.31088549 0.42458898
v -0.12704954 0.30890870 -0.33434010
v -0.28457958 -0.17447741 -0.33434010
v -0.29103893 -0.16202377 0.42458898
v -0.28846836 -0.16703159 0.41492963
v -0.12731318 0.30877692 0.42458898
v -0.12777457 0.30857927 -0.33434010
v -0.28846836 -0.16703159 -0.33434010
v -0.30494642 -0.13520558 0.42458898
v -0.29090714 -0.16235323 -0.33434010
v -0.13495898 0.30508697 0.41492963
v -0.13469534 0.30515283 0.42458898
v -0.13495898 0.30508697 -0.33434010
v -0.30507827 -0.13494202 0.42458898
v -0.30507827 -0.13494202 -0.33434010
v -0.16204888 0.29105192 0.42458898
v -0.14253889 0.30113345 0.42458898
v -0.13495898 0.30502105 0.42458898
v -0.16751958 0.28821856 -0.33434010
v -0.30876935 -0.12736440 0.42458898
v -0.30883527 -0.12736440 0.41492963
v -0.30527598 -0.13454667 -0.33434010
v -0.17496766 0.28433090 0.42458898
v -0.17536314 0.28413320 -0.33434010
v -0.31094444 -0.12235659 0.42458898
v -0.30883527 -0.12736440 -0.33434010
v -0.18109749 0.28097039 0.42458898
v -0.18129523 0.28083861 -0.33434010
v -0.31325138 -0.11524021 0.42458898
v -0.31094444 -0.12235659 -0.33434010
v -0.18149297 0.28070682 0.42458898
v -0.18670003 0.27688503 -0.33434010
v -0.32030398 -0.09099183 0.42458898
v -0.31885391 -0.09599965 0.41492963
v -0.31641513 -0.10443387 -0.33434010
v -0.31351501 -0.11438361 -0.33434010
v -0.18630455 0.27714860 0.42458898
v -0.19276394 0.27220672 -0.33434010
v -0.19276394 0.27220672 0.42458898
v -0.32491779 -0.07498000 0.42458898
v -0.32221538 -0.08440260 -0.33434010
v -0.22024931 0.25019866 -0.33434010
v -0.22044705 0.25006688 0.42458898
v -0.32768613 -0.06496436 0.42458898
v -0.32491779 -0.07498000 -0.33434010
v -0.22558819 0.24591565 -0.33434010
v -0.22525863 0.24617922 0.42458898
v -0.32946575 -0.05494873 0.42458898
v -0.32781792 -0.06437133 -0.33434010
v -0.32768613 -0.06496436 -0.33434010
v -0.23132256 0.24117140 -0.33434010
v -0.23112482 0.24136908 0.42458898
v -0.33038849 -0.04460363 0.42458898
v -0.32946575 -0.05494873 -0.33434010
v -0.23633188 0.23596591 -0.33434010
v -0.23145437 0.24103962 0.42458898
v -0.33375001 -0.00533180 0.42458898
v -0.33038849 -0.04460363 -0.33434010
v -0.24081390 0.23095809 -0.33434010
v -0.23633188 0.23596591 0.42458898
v -0.33407962 0.00494740 0.42458898
v -0.33375001 -0.00493645 -0.33434010
v -0.33295912 -0.01435905 -0.33434010
v -0.26843107 0.19814372 -0.33434010
v -0.24582322 0.22502778 0.42458898
v -0.24081390 0.23095809 0.42458898
v -0.33335453 0.01496303 0.42458898
v -0.33335453 0.01496303 -0.33434010
v -0.33401370 0.00554043 -0.33434010
v -0.33401370 0.00494740 -0.33434010
v -0.27251762 0.19313590 -0.33434010
v -0.27238584 0.19333358 0.42458898
v -0.26843107 0.19814372 0.42458898
v -0.26328993 0.20427170 0.42458898
v -0.33229995 0.02464921 0.42458898
v -0.32972938 0.04764563 -0.33434010
v -0.27752697 0.18588774 -0.33434010
v -0.27752697 0.18588774 0.42458898
v -0.33032262 0.04237425 0.42458898
v -0.32880664 0.05555271 -0.33434010
v -0.32893842 0.05469611 0.42458898
v -0.28049302 0.18087992 -0.33434010
v -0.28049302 0.18087992 0.42458898
v -0.32768613 0.06497531 -0.33434010
v -0.32768613 0.06497531 0.42458898
v -0.30151898 0.14272827 -0.33434010
v -0.30151898 0.14272827 0.42458898
v -0.32551104 0.07499095 -0.33434010
v -0.32557690 0.07466149 0.42458898
v -0.32551104 0.07499095 0.41492963
v -0.30553961 0.13495296 -0.33434010
v -0.30553961 0.13495296 0.41492963
v -0.30547374 0.13495296 0.42458898
v -0.31285590 0.11498759 -0.33434010
v -0.32247907 0.08461123 0.42458898
v -0.30876935 0.12744124 -0.33434010
v -0.30896705 0.12697999 0.42458898
v -0.30560553 0.13468941 0.42458898
v -0.31061488 0.12197218 -0.33434010
v -0.31285590 0.11498759 0.42458898
v -0.30896705 0.12697999 -0.33434010
v -0.31061488 0.12197218 0.42458898
v -0.30909890 0.12665054 -0.33434010
f 1 2 3
f 1 3 4
f 1 4 5
f 1 5 6
f 1 6 7
f 1 7 8
f 1 8 9
f 1 9 10
f 1 10 2
f 2 11 3
f 2 10 12
f 2 12 11
f 3 13 4
f 3 11 14
f 3 14 13
f 4 13 15
f 4 15 5
f 5 15 16
f 5 16 6
f 6 17 8
f 6 8 7
f 6 16 18
f 6 18 19
f 6 19 20
f 6 20 17
f 8 17 20
f 8 20 21
f 8 21 22
f 8 22 9
f 9 23 12
f 9 12 10
f 9 22 24
f 9 24 23
f 11 25 26
f 11 26 27
f 11 27 28
f 11 28 29
f 11 29 30
f 11 30 31
f 11 31 14
f 11 12 32
f 11 32 33
f 11 33 25
f 12 23 32
f 13 14 34
f 13 34 35
f 13 35 36
f 13 36 37
f 13 37 38
f 13 38 15
f 14 31 34
f 15 38 18
f 15 18 16
f 18 39 40
f 18 40 41
f 18 41 42
f 18 42 43
f 18 43 19
f 18 38 39
f 19 43 44
f 19 44 45
f 19 45 20
f 20 46 47
f 20 47 48
f 20 48 49
f 20 49 50
f 20 50 21
f 20 45 46
f 21 50 22
f 22 50 51
f 22 51 52
f 22 52 24
f 23 24 32
f 24 52 53
f 24 53 54
f 24 54 32
f 25 55 56
f 25 56 57
f 25 57 58
f 25 58 59
f 25 59 26
f 25 33 60
f 25 60 55
f 26 61 82
f 26 82 104
f 26 104 103
f 26 103 102
f 26 102 101
f 26 101 100
f 26 100 130
f 26 130 148
f 26 148 166
f 26 166 165
f 26 165 164
f 26 164 163
f 26 163 180
f 26 180 179
f 26 179 196
f 26 196 209
f 26 209 211
f 26 211 223
f 26 223 233
f 26 233 252
f 26 252 264
f 26 264 266
f 26 266 276
f 26 276 285
f 26 285 293
f 26 293 303
f 26 303 317
f 26 317 331
f 26 331 350
f 26 350 364
f 26 364 379
f 26 379 388
f 26 388 387
f 26 387 399
f 26 399 409
f 26 409 408
f 26 408 417
f 26 417 426
f 26 426 434
f 26 434 446
f 26 446 451
f 26 451 456
f 26 456 460
f 26 460 465
f 26 465 469
f 26 469 473
f 26 473 478
f 26 478 482
f 26 482 484
f 26 484 489
f 26 489 494
f 26 494 498
f 26 498 503
f 26 503 507
f 26 507 512
f 26 512 517
f 26 517 521
f 26 521 526
f 26 526 532
f 26 532 538
f 26 538 537
f 26 537 536
f 26 536 543
f 26 543 547
f 26 547 551
f 26 551 557
f 26 557 559
f 26 559 563
f 26 563 567
f 26 567 572
f 26 572 576
f 26 576 580
f 26 580 586
f 26 586 585
f 26 585 594
f 26 594 593
f 26 593 592
f 26 592 598
f 26 598 603
f 26 603 607
f 26 607 613
f 26 613 618
f 26 618 617
f 26 617 622
f 26 622 620
f 26 620 615
f 26 615 609
f 26 609 605
f 26 605 601
f 26 601 599
f 26 599 595
f 26 595 587
f 26 587 581
f 26 581 577
f 26 577 573
f 26 573 568
f 26 568 564
f 26 564 560
f 26 560 553
f 26 553 549
f 26 549 545
f 26 545 540
f 26 540 534
f 26 534 529
f 26 529 524
f 26 524 520
f 26 520 515
f 26 515 510
f 26 510 508
f 26 508 504
f 26 504 499
f 26 499 495
f 26 495 491
f 26 491 487
f 26 487 486
f 26 486 481
f 26 481 477
f 26 477 472
f 26 472 468
f 26 468 464
f 26 464 462
f 26 462 457
f 26 457 453
f 26 453 452
f 26 452 447
f 26 447 439
f 26 439 438
f 26 438 437
f 26 437 436
f 26 436 435
f 26 435 427
f 26 427 424
f 26 424 414
f 26 414 406
f 26 406 396
f 26 396 383
f 26 383 374
f 26 374 373
f 26 373 372
f 26 372 360
f 26 360 348
f 26 348 344
f 26 344 343
f 26 343 341
f 26 341 325
f 26 325 311
f 26 311 299
f 26 299 289
f 26 289 281
f 26 281 277
f 26 277 267
f 26 267 257
f 26 257 242
f 26 242 241
f 26 241 240
f 26 240 239
f 26 239 235
f 26 235 226
f 26 226 214
f 26 214 212
f 26 212 198
f 26 198 186
f 26 186 167
f 26 167 151
f 26 151 150
f 26 150 149
f 26 149 133
f 26 133 131
f 26 131 111
f 26 111 110
f 26 110 105
f 26 105 83
f 26 83 62
f 26 62 38
f 26 38 37
f 26 37 36
f 26 36 35
f 26 35 34
f 26 34 31
f 26 31 30
f 26 30 29
f 26 29 28
f 26 28 27
f 26 59 61
f 32 54 33
f 33 54 53
f 33 53 60
f 38 62 39
f 39 62 63
f 39 63 64
f 39 64 40
f 40 64 65
f 40 65 66
f 40 66 41
f 41 66 42
f 42 66 65
f 42 65 43
f 43 65 67
f 43 67 44
f 44 67 45
f 45 67 46
f 46 68 69
f 46 69 47
f 46 67 68
f 47 69 48
f 48 69 90
f 48 90 120
f 48 120 119
f 48 119 118
f 48 118 117
f 48 117 139
f 48 139 138
f 48 138 156
f 48 156 174
f 48 174 192
f 48 192 206
f 48 206 220
f 48 220 219
f 48 219 218
f 48 218 230
f 48 230 247
f 48 247 261
f 48 261 263
f 48 263 274
f 48 274 283
f 48 283 291
f 48 291 301
f 48 301 315
f 48 315 329
f 48 329 328
f 48 328 340
f 48 340 339
f 48 339 357
f 48 357 356
f 48 356 355
f 48 355 354
f 48 354 369
f 48 369 368
f 48 368 367
f 48 367 366
f 48 366 380
f 48 380 389
f 48 389 400
f 48 400 410
f 48 410 413
f 48 413 423
f 48 423 431
f 48 431 444
f 48 444 443
f 48 443 442
f 48 442 441
f 48 441 440
f 48 440 449
f 48 449 454
f 48 454 458
f 48 458 463
f 48 463 467
f 48 467 471
f 48 471 476
f 48 476 480
f 48 480 485
f 48 485 490
f 48 490 492
f 48 492 496
f 48 496 501
f 48 501 500
f 48 500 505
f 48 505 509
f 48 509 514
f 48 514 519
f 48 519 523
f 48 523 528
f 48 528 530
f 48 530 535
f 48 535 542
f 48 542 546
f 48 546 550
f 48 550 556
f 48 556 555
f 48 555 561
f 48 561 565
f 48 565 570
f 48 570 569
f 48 569 574
f 48 574 578
f 48 578 583
f 48 583 582
f 48 582 590
f 48 590 589
f 48 589 588
f 48 588 596
f 48 596 600
f 48 600 604
f 48 604 608
f 48 608 614
f 48 614 619
f 48 619 623
f 48 623 621
f 48 621 616
f 48 616 611
f 48 611 606
f 48 606 602
f 48 602 597
f 48 597 591
f 48 591 584
f 48 584 579
f 48 579 575
f 48 575 571
f 48 571 566
f 48 566 562
f 48 562 558
f 48 558 552
f 48 552 548
f 48 548 544
f 48 544 539
f 48 539 533
f 48 533 527
f 48 527 522
f 48 522 518
f 48 518 516
f 48 516 511
f 48 511 506
f 48 506 502
f 48 502 497
f 48 497 493
f 48 493 488
f 48 488 483
f 48 483 479
f 48 479 475
f 48 475 474
f 48 474 470
f 48 470 466
f 48 466 461
f 48 461 459
f 48 459 455
f 48 455 450
f 48 450 445
f 48 445 432
f 48 432 425
f 48 425 416
f 48 416 407
f 48 407 398
f 48 398 386
f 48 386 377
f 48 377 363
f 48 363 349
f 48 349 330
f 48 330 316
f 48 316 302
f 48 302 292
f 48 292 284
f 48 284 275
f 48 275 265
f 48 265 255
f 48 255 254
f 48 254 253
f 48 253 234
f 48 234 224
f 48 224 222
f 48 222 210
f 48 210 197
f 48 197 185
f 48 185 184
f 48 184 183
f 48 183 182
f 48 182 178
f 48 178 195
f 48 195 194
f 48 194 193
f 48 193 175
f 48 175 157
f 48 157 140
f 48 140 123
f 48 123 99
f 48 99 98
f 48 98 92
f 48 92 73
f 48 73 72
f 48 72 70
f 48 70 50
f 48 50 49
f 50 70 51
f 51 70 52
f 52 71 53
f 52 70 72
f 52 72 73
f 52 73 71
f 53 74 75
f 53 75 76
f 53 76 77
f 53 77 60
f 53 71 73
f 53 73 74
f 55 60 56
f 56 77 57
f 56 60 77
f 57 77 78
f 57 78 79
f 57 79 80
f 57 80 58
f 58 80 59
f 59 80 81
f 59 81 61
f 61 81 82
f 62 83 84
f 62 84 63
f 63 85 86
f 63 86 87
f 63 87 88
f 63 88 89
f 63 89 64
f 63 84 85
f 64 89 65
f 65 89 68
f 65 68 67
f 68 89 69
f 69 89 91
f 69 91 88
f 69 88 90
f 73 92 75
f 73 75 74
f 75 93 94
f 75 94 95
f 75 95 96
f 75 96 97
f 75 97 76
f 75 92 98
f 75 98 99
f 75 99 93
f 76 97 78
f 76 78 77
f 78 96 79
f 78 97 96
f 79 96 80
f 80 96 95
f 80 95 81
f 81 95 100
f 81 100 101
f 81 101 102
f 81 102 103
f 81 103 104
f 81 104 82
f 83 105 84
f 84 106 107
f 84 107 108
f 84 108 109
f 84 109 85
f 84 105 110
f 84 110 111
f 84 111 112
f 84 112 113
f 84 113 114
f 84 114 106
f 85 109 115
f 85 115 116
f 85 116 86
f 86 116 87
f 87 116 88
f 88 117 118
f 88 118 119
f 88 119 120
f 88 120 90
f 88 91 121
f 88 121 89
f 88 116 122
f 88 122 117
f 89 121 91
f 93 99 123
f 93 123 94
f 94 124 95
f 94 123 124
f 95 125 126
f 95 126 127
f 95 127 128
f 95 128 129
f 95 129 100
f 95 124 125
f 100 129 130
f 106 114 107
f 107 115 108
f 107 114 122
f 107 122 115
f 108 115 109
f 111 131 112
f 112 132 113
f 112 131 133
f 112 133 132
f 113 132 134
f 113 134 135
f 113 135 136
f 113 136 114
f 114 136 137
f 114 137 138
f 114 138 139
f 114 139 122
f 115 122 116
f 117 122 139
f 123 140 141
f 123 141 124
f 124 141 142
f 124 142 125
f 125 142 126
f 126 143 144
f 126 144 128
f 126 128 127
f 126 142 145
f 126 145 143
f 128 144 129
f 129 144 146
f 129 146 147
f 129 147 130
f 130 147 148
f 132 133 149
f 132 149 134
f 134 149 150
f 134 150 151
f 134 151 152
f 134 152 135
f 135 152 153
f 135 153 136
f 136 154 137
f 136 153 155
f 136 155 154
f 137 154 138
f 138 154 156
f 140 157 158
f 140 158 159
f 140 159 145
f 140 145 141
f 141 145 142
f 143 158 146
f 143 146 144
f 143 145 159
f 143 159 158
f 146 158 160
f 146 160 147
f 147 160 161
f 147 161 162
f 147 162 163
f 147 163 164
f 147 164 165
f 147 165 166
f 147 166 148
f 151 167 168
f 151 168 152
f 152 168 169
f 152 169 170
f 152 170 171
f 152 171 172
f 152 172 153
f 153 172 155
f 154 155 172
f 154 172 173
f 154 173 156
f 156 173 174
f 157 175 176
f 157 176 177
f 157 177 158
f 158 177 176
f 158 176 160
f 160 176 178
f 160 178 161
f 161 179 180
f 161 180 181
f 161 181 162
f 161 178 182
f 161 182 183
f 161 183 184
f 161 184 185
f 161 185 179
f 162 181 180
f 162 180 163
f 167 186 187
f 167 187 168
f 168 187 188
f 168 188 169
f 169 188 189
f 169 189 190
f 169 190 172
f 169 172 170
f 170 172 171
f 172 190 173
f 173 190 189
f 173 189 174
f 174 191 192
f 174 189 191
f 175 193 176
f 176 193 194
f 176 194 195
f 176 195 178
f 179 185 196
f 185 197 209
f 185 209 196
f 186 198 187
f 187 198 199
f 187 199 200
f 187 200 201
f 187 201 202
f 187 202 188
f 188 202 203
f 188 203 189
f 189 203 204
f 189 204 191
f 191 205 206
f 191 206 192
f 191 204 207
f 191 207 208
f 191 208 205
f 197 210 211
f 197 211 209
f 198 212 199
f 199 213 200
f 199 212 214
f 199 214 213
f 200 213 215
f 200 215 216
f 200 216 217
f 200 217 208
f 200 208 201
f 201 208 202
f 202 208 203
f 203 208 207
f 203 207 204
f 205 218 219
f 205 219 220
f 205 220 206
f 205 208 217
f 205 217 221
f 205 221 218
f 210 222 211
f 211 222 224
f 211 224 223
f 213 225 215
f 213 214 226
f 213 226 225
f 215 225 227
f 215 227 228
f 215 228 216
f 216 228 229
f 216 229 221
f 216 221 217
f 218 221 231
f 218 231 230
f 221 229 232
f 221 232 231
f 223 224 234
f 223 234 233
f 225 226 227
f 226 235 227
f 227 236 237
f 227 237 238
f 227 238 228
f 227 235 239
f 227 239 240
f 227 240 241
f 227 241 242
f 227 242 236
f 228 243 244
f 228 244 245
f 228 245 229
f 228 238 243
f 229 245 246
f 229 246 232
f 230 231 248
f 230 248 249
f 230 249 250
f 230 250 251
f 230 251 247
f 231 232 248
f 232 246 248
f 233 234 253
f 233 253 254
f 233 254 255
f 233 255 252
f 236 256 237
f 236 242 257
f 236 257 258
f 236 258 259
f 236 259 251
f 236 251 256
f 237 256 238
f 238 256 243
f 243 256 244
f 244 256 251
f 244 251 260
f 244 260 250
f 244 250 245
f 245 250 249
f 245 249 248
f 245 248 246
f 247 251 261
f 250 260 251
f 251 262 263
f 251 263 261
f 251 259 262
f 252 255 264
f 255 265 266
f 255 266 264
f 257 267 268
f 257 268 269
f 257 269 258
f 258 269 259
f 259 269 270
f 259 270 262
f 262 271 272
f 262 272 263
f 262 270 273
f 262 273 271
f 263 272 274
f 265 275 276
f 265 276 266
f 267 277 268
f 268 278 279
f 268 279 280
f 268 280 273
f 268 273 269
f 268 277 281
f 268 281 278
f 269 273 270
f 271 282 272
f 271 273 280
f 271 280 282
f 272 282 283
f 272 283 274
f 275 284 285
f 275 285 276
f 278 286 279
f 278 281 286
f 279 287 288
f 279 288 280
f 279 286 287
f 280 288 282
f 281 289 286
f 282 290 291
f 282 291 283
f 282 288 290
f 284 292 293
f 284 293 285
f 286 294 295
f 286 295 296
f 286 296 297
f 286 297 298
f 286 298 287
f 286 289 299
f 286 299 294
f 287 298 290
f 287 290 288
f 290 300 301
f 290 301 291
f 290 298 300
f 292 302 293
f 293 302 303
f 294 299 304
f 294 304 305
f 294 305 295
f 295 305 296
f 296 305 306
f 296 306 307
f 296 307 308
f 296 308 309
f 296 309 310
f 296 310 297
f 297 310 300
f 297 300 298
f 299 311 312
f 299 312 304
f 300 310 313
f 300 313 314
f 300 314 301
f 301 314 315
f 302 316 317
f 302 317 303
f 304 318 305
f 304 312 319
f 304 319 318
f 305 318 320
f 305 320 306
f 306 320 321
f 306 321 308
f 306 308 307
f 308 321 333
f 308 333 322
f 308 322 323
f 308 323 324
f 308 324 309
f 309 324 310
f 310 324 313
f 311 325 326
f 311 326 312
f 312 326 327
f 312 327 319
f 313 324 328
f 313 328 314
f 314 328 329
f 314 329 315
f 316 330 331
f 316 331 317
f 318 332 333
f 318 333 320
f 318 319 334
f 318 334 332
f 319 327 334
f 320 333 321
f 322 335 323
f 322 333 351
f 322 351 335
f 323 336 337
f 323 337 338
f 323 338 339
f 323 339 340
f 323 340 328
f 323 328 324
f 323 335 336
f 325 341 326
f 326 342 327
f 326 341 343
f 326 343 344
f 326 344 342
f 327 345 346
f 327 346 347
f 327 347 334
f 327 342 344
f 327 344 348
f 327 348 345
f 330 349 331
f 331 349 350
f 332 351 333
f 332 334 351
f 334 347 362
f 334 362 352
f 334 352 335
f 334 335 351
f 335 352 336
f 336 338 337
f 336 352 338
f 338 352 353
f 338 353 354
f 338 354 355
f 338 355 356
f 338 356 357
f 338 357 339
f 345 358 359
f 345 359 346
f 345 348 360
f 345 360 358
f 346 359 361
f 346 361 347
f 347 361 362
f 349 363 350
f 350 363 364
f 352 362 353
f 353 365 366
f 353 366 367
f 353 367 368
f 353 368 369
f 353 369 354
f 353 362 361
f 353 361 370
f 353 370 371
f 353 371 365
f 358 360 372
f 358 372 373
f 358 373 374
f 358 374 375
f 358 375 376
f 358 376 359
f 359 376 370
f 359 370 361
f 363 377 378
f 363 378 364
f 364 378 379
f 365 371 366
f 366 371 381
f 366 381 380
f 370 376 382
f 370 382 371
f 371 382 381
f 374 383 384
f 374 384 375
f 375 384 385
f 375 385 376
f 376 385 382
f 377 386 387
f 377 387 378
f 378 387 388
f 378 388 379
f 380 381 390
f 380 390 391
f 380 391 392
f 380 392 389
f 381 382 393
f 381 393 394
f 381 394 395
f 381 395 390
f 382 385 393
f 383 396 397
f 383 397 384
f 384 397 394
f 384 394 385
f 385 394 393
f 386 398 399
f 386 399 387
f 389 392 401
f 389 401 400
f 390 395 391
f 391 395 402
f 391 402 392
f 392 402 403
f 392 403 401
f 394 404 395
f 394 397 404
f 395 405 402
f 395 404 397
f 395 397 405
f 396 406 405
f 396 405 397
f 398 407 408
f 398 408 409
f 398 409 399
f 400 401 410
f 401 403 411
f 401 411 412
f 401 412 413
f 401 413 410
f 402 405 403
f 403 405 414
f 403 414 415
f 403 415 411
f 405 406 414
f 407 416 408
f 408 416 417
f 411 415 418
f 411 418 419
f 411 419 420
f 411 420 421
f 411 421 422
f 411 422 413
f 411 413 412
f 413 422 423
f 414 424 415
f 415 424 418
f 416 425 417
f 417 425 426
f 418 424 427
f 418 427 419
f 419 428 429
f 419 429 420
f 419 427 428
f 420 429 430
f 420 430 421
f 421 430 422
f 422 430 431
f 422 431 423
f 425 432 433
f 425 433 426
f 426 433 434
f 427 435 428
f 428 435 436
f 428 436 437
f 428 437 438
f 428 438 429
f 429 438 439
f 429 439 440
f 429 440 430
f 430 440 441
f 430 441 442
f 430 442 443
f 430 443 444
f 430 444 431
f 432 445 433
f 433 446 434
f 433 445 446
f 439 447 448
f 439 448 449
f 439 449 440
f 445 450 446
f 446 450 451
f 447 452 448
f 448 452 453
f 448 453 454
f 448 454 449
f 450 455 456
f 450 456 451
f 453 457 454
f 454 457 458
f 455 459 456
f 456 459 461
f 456 461 460
f 457 462 458
f 458 462 464
f 458 464 463
f 460 461 466
f 460 466 465
f 463 464 468
f 463 468 467
f 465 466 469
f 466 470 469
f 467 468 472
f 467 472 471
f 469 470 474
f 469 474 475
f 469 475 473
f 471 472 477
f 471 477 476
f 473 475 478
f 475 479 478
f 476 477 480
f 477 481 480
f 478 479 482
f 479 483 484
f 479 484 482
f 480 481 486
f 480 486 487
f 480 487 485
f 483 488 489
f 483 489 484
f 485 487 490
f 487 491 492
f 487 492 490
f 488 493 494
f 488 494 489
f 491 495 492
f 492 495 496
f 493 497 498
f 493 498 494
f 495 499 500
f 495 500 501
f 495 501 496
f 497 502 503
f 497 503 498
f 499 504 500
f 500 504 505
f 502 506 503
f 503 506 507
f 504 508 505
f 505 508 510
f 505 510 509
f 506 511 512
f 506 512 513
f 506 513 507
f 507 513 512
f 509 510 514
f 510 515 514
f 511 516 512
f 512 516 518
f 512 518 517
f 514 515 519
f 515 520 519
f 517 518 521
f 518 522 521
f 519 520 523
f 520 524 525
f 520 525 523
f 521 522 526
f 522 527 526
f 523 525 528
f 524 529 525
f 525 529 530
f 525 530 528
f 526 531 532
f 526 527 531
f 527 533 531
f 529 534 542
f 529 542 535
f 529 535 530
f 531 536 537
f 531 537 538
f 531 538 532
f 531 533 539
f 531 539 536
f 534 540 541
f 534 541 542
f 536 539 543
f 539 544 543
f 540 545 541
f 541 545 550
f 541 550 546
f 541 546 542
f 543 544 547
f 544 548 547
f 545 549 550
f 547 548 551
f 548 552 551
f 549 553 554
f 549 554 555
f 549 555 556
f 549 556 550
f 551 552 557
f 552 558 559
f 552 559 557
f 553 560 561
f 553 561 555
f 553 555 554
f 558 562 563
f 558 563 559
f 560 564 570
f 560 570 565
f 560 565 561
f 562 566 563
f 563 566 567
f 564 568 569
f 564 569 570
f 566 571 572
f 566 572 567
f 568 573 578
f 568 578 574
f 568 574 569
f 571 575 576
f 571 576 572
f 573 577 578
f 575 579 586
f 575 586 580
f 575 580 576
f 577 581 582
f 577 582 583
f 577 583 578
f 579 584 585
f 579 585 586
f 581 587 588
f 581 588 589
f 581 589 590
f 581 590 582
f 584 591 592
f 584 592 593
f 584 593 594
f 584 594 585
f 587 595 588
f 588 595 596
f 591 597 592
f 592 597 598
f 595 599 596
f 596 599 601
f 596 601 600
f 597 602 603
f 597 603 598
f 600 601 604
f 601 605 604
f 602 606 607
f 602 607 603
f 604 605 610
f 604 610 608
f 605 609 610
f 606 611 612
f 606 612 607
f 607 612 613
f 608 610 615
f 608 615 614
f 609 615 610
f 611 616 612
f 612 617 618
f 612 618 613
f 612 616 617
f 614 615 620
f 614 620 622
f 614 622 619
f 616 621 617
f 617 621 623
f 617 623 622
f 619 622 623

