# https://github.com/mikedh/trimesh
v 0.00193058 0.34004915 0.48053142
v 0.00512603 0.33938342 0.48432016
v 0.01497867 0.33858457 0.48499560
v 0.00193058 0.34004915 0.47988704
v -0.00053258 0.34004915 0.48053142
v -0.00432717 0.33911714 0.48432016
v -0.00499289 0.33412424 0.49315536
v 0.00499289 0.33425739 0.49326405
v 0.01497867 0.33392453 0.49300784
v 0.06497415 0.33092880 0.49090385
v 0.07196420 0.33046278 0.49046132
v 0.06497415 0.33279282 0.48499560
v 0.05532123 0.32886508 0.42467102
v 0.04766546 0.32973051 0.42467102
v 0.03521652 0.33112851 0.42467102
v 0.02496445 0.33226022 0.42467102
v 0.01531153 0.33332539 0.42467102
v 0.00499289 0.33405769 0.42467102
v -0.00053258 0.34004915 0.47988704
v -0.05498837 0.33445710 0.48499560
v -0.01497867 0.33805197 0.48499560
v -0.05498837 0.33172765 0.49154824
v -0.05498837 0.32533675 0.49654812
v -0.05498837 0.32034388 0.50022042
v -0.00499289 0.32693449 0.49815524
v 0.00499289 0.32706761 0.49826393
v 0.01497867 0.32673478 0.49800771
v 0.05232549 0.32021073 0.50015050
v 0.05898268 0.31981128 0.49991760
v 0.05538780 0.32413846 0.49701396
v 0.06497415 0.32493731 0.49550778
v 0.07868796 0.32953078 0.48729369
v 0.07515965 0.33092880 0.48437452
v 0.07515965 0.32573619 0.49327180
v 0.10252069 0.32061017 0.49058554
v 0.10917788 0.31974474 0.48862129
v 0.08015254 0.32999679 0.47986376
v 0.07495993 0.33079565 0.47821006
v 0.06497415 0.32766679 0.42467102
v -0.00466003 0.33379138 0.42467102
v -0.01497867 0.33292595 0.42467102
v -0.04427030 0.33039623 0.42467102
v -0.05498837 0.32946423 0.42467102
v -0.06497415 0.33285937 0.48499560
v -0.07129848 0.33026308 0.49028274
v -0.06497415 0.33099538 0.49090385
v -0.06031412 0.32007757 0.50005734
v -0.05498837 0.31495154 0.50209147
v -0.04493602 0.31495154 0.50247967
v -0.04493602 0.32067671 0.50042999
v -0.00499289 0.32194158 0.50098902
v 0.00499289 0.32207474 0.50103557
v 0.01497867 0.32174188 0.50091910
v 0.03495023 0.32094303 0.50056201
v 0.04493602 0.32054359 0.50035238
v 0.04493602 0.31495154 0.50233990
v 0.05538780 0.31588355 0.50154024
v 0.06497415 0.31408611 0.50156355
v 0.07495993 0.31268811 0.50116760
v 0.06497415 0.31907901 0.49959153
v 0.08015254 0.32999679 0.48062462
v 0.11064246 0.32021073 0.48195997
v 0.07495993 0.31768098 0.49873751
v 0.09166947 0.31049123 0.50028253
v 0.09499807 0.31428581 0.49695185
v 0.10551643 0.31581697 0.49348143
v 0.11496963 0.31368667 0.49276716
v 0.12495541 0.31195581 0.49161813
v 0.13207860 0.31075752 0.49069422
v 0.12495541 0.31495154 0.48499560
v 0.08494572 0.32234102 0.42467102
v 0.07495993 0.32546991 0.42467102
v 0.06530701 0.32760021 0.42467102
v 0.11064246 0.32021073 0.47952214
v 0.12195968 0.31062436 0.42467102
v 0.11523592 0.31275466 0.42467102
v -0.06464129 0.32773334 0.42467102
v -0.07289620 0.33079565 0.47824112
v -0.07316249 0.33086222 0.48499560
v -0.07476021 0.32560304 0.49299231
v -0.10951073 0.31981128 0.48932779
v -0.10285355 0.32061017 0.49060106
v -0.10571614 0.31588355 0.49357459
v -0.08494572 0.30496576 0.50282902
v -0.07495993 0.30496576 0.50366753
v -0.09499807 0.31421927 0.49695960
v -0.09839323 0.30929294 0.49969244
v -0.09166947 0.31042466 0.50027472
v -0.02496445 0.31495154 0.50303864
v -0.06497415 0.30496576 0.50397807
v -0.01497867 0.31495154 0.50330263
v -0.00499289 0.31495154 0.50355881
v 0.00499289 0.31495154 0.50363648
v 0.01497867 0.31495154 0.50342685
v 0.02496445 0.31495154 0.50308526
v 0.03495023 0.31495154 0.50272810
v 0.07495993 0.30496576 0.50373739
v 0.08494572 0.30496576 0.50289112
v 0.08494572 0.31129009 0.50067848
v 0.11496963 0.29497999 0.50303864
v 0.12195968 0.30057201 0.50033683
v 0.12515512 0.30430004 0.49712265
v 0.13394262 0.31162295 0.48499560
v 0.12861687 0.29930717 0.49971575
v 0.13527405 0.30563149 0.49334943
v 0.14499354 0.30256918 0.49183550
v 0.15158416 0.30070516 0.49060881
v 0.13893551 0.30949265 0.48499560
v 0.13314375 0.31142324 0.47709984
v 0.12681942 0.30902666 0.42467102
v -0.06497415 0.32766679 0.42467102
v -0.07462707 0.32500389 0.42467102
v -0.11110846 0.32027730 0.47928923
v -0.11110846 0.32027730 0.48265871
v -0.11463677 0.31874615 0.48559344
v -0.12495541 0.31528440 0.48499560
v -0.13174574 0.31075752 0.49063212
v -0.12495541 0.31215551 0.49169576
v -0.11496963 0.31395298 0.49296126
v -0.11496963 0.29497999 0.50316286
v -0.10498385 0.29497999 0.50385386
v -0.11496963 0.30669662 0.49796113
v -0.12169339 0.30070516 0.50040674
v -0.11496963 0.30170375 0.50084150
v -0.12495541 0.28499421 0.50390041
v -0.14499354 0.27494186 0.50389266
v -0.27494186 0.14499354 0.50388491
v -0.30496576 0.06497415 0.50396252
v -0.30496576 -0.06497415 0.50397807
v 0.30496576 0.06497415 0.50397807
v 0.06497415 0.30496576 0.50396252
v 0.10498385 0.29497999 0.50379950
v 0.13494119 0.28499421 0.50338024
v 0.12515512 0.29557914 0.50157905
v 0.13494119 0.29258341 0.50100452
v 0.14159837 0.29078597 0.50040674
v 0.16110393 0.28053388 0.50031358
v 0.18054293 0.27034840 0.50018930
v 0.13494119 0.29757628 0.49865988
v 0.16463225 0.28432849 0.49675775
v 0.15491275 0.29537940 0.49302337
v 0.17095658 0.29045311 0.49038368
v 0.19026242 0.28013447 0.49015853
v 0.15810820 0.29890773 0.48499560
v 0.19106129 0.28073362 0.47858274
v 0.17195515 0.29105225 0.47794610
v 0.14273010 0.30150402 0.42467102
v 0.13520747 0.30536520 0.42467102
v 0.13494119 0.30549833 0.42467102
v -0.08461285 0.32214132 0.42467102
v -0.11496963 0.31335381 0.42467102
v -0.12235911 0.31095722 0.42467102
v -0.13274433 0.31142324 0.47723183
v -0.13341004 0.31162295 0.48499560
v -0.12502198 0.30443320 0.49708381
v -0.13840292 0.30915979 0.48499560
v -0.17122287 0.29051965 0.49046907
v -0.17475118 0.28532705 0.49284479
v -0.14499354 0.30236948 0.49170351
v -0.13500777 0.30549833 0.49313205
v -0.12502198 0.29537940 0.50158679
v -0.13494119 0.28499421 0.50327158
v -0.12835057 0.29897431 0.49953717
v -0.14146523 0.29071939 0.50037569
v -0.16496511 0.26495606 0.50386935
v -0.22494636 0.21496059 0.50385386
v -0.28499421 0.13494119 0.50338024
v -0.28499421 0.12495541 0.50384605
v -0.26495606 0.16496511 0.50383055
v -0.29497999 0.10498385 0.50379950
v -0.30496576 0.07495993 0.50373739
v -0.31495154 0.01497867 0.50342685
v -0.31495154 0.00499289 0.50363648
v -0.31495154 -0.00499289 0.50355881
v -0.31495154 -0.01497867 0.50330263
v -0.31495154 -0.02496445 0.50303864
v -0.31495154 -0.04493602 0.50247967
v -0.30496576 -0.07495993 0.50366753
v -0.29497999 -0.10498385 0.50385386
v -0.28499421 -0.12495541 0.50390041
v -0.27494186 -0.14499354 0.50389266
v -0.14499354 -0.27494186 0.50388491
v -0.06497415 -0.30496576 0.50396252
v 0.06497415 -0.30496576 0.50397807
v 0.30496576 -0.06497415 0.50396252
v 0.31495154 -0.00499289 0.50363648
v 0.31495154 0.00499289 0.50355881
v 0.31495154 0.01497867 0.50330263
v 0.31495154 0.02496445 0.50303864
v 0.31495154 0.04493602 0.50247967
v 0.30496576 0.07495993 0.50366753
v 0.29497999 0.10498385 0.50385386
v 0.28499421 0.12495541 0.50390041
v 0.27494186 0.14499354 0.50389266
v 0.14499354 0.27494186 0.50388491
v 0.12495541 0.28499421 0.50384605
v 0.16496511 0.26495606 0.50383055
v 0.15497933 0.27494186 0.50311625
v 0.17495090 0.26495606 0.50280571
v 0.18427095 0.26462319 0.50106663
v 0.19126099 0.26102832 0.50044554
v 0.23007241 0.23007241 0.50005734
v 0.18720011 0.26768550 0.49885395
v 0.18493667 0.28159904 0.49115229
v 0.17455146 0.28512734 0.49261963
v 0.20211221 0.27174640 0.48499560
v 0.19598760 0.27673930 0.48499560
v 0.19099471 0.28066704 0.48499560
v 0.18493667 0.28406221 0.48499560
v 0.17714776 0.28838935 0.48499560
v 0.19412360 0.27447584 0.49174234
v 0.20098050 0.27081439 0.49056223
v 0.23965876 0.23965876 0.48887751
v 0.24032447 0.24025790 0.47944450
v 0.19831762 0.26828465 0.42467102
v 0.19312501 0.27254525 0.42467102
v 0.18586868 0.27753815 0.42467102
v 0.18087579 0.28046730 0.42467102
v 0.16682912 0.28825623 0.42467102
v 0.15497933 0.29478025 0.42467102
v 0.14758985 0.29884115 0.42467102
v -0.12735200 0.30882692 0.42467102
v -0.13474147 0.30516547 0.42467102
v -0.17228802 0.29118538 0.47769767
v -0.17768034 0.28872222 0.48499560
v -0.19006270 0.28006789 0.49005759
v -0.18493667 0.28166562 0.49120665
v -0.17495090 0.27680585 0.49820182
v -0.16476539 0.28432849 0.49688971
v -0.18047635 0.27034840 0.50020486
v -0.14486040 0.29438084 0.49703723
v -0.16130365 0.28060046 0.50033683
v -0.15497933 0.27494186 0.50317842
v -0.17495090 0.26495606 0.50284457
v -0.18493667 0.25497028 0.50338799
v -0.19498903 0.24498451 0.50363648
v -0.20497480 0.23499872 0.50379175
v -0.22494636 0.22494636 0.50258058
v -0.23499872 0.20497480 0.50376844
v -0.27494186 0.15497933 0.50311625
v -0.29258341 0.13494119 0.50100452
v -0.29557914 0.12515512 0.50157905
v -0.29497999 0.11496963 0.50303864
v -0.24498451 0.19498903 0.50364423
v -0.25497028 0.18493667 0.50348115
v -0.26495606 0.17495090 0.50280571
v -0.30496576 0.08494572 0.50289112
v -0.31408611 0.06497415 0.50156355
v -0.31588355 0.05538780 0.50154024
v -0.31495154 0.04493602 0.50233990
v -0.31495154 0.03495023 0.50272810
v -0.31495154 0.02496445 0.50308526
v -0.32094303 0.03495023 0.50056201
v -0.32174188 0.01497867 0.50091910
v -0.32207474 0.00499289 0.50103557
v -0.32194158 -0.00499289 0.50098902
v -0.32067671 -0.04493602 0.50042999
v -0.32034388 -0.05498837 0.50022042
v -0.31495154 -0.05498837 0.50209147
v -0.30496576 -0.08494572 0.50282902
v -0.29497999 -0.11496963 0.50316286
v -0.32007757 -0.06031412 0.50005734
v -0.28499421 -0.13494119 0.50327158
v -0.26495606 -0.16496511 0.50386935
v -0.21496059 -0.22494636 0.50385386
v -0.16496511 -0.26495606 0.50383055
v -0.13494119 -0.28499421 0.50338024
v -0.12495541 -0.28499421 0.50384605
v -0.10498385 -0.29497999 0.50379950
v -0.07495993 -0.30496576 0.50373739
v -0.01497867 -0.31495154 0.50342685
v -0.00499289 -0.31495154 0.50363648
v 0.00499289 -0.31495154 0.50355881
v 0.01497867 -0.31495154 0.50330263
v 0.02496445 -0.31495154 0.50303864
v 0.04493602 -0.31495154 0.50247967
v 0.07495993 -0.30496576 0.50366753
v 0.10498385 -0.29497999 0.50385386
v 0.12495541 -0.28499421 0.50390041
v 0.14499354 -0.27494186 0.50389266
v 0.27494186 -0.14499354 0.50388491
v 0.28499421 -0.12495541 0.50384605
v 0.29497999 -0.10498385 0.50379950
v 0.30496576 -0.07495993 0.50373739
v 0.31495154 -0.01497867 0.50342685
v 0.32207474 -0.00499289 0.50103557
v 0.32194158 0.00499289 0.50098902
v 0.32067671 0.04493602 0.50042999
v 0.32034388 0.05498837 0.50022042
v 0.31495154 0.05498837 0.50209147
v 0.30496576 0.08494572 0.50282902
v 0.29497999 0.11496963 0.50316286
v 0.32007757 0.06031412 0.50005734
v 0.28499421 0.13494119 0.50327158
v 0.26495606 0.16496511 0.50386935
v 0.21496059 0.22494636 0.50385386
v 0.20497480 0.23499872 0.50376844
v 0.19498903 0.24498451 0.50364423
v 0.18493667 0.25497028 0.50348115
v 0.19472274 0.25483716 0.50136942
v 0.22494636 0.22494636 0.50258058
v 0.23233585 0.22494636 0.50071728
v 0.23965876 0.21955405 0.49987879
v 0.23732874 0.22494636 0.49863657
v 0.24272107 0.23300156 0.49163365
v 0.23486558 0.23486558 0.49488667
v 0.23300156 0.24245477 0.49147061
v 0.21496059 0.25510344 0.49289915
v 0.20457537 0.26475635 0.49234793
v 0.19472274 0.26462319 0.49714592
v 0.23579758 0.24351992 0.48532170
v 0.24032447 0.24025790 0.48220840
v 0.24937825 0.22927354 0.48675022
v 0.24485137 0.23486558 0.48448321
v 0.25197455 0.22254978 0.49124545
v 0.28006789 0.19006270 0.49005759
v 0.24997739 0.23000583 0.47998020
v 0.24118991 0.23133726 0.42467102
v 0.23579758 0.23646331 0.42467102
v 0.23093784 0.24079047 0.42467102
v 0.22521266 0.24565022 0.42467102
v 0.20910226 0.25923088 0.42467102
v -0.14239724 0.30123773 0.42467102
v -0.15497933 0.29471371 0.42467102
v -0.16203594 0.29105225 0.42467102
v -0.16702884 0.28845593 0.42467102
v -0.17495090 0.28432849 0.42467102
v -0.18107550 0.28099990 0.42467102
v -0.19079500 0.28066704 0.47886223
v -0.18493667 0.28432849 0.48499560
v -0.18427095 0.27420956 0.49618322
v -0.19066185 0.28053388 0.48499560
v -0.22927354 0.24937825 0.48675022
v -0.23965876 0.23965876 0.48887751
v -0.22254978 0.25197455 0.49124545
v -0.22554551 0.24565022 0.49366000
v -0.16796084 0.27866986 0.49938190
v -0.21955405 0.23965876 0.49987879
v -0.21575946 0.23579758 0.50192064
v -0.18427095 0.26449007 0.50099677
v -0.17495090 0.27181298 0.50075608
v -0.16476539 0.27520815 0.50146258
v -0.22494636 0.23233585 0.50071728
v -0.23007241 0.23007241 0.50005734
v -0.25483716 0.19472274 0.50136942
v -0.27034840 0.18054293 0.50018930
v -0.29078597 0.14159837 0.50040674
v -0.29930717 0.12861687 0.49971575
v -0.28053388 0.16110393 0.50031358
v -0.30057201 0.12195968 0.50033683
v -0.31049123 0.09166947 0.50028253
v -0.26462319 0.18427095 0.50106663
v -0.31129009 0.08494572 0.50067848
v -0.31268811 0.07495993 0.50116760
v -0.31981128 0.05898268 0.49991760
v -0.32021073 0.05232549 0.50015050
v -0.32054359 0.04493602 0.50035238
v -0.32706761 0.00499289 0.49826393
v -0.32693449 -0.00499289 0.49815524
v -0.33412424 -0.00499289 0.49315536
v -0.32533675 -0.05498837 0.49654812
v -0.31042466 -0.09166947 0.50027472
v -0.30170375 -0.11496963 0.50084150
v -0.30070516 -0.12169339 0.50040674
v -0.29537940 -0.12502198 0.50158679
v -0.33172765 -0.05498837 0.49154824
v -0.33099538 -0.06497415 0.49090385
v -0.33026308 -0.07129848 0.49028274
v -0.32560304 -0.07476021 0.49299231
v -0.31588355 -0.10571614 0.49357459
v -0.31421927 -0.09499807 0.49695960
v -0.30929294 -0.09839323 0.49969244
v -0.29071939 -0.14146523 0.50037569
v -0.28060046 -0.16130365 0.50033683
v -0.27494186 -0.15497933 0.50317842
v -0.26495606 -0.17495090 0.50284457
v -0.25497028 -0.18493667 0.50338799
v -0.24498451 -0.19498903 0.50363648
v -0.23499872 -0.20497480 0.50379175
v -0.22494636 -0.22494636 0.50258058
v -0.20497480 -0.23499872 0.50376844
v -0.15497933 -0.27494186 0.50311625
v -0.19498903 -0.24498451 0.50364423
v -0.18493667 -0.25497028 0.50348115
v -0.17495090 -0.26495606 0.50280571
v -0.13494119 -0.29258341 0.50100452
v -0.12515512 -0.29557914 0.50157905
v -0.11496963 -0.29497999 0.50303864
v -0.08494572 -0.30496576 0.50289112
v -0.06497415 -0.31408611 0.50156355
v -0.05538780 -0.31588355 0.50154024
v -0.04493602 -0.31495154 0.50233990
v -0.03495023 -0.31495154 0.50272810
v -0.02496445 -0.31495154 0.50308526
v -0.03495023 -0.32094303 0.50056201
v -0.01497867 -0.32174188 0.50091910
v -0.00499289 -0.32207474 0.50103557
v 0.00499289 -0.32194158 0.50098902
v 0.04493602 -0.32067671 0.50042999
v 0.05498837 -0.32034388 0.50022042
v 0.05498837 -0.31495154 0.50209147
v 0.06031412 -0.32007757 0.50005734
v 0.08494572 -0.30496576 0.50282902
v 0.11496963 -0.29497999 0.50316286
v 0.13494119 -0.28499421 0.50327158
v 0.16496511 -0.26495606 0.50386935
v 0.22494636 -0.21496059 0.50385386
v 0.28499421 -0.13494119 0.50338024
v 0.26495606 -0.16496511 0.50383055
v 0.29497999 -0.11496963 0.50303864
v 0.30496576 -0.08494572 0.50289112
v 0.31408611 -0.06497415 0.50156355
v 0.31588355 -0.05538780 0.50154024
v 0.31495154 -0.04493602 0.50233990
v 0.31495154 -0.03495023 0.50272810
v 0.31495154 -0.02496445 0.50308526
v 0.32094303 -0.03495023 0.50056201
v 0.32174188 -0.01497867 0.50091910
v 0.32706761 -0.00499289 0.49826393
v 0.32693449 0.00499289 0.49815524
v 0.33412424 0.00499289 0.49315536
v 0.32533675 0.05498837 0.49654812
v 0.31042466 0.09166947 0.50027472
v 0.30170375 0.11496963 0.50084150
v 0.30070516 0.12169339 0.50040674
v 0.29537940 0.12502198 0.50158679
v 0.33172765 0.05498837 0.49154824
v 0.33099538 0.06497415 0.49090385
v 0.33026308 0.07129848 0.49028274
v 0.32560304 0.07476021 0.49299231
v 0.31588355 0.10571614 0.49357459
v 0.31421927 0.09499807 0.49695960
v 0.30929294 0.09839323 0.49969244
v 0.28060046 0.16130365 0.50033683
v 0.27494186 0.15497933 0.50317842
v 0.29071939 0.14146523 0.50037569
v 0.26495606 0.17495090 0.50284457
v 0.25497028 0.18493667 0.50338799
v 0.24498451 0.19498903 0.50363648
v 0.23499872 0.20497480 0.50379175
v 0.23579758 0.21575946 0.50192064
v 0.24565022 0.22554551 0.49366000
v 0.27034840 0.18047635 0.50020486
v 0.24997739 0.23000583 0.48008114
v 0.28053388 0.19066185 0.48499560
v 0.27420956 0.18427095 0.49618322
v 0.28166562 0.18493667 0.49120665
v 0.29051965 0.17122287 0.49046907
v 0.28872222 0.17768034 0.48499560
v 0.28432849 0.18493667 0.48499560
v 0.24604966 0.22547895 0.42467102
v 0.28066704 0.19079500 0.47886223
v 0.27221242 0.19272558 0.42467102
v 0.26835123 0.19758533 0.42467102
v -0.18147494 0.28073362 0.42467102
v -0.18626811 0.27720529 0.42467102
v -0.19292530 0.27207926 0.42467102
v -0.23000583 0.24997739 0.47998020
v -0.23000583 0.24997739 0.48008114
v -0.23486558 0.24485137 0.48448321
v -0.24245477 0.23300156 0.49147061
v -0.23300156 0.24272107 0.49163365
v -0.24025790 0.24032447 0.48220840
v -0.24351992 0.23579758 0.48532170
v -0.27174640 0.20211221 0.48499560
v -0.28013447 0.19026242 0.49015853
v -0.27081439 0.20098050 0.49056223
v -0.22494636 0.23732874 0.49863657
v -0.26102832 0.19126099 0.50044554
v -0.23486558 0.23486558 0.49488667
v -0.25510344 0.21496059 0.49289915
v -0.26475635 0.20457537 0.49234793
v -0.26462319 0.19472274 0.49714592
v -0.26768550 0.18720011 0.49885395
v -0.28159904 0.18493667 0.49115229
v -0.28512734 0.17455146 0.49261963
v -0.29537940 0.15491275 0.49302337
v -0.30563149 0.13527405 0.49334943
v -0.29757628 0.13494119 0.49865988
v -0.30430004 0.12515512 0.49712265
v -0.31075752 0.13207860 0.49069422
v -0.31428581 0.09499807 0.49695185
v -0.32573619 0.07515965 0.49327180
v -0.31768098 0.07495993 0.49873751
v -0.31907901 0.06497415 0.49959153
v -0.32493731 0.06497415 0.49550778
v -0.32413846 0.05538780 0.49701396
v -0.33392453 0.01497867 0.49300784
v -0.32673478 0.01497867 0.49800771
v -0.33425739 0.00499289 0.49326405
v -0.33938342 0.00512603 0.48432016
v -0.33911714 -0.00432717 0.48432016
v -0.33805197 -0.01497867 0.48499560
v -0.30669662 -0.11496963 0.49796113
v -0.30443320 -0.12502198 0.49708381
v -0.29897431 -0.12835057 0.49953717
v -0.33445710 -0.05498837 0.48499560
v -0.33285937 -0.06497415 0.48499560
v -0.33086222 -0.07316249 0.48499560
v -0.31981128 -0.10951073 0.48932779
v -0.32061017 -0.10285355 0.49060106
v -0.31395298 -0.11496963 0.49296126
v -0.28432849 -0.16476539 0.49688971
v -0.27866986 -0.16796084 0.49938190
v -0.27034840 -0.18047635 0.50020486
v -0.27181298 -0.17495090 0.50075608
v -0.27520815 -0.16476539 0.50146258
v -0.26449007 -0.18427095 0.50099677
v -0.23579758 -0.21575946 0.50192064
v -0.23233585 -0.22494636 0.50071728
v -0.23007241 -0.23007241 0.50005734
v -0.19472274 -0.25483716 0.50136942
v -0.18054293 -0.27034840 0.50018930
v -0.18427095 -0.26462319 0.50106663
v -0.16110393 -0.28053388 0.50031358
v -0.14159837 -0.29078597 0.50040674
v -0.12861687 -0.29930717 0.49971575
v -0.12195968 -0.30057201 0.50033683
v -0.09166947 -0.31049123 0.50028253
v -0.08494572 -0.31129009 0.50067848
v -0.07495993 -0.31268811 0.50116760
v -0.05898268 -0.31981128 0.49991760
v -0.05232549 -0.32021073 0.50015050
v -0.04493602 -0.32054359 0.50035238
v -0.00499289 -0.32706761 0.49826393
v 0.00499289 -0.32693449 0.49815524
v 0.05498837 -0.32533675 0.49654812
v 0.00499289 -0.33412424 0.49315536
v 0.05498837 -0.33172765 0.49154824
v 0.06497415 -0.33099538 0.49090385
v 0.07129848 -0.33026308 0.49028274
v 0.07476021 -0.32560304 0.49299231
v 0.10571614 -0.31588355 0.49357459
v 0.09499807 -0.31421927 0.49695960
v 0.09839323 -0.30929294 0.49969244
v 0.09166947 -0.31042466 0.50027472
v 0.11496963 -0.30170375 0.50084150
v 0.12169339 -0.30070516 0.50040674
v 0.12502198 -0.29537940 0.50158679
v 0.14146523 -0.29071939 0.50037569
v 0.16130365 -0.28060046 0.50033683
v 0.15497933 -0.27494186 0.50317842
v 0.17495090 -0.26495606 0.50284457
v 0.18493667 -0.25497028 0.50338799
v 0.19498903 -0.24498451 0.50363648
v 0.20497480 -0.23499872 0.50379175
v 0.22494636 -0.22494636 0.50258058
v 0.23499872 -0.20497480 0.50376844
v 0.27494186 -0.15497933 0.50311625
v 0.29258341 -0.13494119 0.50100452
v 0.29557914 -0.12515512 0.50157905
v 0.24498451 -0.19498903 0.50364423
v 0.25497028 -0.18493667 0.50348115
v 0.26495606 -0.17495090 0.50280571
v 0.30057201 -0.12195968 0.50033683
v 0.31049123 -0.09166947 0.50028253
v 0.31129009 -0.08494572 0.50067848
v 0.31268811 -0.07495993 0.50116760
v 0.31981128 -0.05898268 0.49991760
v 0.32021073 -0.05232549 0.50015050
v 0.32054359 -0.04493602 0.50035238
v 0.32673478 -0.01497867 0.49800771
v 0.33425739 -0.00499289 0.49326405
v 0.33938342 -0.00512603 0.48432016
v 0.33911714 0.00432717 0.48432016
v 0.33805197 0.01497867 0.48499560
v 0.30669662 0.11496963 0.49796113
v 0.30443320 0.12502198 0.49708381
v 0.29897431 0.12835057 0.49953717
v 0.33445710 0.05498837 0.48499560
v 0.33285937 0.06497415 0.48499560
v 0.33086222 0.07316249 0.48499560
v 0.31981128 0.10951073 0.48932779
v 0.32061017 0.10285355 0.49060106
v 0.31395298 0.11496963 0.49296126
v 0.28432849 0.16476539 0.49688971
v 0.27866986 0.16796084 0.49938190
v 0.27181298 0.17495090 0.50075608
v 0.27520815 0.16476539 0.50146258
v 0.26449007 0.18427095 0.50099677
v 0.27680585 0.17495090 0.49820182
v 0.28532705 0.17475118 0.49284479
v 0.31075752 0.13174574 0.49063212
v 0.30915979 0.13840292 0.48499560
v 0.29118538 0.17228802 0.47769767
v 0.28086674 0.18127522 0.42467102
v 0.27720529 0.18626811 0.42467102
v 0.27700558 0.18653439 0.42467102
v -0.22527923 0.24618280 0.42467102
v -0.23113756 0.24138962 0.42467102
v -0.24025790 0.24032447 0.47944450
v -0.28073362 0.19106129 0.47858274
v -0.27673930 0.19598760 0.48499560
v -0.28066704 0.19099471 0.48499560
v -0.28406221 0.18493667 0.48499560
v -0.28838935 0.17714776 0.48499560
v -0.29890773 0.15810820 0.48499560
v -0.30949265 0.13893551 0.48499560
v -0.29045311 0.17095658 0.49038368
v -0.27447584 0.19412360 0.49174234
v -0.30256918 0.14499354 0.49183550
v -0.31195581 0.12495541 0.49161813
v -0.31368667 0.11496963 0.49276716
v -0.31581697 0.10551643 0.49348143
v -0.31162295 0.13394262 0.48499560
v -0.31495154 0.12495541 0.48499560
v -0.31974474 0.10917788 0.48862129
v -0.32061017 0.10252069 0.49058554
v -0.30070516 0.15158416 0.49060881
v -0.33046278 0.07196420 0.49046132
v -0.33092880 0.06497415 0.49090385
v -0.33858457 0.01497867 0.48499560
v -0.34004915 0.00193058 0.48053142
v -0.34004915 -0.00053258 0.48053142
v -0.31215551 -0.12495541 0.49169576
v -0.31075752 -0.13174574 0.49063212
v -0.30549833 -0.13500777 0.49313205
v -0.29438084 -0.14486040 0.49703723
v -0.34004915 -0.00053258 0.47988704
v -0.32946423 -0.05498837 0.42467102
v -0.32766679 -0.06497415 0.42467102
v -0.33079565 -0.07289620 0.47824112
v -0.32027730 -0.11110846 0.48265871
v -0.32027730 -0.11110846 0.47928923
v -0.31874615 -0.11463677 0.48559344
v -0.31528440 -0.12495541 0.48499560
v -0.27680585 -0.17495090 0.49820182
v -0.28532705 -0.17475118 0.49284479
v -0.28166562 -0.18493667 0.49120665
v -0.27420956 -0.18427095 0.49618322
v -0.24565022 -0.22554551 0.49366000
v -0.23965876 -0.21955405 0.49987879
v -0.23732874 -0.22494636 0.49863657
v -0.24272107 -0.23300156 0.49163365
v -0.23486558 -0.23486558 0.49488667
v -0.23300156 -0.24245477 0.49147061
v -0.21496059 -0.25510344 0.49289915
v -0.20457537 -0.26475635 0.49234793
v -0.19472274 -0.26462319 0.49714592
v -0.18720011 -0.26768550 0.49885395
v -0.19126099 -0.26102832 0.50044554
v -0.19026242 -0.28013447 0.49015853
v -0.18493667 -0.28159904 0.49115229
v -0.17455146 -0.28512734 0.49261963
v -0.15491275 -0.29537940 0.49302337
v -0.13527405 -0.30563149 0.49334943
v -0.13494119 -0.29757628 0.49865988
v -0.13207860 -0.31075752 0.49069422
v -0.12515512 -0.30430004 0.49712265
v -0.09499807 -0.31428581 0.49695185
v -0.07515965 -0.32573619 0.49327180
v -0.07495993 -0.31768098 0.49873751
v -0.06497415 -0.31907901 0.49959153
v -0.05538780 -0.32413846 0.49701396
v -0.01497867 -0.33392453 0.49300784
v -0.06497415 -0.32493731 0.49550778
v -0.01497867 -0.32673478 0.49800771
v -0.00499289 -0.33425739 0.49326405
v 0.00432717 -0.33911714 0.48432016
v 0.01497867 -0.33805197 0.48499560
v -0.00512603 -0.33938342 0.48432016
v 0.05498837 -0.33445710 0.48499560
v 0.06497415 -0.33285937 0.48499560
v 0.07316249 -0.33086222 0.48499560
v 0.10951073 -0.31981128 0.48932779
v 0.10285355 -0.32061017 0.49060106
v 0.11496963 -0.31395298 0.49296126
v 0.11496963 -0.30669662 0.49796113
v 0.12502198 -0.30443320 0.49708381
v 0.12835057 -0.29897431 0.49953717
v 0.16476539 -0.28432849 0.49688971
v 0.16796084 -0.27866986 0.49938190
v 0.18047635 -0.27034840 0.50020486
v 0.17495090 -0.27181298 0.50075608
v 0.16476539 -0.27520815 0.50146258
v 0.18427095 -0.26449007 0.50099677
v 0.21575946 -0.23579758 0.50192064
v 0.22494636 -0.23233585 0.50071728
v 0.23007241 -0.23007241 0.50005734
v 0.25483716 -0.19472274 0.50136942
v 0.27034840 -0.18054293 0.50018930
v 0.29078597 -0.14159837 0.50040674
v 0.29930717 -0.12861687 0.49971575
v 0.28053388 -0.16110393 0.50031358
v 0.26462319 -0.18427095 0.50106663
v 0.30430004 -0.12515512 0.49712265
v 0.31428581 -0.09499807 0.49695185
v 0.32573619 -0.07515965 0.49327180
v 0.31768098 -0.07495993 0.49873751
v 0.31907901 -0.06497415 0.49959153
v 0.32493731 -0.06497415 0.49550778
v 0.32413846 -0.05538780 0.49701396
v 0.33392453 -0.01497867 0.49300784
v 0.33858457 -0.01497867 0.48499560
v 0.34004915 -0.00193058 0.48053142
v 0.34004915 0.00053258 0.48053142
v 0.31215551 0.12495541 0.49169576
v 0.30549833 0.13500777 0.49313205
v 0.29438084 0.14486040 0.49703723
v 0.34004915 0.00053258 0.47988704
v 0.32946423 0.05498837 0.42467102
v 0.32766679 0.06497415 0.42467102
v 0.33079565 0.07289620 0.47824112
v 0.32027730 0.11110846 0.47928923
v 0.32027730 0.11110846 0.48265871
v 0.31874615 0.11463677 0.48559344
v 0.31528440 0.12495541 0.48499560
v 0.30236948 0.14499354 0.49170351
v 0.31162295 0.13341004 0.48499560
v 0.31142324 0.13274433 0.47723183
v 0.30123773 0.14239724 0.42467102
v 0.29471371 0.15497933 0.42467102
v 0.29105225 0.16203594 0.42467102
v 0.28832281 0.16729513 0.42467102
v 0.28432849 0.17495090 0.42467102
v -0.23133726 0.24118991 0.42467102
v -0.23633017 0.23593073 0.42467102
v -0.24065733 0.23113756 0.42467102
v -0.25923088 0.20910226 0.42467102
v -0.26841781 0.19811790 0.42467102
v -0.27254525 0.19312501 0.42467102
v -0.27753815 0.18586868 0.42467102
v -0.28040075 0.18107550 0.42467102
v -0.28825623 0.16682912 0.42467102
v -0.29478025 0.15497933 0.42467102
v -0.30150402 0.14273010 0.42467102
v -0.29105225 0.17195515 0.47794610
v -0.30563149 0.13467491 0.42467102
v -0.31142324 0.13314375 0.47709984
v -0.30549833 0.13494119 0.42467102
v -0.32021073 0.11064246 0.47952214
v -0.32021073 0.11064246 0.48195997
v -0.32953078 0.07868796 0.48729369
v -0.33092880 0.07515965 0.48437452
v -0.33279282 0.06497415 0.48499560
v -0.34004915 0.00193058 0.47988704
v -0.31162295 -0.13341004 0.48499560
v -0.30915979 -0.13840292 0.48499560
v -0.29051965 -0.17122287 0.49046907
v -0.30236948 -0.14499354 0.49170351
v -0.33405769 0.00466003 0.42467102
v -0.33372483 -0.00532575 0.42467102
v -0.33292595 -0.01497867 0.42467102
v -0.32993022 -0.04972919 0.42467102
v -0.32760021 -0.06530701 0.42467102
v -0.32027730 -0.09100375 0.42467102
v -0.31328726 -0.11523592 0.42467102
v -0.31095722 -0.12235911 0.42467102
v -0.32480419 -0.07529279 0.42467102
v -0.31142324 -0.13274433 0.47723183
v -0.28006789 -0.19006270 0.49005759
v -0.25197455 -0.22254978 0.49124545
v -0.23965876 -0.23965876 0.48887751
v -0.20098050 -0.27081439 0.49056223
v -0.19412360 -0.27447584 0.49174234
v -0.20211221 -0.27174640 0.48499560
v -0.19598760 -0.27673930 0.48499560
v -0.19099471 -0.28066704 0.48499560
v -0.18493667 -0.28406221 0.48499560
v -0.17714776 -0.28838935 0.48499560
v -0.15810820 -0.29890773 0.48499560
v -0.13893551 -0.30949265 0.48499560
v -0.17095658 -0.29045311 0.49038368
v -0.14499354 -0.30256918 0.49183550
v -0.13394262 -0.31162295 0.48499560
v -0.12495541 -0.31495154 0.48499560
v -0.10917788 -0.31974474 0.48862129
v -0.10252069 -0.32061017 0.49058554
v -0.12495541 -0.31195581 0.49161813
v -0.15158416 -0.30070516 0.49060881
v -0.11496963 -0.31368667 0.49276716
v -0.10551643 -0.31581697 0.49348143
v -0.07196420 -0.33046278 0.49046132
v -0.06497415 -0.33092880 0.49090385
v -0.01497867 -0.33858457 0.48499560
v 0.00053258 -0.34004915 0.48053142
v -0.00193058 -0.34004915 0.48053142
v 0.05498837 -0.32946423 0.42467102
v 0.00053258 -0.34004915 0.47988704
v 0.06464129 -0.32773334 0.42467102
v 0.07289620 -0.33079565 0.47824112
v 0.11110846 -0.32027730 0.48265871
v 0.11110846 -0.32027730 0.47928923
v 0.11463677 -0.31874615 0.48559344
v 0.12495541 -0.31528440 0.48499560
v 0.13174574 -0.31075752 0.49063212
v 0.12495541 -0.31215551 0.49169576
v 0.13500777 -0.30549833 0.49313205
v 0.14486040 -0.29438084 0.49703723
v 0.17475118 -0.28532705 0.49284479
v 0.17495090 -0.27680585 0.49820182
v 0.18493667 -0.28166562 0.49120665
v 0.18427095 -0.27420956 0.49618322
v 0.22554551 -0.24565022 0.49366000
v 0.21955405 -0.23965876 0.49987879
v 0.26102832 -0.19126099 0.50044554
v 0.22494636 -0.23732874 0.49863657
v 0.23300156 -0.24272107 0.49163365
v 0.23486558 -0.23486558 0.49488667
v 0.24245477 -0.23300156 0.49147061
v 0.25510344 -0.21496059 0.49289915
v 0.26475635 -0.20457537 0.49234793
v 0.26462319 -0.19472274 0.49714592
v 0.26768550 -0.18720011 0.49885395
v 0.28013447 -0.19026242 0.49015853
v 0.28159904 -0.18493667 0.49115229
v 0.28512734 -0.17455146 0.49261963
v 0.29537940 -0.15491275 0.49302337
v 0.30563149 -0.13527405 0.49334943
v 0.29757628 -0.13494119 0.49865988
v 0.31075752 -0.13207860 0.49069422
v 0.31195581 -0.12495541 0.49161813
v 0.31368667 -0.11496963 0.49276716
v 0.31581697 -0.10551643 0.49348143
v 0.33046278 -0.07196420 0.49046132
v 0.32061017 -0.10252069 0.49058554
v 0.33092880 -0.06497415 0.49090385
v 0.34004915 -0.00193058 0.47988704
v 0.33279282 -0.06497415 0.48499560
v 0.33405769 -0.00466003 0.42467102
v 0.33379138 0.00499289 0.42467102
v 0.33292595 0.01531153 0.42467102
v 0.33206052 0.02529731 0.42467102
v 0.32993022 0.04972919 0.42467102
v 0.32760021 0.06530701 0.42467102
v 0.32220787 0.08521200 0.42467102
v 0.32047701 0.09133662 0.42467102
v 0.31328726 0.11523592 0.42467102
v 0.31095722 0.12235911 0.42467102
v 0.30882692 0.12735200 0.42467102
v 0.30489919 0.13520747 0.42467102
v -0.30896008 0.12695257 0.42467102
v -0.31069094 0.12175996 0.42467102
v -0.32999679 0.08015254 0.47986376
v -0.32999679 0.08015254 0.48062462
v -0.33079565 0.07495993 0.47821006
v -0.32773334 0.06464129 0.42467102
v -0.33339196 0.01464581 0.42467102
v -0.33405769 0.00499289 0.42467102
v -0.32893163 0.05472208 0.42467102
v -0.32973051 0.04766546 0.42467102
v -0.33119509 0.03461738 0.42467102
v -0.33226022 0.02496445 0.42467102
v -0.28872222 -0.17768034 0.48499560
v -0.29118538 -0.17228802 0.47769767
v -0.30882692 -0.12735200 0.42467102
v -0.30489919 -0.13520747 0.42467102
v -0.30123773 -0.14239724 0.42467102
v -0.28432849 -0.18493667 0.48499560
v -0.28053388 -0.19066185 0.48499560
v -0.24937825 -0.22927354 0.48675022
v -0.24485137 -0.23486558 0.48448321
v -0.24032447 -0.24025790 0.48220840
v -0.23579758 -0.24351992 0.48532170
v -0.19106129 -0.28073362 0.47858274
v -0.24032447 -0.24025790 0.47944450
v -0.17195515 -0.29105225 0.47794610
v -0.14273010 -0.30150402 0.42467102
v -0.13520747 -0.30536520 0.42467102
v -0.13494119 -0.30549833 0.42467102
v -0.13314375 -0.31142324 0.47709984
v -0.11064246 -0.32021073 0.47952214
v -0.11064246 -0.32021073 0.48195997
v -0.07868796 -0.32953078 0.48729369
v -0.07515965 -0.33092880 0.48437452
v -0.06497415 -0.33279282 0.48499560
v -0.00193058 -0.34004915 0.47988704
v 0.04427030 -0.33039623 0.42467102
v 0.00466003 -0.33379138 0.42467102
v 0.01497867 -0.33292595 0.42467102
v -0.00499289 -0.33405769 0.42467102
v 0.06497415 -0.32766679 0.42467102
v 0.07462707 -0.32500389 0.42467102
v 0.11496963 -0.31335381 0.42467102
v 0.12235911 -0.31095722 0.42467102
v 0.08461285 -0.32214132 0.42467102
v 0.13274433 -0.31142324 0.47723183
v 0.13341004 -0.31162295 0.48499560
v 0.13840292 -0.30915979 0.48499560
v 0.17122287 -0.29051965 0.49046907
v 0.14499354 -0.30236948 0.49170351
v 0.19006270 -0.28006789 0.49005759
v 0.22254978 -0.25197455 0.49124545
v 0.23965876 -0.23965876 0.48887751
v 0.27081439 -0.20098050 0.49056223
v 0.27447584 -0.19412360 0.49174234
v 0.27174640 -0.20211221 0.48499560
v 0.27673930 -0.19598760 0.48499560
v 0.28066704 -0.19099471 0.48499560
v 0.28406221 -0.18493667 0.48499560
v 0.28838935 -0.17714776 0.48499560
v 0.29890773 -0.15810820 0.48499560
v 0.30949265 -0.13893551 0.48499560
v 0.29045311 -0.17095658 0.49038368
v 0.30256918 -0.14499354 0.49183550
v 0.30070516 -0.15158416 0.49060881
v 0.31162295 -0.13394262 0.48499560
v 0.31495154 -0.12495541 0.48499560
v 0.31974474 -0.10917788 0.48862129
v 0.32953078 -0.07868796 0.48729369
v 0.33092880 -0.07515965 0.48437452
v 0.33339196 -0.01464581 0.42467102
v 0.33405769 -0.00499289 0.42467102
v 0.32773334 -0.06464129 0.42467102
v 0.32893163 -0.05472208 0.42467102
v 0.32973051 -0.04766546 0.42467102
v 0.33119509 -0.03461738 0.42467102
v 0.33226022 -0.02496445 0.42467102
v 0.32999679 -0.08015254 0.47986376
v 0.33079565 -0.07495993 0.47821006
v -0.32034388 0.09140319 0.42467102
v -0.32546991 0.07495993 0.42467102
v -0.32766679 0.06497415 0.42467102
v -0.32247418 0.08461285 0.42467102
v -0.28066704 -0.19079500 0.47886223
v -0.29471371 -0.15497933 0.42467102
v -0.29105225 -0.16203594 0.42467102
v -0.28832281 -0.16729513 0.42467102
v -0.28432849 -0.17495090 0.42467102
v -0.28086674 -0.18127522 0.42467102
v -0.24997739 -0.23000583 0.48008114
v -0.19831762 -0.26828465 0.42467102
v -0.19312501 -0.27254525 0.42467102
v -0.18586868 -0.27753815 0.42467102
v -0.18087579 -0.28046730 0.42467102
v -0.16682912 -0.28825623 0.42467102
v -0.15497933 -0.29478025 0.42467102
v -0.14758985 -0.29884115 0.42467102
v -0.24997739 -0.23000583 0.47998020
v -0.24118991 -0.23133726 0.42467102
v -0.23579758 -0.23646331 0.42467102
v -0.23093784 -0.24079047 0.42467102
v -0.22521266 -0.24565022 0.42467102
v -0.20910226 -0.25923088 0.42467102
v -0.12681942 -0.30902666 0.42467102
v -0.12195968 -0.31062436 0.42467102
v -0.08015254 -0.32999679 0.47986376
v -0.08015254 -0.32999679 0.48062462
v -0.07495993 -0.33079565 0.47821006
v -0.06497415 -0.32766679 0.42467102
v -0.05532123 -0.32886508 0.42467102
v -0.04766546 -0.32973051 0.42467102
v -0.03521652 -0.33112851 0.42467102
v -0.02496445 -0.33226022 0.42467102
v -0.01531153 -0.33332539 0.42467102
v 0.12735200 -0.30882692 0.42467102
v 0.13474147 -0.30516547 0.42467102
v 0.17228802 -0.29118538 0.47769767
v 0.17768034 -0.28872222 0.48499560
v 0.18493667 -0.28432849 0.48499560
v 0.19066185 -0.28053388 0.48499560
v 0.22927354 -0.24937825 0.48675022
v 0.23486558 -0.24485137 0.48448321
v 0.24025790 -0.24032447 0.48220840
v 0.24351992 -0.23579758 0.48532170
v 0.28073362 -0.19106129 0.47858274
v 0.24025790 -0.24032447 0.47944450
v 0.31142324 -0.13314375 0.47709984
v 0.29105225 -0.17195515 0.47794610
v 0.30150402 -0.14279668 0.42467102
v 0.30549833 -0.13494119 0.42467102
v 0.32021073 -0.11064246 0.47952214
v 0.32021073 -0.11064246 0.48195997
v 0.32999679 -0.08015254 0.48062462
v 0.32766679 -0.06497415 0.42467102
v 0.32546991 -0.07495993 0.42467102
v 0.31069094 -0.12175996 0.42467102
v 0.32034388 -0.09140319 0.42467102
v 0.32247418 -0.08461285 0.42467102
v -0.27720529 -0.18626811 0.42467102
v -0.27700558 -0.18653439 0.42467102
v -0.27221242 -0.19272558 0.42467102
v -0.24604966 -0.22547895 0.42467102
v -0.26835123 -0.19758533 0.42467102
v -0.11523592 -0.31275466 0.42467102
v -0.08494572 -0.32234102 0.42467102
v -0.07495993 -0.32546991 0.42467102
v -0.06530701 -0.32760021 0.42467102
v 0.14239724 -0.30123773 0.42467102
v 0.15497933 -0.29471371 0.42467102
v 0.16203594 -0.29105225 0.42467102
v 0.16702884 -0.28845593 0.42467102
v 0.17495090 -0.28432849 0.42467102
v 0.18107550 -0.28099990 0.42467102
v 0.19079500 -0.28066704 0.47886223
v 0.23000583 -0.24997739 0.48008114
v 0.27254525 -0.19312501 0.42467102
v 0.27753815 -0.18586868 0.42467102
v 0.28040075 -0.18107550 0.42467102
v 0.29118538 -0.16156994 0.42467102
v 0.23000583 -0.24997739 0.47998020
v 0.23113756 -0.24138962 0.42467102
v 0.23133726 -0.24118991 0.42467102
v 0.23633017 -0.23593073 0.42467102
v 0.24065733 -0.23113756 0.42467102
v 0.25923088 -0.20910226 0.42467102
v 0.26841781 -0.19811790 0.42467102
v 0.30896008 -0.12695257 0.42467102
v 0.18147494 -0.28073362 0.42467102
v 0.18626811 -0.27720529 0.42467102
v 0.19292530 -0.27207926 0.42467102
v 0.22527923 -0.24618280 0.42467102
f 1 2 3
f 1 3 4
f 1 4 19
f 1 19 5
f 1 5 2
f 2 5 6
f 2 6 7
f 2 7 8
f 2 8 3
f 3 8 9
f 3 9 10
f 3 10 11
f 3 11 12
f 3 12 4
f 4 12 13
f 4 13 14
f 4 14 15
f 4 15 16
f 4 16 17
f 4 17 18
f 4 18 19
f 5 19 20
f 5 20 6
f 6 20 21
f 6 21 7
f 7 21 22
f 7 22 23
f 7 23 24
f 7 24 25
f 7 25 26
f 7 26 8
f 8 26 27
f 8 27 9
f 9 27 28
f 9 28 29
f 9 29 30
f 9 30 10
f 10 30 31
f 10 31 11
f 11 32 33
f 11 33 12
f 11 31 34
f 11 34 35
f 11 35 36
f 11 36 32
f 12 33 37
f 12 37 38
f 12 38 39
f 12 39 13
f 13 39 73
f 13 73 72
f 13 72 71
f 13 71 76
f 13 76 75
f 13 75 110
f 13 110 149
f 13 149 148
f 13 148 147
f 13 147 221
f 13 221 220
f 13 220 219
f 13 219 218
f 13 218 217
f 13 217 216
f 13 216 215
f 13 215 322
f 13 322 321
f 13 321 320
f 13 320 319
f 13 319 318
f 13 318 451
f 13 451 454
f 13 454 453
f 13 453 588
f 13 588 587
f 13 587 586
f 13 586 715
f 13 715 714
f 13 714 713
f 13 713 712
f 13 712 711
f 13 711 831
f 13 831 830
f 13 830 829
f 13 829 828
f 13 828 827
f 13 827 826
f 13 826 825
f 13 825 702
f 13 702 701
f 13 701 824
f 13 824 823
f 13 823 822
f 13 822 821
f 13 821 820
f 13 820 903
f 13 903 902
f 13 902 908
f 13 908 907
f 13 907 906
f 13 906 905
f 13 905 904
f 13 904 965
f 13 965 966
f 13 966 969
f 13 969 968
f 13 968 967
f 13 967 998
f 13 998 961
f 13 961 960
f 13 960 990
f 13 990 989
f 13 989 988
f 13 988 987
f 13 987 997
f 13 997 996
f 13 996 995
f 13 995 994
f 13 994 993
f 13 993 992
f 13 992 1002
f 13 1002 1001
f 13 1001 1000
f 13 1000 999
f 13 999 984
f 13 984 983
f 13 983 982
f 13 982 981
f 13 981 980
f 13 980 979
f 13 979 947
f 13 947 946
f 13 946 875
f 13 875 874
f 13 874 876
f 13 876 873
f 13 873 872
f 13 872 780
f 13 780 778
f 13 778 868
f 13 868 870
f 13 870 869
f 13 869 871
f 13 871 945
f 13 945 944
f 13 944 943
f 13 943 942
f 13 942 941
f 13 941 940
f 13 940 978
f 13 978 977
f 13 977 976
f 13 976 975
f 13 975 936
f 13 936 935
f 13 935 860
f 13 860 859
f 13 859 858
f 13 858 928
f 13 928 927
f 13 927 926
f 13 926 925
f 13 925 924
f 13 924 923
f 13 923 922
f 13 922 934
f 13 934 933
f 13 933 932
f 13 932 931
f 13 931 930
f 13 930 973
f 13 973 974
f 13 974 972
f 13 972 971
f 13 971 970
f 13 970 920
f 13 920 919
f 13 919 918
f 13 918 917
f 13 917 916
f 13 916 848
f 13 848 847
f 13 847 846
f 13 846 748
f 13 748 747
f 13 747 746
f 13 746 749
f 13 749 745
f 13 745 621
f 13 621 620
f 13 620 744
f 13 744 743
f 13 743 742
f 13 742 741
f 13 741 839
f 13 839 838
f 13 838 843
f 13 843 842
f 13 842 841
f 13 841 840
f 13 840 837
f 13 837 913
f 13 913 912
f 13 912 914
f 13 914 911
f 13 911 833
f 13 833 832
f 13 832 728
f 13 728 730
f 13 730 726
f 13 726 725
f 13 725 724
f 13 724 723
f 13 723 722
f 13 722 721
f 13 721 720
f 13 720 719
f 13 719 718
f 13 718 717
f 13 717 716
f 13 716 590
f 13 590 589
f 13 589 457
f 13 457 456
f 13 456 455
f 13 455 328
f 13 328 327
f 13 327 326
f 13 326 325
f 13 325 324
f 13 324 323
f 13 323 223
f 13 223 222
f 13 222 152
f 13 152 151
f 13 151 150
f 13 150 112
f 13 112 111
f 13 111 77
f 13 77 43
f 13 43 42
f 13 42 41
f 13 41 40
f 13 40 18
f 13 18 17
f 13 17 16
f 13 16 15
f 13 15 14
f 18 40 19
f 19 40 41
f 19 41 42
f 19 42 43
f 19 43 20
f 20 43 44
f 20 44 45
f 20 45 46
f 20 46 22
f 20 22 21
f 22 46 47
f 22 47 23
f 23 47 24
f 24 47 48
f 24 48 49
f 24 49 50
f 24 50 25
f 25 50 51
f 25 51 26
f 26 52 53
f 26 53 54
f 26 54 55
f 26 55 27
f 26 51 52
f 27 55 28
f 28 55 56
f 28 56 57
f 28 57 29
f 29 57 58
f 29 58 59
f 29 59 60
f 29 60 31
f 29 31 30
f 31 60 34
f 32 61 33
f 32 36 62
f 32 62 61
f 33 61 37
f 34 60 63
f 34 63 64
f 34 64 65
f 34 65 66
f 34 66 35
f 35 66 67
f 35 67 68
f 35 68 69
f 35 69 36
f 36 69 70
f 36 70 62
f 37 71 72
f 37 72 73
f 37 73 39
f 37 39 38
f 37 61 62
f 37 62 74
f 37 74 75
f 37 75 76
f 37 76 71
f 43 77 44
f 44 77 78
f 44 78 79
f 44 79 45
f 45 80 47
f 45 47 46
f 45 79 81
f 45 81 82
f 45 82 83
f 45 83 80
f 47 84 85
f 47 85 48
f 47 80 83
f 47 83 86
f 47 86 87
f 47 87 88
f 47 88 84
f 48 85 49
f 49 89 50
f 49 85 90
f 49 90 89
f 50 89 91
f 50 91 92
f 50 92 51
f 51 92 52
f 52 93 94
f 52 94 53
f 52 92 93
f 53 94 54
f 54 94 95
f 54 95 55
f 55 95 96
f 55 96 56
f 56 97 57
f 56 96 97
f 57 97 58
f 58 97 98
f 58 98 59
f 59 98 99
f 59 99 60
f 60 99 64
f 60 64 63
f 62 70 74
f 64 100 101
f 64 101 102
f 64 102 65
f 64 99 98
f 64 98 100
f 65 102 66
f 66 102 67
f 67 102 68
f 68 102 69
f 69 103 70
f 69 102 104
f 69 104 105
f 69 105 106
f 69 106 107
f 69 107 108
f 69 108 103
f 70 103 74
f 74 103 109
f 74 109 110
f 74 110 75
f 77 111 78
f 78 111 112
f 78 112 113
f 78 113 79
f 79 113 114
f 79 114 81
f 81 114 115
f 81 115 116
f 81 116 117
f 81 117 118
f 81 118 82
f 82 118 119
f 82 119 83
f 83 119 87
f 83 87 86
f 84 88 120
f 84 120 85
f 85 120 121
f 85 121 90
f 87 119 122
f 87 122 123
f 87 123 88
f 88 123 124
f 88 124 120
f 89 90 91
f 90 92 91
f 90 121 125
f 90 125 126
f 90 126 127
f 90 127 128
f 90 128 129
f 90 129 184
f 90 184 130
f 90 130 131
f 90 131 93
f 90 93 92
f 93 131 94
f 94 131 97
f 94 97 95
f 95 97 96
f 97 131 132
f 97 132 100
f 97 100 98
f 100 132 133
f 100 133 134
f 100 134 101
f 101 134 104
f 101 104 102
f 103 108 109
f 104 134 135
f 104 135 136
f 104 136 137
f 104 137 138
f 104 138 139
f 104 139 105
f 105 139 138
f 105 138 140
f 105 140 141
f 105 141 106
f 106 141 142
f 106 142 107
f 107 142 108
f 108 142 143
f 108 143 144
f 108 144 145
f 108 145 146
f 108 146 147
f 108 147 148
f 108 148 149
f 108 149 109
f 109 149 110
f 112 150 113
f 113 151 152
f 113 152 116
f 113 116 114
f 113 150 151
f 114 116 115
f 116 152 153
f 116 153 154
f 116 154 117
f 117 155 118
f 117 154 156
f 117 156 157
f 117 157 158
f 117 158 159
f 117 159 160
f 117 160 155
f 118 155 119
f 119 155 122
f 120 124 123
f 120 123 161
f 120 161 162
f 120 162 121
f 121 162 125
f 122 155 123
f 123 155 163
f 123 163 164
f 123 164 161
f 125 162 126
f 126 162 165
f 126 165 166
f 126 166 127
f 127 167 168
f 127 168 128
f 127 166 169
f 127 169 167
f 128 168 170
f 128 170 171
f 128 171 172
f 128 172 173
f 128 173 129
f 129 173 174
f 129 174 175
f 129 175 176
f 129 176 177
f 129 177 178
f 129 178 179
f 129 179 180
f 129 180 181
f 129 181 182
f 129 182 183
f 129 183 184
f 130 185 186
f 130 186 187
f 130 187 188
f 130 188 189
f 130 189 190
f 130 190 191
f 130 191 192
f 130 192 193
f 130 193 194
f 130 194 195
f 130 195 131
f 130 184 185
f 131 195 196
f 131 196 132
f 132 196 133
f 133 195 197
f 133 197 198
f 133 198 135
f 133 135 134
f 133 196 195
f 135 198 138
f 135 138 137
f 135 137 136
f 138 199 200
f 138 200 201
f 138 201 202
f 138 202 203
f 138 203 143
f 138 143 204
f 138 204 205
f 138 205 141
f 138 141 140
f 138 198 199
f 141 205 204
f 141 204 142
f 142 204 143
f 143 206 207
f 143 207 208
f 143 208 209
f 143 209 210
f 143 210 144
f 143 203 211
f 143 211 212
f 143 212 213
f 143 213 206
f 144 210 145
f 145 210 209
f 145 209 208
f 145 208 207
f 145 207 206
f 145 206 214
f 145 214 215
f 145 215 216
f 145 216 217
f 145 217 218
f 145 218 219
f 145 219 220
f 145 220 221
f 145 221 147
f 145 147 146
f 152 222 153
f 153 222 223
f 153 223 224
f 153 224 156
f 153 156 154
f 155 160 163
f 156 224 225
f 156 225 157
f 157 225 226
f 157 226 227
f 157 227 158
f 158 228 229
f 158 229 160
f 158 160 159
f 158 227 230
f 158 230 228
f 160 229 231
f 160 231 163
f 161 164 162
f 162 164 232
f 162 232 233
f 162 233 165
f 163 231 229
f 163 229 232
f 163 232 164
f 165 233 234
f 165 234 235
f 165 235 236
f 165 236 237
f 165 237 166
f 166 237 238
f 166 238 239
f 166 239 169
f 167 169 240
f 167 240 241
f 167 241 242
f 167 242 243
f 167 243 170
f 167 170 168
f 169 239 244
f 169 244 245
f 169 245 246
f 169 246 240
f 170 243 171
f 171 243 247
f 171 247 248
f 171 248 249
f 171 249 250
f 171 250 251
f 171 251 252
f 171 252 172
f 172 252 253
f 172 253 254
f 172 254 255
f 172 255 173
f 173 255 174
f 174 255 256
f 174 256 257
f 174 257 175
f 175 257 176
f 176 257 177
f 177 257 258
f 177 258 259
f 177 259 178
f 178 260 261
f 178 261 179
f 178 259 262
f 178 262 260
f 179 261 263
f 179 263 180
f 180 263 181
f 181 263 264
f 181 264 265
f 181 265 182
f 182 266 267
f 182 267 268
f 182 268 183
f 182 265 266
f 183 268 269
f 183 269 270
f 183 270 271
f 183 271 272
f 183 272 184
f 184 273 274
f 184 274 275
f 184 275 276
f 184 276 277
f 184 277 278
f 184 278 279
f 184 279 280
f 184 280 281
f 184 281 185
f 184 272 273
f 185 281 282
f 185 282 283
f 185 283 284
f 185 284 285
f 185 285 186
f 186 285 286
f 186 286 187
f 187 286 287
f 187 287 288
f 187 288 188
f 188 288 189
f 189 288 190
f 190 288 289
f 190 289 290
f 190 290 191
f 191 291 292
f 191 292 192
f 191 290 293
f 191 293 291
f 192 292 294
f 192 294 193
f 193 294 194
f 194 294 295
f 194 295 296
f 194 296 195
f 195 296 197
f 197 296 297
f 197 297 298
f 197 298 299
f 197 299 199
f 197 199 198
f 199 299 200
f 200 299 300
f 200 300 201
f 201 300 202
f 202 301 302
f 202 302 303
f 202 303 304
f 202 304 305
f 202 305 306
f 202 306 307
f 202 307 308
f 202 308 309
f 202 309 310
f 202 310 203
f 202 300 301
f 203 310 211
f 206 213 311
f 206 311 312
f 206 312 214
f 211 310 309
f 211 309 212
f 212 309 307
f 212 307 213
f 213 313 314
f 213 314 312
f 213 312 311
f 213 307 305
f 213 305 315
f 213 315 316
f 213 316 313
f 214 312 444
f 214 444 317
f 214 317 318
f 214 318 319
f 214 319 320
f 214 320 321
f 214 321 322
f 214 322 215
f 223 323 224
f 224 323 324
f 224 324 325
f 224 325 326
f 224 326 327
f 224 327 328
f 224 328 329
f 224 329 225
f 225 329 330
f 225 330 226
f 226 331 227
f 226 330 332
f 226 332 333
f 226 333 334
f 226 334 335
f 226 335 336
f 226 336 331
f 227 331 230
f 228 337 229
f 228 230 337
f 229 337 232
f 230 331 336
f 230 336 338
f 230 338 339
f 230 339 340
f 230 340 234
f 230 234 341
f 230 341 232
f 230 232 337
f 232 341 342
f 232 342 233
f 233 342 234
f 234 342 341
f 234 340 235
f 235 340 339
f 235 339 238
f 235 238 236
f 236 238 237
f 238 343 344
f 238 344 345
f 238 345 245
f 238 245 244
f 238 244 239
f 238 339 343
f 240 346 241
f 240 246 346
f 241 347 348
f 241 348 242
f 241 346 349
f 241 349 347
f 242 348 350
f 242 350 243
f 243 350 351
f 243 351 247
f 245 345 352
f 245 352 246
f 246 352 346
f 247 351 353
f 247 353 354
f 247 354 248
f 248 354 355
f 248 355 249
f 249 355 356
f 249 356 250
f 250 356 357
f 250 357 251
f 251 357 252
f 252 357 253
f 253 357 358
f 253 358 254
f 254 358 255
f 255 358 256
f 256 358 359
f 256 359 257
f 257 359 258
f 258 262 259
f 258 359 360
f 258 360 361
f 258 361 262
f 260 262 362
f 260 362 261
f 261 362 363
f 261 363 364
f 261 364 365
f 261 365 263
f 262 361 366
f 262 366 367
f 262 367 368
f 262 368 369
f 262 369 370
f 262 370 371
f 262 371 372
f 262 372 362
f 263 365 373
f 263 373 374
f 263 374 375
f 263 375 264
f 264 375 376
f 264 376 377
f 264 377 378
f 264 378 379
f 264 379 265
f 265 379 380
f 265 380 381
f 265 381 266
f 266 382 267
f 266 381 383
f 266 383 384
f 266 384 385
f 266 385 382
f 267 382 386
f 267 386 387
f 267 387 388
f 267 388 269
f 267 269 268
f 269 388 270
f 270 389 390
f 270 390 391
f 270 391 392
f 270 392 393
f 270 393 394
f 270 394 271
f 270 388 389
f 271 394 395
f 271 395 396
f 271 396 397
f 271 397 272
f 272 397 273
f 273 398 399
f 273 399 274
f 273 397 398
f 274 399 275
f 275 399 276
f 276 399 400
f 276 400 401
f 276 401 277
f 277 401 402
f 277 402 403
f 277 403 404
f 277 404 278
f 278 404 405
f 278 405 279
f 279 405 280
f 280 405 406
f 280 406 407
f 280 407 281
f 281 408 282
f 281 407 409
f 281 409 408
f 282 408 283
f 283 410 284
f 283 408 410
f 284 410 411
f 284 411 412
f 284 412 413
f 284 413 414
f 284 414 415
f 284 415 416
f 284 416 285
f 285 416 417
f 285 417 418
f 285 418 286
f 286 418 419
f 286 419 287
f 287 419 420
f 287 420 288
f 288 420 289
f 289 293 290
f 289 420 421
f 289 421 422
f 289 422 293
f 291 293 423
f 291 423 292
f 292 423 424
f 292 424 425
f 292 425 426
f 292 426 294
f 293 422 427
f 293 427 428
f 293 428 429
f 293 429 430
f 293 430 431
f 293 431 432
f 293 432 433
f 293 433 423
f 294 434 435
f 294 435 295
f 294 426 436
f 294 436 434
f 295 435 437
f 295 437 438
f 295 438 439
f 295 439 440
f 295 440 296
f 296 440 301
f 296 301 297
f 297 301 298
f 298 301 299
f 299 301 300
f 301 440 439
f 301 439 438
f 301 438 441
f 301 441 302
f 302 441 303
f 303 442 304
f 303 441 443
f 303 443 442
f 304 442 305
f 305 307 306
f 305 442 315
f 307 309 308
f 312 314 444
f 313 444 314
f 313 316 445
f 313 445 444
f 315 442 316
f 316 446 447
f 316 447 448
f 316 448 449
f 316 449 450
f 316 450 445
f 316 442 446
f 317 451 318
f 317 444 452
f 317 452 453
f 317 453 454
f 317 454 451
f 328 455 329
f 329 332 330
f 329 455 456
f 329 456 457
f 329 457 458
f 329 458 459
f 329 459 332
f 332 459 333
f 333 459 460
f 333 460 334
f 334 461 462
f 334 462 335
f 334 460 463
f 334 463 464
f 334 464 465
f 334 465 466
f 334 466 467
f 334 467 461
f 335 462 336
f 336 462 468
f 336 468 338
f 338 468 344
f 338 344 343
f 338 343 339
f 344 469 345
f 344 468 462
f 344 462 470
f 344 470 461
f 344 461 471
f 344 471 472
f 344 472 473
f 344 473 474
f 344 474 346
f 344 346 469
f 345 469 352
f 346 474 466
f 346 466 475
f 346 475 476
f 346 476 477
f 346 477 478
f 346 478 479
f 346 479 348
f 346 348 349
f 346 352 469
f 347 349 348
f 348 480 350
f 348 479 478
f 348 478 481
f 348 481 480
f 350 480 351
f 351 482 483
f 351 483 484
f 351 484 485
f 351 485 353
f 351 480 482
f 353 485 354
f 354 485 355
f 355 485 486
f 355 486 487
f 355 487 488
f 355 488 356
f 356 488 489
f 356 489 357
f 357 489 358
f 358 489 488
f 358 488 490
f 358 490 360
f 358 360 359
f 360 490 491
f 360 491 492
f 360 492 493
f 360 493 366
f 360 366 361
f 362 372 364
f 362 364 363
f 364 372 494
f 364 494 495
f 364 495 496
f 364 496 373
f 364 373 365
f 366 493 497
f 366 497 367
f 367 497 368
f 368 497 498
f 368 498 499
f 368 499 500
f 368 500 501
f 368 501 370
f 368 370 369
f 370 501 502
f 370 502 372
f 370 372 371
f 372 502 494
f 373 496 374
f 374 503 504
f 374 504 505
f 374 505 506
f 374 506 507
f 374 507 375
f 374 496 503
f 375 507 376
f 376 507 506
f 376 506 505
f 376 505 508
f 376 508 377
f 377 508 509
f 377 509 380
f 377 380 378
f 378 380 379
f 380 509 510
f 380 510 511
f 380 511 512
f 380 512 384
f 380 384 383
f 380 383 381
f 382 385 513
f 382 513 386
f 384 512 514
f 384 514 385
f 385 514 513
f 386 513 515
f 386 515 516
f 386 516 517
f 386 517 387
f 387 517 518
f 387 518 388
f 388 518 519
f 388 519 389
f 389 520 521
f 389 521 390
f 389 519 520
f 390 521 522
f 390 522 391
f 391 522 523
f 391 523 392
f 392 523 524
f 392 524 393
f 393 524 394
f 394 524 395
f 395 525 396
f 395 524 525
f 396 525 397
f 397 525 398
f 398 526 399
f 398 525 526
f 399 526 400
f 400 527 402
f 400 402 401
f 400 526 528
f 400 528 527
f 402 527 529
f 402 529 530
f 402 530 531
f 402 531 532
f 402 532 533
f 402 533 534
f 402 534 535
f 402 535 536
f 402 536 403
f 403 536 404
f 404 536 537
f 404 537 538
f 404 538 539
f 404 539 405
f 405 539 540
f 405 540 541
f 405 541 542
f 405 542 406
f 406 542 543
f 406 543 544
f 406 544 545
f 406 545 546
f 406 546 407
f 407 546 547
f 407 547 548
f 407 548 409
f 408 409 549
f 408 549 550
f 408 550 551
f 408 551 410
f 409 548 552
f 409 552 553
f 409 553 554
f 409 554 549
f 410 551 555
f 410 555 556
f 410 556 411
f 411 556 557
f 411 557 558
f 411 558 412
f 412 558 559
f 412 559 413
f 413 559 560
f 413 560 414
f 414 560 561
f 414 561 415
f 415 561 416
f 416 561 417
f 417 561 419
f 417 419 418
f 419 561 562
f 419 562 693
f 419 693 563
f 419 563 421
f 419 421 420
f 421 563 564
f 421 564 565
f 421 565 566
f 421 566 427
f 421 427 422
f 423 433 425
f 423 425 424
f 425 433 567
f 425 567 568
f 425 568 569
f 425 569 436
f 425 436 426
f 427 566 570
f 427 570 428
f 428 570 429
f 429 570 571
f 429 571 572
f 429 572 573
f 429 573 574
f 429 574 431
f 429 431 430
f 431 574 575
f 431 575 433
f 431 433 432
f 433 575 567
f 434 576 577
f 434 577 443
f 434 443 578
f 434 578 579
f 434 579 435
f 434 436 569
f 434 569 576
f 435 579 437
f 437 579 578
f 437 578 443
f 437 443 580
f 437 580 438
f 438 580 441
f 441 580 443
f 442 443 446
f 443 577 581
f 443 581 582
f 443 582 447
f 443 447 446
f 444 445 452
f 445 450 452
f 447 582 448
f 448 582 583
f 448 583 584
f 448 584 449
f 449 585 452
f 449 452 450
f 449 584 585
f 452 585 586
f 452 586 587
f 452 587 588
f 452 588 453
f 457 589 458
f 458 589 590
f 458 590 591
f 458 591 463
f 458 463 459
f 459 463 460
f 461 472 471
f 461 470 462
f 461 467 472
f 463 591 465
f 463 465 464
f 465 592 593
f 465 593 466
f 465 591 592
f 466 593 594
f 466 594 595
f 466 595 596
f 466 596 597
f 466 597 598
f 466 598 599
f 466 599 475
f 466 474 600
f 466 600 467
f 467 600 472
f 472 600 473
f 473 600 474
f 475 599 477
f 475 477 476
f 477 599 601
f 477 601 478
f 478 601 481
f 480 481 602
f 480 602 603
f 480 603 604
f 480 604 482
f 481 598 605
f 481 605 606
f 481 606 607
f 481 607 608
f 481 608 602
f 481 601 609
f 481 609 598
f 482 604 483
f 483 610 486
f 483 486 485
f 483 485 484
f 483 604 608
f 483 608 610
f 486 610 611
f 486 611 487
f 487 611 488
f 488 611 612
f 488 612 490
f 490 612 491
f 491 612 613
f 491 613 614
f 491 614 492
f 492 614 497
f 492 497 493
f 494 502 495
f 495 502 615
f 495 615 616
f 495 616 617
f 495 617 496
f 496 617 618
f 496 618 503
f 497 614 619
f 497 619 620
f 497 620 498
f 498 620 621
f 498 621 622
f 498 622 499
f 499 623 500
f 499 622 624
f 499 624 623
f 500 623 625
f 500 625 626
f 500 626 616
f 500 616 615
f 500 615 501
f 501 615 502
f 503 627 504
f 503 618 617
f 503 617 628
f 503 628 627
f 504 627 505
f 505 627 628
f 505 628 629
f 505 629 630
f 505 630 631
f 505 631 632
f 505 632 509
f 505 509 508
f 509 632 510
f 510 632 511
f 511 632 633
f 511 633 634
f 511 634 635
f 511 635 636
f 511 636 637
f 511 637 638
f 511 638 639
f 511 639 640
f 511 640 513
f 511 513 641
f 511 641 512
f 512 641 514
f 513 514 641
f 513 640 642
f 513 642 643
f 513 643 644
f 513 644 645
f 513 645 646
f 513 646 647
f 513 647 517
f 513 517 515
f 515 517 516
f 517 648 649
f 517 649 518
f 517 647 646
f 517 646 648
f 518 649 519
f 519 649 650
f 519 650 651
f 519 651 652
f 519 652 653
f 519 653 520
f 520 653 521
f 521 653 522
f 522 654 655
f 522 655 523
f 522 653 656
f 522 656 654
f 523 655 657
f 523 657 524
f 524 657 525
f 525 657 655
f 525 655 658
f 525 658 528
f 525 528 526
f 527 528 529
f 528 659 660
f 528 660 529
f 528 658 661
f 528 661 659
f 529 662 530
f 529 660 662
f 530 662 531
f 531 662 663
f 531 663 664
f 531 664 665
f 531 665 666
f 531 666 533
f 531 533 532
f 533 666 667
f 533 667 535
f 533 535 534
f 535 667 668
f 535 668 538
f 535 538 536
f 536 538 537
f 538 668 669
f 538 669 670
f 538 670 540
f 538 540 539
f 540 670 541
f 541 671 672
f 541 672 673
f 541 673 674
f 541 674 675
f 541 675 542
f 541 670 671
f 542 675 543
f 543 675 674
f 543 674 673
f 543 673 676
f 543 676 544
f 544 676 677
f 544 677 547
f 544 547 545
f 545 547 546
f 547 678 679
f 547 679 680
f 547 680 553
f 547 553 552
f 547 552 548
f 547 677 678
f 549 681 550
f 549 554 681
f 550 682 683
f 550 683 551
f 550 681 684
f 550 684 682
f 551 683 555
f 553 680 685
f 553 685 554
f 554 685 681
f 555 683 686
f 555 686 556
f 556 687 688
f 556 688 689
f 556 689 690
f 556 690 557
f 556 686 687
f 557 690 558
f 558 690 559
f 559 690 691
f 559 691 692
f 559 692 693
f 559 693 560
f 560 693 562
f 560 562 561
f 563 693 694
f 563 694 564
f 564 694 695
f 564 695 696
f 564 696 565
f 565 696 570
f 565 570 566
f 567 575 568
f 568 575 697
f 568 697 583
f 568 583 698
f 568 698 569
f 569 698 699
f 569 699 576
f 570 696 700
f 570 700 701
f 570 701 571
f 571 701 702
f 571 702 703
f 571 703 572
f 572 703 704
f 572 704 705
f 572 705 573
f 573 705 706
f 573 706 707
f 573 707 583
f 573 583 697
f 573 697 574
f 574 697 575
f 576 581 577
f 576 699 698
f 576 698 582
f 576 582 581
f 582 708 583
f 582 698 708
f 583 707 709
f 583 709 584
f 583 708 698
f 584 709 710
f 584 710 585
f 585 711 712
f 585 712 713
f 585 713 714
f 585 714 715
f 585 715 586
f 585 710 711
f 590 716 591
f 591 716 717
f 591 717 718
f 591 718 719
f 591 719 720
f 591 720 721
f 591 721 592
f 592 721 722
f 592 722 723
f 592 723 724
f 592 724 725
f 592 725 726
f 592 726 727
f 592 727 598
f 592 598 597
f 592 597 596
f 592 596 595
f 592 595 594
f 592 594 593
f 598 728 729
f 598 729 605
f 598 609 599
f 598 727 726
f 598 726 730
f 598 730 728
f 599 609 601
f 602 608 603
f 603 608 604
f 605 729 731
f 605 731 606
f 606 731 732
f 606 732 607
f 607 732 733
f 607 733 610
f 607 610 608
f 610 733 734
f 610 734 735
f 610 735 612
f 610 612 611
f 612 736 613
f 612 735 736
f 613 736 619
f 613 619 614
f 616 626 737
f 616 737 738
f 616 738 739
f 616 739 628
f 616 628 740
f 616 740 617
f 617 740 628
f 619 736 839
f 619 839 741
f 619 741 742
f 619 742 743
f 619 743 744
f 619 744 620
f 621 745 622
f 622 745 624
f 623 624 626
f 623 626 625
f 624 746 747
f 624 747 748
f 624 748 626
f 624 745 749
f 624 749 746
f 626 748 750
f 626 750 737
f 628 739 629
f 629 751 630
f 629 739 751
f 630 751 631
f 631 752 634
f 631 634 633
f 631 633 632
f 631 751 752
f 634 753 636
f 634 636 635
f 634 752 753
f 636 753 754
f 636 754 638
f 636 638 637
f 638 754 755
f 638 755 639
f 639 755 640
f 640 755 642
f 642 756 757
f 642 757 758
f 642 758 759
f 642 759 760
f 642 760 761
f 642 761 762
f 642 762 763
f 642 763 643
f 642 755 754
f 642 754 753
f 642 753 756
f 643 763 645
f 643 645 644
f 645 763 764
f 645 764 646
f 646 764 648
f 648 765 766
f 648 766 767
f 648 767 768
f 648 768 769
f 648 769 649
f 648 764 770
f 648 770 762
f 648 762 765
f 649 769 771
f 649 771 772
f 649 772 650
f 650 772 651
f 651 773 656
f 651 656 653
f 651 653 652
f 651 772 768
f 651 768 773
f 654 656 774
f 654 774 655
f 655 775 658
f 655 774 775
f 656 773 774
f 658 775 661
f 659 661 776
f 659 776 662
f 659 662 660
f 661 777 776
f 661 775 777
f 662 778 663
f 662 776 779
f 662 779 778
f 663 778 780
f 663 780 781
f 663 781 664
f 664 782 665
f 664 781 783
f 664 783 782
f 665 782 784
f 665 784 785
f 665 785 786
f 665 786 787
f 665 787 666
f 666 787 667
f 667 787 669
f 667 669 668
f 669 787 786
f 669 786 788
f 669 788 670
f 670 788 789
f 670 789 671
f 671 790 791
f 671 791 672
f 671 789 788
f 671 788 790
f 672 791 673
f 673 792 793
f 673 793 794
f 673 794 795
f 673 795 677
f 673 677 676
f 673 791 790
f 673 790 792
f 677 795 678
f 678 795 679
f 679 796 680
f 679 795 797
f 679 797 798
f 679 798 799
f 679 799 800
f 679 800 801
f 679 801 802
f 679 802 803
f 679 803 804
f 679 804 681
f 679 681 796
f 680 796 685
f 681 804 805
f 681 805 806
f 681 806 807
f 681 807 808
f 681 808 809
f 681 809 810
f 681 810 683
f 681 683 684
f 681 685 796
f 682 684 683
f 683 810 809
f 683 809 811
f 683 811 686
f 686 811 812
f 686 812 813
f 686 813 814
f 686 814 687
f 687 814 688
f 688 815 691
f 688 691 690
f 688 690 689
f 688 814 816
f 688 816 815
f 691 815 817
f 691 817 692
f 692 817 693
f 693 817 694
f 694 818 695
f 694 817 815
f 694 815 819
f 694 819 818
f 695 818 700
f 695 700 696
f 700 818 903
f 700 903 820
f 700 820 821
f 700 821 822
f 700 822 823
f 700 823 824
f 700 824 701
f 702 825 703
f 703 825 826
f 703 826 704
f 704 826 827
f 704 827 828
f 704 828 829
f 704 829 707
f 704 707 705
f 705 707 706
f 707 829 710
f 707 710 709
f 710 829 830
f 710 830 831
f 710 831 711
f 728 832 729
f 729 832 731
f 731 832 833
f 731 833 834
f 731 834 835
f 731 835 732
f 732 835 733
f 733 835 734
f 734 835 834
f 734 834 735
f 735 834 836
f 735 836 837
f 735 837 736
f 736 838 839
f 736 837 840
f 736 840 841
f 736 841 842
f 736 842 843
f 736 843 838
f 737 750 738
f 738 844 739
f 738 750 845
f 738 845 844
f 739 844 751
f 748 846 750
f 750 846 847
f 750 847 848
f 750 848 845
f 751 844 849
f 751 849 850
f 751 850 851
f 751 851 753
f 751 753 752
f 753 851 852
f 753 852 853
f 753 853 854
f 753 854 756
f 756 855 757
f 756 854 853
f 756 853 856
f 756 856 855
f 757 855 758
f 758 855 759
f 759 855 760
f 760 855 761
f 761 855 762
f 762 770 763
f 762 855 857
f 762 857 858
f 762 858 859
f 762 859 860
f 762 860 861
f 762 861 765
f 763 770 764
f 765 861 862
f 765 862 766
f 766 863 767
f 766 862 863
f 767 863 864
f 767 864 773
f 767 773 768
f 768 772 771
f 768 771 769
f 773 864 865
f 773 865 866
f 773 866 775
f 773 775 774
f 775 867 777
f 775 866 867
f 776 777 867
f 776 867 779
f 778 779 868
f 779 869 870
f 779 870 868
f 779 867 871
f 779 871 869
f 780 872 781
f 781 872 873
f 781 873 783
f 782 783 785
f 782 785 784
f 783 874 875
f 783 875 785
f 783 873 876
f 783 876 874
f 785 875 877
f 785 877 878
f 785 878 786
f 786 878 879
f 786 879 880
f 786 880 790
f 786 790 881
f 786 881 788
f 788 881 790
f 790 880 792
f 792 882 793
f 792 880 882
f 793 882 794
f 794 798 797
f 794 797 795
f 794 882 883
f 794 883 798
f 798 884 800
f 798 800 799
f 798 883 884
f 800 802 801
f 800 884 885
f 800 885 802
f 802 885 886
f 802 886 803
f 803 886 804
f 804 886 805
f 805 887 888
f 805 888 889
f 805 889 890
f 805 890 891
f 805 891 892
f 805 892 893
f 805 893 894
f 805 894 806
f 805 886 885
f 805 885 884
f 805 884 887
f 806 894 808
f 806 808 807
f 808 894 895
f 808 895 809
f 809 895 811
f 811 895 896
f 811 896 893
f 811 893 897
f 811 897 898
f 811 898 899
f 811 899 816
f 811 816 812
f 812 816 813
f 813 816 814
f 815 816 899
f 815 899 900
f 815 900 901
f 815 901 819
f 818 902 903
f 818 819 904
f 818 904 905
f 818 905 906
f 818 906 907
f 818 907 908
f 818 908 902
f 819 901 909
f 819 909 910
f 819 910 904
f 833 911 834
f 834 912 913
f 834 913 837
f 834 837 836
f 834 911 914
f 834 914 912
f 844 845 915
f 844 915 849
f 845 848 916
f 845 916 917
f 845 917 918
f 845 918 919
f 845 919 920
f 845 920 915
f 849 915 850
f 850 915 921
f 850 921 851
f 851 921 852
f 852 921 853
f 853 921 929
f 853 929 856
f 855 856 922
f 855 922 923
f 855 923 924
f 855 924 925
f 855 925 926
f 855 926 927
f 855 927 928
f 855 928 858
f 855 858 857
f 856 929 930
f 856 930 931
f 856 931 932
f 856 932 933
f 856 933 934
f 856 934 922
f 860 935 861
f 861 935 862
f 862 935 936
f 862 936 937
f 862 937 938
f 862 938 863
f 863 938 864
f 864 938 865
f 865 938 937
f 865 937 866
f 866 937 939
f 866 939 940
f 866 940 941
f 866 941 867
f 867 941 942
f 867 942 943
f 867 943 944
f 867 944 945
f 867 945 871
f 875 946 877
f 877 946 947
f 877 947 948
f 877 948 879
f 877 879 878
f 879 949 880
f 879 948 949
f 880 949 882
f 882 949 950
f 882 950 951
f 882 951 952
f 882 952 884
f 882 884 883
f 884 952 953
f 884 953 954
f 884 954 955
f 884 955 887
f 887 956 888
f 887 955 954
f 887 954 957
f 887 957 956
f 888 956 889
f 889 956 890
f 890 956 891
f 891 956 892
f 892 956 893
f 893 958 897
f 893 896 894
f 893 956 959
f 893 959 960
f 893 960 961
f 893 961 958
f 894 896 895
f 897 958 962
f 897 962 898
f 898 963 899
f 898 962 963
f 899 963 900
f 900 964 901
f 900 963 964
f 901 964 909
f 904 910 909
f 904 909 965
f 909 966 965
f 909 964 963
f 909 963 962
f 909 962 967
f 909 967 968
f 909 968 969
f 909 969 966
f 915 920 970
f 915 970 971
f 915 971 972
f 915 972 929
f 915 929 921
f 929 973 930
f 929 972 974
f 929 974 973
f 936 975 937
f 937 976 977
f 937 977 978
f 937 978 940
f 937 940 939
f 937 975 976
f 947 979 948
f 948 979 980
f 948 980 981
f 948 981 982
f 948 982 983
f 948 983 984
f 948 984 985
f 948 985 949
f 949 985 950
f 950 985 951
f 951 985 986
f 951 986 952
f 952 986 953
f 953 986 954
f 954 986 991
f 954 991 957
f 956 987 988
f 956 988 989
f 956 989 990
f 956 990 960
f 956 960 959
f 956 957 987
f 957 991 992
f 957 992 993
f 957 993 994
f 957 994 995
f 957 995 996
f 957 996 997
f 957 997 987
f 958 998 962
f 958 961 998
f 962 998 967
f 984 999 985
f 985 999 1000
f 985 1000 1001
f 985 1001 991
f 985 991 986
f 991 1002 992
f 991 1001 1002

