# https://github.com/mikedh/trimesh
v 0.00193060 0.34004915 -0.47987789
v 0.00193060 0.34004915 -0.48052520
v -0.00053256 0.34004915 -0.47987789
v 0.00499291 0.33405769 -0.33441436
v 0.01437954 0.33339196 -0.33441436
v 0.02436532 0.33232683 -0.33441436
v 0.04293888 0.33026308 -0.33441436
v 0.04766548 0.32973051 -0.33441436
v 0.06497417 0.32773334 -0.33441436
v 0.06497417 0.33279282 -0.48499000
v 0.01497869 0.33858460 -0.48499000
v -0.00053256 0.34004915 -0.48052520
v 0.00512605 0.33938342 -0.48430949
v -0.00552545 0.33372486 -0.33441436
v 0.00439376 0.33405769 -0.33441436
v -0.05498835 0.33445710 -0.48499000
v -0.05498835 0.32946426 -0.33441436
v -0.04986232 0.32993025 -0.33441436
v 0.07436080 0.32566965 -0.33441436
v 0.08015256 0.32999682 -0.47986129
v 0.07515966 0.33092880 -0.48437589
v 0.07196421 0.33046281 -0.49045071
v 0.06497417 0.33092880 -0.49089885
v 0.01497869 0.33392453 -0.49300677
v 0.00499291 0.33425742 -0.49325573
v -0.00432716 0.33911717 -0.48430949
v -0.00499288 0.33412427 -0.49315616
v -0.05498835 0.33172768 -0.49154615
v -0.06497414 0.33099538 -0.49089885
v -0.07123189 0.33026308 -0.49026814
v -0.06497414 0.33285940 -0.48499000
v -0.01497866 0.33805197 -0.48499000
v -0.06497414 0.32766682 -0.33441436
v 0.07495995 0.32553649 -0.33441436
v 0.08015256 0.32999682 -0.48062479
v 0.08441316 0.32254076 -0.33441436
v 0.10498387 0.31601673 -0.33441436
v 0.12156026 0.31075752 -0.33441436
v 0.11064247 0.32021075 -0.47951272
v 0.07868797 0.32953078 -0.48728052
v 0.07515966 0.32573622 -0.49327233
v 0.06497417 0.32493734 -0.49549645
v 0.10917789 0.31974477 -0.48862493
v 0.10252070 0.32061017 -0.49058348
v 0.05538782 0.32413846 -0.49700686
v 0.05232551 0.32021075 -0.50014383
v 0.01497869 0.32673478 -0.49800274
v 0.00499291 0.32706761 -0.49826831
v 0.05898270 0.31981128 -0.49991149
v -0.00499288 0.32693452 -0.49815211
v -0.05498835 0.32034391 -0.50021023
v -0.05498835 0.32533675 -0.49654213
v -0.06031410 0.32007760 -0.50006086
v -0.07316247 0.33086222 -0.48499000
v -0.07476020 0.32560307 -0.49299020
v -0.10571612 0.31588358 -0.49357110
v -0.10285354 0.32061017 -0.49060008
v -0.10951072 0.31981128 -0.48932207
v -0.07289619 0.33079565 -0.47823471
v -0.06557328 0.32753366 -0.33441436
v 0.11064247 0.32021075 -0.48195261
v 0.12695259 0.30902666 -0.33441436
v 0.13394263 0.31162298 -0.48499000
v 0.12495542 0.31495154 -0.48499000
v 0.09499808 0.31428581 -0.49694046
v 0.09166948 0.31049126 -0.50027663
v 0.07495995 0.31768101 -0.49873304
v 0.06497417 0.31907904 -0.49959612
v 0.10551644 0.31581700 -0.49347150
v 0.13207862 0.31075752 -0.49069968
v 0.12495542 0.31195581 -0.49161255
v 0.04493603 0.31495154 -0.50233477
v 0.04493603 0.32054359 -0.50034302
v 0.05538782 0.31588358 -0.50153804
v 0.00499291 0.32207477 -0.50102353
v -0.00499288 0.32194161 -0.50099033
v 0.03495025 0.32094306 -0.50055879
v 0.02496447 0.32134247 -0.50074136
v 0.01497869 0.32174188 -0.50090736
v 0.07495995 0.31268811 -0.50115633
v 0.06497417 0.31408614 -0.50155467
v -0.04493600 0.32067674 -0.50042599
v -0.05498835 0.31495154 -0.50208580
v -0.04493600 0.31495154 -0.50246757
v -0.07495992 0.30496579 -0.50366259
v -0.08494570 0.30496579 -0.50283271
v -0.09166946 0.31042469 -0.50026006
v -0.09839322 0.30929297 -0.49967912
v -0.09499805 0.31421930 -0.49695706
v -0.11110844 0.32027733 -0.48264971
v -0.11110844 0.32027733 -0.47928035
v -0.11496962 0.31395298 -0.49295700
v -0.12495539 0.31215554 -0.49169555
v -0.13174573 0.31075752 -0.49063328
v -0.12495539 0.31528443 -0.48499000
v -0.11463676 0.31874615 -0.48558754
v -0.07495992 0.32493734 -0.33441436
v 0.13494121 0.30549836 -0.33441436
v 0.13893552 0.30949265 -0.48499000
v 0.12515514 0.30430007 -0.49712303
v 0.08494573 0.30496579 -0.50288248
v 0.08494573 0.31129009 -0.50067496
v 0.12195969 0.30057204 -0.50032640
v 0.11496965 0.29497999 -0.50303185
v 0.11496965 0.31368667 -0.49275780
v 0.14499356 0.30256921 -0.49182832
v 0.13527407 0.30563152 -0.49333873
v 0.12861688 0.29930717 -0.49971229
v 0.15158418 0.30070519 -0.49060008
v 0.03495025 0.31495154 -0.50271654
v 0.07495995 0.30496579 -0.50372899
v 0.02496447 0.31495154 -0.50308168
v 0.00499291 0.31495154 -0.50362939
v 0.01497869 0.31495154 -0.50343025
v -0.00499288 0.31495154 -0.50354642
v -0.01497866 0.31495154 -0.50329745
v -0.02496444 0.31495154 -0.50303185
v -0.06497414 0.30496579 -0.50397795
v -0.10498384 0.29497999 -0.50384516
v -0.11496962 0.29497999 -0.50316465
v -0.11496962 0.30170375 -0.50084096
v -0.12169337 0.30070519 -0.50040942
v -0.11496962 0.30669665 -0.49795294
v -0.12235910 0.31095725 -0.33441436
v -0.11496962 0.31335384 -0.33441436
v -0.10558298 0.31608331 -0.33441436
v -0.08534513 0.32194161 -0.33441436
v -0.12502196 0.30443323 -0.49707323
v -0.13840291 0.30915982 -0.48499000
v -0.13341002 0.31162298 -0.48499000
v -0.13500775 0.30549836 -0.49312297
v -0.17475116 0.28532708 -0.49284080
v -0.17122285 0.29051965 -0.49046731
v -0.12735198 0.30882692 -0.33441436
v 0.14273012 0.30150402 -0.33441436
v 0.19106130 0.28073364 -0.47858325
v 0.15810822 0.29890776 -0.48499000
v 0.19026244 0.28013450 -0.49015194
v 0.17095660 0.29045314 -0.49038431
v 0.12515514 0.29557914 -0.50157130
v 0.13494121 0.28499424 -0.50338042
v 0.10498387 0.29497999 -0.50379539
v 0.15491277 0.29537940 -0.49302337
v 0.13494121 0.29757631 -0.49865004
v 0.18054295 0.27034843 -0.50019366
v 0.16110395 0.28053391 -0.50030982
v 0.14159839 0.29078597 -0.50040942
v 0.13494121 0.29258341 -0.50100696
v 0.06497417 0.30496579 -0.50396132
v -0.30496573 -0.06497414 -0.50397795
v -0.30496573 0.06497417 -0.50396132
v -0.14499353 0.27494186 -0.50389498
v -0.12495539 0.28499424 -0.50389498
v 0.30496579 0.06497417 -0.50397795
v -0.13494118 0.28499424 -0.50326425
v -0.12502196 0.29537940 -0.50158787
v -0.14146522 0.29071939 -0.50037622
v -0.12835056 0.29897434 -0.49952972
v -0.14239722 0.30123776 -0.33441436
v -0.13540718 0.30483264 -0.33441436
v -0.17768033 0.28872222 -0.48499000
v -0.17535031 0.28412879 -0.33441436
v -0.16203593 0.29105228 -0.33441436
v -0.15497932 0.29471374 -0.33441436
v -0.14486039 0.29438084 -0.49704006
v -0.16476537 0.28432852 -0.49689066
v -0.17495088 0.27680588 -0.49820191
v -0.18047634 0.27034843 -0.50019366
v -0.18493666 0.28166562 -0.49119762
v -0.19006269 0.28006792 -0.49005234
v 0.15497935 0.29478025 -0.33441436
v 0.19099472 0.28066707 -0.48499000
v 0.18493669 0.28406221 -0.48499000
v 0.17714778 0.28838938 -0.48499000
v 0.16682914 0.28825623 -0.33441436
v 0.18054295 0.28066707 -0.33441436
v 0.18586870 0.27753818 -0.33441436
v 0.19312502 0.27254528 -0.33441436
v 0.19345789 0.27227896 -0.33441436
v 0.24032448 0.24025792 -0.47944635
v 0.20211223 0.27174640 -0.48499000
v 0.19598761 0.27673930 -0.48499000
v 0.23965877 0.23965877 -0.48887390
v 0.20098051 0.27081442 -0.49055028
v 0.19412361 0.27447587 -0.49174535
v 0.18720013 0.26768553 -0.49884921
v 0.18493669 0.28159904 -0.49114782
v 0.14499356 0.27494186 -0.50387836
v 0.12495542 0.28499424 -0.50384516
v 0.15497935 0.27494186 -0.50311488
v 0.16496512 0.26495606 -0.50382859
v 0.23007242 0.23007242 -0.50004429
v 0.19126101 0.26102835 -0.50044262
v 0.18427096 0.26462322 -0.50105673
v 0.17495091 0.26495606 -0.50279951
v 0.27494186 0.14499356 -0.50389498
v -0.27494186 -0.14499353 -0.50389498
v -0.28499418 -0.12495539 -0.50389498
v -0.29497999 -0.10498384 -0.50384516
v -0.30496573 -0.07495992 -0.50366259
v -0.31495154 -0.04493600 -0.50246757
v -0.31495154 -0.02496444 -0.50303185
v -0.31495154 -0.01497866 -0.50329745
v -0.31495154 -0.00499288 -0.50354642
v -0.31495154 0.00499291 -0.50362939
v 0.06497417 -0.30496573 -0.50397795
v -0.06497414 -0.30496573 -0.50396132
v -0.31495154 0.01497869 -0.50343025
v -0.30496573 0.07495995 -0.50372899
v -0.29497999 0.10498387 -0.50379539
v -0.28499418 0.12495542 -0.50384516
v -0.27494186 0.14499356 -0.50387836
v -0.16496509 0.26495606 -0.50386178
v -0.22494635 0.21496060 -0.50384516
v 0.28499424 0.12495542 -0.50389498
v 0.29497999 0.10498387 -0.50384516
v 0.30496579 0.07495995 -0.50366259
v 0.31495154 0.04493603 -0.50246757
v 0.31495154 0.02496447 -0.50303185
v 0.31495154 0.01497869 -0.50329745
v 0.31495154 0.00499291 -0.50354642
v 0.31495154 -0.00499288 -0.50362939
v 0.30496579 -0.06497414 -0.50396132
v -0.15497932 0.27494186 -0.50316465
v -0.16130364 0.28060049 -0.50032640
v -0.16796082 0.27866989 -0.49938035
v -0.18493666 0.28432852 -0.48499000
v -0.19079499 0.28066707 -0.47884881
v -0.18127520 0.28086674 -0.33441436
v -0.18427093 0.27420956 -0.49617696
v -0.17495088 0.27181298 -0.50074136
v -0.17495088 0.26495606 -0.50283271
v -0.18427093 0.26449007 -0.50099033
v -0.21575944 0.23579760 -0.50191981
v -0.21955404 0.23965877 -0.49987829
v -0.22554550 0.24565023 -0.49365410
v -0.19066183 0.28053391 -0.48499000
v -0.22254977 0.25197458 -0.49123082
v -0.23965874 0.23965877 -0.48887390
v -0.22927353 0.24937826 -0.48674938
v 0.19811791 0.26841784 -0.33441436
v 0.24118993 0.23133728 -0.33441436
v 0.24997741 0.23000585 -0.47997746
v 0.24032448 0.24025792 -0.48220158
v 0.20910227 0.25923091 -0.33441436
v 0.21462774 0.25457084 -0.33441436
v 0.23093785 0.24079049 -0.33441436
v 0.23593074 0.23633018 -0.33441436
v 0.23579760 0.24351993 -0.48532197
v 0.25197458 0.22254980 -0.49123082
v 0.24272108 0.23300157 -0.49162915
v 0.23300157 0.24245478 -0.49146318
v 0.24485138 0.23486559 -0.48447549
v 0.24937826 0.22927356 -0.48674938
v 0.28006792 0.19006272 -0.49005234
v 0.20457539 0.26475638 -0.49234286
v 0.19472276 0.26462322 -0.49713963
v 0.21496060 0.22494638 -0.50384516
v 0.18493669 0.25497031 -0.50348002
v 0.19498904 0.24498452 -0.50364602
v 0.20497482 0.23499873 -0.50376219
v 0.23486559 0.23486559 -0.49488235
v 0.23732875 0.22494638 -0.49863344
v 0.23965877 0.21955407 -0.49987829
v 0.23233587 0.22494638 -0.50070816
v 0.22494638 0.22494638 -0.50258374
v 0.19472276 0.25483716 -0.50137210
v 0.26495606 0.16496512 -0.50386178
v 0.28499424 0.13494121 -0.50326425
v -0.21496058 -0.22494635 -0.50384516
v -0.26495606 -0.16496509 -0.50386178
v -0.28499418 -0.13494118 -0.50326425
v -0.14499353 -0.27494186 -0.50387836
v -0.29497999 -0.11496962 -0.50316465
v -0.30496573 -0.08494570 -0.50283271
v -0.32007754 -0.06031410 -0.50006086
v -0.31495154 -0.05498835 -0.50208580
v -0.32034385 -0.05498835 -0.50021023
v -0.32067668 -0.04493600 -0.50042599
v -0.32194155 -0.00499288 -0.50099033
v -0.32207471 0.00499291 -0.50102353
v 0.14499356 -0.27494186 -0.50389498
v 0.12495542 -0.28499418 -0.50389498
v 0.10498387 -0.29497999 -0.50384516
v 0.07495995 -0.30496573 -0.50366259
v 0.04493603 -0.31495154 -0.50246757
v 0.02496447 -0.31495154 -0.50303185
v 0.01497869 -0.31495154 -0.50329745
v 0.00499291 -0.31495154 -0.50354642
v -0.00499288 -0.31495154 -0.50362939
v -0.01497866 -0.31495154 -0.50343025
v -0.07495992 -0.30496573 -0.50372899
v -0.10498384 -0.29497999 -0.50379539
v -0.12495539 -0.28499418 -0.50384516
v -0.32174188 0.01497869 -0.50090736
v -0.32134241 0.02496447 -0.50074136
v -0.32094300 0.03495025 -0.50055879
v -0.31495154 0.02496447 -0.50308168
v -0.30496573 0.08494573 -0.50288248
v -0.29497999 0.11496965 -0.50303185
v -0.31495154 0.03495025 -0.50271654
v -0.31495154 0.04493603 -0.50233477
v -0.31588352 0.05538782 -0.50153804
v -0.31408608 0.06497417 -0.50155467
v -0.28499418 0.13494121 -0.50338042
v -0.26495606 0.16496512 -0.50382859
v -0.18493666 0.25497031 -0.50338042
v -0.20497479 0.23499873 -0.50379539
v -0.19498901 0.24498452 -0.50362939
v -0.23499870 0.20497482 -0.50376219
v -0.22494635 0.22494638 -0.50258374
v 0.29497999 0.11496965 -0.50316465
v 0.30496579 0.08494573 -0.50283271
v 0.32007760 0.06031413 -0.50006086
v 0.31495154 0.05498838 -0.50208580
v 0.32034391 0.05498838 -0.50021023
v 0.32067674 0.04493603 -0.50042599
v 0.32194161 0.00499291 -0.50099033
v 0.32207477 -0.00499288 -0.50102353
v 0.31495154 -0.01497866 -0.50343025
v 0.30496579 -0.07495992 -0.50372899
v 0.29497999 -0.10498384 -0.50379539
v 0.28499424 -0.12495539 -0.50384516
v 0.27494186 -0.14499353 -0.50387836
v -0.16476537 0.27520818 -0.50145507
v -0.19272557 0.27221245 -0.33441436
v -0.18626809 0.27720529 -0.33441436
v -0.18600181 0.27740502 -0.33441436
v -0.23000582 0.24997741 -0.48007706
v -0.23000582 0.24997741 -0.47997746
v -0.22494635 0.23233587 -0.50070816
v -0.23007239 0.23007242 -0.50004429
v -0.22494635 0.23732875 -0.49863344
v -0.23300155 0.24272108 -0.49162915
v -0.24245475 0.23300157 -0.49146318
v -0.27081436 0.20098051 -0.49055028
v -0.28013444 0.19026244 -0.49015194
v -0.27174640 0.20211223 -0.48499000
v -0.24351990 0.23579760 -0.48532197
v -0.24025789 0.24032448 -0.48220158
v -0.23486556 0.24485138 -0.48447549
v 0.24618281 0.22527924 -0.33441436
v 0.24997741 0.23000585 -0.48007706
v 0.24997741 0.22055264 -0.33441436
v 0.26349151 0.20364338 -0.33441436
v 0.27221245 0.19272560 -0.33441436
v 0.28066707 0.19079502 -0.47884881
v 0.24565023 0.22554553 -0.49365410
v 0.28053391 0.19066186 -0.48499000
v 0.28432852 0.18493669 -0.48499000
v 0.28872222 0.17768036 -0.48499000
v 0.29051965 0.17122288 -0.49046731
v 0.28166562 0.18493669 -0.49119762
v 0.27420956 0.18427096 -0.49617696
v 0.23499873 0.20497482 -0.50379539
v 0.27034843 0.18047637 -0.50019366
v 0.23579760 0.21575947 -0.50191981
v 0.25497031 0.18493669 -0.50338042
v 0.24498452 0.19498904 -0.50362939
v 0.26495606 0.17495091 -0.50283271
v 0.27494186 0.15497935 -0.50316465
v 0.29071939 0.14146525 -0.50037622
v 0.29537940 0.12502199 -0.50158787
v -0.20497479 -0.23499870 -0.50376219
v -0.22494635 -0.22494635 -0.50258374
v -0.23499870 -0.20497479 -0.50379539
v -0.16496509 -0.26495606 -0.50382859
v -0.24498449 -0.19498901 -0.50362939
v -0.25497025 -0.18493666 -0.50338042
v -0.26495606 -0.17495088 -0.50283271
v -0.27494186 -0.15497932 -0.50316465
v -0.29071939 -0.14146522 -0.50037622
v -0.29537940 -0.12502196 -0.50158787
v -0.13494118 -0.28499418 -0.50338042
v -0.30070513 -0.12169337 -0.50040942
v -0.30170375 -0.11496962 -0.50084096
v -0.31042463 -0.09166946 -0.50026006
v -0.31421924 -0.09499805 -0.49695706
v -0.31588352 -0.10571612 -0.49357110
v -0.32560301 -0.07476020 -0.49299020
v -0.33026308 -0.07123189 -0.49026814
v -0.33099538 -0.06497414 -0.49089885
v -0.33172762 -0.05498835 -0.49154615
v -0.32533675 -0.05498835 -0.49654213
v -0.30929291 -0.09839322 -0.49967912
v -0.32693446 -0.00499288 -0.49815211
v -0.33412421 -0.00499288 -0.49315616
v -0.32706761 0.00499291 -0.49826831
v 0.16496512 -0.26495606 -0.50386178
v 0.13494121 -0.28499418 -0.50326425
v 0.22494638 -0.21496058 -0.50384516
v 0.11496965 -0.29497999 -0.50316465
v 0.08494573 -0.30496573 -0.50283271
v 0.06031413 -0.32007754 -0.50006086
v 0.05498838 -0.31495154 -0.50208580
v 0.04493603 -0.32067668 -0.50042599
v 0.05498838 -0.32034385 -0.50021023
v 0.00499291 -0.32194155 -0.50099033
v -0.00499288 -0.32207471 -0.50102353
v -0.01497866 -0.32174188 -0.50090736
v -0.02496444 -0.32134241 -0.50074136
v -0.03495022 -0.32094300 -0.50055879
v -0.02496444 -0.31495154 -0.50308168
v -0.03495022 -0.31495154 -0.50271654
v -0.04493600 -0.31495154 -0.50233477
v -0.05538779 -0.31588352 -0.50153804
v -0.06497414 -0.31408608 -0.50155467
v -0.08494570 -0.30496573 -0.50288248
v -0.11496962 -0.29497999 -0.50303185
v -0.32054359 0.04493603 -0.50034302
v -0.31268811 0.07495995 -0.50115633
v -0.31129009 0.08494573 -0.50067496
v -0.31049120 0.09166948 -0.50027663
v -0.30057198 0.12195969 -0.50032640
v -0.29557914 0.12515514 -0.50157130
v -0.32021070 0.05232551 -0.50014383
v -0.31981128 0.05898270 -0.49991149
v -0.29258341 0.13494121 -0.50100696
v -0.27494186 0.15497935 -0.50311488
v -0.26495606 0.17495091 -0.50279951
v -0.25497025 0.18493669 -0.50348002
v -0.24498449 0.19498904 -0.50364602
v -0.25483716 0.19472276 -0.50137210
v 0.30070519 0.12169340 -0.50040942
v 0.30170375 0.11496965 -0.50084096
v 0.31042469 0.09166948 -0.50026006
v 0.31588358 0.10571615 -0.49357110
v 0.32560307 0.07476023 -0.49299020
v 0.33026308 0.07123192 -0.49026814
v 0.33099538 0.06497417 -0.49089885
v 0.33172768 0.05498838 -0.49154615
v 0.32533675 0.05498838 -0.49654213
v 0.30929297 0.09839325 -0.49967912
v 0.31421930 0.09499808 -0.49695706
v 0.32693452 0.00499291 -0.49815211
v 0.33412427 0.00499291 -0.49315616
v 0.32706761 -0.00499288 -0.49826831
v 0.32174188 -0.01497866 -0.50090736
v 0.32134247 -0.02496444 -0.50074136
v 0.32094306 -0.03495022 -0.50055879
v 0.31495154 -0.02496444 -0.50308168
v 0.31495154 -0.03495022 -0.50271654
v 0.31495154 -0.04493600 -0.50233477
v 0.31588358 -0.05538779 -0.50153804
v 0.31408614 -0.06497414 -0.50155467
v 0.30496579 -0.08494570 -0.50288248
v 0.29497999 -0.11496962 -0.50303185
v 0.28499424 -0.13494118 -0.50338042
v 0.26495606 -0.16496509 -0.50382859
v -0.21496058 0.25443774 -0.33441436
v -0.24025789 0.24032448 -0.47944635
v -0.23133725 0.24118993 -0.33441436
v -0.22561207 0.24591653 -0.33441436
v -0.23486556 0.23486559 -0.49488235
v -0.26102829 0.19126101 -0.50044262
v -0.27034837 0.18054295 -0.50019366
v -0.26768547 0.18720013 -0.49884921
v -0.26462317 0.19472276 -0.49713963
v -0.26475632 0.20457539 -0.49234286
v -0.27447581 0.19412361 -0.49174535
v -0.28159904 0.18493669 -0.49114782
v -0.29537940 0.15491277 -0.49302337
v -0.29045308 0.17089002 -0.49038431
v -0.30949265 0.13893552 -0.48499000
v -0.29890770 0.15810822 -0.48499000
v -0.28838933 0.17714778 -0.48499000
v -0.28406221 0.18493669 -0.48499000
v -0.28066701 0.19099472 -0.48499000
v -0.27673930 0.19598761 -0.48499000
v -0.28073359 0.19106130 -0.47858325
v 0.27720529 0.18626812 -0.33441436
v 0.28066707 0.18160810 -0.33441436
v 0.28106648 0.18094237 -0.33441436
v 0.28459477 0.17448491 -0.33441436
v 0.30915982 0.13840294 -0.48499000
v 0.28532708 0.17475119 -0.49284080
v 0.31075752 0.13174576 -0.49063328
v 0.27680588 0.17495091 -0.49820191
v 0.27866989 0.16796085 -0.49938035
v 0.28060049 0.16130367 -0.50032640
v 0.27181298 0.17495091 -0.50074136
v 0.26449007 0.18427096 -0.50099033
v 0.27520818 0.16476540 -0.50145507
v 0.29897434 0.12835059 -0.49952972
v -0.19498901 -0.24498449 -0.50364602
v -0.23007239 -0.23007239 -0.50004429
v -0.23233584 -0.22494635 -0.50070816
v -0.23579757 -0.21575944 -0.50191981
v -0.18493666 -0.25497025 -0.50348002
v -0.19472273 -0.25483716 -0.50137210
v -0.15497932 -0.27494186 -0.50311488
v -0.17495088 -0.26495606 -0.50279951
v -0.26449007 -0.18427093 -0.50099033
v -0.27034837 -0.18047634 -0.50019366
v -0.27181298 -0.17495088 -0.50074136
v -0.27520812 -0.16476537 -0.50145507
v -0.28060043 -0.16130364 -0.50032640
v -0.29897428 -0.12835056 -0.49952972
v -0.12515511 -0.29557914 -0.50157130
v -0.13494118 -0.29258341 -0.50100696
v -0.30443317 -0.12502196 -0.49707323
v -0.30669659 -0.11496962 -0.49795294
v -0.31395298 -0.11496962 -0.49295700
v -0.32061017 -0.10285354 -0.49060008
v -0.33086222 -0.07316247 -0.48499000
v -0.33285934 -0.06497414 -0.48499000
v -0.33445710 -0.05498835 -0.48499000
v -0.31981128 -0.10951072 -0.48932207
v -0.33805197 -0.01497866 -0.48499000
v -0.33911711 -0.00432716 -0.48430949
v -0.33938342 0.00512605 -0.48430949
v -0.33425736 0.00499291 -0.49325573
v -0.32673478 0.01497869 -0.49800274
v 0.18493669 -0.25497025 -0.50338042
v 0.17495091 -0.26495606 -0.50283271
v 0.15497935 -0.27494186 -0.50316465
v 0.20497482 -0.23499870 -0.50379539
v 0.19498904 -0.24498449 -0.50362939
v 0.14146525 -0.29071939 -0.50037622
v 0.12502199 -0.29537940 -0.50158787
v 0.23499873 -0.20497479 -0.50376219
v 0.22494638 -0.22494635 -0.50258374
v 0.12169340 -0.30070513 -0.50040942
v 0.11496965 -0.30170375 -0.50084096
v 0.09166948 -0.31042463 -0.50026006
v 0.07476023 -0.32560301 -0.49299020
v 0.07123192 -0.33026308 -0.49026814
v 0.06497417 -0.33099538 -0.49089885
v 0.05498838 -0.33172762 -0.49154615
v 0.05498838 -0.32533675 -0.49654213
v 0.09839325 -0.30929291 -0.49967912
v 0.09499808 -0.31421924 -0.49695706
v 0.10571615 -0.31588352 -0.49357110
v 0.00499291 -0.32693446 -0.49815211
v 0.00499291 -0.33412421 -0.49315616
v -0.00499288 -0.32706761 -0.49826831
v -0.04493600 -0.32054359 -0.50034302
v -0.05232548 -0.32021070 -0.50014383
v -0.05898267 -0.31981128 -0.49991149
v -0.07495992 -0.31268811 -0.50115633
v -0.08494570 -0.31129009 -0.50067496
v -0.09166946 -0.31049120 -0.50027663
v -0.12195966 -0.30057198 -0.50032640
v -0.31907898 0.06497417 -0.49959612
v -0.30430001 0.12515514 -0.49712303
v -0.31768095 0.07495995 -0.49873304
v -0.32573617 0.07515966 -0.49327233
v -0.31428581 0.09499808 -0.49694046
v -0.29930717 0.12861688 -0.49971229
v -0.32413846 0.05538782 -0.49700686
v -0.33385795 0.01497869 -0.49300677
v -0.32493728 0.06497417 -0.49549645
v -0.29078597 0.14159839 -0.50040942
v -0.28053385 0.16110395 -0.50030982
v -0.26462317 0.18427096 -0.50105673
v 0.30443323 0.12502199 -0.49707323
v 0.30669665 0.11496965 -0.49795294
v 0.32061017 0.10285357 -0.49060008
v 0.31395298 0.11496965 -0.49295700
v 0.33086222 0.07316250 -0.48499000
v 0.33285940 0.06497417 -0.48499000
v 0.33445710 0.05498838 -0.48499000
v 0.31981128 0.10951075 -0.48932207
v 0.33805197 0.01497869 -0.48499000
v 0.33911717 0.00432719 -0.48430949
v 0.33938342 -0.00512602 -0.48430949
v 0.33425742 -0.00499288 -0.49325573
v 0.32673478 -0.01497866 -0.49800274
v 0.32054359 -0.04493600 -0.50034302
v 0.32021075 -0.05232548 -0.50014383
v 0.31981128 -0.05898267 -0.49991149
v 0.31268811 -0.07495992 -0.50115633
v 0.31129009 -0.08494570 -0.50067496
v 0.31049126 -0.09166946 -0.50027663
v 0.29557914 -0.12515511 -0.50157130
v 0.30057204 -0.12195966 -0.50032640
v 0.29258341 -0.13494118 -0.50100696
v 0.27494186 -0.15497932 -0.50311488
v 0.26495606 -0.17495088 -0.50279951
v 0.25497031 -0.18493666 -0.50348002
v 0.24498452 -0.19498901 -0.50364602
v -0.26815152 0.19851735 -0.33441436
v -0.24604964 0.22474667 -0.33441436
v -0.24079046 0.23093785 -0.33441436
v -0.23659644 0.23566446 -0.33441436
v -0.29757625 0.13494121 -0.49865004
v -0.30563146 0.13527407 -0.49333873
v -0.30256915 0.14499356 -0.49182832
v -0.30070513 0.15158418 -0.49060008
v -0.31075752 0.13207862 -0.49069968
v -0.31162292 0.13394263 -0.48499000
v -0.30902666 0.12695259 -0.33441436
v -0.30529863 0.13540721 -0.33441436
v -0.30150402 0.14273012 -0.33441436
v -0.29850829 0.14818901 -0.33441436
v -0.29478025 0.15497935 -0.33441436
v -0.28825623 0.16682914 -0.33441436
v -0.28046727 0.18087581 -0.33441436
v -0.27753812 0.18586870 -0.33441436
v -0.27254522 0.19312502 -0.33441436
v 0.29471374 0.15497935 -0.33441436
v 0.30123776 0.14239725 -0.33441436
v 0.30529863 0.13454178 -0.33441436
v 0.30882692 0.12735201 -0.33441436
v 0.31162298 0.13334349 -0.48499000
v 0.30236948 0.14499356 -0.49169555
v 0.30543178 0.13500778 -0.49312297
v 0.28432852 0.16476540 -0.49689066
v 0.31528443 0.12495542 -0.48499000
v 0.31215554 0.12495542 -0.49169555
v 0.29438084 0.14486042 -0.49704006
v -0.19472273 -0.26462317 -0.49713963
v -0.20457536 -0.26475632 -0.49234286
v -0.23300155 -0.24245475 -0.49146318
v -0.23486556 -0.23486556 -0.49488235
v -0.24272105 -0.23300155 -0.49162915
v -0.23732872 -0.22494635 -0.49863344
v -0.23965874 -0.21955404 -0.49987829
v -0.19126098 -0.26102829 -0.50044262
v -0.18054292 -0.27034837 -0.50019366
v -0.18720010 -0.26768547 -0.49884921
v -0.18427093 -0.26462317 -0.50105673
v -0.24565020 -0.22554550 -0.49365410
v -0.27420956 -0.18427093 -0.49617696
v -0.28166562 -0.18493666 -0.49119762
v -0.28532702 -0.17475116 -0.49284080
v -0.27680582 -0.17495088 -0.49820191
v -0.27866983 -0.16796082 -0.49938035
v -0.30549830 -0.13500775 -0.49312297
v -0.28432846 -0.16476537 -0.49689066
v -0.29438084 -0.14486039 -0.49704006
v -0.12861685 -0.29930717 -0.49971229
v -0.14159836 -0.29078597 -0.50040942
v -0.16110392 -0.28053385 -0.50030982
v -0.31075752 -0.13174573 -0.49063328
v -0.31215549 -0.12495539 -0.49169555
v -0.32027727 -0.11110844 -0.47928035
v -0.33079565 -0.07289619 -0.47823471
v -0.32027727 -0.11110844 -0.48264971
v -0.32766676 -0.06497414 -0.33441436
v -0.32779992 -0.06437499 -0.33441436
v -0.32946420 -0.05498835 -0.33441436
v -0.34004915 -0.00053256 -0.47987789
v -0.34004915 -0.00053256 -0.48052520
v -0.31528437 -0.12495539 -0.48499000
v -0.31874615 -0.11463676 -0.48558754
v -0.34004915 0.00193060 -0.48052520
v -0.33858454 0.01497869 -0.48499000
v 0.18427096 -0.26449007 -0.50099033
v 0.21575947 -0.23579757 -0.50191981
v 0.18047637 -0.27034837 -0.50019366
v 0.17495091 -0.27181298 -0.50074136
v 0.16476540 -0.27520812 -0.50145507
v 0.16130367 -0.28060043 -0.50032640
v 0.12835059 -0.29897428 -0.49952972
v 0.23007242 -0.23007239 -0.50004429
v 0.22494638 -0.23233584 -0.50070816
v 0.25483716 -0.19472273 -0.50137210
v 0.12502199 -0.30443317 -0.49707323
v 0.11496965 -0.30669659 -0.49795294
v 0.07316250 -0.33086222 -0.48499000
v 0.06497417 -0.33285934 -0.48499000
v 0.05498838 -0.33445710 -0.48499000
v 0.10285357 -0.32061017 -0.49060008
v 0.10951075 -0.31981128 -0.48932207
v 0.01497869 -0.33805197 -0.48499000
v 0.11496965 -0.31395298 -0.49295700
v 0.00432719 -0.33911711 -0.48430949
v -0.00512602 -0.33938342 -0.48430949
v -0.00499288 -0.33425736 -0.49325573
v -0.01497866 -0.32673478 -0.49800274
v -0.05538779 -0.32413846 -0.49700686
v -0.01497866 -0.33385795 -0.49300677
v -0.06497414 -0.32493728 -0.49549645
v -0.06497414 -0.31907898 -0.49959612
v -0.07495992 -0.31768095 -0.49873304
v -0.07515963 -0.32573617 -0.49327233
v -0.09499805 -0.31428581 -0.49694046
v -0.12515511 -0.30430001 -0.49712303
v -0.31581694 0.10551644 -0.49347150
v -0.31368667 0.11496965 -0.49275780
v -0.31195581 0.12495542 -0.49161255
v -0.32061017 0.10252070 -0.49058348
v -0.33046275 0.07196421 -0.49045071
v -0.33092880 0.06497417 -0.49089885
v 0.32027733 0.11110847 -0.48264971
v 0.32027733 0.11110847 -0.47928035
v 0.33079565 0.07289622 -0.47823471
v 0.32766682 0.06497417 -0.33441436
v 0.32779992 0.06437502 -0.33441436
v 0.32946426 0.05498838 -0.33441436
v 0.34004915 0.00053259 -0.47987789
v 0.34004915 0.00053259 -0.48052520
v 0.31874615 0.11463679 -0.48558754
v 0.34004915 -0.00193057 -0.48052520
v 0.33858460 -0.01497866 -0.48499000
v 0.33385795 -0.01497866 -0.49300677
v 0.32413846 -0.05538779 -0.49700686
v 0.31907904 -0.06497414 -0.49959612
v 0.32493734 -0.06497414 -0.49549645
v 0.31428581 -0.09499805 -0.49694046
v 0.30430007 -0.12515511 -0.49712303
v 0.31768101 -0.07495992 -0.49873304
v 0.32573622 -0.07515963 -0.49327233
v 0.29930717 -0.12861685 -0.49971229
v 0.29078597 -0.14159836 -0.50040942
v 0.28053391 -0.16110392 -0.50030982
v 0.27034843 -0.18054292 -0.50019366
v 0.26462322 -0.18427093 -0.50105673
v -0.31974471 0.10917789 -0.48862493
v -0.31495154 0.12495542 -0.48499000
v -0.32021070 0.11064247 -0.47951272
v -0.32999676 0.08015256 -0.47986129
v -0.31062436 0.12195969 -0.33441436
v 0.31095725 0.12235913 -0.33441436
v -0.19412358 -0.27447581 -0.49174535
v -0.20098048 -0.27081436 -0.49055028
v -0.23965874 -0.23965874 -0.48887390
v -0.25197452 -0.22254977 -0.49123082
v -0.15491274 -0.29537940 -0.49302337
v -0.18493666 -0.28159904 -0.49114782
v -0.19026241 -0.28013444 -0.49015194
v -0.13494118 -0.29757625 -0.49865004
v -0.13527404 -0.30563146 -0.49333873
v -0.28006786 -0.19006269 -0.49005234
v -0.29051965 -0.17122285 -0.49046731
v -0.13207859 -0.31075752 -0.49069968
v -0.30915976 -0.13840291 -0.48499000
v -0.31162292 -0.13341002 -0.48499000
v -0.31641608 -0.10445126 -0.33441436
v -0.32021070 -0.09133660 -0.33441436
v -0.32493728 -0.07495992 -0.33441436
v -0.31095719 -0.12235910 -0.33441436
v -0.31335378 -0.11496962 -0.33441436
v -0.33126163 -0.03435107 -0.33441436
v -0.34004915 0.00193060 -0.47987789
v -0.33206052 -0.02496444 -0.33441436
v -0.33379138 -0.00439373 -0.33441436
v -0.33405769 0.00499291 -0.33441436
v -0.30882692 -0.12735198 -0.33441436
v -0.33279282 0.06497417 -0.48499000
v 0.21955407 -0.23965874 -0.49987829
v 0.18427096 -0.27420956 -0.49617696
v 0.18493669 -0.28166562 -0.49119762
v 0.17475119 -0.28532702 -0.49284080
v 0.17495091 -0.27680582 -0.49820191
v 0.16796085 -0.27866983 -0.49938035
v 0.22554553 -0.24565020 -0.49365410
v 0.16476540 -0.28432846 -0.49689066
v 0.14486042 -0.29438084 -0.49704006
v 0.13500778 -0.30549830 -0.49312297
v 0.23486559 -0.23486556 -0.49488235
v 0.23300157 -0.24272105 -0.49162915
v 0.22494638 -0.23732872 -0.49863344
v 0.26102835 -0.19126098 -0.50044262
v 0.26768553 -0.18720010 -0.49884921
v 0.26462322 -0.19472273 -0.49713963
v 0.26475638 -0.20457536 -0.49234286
v 0.24245478 -0.23300155 -0.49146318
v 0.13174576 -0.31075752 -0.49063328
v 0.12495542 -0.31215549 -0.49169555
v 0.11110847 -0.32027727 -0.47928035
v 0.07289622 -0.33079565 -0.47823471
v 0.11110847 -0.32027727 -0.48264971
v 0.06557331 -0.32753360 -0.33441436
v 0.06497417 -0.32766676 -0.33441436
v 0.05498838 -0.32946420 -0.33441436
v 0.00053259 -0.34004915 -0.47987789
v 0.00053259 -0.34004915 -0.48052520
v 0.12495542 -0.31528437 -0.48499000
v 0.11463679 -0.31874615 -0.48558754
v -0.00193057 -0.34004915 -0.48052520
v -0.01497866 -0.33858454 -0.48499000
v -0.06497414 -0.33092880 -0.49089885
v -0.07196418 -0.33046275 -0.49045071
v -0.10252067 -0.32061017 -0.49058348
v -0.10551641 -0.31581694 -0.49347150
v -0.11496962 -0.31368667 -0.49275780
v -0.12495539 -0.31195581 -0.49161255
v -0.33092880 0.07515966 -0.48437589
v -0.32953078 0.07868797 -0.48729712
v 0.31641614 0.10445129 -0.33441436
v 0.32021075 0.09133663 -0.33441436
v 0.32493734 0.07495995 -0.33441436
v 0.31335384 0.11496965 -0.33441436
v 0.33126169 0.03435110 -0.33441436
v 0.33379138 0.00439376 -0.33441436
v 0.33405769 -0.00499288 -0.33441436
v 0.34004915 -0.00193057 -0.47987789
v 0.33206052 0.02496447 -0.33441436
v 0.33279282 -0.06497414 -0.48499000
v 0.33046281 -0.07196418 -0.49045071
v 0.33092880 -0.06497414 -0.49089885
v 0.31581700 -0.10551641 -0.49347150
v 0.31368667 -0.11496962 -0.49275780
v 0.31195581 -0.12495539 -0.49161255
v 0.31075752 -0.13207859 -0.49069968
v 0.32061017 -0.10252067 -0.49058348
v 0.30563152 -0.13527404 -0.49333873
v 0.29757631 -0.13494118 -0.49865004
v 0.29537940 -0.15491274 -0.49302337
v 0.28159904 -0.18493666 -0.49114782
v 0.28013450 -0.19026241 -0.49015194
v -0.32021070 0.11064247 -0.48195261
v -0.32999676 0.08015256 -0.48062479
v -0.32773334 0.06497417 -0.33441436
v -0.32553649 0.07495995 -0.33441436
v -0.31601667 0.10498387 -0.33441436
v -0.20211220 -0.27174640 -0.48499000
v -0.23579757 -0.24351990 -0.48532197
v -0.24032445 -0.24025789 -0.48220158
v -0.24485135 -0.23486556 -0.48447549
v -0.24937823 -0.22927353 -0.48674938
v -0.14499353 -0.30256915 -0.49182832
v -0.17088999 -0.29045308 -0.49038431
v -0.13893549 -0.30949265 -0.48499000
v -0.15810819 -0.29890770 -0.48499000
v -0.17714775 -0.28838933 -0.48499000
v -0.18493666 -0.28406221 -0.48499000
v -0.19099469 -0.28066701 -0.48499000
v -0.19598758 -0.27673930 -0.48499000
v -0.28053385 -0.19066183 -0.48499000
v -0.28432846 -0.18493666 -0.48499000
v -0.28872222 -0.17768033 -0.48499000
v -0.10917787 -0.31974471 -0.48862493
v -0.12495539 -0.31495154 -0.48499000
v -0.13394260 -0.31162292 -0.48499000
v -0.15158415 -0.30070513 -0.49060008
v -0.28459477 -0.17448488 -0.33441436
v -0.29471368 -0.15497932 -0.33441436
v -0.30123770 -0.14239722 -0.33441436
v -0.30529863 -0.13454175 -0.33441436
v -0.33332539 0.01497869 -0.33441436
v -0.33226019 0.02496447 -0.33441436
v -0.33219367 0.02556362 -0.33441436
v -0.32973051 0.04766548 -0.33441436
v 0.19006272 -0.28006786 -0.49005234
v 0.17122288 -0.29051965 -0.49046731
v 0.22254980 -0.25197452 -0.49123082
v 0.23965877 -0.23965874 -0.48887390
v 0.27447587 -0.19412358 -0.49174535
v 0.27081442 -0.20098048 -0.49055028
v 0.13840294 -0.30915976 -0.48499000
v 0.13341005 -0.31162292 -0.48499000
v 0.12235913 -0.31095719 -0.33441436
v 0.11496965 -0.31335378 -0.33441436
v 0.10558301 -0.31608325 -0.33441436
v 0.08534516 -0.32194155 -0.33441436
v 0.07495995 -0.32493728 -0.33441436
v 0.04986235 -0.32993019 -0.33441436
v 0.00552548 -0.33372480 -0.33441436
v -0.00439373 -0.33405769 -0.33441436
v -0.00193057 -0.34004915 -0.47987789
v 0.15005302 -0.30003941 -0.34958479
v -0.06497414 -0.33279282 -0.48499000
v -0.07515963 -0.33092880 -0.48437589
v -0.07868794 -0.32953078 -0.48728052
v 0.33332539 -0.01497866 -0.33441436
v 0.33079565 -0.05498835 -0.35501230
v 0.33112854 -0.05498835 -0.36500418
v 0.32999682 -0.06004782 -0.34985036
v 0.32999682 -0.08015253 -0.47986129
v 0.33092880 -0.07515963 -0.48437589
v 0.32953078 -0.07868794 -0.48728052
v 0.31974477 -0.10917787 -0.48862493
v 0.31495154 -0.12495539 -0.48499000
v 0.31162298 -0.13394260 -0.48499000
v 0.30949265 -0.13893549 -0.48499000
v 0.30070519 -0.15158415 -0.49060008
v 0.30256921 -0.14499353 -0.49182832
v 0.29045314 -0.17088999 -0.49038431
v 0.29890776 -0.15810819 -0.48499000
v 0.28838938 -0.17714775 -0.48499000
v 0.28406221 -0.18493666 -0.48499000
v 0.28066707 -0.19099469 -0.48499000
v 0.27673930 -0.19598758 -0.48499000
v 0.27174640 -0.20211220 -0.48499000
v -0.19106127 -0.28073359 -0.47858325
v -0.24032445 -0.24025789 -0.47944635
v -0.24997738 -0.23000582 -0.48007706
v -0.12695256 -0.30902666 -0.33441436
v -0.13494118 -0.30549830 -0.33441436
v -0.14273009 -0.30150402 -0.33441436
v -0.28066701 -0.19079499 -0.47884881
v -0.28106642 -0.18094234 -0.33441436
v -0.11064244 -0.32021070 -0.48195261
v -0.08015253 -0.32999676 -0.48062479
v -0.11064244 -0.32021070 -0.47951272
v 0.19066186 -0.28053385 -0.48499000
v 0.18493669 -0.28432846 -0.48499000
v 0.17768036 -0.28872222 -0.48499000
v 0.22927356 -0.24937823 -0.48674938
v 0.24351993 -0.23579757 -0.48532197
v 0.24025792 -0.24032445 -0.48220158
v 0.23486559 -0.24485135 -0.48447549
v 0.16476540 -0.29251683 -0.34500378
v 0.12735201 -0.30882692 -0.33441436
v -0.00499288 -0.33405769 -0.33441436
v -0.01437951 -0.33339196 -0.33441436
v -0.02436529 -0.33232677 -0.33441436
v -0.04293885 -0.33026308 -0.33441436
v -0.04766545 -0.32973051 -0.33441436
v -0.04493600 -0.33252650 -0.40500501
v 0.15404734 -0.29784256 -0.34575069
v -0.06497414 -0.32773334 -0.33441436
v -0.08015253 -0.32999676 -0.47986129
v 0.32813281 -0.06497414 -0.33441436
v 0.32693452 -0.07495992 -0.34500378
v 0.32999682 -0.08015253 -0.48062479
v 0.32453793 -0.08494570 -0.34500378
v 0.32174188 -0.09499805 -0.34500378
v 0.32014418 -0.10039037 -0.34500378
v 0.32021075 -0.11064244 -0.47951272
v 0.32021075 -0.11064244 -0.48195261
v 0.30982554 -0.12934914 -0.34500378
v 0.30736238 -0.13494118 -0.34500378
v 0.28159904 -0.18247350 -0.34500378
v 0.28073364 -0.19106127 -0.47858325
v 0.24025792 -0.24032445 -0.47944635
v -0.15497932 -0.29478025 -0.33441436
v -0.16682911 -0.28825623 -0.33441436
v -0.18054292 -0.28066701 -0.33441436
v -0.18586867 -0.27753812 -0.33441436
v -0.19312499 -0.27254522 -0.33441436
v -0.19345786 -0.27227896 -0.33441436
v -0.19811788 -0.26841778 -0.33441436
v -0.20910224 -0.25923085 -0.33441436
v -0.21462771 -0.25457084 -0.33441436
v -0.23093782 -0.24079046 -0.33441436
v -0.23593071 -0.23633015 -0.33441436
v -0.24118990 -0.23133725 -0.33441436
v -0.24997738 -0.23000582 -0.47997746
v -0.12156023 -0.31075752 -0.33441436
v -0.27221239 -0.19272557 -0.33441436
v -0.27720529 -0.18626809 -0.33441436
v -0.28066701 -0.18160807 -0.33441436
v 0.19079502 -0.28066701 -0.47884881
v 0.23000585 -0.24997738 -0.48007706
v 0.16975830 -0.28985393 -0.34500378
v 0.16869316 -0.28885537 -0.33441436
v 0.16330083 -0.29178452 -0.33501190
v 0.15497935 -0.29577881 -0.33441436
v -0.07436077 -0.32566959 -0.33441436
v -0.07495992 -0.32553649 -0.33441436
v -0.08441313 -0.32254070 -0.33441436
v -0.10498384 -0.31601667 -0.33441436
v 0.32620221 -0.07495992 -0.33441436
v 0.32626879 -0.07495992 -0.33501190
v 0.32606906 -0.07555906 -0.33441436
v 0.32001102 -0.10012408 -0.33980867
v 0.31841332 -0.10538326 -0.34500378
v 0.30942607 -0.12808427 -0.33501190
v 0.30643034 -0.13494118 -0.33501190
v 0.30616409 -0.13540718 -0.33441436
v 0.28106648 -0.18167463 -0.33501190
v 0.27780443 -0.18666753 -0.33501190
v 0.27747160 -0.18706696 -0.33441436
v 0.27800417 -0.18746638 -0.34500378
v 0.26096177 -0.21123254 -0.35501230
v 0.25157511 -0.22181748 -0.34500378
v 0.24711482 -0.22687694 -0.34500378
v 0.24212193 -0.23240240 -0.34500378
v 0.23746189 -0.23739530 -0.34500378
v 0.23246901 -0.24218847 -0.34500378
v 0.23000585 -0.24997738 -0.47997746
v -0.24618278 -0.22527921 -0.33441436
v -0.24997738 -0.22055261 -0.33441436
v -0.26349145 -0.20364335 -0.33441436
v 0.21123257 -0.26096171 -0.36500418
v 0.19432332 -0.27327752 -0.35501230
v 0.18739985 -0.27807069 -0.34500378
v 0.18240696 -0.28159904 -0.34500378
v 0.18180782 -0.28119957 -0.33441436
v 0.17535034 -0.28506076 -0.33441436
v 0.16323425 -0.29171795 -0.33441436
v 0.32340616 -0.08494570 -0.33441436
v 0.32074332 -0.09399948 -0.33441436
v 0.31708187 -0.10551641 -0.33441436
v 0.30949265 -0.12775141 -0.33441436
v 0.30915982 -0.12855028 -0.33441436
v 0.28099990 -0.18160807 -0.33441436
v 0.27274501 -0.19319157 -0.33441436
v 0.26062894 -0.21076654 -0.34790841
v 0.25077629 -0.22088547 -0.33441436
v 0.24644910 -0.22587836 -0.33441436
v 0.24145621 -0.23160355 -0.33441436
v 0.23692933 -0.23666300 -0.33501190
v 0.23659647 -0.23692930 -0.33441436
v 0.23186986 -0.24165590 -0.33441436
v 0.23186986 -0.24172246 -0.33501190
v 0.22181751 -0.25164169 -0.35501230
v 0.18680070 -0.27753812 -0.33441436
f 1 2 12
f 1 12 3
f 1 3 15
f 1 15 4
f 1 4 5
f 1 5 6
f 1 6 7
f 1 7 8
f 1 8 9
f 1 9 10
f 1 10 11
f 1 11 2
f 2 11 13
f 2 13 12
f 3 14 15
f 3 12 16
f 3 16 17
f 3 17 18
f 3 18 14
f 4 15 14
f 4 14 18
f 4 18 17
f 4 17 33
f 4 33 60
f 4 60 97
f 4 97 127
f 4 127 126
f 4 126 125
f 4 125 124
f 4 124 134
f 4 134 160
f 4 160 159
f 4 159 164
f 4 164 163
f 4 163 162
f 4 162 229
f 4 229 328
f 4 328 327
f 4 327 326
f 4 326 450
f 4 450 453
f 4 453 452
f 4 452 585
f 4 585 584
f 4 584 583
f 4 583 582
f 4 582 600
f 4 600 599
f 4 599 598
f 4 598 597
f 4 597 596
f 4 596 595
f 4 595 594
f 4 594 593
f 4 593 592
f 4 592 714
f 4 714 808
f 4 808 807
f 4 807 806
f 4 806 836
f 4 836 835
f 4 835 834
f 4 834 833
f 4 833 739
f 4 739 738
f 4 738 737
f 4 737 735
f 4 735 642
f 4 642 641
f 4 641 640
f 4 640 732
f 4 732 731
f 4 731 730
f 4 730 734
f 4 734 733
f 4 733 740
f 4 740 832
f 4 832 831
f 4 831 830
f 4 830 829
f 4 829 885
f 4 885 936
f 4 936 935
f 4 935 934
f 4 934 968
f 4 968 967
f 4 967 966
f 4 966 931
f 4 931 930
f 4 930 929
f 4 929 928
f 4 928 927
f 4 927 926
f 4 926 925
f 4 925 924
f 4 924 923
f 4 923 922
f 4 922 921
f 4 921 920
f 4 920 883
f 4 883 882
f 4 882 881
f 4 881 933
f 4 933 946
f 4 946 945
f 4 945 944
f 4 944 943
f 4 943 905
f 4 905 902
f 4 902 901
f 4 901 900
f 4 900 899
f 4 899 898
f 4 898 852
f 4 852 851
f 4 851 850
f 4 850 767
f 4 767 766
f 4 766 765
f 4 765 849
f 4 849 848
f 4 848 847
f 4 847 846
f 4 846 845
f 4 845 897
f 4 897 942
f 4 942 975
f 4 975 940
f 4 940 974
f 4 974 973
f 4 973 992
f 4 992 989
f 4 989 988
f 4 988 986
f 4 986 985
f 4 985 984
f 4 984 982
f 4 982 957
f 4 957 981
f 4 981 954
f 4 954 980
f 4 980 979
f 4 979 978
f 4 978 977
f 4 977 976
f 4 976 949
f 4 949 947
f 4 947 907
f 4 907 858
f 4 858 788
f 4 788 787
f 4 787 790
f 4 790 786
f 4 786 691
f 4 691 690
f 4 690 689
f 4 689 784
f 4 784 783
f 4 783 782
f 4 782 785
f 4 785 715
f 4 715 604
f 4 604 603
f 4 603 602
f 4 602 601
f 4 601 474
f 4 474 473
f 4 473 472
f 4 472 471
f 4 471 346
f 4 346 345
f 4 345 344
f 4 344 342
f 4 342 242
f 4 242 248
f 4 248 247
f 4 247 246
f 4 246 245
f 4 245 241
f 4 241 179
f 4 179 178
f 4 178 177
f 4 177 176
f 4 176 175
f 4 175 171
f 4 171 135
f 4 135 98
f 4 98 62
f 4 62 38
f 4 38 37
f 4 37 36
f 4 36 34
f 4 34 19
f 4 19 9
f 4 9 8
f 4 8 7
f 4 7 6
f 4 6 5
f 9 19 20
f 9 20 10
f 10 20 21
f 10 21 22
f 10 22 11
f 11 22 23
f 11 23 24
f 11 24 25
f 11 25 13
f 12 13 26
f 12 26 16
f 13 25 27
f 13 27 26
f 16 28 29
f 16 29 30
f 16 30 31
f 16 31 17
f 16 26 32
f 16 32 28
f 17 31 33
f 19 34 20
f 20 35 21
f 20 34 36
f 20 36 37
f 20 37 38
f 20 38 39
f 20 39 61
f 20 61 35
f 21 35 40
f 21 40 22
f 22 41 42
f 22 42 23
f 22 40 43
f 22 43 44
f 22 44 41
f 23 42 45
f 23 45 24
f 24 46 47
f 24 47 48
f 24 48 25
f 24 45 49
f 24 49 46
f 25 48 27
f 26 27 32
f 27 50 51
f 27 51 52
f 27 52 28
f 27 28 32
f 27 48 50
f 28 52 53
f 28 53 29
f 29 53 30
f 30 54 31
f 30 53 55
f 30 55 56
f 30 56 57
f 30 57 58
f 30 58 54
f 31 54 59
f 31 59 60
f 31 60 33
f 35 61 43
f 35 43 40
f 38 62 39
f 39 62 63
f 39 63 64
f 39 64 61
f 41 65 66
f 41 66 67
f 41 67 68
f 41 68 42
f 41 44 69
f 41 69 65
f 42 68 49
f 42 49 45
f 43 61 64
f 43 64 70
f 43 70 44
f 44 70 71
f 44 71 69
f 46 72 73
f 46 73 47
f 46 49 74
f 46 74 72
f 47 73 48
f 48 75 76
f 48 76 50
f 48 73 77
f 48 77 78
f 48 78 79
f 48 79 75
f 49 68 80
f 49 80 81
f 49 81 74
f 50 76 82
f 50 82 51
f 51 83 53
f 51 53 52
f 51 82 84
f 51 84 83
f 53 83 85
f 53 85 86
f 53 86 87
f 53 87 88
f 53 88 89
f 53 89 56
f 53 56 55
f 54 58 90
f 54 90 91
f 54 91 59
f 56 89 88
f 56 88 92
f 56 92 57
f 57 92 93
f 57 93 58
f 58 93 94
f 58 94 95
f 58 95 96
f 58 96 90
f 59 91 60
f 60 91 97
f 62 98 99
f 62 99 63
f 63 70 64
f 63 99 70
f 65 69 100
f 65 100 66
f 66 101 102
f 66 102 68
f 66 68 67
f 66 100 103
f 66 103 104
f 66 104 101
f 68 102 80
f 69 71 105
f 69 105 100
f 70 106 107
f 70 107 108
f 70 108 100
f 70 100 71
f 70 99 109
f 70 109 106
f 71 100 105
f 72 110 73
f 72 74 111
f 72 111 110
f 73 110 112
f 73 112 77
f 74 81 111
f 75 113 76
f 75 79 114
f 75 114 113
f 76 115 116
f 76 116 82
f 76 113 115
f 77 112 114
f 77 114 78
f 78 114 79
f 80 102 101
f 80 101 81
f 81 101 111
f 82 116 117
f 82 117 84
f 83 84 85
f 84 117 118
f 84 118 85
f 85 118 119
f 85 119 120
f 85 120 86
f 86 120 87
f 87 120 121
f 87 121 122
f 87 122 88
f 88 122 123
f 88 123 92
f 90 96 95
f 90 95 91
f 91 95 124
f 91 124 125
f 91 125 126
f 91 126 127
f 91 127 97
f 92 123 128
f 92 128 93
f 93 128 94
f 94 129 130
f 94 130 95
f 94 128 131
f 94 131 132
f 94 132 133
f 94 133 129
f 95 130 134
f 95 134 124
f 98 135 99
f 99 135 136
f 99 136 137
f 99 137 138
f 99 138 139
f 99 139 109
f 100 108 103
f 101 104 111
f 103 108 140
f 103 140 104
f 104 140 141
f 104 141 142
f 104 142 111
f 106 109 139
f 106 139 143
f 106 143 107
f 107 144 108
f 107 143 145
f 107 145 144
f 108 144 145
f 108 145 146
f 108 146 147
f 108 147 148
f 108 148 140
f 110 111 112
f 111 149 114
f 111 114 112
f 111 142 149
f 113 114 149
f 113 149 118
f 113 118 115
f 115 118 116
f 116 118 117
f 118 150 151
f 118 151 152
f 118 152 153
f 118 153 119
f 118 149 154
f 118 154 206
f 118 206 150
f 119 153 155
f 119 155 120
f 120 155 156
f 120 156 122
f 120 122 121
f 122 156 157
f 122 157 158
f 122 158 128
f 122 128 123
f 128 158 131
f 129 159 160
f 129 160 134
f 129 134 130
f 129 133 161
f 129 161 162
f 129 162 163
f 129 163 164
f 129 164 159
f 131 158 165
f 131 165 166
f 131 166 132
f 132 166 167
f 132 167 168
f 132 168 169
f 132 169 133
f 133 169 170
f 133 170 161
f 135 171 136
f 136 172 173
f 136 173 174
f 136 174 137
f 136 171 175
f 136 175 176
f 136 176 177
f 136 177 178
f 136 178 179
f 136 179 180
f 136 180 181
f 136 181 182
f 136 182 172
f 137 174 138
f 138 174 173
f 138 173 172
f 138 172 182
f 138 182 181
f 138 181 183
f 138 183 184
f 138 184 185
f 138 185 186
f 138 186 145
f 138 145 187
f 138 187 139
f 139 187 143
f 140 148 141
f 141 188 189
f 141 189 142
f 141 148 190
f 141 190 191
f 141 191 188
f 142 189 149
f 143 187 145
f 145 186 192
f 145 192 193
f 145 193 194
f 145 194 195
f 145 195 190
f 145 190 148
f 145 148 146
f 146 148 147
f 149 189 188
f 149 188 196
f 149 196 154
f 150 197 198
f 150 198 199
f 150 199 200
f 150 200 201
f 150 201 202
f 150 202 203
f 150 203 204
f 150 204 205
f 150 205 151
f 150 206 207
f 150 207 197
f 151 205 208
f 151 208 209
f 151 209 210
f 151 210 211
f 151 211 212
f 151 212 152
f 152 213 155
f 152 155 153
f 152 212 214
f 152 214 213
f 154 196 215
f 154 215 216
f 154 216 217
f 154 217 218
f 154 218 219
f 154 219 220
f 154 220 221
f 154 221 222
f 154 222 223
f 154 223 206
f 155 157 156
f 155 213 224
f 155 224 157
f 157 224 225
f 157 225 158
f 158 225 226
f 158 226 166
f 158 166 165
f 161 170 227
f 161 227 228
f 161 228 229
f 161 229 162
f 166 226 167
f 167 226 168
f 168 230 169
f 168 226 225
f 168 225 231
f 168 231 232
f 168 232 233
f 168 233 234
f 168 234 235
f 168 235 236
f 168 236 230
f 169 230 170
f 170 237 227
f 170 230 236
f 170 236 238
f 170 238 239
f 170 239 240
f 170 240 237
f 179 241 180
f 180 242 243
f 180 243 343
f 180 343 244
f 180 244 181
f 180 241 245
f 180 245 246
f 180 246 247
f 180 247 248
f 180 248 242
f 181 244 249
f 181 249 183
f 183 250 251
f 183 251 252
f 183 252 184
f 183 249 244
f 183 244 253
f 183 253 254
f 183 254 255
f 183 255 250
f 184 252 256
f 184 256 185
f 185 257 186
f 185 256 257
f 186 257 192
f 188 191 258
f 188 258 196
f 190 195 191
f 191 195 259
f 191 259 260
f 191 260 261
f 191 261 258
f 192 256 252
f 192 252 262
f 192 262 251
f 192 251 263
f 192 263 264
f 192 264 265
f 192 265 266
f 192 266 267
f 192 267 193
f 192 257 256
f 193 267 194
f 194 267 259
f 194 259 195
f 196 258 268
f 196 268 269
f 196 269 215
f 197 270 271
f 197 271 272
f 197 272 198
f 197 207 273
f 197 273 270
f 198 272 199
f 199 272 274
f 199 274 200
f 200 274 275
f 200 275 276
f 200 276 277
f 200 277 201
f 201 277 278
f 201 278 279
f 201 279 202
f 202 279 203
f 203 279 280
f 203 280 204
f 204 280 205
f 205 280 281
f 205 281 208
f 206 223 282
f 206 282 283
f 206 283 284
f 206 284 285
f 206 285 286
f 206 286 287
f 206 287 288
f 206 288 289
f 206 289 290
f 206 290 207
f 207 290 291
f 207 291 292
f 207 292 293
f 207 293 294
f 207 294 273
f 208 281 295
f 208 295 296
f 208 296 297
f 208 297 298
f 208 298 209
f 209 299 300
f 209 300 210
f 209 298 301
f 209 301 302
f 209 302 303
f 209 303 304
f 209 304 299
f 210 300 305
f 210 305 211
f 211 305 212
f 212 306 214
f 212 305 306
f 213 307 232
f 213 232 224
f 213 214 308
f 213 308 309
f 213 309 307
f 214 306 310
f 214 310 311
f 214 311 308
f 215 269 216
f 216 269 312
f 216 312 217
f 217 312 313
f 217 313 314
f 217 314 315
f 217 315 218
f 218 315 316
f 218 316 317
f 218 317 219
f 219 317 220
f 220 317 318
f 220 318 221
f 221 318 222
f 222 318 319
f 222 319 320
f 222 320 223
f 223 320 321
f 223 321 322
f 223 322 323
f 223 323 324
f 223 324 282
f 224 232 325
f 224 325 225
f 225 325 231
f 227 237 228
f 228 326 327
f 228 327 328
f 228 328 229
f 228 237 329
f 228 329 330
f 228 330 326
f 231 325 232
f 232 307 233
f 233 307 234
f 234 311 331
f 234 331 235
f 234 307 311
f 235 331 332
f 235 332 333
f 235 333 236
f 236 333 334
f 236 334 238
f 237 240 329
f 238 334 239
f 239 334 335
f 239 335 336
f 239 336 337
f 239 337 338
f 239 338 339
f 239 339 340
f 239 340 341
f 239 341 240
f 240 341 329
f 242 342 243
f 243 342 344
f 243 344 345
f 243 345 346
f 243 346 347
f 243 347 343
f 244 343 253
f 250 348 251
f 250 255 348
f 251 348 263
f 251 262 252
f 253 343 254
f 254 343 349
f 254 349 255
f 255 349 350
f 255 350 351
f 255 351 352
f 255 352 353
f 255 353 354
f 255 354 348
f 258 261 266
f 258 266 355
f 258 355 268
f 259 267 266
f 259 266 260
f 260 266 261
f 263 348 264
f 264 348 356
f 264 356 357
f 264 357 265
f 265 357 266
f 266 357 358
f 266 358 359
f 266 359 355
f 268 359 358
f 268 358 360
f 268 360 361
f 268 361 269
f 268 355 359
f 269 362 363
f 269 363 312
f 269 361 362
f 270 364 365
f 270 365 366
f 270 366 271
f 270 273 367
f 270 367 364
f 271 368 369
f 271 369 370
f 271 370 371
f 271 371 272
f 271 366 368
f 272 372 373
f 272 373 274
f 272 371 372
f 273 294 374
f 273 374 367
f 274 373 375
f 274 375 376
f 274 376 377
f 274 377 275
f 275 377 276
f 276 378 379
f 276 379 380
f 276 380 381
f 276 381 382
f 276 382 383
f 276 383 384
f 276 384 278
f 276 278 277
f 276 377 385
f 276 385 378
f 278 386 279
f 278 384 387
f 278 387 386
f 279 386 280
f 280 386 388
f 280 388 281
f 281 388 295
f 282 389 390
f 282 390 283
f 282 324 391
f 282 391 389
f 283 390 284
f 284 390 392
f 284 392 285
f 285 393 394
f 285 394 395
f 285 395 286
f 285 392 393
f 286 396 287
f 286 395 397
f 286 397 396
f 287 396 288
f 288 396 398
f 288 398 289
f 289 398 290
f 290 399 291
f 290 398 399
f 291 399 400
f 291 400 401
f 291 401 402
f 291 402 403
f 291 403 292
f 292 403 404
f 292 404 405
f 292 405 406
f 292 406 407
f 292 407 408
f 292 408 409
f 292 409 293
f 293 409 374
f 293 374 294
f 295 388 296
f 296 388 297
f 297 388 410
f 297 410 298
f 298 410 301
f 299 304 411
f 299 411 412
f 299 412 413
f 299 413 300
f 300 413 414
f 300 414 415
f 300 415 305
f 301 410 302
f 302 410 416
f 302 416 303
f 303 416 417
f 303 417 304
f 304 417 411
f 305 415 418
f 305 418 419
f 305 419 306
f 306 419 420
f 306 420 421
f 306 421 422
f 306 422 310
f 307 309 311
f 308 311 309
f 310 422 311
f 311 332 331
f 311 422 421
f 311 421 423
f 311 423 332
f 312 363 424
f 312 424 425
f 312 425 426
f 312 426 313
f 313 426 314
f 314 427 428
f 314 428 429
f 314 429 430
f 314 430 431
f 314 431 432
f 314 432 316
f 314 316 315
f 314 426 433
f 314 433 434
f 314 434 427
f 316 435 317
f 316 432 436
f 316 436 435
f 317 435 318
f 318 435 437
f 318 437 319
f 319 437 438
f 319 438 320
f 320 438 439
f 320 439 440
f 320 440 441
f 320 441 321
f 321 441 442
f 321 442 443
f 321 443 444
f 321 444 445
f 321 445 446
f 321 446 447
f 321 447 322
f 322 447 448
f 322 448 323
f 323 448 324
f 324 449 391
f 324 448 449
f 326 330 450
f 329 341 340
f 329 340 451
f 329 451 330
f 330 451 452
f 330 452 453
f 330 453 450
f 332 454 334
f 332 334 333
f 332 423 455
f 332 455 456
f 332 456 457
f 332 457 458
f 332 458 459
f 332 459 335
f 332 335 454
f 334 454 335
f 335 459 336
f 336 459 460
f 336 460 337
f 337 461 462
f 337 462 463
f 337 463 464
f 337 464 465
f 337 465 466
f 337 466 467
f 337 467 468
f 337 468 469
f 337 469 338
f 337 460 457
f 337 457 456
f 337 456 461
f 338 469 470
f 338 470 451
f 338 451 340
f 338 340 339
f 343 347 349
f 346 471 347
f 347 472 473
f 347 473 351
f 347 351 350
f 347 350 349
f 347 471 472
f 348 354 356
f 351 473 474
f 351 474 475
f 351 475 352
f 352 476 353
f 352 475 477
f 352 477 476
f 353 476 356
f 353 356 354
f 356 476 478
f 356 478 479
f 356 479 480
f 356 480 481
f 356 481 360
f 356 360 482
f 356 482 357
f 357 482 358
f 358 482 360
f 360 481 483
f 360 483 361
f 361 483 480
f 361 480 362
f 362 480 484
f 362 484 424
f 362 424 363
f 364 485 365
f 364 367 485
f 365 486 487
f 365 487 488
f 365 488 369
f 365 369 368
f 365 368 366
f 365 485 489
f 365 489 490
f 365 490 486
f 367 374 491
f 367 491 492
f 367 492 489
f 367 489 485
f 369 493 370
f 369 488 493
f 370 493 494
f 370 494 495
f 370 495 496
f 370 496 371
f 371 496 497
f 371 497 372
f 372 497 498
f 372 498 375
f 372 375 373
f 374 409 499
f 374 499 500
f 374 500 491
f 375 498 501
f 375 501 502
f 375 502 385
f 375 385 377
f 375 377 376
f 378 385 379
f 379 385 503
f 379 503 504
f 379 504 381
f 379 381 380
f 381 505 506
f 381 506 507
f 381 507 382
f 381 504 508
f 381 508 505
f 382 507 383
f 383 507 509
f 383 509 387
f 383 387 384
f 385 502 503
f 386 387 388
f 387 509 510
f 387 510 511
f 387 511 512
f 387 512 388
f 388 513 410
f 388 512 513
f 389 514 515
f 389 515 516
f 389 516 390
f 389 391 517
f 389 517 518
f 389 518 514
f 390 519 520
f 390 520 392
f 390 516 519
f 391 449 521
f 391 521 522
f 391 522 517
f 392 520 523
f 392 523 524
f 392 524 525
f 392 525 393
f 393 525 394
f 394 526 527
f 394 527 528
f 394 528 529
f 394 529 530
f 394 530 397
f 394 397 395
f 394 525 531
f 394 531 532
f 394 532 533
f 394 533 526
f 396 534 398
f 396 397 534
f 397 530 535
f 397 535 534
f 398 534 536
f 398 536 399
f 399 536 400
f 400 536 401
f 401 536 402
f 402 537 403
f 402 536 537
f 403 537 404
f 404 537 405
f 405 537 538
f 405 538 406
f 406 538 539
f 406 539 407
f 407 539 540
f 407 540 408
f 408 540 541
f 408 541 542
f 408 542 409
f 409 543 499
f 409 542 543
f 410 513 416
f 411 417 544
f 411 544 412
f 412 544 413
f 413 545 414
f 413 544 546
f 413 546 547
f 413 547 548
f 413 548 545
f 414 545 549
f 414 549 415
f 415 549 418
f 416 550 417
f 416 513 551
f 416 551 550
f 417 550 552
f 417 552 544
f 418 553 554
f 418 554 456
f 418 456 419
f 418 549 553
f 419 456 420
f 420 456 555
f 420 555 421
f 421 555 423
f 423 555 455
f 424 484 556
f 424 556 557
f 424 557 433
f 424 433 426
f 424 426 425
f 427 558 429
f 427 429 428
f 427 434 433
f 427 433 559
f 427 559 558
f 429 560 561
f 429 561 562
f 429 562 430
f 429 558 563
f 429 563 560
f 430 562 431
f 431 562 564
f 431 564 436
f 431 436 432
f 433 557 559
f 435 436 437
f 436 564 565
f 436 565 566
f 436 566 567
f 436 567 437
f 437 568 569
f 437 569 440
f 437 440 439
f 437 439 438
f 437 567 568
f 440 569 441
f 441 569 442
f 442 569 443
f 443 569 570
f 443 570 444
f 444 570 571
f 444 571 445
f 445 572 446
f 445 571 572
f 446 572 573
f 446 573 574
f 446 574 447
f 447 575 448
f 447 574 576
f 447 576 575
f 448 575 577
f 448 577 578
f 448 578 449
f 449 578 579
f 449 579 580
f 449 580 581
f 449 581 521
f 451 470 582
f 451 582 583
f 451 583 584
f 451 584 585
f 451 585 452
f 455 555 456
f 456 554 549
f 456 549 586
f 456 586 587
f 456 587 462
f 456 462 461
f 457 460 458
f 458 460 459
f 462 587 588
f 462 588 463
f 463 588 589
f 463 589 464
f 464 589 590
f 464 590 591
f 464 591 592
f 464 592 593
f 464 593 594
f 464 594 470
f 464 470 465
f 465 470 466
f 466 470 467
f 467 470 468
f 468 470 469
f 470 594 595
f 470 595 596
f 470 596 597
f 470 597 598
f 470 598 599
f 470 599 600
f 470 600 582
f 474 601 475
f 475 602 603
f 475 603 604
f 475 604 605
f 475 605 477
f 475 601 602
f 476 477 606
f 476 606 607
f 476 607 608
f 476 608 478
f 477 605 609
f 477 609 563
f 477 563 610
f 477 610 556
f 477 556 607
f 477 607 606
f 478 608 479
f 479 608 484
f 479 484 480
f 480 483 481
f 484 607 556
f 484 608 611
f 484 611 607
f 486 612 613
f 486 613 614
f 486 614 615
f 486 615 616
f 486 616 617
f 486 617 618
f 486 618 487
f 486 490 619
f 486 619 620
f 486 620 621
f 486 621 612
f 487 618 488
f 488 618 494
f 488 494 493
f 489 492 622
f 489 622 490
f 490 622 619
f 491 620 492
f 491 500 620
f 492 620 622
f 494 618 623
f 494 623 624
f 494 624 625
f 494 625 626
f 494 626 627
f 494 627 628
f 494 628 497
f 494 497 495
f 495 497 496
f 497 628 498
f 498 629 501
f 498 628 630
f 498 630 631
f 498 631 629
f 499 632 500
f 499 543 632
f 500 633 634
f 500 634 620
f 500 632 633
f 501 629 635
f 501 635 636
f 501 636 503
f 501 503 502
f 503 636 504
f 504 636 508
f 505 637 638
f 505 638 506
f 505 508 639
f 505 639 637
f 506 638 640
f 506 640 641
f 506 641 642
f 506 642 507
f 507 643 644
f 507 644 510
f 507 510 509
f 507 642 643
f 508 645 646
f 508 646 639
f 508 636 635
f 508 635 645
f 510 644 511
f 511 644 647
f 511 647 648
f 511 648 512
f 512 648 551
f 512 551 513
f 514 649 515
f 514 518 522
f 514 522 650
f 514 650 649
f 515 649 651
f 515 651 652
f 515 652 653
f 515 653 516
f 516 653 654
f 516 654 519
f 517 522 518
f 519 655 523
f 519 523 520
f 519 654 655
f 521 581 522
f 522 656 657
f 522 657 650
f 522 581 580
f 522 580 658
f 522 658 656
f 523 655 659
f 523 659 660
f 523 660 531
f 523 531 525
f 523 525 524
f 526 533 527
f 527 661 662
f 527 662 663
f 527 663 528
f 527 533 664
f 527 664 665
f 527 665 661
f 528 663 529
f 529 663 666
f 529 666 535
f 529 535 530
f 531 660 667
f 531 667 533
f 531 533 532
f 533 667 664
f 534 535 536
f 535 666 668
f 535 668 669
f 535 669 670
f 535 670 536
f 536 670 671
f 536 671 537
f 537 671 538
f 538 672 539
f 538 671 673
f 538 673 672
f 539 672 674
f 539 674 675
f 539 675 540
f 540 675 541
f 541 675 542
f 542 675 676
f 542 676 677
f 542 677 678
f 542 678 679
f 542 679 543
f 543 679 632
f 544 552 547
f 544 547 546
f 545 548 680
f 545 680 681
f 545 681 682
f 545 682 590
f 545 590 549
f 547 683 680
f 547 680 548
f 547 552 684
f 547 684 683
f 549 554 553
f 549 590 587
f 549 587 586
f 550 551 685
f 550 685 552
f 551 648 685
f 552 685 684
f 556 610 559
f 556 559 557
f 558 559 610
f 558 610 563
f 560 563 686
f 560 686 687
f 560 687 688
f 560 688 561
f 561 688 689
f 561 689 690
f 561 690 691
f 561 691 562
f 562 691 692
f 562 692 693
f 562 693 565
f 562 565 564
f 563 609 694
f 563 694 686
f 565 693 566
f 566 693 695
f 566 695 696
f 566 696 567
f 567 696 697
f 567 697 568
f 568 570 569
f 568 697 570
f 570 698 571
f 570 697 698
f 571 699 572
f 571 698 700
f 571 700 699
f 572 699 573
f 573 699 574
f 574 701 702
f 574 702 576
f 574 699 703
f 574 703 704
f 574 704 701
f 575 576 705
f 575 705 577
f 576 702 705
f 577 706 707
f 577 707 708
f 577 708 578
f 577 705 706
f 578 708 579
f 579 708 709
f 579 709 580
f 580 709 658
f 587 590 588
f 588 590 589
f 590 682 683
f 590 683 710
f 590 710 711
f 590 711 591
f 591 711 712
f 591 712 592
f 592 712 713
f 592 713 714
f 604 715 609
f 604 609 605
f 607 611 608
f 609 687 686
f 609 686 694
f 609 715 687
f 612 716 613
f 612 621 716
f 613 716 717
f 613 717 614
f 614 717 718
f 614 718 616
f 614 616 615
f 616 623 617
f 616 718 719
f 616 719 623
f 617 623 618
f 619 622 620
f 620 720 721
f 620 721 722
f 620 722 621
f 620 634 632
f 620 632 723
f 620 723 724
f 620 724 720
f 621 722 716
f 623 719 725
f 623 725 624
f 624 725 625
f 625 725 726
f 625 726 626
f 626 726 635
f 626 635 629
f 626 629 630
f 626 630 627
f 627 630 628
f 629 631 630
f 632 679 727
f 632 727 724
f 632 724 723
f 632 634 633
f 635 728 729
f 635 729 645
f 635 726 728
f 637 730 731
f 637 731 732
f 637 732 638
f 637 639 645
f 637 645 733
f 637 733 734
f 637 734 730
f 638 732 640
f 639 646 645
f 642 735 643
f 643 736 647
f 643 647 644
f 643 735 737
f 643 737 738
f 643 738 739
f 643 739 736
f 645 729 740
f 645 740 733
f 647 736 648
f 648 736 741
f 648 741 684
f 648 684 685
f 649 650 651
f 650 657 742
f 650 742 651
f 651 743 744
f 651 744 745
f 651 745 746
f 651 746 747
f 651 747 654
f 651 654 652
f 651 742 748
f 651 748 743
f 652 654 653
f 654 747 655
f 655 747 749
f 655 749 750
f 655 750 751
f 655 751 659
f 656 752 753
f 656 753 754
f 656 754 742
f 656 742 657
f 656 658 755
f 656 755 708
f 656 708 756
f 656 756 757
f 656 757 758
f 656 758 759
f 656 759 752
f 658 709 755
f 659 751 760
f 659 760 761
f 659 761 667
f 659 667 660
f 661 762 763
f 661 763 662
f 661 665 764
f 661 764 762
f 662 763 765
f 662 765 766
f 662 766 767
f 662 767 663
f 663 767 768
f 663 768 769
f 663 769 668
f 663 668 666
f 664 667 761
f 664 761 665
f 665 761 760
f 665 760 770
f 665 770 771
f 665 771 764
f 668 769 669
f 669 769 772
f 669 772 773
f 669 773 670
f 670 773 673
f 670 673 671
f 672 774 674
f 672 673 774
f 673 773 774
f 674 774 775
f 674 775 677
f 674 677 675
f 675 677 676
f 677 775 776
f 677 776 777
f 677 777 678
f 678 777 679
f 679 777 778
f 679 778 779
f 679 779 727
f 680 683 682
f 680 682 681
f 683 684 710
f 684 741 780
f 684 780 781
f 684 781 710
f 687 782 783
f 687 783 784
f 687 784 688
f 687 715 785
f 687 785 782
f 688 784 689
f 691 786 692
f 692 787 788
f 692 788 789
f 692 789 695
f 692 695 693
f 692 786 790
f 692 790 787
f 695 789 696
f 696 789 791
f 696 791 792
f 696 792 793
f 696 793 697
f 697 793 698
f 698 793 700
f 699 700 704
f 699 704 703
f 700 793 792
f 700 792 704
f 701 704 794
f 701 794 702
f 702 794 795
f 702 795 796
f 702 796 797
f 702 797 705
f 704 792 798
f 704 798 794
f 705 797 799
f 705 799 800
f 705 800 708
f 705 708 707
f 705 707 706
f 708 755 709
f 708 800 799
f 708 799 801
f 708 801 802
f 708 802 803
f 708 803 756
f 710 781 805
f 710 805 804
f 710 804 711
f 711 804 712
f 712 804 805
f 712 805 713
f 713 805 780
f 713 780 741
f 713 741 806
f 713 806 807
f 713 807 808
f 713 808 714
f 716 722 717
f 717 722 718
f 718 722 809
f 718 809 810
f 718 810 811
f 718 811 812
f 718 812 813
f 718 813 725
f 718 725 719
f 720 814 815
f 720 815 722
f 720 722 721
f 720 724 814
f 722 815 816
f 722 816 817
f 722 817 818
f 722 818 819
f 722 819 820
f 722 820 821
f 722 821 809
f 724 727 814
f 725 822 823
f 725 823 824
f 725 824 726
f 725 813 822
f 726 824 728
f 727 779 776
f 727 776 825
f 727 825 826
f 727 826 827
f 727 827 816
f 727 816 828
f 727 828 814
f 728 824 829
f 728 829 830
f 728 830 831
f 728 831 832
f 728 832 729
f 729 832 740
f 736 739 833
f 736 833 834
f 736 834 835
f 736 835 836
f 736 836 806
f 736 806 741
f 742 754 748
f 743 837 744
f 743 748 837
f 744 837 838
f 744 838 745
f 745 749 746
f 745 838 760
f 745 760 751
f 745 751 749
f 746 749 747
f 748 754 753
f 748 753 839
f 748 839 837
f 749 751 750
f 752 759 753
f 753 759 840
f 753 840 839
f 756 803 841
f 756 841 757
f 757 841 758
f 758 841 842
f 758 842 759
f 759 842 840
f 760 843 844
f 760 844 770
f 760 838 843
f 762 764 770
f 762 770 845
f 762 845 846
f 762 846 847
f 762 847 848
f 762 848 849
f 762 849 765
f 762 765 763
f 764 771 770
f 767 850 768
f 768 850 851
f 768 851 852
f 768 852 898
f 768 898 853
f 768 853 772
f 768 772 769
f 770 844 854
f 770 854 845
f 772 853 773
f 773 853 855
f 773 855 775
f 773 775 774
f 775 855 856
f 775 856 857
f 775 857 825
f 775 825 776
f 776 779 777
f 777 779 778
f 780 805 781
f 788 858 789
f 789 858 859
f 789 859 860
f 789 860 791
f 791 860 861
f 791 861 862
f 791 862 863
f 791 863 792
f 792 863 864
f 792 864 865
f 792 865 798
f 794 798 796
f 794 796 795
f 796 798 797
f 797 798 865
f 797 865 866
f 797 866 867
f 797 867 868
f 797 868 869
f 797 869 870
f 797 870 799
f 799 870 801
f 801 870 871
f 801 871 803
f 801 803 802
f 803 871 868
f 803 868 872
f 803 872 873
f 803 873 874
f 803 874 875
f 803 875 876
f 803 876 877
f 803 877 840
f 803 840 842
f 803 842 841
f 809 821 878
f 809 878 879
f 809 879 811
f 809 811 810
f 811 879 932
f 811 932 880
f 811 880 812
f 812 880 813
f 813 880 822
f 814 828 815
f 815 828 816
f 816 827 881
f 816 881 882
f 816 882 883
f 816 883 878
f 816 878 817
f 817 878 818
f 818 878 819
f 819 878 820
f 820 878 821
f 822 884 823
f 822 880 884
f 823 884 824
f 824 884 885
f 824 885 829
f 825 886 826
f 825 857 887
f 825 887 886
f 826 888 827
f 826 886 888
f 827 888 881
f 837 889 890
f 837 890 891
f 837 891 838
f 837 839 840
f 837 840 892
f 837 892 889
f 838 891 843
f 840 877 893
f 840 893 894
f 840 894 895
f 840 895 892
f 843 891 896
f 843 896 854
f 843 854 844
f 845 854 897
f 853 898 899
f 853 899 900
f 853 900 901
f 853 901 902
f 853 902 903
f 853 903 855
f 854 896 904
f 854 904 897
f 855 903 905
f 855 905 906
f 855 906 856
f 856 906 887
f 856 887 857
f 858 861 859
f 858 907 861
f 859 861 860
f 861 907 908
f 861 908 862
f 862 909 863
f 862 908 910
f 862 910 911
f 862 911 912
f 862 912 913
f 862 913 914
f 862 914 909
f 863 909 864
f 864 909 865
f 865 909 914
f 865 914 866
f 866 913 867
f 866 914 913
f 867 913 915
f 867 915 868
f 868 915 916
f 868 916 917
f 868 917 918
f 868 918 872
f 868 871 869
f 869 871 870
f 872 918 873
f 873 918 874
f 874 918 875
f 875 918 876
f 876 918 877
f 877 918 919
f 877 919 894
f 877 894 893
f 878 883 920
f 878 920 921
f 878 921 922
f 878 922 923
f 878 923 924
f 878 924 925
f 878 925 879
f 879 925 926
f 879 926 927
f 879 927 928
f 879 928 929
f 879 929 930
f 879 930 931
f 879 931 932
f 880 932 884
f 881 888 933
f 884 932 934
f 884 934 935
f 884 935 936
f 884 936 885
f 886 887 906
f 886 906 888
f 888 906 933
f 889 937 890
f 889 892 938
f 889 938 937
f 890 937 891
f 891 937 939
f 891 939 896
f 892 895 938
f 894 919 965
f 894 965 938
f 894 938 895
f 896 939 940
f 896 940 941
f 896 941 942
f 896 942 904
f 897 904 942
f 902 905 903
f 905 943 906
f 906 943 944
f 906 944 945
f 906 945 946
f 906 946 933
f 907 947 948
f 907 948 908
f 908 948 910
f 910 948 949
f 910 949 950
f 910 950 911
f 911 950 912
f 912 950 951
f 912 951 913
f 913 951 915
f 915 952 953
f 915 953 916
f 915 951 950
f 915 950 952
f 916 953 954
f 916 954 917
f 917 955 956
f 917 956 957
f 917 957 958
f 917 958 918
f 917 954 955
f 918 958 959
f 918 959 919
f 919 959 960
f 919 960 961
f 919 961 962
f 919 962 963
f 919 963 964
f 919 964 965
f 931 966 932
f 932 966 967
f 932 967 968
f 932 968 934
f 937 965 969
f 937 969 970
f 937 970 971
f 937 971 972
f 937 972 939
f 937 938 965
f 939 972 973
f 939 973 974
f 939 974 940
f 940 975 941
f 941 975 942
f 947 949 948
f 949 976 950
f 950 977 978
f 950 978 979
f 950 979 952
f 950 976 977
f 952 979 980
f 952 980 954
f 952 954 953
f 954 981 955
f 955 981 957
f 955 957 956
f 957 982 983
f 957 983 959
f 957 959 958
f 959 983 960
f 960 984 985
f 960 985 986
f 960 986 961
f 960 983 982
f 960 982 984
f 961 986 962
f 962 986 987
f 962 987 963
f 963 987 988
f 963 988 989
f 963 989 990
f 963 990 964
f 964 990 991
f 964 991 965
f 965 991 969
f 969 991 971
f 969 971 970
f 971 992 973
f 971 973 972
f 971 991 992
f 986 988 987
f 989 992 990
f 990 992 991

