# https://github.com/mikedh/trimesh
v -0.29059333 0.27493179 0.23499157
v -0.29047966 0.27493179 0.22499058
v -0.29036593 0.23499997 0.23499157
v -0.29002488 0.17757154 0.24026480
v -0.29030913 0.24494764 0.24157962
v -0.29025227 0.26498410 0.24142575
v -0.29013854 0.30498648 0.24110405
v -0.29042280 0.30498648 0.23499157
v -0.29053652 0.30498648 0.22499058
v -0.29053652 0.29496825 0.22499058
v -0.29025227 0.29496825 0.21599670
v -0.28644341 -0.20495549 0.22499058
v -0.29002488 0.17757154 0.23749530
v -0.28621602 -0.20495549 0.23499157
v -0.28797829 0.11506342 0.24499254
v -0.28917211 0.23499997 0.24644724
v -0.28922898 0.24494764 0.24658710
v -0.28934270 0.30498648 0.24611153
v -0.29008174 0.31493413 0.24065645
v -0.29030913 0.31493413 0.23499157
v -0.29042280 0.31493413 0.22499058
v -0.29019541 0.31493413 0.21587080
v -0.29025227 0.30498648 0.21525536
v -0.28996801 0.30498648 0.21026187
v -0.28581804 -0.20495549 0.21498960
v -0.28627282 -0.21567923 0.22499058
v -0.28598857 -0.21567923 0.23499157
v -0.28343040 -0.20495549 0.24499254
v -0.28593177 -0.03499836 0.24499254
v -0.28468108 0.23499997 0.25499353
v -0.28212285 -0.03499836 0.25272757
v -0.28479475 0.24494764 0.25499353
v -0.28485161 0.25496587 0.25499353
v -0.28490847 0.30498648 0.25499353
v -0.28473794 0.31493413 0.25499353
v -0.28922898 0.31493413 0.24564995
v -0.29002488 0.32057822 0.24015291
v -0.29002488 0.33059645 0.23097718
v -0.29019541 0.32495236 0.22499058
v -0.29008174 0.32495236 0.21780106
v -0.28962690 0.32495236 0.20498861
v -0.28451055 -0.20495549 0.20498861
v -0.28422630 -0.21567923 0.20431723
v -0.28553379 -0.21567923 0.21498960
v -0.28308928 -0.21567923 0.24499254
v -0.28030372 -0.21567923 0.25039166
v -0.28047425 -0.20495549 0.25058749
v -0.28058797 0.24494764 0.26049057
v -0.28047425 0.23499997 0.26039267
v -0.28053111 0.30498648 0.26046258
v -0.28047425 0.31493413 0.26039267
v -0.28058797 0.26498410 0.26051855
v -0.28018999 0.32255363 0.26018286
v -0.28325987 0.32551679 0.25595865
v -0.28343040 0.33497059 0.25457391
v -0.28803515 0.33497059 0.24499254
v -0.28905845 0.32431740 0.24409735
v -0.28985429 0.32728055 0.23763518
v -0.28957009 0.33433563 0.23458593
v -0.28968376 0.33560556 0.22499058
v -0.29002488 0.33059645 0.22499058
v -0.28996801 0.33024371 0.21947955
v -0.28939950 0.33497059 0.20498861
v -0.28814888 0.33497059 0.19500163
v -0.28155440 -0.21567923 0.18462299
v -0.28161126 -0.21567923 0.18500064
v -0.28291875 -0.21567923 0.19433023
v -0.27495992 -0.21567923 0.25485364
v -0.27706331 -0.03499836 0.25773504
v -0.27495992 0.24494764 0.26355380
v -0.27206063 -0.03499836 0.26120391
v -0.27495992 0.30498648 0.26320410
v -0.27495992 0.25496587 0.26355380
v -0.27495992 0.31493413 0.26309222
v -0.27592635 0.32551679 0.26215506
v -0.27984893 0.32925600 0.25993106
v -0.27939415 0.33497059 0.25958139
v -0.28274822 0.34498882 0.25379062
v -0.28684133 0.34498882 0.24499254
v -0.28837627 0.34498882 0.23499157
v -0.28860366 0.34498882 0.22499058
v -0.28848994 0.34498882 0.20498861
v -0.28775090 0.34498882 0.19500163
v -0.26103199 0.30477482 0.12479895
v -0.26125938 0.29496825 0.12479895
v -0.26273745 0.20494528 0.12479895
v -0.26273745 0.20473363 0.12479895
v -0.28132701 0.01502223 0.17623055
v -0.28041744 -0.21567923 0.17908399
v -0.26830864 -0.21567923 0.25945550
v -0.27063942 -0.11493254 0.26039267
v -0.26495457 0.24494764 0.26626736
v -0.26495457 -0.03499836 0.26334399
v -0.26495457 0.32495236 0.26576382
v -0.26495457 0.25496587 0.26625335
v -0.26495457 0.33497059 0.26560995
v -0.26495457 0.34498882 0.26523229
v -0.27439141 0.33497059 0.26232290
v -0.27348185 0.34498882 0.26197323
v -0.27234489 0.35493651 0.26146966
v -0.27848458 0.34498882 0.25879809
v -0.28189546 0.35493651 0.25262964
v -0.28519273 0.35493651 0.24499254
v -0.28667080 0.35493651 0.23499157
v -0.28684133 0.35493651 0.20498861
v -0.28632969 0.35493651 0.19500163
v -0.28280509 0.35493651 0.18596578
v -0.26034981 0.31302929 0.12479895
v -0.26256686 0.02482881 0.12479895
v -0.26034981 -0.21567923 0.12479895
v -0.26364702 -0.21567923 0.26084024
v -0.26330590 -0.21497372 0.26095214
v -0.03494427 0.47494361 0.26691076
v -0.21498443 0.42499357 0.26768008
v -0.22498983 0.41497535 0.26761013
v -0.23499522 0.39493889 0.26738635
v -0.24494375 0.38499120 0.26719052
v -0.25494915 -0.11493254 0.26261663
v -0.25551766 -0.21567923 0.26149765
v -0.25494915 -0.21497372 0.26153961
v -0.25494915 -0.20495549 0.26166549
v -0.25494915 0.36495474 0.26656109
v -0.25494915 0.37497297 0.26605755
v -0.26495457 0.35493651 0.26465881
v -0.26495457 0.36495474 0.26369369
v -0.27103734 0.36495474 0.26072836
v -0.27024150 0.37073994 0.26019683
v -0.27734756 0.35493651 0.25763714
v -0.28081536 0.36495474 0.25113299
v -0.28013319 0.37045771 0.25020984
v -0.28297561 0.36495474 0.24499254
v -0.28007632 0.38026428 0.24039069
v -0.28433996 0.36495474 0.23499157
v -0.28451055 0.36495474 0.20498861
v -0.28405571 0.36495474 0.19500163
v -0.27996260 0.38005263 0.18996617
v -0.28058797 0.37497297 0.18886116
v -0.28172493 0.36495474 0.18701483
v -0.25870115 0.32481128 0.12479895
v -0.25972444 0.31803840 0.12479895
v 0.25526887 -0.21567923 0.12479895
v -0.26330590 -0.21567923 0.26093817
v 0.08494987 0.47494361 0.26485461
v 0.08494987 0.48496184 0.26321810
v -0.03494427 0.48496184 0.26507843
v -0.12499277 0.47494361 0.26727444
v -0.13499817 0.46499592 0.26734439
v 0.26499003 0.18497938 0.25903589
v -0.14494671 0.46499592 0.26735836
v -0.15495209 0.46499592 0.26717654
v -0.20497905 0.43494123 0.26738635
v -0.21498443 0.43494123 0.26693875
v -0.22498983 0.42499357 0.26696673
v -0.23499522 0.40495712 0.26724648
v -0.24494375 0.39493889 0.26657507
v -0.25494915 -0.21567923 0.26152563
v 0.26499003 -0.21567923 0.25292340
v -0.25494915 0.38499120 0.26492456
v -0.26535249 0.37447912 0.26202917
v -0.26251006 0.38499120 0.26152563
v -0.26108885 0.39303398 0.26070037
v -0.25989497 0.39973634 0.25993106
v -0.26893395 0.37744224 0.25927365
v -0.27268600 0.38499120 0.25306326
v -0.27461886 0.37391472 0.25474176
v -0.27604008 0.36495474 0.25612649
v -0.27098054 0.39493889 0.25121692
v -0.27007091 0.40023020 0.25015390
v -0.27905303 0.37708950 0.24704869
v -0.28075850 0.37426746 0.24422324
v -0.27751815 0.38414460 0.24422324
v -0.27348185 0.39493889 0.24499254
v -0.27080995 0.40178230 0.24499254
v -0.27490306 0.39493889 0.23499157
v -0.27638113 0.39493889 0.20498861
v -0.28013319 0.38047594 0.23499157
v -0.28166807 0.37497297 0.23499157
v -0.27899617 0.38619056 0.20498861
v -0.28030372 0.38118145 0.20498861
v -0.27893937 0.38590837 0.19500163
v -0.28018999 0.38089925 0.19500163
v -0.27632427 0.39493889 0.19500163
v -0.27012777 0.41031897 0.18939269
v -0.27109420 0.40432215 0.18564406
v -0.27012777 0.40051240 0.17979734
v -0.25460804 0.34477717 0.12479895
v -0.25682515 0.33475894 0.12479895
v 0.28477341 -0.21567923 0.20498861
v 0.25538260 -0.20495549 0.12479895
v 0.17499837 0.45497769 0.26218304
v 0.14498220 0.46499592 0.26305026
v 0.09495526 0.47494361 0.26440704
v 0.25128949 0.35493651 0.26015487
v 0.25077784 0.36495474 0.26015487
v 0.09495526 0.48496184 0.26267260
v 0.09495526 0.49074700 0.26047659
v 0.08494987 0.49117032 0.26077032
v 0.12497143 0.47494361 0.26305026
v 0.13497682 0.47494361 0.26253271
v -0.03494427 0.49286354 0.26167950
v -0.04494965 0.49286354 0.26172146
v -0.04494965 0.48496184 0.26510641
v -0.13499817 0.47494361 0.26703668
v -0.11498739 0.48496184 0.26506445
v 0.27499545 0.18497938 0.25725949
v 0.26499003 0.19499761 0.25904986
v -0.16495749 0.46499592 0.26667297
v -0.18496826 0.45497769 0.26656109
v -0.20497905 0.44495946 0.26640722
v -0.21498443 0.44495946 0.26488259
v -0.22498983 0.43494123 0.26517633
v -0.23499522 0.42499357 0.26457489
v -0.23499522 0.41497535 0.26635128
v -0.24494375 0.40495712 0.26526025
v 0.27357423 -0.21567923 0.25123093
v -0.25591558 0.39585605 0.26264462
v -0.25858748 0.40495712 0.25903589
v -0.26512510 0.40411049 0.25331503
v -0.26461345 0.39585605 0.25693777
v -0.26751274 0.38499120 0.25807074
v -0.25358480 0.40495712 0.26184735
v -0.25159508 0.41278824 0.26086822
v -0.26188469 0.41321155 0.25211212
v -0.25989497 0.41984335 0.24972028
v -0.26847917 0.40679142 0.24499254
v -0.27143532 0.40312278 0.23499157
v -0.27200377 0.40587428 0.20531033
v -0.27268600 0.40495712 0.19500163
v -0.27024150 0.41046008 0.19500163
v -0.26739901 0.41546920 0.19500163
v -0.26239634 0.42330036 0.19500163
v -0.26165730 0.42224208 0.18500064
v -0.26671684 0.41419926 0.18564406
v -0.26899081 0.40721473 0.18273470
v -0.26216894 0.41497535 0.17768525
v -0.24801359 0.36551917 0.12479895
v -0.25017387 0.36051005 0.12479895
v -0.25023067 0.36036894 0.12479895
v -0.25193614 0.35479540 0.12479895
v 0.28500080 -0.21567923 0.20567401
v 0.28488714 -0.20495549 0.20498861
v 0.28494400 -0.19493726 0.20498861
v 0.25538260 -0.17475972 0.12479895
v 0.19495231 0.44495946 0.26144171
v 0.18574280 0.45582432 0.26116195
v 0.16499299 0.46499592 0.26188931
v 0.15498760 0.46499592 0.26256070
v 0.24492241 0.38407403 0.26025277
v 0.25629216 0.35493651 0.25945550
v 0.24998195 0.38012320 0.26000100
v 0.25020933 0.37497297 0.26005694
v 0.12497143 0.48256311 0.26109201
v 0.11496603 0.48383301 0.26146966
v 0.10518804 0.48580843 0.26158157
v 0.10871267 0.48968875 0.25987512
v 0.10200451 0.49025315 0.26016885
v 0.10518804 0.49413344 0.25653213
v 0.12002558 0.49998918 0.25000003
v 0.09495526 0.49575612 0.25611252
v 0.08494987 0.49617943 0.25646219
v 0.02497438 0.49695548 0.25755322
v -0.03494427 0.49787265 0.25819662
v 0.15498760 0.47332093 0.26109201
v 0.14520961 0.47564912 0.26141372
v 0.13497682 0.48136374 0.26065841
v -0.10498200 0.49244022 0.26166549
v -0.14494671 0.47494361 0.26633728
v -0.12499277 0.48496184 0.26463082
v -0.11498739 0.49215803 0.26162353
v 0.28068030 -0.13496900 0.25041965
v 0.28079402 -0.12495077 0.25048959
v 0.28312480 0.17496115 0.25268561
v 0.28306794 0.18497938 0.25279748
v 0.27499545 0.27493179 0.25517535
v 0.26499003 0.33497059 0.25818264
v -0.17496288 0.46499592 0.26569387
v -0.19497366 0.45497769 0.26551205
v -0.20497905 0.45497769 0.26386154
v -0.21458650 0.45490715 0.26159555
v -0.22504668 0.44510058 0.26204318
v -0.23169799 0.44185522 0.26084024
v -0.23499522 0.43472958 0.26187533
v -0.24289720 0.42499357 0.26145568
v -0.24579649 0.41568086 0.26264462
v 0.27823579 -0.21567923 0.24951047
v 0.28045291 -0.14498723 0.25029376
v -0.24966221 0.41949061 0.25980517
v -0.24789989 0.42499357 0.25833651
v -0.25318682 0.42499357 0.25334302
v -0.25102657 0.43155479 0.25130084
v -0.26069087 0.42104271 0.24304830
v -0.26319224 0.41589248 0.24583179
v -0.24892317 0.43839824 0.24499254
v -0.25216353 0.43345967 0.24499254
v -0.26904768 0.40813190 0.23499157
v -0.27018464 0.41031897 0.20217715
v -0.25267518 0.43409464 0.23499157
v -0.24937797 0.43910375 0.23499157
v -0.25864434 0.42830947 0.19500163
v -0.26052034 0.42076051 0.17930779
v -0.25756419 0.42725119 0.18500064
v -0.24363624 0.37476131 0.12479895
v 0.28750217 -0.21567923 0.21498960
v 0.28750217 -0.20495549 0.21498960
v 0.28045291 0.29496825 0.19911392
v 0.28244263 0.29496825 0.20498861
v 0.25452983 -0.08473675 0.12479895
v 0.28039604 0.30498648 0.19912791
v 0.20262690 0.44495946 0.26047659
v 0.19495231 0.45243788 0.26053253
v 0.24128409 0.39493889 0.26021081
v 0.24014711 0.40023020 0.26004297
v 0.18295722 0.46175060 0.26051855
v 0.17448674 0.46506649 0.26091018
v 0.16499299 0.47148660 0.26053253
v 0.25521207 0.37497297 0.25835049
v 0.25401825 0.38407403 0.25767910
v 0.24821964 0.38675499 0.25969326
v 0.26499003 0.34498882 0.25756720
v 0.13497682 0.49363959 0.25300732
v 0.12400500 0.49568558 0.25304928
v 0.11496603 0.49498007 0.25479770
v 0.14202607 0.48051712 0.26026678
v 0.11496603 0.48884213 0.25949746
v 0.11496603 0.50020087 0.25029376
v 0.14498220 0.49251080 0.25218207
v 0.15498760 0.49124086 0.25123093
v 0.12667689 0.49942479 0.24893698
v 0.12400500 0.50118852 0.24535622
v 0.11496603 0.50210571 0.24499254
v 0.10496065 0.50055361 0.25075534
v 0.09495526 0.50076520 0.25111902
v 0.08494987 0.50090635 0.25146869
v 0.02497438 0.50161183 0.25254571
v -0.02499572 0.50210571 0.25310522
v -0.03494427 0.50210571 0.25320312
v -0.04494965 0.49787265 0.25808474
v -0.15495209 0.47494361 0.26527426
v -0.13499817 0.48496184 0.26383355
v -0.12499277 0.49159363 0.26128784
v -0.10498200 0.49737880 0.25653213
v -0.11498739 0.49716714 0.25608453
v 0.28380698 -0.21567923 0.24437709
v 0.28534192 -0.14498723 0.24499254
v 0.28556931 -0.13496900 0.24499254
v 0.28579670 -0.11493254 0.24499254
v 0.28988981 -0.14498723 0.23818068
v 0.28790009 0.17496115 0.24499254
v 0.28096455 0.28495002 0.25113299
v 0.27499545 0.28495002 0.25489560
v 0.27414268 0.33497059 0.25332901
v -0.16495749 0.47494361 0.26393145
v -0.18496826 0.46499592 0.26425317
v -0.19525790 0.46556035 0.26202917
v -0.20497905 0.46252665 0.26110601
v -0.21100502 0.46069232 0.26035070
v -0.22174944 0.45152071 0.26074234
v -0.23840615 0.43797493 0.25891000
v -0.24085064 0.43127260 0.26050454
v -0.22840075 0.44848701 0.25909182
v 0.27857691 -0.21567923 0.24937059
v 0.28346592 -0.21567923 0.24471280
v -0.24483006 0.43472958 0.25510544
v -0.24210131 0.44256073 0.25225198
v -0.23931572 0.44926307 0.24798584
v -0.26495457 0.41497535 0.23499157
v -0.24335200 0.44552389 0.24479672
v -0.24033901 0.45032135 0.24132785
v -0.24033901 0.45032135 0.23707569
v -0.25364161 0.43409464 0.19500163
v -0.21202829 0.42195988 0.12479895
v -0.21691729 0.41603360 0.12479895
v -0.22089671 0.41095394 0.12479895
v -0.22533092 0.40481600 0.12479895
v -0.22936718 0.39910138 0.12479895
v -0.23255071 0.39423335 0.12479895
v -0.23766711 0.38590837 0.12479895
v -0.24045271 0.38104033 0.12479895
v -0.25256151 0.43282470 0.18500064
v -0.24807045 0.43776327 0.18500064
v -0.25096971 0.43106094 0.17905600
v -0.24920742 0.43910375 0.19500163
v 0.28761584 -0.21567923 0.21567498
v 0.29017407 -0.14498723 0.22917281
v 0.28744531 -0.19493726 0.21498960
v 0.28221524 0.30498648 0.20498861
v 0.28414810 0.30498648 0.21498960
v 0.28431863 0.29496825 0.21498960
v 0.25106210 0.22519338 0.12479895
v 0.25094837 0.23521161 0.12479895
v 0.25043672 0.25496587 0.12479895
v 0.24941346 0.28516167 0.12479895
v 0.24907237 0.29517990 0.12479895
v 0.24850388 0.30498648 0.12479895
v 0.28016865 0.31126550 0.19964544
v 0.20996040 0.43987980 0.25998703
v 0.20023924 0.45025077 0.26007095
v 0.18960851 0.45970461 0.25993106
v 0.24628678 0.39493889 0.25900790
v 0.24406968 0.40411049 0.25774902
v 0.23736152 0.40693253 0.25945550
v 0.22832257 0.41786793 0.25973523
v 0.21911305 0.42887387 0.25987512
v 0.17744288 0.46845293 0.25951144
v 0.17079157 0.47035781 0.26014090
v 0.15498760 0.47833005 0.25938556
v 0.14867738 0.47945887 0.25981915
v 0.26499003 0.35493651 0.25643423
v 0.26499003 0.36495474 0.25486764
v 0.26544482 0.37440854 0.25281149
v 0.26271611 0.38499120 0.25233591
v 0.25595111 0.39585605 0.25388852
v 0.27357423 0.34498882 0.25282547
v 0.12497143 0.48757222 0.25879809
v 0.14520961 0.48425633 0.25763714
v 0.15498760 0.48496184 0.25560898
v 0.16493614 0.48559681 0.25314718
v 0.16152520 0.49039426 0.25043362
v 0.13497682 0.49864870 0.24710463
v 0.13497682 0.50069469 0.24211115
v 0.11496603 0.50316393 0.23499157
v 0.10496065 0.50252903 0.24499254
v 0.09495526 0.50274062 0.24499254
v 0.01496899 0.50422227 0.24499254
v -0.02499572 0.50478661 0.24499254
v -0.03494427 0.50471610 0.24499254
v -0.04494965 0.50196457 0.25307724
v -0.13499817 0.49088812 0.26074234
v -0.14119469 0.49025315 0.26026678
v -0.14471932 0.48552623 0.26223898
v -0.12499277 0.49660274 0.25544113
v -0.10498200 0.50069469 0.25153863
v -0.11498739 0.50048304 0.25107706
v -0.12499277 0.50020087 0.25043362
v -0.13022287 0.49998918 0.25006998
v 0.28846860 -0.21567923 0.23499157
v 0.28977615 -0.15493491 0.23711765
v 0.29011720 -0.15493491 0.23212415
v 0.29017407 -0.14498723 0.23317319
v 0.28988981 -0.12495077 0.23752327
v 0.28852546 0.17496115 0.23499157
v 0.28443235 0.30498648 0.23499157
v 0.28755903 0.18497938 0.24499254
v 0.28312480 0.29496825 0.24499254
v 0.28068030 0.29496825 0.25081128
v 0.28033924 0.30498648 0.25039166
v 0.28005499 0.31091273 0.25011194
v -0.15495209 0.48298642 0.26183337
v -0.16495749 0.48143429 0.26096612
v -0.17166564 0.48044658 0.26033670
v -0.17496288 0.47550800 0.26200122
v -0.18496826 0.47268596 0.26130182
v -0.19213122 0.47092220 0.26051855
v -0.19878253 0.46929953 0.25965130
v -0.20497905 0.46753576 0.25829455
v -0.21765633 0.45822304 0.25888202
v -0.23550686 0.44552389 0.25567889
v -0.22544461 0.45540100 0.25566491
v -0.23266442 0.45250842 0.25243384
v -0.22248848 0.46210334 0.25222403
v -0.22913979 0.45921075 0.24686685
v -0.23004937 0.45998681 0.24020885
v -0.23004937 0.45998681 0.23973328
v -0.23880409 0.44905141 0.19500163
v -0.24420473 0.44404230 0.19500163
v -0.24136229 0.44129083 0.17872031
v -0.20662767 0.42703953 0.12479895
v -0.24306774 0.44291350 0.18500064
v 0.28892338 -0.21567923 0.22499058
v 0.29011720 -0.15493491 0.22928470
v 0.29006034 -0.11690795 0.22966236
v 0.28033924 0.34498882 0.20879319
v 0.28124881 0.34498882 0.21498960
v 0.28284055 0.33497059 0.22499058
v 0.28454602 0.30498648 0.22499058
v 0.24770801 0.31514579 0.12479895
v 0.27033383 0.37497297 0.18946262
v 0.27004957 0.38019374 0.18989623
v 0.27880430 0.34498882 0.20379969
v 0.22496848 0.42527577 0.25906384
v 0.21547472 0.43592894 0.25928766
v 0.20762959 0.44495946 0.25924569
v 0.20410496 0.45413110 0.25744131
v 0.19495231 0.45744699 0.25921771
v 0.19495231 0.46499592 0.25626636
v 0.18574280 0.46506649 0.25888202
v 0.25350660 0.40495712 0.25260168
v 0.24554774 0.41532809 0.25346890
v 0.23497386 0.42499357 0.25565094
v 0.23440538 0.41469312 0.25861627
v 0.17448674 0.47423810 0.25772107
v 0.16499299 0.47649571 0.25860226
v 0.27238041 0.35493651 0.25197226
v 0.27095914 0.36495474 0.25086725
v 0.27016330 0.37066936 0.25020984
v 0.26118118 0.39317513 0.25113299
v 0.25993049 0.39980689 0.24991611
v 0.27914542 0.33497059 0.24837749
v 0.27857691 0.34498882 0.24735641
v 0.13497682 0.48630232 0.25800079
v 0.17499837 0.48312750 0.25250375
v 0.16823336 0.48940656 0.24899293
v 0.15498760 0.49483895 0.24499254
v 0.14452742 0.49766099 0.24432114
v 0.14088909 0.50013030 0.24053057
v 0.12497143 0.50224680 0.23499157
v 0.10496065 0.50351673 0.23499157
v 0.12138996 0.50013030 0.20855540
v 0.11485234 0.50041246 0.20512849
v 0.11144141 0.50013030 0.19956152
v 0.01496899 0.50485718 0.23499157
v 0.00496360 0.50499833 0.23499157
v -0.01499033 0.50506884 0.23499157
v -0.02499572 0.50499833 0.23499157
v -0.03494427 0.50471610 0.23499157
v -0.05495505 0.50408113 0.23499157
v -0.04494965 0.50436330 0.24499254
v -0.13408859 0.49632055 0.25404239
v -0.14471932 0.49293408 0.25560898
v -0.15495209 0.49222857 0.25318915
v -0.14784600 0.48919490 0.25935757
v -0.17831695 0.47924721 0.25955340
v -0.11498739 0.50154126 0.24499254
v -0.12499277 0.50104743 0.24499254
v -0.13249682 0.50034189 0.24499254
v -0.13749951 0.49949533 0.24499254
v -0.14494671 0.49787265 0.24499254
v -0.15495209 0.49547392 0.24499254
v -0.17007388 0.48997095 0.25002801
v -0.16495749 0.49081755 0.25120294
v 0.28892338 -0.21567923 0.22567597
v 0.29006034 -0.11690795 0.23283750
v 0.28994668 -0.11415648 0.23569092
v 0.28272688 0.33497059 0.23499157
v 0.28085083 0.34498882 0.24236292
v 0.28255630 0.30498648 0.24499254
v -0.18496826 0.47769508 0.25830853
v -0.19571269 0.47529635 0.25559497
v -0.20497905 0.47303873 0.25330105
v -0.21464334 0.46471372 0.25514740
v -0.21163036 0.47106332 0.25141275
v -0.21777003 0.46838236 0.24499254
v -0.22550146 0.46273831 0.24412532
v -0.21276733 0.47183937 0.24499254
v -0.22652474 0.45779973 0.19500163
v -0.23380139 0.45279062 0.19500163
v -0.19997635 0.47995272 0.23997107
v -0.23687123 0.44792262 0.18500064
v -0.20151126 0.43134314 0.12479895
v -0.23010622 0.45003915 0.17993721
v 0.28005499 0.35028017 0.20966041
v 0.28033924 0.35126787 0.21498960
v 0.28198785 0.34498882 0.22499058
v 0.28198785 0.34498882 0.23499157
v 0.24679843 0.32516402 0.12479895
v 0.27056122 0.38195753 0.19500163
v 0.24571830 0.33497059 0.12479895
v 0.24401283 0.34498882 0.12479895
v 0.24139778 0.35550094 0.12479895
v 0.26157910 0.40495712 0.18750440
v 0.26709342 0.39493889 0.19500163
v 0.22496848 0.43494123 0.25625238
v 0.21496309 0.44495946 0.25661606
v 0.21507679 0.45497769 0.25254571
v 0.21183640 0.46160948 0.25103509
v 0.20473030 0.46492538 0.25246179
v 0.20126253 0.47085166 0.25071338
v 0.19495231 0.47296819 0.25204217
v 0.18574280 0.47586077 0.25365072
v 0.25140315 0.41229439 0.25116098
v 0.24236421 0.42499357 0.25172049
v 0.24054505 0.43077874 0.25047559
v 0.23457593 0.43444738 0.25198624
v 0.27186877 0.37440854 0.24520235
v 0.26908314 0.37737170 0.24867122
v 0.27766734 0.35500705 0.24464285
v 0.26356882 0.39585605 0.24594368
v 0.26135170 0.40495712 0.24264266
v 0.26010102 0.41017789 0.24027880
v 0.25850928 0.40495712 0.24763615
v 0.24929976 0.41892618 0.24917477
v 0.27095914 0.38266301 0.24199924
v 0.28119195 0.33497059 0.24338399
v 0.28039604 0.35169119 0.24107607
v 0.18295722 0.48136374 0.25121692
v 0.17545317 0.48827773 0.24539818
v 0.17244019 0.49088812 0.24232095
v 0.16493614 0.49194637 0.24539818
v 0.18960851 0.47974107 0.24972028
v 0.15498760 0.49674383 0.23499157
v 0.14088909 0.50013030 0.23834853
v 0.13526106 0.50069469 0.23500554
v 0.12804127 0.49977753 0.21303137
v 0.11809272 0.49977753 0.20188342
v 0.10814418 0.50013030 0.19956152
v 0.00496360 0.50386947 0.22499058
v 0.01496899 0.50379896 0.22499058
v 0.17499837 0.48686671 0.19500163
v 0.11485234 0.49794319 0.19575694
v 0.10518804 0.46711245 0.12479895
v 0.09518265 0.46817073 0.12479895
v 0.08494987 0.46866459 0.12479895
v 0.07517187 0.46873513 0.12479895
v -0.01499033 0.50386947 0.22499058
v -0.02499572 0.50372839 0.22499058
v -0.05495505 0.50323451 0.22499058
v -0.06496044 0.50302291 0.22499058
v -0.09497660 0.50210571 0.22499058
v -0.11498739 0.50182354 0.23499157
v -0.15495209 0.48799554 0.25819662
v -0.18496826 0.48256311 0.25331503
v -0.12499277 0.50118852 0.23499157
v -0.13266736 0.50034189 0.23499157
v -0.13767006 0.49963641 0.23499157
v -0.14494671 0.49836650 0.23499157
v -0.16495749 0.49265188 0.24499254
v -0.15495209 0.49596778 0.23499157
v -0.17638409 0.48877159 0.24499254
v -0.18496826 0.48580843 0.24499254
v -0.19258600 0.48108155 0.25152466
v -0.19929416 0.47959995 0.24672697
v -0.20395577 0.47727180 0.24404140
v -0.19997635 0.47995272 0.24006897
v -0.22152205 0.46083343 0.19500163
v -0.22078301 0.46041012 0.18923883
v -0.17155194 0.49053535 0.23499157
v -0.17001703 0.48997095 0.20975831
v -0.17399645 0.48778388 0.20585583
v -0.23186854 0.45130906 0.18500064
v -0.19497366 0.43578786 0.12479895
v -0.17598616 0.44792262 0.12479895
v -0.18417238 0.44305459 0.12479895
v 0.27931595 0.35754690 0.22499058
v 0.28062344 0.35253778 0.22499058
v 0.27107286 0.38372129 0.20498861
v 0.28062344 0.35274944 0.23499157
v 0.23872589 0.36431980 0.12479895
v 0.26032841 0.41060117 0.18939269
v 0.26390994 0.40495712 0.19500163
v 0.23508757 0.37497297 0.12479895
v 0.23503071 0.37511408 0.12479895
v 0.23161979 0.38343906 0.12479895
v 0.26771879 0.39493889 0.20498861
v 0.26959479 0.38873041 0.20498861
v 0.22479793 0.44467726 0.25230795
v 0.22138700 0.45166180 0.25086725
v 0.20791383 0.46824127 0.24763615
v 0.21848771 0.45836413 0.24850337
v 0.24190943 0.43444738 0.24409735
v 0.23082390 0.45095628 0.24127190
v 0.22803831 0.44778150 0.24794388
v 0.25151688 0.42231262 0.24250278
v 0.26976532 0.38943589 0.23499157
v 0.26749140 0.39493889 0.23499157
v 0.26311404 0.40495712 0.23499157
v 0.26038527 0.41081282 0.23499157
v 0.25765651 0.41582194 0.23499157
v 0.25265384 0.42379421 0.23499157
v 0.25481409 0.41455203 0.24472678
v 0.27459747 0.37497297 0.23499157
v 0.27152765 0.38442677 0.23499157
v 0.27942961 0.35775855 0.23499157
v 0.27749676 0.36495474 0.23499157
v 0.18574280 0.48348027 0.24583179
v 0.17323607 0.49117032 0.23499157
v 0.16499299 0.49385124 0.23499157
v 0.19250780 0.48143429 0.24306229
v 0.18494692 0.48637286 0.23499157
v 0.17823876 0.48933598 0.23499157
v 0.20473030 0.47247434 0.24457292
v 0.19552080 0.47811839 0.24583179
v 0.17408879 0.48884213 0.20504457
v 0.16948405 0.48990041 0.20174354
v 0.14452742 0.49907202 0.23500554
v 0.12480088 0.49907202 0.20512849
v 0.13406724 0.49893090 0.21581486
v 0.16277589 0.49039426 0.19897404
v -0.12499277 0.49759045 0.19500163
v 0.05499055 0.46873513 0.12479895
v 0.18494692 0.48376247 0.19500163
v 0.18494692 0.48129320 0.18830167
v 0.14151444 0.46041012 0.12479895
v 0.13509052 0.46182114 0.12479895
v 0.12497143 0.46386713 0.12479895
v 0.11519343 0.46563089 0.12479895
v -0.06496044 0.50161183 0.21498960
v -0.11498739 0.49928367 0.20498861
v -0.10498200 0.50168240 0.22499058
v -0.12499277 0.49893090 0.20498861
v -0.11498739 0.50111800 0.22499058
v -0.13499817 0.49766099 0.20498861
v -0.14494671 0.49667329 0.21498960
v -0.15495209 0.49448621 0.21498960
v -0.16495749 0.49293408 0.23499157
v -0.19554214 0.48157540 0.24404140
v -0.17086977 0.45053300 0.12479895
v -0.18212582 0.48150483 0.19666612
v -0.17996557 0.47995272 0.19000813
v -0.16819787 0.48961818 0.20308633
v 0.27721256 0.36495474 0.22499058
v 0.24156833 0.43494123 0.17754537
v 0.24003342 0.44002092 0.17989525
v 0.26095378 0.41165945 0.19500163
v 0.26118118 0.41215330 0.20498861
v 0.26430786 0.40495712 0.20498861
v 0.22923213 0.38830709 0.12479895
v 0.21456514 0.46471372 0.24474077
v 0.21058573 0.47042835 0.24096417
v 0.22121646 0.46111563 0.24184537
v 0.24003342 0.44009146 0.24015291
v 0.23127870 0.45145017 0.23499157
v 0.25822502 0.41716242 0.20498861
v 0.25299495 0.42414695 0.22499058
v 0.24912922 0.42880332 0.23499157
v 0.18494692 0.48489130 0.20498861
v 0.19353110 0.48206925 0.23499157
v 0.19853379 0.47903556 0.23499157
v 0.14498220 0.49780211 0.22499058
v -0.13499817 0.49554446 0.19500163
v -0.14494671 0.49568558 0.20498861
v 0.04498516 0.46866459 0.12479895
v 0.00496360 0.46810016 0.12479895
v -0.01499033 0.46781796 0.12479895
v -0.02499572 0.46760631 0.12479895
v -0.08497121 0.46591309 0.12479895
v -0.09497660 0.46556035 0.12479895
v -0.10498200 0.46492538 0.12479895
v -0.11498739 0.46414933 0.12479895
v -0.12476538 0.46330270 0.12479895
v -0.13477077 0.46189168 0.12479895
v -0.14176318 0.46048066 0.12479895
v 0.19125713 0.48079932 0.19500163
v 0.19023386 0.48009384 0.18978433
v 0.15498760 0.45589486 0.12479895
v 0.14651713 0.45892856 0.12479895
v -0.15495209 0.49321631 0.20498861
v -0.16478693 0.45300227 0.12479895
v -0.17598616 0.48305696 0.19400853
v -0.16154656 0.49025315 0.19943562
v -0.15495209 0.45667091 0.12479895
v 0.22570752 0.39493889 0.12479895
v 0.22150069 0.40227616 0.12479895
v 0.18125175 0.44107917 0.12479895
v 0.23497386 0.44206688 0.17758733
v 0.22252399 0.45173237 0.17781113
v 0.22923213 0.44933364 0.18192342
v 0.23042597 0.45039189 0.18859540
v 0.24043135 0.44051477 0.18500064
v 0.25782710 0.41666856 0.19500163
v 0.21791923 0.40728527 0.12479895
v 0.21291654 0.41299990 0.12479895
v 0.20774329 0.41800901 0.12479895
v 0.21064258 0.47042835 0.23499157
v 0.20495769 0.47452030 0.23499157
v 0.22155756 0.46139783 0.23499157
v 0.21558842 0.46640694 0.23499157
v 0.22656025 0.45645925 0.23499157
v 0.24441077 0.43494123 0.23499157
v 0.24026081 0.44030312 0.23499157
v 0.23628139 0.44531223 0.23499157
v 0.24071559 0.44086751 0.19500163
v 0.25282437 0.42386475 0.19500163
v 0.24497926 0.43494123 0.19500163
v 0.25322235 0.42400584 0.20498861
v 0.24929976 0.42915606 0.22499058
v 0.19205302 0.48122263 0.20498861
v 0.20433237 0.47317985 0.20498861
v 0.19705571 0.47811839 0.20498861
v -0.14687957 0.45914021 0.12479895
v 0.19625983 0.47769508 0.19500163
v 0.20382072 0.47268596 0.19500163
v 0.20211525 0.47141606 0.18799394
v 0.16914295 0.44940418 0.12479895
v 0.16891555 0.44954529 0.12479895
v 0.16402656 0.45194402 0.12479895
v 0.15515815 0.45582432 0.12479895
v 0.17499837 0.44559443 0.12479895
v 0.20882341 0.46908787 0.19500163
v 0.23082390 0.45067409 0.19500163
v 0.23582660 0.44587663 0.19500163
v 0.20933506 0.46944064 0.20498861
f 1 2 3
f 1 3 4
f 1 4 5
f 1 5 6
f 1 6 7
f 1 7 8
f 1 8 9
f 1 9 10
f 1 10 2
f 2 10 11
f 2 11 12
f 2 12 13
f 2 13 3
f 3 13 4
f 4 13 12
f 4 12 14
f 4 14 15
f 4 15 16
f 4 16 17
f 4 17 5
f 5 17 18
f 5 18 6
f 6 18 7
f 7 18 19
f 7 19 8
f 8 19 20
f 8 20 21
f 8 21 9
f 9 21 22
f 9 22 23
f 9 23 10
f 10 23 11
f 11 23 24
f 11 24 25
f 11 25 12
f 12 25 26
f 12 26 14
f 14 26 27
f 14 27 28
f 14 28 29
f 14 29 15
f 15 29 16
f 16 30 17
f 16 29 31
f 16 31 30
f 17 30 32
f 17 32 33
f 17 33 34
f 17 34 18
f 18 34 35
f 18 35 36
f 18 36 19
f 19 36 37
f 19 37 20
f 20 37 38
f 20 38 21
f 21 38 39
f 21 39 40
f 21 40 22
f 22 40 41
f 22 41 23
f 23 41 24
f 24 41 25
f 25 42 43
f 25 43 44
f 25 44 26
f 25 41 42
f 26 44 43
f 26 43 67
f 26 67 66
f 26 66 65
f 26 65 89
f 26 89 110
f 26 110 141
f 26 141 188
f 26 188 240
f 26 240 303
f 26 303 383
f 26 383 469
f 26 469 531
f 26 531 436
f 26 436 343
f 26 343 362
f 26 362 361
f 26 361 285
f 26 285 215
f 26 215 157
f 26 157 156
f 26 156 119
f 26 119 142
f 26 142 111
f 26 111 90
f 26 90 68
f 26 68 46
f 26 46 45
f 26 45 27
f 27 45 28
f 28 45 46
f 28 46 47
f 28 47 31
f 28 31 29
f 30 48 32
f 30 31 48
f 31 47 49
f 31 49 48
f 32 48 33
f 33 48 34
f 34 50 51
f 34 51 35
f 34 48 52
f 34 52 50
f 35 51 53
f 35 53 54
f 35 54 55
f 35 55 36
f 36 55 56
f 36 56 57
f 36 57 37
f 37 57 56
f 37 56 58
f 37 58 38
f 38 58 59
f 38 59 60
f 38 60 61
f 38 61 39
f 39 61 62
f 39 62 40
f 40 62 63
f 40 63 41
f 41 63 64
f 41 64 65
f 41 65 66
f 41 66 67
f 41 67 42
f 42 67 43
f 46 68 47
f 47 68 69
f 47 69 49
f 48 70 52
f 48 49 71
f 48 71 70
f 49 69 71
f 50 72 51
f 50 52 73
f 50 73 72
f 51 74 75
f 51 75 53
f 51 72 74
f 52 70 73
f 53 75 76
f 53 76 54
f 54 76 55
f 55 76 77
f 55 77 78
f 55 78 56
f 56 59 58
f 56 78 79
f 56 79 80
f 56 80 59
f 59 80 60
f 60 80 81
f 60 81 82
f 60 82 63
f 60 63 62
f 60 62 61
f 63 82 83
f 63 83 64
f 64 83 84
f 64 84 85
f 64 85 86
f 64 86 87
f 64 87 88
f 64 88 89
f 64 89 65
f 68 90 91
f 68 91 69
f 69 91 71
f 70 92 73
f 70 71 93
f 70 93 92
f 71 91 93
f 72 94 74
f 72 73 95
f 72 95 94
f 73 92 95
f 74 94 96
f 74 96 97
f 74 97 98
f 74 98 75
f 75 98 76
f 76 98 99
f 76 99 77
f 77 99 100
f 77 100 101
f 77 101 78
f 78 101 102
f 78 102 79
f 79 102 103
f 79 103 80
f 80 103 104
f 80 104 81
f 81 104 105
f 81 105 82
f 82 105 106
f 82 106 83
f 83 106 107
f 83 107 108
f 83 108 84
f 84 108 140
f 84 140 139
f 84 139 187
f 84 187 186
f 84 186 239
f 84 239 238
f 84 238 237
f 84 237 236
f 84 236 302
f 84 302 378
f 84 378 377
f 84 377 376
f 84 376 375
f 84 375 374
f 84 374 373
f 84 373 372
f 84 372 371
f 84 371 467
f 84 467 549
f 84 549 630
f 84 630 632
f 84 632 631
f 84 631 696
f 84 696 737
f 84 737 740
f 84 740 769
f 84 769 731
f 84 731 730
f 84 730 729
f 84 729 728
f 84 728 727
f 84 727 726
f 84 726 725
f 84 725 724
f 84 724 723
f 84 723 722
f 84 722 721
f 84 721 679
f 84 679 603
f 84 603 602
f 84 602 601
f 84 601 600
f 84 600 685
f 84 685 684
f 84 684 683
f 84 683 682
f 84 682 735
f 84 735 734
f 84 734 776
f 84 776 775
f 84 775 774
f 84 774 773
f 84 773 777
f 84 777 743
f 84 743 752
f 84 752 751
f 84 751 750
f 84 750 742
f 84 742 741
f 84 741 706
f 84 706 642
f 84 642 641
f 84 641 640
f 84 640 637
f 84 637 559
f 84 559 558
f 84 558 557
f 84 557 555
f 84 555 476
f 84 476 394
f 84 394 393
f 84 393 392
f 84 392 391
f 84 391 390
f 84 390 389
f 84 389 307
f 84 307 243
f 84 243 189
f 84 189 141
f 84 141 110
f 84 110 109
f 84 109 87
f 84 87 86
f 84 86 85
f 87 109 88
f 88 109 89
f 89 109 110
f 90 111 91
f 91 111 112
f 91 112 93
f 92 113 114
f 92 114 115
f 92 115 116
f 92 116 117
f 92 117 95
f 92 93 118
f 92 118 113
f 93 112 119
f 93 119 120
f 93 120 121
f 93 121 118
f 94 122 96
f 94 95 122
f 95 117 122
f 96 122 97
f 97 122 123
f 97 123 124
f 97 124 98
f 98 124 99
f 99 124 125
f 99 125 100
f 100 125 126
f 100 126 101
f 101 126 127
f 101 127 128
f 101 128 102
f 102 128 129
f 102 129 103
f 103 129 130
f 103 130 131
f 103 131 104
f 104 131 132
f 104 132 133
f 104 133 134
f 104 134 105
f 105 134 135
f 105 135 106
f 106 135 136
f 106 136 137
f 106 137 138
f 106 138 107
f 107 138 139
f 107 139 140
f 107 140 108
f 111 142 112
f 112 142 119
f 113 143 144
f 113 144 145
f 113 145 146
f 113 146 147
f 113 147 114
f 113 118 121
f 113 121 148
f 113 148 143
f 114 147 149
f 114 149 150
f 114 150 151
f 114 151 152
f 114 152 153
f 114 153 115
f 115 153 154
f 115 154 117
f 115 117 116
f 117 123 122
f 117 154 155
f 117 155 123
f 119 156 120
f 120 156 157
f 120 157 148
f 120 148 121
f 123 125 124
f 123 155 158
f 123 158 125
f 125 158 159
f 125 159 126
f 126 159 127
f 127 159 160
f 127 160 161
f 127 161 162
f 127 162 163
f 127 163 164
f 127 164 165
f 127 165 166
f 127 166 128
f 128 166 129
f 129 166 130
f 130 165 164
f 130 164 167
f 130 167 168
f 130 168 169
f 130 169 132
f 130 132 170
f 130 170 131
f 130 166 165
f 131 170 132
f 132 169 171
f 132 171 168
f 132 168 172
f 132 172 173
f 132 173 174
f 132 174 175
f 132 175 176
f 132 176 177
f 132 177 133
f 133 177 178
f 133 178 179
f 133 179 134
f 134 179 180
f 134 180 181
f 134 181 135
f 135 181 136
f 136 181 180
f 136 180 182
f 136 182 183
f 136 183 184
f 136 184 185
f 136 185 137
f 137 185 186
f 137 186 187
f 137 187 138
f 138 187 139
f 141 189 241
f 141 241 188
f 143 190 191
f 143 191 192
f 143 192 144
f 143 148 193
f 143 193 194
f 143 194 190
f 144 195 196
f 144 196 197
f 144 197 145
f 144 192 198
f 144 198 199
f 144 199 195
f 145 197 200
f 145 200 201
f 145 201 202
f 145 202 146
f 146 203 150
f 146 150 149
f 146 149 147
f 146 202 204
f 146 204 203
f 148 205 206
f 148 206 193
f 148 157 205
f 150 203 207
f 150 207 152
f 150 152 151
f 152 208 209
f 152 209 210
f 152 210 211
f 152 211 153
f 152 207 208
f 153 212 213
f 153 213 154
f 153 211 212
f 154 213 155
f 155 213 214
f 155 214 158
f 157 215 205
f 158 160 159
f 158 214 216
f 158 216 160
f 160 216 161
f 161 216 162
f 162 217 218
f 162 218 168
f 162 168 219
f 162 219 220
f 162 220 163
f 162 216 221
f 162 221 222
f 162 222 217
f 163 220 164
f 164 220 167
f 167 219 168
f 167 220 219
f 168 218 223
f 168 223 224
f 168 224 225
f 168 225 173
f 168 173 172
f 168 171 169
f 173 226 174
f 173 225 226
f 174 226 227
f 174 227 175
f 175 227 228
f 175 228 182
f 175 182 178
f 175 178 176
f 176 178 177
f 178 182 180
f 178 180 179
f 182 228 183
f 183 229 230
f 183 230 231
f 183 231 232
f 183 232 233
f 183 233 234
f 183 234 184
f 183 228 229
f 184 234 185
f 185 234 235
f 185 235 236
f 185 236 237
f 185 237 238
f 185 238 239
f 185 239 186
f 188 241 240
f 189 242 241
f 189 243 242
f 190 244 245
f 190 245 246
f 190 246 247
f 190 247 191
f 190 194 248
f 190 248 244
f 191 247 198
f 191 198 192
f 193 206 249
f 193 249 194
f 194 250 251
f 194 251 248
f 194 249 250
f 195 252 253
f 195 253 254
f 195 254 255
f 195 255 256
f 195 256 196
f 195 199 252
f 196 256 257
f 196 257 258
f 196 258 259
f 196 259 260
f 196 260 197
f 197 260 261
f 197 261 262
f 197 262 200
f 198 247 199
f 199 247 246
f 199 246 263
f 199 263 264
f 199 264 265
f 199 265 252
f 200 262 201
f 201 266 204
f 201 204 202
f 201 262 266
f 203 267 207
f 203 204 268
f 203 268 267
f 204 266 269
f 204 269 268
f 205 215 270
f 205 270 271
f 205 271 272
f 205 272 273
f 205 273 274
f 205 274 275
f 205 275 206
f 206 275 249
f 207 267 276
f 207 276 208
f 208 276 209
f 209 276 277
f 209 277 210
f 210 277 278
f 210 278 279
f 210 279 280
f 210 280 211
f 211 280 281
f 211 281 282
f 211 282 212
f 212 283 284
f 212 284 214
f 212 214 213
f 212 282 283
f 214 221 216
f 214 284 221
f 215 285 286
f 215 286 270
f 217 222 287
f 217 287 223
f 217 223 218
f 221 284 222
f 222 284 283
f 222 283 287
f 223 287 288
f 223 288 289
f 223 289 290
f 223 290 224
f 224 291 292
f 224 292 225
f 224 290 293
f 224 293 294
f 224 294 291
f 225 292 291
f 225 291 295
f 225 295 226
f 226 295 296
f 226 296 227
f 227 296 228
f 228 296 229
f 229 296 230
f 230 296 291
f 230 291 231
f 231 291 297
f 231 297 298
f 231 298 299
f 231 299 232
f 232 300 233
f 232 299 301
f 232 301 300
f 233 300 234
f 234 300 235
f 235 300 302
f 235 302 236
f 240 241 303
f 241 242 303
f 242 304 303
f 242 243 305
f 242 305 306
f 242 306 304
f 243 307 308
f 243 308 305
f 244 309 310
f 244 310 245
f 244 248 311
f 244 311 312
f 244 312 309
f 245 310 313
f 245 313 314
f 245 314 246
f 246 314 315
f 246 315 263
f 248 251 250
f 248 250 311
f 249 275 250
f 250 316 317
f 250 317 318
f 250 318 312
f 250 312 311
f 250 275 319
f 250 319 316
f 252 254 253
f 252 265 255
f 252 255 254
f 255 320 321
f 255 321 322
f 255 322 256
f 255 265 323
f 255 323 324
f 255 324 320
f 256 322 257
f 257 322 258
f 258 325 259
f 258 322 321
f 258 321 320
f 258 320 326
f 258 326 327
f 258 327 328
f 258 328 329
f 258 329 330
f 258 330 325
f 259 325 331
f 259 331 260
f 260 331 332
f 260 332 333
f 260 333 261
f 261 333 334
f 261 334 262
f 262 334 335
f 262 335 336
f 262 336 337
f 262 337 266
f 263 315 323
f 263 323 264
f 264 323 265
f 266 337 269
f 267 338 276
f 267 268 339
f 267 339 338
f 268 269 340
f 268 340 339
f 269 337 341
f 269 341 342
f 269 342 340
f 270 286 343
f 270 343 344
f 270 344 345
f 270 345 271
f 271 345 272
f 272 345 346
f 272 346 347
f 272 347 348
f 272 348 273
f 273 349 350
f 273 350 274
f 273 348 349
f 274 350 275
f 275 350 351
f 275 351 319
f 276 338 352
f 276 352 353
f 276 353 277
f 277 353 278
f 278 353 354
f 278 354 355
f 278 355 356
f 278 356 279
f 279 357 280
f 279 356 357
f 280 357 281
f 281 358 359
f 281 359 282
f 281 357 360
f 281 360 358
f 282 359 283
f 283 359 287
f 285 361 286
f 286 361 362
f 286 362 343
f 287 359 288
f 288 359 358
f 288 358 363
f 288 363 290
f 288 290 289
f 290 363 364
f 290 364 365
f 290 365 293
f 291 296 366
f 291 366 295
f 291 294 293
f 291 293 298
f 291 298 297
f 293 365 367
f 293 367 368
f 293 368 298
f 295 366 296
f 298 368 299
f 299 368 369
f 299 369 370
f 299 370 301
f 300 371 372
f 300 372 373
f 300 373 374
f 300 374 375
f 300 375 376
f 300 376 377
f 300 377 378
f 300 378 302
f 300 301 379
f 300 379 380
f 300 380 381
f 300 381 371
f 301 370 382
f 301 382 379
f 303 304 384
f 303 384 383
f 304 306 385
f 304 385 384
f 305 308 306
f 306 308 386
f 306 386 387
f 306 387 388
f 306 388 384
f 306 384 385
f 307 389 308
f 308 389 390
f 308 390 391
f 308 391 392
f 308 392 393
f 308 393 394
f 308 394 395
f 308 395 386
f 309 396 397
f 309 397 310
f 309 312 396
f 310 397 398
f 310 398 313
f 312 318 399
f 312 399 400
f 312 400 401
f 312 401 402
f 312 402 403
f 312 403 396
f 313 404 405
f 313 405 314
f 313 398 404
f 314 405 315
f 315 405 406
f 315 406 407
f 315 407 323
f 316 319 408
f 316 408 317
f 317 408 409
f 317 409 410
f 317 410 411
f 317 411 412
f 317 412 399
f 317 399 318
f 319 351 413
f 319 413 408
f 320 324 414
f 320 414 326
f 323 407 415
f 323 415 414
f 323 414 324
f 325 330 331
f 326 414 416
f 326 416 327
f 327 416 417
f 327 417 418
f 327 418 328
f 328 419 420
f 328 420 329
f 328 418 419
f 329 420 330
f 330 420 421
f 330 421 422
f 330 422 331
f 331 422 332
f 332 422 333
f 333 422 423
f 333 423 424
f 333 424 334
f 334 424 425
f 334 425 335
f 335 425 336
f 336 425 426
f 336 426 427
f 336 427 337
f 337 427 341
f 338 339 352
f 339 340 428
f 339 428 429
f 339 429 430
f 339 430 352
f 340 342 431
f 340 431 428
f 341 427 432
f 341 432 342
f 342 432 433
f 342 433 434
f 342 434 435
f 342 435 431
f 343 436 347
f 343 347 344
f 344 347 345
f 345 347 346
f 347 436 437
f 347 437 438
f 347 438 439
f 347 439 440
f 347 440 348
f 348 440 441
f 348 441 442
f 348 442 443
f 348 443 349
f 349 444 445
f 349 445 351
f 349 351 350
f 349 443 444
f 351 445 446
f 351 446 447
f 351 447 413
f 352 430 448
f 352 448 449
f 352 449 450
f 352 450 451
f 352 451 353
f 353 451 452
f 353 452 354
f 354 452 453
f 354 453 355
f 355 453 454
f 355 454 356
f 356 454 455
f 356 455 456
f 356 456 357
f 357 456 360
f 358 360 457
f 358 457 364
f 358 364 363
f 360 456 458
f 360 458 459
f 360 459 457
f 364 457 459
f 364 459 365
f 365 459 460
f 365 460 461
f 365 461 368
f 365 368 367
f 368 461 462
f 368 462 463
f 368 463 369
f 369 463 464
f 369 464 465
f 369 465 382
f 369 382 370
f 371 381 466
f 371 466 467
f 379 382 380
f 380 382 468
f 380 468 466
f 380 466 381
f 382 465 468
f 383 384 470
f 383 470 469
f 384 471 532
f 384 532 439
f 384 439 438
f 384 438 470
f 384 388 471
f 386 395 472
f 386 472 387
f 387 472 473
f 387 473 474
f 387 474 475
f 387 475 441
f 387 441 388
f 388 441 471
f 394 476 395
f 395 476 477
f 395 477 478
f 395 478 479
f 395 479 472
f 396 403 480
f 396 480 481
f 396 481 482
f 396 482 397
f 397 482 483
f 397 483 484
f 397 484 398
f 398 484 485
f 398 485 486
f 398 486 404
f 399 412 400
f 400 412 487
f 400 487 488
f 400 488 489
f 400 489 490
f 400 490 401
f 401 490 402
f 402 490 480
f 402 480 403
f 404 486 491
f 404 491 405
f 405 491 492
f 405 492 406
f 406 492 416
f 406 416 407
f 407 416 415
f 408 413 409
f 409 413 493
f 409 493 410
f 410 493 494
f 410 494 495
f 410 495 411
f 411 496 412
f 411 495 496
f 412 496 497
f 412 497 487
f 413 447 498
f 413 498 499
f 413 499 493
f 414 415 500
f 414 500 416
f 415 416 500
f 416 492 417
f 417 492 501
f 417 501 418
f 418 502 503
f 418 503 419
f 418 501 502
f 419 504 505
f 419 505 420
f 419 503 504
f 420 506 421
f 420 505 506
f 421 507 422
f 421 506 508
f 421 508 509
f 421 509 510
f 421 510 507
f 422 507 423
f 423 507 424
f 424 507 511
f 424 511 425
f 425 511 512
f 425 512 513
f 425 513 514
f 425 514 426
f 426 514 515
f 426 515 516
f 426 516 517
f 426 517 433
f 426 433 432
f 426 432 427
f 428 431 518
f 428 518 429
f 429 518 519
f 429 519 520
f 429 520 521
f 429 521 522
f 429 522 450
f 429 450 449
f 429 449 430
f 430 449 448
f 431 435 518
f 433 517 434
f 434 517 523
f 434 523 524
f 434 524 435
f 435 524 525
f 435 525 526
f 435 526 527
f 435 527 528
f 435 528 529
f 435 529 530
f 435 530 520
f 435 520 519
f 435 519 518
f 436 531 438
f 436 438 437
f 438 531 469
f 438 469 470
f 439 532 533
f 439 533 440
f 440 533 441
f 441 533 532
f 441 532 471
f 441 475 442
f 442 475 474
f 442 474 534
f 442 534 535
f 442 535 444
f 442 444 443
f 444 535 536
f 444 536 446
f 444 446 445
f 446 536 447
f 447 536 498
f 450 522 451
f 451 522 452
f 452 522 453
f 453 522 454
f 454 522 537
f 454 537 538
f 454 538 539
f 454 539 455
f 455 540 456
f 455 539 541
f 455 541 540
f 456 540 460
f 456 460 458
f 458 460 459
f 460 540 541
f 460 541 461
f 461 541 542
f 461 542 543
f 461 543 462
f 462 543 542
f 462 542 544
f 462 544 463
f 463 545 546
f 463 546 464
f 463 544 547
f 463 547 545
f 464 546 548
f 464 548 468
f 464 468 465
f 466 549 467
f 466 468 548
f 466 548 550
f 466 550 549
f 472 479 551
f 472 551 473
f 473 551 552
f 473 552 553
f 473 553 474
f 474 553 554
f 474 554 534
f 476 555 478
f 476 478 477
f 478 556 551
f 478 551 479
f 478 555 557
f 478 557 558
f 478 558 559
f 478 559 560
f 478 560 561
f 478 561 556
f 480 490 489
f 480 489 481
f 481 562 482
f 481 489 562
f 482 563 483
f 482 562 563
f 483 564 565
f 483 565 566
f 483 566 485
f 483 485 484
f 483 563 564
f 485 566 567
f 485 567 568
f 485 568 569
f 485 569 491
f 485 491 486
f 487 497 570
f 487 570 488
f 488 570 571
f 488 571 489
f 489 571 572
f 489 572 573
f 489 573 562
f 491 569 501
f 491 501 492
f 493 499 494
f 494 499 495
f 495 574 575
f 495 575 497
f 495 497 496
f 495 499 576
f 495 576 574
f 497 577 578
f 497 578 579
f 497 579 580
f 497 580 581
f 497 581 570
f 497 575 582
f 497 582 577
f 498 583 535
f 498 535 499
f 498 536 583
f 499 535 584
f 499 584 576
f 501 585 502
f 501 569 585
f 502 586 587
f 502 587 588
f 502 588 503
f 502 585 589
f 502 589 586
f 503 588 587
f 503 587 505
f 503 505 504
f 505 587 590
f 505 590 591
f 505 591 506
f 506 591 592
f 506 592 593
f 506 593 508
f 507 510 511
f 508 593 594
f 508 594 509
f 509 594 510
f 510 595 604
f 510 604 596
f 510 596 597
f 510 597 512
f 510 512 511
f 510 594 598
f 510 598 599
f 510 599 600
f 510 600 601
f 510 601 602
f 510 602 603
f 510 603 679
f 510 679 595
f 512 597 596
f 512 596 513
f 513 596 604
f 513 604 514
f 514 604 605
f 514 605 606
f 514 606 607
f 514 607 515
f 515 607 608
f 515 608 516
f 516 608 609
f 516 609 517
f 517 609 523
f 520 530 610
f 520 610 521
f 521 610 522
f 522 610 611
f 522 611 537
f 523 609 524
f 524 609 612
f 524 612 525
f 525 613 614
f 525 614 526
f 525 612 613
f 526 614 615
f 526 615 527
f 527 615 617
f 527 617 528
f 528 616 529
f 528 617 616
f 529 616 618
f 529 618 619
f 529 619 620
f 529 620 611
f 529 611 530
f 530 611 610
f 534 554 535
f 535 583 536
f 535 554 584
f 537 611 620
f 537 620 538
f 538 620 539
f 539 620 541
f 541 620 621
f 541 621 544
f 541 544 542
f 544 621 622
f 544 622 623
f 544 623 547
f 545 547 624
f 545 624 625
f 545 625 546
f 546 625 548
f 547 623 619
f 547 619 626
f 547 626 627
f 547 627 628
f 547 628 625
f 547 625 624
f 548 625 629
f 548 629 550
f 549 550 630
f 550 631 632
f 550 632 630
f 550 629 625
f 550 625 631
f 551 556 552
f 552 633 634
f 552 634 553
f 552 556 635
f 552 635 633
f 553 634 636
f 553 636 554
f 554 636 584
f 556 561 635
f 559 637 560
f 560 638 639
f 560 639 561
f 560 637 640
f 560 640 641
f 560 641 642
f 560 642 638
f 561 639 643
f 561 643 644
f 561 644 635
f 562 573 645
f 562 645 564
f 562 564 563
f 564 645 646
f 564 646 565
f 565 647 567
f 565 567 566
f 565 646 648
f 565 648 647
f 567 589 568
f 567 647 589
f 568 589 585
f 568 585 569
f 570 581 572
f 570 572 571
f 572 649 650
f 572 650 651
f 572 651 648
f 572 648 646
f 572 646 573
f 572 581 652
f 572 652 649
f 573 646 645
f 574 582 575
f 574 576 584
f 574 584 582
f 577 582 578
f 578 582 579
f 579 653 654
f 579 654 655
f 579 655 656
f 579 656 657
f 579 657 658
f 579 658 652
f 579 652 659
f 579 659 580
f 579 582 653
f 580 659 581
f 581 659 652
f 582 584 660
f 582 660 661
f 582 661 653
f 584 636 662
f 584 662 663
f 584 663 660
f 586 664 587
f 586 589 664
f 587 665 666
f 587 666 590
f 587 664 667
f 587 667 668
f 587 668 669
f 587 669 665
f 589 647 670
f 589 670 671
f 589 671 667
f 589 667 664
f 590 666 672
f 590 672 673
f 590 673 674
f 590 674 591
f 591 674 593
f 591 593 592
f 593 675 594
f 593 674 676
f 593 676 673
f 593 673 675
f 594 675 673
f 594 673 677
f 594 677 598
f 595 678 604
f 595 679 678
f 598 677 673
f 598 673 680
f 598 680 681
f 598 681 682
f 598 682 683
f 598 683 684
f 598 684 685
f 598 685 599
f 599 685 600
f 604 686 605
f 604 678 686
f 605 686 606
f 606 686 687
f 606 687 607
f 607 687 608
f 608 688 609
f 608 687 689
f 608 689 688
f 609 688 690
f 609 690 612
f 612 690 689
f 612 689 613
f 613 689 691
f 613 691 614
f 614 691 615
f 615 691 692
f 615 692 693
f 615 693 617
f 616 617 694
f 616 694 618
f 617 693 627
f 617 627 694
f 618 694 619
f 619 695 621
f 619 621 620
f 619 694 626
f 619 623 695
f 621 623 622
f 621 695 623
f 625 696 631
f 625 628 697
f 625 697 698
f 625 698 696
f 626 694 627
f 627 693 699
f 627 699 628
f 628 699 697
f 633 662 634
f 633 635 700
f 633 700 663
f 633 663 662
f 634 662 636
f 635 660 700
f 635 644 660
f 638 701 702
f 638 702 703
f 638 703 639
f 638 642 701
f 639 703 704
f 639 704 705
f 639 705 643
f 642 706 701
f 643 705 661
f 643 661 660
f 643 660 644
f 647 648 707
f 647 707 708
f 647 708 670
f 648 651 650
f 648 650 709
f 648 709 707
f 649 710 650
f 649 652 710
f 650 710 711
f 650 711 709
f 652 658 710
f 653 705 654
f 653 661 705
f 654 705 704
f 654 704 655
f 655 704 656
f 656 704 657
f 657 704 712
f 657 712 713
f 657 713 658
f 658 713 714
f 658 714 710
f 660 663 700
f 665 669 715
f 665 715 672
f 665 672 666
f 667 716 668
f 667 671 708
f 667 708 717
f 667 717 716
f 668 716 715
f 668 715 669
f 670 708 671
f 672 715 680
f 672 680 673
f 673 676 718
f 673 718 674
f 674 718 676
f 678 719 720
f 678 720 691
f 678 691 689
f 678 689 687
f 678 687 686
f 678 679 721
f 678 721 722
f 678 722 723
f 678 723 724
f 678 724 725
f 678 725 726
f 678 726 727
f 678 727 728
f 678 728 729
f 678 729 730
f 678 730 731
f 678 731 719
f 680 715 732
f 680 732 733
f 680 733 681
f 681 733 734
f 681 734 735
f 681 735 682
f 688 689 690
f 691 720 692
f 692 720 693
f 693 736 699
f 693 720 736
f 696 698 737
f 697 699 698
f 698 699 738
f 698 738 739
f 698 739 740
f 698 740 737
f 699 736 720
f 699 720 719
f 699 719 739
f 699 739 738
f 701 706 741
f 701 741 742
f 701 742 702
f 702 743 744
f 702 744 745
f 702 745 746
f 702 746 747
f 702 747 748
f 702 748 749
f 702 749 703
f 702 742 750
f 702 750 751
f 702 751 752
f 702 752 743
f 703 749 712
f 703 712 704
f 707 709 708
f 708 753 754
f 708 754 717
f 708 709 755
f 708 755 756
f 708 756 753
f 709 711 757
f 709 757 755
f 710 714 758
f 710 758 759
f 710 759 760
f 710 760 711
f 711 761 757
f 711 760 761
f 712 749 762
f 712 762 748
f 712 748 763
f 712 763 761
f 712 761 764
f 712 764 713
f 713 764 765
f 713 765 714
f 714 765 758
f 715 716 766
f 715 766 732
f 716 717 766
f 717 754 767
f 717 767 768
f 717 768 766
f 719 731 769
f 719 769 739
f 732 770 733
f 732 766 768
f 732 768 770
f 733 770 771
f 733 771 772
f 733 772 745
f 733 745 773
f 733 773 774
f 733 774 775
f 733 775 776
f 733 776 734
f 739 769 740
f 743 777 745
f 743 745 744
f 745 777 773
f 745 772 746
f 746 772 778
f 746 778 747
f 747 779 748
f 747 778 779
f 748 779 780
f 748 780 761
f 748 761 763
f 748 762 749
f 753 756 781
f 753 781 767
f 753 767 754
f 755 757 780
f 755 780 779
f 755 779 756
f 756 779 781
f 757 761 780
f 758 765 759
f 759 765 761
f 759 761 760
f 761 765 764
f 767 781 778
f 767 778 771
f 767 771 768
f 768 771 770
f 771 778 772
f 778 781 779

