# https://github.com/mikedh/trimesh
v -0.26428783 0.24498007 -0.13498521
v -0.26255280 0.02479888 0.12479893
v -0.26418579 0.24498007 -0.05503397
v -0.26418579 0.25495890 -0.11497827
v -0.26418579 0.25495890 -0.12496261
v -0.26367545 0.27491659 -0.20499036
v -0.26377755 0.26493773 -0.20499036
v -0.26372653 0.25495890 -0.20499036
v -0.26000124 -0.23077022 0.10758454
v -0.26035845 -0.21515518 0.12479893
v -0.26270586 0.20478752 0.12479893
v -0.26270586 0.20497233 0.12479893
v -0.26403266 0.25495890 -0.05503397
v -0.26306313 0.30494547 -0.21497470
v -0.26326722 0.29496664 -0.21497470
v -0.26342034 0.28498781 -0.21497470
v -0.26352239 0.27491659 -0.21497470
v -0.26357341 0.26493773 -0.21497470
v -0.26347136 0.25495890 -0.21497470
v -0.26357341 0.24498007 -0.20499036
v -0.25744975 -0.23492806 -0.06501831
v -0.25969505 -0.25516292 0.12479893
v -0.25989920 -0.24389054 0.12479893
v -0.26005232 -0.23502046 0.12479893
v -0.26122600 0.29496664 0.12479893
v -0.26102185 0.30494547 0.12479893
v -0.26270586 0.31492433 -0.21497470
v -0.26204252 0.31492433 -0.22499728
v -0.26234865 0.30494547 -0.22499728
v -0.26040953 0.29496664 -0.25047457
v -0.26051158 0.28498781 -0.25066584
v -0.24872348 -0.30496472 -0.24496597
v -0.25132605 -0.30496472 -0.21497470
v -0.25204048 -0.30496472 -0.20499036
v -0.25719458 -0.24499929 -0.06501831
v -0.25933784 -0.26514176 0.12479893
v -0.25658220 -0.27493581 -0.04501138
v -0.26035845 0.31289160 0.12479893
v -0.26209354 0.32499555 -0.20499036
v -0.26214457 0.32499555 -0.21497470
v -0.26000124 0.31039688 -0.25001553
v -0.26015437 0.30494547 -0.25020680
v -0.26102185 0.32591951 -0.22591540
v -0.26005232 0.32046813 -0.24087277
v -0.25494921 0.28498781 -0.25185174
v -0.23499623 0.37498215 -0.25357318
v -0.23499623 -0.16498381 -0.25877574
v -0.24499825 -0.01493167 -0.25563890
v -0.25163221 -0.01493167 -0.25315237
v -0.25045854 -0.11499723 -0.25097188
v -0.25030541 -0.12497607 -0.25078061
v -0.24469206 -0.30496472 -0.25200474
v -0.24831523 -0.31494355 -0.24496597
v -0.25107092 -0.31494355 -0.21497470
v -0.25168326 -0.31494355 -0.20499036
v -0.25658220 -0.26495698 -0.06501831
v -0.25612295 -0.26495698 -0.08498699
v -0.25673532 -0.26495698 -0.05503397
v -0.25821519 -0.27493581 0.07499199
v -0.25867444 -0.27493581 0.11496761
v -0.25877655 -0.27512059 0.12479893
v -0.25642914 -0.27493581 -0.05503397
v -0.25596982 -0.28491464 -0.05503397
v -0.25974613 0.31797341 0.12479893
v -0.26117498 0.33497438 -0.20499036
v -0.26112396 0.33497438 -0.21497470
v -0.26040953 0.33497438 -0.22258729
v -0.25418377 0.34495324 -0.24496597
v -0.25066265 0.35262215 -0.25051284
v -0.25132605 0.34495324 -0.25078061
v -0.26000124 0.34014860 -0.22025377
v -0.25841933 0.33497438 -0.23498163
v -0.24188536 0.37498215 -0.25169870
v -0.23535344 0.38505337 -0.25269333
v -0.22499421 0.38496098 -0.25449127
v 0.09496821 -0.43496677 -0.26589102
v -0.14497809 -0.45039701 -0.26022941
v -0.23499623 -0.17496264 -0.25873747
v -0.20499018 0.40491864 -0.25521809
v -0.18498616 0.42496872 -0.25560063
v -0.24362041 -0.26495698 -0.25361142
v -0.24402866 -0.27493581 -0.25319064
v -0.23499623 -0.26495698 -0.25697780
v -0.24433485 -0.31494355 -0.25181347
v -0.24606989 -0.32492238 -0.24496597
v -0.24224259 -0.34497246 -0.24343580
v -0.24086475 -0.35495129 -0.24140835
v -0.24504927 -0.34497246 -0.23498163
v -0.24683535 -0.33499363 -0.23498163
v -0.24994822 -0.32935742 -0.21964172
v -0.25050956 -0.32556915 -0.21577802
v -0.25122398 -0.32492238 -0.20499036
v -0.25622499 -0.27493581 -0.06501831
v -0.25765383 -0.28491464 0.07499199
v -0.25775594 -0.28491464 0.08497632
v -0.25801104 -0.28491464 0.12479893
v -0.25867444 0.32499555 0.12479893
v -0.26025641 0.34088778 -0.20499036
v -0.26020539 0.34079537 -0.21497470
v -0.25632703 0.34495324 -0.23498163
v -0.25153017 0.35557884 -0.24546328
v -0.24959101 0.35927472 -0.24913567
v -0.24096681 0.38172710 -0.25120142
v -0.25882757 0.34578478 -0.21497470
v -0.25607193 0.35493207 -0.21497470
v -0.25500023 0.35493207 -0.22499728
v -0.25352037 0.35493207 -0.23498163
v -0.23229159 0.39309189 -0.25185174
v -0.21499220 0.40491864 -0.25449127
v 0.10497022 -0.44494560 -0.26600578
v 0.22499441 0.24498007 -0.26286894
v -0.09496801 -0.45492446 -0.26114750
v -0.09496801 -0.46074545 -0.26072669
v -0.15023425 -0.45011982 -0.26007637
v -0.23499623 -0.25497812 -0.25728384
v -0.20499018 0.41498989 -0.25441477
v -0.19554950 0.42561549 -0.25342014
v -0.17498414 0.43494755 -0.25468254
v -0.14497809 0.44492638 -0.25567713
v -0.13497607 0.44492638 -0.25598317
v -0.11497205 0.44492638 -0.25632748
v -0.20499018 -0.37490895 -0.25697780
v -0.20499018 -0.38498020 -0.25655699
v -0.20499018 -0.39495903 -0.25613621
v -0.20499018 -0.40493786 -0.25498858
v -0.21499220 -0.38498020 -0.25380269
v -0.21534941 -0.39458945 -0.25227252
v -0.22055455 -0.39107838 -0.25039807
v -0.24234465 -0.32492238 -0.25101015
v -0.23999724 -0.36003309 -0.24003118
v -0.24555957 -0.35495129 -0.21497470
v -0.24806008 -0.34497246 -0.21497470
v -0.24959101 -0.33545560 -0.21577802
v -0.25025439 -0.33240652 -0.21298549
v -0.25045854 -0.33397725 -0.20499036
v -0.25484717 -0.31494355 0.12479893
v -0.25683737 0.33478960 0.12479893
v -0.25459200 0.34476843 0.12479893
v -0.25275493 0.35493207 0.06496940
v -0.25877655 0.34596959 -0.20499036
v -0.25040752 0.36103025 -0.24247944
v -0.25010133 0.37026989 -0.22078934
v -0.24790700 0.37562892 -0.21497470
v -0.24234465 0.38570014 -0.21428612
v -0.23974209 0.38958082 -0.21719345
v -0.23137304 0.40177715 -0.21497470
v -0.22029939 0.41027763 -0.25039807
v -0.25255078 0.36491090 -0.21497470
v -0.25066265 0.36186182 0.06496940
v -0.24953997 0.36860678 -0.03502703
v -0.25142813 0.36528048 -0.22446173
v -0.22254474 0.40491864 -0.25169870
v -0.21407364 0.41415831 -0.25158396
v 0.23499642 -0.30496472 -0.26420784
v 0.23499642 -0.31494355 -0.26420784
v 0.19498836 -0.40493786 -0.26386353
v 0.11497224 -0.44494560 -0.26543197
v 0.11497224 -0.45233735 -0.26271591
v 0.10497022 -0.45289174 -0.26290718
v -0.08496600 0.44492638 -0.25663349
v -0.07496399 0.44492638 -0.25671002
v 0.22540265 0.29496664 -0.26164481
v 0.23188354 0.29496664 -0.26164481
v 0.23203664 0.28498781 -0.26187432
v 0.23259798 0.24498007 -0.26271591
v -0.10093861 -0.46046826 -0.26045892
v 0.09496821 -0.45640281 -0.25498858
v 0.07496418 -0.46407172 -0.22499728
v -0.00494988 -0.46582726 -0.22499728
v -0.08496600 -0.46813717 -0.21497470
v -0.11497205 -0.46887633 -0.20499036
v -0.12497406 -0.46961552 -0.19779858
v -0.12160604 -0.46019107 -0.25051284
v -0.13497607 -0.46397933 -0.21497470
v -0.15151002 -0.45067421 -0.25498858
v -0.17090169 -0.44051057 -0.25231078
v -0.18289389 -0.43173289 -0.25257856
v -0.20034640 -0.42027572 -0.25055107
v -0.19498816 -0.42249322 -0.25231078
v -0.20417368 -0.41417754 -0.25196651
v -0.19498816 -0.41491672 -0.25586841
v -0.19498816 -0.40493786 -0.25716907
v -0.20499018 -0.36493012 -0.25728384
v -0.19264075 0.43180606 -0.25200474
v -0.18447584 0.43503994 -0.25273156
v -0.17498414 0.44196969 -0.25192824
v -0.15498011 0.44492638 -0.25460604
v -0.14497809 0.45241052 -0.25276983
v -0.11497205 0.45407367 -0.25338191
v -0.06496197 0.45499763 -0.25437650
v 0.03495612 0.45499763 -0.25628921
v -0.21024634 -0.41029689 -0.25035980
v -0.21187933 -0.40493786 -0.25146919
v -0.23045449 -0.38082236 -0.24114054
v -0.23984414 -0.36964235 -0.21910614
v -0.24183434 -0.36576170 -0.21543375
v -0.24637607 -0.35495129 -0.20499036
v -0.24311011 -0.36493012 -0.20499036
v -0.24877451 -0.34497246 -0.20499036
v -0.24984616 -0.33896667 -0.20499036
v -0.25357139 -0.32492238 0.12479893
v -0.25193840 0.35474727 0.12479893
v -0.25204048 0.35493207 0.11496761
v -0.25030541 0.36075306 0.11496761
v -0.25025439 0.37063950 -0.21497470
v -0.25025439 0.37054709 -0.20816547
v -0.24724360 0.37498215 -0.07496440
v -0.24244671 0.38431418 -0.06501831
v -0.24265084 0.38468379 -0.13498521
v -0.23989518 0.38985798 -0.14496955
v -0.23999724 0.39004278 -0.20961910
v -0.23999724 0.39004278 -0.21049896
v -0.23693539 0.39401585 -0.21428612
v -0.23147511 0.40196195 -0.20499036
v -0.22739266 0.40676656 -0.21497470
v -0.22239165 0.41249517 -0.21497470
v -0.21759476 0.41757697 -0.21497470
v -0.21014428 0.42007169 -0.25020680
v -0.24974410 0.36925355 -0.08498699
v -0.24877451 0.36685124 0.06496940
v -0.24688637 0.37498215 -0.03502703
v 0.24259999 -0.31494355 -0.26271591
v 0.24208969 0.04494135 -0.26221862
v 0.21514548 -0.39486665 -0.26221862
v 0.21499239 -0.38498020 -0.26286894
v 0.20499037 -0.39495903 -0.26359576
v 0.20529656 -0.40521505 -0.26271591
v 0.16498232 -0.43533638 -0.26283067
v 0.15498030 -0.43496677 -0.26367226
v 0.15498030 -0.44208133 -0.26191258
v 0.11497224 -0.45464727 -0.25498858
v 0.10497022 -0.45594081 -0.25498858
v 0.12497425 -0.45122859 -0.26164481
v 0.04495813 0.45499763 -0.25628921
v 0.23504744 0.29496664 -0.25498858
v 0.24020155 0.16496459 -0.26034415
v 0.23142427 0.30494547 -0.26130050
v -0.12497406 -0.46841437 -0.20499036
v 0.08496619 -0.46370214 -0.22499728
v 0.06496216 -0.46601206 -0.21497470
v 0.05496015 -0.46628925 -0.21497470
v 0.04495813 -0.46647403 -0.21497470
v -0.11818698 -0.47016990 -0.19278727
v -0.12497406 -0.47016990 -0.19278727
v -0.13033229 -0.47007751 -0.19091281
v -0.14222243 -0.46111503 -0.21497470
v -0.14722344 -0.45862031 -0.21497470
v -0.15498011 -0.45473966 -0.21497470
v -0.16115482 -0.45058182 -0.22228125
v -0.16707438 -0.44836429 -0.21497470
v -0.18008721 -0.44004861 -0.22029203
v -0.19228354 -0.43173289 -0.21497470
v -0.19728455 -0.42775986 -0.21497470
v -0.20305102 -0.42267802 -0.21497470
v -0.20805202 -0.41805819 -0.21497470
v -0.18080163 0.44039896 -0.25070411
v -0.16089967 0.45037779 -0.25058934
v -0.15498011 0.45130175 -0.25169870
v -0.16452284 0.44520357 -0.25261682
v -0.13497607 0.45601398 -0.24496597
v -0.12497406 0.45739993 -0.24496597
v -0.11497205 0.45850870 -0.24496597
v -0.08011808 0.45998704 -0.24997726
v -0.07496399 0.46007943 -0.25028330
v -0.06496197 0.46026424 -0.25074235
v -0.05495996 0.46044901 -0.25112489
v -0.04495794 0.46063381 -0.25139269
v 0.03495612 0.46201977 -0.25338191
v 0.04495813 0.46238935 -0.25342014
v -0.21289994 -0.41306877 -0.21497470
v -0.21790095 -0.40734020 -0.21497470
v -0.22172825 -0.40235075 -0.21497470
v -0.22723956 -0.39421988 -0.21505120
v -0.22974007 -0.38950762 -0.21845582
v -0.23239367 -0.38571936 -0.21505120
v -0.23816013 -0.37444699 -0.21543375
v -0.24030341 -0.37075111 -0.21241167
v -0.24647813 -0.35495129 -0.19496776
v -0.24326320 -0.36493012 -0.19496776
v -0.24060960 -0.37130550 -0.20499036
v -0.24071166 -0.37149030 -0.19496776
v -0.25040752 -0.34173858 0.12479893
v -0.25188738 -0.33499363 0.12479893
v -0.25188738 0.35493207 0.12479893
v -0.25020337 0.36047587 0.12479893
v -0.24841730 0.36592725 0.10498326
v -0.24239568 0.38422179 -0.05503397
v -0.23958899 0.38930362 -0.06501831
v -0.23142408 0.40196195 -0.13498521
v -0.22780091 0.40695137 -0.13498521
v -0.22279990 0.41323435 -0.13498521
v -0.22744368 0.40695137 -0.20499036
v -0.21830919 0.41822377 -0.13498521
v -0.21289994 0.42284361 -0.17499909
v -0.21259375 0.42238161 -0.21497470
v -0.20692936 0.42737103 -0.21497470
v -0.20192835 0.43143648 -0.21497470
v -0.20106082 0.43078971 -0.22499728
v -0.18978304 0.43984458 -0.21830282
v -0.18891552 0.43929020 -0.22499728
v -0.24453896 0.37498215 0.10498326
v -0.24111991 0.38200429 0.10498326
v -0.24214052 0.38366741 -0.01502010
v -0.24234465 0.38385221 -0.03502703
v 0.24530461 -0.29498589 -0.25498858
v 0.24499844 -0.31494355 -0.25498858
v 0.24418195 -0.32492238 -0.25498858
v 0.24030361 -0.35079345 -0.26034415
v 0.24362060 0.04494135 -0.25498858
v 0.24407989 -0.01493167 -0.25498858
v 0.22096299 -0.39144796 -0.26099446
v 0.21193054 -0.40207359 -0.26156828
v 0.20213266 -0.41214481 -0.26179782
v 0.16161428 -0.44078776 -0.26137701
v 0.11150215 -0.46019107 -0.23092669
v 0.13171031 -0.45039701 -0.26057369
v 0.10497022 -0.46065304 -0.23234209
v 0.09496821 -0.46305537 -0.22499728
v 0.09496821 0.46248174 -0.25284633
v 0.09496821 0.45499763 -0.25560063
v 0.20499037 0.37498215 -0.25877574
v 0.23719074 0.29496664 -0.24496597
v 0.23412889 0.30494547 -0.25498858
v 0.24311030 0.21495116 -0.21497470
v 0.23872165 0.29496664 -0.23498163
v 0.23969124 0.29496664 -0.22740731
v 0.24020155 0.29496664 -0.22239602
v 0.21499239 0.36491090 -0.25908178
v 0.23070984 0.31492433 -0.26065019
v 0.07496418 -0.46564245 -0.21497470
v 0.06496216 -0.46638164 -0.20499036
v 0.05496015 -0.46665883 -0.20499036
v 0.04495813 -0.46684361 -0.20499036
v -0.12497406 -0.47053948 -0.18498343
v -0.13089362 -0.47026229 -0.18498343
v -0.13655803 -0.46859917 -0.17499909
v -0.13589463 -0.46813717 -0.18498343
v -0.16207337 -0.45104378 -0.21497470
v -0.17498414 -0.44374445 -0.21497470
v -0.18044442 -0.44023338 -0.21497470
v -0.18544543 -0.43672231 -0.21497470
v -0.19866237 -0.42886859 -0.18498343
v -0.19366136 -0.43274927 -0.18498343
v -0.20366338 -0.42314002 -0.20499036
v -0.20866439 -0.41870499 -0.20499036
v -0.18391451 0.44233927 -0.22499728
v -0.17590269 0.44797549 -0.21497470
v -0.17028931 0.45010060 -0.22071284
v -0.16498213 0.45250291 -0.21497470
v -0.15498011 0.45564440 -0.21497470
v -0.14023224 0.45998704 -0.21057546
v -0.13859926 0.45961747 -0.21723169
v -0.13191423 0.46044901 -0.22231951
v -0.14497809 0.45435086 -0.24496597
v -0.12533128 0.46109581 -0.22537982
v -0.11497205 0.46275893 -0.22499728
v -0.10497003 0.46349812 -0.22499728
v -0.01495190 0.46543846 -0.23498163
v -0.01495190 0.46349812 -0.24496597
v -0.00494988 0.46377531 -0.24496597
v -0.01495190 0.46128058 -0.25196651
v 0.04495813 0.46497646 -0.24496597
v 0.05496015 0.46497646 -0.24496597
v -0.21351230 -0.41371554 -0.20499036
v -0.21851331 -0.40807936 -0.20499036
v -0.22223856 -0.40308994 -0.20499036
v -0.23025037 -0.39043161 -0.21176136
v -0.23826219 -0.37629491 -0.20499036
v -0.24678431 -0.35513610 0.12479893
v -0.24918276 -0.34663561 0.12479893
v -0.24377351 -0.36511493 0.12479893
v -0.24106888 -0.37259907 0.12479893
v -0.23836425 -0.37657210 -0.19496776
v -0.23897663 -0.37749606 0.12479893
v -0.24800906 0.36546528 0.12479893
v -0.24826421 0.36574247 0.11496761
v -0.23953795 0.38921121 -0.05503397
v -0.23035243 0.40048361 0.07499199
v -0.22678028 0.40538064 0.08497632
v -0.22177927 0.41221797 0.08497632
v -0.21754374 0.41720739 0.08497632
v -0.21254273 0.42247400 0.08497632
v -0.21330819 0.42293599 -0.13498521
v -0.20759274 0.42783302 -0.17499909
v -0.20259175 0.43208325 -0.17499909
v -0.19600879 0.43707266 -0.17499909
v -0.19585569 0.43688789 -0.18498343
v -0.19059953 0.44039896 -0.19496776
v -0.19034438 0.44021416 -0.20499036
v -0.19406961 0.43707266 -0.21497470
v -0.19014025 0.44002935 -0.21164659
v -0.18585368 0.44243169 -0.21497470
v -0.24413072 0.37498215 0.11496761
v -0.24086475 0.38163468 0.11496761
v -0.23810910 0.38662410 0.11496761
v -0.23831323 0.38699371 0.10498326
v 0.24882574 -0.23492806 -0.22499728
v 0.24857058 -0.29498589 -0.22499728
v 0.24734585 -0.31494355 -0.23498163
v 0.24724378 -0.32492238 -0.23498163
v 0.24601905 -0.33499363 -0.23498163
v 0.24499844 -0.34497246 -0.22499728
v 0.24234484 -0.35495129 -0.22499728
v 0.24015051 -0.36040270 -0.23088843
v 0.23846650 -0.36613128 -0.22499728
v 0.23448612 -0.37490895 -0.22499728
v 0.24683554 0.00493361 -0.22499728
v 0.24974428 -0.17505504 -0.21420962
v 0.24877469 -0.22494923 -0.22499728
v 0.23096499 -0.38174632 -0.22499728
v 0.22820933 -0.38673574 -0.22499728
v 0.21989134 -0.39985606 -0.22909048
v 0.21050169 -0.41048166 -0.23123273
v 0.20595996 -0.41611788 -0.22499728
v 0.20034657 -0.42027572 -0.23081192
v 0.18968117 -0.42970017 -0.22863144
v 0.19126312 -0.42064530 -0.26061192
v 0.18580283 -0.43302646 -0.22518855
v 0.17743380 -0.43847784 -0.22499728
v 0.17243280 -0.44134215 -0.22499728
v 0.16498232 -0.44513041 -0.22499728
v 0.15727668 -0.44873387 -0.22499728
v 0.15227567 -0.45085901 -0.22499728
v 0.15084681 -0.45030463 -0.23111796
v 0.11818717 -0.45963669 -0.22740731
v 0.11487018 -0.46065304 -0.22442347
v 0.10497022 -0.46203899 -0.22499728
v 0.14497828 -0.45326132 -0.22499728
v 0.13497627 -0.45594081 -0.22499728
v 0.09496821 -0.46416411 -0.21497470
v 0.08496619 -0.46499568 -0.21497470
v 0.10497022 0.46220455 -0.25261682
v 0.08496619 0.46479166 -0.24496597
v 0.09496821 0.46460688 -0.24496597
v 0.10497022 0.45499763 -0.25521809
v 0.20499037 0.38496098 -0.25808716
v 0.23040366 0.35308412 -0.25089538
v 0.25040770 0.25560567 0.12479893
v 0.25096905 0.23490883 0.12479893
v 0.24331442 0.20497233 -0.21497470
v 0.24066083 0.29496664 -0.21497470
v 0.23928300 0.30476069 -0.22446173
v 0.23984434 0.30799457 -0.21818805
v 0.24004845 0.30134201 -0.22082758
v 0.21499239 0.37498215 -0.25785762
v 0.23014851 0.32028332 -0.26011464
v 0.11497224 -0.47016990 0.12479893
v 0.11308410 -0.47026229 0.12479893
v 0.10568465 -0.47053948 0.12479893
v -0.12497406 -0.47072428 -0.17499909
v -0.13155702 -0.47044709 -0.17499909
v -0.13676216 -0.46878394 -0.16497648
v -0.18712944 -0.43820065 -0.16497648
v -0.18187328 -0.44106495 -0.17499909
v -0.18687429 -0.43801588 -0.17499909
v -0.18641502 -0.43783107 -0.18498343
v -0.19386549 -0.43302646 -0.17499909
v -0.19886650 -0.42896101 -0.17499909
v -0.20412266 -0.42387918 -0.18498343
v -0.20897058 -0.41898215 -0.19496776
v -0.17641300 0.44825268 -0.20499036
v -0.17090169 0.45037779 -0.21497470
v -0.16498213 0.45305729 -0.20499036
v -0.15498011 0.45619878 -0.20499036
v -0.14579459 0.45878589 -0.20499036
v -0.14079358 0.46017182 -0.20499036
v -0.13497607 0.46146539 -0.20499036
v -0.12497406 0.46275893 -0.21497470
v -0.13512917 0.46072620 -0.21432438
v -0.11497205 0.46423727 -0.21497470
v -0.10497003 0.46516126 -0.21497470
v -0.01495190 0.46719399 -0.22499728
v 0.06496216 0.46793315 -0.21497470
v -0.21376745 -0.41399273 -0.19496776
v -0.21876846 -0.40844893 -0.19496776
v -0.22244267 -0.40345952 -0.19496776
v -0.22723956 -0.39579061 -0.20499036
v -0.23045449 -0.39070880 -0.20499036
v -0.23372047 -0.38498020 -0.20499036
v -0.23397562 -0.38498020 -0.19496776
v -0.23535344 -0.38498020 0.12479893
v -0.24362041 0.37479734 0.12479893
v -0.23336324 0.39493981 0.10498326
v -0.22999522 0.40002161 0.11026234
v -0.21744166 0.41702262 0.09499892
v -0.22157516 0.41203317 0.09499892
v -0.21228758 0.42228922 0.10498326
v -0.21244067 0.42238161 0.09499892
v -0.20713347 0.42746341 0.08497632
v -0.20749068 0.42792541 -0.12496261
v -0.20213246 0.43171367 0.07499199
v -0.19600879 0.43707266 -0.16497648
v -0.19100778 0.44067615 -0.17499909
v -0.18498616 0.44400242 -0.18498343
v -0.18498616 0.44344804 -0.20499036
v -0.24055858 0.38080311 0.12479893
v -0.23764983 0.38588494 0.12479893
v -0.23264882 0.39410824 0.12479893
v -0.23249573 0.39577138 0.11416427
v -0.24050754 0.38089553 0.12479893
v 0.24969326 -0.23492806 -0.21497470
v 0.24959119 -0.24499929 -0.21497470
v 0.24836646 -0.31494355 -0.22499728
v 0.24800925 -0.32492238 -0.22499728
v 0.24688657 -0.33499363 -0.22499728
v 0.24520256 -0.34497246 -0.21497470
v 0.24265102 -0.35495129 -0.21497470
v 0.24040568 -0.36114186 -0.22499728
v 0.23872165 -0.36659327 -0.21497470
v 0.23494539 -0.37490895 -0.21497470
v 0.24719276 0.00493361 -0.21497470
v 0.24999945 -0.17838132 -0.21038419
v 0.23122014 -0.38211590 -0.21497470
v 0.22014649 -0.40022564 -0.22243425
v 0.22264700 -0.39588299 -0.22545636
v 0.21677846 -0.40410629 -0.22545636
v 0.21106303 -0.41112846 -0.22499728
v 0.20095895 -0.42083010 -0.22499728
v 0.20208162 -0.43201008 0.12479893
v 0.19422290 -0.42655867 -0.22518855
v 0.19039559 -0.43025455 -0.22197521
v 0.17794411 -0.43875504 -0.21497470
v 0.17294310 -0.44161934 -0.21497470
v 0.16498232 -0.44559240 -0.21497470
v 0.15783802 -0.44901106 -0.21497470
v 0.15283701 -0.45113620 -0.21497470
v 0.14497828 -0.45390809 -0.21497470
v 0.12420879 -0.45862031 -0.22442347
v 0.12038149 -0.46000627 -0.22075108
v 0.10497022 -0.46296296 -0.21497470
v 0.13497627 -0.45668000 -0.21497470
v 0.12471910 -0.46924594 0.12479893
v 0.12374951 -0.46933833 0.12479893
v 0.11497224 0.46137300 -0.25192824
v 0.11497224 0.45499763 -0.25445300
v 0.07496418 0.46784076 -0.21497470
v 0.09496821 0.46700919 -0.21497470
v 0.10497022 0.46682438 -0.20499036
v 0.10497022 0.46359050 -0.24496597
v 0.08496619 0.46765596 -0.21497470
v 0.18498634 0.41498989 -0.25540936
v 0.19498836 0.40491864 -0.25609794
v 0.22402482 0.36491090 -0.25449127
v 0.22203462 0.37498215 -0.25342014
v 0.22065680 0.38117272 -0.25166047
v 0.22775006 0.36491090 -0.24496597
v 0.22979128 0.35881272 -0.24496597
v 0.23321034 0.35493207 -0.21497470
v 0.23504744 0.34495324 -0.21497470
v 0.23673147 0.33497438 -0.21497470
v 0.23831341 0.32499555 -0.21497470
v 0.23816033 0.31492433 -0.22499728
v 0.24821337 0.28498781 0.07499199
v 0.25010151 0.26493773 0.12479893
v 0.25704169 -0.26495698 0.12479893
v 0.24025258 0.30476069 -0.21489820
v 0.24009949 0.31113607 -0.21149358
v 0.24908088 0.29496664 0.12479893
v 0.23948713 0.31464714 -0.21489820
v 0.20499037 0.39493981 -0.25563890
v 0.21524754 0.38468379 -0.25422350
v -0.11497205 -0.47442013 0.12479893
v -0.13176115 -0.47053948 -0.16497648
v -0.13405752 -0.47155586 0.12479893
v -0.13921162 -0.46952313 0.12479893
v -0.15498011 -0.46296296 0.12479893
v -0.16089967 -0.46037585 0.12479893
v -0.16590068 -0.45788115 0.12479893
v -0.17544341 -0.45233735 0.12479893
v -0.18258771 -0.44152695 -0.14496955
v -0.18738459 -0.43829307 -0.15499213
v -0.19039540 -0.44032580 0.03497811
v -0.19391653 -0.43321124 -0.16497648
v -0.19641703 -0.43644512 0.12479893
v -0.20912367 -0.41916695 -0.18498343
v -0.17692330 0.44852987 -0.17499909
v -0.17141199 0.45065498 -0.20499036
v -0.18498616 0.44418722 -0.17499909
v -0.17192230 0.45083976 -0.17499909
v -0.16498213 0.45342687 -0.17499909
v -0.15498011 0.45629117 -0.19496776
v -0.14610077 0.45887828 -0.19496776
v -0.14109977 0.46026424 -0.19496776
v -0.13497607 0.46174258 -0.19496776
v -0.12497406 0.46340573 -0.20499036
v -0.11497205 0.46469927 -0.20499036
v -0.10497003 0.46562323 -0.20499036
v -0.05495996 0.46747115 -0.20499036
v -0.01495190 0.46811795 -0.21497470
v 0.06496216 0.46867234 -0.20499036
v -0.21386953 -0.41417754 -0.18498343
v -0.21887054 -0.40863374 -0.18498343
v -0.22254474 -0.40364432 -0.18498343
v -0.22744368 -0.39597541 -0.19496776
v -0.23060758 -0.39098600 -0.19496776
v -0.23096481 -0.39172515 -0.05503397
v -0.23137304 -0.39227954 0.12479893
v -0.22938286 0.39909765 0.12479893
v -0.22524936 0.40491864 0.12479893
v -0.22091176 0.41092443 0.12479893
v -0.22111589 0.41147882 0.11496761
v -0.22137104 0.41175601 0.10498326
v -0.21713549 0.41646823 0.11496761
v -0.21198139 0.42191961 0.12479893
v -0.21213448 0.42210442 0.11496761
v -0.20667419 0.42700145 0.12479893
v -0.20177525 0.43115929 0.12479893
v -0.20213246 0.43162128 0.08497632
v -0.19524331 0.43670309 0.08497632
v -0.19534539 0.43670309 0.07499199
v -0.19100778 0.44067615 -0.16497648
v -0.18498616 0.44427961 -0.16497648
v 0.24999945 -0.18133801 -0.21038419
v 0.25377572 -0.27493581 -0.01502010
v 0.24902986 -0.29498589 -0.21497470
v 0.24882574 -0.30496472 -0.21497470
v 0.25688857 -0.27493581 0.12479893
v 0.25658238 -0.28491464 0.12479893
v 0.25239789 -0.33471644 0.12479893
v 0.25591898 -0.29498589 0.12479893
v 0.25081593 -0.34506485 0.12479893
v 0.24984635 -0.34931511 0.12479893
v 0.24055876 -0.36160386 -0.21497470
v 0.24076289 -0.37185988 0.07499199
v 0.23861960 -0.37684929 0.07499199
v 0.24826439 -0.35421211 0.12479893
v 0.23571084 -0.38479540 0.12479893
v 0.23178148 -0.39274153 0.12479893
v 0.23162839 -0.39301869 0.12479893
v 0.22861758 -0.39791572 0.12479893
v 0.22300421 -0.40586182 0.12479893
v 0.21713568 -0.41390035 0.12479893
v 0.21147127 -0.42156926 0.12479893
v 0.21090993 -0.42101488 0.08497632
v 0.20708263 -0.42665109 0.12479893
v 0.19651929 -0.43699950 0.12479893
v 0.19151828 -0.44115734 0.12479893
v 0.18498634 -0.44577718 0.12479893
v 0.17932193 -0.44956544 0.12479893
v 0.17442299 -0.45233735 0.12479893
v 0.16396169 -0.45788115 0.12479893
v 0.15987924 -0.45991388 0.12479893
v 0.15610297 -0.46139222 0.12479893
v 0.15584782 -0.46148461 0.12479893
v 0.14477415 -0.46518049 0.12479893
v 0.11497224 -0.46129981 -0.21497470
v 0.13497627 -0.46749040 0.12479893
v 0.12186138 0.46054143 -0.25097188
v 0.13497627 0.45268771 -0.25196651
v 0.17498434 0.42496872 -0.25422350
v 0.07496418 0.46857992 -0.20499036
v 0.09496821 0.46774834 -0.20499036
v 0.10497022 0.46710157 -0.19496776
v 0.11497224 0.46571562 -0.19496776
v 0.11497224 0.46534604 -0.20499036
v 0.08496619 0.46830273 -0.20499036
v 0.18447603 0.42478392 -0.25227252
v 0.19483526 0.41471270 -0.25284633
v 0.21157333 0.39493981 -0.25188997
v 0.20999138 0.40002161 -0.25005379
v 0.21989134 0.38985798 -0.21922091
v 0.22213669 0.38588494 -0.21551025
v 0.22718872 0.37498215 -0.21497470
v 0.22958717 0.36879155 -0.21497470
v 0.23111808 0.36380213 -0.21497470
v 0.23361859 0.35493207 -0.20499036
v 0.23545569 0.34495324 -0.20499036
v 0.23713970 0.33497438 -0.20499036
v 0.23861960 0.32499555 -0.20499036
v 0.24571286 0.33497438 0.12479893
v 0.24683554 0.32499555 0.12479893
v 0.24770306 0.31510910 0.12479893
v 0.24846853 0.30513027 0.12479893
v 0.20100997 0.41120163 -0.25131616
v 0.20458212 0.40399468 -0.25227252
v -0.12497406 -0.47386578 0.12479893
v -0.17631094 -0.45178297 0.12479893
v -0.18452688 -0.44623917 0.12479893
v -0.19131395 -0.44106495 0.12479893
v -0.20141803 -0.43154812 0.12479893
v -0.17702536 0.44852987 -0.16497648
v -0.17202435 0.45083976 -0.16497648
v -0.16498213 0.45342687 -0.16497648
v -0.15498011 0.45675316 0.07499199
v -0.15498011 0.45656836 -0.10499393
v -0.15498011 0.45647597 -0.16497648
v -0.14625385 0.45897067 -0.16497648
v -0.14701933 0.45915547 0.08497632
v -0.14201832 0.46044901 0.08497632
v -0.13497607 0.46192735 0.08497632
v -0.12497406 0.46359050 -0.19496776
v -0.11497205 0.46469927 0.06496940
v -0.10497003 0.46562323 0.05498505
v -0.09496801 0.46636242 0.03497811
v -0.08496600 0.46700919 0.03497811
v -0.06496197 0.46784076 0.00498684
v -0.09496801 0.46608523 -0.19496776
v -0.07496399 0.46691680 -0.19496776
v -0.06496197 0.46728638 -0.19496776
v -0.02495391 0.46830273 -0.20499036
v -0.01495190 0.46848753 -0.20499036
v 0.04495813 0.46867234 -0.20499036
v 0.06496216 0.46904191 -0.19496776
v -0.20631698 -0.42563471 0.12479893
v -0.21912569 -0.40900332 -0.05503397
v -0.22305505 -0.40401390 -0.05503397
v -0.22805606 -0.39671457 -0.05503397
v -0.22754575 -0.39597541 -0.18498343
v -0.22805606 -0.39745376 0.12479893
v -0.21688034 0.41609862 0.12479893
v -0.19488610 0.43587151 0.12479893
v -0.19008923 0.44002935 0.09232114
v -0.19024232 0.44012177 0.08497632
v -0.19034438 0.44021416 0.07499199
v -0.18498616 0.44326326 0.08497632
v -0.17625991 0.44806787 0.08497632
v 0.24413091 -0.36493012 0.12479893
v 0.24101804 -0.37241426 0.12479893
v 0.23892578 -0.37740368 0.12479893
v 0.13283297 0.46091101 -0.20499036
v 0.13783398 0.45924786 -0.20499036
v 0.14497828 0.45656836 -0.20499036
v 0.14497828 0.45536721 -0.21497470
v 0.15365350 0.45176375 -0.21497470
v 0.14405973 0.45167133 -0.24496597
v 0.14268190 0.45111695 -0.25104839
v 0.12497425 0.46312854 -0.20499036
v 0.16217563 0.44123054 -0.25104839
v 0.17498434 0.43226805 -0.25162220
v 0.07496418 0.46894953 -0.19496776
v 0.08496619 0.46867234 -0.19496776
v 0.09496821 0.46802554 -0.19496776
v 0.10517435 0.46710157 0.12479893
v 0.09517233 0.46811795 0.12479893
v 0.12497425 0.46386769 0.12479893
v 0.13507833 0.46183497 0.12479893
v 0.12497425 0.46359050 -0.19496776
v 0.11517636 0.46562323 0.12479893
v 0.19141620 0.42127284 -0.25131616
v 0.18075080 0.43051252 -0.25066584
v 0.20146926 0.41175601 -0.24496597
v 0.20835839 0.40778294 -0.21497470
v 0.21193054 0.40279353 -0.21497470
v 0.21749289 0.39410824 -0.21551025
v 0.22019751 0.39031997 -0.21252644
v 0.22305524 0.38496098 -0.20499036
v 0.22769903 0.37498215 -0.20499036
v 0.22984232 0.36953074 -0.20499036
v 0.23132221 0.36454132 -0.20499036
v 0.24402885 0.34495324 0.12479893
v 0.19692752 0.41674542 -0.24496597
v -0.17125890 0.45056260 0.08497632
v -0.16498213 0.45314968 0.08497632
v -0.15498011 0.45675316 0.08497632
v -0.14686623 0.45915547 0.12479893
v -0.14196728 0.46044901 0.12479893
v -0.13497607 0.46183497 0.12479893
v -0.12497406 0.46349812 0.08497632
v -0.12497406 0.46359050 -0.16497648
v -0.11497205 0.46460688 0.08497632
v -0.10497003 0.46553084 0.07499199
v -0.09496801 0.46636242 0.04496246
v -0.08496600 0.46682438 0.05498505
v -0.07496399 0.46728638 0.05498505
v -0.07496399 0.46737877 0.04496246
v -0.06496197 0.46784076 0.03497811
v -0.05495996 0.46811795 -0.00503576
v -0.05495996 0.46756357 -0.19496776
v -0.04495794 0.46839514 0.02499378
v 0.01495209 0.46904191 -0.15499213
v 0.02495410 0.46913430 -0.15499213
v 0.05496015 0.46904191 -0.19496776
v 0.06496216 0.46913430 -0.18498343
v -0.21039943 -0.42046052 0.12479893
v -0.22315711 -0.40401390 0.12479893
v -0.18442482 0.44289365 0.12479893
v -0.17600475 0.44788307 0.12479893
v -0.17100374 0.45047018 0.12479893
v 0.13344535 0.46109581 -0.19496776
v 0.13844636 0.45943266 -0.19496776
v 0.14497828 0.45675316 -0.19496776
v 0.15441896 0.45222571 -0.20499036
v 0.15865451 0.44936141 -0.21497470
v 0.14906074 0.44936141 -0.24496597
v 0.15498030 0.44640473 -0.24496597
v 0.16350242 0.44196969 -0.24496597
v 0.07496418 0.46904191 -0.18498343
v 0.08496619 0.46876472 -0.18498343
v 0.08496619 0.46867234 0.12479893
v 0.14150819 0.46035662 0.12479893
v 0.14640714 0.45897067 0.12479893
v 0.19197755 0.42182723 -0.24496597
v 0.16850343 0.43892062 -0.24496597
v 0.16498232 0.44566557 -0.21497470
v 0.17192249 0.44132292 -0.21497470
v 0.17692350 0.43781185 -0.21497470
v 0.18365954 0.43282244 -0.21497470
v 0.18866055 0.42884937 -0.21497470
v 0.18610902 0.42681664 -0.24496597
v 0.19907081 0.41896293 -0.21497470
v 0.20335740 0.41397351 -0.21497470
v 0.21045066 0.41055483 -0.05503397
v 0.21779908 0.40741336 0.12479893
v 0.21800320 0.40713617 0.12479893
v 0.22147329 0.40223914 0.12479893
v 0.21708465 0.39540178 -0.20499036
v 0.22560677 0.39512461 0.12479893
v 0.22570883 0.39493981 0.12479893
v 0.22912788 0.38856444 0.12479893
v 0.23162839 0.38339022 0.12479893
v 0.23504744 0.37498215 0.12479893
v 0.23872165 0.36426413 0.12445464
v 0.23887475 0.36380213 0.12479893
v 0.24132423 0.35585603 0.12479893
v -0.16498213 0.45296490 0.12479893
v -0.15498011 0.45666075 0.12479893
v -0.12497406 0.46322092 0.12479893
v -0.12497406 0.46331331 0.11496761
v -0.11497205 0.46414489 0.12479893
v -0.10497003 0.46497646 0.12479893
v -0.09496801 0.46608523 0.07499199
v -0.08496600 0.46673200 0.06496940
v -0.07496399 0.46719399 0.06496940
v -0.06496197 0.46765596 0.05498505
v -0.05495996 0.46811795 0.03497811
v -0.00494988 0.46876472 0.07499199
v 0.00495007 0.46894953 0.07499199
v 0.01495209 0.46913430 0.07499199
v -0.00494988 0.46904191 0.03497811
v 0.03495612 0.46950388 -0.00503576
v 0.04495813 0.46941149 -0.13498521
v 0.05496015 0.46941149 -0.11497827
v 0.14671333 0.45887828 0.12479893
v 0.15513340 0.45582920 0.12479893
v 0.16401273 0.45185614 0.12479893
v 0.16891168 0.44954622 0.12479893
v 0.15941997 0.44963861 -0.20499036
v 0.06496216 0.46931911 -0.09497134
v 0.07496418 0.46904191 -0.08498699
v 0.06496216 0.46931911 -0.08498699
v 0.04495813 0.46941149 -0.01502010
v 0.04495813 0.46922672 0.07499199
v 0.03495612 0.46931911 0.07499199
v 0.05496015 0.46894953 0.10498326
v 0.04495813 0.46885711 0.11496761
v 0.04495813 0.46867234 0.12479893
v 0.19406980 0.42385995 -0.21497470
v 0.16498232 0.44621995 -0.20499036
v 0.17222866 0.44150773 -0.20499036
v 0.17722967 0.43799663 -0.20499036
v 0.18386367 0.43300721 -0.20499036
v 0.18886468 0.42894176 -0.20499036
v 0.20095895 0.42090327 -0.05503397
v 0.21290013 0.41295716 0.12479893
v 0.23872165 0.36426413 0.12479893
v -0.09496801 0.46553084 0.12479893
v -0.06496197 0.46756357 0.06496940
v -0.05495996 0.46793315 0.05498505
v -0.00494988 0.46848753 0.09499892
v 0.02495410 0.46876472 0.10498326
v 0.02495410 0.46931911 0.06496940
v 0.00495007 0.46848753 0.10498326
v 0.05496015 0.46941149 -0.08498699
v 0.17498434 0.44557315 0.12479893
v 0.17324929 0.44224688 -0.14496955
v 0.16518643 0.44723630 -0.14496955
v 0.00495007 0.46830273 0.11496761
v 0.00495007 0.46811795 0.12479893
v 0.17304516 0.44215450 -0.15499213
v 0.17825030 0.43864343 -0.14496955
v 0.18447603 0.43365401 -0.14496955
v 0.19003838 0.43005052 -0.09126068
v 0.19544764 0.42589268 -0.05503397
v 0.20784809 0.41785416 0.12479893
v -0.08496600 0.46590042 0.12479893
v -0.02495391 0.46756357 0.12479893
v 0.18126111 0.44104573 0.12479893
v 0.19044663 0.43032771 -0.05503397
v 0.20764397 0.41803896 0.12479893
f 1 2 3
f 1 3 4
f 1 4 5
f 1 5 6
f 1 6 7
f 1 7 8
f 1 8 9
f 1 9 10
f 1 10 2
f 2 11 3
f 2 10 24
f 2 24 23
f 2 23 22
f 2 22 36
f 2 36 61
f 2 61 96
f 2 96 136
f 2 136 201
f 2 201 283
f 2 283 282
f 2 282 370
f 2 370 369
f 2 369 371
f 2 371 372
f 2 372 374
f 2 374 481
f 2 481 597
f 2 597 709
f 2 709 775
f 2 775 774
f 2 774 704
f 2 704 680
f 2 680 574
f 2 574 679
f 2 679 678
f 2 678 677
f 2 677 569
f 2 569 568
f 2 568 567
f 2 567 566
f 2 566 565
f 2 565 564
f 2 564 676
f 2 676 562
f 2 562 449
f 2 449 448
f 2 448 447
f 2 447 533
f 2 533 532
f 2 532 647
f 2 647 645
f 2 645 644
f 2 644 643
f 2 643 642
f 2 642 641
f 2 641 640
f 2 640 639
f 2 639 638
f 2 638 637
f 2 637 636
f 2 636 519
f 2 519 635
f 2 635 633
f 2 633 632
f 2 632 631
f 2 631 630
f 2 630 629
f 2 629 628
f 2 628 627
f 2 627 719
f 2 719 718
f 2 718 717
f 2 717 626
f 2 626 622
f 2 622 621
f 2 621 619
f 2 619 620
f 2 620 618
f 2 618 617
f 2 617 555
f 2 555 439
f 2 439 438
f 2 438 554
f 2 554 558
f 2 558 673
f 2 673 672
f 2 672 671
f 2 671 670
f 2 670 750
f 2 750 814
f 2 814 813
f 2 813 855
f 2 855 811
f 2 811 810
f 2 810 809
f 2 809 808
f 2 808 807
f 2 807 805
f 2 805 804
f 2 804 803
f 2 803 854
f 2 854 874
f 2 874 879
f 2 879 877
f 2 877 864
f 2 864 836
f 2 836 835
f 2 835 834
f 2 834 833
f 2 833 791
f 2 791 790
f 2 790 736
f 2 736 735
f 2 735 738
f 2 738 733
f 2 733 734
f 2 734 789
f 2 789 846
f 2 846 868
f 2 868 876
f 2 876 875
f 2 875 856
f 2 856 820
f 2 820 819
f 2 819 817
f 2 817 757
f 2 757 756
f 2 756 755
f 2 755 816
f 2 816 815
f 2 815 778
f 2 778 777
f 2 777 776
f 2 776 711
f 2 711 607
f 2 607 606
f 2 606 604
f 2 604 710
f 2 710 600
f 2 600 599
f 2 599 598
f 2 598 498
f 2 498 497
f 2 497 500
f 2 500 496
f 2 496 482
f 2 482 375
f 2 375 285
f 2 285 284
f 2 284 202
f 2 202 138
f 2 138 137
f 2 137 97
f 2 97 64
f 2 64 38
f 2 38 26
f 2 26 25
f 2 25 12
f 2 12 11
f 3 11 12
f 3 12 13
f 3 13 4
f 4 13 14
f 4 14 5
f 5 14 15
f 5 15 6
f 6 15 16
f 6 16 7
f 7 16 17
f 7 17 18
f 7 18 8
f 8 18 19
f 8 19 20
f 8 20 9
f 9 21 22
f 9 22 23
f 9 23 24
f 9 24 10
f 9 20 21
f 12 25 13
f 13 25 26
f 13 26 27
f 13 27 14
f 14 27 28
f 14 28 29
f 14 29 15
f 15 29 16
f 16 29 30
f 16 30 31
f 16 31 17
f 17 31 18
f 18 31 19
f 19 31 32
f 19 32 33
f 19 33 34
f 19 34 20
f 20 34 21
f 21 34 35
f 21 35 22
f 22 35 37
f 22 37 36
f 26 38 39
f 26 39 27
f 27 39 40
f 27 40 28
f 28 41 42
f 28 42 29
f 28 40 43
f 28 43 44
f 28 44 41
f 29 42 30
f 30 45 31
f 30 42 46
f 30 46 45
f 31 45 47
f 31 47 48
f 31 48 49
f 31 49 50
f 31 50 32
f 32 50 51
f 32 51 52
f 32 52 53
f 32 53 54
f 32 54 33
f 33 54 34
f 34 54 55
f 34 55 93
f 34 93 56
f 34 56 57
f 34 57 35
f 35 57 56
f 35 56 62
f 35 62 58
f 35 58 37
f 36 37 59
f 36 59 60
f 36 60 61
f 37 58 62
f 37 62 63
f 37 63 59
f 38 64 65
f 38 65 39
f 39 65 40
f 40 65 66
f 40 66 67
f 40 67 43
f 41 44 68
f 41 68 69
f 41 69 70
f 41 70 42
f 42 70 46
f 43 67 44
f 44 67 71
f 44 71 72
f 44 72 68
f 45 46 47
f 46 70 73
f 46 73 74
f 46 74 75
f 46 75 47
f 47 76 77
f 47 77 78
f 47 78 48
f 47 75 79
f 47 79 80
f 47 80 76
f 48 78 49
f 49 78 81
f 49 81 82
f 49 82 52
f 49 52 50
f 50 52 51
f 52 82 83
f 52 83 84
f 52 84 53
f 53 84 85
f 53 85 86
f 53 86 87
f 53 87 88
f 53 88 89
f 53 89 90
f 53 90 91
f 53 91 54
f 54 91 92
f 54 92 55
f 55 92 63
f 55 63 62
f 55 62 93
f 56 93 62
f 59 63 94
f 59 94 60
f 60 94 61
f 61 94 95
f 61 95 96
f 63 92 94
f 64 97 65
f 65 97 98
f 65 98 66
f 66 98 99
f 66 99 71
f 66 71 67
f 68 100 101
f 68 101 102
f 68 102 69
f 68 72 100
f 69 102 103
f 69 103 73
f 69 73 70
f 71 99 104
f 71 104 105
f 71 105 106
f 71 106 107
f 71 107 100
f 71 100 72
f 73 103 74
f 74 103 108
f 74 108 109
f 74 109 75
f 75 109 79
f 76 110 77
f 76 80 111
f 76 111 110
f 77 110 112
f 77 112 113
f 77 113 114
f 77 114 78
f 78 115 81
f 78 114 115
f 79 109 80
f 80 109 116
f 80 116 117
f 80 117 118
f 80 118 119
f 80 119 120
f 80 120 121
f 80 121 111
f 81 115 82
f 82 115 83
f 83 115 183
f 83 183 122
f 83 122 123
f 83 123 124
f 83 124 84
f 84 124 125
f 84 125 126
f 84 126 127
f 84 127 128
f 84 128 129
f 84 129 86
f 84 86 85
f 86 129 87
f 87 130 88
f 87 129 128
f 87 128 130
f 88 130 131
f 88 131 132
f 88 132 89
f 89 133 90
f 89 132 133
f 90 133 134
f 90 134 91
f 91 134 92
f 92 134 135
f 92 135 94
f 94 135 95
f 95 135 136
f 95 136 96
f 97 137 98
f 98 138 139
f 98 139 140
f 98 140 104
f 98 104 99
f 98 137 138
f 100 107 101
f 101 107 141
f 101 141 102
f 102 141 103
f 103 142 143
f 103 143 144
f 103 144 145
f 103 145 146
f 103 146 147
f 103 147 108
f 103 141 142
f 104 140 105
f 105 148 142
f 105 142 106
f 105 140 149
f 105 149 150
f 105 150 148
f 106 141 107
f 106 142 151
f 106 151 141
f 108 147 152
f 108 152 109
f 109 152 153
f 109 153 116
f 110 154 155
f 110 155 156
f 110 156 157
f 110 157 158
f 110 158 159
f 110 159 113
f 110 113 112
f 110 111 154
f 111 121 160
f 111 160 161
f 111 161 162
f 111 162 163
f 111 163 164
f 111 164 165
f 111 165 154
f 113 166 114
f 113 159 167
f 113 167 168
f 113 168 169
f 113 169 170
f 113 170 171
f 113 171 172
f 113 172 166
f 114 166 173
f 114 173 174
f 114 174 175
f 114 175 176
f 114 176 177
f 114 177 178
f 114 178 179
f 114 179 180
f 114 180 181
f 114 181 182
f 114 182 183
f 114 183 115
f 116 153 184
f 116 184 117
f 117 184 185
f 117 185 118
f 118 185 186
f 118 186 187
f 118 187 119
f 119 187 188
f 119 188 189
f 119 189 120
f 120 189 190
f 120 190 191
f 120 191 121
f 121 191 160
f 122 183 182
f 122 182 123
f 123 182 124
f 124 182 125
f 125 127 126
f 125 182 181
f 125 181 180
f 125 180 192
f 125 192 193
f 125 193 127
f 127 193 128
f 128 193 192
f 128 192 194
f 128 194 130
f 130 195 196
f 130 196 131
f 130 194 195
f 131 197 132
f 131 196 198
f 131 198 197
f 132 199 200
f 132 200 133
f 132 197 199
f 133 200 134
f 134 200 135
f 135 200 136
f 136 200 201
f 138 202 203
f 138 203 139
f 139 203 204
f 139 204 149
f 139 149 140
f 141 151 142
f 142 148 205
f 142 205 143
f 143 205 206
f 143 206 207
f 143 207 208
f 143 208 209
f 143 209 210
f 143 210 211
f 143 211 212
f 143 212 144
f 144 212 145
f 145 212 213
f 145 213 146
f 146 214 215
f 146 215 147
f 146 213 212
f 146 212 214
f 147 215 216
f 147 216 217
f 147 217 218
f 147 218 153
f 147 153 152
f 148 150 219
f 148 219 206
f 148 206 205
f 149 204 220
f 149 220 150
f 150 220 221
f 150 221 219
f 153 218 184
f 154 222 155
f 154 165 223
f 154 223 222
f 155 222 224
f 155 224 225
f 155 225 226
f 155 226 156
f 156 226 227
f 156 227 228
f 156 228 229
f 156 229 157
f 157 229 228
f 157 228 230
f 157 230 158
f 158 231 232
f 158 232 159
f 158 230 233
f 158 233 231
f 159 232 167
f 160 191 161
f 161 191 234
f 161 234 163
f 161 163 162
f 163 235 236
f 163 236 164
f 163 234 237
f 163 237 235
f 164 236 165
f 165 236 223
f 166 172 238
f 166 238 173
f 167 232 239
f 167 239 168
f 168 239 330
f 168 330 240
f 168 240 241
f 168 241 169
f 169 241 242
f 169 242 170
f 170 242 243
f 170 243 244
f 170 244 172
f 170 172 171
f 172 244 245
f 172 245 238
f 173 238 245
f 173 245 174
f 174 245 175
f 175 246 247
f 175 247 248
f 175 248 249
f 175 249 176
f 175 245 246
f 176 249 250
f 176 250 251
f 176 251 178
f 176 178 177
f 178 252 253
f 178 253 254
f 178 254 255
f 178 255 192
f 178 192 180
f 178 180 179
f 178 251 252
f 184 256 186
f 184 186 185
f 184 218 256
f 186 256 257
f 186 257 258
f 186 258 259
f 186 259 187
f 187 259 258
f 187 258 188
f 188 258 260
f 188 260 261
f 188 261 262
f 188 262 263
f 188 263 264
f 188 264 189
f 189 264 265
f 189 265 266
f 189 266 267
f 189 267 268
f 189 268 190
f 190 268 191
f 191 268 269
f 191 269 234
f 192 255 270
f 192 270 271
f 192 271 272
f 192 272 273
f 192 273 274
f 192 274 194
f 194 274 275
f 194 275 276
f 194 276 195
f 195 276 277
f 195 277 196
f 196 277 198
f 197 278 199
f 197 198 279
f 197 279 278
f 198 277 280
f 198 280 281
f 198 281 279
f 199 278 282
f 199 282 283
f 199 283 200
f 200 283 201
f 202 284 203
f 203 284 204
f 204 284 285
f 204 285 286
f 204 286 220
f 206 219 207
f 207 219 221
f 207 221 208
f 208 221 287
f 208 287 377
f 208 377 288
f 208 288 210
f 208 210 209
f 210 288 289
f 210 289 211
f 211 289 214
f 211 214 212
f 214 289 290
f 214 290 291
f 214 291 292
f 214 292 215
f 215 292 216
f 216 291 293
f 216 293 217
f 216 292 291
f 217 293 294
f 217 294 295
f 217 295 218
f 218 295 296
f 218 296 297
f 218 297 298
f 218 298 299
f 218 299 300
f 218 300 256
f 220 286 301
f 220 301 221
f 221 301 302
f 221 302 303
f 221 303 304
f 221 304 287
f 222 305 306
f 222 306 307
f 222 307 308
f 222 308 224
f 222 223 305
f 223 236 309
f 223 309 310
f 223 310 305
f 224 311 312
f 224 312 227
f 224 227 226
f 224 226 225
f 224 308 311
f 227 312 313
f 227 313 228
f 228 314 230
f 228 313 314
f 230 314 233
f 231 315 232
f 231 233 316
f 231 316 315
f 232 315 317
f 232 317 318
f 232 318 239
f 233 314 316
f 234 269 319
f 234 319 320
f 234 320 321
f 234 321 237
f 235 322 236
f 235 237 323
f 235 323 322
f 236 324 309
f 236 322 325
f 236 325 326
f 236 326 327
f 236 327 324
f 237 321 328
f 237 328 329
f 237 329 323
f 239 318 431
f 239 431 330
f 240 330 331
f 240 331 332
f 240 332 241
f 241 332 333
f 241 333 242
f 242 333 243
f 243 334 244
f 243 333 334
f 244 334 245
f 245 334 335
f 245 335 336
f 245 336 337
f 245 337 246
f 246 337 247
f 247 337 248
f 248 338 249
f 248 337 338
f 249 338 250
f 250 339 251
f 250 338 337
f 250 337 336
f 250 336 339
f 251 339 340
f 251 340 341
f 251 341 252
f 252 342 253
f 252 341 343
f 252 343 342
f 253 342 344
f 253 344 254
f 254 344 345
f 254 345 255
f 255 345 364
f 255 364 270
f 256 300 299
f 256 299 346
f 256 346 347
f 256 347 348
f 256 348 257
f 257 348 349
f 257 349 350
f 257 350 351
f 257 351 352
f 257 352 353
f 257 353 354
f 257 354 258
f 258 354 260
f 260 354 355
f 260 355 356
f 260 356 261
f 261 356 262
f 262 356 357
f 262 357 263
f 263 357 358
f 263 358 359
f 263 359 264
f 264 359 265
f 265 359 266
f 266 359 360
f 266 360 361
f 266 361 267
f 267 361 269
f 267 269 268
f 269 361 360
f 269 360 362
f 269 362 363
f 269 363 319
f 270 364 365
f 270 365 271
f 271 365 272
f 272 366 367
f 272 367 273
f 272 365 366
f 273 367 274
f 274 367 275
f 275 367 368
f 275 368 276
f 276 368 277
f 277 368 280
f 278 369 370
f 278 370 282
f 278 279 371
f 278 371 369
f 279 281 372
f 279 372 371
f 280 368 373
f 280 373 281
f 281 373 374
f 281 374 372
f 285 375 376
f 285 376 286
f 286 376 301
f 287 304 377
f 288 377 378
f 288 378 289
f 289 378 379
f 289 379 290
f 290 379 380
f 290 380 291
f 291 380 381
f 291 381 293
f 293 382 383
f 293 383 294
f 293 381 382
f 294 383 384
f 294 384 295
f 295 384 296
f 296 384 385
f 296 385 297
f 297 385 386
f 297 386 387
f 297 387 388
f 297 388 389
f 297 389 390
f 297 390 299
f 297 299 298
f 299 390 391
f 299 391 392
f 299 392 346
f 301 393 302
f 301 376 375
f 301 375 393
f 302 393 394
f 302 394 395
f 302 395 396
f 302 396 303
f 303 396 377
f 303 377 304
f 305 310 397
f 305 397 398
f 305 398 399
f 305 399 400
f 305 400 306
f 306 400 307
f 307 400 308
f 308 400 401
f 308 401 402
f 308 402 403
f 308 403 404
f 308 404 405
f 308 405 406
f 308 406 311
f 309 324 407
f 309 407 408
f 309 408 310
f 310 408 409
f 310 409 397
f 311 410 411
f 311 411 412
f 311 412 312
f 311 406 410
f 312 412 413
f 312 413 313
f 313 413 414
f 313 414 415
f 313 415 416
f 313 416 417
f 313 417 314
f 314 418 419
f 314 419 420
f 314 420 421
f 314 421 422
f 314 422 423
f 314 423 424
f 314 424 316
f 314 417 416
f 314 416 418
f 315 425 426
f 315 426 427
f 315 427 317
f 315 316 425
f 316 424 428
f 316 428 429
f 316 429 425
f 317 427 318
f 318 427 430
f 318 430 431
f 319 432 320
f 319 363 433
f 319 433 434
f 319 434 432
f 320 432 435
f 320 435 436
f 320 436 321
f 321 436 328
f 322 323 437
f 322 437 325
f 323 329 437
f 324 438 439
f 324 439 440
f 324 440 407
f 324 327 441
f 324 441 438
f 325 442 443
f 325 443 444
f 325 444 326
f 325 437 442
f 326 444 327
f 327 444 441
f 328 436 445
f 328 445 329
f 329 446 437
f 329 445 446
f 330 431 447
f 330 447 331
f 331 447 448
f 331 448 449
f 331 449 332
f 332 449 450
f 332 450 334
f 332 334 333
f 334 450 451
f 334 451 335
f 335 451 336
f 336 451 452
f 336 452 453
f 336 453 454
f 336 454 339
f 339 454 455
f 339 455 340
f 340 455 456
f 340 456 343
f 340 343 341
f 342 343 457
f 342 457 458
f 342 458 459
f 342 459 460
f 342 460 345
f 342 345 344
f 343 456 455
f 343 455 457
f 345 460 364
f 346 392 347
f 347 461 577
f 347 577 462
f 347 462 348
f 347 392 461
f 348 462 349
f 349 463 464
f 349 464 350
f 349 462 463
f 350 464 465
f 350 465 466
f 350 466 351
f 351 466 467
f 351 467 468
f 351 468 469
f 351 469 352
f 352 469 353
f 353 469 468
f 353 468 355
f 353 355 354
f 355 468 356
f 356 468 470
f 356 470 471
f 356 471 357
f 357 471 472
f 357 472 358
f 358 472 362
f 358 362 360
f 358 360 359
f 362 472 363
f 363 472 473
f 363 473 433
f 364 474 475
f 364 475 365
f 364 460 474
f 365 475 366
f 366 476 477
f 366 477 367
f 366 475 476
f 367 478 479
f 367 479 368
f 367 477 478
f 368 479 480
f 368 480 373
f 373 480 481
f 373 481 374
f 375 482 393
f 377 396 483
f 377 483 378
f 378 484 379
f 378 483 484
f 379 484 380
f 380 485 381
f 380 484 486
f 380 486 485
f 381 485 487
f 381 487 488
f 381 488 382
f 382 488 489
f 382 489 383
f 383 489 490
f 383 490 384
f 384 490 385
f 385 490 491
f 385 491 492
f 385 492 386
f 386 492 611
f 386 611 493
f 386 493 388
f 386 388 387
f 388 493 494
f 388 494 495
f 388 495 389
f 389 495 391
f 389 391 390
f 391 495 392
f 392 495 461
f 393 482 394
f 394 482 496
f 394 496 500
f 394 500 395
f 395 497 498
f 395 498 499
f 395 499 396
f 395 500 497
f 396 499 483
f 397 409 408
f 397 408 501
f 397 501 398
f 398 501 502
f 398 502 503
f 398 503 400
f 398 400 399
f 400 504 505
f 400 505 401
f 400 503 504
f 401 505 402
f 402 505 506
f 402 506 507
f 402 507 403
f 403 507 508
f 403 508 404
f 404 508 405
f 405 509 406
f 405 508 509
f 406 509 510
f 406 510 410
f 407 440 511
f 407 511 512
f 407 512 408
f 408 512 613
f 408 613 501
f 410 513 411
f 410 510 513
f 411 513 514
f 411 514 515
f 411 515 412
f 412 515 514
f 412 514 516
f 412 516 517
f 412 517 413
f 413 517 414
f 414 518 415
f 414 517 519
f 414 519 518
f 415 518 520
f 415 520 416
f 416 520 521
f 416 521 418
f 418 521 419
f 419 522 523
f 419 523 420
f 419 521 522
f 420 523 421
f 421 524 525
f 421 525 422
f 421 523 524
f 422 525 526
f 422 526 423
f 423 526 527
f 423 527 428
f 423 428 424
f 425 429 528
f 425 528 529
f 425 529 426
f 426 529 530
f 426 530 427
f 427 530 430
f 428 527 531
f 428 531 429
f 429 531 529
f 429 529 528
f 430 532 533
f 430 533 447
f 430 447 431
f 430 530 532
f 432 434 534
f 432 534 535
f 432 535 435
f 433 473 536
f 433 536 540
f 433 540 434
f 434 537 538
f 434 538 539
f 434 539 534
f 434 540 537
f 435 535 541
f 435 541 436
f 436 541 542
f 436 542 445
f 437 543 544
f 437 544 545
f 437 545 546
f 437 546 547
f 437 547 548
f 437 548 549
f 437 549 550
f 437 550 551
f 437 551 443
f 437 443 552
f 437 552 442
f 437 446 543
f 438 553 554
f 438 441 553
f 439 555 512
f 439 512 511
f 439 511 440
f 441 444 556
f 441 556 557
f 441 557 558
f 441 558 553
f 442 552 443
f 443 559 557
f 443 557 556
f 443 556 444
f 443 551 559
f 445 542 560
f 445 560 561
f 445 561 544
f 445 544 543
f 445 543 446
f 449 562 450
f 450 562 451
f 451 562 563
f 451 563 452
f 452 563 564
f 452 564 565
f 452 565 566
f 452 566 567
f 452 567 568
f 452 568 569
f 452 569 570
f 452 570 453
f 453 571 457
f 453 457 455
f 453 455 454
f 453 570 571
f 457 571 572
f 457 572 573
f 457 573 458
f 458 573 572
f 458 572 574
f 458 574 459
f 459 575 460
f 459 574 575
f 460 575 474
f 461 576 577
f 461 495 494
f 461 494 578
f 461 578 576
f 462 577 463
f 463 577 579
f 463 579 580
f 463 580 464
f 464 580 581
f 464 581 582
f 464 582 465
f 465 582 583
f 465 583 466
f 466 583 584
f 466 584 467
f 467 584 585
f 467 585 468
f 468 585 470
f 470 586 587
f 470 587 471
f 470 585 586
f 471 587 588
f 471 588 589
f 471 589 472
f 472 589 473
f 473 589 590
f 473 590 651
f 473 651 536
f 474 575 591
f 474 591 592
f 474 592 475
f 475 592 593
f 475 593 476
f 476 593 594
f 476 594 477
f 477 594 595
f 477 595 478
f 478 595 479
f 479 595 480
f 480 595 596
f 480 596 481
f 481 596 597
f 483 499 484
f 484 598 599
f 484 599 600
f 484 600 601
f 484 601 602
f 484 602 486
f 484 499 598
f 485 486 603
f 485 603 604
f 485 604 605
f 485 605 487
f 486 602 603
f 487 605 606
f 487 606 488
f 488 606 489
f 489 606 607
f 489 607 608
f 489 608 491
f 489 491 490
f 491 608 609
f 491 609 610
f 491 610 492
f 492 610 611
f 493 611 612
f 493 612 578
f 493 578 494
f 498 598 499
f 501 613 555
f 501 555 502
f 502 555 614
f 502 614 615
f 502 615 503
f 503 615 616
f 503 616 617
f 503 617 618
f 503 618 504
f 504 619 505
f 504 618 620
f 504 620 619
f 505 619 621
f 505 621 506
f 506 621 622
f 506 622 507
f 507 622 623
f 507 623 508
f 508 623 509
f 509 624 625
f 509 625 510
f 509 623 626
f 509 626 624
f 510 625 627
f 510 627 628
f 510 628 513
f 512 555 613
f 513 628 629
f 513 629 514
f 514 629 630
f 514 630 631
f 514 631 632
f 514 632 633
f 514 633 634
f 514 634 517
f 514 517 516
f 517 634 635
f 517 635 519
f 518 521 520
f 518 519 636
f 518 636 521
f 521 636 637
f 521 637 638
f 521 638 639
f 521 639 522
f 522 639 523
f 523 639 640
f 523 640 641
f 523 641 524
f 524 641 642
f 524 642 525
f 525 642 526
f 526 642 643
f 526 643 644
f 526 644 527
f 527 644 645
f 527 645 531
f 529 646 530
f 529 531 645
f 529 645 647
f 529 647 646
f 530 646 532
f 532 646 647
f 534 539 648
f 534 648 649
f 534 649 535
f 535 649 650
f 535 650 541
f 536 651 540
f 537 540 652
f 537 652 538
f 538 652 732
f 538 732 653
f 538 653 654
f 538 654 655
f 538 655 539
f 539 655 648
f 540 651 656
f 540 656 652
f 541 657 542
f 541 650 657
f 542 657 658
f 542 658 560
f 544 561 545
f 545 561 659
f 545 659 660
f 545 660 661
f 545 661 662
f 545 662 663
f 545 663 546
f 546 663 664
f 546 664 547
f 547 664 665
f 547 665 548
f 548 666 667
f 548 667 549
f 548 665 666
f 549 667 668
f 549 668 550
f 550 668 551
f 551 669 557
f 551 557 559
f 551 668 669
f 553 558 554
f 555 617 615
f 555 615 614
f 557 669 670
f 557 670 671
f 557 671 672
f 557 672 673
f 557 673 558
f 560 658 674
f 560 674 675
f 560 675 561
f 561 675 674
f 561 674 659
f 562 676 563
f 563 676 564
f 569 677 571
f 569 571 570
f 571 678 572
f 571 677 678
f 572 678 679
f 572 679 574
f 574 680 575
f 575 680 591
f 576 578 612
f 576 612 681
f 576 681 682
f 576 682 579
f 576 579 577
f 579 682 580
f 580 683 754
f 580 754 684
f 580 684 685
f 580 685 686
f 580 686 581
f 580 682 683
f 581 686 582
f 582 686 687
f 582 687 583
f 583 687 688
f 583 688 689
f 583 689 584
f 584 689 690
f 584 690 691
f 584 691 585
f 585 691 586
f 586 691 759
f 586 759 692
f 586 692 693
f 586 693 587
f 587 693 762
f 587 762 694
f 587 694 695
f 587 695 696
f 587 696 697
f 587 697 698
f 587 698 699
f 587 699 588
f 588 699 768
f 588 768 700
f 588 700 589
f 589 700 701
f 589 701 702
f 589 702 590
f 590 702 772
f 590 772 703
f 590 703 730
f 590 730 651
f 591 680 592
f 592 680 704
f 592 704 705
f 592 705 706
f 592 706 593
f 593 706 707
f 593 707 708
f 593 708 594
f 594 708 595
f 595 708 707
f 595 707 596
f 596 707 597
f 597 707 709
f 600 710 601
f 601 710 603
f 601 603 602
f 603 710 604
f 604 606 605
f 607 711 609
f 607 609 608
f 609 712 713
f 609 713 714
f 609 714 610
f 609 711 712
f 610 714 611
f 611 714 612
f 612 714 715
f 612 715 716
f 612 716 681
f 615 617 616
f 622 626 623
f 624 626 717
f 624 717 718
f 624 718 719
f 624 719 625
f 625 719 627
f 633 635 634
f 648 720 721
f 648 721 722
f 648 722 723
f 648 723 724
f 648 724 725
f 648 725 726
f 648 726 649
f 648 655 727
f 648 727 720
f 649 726 728
f 649 728 650
f 650 728 729
f 650 729 657
f 651 730 731
f 651 731 656
f 652 656 731
f 652 731 732
f 653 733 654
f 653 732 734
f 653 734 733
f 654 735 736
f 654 736 737
f 654 737 655
f 654 733 738
f 654 738 735
f 655 737 727
f 657 739 658
f 657 729 740
f 657 740 739
f 658 739 674
f 659 674 660
f 660 674 741
f 660 741 742
f 660 742 743
f 660 743 661
f 661 744 745
f 661 745 662
f 661 743 744
f 662 745 746
f 662 746 747
f 662 747 663
f 663 747 748
f 663 748 664
f 664 748 665
f 665 749 666
f 665 748 749
f 666 749 750
f 666 750 667
f 667 750 670
f 667 670 668
f 668 670 669
f 674 739 751
f 674 751 741
f 681 716 752
f 681 752 682
f 682 752 753
f 682 753 683
f 683 753 754
f 684 754 688
f 684 688 685
f 685 688 686
f 686 688 687
f 688 754 755
f 688 755 756
f 688 756 689
f 689 756 690
f 690 756 757
f 690 757 758
f 690 758 759
f 690 759 691
f 692 759 758
f 692 758 760
f 692 760 761
f 692 761 693
f 693 761 762
f 694 762 695
f 695 762 761
f 695 761 821
f 695 821 763
f 695 763 764
f 695 764 765
f 695 765 766
f 695 766 696
f 696 766 825
f 696 825 769
f 696 769 767
f 696 767 699
f 696 699 698
f 696 698 697
f 699 767 768
f 700 767 769
f 700 769 701
f 700 768 767
f 701 769 770
f 701 770 771
f 701 771 772
f 701 772 702
f 703 772 773
f 703 773 787
f 703 787 730
f 704 774 705
f 705 774 706
f 706 775 709
f 706 709 707
f 706 774 775
f 711 776 712
f 712 776 713
f 713 776 715
f 713 715 714
f 715 776 777
f 715 777 716
f 716 778 752
f 716 777 778
f 720 727 737
f 720 737 779
f 720 779 780
f 720 780 721
f 721 780 722
f 722 780 781
f 722 781 782
f 722 782 724
f 722 724 723
f 724 782 783
f 724 783 784
f 724 784 725
f 725 784 726
f 726 784 785
f 726 785 728
f 728 785 786
f 728 786 740
f 728 740 729
f 730 787 788
f 730 788 731
f 731 788 732
f 732 788 734
f 734 788 789
f 736 790 737
f 737 790 791
f 737 791 779
f 739 740 792
f 739 792 751
f 740 786 793
f 740 793 794
f 740 794 795
f 740 795 796
f 740 796 797
f 740 797 798
f 740 798 799
f 740 799 792
f 741 751 800
f 741 800 801
f 741 801 742
f 742 802 803
f 742 803 804
f 742 804 743
f 742 801 802
f 743 804 805
f 743 805 806
f 743 806 745
f 743 745 744
f 745 806 805
f 745 805 807
f 745 807 808
f 745 808 809
f 745 809 746
f 746 809 810
f 746 810 747
f 747 810 811
f 747 811 748
f 748 811 812
f 748 812 813
f 748 813 814
f 748 814 749
f 749 814 750
f 751 792 800
f 752 778 815
f 752 815 753
f 753 815 816
f 753 816 754
f 754 816 755
f 757 817 818
f 757 818 758
f 758 818 760
f 760 818 817
f 760 817 819
f 760 819 820
f 760 820 761
f 761 820 856
f 761 856 821
f 763 821 822
f 763 822 823
f 763 823 764
f 764 823 857
f 764 857 824
f 764 824 766
f 764 766 765
f 766 824 858
f 766 858 825
f 769 825 826
f 769 826 827
f 769 827 828
f 769 828 829
f 769 829 770
f 770 829 830
f 770 830 831
f 770 831 771
f 771 831 772
f 772 831 773
f 773 831 832
f 773 832 787
f 779 791 833
f 779 833 780
f 780 833 834
f 780 834 781
f 781 834 835
f 781 835 782
f 782 835 836
f 782 836 837
f 782 837 783
f 783 837 794
f 783 794 786
f 783 786 785
f 783 785 784
f 786 794 793
f 787 832 838
f 787 838 840
f 787 840 839
f 787 839 788
f 788 839 789
f 789 839 840
f 789 840 841
f 789 841 842
f 789 842 843
f 789 843 844
f 789 844 845
f 789 845 846
f 792 847 800
f 792 799 798
f 792 798 847
f 794 848 795
f 794 837 848
f 795 848 849
f 795 849 850
f 795 850 796
f 796 850 797
f 797 851 798
f 797 850 851
f 798 851 852
f 798 852 847
f 800 847 853
f 800 853 854
f 800 854 803
f 800 803 802
f 800 802 801
f 811 855 812
f 812 855 813
f 821 856 822
f 822 856 823
f 823 856 875
f 823 875 857
f 824 857 858
f 825 858 826
f 826 858 859
f 826 859 827
f 827 859 828
f 828 860 845
f 828 845 843
f 828 843 861
f 828 861 829
f 828 859 862
f 828 862 860
f 829 861 830
f 830 861 843
f 830 843 842
f 830 842 841
f 830 841 840
f 830 840 863
f 830 863 832
f 830 832 831
f 832 863 840
f 832 840 838
f 836 864 865
f 836 865 866
f 836 866 837
f 837 866 848
f 843 845 844
f 845 860 862
f 845 862 867
f 845 867 868
f 845 868 846
f 847 852 853
f 848 866 865
f 848 865 869
f 848 869 849
f 849 869 850
f 850 869 865
f 850 865 870
f 850 870 851
f 851 871 852
f 851 870 871
f 852 871 872
f 852 872 873
f 852 873 853
f 853 874 854
f 853 873 879
f 853 879 874
f 857 875 876
f 857 876 859
f 857 859 858
f 859 876 862
f 862 876 867
f 864 877 870
f 864 870 865
f 867 876 868
f 870 877 871
f 871 877 872
f 872 878 873
f 872 877 878
f 873 878 879
f 877 879 878

