# https://github.com/mikedh/trimesh
v 0.28896511 -0.21570756 0.22499438
v 0.28761232 -0.21570756 0.21566629
v 0.28845781 -0.21570756 0.23498680
v 0.28834510 -0.24500562 0.23498680
v 0.28761232 -0.32502279 0.23498680
v 0.28885239 -0.22500134 0.22499438
v 0.28558314 -0.35500088 0.18501110
v 0.28749961 -0.21570756 0.21498838
v 0.28377941 -0.21570756 0.24436910
v 0.28389215 -0.24500562 0.24454537
v 0.28361031 -0.31502062 0.24493855
v 0.28704867 -0.33502492 0.23498680
v 0.28710502 -0.33502492 0.22499438
v 0.28749961 -0.32502279 0.22499438
v 0.28361031 -0.32502279 0.24462672
v 0.28479400 -0.21570756 0.20499596
v 0.28592134 -0.35500088 0.19498998
v 0.28558314 -0.36497468 0.19498998
v 0.28518859 -0.36497468 0.18501110
v 0.28191933 -0.36497468 0.17737781
v 0.28214481 -0.35500088 0.17760830
v 0.25700548 -0.26481158 0.12481249
v 0.25683638 -0.25480944 0.12481249
v 0.25525814 -0.21570756 0.12481249
v 0.28344122 -0.21570756 0.24472162
v 0.27989015 -0.31502062 0.24994154
v 0.28625953 -0.34502706 0.23498680
v 0.28654137 -0.34502706 0.22499438
v 0.28180662 -0.36497468 0.24298617
v 0.28135568 -0.37497684 0.24241672
v 0.27757916 -0.36497468 0.24798916
v 0.28530130 -0.35500088 0.23498680
v 0.28411761 -0.36497468 0.23498680
v 0.28287756 -0.37497684 0.23498680
v 0.28113022 -0.38398728 0.23498680
v 0.28355396 -0.37497684 0.19498998
v 0.28225753 -0.37596855 0.18403491
v 0.28101748 -0.37327674 0.17839468
v 0.25080520 -0.34514040 0.12481249
v 0.25238347 -0.33502492 0.12481249
v 0.25593454 -0.29501635 0.12481249
v 0.25661093 -0.28501421 0.12481249
v 0.25689274 -0.27501208 0.12481249
v 0.25700548 -0.26500991 0.12481249
v -0.26032332 -0.21570756 0.12481249
v 0.27859375 -0.21570756 0.24937209
v 0.27825555 -0.21570756 0.24950768
v 0.27357715 -0.21570756 0.25122958
v 0.27487355 -0.31502062 0.25178546
v 0.27256256 -0.36497468 0.25133803
v 0.27205527 -0.37497684 0.25102621
v 0.28067929 -0.38251385 0.24125071
v 0.27701548 -0.37497684 0.24741971
v 0.27966470 -0.38900250 0.23498680
v 0.28101748 -0.38228717 0.19498998
v 0.28079203 -0.38174883 0.18673301
v 0.27994654 -0.37993541 0.18006234
v 0.24826872 -0.35429251 0.12481249
v 0.24984698 -0.34941894 0.12481249
v 0.25063610 -0.34590545 0.12481249
v -0.26021060 -0.22514302 0.12481249
v -0.28038970 -0.22500134 0.17926240
v -0.28038970 -0.21570756 0.17908615
v 0.27301347 -0.21570756 0.25135159
v 0.26495311 -0.31502062 0.25422597
v 0.26495311 -0.36497468 0.25403613
v 0.26495311 -0.37497684 0.25349382
v 0.27098429 -0.38242885 0.25049743
v 0.27532449 -0.38580069 0.24552156
v 0.27357715 -0.39498112 0.24384034
v 0.27171707 -0.40325487 0.24199641
v 0.26991335 -0.40991351 0.23965085
v 0.27735367 -0.39498112 0.23498680
v 0.27030790 -0.41062188 0.22858731
v 0.27492994 -0.39498112 0.19498998
v 0.27081519 -0.40149811 0.18814306
v 0.26861691 -0.39843795 0.18147241
v 0.22859693 -0.39789960 0.12481249
v 0.23169707 -0.39291269 0.12481249
v 0.23564270 -0.38497898 0.12481249
v 0.23891194 -0.37741363 0.12481249
v 0.24421036 -0.36477634 0.12481249
v -0.25987241 -0.24537398 0.12481249
v -0.28027695 -0.23500349 0.17945223
v -0.28162974 -0.22500134 0.18501110
v -0.25970331 -0.25500777 0.12481249
v -0.28162974 -0.21570756 0.18501110
v 0.26495311 -0.21570756 0.25292435
v 0.25497630 -0.36497468 0.25564957
v 0.25497630 -0.37497684 0.25570381
v 0.25497630 -0.38497898 0.25486320
v 0.26562950 -0.38546067 0.25175834
v 0.26940605 -0.38908750 0.24977885
v 0.26760232 -0.39498112 0.24884333
v 0.26331851 -0.41498542 0.24308108
v 0.26117659 -0.42184240 0.24131849
v 0.27030790 -0.41062188 0.23298018
v 0.27233708 -0.40594664 0.23578674
v 0.26224753 -0.42331582 0.23498680
v 0.26771507 -0.41436204 0.23578674
v 0.27115339 -0.40226313 0.19498998
v 0.26213482 -0.42311746 0.22499438
v 0.26839146 -0.40725005 0.19498998
v 0.25982380 -0.41977397 0.19226477
v 0.25052339 -0.43079618 0.18878029
v 0.26219118 -0.41311532 0.18712619
v 0.23970108 -0.43966493 0.18036063
v 0.22296031 -0.40591830 0.12481249
v -0.27948782 -0.31502062 0.18284178
v -0.28146064 -0.23500349 0.18501110
v -0.28591359 -0.26500991 0.21498838
v -0.25936511 -0.26500991 0.12481249
v -0.28292617 -0.21570756 0.19431207
v 0.24499950 -0.38497898 0.25627324
v -0.25496855 -0.21570756 0.26153386
v 0.24499950 -0.39498112 0.25558177
v 0.25497630 -0.39498112 0.25324976
v 0.24499950 -0.40498328 0.25407681
v 0.26258573 -0.39498112 0.25089061
v 0.26066929 -0.40124309 0.25028050
v 0.25847101 -0.40790173 0.24945346
v 0.25508904 -0.41541043 0.24832812
v 0.25525814 -0.42510089 0.24371831
v 0.25215799 -0.43226957 0.24177948
v 0.25869647 -0.42833105 0.23498680
v 0.25858375 -0.42810437 0.22499438
v 0.24764870 -0.43677479 0.19498998
v 0.24263211 -0.44337678 0.19498998
v 0.24144842 -0.44196004 0.18703128
v 0.23220436 -0.45218885 0.18669233
v 0.22994973 -0.44997877 0.18002167
v 0.20706505 -0.42671597 0.12481249
v 0.21129252 -0.42181408 0.12481249
v 0.21146162 -0.42158741 0.12481249
v 0.21715459 -0.41393703 0.12481249
v -0.27926236 -0.32502279 0.18349259
v -0.28016421 -0.33502492 0.18903790
v -0.28563175 -0.27501208 0.21498838
v -0.28687179 -0.26500991 0.22499438
v -0.28681543 -0.25500777 0.22499438
v -0.28546265 -0.21570756 0.21431047
v -0.28422257 -0.21570756 0.20431805
v -0.25880143 -0.27501208 0.12481249
v -0.27892417 -0.33502492 0.18403491
v 0.23496631 -0.40498328 0.25582582
v -0.22498173 -0.40498328 0.26330999
v -0.03497133 -0.47499830 0.26073390
v -0.02499452 -0.47499830 0.26057121
v 0.01496910 -0.47499830 0.25968993
v 0.02494592 -0.47499830 0.25944588
v 0.10498589 -0.47499830 0.25734437
v 0.11496271 -0.47499830 0.25703251
v -0.26331073 -0.21570756 0.26093727
v -0.25496855 -0.34502706 0.26240158
v -0.23495854 -0.39498112 0.26326931
v 0.23496631 -0.41498542 0.25441578
v 0.25508904 -0.40472826 0.25127026
v 0.24545042 -0.41541043 0.25166345
v 0.25181979 -0.41237861 0.25057879
v 0.24911422 -0.41903728 0.24975173
v 0.24545042 -0.42535591 0.24872130
v 0.25367987 -0.43402633 0.23498680
v 0.24528132 -0.43535805 0.24377254
v 0.24212481 -0.44193169 0.24150832
v 0.24392854 -0.44383013 0.23498680
v 0.24894512 -0.43904155 0.23498680
v 0.24917059 -0.43909824 0.22499438
v 0.25356716 -0.43408298 0.22499438
v 0.23863012 -0.44836366 0.19498998
v 0.22859693 -0.45876250 0.19498998
v 0.22155116 -0.46131262 0.18501110
v 0.22002928 -0.46003756 0.17995387
v 0.23361352 -0.45377558 0.19498998
v 0.20216119 -0.43192956 0.12481249
v -0.28005150 -0.34046519 0.18967514
v -0.28625178 -0.28501421 0.22499438
v -0.28658998 -0.27501208 0.22499438
v -0.28613904 -0.27501208 0.23498680
v -0.28630814 -0.26500991 0.23498680
v -0.28642088 -0.25500777 0.23498680
v -0.28602630 -0.21570756 0.23430890
v -0.28625178 -0.21570756 0.22499438
v -0.28551900 -0.21570756 0.21498838
v -0.25801232 -0.28501421 0.12481249
v -0.27007467 -0.38036042 0.17985897
v -0.25479943 -0.31521899 0.12481249
v -0.25355938 -0.32522112 0.12481249
v 0.22498950 -0.41498542 0.25567669
v 0.22498950 -0.42498755 0.25434798
v -0.22498173 -0.41498542 0.26295745
v -0.21494855 -0.42498755 0.26278120
v -0.14499812 -0.46499613 0.26189992
v -0.08496813 -0.47499830 0.26116776
v -0.03497133 -0.48114690 0.26042208
v -0.02499452 -0.48089188 0.26034072
v -0.01496134 -0.48032519 0.26012379
v 0.10498589 -0.48497209 0.25509369
v 0.11496271 -0.48497209 0.25452423
v 0.12499589 -0.47499830 0.25643596
v -0.26364893 -0.21570756 0.26084238
v -0.26302889 -0.33502492 0.26111355
v -0.26280344 -0.34502706 0.26109999
v -0.25496855 -0.35500088 0.26226598
v -0.24499172 -0.38497898 0.26256427
v -0.23495854 -0.40498328 0.26267275
v 0.23530450 -0.42535591 0.25174481
v 0.24246301 -0.42226744 0.25067368
v 0.23885557 -0.42892608 0.24967039
v 0.23530450 -0.43501803 0.24834168
v 0.24415399 -0.44442517 0.22499438
v 0.21461812 -0.45454064 0.24758241
v 0.22132570 -0.46114263 0.24100667
v 0.23851737 -0.44884536 0.23498680
v 0.22916059 -0.45924419 0.22499438
v 0.23440264 -0.45425728 0.22499438
v 0.23941924 -0.44941205 0.22499438
v 0.22904786 -0.45910251 0.20499596
v 0.22363670 -0.46298438 0.19498998
v 0.21101068 -0.47069141 0.18840067
v 0.21461812 -0.46649787 0.18503822
v 0.20531771 -0.47338319 0.18503822
v 0.20892513 -0.46907634 0.18173000
v 0.20221756 -0.47190979 0.17775744
v 0.19162072 -0.44108164 0.12481249
v 0.19652458 -0.43702981 0.12481249
v 0.20204847 -0.43204290 0.12481249
v -0.27278024 -0.37497684 0.18501110
v -0.27509126 -0.37497684 0.19498998
v -0.28044605 -0.35477421 0.21593747
v -0.28129154 -0.35500088 0.22499438
v -0.28275707 -0.34502706 0.22499438
v -0.28258798 -0.33502492 0.21498838
v -0.28343347 -0.33502492 0.22499438
v -0.28450441 -0.32502279 0.23498680
v -0.28501171 -0.31502062 0.23498680
v -0.28292617 -0.31502062 0.24499279
v -0.28360257 -0.25500777 0.24499279
v -0.28630814 -0.24500562 0.23498680
v -0.28596994 -0.21570756 0.23498680
v -0.26866552 -0.38704741 0.18219098
v -0.27041286 -0.39109927 0.18886165
v -0.27114564 -0.38421395 0.18532294
v -0.25186840 -0.33502492 0.12481249
v -0.25040287 -0.34176859 0.12481249
v -0.24916282 -0.34667048 0.12481249
v -0.24679545 -0.35522756 0.12481249
v -0.24380803 -0.36497468 0.12481249
v -0.24375167 -0.36514470 0.12481249
v -0.24110246 -0.37259671 0.12481249
v -0.25964692 -0.40872344 0.18079449
v 0.20497951 -0.43498969 0.25509369
v 0.21495631 -0.43498969 0.25406325
v -0.23473307 -0.41447538 0.26108643
v -0.22486900 -0.42484587 0.26124913
v -0.21438488 -0.43476301 0.26097795
v -0.19296575 -0.45204717 0.26061189
v -0.18490538 -0.45522067 0.26103219
v -0.17498493 -0.45499399 0.26183212
v -0.15497494 -0.46499613 0.26158810
v -0.14499812 -0.47281653 0.26100507
v -0.09494495 -0.47499830 0.26123556
v -0.03497133 -0.48613381 0.25826633
v 0.01496910 -0.48497209 0.25787312
v -0.09494495 -0.48117524 0.26051697
v 0.10498589 -0.49197078 0.25147364
v 0.11496271 -0.49151742 0.25113466
v 0.12499589 -0.49078071 0.25059235
v 0.12499589 -0.48497209 0.25354803
v 0.13497271 -0.47499830 0.25556821
v 0.19494632 -0.44499186 0.25475472
v -0.26832733 -0.21570756 0.25944588
v -0.26815823 -0.24500562 0.25947300
v -0.26804549 -0.31502062 0.25929675
v -0.26810187 -0.32502279 0.25924250
v -0.26804549 -0.33502492 0.25914758
v -0.26782003 -0.34502706 0.25897133
v -0.26240888 -0.35500088 0.26093727
v -0.24578086 -0.39568949 0.26156098
v -0.25277025 -0.38497898 0.26096439
v -0.24273708 -0.40498328 0.26086950
v 0.22487676 -0.43501803 0.25159565
v 0.23220436 -0.43173122 0.25063303
v 0.21771826 -0.44796699 0.24923652
v 0.21461812 -0.44476518 0.25136515
v 0.21106705 -0.45088547 0.25033474
v 0.20667049 -0.45757246 0.24904670
v 0.20402128 -0.46400443 0.24653843
v 0.21399809 -0.46468446 0.24205065
v 0.22312941 -0.46258768 0.23498680
v 0.22808963 -0.45816749 0.23498680
v 0.20999609 -0.47001138 0.24001691
v 0.22414400 -0.46332440 0.22499438
v 0.22403127 -0.46326771 0.20499596
v 0.21709824 -0.46797127 0.19498998
v 0.21213801 -0.47139978 0.19498998
v 0.19782099 -0.47871011 0.18501110
v 0.19105706 -0.48046687 0.17916749
v 0.18485677 -0.44584188 0.12481249
v 0.19139525 -0.44125167 0.12481249
v -0.27999511 -0.36004445 0.21989647
v -0.27294934 -0.38497898 0.19498998
v -0.28168610 -0.35500088 0.23498680
v -0.28016421 -0.36066782 0.22499438
v -0.28038970 -0.36157453 0.23498680
v -0.28309527 -0.34502706 0.23498680
v -0.28382802 -0.33502492 0.23498680
v -0.28146064 -0.34502706 0.24389458
v -0.28253159 -0.32502279 0.24499279
v -0.28022060 -0.32502279 0.25029406
v -0.28044605 -0.31502062 0.25053811
v -0.28061515 -0.25500777 0.25071436
v -0.28033331 -0.21570756 0.25038898
v -0.28309527 -0.21570756 0.24499279
v -0.27075106 -0.39189264 0.19498998
v -0.26088700 -0.41181192 0.18746515
v -0.26500171 -0.40498328 0.19498998
v -0.26860917 -0.39687955 0.19498998
v -0.23896055 -0.37749863 0.12481249
v -0.25158656 -0.42269245 0.17823198
v -0.25823778 -0.41507041 0.18448234
v -0.23884781 -0.37775365 0.12481249
v 0.20497951 -0.44499186 0.25362939
v -0.23118201 -0.42141739 0.26043564
v -0.24059516 -0.41082022 0.26024580
v -0.22143066 -0.43127787 0.26046276
v -0.21066472 -0.44051498 0.26017803
v -0.19961695 -0.44969541 0.25992042
v -0.18817462 -0.45870584 0.25956792
v -0.18152340 -0.46077427 0.26032716
v -0.17498493 -0.46207768 0.26073390
v -0.15497494 -0.47122976 0.26050341
v -0.14499812 -0.47780341 0.25903913
v -0.13496494 -0.47856843 0.25955433
v -0.10497813 -0.48063689 0.26028648
v -0.08496813 -0.48616213 0.25811717
v -0.03497133 -0.49384084 0.25326332
v 0.01496910 -0.49389750 0.25292435
v -0.09494495 -0.48616213 0.25800872
v 0.10498589 -0.49695766 0.24629438
v 0.01496910 -0.49888444 0.24868064
v 0.11496271 -0.49650431 0.24583340
v 0.13097070 -0.49021399 0.25017205
v 0.13457814 -0.48556712 0.25197530
v 0.14494953 -0.48301700 0.25156853
v 0.14494953 -0.47499830 0.25445646
v 0.16495952 -0.46499613 0.25436154
v 0.18496951 -0.45499399 0.25414461
v -0.27497852 -0.21570756 0.25484964
v -0.27497852 -0.24500562 0.25510722
v -0.27497852 -0.25500777 0.25517502
v -0.27497852 -0.31502062 0.25484964
v -0.27497852 -0.32502279 0.25455135
v -0.26736909 -0.35500088 0.25875440
v -0.27441487 -0.34502706 0.25398192
v -0.26122519 -0.36497468 0.26047629
v -0.25124836 -0.39285603 0.26051697
v -0.24967012 -0.39951468 0.25989330
v -0.26021060 -0.37095332 0.26011023
v -0.25908327 -0.37764031 0.25968993
v 0.20402128 -0.45454064 0.25093129
v 0.20001929 -0.46000922 0.25000933
v 0.19494632 -0.46649787 0.24842303
v 0.20497951 -0.47154146 0.24137273
v 0.21630910 -0.46760294 0.23498680
v 0.21738006 -0.46831131 0.22499438
v 0.21134888 -0.47086143 0.23498680
v 0.19083159 -0.48038188 0.24046433
v 0.19770826 -0.47882345 0.23498680
v 0.20497951 -0.47468659 0.23498680
v 0.21743643 -0.46828297 0.20499596
v 0.21247621 -0.47156978 0.20499596
v 0.20497951 -0.47610334 0.19498998
v 0.19939925 -0.47967350 0.19498998
v 0.19280441 -0.48128858 0.18501110
v 0.17927653 -0.44958207 0.12481249
v 0.16169028 -0.49058235 0.17863873
v 0.15571547 -0.46156764 0.12481249
v 0.15988655 -0.45995256 0.12481249
v 0.16411401 -0.45782745 0.12481249
v 0.17431630 -0.45241553 0.12481249
v -0.27644405 -0.37497684 0.23498680
v -0.27903691 -0.36656144 0.23498680
v -0.28027695 -0.36123452 0.24099311
v -0.28084061 -0.35500088 0.24244383
v -0.27886781 -0.35500088 0.24744684
v -0.27943146 -0.34502706 0.24889757
v -0.27976966 -0.33732003 0.24960259
v -0.27999511 -0.33066139 0.25005001
v -0.27390757 -0.35500088 0.25375143
v -0.26860917 -0.39668119 0.23498680
v -0.27063835 -0.39169431 0.23498680
v -0.27306208 -0.38497898 0.23498680
v -0.25265753 -0.42561093 0.18510601
v -0.25868872 -0.41767722 0.19498998
v -0.26133791 -0.41269031 0.19498998
v -0.26488897 -0.40498328 0.23498680
v -0.24961376 -0.42935109 0.18183847
v -0.23535311 -0.38497898 0.12481249
v -0.23140748 -0.39231765 0.12481249
v -0.22825097 -0.39721957 0.12481249
v -0.24059516 -0.44076997 0.17920817
v 0.19494632 -0.45499399 0.25274810
v -0.22808187 -0.42810437 0.25935096
v -0.23788959 -0.41747886 0.25916114
v -0.24769731 -0.40498328 0.25897133
v -0.22486900 -0.43476301 0.25779176
v -0.21731593 -0.43793651 0.25918826
v -0.20497173 -0.44765532 0.25914758
v -0.19578405 -0.45522067 0.25884932
v -0.18490538 -0.46445778 0.25776467
v -0.19595315 -0.46598786 0.25364295
v -0.17498493 -0.46706456 0.25871372
v -0.16049881 -0.47015303 0.26008311
v -0.15497494 -0.47621667 0.25802225
v -0.15497494 -0.48406538 0.25301927
v -0.14584361 -0.48593545 0.25368363
v -0.13496494 -0.48497209 0.25598854
v -0.10497813 -0.48565212 0.25772399
v -0.08496813 -0.49381250 0.25312772
v -0.08496813 -0.49882776 0.24855861
v -0.10497813 -0.49318916 0.25272098
v -0.09494495 -0.49355751 0.25300571
v 0.10498589 -0.50069785 0.24130495
v 0.11496271 -0.50047117 0.24083041
v 0.01496910 -0.50205791 0.24367765
v 0.12105026 -0.50018781 0.24032876
v 0.12465769 -0.49636263 0.24419285
v 0.13457814 -0.49327415 0.24571137
v 0.14494953 -0.49290580 0.24362341
v 0.13762191 -0.48927897 0.24952124
v 0.15498270 -0.48120359 0.25066012
v 0.15498270 -0.47499830 0.25307351
v 0.17499270 -0.46499613 0.25307351
v -0.26624179 -0.36497468 0.25804937
v -0.27294934 -0.36497468 0.25304639
v -0.25778684 -0.38497898 0.25898489
v -0.25474307 -0.39568949 0.25803584
v -0.25558856 -0.40537995 0.25391412
v 0.19494632 -0.46148264 0.25059235
v 0.18756235 -0.46862298 0.24941278
v 0.18451858 -0.47423324 0.24686383
v 0.19449539 -0.47522497 0.24301329
v 0.21241984 -0.47148478 0.22499438
v 0.18496951 -0.48143026 0.24152188
v 0.15498270 -0.49154574 0.24198286
v 0.16152118 -0.49049735 0.24066770
v 0.16817239 -0.48936397 0.23795606
v 0.18496951 -0.48432040 0.23498680
v 0.19269167 -0.48126024 0.23498680
v 0.17499270 -0.47678337 0.24813831
v 0.16721416 -0.47859678 0.24929075
v 0.19861013 -0.47933349 0.22499438
v 0.20497951 -0.47582000 0.22499438
v 0.20497951 -0.47621667 0.20499596
v 0.19917378 -0.47961682 0.20499596
v 0.19438267 -0.48191196 0.19498998
v 0.18496951 -0.48398039 0.18501110
v 0.16298670 -0.49089402 0.18501110
v 0.15498270 -0.49310416 0.18501110
v 0.14494953 -0.49539924 0.18501110
v 0.15498270 -0.49148905 0.17691684
v 0.14478043 -0.46516615 0.12481249
v 0.18496951 -0.48511377 0.19498998
v -0.27052560 -0.39129761 0.24164391
v -0.27480942 -0.37497684 0.24499279
v -0.27802232 -0.36474800 0.24459960
v -0.27046925 -0.38149381 0.25057879
v -0.27148384 -0.37497684 0.25167701
v -0.25029016 -0.43039948 0.18850914
v -0.25401032 -0.42498755 0.19498998
v -0.25079745 -0.43116450 0.21498838
v -0.25457397 -0.42498755 0.21498838
v -0.25468671 -0.42498755 0.22499438
v -0.25880143 -0.41753554 0.22499438
v -0.26128155 -0.41243529 0.23498680
v -0.26083061 -0.41152859 0.24219979
v -0.24138428 -0.44193169 0.18501110
v -0.24690817 -0.43422467 0.18510601
v -0.22317801 -0.40401989 0.12481249
v -0.21038289 -0.42051068 0.12481249
v -0.20643726 -0.42552590 0.12481249
v -0.20142066 -0.43158954 0.12481249
v -0.23118201 -0.45119715 0.17858450
v -0.23743866 -0.44691861 0.18501110
v 0.18451858 -0.46516615 0.25139228
v -0.23473307 -0.42484587 0.25773755
v -0.24431533 -0.41447538 0.25696471
v -0.25231934 -0.41498542 0.25182614
v -0.23501492 -0.43498969 0.25289723
v -0.22498173 -0.44504851 0.25276166
v -0.21466672 -0.45490900 0.25234136
v -0.21438488 -0.44431180 0.25747994
v -0.20497173 -0.45499399 0.25606987
v -0.19330394 -0.47171146 0.25124314
v -0.18496174 -0.47377989 0.25253117
v -0.17594315 -0.47599000 0.25350738
v -0.20497173 -0.46318272 0.25192106
v -0.19995515 -0.46998304 0.24998222
v -0.16427535 -0.47409159 0.25718164
v -0.17329395 -0.48114690 0.25087708
v -0.16495174 -0.48247865 0.25185326
v -0.14973287 -0.48990232 0.24991444
v -0.14308167 -0.49080902 0.25075504
v -0.13496494 -0.49154574 0.25143296
v -0.12498812 -0.49219745 0.25190750
v -0.11495494 -0.49276412 0.25231424
v -0.09494495 -0.49857274 0.24827388
v -0.09494495 -0.50191623 0.24327089
v -0.08496813 -0.50200123 0.24355561
v 0.10498589 -0.50185955 0.23498680
v 0.01496910 -0.50463635 0.23498680
v 0.11496271 -0.50143456 0.23498680
v -0.08496813 -0.50466472 0.23498680
v 0.12465769 -0.50047117 0.23437668
v 0.12775783 -0.49956447 0.23730525
v 0.14494953 -0.49675933 0.23498680
v 0.14494953 -0.48800391 0.24862640
v 0.16056295 -0.48021185 0.25011781
v 0.16433948 -0.47516829 0.25144652
v 0.17499270 -0.47176814 0.25079572
v -0.26415622 -0.37458014 0.25715452
v -0.26550901 -0.38489398 0.25353450
v -0.26280344 -0.39498112 0.25261253
v -0.26116881 -0.40229148 0.25120246
v 0.18091114 -0.47040805 0.25019914
v 0.15498270 -0.48621881 0.24698585
v 0.15498270 -0.49418086 0.23498680
v 0.16490315 -0.49126238 0.23476987
v 0.17099069 -0.49029902 0.23128539
v 0.17459813 -0.48806059 0.23476987
v 0.18496951 -0.48528376 0.22499438
v 0.19364990 -0.48168528 0.22499438
v 0.17099069 -0.49029902 0.22742130
v 0.15498270 -0.49466255 0.22499438
v 0.14494953 -0.49712765 0.22499438
v 0.13051978 -0.50007451 0.22907540
v 0.13497271 -0.49692935 0.18501110
v 0.14494953 -0.49253744 0.17557457
v 0.13474724 -0.46757460 0.12481249
v -0.26274708 -0.40537995 0.24531819
v -0.26776367 -0.39478278 0.24497923
v -0.26922917 -0.38815248 0.24831456
v -0.27159655 -0.38489398 0.24497923
v -0.24183522 -0.44247007 0.19498998
v -0.25085381 -0.43124953 0.22499438
v -0.24713364 -0.43615142 0.21498838
v -0.25395393 -0.42498755 0.23498680
v -0.25851962 -0.41742221 0.23498680
v -0.25006467 -0.43008780 0.24015249
v -0.25936511 -0.40895012 0.24887045
v -0.23788959 -0.44748530 0.19498998
v -0.19634771 -0.43660480 0.12481249
v -0.22092336 -0.46077427 0.17876075
v -0.23247844 -0.45241553 0.18501110
v -0.24132793 -0.43167454 0.25103977
v -0.24476627 -0.42433587 0.25234136
v -0.25040287 -0.42059568 0.25036186
v -0.23174568 -0.44176170 0.25109398
v -0.22171248 -0.45150882 0.25098553
v -0.21111564 -0.46091592 0.25063303
v -0.17994516 -0.47998518 0.24998222
v -0.21782322 -0.45816749 0.24770445
v -0.21466672 -0.46278602 0.24462672
v -0.20581722 -0.46842462 0.24598254
v -0.20299892 -0.47190979 0.24331157
v -0.19093655 -0.48055187 0.24107446
v -0.18496174 -0.47876680 0.24830100
v -0.15497494 -0.48905230 0.24895179
v -0.15497494 -0.49250913 0.24394880
v -0.14584361 -0.49358582 0.24595542
v -0.13434491 -0.49704266 0.24408439
v -0.12498812 -0.49718434 0.24580628
v -0.11495494 -0.49775106 0.24694517
v -0.10497813 -0.49817604 0.24775867
v -0.10497813 -0.50160456 0.24275568
v -0.09494495 -0.50452304 0.23498680
v 0.10498589 -0.50188792 0.22499438
v 0.02494592 -0.50472140 0.22499438
v 0.01496910 -0.50491971 0.22499438
v -0.08496813 -0.50511807 0.22499438
v -0.00498452 -0.50506139 0.22499438
v 0.00499229 -0.50500470 0.22499438
v 0.11496271 -0.50137788 0.22499438
v 0.13051978 -0.50007451 0.23063460
v 0.13429631 -0.49888444 0.23437668
v 0.12477043 -0.50044286 0.22544180
v 0.11434268 -0.49950778 0.19532894
v 0.12499589 -0.49766603 0.18501110
v 0.06496590 -0.50030112 0.17923529
v 0.11783738 -0.46995470 0.12481249
v 0.12471406 -0.46924633 0.12481249
v -0.24217342 -0.44261172 0.21498838
v -0.24713364 -0.43626475 0.22499438
v -0.25040287 -0.43059784 0.23498680
v -0.24656998 -0.43561307 0.23498680
v -0.24155338 -0.44179004 0.23498680
v -0.24076426 -0.44091165 0.24142697
v -0.24437170 -0.43422467 0.24412507
v -0.24797913 -0.42725432 0.24682315
v -0.23287299 -0.45278388 0.19498998
v -0.23766412 -0.44759864 0.21498838
v -0.19133112 -0.44110999 0.12481249
v -0.20085700 -0.47063473 0.16913439
v -0.22199433 -0.46153930 0.18501110
v -0.22701091 -0.45743078 0.18501110
v -0.20981923 -0.46989805 0.18082161
v -0.23839688 -0.43836153 0.24809763
v -0.22836371 -0.44844869 0.24821965
v -0.18496174 -0.48208195 0.24329801
v -0.17047563 -0.49015734 0.24034230
v -0.16495174 -0.48749387 0.24676892
v -0.22453080 -0.45456898 0.24462672
v -0.22069789 -0.46057594 0.24103378
v -0.20965013 -0.46975636 0.23498680
v -0.19646044 -0.47786009 0.23498680
v -0.19144385 -0.48086357 0.23498680
v -0.18496174 -0.48443374 0.23498680
v -0.17633772 -0.48857060 0.23498680
v -0.20463353 -0.47284484 0.23498680
v -0.16495174 -0.49100739 0.24176592
v -0.13056837 -0.50004613 0.24013893
v -0.12498812 -0.50038618 0.24081685
v -0.11495494 -0.50103784 0.24194218
v -0.10497813 -0.50384301 0.23498680
v -0.09494495 -0.50486302 0.22499438
v 0.03497910 -0.50432467 0.21498838
v 0.03497910 -0.50409800 0.20499596
v 0.04495591 -0.50367296 0.20499596
v 0.05498909 -0.50273794 0.19498998
v 0.06496590 -0.50225627 0.19498998
v 0.02494592 -0.50455135 0.21498838
v -0.08496813 -0.50341797 0.18501110
v -0.01496134 -0.50469303 0.21498838
v -0.11495494 -0.50310630 0.18501110
v -0.10497813 -0.50327629 0.18501110
v -0.09494495 -0.50336128 0.18501110
v 0.02494592 -0.50423968 0.20499596
v 0.11056615 -0.50004613 0.19888119
v 0.11496271 -0.49837440 0.18501110
v 0.07499909 -0.50171793 0.19498998
v 0.06496590 -0.50132120 0.18501110
v 0.05498909 -0.50177455 0.18501110
v 0.05498909 -0.50052786 0.17876075
v 0.11310263 -0.47026640 0.12481249
v 0.11496271 -0.47015303 0.12481249
v -0.24211705 -0.44244173 0.22499438
v -0.23743866 -0.44745696 0.22499438
v -0.23681863 -0.44677693 0.23498680
v -0.23095654 -0.45094213 0.24156255
v -0.23467672 -0.44468015 0.24483009
v -0.22718000 -0.45777079 0.19498998
v -0.23242207 -0.45213220 0.22499438
v -0.18451081 -0.44623858 0.12481249
v -0.18310165 -0.44720197 0.12481249
v -0.17633772 -0.45179218 0.12481249
v -0.17543586 -0.45238721 0.12481249
v -0.19499493 -0.47256151 0.16693796
v -0.18885101 -0.47944683 0.17142574
v -0.20305529 -0.47193813 0.17500512
v -0.22216342 -0.46162432 0.19498998
v -0.21421579 -0.46717790 0.18449590
v -0.21038289 -0.47026640 0.18749227
v -0.19465673 -0.47723672 0.17485598
v -0.19110565 -0.48066521 0.17809640
v -0.19708046 -0.47825676 0.18501110
v -0.20587359 -0.47275984 0.18449590
v -0.17137749 -0.49049735 0.23498680
v -0.16495174 -0.49250913 0.23498680
v -0.15497494 -0.49559760 0.23498680
v -0.14409626 -0.49865776 0.23428178
v -0.13721959 -0.49964947 0.23715612
v -0.22126156 -0.46105760 0.23498680
v -0.21494855 -0.46584618 0.23498680
v -0.23185840 -0.45173550 0.23498680
v -0.22627816 -0.45672241 0.23498680
v -0.21038289 -0.47026640 0.19237323
v -0.19696774 -0.47834176 0.19498998
v -0.19206388 -0.48117524 0.18501110
v -0.18496174 -0.48500043 0.18501110
v -0.17723958 -0.48879728 0.18501110
v -0.17222299 -0.49095070 0.18501110
v -0.12498812 -0.50160456 0.23498680
v -0.11495494 -0.50282294 0.23498680
v -0.10497813 -0.50406969 0.22499438
v -0.12498812 -0.50228459 0.22499438
v -0.11495494 -0.50324798 0.22499438
v -0.12498812 -0.50239789 0.18501110
v 0.03497910 -0.50333297 0.19498998
v 0.04495591 -0.50307798 0.19498998
v -0.10497813 -0.50217128 0.17500512
v -0.07499132 -0.50333297 0.18501110
v -0.11534951 -0.50149119 0.17427297
v 0.10509863 -0.47057807 0.12481249
v -0.04494815 -0.49987614 0.17039531
v -0.16590998 -0.45788413 0.12481249
v -0.18219981 -0.48111856 0.16856495
v -0.16805188 -0.48930728 0.17177826
v -0.17475946 -0.48772055 0.17507291
v -0.18529993 -0.48253530 0.17485598
v -0.17126475 -0.49049735 0.17844892
v -0.16495174 -0.49344414 0.19498998
v -0.16495174 -0.49282080 0.22499438
v -0.15497494 -0.49607927 0.22499438
v -0.14020699 -0.50004613 0.23048547
v -0.13434491 -0.50041449 0.23428178
v -0.16495174 -0.49355751 0.18501110
v -0.13592316 -0.50069785 0.22456051
v -0.13259757 -0.50047117 0.17890990
v -0.12498812 -0.50112283 0.17701174
v -0.14043246 -0.50007451 0.19195293
v -0.14043246 -0.50007451 0.18854980
v -0.13552859 -0.50078285 0.18513313
v -0.13924877 -0.49984780 0.18189271
v -0.11224937 -0.50032949 0.16947335
v -0.10497813 -0.50044286 0.16929710
v -0.11890057 -0.49979115 0.17043599
v -0.11495494 -0.47440326 0.12481249
v -0.16089338 -0.46046257 0.12481249
v -0.17498493 -0.48281866 0.16650410
v -0.16140068 -0.49046904 0.16932422
v -0.16483901 -0.49157408 0.17507291
v -0.15497494 -0.49449253 0.17500512
v -0.15497494 -0.49653265 0.18501110
v -0.15497494 -0.49667430 0.19498998
v -0.14499812 -0.49670267 0.17500512
v -0.14426535 -0.49905443 0.18513313
v -0.12498812 -0.47386488 0.12481249
v -0.11518041 -0.47440326 0.12481249
v -0.15497494 -0.49137574 0.16817176
v -0.15497494 -0.46295604 0.12481249
v -0.13896693 -0.46964303 0.12481249
v -0.13406308 -0.47156978 0.12481249
f 1 2 8
f 1 8 16
f 1 16 24
f 1 24 45
f 1 45 63
f 1 63 87
f 1 87 113
f 1 113 142
f 1 142 141
f 1 141 183
f 1 183 182
f 1 182 181
f 1 181 239
f 1 239 313
f 1 313 312
f 1 312 348
f 1 348 271
f 1 271 200
f 1 200 153
f 1 153 115
f 1 115 88
f 1 88 64
f 1 64 48
f 1 48 47
f 1 47 46
f 1 46 25
f 1 25 9
f 1 9 3
f 1 3 4
f 1 4 5
f 1 5 6
f 1 6 7
f 1 7 2
f 2 7 8
f 3 9 10
f 3 10 11
f 3 11 4
f 4 11 5
f 5 12 28
f 5 28 13
f 5 13 14
f 5 14 6
f 5 11 15
f 5 15 12
f 6 14 7
f 7 16 8
f 7 14 17
f 7 17 18
f 7 18 19
f 7 19 20
f 7 20 21
f 7 21 22
f 7 22 23
f 7 23 24
f 7 24 16
f 9 25 26
f 9 26 10
f 10 26 11
f 11 26 15
f 12 27 28
f 12 15 29
f 12 29 30
f 12 30 27
f 13 28 18
f 13 18 14
f 14 18 17
f 15 26 31
f 15 31 29
f 18 28 27
f 18 27 32
f 18 32 33
f 18 33 34
f 18 34 35
f 18 35 36
f 18 36 19
f 19 36 37
f 19 37 38
f 19 38 20
f 20 38 39
f 20 39 40
f 20 40 41
f 20 41 42
f 20 42 43
f 20 43 44
f 20 44 21
f 21 44 22
f 22 44 43
f 22 43 42
f 22 42 41
f 22 41 40
f 22 40 39
f 22 39 60
f 22 60 59
f 22 59 58
f 22 58 82
f 22 82 81
f 22 81 80
f 22 80 79
f 22 79 78
f 22 78 108
f 22 108 135
f 22 135 134
f 22 134 133
f 22 133 132
f 22 132 174
f 22 174 226
f 22 226 225
f 22 225 224
f 22 224 299
f 22 299 298
f 22 298 375
f 22 375 380
f 22 380 379
f 22 379 378
f 22 378 377
f 22 377 462
f 22 462 539
f 22 539 591
f 22 591 590
f 22 590 645
f 22 645 644
f 22 644 693
f 22 693 717
f 22 717 728
f 22 728 727
f 22 727 732
f 22 732 731
f 22 731 730
f 22 730 718
f 22 718 695
f 22 695 656
f 22 656 655
f 22 655 654
f 22 654 653
f 22 653 602
f 22 602 552
f 22 552 482
f 22 482 481
f 22 481 480
f 22 480 479
f 22 479 400
f 22 400 399
f 22 399 398
f 22 398 321
f 22 321 318
f 22 318 249
f 22 249 248
f 22 248 247
f 22 247 246
f 22 246 245
f 22 245 244
f 22 244 243
f 22 243 187
f 22 187 186
f 22 186 184
f 22 184 143
f 22 143 112
f 22 112 86
f 22 86 83
f 22 83 61
f 22 61 45
f 22 45 24
f 22 24 23
f 25 46 26
f 26 46 47
f 26 47 48
f 26 48 49
f 26 49 50
f 26 50 51
f 26 51 31
f 27 30 32
f 29 31 30
f 30 52 33
f 30 33 32
f 30 31 53
f 30 53 52
f 31 51 53
f 33 52 34
f 34 52 35
f 35 52 54
f 35 54 36
f 36 54 55
f 36 55 56
f 36 56 37
f 37 56 57
f 37 57 38
f 38 57 58
f 38 58 59
f 38 59 60
f 38 60 39
f 45 61 62
f 45 62 63
f 48 64 65
f 48 65 49
f 49 65 66
f 49 66 50
f 50 66 51
f 51 66 67
f 51 67 68
f 51 68 53
f 52 53 69
f 52 69 70
f 52 70 71
f 52 71 72
f 52 72 73
f 52 73 54
f 53 68 69
f 54 73 55
f 55 73 74
f 55 74 56
f 56 74 75
f 56 75 76
f 56 76 57
f 57 76 77
f 57 77 78
f 57 78 79
f 57 79 80
f 57 80 81
f 57 81 82
f 57 82 58
f 61 83 62
f 62 84 85
f 62 85 63
f 62 83 86
f 62 86 84
f 63 85 87
f 64 88 65
f 65 88 89
f 65 89 90
f 65 90 66
f 66 90 67
f 67 90 91
f 67 91 92
f 67 92 68
f 68 92 93
f 68 93 69
f 69 93 70
f 70 93 71
f 71 93 94
f 71 94 95
f 71 95 96
f 71 96 72
f 72 97 98
f 72 98 73
f 72 96 99
f 72 99 100
f 72 100 97
f 73 98 97
f 73 97 74
f 74 76 101
f 74 101 75
f 74 97 99
f 74 99 102
f 74 102 103
f 74 103 76
f 75 101 76
f 76 103 104
f 76 104 105
f 76 105 106
f 76 106 107
f 76 107 77
f 77 107 78
f 78 107 108
f 84 109 110
f 84 110 85
f 84 86 109
f 85 110 111
f 85 111 87
f 86 112 109
f 87 111 113
f 88 114 89
f 88 115 114
f 89 114 90
f 90 114 116
f 90 116 91
f 91 117 92
f 91 116 118
f 91 118 117
f 92 117 119
f 92 119 93
f 93 119 120
f 93 120 121
f 93 121 94
f 94 121 95
f 95 121 122
f 95 122 96
f 96 122 123
f 96 123 124
f 96 124 125
f 96 125 99
f 97 100 99
f 99 125 102
f 102 125 126
f 102 126 104
f 102 104 103
f 104 126 127
f 104 127 105
f 105 127 128
f 105 128 129
f 105 129 107
f 105 107 106
f 107 129 130
f 107 130 131
f 107 131 132
f 107 132 133
f 107 133 134
f 107 134 135
f 107 135 108
f 109 136 137
f 109 137 110
f 109 112 136
f 110 137 111
f 111 138 177
f 111 177 139
f 111 139 140
f 111 140 141
f 111 141 142
f 111 142 113
f 111 137 138
f 112 143 144
f 112 144 136
f 114 145 116
f 114 115 146
f 114 146 147
f 114 147 148
f 114 148 149
f 114 149 150
f 114 150 151
f 114 151 152
f 114 152 145
f 115 153 154
f 115 154 155
f 115 155 146
f 116 145 156
f 116 156 118
f 117 157 120
f 117 120 119
f 117 118 157
f 118 156 158
f 118 158 159
f 118 159 157
f 120 157 159
f 120 159 121
f 121 159 160
f 121 160 122
f 122 160 161
f 122 161 123
f 123 161 124
f 124 162 125
f 124 161 163
f 124 163 164
f 124 164 165
f 124 165 166
f 124 166 162
f 125 162 167
f 125 167 168
f 125 168 126
f 126 168 169
f 126 169 128
f 126 128 127
f 128 169 129
f 129 169 130
f 130 170 171
f 130 171 172
f 130 172 131
f 130 169 173
f 130 173 170
f 131 172 174
f 131 174 132
f 136 144 137
f 137 144 175
f 137 175 138
f 138 176 177
f 138 175 176
f 139 177 235
f 139 235 178
f 139 178 179
f 139 179 180
f 139 180 140
f 140 180 181
f 140 181 182
f 140 182 183
f 140 183 141
f 143 184 144
f 144 185 175
f 144 184 186
f 144 186 187
f 144 187 185
f 145 152 188
f 145 188 189
f 145 189 156
f 146 155 190
f 146 190 191
f 146 191 192
f 146 192 147
f 147 192 193
f 147 193 194
f 147 194 195
f 147 195 148
f 148 195 149
f 149 195 150
f 150 195 196
f 150 196 151
f 151 196 195
f 151 195 152
f 152 195 197
f 152 197 198
f 152 198 199
f 152 199 188
f 153 200 201
f 153 201 154
f 154 201 202
f 154 202 203
f 154 203 155
f 155 204 205
f 155 205 190
f 155 203 204
f 156 206 158
f 156 189 206
f 158 160 159
f 158 206 207
f 158 207 160
f 160 207 208
f 160 208 161
f 161 208 209
f 161 209 163
f 162 166 210
f 162 210 167
f 163 209 211
f 163 211 212
f 163 212 164
f 164 212 213
f 164 213 165
f 165 213 214
f 165 214 215
f 165 215 166
f 166 215 216
f 166 216 210
f 167 210 173
f 167 173 169
f 167 169 168
f 170 173 217
f 170 217 218
f 170 218 171
f 171 218 219
f 171 219 220
f 171 220 172
f 172 220 221
f 172 221 222
f 172 222 223
f 172 223 224
f 172 224 225
f 172 225 226
f 172 226 174
f 173 210 216
f 173 216 217
f 175 185 227
f 175 227 228
f 175 228 229
f 175 229 230
f 175 230 231
f 175 231 232
f 175 232 176
f 176 232 233
f 176 233 234
f 176 234 235
f 176 235 177
f 178 235 236
f 178 236 179
f 179 236 237
f 179 237 180
f 180 237 238
f 180 238 181
f 181 238 239
f 185 240 241
f 185 241 242
f 185 242 227
f 185 187 243
f 185 243 244
f 185 244 245
f 185 245 246
f 185 246 247
f 185 247 248
f 185 248 249
f 185 249 250
f 185 250 240
f 188 251 252
f 188 252 189
f 188 199 251
f 189 252 206
f 190 205 253
f 190 253 254
f 190 254 191
f 191 254 255
f 191 255 256
f 191 256 257
f 191 257 258
f 191 258 192
f 192 258 259
f 192 259 260
f 192 260 261
f 192 261 193
f 193 261 194
f 194 262 263
f 194 263 195
f 194 261 264
f 194 264 262
f 195 263 197
f 197 263 265
f 197 265 198
f 198 266 267
f 198 267 268
f 198 268 269
f 198 269 199
f 198 265 266
f 199 269 270
f 199 270 251
f 200 271 201
f 201 271 272
f 201 272 273
f 201 273 274
f 201 274 202
f 202 274 275
f 202 275 276
f 202 276 277
f 202 277 203
f 203 277 204
f 204 278 205
f 204 277 279
f 204 279 278
f 205 278 280
f 205 280 253
f 206 208 207
f 206 252 281
f 206 281 282
f 206 282 208
f 208 283 211
f 208 211 209
f 208 282 284
f 208 284 285
f 208 285 283
f 211 285 286
f 211 286 287
f 211 287 288
f 211 288 212
f 211 283 285
f 212 289 290
f 212 290 213
f 212 288 291
f 212 291 289
f 213 290 214
f 214 290 289
f 214 289 292
f 214 292 293
f 214 293 217
f 214 217 215
f 215 217 216
f 217 293 218
f 218 293 294
f 218 294 219
f 219 221 220
f 219 294 295
f 219 295 296
f 219 296 221
f 221 296 223
f 221 223 222
f 223 296 297
f 223 297 298
f 223 298 299
f 223 299 224
f 227 242 228
f 228 300 229
f 228 242 241
f 228 241 301
f 228 301 300
f 229 300 230
f 230 302 231
f 230 300 303
f 230 303 304
f 230 304 302
f 231 302 305
f 231 305 306
f 231 306 234
f 231 234 233
f 231 233 232
f 234 306 307
f 234 307 308
f 234 308 235
f 235 308 236
f 236 308 309
f 236 309 310
f 236 310 237
f 237 310 311
f 237 311 312
f 237 312 313
f 237 313 239
f 237 239 238
f 240 250 241
f 241 314 301
f 241 250 315
f 241 315 316
f 241 316 317
f 241 317 314
f 249 318 250
f 250 319 320
f 250 320 315
f 250 318 321
f 250 321 319
f 251 270 252
f 252 270 322
f 252 322 284
f 252 284 281
f 253 323 254
f 253 280 324
f 253 324 323
f 254 325 255
f 254 323 325
f 255 326 327
f 255 327 256
f 255 325 326
f 256 328 329
f 256 329 257
f 256 327 328
f 257 329 330
f 257 330 258
f 258 330 259
f 259 330 260
f 260 330 331
f 260 331 332
f 260 332 333
f 260 333 334
f 260 334 264
f 260 264 261
f 262 264 335
f 262 335 336
f 262 336 337
f 262 337 263
f 263 337 265
f 264 334 338
f 264 338 335
f 265 339 266
f 265 337 340
f 265 340 339
f 266 341 267
f 266 339 341
f 267 342 268
f 267 341 342
f 268 342 343
f 268 343 344
f 268 344 345
f 268 345 269
f 269 345 346
f 269 346 347
f 269 347 270
f 270 347 322
f 271 348 349
f 271 349 350
f 271 350 272
f 272 350 274
f 272 274 273
f 274 350 351
f 274 351 275
f 275 351 352
f 275 352 276
f 276 353 277
f 276 352 354
f 276 354 353
f 277 353 355
f 277 355 279
f 278 279 356
f 278 356 357
f 278 357 280
f 279 355 358
f 279 358 359
f 279 359 356
f 280 357 324
f 281 284 282
f 284 322 360
f 284 360 285
f 285 360 361
f 285 361 286
f 286 361 362
f 286 362 287
f 287 363 288
f 287 362 363
f 288 363 291
f 289 291 364
f 289 364 365
f 289 365 292
f 291 366 364
f 291 363 367
f 291 367 368
f 291 368 369
f 291 369 366
f 292 365 370
f 292 370 293
f 293 370 294
f 294 370 295
f 295 371 372
f 295 372 296
f 295 370 371
f 296 372 373
f 296 373 374
f 296 374 297
f 297 375 298
f 297 374 376
f 297 376 377
f 297 377 378
f 297 378 379
f 297 379 380
f 297 380 375
f 300 301 303
f 301 314 381
f 301 381 382
f 301 382 304
f 301 304 303
f 302 304 383
f 302 383 305
f 304 382 383
f 305 383 384
f 305 384 307
f 305 307 306
f 307 384 385
f 307 385 386
f 307 386 387
f 307 387 308
f 308 387 388
f 308 388 309
f 309 388 389
f 309 389 354
f 309 354 352
f 309 352 310
f 310 352 351
f 310 351 350
f 310 350 311
f 311 350 349
f 311 349 348
f 311 348 312
f 314 317 390
f 314 390 391
f 314 391 392
f 314 392 381
f 315 320 393
f 315 393 394
f 315 394 395
f 315 395 316
f 316 395 396
f 316 396 390
f 316 390 317
f 319 397 320
f 319 321 398
f 319 398 399
f 319 399 400
f 319 400 401
f 319 401 397
f 320 397 393
f 322 347 402
f 322 402 360
f 323 403 325
f 323 324 404
f 323 404 403
f 324 357 405
f 324 405 404
f 325 403 406
f 325 406 407
f 325 407 326
f 326 408 327
f 326 407 408
f 327 408 409
f 327 409 328
f 328 410 329
f 328 409 411
f 328 411 410
f 329 410 412
f 329 412 413
f 329 413 331
f 329 331 330
f 331 413 332
f 332 413 414
f 332 414 415
f 332 415 416
f 332 416 417
f 332 417 333
f 333 417 418
f 333 418 334
f 334 418 338
f 335 419 336
f 335 338 419
f 336 419 420
f 336 420 340
f 336 340 337
f 338 418 421
f 338 421 422
f 338 422 419
f 339 423 424
f 339 424 341
f 339 340 423
f 340 425 423
f 340 420 509
f 340 509 425
f 341 424 426
f 341 426 427
f 341 427 342
f 342 428 429
f 342 429 430
f 342 430 344
f 342 344 343
f 342 427 428
f 344 430 431
f 344 431 432
f 344 432 345
f 345 432 433
f 345 433 346
f 346 433 347
f 347 433 402
f 353 434 355
f 353 354 389
f 353 389 435
f 353 435 434
f 355 434 358
f 356 359 436
f 356 436 357
f 357 436 437
f 357 437 438
f 357 438 405
f 358 434 359
f 359 434 436
f 360 402 361
f 361 402 439
f 361 439 440
f 361 440 362
f 362 440 441
f 362 441 442
f 362 442 363
f 363 442 367
f 364 366 365
f 365 366 443
f 365 443 371
f 365 371 370
f 366 369 443
f 367 444 445
f 367 445 446
f 367 446 447
f 367 447 448
f 367 448 449
f 367 449 368
f 367 442 450
f 367 450 451
f 367 451 444
f 368 452 453
f 368 453 369
f 368 449 452
f 369 453 443
f 371 443 454
f 371 454 373
f 371 373 372
f 373 454 443
f 373 443 455
f 373 455 456
f 373 456 374
f 374 456 457
f 374 457 376
f 376 458 459
f 376 459 460
f 376 460 461
f 376 461 462
f 376 462 377
f 376 457 463
f 376 463 458
f 381 392 464
f 381 464 383
f 381 383 382
f 383 464 465
f 383 465 466
f 383 466 385
f 383 385 384
f 385 466 467
f 385 467 468
f 385 468 435
f 385 435 386
f 386 435 389
f 386 389 387
f 387 389 388
f 390 464 391
f 390 396 464
f 391 464 392
f 393 397 469
f 393 469 394
f 394 469 470
f 394 470 471
f 394 471 472
f 394 472 473
f 394 473 474
f 394 474 395
f 395 474 475
f 395 475 396
f 396 475 476
f 396 476 464
f 397 401 477
f 397 477 478
f 397 478 469
f 400 479 401
f 401 479 480
f 401 480 481
f 401 481 482
f 401 482 483
f 401 483 484
f 401 484 477
f 402 433 485
f 402 485 439
f 403 404 486
f 403 486 406
f 404 405 487
f 404 487 486
f 405 438 488
f 405 488 487
f 406 486 489
f 406 489 490
f 406 490 491
f 406 491 492
f 406 492 407
f 407 492 408
f 408 493 409
f 408 492 493
f 409 493 411
f 410 411 494
f 410 494 495
f 410 495 496
f 410 496 412
f 411 493 497
f 411 497 498
f 411 498 494
f 412 496 499
f 412 499 414
f 412 414 413
f 414 499 496
f 414 496 500
f 414 500 501
f 414 501 415
f 415 502 503
f 415 503 416
f 415 501 502
f 416 503 417
f 417 504 505
f 417 505 506
f 417 506 418
f 417 503 504
f 418 506 421
f 419 422 420
f 420 422 507
f 420 507 508
f 420 508 509
f 421 507 422
f 421 506 507
f 423 510 424
f 423 425 511
f 423 511 510
f 424 512 426
f 424 510 512
f 425 509 513
f 425 513 511
f 426 514 515
f 426 515 516
f 426 516 445
f 426 445 429
f 426 429 428
f 426 428 427
f 426 512 514
f 429 445 517
f 429 517 430
f 430 517 518
f 430 518 431
f 431 518 432
f 432 518 519
f 432 519 433
f 433 519 520
f 433 520 485
f 434 521 436
f 434 435 468
f 434 468 521
f 436 521 522
f 436 522 523
f 436 523 437
f 437 523 524
f 437 524 438
f 438 524 488
f 439 485 525
f 439 525 440
f 440 525 451
f 440 451 450
f 440 450 441
f 441 450 442
f 443 453 455
f 444 451 518
f 444 518 526
f 444 526 445
f 445 526 517
f 445 516 446
f 446 516 527
f 446 527 447
f 447 527 528
f 447 528 529
f 447 529 530
f 447 530 448
f 448 530 529
f 448 529 449
f 449 529 531
f 449 531 532
f 449 532 452
f 451 525 518
f 452 455 453
f 452 532 455
f 455 532 456
f 456 532 531
f 456 531 529
f 456 529 533
f 456 533 463
f 456 463 457
f 458 533 534
f 458 534 459
f 458 463 533
f 459 534 535
f 459 535 460
f 460 535 536
f 460 536 537
f 460 537 461
f 461 537 538
f 461 538 539
f 461 539 462
f 464 476 540
f 464 540 541
f 464 541 542
f 464 542 543
f 464 543 465
f 465 543 542
f 465 542 467
f 465 467 466
f 467 542 524
f 467 524 523
f 467 523 522
f 467 522 468
f 468 522 521
f 469 471 470
f 469 478 477
f 469 477 544
f 469 544 471
f 471 545 473
f 471 473 472
f 471 544 546
f 471 546 545
f 473 545 547
f 473 547 548
f 473 548 475
f 473 475 474
f 475 548 476
f 476 548 549
f 476 549 550
f 476 550 540
f 477 484 551
f 477 551 544
f 482 552 483
f 483 553 554
f 483 554 484
f 483 552 553
f 484 554 551
f 485 520 525
f 486 487 555
f 486 555 489
f 487 488 556
f 487 556 555
f 488 524 557
f 488 557 556
f 489 555 558
f 489 558 490
f 490 559 491
f 490 558 559
f 491 560 497
f 491 497 493
f 491 493 492
f 491 559 560
f 494 561 495
f 494 498 561
f 495 561 496
f 496 561 500
f 497 560 498
f 498 560 562
f 498 562 563
f 498 563 564
f 498 564 565
f 498 565 566
f 498 566 567
f 498 567 561
f 500 502 501
f 500 561 502
f 502 561 568
f 502 568 569
f 502 569 570
f 502 570 503
f 503 570 571
f 503 571 504
f 504 571 572
f 504 572 573
f 504 573 574
f 504 574 505
f 505 574 506
f 506 574 507
f 507 574 575
f 507 575 508
f 508 575 576
f 508 576 509
f 509 576 513
f 510 577 512
f 510 511 578
f 510 578 577
f 511 579 578
f 511 513 580
f 511 580 581
f 511 581 582
f 511 582 579
f 512 583 536
f 512 536 584
f 512 584 514
f 512 577 583
f 513 576 580
f 514 584 515
f 515 584 585
f 515 585 516
f 516 535 534
f 516 534 529
f 516 529 527
f 516 585 584
f 516 584 535
f 517 526 518
f 518 525 520
f 518 520 519
f 524 550 557
f 524 542 550
f 527 529 528
f 529 534 533
f 535 584 536
f 536 583 586
f 536 586 537
f 537 586 583
f 537 583 587
f 537 587 588
f 537 588 589
f 537 589 538
f 538 590 591
f 538 591 539
f 538 589 590
f 540 550 542
f 540 542 541
f 544 551 592
f 544 592 546
f 545 593 594
f 545 594 547
f 545 546 593
f 546 592 593
f 547 594 549
f 547 549 548
f 549 594 595
f 549 595 596
f 549 596 597
f 549 597 598
f 549 598 599
f 549 599 550
f 550 599 557
f 551 600 601
f 551 601 592
f 551 554 600
f 552 602 603
f 552 603 553
f 553 604 605
f 553 605 554
f 553 603 606
f 553 606 604
f 554 605 600
f 555 556 557
f 555 557 599
f 555 599 607
f 555 607 558
f 558 608 559
f 558 607 608
f 559 608 562
f 559 562 560
f 561 567 609
f 561 609 610
f 561 610 611
f 561 611 568
f 562 608 612
f 562 612 613
f 562 613 563
f 563 613 564
f 564 613 565
f 565 614 566
f 565 613 614
f 566 615 616
f 566 616 617
f 566 617 618
f 566 618 610
f 566 610 609
f 566 609 567
f 566 614 619
f 566 619 615
f 568 611 620
f 568 620 569
f 569 620 621
f 569 621 570
f 570 621 571
f 571 621 622
f 571 622 623
f 571 623 572
f 572 623 573
f 573 623 575
f 573 575 574
f 575 624 576
f 575 623 624
f 576 624 625
f 576 625 580
f 577 578 626
f 577 626 627
f 577 627 628
f 577 628 629
f 577 629 630
f 577 630 583
f 578 579 631
f 578 631 626
f 579 582 631
f 580 632 633
f 580 633 581
f 580 625 634
f 580 634 635
f 580 635 636
f 580 636 632
f 581 633 637
f 581 637 582
f 582 637 631
f 583 630 638
f 583 638 587
f 587 639 588
f 587 638 640
f 587 640 641
f 587 641 639
f 588 639 589
f 589 641 642
f 589 642 643
f 589 643 644
f 589 644 645
f 589 645 590
f 589 639 641
f 592 601 646
f 592 646 593
f 593 646 596
f 593 596 595
f 593 595 594
f 596 646 647
f 596 647 648
f 596 648 597
f 597 648 649
f 597 649 650
f 597 650 607
f 597 607 598
f 598 607 599
f 600 605 651
f 600 651 652
f 600 652 647
f 600 647 601
f 601 647 646
f 602 653 603
f 603 653 654
f 603 654 655
f 603 655 656
f 603 656 657
f 603 657 658
f 603 658 659
f 603 659 606
f 604 660 651
f 604 651 605
f 604 606 661
f 604 661 662
f 604 662 660
f 606 659 663
f 606 663 664
f 606 664 665
f 606 665 666
f 606 666 662
f 606 662 661
f 607 650 608
f 608 650 649
f 608 649 612
f 610 618 667
f 610 667 668
f 610 668 669
f 610 669 670
f 610 670 671
f 610 671 620
f 610 620 611
f 612 649 613
f 613 672 673
f 613 673 614
f 613 649 674
f 613 674 675
f 613 675 672
f 614 673 660
f 614 660 676
f 614 676 619
f 615 677 616
f 615 619 676
f 615 676 677
f 616 677 678
f 616 678 617
f 617 678 679
f 617 679 680
f 617 680 618
f 618 681 667
f 618 680 681
f 620 671 621
f 621 682 683
f 621 683 624
f 621 624 623
f 621 623 622
f 621 671 682
f 624 684 625
f 624 683 685
f 624 685 686
f 624 686 684
f 625 684 687
f 625 687 634
f 626 631 627
f 627 631 637
f 627 637 688
f 627 688 689
f 627 689 629
f 627 629 628
f 629 642 641
f 629 641 630
f 629 689 642
f 630 641 640
f 630 640 638
f 632 636 690
f 632 690 691
f 632 691 688
f 632 688 637
f 632 637 633
f 634 687 692
f 634 692 690
f 634 690 635
f 635 690 636
f 642 689 688
f 642 688 691
f 642 691 690
f 642 690 643
f 643 693 644
f 643 690 694
f 643 694 693
f 647 652 674
f 647 674 648
f 648 674 649
f 651 660 672
f 651 672 652
f 652 672 675
f 652 675 674
f 656 695 657
f 657 695 658
f 658 696 697
f 658 697 698
f 658 698 699
f 658 699 664
f 658 664 663
f 658 663 659
f 658 695 696
f 660 662 676
f 660 673 672
f 662 666 665
f 662 665 677
f 662 677 676
f 664 679 678
f 664 678 665
f 664 699 700
f 664 700 679
f 665 678 677
f 667 681 701
f 667 701 702
f 667 702 703
f 667 703 668
f 668 703 669
f 669 704 670
f 669 703 704
f 670 704 671
f 671 704 705
f 671 705 682
f 679 700 680
f 680 700 681
f 681 700 706
f 681 706 701
f 682 705 704
f 682 704 685
f 682 685 683
f 684 686 687
f 685 687 686
f 685 704 707
f 685 707 687
f 687 708 709
f 687 709 692
f 687 707 710
f 687 710 711
f 687 711 712
f 687 712 713
f 687 713 708
f 690 692 714
f 690 714 715
f 690 715 694
f 692 709 716
f 692 716 714
f 693 694 715
f 693 715 717
f 695 718 696
f 696 718 719
f 696 719 697
f 697 700 698
f 697 719 720
f 697 720 721
f 697 721 700
f 698 700 699
f 700 721 722
f 700 722 723
f 700 723 706
f 701 706 724
f 701 724 703
f 701 703 702
f 703 724 704
f 704 710 707
f 704 724 710
f 706 723 724
f 708 716 709
f 708 713 725
f 708 725 716
f 710 724 711
f 711 726 713
f 711 713 712
f 711 724 723
f 711 723 726
f 713 726 723
f 713 723 722
f 713 722 725
f 714 716 727
f 714 727 728
f 714 728 715
f 715 728 717
f 716 725 729
f 716 729 727
f 718 720 719
f 718 730 720
f 720 730 731
f 720 731 732
f 720 732 727
f 720 727 729
f 720 729 722
f 720 722 721
f 722 729 725

