# https://github.com/mikedh/trimesh
v 0.30367678 0.10563374 -0.41523927
v 0.30251259 0.10849126 -0.41222763
v 0.30364254 0.10563374 -0.41054463
v 0.30254683 0.10563374 -0.42586857
v 0.28833687 0.13043532 -0.43924385
v 0.28717268 0.13529965 -0.41355628
v 0.29734221 0.11793637 -0.39158905
v 0.29408932 0.12404406 -0.34287131
v 0.28826839 0.13146055 -0.04463015
v 0.29093915 0.12574549 -0.01805684
v 0.29747918 0.11291934 -0.09689100
v 0.30309469 0.10563374 -0.35872668
v 0.30134839 0.10563374 -0.43711793
v 0.26443672 0.16284969 -0.44872165
v 0.27436656 0.15104878 -0.44057250
v 0.27744824 0.14932552 -0.42631149
v 0.28874776 0.12258258 -0.45288479
v 0.27912605 0.12677070 -0.47485209
v 0.28142020 0.14518103 -0.39008319
v 0.29090494 0.12949735 -0.37369633
v 0.27361327 0.15811624 -0.10814036
v 0.27813309 0.14997992 -0.02762323
v 0.27758521 0.15026349 0.03216672
v 0.28179684 0.14094928 0.15626408
v 0.27929726 0.14256345 0.30817485
v 0.28104353 0.13765548 0.33997422
v 0.28275561 0.13274752 0.36991352
v 0.28799444 0.12397862 0.25803989
v 0.29316482 0.11311566 0.19745271
v 0.30021846 0.10563374 -0.09715673
v 0.30090326 0.10563374 -0.43880093
v 0.25926635 0.17218573 -0.44163543
v 0.26073870 0.15224850 -0.47998959
v 0.24111867 0.17750815 -0.47928095
v 0.26501882 0.16751772 -0.41311342
v 0.29761612 0.10563374 -0.45120180
v 0.28984344 0.10563374 -0.47423202
v 0.27659225 0.11963780 -0.48069817
v 0.26570362 0.16751772 -0.31895530
v 0.25255513 0.18767309 -0.08289573
v 0.27967393 0.14816943 -0.32019538
v 0.26988101 0.16394036 -0.04082131
v 0.26358068 0.17155316 0.32863629
v 0.26943588 0.16097376 0.37221652
v 0.27717432 0.14441757 0.39586675
v 0.28819990 0.11968143 0.35361522
v 0.27816731 0.14145097 0.40729332
v 0.28272134 0.13058801 0.40729332
v 0.28655633 0.12138285 0.40729332
v 0.28686452 0.12133922 0.39515817
v 0.29360998 0.10678983 0.30711192
v 0.29549319 0.10563374 0.21534540
v 0.29761612 0.10563374 0.07849286
v 0.29802704 0.10563374 0.05156523
v 0.24666569 0.18752040 -0.43853521
v 0.24176925 0.18930908 -0.45040464
v 0.25686949 0.14603174 -0.48308980
v 0.22803865 0.18477194 -0.48477274
v 0.21920450 0.19652924 -0.48335552
v 0.22464880 0.20553808 -0.45217615
v 0.23759186 0.18946177 -0.46005958
v 0.24440581 0.19083600 -0.41063321
v 0.25008979 0.18671331 -0.29185051
v 0.28819990 0.10563374 -0.47582644
v 0.28231046 0.10563374 -0.48043245
v 0.23858485 0.20215704 -0.13781390
v 0.24872015 0.19334452 0.00337896
v 0.26758689 0.16732140 -0.00875618
v 0.25389051 0.18675694 0.39498097
v 0.25865000 0.17857701 0.40729332
v 0.27032614 0.15754910 0.40729332
v 0.28789175 0.11754373 0.40729332
v 0.29388389 0.10563374 0.30941492
v 0.29405510 0.10563374 0.30179727
v 0.22132744 0.21186391 -0.42781729
v 0.23040128 0.20488369 -0.41603649
v 0.20437820 0.19685644 -0.48707581
v -0.01476349 0.26367021 -0.49761653
v 0.16866495 0.22702406 -0.48920166
v 0.19441411 0.21661918 -0.48459560
v 0.20903495 0.20673780 -0.48140681
v 0.20115955 0.22434103 -0.45651650
v 0.20002961 0.22719857 -0.44668436
v 0.19869421 0.23044872 -0.43224621
v 0.21328083 0.21325995 -0.45811087
v 0.23752338 0.19962671 -0.33569652
v -0.04612815 0.25605738 -0.49743938
v -0.04578574 0.25610101 -0.49743938
v -0.04612815 0.10563374 -0.45802230
v 0.23166819 0.20791572 -0.21434504
v 0.22670326 0.21485230 -0.11265783
v 0.23238724 0.21107863 0.00940225
v 0.22725111 0.21932401 0.24918209
v 0.22594996 0.22205065 0.39320946
v 0.23440745 0.21238741 0.40729332
v 0.24331009 0.20111001 0.32739621
v 0.24485093 0.19912501 0.40729332
v 0.25375354 0.18675694 0.40729332
v 0.29114461 0.10563374 0.40729332
v 0.29213759 0.10563374 0.37327945
v 0.20900072 0.22263962 -0.41984528
v 0.21677339 0.21805884 -0.38565433
v 0.22334765 0.21352170 -0.33534217
v 0.22930557 0.20911545 -0.26944035
v -0.03575316 0.26630959 -0.49469346
v 0.00814366 0.27239546 -0.49221331
v 0.02344934 0.27095580 -0.49318767
v 0.06142248 0.26825097 -0.49371910
v 0.03129050 0.26358294 -0.49540210
v 0.08634985 0.26009282 -0.49256760
v 0.15750243 0.23677455 -0.48875874
v 0.14699046 0.26349568 -0.44517851
v 0.17428046 0.24787745 -0.42515999
v 0.19746155 0.23201928 -0.41966814
v 0.20499453 0.22885637 -0.36315560
v -0.04612815 0.26432461 -0.49425060
v -0.04612815 0.10563374 0.40729332
v 0.21095245 0.23036148 -0.08325003
v 0.19554405 0.25398514 0.40729332
v 0.21728700 0.22985977 0.22969501
v 0.22105351 0.22743851 0.40729332
v 0.20773381 0.22722039 -0.33888531
v -0.00606631 0.27387875 -0.48778439
v -0.04612815 0.27337706 -0.47086608
v -0.04496396 0.27361700 -0.47077751
v -0.03445201 0.27815413 -0.46360272
v 0.00187758 0.27959383 -0.47308052
v 0.02820882 0.27992100 -0.47122037
v 0.03854957 0.27664903 -0.47768652
v 0.07590638 0.27712893 -0.46298265
v 0.10230611 0.26131436 -0.48858160
v 0.12795253 0.25215283 -0.48849303
v 0.03933711 0.28589782 -0.45315051
v 0.10401815 0.27464223 -0.44889879
v 0.10336757 0.27653998 -0.43047464
v 0.15075697 0.26434642 -0.41851664
v 0.09895050 0.27202463 -0.46165401
v 0.18869588 0.23982839 -0.38716012
v 0.18811378 0.24238053 -0.33454496
v 0.17616370 0.26892716 0.36087859
v -0.04612815 0.32527059 0.40729332
v 0.19208571 0.25699538 0.39852411
v 0.19020247 0.25867498 0.40729332
v 0.20163894 0.24798653 0.40729332
v -0.04612815 0.27564561 -0.46315980
v -0.04612815 0.27688897 -0.45784515
v -0.02126926 0.28144795 -0.45757943
v -0.00188892 0.28269130 -0.46094537
v 0.01512881 0.28506893 -0.45421344
v 0.07529005 0.28053176 -0.45146757
v 0.02971542 0.28788280 -0.43605500
v 0.04526079 0.28805733 -0.41196191
v 0.07029088 0.28336748 -0.43127185
v 0.08097403 0.28225502 -0.41249335
v 0.08987667 0.28256041 -0.36218125
v 0.07737873 0.31556374 0.36415595
v 0.11713241 0.30380642 0.34714901
v 0.13569097 0.29534292 0.38771760
v 0.15236628 0.28461084 0.35352665
v 0.15918022 0.28205872 0.40729332
v 0.16465877 0.27880853 0.40729332
v 0.17362988 0.27178469 0.40729332
v -0.03630102 0.32695022 0.40729332
v -0.04612815 0.32570687 0.39861268
v -0.04612815 0.27915755 -0.44260979
v -0.02493304 0.28378195 -0.43711793
v 0.00406899 0.29289985 -0.35863811
v 0.00454837 0.32847714 0.39808124
v 0.06967454 0.28742474 -0.34499717
v 0.04512382 0.32256576 0.35370380
v 0.07597487 0.28439271 -0.38902026
v 0.04539775 0.32492161 0.40729332
v 0.08114524 0.31565100 0.39444953
v 0.09573185 0.31076485 0.40729332
v 0.09836841 0.30987051 0.40729332
v 0.11795419 0.30315202 0.40729332
v 0.12189189 0.30134153 0.40729332
v 0.14907916 0.28794825 0.40729332
v -0.00521028 0.32782274 0.40729332
v -0.02938436 0.32732105 0.39861268
v -0.04612815 0.32282752 0.34502316
v -0.04612815 0.28103349 -0.41577071
v -0.04438186 0.28157881 -0.41302484
v -0.02589178 0.28821003 -0.35536075
v -0.01935177 0.32740828 0.38417453
v 0.01725174 0.32719016 0.40729332
v 0.02375751 0.32699385 0.40729332
v 0.06940061 0.31855214 0.40729332
v -0.04612815 0.31037220 0.11675842
f 1 2 3
f 1 3 12
f 1 12 30
f 1 30 54
f 1 54 53
f 1 53 52
f 1 52 74
f 1 74 73
f 1 73 100
f 1 100 99
f 1 99 117
f 1 117 89
f 1 89 65
f 1 65 64
f 1 64 37
f 1 37 36
f 1 36 31
f 1 31 13
f 1 13 4
f 1 4 5
f 1 5 2
f 2 5 6
f 2 6 7
f 2 7 8
f 2 8 9
f 2 9 10
f 2 10 11
f 2 11 3
f 3 11 12
f 4 13 5
f 5 14 15
f 5 15 16
f 5 16 6
f 5 13 17
f 5 17 18
f 5 18 14
f 6 16 19
f 6 19 20
f 6 20 7
f 7 20 8
f 8 20 21
f 8 21 22
f 8 22 9
f 9 22 23
f 9 23 24
f 9 24 10
f 10 24 25
f 10 25 26
f 10 26 27
f 10 27 11
f 11 27 28
f 11 28 29
f 11 29 30
f 11 30 12
f 13 31 17
f 14 32 15
f 14 18 33
f 14 33 34
f 14 34 32
f 15 32 16
f 16 32 35
f 16 35 19
f 17 31 36
f 17 36 37
f 17 37 18
f 18 37 38
f 18 38 33
f 19 39 40
f 19 40 41
f 19 41 20
f 19 35 39
f 20 41 21
f 21 42 22
f 21 41 42
f 22 42 43
f 22 43 44
f 22 44 23
f 23 44 24
f 24 44 25
f 25 44 45
f 25 45 26
f 26 45 27
f 27 46 28
f 27 45 47
f 27 47 48
f 27 48 49
f 27 49 50
f 27 50 46
f 28 46 29
f 29 46 51
f 29 51 52
f 29 52 53
f 29 53 54
f 29 54 30
f 32 55 35
f 32 34 56
f 32 56 55
f 33 38 57
f 33 57 58
f 33 58 34
f 34 58 59
f 34 59 60
f 34 60 61
f 34 61 56
f 35 55 62
f 35 62 63
f 35 63 40
f 35 40 39
f 37 64 38
f 38 64 65
f 38 65 57
f 40 66 67
f 40 67 68
f 40 68 42
f 40 42 41
f 40 63 66
f 42 68 69
f 42 69 43
f 43 69 70
f 43 70 44
f 44 70 71
f 44 71 45
f 45 71 47
f 46 50 51
f 47 71 70
f 47 70 98
f 47 98 97
f 47 97 95
f 47 95 121
f 47 121 144
f 47 144 119
f 47 119 143
f 47 143 162
f 47 162 161
f 47 161 160
f 47 160 178
f 47 178 177
f 47 177 176
f 47 176 175
f 47 175 174
f 47 174 188
f 47 188 172
f 47 172 187
f 47 187 186
f 47 186 179
f 47 179 163
f 47 163 141
f 47 141 117
f 47 117 99
f 47 99 72
f 47 72 49
f 47 49 48
f 49 72 50
f 50 72 51
f 51 73 74
f 51 74 52
f 51 72 73
f 55 75 76
f 55 76 62
f 55 56 60
f 55 60 75
f 56 61 60
f 57 77 58
f 57 65 78
f 57 78 77
f 58 77 79
f 58 79 80
f 58 80 59
f 59 80 81
f 59 81 60
f 60 82 83
f 60 83 84
f 60 84 75
f 60 81 85
f 60 85 82
f 62 76 86
f 62 86 66
f 62 66 63
f 65 87 88
f 65 88 78
f 65 89 87
f 66 90 91
f 66 91 92
f 66 92 67
f 66 86 90
f 67 92 93
f 67 93 94
f 67 94 95
f 67 95 96
f 67 96 97
f 67 97 69
f 67 69 68
f 69 97 98
f 69 98 70
f 72 99 100
f 72 100 73
f 75 84 101
f 75 101 102
f 75 102 76
f 76 102 103
f 76 103 104
f 76 104 86
f 77 78 79
f 78 88 87
f 78 87 105
f 78 105 106
f 78 106 107
f 78 107 108
f 78 108 109
f 78 109 79
f 79 109 108
f 79 108 110
f 79 110 111
f 79 111 80
f 80 111 112
f 80 112 82
f 80 82 81
f 81 82 85
f 82 112 83
f 83 112 84
f 84 112 113
f 84 113 114
f 84 114 115
f 84 115 102
f 84 102 101
f 86 104 90
f 87 116 105
f 87 89 117
f 87 117 141
f 87 141 164
f 87 164 181
f 87 181 189
f 87 189 182
f 87 182 165
f 87 165 146
f 87 146 145
f 87 145 124
f 87 124 116
f 90 104 91
f 91 104 103
f 91 103 118
f 91 118 119
f 91 119 120
f 91 120 92
f 92 120 93
f 93 120 94
f 94 120 121
f 94 121 95
f 95 97 96
f 102 115 122
f 102 122 103
f 103 122 118
f 105 123 106
f 105 116 124
f 105 124 125
f 105 125 126
f 105 126 123
f 106 108 107
f 106 123 127
f 106 127 128
f 106 128 129
f 106 129 108
f 108 130 131
f 108 131 132
f 108 132 110
f 108 129 133
f 108 133 130
f 110 132 111
f 111 132 112
f 112 134 135
f 112 135 136
f 112 136 113
f 112 132 131
f 112 131 137
f 112 137 134
f 113 136 138
f 113 138 114
f 114 138 115
f 115 139 140
f 115 140 122
f 115 138 139
f 118 142 119
f 118 122 142
f 119 142 143
f 119 144 120
f 120 144 121
f 122 140 142
f 123 126 127
f 124 145 126
f 124 126 125
f 126 145 146
f 126 146 147
f 126 147 127
f 127 147 148
f 127 148 149
f 127 149 133
f 127 133 128
f 128 133 129
f 130 137 131
f 130 133 150
f 130 150 134
f 130 134 137
f 133 149 151
f 133 151 152
f 133 152 153
f 133 153 150
f 134 150 135
f 135 150 153
f 135 153 154
f 135 154 155
f 135 155 156
f 135 156 136
f 136 139 138
f 136 156 157
f 136 157 158
f 136 158 159
f 136 159 160
f 136 160 161
f 136 161 139
f 139 161 140
f 140 161 162
f 140 162 143
f 140 143 142
f 141 163 164
f 146 165 147
f 147 165 166
f 147 166 149
f 147 149 148
f 149 166 151
f 151 166 167
f 151 167 168
f 151 168 152
f 152 169 153
f 152 168 170
f 152 170 169
f 153 169 171
f 153 171 154
f 154 171 155
f 155 171 172
f 155 172 156
f 156 172 173
f 156 173 157
f 157 173 174
f 157 174 175
f 157 175 176
f 157 176 158
f 158 176 177
f 158 177 178
f 158 178 160
f 158 160 159
f 163 179 168
f 163 168 180
f 163 180 164
f 164 180 167
f 164 167 181
f 165 182 183
f 165 183 166
f 166 183 184
f 166 184 167
f 167 184 181
f 167 180 185
f 167 185 168
f 168 185 180
f 168 179 186
f 168 186 187
f 168 187 172
f 168 172 170
f 169 170 172
f 169 172 171
f 172 188 173
f 173 188 174
f 181 184 189
f 182 189 183
f 183 189 184

