# https://github.com/mikedh/trimesh
v 0.27939531 -0.10198838 0.49691269
v 0.27259684 -0.11130925 0.49688637
v 0.27259684 -0.12636602 0.49494767
v 0.27259684 -0.12718190 0.49476343
v 0.28552243 -0.10312568 0.49343002
v 0.30005229 -0.04631044 0.49226329
v 0.28726447 -0.07385272 0.49567577
v 0.30359992 0.00716709 0.49263173
v 0.30307695 0.04781298 0.49131587
v 0.29216546 0.10930102 0.48785952
v 0.28209847 0.12453087 0.48549974
v 0.27268165 0.12453087 0.45667344
v 0.27259684 0.12453087 0.43897939
v 0.27259684 -0.12730552 0.49307913
v 0.27734235 -0.11974005 0.47563070
v 0.27300674 -0.12508039 0.40729329
v 0.28346241 -0.10181531 0.40729329
v 0.28463200 -0.09914514 0.40729329
v 0.28594646 -0.09588161 0.40729329
v 0.29167429 -0.08124514 0.40729329
v 0.29199585 -0.08020674 0.47761330
v 0.29534563 -0.06816626 0.49222821
v 0.29860705 -0.05481542 0.48580676
v 0.30141267 -0.04272549 0.47174451
v 0.30637020 -0.01372450 0.47449028
v 0.30363527 -0.02141359 0.49210539
v 0.30846912 0.02247111 0.48773670
v 0.30648327 0.05827114 0.48614010
v 0.30282256 0.07975610 0.48557869
v 0.29808411 0.09901592 0.48481548
v 0.29141635 0.12210792 0.48249954
v 0.29045171 0.12453087 0.48259604
v 0.28219742 0.12453087 0.48549095
v 0.27259684 0.12453087 0.40729329
v 0.27259684 -0.12804724 0.47572720
v 0.27259684 -0.12589628 0.40729329
v 0.29397109 -0.07311101 0.40729329
v 0.29935971 -0.05165077 0.40729329
v 0.30253279 -0.03523419 0.40729329
v 0.30591792 -0.00294493 0.48957890
v 0.30531722 -0.00052200 0.40729329
v 0.30869526 0.01473257 0.47934145
v 0.30644441 0.05599655 0.48009589
v 0.29907703 0.07691287 0.40729329
v 0.30178723 0.08277240 0.47832385
v 0.28789344 0.11753403 0.40729329
v 0.29859647 0.07901439 0.40729329
v 0.28658956 0.12134150 0.40729329
v 0.28526804 0.12453087 0.40729329
v 0.30485433 0.02489404 0.40729329
v 0.30473417 0.03030855 0.40729329
v 0.30802390 0.02069100 0.47005144
v 0.30691791 0.04017333 0.46788463
v 0.30468118 0.03159418 0.40729329
v 0.30435961 0.03433852 0.40729329
f 1 2 3
f 1 3 4
f 1 4 5
f 1 5 6
f 1 6 7
f 1 7 8
f 1 8 9
f 1 9 10
f 1 10 2
f 2 10 11
f 2 11 12
f 2 12 13
f 2 13 34
f 2 34 36
f 2 36 35
f 2 35 14
f 2 14 4
f 2 4 3
f 4 14 15
f 4 15 5
f 5 15 16
f 5 16 17
f 5 17 18
f 5 18 19
f 5 19 20
f 5 20 21
f 5 21 22
f 5 22 6
f 6 22 23
f 6 23 24
f 6 24 25
f 6 25 26
f 6 26 7
f 7 26 8
f 8 26 27
f 8 27 9
f 9 27 28
f 9 28 29
f 9 29 10
f 10 29 30
f 10 30 31
f 10 31 32
f 10 32 33
f 10 33 11
f 11 33 32
f 11 32 49
f 11 49 34
f 11 34 13
f 11 13 12
f 14 35 15
f 15 35 36
f 15 36 16
f 16 36 34
f 16 34 49
f 16 49 48
f 16 48 46
f 16 46 47
f 16 47 44
f 16 44 55
f 16 55 54
f 16 54 51
f 16 51 50
f 16 50 41
f 16 41 39
f 16 39 38
f 16 38 37
f 16 37 20
f 16 20 19
f 16 19 18
f 16 18 17
f 20 37 21
f 21 37 22
f 22 37 38
f 22 38 23
f 23 38 24
f 24 38 39
f 24 39 25
f 25 40 26
f 25 39 41
f 25 41 42
f 25 42 40
f 26 40 27
f 27 42 28
f 27 40 42
f 28 43 44
f 28 44 29
f 28 42 43
f 29 44 45
f 29 45 30
f 30 46 31
f 30 45 47
f 30 47 46
f 31 46 48
f 31 48 32
f 32 48 49
f 41 50 42
f 42 50 51
f 42 51 52
f 42 52 53
f 42 53 43
f 43 53 54
f 43 54 55
f 43 55 44
f 44 47 45
f 51 54 52
f 52 54 53

