# https://github.com/mikedh/trimesh
v -0.14770712 -0.25497115 0.45131093
v -0.14770712 -0.26417747 0.45131093
v -0.14770712 -0.25587076 0.46745354
v -0.00910512 -0.28563601 0.45131093
v -0.14770712 -0.26912311 0.46616700
v -0.13084151 -0.27129227 0.45131093
v -0.14645882 -0.26977614 0.46623656
v -0.14770712 -0.26317281 0.48816860
v -0.00910512 -0.29252249 0.49570966
v -0.00910512 -0.28843537 0.46946159
v -0.00910512 -0.29643607 0.45131093
v -0.14770712 -0.26938340 0.46765348
v -0.11891481 -0.27623335 0.45131093
v -0.11070588 -0.28464964 0.47003531
v -0.12770718 -0.27894133 0.47539881
v -0.14770712 -0.26356554 0.48854673
v -0.07183219 -0.28713843 0.49331042
v -0.02278215 -0.29179183 0.49512288
v -0.01697484 -0.30021724 0.49324957
v -0.00910512 -0.29729918 0.49445787
v -0.09755803 -0.27873585 0.49203256
v -0.12800568 -0.27713296 0.49117634
v -0.00910512 -0.30105293 0.47677663
v -0.01484459 -0.30162376 0.47768068
v -0.01214446 -0.29639497 0.45131093
v -0.14770712 -0.27014145 0.48249653
v -0.11158784 -0.27899158 0.45131093
v -0.10119438 -0.28742614 0.48772961
v -0.08815508 -0.29108399 0.47000924
v -0.14459994 -0.27143839 0.48491749
v -0.14770712 -0.26475742 0.48839897
v -0.07803299 -0.29232612 0.49165443
v -0.04985126 -0.29672378 0.49224120
v -0.00910512 -0.30059171 0.49002886
v -0.00910512 -0.29966468 0.49327999
v -0.03681196 -0.29942265 0.48466974
v -0.11491211 -0.28210145 0.48996368
v -0.14770712 -0.26918703 0.48619097
v -0.00910512 -0.30141827 0.48070580
v -0.06584850 -0.29648176 0.47355592
v -0.03526515 -0.29938155 0.47144791
v -0.04346051 -0.29449525 0.45131093
v -0.09020391 -0.28505605 0.45131093
v -0.07746311 -0.29312983 0.48387867
v -0.07211713 -0.28954047 0.45131093
v -0.06112666 -0.29144934 0.45131093
v -0.05090960 -0.29765081 0.47054386
f 1 2 5
f 1 5 12
f 1 12 26
f 1 26 38
f 1 38 31
f 1 31 16
f 1 16 8
f 1 8 3
f 1 3 4
f 1 4 11
f 1 11 25
f 1 25 42
f 1 42 46
f 1 46 45
f 1 45 43
f 1 43 27
f 1 27 13
f 1 13 6
f 1 6 2
f 2 6 7
f 2 7 5
f 3 8 9
f 3 9 10
f 3 10 4
f 4 10 9
f 4 9 20
f 4 20 35
f 4 35 34
f 4 34 39
f 4 39 23
f 4 23 11
f 5 7 12
f 6 13 7
f 7 13 14
f 7 14 15
f 7 15 12
f 8 16 9
f 9 17 18
f 9 18 19
f 9 19 20
f 9 16 21
f 9 21 22
f 9 22 17
f 11 23 24
f 11 24 25
f 12 15 26
f 13 27 14
f 14 28 15
f 14 27 29
f 14 29 28
f 15 28 22
f 15 22 30
f 15 30 26
f 16 31 22
f 16 22 21
f 17 32 18
f 17 22 32
f 18 32 33
f 18 33 19
f 19 24 34
f 19 34 35
f 19 35 20
f 19 33 36
f 19 36 24
f 22 28 37
f 22 37 32
f 22 31 38
f 22 38 30
f 23 39 24
f 24 39 34
f 24 36 40
f 24 40 41
f 24 41 25
f 25 41 42
f 26 30 38
f 27 43 29
f 28 29 40
f 28 40 44
f 28 44 32
f 28 32 37
f 29 43 45
f 29 45 40
f 32 44 40
f 32 40 33
f 33 40 36
f 40 45 46
f 40 46 42
f 40 42 47
f 40 47 41
f 41 47 42

