# https://github.com/mikedh/trimesh
v 0.11611383 -0.27395022 0.49126974
v 0.11611383 -0.27389741 0.47647655
v 0.12752603 -0.26924986 0.47671938
v 0.12360452 -0.27074623 0.49228024
v 0.13425080 -0.26345801 0.49907172
v 0.11611383 -0.26902100 0.49881321
v 0.11611383 -0.26840484 0.46087262
v 0.11887114 -0.26713735 0.46087262
v 0.14615320 -0.25330031 0.46087262
v 0.15157591 -0.25470868 0.47540340
v 0.15286265 -0.25631067 0.48594308
v 0.14932410 -0.25447983 0.49877796
v 0.18921322 -0.22138363 0.49936154
v 0.20658427 -0.20305751 0.49999994
v 0.11611383 -0.26798236 0.49855864
v 0.27259123 -0.11132125 0.49688622
v 0.11611383 -0.26210248 0.46087262
v 0.22908700 -0.17952050 0.45999137
v 0.23035842 -0.17952050 0.45999137
v 0.15900534 -0.24537836 0.46087262
v 0.18049705 -0.23701629 0.47642171
v 0.16746110 -0.24349470 0.49814346
v 0.17913371 -0.23888236 0.48712200
v 0.18466365 -0.23124208 0.49834713
v 0.22184139 -0.18913247 0.49956912
v 0.22983760 -0.17952050 0.49930280
v 0.23764999 -0.17010216 0.49903646
v 0.11611383 -0.26358128 0.48864558
v 0.27259123 -0.10463160 0.49273849
v 0.27259123 -0.12639058 0.49494746
v 0.11611383 -0.26055330 0.46803617
v 0.27259123 -0.09410420 0.46017152
v 0.27259123 -0.09420982 0.45999137
v 0.23473950 -0.15955716 0.45999137
v 0.24213828 -0.16698620 0.45999137
v 0.21327841 -0.20142031 0.46087262
v 0.19906294 -0.21638399 0.46087262
v 0.19604522 -0.21884862 0.46087262
v 0.17881203 -0.23131248 0.46087262
v 0.17761719 -0.23217511 0.46087262
v 0.20097774 -0.22143646 0.47800013
v 0.21148616 -0.20979998 0.49433255
v 0.19930804 -0.21994008 0.49604023
v 0.22184139 -0.19929019 0.49590707
v 0.23501523 -0.17952050 0.49764213
v 0.24356289 -0.17327096 0.49639273
v 0.26134753 -0.14779747 0.49522555
v 0.11611383 -0.26058853 0.47089142
v 0.27259123 -0.09973759 0.47989187
v 0.27259123 -0.12720037 0.49475947
v 0.27211636 -0.12808059 0.49481040
v 0.27259123 -0.11760600 0.45999137
v 0.24982812 -0.15610671 0.45999137
v 0.25057870 -0.16469763 0.47533679
v 0.21876240 -0.20244136 0.47602615
v 0.23610283 -0.18490742 0.48233193
v 0.25407130 -0.15906425 0.48817167
v 0.25986165 -0.15029728 0.47599873
v 0.27259123 -0.12806299 0.47573629
v 0.27259123 -0.12732360 0.49307531
v 0.27190191 -0.11899675 0.45999137
v 0.26018333 -0.13992831 0.45999137
v 0.23996307 -0.17952050 0.48046371
v 0.26473290 -0.13181271 0.45999137
f 1 2 3
f 1 3 4
f 1 4 5
f 1 5 6
f 1 6 15
f 1 15 28
f 1 28 48
f 1 48 31
f 1 31 17
f 1 17 7
f 1 7 2
f 2 7 3
f 3 7 8
f 3 8 9
f 3 9 10
f 3 10 11
f 3 11 4
f 4 11 5
f 5 11 12
f 5 12 13
f 5 13 14
f 5 14 6
f 6 14 16
f 6 16 15
f 7 17 18
f 7 18 19
f 7 19 8
f 8 19 9
f 9 20 10
f 9 19 20
f 10 20 21
f 10 21 11
f 11 22 12
f 11 21 23
f 11 23 22
f 12 22 24
f 12 24 13
f 13 24 14
f 14 24 25
f 14 25 26
f 14 26 27
f 14 27 16
f 15 16 29
f 15 29 28
f 16 27 30
f 16 30 50
f 16 50 60
f 16 60 59
f 16 59 52
f 16 52 33
f 16 33 32
f 16 32 49
f 16 49 29
f 17 31 32
f 17 32 33
f 17 33 34
f 17 34 18
f 18 34 33
f 18 33 52
f 18 52 61
f 18 61 64
f 18 64 62
f 18 62 53
f 18 53 35
f 18 35 19
f 19 35 36
f 19 36 37
f 19 37 38
f 19 38 39
f 19 39 40
f 19 40 20
f 20 40 21
f 21 40 39
f 21 39 38
f 21 38 41
f 21 41 23
f 22 23 24
f 23 41 42
f 23 42 43
f 23 43 24
f 24 43 44
f 24 44 25
f 25 44 45
f 25 45 26
f 26 45 46
f 26 46 27
f 27 46 47
f 27 47 30
f 28 29 49
f 28 49 32
f 28 32 48
f 30 47 51
f 30 51 50
f 31 48 32
f 35 53 54
f 35 54 36
f 36 55 37
f 36 54 55
f 37 41 38
f 37 55 41
f 41 55 56
f 41 56 44
f 41 44 42
f 42 44 43
f 44 56 46
f 44 46 45
f 46 57 47
f 46 56 57
f 47 57 54
f 47 54 58
f 47 58 59
f 47 59 60
f 47 60 51
f 50 51 60
f 52 59 61
f 53 62 54
f 54 62 58
f 54 57 63
f 54 63 55
f 55 63 56
f 56 63 57
f 58 62 59
f 59 62 64
f 59 64 61

