# https://github.com/mikedh/trimesh
v 0.12185793 -0.02324087 0.44470757
v 0.11296123 -0.02324087 0.45293671
v 0.11229645 -0.03031017 0.45195946
v 0.12184235 -0.02328774 0.44470757
v 0.09996157 -0.02324087 0.44470757
v 0.10797535 -0.02324087 0.45343325
v 0.08008554 -0.06676884 0.45483071
v 0.08630232 -0.06676884 0.45339260
v 0.11226529 -0.04503255 0.44470757
v 0.11530356 -0.04007680 0.44470757
v 0.09703236 -0.05603918 0.45154321
v 0.09763482 -0.02324087 0.44923297
v 0.06881016 -0.06676884 0.44470757
v 0.10127037 -0.02324087 0.45099711
v 0.08624519 -0.05069566 0.45435894
v 0.06911658 -0.06676884 0.45197535
v 0.09579628 -0.06676884 0.44470757
v 0.06880496 -0.06676884 0.44675818
f 1 2 3
f 1 3 4
f 1 4 10
f 1 10 9
f 1 9 17
f 1 17 13
f 1 13 5
f 1 5 12
f 1 12 14
f 1 14 6
f 1 6 2
f 2 6 7
f 2 7 8
f 2 8 3
f 3 9 10
f 3 10 4
f 3 8 11
f 3 11 9
f 5 13 12
f 6 14 15
f 6 15 7
f 7 15 16
f 7 16 18
f 7 18 13
f 7 13 17
f 7 17 8
f 8 17 11
f 9 11 17
f 12 13 18
f 12 18 16
f 12 16 15
f 12 15 14

