# https://github.com/mikedh/trimesh
v -0.30869514 0.13464868 0.46403000
v -0.30867937 0.13464868 0.46354774
v -0.30845875 0.13464868 0.46418375
v -0.28650728 0.16842085 0.46657395
v -0.29692358 0.16020918 0.46264267
v -0.29695511 0.16007456 0.45234102
v -0.30719808 0.13464868 0.44531015
v -0.30089471 0.13464868 0.46650407
v -0.14772287 0.29982436 0.46334156
v -0.18202895 0.27959809 0.46362114
v -0.24444805 0.22704677 0.46467996
v -0.25598320 0.21297924 0.46505037
v -0.27078038 0.19340922 0.46561998
v -0.27279747 0.20086367 0.46244350
v -0.28408048 0.18390186 0.45970383
v -0.29520592 0.15906493 0.44058564
v -0.28226826 0.18307734 0.44065902
v -0.30670959 0.13464868 0.44274172
v -0.29322037 0.13464868 0.43784946
v -0.14772287 0.28720397 0.43653905
v -0.14772287 0.29040113 0.44756758
v -0.14772287 0.30297107 0.46226877
v -0.17698625 0.29051894 0.46190536
v -0.23305471 0.24670093 0.46318084
v -0.25335157 0.22731601 0.45951164
v -0.25881973 0.21639517 0.43953031
v -0.27304959 0.19675784 0.44119716
v -0.28452170 0.16614917 0.43087453
v -0.29238516 0.15038210 0.43087453
v -0.29322037 0.14864890 0.43087453
v -0.29961827 0.13464868 0.43087453
v -0.27995178 0.17434402 0.43087453
v -0.26485521 0.19790208 0.43087453
v -0.29181784 0.13464868 0.43087453
v -0.14772287 0.28829774 0.43087453
v -0.15555480 0.30293739 0.46078712
v -0.14772287 0.30648792 0.46070674
v -0.16978467 0.29507911 0.45435381
v -0.19734614 0.27799949 0.45999038
v -0.21086685 0.26704499 0.46145806
v -0.22594766 0.25511453 0.45356408
v -0.23749858 0.23970082 0.43911448
v -0.24424319 0.22467414 0.43087453
v -0.24857676 0.21947454 0.43087453
v -0.14772287 0.29598778 0.43087453
v -0.14772287 0.30655524 0.45645049
v -0.14772287 0.30618504 0.45241091
v -0.14772287 0.30522591 0.44647032
v -0.15944713 0.29802385 0.43945342
v -0.19183069 0.27838653 0.43857983
v -0.20976377 0.26447046 0.43898866
v -0.21939217 0.24898943 0.43087453
v -0.15730399 0.29184827 0.43087453
v -0.14772287 0.30345905 0.43947789
v -0.16998953 0.28489864 0.43087453
v -0.18661465 0.27458358 0.43087453
v -0.20360222 0.26199684 0.43087453
v -0.20505200 0.26091990 0.43087453
v -0.20656481 0.25969154 0.43087453
v -0.21554711 0.25222024 0.43087453
f 1 2 7
f 1 7 18
f 1 18 31
f 1 31 34
f 1 34 19
f 1 19 8
f 1 8 3
f 1 3 4
f 1 4 5
f 1 5 6
f 1 6 2
f 2 6 7
f 3 8 4
f 4 8 9
f 4 9 10
f 4 10 11
f 4 11 12
f 4 12 13
f 4 13 14
f 4 14 5
f 5 14 15
f 5 15 6
f 6 16 7
f 6 15 17
f 6 17 16
f 7 16 18
f 8 19 20
f 8 20 21
f 8 21 9
f 9 21 20
f 9 20 35
f 9 35 45
f 9 45 54
f 9 54 48
f 9 48 47
f 9 47 46
f 9 46 37
f 9 37 22
f 9 22 23
f 9 23 10
f 10 23 24
f 10 24 11
f 11 24 12
f 12 24 13
f 13 24 14
f 14 25 26
f 14 26 27
f 14 27 15
f 14 24 25
f 15 27 17
f 16 17 28
f 16 28 29
f 16 29 30
f 16 30 31
f 16 31 18
f 17 32 28
f 17 27 26
f 17 26 33
f 17 33 32
f 19 34 20
f 20 34 35
f 22 36 23
f 22 37 36
f 23 36 38
f 23 38 39
f 23 39 40
f 23 40 24
f 24 40 41
f 24 41 25
f 25 41 42
f 25 42 26
f 26 43 44
f 26 44 33
f 26 42 43
f 28 32 33
f 28 33 44
f 28 44 43
f 28 43 52
f 28 52 60
f 28 60 59
f 28 59 58
f 28 58 57
f 28 57 56
f 28 56 55
f 28 55 53
f 28 53 45
f 28 45 35
f 28 35 34
f 28 34 31
f 28 31 30
f 28 30 29
f 36 37 46
f 36 46 38
f 38 46 47
f 38 47 48
f 38 48 49
f 38 49 50
f 38 50 39
f 39 50 41
f 39 41 40
f 41 50 51
f 41 51 42
f 42 51 52
f 42 52 43
f 45 53 54
f 48 54 49
f 49 54 53
f 49 53 55
f 49 55 50
f 50 56 57
f 50 57 58
f 50 58 51
f 50 55 56
f 51 58 59
f 51 59 60
f 51 60 52

