# https://github.com/mikedh/trimesh
v -0.14766866 0.29675570 0.41324902
v -0.14766866 0.29401672 0.40729856
v -0.15923864 0.29034534 0.40729856
v -0.15243977 0.29465777 0.41335404
v -0.15727055 0.29180223 0.43087453
v -0.14766866 0.29588157 0.43087453
v 0.14402609 0.29180223 0.43280199
v 0.14402609 0.29174396 0.43146801
v 0.14402609 0.29028708 0.40730381
v -0.14766866 -0.07737558 0.40729332
v -0.30863452 -0.07737558 0.40729332
v 0.14903577 0.28789777 0.40730381
v 0.15911476 0.28201190 0.40730381
v 0.16466120 0.27869016 0.40730381
v 0.17360707 0.27169704 0.40730381
v 0.19018672 0.25858498 0.40730381
v 0.19555424 0.25392291 0.40730381
v 0.20157778 0.24792048 0.40730381
v 0.22102013 0.22740738 0.40730381
v 0.23437928 0.21231392 0.40730381
v -0.17104717 0.28440121 0.40729856
v -0.17426768 0.28440121 0.41829613
v -0.16997367 0.28480914 0.43087453
v 0.10275584 0.04477071 0.45433497
v 0.14402609 0.28935465 0.43562230
v 0.16287203 0.28271121 0.43528092
v 0.14563634 0.29110295 0.43283877
v -0.14766866 -0.26560673 0.40729332
v 0.24481611 0.19908528 0.40730381
v 0.23676483 -0.17941667 0.40729856
v -0.30607003 -0.08541765 0.40729332
v -0.31024480 -0.07521936 0.42833784
v -0.30976766 -0.07382075 0.40729856
v -0.31555265 -0.05056866 0.40729856
v -0.31632799 -0.04695556 0.40729856
v -0.31769967 -0.03949624 0.40729856
v -0.32044303 -0.02370347 0.40729856
v -0.32068163 -0.02195520 0.40729856
v -0.32270932 -0.00488036 0.40729856
v -0.32282865 -0.00103415 0.40729856
v -0.32270932 0.02926932 0.40729856
v -0.32121837 0.04447933 0.40729856
v -0.31954849 0.06015554 0.40729856
v -0.31579119 0.07792970 0.40729856
v -0.30964839 0.10491144 0.40729856
v -0.29294944 0.14558801 0.40729856
v -0.28895360 0.15403801 0.40729856
v -0.25633106 0.20788495 0.40729856
v -0.24112310 0.22589220 0.40729856
v -0.23259470 0.23521635 0.40729856
v -0.21613431 0.25060117 0.40729856
v -0.21052824 0.25549635 0.40729856
v -0.20772520 0.25759429 0.40729856
v 0.16651002 0.28020534 0.43562230
v 0.17742397 0.27257121 0.43562230
v 0.19131987 0.25934258 0.43562230
v 0.20157778 0.24873635 0.42231387
v 0.21779962 0.23084565 0.41641068
v 0.23909076 0.20695253 0.41508195
v -0.18893890 0.27303740 0.42841664
v -0.18661296 0.27455258 0.43087453
v -0.20551856 0.26056635 0.43039137
v 0.01240264 -0.10837835 0.45856279
v 0.11671138 0.03002691 0.45531708
v 0.13042837 0.03393139 0.45512801
v -0.20504144 0.26085773 0.43087453
v 0.15887621 0.28387672 0.43562230
v 0.16221599 0.28253639 0.43562230
v -0.14766866 -0.26566499 0.40765569
v -0.16681279 -0.25593293 0.40729332
v 0.23163588 -0.18675944 0.40729856
v 0.22412136 -0.19538426 0.40729856
v 0.22179544 -0.19771531 0.40729856
v 0.19621028 -0.22166669 0.40729856
v 0.19042528 -0.22691153 0.40729856
v 0.18368606 -0.23238946 0.40729856
v 0.17652938 -0.23745947 0.40729856
v 0.15637137 -0.25062984 0.40729856
v 0.15368761 -0.25231981 0.40729856
v 0.14253511 -0.25873017 0.40729856
v 0.13645191 -0.26211017 0.40729856
v 0.12792353 -0.26601467 0.40729856
v 0.11599571 -0.27137604 0.40729856
v 0.10973361 -0.27405673 0.40729856
v 0.10257692 -0.27691224 0.40729856
v 0.08390989 -0.28373054 0.40729856
v 0.06685311 -0.28833434 0.40729856
v 0.05289757 -0.29177260 0.40729856
v 0.04532340 -0.29352087 0.40729856
v 0.04204325 -0.29416192 0.40729856
v 0.02528467 -0.29643467 0.40729856
v 0.00297966 -0.29789159 0.40729856
v -0.01031986 -0.29847434 0.40729856
v -0.02606457 -0.29835778 0.40729856
v -0.05141118 -0.29591018 0.40729856
v -0.05367747 -0.29567710 0.40729856
v -0.07723490 -0.29107329 0.40729856
v -0.08075361 -0.29014087 0.40729856
v -0.09864533 -0.28495434 0.40729856
v -0.11641777 -0.27912673 0.40729856
v -0.12184493 -0.27714536 0.40729856
v -0.14015412 -0.26939467 0.40729856
v 0.25370234 0.18673080 0.40730381
v 0.25859272 0.17851390 0.40730381
v 0.27028203 0.15747629 0.40730381
v 0.27809471 0.14139214 0.40730381
v 0.28525144 0.12455042 0.40730381
v 0.27254832 -0.12574458 0.40730381
v 0.27099770 -0.12877491 0.40730381
v 0.26485485 -0.13932286 0.40730381
v 0.24821554 -0.16496424 0.40730381
v -0.30249172 -0.09514973 0.40729332
v -0.30946946 -0.07737558 0.42836937
v -0.30756104 -0.07737558 0.44229227
v -0.31221288 -0.06676936 0.43087453
v -0.31579119 -0.05109315 0.43087453
v -0.31704366 -0.04450797 0.41844317
v -0.32103944 -0.02137244 0.41312823
v -0.32402140 -0.00074277 0.42874226
v -0.32348466 0.02950242 0.42691457
v -0.31990629 0.05811589 0.41228789
v -0.31752074 0.07658935 0.41898939
v -0.31012553 0.10456178 0.41478258
v -0.30028504 0.13352489 0.41694114
v -0.28197587 0.17157906 0.41540229
v -0.25752383 0.20788495 0.41254526
v -0.24571529 0.22338633 0.42808574
v -0.22740610 0.24121876 0.41735604
v -0.21935482 0.24891119 0.43087453
v -0.21553792 0.25217465 0.43087453
v 0.27254832 -0.09404248 0.45997557
v 0.20879412 0.23982014 0.43562230
v 0.23318650 0.21254702 0.43562230
v 0.23831545 0.20636977 0.43562230
v 0.24272875 0.20048390 0.43562230
v 0.25352341 0.18673080 0.41972464
v -0.20653242 0.25963396 0.43087453
v 0.11599571 -0.26834568 0.46085262
v 0.03130822 -0.11945077 0.45904070
v 0.16394553 -0.00639553 0.45708174
v -0.14760901 -0.25488397 0.45128885
v -0.14760901 -0.26403329 0.45128885
v -0.13836496 -0.26986086 0.43430930
v -0.16651461 -0.25610775 0.40827543
v -0.19031060 -0.24217981 0.44229227
v -0.18023159 -0.24724981 0.40729332
v 0.23533352 -0.17813461 0.44680369
v 0.21809782 -0.19794841 0.45023319
v 0.19895367 -0.21630532 0.46085262
v 0.19591208 -0.21881118 0.46085262
v 0.17491913 -0.23641050 0.43714011
v 0.16412444 -0.24526843 0.42135802
v 0.15511894 -0.25022191 0.43878922
v 0.13537842 -0.26106122 0.44062215
v 0.11856019 -0.26898673 0.44148871
v 0.11599571 -0.27067673 0.42787042
v 0.10502212 -0.27586329 0.41541281
v 0.10627455 -0.27399847 0.44279119
v 0.07890020 -0.28326434 0.44457161
v 0.06786697 -0.28810123 0.41204107
v 0.06220126 -0.28885880 0.42808574
v 0.05194334 -0.29037398 0.44071144
v 0.03202389 -0.29433674 0.44149396
v 0.01604062 -0.29602674 0.43767580
v -0.00966382 -0.29707572 0.44162527
v -0.01819221 -0.29812467 0.41934127
v -0.04902562 -0.29526916 0.43710861
v -0.07234450 -0.29095674 0.43932492
v -0.08802957 -0.28676087 0.43723989
v -0.10705444 -0.28151605 0.43658340
v -0.09983812 -0.28419673 0.42145255
v 0.26616693 0.16546009 0.42684630
v 0.28143454 0.13369973 0.43562230
v 0.28465503 0.12455042 0.43562230
v 0.27254832 -0.11764422 0.45987052
v 0.27254832 -0.12044147 0.44647807
v 0.27254832 -0.12166525 0.44051710
v 0.25716144 -0.14736493 0.44551694
v 0.24475648 -0.16677080 0.43300158
v -0.29700488 -0.10750421 0.40729332
v -0.29843622 -0.10732938 0.42886829
v -0.24422432 0.22461013 0.43087453
v -0.24851833 0.21936530 0.43087453
v -0.26479980 0.19786149 0.43087453
v -0.27988851 0.17420147 0.43087453
v -0.28448069 0.16604285 0.43087453
v -0.29235303 0.15025008 0.43087453
v -0.29318798 0.14856008 0.43087453
v -0.30010611 0.13340835 0.43087453
v -0.30929053 0.10858282 0.43087453
v -0.30988693 0.10683454 0.43087453
v -0.31602979 0.08183418 0.43087453
v -0.31913102 0.06324417 0.43087453
v -0.32097983 0.04919968 0.43087453
v -0.32229185 0.03876829 0.43087453
v -0.32294792 0.02950242 0.43087453
v -0.32336539 -0.00039311 0.43087453
v -0.32282865 -0.00831863 0.43087453
v -0.31811714 -0.03827245 0.43087453
v -0.29974830 -0.09852973 0.44229227
v 0.27254832 -0.11746939 0.45997557
v 0.27254832 0.12449214 0.43895203
v 0.21135859 -0.14730665 0.46094191
v 0.23050274 -0.17941667 0.46085262
v 0.25883132 0.17682390 0.43562230
v 0.26312530 0.16988906 0.43562230
v 0.10555887 -0.27364880 0.45128885
v 0.11331196 -0.27044362 0.45128885
v 0.11760597 -0.26764637 0.46085262
v 0.11599571 -0.26205191 0.46085262
v -0.13079080 -0.27114293 0.45128885
v -0.11886298 -0.27615467 0.45128885
v -0.11146773 -0.27889362 0.45128885
v -0.10645805 -0.28035054 0.45128885
v -0.09005731 -0.28495434 0.45128885
v -0.07198666 -0.28944156 0.45128885
v -0.06101307 -0.29136467 0.45128885
v -0.04335991 -0.29439503 0.45128885
v -0.01216867 -0.29631811 0.45128885
v -0.00763610 -0.29637641 0.45128885
v 0.00536522 -0.29567710 0.45128885
v 0.01836654 -0.29486123 0.45128885
v 0.02611962 -0.29416192 0.45128885
v 0.03548296 -0.29282159 0.45128885
v 0.04359387 -0.29136467 0.45128885
v 0.05498493 -0.28903365 0.45128885
v 0.07216099 -0.28460467 0.45128885
v 0.07836346 -0.28285640 0.45128885
v 0.07013326 -0.14899665 0.45981801
v -0.14760901 -0.26409155 0.45073214
v -0.28269154 -0.13658389 0.44229227
v -0.26986915 -0.15837908 0.44229227
v -0.25138101 -0.18168943 0.44229227
v -0.22859888 -0.20808841 0.44229227
v -0.18989313 -0.24241292 0.44229227
v -0.14766866 -0.26461604 0.44229227
v -0.16639532 -0.25581637 0.42480853
v -0.20766556 -0.22726119 0.40729332
v -0.20700954 -0.22778566 0.40729332
v -0.20623423 -0.22836843 0.40729332
v -0.18422741 -0.24462740 0.40729332
v -0.22794285 -0.21006979 0.42804372
v 0.24970652 -0.15598977 0.45997557
v 0.24201308 -0.16682908 0.45997557
v 0.21320741 -0.20132841 0.46085262
v 0.17873602 -0.23122394 0.46085262
v 0.15893584 -0.24526843 0.46085262
v 0.14605381 -0.25325224 0.46085262
v 0.11599571 -0.26927811 0.45128885
v 0.26801574 0.16097285 0.43562230
v 0.27183264 -0.11886802 0.45997557
v 0.26020300 -0.13973078 0.45970771
v -0.28871506 -0.12434595 0.40729332
v -0.28096199 -0.14200355 0.42797548
v 0.14098449 -0.17953323 0.46077910
v 0.22519487 -0.18675944 0.46085262
v 0.26008373 -0.13978906 0.45997557
v -0.27070409 -0.15750493 0.43948773
v -0.24708700 -0.18984807 0.43226105
v -0.22812177 -0.20942876 0.40729332
v -0.23509954 -0.20231910 0.41463554
v -0.23527846 -0.20202772 0.40729332
v -0.28221440 -0.13699181 0.40729332
v -0.27487880 -0.15010390 0.40729332
v -0.26378596 -0.16642115 0.40729332
v -0.25275272 -0.18192254 0.40729332
v -0.24130200 -0.19515117 0.40729332
f 1 2 3
f 1 3 4
f 1 4 5
f 1 5 6
f 1 6 7
f 1 7 8
f 1 8 9
f 1 9 2
f 2 10 11
f 2 11 3
f 2 9 12
f 2 12 13
f 2 13 14
f 2 14 15
f 2 15 16
f 2 16 17
f 2 17 18
f 2 18 19
f 2 19 20
f 2 20 10
f 3 21 22
f 3 22 4
f 3 11 21
f 4 22 5
f 5 22 23
f 5 23 24
f 5 24 6
f 6 24 25
f 6 25 7
f 7 25 26
f 7 26 27
f 7 27 8
f 8 27 9
f 9 27 12
f 10 28 70
f 10 70 146
f 10 146 241
f 10 241 240
f 10 240 239
f 10 239 238
f 10 238 260
f 10 260 262
f 10 262 267
f 10 267 266
f 10 266 265
f 10 265 264
f 10 264 263
f 10 263 253
f 10 253 180
f 10 180 112
f 10 112 31
f 10 31 11
f 10 20 29
f 10 29 30
f 10 30 28
f 11 31 32
f 11 32 33
f 11 33 34
f 11 34 35
f 11 35 36
f 11 36 37
f 11 37 38
f 11 38 39
f 11 39 40
f 11 40 41
f 11 41 42
f 11 42 43
f 11 43 44
f 11 44 45
f 11 45 46
f 11 46 47
f 11 47 48
f 11 48 49
f 11 49 50
f 11 50 51
f 11 51 52
f 11 52 53
f 11 53 21
f 12 27 26
f 12 26 13
f 13 26 14
f 14 26 54
f 14 54 55
f 14 55 15
f 15 55 16
f 16 55 17
f 17 55 56
f 17 56 57
f 17 57 18
f 18 57 19
f 19 57 58
f 19 58 59
f 19 59 20
f 20 59 29
f 21 53 22
f 22 60 61
f 22 61 23
f 22 53 52
f 22 52 62
f 22 62 60
f 23 61 24
f 24 63 64
f 24 64 65
f 24 65 25
f 24 61 66
f 24 66 63
f 25 65 67
f 25 67 26
f 26 67 68
f 26 68 54
f 28 69 70
f 28 30 71
f 28 71 72
f 28 72 73
f 28 73 74
f 28 74 75
f 28 75 76
f 28 76 77
f 28 77 78
f 28 78 79
f 28 79 80
f 28 80 81
f 28 81 82
f 28 82 83
f 28 83 84
f 28 84 85
f 28 85 86
f 28 86 87
f 28 87 88
f 28 88 89
f 28 89 90
f 28 90 91
f 28 91 92
f 28 92 93
f 28 93 94
f 28 94 95
f 28 95 96
f 28 96 97
f 28 97 98
f 28 98 99
f 28 99 100
f 28 100 101
f 28 101 102
f 28 102 69
f 29 59 103
f 29 103 30
f 30 103 104
f 30 104 105
f 30 105 106
f 30 106 107
f 30 107 108
f 30 108 109
f 30 109 110
f 30 110 111
f 30 111 71
f 31 112 113
f 31 113 32
f 32 113 114
f 32 114 115
f 32 115 34
f 32 34 33
f 34 115 116
f 34 116 117
f 34 117 35
f 35 117 36
f 36 117 118
f 36 118 37
f 37 118 38
f 38 118 39
f 39 119 40
f 39 118 119
f 40 119 41
f 41 119 120
f 41 120 42
f 42 120 43
f 43 120 121
f 43 121 122
f 43 122 44
f 44 122 45
f 45 122 123
f 45 123 124
f 45 124 46
f 46 124 47
f 47 124 125
f 47 125 48
f 48 125 126
f 48 126 49
f 49 126 127
f 49 127 50
f 50 128 51
f 50 127 128
f 51 128 129
f 51 129 52
f 52 129 130
f 52 130 62
f 54 68 131
f 54 131 55
f 55 131 56
f 56 132 57
f 56 131 132
f 57 132 133
f 57 133 58
f 58 133 59
f 59 134 135
f 59 135 136
f 59 136 103
f 59 133 134
f 60 62 61
f 61 62 66
f 62 130 137
f 62 137 66
f 63 138 139
f 63 139 140
f 63 140 64
f 63 66 137
f 63 137 130
f 63 130 129
f 63 129 114
f 63 114 141
f 63 141 142
f 63 142 138
f 64 140 65
f 65 140 68
f 65 68 67
f 68 140 131
f 69 102 143
f 69 143 144
f 69 144 70
f 70 144 145
f 70 145 146
f 71 111 147
f 71 147 148
f 71 148 72
f 72 148 149
f 72 149 73
f 73 149 74
f 74 149 75
f 75 149 150
f 75 150 76
f 76 150 151
f 76 151 152
f 76 152 77
f 77 152 78
f 78 152 79
f 79 152 153
f 79 153 80
f 80 153 81
f 81 153 154
f 81 154 155
f 81 155 82
f 82 155 156
f 82 156 83
f 83 156 157
f 83 157 84
f 84 157 85
f 85 157 86
f 86 157 158
f 86 158 159
f 86 159 160
f 86 160 87
f 87 160 88
f 88 160 161
f 88 161 89
f 89 161 162
f 89 162 163
f 89 163 90
f 90 163 91
f 91 163 164
f 91 164 92
f 92 164 165
f 92 165 93
f 93 165 166
f 93 166 94
f 94 166 167
f 94 167 95
f 95 167 96
f 96 167 168
f 96 168 97
f 97 168 98
f 98 168 169
f 98 169 170
f 98 170 171
f 98 171 99
f 99 171 170
f 99 170 100
f 100 170 101
f 101 170 143
f 101 143 102
f 103 136 172
f 103 172 104
f 104 172 105
f 105 172 106
f 106 173 107
f 106 172 173
f 107 174 175
f 107 175 176
f 107 176 177
f 107 177 108
f 107 173 174
f 108 177 109
f 109 177 110
f 110 177 178
f 110 178 111
f 111 178 179
f 111 179 147
f 112 180 181
f 112 181 113
f 113 181 114
f 114 129 182
f 114 182 183
f 114 183 184
f 114 184 185
f 114 185 186
f 114 186 187
f 114 187 188
f 114 188 189
f 114 189 190
f 114 190 191
f 114 191 192
f 114 192 193
f 114 193 194
f 114 194 195
f 114 195 196
f 114 196 197
f 114 197 198
f 114 198 199
f 114 199 116
f 114 116 115
f 114 181 200
f 114 200 142
f 114 142 141
f 116 199 117
f 117 199 118
f 118 199 198
f 118 198 119
f 119 198 197
f 119 197 196
f 119 196 120
f 120 196 195
f 120 195 194
f 120 194 121
f 121 194 122
f 122 192 191
f 122 191 123
f 122 194 193
f 122 193 192
f 123 191 190
f 123 190 124
f 124 189 188
f 124 188 125
f 124 190 189
f 125 188 187
f 125 187 186
f 125 186 185
f 125 185 184
f 125 184 126
f 126 184 127
f 127 183 182
f 127 182 129
f 127 129 128
f 127 184 183
f 131 201 174
f 131 174 202
f 131 202 135
f 131 135 134
f 131 134 133
f 131 133 132
f 131 140 203
f 131 203 204
f 131 204 201
f 135 205 136
f 135 202 205
f 136 205 206
f 136 206 172
f 138 207 208
f 138 208 249
f 138 249 209
f 138 209 203
f 138 203 210
f 138 210 139
f 138 142 211
f 138 211 212
f 138 212 213
f 138 213 214
f 138 214 215
f 138 215 216
f 138 216 217
f 138 217 218
f 138 218 219
f 138 219 220
f 138 220 221
f 138 221 222
f 138 222 223
f 138 223 224
f 138 224 225
f 138 225 226
f 138 226 227
f 138 227 228
f 138 228 207
f 139 210 229
f 139 229 203
f 139 203 140
f 142 230 143
f 142 143 211
f 142 200 231
f 142 231 232
f 142 232 233
f 142 233 234
f 142 234 145
f 142 145 235
f 142 235 230
f 143 170 212
f 143 212 211
f 143 230 236
f 143 236 237
f 143 237 144
f 144 237 235
f 144 235 145
f 145 238 239
f 145 239 240
f 145 240 241
f 145 241 146
f 145 234 242
f 145 242 238
f 147 179 243
f 147 243 244
f 147 244 245
f 147 245 148
f 148 245 149
f 149 245 203
f 149 203 150
f 150 246 151
f 150 203 246
f 151 246 247
f 151 247 153
f 151 153 152
f 153 247 248
f 153 248 154
f 154 248 209
f 154 209 155
f 155 209 249
f 155 249 208
f 155 208 158
f 155 158 157
f 155 157 156
f 158 208 207
f 158 207 159
f 159 228 227
f 159 227 161
f 159 161 160
f 159 207 228
f 161 226 162
f 161 227 226
f 162 225 163
f 162 226 225
f 163 224 223
f 163 223 222
f 163 222 164
f 163 225 224
f 164 222 221
f 164 221 220
f 164 220 165
f 165 220 219
f 165 219 166
f 166 219 167
f 167 218 217
f 167 217 168
f 167 219 218
f 168 217 216
f 168 216 215
f 168 215 170
f 168 170 169
f 170 213 212
f 170 215 214
f 170 214 213
f 172 206 250
f 172 250 173
f 173 250 202
f 173 202 174
f 174 201 175
f 175 201 251
f 175 251 252
f 175 252 176
f 176 252 177
f 177 252 178
f 178 252 243
f 178 243 179
f 180 253 181
f 181 253 254
f 181 254 231
f 181 231 200
f 201 204 251
f 202 250 206
f 202 206 205
f 203 229 255
f 203 255 210
f 203 209 248
f 203 248 247
f 203 247 246
f 203 245 256
f 203 256 204
f 204 256 244
f 204 244 243
f 204 243 257
f 204 257 251
f 210 255 229
f 230 235 236
f 231 254 258
f 231 258 232
f 232 258 259
f 232 259 233
f 233 259 234
f 234 259 242
f 235 237 236
f 238 242 260
f 242 259 261
f 242 261 262
f 242 262 260
f 243 252 257
f 244 256 245
f 251 257 252
f 253 263 254
f 254 263 264
f 254 264 265
f 254 265 258
f 258 265 266
f 258 266 259
f 259 266 267
f 259 267 262
f 259 262 261

