# https://github.com/mikedh/trimesh
v 0.14403668 0.27333865 0.44687864
v 0.14403668 0.27672565 0.45751211
v 0.14403668 0.27560794 0.43753409
v 0.27050132 0.12454779 0.43562514
v 0.27266544 0.12454779 0.45668212
v 0.14403668 0.28813982 0.47208551
v 0.28209582 0.12454779 0.48549694
v 0.14403668 0.27650550 0.43562514
v 0.28466123 0.12454779 0.43562514
v 0.20382935 0.24768214 0.47801739
v 0.18200187 0.26603967 0.47574228
v 0.14403668 0.29748794 0.47041091
v 0.28218180 0.12454779 0.48549205
v 0.26039734 0.17557293 0.48299235
v 0.24848753 0.19387965 0.48221609
v 0.14403668 0.28939304 0.43562514
v 0.28451791 0.12498809 0.43562514
v 0.28868848 0.12454779 0.46248707
v 0.21784593 0.24055250 0.47699699
v 0.17472127 0.27880865 0.47209525
v 0.23392633 0.21772413 0.48050731
v 0.15710737 0.28957930 0.47082099
v 0.14403668 0.29753876 0.46346840
v 0.29045132 0.12454779 0.48260179
v 0.28324237 0.14258355 0.48332435
v 0.25452125 0.19575945 0.47916469
v 0.14403668 0.29418564 0.44855812
v 0.14455262 0.28920674 0.43562514
v 0.28153688 0.13379429 0.43562514
v 0.28265476 0.14192310 0.46044144
v 0.23448527 0.22275382 0.47707513
v 0.21960877 0.23914689 0.45996785
v 0.20245348 0.25598028 0.47391143
v 0.18902449 0.26678482 0.46256518
v 0.17751598 0.27281368 0.43663087
v 0.16656642 0.28026506 0.43562514
v 0.15104498 0.29333889 0.45777574
v 0.14403668 0.29669201 0.45824930
v 0.27321005 0.16539499 0.48043409
v 0.26518419 0.17897686 0.46585581
v 0.24378666 0.21120416 0.46718863
v 0.14403668 0.29521865 0.45135564
v 0.15892752 0.28393996 0.43562514
v 0.26806489 0.16104269 0.43562514
v 0.27128959 0.16402325 0.45858619
v 0.20885985 0.23987511 0.43562514
v 0.19136059 0.25940114 0.43562514
v 0.17745866 0.27266124 0.43562514
v 0.20146458 0.25438839 0.45307416
v 0.23617643 0.21801202 0.45600349
v 0.23323840 0.21260975 0.43562514
v 0.16228119 0.28256822 0.43562514
v 0.26313472 0.16993357 0.43562514
v 0.25470757 0.19299904 0.45643312
v 0.24275477 0.20055205 0.43562514
v 0.23838355 0.20641156 0.43562514
v 0.25892115 0.17685999 0.43562514
f 1 2 6
f 1 6 12
f 1 12 23
f 1 23 38
f 1 38 42
f 1 42 27
f 1 27 16
f 1 16 8
f 1 8 3
f 1 3 4
f 1 4 5
f 1 5 2
f 2 5 7
f 2 7 6
f 3 8 4
f 4 9 18
f 4 18 24
f 4 24 13
f 4 13 7
f 4 7 5
f 4 8 16
f 4 16 28
f 4 28 43
f 4 43 52
f 4 52 36
f 4 36 48
f 4 48 47
f 4 47 46
f 4 46 51
f 4 51 56
f 4 56 55
f 4 55 57
f 4 57 53
f 4 53 44
f 4 44 29
f 4 29 17
f 4 17 9
f 6 10 11
f 6 11 12
f 6 7 10
f 7 13 14
f 7 14 15
f 7 15 10
f 9 17 18
f 10 19 20
f 10 20 11
f 10 15 21
f 10 21 19
f 11 20 12
f 12 22 23
f 12 20 22
f 13 24 25
f 13 25 14
f 14 26 15
f 14 25 26
f 15 26 21
f 16 27 28
f 17 29 30
f 17 30 18
f 18 30 24
f 19 31 32
f 19 32 33
f 19 33 20
f 19 21 31
f 20 33 34
f 20 34 35
f 20 35 36
f 20 36 37
f 20 37 22
f 21 26 31
f 22 37 23
f 23 37 38
f 24 30 25
f 25 30 39
f 25 39 26
f 26 40 41
f 26 41 31
f 26 39 40
f 27 42 43
f 27 43 28
f 29 44 30
f 30 44 45
f 30 45 40
f 30 40 39
f 31 41 32
f 32 46 47
f 32 47 48
f 32 48 49
f 32 49 34
f 32 34 33
f 32 41 50
f 32 50 51
f 32 51 46
f 34 49 35
f 35 48 36
f 35 49 48
f 36 52 37
f 37 42 38
f 37 52 42
f 40 45 44
f 40 44 53
f 40 53 54
f 40 54 41
f 41 54 50
f 42 52 43
f 50 54 55
f 50 55 56
f 50 56 51
f 53 57 54
f 54 57 55

