# https://github.com/mikedh/trimesh
v -0.00907931 -0.29643932 0.45131126
v -0.00907931 -0.28563631 0.45131126
v -0.00771908 -0.29645595 0.45131126
v -0.00907931 -0.30105492 0.47677815
v -0.00907931 -0.28843477 0.46945804
v 0.11608627 -0.26060393 0.47089043
v 0.11608627 -0.25894067 0.45131126
v 0.00530725 -0.29580310 0.45131126
v -0.00907931 -0.30142084 0.48070794
v 0.01839486 -0.29494652 0.45131126
v 0.03708269 -0.29750797 0.47503883
v -0.00907931 -0.29252228 0.49570626
v 0.11608627 -0.26358953 0.48864660
v 0.11608627 -0.26931953 0.45131126
v 0.00088345 -0.30106738 0.48595852
v -0.00907931 -0.30059335 0.49003249
v 0.02607832 -0.29425627 0.45131126
v 0.03544062 -0.29291317 0.45131126
v 0.04356523 -0.29144114 0.45131126
v 0.05507203 -0.28912088 0.45131126
v 0.05601561 -0.29342461 0.47462490
v 0.05713075 -0.29344541 0.48676774
v 0.04675135 -0.29532906 0.49451572
v -0.00907931 -0.29730007 0.49445525
v 0.00218241 -0.29312524 0.49618992
v 0.04829539 -0.28832251 0.49772465
v 0.11608627 -0.26902846 0.49881753
v 0.11608627 -0.26799306 0.49856177
v 0.11339031 -0.27055037 0.45131126
v 0.11608627 -0.27390602 0.47647122
v 0.02792872 -0.29706720 0.49344140
v -0.00907931 -0.29966608 0.49328327
v 0.07225258 -0.28473398 0.45131126
v 0.08016887 -0.28763640 0.47533181
v 0.09681022 -0.28212264 0.48867914
v 0.07839199 -0.28643054 0.49620390
v 0.09518041 -0.27853826 0.49851525
v 0.11305945 -0.26995990 0.49877104
v 0.11608627 -0.27395177 0.49126956
v 0.11185852 -0.27119073 0.45131126
v 0.09765577 -0.28140327 0.47607592
v 0.10570686 -0.27373970 0.45131126
v 0.07845326 -0.28294596 0.45131126
f 1 2 7
f 1 7 14
f 1 14 29
f 1 29 40
f 1 40 42
f 1 42 43
f 1 43 33
f 1 33 20
f 1 20 19
f 1 19 18
f 1 18 17
f 1 17 10
f 1 10 8
f 1 8 3
f 1 3 4
f 1 4 9
f 1 9 16
f 1 16 32
f 1 32 24
f 1 24 12
f 1 12 5
f 1 5 2
f 2 5 6
f 2 6 7
f 3 8 4
f 4 8 10
f 4 10 11
f 4 11 9
f 5 12 6
f 6 13 28
f 6 28 27
f 6 27 39
f 6 39 30
f 6 30 14
f 6 14 7
f 6 12 13
f 9 11 15
f 9 15 16
f 10 17 11
f 11 17 18
f 11 18 19
f 11 19 20
f 11 20 21
f 11 21 22
f 11 22 23
f 11 23 15
f 12 24 25
f 12 25 26
f 12 26 27
f 12 27 28
f 12 28 13
f 14 30 29
f 15 23 31
f 15 31 16
f 16 31 32
f 20 33 34
f 20 34 21
f 21 34 22
f 22 34 35
f 22 35 36
f 22 36 23
f 23 36 26
f 23 26 24
f 23 24 32
f 23 32 31
f 24 26 25
f 26 36 37
f 26 37 38
f 26 38 27
f 27 38 37
f 27 37 39
f 29 30 40
f 30 39 35
f 30 35 41
f 30 41 42
f 30 42 40
f 33 43 34
f 34 43 42
f 34 42 41
f 34 41 35
f 35 39 36
f 36 39 37

