# https://github.com/mikedh/trimesh
v -0.04612815 0.32526848 0.40729332
v -0.04612815 0.10563374 0.40729332
v -0.04612815 0.32572088 0.39867866
v -0.05104972 0.32524693 0.39867866
v -0.06810773 0.32177845 0.40729332
v -0.30936778 0.10563374 0.40729332
v -0.04612815 0.10563374 -0.45799243
v -0.04612815 0.32283407 0.34503680
v -0.05852226 0.32283407 0.37345630
v -0.08511421 0.31841767 0.39654720
v -0.04612815 0.31033891 0.11625962
v -0.04646313 0.31031737 0.11652605
v -0.04612815 0.28103992 -0.41580719
v -0.07207591 0.32087362 0.40729332
v -0.29295397 0.14566132 0.40729332
v -0.29620063 0.14036167 0.40045488
v -0.30807942 0.11002858 0.38695556
v -0.30900705 0.10563374 0.38588983
v -0.23992467 0.10563374 -0.49786854
v -0.04612815 0.25604960 -0.49742448
v -0.08511421 0.31512153 0.33739907
v -0.09274136 0.31481993 0.37079197
v -0.11330373 0.31064051 0.40729332
v -0.04612815 0.27914411 -0.44253927
v -0.06643285 0.27470616 -0.44777912
v -0.28896001 0.15406325 0.40729332
v -0.27937454 0.17362463 0.39938915
v -0.29504111 0.14165425 0.38580102
v -0.29687059 0.13206746 0.34219486
v -0.29032567 0.11694401 0.08597505
v -0.28236356 0.10662473 -0.15576853
v -0.28272429 0.10563374 -0.15567972
v -0.29385582 0.10563374 0.07238697
v -0.24366094 0.10563374 -0.49635875
v -0.22781400 0.12831891 -0.49849021
v -0.14002451 0.21865030 -0.50000000
v -0.07176670 0.25307661 -0.49804616
v -0.04612815 0.26432225 -0.49422729
v -0.10467166 0.30116144 0.19876505
v -0.12108548 0.30807686 0.40729332
v -0.04612815 0.27688205 -0.45781481
v -0.04612815 0.27563253 -0.46314347
v -0.05661548 0.27339202 -0.46269941
v -0.06243891 0.26975119 -0.47166932
v -0.08707253 0.26335281 -0.46243298
v -0.10967053 0.25512323 -0.45896935
v -0.11688539 0.25561872 -0.43578964
v -0.10052311 0.26277113 -0.43170434
v -0.08619644 0.27037594 -0.41092259
v -0.09016462 0.27630037 -0.29182702
v -0.25636426 0.20794323 0.40729332
v -0.27947760 0.16953139 0.36253256
v -0.28993917 0.15012081 0.36874932
v -0.26110548 0.20148022 0.39619195
v -0.25644156 0.15813494 -0.13090144
v -0.26249689 0.14262372 -0.18125729
v -0.27501985 0.12918064 -0.09573228
v -0.29055759 0.14178352 0.30427253
v -0.28445071 0.13260604 0.10871068
v -0.27581865 0.12088645 -0.15017343
v -0.26860377 0.10563374 -0.39422607
v -0.24814448 0.10563374 -0.49360561
v -0.23977007 0.12133886 -0.49484897
v -0.21310082 0.15996614 -0.49644756
v -0.18346833 0.19085933 -0.49760211
v -0.16151451 0.20641366 -0.49893427
v -0.14693017 0.22149402 -0.49635875
v -0.12708928 0.23241651 -0.49706924
v -0.10366672 0.24187405 -0.49857903
v -0.05844496 0.26199555 -0.49369442
v -0.04612815 0.27337047 -0.47087002
v -0.10874290 0.28577945 -0.03018975
v -0.12121432 0.29271641 0.15560289
v -0.14904310 0.29478461 0.39628077
v -0.15924698 0.29038975 0.40729332
v -0.12502789 0.30105370 0.31972563
v -0.10333175 0.24863867 -0.48738885
v -0.09439047 0.25665280 -0.47522175
v -0.12546593 0.24810009 -0.46047914
v -0.13420108 0.24708755 -0.44014138
v -0.11858605 0.25732064 -0.41296524
v -0.10949016 0.26227564 -0.39484775
v -0.09895130 0.26912642 -0.35701430
v -0.24116150 0.22601813 0.40729332
v -0.23786327 0.22927117 0.39716887
v -0.28378075 0.14820345 0.23926286
v -0.25677654 0.20232041 0.34246129
v -0.24811870 0.17894584 -0.03498555
v -0.24948436 0.16274522 -0.18489854
v -0.24786103 0.14268833 -0.41323167
v -0.25832260 0.12373017 -0.41136664
v -0.26368219 0.11827970 -0.37220097
v -0.26850069 0.10563374 -0.39582467
v -0.26187849 0.10563374 -0.46110082
v -0.26118276 0.10716332 -0.46110082
v -0.23863630 0.13525587 -0.47761965
v -0.22778824 0.14171889 -0.49413848
v -0.25453478 0.12110188 -0.45950222
v -0.19764039 0.17804103 -0.49511540
v -0.21998072 0.16244362 -0.47664273
v -0.20060363 0.18739085 -0.47362316
v -0.17465588 0.19977829 -0.49671400
v -0.17280063 0.21485865 -0.46989310
v -0.15571685 0.22539337 -0.47468889
v -0.13824657 0.24043065 -0.46269941
v -0.08825783 0.25094381 -0.49396086
v -0.12665123 0.28756756 0.11288479
v -0.14242087 0.28593028 0.20036365
v -0.13332498 0.29226401 0.23668735
v -0.11729768 0.26231873 -0.34538007
v -0.15543340 0.29023892 0.37025911
v -0.17104845 0.28448686 0.40729332
v -0.15661871 0.23213644 -0.45683789
v -0.15107872 0.24045219 -0.40248555
v -0.13721587 0.25215024 -0.34760034
v -0.13894227 0.25486472 -0.29413611
v -0.23263250 0.23528178 0.40729332
v -0.23757984 0.22198951 0.30445015
v -0.21990341 0.24002132 0.30640399
v -0.22026415 0.23674673 0.26972502
v -0.22791708 0.19956286 -0.09706444
v -0.23855901 0.17388315 -0.22468588
v -0.24134187 0.16011694 -0.32726258
v -0.23010729 0.16737705 -0.40932399
v -0.22410350 0.17243975 -0.43845397
v -0.24214067 0.14749251 -0.43907565
v -0.25206110 0.13228288 -0.43250364
v -0.26592398 0.10563374 -0.43214840
v -0.24175414 0.14286068 -0.45888054
v -0.26440370 0.10796042 -0.43472391
v -0.22593299 0.16515809 -0.45763719
v -0.19532132 0.20072620 -0.45719314
v -0.18089159 0.21382457 -0.45515049
v -0.15352662 0.28519779 0.27478725
v -0.17086807 0.26824313 0.17372034
v -0.18723036 0.26186630 0.23624329
v -0.18666348 0.27324122 0.39610314
v -0.20774120 0.25764382 0.40729332
v -0.15721136 0.27052674 0.08641911
v -0.17468165 0.22192489 -0.42451066
v -0.16434893 0.23075767 -0.41038972
v -0.16367897 0.23373066 -0.37752962
v -0.16625571 0.23784544 -0.29946476
v -0.17290370 0.25798851 0.04663178
v -0.21616714 0.25066376 0.40729332
v -0.21145171 0.25458464 0.40303040
v -0.20835963 0.25404605 0.35729271
v -0.20235582 0.23971972 0.09858622
v -0.20415954 0.22472553 -0.07299666
v -0.20441721 0.20593970 -0.30683607
v -0.21536835 0.22530720 0.06750236
v -0.21106520 0.18999760 -0.40443939
v -0.20171164 0.19686994 -0.43516797
v -0.20003675 0.19984293 -0.42113584
v -0.18844143 0.21287666 -0.39538062
v -0.18532358 0.24079688 -0.06606940
v -0.19823304 0.25919494 0.31537390
v -0.17566080 0.22696604 -0.34999824
v -0.21054985 0.25551102 0.40729332
v -0.18102042 0.22608276 -0.30639201
f 1 2 7
f 1 7 20
f 1 20 38
f 1 38 71
f 1 71 42
f 1 42 41
f 1 41 24
f 1 24 13
f 1 13 11
f 1 11 8
f 1 8 3
f 1 3 4
f 1 4 5
f 1 5 14
f 1 14 23
f 1 23 40
f 1 40 75
f 1 75 112
f 1 112 138
f 1 138 159
f 1 159 145
f 1 145 117
f 1 117 84
f 1 84 51
f 1 51 26
f 1 26 15
f 1 15 6
f 1 6 2
f 2 6 18
f 2 18 33
f 2 33 32
f 2 32 61
f 2 61 93
f 2 93 128
f 2 128 94
f 2 94 62
f 2 62 34
f 2 34 19
f 2 19 7
f 3 8 4
f 4 9 10
f 4 10 5
f 4 8 11
f 4 11 12
f 4 12 13
f 4 13 9
f 5 10 14
f 6 15 16
f 6 16 17
f 6 17 18
f 7 19 20
f 9 21 10
f 9 13 21
f 10 21 22
f 10 22 23
f 10 23 14
f 11 13 12
f 13 24 25
f 13 25 21
f 15 26 16
f 16 27 28
f 16 28 17
f 16 26 27
f 17 28 29
f 17 29 30
f 17 30 31
f 17 31 32
f 17 32 33
f 17 33 18
f 19 34 35
f 19 35 36
f 19 36 20
f 20 36 37
f 20 37 38
f 21 25 22
f 22 39 23
f 22 25 39
f 23 39 40
f 24 41 25
f 25 41 42
f 25 42 43
f 25 43 44
f 25 44 45
f 25 45 46
f 25 46 47
f 25 47 48
f 25 48 49
f 25 49 50
f 25 50 39
f 26 51 27
f 27 52 53
f 27 53 28
f 27 51 54
f 27 54 55
f 27 55 56
f 27 56 57
f 27 57 52
f 28 53 58
f 28 58 59
f 28 59 31
f 28 31 30
f 28 30 29
f 31 59 57
f 31 57 60
f 31 60 61
f 31 61 32
f 34 62 63
f 34 63 35
f 35 63 64
f 35 64 65
f 35 65 66
f 35 66 36
f 36 66 67
f 36 67 68
f 36 68 69
f 36 69 37
f 37 69 70
f 37 70 38
f 38 70 44
f 38 44 71
f 39 72 73
f 39 73 40
f 39 50 72
f 40 74 75
f 40 73 76
f 40 76 74
f 42 71 44
f 42 44 43
f 44 70 77
f 44 77 78
f 44 78 45
f 45 78 46
f 46 79 47
f 46 78 79
f 47 79 80
f 47 80 81
f 47 81 48
f 48 81 49
f 49 81 82
f 49 82 83
f 49 83 72
f 49 72 50
f 51 84 85
f 51 85 54
f 52 86 53
f 52 57 86
f 53 86 57
f 53 57 58
f 54 85 87
f 54 87 88
f 54 88 55
f 55 88 89
f 55 89 90
f 55 90 56
f 56 90 91
f 56 91 92
f 56 92 57
f 57 92 61
f 57 61 60
f 57 59 58
f 61 92 93
f 62 94 95
f 62 95 63
f 63 96 97
f 63 97 64
f 63 95 98
f 63 98 96
f 64 99 65
f 64 97 100
f 64 100 101
f 64 101 99
f 65 102 66
f 65 99 101
f 65 101 102
f 66 102 67
f 67 102 103
f 67 103 104
f 67 104 105
f 67 105 68
f 68 77 69
f 68 105 79
f 68 79 77
f 69 77 106
f 69 106 70
f 70 106 77
f 72 83 73
f 73 107 108
f 73 108 109
f 73 109 76
f 73 83 110
f 73 110 107
f 74 111 75
f 74 76 109
f 74 109 108
f 74 108 111
f 75 111 112
f 77 79 78
f 79 113 80
f 79 105 113
f 80 113 114
f 80 114 115
f 80 115 81
f 81 115 116
f 81 116 108
f 81 108 110
f 81 110 82
f 82 110 83
f 84 117 85
f 85 118 87
f 85 117 119
f 85 119 120
f 85 120 121
f 85 121 118
f 87 118 121
f 87 121 88
f 88 121 122
f 88 122 89
f 89 122 123
f 89 123 90
f 90 123 124
f 90 124 125
f 90 125 126
f 90 126 127
f 90 127 91
f 91 127 128
f 91 128 93
f 91 93 92
f 94 128 95
f 95 128 98
f 96 98 129
f 96 129 97
f 97 129 100
f 98 126 129
f 98 128 130
f 98 130 127
f 98 127 126
f 100 129 131
f 100 131 101
f 101 131 132
f 101 132 102
f 102 132 103
f 103 132 133
f 103 133 113
f 103 113 104
f 104 113 105
f 107 110 108
f 108 134 111
f 108 116 134
f 111 134 112
f 112 135 136
f 112 136 137
f 112 137 138
f 112 134 139
f 112 139 114
f 112 114 135
f 113 133 140
f 113 140 141
f 113 141 114
f 114 116 115
f 114 141 142
f 114 142 143
f 114 143 144
f 114 144 135
f 114 139 116
f 116 139 134
f 117 145 119
f 119 145 146
f 119 146 147
f 119 147 148
f 119 148 149
f 119 149 150
f 119 150 151
f 119 151 120
f 120 151 121
f 121 151 150
f 121 150 152
f 121 152 125
f 121 125 122
f 122 125 124
f 122 124 123
f 125 152 153
f 125 153 132
f 125 132 131
f 125 131 126
f 126 131 129
f 127 130 128
f 132 153 154
f 132 154 155
f 132 155 133
f 133 155 140
f 135 144 136
f 136 156 157
f 136 157 137
f 136 144 143
f 136 143 158
f 136 158 156
f 137 146 159
f 137 159 138
f 137 157 146
f 140 155 160
f 140 160 158
f 140 158 141
f 141 158 143
f 141 143 142
f 145 159 146
f 146 157 147
f 147 157 148
f 148 157 156
f 148 156 160
f 148 160 155
f 148 155 149
f 149 155 150
f 150 155 154
f 150 154 153
f 150 153 152
f 156 158 160

