# https://github.com/mikedh/trimesh
v -0.31313208 -0.07743296 0.47712535
v -0.31414071 -0.07535698 0.47695780
v -0.31353477 -0.07743296 0.47683102
v -0.30716076 -0.07743296 0.47471657
v -0.30090183 0.13464868 0.46650326
v -0.30448383 0.12761113 0.46755370
v -0.32377073 0.00724608 0.47123474
v -0.32449558 -0.04050135 0.47292814
v -0.31822512 -0.06973109 0.46909767
v -0.31599307 -0.07743296 0.46824646
v -0.29871580 -0.07743296 0.44395062
v -0.29326990 0.13464868 0.43798763
v -0.30846086 0.13464868 0.46418506
v -0.30927008 0.13340309 0.46409452
v -0.31824431 0.10604174 0.46486875
v -0.32675445 0.07363577 0.46592373
v -0.32173428 0.05850191 0.46844113
v -0.33040935 0.03462819 0.46739978
v -0.33100763 0.01031852 0.46799290
v -0.32877174 -0.01496686 0.46964553
v -0.32666242 -0.03730435 0.46098849
v -0.32041499 -0.06393911 0.46072587
v -0.31623468 -0.07743296 0.46396321
v -0.29899576 -0.07743296 0.43087453
v -0.29182789 0.13464868 0.43087453
v -0.29323921 0.13464868 0.43784726
v -0.30869865 0.13464868 0.46402660
v -0.31003711 0.12759037 0.44336203
v -0.30869481 0.13464868 0.46354666
v -0.30719912 0.13464868 0.44530895
v -0.31735072 0.10288626 0.44273266
v -0.32330284 0.08565567 0.45695880
v -0.32336420 0.07583630 0.44391441
v -0.32849178 0.05119447 0.44860515
v -0.32920513 -0.00601941 0.44902623
v -0.32842660 0.03359021 0.44598359
v -0.32501715 -0.03024604 0.44910774
v -0.32011583 -0.05688080 0.44989556
v -0.31417522 -0.07743296 0.45188776
v -0.31486937 -0.07743296 0.45489869
v -0.30698434 -0.07743296 0.43087453
v -0.29963621 0.13464868 0.43087453
v -0.30936211 0.10859519 0.43087453
v -0.30996040 0.10685137 0.43087453
v -0.30671588 0.13464868 0.44274172
v -0.30015782 0.13350689 0.43087453
v -0.31610045 0.08187740 0.43087453
v -0.31918392 0.06331817 0.43087453
v -0.32100943 0.04922230 0.43087453
v -0.32235557 0.03878014 0.43087453
v -0.32300371 0.02950053 0.43087453
v -0.32854164 0.01135651 0.44611943
v -0.32343325 -0.00037275 0.43087453
v -0.32284263 -0.00838602 0.43087453
v -0.31817144 -0.03834234 0.43087453
v -0.31585118 -0.05115111 0.43087453
v -0.31226149 -0.06686623 0.43087453
v -0.30897093 -0.07502483 0.43087453
f 1 2 3
f 1 3 10
f 1 10 23
f 1 23 40
f 1 40 39
f 1 39 41
f 1 41 24
f 1 24 11
f 1 11 4
f 1 4 5
f 1 5 6
f 1 6 2
f 2 7 8
f 2 8 9
f 2 9 3
f 2 6 7
f 3 9 10
f 4 11 5
f 5 12 26
f 5 26 25
f 5 25 42
f 5 42 45
f 5 45 30
f 5 30 29
f 5 29 27
f 5 27 13
f 5 13 6
f 5 11 12
f 6 13 14
f 6 14 15
f 6 15 16
f 6 16 17
f 6 17 7
f 7 17 16
f 7 16 18
f 7 18 8
f 8 18 19
f 8 19 20
f 8 20 21
f 8 21 9
f 9 22 10
f 9 21 22
f 10 22 23
f 11 24 25
f 11 25 26
f 11 26 12
f 13 27 14
f 14 28 15
f 14 27 29
f 14 29 30
f 14 30 28
f 15 28 31
f 15 31 32
f 15 32 16
f 16 33 34
f 16 34 18
f 16 32 33
f 18 34 19
f 19 35 21
f 19 21 20
f 19 34 36
f 19 36 35
f 21 37 38
f 21 38 22
f 21 35 37
f 22 39 40
f 22 40 23
f 22 38 39
f 24 41 58
f 24 58 57
f 24 57 56
f 24 56 55
f 24 55 54
f 24 54 53
f 24 53 51
f 24 51 50
f 24 50 49
f 24 49 48
f 24 48 47
f 24 47 44
f 24 44 43
f 24 43 46
f 24 46 42
f 24 42 25
f 28 43 44
f 28 44 31
f 28 30 45
f 28 45 46
f 28 46 43
f 31 44 47
f 31 47 33
f 31 33 32
f 33 47 48
f 33 48 49
f 33 49 50
f 33 50 34
f 34 50 51
f 34 51 36
f 35 36 52
f 35 52 53
f 35 53 54
f 35 54 55
f 35 55 37
f 36 51 53
f 36 53 52
f 37 55 56
f 37 56 38
f 38 56 57
f 38 57 39
f 39 57 58
f 39 58 41
f 42 46 45

