# https://github.com/mikedh/trimesh
v -0.00863192 0.33839458 0.46263117
v 0.01612747 0.33649814 0.46447048
v 0.01952581 0.33549225 0.44441566
v -0.02308204 0.33746558 0.44903931
v -0.03384823 0.33732462 0.46147686
v -0.05963568 0.33428776 0.46211109
v -0.02882210 0.33041802 0.46521890
v 0.02917826 0.32780403 0.46728021
v 0.04654124 0.32550395 0.46816179
v 0.05445168 0.32445323 0.46856138
v 0.04654124 0.33328828 0.46525696
v 0.05522273 0.33235931 0.46547261
v 0.04534183 0.32491452 0.40729329
v 0.02372377 0.32699674 0.40729329
v -0.00523357 0.32782966 0.40729329
v -0.03630418 0.32696471 0.40729329
v -0.04095906 0.33431339 0.43996325
v -0.05558052 0.33437106 0.45021901
v -0.08585151 0.32889959 0.46041766
v -0.11138195 0.32169187 0.46114069
v -0.08916418 0.32124978 0.46380454
v -0.12628898 0.30840403 0.46351913
v -0.14182428 0.30300945 0.46337324
v -0.14770713 0.29983804 0.46333519
v 0.14403668 0.28814551 0.47208777
v 0.08832093 0.31430474 0.46974108
v 0.10477006 0.31562456 0.46884677
v 0.05562254 0.32883552 0.44380045
v 0.09474637 0.31976339 0.45450017
v 0.07407071 0.32588837 0.45391029
v 0.04654124 0.32460058 0.40729329
v -0.06806016 0.32177517 0.40729329
v -0.06454758 0.32490811 0.41520232
v -0.07611339 0.32789370 0.43998861
v -0.09793135 0.32527331 0.45151919
v -0.13902564 0.31053752 0.45164606
v -0.12914473 0.31491980 0.46050647
v -0.14770713 0.30649477 0.46070307
v -0.14770713 0.30298382 0.46226332
v -0.10912590 0.32012859 0.44021061
v -0.14770713 0.29041356 0.44756150
v 0.14403668 0.27674130 0.45750648
v 0.14403668 0.29749954 0.47040069
v 0.13581210 0.30246487 0.47015333
v 0.13458413 0.29424486 0.47156769
v 0.12484601 0.30621928 0.44907737
v 0.11793509 0.30316961 0.40729329
v 0.09571733 0.31078097 0.40729329
v 0.06935871 0.31855249 0.40729329
v -0.07205822 0.32087180 0.40729329
v -0.08596574 0.31937900 0.41295710
v -0.14770713 0.30654603 0.45644727
v -0.12103439 0.30807728 0.40729329
v -0.14770713 0.30523261 0.44646427
v -0.14770713 0.30618083 0.45240715
v -0.11326674 0.31065282 0.40729329
v -0.14770713 0.27294844 0.41311565
v -0.12788820 0.27294844 0.41885558
v 0.13715431 0.27433231 0.45179194
v 0.14403668 0.27334565 0.44687018
v 0.14403668 0.29754439 0.46346202
v 0.14403668 0.29034948 0.40729329
v 0.12184747 0.30136928 0.40729329
v -0.14770713 0.29409748 0.40729329
v -0.14770713 0.29685885 0.41324884
v -0.14770713 0.30347714 0.43948123
v -0.14770713 0.27294844 0.40729329
v 0.14403668 0.27294844 0.42803946
v 0.14403668 0.27294844 0.40729329
f 1 2 3
f 1 3 4
f 1 4 5
f 1 5 6
f 1 6 7
f 1 7 2
f 2 7 8
f 2 8 9
f 2 9 10
f 2 10 11
f 2 11 3
f 3 11 12
f 3 12 13
f 3 13 14
f 3 14 15
f 3 15 4
f 4 15 16
f 4 16 17
f 4 17 18
f 4 18 5
f 5 18 6
f 6 19 20
f 6 20 21
f 6 21 7
f 6 18 19
f 7 21 22
f 7 22 10
f 7 10 9
f 7 9 8
f 10 12 11
f 10 22 23
f 10 23 24
f 10 24 25
f 10 25 26
f 10 26 27
f 10 27 12
f 12 28 13
f 12 27 29
f 12 29 30
f 12 30 28
f 13 28 30
f 13 30 31
f 13 31 49
f 13 49 48
f 13 48 47
f 13 47 63
f 13 63 62
f 13 62 69
f 13 69 67
f 13 67 64
f 13 64 53
f 13 53 56
f 13 56 50
f 13 50 32
f 13 32 16
f 13 16 15
f 13 15 14
f 16 32 33
f 16 33 17
f 17 33 18
f 18 33 34
f 18 34 35
f 18 35 19
f 19 35 20
f 20 36 37
f 20 37 38
f 20 38 39
f 20 39 23
f 20 23 22
f 20 22 21
f 20 35 40
f 20 40 36
f 23 39 24
f 24 39 38
f 24 38 52
f 24 52 55
f 24 55 54
f 24 54 66
f 24 66 65
f 24 65 64
f 24 64 67
f 24 67 57
f 24 57 41
f 24 41 42
f 24 42 25
f 25 42 60
f 25 60 68
f 25 68 69
f 25 69 62
f 25 62 61
f 25 61 43
f 25 43 44
f 25 44 45
f 25 45 26
f 26 45 44
f 26 44 27
f 27 44 29
f 29 44 46
f 29 46 47
f 29 47 48
f 29 48 30
f 30 48 49
f 30 49 31
f 32 50 33
f 33 50 51
f 33 51 34
f 34 51 40
f 34 40 35
f 36 52 37
f 36 40 53
f 36 53 54
f 36 54 55
f 36 55 52
f 37 52 38
f 40 51 56
f 40 56 53
f 41 57 58
f 41 58 42
f 42 59 60
f 42 58 59
f 43 61 44
f 44 61 46
f 46 61 62
f 46 62 63
f 46 63 47
f 50 56 51
f 53 64 65
f 53 65 66
f 53 66 54
f 57 67 69
f 57 69 68
f 57 68 58
f 58 68 60
f 58 60 59

