# https://github.com/mikedh/trimesh
v 0.13273236 -0.20935446 0.40720472
v 0.13268778 0.10563372 0.40729332
v 0.13273236 -0.26394606 0.40720472
v 0.13273236 -0.20935446 -0.43926793
v -0.30928254 0.10563372 0.40729332
v 0.13268778 -0.20935446 0.40729332
v 0.13268778 0.10563372 -0.45530599
v 0.12800542 -0.26616275 0.40720472
v 0.11966635 -0.27311707 0.36990073
v 0.13273236 -0.26646698 0.37140706
v 0.13273236 -0.21974251 -0.44476163
v -0.30963930 0.10489483 0.40729332
v -0.30892581 0.10563372 0.38576156
v -0.22816622 -0.20935446 0.40729332
v -0.01041411 -0.29850042 0.40720472
v 0.00291947 -0.29793537 0.40720472
v 0.02512724 -0.29654449 0.40720472
v 0.04193915 -0.29424089 0.40720472
v 0.04532828 -0.29358894 0.40720472
v 0.05286466 -0.29185033 0.40720472
v 0.06682255 -0.28837317 0.40720472
v 0.08394662 -0.28376591 0.40720472
v 0.10258687 -0.27702889 0.40720472
v 0.10981109 -0.27416021 0.40720472
v 0.11672316 -0.27116117 0.40720472
v 0.13273236 -0.29897854 -0.46452123
v -0.23989442 0.10563372 -0.49792647
v 0.13273236 -0.28272277 0.13189952
v 0.09241947 -0.28415710 0.36591336
v 0.13273236 -0.31658173 -0.37830561
v -0.31574866 0.07785983 0.40729332
v -0.31882566 0.06342956 0.39949581
v -0.29376388 0.10563372 0.07226630
v -0.28707477 0.09924443 -0.12346888
v -0.29175714 0.08229321 -0.15244371
v -0.30379751 0.08320598 0.12357035
v -0.31097713 0.08729166 0.32160935
v -0.23525664 -0.20209587 0.40729332
v -0.22821081 -0.20935446 0.40720472
v -0.22807702 -0.20948485 0.40720472
v -0.20698410 -0.22782692 0.40720472
v -0.20622601 -0.22847891 0.40720472
v -0.18419662 -0.24469121 0.40720472
v -0.18018316 -0.24734254 0.40720472
v -0.16680498 -0.25599200 0.40720472
v -0.14027160 -0.26942259 0.40720472
v -0.13969187 -0.26968336 0.40720472
v -0.12189890 -0.27724621 0.40720472
v -0.11650304 -0.27920210 0.40720472
v -0.09875466 -0.28502637 0.40720472
v -0.08087250 -0.29015523 0.40720472
v -0.07730499 -0.29111141 0.40720472
v -0.05380399 -0.29567522 0.40720472
v -0.05148511 -0.29597947 0.40720472
v -0.02620035 -0.29841349 0.40720472
v -0.00635606 -0.30223837 0.34606516
v 0.02673262 -0.29723996 0.39497679
v 0.04095808 -0.29610986 0.37760961
v 0.04711204 -0.30827996 0.14935529
v 0.04274184 -0.29428434 0.40401483
v 0.05933078 -0.29193726 0.39010337
v 0.08684523 -0.28463519 0.38762233
v 0.13273236 -0.30515051 -0.46283770
v 0.13019052 -0.30058670 -0.46469846
v -0.24680647 0.09263781 -0.49757203
v -0.24359572 0.10563372 -0.49633151
v 0.10949894 -0.30954045 -0.46540731
v 0.11636639 -0.32079777 -0.34986243
v 0.11489480 -0.32370991 -0.38964745
v 0.13273236 -0.31723368 -0.38982466
v -0.31949455 0.06016973 0.40729332
v -0.31293926 0.04986860 0.14067172
v -0.28265998 0.10563372 -0.15563360
v -0.27168989 0.09672348 -0.42225519
v -0.27784383 0.08242361 -0.41312858
v -0.28002894 0.07955495 -0.39310315
v -0.28587073 0.05903964 -0.41720453
v -0.29331794 0.03143960 -0.41764757
v -0.30736500 0.07733825 0.17336808
v -0.24127683 -0.19518499 0.40729332
v -0.24529028 -0.19122970 0.37229314
v -0.24051872 -0.19914028 0.23920387
v -0.23012835 -0.20826784 0.37406531
v -0.22901350 -0.20935446 0.37450835
v -0.21162188 -0.22508866 0.38026786
v -0.19494376 -0.23878002 0.36210322
v -0.15806457 -0.28533065 -0.40471080
v -0.16163209 -0.26959646 0.05915231
v -0.14892282 -0.27585536 0.10584874
v -0.14544450 -0.27250856 0.25107732
v -0.13536626 -0.27915865 0.20571002
v -0.12898934 -0.27724621 0.33188787
v -0.12082865 -0.27785474 0.40348318
v -0.09598984 -0.28959018 0.32949546
v -0.07601176 -0.29163301 0.40357178
v -0.05300130 -0.29597947 0.40525535
v -0.03110569 -0.29850042 0.39976165
v -0.02816249 -0.31640786 0.04382312
v 0.00666536 -0.33292443 -0.28624186
v 0.00764643 -0.32827371 -0.19081099
v 0.02196108 -0.31188753 0.13189952
v 0.01424633 -0.30158639 0.33312839
v 0.06789281 -0.31184405 0.01617740
v 0.05041199 -0.29541445 0.36103991
v 0.05117009 -0.33679277 -0.40098926
v 0.06949819 -0.33396757 -0.39292595
v 0.07435893 -0.33127275 -0.35721689
v 0.09455997 -0.33079463 -0.41117918
v 0.07159411 -0.28985095 0.37149566
v 0.07502783 -0.30245569 0.14651984
v 0.07886291 -0.29702264 0.22015312
v 0.13197428 -0.30545476 -0.46283770
v 0.13273236 -0.31184405 -0.44254646
v -0.26865751 0.02452873 -0.49491379
v -0.25777659 0.08411874 -0.49455938
v -0.10151949 -0.29602295 -0.47364786
v -0.14566746 -0.27185661 -0.47639471
v -0.24805510 0.10563372 -0.49358466
v 0.06481583 -0.31879842 -0.46647063
v 0.00135869 -0.32162362 -0.46859720
v 0.09215190 -0.32010233 -0.46159717
v 0.11181781 -0.32618737 -0.41747037
v 0.13273236 -0.31758139 -0.39655888
v -0.32109994 0.04547867 0.40729332
v -0.32007429 0.04178418 0.35209051
v -0.32118914 0.04469632 0.40685028
v -0.32047564 0.02591959 0.32719165
v -0.32270533 0.02930984 0.40729332
v -0.29612735 0.00649090 -0.42101470
v -0.29791111 -0.01376361 -0.42198938
v -0.26856831 0.10563372 -0.39425507
v -0.26584807 0.10563372 -0.43209070
v -0.26183462 0.10563372 -0.46106553
v -0.27556956 0.08433606 -0.43864769
v -0.28524643 0.05647522 -0.43722996
v -0.29264903 0.01753092 -0.45025533
v -0.25273746 -0.18192828 0.40729332
v -0.24854565 -0.18966499 0.19888720
v -0.24497813 -0.19422877 0.18488713
v -0.22856757 -0.21648267 -0.03822793
v -0.23115399 -0.20935446 0.24141905
v -0.23039591 -0.21018028 0.24159628
v -0.21090837 -0.23799765 -0.26134300
v -0.19021678 -0.26086003 -0.40807793
v -0.18236826 -0.26646698 -0.37290052
v -0.17068465 -0.27446449 -0.32381165
v -0.17666024 -0.27198699 -0.42996410
v -0.15034983 -0.29072025 -0.42455900
v -0.11904490 -0.30341190 -0.29102668
v -0.13059472 -0.30210799 -0.42376155
v -0.12287997 -0.28802544 0.11320321
v -0.10687076 -0.29089409 0.20748219
v -0.07850903 -0.31818992 -0.26834303
v -0.07016996 -0.32340565 -0.34100163
v -0.07904415 -0.29941317 0.20021632
v -0.08069412 -0.29580563 0.27792558
v -0.06588894 -0.29515365 0.37052098
v -0.06660245 -0.30910578 0.04169653
v -0.05300130 -0.30836689 0.13314003
v -0.03810693 -0.29958704 0.36626780
v -0.03217594 -0.32836062 -0.26187465
v -0.02191934 -0.33540189 -0.40240699
v -0.02084909 -0.33414143 -0.36820430
v -0.01210868 -0.33431527 -0.35172319
v 0.00100193 -0.33840096 -0.42021722
v -0.04207579 -0.33162045 -0.37919170
v 0.02262998 -0.32901257 -0.21597567
v 0.02383402 -0.33822709 -0.41179946
v 0.01888409 -0.33561921 -0.35216624
v 0.03850541 -0.33666235 -0.38743225
v 0.04363372 -0.33296788 -0.31557113
v 0.06454826 -0.33557576 -0.42110330
v 0.08403581 -0.33248976 -0.42021722
v 0.11877447 -0.31623399 -0.44564772
v 0.13273236 -0.31862456 -0.41826785
v 0.13179588 -0.31232217 -0.44219202
v -0.27284932 -0.01376361 -0.49296442
v -0.28074244 -0.01832740 -0.48871124
v -0.27387497 0.03617725 -0.49190113
v -0.24029577 -0.16762841 -0.48436943
v -0.27391958 -0.05305564 -0.49092644
v -0.26870209 0.05486704 -0.49225557
v -0.27534658 0.06712407 -0.46460986
v -0.26210219 0.08320598 -0.48428082
v -0.26709670 0.09433292 -0.46097693
v -0.25157803 0.09902710 -0.49305302
v -0.05259996 -0.31406075 -0.47090101
v -0.07703742 -0.31119210 -0.47098961
v -0.13023797 -0.28885126 -0.47098961
v -0.12675965 -0.28233159 -0.47515419
v -0.15748486 -0.27233469 -0.47160989
v -0.18865600 -0.24625593 -0.47435674
v -0.16604689 -0.25594854 -0.47754663
v -0.18540065 -0.23643292 -0.47905296
v 0.03533924 -0.32118896 -0.46700227
v 0.02936366 -0.32836062 -0.46398959
v -0.01451675 -0.32623085 -0.46638200
v 0.05812674 -0.32770866 -0.45973641
v 0.09616535 -0.32166708 -0.45185030
v 0.07391299 -0.33222896 -0.42987549
v -0.32234856 0.01405375 0.37831849
v -0.29938272 -0.04349343 -0.42305267
v -0.32283911 -0.00115887 0.40729332
v -0.29750976 -0.03406160 -0.44405279
v -0.27485606 0.07720786 -0.45495158
v -0.28377482 0.05065097 -0.45282498
v -0.28863558 0.03356937 -0.45096421
v -0.28399780 0.03574260 -0.46328074
v -0.27806681 0.01722667 -0.48950872
v -0.26375216 -0.16645487 0.40729332
v -0.26776561 -0.16380352 0.36139435
v -0.25108749 -0.18766561 0.02902557
v -0.22963780 -0.21769968 -0.35384980
v -0.23436478 -0.20935446 -0.04815203
v -0.21915823 -0.22969592 -0.28703934
v -0.21139890 -0.23904079 -0.38344488
v -0.20346119 -0.24738601 -0.41578680
v -0.21237996 -0.23808458 -0.43271095
v -0.19440863 -0.25520962 -0.43563503
v -0.15993752 -0.27928907 -0.44307810
v -0.11137474 -0.31023586 -0.39168543
v -0.12024893 -0.30236876 -0.44183758
v -0.11222202 -0.31010547 -0.42686281
v -0.10285731 -0.31332186 -0.37263471
v -0.10254514 -0.30893195 -0.24539354
v -0.09358177 -0.31484312 -0.31335592
v -0.08354814 -0.31997195 -0.36554605
v -0.05295671 -0.32818675 -0.35198903
v -0.06334709 -0.31319147 -0.03982288
v -0.07413882 -0.32444882 -0.40985006
v -0.06709298 -0.32557887 -0.38114107
v -0.03159622 -0.33466297 -0.42198938
v -0.01696941 -0.33587998 -0.42987549
v 0.00711130 -0.33648849 -0.43297678
v 0.02468131 -0.33787936 -0.42588812
v -0.04635681 -0.33188125 -0.42243242
v -0.04127310 -0.33248976 -0.40488803
v 0.04782555 -0.33305478 -0.43997681
v -0.27971679 -0.05222981 -0.48755932
v -0.21188943 -0.20935446 -0.48100233
v -0.22959322 -0.19770594 -0.47834408
v -0.25193477 -0.15115532 -0.48454666
v -0.26673996 -0.10977699 -0.48711628
v -0.20479900 -0.21913400 -0.48029348
v -0.27102098 -0.08187269 -0.48879984
v -0.04466224 -0.32271022 -0.46576175
v -0.06049308 -0.32644817 -0.43643248
v -0.09117369 -0.31632090 -0.43793884
v -0.10308027 -0.30284688 -0.46912885
v -0.21139890 -0.22230692 -0.47595167
v -0.20444225 -0.24130097 -0.44582495
v -0.21630424 -0.22830504 -0.44857180
v 0.03377847 -0.33279401 -0.44635659
v -0.00568715 -0.33092505 -0.45468575
v -0.28868017 -0.09539019 -0.43421727
v -0.29358548 -0.07909095 -0.37422964
v -0.31021902 -0.05188210 0.12020326
v -0.32043102 -0.02380395 0.40729332
v -0.32065400 -0.02210882 0.40729332
v -0.32270533 -0.00502723 0.40729332
v -0.27757627 -0.08209002 -0.48268589
v -0.28457752 -0.08278546 -0.46026805
v -0.29113284 -0.06513882 -0.44786292
v -0.28627208 -0.09239113 -0.44795153
v -0.27485606 -0.15011217 0.40729332
v -0.28832340 -0.12755403 0.34278667
v -0.27458850 -0.15154651 0.24398869
v -0.26651698 -0.16271691 -0.21101362
v -0.25880224 -0.17645173 -0.04062035
v -0.24707404 -0.19366372 -0.10291181
v -0.23561341 -0.20935446 -0.37369800
v -0.23918092 -0.20413870 -0.43244514
v -0.23539042 -0.20935446 -0.43279955
v -0.22437572 -0.22434977 -0.43395147
v -0.24368489 -0.19840136 -0.26816583
v -0.09763981 -0.31610358 -0.42571092
v -0.08617917 -0.31984156 -0.38672337
v -0.07641311 -0.32379684 -0.42517927
v -0.04207579 -0.33005574 -0.43909073
v -0.22098660 -0.20935446 -0.47719219
v -0.22736353 -0.21643919 -0.44476163
v -0.23204589 -0.20935446 -0.44609076
v -0.24346194 -0.19196860 -0.44954649
v -0.24332815 -0.17736450 -0.47719219
v -0.25371853 -0.15728383 -0.47967321
v -0.26308325 -0.12907529 -0.48419222
v -0.28181270 -0.11560125 -0.44343251
v -0.27548036 -0.13642080 -0.43855909
v -0.28261539 -0.11816566 -0.39877406
v -0.30433261 -0.08156844 0.18302636
v -0.31021902 -0.05696746 0.17274782
v -0.31334060 -0.05918416 0.36316651
v -0.31655136 -0.03997279 0.33906513
v -0.31632838 -0.04710099 0.40729332
v -0.27244797 -0.11677480 -0.46868581
v -0.28221405 -0.13698585 0.40729332
v -0.29211390 -0.11920881 0.38097674
v -0.29791111 -0.10560438 0.35793865
v -0.29590437 -0.10799494 0.19295046
v -0.28627208 -0.12920567 0.19826694
v -0.27374119 -0.14585263 -0.26479870
v -0.26709670 -0.15632761 -0.41428047
v -0.25684011 -0.17523472 -0.43687552
v -0.25197938 -0.18488386 -0.40497664
v -0.25246990 -0.18501426 -0.29944444
v -0.24252546 -0.19953145 -0.39700192
v -0.25692928 -0.16867156 -0.45300218
v -0.26665077 -0.14289704 -0.45938197
v -0.26812238 -0.15215501 -0.43909073
v -0.28497887 -0.11846992 -0.25700119
v -0.30335155 -0.09286924 0.37034377
v -0.30972850 -0.07387520 0.40729332
v -0.31548110 -0.05070855 0.40729332
v -0.28868017 -0.12433764 0.40729332
v -0.29697463 -0.10760376 0.40729332
v -0.30245969 -0.09521633 0.40729332
v -0.30598259 -0.08548026 0.40729332
f 1 2 6
f 1 6 3
f 1 3 10
f 1 10 28
f 1 28 30
f 1 30 70
f 1 70 123
f 1 123 175
f 1 175 113
f 1 113 63
f 1 63 26
f 1 26 11
f 1 11 4
f 1 4 7
f 1 7 2
f 2 5 12
f 2 12 31
f 2 31 71
f 2 71 124
f 2 124 128
f 2 128 203
f 2 203 260
f 2 260 259
f 2 259 258
f 2 258 294
f 2 294 313
f 2 313 312
f 2 312 317
f 2 317 316
f 2 316 315
f 2 315 314
f 2 314 296
f 2 296 265
f 2 265 210
f 2 210 137
f 2 137 80
f 2 80 38
f 2 38 14
f 2 14 6
f 2 7 27
f 2 27 66
f 2 66 118
f 2 118 133
f 2 133 132
f 2 132 131
f 2 131 73
f 2 73 33
f 2 33 13
f 2 13 5
f 3 8 9
f 3 9 10
f 3 6 8
f 4 11 7
f 5 13 12
f 6 14 15
f 6 15 16
f 6 16 17
f 6 17 18
f 6 18 19
f 6 19 20
f 6 20 21
f 6 21 22
f 6 22 23
f 6 23 24
f 6 24 25
f 6 25 8
f 7 11 26
f 7 26 27
f 8 25 9
f 9 28 10
f 9 25 24
f 9 24 23
f 9 23 29
f 9 29 30
f 9 30 28
f 12 13 32
f 12 32 31
f 13 33 34
f 13 34 35
f 13 35 36
f 13 36 37
f 13 37 32
f 14 38 39
f 14 39 40
f 14 40 41
f 14 41 42
f 14 42 43
f 14 43 44
f 14 44 45
f 14 45 46
f 14 46 47
f 14 47 48
f 14 48 49
f 14 49 50
f 14 50 51
f 14 51 52
f 14 52 53
f 14 53 54
f 14 54 55
f 14 55 15
f 15 55 56
f 15 56 16
f 16 56 57
f 16 57 17
f 17 57 18
f 18 57 58
f 18 58 59
f 18 59 60
f 18 60 19
f 19 60 61
f 19 61 20
f 20 61 21
f 21 61 22
f 22 61 62
f 22 62 23
f 23 62 29
f 26 63 64
f 26 64 27
f 27 65 66
f 27 64 67
f 27 67 65
f 29 62 68
f 29 68 30
f 30 69 70
f 30 68 69
f 31 32 71
f 32 37 72
f 32 72 71
f 33 73 34
f 34 73 74
f 34 74 75
f 34 75 76
f 34 76 35
f 35 76 77
f 35 77 78
f 35 78 36
f 36 78 72
f 36 72 79
f 36 79 37
f 37 79 72
f 38 80 81
f 38 81 82
f 38 82 83
f 38 83 39
f 39 83 84
f 39 84 40
f 40 84 85
f 40 85 41
f 41 85 42
f 42 85 86
f 42 86 43
f 43 86 87
f 43 87 44
f 44 87 88
f 44 88 45
f 45 88 89
f 45 89 90
f 45 90 46
f 46 90 91
f 46 91 47
f 47 91 92
f 47 92 93
f 47 93 48
f 48 93 49
f 49 93 94
f 49 94 50
f 50 94 51
f 51 94 95
f 51 95 52
f 52 95 96
f 52 96 53
f 53 96 54
f 54 96 97
f 54 97 55
f 55 97 98
f 55 98 56
f 56 98 99
f 56 99 100
f 56 100 101
f 56 101 102
f 56 102 57
f 57 102 101
f 57 101 59
f 57 59 58
f 59 103 104
f 59 104 60
f 59 101 105
f 59 105 106
f 59 106 107
f 59 107 108
f 59 108 103
f 60 104 61
f 61 109 62
f 61 104 103
f 61 103 108
f 61 108 110
f 61 110 109
f 62 109 111
f 62 111 108
f 62 108 69
f 62 69 68
f 63 112 67
f 63 67 64
f 63 113 112
f 65 114 115
f 65 115 66
f 65 67 116
f 65 116 117
f 65 117 114
f 66 115 118
f 67 119 120
f 67 120 116
f 67 112 121
f 67 121 119
f 69 108 122
f 69 122 123
f 69 123 70
f 71 72 125
f 71 125 126
f 71 126 124
f 72 127 128
f 72 128 125
f 72 78 129
f 72 129 130
f 72 130 127
f 73 131 74
f 74 131 132
f 74 132 133
f 74 133 134
f 74 134 75
f 75 77 76
f 75 134 77
f 77 134 135
f 77 135 78
f 78 135 136
f 78 136 129
f 80 137 81
f 81 137 82
f 82 138 139
f 82 139 140
f 82 140 141
f 82 141 83
f 82 137 138
f 83 141 142
f 83 142 143
f 83 143 144
f 83 144 84
f 84 144 85
f 85 144 145
f 85 145 86
f 86 146 87
f 86 145 146
f 87 147 148
f 87 148 88
f 87 146 147
f 88 148 89
f 89 149 91
f 89 91 90
f 89 148 150
f 89 150 149
f 91 149 151
f 91 151 92
f 92 151 93
f 93 151 152
f 93 152 94
f 94 152 153
f 94 153 154
f 94 154 155
f 94 155 156
f 94 156 95
f 95 157 96
f 95 156 158
f 95 158 159
f 95 159 157
f 96 157 159
f 96 159 98
f 96 98 160
f 96 160 97
f 97 160 98
f 98 161 162
f 98 162 163
f 98 163 164
f 98 164 165
f 98 165 99
f 98 159 166
f 98 166 161
f 99 167 100
f 99 165 168
f 99 168 169
f 99 169 170
f 99 170 167
f 100 167 101
f 101 167 171
f 101 171 105
f 105 170 168
f 105 168 172
f 105 172 106
f 105 171 170
f 106 172 108
f 106 108 107
f 108 173 122
f 108 111 110
f 108 172 173
f 109 110 111
f 112 174 121
f 112 113 174
f 113 175 176
f 113 176 174
f 114 177 178
f 114 178 179
f 114 179 115
f 114 117 180
f 114 180 181
f 114 181 177
f 115 179 182
f 115 182 183
f 115 183 184
f 115 184 185
f 115 185 186
f 115 186 118
f 116 187 188
f 116 188 189
f 116 189 190
f 116 190 117
f 116 120 187
f 117 190 189
f 117 189 191
f 117 191 192
f 117 192 193
f 117 193 194
f 117 194 180
f 118 186 133
f 119 195 120
f 119 121 196
f 119 196 195
f 120 195 196
f 120 196 197
f 120 197 187
f 121 198 196
f 121 174 199
f 121 199 173
f 121 173 200
f 121 200 198
f 122 175 123
f 122 173 199
f 122 199 174
f 122 174 175
f 124 126 128
f 125 128 126
f 127 201 128
f 127 130 202
f 127 202 201
f 128 201 203
f 129 136 130
f 130 136 204
f 130 204 202
f 133 186 185
f 133 185 134
f 134 185 205
f 134 205 135
f 135 205 206
f 135 206 207
f 135 207 136
f 136 207 208
f 136 208 179
f 136 179 209
f 136 209 178
f 136 178 204
f 137 210 211
f 137 211 138
f 138 211 212
f 138 212 213
f 138 213 214
f 138 214 139
f 139 214 140
f 140 214 213
f 140 213 215
f 140 215 143
f 140 143 142
f 140 142 141
f 143 215 216
f 143 216 144
f 144 216 217
f 144 217 218
f 144 218 219
f 144 219 147
f 144 147 145
f 145 147 146
f 147 219 192
f 147 192 191
f 147 191 220
f 147 220 148
f 148 220 191
f 148 191 189
f 148 189 150
f 149 150 221
f 149 221 151
f 150 189 222
f 150 222 223
f 150 223 221
f 151 221 224
f 151 224 225
f 151 225 152
f 152 225 226
f 152 226 153
f 153 226 227
f 153 227 154
f 154 228 229
f 154 229 158
f 154 158 155
f 154 227 230
f 154 230 231
f 154 231 228
f 155 158 156
f 158 229 159
f 159 229 228
f 159 228 166
f 161 166 162
f 162 166 232
f 162 232 165
f 162 165 163
f 163 165 164
f 165 232 233
f 165 233 234
f 165 234 235
f 165 235 168
f 166 236 237
f 166 237 232
f 166 228 236
f 167 170 171
f 168 170 169
f 168 235 172
f 172 235 238
f 172 238 198
f 172 198 200
f 172 200 173
f 174 176 175
f 177 181 178
f 178 209 179
f 178 181 239
f 178 239 204
f 179 208 206
f 179 206 183
f 179 183 182
f 180 240 241
f 180 241 242
f 180 242 243
f 180 243 181
f 180 194 244
f 180 244 240
f 181 243 245
f 181 245 239
f 183 206 205
f 183 205 185
f 183 185 184
f 187 197 188
f 188 197 246
f 188 246 247
f 188 247 248
f 188 248 249
f 188 249 189
f 189 249 222
f 192 250 244
f 192 244 193
f 192 219 251
f 192 251 252
f 192 252 250
f 193 244 194
f 196 198 253
f 196 253 234
f 196 234 254
f 196 254 197
f 197 254 246
f 198 238 253
f 201 202 203
f 202 255 256
f 202 256 257
f 202 257 258
f 202 258 259
f 202 259 260
f 202 260 203
f 202 204 255
f 204 239 261
f 204 261 262
f 204 262 263
f 204 263 264
f 204 264 255
f 206 208 207
f 210 265 211
f 211 266 267
f 211 267 268
f 211 268 269
f 211 269 270
f 211 270 212
f 211 265 266
f 212 270 213
f 213 271 272
f 213 272 273
f 213 273 274
f 213 274 215
f 213 270 275
f 213 275 271
f 215 274 216
f 216 274 218
f 216 218 217
f 218 274 252
f 218 252 219
f 219 252 251
f 221 223 276
f 221 276 224
f 222 249 223
f 223 249 248
f 223 248 276
f 224 276 277
f 224 277 226
f 224 226 225
f 226 277 227
f 227 277 230
f 228 231 236
f 230 277 278
f 230 278 236
f 230 236 231
f 232 237 236
f 232 236 279
f 232 279 233
f 233 279 254
f 233 254 234
f 234 253 235
f 235 253 238
f 236 278 247
f 236 247 279
f 239 245 243
f 239 243 261
f 240 244 241
f 241 244 250
f 241 250 280
f 241 280 281
f 241 281 282
f 241 282 283
f 241 283 284
f 241 284 285
f 241 285 242
f 242 286 243
f 242 285 286
f 243 286 261
f 246 254 279
f 246 279 247
f 247 278 248
f 248 278 276
f 250 252 281
f 250 281 280
f 252 274 281
f 255 287 288
f 255 288 289
f 255 289 290
f 255 290 291
f 255 291 256
f 255 264 287
f 256 291 257
f 257 291 292
f 257 292 293
f 257 293 258
f 258 293 294
f 261 286 295
f 261 295 287
f 261 287 264
f 261 264 262
f 262 264 263
f 265 296 266
f 266 296 297
f 266 297 298
f 266 298 299
f 266 299 300
f 266 300 268
f 266 268 267
f 268 301 302
f 268 302 303
f 268 303 304
f 268 304 305
f 268 305 269
f 268 300 301
f 269 305 275
f 269 275 270
f 271 275 272
f 272 275 306
f 272 306 304
f 272 304 303
f 272 303 283
f 272 283 282
f 272 282 281
f 272 281 273
f 273 281 274
f 275 305 306
f 276 278 277
f 283 307 284
f 283 303 307
f 284 307 285
f 285 307 308
f 285 308 286
f 286 308 287
f 286 287 295
f 287 308 288
f 288 308 307
f 288 307 309
f 288 309 302
f 288 302 301
f 288 301 299
f 288 299 310
f 288 310 289
f 289 310 290
f 290 299 311
f 290 311 312
f 290 312 292
f 290 292 291
f 290 310 299
f 292 312 313
f 292 313 294
f 292 294 293
f 296 314 297
f 297 314 315
f 297 315 316
f 297 316 298
f 298 316 311
f 298 311 299
f 299 301 300
f 302 309 303
f 303 309 307
f 304 306 305
f 311 316 317
f 311 317 312

