# https://github.com/mikedh/trimesh
v 0.13274887 -0.31861824 -0.41835591
v 0.13781402 -0.31679082 -0.41861662
v 0.13274887 -0.31757993 -0.39654368
v 0.13274887 -0.31184846 -0.44260138
v 0.16247992 -0.30545253 -0.41844282
v 0.13942477 -0.31483880 -0.38993919
v 0.15116583 -0.30183920 -0.44894516
v 0.13274887 -0.31724766 -0.38985229
v 0.13274887 -0.30532789 -0.46232799
v 0.20399083 -0.27853960 -0.41800833
v 0.18970752 -0.28759363 -0.40297440
v 0.17509428 -0.29635695 -0.38959160
v 0.17191158 -0.29120696 -0.28226849
v 0.16374135 -0.29710454 -0.30494973
v 0.15838511 -0.29149765 -0.18042018
v 0.15559055 -0.30802751 -0.40497312
v 0.15995705 -0.29307589 -0.46145895
v 0.18503051 -0.27883035 -0.46145895
v 0.20166203 -0.26952711 -0.45728770
v 0.17792764 -0.29365736 -0.42539492
v 0.13274887 -0.31654161 -0.37829444
v 0.14295679 -0.27152067 0.22949323
v 0.13758114 -0.27471864 0.22045550
v 0.13597038 -0.28161299 0.12929603
v 0.13274887 -0.28273436 0.13190308
v 0.13274887 -0.30516177 -0.46276248
v 0.21361655 -0.26919484 -0.42513421
v 0.22361100 -0.26250815 -0.41792142
v 0.20529109 -0.27056539 -0.31407437
v 0.19001803 -0.27754283 -0.25393867
v 0.18924175 -0.28460330 -0.35257164
v 0.16849600 -0.26246661 0.14693700
v 0.15807462 -0.25789809 0.30127370
v 0.19316190 -0.26470935 -0.46458742
v 0.22170915 -0.24107751 -0.46528262
v 0.23618653 -0.23634283 -0.46137205
v 0.23182003 -0.24622752 -0.44842377
v 0.14268510 -0.25881177 0.40729329
v 0.14204468 -0.26167750 0.37253276
v 0.13661081 -0.26213437 0.40729329
v 0.13274887 -0.26645371 0.37148994
v 0.13274887 -0.29897347 -0.46458742
v 0.23445934 -0.25033921 -0.42748055
v 0.24732597 -0.23866864 -0.42009395
v 0.23228580 -0.25229120 -0.39480567
v 0.21943857 -0.25490776 -0.25906587
v 0.21254918 -0.26292348 -0.29069793
v 0.20216660 -0.26915330 -0.26149908
v 0.18997921 -0.23783800 0.28632668
v 0.17666622 -0.23754726 0.40729329
v 0.15648326 -0.25071299 0.40729329
v 0.15380514 -0.25233275 0.40729329
v 0.25120732 -0.20814243 -0.46571714
v 0.28551835 0.09765956 -0.48031655
v 0.29114628 -0.13541946 -0.46841106
v 0.27296221 -0.19223559 -0.46050304
v 0.25341967 -0.22375856 -0.44651195
v 0.25246876 -0.23044525 -0.43043521
v 0.13274887 -0.26392025 0.40729329
v 0.28229684 0.10559221 -0.48049036
v 0.13274887 -0.15664244 -0.44129786
v 0.13276827 0.10559221 -0.45537588
v 0.14033690 0.10559221 -0.45780912
v 0.26125997 -0.22313558 -0.41818210
v 0.24313413 -0.23414162 -0.29539058
v 0.22991818 -0.19601502 0.34793970
v 0.20965759 -0.21698880 0.32977733
v 0.18733990 -0.23081905 0.39521399
v 0.18380788 -0.23248033 0.40729329
v 0.28272378 -0.15664244 -0.46736825
v 0.26589817 -0.18675333 -0.46623853
v 0.30321723 0.05197407 -0.47657979
v 0.30822417 0.01837448 -0.47510245
v 0.31453136 -0.02282552 -0.47319064
v 0.31464779 -0.04886624 -0.47197402
v 0.29873431 0.08395390 -0.47518936
v 0.31235778 0.04204786 -0.47310373
v 0.30839884 -0.07756503 -0.47067049
v 0.31377450 -0.08819728 -0.46780276
v 0.30647758 -0.11585777 -0.46641234
v 0.28186989 -0.18226784 -0.45320335
v 0.27503872 -0.19734405 -0.44112405
v 0.26766419 -0.21113276 -0.43182561
v 0.29151502 -0.15664244 -0.46337080
v 0.13274887 -0.15664244 0.40729329
v 0.28817707 0.10559221 -0.47588459
v 0.13276827 0.10559221 0.40729329
v 0.27280697 -0.20668881 -0.42087606
v 0.28074431 -0.19456139 -0.41036099
v 0.26976010 -0.20930535 -0.39506638
v 0.25675762 -0.16976663 0.24574378
v 0.24620038 -0.18176946 0.26885951
v 0.23288740 -0.18820694 0.38834879
v 0.22419320 -0.19543356 0.40729329
v 0.22190320 -0.19780090 0.40729329
v 0.19634460 -0.22172348 0.40729329
v 0.19054200 -0.22695655 0.40729329
v 0.28167582 -0.15930051 -0.46719444
v 0.31779167 0.01609021 -0.47084430
v 0.32017869 -0.00808157 -0.46971458
v 0.32002345 -0.05762954 -0.46597782
v 0.29252416 0.10035914 -0.47405964
v 0.31074703 0.08777487 -0.43365055
v 0.30816597 0.06256479 -0.47162640
v 0.32326436 0.03897448 -0.43590999
v 0.32299265 -0.08570535 -0.43399817
v 0.30748671 -0.12474567 -0.45581037
v 0.29756990 -0.15664244 -0.44147167
v 0.29671600 -0.16058800 -0.43756109
v 0.29454246 -0.17134485 -0.41896424
v 0.29161203 -0.15664244 -0.46302319
v 0.29916126 -0.14929123 -0.44842377
v 0.28984603 0.10559221 -0.47423345
v 0.29112688 0.10559221 0.40729329
v 0.28493613 -0.18484284 -0.37829444
v 0.25850424 -0.16008961 0.32169551
v 0.24827690 -0.16499043 0.40729329
v 0.23168418 -0.18679485 0.40729329
v 0.32831010 0.01642247 -0.43182561
v 0.33081356 -0.01368842 -0.43034831
v 0.32603952 -0.05447309 -0.44251448
v 0.29758930 0.10559221 -0.45120460
v 0.29881191 0.10326640 -0.45094392
v 0.31542405 0.07377851 -0.43443266
v 0.30255741 0.10330793 -0.43686590
v 0.30253801 0.10559221 -0.42591634
v 0.30364418 0.10559221 -0.41522747
v 0.30892283 0.09363092 -0.36899599
v 0.31769463 0.06945916 -0.38915709
v 0.32033396 0.05496439 -0.43295532
v 0.32964915 -0.04118277 -0.42930549
v 0.32937747 -0.05393317 -0.40462551
v 0.32188648 -0.09467632 -0.40688494
v 0.31567633 -0.11585777 -0.43095660
v 0.30607003 -0.13666542 -0.44207996
v 0.29826856 -0.15664244 -0.43834323
v 0.29970464 -0.15664244 -0.43173873
v 0.30096608 -0.15664244 -0.42443901
v 0.30131540 -0.15664244 -0.41983324
v 0.29947174 -0.15664244 -0.37829444
v 0.29863727 -0.15564567 -0.35239783
v 0.28565419 -0.13583478 0.08141343
v 0.27117682 -0.13550252 0.34802660
v 0.29857904 0.07897003 0.40729329
v 0.29652193 0.09255108 0.35506561
v 0.29634726 0.09603979 0.32864761
v 0.29213601 0.10559221 0.37322798
v 0.26993477 -0.14443195 0.28189471
v 0.26323947 -0.14480574 0.38913092
v 0.25609779 -0.15664244 0.38304782
v 0.25574848 -0.15722390 0.38270020
v 0.25373018 -0.15664244 0.40729329
v 0.32173124 0.05625190 -0.40671116
v 0.32794136 0.02140634 -0.41001341
v 0.33034781 -0.00247471 -0.39836863
v 0.33100763 -0.02971987 -0.41079551
v 0.30090785 0.10559221 -0.43877771
v 0.30135420 0.10559221 -0.43703970
v 0.30362478 0.10559221 -0.41053480
v 0.30308139 0.10559221 -0.35865474
v 0.30018979 0.10559221 -0.09708184
v 0.29799685 0.10559221 0.05151938
v 0.30038387 0.09873939 0.07037696
v 0.30610883 0.08980995 -0.09769014
v 0.29704592 0.10064988 0.22714689
v 0.29791921 0.09591520 0.25747544
v 0.30737028 0.07764101 0.03883179
v 0.31924719 0.06298012 -0.36951739
v 0.32964915 -0.03316705 -0.36134866
v 0.31583160 -0.03441302 0.04335066
v 0.32761145 -0.05713116 -0.36169627
v 0.32572901 -0.07266422 -0.39028680
v 0.32314792 -0.08130293 -0.35622150
v 0.31839329 -0.09720978 -0.31989676
v 0.32062504 -0.09675293 -0.38411680
v 0.31678253 -0.11419648 -0.39854243
v 0.31352219 -0.12578398 -0.41896424
v 0.30867052 -0.14061099 -0.42096296
v 0.30269325 -0.15265533 -0.42591634
v 0.29984048 -0.15547954 -0.37516597
v 0.30847645 -0.13392429 -0.35830712
v 0.29254356 -0.11457027 0.12486407
v 0.28010386 -0.11299204 0.38504654
v 0.28212216 -0.13330132 0.16892304
v 0.27168137 -0.12810978 0.40529454
v 0.29904482 0.07689342 0.40729329
v 0.30009276 0.08366318 0.30909482
v 0.29388264 0.10559221 0.30935553
v 0.27111858 -0.12881583 0.40729329
v 0.26494724 -0.13940656 0.40729329
v 0.31179500 0.06356157 -0.01391730
v 0.32592309 0.03519504 -0.38185737
v 0.32801899 0.02020189 -0.36604133
v 0.32945508 0.00101399 -0.36899599
v 0.32937747 -0.01464366 -0.34388152
v 0.33034781 -0.01892149 -0.38437751
v 0.29758930 0.10559221 0.07845878
v 0.29549336 0.10559221 0.21532831
v 0.29403788 0.10559221 0.30179510
v 0.30550724 0.06817165 0.23097056
v 0.30853468 0.06626117 0.11122057
v 0.32799959 -0.01921221 -0.30112606
v 0.32664111 -0.02477753 -0.26132530
v 0.31868437 -0.02211947 -0.01252688
v 0.31268770 -0.01518358 0.17804767
v 0.30824357 -0.00866302 0.32082650
v 0.30655521 -0.01173641 0.36193082
v 0.30405173 -0.03129809 0.37844205
v 0.30251861 -0.03528519 0.40729329
v 0.31571516 -0.04691422 0.00424508
v 0.32351664 -0.05958156 -0.25784922
v 0.32231343 -0.07623599 -0.30477592
v 0.31621972 -0.07220736 -0.12254392
v 0.31239662 -0.08425172 -0.09456170
v 0.30244097 -0.08400252 0.14902264
v 0.30971849 -0.13450575 -0.39054751
v 0.31305644 -0.11419648 -0.31181493
v 0.30445927 -0.11469486 -0.12019758
v 0.29947174 -0.11623155 -0.02947263
v 0.28815764 -0.10642994 0.27972218
v 0.28462565 -0.09936946 0.40529454
v 0.28460622 -0.09916180 0.40729329
v 0.28344184 -0.10186139 0.40729329
v 0.27298161 -0.12503639 0.40729329
v 0.27909473 -0.12237833 0.32091340
v 0.30434284 0.03432286 0.40729329
v 0.30366361 0.06293859 0.33707702
v 0.30461454 0.06717488 0.27615923
v 0.31790811 0.03752084 -0.06814370
v 0.31647202 0.03789464 -0.01409110
v 0.31429845 0.03689787 0.07420062
v 0.30927214 0.03307690 0.27589852
v 0.31478363 0.01854061 0.10974325
v 0.31441492 0.01123093 0.13442321
v 0.31039771 0.00670391 0.26755601
v 0.30861229 0.01152166 0.32386804
v 0.30638054 0.00101399 0.38261330
v 0.30529377 -0.00052270 0.40729329
v 0.29933590 -0.05169043 0.40729329
v 0.30684629 -0.05962309 0.17874287
v 0.31645262 -0.05920777 -0.06405935
v 0.29838496 -0.05912471 0.38939160
v 0.30700156 -0.08196744 0.05030276
v 0.29394084 -0.07312107 0.40729329
v 0.29165086 -0.08126140 0.40729329
v 0.28592589 -0.09588075 0.40729329
v 0.30465335 0.03158173 0.40729329
v 0.30799130 0.03241238 0.31743735
v 0.30531317 0.05708253 0.31039834
v 0.31055298 0.02472891 0.24539617
v 0.30471155 0.03029424 0.40729329
v 0.30482799 0.02485351 0.40729329
f 1 2 3
f 1 3 8
f 1 8 21
f 1 21 25
f 1 25 41
f 1 41 59
f 1 59 85
f 1 85 61
f 1 61 42
f 1 42 26
f 1 26 9
f 1 9 4
f 1 4 2
f 2 5 6
f 2 6 3
f 2 4 7
f 2 7 5
f 3 6 8
f 4 9 7
f 5 10 11
f 5 11 12
f 5 12 13
f 5 13 14
f 5 14 15
f 5 15 16
f 5 16 6
f 5 7 17
f 5 17 18
f 5 18 19
f 5 19 20
f 5 20 10
f 6 21 8
f 6 16 22
f 6 22 23
f 6 23 24
f 6 24 25
f 6 25 21
f 7 9 17
f 9 26 17
f 10 20 19
f 10 19 27
f 10 27 28
f 10 28 29
f 10 29 30
f 10 30 31
f 10 31 11
f 11 31 12
f 12 31 30
f 12 30 13
f 13 30 32
f 13 32 33
f 13 33 22
f 13 22 15
f 13 15 14
f 15 22 16
f 17 26 18
f 18 26 34
f 18 34 35
f 18 35 36
f 18 36 19
f 19 36 37
f 19 37 27
f 22 33 38
f 22 38 39
f 22 39 40
f 22 40 23
f 23 40 41
f 23 41 24
f 24 41 25
f 26 42 34
f 27 43 28
f 27 37 43
f 28 43 44
f 28 44 45
f 28 45 46
f 28 46 47
f 28 47 29
f 29 47 48
f 29 48 30
f 30 48 49
f 30 49 32
f 32 49 33
f 33 50 51
f 33 51 52
f 33 52 38
f 33 49 50
f 34 42 35
f 35 53 36
f 35 42 54
f 35 54 55
f 35 55 53
f 36 56 57
f 36 57 37
f 36 53 56
f 37 57 58
f 37 58 43
f 38 40 39
f 38 52 51
f 38 51 50
f 38 50 69
f 38 69 97
f 38 97 96
f 38 96 95
f 38 95 94
f 38 94 118
f 38 118 117
f 38 117 152
f 38 152 190
f 38 190 189
f 38 189 224
f 38 224 223
f 38 223 222
f 38 222 246
f 38 246 245
f 38 245 244
f 38 244 239
f 38 239 209
f 38 209 238
f 38 238 252
f 38 252 251
f 38 251 247
f 38 247 226
f 38 226 186
f 38 186 144
f 38 144 114
f 38 114 87
f 38 87 85
f 38 85 59
f 38 59 40
f 40 59 41
f 42 60 54
f 42 61 62
f 42 62 63
f 42 63 60
f 43 58 44
f 44 58 64
f 44 64 65
f 44 65 45
f 45 65 46
f 46 65 66
f 46 66 67
f 46 67 49
f 46 49 47
f 47 49 48
f 49 67 68
f 49 68 69
f 49 69 50
f 53 55 70
f 53 70 71
f 53 71 56
f 54 72 73
f 54 73 74
f 54 74 75
f 54 75 55
f 54 60 76
f 54 76 77
f 54 77 72
f 55 75 78
f 55 78 79
f 55 79 80
f 55 80 70
f 56 81 82
f 56 82 83
f 56 83 57
f 56 71 84
f 56 84 81
f 57 83 58
f 58 83 64
f 60 86 76
f 60 63 62
f 60 62 87
f 60 87 114
f 60 114 147
f 60 147 188
f 60 188 199
f 60 199 198
f 60 198 197
f 60 197 162
f 60 162 161
f 60 161 160
f 60 160 159
f 60 159 127
f 60 127 126
f 60 126 158
f 60 158 157
f 60 157 122
f 60 122 113
f 60 113 86
f 61 85 87
f 61 87 62
f 64 83 88
f 64 88 89
f 64 89 90
f 64 90 91
f 64 91 92
f 64 92 66
f 64 66 65
f 66 93 94
f 66 94 95
f 66 95 67
f 66 92 93
f 67 95 96
f 67 96 97
f 67 97 68
f 68 97 69
f 70 80 84
f 70 84 98
f 70 98 71
f 71 98 84
f 72 77 73
f 73 77 74
f 74 77 99
f 74 99 100
f 74 100 75
f 75 100 101
f 75 101 79
f 75 79 78
f 76 86 102
f 76 102 103
f 76 103 104
f 76 104 77
f 77 104 105
f 77 105 99
f 79 101 106
f 79 106 107
f 79 107 80
f 80 107 84
f 81 108 109
f 81 109 110
f 81 110 82
f 81 84 111
f 81 111 108
f 82 110 88
f 82 88 83
f 84 107 112
f 84 112 111
f 86 113 102
f 88 110 89
f 89 110 115
f 89 115 116
f 89 116 91
f 89 91 90
f 91 116 93
f 91 93 92
f 93 116 117
f 93 117 118
f 93 118 94
f 99 105 119
f 99 119 100
f 100 119 120
f 100 120 101
f 101 120 121
f 101 121 106
f 102 113 122
f 102 122 123
f 102 123 103
f 103 124 104
f 103 123 125
f 103 125 126
f 103 126 127
f 103 127 128
f 103 128 129
f 103 129 124
f 104 124 130
f 104 130 105
f 105 130 119
f 106 121 131
f 106 131 132
f 106 132 133
f 106 133 134
f 106 134 107
f 107 134 135
f 107 135 112
f 108 136 109
f 108 111 112
f 108 112 135
f 108 135 136
f 109 136 137
f 109 137 110
f 110 137 138
f 110 138 139
f 110 139 140
f 110 140 141
f 110 141 142
f 110 142 143
f 110 143 115
f 114 144 145
f 114 145 146
f 114 146 147
f 115 143 148
f 115 148 116
f 116 148 143
f 116 143 149
f 116 149 150
f 116 150 151
f 116 151 117
f 117 151 150
f 117 150 149
f 117 149 152
f 119 153 154
f 119 154 155
f 119 155 120
f 119 130 153
f 120 155 156
f 120 156 131
f 120 131 121
f 122 157 125
f 122 125 123
f 124 129 153
f 124 153 130
f 125 158 126
f 125 157 158
f 127 159 128
f 128 159 160
f 128 160 161
f 128 161 162
f 128 162 163
f 128 163 164
f 128 164 129
f 129 164 163
f 129 163 165
f 129 165 166
f 129 166 167
f 129 167 168
f 129 168 153
f 131 156 132
f 132 169 170
f 132 170 171
f 132 171 172
f 132 172 133
f 132 156 169
f 133 172 173
f 133 173 174
f 133 174 175
f 133 175 176
f 133 176 177
f 133 177 134
f 134 177 178
f 134 178 135
f 135 178 179
f 135 179 136
f 136 179 137
f 137 179 138
f 138 179 178
f 138 178 139
f 139 178 140
f 140 180 141
f 140 178 180
f 141 180 178
f 141 178 181
f 141 181 142
f 142 182 183
f 142 183 184
f 142 184 143
f 142 181 182
f 143 184 185
f 143 185 149
f 144 186 187
f 144 187 145
f 145 187 146
f 146 188 147
f 146 187 166
f 146 166 188
f 149 185 189
f 149 189 190
f 149 190 152
f 153 168 167
f 153 167 191
f 153 191 192
f 153 192 154
f 154 192 193
f 154 193 155
f 155 193 194
f 155 194 195
f 155 195 196
f 155 196 156
f 156 196 195
f 156 195 169
f 162 197 163
f 163 197 198
f 163 198 199
f 163 199 165
f 165 199 166
f 166 199 188
f 166 187 167
f 167 187 200
f 167 200 201
f 167 201 191
f 169 195 202
f 169 202 203
f 169 203 204
f 169 204 170
f 170 204 205
f 170 205 206
f 170 206 207
f 170 207 208
f 170 208 209
f 170 209 210
f 170 210 171
f 171 173 172
f 171 210 211
f 171 211 212
f 171 212 173
f 173 212 174
f 174 212 213
f 174 213 214
f 174 214 215
f 174 215 176
f 174 176 175
f 176 216 178
f 176 178 177
f 176 215 217
f 176 217 216
f 178 216 181
f 181 216 218
f 181 218 219
f 181 219 182
f 182 220 183
f 182 219 220
f 183 221 222
f 183 222 223
f 183 223 224
f 183 224 185
f 183 185 225
f 183 225 184
f 183 220 221
f 184 225 185
f 185 224 189
f 186 226 227
f 186 227 228
f 186 228 187
f 187 228 200
f 191 201 192
f 192 201 200
f 192 200 228
f 192 228 229
f 192 229 193
f 193 229 230
f 193 230 231
f 193 231 232
f 193 232 194
f 194 232 233
f 194 233 234
f 194 234 195
f 195 234 235
f 195 235 202
f 202 235 203
f 203 235 204
f 204 235 206
f 204 206 205
f 206 236 237
f 206 237 207
f 206 235 236
f 207 237 238
f 207 238 209
f 207 209 208
f 209 239 240
f 209 240 241
f 209 241 210
f 210 241 211
f 211 241 212
f 212 241 213
f 213 241 240
f 213 240 214
f 214 240 242
f 214 242 243
f 214 243 215
f 215 218 217
f 215 243 242
f 215 242 244
f 215 244 245
f 215 245 218
f 216 217 218
f 218 245 219
f 219 245 220
f 220 245 246
f 220 246 221
f 221 246 222
f 226 247 248
f 226 248 227
f 227 248 249
f 227 249 228
f 228 249 229
f 229 249 230
f 230 249 231
f 231 249 232
f 232 249 248
f 232 248 236
f 232 236 250
f 232 250 234
f 232 234 233
f 234 250 236
f 234 236 235
f 236 248 251
f 236 251 237
f 237 251 252
f 237 252 238
f 239 244 242
f 239 242 240
f 247 251 248

