# https://github.com/mikedh/trimesh
v 0.19154091 -0.02324087 0.45476815
v 0.19034806 -0.02324087 0.44568259
v 0.19012345 -0.02324087 0.45497081
v 0.21518354 -0.06110573 0.45767057
v 0.20615472 -0.03775445 0.45501953
v 0.21518354 -0.04510073 0.45477584
v 0.19000366 -0.02324087 0.44475019
v 0.20730266 -0.04049013 0.44470787
v 0.17492570 -0.02324087 0.45652011
v 0.20843065 -0.05703204 0.45780909
v 0.21427517 -0.06676884 0.45467710
v 0.21518354 -0.06676884 0.45492333
v 0.21518354 -0.04879943 0.44886330
v 0.19006856 -0.02333461 0.44470787
v 0.18666466 -0.02324087 0.44470787
v 0.21518354 -0.05167573 0.44470787
v 0.17060344 -0.02324087 0.45495796
v 0.17924795 -0.02994370 0.45629311
v 0.20818108 -0.06676884 0.45301747
v 0.18957444 -0.06676884 0.44470787
v 0.21518354 -0.06676884 0.44470787
v 0.16419493 -0.02324087 0.44470787
v 0.16979489 -0.02324087 0.45451421
v 0.17111252 -0.02454905 0.45479125
f 1 2 7
f 1 7 15
f 1 15 22
f 1 22 23
f 1 23 17
f 1 17 9
f 1 9 3
f 1 3 4
f 1 4 5
f 1 5 6
f 1 6 2
f 2 6 8
f 2 8 7
f 3 9 10
f 3 10 4
f 4 11 12
f 4 12 21
f 4 21 16
f 4 16 13
f 4 13 6
f 4 6 5
f 4 10 11
f 6 13 8
f 7 8 14
f 7 14 15
f 8 13 16
f 8 16 21
f 8 21 20
f 8 20 22
f 8 22 15
f 8 15 14
f 9 17 18
f 9 18 10
f 10 19 11
f 10 18 20
f 10 20 19
f 11 19 20
f 11 20 21
f 11 21 12
f 17 23 24
f 17 24 18
f 18 24 20
f 20 24 23
f 20 23 22

