# https://github.com/mikedh/trimesh
v -0.31623691 -0.07743295 0.46396792
v -0.31598946 -0.07743295 0.46824354
v -0.31486768 -0.07743295 0.45490137
v -0.31252515 -0.08312970 0.45244092
v -0.31244266 -0.08963757 0.46689728
v -0.31353146 -0.07743295 0.47683194
v -0.30312207 -0.11302818 0.47461754
v -0.31417483 -0.07743295 0.45188847
v -0.30523363 -0.10397375 0.45270553
v -0.30760914 -0.07743295 0.44229731
v -0.30376545 -0.11185865 0.46572274
v -0.31311905 -0.07743295 0.47712907
v -0.28476131 -0.14445460 0.48049015
v -0.27446738 -0.16461957 0.46945521
v -0.29978973 -0.09857882 0.44229731
v -0.28274870 -0.13666402 0.44229731
v -0.29502222 -0.12708141 0.45460424
v -0.29876694 -0.07743295 0.44229731
v -0.30714726 -0.07743295 0.47471967
v -0.30011967 -0.10416239 0.47928777
v -0.16755259 -0.25589955 0.48972383
v -0.14772362 -0.26355809 0.48854467
v -0.27237231 -0.16465729 0.48125613
v -0.24521881 -0.19040583 0.48502573
v -0.28373849 -0.14700116 0.45595518
v -0.27332911 -0.16320482 0.45742217
v -0.25811920 -0.18299252 0.45834136
v -0.24980488 -0.19459350 0.48061085
v -0.26991430 -0.15843238 0.44229731
v -0.29870096 -0.07743295 0.44395000
v -0.14772362 -0.25333411 0.44229731
v -0.14772362 -0.26316196 0.48816863
v -0.14772362 -0.25586182 0.46744969
v -0.18505552 -0.24254425 0.48834506
v -0.22938204 -0.21609777 0.48227745
v -0.21065834 -0.23184870 0.48308060
v -0.19193465 -0.24477014 0.48478898
v -0.15308502 -0.26527464 0.48839611
v -0.14772362 -0.26474646 0.48840076
v -0.25142157 -0.18176639 0.44229731
v -0.22867268 -0.20813742 0.44229731
v -0.23906557 -0.20515700 0.45951125
v -0.14772362 -0.26465213 0.44229731
v -0.22250293 -0.22088908 0.46143317
v -0.19272648 -0.24531716 0.47285807
v -0.17471214 -0.25672951 0.47853571
v -0.14772362 -0.26917937 0.48619097
v -0.19033447 -0.24220471 0.44229731
v -0.14772362 -0.26910391 0.46616375
v -0.17456366 -0.25497523 0.46470141
v -0.18988904 -0.24252538 0.44229731
v -0.19015300 -0.24239334 0.44249228
v -0.20071086 -0.23775294 0.46319729
v -0.15544404 -0.26691574 0.47647449
v -0.14772362 -0.27012253 0.48249567
v -0.14772362 -0.26936799 0.46764934
f 1 2 6
f 1 6 12
f 1 12 19
f 1 19 30
f 1 30 18
f 1 18 10
f 1 10 8
f 1 8 3
f 1 3 4
f 1 4 5
f 1 5 2
f 2 5 7
f 2 7 6
f 3 8 4
f 4 9 5
f 4 8 10
f 4 10 9
f 5 9 11
f 5 11 7
f 6 7 13
f 6 13 12
f 7 11 14
f 7 14 13
f 9 10 15
f 9 15 16
f 9 16 17
f 9 17 11
f 10 18 31
f 10 31 43
f 10 43 51
f 10 51 48
f 10 48 41
f 10 41 40
f 10 40 29
f 10 29 16
f 10 16 15
f 11 17 14
f 12 13 20
f 12 20 21
f 12 21 22
f 12 22 19
f 13 14 23
f 13 23 24
f 13 24 20
f 14 17 25
f 14 25 26
f 14 26 27
f 14 27 28
f 14 28 23
f 16 29 17
f 17 29 25
f 18 30 31
f 19 22 32
f 19 32 33
f 19 33 30
f 20 24 21
f 21 34 35
f 21 35 36
f 21 36 37
f 21 37 38
f 21 38 39
f 21 39 22
f 21 24 34
f 22 39 47
f 22 47 55
f 22 55 56
f 22 56 49
f 22 49 43
f 22 43 31
f 22 31 33
f 22 33 32
f 23 28 24
f 24 28 35
f 24 35 34
f 25 29 26
f 26 29 27
f 27 29 40
f 27 40 41
f 27 41 42
f 27 42 28
f 28 42 35
f 30 33 31
f 35 42 44
f 35 44 36
f 36 44 45
f 36 45 37
f 37 45 46
f 37 46 47
f 37 47 38
f 38 47 39
f 41 48 44
f 41 44 42
f 43 49 50
f 43 50 51
f 44 48 52
f 44 52 53
f 44 53 45
f 45 50 46
f 45 53 52
f 45 52 51
f 45 51 50
f 46 54 55
f 46 55 47
f 46 50 54
f 48 51 52
f 49 56 50
f 50 56 54
f 54 56 55

