# https://github.com/mikedh/trimesh
v -0.16016446 -0.00057368 0.45549631
v -0.16010176 -0.00028441 0.46500084
v -0.16016446 0.00059799 0.45549631
v -0.15690348 -0.00557154 0.45549631
v -0.16000769 -0.00008265 0.47033817
v -0.16010176 0.00028684 0.46500084
v -0.15715432 0.00535033 0.45549631
v -0.15627636 -0.00528470 0.46500084
v -0.15188658 -0.01081977 0.45549631
v -0.15075777 -0.01036520 0.47500026
v -0.16000769 0.00008265 0.47033817
v -0.15640178 -0.00404982 0.47420475
v -0.15314081 -0.00562016 0.48458344
v -0.15188658 -0.00270069 0.49234894
v -0.15696619 0.00559828 0.45549631
v -0.14498834 -0.01177996 0.45549631
v -0.15028745 -0.01015858 0.48097587
v -0.15640178 0.00404982 0.47420475
v -0.15188658 0.00270069 0.49234894
v -0.15314081 0.00562016 0.48458344
v -0.14730866 -0.00936855 0.48764062
v -0.14461207 -0.00559099 0.49467537
v -0.14194685 -0.00181342 0.50102097
v -0.15627636 0.00528713 0.46500084
v -0.15075777 0.01036520 0.47500026
v -0.15671535 0.00586324 0.45549631
v -0.13498591 -0.01198416 0.45549631
v -0.13498591 -0.01111634 0.47500026
v -0.14498834 -0.01089270 0.47500026
v -0.14436124 -0.01031172 0.48458344
v -0.14062992 -0.01009051 0.49033239
v -0.15028745 0.01015858 0.48097587
v -0.14194685 0.00181342 0.50102097
v -0.14461207 0.00559099 0.49467537
v -0.14730866 0.00936855 0.48764062
v -0.13498591 -0.00814339 0.49577612
v -0.13498591 -0.00314311 0.50185347
v -0.14498834 0.01178969 0.45549631
v -0.14530191 0.01175079 0.45549631
v -0.15194929 0.01082707 0.45549631
v -0.12498347 -0.01208868 0.45549631
v -0.13498591 -0.01062530 0.48499969
v -0.12498347 -0.01121357 0.47500026
v -0.12498347 -0.01074685 0.48499969
v -0.13498591 -0.01018532 0.49077642
v -0.12498347 -0.00866603 0.49618313
v -0.14062992 0.01009294 0.49033701
v -0.14436124 0.01031172 0.48458344
v -0.14498834 0.01089513 0.47500026
v -0.14498834 0.01135699 0.46500084
v -0.13498591 0.00314311 0.50185347
v -0.13498591 0.00814339 0.49578074
v -0.12498347 -0.00366574 0.50225586
v -0.13498591 0.01112120 0.47500026
v -0.13548760 0.01197929 0.45549631
v -0.11498103 -0.01215675 0.45549631
v -0.11498103 -0.01127678 0.47500026
v -0.11498103 -0.01081491 0.48499969
v -0.12498347 -0.01025338 0.49118343
v -0.11498103 -0.00883133 0.49641901
v -0.12498347 0.00866603 0.49619702
v -0.13498591 0.01018532 0.49078104
v -0.13498591 0.01062773 0.48499969
v -0.12498347 0.00366574 0.50225586
v -0.11498103 -0.00383104 0.50238997
v -0.12548517 0.01208625 0.45549631
v -0.13498591 0.01198902 0.45549631
v -0.12498347 0.01075414 0.48499969
v -0.12498347 0.01121843 0.47500026
v -0.10497859 -0.01221752 0.45549631
v -0.10447690 -0.01221995 0.45549631
v -0.10497859 -0.01086353 0.48499969
v -0.11498103 -0.01028741 0.49141929
v -0.09497615 -0.00901121 0.49671963
v -0.10497859 -0.00893585 0.49659014
v -0.11498103 0.00883133 0.49642825
v -0.12498347 0.01025824 0.49119729
v -0.11498103 0.00383104 0.50238997
v -0.10497859 -0.00393557 0.50248247
v -0.12498347 0.01209111 0.45549631
v -0.11498103 0.01081977 0.48499969
v -0.11498103 0.01127678 0.47500026
v -0.10548028 0.01221752 0.45549631
v -0.11548272 0.01215675 0.45549631
v -0.09447446 -0.01226371 0.45549631
v -0.08450338 -0.01229531 0.45549631
v -0.09497615 -0.01089513 0.48499969
v -0.10497859 -0.01031172 0.49159044
v -0.08497372 -0.00906469 0.49680290
v -0.09497615 -0.00401092 0.50255185
v -0.10497859 0.00893585 0.49659014
v -0.09497615 0.00901121 0.49671963
v -0.11498103 0.01028984 0.49142855
v -0.10497859 0.00393557 0.50248247
v -0.10497859 0.01221995 0.45549631
v -0.10497859 0.01086353 0.48499969
v -0.07497127 -0.01232205 0.45549631
v -0.08497372 -0.01091944 0.48499969
v -0.09497615 -0.01032874 0.49171993
v -0.06496883 -0.01234879 0.45549631
v -0.07497127 -0.00909629 0.49685377
v -0.08497372 -0.00406440 0.50260276
v -0.09497615 0.00401092 0.50255185
v -0.08497372 0.00906469 0.49680290
v -0.10497859 0.01031172 0.49159044
v -0.09497615 0.01226127 0.45549631
v -0.09497615 0.01089513 0.48499969
v -0.08547540 0.01229288 0.45549631
v -0.05499775 -0.01237066 0.45549631
v -0.07497127 -0.01093159 0.48499969
v -0.08497372 -0.01033603 0.49180317
v -0.05499775 -0.00914977 0.49694628
v -0.08497372 0.00406683 0.50260276
v -0.07497127 -0.00409600 0.50263512
v -0.07497127 0.00909629 0.49685377
v -0.09497615 0.01032874 0.49171993
v -0.08497372 0.01091944 0.48499969
v -0.06496883 0.01234879 0.45549631
v -0.07497127 0.01232205 0.45549631
v -0.04499531 -0.01238282 0.45549631
v -0.02499044 -0.01146395 0.47500026
v -0.05499775 -0.01095104 0.48499969
v -0.07497127 -0.01034089 0.49185404
v -0.04499531 -0.00916922 0.49697402
v -0.05499775 -0.00414948 0.50269061
v -0.06496883 -0.00412518 0.50266290
v -0.07497127 0.00409600 0.50263512
v -0.05499775 0.00914977 0.49694628
v -0.08497372 0.01033603 0.49180317
v -0.07497127 0.01093159 0.48499969
v -0.04546565 0.01238282 0.45549631
v -0.05499775 0.01237066 0.45549631
v -0.03499287 -0.01239254 0.45549631
v -0.00498556 -0.01241685 0.45549631
v -0.01498800 -0.01147124 0.47500026
v -0.05499775 -0.01035062 0.49194193
v -0.06496883 -0.01034575 0.49190030
v -0.03499287 -0.01096562 0.48499969
v -0.04499531 -0.01035305 0.49197429
v -0.03499287 -0.00917651 0.49698326
v -0.03499287 -0.00417865 0.50271839
v -0.04499531 -0.00416893 0.50270915
v -0.05499775 0.00414948 0.50269061
v -0.04499531 0.00916922 0.49697402
v -0.07497127 0.01034089 0.49185404
v -0.05499775 0.01095104 0.48499969
v -0.02499044 0.01146395 0.47500026
v -0.03499287 0.01239254 0.45549631
v -0.00498556 -0.01147611 0.47500026
v 0.00498553 -0.01241685 0.45549631
v -0.00498556 -0.01097292 0.48499969
v -0.03499287 -0.01035305 0.49198356
v -0.00498556 -0.00919839 0.49700639
v -0.01498800 -0.00419081 0.50273687
v -0.04499531 0.00416893 0.50270915
v -0.03499287 0.00417865 0.50271839
v -0.03499287 0.00917651 0.49698326
v -0.05499775 0.01035062 0.49194655
v -0.03499287 0.01096562 0.48499969
v -0.01498800 0.01147124 0.47500026
v -0.00498556 0.01241685 0.45549631
v 0.00498553 -0.01147611 0.47500026
v 0.03499284 -0.01239254 0.45549631
v 0.02499041 -0.01146395 0.47500026
v 0.01498797 -0.01147124 0.47500026
v 0.00498553 -0.01097292 0.48499969
v 0.03499284 -0.01035305 0.49198356
v -0.00498556 -0.01035062 0.49200669
v -0.00498556 -0.00419810 0.50274152
v 0.00498553 -0.00919839 0.49700639
v -0.01498800 0.00419081 0.50273687
v -0.00498556 0.00919839 0.49700639
v -0.04499531 0.01035305 0.49197429
v -0.00498556 0.01097292 0.48499969
v -0.00498556 0.01147611 0.47500026
v 0.00498553 0.01241685 0.45549631
v 0.03499284 -0.01096562 0.48499969
v 0.04546562 -0.01238282 0.45549631
v 0.07497124 -0.01093159 0.48499969
v 0.05499772 -0.01095104 0.48499969
v 0.04499528 -0.01035305 0.49197429
v 0.00498553 -0.01035062 0.49200669
v -0.00498556 0.00419810 0.50274152
v 0.00498553 -0.00419810 0.50274152
v 0.03499284 -0.00917651 0.49698326
v 0.01498797 -0.00419081 0.50273687
v -0.00498556 0.01035062 0.49200669
v -0.03499287 0.01035305 0.49198356
v 0.00498553 0.00919839 0.49700639
v 0.00498553 0.01097292 0.48499969
v 0.00498553 0.01147611 0.47500026
v 0.01498797 0.01147124 0.47500026
v 0.02499041 0.01146395 0.47500026
v 0.03499284 0.01239254 0.45549631
v 0.05499772 -0.01035062 0.49194193
v 0.05546806 -0.01236823 0.45549631
v 0.08497369 -0.01091944 0.48499969
v 0.08497369 -0.01033603 0.49180317
v 0.07497124 -0.01034089 0.49185404
v 0.04499528 -0.00916922 0.49697402
v 0.00498553 0.00419810 0.50274152
v 0.03499284 -0.00417865 0.50271839
v 0.01498797 0.00419081 0.50273687
v 0.00498553 0.01035062 0.49200669
v 0.03499284 0.01035305 0.49198356
v 0.03499284 0.00917651 0.49698326
v 0.05499772 0.01035062 0.49194655
v 0.04499528 0.01035305 0.49197429
v 0.03499284 0.01096562 0.48499969
v 0.04499528 0.01238282 0.45549631
v 0.05499772 0.01095104 0.48499969
v 0.07497124 0.01093159 0.48499969
v 0.06496880 -0.01234879 0.45549631
v 0.09497612 -0.01089513 0.48499969
v 0.09497612 -0.01032874 0.49171993
v 0.05499772 -0.00914977 0.49694628
v 0.04499528 -0.00416893 0.50270915
v 0.05499772 -0.00414948 0.50269061
v 0.03499284 0.00417865 0.50271839
v 0.04499528 0.00916922 0.49697402
v 0.07497124 0.01034089 0.49185404
v 0.05499772 0.01237066 0.45549631
v 0.08497369 0.01033603 0.49180317
v 0.08497369 0.01091944 0.48499969
v 0.07497124 -0.01232205 0.45549631
v 0.10497856 -0.01086353 0.48499969
v 0.10497856 -0.01031172 0.49159044
v 0.08497369 -0.01229288 0.45549631
v 0.08497369 -0.00906469 0.49680290
v 0.07497124 -0.00909629 0.49685377
v 0.08497369 -0.00406440 0.50260276
v 0.07497124 -0.00409600 0.50263512
v 0.04499528 0.00416893 0.50270915
v 0.05499772 0.00414948 0.50269061
v 0.05499772 0.00914977 0.49694628
v 0.06496880 0.01234879 0.45549631
v 0.09497612 0.01032874 0.49171993
v 0.09497612 0.01089513 0.48499969
v 0.09497612 -0.01226127 0.45549631
v 0.10497856 -0.01221995 0.45549631
v 0.11498100 -0.01081977 0.48499969
v 0.11498100 -0.01028984 0.49142855
v 0.09497612 -0.00901121 0.49671963
v 0.09497612 -0.00401092 0.50255185
v 0.08497369 0.00406683 0.50260276
v 0.07497124 0.00409600 0.50263512
v 0.06496880 0.00412518 0.50266290
v 0.07497124 0.00909629 0.49685377
v 0.07497124 0.01232205 0.45549631
v 0.08497369 0.00906469 0.49680290
v 0.10497856 0.01031172 0.49159044
v 0.10497856 0.01086353 0.48499969
v 0.08450335 0.01229531 0.45549631
v 0.10548025 -0.01221752 0.45549631
v 0.11498100 -0.01127678 0.47500026
v 0.12498344 -0.01121843 0.47500026
v 0.12498344 -0.01075414 0.48499969
v 0.12498344 -0.01025581 0.49119729
v 0.10497856 -0.00893585 0.49659014
v 0.11498100 -0.00383104 0.50238997
v 0.10497856 -0.00393557 0.50248247
v 0.09497612 0.00401092 0.50255185
v 0.09497612 0.00901121 0.49671963
v 0.11498100 0.01028741 0.49141929
v 0.10447687 0.01221995 0.45549631
v 0.09447443 0.01226371 0.45549631
v 0.11498100 0.01081491 0.48499969
v 0.11498100 0.01127678 0.47500026
v 0.11548269 -0.01215675 0.45549631
v 0.12498344 -0.01209111 0.45549631
v 0.12548514 -0.01208625 0.45549631
v 0.13498588 -0.01112120 0.47500026
v 0.13498588 -0.01062773 0.48499969
v 0.13498588 -0.01018532 0.49078104
v 0.11498100 -0.00883133 0.49642825
v 0.11498100 0.00383104 0.50238997
v 0.12498344 -0.00366574 0.50225586
v 0.10497856 0.00393557 0.50248247
v 0.10497856 0.00893585 0.49659014
v 0.12498344 0.01025338 0.49118343
v 0.10497856 0.01221752 0.45549631
v 0.12498344 0.01074685 0.48499969
v 0.12498344 0.01121357 0.47500026
v 0.11498100 0.01215675 0.45549631
v 0.13498588 -0.01198902 0.45549631
v 0.13548757 -0.01197929 0.45549631
v 0.14498831 -0.01178969 0.45549631
v 0.14498831 -0.01135699 0.46500084
v 0.14498831 -0.01089513 0.47500026
v 0.14062989 -0.01009294 0.49033701
v 0.12498344 -0.00866603 0.49619702
v 0.11498100 0.00883133 0.49641901
v 0.12498344 0.00366574 0.50225586
v 0.13498588 -0.00314311 0.50185347
v 0.13498588 0.01018532 0.49077642
v 0.13498588 0.01062773 0.48499969
v 0.13498588 0.01111634 0.47500026
v 0.12498344 0.01208868 0.45549631
v 0.14530188 -0.01175079 0.45549631
v 0.15075774 -0.01036520 0.47500026
v 0.15028742 -0.01015858 0.48097587
v 0.14436121 -0.01031172 0.48458344
v 0.14730863 -0.00936855 0.48764062
v 0.14461204 -0.00559099 0.49467537
v 0.13498588 -0.00814339 0.49578074
v 0.12498344 0.00866603 0.49618313
v 0.13498588 0.00314311 0.50185347
v 0.14194682 -0.00181342 0.50102097
v 0.14062989 0.01009051 0.49033239
v 0.14498831 0.01089513 0.47500026
v 0.14498831 0.01177996 0.45549631
v 0.13498588 0.01198416 0.45549631
v 0.15194926 -0.01082707 0.45549631
v 0.15671532 -0.00586324 0.45549631
v 0.15696616 -0.00559828 0.45549631
v 0.15627633 -0.00528713 0.46500084
v 0.15640175 -0.00404982 0.47420475
v 0.15314078 -0.00562016 0.48458344
v 0.15188655 -0.00270069 0.49234894
v 0.13498588 0.00814339 0.49577612
v 0.14194682 0.00181342 0.50102097
v 0.14461204 0.00559099 0.49467537
v 0.14730863 0.00936855 0.48764062
v 0.15028742 0.01015858 0.48097587
v 0.14436121 0.01031172 0.48458344
v 0.15075774 0.01036520 0.47500026
v 0.15188655 0.01081977 0.45549631
v 0.15715429 -0.00535033 0.45549631
v 0.16000766 -0.00008265 0.47033817
v 0.15188655 0.00270069 0.49234894
v 0.15314078 0.00562016 0.48458344
v 0.15640175 0.00404982 0.47420475
v 0.15627633 0.00528470 0.46500084
v 0.15690345 0.00557154 0.45549631
v 0.16016443 -0.00059799 0.45549631
v 0.16010173 -0.00028684 0.46500084
v 0.16000766 0.00008265 0.47033817
v 0.16010173 0.00028441 0.46500084
v 0.16016443 0.00054451 0.45549631
f 1 2 6
f 1 6 3
f 1 3 7
f 1 7 15
f 1 15 26
f 1 26 40
f 1 40 39
f 1 39 38
f 1 38 55
f 1 55 67
f 1 67 66
f 1 66 80
f 1 80 84
f 1 84 83
f 1 83 95
f 1 95 106
f 1 106 108
f 1 108 119
f 1 119 118
f 1 118 132
f 1 132 131
f 1 131 148
f 1 148 161
f 1 161 176
f 1 176 194
f 1 194 210
f 1 210 222
f 1 222 236
f 1 236 249
f 1 249 253
f 1 253 266
f 1 266 265
f 1 265 281
f 1 281 284
f 1 284 298
f 1 298 312
f 1 312 311
f 1 311 327
f 1 327 334
f 1 334 339
f 1 339 335
f 1 335 328
f 1 328 315
f 1 315 314
f 1 314 313
f 1 313 299
f 1 299 287
f 1 287 286
f 1 286 285
f 1 285 271
f 1 271 270
f 1 270 269
f 1 269 254
f 1 254 240
f 1 240 239
f 1 239 228
f 1 228 225
f 1 225 213
f 1 213 196
f 1 196 178
f 1 178 163
f 1 163 150
f 1 150 134
f 1 134 133
f 1 133 120
f 1 120 109
f 1 109 100
f 1 100 97
f 1 97 86
f 1 86 85
f 1 85 71
f 1 71 70
f 1 70 56
f 1 56 41
f 1 41 27
f 1 27 16
f 1 16 9
f 1 9 4
f 1 4 2
f 2 5 11
f 2 11 6
f 2 4 5
f 3 6 7
f 4 8 5
f 4 9 10
f 4 10 8
f 5 8 12
f 5 12 13
f 5 13 14
f 5 14 19
f 5 19 11
f 6 11 7
f 7 11 15
f 8 10 12
f 9 16 10
f 10 16 17
f 10 17 12
f 11 18 15
f 11 19 20
f 11 20 18
f 12 17 13
f 13 17 14
f 14 17 21
f 14 21 22
f 14 22 23
f 14 23 33
f 14 33 19
f 15 18 24
f 15 24 25
f 15 25 26
f 16 27 28
f 16 28 29
f 16 29 17
f 17 29 30
f 17 30 31
f 17 31 21
f 18 20 32
f 18 32 25
f 18 25 24
f 19 33 34
f 19 34 35
f 19 35 32
f 19 32 20
f 21 31 22
f 22 31 36
f 22 36 23
f 23 36 37
f 23 37 51
f 23 51 33
f 25 32 38
f 25 38 39
f 25 39 40
f 25 40 26
f 27 41 28
f 28 42 29
f 28 41 43
f 28 43 44
f 28 44 42
f 29 42 31
f 29 31 30
f 31 42 45
f 31 45 46
f 31 46 36
f 32 35 47
f 32 47 48
f 32 48 49
f 32 49 50
f 32 50 38
f 33 51 52
f 33 52 34
f 34 52 47
f 34 47 35
f 36 46 37
f 37 46 53
f 37 53 64
f 37 64 51
f 38 50 54
f 38 54 55
f 41 56 43
f 42 44 45
f 43 56 57
f 43 57 58
f 43 58 44
f 44 59 45
f 44 58 59
f 45 59 60
f 45 60 46
f 46 60 53
f 47 49 48
f 47 52 61
f 47 61 62
f 47 62 63
f 47 63 49
f 49 63 54
f 49 54 50
f 51 64 61
f 51 61 52
f 53 60 65
f 53 65 78
f 53 78 64
f 54 66 67
f 54 67 55
f 54 63 68
f 54 68 69
f 54 69 66
f 56 70 57
f 57 70 71
f 57 71 72
f 57 72 58
f 58 73 59
f 58 72 73
f 59 73 74
f 59 74 75
f 59 75 60
f 60 75 65
f 61 64 76
f 61 76 62
f 62 76 77
f 62 77 68
f 62 68 63
f 64 78 76
f 65 75 74
f 65 74 79
f 65 79 94
f 65 94 78
f 66 69 80
f 68 77 81
f 68 81 69
f 69 81 82
f 69 82 83
f 69 83 84
f 69 84 80
f 71 85 72
f 72 85 86
f 72 86 87
f 72 87 88
f 72 88 73
f 73 88 89
f 73 89 74
f 74 90 79
f 74 89 90
f 76 78 91
f 76 91 77
f 77 91 92
f 77 92 93
f 77 93 81
f 78 94 92
f 78 92 91
f 79 90 103
f 79 103 94
f 81 95 83
f 81 83 82
f 81 93 96
f 81 96 95
f 86 97 87
f 87 98 99
f 87 99 88
f 87 97 100
f 87 100 98
f 88 99 89
f 89 101 102
f 89 102 90
f 89 99 101
f 90 102 113
f 90 113 103
f 92 94 103
f 92 103 104
f 92 104 93
f 93 104 105
f 93 105 96
f 95 96 106
f 96 105 107
f 96 107 108
f 96 108 106
f 98 100 109
f 98 109 120
f 98 120 110
f 98 110 111
f 98 111 99
f 99 111 112
f 99 112 101
f 101 112 102
f 102 112 114
f 102 114 127
f 102 127 113
f 103 113 104
f 104 113 115
f 104 115 116
f 104 116 105
f 105 116 107
f 107 116 117
f 107 117 118
f 107 118 119
f 107 119 108
f 110 120 121
f 110 121 122
f 110 122 111
f 111 122 123
f 111 123 124
f 111 124 112
f 112 124 125
f 112 125 126
f 112 126 114
f 113 127 128
f 113 128 115
f 114 126 125
f 114 125 143
f 114 143 127
f 115 128 116
f 116 128 129
f 116 129 117
f 117 129 130
f 117 130 131
f 117 131 132
f 117 132 118
f 120 133 121
f 121 133 134
f 121 134 135
f 121 135 138
f 121 138 122
f 122 136 137
f 122 137 123
f 122 138 136
f 123 137 124
f 124 137 136
f 124 136 139
f 124 139 140
f 124 140 141
f 124 141 142
f 124 142 125
f 125 142 155
f 125 155 143
f 127 143 128
f 128 143 144
f 128 144 129
f 129 144 145
f 129 145 146
f 129 146 130
f 130 146 147
f 130 147 131
f 131 147 148
f 134 149 135
f 134 150 162
f 134 162 149
f 135 149 138
f 136 138 139
f 138 149 151
f 138 151 139
f 139 151 152
f 139 152 153
f 139 153 140
f 140 153 154
f 140 154 141
f 141 154 171
f 141 171 156
f 141 156 155
f 141 155 142
f 143 155 144
f 144 155 156
f 144 156 157
f 144 157 158
f 144 158 145
f 145 158 146
f 146 158 159
f 146 159 160
f 146 160 147
f 147 160 161
f 147 161 148
f 149 162 166
f 149 166 151
f 150 163 164
f 150 164 165
f 150 165 162
f 151 166 167
f 151 167 152
f 152 167 182
f 152 182 168
f 152 168 153
f 153 169 154
f 153 168 182
f 153 182 170
f 153 170 184
f 153 184 169
f 154 169 183
f 154 183 171
f 156 171 157
f 157 171 172
f 157 172 158
f 158 173 159
f 158 172 173
f 159 174 175
f 159 175 160
f 159 173 174
f 160 175 161
f 161 175 191
f 161 191 176
f 162 165 177
f 162 177 166
f 163 178 164
f 164 178 179
f 164 179 180
f 164 180 177
f 164 177 165
f 166 177 181
f 166 181 167
f 167 170 182
f 167 181 170
f 169 184 201
f 169 201 183
f 170 181 185
f 170 185 186
f 170 186 184
f 171 183 172
f 172 187 188
f 172 188 173
f 172 183 201
f 172 201 189
f 172 189 204
f 172 204 187
f 173 188 174
f 174 188 205
f 174 205 190
f 174 190 191
f 174 191 175
f 176 191 192
f 176 192 193
f 176 193 194
f 177 180 195
f 177 195 181
f 178 196 197
f 178 197 179
f 179 197 198
f 179 198 180
f 180 198 199
f 180 199 195
f 181 195 200
f 181 200 185
f 184 186 203
f 184 203 201
f 185 202 186
f 185 200 202
f 186 202 217
f 186 217 233
f 186 233 219
f 186 219 203
f 187 204 205
f 187 205 188
f 189 201 203
f 189 203 206
f 189 206 207
f 189 207 208
f 189 208 205
f 189 205 204
f 190 205 208
f 190 208 209
f 190 209 191
f 191 209 192
f 192 209 211
f 192 211 193
f 193 210 194
f 193 211 212
f 193 212 210
f 195 199 200
f 196 213 197
f 197 214 215
f 197 215 198
f 197 213 214
f 198 215 216
f 198 216 200
f 198 200 199
f 200 217 202
f 200 216 218
f 200 218 217
f 203 219 206
f 206 219 220
f 206 220 207
f 207 220 221
f 207 221 211
f 207 211 209
f 207 209 208
f 210 212 224
f 210 224 222
f 211 221 223
f 211 223 212
f 212 223 224
f 213 225 214
f 214 226 227
f 214 227 215
f 214 225 228
f 214 228 239
f 214 239 226
f 215 229 230
f 215 230 216
f 215 227 229
f 216 230 231
f 216 231 232
f 216 232 218
f 217 218 234
f 217 234 233
f 218 232 246
f 218 246 234
f 219 233 220
f 220 233 234
f 220 234 235
f 220 235 223
f 220 223 221
f 222 224 236
f 223 237 224
f 223 235 237
f 224 237 238
f 224 238 236
f 226 239 240
f 226 240 241
f 226 241 242
f 226 242 227
f 227 242 229
f 229 242 243
f 229 243 244
f 229 244 231
f 229 231 230
f 231 245 246
f 231 246 232
f 231 244 262
f 231 262 245
f 234 246 247
f 234 247 235
f 235 247 246
f 235 246 245
f 235 245 248
f 235 248 237
f 236 238 249
f 237 248 250
f 237 250 251
f 237 251 238
f 238 251 252
f 238 252 253
f 238 253 249
f 240 254 241
f 241 254 255
f 241 255 256
f 241 256 257
f 241 257 258
f 241 258 242
f 242 258 243
f 243 258 259
f 243 259 260
f 243 260 261
f 243 261 244
f 244 261 278
f 244 278 262
f 245 250 248
f 245 262 250
f 250 262 263
f 250 263 264
f 250 264 251
f 251 264 252
f 252 265 266
f 252 266 253
f 252 264 267
f 252 267 268
f 252 268 265
f 254 269 256
f 254 256 255
f 256 269 270
f 256 270 271
f 256 271 272
f 256 272 257
f 257 272 273
f 257 273 274
f 257 274 258
f 258 275 259
f 258 274 275
f 259 275 260
f 260 276 278
f 260 278 261
f 260 275 277
f 260 277 293
f 260 293 276
f 262 278 263
f 263 278 276
f 263 276 279
f 263 279 280
f 263 280 264
f 264 280 267
f 265 268 281
f 267 280 282
f 267 282 283
f 267 283 268
f 268 283 284
f 268 284 281
f 271 285 272
f 272 285 286
f 272 286 287
f 272 287 288
f 272 288 289
f 272 289 273
f 273 289 290
f 273 290 274
f 274 290 291
f 274 291 275
f 275 291 277
f 276 292 279
f 276 293 292
f 277 291 294
f 277 294 307
f 277 307 293
f 279 292 280
f 280 292 295
f 280 295 282
f 282 295 296
f 282 296 297
f 282 297 283
f 283 297 298
f 283 298 284
f 287 299 300
f 287 300 301
f 287 301 288
f 288 301 289
f 289 301 302
f 289 302 290
f 290 302 301
f 290 301 303
f 290 303 304
f 290 304 305
f 290 305 291
f 291 305 294
f 292 293 306
f 292 306 295
f 293 307 306
f 294 305 308
f 294 308 321
f 294 321 307
f 295 306 309
f 295 309 296
f 296 309 310
f 296 310 297
f 297 310 311
f 297 311 312
f 297 312 298
f 299 313 300
f 300 313 314
f 300 314 315
f 300 315 316
f 300 316 317
f 300 317 301
f 301 317 318
f 301 318 319
f 301 319 303
f 303 319 304
f 304 308 305
f 304 319 308
f 306 307 320
f 306 320 309
f 307 321 320
f 308 319 330
f 308 330 321
f 309 322 323
f 309 323 324
f 309 324 325
f 309 325 310
f 309 320 322
f 310 324 311
f 310 325 324
f 311 324 326
f 311 326 327
f 315 328 329
f 315 329 317
f 315 317 316
f 317 329 318
f 318 329 319
f 319 329 337
f 319 337 330
f 320 321 322
f 321 330 322
f 322 330 323
f 323 330 324
f 324 330 331
f 324 331 332
f 324 332 326
f 326 332 333
f 326 333 334
f 326 334 327
f 328 335 336
f 328 336 329
f 329 336 338
f 329 338 337
f 330 337 331
f 331 337 332
f 332 337 333
f 333 337 334
f 334 337 338
f 334 338 339
f 335 339 338
f 335 338 336

