# https://github.com/mikedh/trimesh
v 0.07439697 0.09021379 0.32541519
v 0.08987337 0.13014831 0.32988977
v 0.09596616 0.13159585 0.32541519
v 0.07444466 0.09020501 0.32541519
v 0.00174851 0.09020501 0.39262748
v 0.00174851 0.12523983 0.40292758
v 0.10457475 0.13432863 0.32541519
v 0.00174851 0.12851654 0.40518439
v 0.01219329 0.13350835 0.40518439
v 0.04514920 0.13330220 0.37504154
v 0.05535551 0.13302584 0.36523342
v 0.12354467 0.09020501 0.32541519
v 0.00174851 0.09020501 0.40518439
v 0.08499675 0.13473219 0.34500024
v 0.11331451 0.13251701 0.32541519
v 0.01377908 0.13410492 0.40518439
v 0.12300812 0.09355628 0.32541519
v 0.12081425 0.09020501 0.32832798
v 0.04200146 0.09020501 0.40518439
v 0.07499313 0.13489009 0.35500360
v 0.10428859 0.13249947 0.33434093
v 0.11057216 0.13088962 0.33056915
v 0.11371990 0.13224943 0.32541519
v 0.06498951 0.13497344 0.36500695
v 0.05500974 0.13501731 0.37499470
v 0.02656082 0.13421458 0.40518439
v 0.12166080 0.10131159 0.32541519
v 0.11959808 0.09020501 0.32960084
v 0.04316993 0.09020501 0.40410674
v 0.04110721 0.09500383 0.40518439
v 0.09422536 0.13237226 0.34428960
v 0.02768161 0.13381103 0.40518439
v 0.03322593 0.13254772 0.40311497
v 0.10048507 0.13075803 0.34047881
v 0.11133525 0.12499858 0.33131883
v 0.11633110 0.12499858 0.32642257
v 0.11735649 0.12499858 0.32541519
v 0.11708226 0.12604256 0.32541519
v 0.12015846 0.10974678 0.32541519
v 0.11916883 0.09500383 0.32916355
v 0.11069139 0.09020501 0.33869836
v 0.04380187 0.09020501 0.40352106
v 0.04333686 0.09500383 0.40311497
v 0.03514557 0.12575306 0.40514532
v 0.03518134 0.12531002 0.40518439
v 0.03215284 0.13137214 0.40518439
v 0.03989103 0.12940261 0.39988205
v 0.04999004 0.12994215 0.38998801
v 0.06010097 0.13015270 0.38008618
v 0.08028706 0.13047291 0.36029029
v 0.10122432 0.12499858 0.34120506
v 0.08413827 0.09500383 0.36404645
v 0.08913413 0.09500383 0.35915798
v 0.08962298 0.09020501 0.35964215
v 0.10923675 0.09500383 0.33924499
v 0.10968983 0.09020501 0.33970571
v 0.11860844 0.11820392 0.32541519
v 0.09075569 0.09020501 0.35852545
v 0.09920929 0.09500383 0.34923273
v 0.09968622 0.09020501 0.34970126
v 0.10067585 0.09020501 0.34871733
v 0.04879772 0.09020501 0.39885905
v 0.04834463 0.09500383 0.39842176
v 0.03508596 0.12577938 0.40518439
v 0.03510980 0.12566972 0.40518439
v 0.05362664 0.09500383 0.39342397
v 0.05862249 0.09500383 0.38867611
v 0.06882881 0.09500383 0.37887576
v 0.07400350 0.09500383 0.37387800
v 0.07901128 0.09500383 0.36903641
v 0.08095476 0.12499858 0.36093065
v 0.08595061 0.12499858 0.35607344
v 0.09108954 0.12499858 0.35107565
v 0.08089515 0.09020501 0.36816180
v 0.05155199 0.09020501 0.39625865
v 0.05452088 0.09020501 0.39345521
v 0.05909942 0.09020501 0.38912901
v 0.06120984 0.09020501 0.38711429
v 0.06931765 0.09020501 0.37934431
v 0.07104653 0.09020501 0.37768099
v 0.07950012 0.09020501 0.36951277
f 1 2 3
f 1 3 7
f 1 7 15
f 1 15 23
f 1 23 38
f 1 38 37
f 1 37 57
f 1 57 39
f 1 39 27
f 1 27 17
f 1 17 12
f 1 12 4
f 1 4 5
f 1 5 6
f 1 6 2
f 2 6 3
f 3 6 8
f 3 8 9
f 3 9 10
f 3 10 11
f 3 11 7
f 4 12 18
f 4 18 28
f 4 28 41
f 4 41 56
f 4 56 61
f 4 61 60
f 4 60 58
f 4 58 54
f 4 54 74
f 4 74 81
f 4 81 80
f 4 80 79
f 4 79 78
f 4 78 77
f 4 77 76
f 4 76 75
f 4 75 62
f 4 62 42
f 4 42 29
f 4 29 19
f 4 19 13
f 4 13 5
f 5 13 8
f 5 8 6
f 7 14 15
f 7 11 10
f 7 10 16
f 7 16 14
f 8 13 19
f 8 19 30
f 8 30 45
f 8 45 65
f 8 65 64
f 8 64 46
f 8 46 32
f 8 32 26
f 8 26 16
f 8 16 9
f 9 16 10
f 12 17 18
f 14 20 15
f 14 16 20
f 15 21 22
f 15 22 23
f 15 20 24
f 15 24 25
f 15 25 21
f 16 26 25
f 16 25 24
f 16 24 20
f 17 27 18
f 18 27 28
f 19 29 30
f 21 31 22
f 21 25 26
f 21 26 32
f 21 32 33
f 21 33 31
f 22 34 35
f 22 35 36
f 22 36 37
f 22 37 38
f 22 38 23
f 22 31 33
f 22 33 34
f 27 39 40
f 27 40 28
f 28 40 41
f 29 42 30
f 30 42 43
f 30 43 44
f 30 44 45
f 32 46 33
f 33 46 47
f 33 47 48
f 33 48 49
f 33 49 50
f 33 50 34
f 34 50 51
f 34 51 35
f 35 51 52
f 35 52 53
f 35 53 36
f 36 53 54
f 36 54 37
f 37 55 56
f 37 56 41
f 37 41 57
f 37 54 58
f 37 58 59
f 37 59 60
f 37 60 61
f 37 61 55
f 39 57 41
f 39 41 40
f 42 62 43
f 43 62 63
f 43 63 44
f 44 47 64
f 44 64 65
f 44 65 45
f 44 63 66
f 44 66 67
f 44 67 47
f 46 64 47
f 47 67 68
f 47 68 69
f 47 69 70
f 47 70 48
f 48 70 71
f 48 71 72
f 48 72 73
f 48 73 51
f 48 51 49
f 49 51 50
f 51 73 52
f 52 70 74
f 52 74 54
f 52 54 53
f 52 73 70
f 55 61 56
f 58 60 59
f 62 75 63
f 63 75 76
f 63 76 77
f 63 77 66
f 66 77 67
f 67 77 78
f 67 78 79
f 67 79 68
f 68 79 80
f 68 80 69
f 69 80 81
f 69 81 70
f 70 81 74
f 70 73 72
f 70 72 71

