# https://github.com/mikedh/trimesh
v -0.11351397 0.09020501 0.32593137
v -0.10966624 0.09020501 0.32967874
v -0.11351397 0.11499635 0.32593137
v -0.07352471 0.09020501 0.32593137
v -0.10966624 0.11499635 0.32967874
v -0.08936696 0.09020501 0.34939307
v -0.11350268 0.11753618 0.32593137
v -0.10465630 0.12499640 0.33453557
v -0.07336675 0.09020932 0.32593137
v -0.07343445 0.09020501 0.32597017
v -0.08936696 0.12499640 0.34939307
v -0.05392502 0.09020501 0.38380200
v -0.11343499 0.12499640 0.32593137
v -0.09301157 0.13251258 0.34293026
v -0.03241839 0.13234469 0.40233704
v -0.04251725 0.13238344 0.39243722
v -0.09064201 0.12499640 0.32593137
v -0.08914129 0.13095854 0.32922098
v 0.00173722 0.12524177 0.40292671
v 0.00173722 0.09020501 0.39263117
v -0.05392502 0.12499640 0.38380200
v -0.04617315 0.09020501 0.39132774
v -0.10581852 0.13344672 0.32593137
v -0.10311045 0.13252980 0.33302265
v -0.05261612 0.13241357 0.38252962
v -0.06270370 0.13244370 0.37262976
v -0.02587387 0.13402787 0.40518442
v -0.03362574 0.12499640 0.40350860
v -0.03188805 0.12499640 0.40518442
v -0.09483953 0.13245662 0.32593137
v 0.00173722 0.12851772 0.40518442
v 0.00173722 0.09020501 0.40518442
v -0.03362574 0.09020501 0.40350860
v -0.09555040 0.13267186 0.32593137
v -0.09579864 0.13360170 0.33581570
v -0.03450586 0.13392025 0.38445371
v -0.04471756 0.13376528 0.37464699
v -0.05491798 0.13358016 0.36484024
v -0.06509583 0.13336062 0.35501799
v -0.03545368 0.13412258 0.39545527
v -0.04550742 0.13408384 0.38551664
v -0.05557243 0.13402787 0.37557802
v -0.06562616 0.13395038 0.36563161
v -0.07567989 0.13385567 0.35570073
v -0.08574491 0.13373944 0.34576210
v -0.02536610 0.13415271 0.40518442
v -0.03237325 0.09020501 0.40471891
v -0.03188805 0.09020501 0.40518442
v -0.07529625 0.13311094 0.34519574
v -0.01066351 0.13344242 0.40518442
v -0.02428287 0.13405800 0.39425272
v -0.01402604 0.13417853 0.40402064
v -0.01417273 0.13418284 0.40518442
f 1 2 5
f 1 5 3
f 1 3 7
f 1 7 13
f 1 13 23
f 1 23 34
f 1 34 30
f 1 30 17
f 1 17 9
f 1 9 4
f 1 4 10
f 1 10 20
f 1 20 32
f 1 32 48
f 1 48 47
f 1 47 33
f 1 33 22
f 1 22 12
f 1 12 6
f 1 6 2
f 2 6 11
f 2 11 5
f 3 5 8
f 3 8 7
f 4 9 10
f 5 11 8
f 6 12 21
f 6 21 11
f 7 8 13
f 8 14 13
f 8 11 15
f 8 15 16
f 8 16 14
f 9 17 18
f 9 18 19
f 9 19 20
f 9 20 10
f 11 21 15
f 12 22 21
f 13 14 24
f 13 24 23
f 14 16 25
f 14 25 26
f 14 26 27
f 14 27 24
f 15 21 28
f 15 28 29
f 15 29 27
f 15 27 16
f 16 27 25
f 17 30 18
f 18 30 31
f 18 31 19
f 19 31 32
f 19 32 20
f 21 22 28
f 22 33 28
f 23 24 35
f 23 35 36
f 23 36 37
f 23 37 38
f 23 38 39
f 23 39 34
f 24 27 40
f 24 40 41
f 24 41 42
f 24 42 43
f 24 43 44
f 24 44 45
f 24 45 35
f 25 27 26
f 27 46 40
f 27 29 48
f 27 48 32
f 27 32 31
f 27 31 50
f 27 50 53
f 27 53 46
f 28 33 47
f 28 47 29
f 29 47 48
f 30 34 49
f 30 49 39
f 30 39 31
f 31 39 38
f 31 38 50
f 34 39 49
f 35 45 51
f 35 51 36
f 36 51 52
f 36 52 50
f 36 50 37
f 37 50 38
f 40 46 53
f 40 53 41
f 41 53 52
f 41 52 42
f 42 52 43
f 43 52 44
f 44 52 45
f 45 52 51
f 50 52 53

