# https://github.com/mikedh/trimesh
v 0.00349278 0.12498045 0.50263667
v 0.00776948 0.12498045 0.49499637
v 0.00233090 0.13217863 0.50174958
v -0.00269566 0.12498045 0.50263667
v 0.00349278 -0.12497578 0.50263667
v 0.03507772 0.12575646 0.40520170
v 0.00388831 0.13348983 0.49499637
v 0.00776948 -0.12497578 0.49499637
v 0.05221747 -0.00498823 0.40520170
v 0.05218451 0.00172829 0.40520170
v 0.05216803 0.00496614 0.40520170
v 0.05178074 0.01494726 0.40520170
v 0.05117920 0.02495514 0.40520170
v 0.05029749 0.03496303 0.40520170
v 0.04916858 0.04497091 0.40520170
v 0.04788309 0.05495203 0.40520170
v 0.04639161 0.06495991 0.40520170
v 0.04480948 0.07445937 0.40520170
v 0.04297189 0.08494892 0.40520170
v 0.04110136 0.09495681 0.40520170
v -0.00178923 0.13217863 0.50174958
v -0.00603297 0.12498045 0.49499637
v -0.00269566 -0.12497578 0.50263667
v 0.00233090 -0.13220072 0.50174958
v 0.03214419 0.13132234 0.40520170
v -0.00301703 0.13348983 0.49499637
v 0.02767796 0.13381094 0.40520170
v 0.02654904 0.13421232 0.40520170
v 0.00500075 0.13608545 0.42500344
v 0.00388831 -0.13372599 0.49499637
v 0.03500356 -0.12559123 0.40520170
v 0.04026909 -0.09992931 0.40520170
v 0.04126616 -0.09497889 0.40520170
v 0.04272469 -0.08767367 0.40520170
v 0.04324383 -0.08499777 0.40520170
v 0.04493308 -0.07573914 0.40520170
v 0.04499076 -0.07541803 0.40520170
v 0.04674594 -0.06498200 0.40520170
v 0.04707555 -0.06281452 0.40520170
v 0.04825391 -0.05497412 0.40520170
v 0.04873184 -0.05130813 0.40520170
v 0.04953939 -0.04499299 0.40520170
v 0.05058590 -0.03498511 0.40520170
v 0.05107208 -0.02920516 0.40520170
v 0.05142641 -0.02497723 0.40520170
v 0.05195379 -0.01499611 0.40520170
v -0.03188269 0.12498045 0.40520170
v -0.03195685 0.01831890 0.40520170
v -0.03196509 -0.00161659 0.40520170
v -0.00603297 -0.12497578 0.49499637
v -0.00178923 -0.13220072 0.50174958
v -0.00499470 0.13579111 0.41500717
v -0.02538112 0.13410528 0.40541154
v -0.02586729 0.13402501 0.40520170
v -0.02364242 0.13413204 0.40520170
v 0.00500075 0.13568407 0.41500717
v -0.00301703 -0.13372599 0.49499637
v 0.00437449 -0.13426116 0.48499057
v 0.02584038 -0.13501042 0.40585029
v 0.02756260 -0.13452876 0.40520170
v -0.03196509 -0.00498823 0.40520170
v -0.03188269 -0.12497578 0.40520170
v -0.03058073 -0.12917694 0.40520170
v -0.02536464 0.13410528 0.40520170
v -0.02586729 -0.13484986 0.40520170
v -0.02559536 -0.13498366 0.40520170
v -0.00341257 -0.13426116 0.48499057
v 0.00500075 -0.13728493 0.42500344
v 0.00500075 -0.13709763 0.41500717
v 0.02576622 -0.13498366 0.40520170
v -0.01500662 -0.13645540 0.40520170
v -0.02538112 -0.13501042 0.40541154
v -0.01480061 -0.13648216 0.40520170
v -0.00499470 -0.13720466 0.41500717
f 1 2 3
f 1 3 21
f 1 21 4
f 1 4 23
f 1 23 5
f 1 5 8
f 1 8 2
f 2 6 7
f 2 7 3
f 2 8 9
f 2 9 10
f 2 10 11
f 2 11 12
f 2 12 13
f 2 13 14
f 2 14 15
f 2 15 16
f 2 16 17
f 2 17 18
f 2 18 19
f 2 19 20
f 2 20 6
f 3 7 26
f 3 26 21
f 4 21 22
f 4 22 50
f 4 50 23
f 5 23 51
f 5 51 24
f 5 24 8
f 6 25 7
f 6 20 19
f 6 19 18
f 6 18 17
f 6 17 16
f 6 16 15
f 6 15 14
f 6 14 13
f 6 13 12
f 6 12 11
f 6 11 10
f 6 10 9
f 6 9 46
f 6 46 45
f 6 45 44
f 6 44 43
f 6 43 42
f 6 42 41
f 6 41 40
f 6 40 39
f 6 39 38
f 6 38 37
f 6 37 36
f 6 36 35
f 6 35 34
f 6 34 33
f 6 33 32
f 6 32 31
f 6 31 60
f 6 60 70
f 6 70 73
f 6 73 71
f 6 71 66
f 6 66 65
f 6 65 63
f 6 63 62
f 6 62 61
f 6 61 49
f 6 49 48
f 6 48 47
f 6 47 54
f 6 54 64
f 6 64 55
f 6 55 28
f 6 28 27
f 6 27 25
f 7 25 27
f 7 27 28
f 7 28 29
f 7 29 26
f 8 24 30
f 8 30 31
f 8 31 32
f 8 32 33
f 8 33 34
f 8 34 35
f 8 35 36
f 8 36 37
f 8 37 38
f 8 38 39
f 8 39 40
f 8 40 41
f 8 41 42
f 8 42 43
f 8 43 44
f 8 44 45
f 8 45 46
f 8 46 9
f 21 26 47
f 21 47 22
f 22 47 48
f 22 48 49
f 22 49 61
f 22 61 50
f 23 50 51
f 24 51 57
f 24 57 30
f 26 29 52
f 26 52 53
f 26 53 54
f 26 54 47
f 28 55 52
f 28 52 56
f 28 56 29
f 29 56 52
f 30 57 67
f 30 67 58
f 30 58 59
f 30 59 60
f 30 60 31
f 50 62 63
f 50 63 51
f 50 61 62
f 51 63 57
f 52 55 64
f 52 64 53
f 53 64 54
f 57 63 65
f 57 65 66
f 57 66 67
f 58 67 68
f 58 68 59
f 59 68 69
f 59 69 70
f 59 70 60
f 66 71 72
f 66 72 67
f 67 72 71
f 67 71 73
f 67 73 74
f 67 74 68
f 68 74 69
f 69 74 73
f 69 73 70

