# https://github.com/mikedh/trimesh
v -0.11832163 -0.09876921 0.32126346
v -0.11669746 -0.09876921 0.32285279
v -0.11832163 -0.05515476 0.32126346
v -0.08907541 -0.09876921 0.32126346
v -0.10466743 -0.05515476 0.33453396
v -0.11481567 -0.05515476 0.32467756
v -0.09951489 -0.09876921 0.33953738
v -0.09951489 -0.05515476 0.33953738
v -0.00391300 -0.05515476 0.32126346
v -0.08474056 -0.09876921 0.32494572
v -0.00391300 -0.09381215 0.32126346
v -0.05580797 -0.09876921 0.38197163
v -0.05900030 -0.05515476 0.37887147
v -0.00391300 -0.05515476 0.38808039
v -0.01396044 -0.09876921 0.38774684
v -0.00391300 -0.08618656 0.38808039
v -0.00545876 -0.08819329 0.38808039
v -0.01362441 -0.09876921 0.38808039
v -0.04951292 -0.09876921 0.38808039
v -0.04951292 -0.05515476 0.38808039
f 1 2 3
f 1 3 9
f 1 9 11
f 1 11 4
f 1 4 10
f 1 10 15
f 1 15 18
f 1 18 19
f 1 19 12
f 1 12 7
f 1 7 2
f 2 5 6
f 2 6 3
f 2 7 8
f 2 8 5
f 3 6 5
f 3 5 8
f 3 8 13
f 3 13 20
f 3 20 14
f 3 14 9
f 4 11 10
f 7 12 8
f 8 12 13
f 9 14 16
f 9 16 11
f 10 11 15
f 11 16 17
f 11 17 18
f 11 18 15
f 12 19 20
f 12 20 13
f 14 20 19
f 14 19 18
f 14 18 17
f 14 17 16

