# https://github.com/mikedh/trimesh
v -0.11833283 -0.10500125 0.32126346
v -0.11613938 -0.09877274 0.32339564
v -0.11833283 -0.09877274 0.32126346
v -0.11832257 -0.11500149 0.32126346
v -0.09951431 -0.12499821 0.33953738
v -0.08625114 -0.09877274 0.35241547
v -0.08908007 -0.09877274 0.32126346
v -0.11831233 -0.12202889 0.32126346
v -0.10465967 -0.12499821 0.33453396
v -0.05261149 -0.13282803 0.38253412
v -0.04921882 -0.12589961 0.38808039
v -0.04951607 -0.12499821 0.38808039
v -0.05580940 -0.09877274 0.38197163
v -0.08474442 -0.09877274 0.32494572
v -0.09302621 -0.12499821 0.32126346
v -0.11829183 -0.12499821 0.32126346
v -0.06271773 -0.13283156 0.37263191
v -0.04292548 -0.13488181 0.38808039
v -0.04440144 -0.13410413 0.38808039
v -0.04951607 -0.09877274 0.38808039
v -0.01395971 -0.09877274 0.38774684
v -0.09427668 -0.12924010 0.32126346
v -0.11386394 -0.13312143 0.32126346
v -0.11317720 -0.13271844 0.32306206
v -0.10310171 -0.13283509 0.33302313
v -0.09300572 -0.13283509 0.34292534
v -0.05557366 -0.13475455 0.37557510
v -0.04550841 -0.13485706 0.38551655
v -0.10550015 -0.13457781 0.32126346
v -0.03045155 -0.13478282 0.38808039
v -0.01362147 -0.09877274 0.38808039
v -0.02213901 -0.12762111 0.38808039
v -0.09542465 -0.13278560 0.32126346
v -0.11049177 -0.13418189 0.32126346
v -0.09925806 -0.13402990 0.32126346
v -0.03035930 -0.13474041 0.38808039
v -0.02654640 -0.13288459 0.38808039
v -0.02688464 -0.13259472 0.38721052
f 1 2 3
f 1 3 7
f 1 7 15
f 1 15 22
f 1 22 33
f 1 33 35
f 1 35 29
f 1 29 34
f 1 34 23
f 1 23 16
f 1 16 8
f 1 8 4
f 1 4 5
f 1 5 2
f 2 5 6
f 2 6 13
f 2 13 20
f 2 20 31
f 2 31 21
f 2 21 14
f 2 14 7
f 2 7 3
f 4 8 5
f 5 8 9
f 5 9 10
f 5 10 11
f 5 11 12
f 5 12 13
f 5 13 6
f 7 14 15
f 8 16 9
f 9 16 10
f 10 17 18
f 10 18 19
f 10 19 11
f 10 16 17
f 11 19 18
f 11 18 30
f 11 30 36
f 11 36 37
f 11 37 32
f 11 32 31
f 11 31 20
f 11 20 12
f 12 20 13
f 14 21 15
f 15 21 22
f 16 23 24
f 16 24 25
f 16 25 26
f 16 26 17
f 17 26 18
f 18 26 25
f 18 25 23
f 18 23 27
f 18 27 28
f 18 28 29
f 18 29 30
f 21 31 32
f 21 32 22
f 22 32 33
f 23 25 24
f 23 34 27
f 27 34 29
f 27 29 28
f 29 35 30
f 30 35 33
f 30 33 36
f 32 37 38
f 32 38 33
f 33 38 37
f 33 37 36

