# https://github.com/mikedh/trimesh
v 0.10973521 0.13465974 0.32025310
v 0.10499862 0.13385037 0.32025310
v 0.10457703 0.13432902 0.32541516
v 0.11330624 0.13251881 0.32541516
v 0.11463298 0.13362844 0.32025310
v 0.09597183 0.13125253 0.32025310
v 0.09597183 0.13159630 0.32541516
v 0.11371543 0.13225336 0.32541516
v 0.12067151 0.13100885 0.32065690
v 0.12090710 0.13112198 0.32025310
v 0.11852641 0.13258843 0.32025310
v 0.00174850 0.09363398 0.32025310
v 0.00174850 0.09020501 0.32359695
v 0.07439680 0.09021372 0.32541516
v 0.11708807 0.12604381 0.32541516
v 0.12142788 0.12499945 0.32141539
v 0.12260582 0.12499945 0.32025310
v 0.00174850 0.09020501 0.32025310
v 0.07444640 0.09020501 0.32541516
v 0.11734846 0.12499945 0.32541516
v 0.11861320 0.11820244 0.32541516
v 0.12015073 0.10974751 0.32541516
v 0.12166347 0.10131434 0.32541516
v 0.12373417 0.11851139 0.32025310
v 0.12842116 0.09020501 0.32025310
v 0.12354818 0.09020501 0.32541516
v 0.12295301 0.09389507 0.32541516
v 0.12518491 0.10995638 0.32025310
v 0.12803677 0.09261138 0.32025310
v 0.12711921 0.09020501 0.32163978
v 0.12765239 0.09500034 0.32025310
v 0.12661085 0.10137962 0.32025310
f 1 2 3
f 1 3 4
f 1 4 5
f 1 5 11
f 1 11 10
f 1 10 17
f 1 17 24
f 1 24 28
f 1 28 32
f 1 32 31
f 1 31 29
f 1 29 25
f 1 25 18
f 1 18 12
f 1 12 6
f 1 6 2
f 2 6 3
f 3 6 7
f 3 7 14
f 3 14 19
f 3 19 26
f 3 26 27
f 3 27 23
f 3 23 22
f 3 22 21
f 3 21 20
f 3 20 15
f 3 15 8
f 3 8 4
f 4 8 9
f 4 9 10
f 4 10 11
f 4 11 5
f 6 12 7
f 7 12 13
f 7 13 14
f 8 15 9
f 9 15 16
f 9 16 17
f 9 17 10
f 12 18 13
f 13 19 14
f 13 18 25
f 13 25 30
f 13 30 26
f 13 26 19
f 15 20 16
f 16 20 21
f 16 21 17
f 17 21 22
f 17 22 23
f 17 23 24
f 23 27 24
f 24 27 28
f 25 29 30
f 26 30 27
f 27 30 31
f 27 31 32
f 27 32 28
f 29 31 30

