# https://github.com/mikedh/trimesh
v 0.06676324 -0.05515050 0.38808262
v 0.06227894 -0.05515050 0.39229175
v 0.06157329 -0.06500895 0.39149782
v 0.06520398 -0.06500895 0.38808262
v -0.04950982 -0.05515050 0.38808262
v 0.06067415 -0.05515050 0.39377910
v 0.05689550 -0.05515846 0.39728475
v 0.06067415 -0.05515846 0.39378077
v 0.06013922 -0.05864634 0.39377910
v 0.05913766 -0.06500895 0.39378077
v 0.06070830 -0.07500277 0.39067876
v 0.06462352 -0.06836146 0.38808262
v 0.05828404 -0.06993817 0.39377910
v -0.04950982 -0.05658387 0.38808262
v -0.04363699 -0.05515846 0.39378077
v -0.04363699 -0.05515050 0.39377910
v 0.04822282 -0.05515846 0.40519214
v 0.05191042 -0.05515846 0.40187073
v 0.05364040 -0.06086808 0.39948228
v 0.05621262 -0.06500895 0.39649752
v 0.05199009 -0.07102913 0.39948228
v 0.05151207 -0.07380033 0.39948228
v 0.06017337 -0.08087962 0.39016625
v 0.06345123 -0.07500277 0.38808262
v 0.05054465 -0.07922328 0.39948228
v -0.04949845 -0.12499578 0.38808262
v -0.04875865 -0.12499578 0.38880283
v -0.04363699 -0.12499578 0.39377910
v -0.03186855 -0.12498783 0.40519214
v -0.03186855 -0.05515846 0.40519214
v 0.04706192 -0.06282703 0.40519214
v 0.04673185 -0.06500098 0.40519214
v 0.05121616 -0.06500098 0.40112874
v 0.05053326 -0.07307567 0.40050566
v 0.05950186 -0.08754482 0.38953143
v 0.06120908 -0.08662109 0.38808262
v 0.06205131 -0.08236077 0.38808262
v 0.06289354 -0.07798897 0.38808262
v 0.04942926 -0.08501253 0.39947724
v 0.05570045 -0.08453473 0.39368194
v 0.04497911 -0.07543278 0.40519214
v 0.04323775 -0.08502048 0.40519214
v 0.04443280 -0.08502048 0.40409172
v -0.04920252 -0.12588766 0.38808262
v -0.04251023 -0.13281566 0.39243746
v -0.03240348 -0.13281566 0.40233806
v -0.03057107 -0.12920037 0.40519214
v 0.05871654 -0.09500635 0.38878107
v 0.04842769 -0.09500635 0.39852253
v 0.03499756 -0.12558506 0.40519214
v 0.05944496 -0.09500635 0.38808262
v 0.04271420 -0.08769612 0.40519214
v 0.04126875 -0.09500635 0.40519214
v 0.04341985 -0.09500635 0.40319395
v -0.04438817 -0.13409773 0.38808262
v -0.03713817 -0.13492590 0.39377910
v -0.02558598 -0.13499758 0.40519214
v -0.02585914 -0.13485424 0.40519214
v 0.04025580 -0.12893757 0.39948228
v 0.02755408 -0.13455164 0.40519214
v 0.03315376 -0.13297492 0.40307504
v 0.03981192 -0.12916851 0.39984238
v 0.04993005 -0.12971000 0.38994515
v 0.05228601 -0.12764753 0.38808262
v -0.04290858 -0.13487017 0.38808262
v -0.01479635 -0.13650262 0.40519214
v 0.02575581 -0.13499758 0.40519214
v 0.03588532 -0.13489406 0.39590794
v 0.04164434 -0.13340494 0.39378077
v 0.04327189 -0.13298288 0.39317778
v 0.04807487 -0.13207507 0.38808262
v -0.04232812 -0.13487017 0.38808262
v 0.03512276 -0.13446404 0.38808262
v 0.04517259 -0.13424107 0.38808262
f 1 2 3
f 1 3 4
f 1 4 12
f 1 12 24
f 1 24 38
f 1 38 37
f 1 37 36
f 1 36 51
f 1 51 64
f 1 64 71
f 1 71 74
f 1 74 73
f 1 73 72
f 1 72 65
f 1 65 55
f 1 55 44
f 1 44 26
f 1 26 14
f 1 14 5
f 1 5 16
f 1 16 6
f 1 6 2
f 2 6 7
f 2 7 8
f 2 8 9
f 2 9 10
f 2 10 3
f 3 11 12
f 3 12 4
f 3 10 13
f 3 13 11
f 5 14 15
f 5 15 16
f 6 17 18
f 6 18 7
f 6 16 30
f 6 30 17
f 7 9 8
f 7 18 19
f 7 19 9
f 9 19 20
f 9 20 10
f 10 20 21
f 10 21 22
f 10 22 13
f 11 23 24
f 11 24 12
f 11 13 22
f 11 22 25
f 11 25 23
f 14 26 27
f 14 27 28
f 14 28 15
f 15 28 29
f 15 29 30
f 15 30 16
f 17 31 18
f 17 30 29
f 17 29 47
f 17 47 58
f 17 58 57
f 17 57 66
f 17 66 67
f 17 67 60
f 17 60 50
f 17 50 53
f 17 53 52
f 17 52 42
f 17 42 41
f 17 41 32
f 17 32 31
f 18 31 32
f 18 32 33
f 18 33 19
f 19 33 20
f 20 33 21
f 21 33 34
f 21 34 22
f 22 34 25
f 23 35 36
f 23 36 37
f 23 37 38
f 23 38 24
f 23 25 39
f 23 39 40
f 23 40 35
f 25 34 41
f 25 41 42
f 25 42 43
f 25 43 39
f 26 44 45
f 26 45 46
f 26 46 27
f 27 46 28
f 28 46 29
f 29 46 47
f 32 41 33
f 33 41 34
f 35 48 36
f 35 40 49
f 35 49 50
f 35 50 48
f 36 48 51
f 39 49 40
f 39 43 52
f 39 52 53
f 39 53 54
f 39 54 49
f 42 52 43
f 44 55 45
f 45 55 56
f 45 56 57
f 45 57 58
f 45 58 46
f 46 58 47
f 48 50 59
f 48 59 51
f 49 54 50
f 50 60 61
f 50 61 62
f 50 62 59
f 50 54 53
f 51 59 63
f 51 63 64
f 55 65 56
f 56 65 66
f 56 66 57
f 59 62 63
f 60 67 68
f 60 68 69
f 60 69 70
f 60 70 61
f 61 70 63
f 61 63 62
f 63 71 64
f 63 70 71
f 65 72 66
f 66 73 68
f 66 68 67
f 66 72 73
f 68 74 69
f 68 73 74
f 69 74 70
f 70 74 71

