# https://github.com/mikedh/trimesh
v -0.10541918 0.13382971 0.32025316
v -0.10585786 0.13345820 0.32582352
v -0.09554301 0.13267247 0.32593137
v -0.09554301 0.13263832 0.32553169
v -0.09554301 0.13209599 0.32025316
v -0.11422829 0.13287318 0.32025316
v -0.10582229 0.13344540 0.32593137
v -0.09484351 0.13245469 0.32593137
v 0.00174850 0.09363401 0.32025316
v -0.11888777 0.12597676 0.32025316
v -0.11316124 0.13233086 0.32304028
v -0.11343393 0.12499887 0.32593137
v -0.09064643 0.12499887 0.32593137
v 0.00174850 0.09020501 0.32359728
v 0.00174850 0.09020501 0.32025316
v -0.11932644 0.12499887 0.32025316
v -0.11350507 0.11753450 0.32593137
v -0.07337203 0.09020928 0.32593137
v -0.07352616 0.09020501 0.32593137
v -0.11936201 0.09020501 0.32025316
v -0.11937387 0.11499798 0.32025316
v -0.11351693 0.11499798 0.32593137
v -0.11351693 0.09020501 0.32593137
v -0.11480924 0.09020501 0.32467675
f 1 2 3
f 1 3 4
f 1 4 5
f 1 5 9
f 1 9 15
f 1 15 20
f 1 20 21
f 1 21 16
f 1 16 10
f 1 10 6
f 1 6 2
f 2 7 3
f 2 6 7
f 3 8 4
f 3 7 12
f 3 12 17
f 3 17 22
f 3 22 23
f 3 23 19
f 3 19 18
f 3 18 13
f 3 13 8
f 4 8 5
f 5 8 9
f 6 10 11
f 6 11 7
f 7 11 12
f 8 13 14
f 8 14 9
f 9 14 15
f 10 16 11
f 11 16 12
f 12 16 17
f 13 18 14
f 14 18 19
f 14 19 23
f 14 23 24
f 14 24 20
f 14 20 15
f 16 21 17
f 17 21 22
f 20 24 21
f 21 24 23
f 21 23 22

