# https://github.com/mikedh/trimesh
v 0.09012727 -0.09831825 0.32126346
v 0.08631122 -0.09831825 0.32463178
v 0.12619549 -0.09831825 0.32126346
v 0.09411678 -0.12499886 0.32126346
v 0.01612618 -0.09831825 0.38746560
v 0.12371288 -0.09831825 0.32390580
v 0.12503549 -0.10500310 0.32126346
v 0.09588388 -0.13183798 0.32126346
v 0.01545403 -0.09831825 0.38808039
v 0.11892114 -0.09831825 0.32890922
v 0.12147963 -0.12499886 0.32126346
v 0.10182478 -0.13390954 0.32126346
v 0.03481617 -0.13429153 0.38472515
v 0.02754182 -0.13226771 0.38808039
v 0.02762854 -0.13219425 0.38787764
v 0.02718406 -0.13183063 0.38808039
v 0.02354147 -0.12477113 0.38808039
v 0.05873156 -0.09831825 0.38808039
v 0.11392341 -0.09831825 0.33398458
v 0.12127365 -0.12587671 0.32126346
v 0.10897988 -0.09831825 0.33898801
v 0.09895190 -0.09831825 0.34897521
v 0.09395417 -0.09831825 0.35390669
v 0.11628675 -0.12499886 0.32637152
v 0.10499037 -0.13495634 0.32126346
v 0.06500853 -0.13579011 0.36499923
v 0.05500223 -0.13584153 0.37499955
v 0.03514140 -0.13447519 0.38808039
v 0.05230280 -0.12765811 0.38808039
v 0.06692740 -0.09831825 0.38021880
v 0.11956076 -0.13154781 0.32126346
v 0.11054100 -0.13108501 0.33053124
v 0.08886971 -0.09831825 0.35889703
v 0.11128902 -0.12499886 0.33127031
v 0.11454135 -0.13407482 0.32126346
v 0.10499037 -0.13522080 0.32500458
v 0.07499315 -0.13569461 0.35499895
v 0.04518022 -0.13424379 0.38808039
v 0.04597162 -0.13476534 0.38596129
v 0.11432452 -0.13303904 0.32437670
v 0.10426402 -0.13292150 0.33432469
v 0.04808563 -0.13208406 0.38808039
v 0.05500223 -0.13231179 0.38248834
v 0.06005416 -0.13009697 0.38004223
v 0.07374643 -0.09831825 0.37362605
v 0.06858608 -0.09831825 0.37862295
v 0.09420352 -0.13274521 0.34426612
v 0.09034409 -0.13072872 0.35034215
v 0.10043713 -0.13091238 0.34043998
v 0.08414301 -0.13253585 0.35420755
v 0.08721103 -0.09831825 0.36051905
v 0.08387198 -0.09831825 0.36378273
v 0.10617205 -0.12499886 0.33626717
v 0.08499945 -0.13553667 0.34500518
v 0.07014719 -0.13032103 0.37014002
v 0.10116348 -0.12499886 0.34115288
v 0.09103792 -0.12499886 0.35102236
v 0.07799613 -0.10500310 0.36805362
v 0.07874416 -0.09831825 0.36877960
v 0.07708547 -0.09831825 0.37038857
v 0.08216994 -0.09831825 0.36544400
v 0.08313479 -0.10500310 0.36305675
f 1 2 5
f 1 5 9
f 1 9 18
f 1 18 30
f 1 30 46
f 1 46 45
f 1 45 60
f 1 60 59
f 1 59 61
f 1 61 52
f 1 52 51
f 1 51 33
f 1 33 23
f 1 23 22
f 1 22 21
f 1 21 19
f 1 19 10
f 1 10 6
f 1 6 3
f 1 3 7
f 1 7 11
f 1 11 20
f 1 20 31
f 1 31 35
f 1 35 25
f 1 25 12
f 1 12 8
f 1 8 4
f 1 4 2
f 2 4 5
f 3 6 7
f 4 8 9
f 4 9 5
f 6 10 11
f 6 11 7
f 8 12 13
f 8 13 14
f 8 14 15
f 8 15 16
f 8 16 17
f 8 17 9
f 9 17 16
f 9 16 14
f 9 14 28
f 9 28 38
f 9 38 42
f 9 42 29
f 9 29 18
f 10 19 11
f 11 19 21
f 11 21 22
f 11 22 23
f 11 23 24
f 11 24 20
f 12 25 13
f 13 26 27
f 13 27 28
f 13 28 14
f 13 25 26
f 14 16 15
f 18 29 30
f 20 24 32
f 20 32 31
f 23 33 24
f 24 34 32
f 24 33 34
f 25 35 36
f 25 36 37
f 25 37 26
f 26 37 35
f 26 35 27
f 27 38 39
f 27 39 28
f 27 35 40
f 27 40 41
f 27 41 38
f 28 39 38
f 29 42 43
f 29 43 44
f 29 44 45
f 29 45 46
f 29 46 30
f 31 32 47
f 31 47 41
f 31 41 40
f 31 40 35
f 32 34 48
f 32 48 49
f 32 49 43
f 32 43 50
f 32 50 47
f 33 51 34
f 34 51 52
f 34 52 53
f 34 53 48
f 35 37 54
f 35 54 36
f 36 54 37
f 38 43 42
f 38 41 47
f 38 47 43
f 43 55 44
f 43 47 50
f 43 49 48
f 43 48 55
f 44 55 48
f 44 48 53
f 44 53 56
f 44 56 57
f 44 57 58
f 44 58 59
f 44 59 60
f 44 60 45
f 52 61 53
f 53 61 56
f 56 61 62
f 56 62 57
f 57 62 58
f 58 62 59
f 59 62 61

