# https://github.com/mikedh/trimesh
v -0.00388848 -0.09380963 0.32126346
v 0.01612134 -0.09831825 0.38746560
v 0.01545479 -0.09831825 0.38808039
v -0.00388848 -0.08618683 0.38808039
v -0.00388848 -0.05515049 0.32126346
v 0.09012169 -0.09831825 0.32126346
v 0.08630902 -0.09831825 0.32463178
v 0.05872720 -0.09831825 0.38808039
v -0.00388848 -0.05515049 0.38808039
v 0.13228762 -0.05515049 0.32126346
v 0.12619536 -0.09831825 0.32126346
v 0.06185998 -0.09831825 0.38508487
v 0.05946040 -0.09499700 0.38808039
v 0.06675246 -0.05515049 0.38808039
v 0.13170105 -0.05515049 0.32204178
v 0.13120782 -0.06499592 0.32126346
v 0.12678193 -0.09499700 0.32126346
v 0.12399574 -0.09499700 0.32423282
v 0.12370247 -0.09831825 0.32390580
v 0.06691243 -0.09831825 0.38021880
v 0.06893874 -0.09499700 0.37898266
v 0.06395295 -0.09499700 0.38377678
v 0.06965861 -0.08833761 0.37966940
v 0.06122009 -0.08660938 0.38808039
v 0.06656583 -0.05640125 0.38808039
v 0.06736568 -0.05515049 0.38751137
v 0.12736848 -0.05515049 0.32703865
v 0.13114116 -0.06500015 0.32134849
v 0.13107450 -0.06609455 0.32126346
v 0.12815502 -0.08664741 0.32126346
v 0.12038305 -0.08226978 0.33041352
v 0.11980981 -0.08893763 0.32981178
v 0.11923658 -0.09499700 0.32922968
v 0.11891664 -0.09831825 0.32890922
v 0.07203153 -0.09831825 0.37528080
v 0.07911029 -0.09499700 0.36914587
v 0.07977684 -0.08892495 0.36978683
v 0.07505766 -0.08529947 0.37505841
v 0.07032517 -0.08166976 0.38032344
v 0.06207328 -0.08235429 0.38808039
v 0.06520606 -0.06500015 0.38808039
v 0.06659248 -0.06500015 0.38676578
v 0.07255144 -0.05515049 0.38258645
v 0.12236936 -0.05515049 0.33258492
v 0.12671527 -0.06500015 0.32635191
v 0.12990138 -0.07500192 0.32126346
v 0.12891489 -0.08174582 0.32126346
v 0.12096961 -0.07500192 0.33104140
v 0.11618379 -0.07500192 0.33604482
v 0.11118466 -0.07500192 0.34121829
v 0.11050478 -0.08274727 0.34052500
v 0.10987823 -0.08941089 0.33989057
v 0.10931832 -0.09499700 0.33932811
v 0.11391751 -0.09831825 0.33398458
v 0.07708398 -0.09831825 0.37038857
v 0.07873702 -0.09831825 0.36877960
v 0.08386946 -0.09831825 0.36378273
v 0.08424272 -0.09499700 0.36414245
v 0.08985507 -0.08930525 0.35985848
v 0.08045672 -0.08225711 0.37044087
v 0.07096505 -0.07500192 0.38092518
v 0.06291313 -0.07797667 0.38808039
v 0.07596418 -0.07500192 0.37611142
v 0.06345970 -0.07500192 0.38808039
v 0.07184490 -0.06500015 0.38176888
v 0.07763055 -0.05515049 0.37772036
v 0.11770351 -0.05515049 0.33758181
v 0.12170282 -0.06500015 0.33185241
v 0.12596872 -0.07500192 0.32559323
v 0.11698364 -0.06500015 0.33685583
v 0.11198452 -0.06500015 0.34206200
v 0.10710537 -0.06500015 0.34705886
v 0.10625219 -0.07500192 0.34622172
v 0.10125307 -0.07500192 0.35127091
v 0.10054652 -0.08281487 0.35055146
v 0.09989331 -0.08947849 0.34990397
v 0.10897171 -0.09831825 0.33898801
v 0.08721554 -0.09831825 0.36051905
v 0.08924185 -0.09499700 0.35925674
v 0.09052162 -0.08264162 0.36051905
v 0.09430762 -0.09499700 0.35426641
v 0.09930675 -0.09499700 0.34932840
v 0.08113660 -0.07500192 0.37111455
v 0.09124149 -0.07500192 0.36122543
v 0.08613572 -0.07500192 0.36622229
v 0.07684402 -0.06500015 0.37696820
v 0.08280297 -0.05515049 0.37272349
v 0.11270440 -0.05515049 0.34281415
v 0.10785191 -0.05515049 0.34781101
v 0.10285279 -0.05515049 0.35288638
v 0.10210626 -0.06500015 0.35212117
v 0.09710713 -0.06500015 0.35711804
v 0.09624062 -0.07500192 0.35626125
v 0.10731867 -0.09831825 0.34063619
v 0.08886857 -0.09831825 0.35889703
v 0.09394769 -0.09831825 0.35390669
v 0.09894681 -0.09831825 0.34897521
v 0.10397259 -0.09831825 0.34397179
v 0.08201645 -0.06500015 0.37196478
v 0.08701557 -0.06500015 0.36707911
v 0.09210801 -0.06500015 0.36208221
v 0.08780210 -0.05515049 0.36784434
v 0.09780034 -0.05515049 0.35795522
v 0.09280122 -0.05515049 0.36291939
f 1 2 3
f 1 3 4
f 1 4 9
f 1 9 5
f 1 5 10
f 1 10 16
f 1 16 29
f 1 29 46
f 1 46 47
f 1 47 30
f 1 30 17
f 1 17 11
f 1 11 6
f 1 6 7
f 1 7 2
f 2 7 6
f 2 6 11
f 2 11 19
f 2 19 34
f 2 34 54
f 2 54 77
f 2 77 94
f 2 94 98
f 2 98 97
f 2 97 96
f 2 96 95
f 2 95 78
f 2 78 57
f 2 57 56
f 2 56 55
f 2 55 35
f 2 35 20
f 2 20 12
f 2 12 8
f 2 8 3
f 3 8 13
f 3 13 24
f 3 24 40
f 3 40 62
f 3 62 64
f 3 64 41
f 3 41 25
f 3 25 14
f 3 14 9
f 3 9 4
f 5 9 14
f 5 14 26
f 5 26 43
f 5 43 66
f 5 66 87
f 5 87 102
f 5 102 104
f 5 104 103
f 5 103 90
f 5 90 89
f 5 89 88
f 5 88 67
f 5 67 44
f 5 44 27
f 5 27 15
f 5 15 10
f 8 12 13
f 10 15 16
f 11 17 18
f 11 18 19
f 12 20 21
f 12 21 22
f 12 22 13
f 13 22 23
f 13 23 24
f 14 25 26
f 15 27 28
f 15 28 16
f 16 28 29
f 17 30 31
f 17 31 32
f 17 32 18
f 18 32 19
f 19 32 33
f 19 33 34
f 20 35 21
f 21 35 36
f 21 36 37
f 21 37 23
f 21 23 22
f 23 37 38
f 23 38 39
f 23 39 24
f 24 39 40
f 25 41 26
f 26 41 42
f 26 42 43
f 27 44 45
f 27 45 28
f 28 45 29
f 29 45 46
f 30 47 48
f 30 48 31
f 31 48 49
f 31 49 50
f 31 50 32
f 32 50 51
f 32 51 52
f 32 52 33
f 33 52 34
f 34 52 53
f 34 53 54
f 35 55 36
f 36 55 56
f 36 56 57
f 36 57 58
f 36 58 37
f 37 58 59
f 37 59 60
f 37 60 38
f 38 60 39
f 39 61 62
f 39 62 40
f 39 60 63
f 39 63 61
f 41 64 42
f 42 65 43
f 42 64 65
f 43 65 66
f 44 67 68
f 44 68 45
f 45 68 69
f 45 69 46
f 46 69 47
f 47 69 48
f 48 69 68
f 48 68 70
f 48 70 49
f 49 70 71
f 49 71 50
f 50 71 72
f 50 72 73
f 50 73 51
f 51 73 74
f 51 74 75
f 51 75 52
f 52 75 76
f 52 76 53
f 53 77 54
f 53 76 77
f 57 78 58
f 58 78 79
f 58 79 59
f 59 80 60
f 59 79 81
f 59 81 82
f 59 82 76
f 59 76 80
f 60 83 63
f 60 80 84
f 60 84 85
f 60 85 83
f 61 65 64
f 61 64 62
f 61 63 86
f 61 86 65
f 63 83 86
f 65 86 66
f 66 86 87
f 67 88 70
f 67 70 68
f 70 88 71
f 71 88 89
f 71 89 72
f 72 90 91
f 72 91 73
f 72 89 90
f 73 91 74
f 74 91 92
f 74 92 93
f 74 93 75
f 75 93 84
f 75 84 80
f 75 80 76
f 76 82 77
f 77 82 94
f 78 95 79
f 79 95 96
f 79 96 81
f 81 96 97
f 81 97 82
f 82 97 98
f 82 98 94
f 83 99 86
f 83 85 100
f 83 100 99
f 84 100 85
f 84 93 92
f 84 92 101
f 84 101 100
f 86 99 87
f 87 99 102
f 90 103 91
f 91 103 92
f 92 103 104
f 92 104 101
f 99 100 102
f 100 101 102
f 101 104 102

