# https://github.com/mikedh/trimesh
v 0.13497314 0.15724491 0.35320368
v 0.13497314 0.15669079 0.35500282
v 0.14498274 0.15699863 0.35320368
v -0.13497314 0.15724491 0.35320368
v 0.13497314 0.15188847 0.36137152
v 0.14498274 0.15179613 0.36132368
v 0.14498274 0.15644452 0.35500282
v -0.13497314 0.15669079 0.35500282
v 0.15355346 0.15311985 0.35500282
v 0.15374114 0.15336612 0.35320368
v -0.14498274 0.15699863 0.35320368
v 0.13497314 0.14499286 0.36542231
v 0.14498274 0.14499286 0.36532664
v -0.13497314 0.15188847 0.36137152
v 0.15161408 0.15111887 0.36084905
v -0.14498274 0.15644452 0.35500282
v -0.14498274 0.15179613 0.36132368
v 0.15843312 0.14499286 0.35500282
v 0.15774497 0.14671676 0.35320368
v -0.15202074 0.15422806 0.35320368
v -0.15355346 0.15311985 0.35500282
v 0.13497314 0.13812801 0.36905000
v 0.14498274 0.13806644 0.36900952
v -0.13497314 0.14499286 0.36542231
v 0.15205202 0.13197121 0.37102941
v -0.14498274 0.14499286 0.36532664
v 0.15364729 0.14499286 0.36261874
v -0.15161408 0.15111887 0.36084905
v 0.15871465 0.12498322 0.36500287
v 0.15974689 0.13498804 0.35500282
v 0.15865208 0.14499286 0.35320368
v 0.15399137 0.12498322 0.37282118
v -0.15374114 0.15336612 0.35320368
v -0.15843312 0.14499286 0.35500282
v 0.13497314 0.13314100 0.37162176
v -0.13497314 0.13812801 0.36905000
v 0.13497314 0.09583073 0.39079037
v 0.14498274 0.11833387 0.37914571
v -0.14498274 0.13806644 0.36900952
v 0.15217713 0.11214628 0.38111776
v 0.14498274 0.09561525 0.39079037
v -0.15205202 0.13197121 0.37102941
v -0.15364729 0.14499286 0.36261874
v 0.15408520 0.10497359 0.38289481
v 0.15446056 0.08822707 0.39079037
v 0.15511745 0.08499475 0.39079037
v 0.15614969 0.07988460 0.39079037
v 0.15743217 0.08499475 0.38499931
v 0.15934025 0.11497841 0.36500287
v 0.15974689 -0.13498804 0.35500282
v 0.15977816 0.13498804 0.35320368
v 0.15971561 0.13677351 0.35320368
v 0.15252121 0.09256762 0.39079037
v -0.15865208 0.14499286 0.35320368
v -0.15974689 0.13498804 0.35500282
v -0.15871465 0.12498322 0.36500287
v -0.15399137 0.12498322 0.37282118
v -0.13497314 0.13314100 0.37162176
v -0.13497314 0.09583073 0.39079037
v -0.14498274 0.11833387 0.37914571
v -0.14075993 0.09573838 0.39079037
v -0.15217713 0.11214628 0.38111776
v -0.15076953 0.09367585 0.39079037
v -0.14498274 0.09561525 0.39079037
v 0.15743217 -0.08499475 0.38499931
v 0.15511745 -0.08499475 0.39079037
v 0.15934025 -0.11497841 0.36500287
v 0.15977816 -0.13498804 0.35320368
v 0.15871465 -0.12498322 0.36500287
v 0.15843312 -0.14499286 0.35500282
v 0.15865208 -0.14499286 0.35320368
v -0.15977816 0.13498804 0.35320368
v -0.15974689 -0.13498804 0.35500282
v -0.15934025 0.11497841 0.36500287
v -0.15743217 0.08499475 0.38499931
v -0.15511745 0.08499475 0.39079037
v -0.15408520 0.10497359 0.38289481
v -0.15252121 0.09256762 0.39079037
v 0.15252121 -0.09256762 0.39079037
v 0.15408520 -0.10497359 0.38289481
v 0.15399137 -0.12498322 0.37282118
v 0.15364729 -0.14499286 0.36261874
v 0.15161408 -0.15111887 0.36084905
v 0.15355346 -0.15311985 0.35500282
v 0.15374114 -0.15336612 0.35320368
v -0.15977816 -0.13498804 0.35320368
v -0.15971561 -0.13677351 0.35320368
v -0.15865208 -0.14499286 0.35320368
v -0.15843312 -0.14499286 0.35500282
v -0.15871465 -0.12498322 0.36500287
v -0.15934025 -0.11497841 0.36500287
v -0.15743217 -0.08499475 0.38499931
v -0.15614969 -0.07988460 0.39079037
v 0.15217713 -0.11214628 0.38111776
v 0.15076953 -0.09367585 0.39079037
v 0.15205202 -0.13197121 0.37102941
v 0.14498274 -0.15644452 0.35500282
v 0.02546191 -0.14625500 0.39079037
v 0.01770447 -0.14933340 0.39079037
v 0.01210535 -0.15071869 0.39079037
v 0.15202074 -0.15422806 0.35320368
v 0.14498274 -0.15699863 0.35320368
v -0.15774497 -0.14671676 0.35320368
v -0.15355346 -0.15311985 0.35500282
v -0.15161408 -0.15111887 0.36084905
v -0.15364729 -0.14499286 0.36261874
v -0.15399137 -0.12498322 0.37282118
v -0.15408520 -0.10497359 0.38289481
v -0.15446056 -0.08822707 0.39079037
v -0.15511745 -0.08499475 0.39079037
v 0.00497352 -0.15151908 0.39079037
v 0.13497314 -0.15724491 0.35320368
v -0.15374114 -0.15336612 0.35320368
v -0.14498274 -0.15699863 0.35320368
v -0.14498274 -0.15644452 0.35500282
v -0.15205202 -0.13197121 0.37102941
v -0.14498274 -0.15179613 0.36132368
v -0.00966552 -0.15105732 0.39079037
v -0.01198023 -0.15068790 0.39079037
v -0.01626559 -0.14957967 0.39079037
v -0.01754807 -0.14924106 0.39079037
v -0.01817367 -0.14899477 0.39079037
v -0.15217713 -0.11214628 0.38111776
v -0.15252121 -0.09256762 0.39079037
v -0.00193936 -0.15151908 0.39079037
v -0.13497314 -0.15724491 0.35320368
v -0.00497352 -0.15148829 0.39079037
v -0.02536807 -0.14607030 0.39079037
f 1 2 7
f 1 7 3
f 1 3 10
f 1 10 19
f 1 19 31
f 1 31 52
f 1 52 51
f 1 51 68
f 1 68 71
f 1 71 85
f 1 85 101
f 1 101 102
f 1 102 112
f 1 112 126
f 1 126 114
f 1 114 113
f 1 113 103
f 1 103 88
f 1 88 87
f 1 87 86
f 1 86 72
f 1 72 54
f 1 54 33
f 1 33 20
f 1 20 11
f 1 11 4
f 1 4 8
f 1 8 2
f 2 5 6
f 2 6 7
f 2 8 14
f 2 14 5
f 3 7 9
f 3 9 10
f 4 11 16
f 4 16 8
f 5 12 13
f 5 13 6
f 5 14 24
f 5 24 12
f 6 13 15
f 6 15 7
f 7 15 9
f 8 16 17
f 8 17 14
f 9 18 19
f 9 19 10
f 9 15 18
f 11 20 21
f 11 21 16
f 12 22 23
f 12 23 13
f 12 24 36
f 12 36 22
f 13 23 25
f 13 25 15
f 14 17 26
f 14 26 24
f 15 25 27
f 15 27 18
f 16 21 28
f 16 28 17
f 17 28 26
f 18 29 30
f 18 30 31
f 18 31 19
f 18 27 32
f 18 32 29
f 20 33 21
f 21 33 34
f 21 34 28
f 22 35 23
f 22 36 58
f 22 58 35
f 23 35 37
f 23 37 38
f 23 38 25
f 24 26 39
f 24 39 36
f 25 40 32
f 25 32 27
f 25 38 41
f 25 41 40
f 26 28 42
f 26 42 39
f 28 34 43
f 28 43 42
f 29 32 44
f 29 44 45
f 29 45 46
f 29 46 47
f 29 47 48
f 29 48 49
f 29 49 30
f 30 50 68
f 30 68 51
f 30 51 52
f 30 52 31
f 30 49 67
f 30 67 50
f 32 40 53
f 32 53 44
f 33 54 34
f 34 54 55
f 34 55 56
f 34 56 57
f 34 57 43
f 35 58 59
f 35 59 37
f 36 39 58
f 37 41 38
f 37 59 61
f 37 61 64
f 37 64 63
f 37 63 78
f 37 78 76
f 37 76 93
f 37 93 110
f 37 110 109
f 37 109 124
f 37 124 128
f 37 128 122
f 37 122 121
f 37 121 120
f 37 120 119
f 37 119 118
f 37 118 127
f 37 127 125
f 37 125 111
f 37 111 100
f 37 100 99
f 37 99 98
f 37 98 95
f 37 95 79
f 37 79 66
f 37 66 47
f 37 47 46
f 37 46 45
f 37 45 53
f 37 53 41
f 39 60 61
f 39 61 59
f 39 59 58
f 39 42 60
f 40 41 53
f 42 43 57
f 42 57 62
f 42 62 63
f 42 63 64
f 42 64 60
f 44 53 45
f 47 65 48
f 47 66 65
f 48 65 67
f 48 67 49
f 50 67 69
f 50 69 70
f 50 70 71
f 50 71 68
f 54 72 55
f 55 72 86
f 55 86 73
f 55 73 91
f 55 91 74
f 55 74 56
f 56 74 75
f 56 75 76
f 56 76 77
f 56 77 57
f 57 77 78
f 57 78 62
f 60 64 61
f 62 78 63
f 65 69 67
f 65 66 69
f 66 79 80
f 66 80 69
f 69 80 81
f 69 81 70
f 70 81 82
f 70 82 83
f 70 83 84
f 70 84 85
f 70 85 71
f 73 86 87
f 73 87 88
f 73 88 89
f 73 89 90
f 73 90 91
f 74 91 92
f 74 92 75
f 75 92 93
f 75 93 76
f 76 78 77
f 79 94 81
f 79 81 80
f 79 95 94
f 81 94 96
f 81 96 82
f 82 96 83
f 83 97 84
f 83 96 98
f 83 98 99
f 83 99 100
f 83 100 97
f 84 101 85
f 84 97 102
f 84 102 101
f 88 103 89
f 89 103 104
f 89 104 105
f 89 105 106
f 89 106 107
f 89 107 90
f 90 107 108
f 90 108 109
f 90 109 110
f 90 110 93
f 90 93 92
f 90 92 91
f 94 95 98
f 94 98 96
f 97 100 111
f 97 111 102
f 102 111 112
f 103 113 104
f 104 113 114
f 104 114 115
f 104 115 105
f 105 116 106
f 105 115 117
f 105 117 118
f 105 118 119
f 105 119 120
f 105 120 121
f 105 121 122
f 105 122 116
f 106 116 107
f 107 116 123
f 107 123 124
f 107 124 108
f 108 124 109
f 111 125 126
f 111 126 112
f 114 126 127
f 114 127 115
f 115 127 118
f 115 118 117
f 116 122 128
f 116 128 123
f 123 128 124
f 125 127 126

