# https://github.com/mikedh/trimesh
v 0.15492524 -0.02690310 0.41463476
v 0.15401389 -0.02690310 0.42301577
v 0.15492524 -0.03574187 0.41585913
v 0.15498599 -0.05562509 0.40581176
v 0.15495561 -0.04437235 0.40419099
v 0.15416577 -0.03500486 0.40683264
v 0.15295064 -0.02690310 0.41017240
v 0.15434805 -0.04500255 0.41337183
v 0.14499155 -0.02690310 0.42612049
v 0.06734473 -0.08146314 0.43921646
v 0.15264687 -0.03290065 0.42148623
v 0.15431768 -0.06449591 0.40337709
v 0.15468220 -0.05565714 0.40337709
v 0.15459107 -0.04479426 0.40337709
v 0.15377086 -0.04358727 0.40337709
v 0.14736106 -0.03517042 0.40337709
v 0.15228233 -0.02767215 0.40879017
v 0.15176590 -0.02690310 0.40899014
v 0.15255573 -0.05271978 0.41139674
v 0.03198444 -0.02690310 0.43921646
v 0.03490075 -0.02836644 0.43921646
v 0.04380158 -0.03646286 0.43921646
v 0.04595844 -0.03850298 0.43921646
v 0.04866210 -0.04138159 0.43921646
v 0.05248976 -0.04604932 0.43921646
v 0.05476813 -0.04933381 0.43921646
v 0.05777558 -0.05378257 0.43921646
v 0.06072227 -0.05856245 0.43921646
v 0.06333480 -0.06486975 0.43921646
v 0.06476258 -0.06921169 0.43921646
v 0.06655490 -0.07499561 0.43921646
v 0.06777003 -0.08146314 0.43765533
v 0.14499155 -0.07118773 0.40337709
v 0.15389238 -0.06499793 0.40337709
v -0.06713980 -0.08146314 0.43921646
v 0.13909817 -0.02690310 0.40337709
v -0.03095930 -0.02690310 0.43921646
v 0.06855986 -0.08146314 0.43468392
v 0.07557724 -0.08146314 0.40337709
v -0.06707904 -0.08077954 0.43921646
v -0.14499927 -0.02690310 0.42612049
v -0.14682196 -0.02690310 0.42574161
v -0.15399124 -0.02690310 0.42301577
v -0.15265459 -0.03290065 0.42148623
v -0.15256345 -0.05271978 0.41139674
v -0.14949524 -0.06955884 0.40337709
v -0.14499927 -0.07118773 0.40337709
v -0.06732208 -0.08146314 0.43853587
v -0.13834643 -0.02690310 0.40337709
v -0.03266048 -0.02772022 0.43921646
v -0.07449134 -0.08146314 0.40337709
v -0.06607656 -0.07499561 0.43921646
v -0.06291723 -0.06494986 0.43921646
v -0.06139831 -0.06112062 0.43921646
v -0.06051734 -0.05895765 0.43921646
v -0.05966675 -0.05741955 0.43921646
v -0.05750990 -0.05412971 0.43921646
v -0.05222408 -0.04629498 0.43921646
v -0.04930777 -0.04267403 0.43921646
v -0.04842680 -0.04168601 0.43921646
v -0.04362703 -0.03663909 0.43921646
v -0.03861462 -0.03244135 0.43921646
v -0.15453804 -0.02690310 0.42214575
v -0.15435576 -0.04500255 0.41337183
v -0.15432540 -0.06449591 0.40337709
v -0.15408237 -0.06486975 0.40337709
v -0.06808153 -0.08146314 0.43499964
v -0.15153059 -0.03797960 0.40337709
v -0.15229005 -0.02767215 0.40879017
v -0.15037622 -0.02690310 0.40859723
v -0.15493296 -0.02690310 0.41463476
v -0.15493296 -0.03574187 0.41585913
v -0.15535825 -0.05773465 0.40337709
v -0.15496333 -0.05562509 0.40581176
v -0.15459880 -0.04479426 0.40337709
v -0.15417351 -0.03500486 0.40683264
v -0.15295838 -0.02690310 0.41017240
v -0.15475069 -0.02690310 0.41265967
v -0.15496333 -0.04437235 0.40419099
v -0.15484183 -0.04539775 0.40337709
f 1 2 3
f 1 3 4
f 1 4 5
f 1 5 6
f 1 6 7
f 1 7 18
f 1 18 36
f 1 36 49
f 1 49 70
f 1 70 77
f 1 77 78
f 1 78 71
f 1 71 63
f 1 63 43
f 1 43 42
f 1 42 41
f 1 41 37
f 1 37 20
f 1 20 9
f 1 9 2
f 2 8 3
f 2 9 10
f 2 10 11
f 2 11 8
f 3 8 4
f 4 8 12
f 4 12 13
f 4 13 5
f 5 13 14
f 5 14 6
f 6 14 15
f 6 15 16
f 6 16 17
f 6 17 7
f 7 17 18
f 8 11 19
f 8 19 12
f 9 20 21
f 9 21 22
f 9 22 23
f 9 23 24
f 9 24 25
f 9 25 26
f 9 26 27
f 9 27 28
f 9 28 29
f 9 29 30
f 9 30 31
f 9 31 10
f 10 32 33
f 10 33 34
f 10 34 19
f 10 19 11
f 10 31 30
f 10 30 29
f 10 29 28
f 10 28 27
f 10 27 26
f 10 26 25
f 10 25 24
f 10 24 23
f 10 23 22
f 10 22 21
f 10 21 20
f 10 20 37
f 10 37 50
f 10 50 62
f 10 62 61
f 10 61 60
f 10 60 59
f 10 59 58
f 10 58 57
f 10 57 56
f 10 56 55
f 10 55 54
f 10 54 53
f 10 53 52
f 10 52 40
f 10 40 35
f 10 35 48
f 10 48 67
f 10 67 51
f 10 51 39
f 10 39 38
f 10 38 32
f 12 34 33
f 12 33 39
f 12 39 51
f 12 51 47
f 12 47 46
f 12 46 66
f 12 66 65
f 12 65 73
f 12 73 80
f 12 80 75
f 12 75 68
f 12 68 49
f 12 49 36
f 12 36 16
f 12 16 15
f 12 15 14
f 12 14 13
f 12 19 34
f 16 36 17
f 17 36 18
f 32 38 33
f 33 38 39
f 35 40 41
f 35 41 42
f 35 42 43
f 35 43 44
f 35 44 45
f 35 45 46
f 35 46 47
f 35 47 48
f 37 41 50
f 40 52 41
f 41 52 53
f 41 53 54
f 41 54 55
f 41 55 56
f 41 56 57
f 41 57 58
f 41 58 59
f 41 59 60
f 41 60 61
f 41 61 62
f 41 62 50
f 43 63 64
f 43 64 44
f 44 64 45
f 45 64 65
f 45 65 66
f 45 66 46
f 47 51 67
f 47 67 48
f 49 68 69
f 49 69 70
f 63 71 72
f 63 72 73
f 63 73 74
f 63 74 65
f 63 65 64
f 65 74 73
f 68 75 76
f 68 76 69
f 69 76 77
f 69 77 70
f 71 78 79
f 71 79 73
f 71 73 72
f 73 79 80
f 75 80 76
f 76 80 79
f 76 79 78
f 76 78 77

