# https://github.com/mikedh/trimesh
v 0.13499017 0.09581708 0.39079037
v 0.13499017 0.09368990 0.39189675
v 0.14498717 0.09359095 0.39185733
v 0.14498717 0.09561921 0.39079037
v -0.13499017 0.09581708 0.39079037
v 0.13499017 0.07395153 0.40203291
v 0.14201260 0.07123070 0.40337709
v 0.14498717 0.07387733 0.40199348
v 0.14498717 0.07887375 0.39942464
v -0.13499017 0.09368990 0.39189675
v 0.15231626 0.09235422 0.39121175
v 0.15253091 0.09257683 0.39079037
v -0.14075531 0.09574289 0.39079037
v 0.13499017 0.07132965 0.40337709
v -0.13499017 0.07395153 0.40203291
v 0.14498717 0.07118124 0.40337709
v -0.14498717 0.07387733 0.40199348
v 0.15243891 0.07251691 0.40130231
v 0.15418686 0.08498325 0.39310172
v 0.14949502 0.06954874 0.40337709
v 0.15446284 0.08822351 0.39079037
v -0.14498717 0.09561921 0.39079037
v -0.14498717 0.09359095 0.39185733
v -0.14498717 0.07887375 0.39942464
v -0.13499017 0.07132965 0.40337709
v -0.14498717 0.07118124 0.40337709
v -0.15231626 0.09235422 0.39121175
v 0.15406419 0.06484913 0.40337709
v 0.15427886 0.06499754 0.40323910
v 0.15614946 0.07988788 0.39079037
v -0.15075231 0.09366516 0.39079037
v -0.15243891 0.07251691 0.40130231
v -0.15388019 0.06499754 0.40337709
v -0.15253091 0.09257683 0.39079037
v -0.15418686 0.08498325 0.39310172
v 0.15430953 0.06447811 0.40337709
v 0.15535215 0.05772551 0.40337709
v 0.15664011 0.06499754 0.39500031
v 0.15664011 -0.06498379 0.39500031
v 0.15510683 -0.08499423 0.39079037
v -0.15427886 0.06499754 0.40323910
v -0.15430953 0.06447811 0.40337709
v -0.15510683 0.08498325 0.39079037
v 0.15467751 -0.05565877 0.40337709
v 0.15501483 -0.07552081 0.39575556
v 0.15430953 -0.06448910 0.40337709
v 0.15427886 -0.06498379 0.40323910
v 0.15418686 -0.08499423 0.39310172
v 0.15253091 -0.09258781 0.39079037
v -0.15501483 0.07550982 0.39575556
v -0.15664011 0.06499754 0.39500031
v -0.15467751 0.05564779 0.40337709
v -0.15614946 -0.07987413 0.39079037
v 0.15388019 -0.06498379 0.40337709
v 0.15243891 -0.07252790 0.40130231
v 0.15231626 -0.09234047 0.39121175
v 0.15075231 -0.09367614 0.39079037
v -0.15664011 -0.06498379 0.39500031
v -0.15535215 -0.05773649 0.40337709
v -0.15446284 -0.08820976 0.39079037
v -0.15427886 -0.06498379 0.40323910
v -0.15430953 -0.06448910 0.40337709
v 0.14498717 -0.07116748 0.40337709
v 0.03514283 -0.14732590 0.40337709
v 0.03357888 -0.14834003 0.40337709
v 0.03038965 -0.15026934 0.40337709
v 0.02937769 -0.14970045 0.40062836
v 0.02269258 -0.15111032 0.39772317
v 0.02560581 -0.14829056 0.39463440
v 0.02545249 -0.14626232 0.39079037
v -0.15253091 -0.09258781 0.39079037
v -0.15418686 -0.08499423 0.39310172
v -0.15243891 -0.07252790 0.40130231
v -0.15406419 -0.06486011 0.40337709
v 0.02661778 -0.15185237 0.40337709
v 0.01787807 -0.14945310 0.39105773
v 0.02517649 -0.15239653 0.40337709
v 0.01493417 -0.15543891 0.40337709
v 0.01471951 -0.15202552 0.39463440
v 0.01772474 -0.14932942 0.39079037
v -0.02664845 -0.15162976 0.40337709
v -0.03324156 -0.14824110 0.40337709
v -0.15231626 -0.09234047 0.39121175
v -0.02539115 -0.14608917 0.39079037
v -0.02554448 -0.14814216 0.39469722
v -0.02256991 -0.15106085 0.39782789
v -0.02922436 -0.14965098 0.40081441
v -0.03609346 -0.14638598 0.40337709
v -0.14949502 -0.06955972 0.40337709
v 0.01208226 -0.15071458 0.39079037
v 0.01337022 -0.15568626 0.40337709
v 0.00499850 -0.15370747 0.39500031
v -0.02502317 -0.15224813 0.40337709
v -0.03502017 -0.14710329 0.40337709
v -0.01818473 -0.14900787 0.39079037
v -0.01775541 -0.14937890 0.39116246
v -0.01465818 -0.15195131 0.39469722
v -0.01493417 -0.15533999 0.40337709
v -0.01671278 -0.15484528 0.40337709
v 0.00499850 -0.15153082 0.39079037
v 0.00499850 -0.15682405 0.40337709
v 0.00337322 -0.15682405 0.40337709
v -0.00499850 -0.15679932 0.40337709
v -0.00499850 -0.15365800 0.39500031
v -0.00499850 -0.15150610 0.39079037
v -0.01754075 -0.14923048 0.39079037
v -0.01625279 -0.14957677 0.39079037
v -0.01195960 -0.15068984 0.39079037
v -0.00965968 -0.15106085 0.39079037
f 1 2 3
f 1 3 4
f 1 4 12
f 1 12 21
f 1 21 30
f 1 30 40
f 1 40 49
f 1 49 57
f 1 57 70
f 1 70 80
f 1 80 90
f 1 90 100
f 1 100 105
f 1 105 109
f 1 109 108
f 1 108 107
f 1 107 106
f 1 106 95
f 1 95 84
f 1 84 71
f 1 71 60
f 1 60 53
f 1 53 43
f 1 43 34
f 1 34 31
f 1 31 22
f 1 22 13
f 1 13 5
f 1 5 10
f 1 10 2
f 2 6 7
f 2 7 8
f 2 8 9
f 2 9 3
f 2 10 15
f 2 15 6
f 3 9 11
f 3 11 4
f 4 11 12
f 5 13 10
f 6 14 7
f 6 15 25
f 6 25 14
f 7 16 8
f 7 14 25
f 7 25 26
f 7 26 33
f 7 33 42
f 7 42 52
f 7 52 59
f 7 59 62
f 7 62 74
f 7 74 89
f 7 89 88
f 7 88 94
f 7 94 82
f 7 82 81
f 7 81 93
f 7 93 99
f 7 99 98
f 7 98 103
f 7 103 102
f 7 102 101
f 7 101 91
f 7 91 78
f 7 78 77
f 7 77 75
f 7 75 66
f 7 66 65
f 7 65 64
f 7 64 63
f 7 63 54
f 7 54 46
f 7 46 44
f 7 44 37
f 7 37 36
f 7 36 28
f 7 28 20
f 7 20 16
f 8 16 11
f 8 11 9
f 10 13 17
f 10 17 15
f 11 18 19
f 11 19 12
f 11 16 20
f 11 20 18
f 12 19 21
f 13 22 23
f 13 23 24
f 13 24 17
f 15 17 26
f 15 26 25
f 17 24 27
f 17 27 26
f 18 28 29
f 18 29 19
f 18 20 28
f 19 29 21
f 21 29 30
f 22 31 27
f 22 27 23
f 23 27 24
f 26 27 32
f 26 32 33
f 27 34 35
f 27 35 32
f 27 31 34
f 28 36 29
f 29 36 37
f 29 37 30
f 30 37 38
f 30 38 39
f 30 39 40
f 32 35 41
f 32 41 33
f 33 41 42
f 34 43 35
f 35 43 41
f 37 39 38
f 37 44 39
f 39 45 40
f 39 44 46
f 39 46 45
f 40 45 47
f 40 47 48
f 40 48 49
f 41 43 50
f 41 50 42
f 42 50 51
f 42 51 52
f 43 53 51
f 43 51 50
f 45 46 47
f 46 54 47
f 47 54 55
f 47 55 48
f 48 55 56
f 48 56 49
f 49 56 57
f 51 53 58
f 51 58 59
f 51 59 52
f 53 60 61
f 53 61 62
f 53 62 59
f 53 59 58
f 54 63 55
f 55 63 64
f 55 64 56
f 56 64 65
f 56 65 66
f 56 66 57
f 57 66 67
f 57 67 68
f 57 68 69
f 57 69 70
f 60 71 72
f 60 72 61
f 61 72 73
f 61 73 74
f 61 74 62
f 66 75 67
f 67 75 68
f 68 76 69
f 68 75 77
f 68 77 78
f 68 78 79
f 68 79 76
f 69 76 70
f 70 76 80
f 71 81 82
f 71 82 83
f 71 83 72
f 71 84 85
f 71 85 86
f 71 86 87
f 71 87 81
f 72 83 73
f 73 83 88
f 73 88 89
f 73 89 74
f 76 79 90
f 76 90 80
f 78 91 92
f 78 92 79
f 79 92 90
f 81 87 86
f 81 86 93
f 82 94 83
f 83 94 88
f 84 95 86
f 84 86 85
f 86 95 96
f 86 96 97
f 86 97 98
f 86 98 99
f 86 99 93
f 90 92 100
f 91 101 92
f 92 101 102
f 92 102 103
f 92 103 104
f 92 104 105
f 92 105 100
f 95 106 96
f 96 106 107
f 96 107 108
f 96 108 97
f 97 108 104
f 97 104 98
f 98 104 103
f 104 108 109
f 104 109 105

