# https://github.com/mikedh/trimesh
v 0.13497591 0.07134190 0.40337709
v 0.13497591 0.00977529 0.43921646
v 0.14496961 0.07118803 0.40337709
v -0.13497591 0.07134190 0.40337709
v 0.14496961 0.00956372 0.43921646
v -0.13497591 0.00977529 0.43921646
v 0.14950944 0.06955318 0.40337709
v -0.14496961 0.07118803 0.40337709
v 0.15155083 0.00692872 0.43921646
v -0.14496961 0.00956372 0.43921646
v 0.15535942 0.00523617 0.43921646
v 0.15407974 0.06486981 0.40337709
v -0.15389691 0.06499483 0.40337709
v -0.15535942 0.00523617 0.43921646
v 0.15535942 -0.00522688 0.43921646
v 0.15563363 0.00578433 0.43564516
v 0.15532894 0.05773416 0.40337709
v 0.15432347 0.06449476 0.40337709
v -0.15432347 0.06449476 0.40337709
v -0.15496331 0.05562809 0.40581176
v -0.15563363 0.00578433 0.43564516
v -0.15535942 -0.00522688 0.43921646
v 0.15401879 -0.02690310 0.42301577
v 0.15444535 -0.02499898 0.42349991
v 0.15563363 -0.00577504 0.43564516
v 0.14496961 -0.00955443 0.43921646
v 0.14496961 -0.02690310 0.42612049
v 0.15493286 -0.02690310 0.41463476
v 0.15484144 0.04539584 0.40337709
v -0.15468910 0.05565694 0.40337709
v -0.15496331 0.04436684 0.40419099
v -0.15563363 -0.00577504 0.43564516
v -0.15453675 -0.02690310 0.42214575
v -0.15401879 -0.02690310 0.42301577
v -0.14682820 -0.02690310 0.42574161
v -0.15155083 -0.00691944 0.43921646
v 0.03199203 -0.02690310 0.43921646
v 0.15295239 -0.02690310 0.41017240
v 0.15176411 -0.02690310 0.40899014
v 0.13908918 -0.02690310 0.40337709
v -0.15459770 0.04478998 0.40337709
v -0.15493286 -0.02690310 0.41463476
v -0.15475003 -0.02690310 0.41265967
v -0.14496961 -0.02690310 0.42612049
v -0.14496961 -0.00955443 0.43921646
v -0.03095610 -0.02690310 0.43921646
v -0.13835792 -0.02690310 0.40337709
v -0.15039302 -0.02690310 0.40859723
v -0.15295239 -0.02690310 0.41017240
f 1 2 3
f 1 3 7
f 1 7 12
f 1 12 18
f 1 18 17
f 1 17 29
f 1 29 40
f 1 40 47
f 1 47 41
f 1 41 30
f 1 30 19
f 1 19 13
f 1 13 8
f 1 8 4
f 1 4 6
f 1 6 2
f 2 5 3
f 2 6 10
f 2 10 14
f 2 14 22
f 2 22 36
f 2 36 45
f 2 45 46
f 2 46 37
f 2 37 26
f 2 26 15
f 2 15 11
f 2 11 9
f 2 9 5
f 3 5 7
f 4 8 6
f 5 9 7
f 6 8 10
f 7 9 11
f 7 11 12
f 8 13 14
f 8 14 10
f 11 15 25
f 11 25 16
f 11 16 17
f 11 17 18
f 11 18 12
f 13 19 14
f 14 19 20
f 14 20 21
f 14 21 32
f 14 32 22
f 15 23 24
f 15 24 25
f 15 26 27
f 15 27 23
f 16 25 17
f 17 25 28
f 17 28 29
f 19 30 20
f 20 31 21
f 20 30 31
f 21 31 32
f 22 32 33
f 22 33 34
f 22 34 35
f 22 35 36
f 23 28 24
f 23 27 37
f 23 37 46
f 23 46 44
f 23 44 35
f 23 35 34
f 23 34 33
f 23 33 42
f 23 42 43
f 23 43 49
f 23 49 48
f 23 48 47
f 23 47 40
f 23 40 39
f 23 39 38
f 23 38 28
f 24 28 25
f 26 37 27
f 28 38 29
f 29 38 39
f 29 39 40
f 30 41 31
f 31 42 32
f 31 41 43
f 31 43 42
f 32 42 33
f 35 44 45
f 35 45 36
f 41 48 49
f 41 49 43
f 41 47 48
f 44 46 45

