# https://github.com/mikedh/trimesh
v -0.15535963 -0.00523419 0.43921649
v -0.15481216 -0.00419640 0.47499454
v -0.15535963 0.00523579 0.43921649
v -0.15155776 -0.00692795 0.43921649
v -0.14498812 -0.00833191 0.48499474
v -0.15423428 -0.00404171 0.48499474
v -0.15481216 0.00419604 0.47499454
v -0.14498812 0.00833351 0.48499474
v -0.14498812 0.00955733 0.43921649
v -0.14504895 -0.00953419 0.43921649
v -0.14590058 -0.00471529 0.49592778
v -0.15243979 -0.00259858 0.49321628
v -0.14498812 -0.00955573 0.43921649
v -0.13498160 -0.00859234 0.48499474
v -0.13498160 -0.00806169 0.49499494
v -0.15423428 0.00404135 0.48499474
v -0.15243979 0.00259823 0.49321628
v -0.14590058 0.00471689 0.49592778
v -0.13498160 0.00806329 0.49499494
v -0.13498160 0.00859198 0.48499474
v -0.14489688 0.00955928 0.43921649
v -0.14316322 -0.00240277 0.50155598
v -0.13537699 -0.00975937 0.43921649
v -0.12497508 -0.00823205 0.49499494
v -0.13498160 -0.00976720 0.43921649
v -0.01493375 -0.01023519 0.45310357
v -0.00498805 -0.01023519 0.45400533
v -0.13498160 -0.00376757 0.50253862
v -0.12497508 -0.00393009 0.50274384
v -0.14316322 0.00240241 0.50155598
v -0.13498160 0.00376721 0.50253862
v -0.12497508 0.00392974 0.50274384
v -0.12497508 0.00823169 0.49499494
v -0.12497508 0.00860373 0.48499474
v -0.13498160 0.00976684 0.43921649
v -0.11499897 -0.00823401 0.49499494
v -0.03731916 -0.01023519 0.43921649
v -0.03461223 -0.01023519 0.44287327
v 0.00498805 -0.01023519 0.45403022
v -0.11499897 -0.00393205 0.50274384
v -0.11499897 0.00393169 0.50274384
v -0.11499897 0.00823365 0.49499494
v -0.12497508 0.00976880 0.43921649
v 0.12497508 0.00860373 0.48499474
v 0.11499897 -0.00823401 0.49499494
v 0.03750165 -0.01023519 0.43921649
v 0.00869868 -0.01023519 0.45302272
v 0.13498160 -0.00976720 0.43921649
v 0.13498160 -0.00859234 0.48499474
v 0.12497508 -0.00823205 0.49499494
v 0.11499897 -0.00393205 0.50274384
v 0.11499897 0.00393169 0.50274384
v 0.11499897 0.00823365 0.49499494
v 0.12497508 0.00976880 0.43921649
v 0.12497508 0.00823169 0.49499494
v 0.13498160 0.00859198 0.48499474
v 0.13498160 0.00976684 0.43921649
v 0.03150990 -0.01023519 0.44407976
v 0.02366284 -0.01023519 0.44768679
v 0.14489688 -0.00955964 0.43921649
v 0.14498812 -0.00833191 0.48499474
v 0.13498160 -0.00806169 0.49499494
v 0.12497508 -0.00393009 0.50274384
v 0.12497508 0.00392974 0.50274384
v 0.13498160 0.00806329 0.49499494
v 0.14498812 0.00833351 0.48499474
v 0.14498812 0.00955733 0.43921649
v 0.13537699 0.00975901 0.43921649
v 0.14498812 -0.00955573 0.43921649
v 0.15535963 -0.00523419 0.43921649
v 0.15481216 -0.00419640 0.47499454
v 0.15423428 -0.00404171 0.48499474
v 0.15243979 -0.00259858 0.49321628
v 0.14590058 -0.00471529 0.49592778
v 0.14316322 -0.00240277 0.50155598
v 0.13498160 -0.00376757 0.50253862
v 0.13498160 0.00376721 0.50253862
v 0.14316322 0.00240241 0.50155598
v 0.14590058 0.00471689 0.49592778
v 0.15243979 0.00259823 0.49321628
v 0.15423428 0.00404135 0.48499474
v 0.15481216 0.00419604 0.47499454
v 0.15535963 0.00523579 0.43921649
v 0.15155776 0.00692759 0.43921649
v 0.14504895 0.00953383 0.43921649
f 1 2 7
f 1 7 3
f 1 3 9
f 1 9 21
f 1 21 35
f 1 35 43
f 1 43 54
f 1 54 57
f 1 57 68
f 1 68 67
f 1 67 85
f 1 85 84
f 1 84 83
f 1 83 70
f 1 70 69
f 1 69 60
f 1 60 48
f 1 48 46
f 1 46 37
f 1 37 25
f 1 25 23
f 1 23 13
f 1 13 10
f 1 10 4
f 1 4 5
f 1 5 2
f 2 6 16
f 2 16 7
f 2 5 6
f 3 7 8
f 3 8 9
f 4 10 5
f 5 11 12
f 5 12 6
f 5 10 13
f 5 13 14
f 5 14 15
f 5 15 11
f 6 12 17
f 6 17 16
f 7 16 8
f 8 16 17
f 8 17 18
f 8 18 19
f 8 19 20
f 8 20 9
f 9 20 21
f 11 15 22
f 11 22 12
f 12 22 30
f 12 30 17
f 13 23 14
f 14 24 15
f 14 23 25
f 14 25 26
f 14 26 27
f 14 27 24
f 15 28 22
f 15 24 29
f 15 29 28
f 17 30 18
f 18 30 19
f 19 30 31
f 19 31 32
f 19 32 33
f 19 33 20
f 20 33 34
f 20 34 35
f 20 35 21
f 22 28 31
f 22 31 30
f 24 36 40
f 24 40 29
f 24 27 36
f 25 37 38
f 25 38 26
f 26 38 37
f 26 37 46
f 26 46 58
f 26 58 59
f 26 59 47
f 26 47 39
f 26 39 27
f 27 39 36
f 28 29 32
f 28 32 31
f 29 40 51
f 29 51 63
f 29 63 64
f 29 64 52
f 29 52 41
f 29 41 32
f 32 41 42
f 32 42 33
f 33 42 34
f 34 43 35
f 34 42 53
f 34 53 44
f 34 44 54
f 34 54 43
f 36 39 45
f 36 45 51
f 36 51 40
f 39 47 48
f 39 48 49
f 39 49 50
f 39 50 45
f 41 52 53
f 41 53 42
f 44 53 55
f 44 55 56
f 44 56 57
f 44 57 54
f 45 50 63
f 45 63 51
f 46 48 58
f 47 59 48
f 48 60 49
f 48 59 58
f 49 60 61
f 49 61 62
f 49 62 50
f 50 62 63
f 52 64 55
f 52 55 53
f 55 64 65
f 55 65 56
f 56 65 66
f 56 66 67
f 56 67 68
f 56 68 57
f 60 69 61
f 61 69 70
f 61 70 71
f 61 71 72
f 61 72 73
f 61 73 74
f 61 74 62
f 62 74 75
f 62 75 76
f 62 76 63
f 63 76 77
f 63 77 64
f 64 77 65
f 65 77 78
f 65 78 79
f 65 79 66
f 66 79 80
f 66 80 81
f 66 81 82
f 66 82 83
f 66 83 84
f 66 84 85
f 66 85 67
f 70 83 82
f 70 82 71
f 71 82 81
f 71 81 72
f 72 81 80
f 72 80 73
f 73 80 78
f 73 78 75
f 73 75 74
f 75 78 77
f 75 77 76
f 78 80 79

