# https://github.com/mikedh/trimesh
v 0.03751910 -0.01023519 0.43921646
v 0.03151726 -0.01023519 0.44407764
v 0.04194081 -0.04823281 0.46183860
v 0.05108963 -0.05834907 0.46104172
v 0.05936208 -0.06116599 0.44821864
v 0.06046418 -0.05915096 0.44155368
v 0.06074303 -0.05856496 0.43921646
v -0.03733129 -0.01023519 0.43921646
v 0.02368300 -0.01023519 0.44768518
v 0.02012438 -0.03994653 0.47005391
v 0.03111891 -0.04900387 0.47050068
v 0.05207223 -0.06499042 0.46151185
v 0.06203104 -0.07499359 0.45266303
v 0.06099532 -0.06782791 0.45167947
v 0.06195137 -0.06469228 0.44493118
v 0.06333232 -0.06486706 0.43921646
v -0.06052867 -0.05896591 0.43921646
v -0.06031621 -0.05940798 0.44109026
v -0.05921410 -0.06148469 0.44775519
v -0.06083407 -0.06813633 0.45142275
v -0.05091510 -0.05860608 0.46089169
v -0.03462249 -0.01023519 0.44287068
v 0.00871823 -0.01023519 0.45302314
v 0.02406807 -0.04540561 0.47100413
v 0.00498700 -0.01023519 0.45403004
v 0.01499892 -0.03923716 0.47069073
v 0.01499892 -0.04500466 0.47244447
v 0.03111891 -0.05171799 0.47050068
v 0.04499484 -0.06499042 0.46428585
v 0.05166060 -0.07195049 0.46097171
v 0.06207087 -0.08499674 0.45199287
v 0.06635980 -0.08499674 0.44500118
v 0.06536391 -0.07499359 0.44500118
v 0.06477967 -0.06921581 0.43921646
v -0.06140504 -0.06113515 0.43921646
v -0.06290551 -0.06494930 0.43921646
v -0.06168389 -0.06488761 0.44465443
v -0.06488399 -0.07499359 0.44500118
v -0.06177684 -0.07499359 0.45236963
v -0.04183267 -0.04830478 0.46179190
v -0.05184459 -0.06499042 0.46137515
v -0.03099749 -0.04912724 0.47044733
v -0.01494389 -0.01023519 0.45309982
v 0.00498700 -0.03840442 0.47143757
v -0.00110779 -0.01023519 0.45401338
v -0.00499837 -0.03841470 0.47141758
v 0.00498700 -0.04500466 0.47327802
v 0.02499756 -0.05308532 0.47121418
v 0.06106171 -0.09150445 0.45078593
v 0.03499620 -0.06499042 0.46570286
v 0.04499484 -0.07298884 0.46152851
v 0.06414230 -0.09489711 0.44543129
v 0.06718306 -0.09534946 0.43921646
v 0.06797977 -0.08525377 0.43921646
v 0.06655897 -0.07499359 0.43921646
v -0.06607904 -0.07499359 0.43921646
v -0.06708820 -0.08078165 0.43921646
v -0.06752639 -0.08499674 0.43921646
v -0.06591970 -0.08499674 0.44500118
v -0.06186979 -0.08499674 0.45185950
v -0.05153919 -0.07191964 0.46094170
v -0.04499293 -0.06499042 0.46411580
v -0.03099749 -0.05162546 0.47044733
v -0.02499565 -0.04690660 0.47117084
v -0.01987018 -0.04009046 0.46995056
v -0.01320442 -0.03906239 0.47084409
v -0.00499837 -0.01023519 0.45400003
v -0.00499837 -0.04500466 0.47325802
v -0.00499837 -0.05361992 0.47183433
v 0.00498700 -0.05361992 0.47183767
v 0.01499892 -0.05360964 0.47175097
v 0.02499756 -0.05809205 0.46925038
v 0.05499348 -0.09234748 0.45123604
v 0.06088910 -0.11105843 0.44060346
v 0.06274807 -0.10499279 0.44224054
v 0.01499892 -0.05860608 0.46927372
v 0.02499756 -0.06499042 0.46588290
v 0.03499620 -0.07305053 0.46161187
v 0.04499484 -0.07798528 0.45893121
v 0.06462033 -0.10499279 0.43921646
v -0.06767245 -0.09077453 0.43921646
v -0.06690231 -0.09494851 0.43921646
v -0.06388810 -0.09486626 0.44542462
v -0.06096686 -0.09145305 0.45074257
v -0.04499293 -0.07295800 0.46150517
v -0.03499429 -0.06499042 0.46566951
v -0.02499565 -0.05302364 0.47117084
v -0.01592650 -0.04405883 0.47190103
v -0.01499701 -0.05360964 0.47174099
v -0.01499701 -0.05860608 0.46927372
v -0.00499837 -0.05862664 0.46927705
v 0.00498700 -0.05862664 0.46927705
v 0.05499348 -0.09734392 0.44860873
v 0.06138040 -0.11194257 0.43921646
v 0.05499348 -0.10499279 0.44455108
v 0.05499348 -0.11171640 0.44094688
v 0.05499348 -0.11451276 0.43921646
v 0.05791473 -0.11390620 0.43921646
v 0.01499892 -0.06499042 0.46590957
v 0.02499756 -0.07308137 0.46163186
v 0.03499620 -0.07805724 0.45896789
v 0.04499484 -0.09246057 0.45130605
v 0.04499484 -0.08499674 0.45524034
v -0.06561430 -0.10090105 0.43921646
v -0.06257354 -0.10499279 0.44222051
v -0.06080751 -0.11100703 0.44058681
v -0.05499157 -0.09230636 0.45120603
v -0.04499293 -0.07796472 0.45892122
v -0.03499429 -0.07306081 0.46161187
v -0.02499565 -0.06499042 0.46588290
v -0.02499565 -0.05802008 0.46925372
v -0.01499701 -0.06499042 0.46591291
v -0.00499837 -0.06499042 0.46591958
v 0.00498700 -0.06499042 0.46591625
v 0.01499892 -0.07308137 0.46163854
v 0.04499484 -0.09745701 0.44865540
v 0.04499484 -0.10499279 0.44465110
v 0.04499484 -0.11186033 0.44099689
v 0.04499484 -0.11519129 0.43921646
v 0.04839411 -0.11510904 0.43921646
v 0.03499620 -0.09748785 0.44866875
v 0.03499620 -0.08499674 0.45529369
v -0.06432629 -0.10499279 0.43921646
v -0.06260011 -0.10892004 0.43921646
v -0.06124570 -0.11187061 0.43921646
v -0.05499157 -0.11435854 0.43921646
v -0.05499157 -0.11167528 0.44093356
v -0.05499157 -0.10499279 0.44453108
v -0.05499157 -0.09730279 0.44860205
v -0.04499293 -0.08499674 0.45523033
v -0.04499293 -0.09246057 0.45130938
v -0.03499429 -0.07805724 0.45896789
v -0.02499565 -0.07307108 0.46162853
v -0.01499701 -0.07308137 0.46163854
v 0.03499620 -0.11189117 0.44101024
v 0.03499620 -0.11525297 0.43921646
v -0.03499429 -0.09748785 0.44866875
v -0.04499293 -0.11519129 0.43921646
v -0.04499293 -0.11186033 0.44099689
v -0.04499293 -0.10499279 0.44464779
v -0.03499429 -0.08499674 0.45529369
v -0.02499565 -0.11189117 0.44101024
v -0.02499565 -0.11526325 0.43921646
v -0.03499429 -0.11525297 0.43921646
f 1 2 3
f 1 3 4
f 1 4 5
f 1 5 6
f 1 6 7
f 1 7 16
f 1 16 34
f 1 34 55
f 1 55 54
f 1 54 53
f 1 53 80
f 1 80 94
f 1 94 98
f 1 98 97
f 1 97 120
f 1 120 119
f 1 119 136
f 1 136 143
f 1 143 144
f 1 144 138
f 1 138 126
f 1 126 125
f 1 125 124
f 1 124 123
f 1 123 104
f 1 104 82
f 1 82 81
f 1 81 58
f 1 58 57
f 1 57 56
f 1 56 36
f 1 36 35
f 1 35 17
f 1 17 8
f 1 8 22
f 1 22 43
f 1 43 67
f 1 67 45
f 1 45 25
f 1 25 23
f 1 23 9
f 1 9 2
f 2 9 10
f 2 10 11
f 2 11 3
f 3 11 4
f 4 12 13
f 4 13 14
f 4 14 5
f 4 11 12
f 5 14 15
f 5 15 6
f 6 15 16
f 6 16 7
f 8 17 18
f 8 18 19
f 8 19 20
f 8 20 21
f 8 21 22
f 9 23 10
f 10 24 11
f 10 23 25
f 10 25 26
f 10 26 27
f 10 27 24
f 11 28 12
f 11 24 27
f 11 27 28
f 12 29 30
f 12 30 31
f 12 31 13
f 12 28 29
f 13 31 32
f 13 32 33
f 13 33 14
f 14 33 15
f 15 33 16
f 16 33 34
f 17 35 18
f 18 35 36
f 18 36 37
f 18 37 19
f 19 37 20
f 20 37 38
f 20 38 39
f 20 39 21
f 21 40 22
f 21 39 41
f 21 41 42
f 21 42 40
f 22 40 42
f 22 42 43
f 25 44 26
f 25 45 46
f 25 46 44
f 26 44 27
f 27 44 47
f 27 47 48
f 27 48 28
f 28 48 29
f 29 48 30
f 30 49 31
f 30 48 50
f 30 50 51
f 30 51 49
f 31 49 52
f 31 52 32
f 32 52 53
f 32 53 54
f 32 54 33
f 33 54 55
f 33 55 34
f 36 56 38
f 36 38 37
f 38 56 57
f 38 57 58
f 38 58 59
f 38 59 39
f 39 59 60
f 39 60 41
f 41 60 61
f 41 61 62
f 41 62 63
f 41 63 42
f 42 63 87
f 42 87 64
f 42 64 65
f 42 65 43
f 43 65 66
f 43 66 46
f 43 46 67
f 44 46 68
f 44 68 47
f 45 67 46
f 46 66 68
f 47 68 69
f 47 69 70
f 47 70 71
f 47 71 48
f 48 72 50
f 48 71 72
f 49 73 74
f 49 74 75
f 49 75 52
f 49 51 73
f 50 72 71
f 50 71 76
f 50 76 51
f 51 76 77
f 51 77 78
f 51 78 79
f 51 79 73
f 52 80 53
f 52 75 80
f 58 81 59
f 59 81 82
f 59 82 83
f 59 83 60
f 60 84 61
f 60 83 84
f 61 84 85
f 61 85 86
f 61 86 87
f 61 87 62
f 62 87 63
f 64 87 68
f 64 68 88
f 64 88 66
f 64 66 65
f 66 88 68
f 68 87 89
f 68 89 69
f 69 89 90
f 69 90 91
f 69 91 70
f 70 91 92
f 70 92 76
f 70 76 71
f 73 93 74
f 73 79 93
f 74 94 75
f 74 93 95
f 74 95 96
f 74 96 97
f 74 97 98
f 74 98 94
f 75 94 80
f 76 92 99
f 76 99 100
f 76 100 78
f 76 78 77
f 78 101 102
f 78 102 103
f 78 103 79
f 78 100 101
f 79 103 93
f 82 104 83
f 83 104 105
f 83 105 84
f 84 105 106
f 84 106 107
f 84 107 85
f 85 108 109
f 85 109 110
f 85 110 90
f 85 90 86
f 85 107 108
f 86 90 89
f 86 89 111
f 86 111 87
f 87 111 89
f 90 112 91
f 90 110 109
f 90 109 112
f 91 112 113
f 91 113 92
f 92 113 114
f 92 114 115
f 92 115 100
f 92 100 99
f 93 103 102
f 93 102 95
f 95 102 116
f 95 116 117
f 95 117 118
f 95 118 119
f 95 119 120
f 95 120 96
f 96 120 97
f 100 115 121
f 100 121 122
f 100 122 101
f 101 122 102
f 102 122 121
f 102 121 116
f 104 123 105
f 105 124 125
f 105 125 106
f 105 123 124
f 106 125 126
f 106 126 127
f 106 127 128
f 106 128 129
f 106 129 107
f 107 129 108
f 108 130 109
f 108 129 130
f 109 130 131
f 109 131 132
f 109 132 133
f 109 133 112
f 112 133 134
f 112 134 113
f 113 134 115
f 113 115 114
f 115 134 137
f 115 137 121
f 116 121 117
f 117 121 135
f 117 135 118
f 118 135 136
f 118 136 119
f 121 137 142
f 121 142 135
f 126 138 127
f 127 138 128
f 128 138 139
f 128 139 140
f 128 140 131
f 128 131 129
f 129 131 130
f 131 140 137
f 131 137 141
f 131 141 132
f 132 141 133
f 133 141 134
f 134 141 137
f 135 142 143
f 135 143 136
f 137 140 139
f 137 139 144
f 137 144 143
f 137 143 142
f 138 144 139

