# https://github.com/mikedh/trimesh
v 0.07557877 -0.08146314 0.40337709
v 0.06857064 -0.08146314 0.43468392
v 0.06929055 -0.08546509 0.43449098
v 0.06948154 -0.09570056 0.43449098
v 0.06868817 -0.10500622 0.42499790
v 0.06583790 -0.11500366 0.42499790
v 0.07513801 -0.08272770 0.40337709
v -0.07451578 -0.08146314 0.40337709
v 0.06777726 -0.08146314 0.43765533
v 0.06796826 -0.08525681 0.43921646
v 0.06717489 -0.09535839 0.43921646
v 0.06721896 -0.10500622 0.43499964
v 0.06126866 -0.12180995 0.43158972
v 0.06198857 -0.12340181 0.42499790
v 0.06156250 -0.12302244 0.41500312
v 0.06492700 -0.11500366 0.41500312
v 0.06284072 -0.11456478 0.40337709
v -0.06600905 -0.10485744 0.40337709
v -0.06445169 -0.11500366 0.41500312
v -0.06536260 -0.11500366 0.42499790
v -0.06819817 -0.10500622 0.42499790
v -0.06893278 -0.09500134 0.43499964
v -0.06869771 -0.08500390 0.43499964
v -0.06808064 -0.08146314 0.43499964
v 0.06735119 -0.08146314 0.43921646
v 0.06461846 -0.10500622 0.43921646
v 0.06288479 -0.11464661 0.43495405
v 0.05292354 -0.13295293 0.42499790
v 0.05791886 -0.12840052 0.42499790
v 0.06137151 -0.11194640 0.43921646
v 0.05095480 -0.13062465 0.43040046
v 0.05379038 -0.13455223 0.41500312
v 0.05880038 -0.12802115 0.41500312
v 0.06068097 -0.12130412 0.40737990
v 0.06015206 -0.12027016 0.40337709
v -0.06202749 -0.11515243 0.40337709
v -0.06132227 -0.12258356 0.41500312
v -0.06176303 -0.12302987 0.42499790
v -0.06108719 -0.12159423 0.43144590
v -0.06678773 -0.10500622 0.43499964
v -0.06689057 -0.09494927 0.43921646
v -0.06766926 -0.09078367 0.43921646
v -0.06752234 -0.08500390 0.43921646
v -0.06734604 -0.08146314 0.43853587
v -0.06715503 -0.08146314 0.43921646
v 0.04330022 -0.14216188 0.42195630
v 0.04957374 -0.13955094 0.41500312
v 0.05791886 -0.11391763 0.43921646
v 0.04498981 -0.13108584 0.43063551
v 0.03018016 -0.15006164 0.42006540
v 0.05499513 -0.11452015 0.43921646
v 0.05224771 -0.13285622 0.40500137
v 0.05768378 -0.12478538 0.40442953
v 0.05828616 -0.12331254 0.40337709
v -0.06110189 -0.11705671 0.40337709
v -0.06051420 -0.12099914 0.40797979
v -0.05856016 -0.12758228 0.41500312
v -0.05355015 -0.13435137 0.41500312
v -0.05772270 -0.12802860 0.42499790
v -0.06124881 -0.11187945 0.43921646
v -0.06262987 -0.11461685 0.43486634
v -0.05272739 -0.13284878 0.42499790
v -0.05087618 -0.13060978 0.43040046
v -0.06433415 -0.10500622 0.43921646
v -0.06561237 -0.10090756 0.43921646
v 0.03655654 -0.14842516 0.41500312
v 0.04456374 -0.14341900 0.41500312
v 0.04291822 -0.14250405 0.40500137
v 0.04791354 -0.13785495 0.40500137
v 0.04839838 -0.11512268 0.43921646
v 0.04498981 -0.12499366 0.43396124
v 0.03499917 -0.13625565 0.42796579
v 0.02499385 -0.15024760 0.42019871
v 0.00499789 -0.15486696 0.41500312
v 0.01498853 -0.15422724 0.41500312
v 0.02499385 -0.15270233 0.41500312
v 0.03156122 -0.15083525 0.41500312
v 0.05192448 -0.13243222 0.40337709
v 0.05245339 -0.13168094 0.40337709
v 0.05780132 -0.12404152 0.40337709
v -0.05832508 -0.12243479 0.40337709
v -0.05742886 -0.12459941 0.40478736
v -0.05205155 -0.13263308 0.40500137
v -0.04936290 -0.13935010 0.41500312
v -0.06260049 -0.10892634 0.43921646
v -0.05498997 -0.11437137 0.43921646
v -0.04316283 -0.14209494 0.42193174
v -0.03007216 -0.15002444 0.42003033
v -0.04499934 -0.13107097 0.43063551
v 0.03189914 -0.15104353 0.40729922
v 0.03513140 -0.14783750 0.40438041
v 0.04247745 -0.14212468 0.40337709
v 0.04748746 -0.13741606 0.40337709
v 0.04498981 -0.11520450 0.43921646
v 0.03499917 -0.13125694 0.43067759
v 0.02499385 -0.13628541 0.42800790
v 0.01498853 -0.14499597 0.42333502
v 0.01498853 -0.15046333 0.42031801
v 0.02499385 -0.14499597 0.42320523
v 0.00499789 -0.15744814 0.40500137
v 0.00499789 -0.15054515 0.42033905
v -0.00499274 -0.15054515 0.42033905
v -0.00499274 -0.15485208 0.41500312
v 0.01498853 -0.15607944 0.40500137
v -0.05682649 -0.12471099 0.40337709
v -0.05172833 -0.13220908 0.40337709
v -0.04845199 -0.13598786 0.40337709
v -0.04770269 -0.13763179 0.40500137
v -0.04436758 -0.14328511 0.41500312
v -0.04270737 -0.14232552 0.40500137
v -0.04499934 -0.12499366 0.43395773
v -0.04499934 -0.11687074 0.43832189
v -0.04499934 -0.11519706 0.43921646
v -0.03633100 -0.14828382 0.41500312
v -0.03132099 -0.15072368 0.41500312
v -0.02498869 -0.15254612 0.41500312
v -0.01499806 -0.15416774 0.41500312
v -0.02498869 -0.15022530 0.42017415
v -0.03499402 -0.13625565 0.42794824
v 0.02562561 -0.15262794 0.40438041
v 0.02662467 -0.15185434 0.40337709
v 0.03041524 -0.15026249 0.40337709
v 0.03514609 -0.14734656 0.40337709
v 0.03358873 -0.14833589 0.40337709
v 0.03827551 -0.11524169 0.43921646
v 0.03499917 -0.12499366 0.43402088
v 0.02499385 -0.13128670 0.43068463
v 0.01498853 -0.13629285 0.42802191
v 0.00499789 -0.14499597 0.42336309
v 0.00499789 -0.15684561 0.40337709
v 0.01337240 -0.15570009 0.40337709
v -0.00499274 -0.15741095 0.40500137
v -0.00499274 -0.14499597 0.42336309
v -0.01499806 -0.14499597 0.42333502
v -0.01499806 -0.15046333 0.42031801
v 0.01494445 -0.15544717 0.40337709
v 0.02518485 -0.15239735 0.40337709
v -0.04726192 -0.13720036 0.40337709
v -0.04602779 -0.13842028 0.40337709
v -0.03168829 -0.15093939 0.40748164
v -0.04226661 -0.14194617 0.40337709
v -0.03609592 -0.14639443 0.40337709
v -0.03500871 -0.14765155 0.40448916
v -0.03499402 -0.13125694 0.43067759
v -0.03499402 -0.12499366 0.43402088
v -0.03499402 -0.11525657 0.43921646
v -0.01499806 -0.15596786 0.40500137
v 0.03499917 -0.11525657 0.43921646
v 0.01498853 -0.13129413 0.43068811
v 0.00499789 -0.13629285 0.42802542
v -0.00499274 -0.15680844 0.40337709
v -0.00499274 -0.13629285 0.42802542
v -0.01499806 -0.13629285 0.42802191
v -0.02498869 -0.13628541 0.42800790
v -0.03326035 -0.14826150 0.40337709
v -0.02666359 -0.15163863 0.40337709
v -0.02554699 -0.15250149 0.40448916
v -0.03502340 -0.14710853 0.40337709
v -0.02498869 -0.13128670 0.43068463
v -0.01499806 -0.13129413 0.43068811
v -0.02498869 -0.11690049 0.43834645
v -0.02498869 -0.11526401 0.43921646
v -0.02504746 -0.15226346 0.40337709
v -0.01670234 -0.15485951 0.40337709
v -0.01493929 -0.15533559 0.40337709
v 0.02825550 -0.11526401 0.43921646
v 0.02499385 -0.11690049 0.43834645
f 1 2 3
f 1 3 4
f 1 4 5
f 1 5 6
f 1 6 7
f 1 7 17
f 1 17 35
f 1 35 54
f 1 54 80
f 1 80 79
f 1 79 78
f 1 78 93
f 1 93 92
f 1 92 123
f 1 123 124
f 1 124 122
f 1 122 121
f 1 121 137
f 1 137 136
f 1 136 131
f 1 131 130
f 1 130 151
f 1 151 165
f 1 165 164
f 1 164 163
f 1 163 156
f 1 156 155
f 1 155 158
f 1 158 142
f 1 142 141
f 1 141 139
f 1 139 138
f 1 138 107
f 1 107 106
f 1 106 105
f 1 105 81
f 1 81 55
f 1 55 36
f 1 36 18
f 1 18 8
f 1 8 24
f 1 24 44
f 1 44 45
f 1 45 25
f 1 25 9
f 1 9 2
f 2 9 3
f 3 9 10
f 3 10 4
f 4 10 11
f 4 11 12
f 4 12 5
f 5 12 6
f 6 12 13
f 6 13 14
f 6 14 15
f 6 15 16
f 6 16 7
f 7 16 17
f 8 18 19
f 8 19 20
f 8 20 21
f 8 21 22
f 8 22 23
f 8 23 24
f 9 25 10
f 10 25 45
f 10 45 43
f 10 43 42
f 10 42 41
f 10 41 65
f 10 65 64
f 10 64 85
f 10 85 60
f 10 60 86
f 10 86 113
f 10 113 146
f 10 146 162
f 10 162 166
f 10 166 148
f 10 148 125
f 10 125 94
f 10 94 70
f 10 70 51
f 10 51 48
f 10 48 30
f 10 30 26
f 10 26 11
f 11 26 12
f 12 26 27
f 12 27 13
f 13 28 29
f 13 29 14
f 13 27 30
f 13 30 31
f 13 31 28
f 14 29 32
f 14 32 33
f 14 33 15
f 15 17 16
f 15 33 34
f 15 34 17
f 17 34 35
f 18 36 19
f 19 36 37
f 19 37 20
f 20 38 39
f 20 39 40
f 20 40 21
f 20 37 38
f 21 40 22
f 22 40 41
f 22 41 42
f 22 42 23
f 23 42 43
f 23 43 44
f 23 44 24
f 26 30 27
f 28 31 46
f 28 46 47
f 28 47 29
f 29 47 32
f 30 48 31
f 31 49 50
f 31 50 46
f 31 48 51
f 31 51 49
f 32 52 33
f 32 47 52
f 33 52 53
f 33 53 54
f 33 54 35
f 33 35 34
f 36 55 56
f 36 56 37
f 37 56 57
f 37 57 38
f 38 57 58
f 38 58 59
f 38 59 39
f 39 60 61
f 39 61 40
f 39 59 62
f 39 62 63
f 39 63 60
f 40 61 64
f 40 64 65
f 40 65 41
f 43 45 44
f 46 66 67
f 46 67 47
f 46 50 66
f 47 67 68
f 47 68 69
f 47 69 52
f 49 51 70
f 49 70 71
f 49 71 72
f 49 72 73
f 49 73 50
f 50 73 74
f 50 74 75
f 50 75 76
f 50 76 77
f 50 77 66
f 52 78 79
f 52 79 53
f 52 69 78
f 53 80 54
f 53 79 80
f 55 81 56
f 56 81 82
f 56 82 57
f 57 82 83
f 57 83 58
f 58 83 84
f 58 84 59
f 59 84 62
f 60 85 61
f 60 63 86
f 61 85 64
f 62 84 87
f 62 87 63
f 63 87 88
f 63 88 89
f 63 89 86
f 66 77 90
f 66 90 67
f 67 90 68
f 68 90 91
f 68 91 92
f 68 92 69
f 69 92 93
f 69 93 78
f 70 94 71
f 71 94 95
f 71 95 72
f 72 95 96
f 72 96 97
f 72 97 98
f 72 98 99
f 72 99 73
f 73 99 98
f 73 98 74
f 74 100 75
f 74 98 101
f 74 101 102
f 74 102 103
f 74 103 100
f 75 104 76
f 75 100 104
f 76 104 77
f 77 104 90
f 81 105 82
f 82 105 83
f 83 106 107
f 83 107 108
f 83 108 84
f 83 105 106
f 84 109 87
f 84 108 110
f 84 110 109
f 86 89 111
f 86 111 112
f 86 112 113
f 87 109 114
f 87 114 88
f 88 115 116
f 88 116 117
f 88 117 103
f 88 103 118
f 88 118 89
f 88 114 115
f 89 118 119
f 89 119 111
f 90 104 120
f 90 120 121
f 90 121 122
f 90 122 91
f 91 123 92
f 91 122 124
f 91 124 123
f 94 125 126
f 94 126 95
f 95 126 127
f 95 127 96
f 96 127 128
f 96 128 129
f 96 129 97
f 97 129 101
f 97 101 98
f 100 130 131
f 100 131 104
f 100 103 132
f 100 132 151
f 100 151 130
f 101 129 133
f 101 133 102
f 102 133 134
f 102 134 135
f 102 135 103
f 103 135 118
f 103 117 132
f 104 131 136
f 104 136 137
f 104 137 120
f 107 138 108
f 108 138 139
f 108 139 110
f 109 110 140
f 109 140 114
f 110 141 142
f 110 142 143
f 110 143 140
f 110 139 141
f 111 119 144
f 111 144 112
f 112 144 113
f 113 144 145
f 113 145 146
f 114 140 115
f 115 140 147
f 115 147 116
f 116 147 117
f 117 147 132
f 118 135 119
f 119 135 134
f 119 134 144
f 120 137 121
f 125 148 126
f 126 148 127
f 127 149 128
f 127 148 149
f 128 149 150
f 128 150 129
f 129 150 152
f 129 152 133
f 132 147 151
f 133 152 153
f 133 153 154
f 133 154 134
f 134 154 144
f 140 143 155
f 140 155 156
f 140 156 157
f 140 157 147
f 142 158 143
f 143 158 155
f 144 154 159
f 144 159 145
f 145 159 146
f 146 159 160
f 146 160 161
f 146 161 162
f 147 157 163
f 147 163 164
f 147 164 165
f 147 165 151
f 148 166 149
f 149 166 167
f 149 167 161
f 149 161 160
f 149 160 152
f 149 152 150
f 152 160 153
f 153 160 159
f 153 159 154
f 156 163 157
f 161 167 166
f 161 166 162

