# https://github.com/mikedh/trimesh
v 0.15985285 0.13497365 0.33496380
v 0.15960249 0.14498791 0.33496380
v 0.15982156 0.13497365 0.34496629
v 0.15985285 -0.13497365 0.33496380
v 0.15985285 0.13497365 -0.47498816
v 0.15468924 0.15462665 0.29495370
v 0.15465795 0.15462665 0.33496380
v 0.15957120 0.14498791 0.34496629
v 0.15960249 0.14498791 -0.47498816
v 0.15982156 -0.13497365 0.34496629
v 0.15972768 0.13678873 0.35320371
v 0.15975897 0.13497365 0.35320371
v 0.15960249 -0.14498791 0.33496380
v 0.15985285 -0.13497365 -0.47498816
v 0.15975897 0.13497365 -0.48499066
v 0.14498791 0.15957120 0.33496380
v 0.15468924 0.15462665 -0.47498816
v 0.15465795 0.15456407 0.34496629
v 0.15775612 0.14670911 0.35320371
v 0.15863237 0.14498791 0.35320371
v 0.15950862 0.14498791 -0.48499066
v 0.15462665 0.15459536 -0.48499066
v 0.15957120 -0.14498791 0.34496629
v 0.15975897 -0.13497365 0.35320371
v 0.15465795 -0.15462665 0.33496380
v 0.15468924 -0.15462665 0.28495121
v 0.15960249 -0.14498791 -0.47498816
v 0.15975897 -0.13497365 -0.48499066
v 0.15822554 0.13497365 -0.49499315
v 0.13497365 0.15985285 0.33496380
v 0.14498791 0.15944602 0.34496629
v 0.14498791 0.15957120 -0.47498816
v 0.15375040 0.15337487 0.35320371
v 0.15791258 0.14498791 -0.49499315
v 0.15378170 0.15371911 -0.49499315
v 0.14498791 0.15947732 -0.48499066
v 0.15465795 -0.15456407 0.34496629
v 0.15863237 -0.14498791 0.35320371
v 0.14498791 -0.15957120 0.33496380
v 0.15468924 -0.15462665 -0.47498816
v 0.15462665 -0.15459536 -0.48499066
v 0.15950862 -0.14498791 -0.48499066
v 0.15822554 -0.13497365 -0.49499315
v 0.15340616 0.13497365 -0.50238997
v -0.13497365 0.15985285 0.33496380
v 0.13497365 0.15969639 0.34496629
v 0.13497365 0.15985285 -0.47498816
v 0.14498791 0.15700504 0.35320371
v 0.15318710 0.14498791 -0.50222188
v 0.15199791 0.15190402 -0.50138134
v 0.14498791 0.15778741 -0.49499315
v 0.13497365 0.15813164 -0.49499315
v 0.13497365 0.15972768 -0.48499066
v 0.14498791 -0.15944602 0.34496629
v 0.15375040 -0.15337487 0.35320371
v 0.13497365 -0.15985285 0.33496380
v 0.14498791 -0.15957120 -0.47498816
v 0.14498791 -0.15947732 -0.48499066
v 0.15378170 -0.15371911 -0.49499315
v 0.15791258 -0.14498791 -0.49499315
v 0.15340616 -0.13497365 -0.50238997
v 0.14498791 0.13497365 -0.50516379
v -0.14498791 0.15957120 0.33496380
v -0.14498791 0.15944602 0.34496629
v -0.13497365 0.15969639 0.34496629
v -0.13497365 0.15985285 -0.47498816
v 0.13497365 0.15722410 0.35320371
v 0.13678873 0.15719281 0.35320371
v 0.14498791 0.14498791 -0.50482756
v 0.14498791 0.15309322 -0.50222188
v 0.13497365 0.15331228 -0.50238997
v -0.13497365 0.15813164 -0.49499315
v -0.13497365 0.15972768 -0.48499066
v 0.13497365 -0.15969639 0.34496629
v 0.15199791 -0.15425111 0.35320371
v 0.14498791 -0.15700504 0.35320371
v -0.13497365 -0.15985285 0.33496380
v 0.13497365 -0.15985285 -0.47498816
v 0.13497365 -0.15972768 -0.48499066
v 0.13497365 -0.15813164 -0.49499315
v 0.14498791 -0.15778741 -0.49499315
v 0.15199791 -0.15190402 -0.50138134
v 0.15318710 -0.14498791 -0.50222188
v 0.14498791 -0.13497365 -0.50516379
v 0.13497365 0.13497365 -0.50550002
v -0.15468924 0.15462665 0.28495121
v -0.15465795 0.15462665 0.33496380
v -0.15465795 0.15456407 0.34496629
v -0.14498791 0.15957120 -0.47498816
v -0.15375040 0.15337487 0.35320371
v -0.15199791 0.15425111 0.35320371
v -0.14498791 0.15700504 0.35320371
v -0.13497365 0.15722410 0.35320371
v -0.14498791 0.15947732 -0.48499066
v 0.13497365 0.14498791 -0.50516379
v -0.13497365 0.15331228 -0.50238997
v -0.14498791 0.15309322 -0.50222188
v -0.14498791 0.15778741 -0.49499315
v -0.13497365 -0.15969639 0.34496629
v 0.13497365 -0.15722410 0.35320371
v -0.14498791 -0.15944602 0.34496629
v -0.14498791 -0.15957120 0.33496380
v -0.13497365 -0.15985285 -0.47498816
v -0.13497365 -0.15972768 -0.48499066
v -0.13497365 -0.15813164 -0.49499315
v 0.13497365 -0.15331228 -0.50238997
v 0.14498791 -0.15309322 -0.50222188
v 0.14498791 -0.14498791 -0.50482756
v 0.13497365 -0.13497365 -0.50550002
v -0.13497365 0.13497365 -0.50550002
v -0.15960249 0.14498791 0.33496380
v -0.15468924 0.15462665 -0.47498816
v -0.15957120 0.14498791 0.34496629
v -0.15863237 0.14498791 0.35320371
v -0.15462665 0.15459536 -0.48499066
v -0.15378170 0.15371911 -0.49499315
v -0.13497365 0.14498791 -0.50516379
v -0.15199791 0.15190402 -0.50138134
v -0.14498791 0.14498791 -0.50482756
v -0.13497365 -0.15722410 0.35320371
v -0.13678873 -0.15719281 0.35320371
v -0.14498791 -0.15700504 0.35320371
v -0.15465795 -0.15456407 0.34496629
v -0.15375040 -0.15337487 0.35320371
v -0.15465795 -0.15462665 0.33496380
v -0.15468924 -0.15462665 0.29495370
v -0.14498791 -0.15957120 -0.47498816
v -0.14498791 -0.15947732 -0.48499066
v -0.14498791 -0.15778741 -0.49499315
v -0.14498791 -0.15309322 -0.50222188
v -0.13497365 -0.15331228 -0.50238997
v 0.13497365 -0.14498791 -0.50516379
v -0.13497365 -0.13497365 -0.50550002
v -0.14498791 0.13497365 -0.50516379
v -0.15985285 0.13497365 0.33496380
v -0.15960249 0.14498791 -0.47498816
v -0.15982156 0.13497365 0.34496629
v -0.15975897 0.13497365 0.35320371
v -0.15950862 0.14498791 -0.48499066
v -0.15791258 0.14498791 -0.49499315
v -0.15318710 0.14498791 -0.50222188
v -0.15775612 -0.14670911 0.35320371
v -0.15957120 -0.14498791 0.34496629
v -0.15960249 -0.14498791 0.33496380
v -0.15468924 -0.15462665 -0.47498816
v -0.15462665 -0.15459536 -0.48499066
v -0.15378170 -0.15371911 -0.49499315
v -0.15199791 -0.15190402 -0.50138134
v -0.14498791 -0.14498791 -0.50482756
v -0.13497365 -0.14498791 -0.50516379
v -0.14498791 -0.13497365 -0.50516379
v -0.15340616 0.13497365 -0.50238997
v -0.15985285 -0.13497365 0.33496380
v -0.15985285 0.13497365 -0.47498816
v -0.15982156 -0.13497365 0.34496629
v -0.15975897 -0.13497365 0.35320371
v -0.15975897 0.13497365 -0.48499066
v -0.15822554 0.13497365 -0.49499315
v -0.15863237 -0.14498791 0.35320371
v -0.15972768 -0.13678873 0.35320371
v -0.15960249 -0.14498791 -0.47498816
v -0.15950862 -0.14498791 -0.48499066
v -0.15791258 -0.14498791 -0.49499315
v -0.15318710 -0.14498791 -0.50222188
v -0.15340616 -0.13497365 -0.50238997
v -0.15985285 -0.13497365 -0.47498816
v -0.15975897 -0.13497365 -0.48499066
v -0.15822554 -0.13497365 -0.49499315
f 1 2 8
f 1 8 3
f 1 3 10
f 1 10 4
f 1 4 14
f 1 14 5
f 1 5 9
f 1 9 2
f 2 6 7
f 2 7 8
f 2 9 17
f 2 17 6
f 3 8 11
f 3 11 12
f 3 12 24
f 3 24 10
f 4 10 23
f 4 23 13
f 4 13 27
f 4 27 14
f 5 14 28
f 5 28 15
f 5 15 21
f 5 21 9
f 6 16 7
f 6 17 32
f 6 32 16
f 7 16 18
f 7 18 8
f 8 18 19
f 8 19 20
f 8 20 11
f 9 21 22
f 9 22 17
f 10 24 23
f 11 20 19
f 11 19 33
f 11 33 48
f 11 48 68
f 11 68 67
f 11 67 93
f 11 93 92
f 11 92 91
f 11 91 90
f 11 90 114
f 11 114 138
f 11 138 156
f 11 156 160
f 11 160 159
f 11 159 142
f 11 142 124
f 11 124 122
f 11 122 121
f 11 121 120
f 11 120 100
f 11 100 76
f 11 76 75
f 11 75 55
f 11 55 38
f 11 38 24
f 11 24 12
f 13 23 25
f 13 25 26
f 13 26 40
f 13 40 27
f 14 27 42
f 14 42 28
f 15 28 43
f 15 43 29
f 15 29 21
f 16 30 31
f 16 31 18
f 16 32 47
f 16 47 30
f 17 22 32
f 18 31 33
f 18 33 19
f 21 29 34
f 21 34 35
f 21 35 22
f 22 35 36
f 22 36 32
f 23 37 25
f 23 24 38
f 23 38 37
f 25 37 39
f 25 39 26
f 26 39 57
f 26 57 40
f 27 40 41
f 27 41 42
f 28 42 43
f 29 43 61
f 29 61 44
f 29 44 34
f 30 45 65
f 30 65 46
f 30 46 31
f 30 47 66
f 30 66 45
f 31 46 48
f 31 48 33
f 32 36 47
f 34 44 49
f 34 49 50
f 34 50 35
f 35 50 51
f 35 51 36
f 36 51 52
f 36 52 53
f 36 53 47
f 37 54 39
f 37 38 55
f 37 55 54
f 39 54 56
f 39 56 78
f 39 78 57
f 40 57 41
f 41 58 59
f 41 59 42
f 41 57 58
f 42 59 60
f 42 60 43
f 43 60 61
f 44 61 84
f 44 84 62
f 44 62 49
f 45 63 64
f 45 64 65
f 45 66 89
f 45 89 63
f 46 65 93
f 46 93 67
f 46 67 68
f 46 68 48
f 47 53 73
f 47 73 66
f 49 62 69
f 49 69 50
f 50 69 70
f 50 70 51
f 51 70 52
f 52 70 71
f 52 71 96
f 52 96 72
f 52 72 73
f 52 73 53
f 54 74 56
f 54 55 75
f 54 75 76
f 54 76 74
f 56 74 99
f 56 99 77
f 56 77 103
f 56 103 78
f 57 78 58
f 58 79 80
f 58 80 81
f 58 81 59
f 58 78 79
f 59 81 82
f 59 82 60
f 60 82 83
f 60 83 61
f 61 83 84
f 62 84 109
f 62 109 85
f 62 85 95
f 62 95 69
f 63 86 87
f 63 87 88
f 63 88 64
f 63 89 112
f 63 112 86
f 64 88 90
f 64 90 91
f 64 91 92
f 64 92 65
f 65 92 93
f 66 73 94
f 66 94 89
f 69 95 70
f 70 95 71
f 71 95 117
f 71 117 96
f 72 96 97
f 72 97 98
f 72 98 94
f 72 94 73
f 74 76 100
f 74 100 120
f 74 120 99
f 77 99 101
f 77 101 102
f 77 102 127
f 77 127 103
f 78 103 104
f 78 104 79
f 79 104 105
f 79 105 80
f 80 105 131
f 80 131 106
f 80 106 107
f 80 107 81
f 81 107 82
f 82 107 108
f 82 108 83
f 83 108 84
f 84 108 132
f 84 132 109
f 85 109 133
f 85 133 110
f 85 110 117
f 85 117 95
f 86 111 87
f 86 112 136
f 86 136 111
f 87 111 113
f 87 113 88
f 88 113 114
f 88 114 90
f 89 94 115
f 89 115 112
f 94 98 116
f 94 116 115
f 96 117 97
f 97 118 98
f 97 117 119
f 97 119 118
f 98 118 116
f 99 120 121
f 99 121 122
f 99 122 101
f 101 123 102
f 101 122 124
f 101 124 123
f 102 123 125
f 102 125 126
f 102 126 145
f 102 145 127
f 103 127 128
f 103 128 104
f 104 128 105
f 105 129 130
f 105 130 131
f 105 128 129
f 106 131 150
f 106 150 132
f 106 132 107
f 107 132 108
f 109 132 150
f 109 150 133
f 110 134 119
f 110 119 117
f 110 133 151
f 110 151 134
f 111 135 137
f 111 137 113
f 111 136 154
f 111 154 135
f 112 115 136
f 113 137 138
f 113 138 114
f 115 139 136
f 115 116 139
f 116 118 140
f 116 140 139
f 118 119 141
f 118 141 140
f 119 134 141
f 123 124 142
f 123 142 143
f 123 143 125
f 125 143 144
f 125 144 126
f 126 144 161
f 126 161 145
f 127 145 146
f 127 146 128
f 128 146 147
f 128 147 129
f 129 147 148
f 129 148 130
f 130 148 149
f 130 149 150
f 130 150 131
f 133 150 149
f 133 149 151
f 134 151 165
f 134 165 152
f 134 152 141
f 135 153 155
f 135 155 137
f 135 154 166
f 135 166 153
f 136 139 157
f 136 157 154
f 137 155 156
f 137 156 138
f 139 140 158
f 139 158 157
f 140 141 152
f 140 152 158
f 142 159 143
f 143 159 160
f 143 160 155
f 143 155 153
f 143 153 144
f 144 153 166
f 144 166 161
f 145 161 146
f 146 161 162
f 146 162 147
f 147 162 163
f 147 163 148
f 148 163 164
f 148 164 149
f 149 164 151
f 151 164 165
f 152 165 168
f 152 168 158
f 154 157 167
f 154 167 166
f 155 160 156
f 157 158 168
f 157 168 167
f 161 166 167
f 161 167 162
f 162 167 168
f 162 168 163
f 163 168 165
f 163 165 164

