# https://github.com/mikedh/trimesh
v -0.09519578 0.32760531 -0.48499718
v -0.09519578 0.32758754 -0.47500184
v -0.09519578 0.32733858 -0.49499747
v -0.10501659 0.32522267 -0.49499747
v -0.10501659 0.32532936 -0.48499718
v -0.09519578 0.32536492 -0.46499163
v -0.10501659 0.32531157 -0.47500184
v -0.09519578 0.32353348 -0.50274122
v -0.10501659 0.32255551 -0.50242811
v -0.11253147 0.32127529 -0.50140423
v -0.11378738 0.32191539 -0.49499747
v -0.11374620 0.32189763 -0.47500184
v -0.10520189 0.32257330 -0.46449459
v -0.10201064 0.32074186 -0.45882842
v -0.09519578 0.32529378 -0.46484748
v -0.11251087 0.32125750 -0.46749169
v -0.09519578 0.31499863 -0.50537550
v -0.10501659 0.31499863 -0.50517666
v -0.12500823 0.31298935 -0.50238836
v -0.14502044 0.30288979 -0.50235355
v -0.18500371 0.28269061 -0.50227404
v -0.15228826 0.30114725 -0.50130481
v -0.11874925 0.31935495 -0.47500184
v -0.17215636 0.29108325 -0.50125510
v -0.19202445 0.28101921 -0.50120044
v -0.17322697 0.29163444 -0.49499747
v -0.15840310 0.29917356 -0.48499718
v -0.15337946 0.30171624 -0.47500184
v -0.19200388 0.28100145 -0.46792412
v -0.17213577 0.29106545 -0.46781477
v -0.10868137 0.31951499 -0.46082649
v -0.09519578 0.31999505 -0.45459867
v -0.09519578 0.32152423 -0.45735720
v -0.09519578 0.32157755 -0.45745659
v -0.10520189 0.31747016 -0.45459867
v -0.14530869 0.30313873 -0.46462381
v -0.13542610 0.30813515 -0.46455920
v -0.11549624 0.31823474 -0.46449459
v -0.18500371 0.27499148 -0.50502759
v -0.16501208 0.28498438 -0.50506735
v -0.12500823 0.30498794 -0.50514191
v -0.09519578 0.30699718 -0.50262690
v -0.28459129 0.14595512 -0.50296491
v -0.29505035 0.14595512 -0.50490832
v -0.28498247 0.16501629 -0.50506735
v -0.27499694 0.18500209 -0.50502759
v -0.14502044 0.29499504 -0.50510216
v -0.19521570 0.27550712 -0.50292015
v -0.20285413 0.27250215 -0.50183165
v -0.19803636 0.27881438 -0.49499747
v -0.19303331 0.28153485 -0.49499747
v -0.19301271 0.28151709 -0.47500184
v -0.19801578 0.27884993 -0.47500184
v -0.20268941 0.27239546 -0.46500155
v -0.19521570 0.27748081 -0.46475801
v -0.18862732 0.27927667 -0.46125889
v -0.18516842 0.28288621 -0.46475801
v -0.17528585 0.28790045 -0.46468842
v -0.16523856 0.29302135 -0.46468842
v -0.10571660 0.31723902 -0.45459867
v -0.11502270 0.31302494 -0.45459867
v -0.09519578 0.28453985 -0.45459867
v -0.16873863 0.28935850 -0.46114954
v -0.12898184 0.30946875 -0.46093085
v -0.12231110 0.31130016 -0.45810273
v -0.20569536 0.26570982 -0.50329792
v -0.23571369 0.23573114 -0.50329792
v -0.09519578 0.30184072 -0.49476883
v -0.27820879 0.14595512 -0.49647364
v -0.28306770 0.14595512 -0.50226903
v -0.30264759 0.14595512 -0.50221437
v -0.29278558 0.16501629 -0.50231379
v -0.28269714 0.18500209 -0.50227404
v -0.27549106 0.19522613 -0.50292015
v -0.26571143 0.20571689 -0.50329792
v -0.21283965 0.26284710 -0.50183165
v -0.20929839 0.26930156 -0.49499747
v -0.20429532 0.27381793 -0.49499747
v -0.20433651 0.27385348 -0.48499718
v -0.19801578 0.27884993 -0.48499718
v -0.20431592 0.27385348 -0.47500184
v -0.20071289 0.27063513 -0.45923102
v -0.20931897 0.26931936 -0.47500184
v -0.20769246 0.26775461 -0.46500155
v -0.19439216 0.27225322 -0.45459867
v -0.18547726 0.27710742 -0.45459867
v -0.18516842 0.27726743 -0.45459867
v -0.17475054 0.28265506 -0.45459867
v -0.15484126 0.29279020 -0.45459867
v -0.09519578 0.28423756 -0.45462352
v -0.25675535 0.14595512 -0.45459867
v -0.26284960 0.21286483 -0.50183165
v -0.22284575 0.25285420 -0.50183165
v -0.30540645 0.14595512 -0.49499747
v -0.30114460 0.15228513 -0.50130481
v -0.28102943 0.19202556 -0.50120044
v -0.27250570 0.20287193 -0.50183165
v -0.22430755 0.25431222 -0.49499747
v -0.20931897 0.26931936 -0.48499718
v -0.20423356 0.26425177 -0.45459867
v -0.21932508 0.25932646 -0.47500184
v -0.21273670 0.26274040 -0.46500155
v -0.21078077 0.26078451 -0.45913160
v -0.29721215 0.14595512 -0.45459867
v -0.26929387 0.20932642 -0.49499747
v -0.26431140 0.21432287 -0.49499747
v -0.24930224 0.22932999 -0.49499747
v -0.30550942 0.14595512 -0.48499718
v -0.30172110 0.15340534 -0.49499747
v -0.29163262 0.17321330 -0.49499747
v -0.28152356 0.19303907 -0.49499747
v -0.27880585 0.19803552 -0.49499747
v -0.27380282 0.20432997 -0.49499747
v -0.22933120 0.24933356 -0.48499718
v -0.21428086 0.25427666 -0.45459867
v -0.24431977 0.23434421 -0.47500184
v -0.24275503 0.23276171 -0.46500155
v -0.29710922 0.14618626 -0.45459867
v -0.30019754 0.14595512 -0.45981750
v -0.26933506 0.20934421 -0.48499718
v -0.25432590 0.22435133 -0.48499718
v -0.30548882 0.14595512 -0.47500184
v -0.29916808 0.15838400 -0.47500184
v -0.28907961 0.17820975 -0.48499718
v -0.28152356 0.19302130 -0.48499718
v -0.27884704 0.19801775 -0.48499718
v -0.27384397 0.20434776 -0.48499718
v -0.22428696 0.24428377 -0.45459867
v -0.26931447 0.20934421 -0.47500184
v -0.25774360 0.21777238 -0.46500155
v -0.25428471 0.21430509 -0.45459867
v -0.29278558 0.15484560 -0.45459867
v -0.29941514 0.14885342 -0.46104020
v -0.30244169 0.14595512 -0.46396774
v -0.27384397 0.20432997 -0.47500184
v -0.30532411 0.14595512 -0.47404256
v -0.30112401 0.15224957 -0.46770540
v -0.29107672 0.17212868 -0.46781477
v -0.28100884 0.19200778 -0.46792412
v -0.28152356 0.19300351 -0.47500184
v -0.27884704 0.19799995 -0.47500184
v -0.27240276 0.20271191 -0.46500155
v -0.26774973 0.20770836 -0.46500155
v -0.26274666 0.21275815 -0.46500155
v -0.26079074 0.21080224 -0.45913160
v -0.26424965 0.20425886 -0.45459867
v -0.28265595 0.17474248 -0.45459867
v -0.29801512 0.15536124 -0.46462381
v -0.30279171 0.14595512 -0.46462381
v -0.27927941 0.18861161 -0.46125889
v -0.28290302 0.18517989 -0.46475801
v -0.30293584 0.14595512 -0.46491209
v -0.27748817 0.19520834 -0.46475801
v -0.27063215 0.20072044 -0.45923102
v -0.27223808 0.19439042 -0.45459867
v -0.27726170 0.18516211 -0.45459867
f 1 2 6
f 1 6 15
f 1 15 34
f 1 34 33
f 1 33 32
f 1 32 62
f 1 62 90
f 1 90 68
f 1 68 42
f 1 42 17
f 1 17 8
f 1 8 3
f 1 3 4
f 1 4 5
f 1 5 7
f 1 7 2
f 2 7 6
f 3 8 9
f 3 9 4
f 4 9 10
f 4 10 11
f 4 11 5
f 5 11 12
f 5 12 7
f 6 7 13
f 6 13 14
f 6 14 15
f 7 12 16
f 7 16 13
f 8 17 18
f 8 18 9
f 9 18 19
f 9 19 10
f 10 19 20
f 10 20 21
f 10 21 22
f 10 22 11
f 11 23 12
f 11 22 24
f 11 24 25
f 11 25 26
f 11 26 27
f 11 27 28
f 11 28 23
f 12 23 29
f 12 29 30
f 12 30 16
f 13 16 31
f 13 31 14
f 14 32 33
f 14 33 34
f 14 34 15
f 14 31 35
f 14 35 32
f 16 36 37
f 16 37 38
f 16 38 31
f 16 30 36
f 17 39 40
f 17 40 41
f 17 41 18
f 17 42 43
f 17 43 44
f 17 44 45
f 17 45 46
f 17 46 39
f 18 41 40
f 18 40 47
f 18 47 19
f 19 47 39
f 19 39 20
f 20 39 21
f 21 39 48
f 21 48 25
f 21 25 24
f 21 24 22
f 23 28 29
f 25 48 49
f 25 49 50
f 25 50 51
f 25 51 26
f 26 51 52
f 26 52 27
f 27 52 28
f 28 52 29
f 29 52 53
f 29 53 54
f 29 54 55
f 29 55 56
f 29 56 57
f 29 57 58
f 29 58 59
f 29 59 30
f 30 59 36
f 31 60 35
f 31 38 61
f 31 61 60
f 32 35 60
f 32 60 61
f 32 61 89
f 32 89 88
f 32 88 87
f 32 87 86
f 32 86 85
f 32 85 100
f 32 100 115
f 32 115 128
f 32 128 131
f 32 131 146
f 32 146 155
f 32 155 156
f 32 156 147
f 32 147 132
f 32 132 118
f 32 118 104
f 32 104 91
f 32 91 62
f 36 59 63
f 36 63 37
f 37 63 64
f 37 64 38
f 38 64 65
f 38 65 61
f 39 66 48
f 39 47 40
f 39 46 67
f 39 67 66
f 42 68 69
f 42 69 70
f 42 70 43
f 43 70 69
f 43 69 91
f 43 91 104
f 43 104 119
f 43 119 134
f 43 134 149
f 43 149 152
f 43 152 136
f 43 136 122
f 43 122 108
f 43 108 94
f 43 94 71
f 43 71 44
f 44 71 72
f 44 72 45
f 45 72 46
f 46 72 73
f 46 73 74
f 46 74 75
f 46 75 67
f 48 66 49
f 49 66 76
f 49 76 77
f 49 77 78
f 49 78 50
f 50 78 79
f 50 79 80
f 50 80 51
f 51 80 53
f 51 53 52
f 53 80 79
f 53 79 81
f 53 81 54
f 54 82 55
f 54 81 83
f 54 83 84
f 54 84 82
f 55 82 85
f 55 85 56
f 56 85 86
f 56 86 87
f 56 87 88
f 56 88 63
f 56 63 58
f 56 58 57
f 58 63 59
f 61 65 89
f 62 91 90
f 63 88 65
f 63 65 64
f 65 88 89
f 66 67 93
f 66 93 76
f 67 75 92
f 67 92 93
f 68 90 69
f 69 90 91
f 71 94 95
f 71 95 72
f 72 95 73
f 73 95 96
f 73 96 74
f 74 97 75
f 74 96 97
f 75 97 92
f 76 93 98
f 76 98 77
f 77 98 114
f 77 114 99
f 77 99 79
f 77 79 78
f 79 99 83
f 79 83 81
f 82 84 100
f 82 100 85
f 83 99 114
f 83 114 101
f 83 101 117
f 83 117 102
f 83 102 84
f 84 102 103
f 84 103 100
f 92 97 105
f 92 105 106
f 92 106 107
f 92 107 93
f 93 107 98
f 94 108 109
f 94 109 95
f 95 109 96
f 96 109 110
f 96 110 111
f 96 111 112
f 96 112 97
f 97 112 113
f 97 113 105
f 98 107 121
f 98 121 114
f 100 103 115
f 101 114 121
f 101 121 116
f 101 116 117
f 102 115 103
f 102 117 128
f 102 128 115
f 104 118 119
f 105 120 106
f 105 113 127
f 105 127 120
f 106 120 121
f 106 121 107
f 108 122 123
f 108 123 124
f 108 124 110
f 108 110 109
f 110 124 111
f 111 124 125
f 111 125 126
f 111 126 112
f 112 126 127
f 112 127 113
f 116 121 120
f 116 120 129
f 116 129 130
f 116 130 117
f 117 131 128
f 117 130 131
f 118 132 119
f 119 132 133
f 119 133 134
f 120 127 135
f 120 135 129
f 122 136 137
f 122 137 138
f 122 138 139
f 122 139 123
f 123 139 140
f 123 140 124
f 124 140 125
f 125 140 141
f 125 141 126
f 126 141 135
f 126 135 127
f 129 135 142
f 129 142 143
f 129 143 144
f 129 144 130
f 130 144 131
f 131 144 145
f 131 145 146
f 132 147 133
f 133 148 149
f 133 149 134
f 133 147 150
f 133 150 151
f 133 151 148
f 135 141 142
f 136 152 137
f 137 152 148
f 137 148 138
f 138 148 151
f 138 151 139
f 139 151 150
f 139 150 153
f 139 153 142
f 139 142 141
f 139 141 140
f 142 154 143
f 142 153 154
f 143 154 146
f 143 146 145
f 143 145 144
f 146 154 155
f 147 156 150
f 148 152 149
f 150 156 155
f 150 155 153
f 153 155 154

