# https://github.com/mikedh/trimesh
v 0.00502041 0.34187943 -0.49499702
v 0.00502041 0.34094298 -0.50129789
v -0.00498735 0.34094298 -0.50129789
v -0.00498735 0.34187114 -0.49499702
v -0.00498735 0.34186286 -0.48499823
v 0.00502041 0.34186286 -0.48499823
v 0.01347035 0.34054521 -0.47500437
v 0.01351756 0.34055349 -0.48499823
v 0.01356476 0.34055349 -0.49499702
v 0.08007859 0.33001229 -0.50001884
v 0.01238460 0.34037116 -0.50056630
v 0.00502041 0.33499283 -0.50405020
v 0.06499614 0.33120564 -0.50158161
v 0.05498838 0.33199289 -0.50227338
v 0.04498063 0.33270559 -0.50265163
v -0.01237515 0.34037116 -0.50056630
v -0.00498735 0.33499283 -0.50405020
v -0.04499478 0.33270559 -0.50265163
v -0.05497894 0.33199289 -0.50227338
v -0.06498669 0.33120564 -0.50158161
v -0.08006914 0.33001229 -0.50001884
v -0.01353171 0.34055349 -0.49499702
v -0.01348450 0.34055349 -0.48499823
v -0.01343730 0.34054521 -0.47500437
v -0.00498735 0.34184629 -0.47500437
v 0.00502041 0.34184629 -0.47500437
v 0.07998417 0.32999572 -0.47000250
v 0.06499614 0.33238241 -0.47500437
v 0.09499581 0.32764217 -0.48499823
v 0.06499614 0.33240727 -0.49499702
v 0.07498030 0.33082443 -0.49499702
v 0.08010219 0.33001229 -0.49499702
v 0.09499581 0.32738528 -0.49499702
v 0.10497997 0.32523063 -0.49499702
v 0.11250939 0.32127768 -0.50140244
v 0.10497997 0.32256216 -0.50242770
v 0.07498030 0.33041006 -0.50060111
v 0.05498838 0.32499859 -0.50502568
v 0.04498063 0.32499859 -0.50539899
v 0.03499647 0.32499859 -0.50544375
v 0.06499614 0.32499859 -0.50433385
v -0.07499445 0.33041006 -0.50060111
v -0.03498702 0.32499859 -0.50544375
v -0.04499478 0.32499859 -0.50539899
v -0.05497894 0.32499859 -0.50502568
v -0.06498669 0.32499859 -0.50433385
v -0.09517519 0.32354006 -0.50274122
v -0.09517519 0.32734382 -0.49499702
v -0.09498636 0.32764217 -0.48499823
v -0.08009274 0.33001229 -0.49499702
v -0.07499445 0.33082443 -0.49499702
v -0.04499478 0.33556464 -0.48499823
v -0.07499445 0.33079955 -0.47500437
v -0.07999833 0.32999572 -0.47000250
v -0.01228074 0.34035459 -0.46907678
v -0.00498735 0.34091812 -0.46781760
v 0.00502041 0.34091812 -0.46781760
v 0.01229019 0.34035459 -0.46907678
v 0.07498030 0.33039349 -0.46903199
v 0.08399672 0.32765874 -0.46600097
v 0.09499581 0.32542121 -0.46500060
v 0.10497997 0.32532179 -0.47500437
v 0.09499581 0.32762560 -0.47500437
v 0.07498030 0.33079955 -0.47500437
v 0.10497997 0.32533836 -0.48499823
v 0.11376036 0.32191578 -0.49499702
v 0.13238329 0.31121713 -0.50135761
v 0.14595513 0.30266482 -0.50221866
v 0.12499548 0.31299055 -0.50239283
v 0.10497997 0.31499603 -0.50517499
v 0.09499581 0.31499603 -0.50537407
v -0.09517519 0.31499603 -0.50537407
v -0.09517519 0.32760075 -0.48499823
v -0.09517519 0.32760075 -0.48482403
v -0.09498636 0.32762560 -0.47500437
v -0.09517519 0.32758415 -0.47500437
v -0.09498636 0.32542121 -0.46500060
v -0.08398727 0.32765874 -0.46600097
v -0.07499445 0.33039349 -0.46903199
v -0.02497927 0.33658397 -0.46500060
v -0.01537276 0.33829111 -0.46544853
v -0.00498735 0.33865574 -0.46282068
v 0.00502041 0.33865574 -0.46282068
v 0.01538221 0.33829111 -0.46544853
v 0.02501232 0.33658397 -0.46500060
v 0.07498030 0.32820570 -0.46403009
v 0.07457905 0.32359806 -0.45459867
v 0.07498030 0.32353178 -0.45459867
v 0.09499581 0.32160914 -0.45742062
v 0.10198236 0.32074729 -0.45882910
v 0.10519240 0.32257876 -0.46449792
v 0.11248579 0.32126111 -0.46749407
v 0.11373676 0.32189921 -0.47500437
v 0.13356346 0.31182209 -0.49499702
v 0.11874063 0.31935507 -0.47500437
v 0.14595513 0.30550730 -0.48499823
v 0.14595513 0.30550730 -0.48613298
v 0.14595513 0.30527526 -0.49582818
v 0.14595513 0.30221730 -0.50241274
v 0.14498740 0.30288857 -0.50235301
v 0.14498740 0.29500753 -0.50510532
v -0.09517519 0.30699068 -0.50262678
v 0.14595513 0.29404622 -0.50508046
v 0.14595513 0.28461549 -0.50296521
v -0.09517519 0.32537150 -0.46499562
v -0.09517519 0.32530519 -0.46484631
v -0.09498636 0.32160914 -0.45742062
v -0.07499445 0.32353178 -0.45459867
v -0.07499445 0.32820570 -0.46403009
v -0.00498735 0.33455363 -0.45459867
v 0.00502041 0.33455363 -0.45459867
v 0.08399672 0.32198209 -0.45459867
v 0.09499581 0.32004288 -0.45459867
v 0.09737974 0.31948766 -0.45459867
v 0.10450791 0.31766450 -0.45459867
v 0.10516880 0.31747389 -0.45459867
v 0.10866207 0.31952909 -0.46082491
v 0.11548340 0.31824458 -0.46449792
v 0.12537314 0.31325576 -0.46456262
v 0.13235968 0.31120053 -0.46759862
v 0.14595513 0.30542442 -0.49499702
v 0.14595513 0.30549073 -0.47500437
v 0.14595513 0.29505724 -0.50490624
v -0.09517519 0.30185267 -0.49476808
v 0.14595513 0.28391936 -0.50270641
v 0.14595513 0.28308237 -0.50226843
v 0.14595513 0.27982554 -0.49985456
v -0.09517519 0.32158428 -0.45746043
v -0.09498636 0.32004288 -0.45459867
v -0.08405808 0.32195720 -0.45459867
v 0.11501133 0.31303200 -0.45459867
v 0.12228112 0.31131655 -0.45810246
v 0.12896082 0.30946854 -0.46093440
v 0.14595513 0.30245763 -0.46397036
v 0.14529425 0.30313718 -0.46462733
v 0.14595513 0.30294657 -0.46491101
v -0.09517519 0.28425086 -0.45462355
v 0.14595513 0.25721830 -0.45459867
v -0.09517519 0.31999317 -0.45459867
v 0.13467279 0.30303773 -0.45459867
v 0.14217862 0.30124772 -0.45821694
v 0.14595513 0.29722849 -0.45459867
v -0.09498636 0.28430057 -0.45459867
v -0.09517519 0.28454921 -0.45459867
f 1 2 3
f 1 3 4
f 1 4 5
f 1 5 6
f 1 6 7
f 1 7 8
f 1 8 9
f 1 9 10
f 1 10 11
f 1 11 2
f 2 12 17
f 2 17 3
f 2 11 13
f 2 13 14
f 2 14 15
f 2 15 12
f 3 16 4
f 3 17 18
f 3 18 19
f 3 19 20
f 3 20 16
f 4 16 21
f 4 21 22
f 4 22 23
f 4 23 5
f 5 23 24
f 5 24 25
f 5 25 26
f 5 26 6
f 6 26 7
f 7 26 27
f 7 27 28
f 7 28 8
f 8 28 29
f 8 29 30
f 8 30 9
f 9 30 10
f 10 30 31
f 10 31 32
f 10 32 29
f 10 29 33
f 10 33 34
f 10 34 35
f 10 35 36
f 10 36 37
f 10 37 11
f 11 37 13
f 12 15 38
f 12 38 39
f 12 39 40
f 12 40 43
f 12 43 17
f 13 37 36
f 13 36 14
f 14 36 41
f 14 41 38
f 14 38 15
f 16 20 42
f 16 42 21
f 17 43 44
f 17 44 45
f 17 45 18
f 18 45 19
f 19 45 46
f 19 46 47
f 19 47 20
f 20 47 42
f 21 42 47
f 21 47 48
f 21 48 49
f 21 49 50
f 21 50 51
f 21 51 22
f 22 51 23
f 23 51 52
f 23 52 53
f 23 53 24
f 24 53 54
f 24 54 25
f 25 54 55
f 25 55 56
f 25 56 57
f 25 57 26
f 26 57 58
f 26 58 27
f 27 59 60
f 27 60 61
f 27 61 62
f 27 62 63
f 27 63 64
f 27 64 28
f 27 58 59
f 28 64 29
f 29 64 63
f 29 63 62
f 29 62 65
f 29 65 34
f 29 34 33
f 29 32 31
f 29 31 30
f 34 65 66
f 34 66 35
f 35 66 67
f 35 67 68
f 35 68 69
f 35 69 36
f 36 70 41
f 36 69 70
f 38 41 70
f 38 70 39
f 39 70 71
f 39 71 40
f 40 71 72
f 40 72 43
f 43 72 44
f 44 72 45
f 45 72 47
f 45 47 46
f 47 72 102
f 47 102 124
f 47 124 137
f 47 137 144
f 47 144 139
f 47 139 128
f 47 128 106
f 47 106 105
f 47 105 76
f 47 76 74
f 47 74 73
f 47 73 48
f 48 73 49
f 49 73 74
f 49 74 75
f 49 75 53
f 49 53 51
f 49 51 50
f 51 53 52
f 53 75 54
f 54 75 76
f 54 76 77
f 54 77 78
f 54 78 79
f 54 79 55
f 55 80 81
f 55 81 56
f 55 79 80
f 56 81 82
f 56 82 83
f 56 83 57
f 57 83 84
f 57 84 58
f 58 84 85
f 58 85 59
f 59 85 60
f 60 86 61
f 60 85 86
f 61 86 87
f 61 87 88
f 61 88 89
f 61 89 90
f 61 90 91
f 61 91 62
f 62 91 92
f 62 92 93
f 62 93 65
f 65 93 66
f 66 94 67
f 66 93 95
f 66 95 96
f 66 96 97
f 66 97 94
f 67 94 98
f 67 98 68
f 68 98 121
f 68 121 97
f 68 97 96
f 68 96 122
f 68 122 136
f 68 136 134
f 68 134 142
f 68 142 138
f 68 138 127
f 68 127 126
f 68 126 125
f 68 125 104
f 68 104 103
f 68 103 123
f 68 123 99
f 68 99 100
f 68 100 69
f 69 100 101
f 69 101 70
f 70 101 71
f 71 101 72
f 72 101 103
f 72 103 104
f 72 104 102
f 74 76 75
f 76 105 77
f 77 105 106
f 77 106 107
f 77 107 108
f 77 108 109
f 77 109 78
f 78 109 80
f 78 80 79
f 80 82 81
f 80 109 108
f 80 108 82
f 82 108 110
f 82 110 111
f 82 111 83
f 83 111 87
f 83 87 85
f 83 85 84
f 85 87 86
f 87 111 110
f 87 110 108
f 87 108 130
f 87 130 129
f 87 129 139
f 87 139 144
f 87 144 143
f 87 143 138
f 87 138 142
f 87 142 140
f 87 140 131
f 87 131 116
f 87 116 115
f 87 115 114
f 87 114 113
f 87 113 112
f 87 112 88
f 88 112 89
f 89 113 114
f 89 114 90
f 89 112 113
f 90 114 115
f 90 115 116
f 90 116 117
f 90 117 91
f 91 117 92
f 92 117 118
f 92 118 119
f 92 119 120
f 92 120 93
f 93 120 95
f 94 97 121
f 94 121 98
f 95 120 122
f 95 122 96
f 99 123 101
f 99 101 100
f 101 123 103
f 102 104 125
f 102 125 126
f 102 126 127
f 102 127 124
f 106 128 107
f 107 128 129
f 107 129 130
f 107 130 108
f 116 131 117
f 117 131 118
f 118 131 132
f 118 132 133
f 118 133 119
f 119 133 134
f 119 134 135
f 119 135 136
f 119 136 120
f 120 136 122
f 124 127 138
f 124 138 137
f 128 139 129
f 131 140 132
f 132 140 141
f 132 141 133
f 133 141 134
f 134 141 142
f 134 136 135
f 137 138 143
f 137 143 144
f 140 142 141

