# https://github.com/mikedh/trimesh
v -0.25677338 -0.14595509 0.45460224
v -0.29720828 -0.14595509 0.45460224
v -0.27819583 -0.14595509 0.49647593
v -0.09507498 -0.28427294 0.45461220
v -0.09507498 -0.28439742 0.45460224
v -0.29710528 -0.14616849 0.45460224
v -0.30019507 -0.14595509 0.45981595
v -0.28305709 -0.14595509 0.50226623
v -0.09507498 -0.30701768 0.50262904
v -0.09507498 -0.30189613 0.49476621
v -0.09507498 -0.30178940 0.49453759
v -0.09507498 -0.32001722 0.45460224
v -0.29277959 -0.15484670 0.45460224
v -0.29941231 -0.14885375 0.46103862
v -0.30244029 -0.14595509 0.46397102
v -0.28460199 -0.14595509 0.50296205
v -0.09507498 -0.31498456 0.50537753
v -0.09507498 -0.32159993 0.45744020
v -0.10201668 -0.32074633 0.45882690
v -0.10518885 -0.31747422 0.45460224
v -0.28266573 -0.17474611 0.45460224
v -0.29801160 -0.15536240 0.46462709
v -0.30279046 -0.14595509 0.46462709
v -0.27926695 -0.18861702 0.46125731
v -0.28789774 -0.17527962 0.46469170
v -0.29504544 -0.14595509 0.50491035
v -0.18500812 -0.27499011 0.50502467
v -0.14500579 -0.29499623 0.50510418
v -0.10500347 -0.31498456 0.50517374
v -0.09507498 -0.32353830 0.50274336
v -0.28499335 -0.16500092 0.50506443
v -0.27498245 -0.18500704 0.50502467
v -0.09507498 -0.32536995 0.46493524
v -0.10520945 -0.32257801 0.46449786
v -0.10867000 -0.31951928 0.46082491
v -0.10570382 -0.31724304 0.45460224
v -0.27726889 -0.18516707 0.45460224
v -0.30112201 -0.15225035 0.46770859
v -0.30293465 -0.14595509 0.46491536
v -0.29106992 -0.17213199 0.46781793
v -0.27710411 -0.18546939 0.45460224
v -0.27224287 -0.19437879 0.45460224
v -0.27747488 -0.19519681 0.46475631
v -0.28099725 -0.19199583 0.46792728
v -0.28289229 -0.18516707 0.46475631
v -0.30266687 -0.14595509 0.50221652
v -0.29277959 -0.16500092 0.50231588
v -0.20570964 -0.26570728 0.50330001
v -0.19522500 -0.27550581 0.50292224
v -0.18500812 -0.28269023 0.50227612
v -0.14500579 -0.30289197 0.50235569
v -0.12500463 -0.31299284 0.50239044
v -0.24571197 -0.22573060 0.50330001
v -0.10500347 -0.32256022 0.50242525
v -0.09507498 -0.32736170 0.49499980
v -0.28268632 -0.18500704 0.50227612
v -0.27549744 -0.19521460 0.50292224
v -0.26571313 -0.20572448 0.50330001
v -0.09507498 -0.32538775 0.46499985
v -0.10500347 -0.32531661 0.47500479
v -0.11250133 -0.32126203 0.46749488
v -0.11550871 -0.31823888 0.46449786
v -0.11503495 -0.31302840 0.45460224
v -0.30548888 -0.14595509 0.47500479
v -0.30532408 -0.14595509 0.47404060
v -0.26425064 -0.20424847 0.45460224
v -0.27063617 -0.20072740 0.45923445
v -0.27238706 -0.20270133 0.46500480
v -0.27883440 -0.19800657 0.47500479
v -0.28151220 -0.19300948 0.47500479
v -0.28907186 -0.17819606 0.47500479
v -0.29916513 -0.15838555 0.47500479
v -0.30540648 -0.14595509 0.49499980
v -0.30114257 -0.15228590 0.50130695
v -0.20284645 -0.27250046 0.50182885
v -0.22284761 -0.25285000 0.50182885
v -0.21283673 -0.26284418 0.50182885
v -0.19203222 -0.28101861 0.50120258
v -0.17215465 -0.29108393 0.50125724
v -0.13239950 -0.31121451 0.50135666
v -0.11252193 -0.32127982 0.50140136
v -0.26284993 -0.21287334 0.50182885
v -0.10500347 -0.32522771 0.49499980
v -0.09507498 -0.32762843 0.48499984
v -0.29109052 -0.17214976 0.50125724
v -0.28101784 -0.19203140 0.50120258
v -0.27251065 -0.20286138 0.50182885
v -0.09507498 -0.32761064 0.47500479
v -0.10500347 -0.32533440 0.48499984
v -0.11375784 -0.32190225 0.47500479
v -0.13237891 -0.31119674 0.46759924
v -0.12539601 -0.31324181 0.46456248
v -0.12898014 -0.30947179 0.46093425
v -0.12230623 -0.31130344 0.45810124
v -0.15483129 -0.29279110 0.45460224
v -0.30550948 -0.14595509 0.48499984
v -0.26079008 -0.21081048 0.45913506
v -0.26775238 -0.20769842 0.46500480
v -0.25428095 -0.21429598 0.45460224
v -0.26931787 -0.20933448 0.47500479
v -0.27384955 -0.20433739 0.47500479
v -0.27885500 -0.19802435 0.48499984
v -0.28153279 -0.19302726 0.48499984
v -0.30171937 -0.15340626 0.49499980
v -0.20929378 -0.26929948 0.49499980
v -0.20430894 -0.27381641 0.49499980
v -0.19802639 -0.27881351 0.49499980
v -0.22431010 -0.25430822 0.49499980
v -0.19304155 -0.28153434 0.49499980
v -0.17322578 -0.29163522 0.49499980
v -0.11377844 -0.32192004 0.49499980
v -0.26929727 -0.20931669 0.49499980
v -0.26431245 -0.21431378 0.49499980
v -0.25930700 -0.21932864 0.49499980
v -0.24431127 -0.23431990 0.49499980
v -0.28153279 -0.19302726 0.49499980
v -0.27881378 -0.19804212 0.49499980
v -0.27380836 -0.20431960 0.49499980
v -0.11876328 -0.31935924 0.47500479
v -0.19201162 -0.28100085 0.46792728
v -0.14885771 -0.29940647 0.46103862
v -0.17528562 -0.28790072 0.46469170
v -0.18861286 -0.27927586 0.46125731
v -0.16208197 -0.29117283 0.45832491
v -0.17475006 -0.28265467 0.45460224
v -0.26274696 -0.21276663 0.46500480
v -0.23427978 -0.23430210 0.45460224
v -0.25275666 -0.22276080 0.46500480
v -0.25432214 -0.22434351 0.47500479
v -0.26433304 -0.21434934 0.48499984
v -0.26931787 -0.20935225 0.48499984
v -0.27384955 -0.20433739 0.48499984
v -0.20933498 -0.26933503 0.48499984
v -0.20432954 -0.27385199 0.48499984
v -0.19802639 -0.27884907 0.48499984
v -0.19800580 -0.27884907 0.47500479
v -0.19300035 -0.28151655 0.47500479
v -0.20268166 -0.27239376 0.46500480
v -0.19520439 -0.27747977 0.46475631
v -0.18517292 -0.28288585 0.46475631
v -0.19438045 -0.27225149 0.45460224
v -0.18517292 -0.27726635 0.45460224
v -0.18195954 -0.28110754 0.45843425
v -0.24274579 -0.23277275 0.46500480
v -0.21427862 -0.25427267 0.45460224
v -0.21275434 -0.26275524 0.46500480
v -0.21932526 -0.25932309 0.47500479
v -0.20931438 -0.26931727 0.47500479
v -0.20430894 -0.27385199 0.47500479
v -0.20070420 -0.27063322 0.45923445
v -0.20768709 -0.26775235 0.46500480
v -0.20422655 -0.26426682 0.45460224
f 1 2 7
f 1 7 15
f 1 15 23
f 1 23 39
f 1 39 65
f 1 65 64
f 1 64 96
f 1 96 73
f 1 73 46
f 1 46 26
f 1 26 16
f 1 16 8
f 1 8 3
f 1 3 4
f 1 4 5
f 1 5 12
f 1 12 20
f 1 20 36
f 1 36 63
f 1 63 95
f 1 95 125
f 1 125 142
f 1 142 141
f 1 141 152
f 1 152 145
f 1 145 127
f 1 127 99
f 1 99 66
f 1 66 42
f 1 42 41
f 1 41 37
f 1 37 21
f 1 21 13
f 1 13 6
f 1 6 2
f 2 6 7
f 3 8 9
f 3 9 10
f 3 10 11
f 3 11 4
f 4 11 10
f 4 10 9
f 4 9 17
f 4 17 30
f 4 30 55
f 4 55 84
f 4 84 88
f 4 88 59
f 4 59 33
f 4 33 18
f 4 18 12
f 4 12 5
f 6 13 7
f 7 14 15
f 7 13 14
f 8 16 9
f 9 16 17
f 12 18 19
f 12 19 20
f 13 21 14
f 14 22 23
f 14 23 15
f 14 21 24
f 14 24 25
f 14 25 22
f 16 26 17
f 17 27 28
f 17 28 29
f 17 29 30
f 17 26 31
f 17 31 32
f 17 32 27
f 18 33 19
f 19 33 34
f 19 34 35
f 19 35 20
f 20 35 36
f 21 37 24
f 22 38 39
f 22 39 23
f 22 25 40
f 22 40 38
f 24 37 41
f 24 41 42
f 24 42 43
f 24 43 44
f 24 44 45
f 24 45 25
f 25 45 40
f 26 46 47
f 26 47 31
f 27 48 49
f 27 49 50
f 27 50 51
f 27 51 52
f 27 52 28
f 27 32 53
f 27 53 48
f 28 52 29
f 29 54 30
f 29 52 54
f 30 54 55
f 31 47 32
f 32 47 56
f 32 56 57
f 32 57 58
f 32 58 53
f 33 59 34
f 34 60 61
f 34 61 35
f 34 59 60
f 35 61 62
f 35 62 63
f 35 63 36
f 38 64 65
f 38 65 39
f 38 40 64
f 40 45 44
f 40 44 64
f 42 66 67
f 42 67 43
f 43 67 68
f 43 68 44
f 44 68 69
f 44 69 70
f 44 70 71
f 44 71 72
f 44 72 64
f 46 73 74
f 46 74 56
f 46 56 47
f 48 75 49
f 48 53 82
f 48 82 76
f 48 76 77
f 48 77 75
f 49 75 78
f 49 78 50
f 50 78 79
f 50 79 80
f 50 80 81
f 50 81 51
f 51 81 52
f 52 81 54
f 53 58 82
f 54 81 83
f 54 83 55
f 55 83 84
f 56 74 85
f 56 85 86
f 56 86 57
f 57 87 58
f 57 86 87
f 58 87 82
f 59 88 60
f 60 89 90
f 60 90 61
f 60 88 84
f 60 84 89
f 61 90 91
f 61 91 92
f 61 92 62
f 62 92 93
f 62 93 94
f 62 94 63
f 63 94 95
f 64 72 96
f 66 97 98
f 66 98 67
f 66 99 97
f 67 98 68
f 68 98 100
f 68 100 101
f 68 101 69
f 69 102 103
f 69 103 70
f 69 101 102
f 70 103 71
f 71 103 72
f 72 103 96
f 73 96 104
f 73 104 74
f 74 104 85
f 75 77 105
f 75 105 106
f 75 106 107
f 75 107 78
f 76 82 115
f 76 115 108
f 76 108 105
f 76 105 77
f 78 107 109
f 78 109 110
f 78 110 111
f 78 111 79
f 79 111 80
f 80 111 81
f 81 111 83
f 82 87 112
f 82 112 113
f 82 113 114
f 82 114 115
f 83 111 89
f 83 89 84
f 85 104 86
f 86 104 116
f 86 116 117
f 86 117 87
f 87 117 118
f 87 118 112
f 89 111 90
f 90 111 119
f 90 119 120
f 90 120 91
f 91 120 92
f 92 121 93
f 92 120 122
f 92 122 123
f 92 123 121
f 93 121 124
f 93 124 94
f 94 124 125
f 94 125 95
f 96 103 104
f 97 126 98
f 97 99 127
f 97 127 128
f 97 128 126
f 98 126 100
f 100 126 129
f 100 129 130
f 100 130 131
f 100 131 101
f 101 131 132
f 101 132 102
f 102 132 117
f 102 117 116
f 102 116 103
f 103 116 104
f 105 108 133
f 105 133 106
f 106 134 107
f 106 133 134
f 107 134 135
f 107 135 109
f 108 115 133
f 109 135 136
f 109 136 137
f 109 137 119
f 109 119 110
f 110 119 111
f 112 118 132
f 112 132 131
f 112 131 130
f 112 130 113
f 113 130 114
f 114 130 133
f 114 133 115
f 117 132 118
f 119 137 120
f 120 137 136
f 120 136 138
f 120 138 139
f 120 139 123
f 120 123 140
f 120 140 122
f 121 123 143
f 121 143 124
f 122 140 123
f 123 139 141
f 123 141 142
f 123 142 125
f 123 125 143
f 124 143 125
f 126 128 129
f 127 144 128
f 127 145 146
f 127 146 144
f 128 144 129
f 129 144 146
f 129 146 147
f 129 147 133
f 129 133 130
f 133 147 148
f 133 148 149
f 133 149 134
f 134 149 136
f 134 136 135
f 136 149 138
f 138 150 139
f 138 149 148
f 138 148 151
f 138 151 150
f 139 150 141
f 141 150 152
f 145 152 146
f 146 151 148
f 146 148 147
f 146 152 151
f 150 151 152

