# https://github.com/mikedh/trimesh
v -0.34184828 -0.00503441 -0.49499202
v -0.34184828 -0.00503441 -0.48498988
v -0.34184828 0.00497163 -0.49499202
v -0.34092432 -0.00503441 -0.50129348
v -0.34035397 -0.01238259 -0.50056028
v -0.32999638 -0.08004059 -0.50000691
v -0.34053648 -0.01355517 -0.49499202
v -0.34053648 -0.01351609 -0.48498988
v -0.34052506 -0.01347700 -0.47499466
v -0.34182546 -0.00503441 -0.47499466
v -0.34184828 0.00497163 -0.48498988
v -0.34053648 0.01353148 -0.49499202
v -0.34035397 0.01235890 -0.50056028
v -0.34092432 0.00497163 -0.50129348
v -0.33498126 -0.00503441 -0.50403959
v -0.33269984 -0.04501946 -0.50264233
v -0.33198118 -0.05498641 -0.50226188
v -0.33118272 -0.06499245 -0.50157708
v -0.33039561 -0.07499848 -0.50059485
v -0.32736135 -0.09497147 -0.49499202
v -0.32762372 -0.09497147 -0.48498988
v -0.32999638 -0.08007967 -0.49499202
v -0.33080629 -0.07499848 -0.49499202
v -0.32255900 -0.10497750 -0.50242096
v -0.32126999 -0.11252112 -0.50139725
v -0.32522824 -0.10497750 -0.49499202
v -0.32610658 -0.10091256 -0.49499202
v -0.32998496 -0.07996242 -0.47000745
v -0.34034255 -0.01230442 -0.46908054
v -0.34090149 -0.00503441 -0.46782163
v -0.34182546 0.00497163 -0.47499466
v -0.34052506 0.01345330 -0.47499466
v -0.34053648 0.01349239 -0.48498988
v -0.32999638 0.08005598 -0.49499202
v -0.32999638 0.08005598 -0.50000691
v -0.33039561 0.07493570 -0.50059485
v -0.33118272 0.06492967 -0.50157708
v -0.33198118 0.05492363 -0.50226188
v -0.33269984 0.04495668 -0.50264233
v -0.33498126 0.00497163 -0.50403959
v -0.32497728 -0.03501343 -0.50544375
v -0.32497728 -0.04501946 -0.50538844
v -0.32497728 -0.05498641 -0.50501490
v -0.32497728 -0.06499245 -0.50432318
v -0.32761231 -0.09497147 -0.47499466
v -0.32620925 -0.10091256 -0.49089709
v -0.32627767 -0.10091256 -0.48498988
v -0.31499612 -0.10497750 -0.50517398
v -0.31298849 -0.12498958 -0.50238639
v -0.32190880 -0.11377187 -0.49499202
v -0.30289328 -0.14500165 -0.50235182
v -0.28271425 -0.18498671 -0.50226879
v -0.30114800 -0.15227166 -0.50130039
v -0.32533091 -0.10497750 -0.48498988
v -0.32625487 -0.10091256 -0.47499466
v -0.32536513 -0.10091256 -0.47089282
v -0.32539934 -0.09497147 -0.46500638
v -0.31763116 -0.09497147 -0.43478554
v -0.32555905 -0.04501946 -0.43478554
v -0.33056673 -0.01332065 -0.43478554
v -0.33185571 -0.00503441 -0.43478554
v -0.34090149 0.00497163 -0.46782163
v -0.34034255 0.01228072 -0.46908054
v -0.32998496 0.07993872 -0.47000745
v -0.32761231 0.09494777 -0.47499466
v -0.32762372 0.09494777 -0.48498988
v -0.32736135 0.09494777 -0.49499202
v -0.32521683 0.10495381 -0.49499202
v -0.32126999 0.11245833 -0.50139034
v -0.32253617 0.10495381 -0.50241405
v -0.32497728 0.06492967 -0.50432318
v -0.32497728 0.05492363 -0.50501490
v -0.32497728 0.04495668 -0.50538844
v -0.32497728 0.03495065 -0.50544375
v -0.31497332 -0.09497147 -0.50536764
v -0.22532548 -0.23466511 -0.50498724
v -0.31499612 -0.10091256 -0.50525701
v -0.32531950 -0.10497750 -0.47499466
v -0.28499565 -0.16497463 -0.50506330
v -0.27501449 -0.18498671 -0.50502181
v -0.29916316 -0.15836909 -0.47499466
v -0.31935361 -0.11873581 -0.47499466
v -0.32189739 -0.11373278 -0.47499466
v -0.28102601 -0.19198312 -0.50120360
v -0.28153932 -0.19299935 -0.49499202
v -0.27552781 -0.19518816 -0.50291902
v -0.32257038 -0.10517293 -0.46450141
v -0.31596574 -0.10091256 -0.43477863
v -0.33185571 0.00497163 -0.43478554
v -0.33053249 0.01353148 -0.43478554
v -0.32976824 0.01841724 -0.43478554
v -0.31920531 0.08505900 -0.43478554
v -0.31763116 0.09494777 -0.43478554
v -0.32539934 0.09494777 -0.46500638
v -0.32530808 0.10495381 -0.47499466
v -0.32531950 0.10495381 -0.48498988
v -0.32189739 0.11374818 -0.49499202
v -0.31119758 0.13235316 -0.50134885
v -0.30264232 0.14595510 -0.50220656
v -0.31297708 0.12496589 -0.50237948
v -0.31497332 0.10495381 -0.50516707
v -0.31497332 0.09494777 -0.50536764
v -0.22532548 -0.22516719 -0.50251782
v -0.22532548 -0.24607824 -0.50329256
v -0.22572473 -0.24568738 -0.50329256
v -0.29498821 0.14493887 -0.50509095
v -0.28459641 0.14595510 -0.50295359
v -0.28307927 0.14595510 -0.50225496
v -0.22533688 0.14595510 -0.45445088
v -0.32125860 -0.11248203 -0.46749651
v -0.24573265 -0.22567531 -0.50329256
v -0.26571777 -0.20566323 -0.50329256
v -0.28152791 -0.19296026 -0.47499466
v -0.28101459 -0.19198312 -0.46793231
v -0.27252775 -0.20284905 -0.50182611
v -0.27882445 -0.19800237 -0.49499202
v -0.27887008 -0.19796328 -0.48498988
v -0.27885866 -0.19796328 -0.47499466
v -0.31487066 -0.10478207 -0.43477863
v -0.22532548 -0.10091256 -0.43477863
v -0.29331136 0.14595510 -0.43478554
v -0.29481709 0.14513430 -0.43478554
v -0.30887055 0.11753953 -0.43478554
v -0.31135729 0.11265378 -0.43478554
v -0.31479082 0.10495381 -0.43478554
v -0.32255900 0.10514924 -0.46450141
v -0.32124719 0.11245833 -0.46750346
v -0.32188597 0.11367001 -0.47499466
v -0.31934220 0.11871211 -0.47499466
v -0.30549407 0.14595510 -0.48384857
v -0.30549407 0.14595510 -0.48498988
v -0.31180215 0.13356481 -0.49499202
v -0.30540282 0.14595510 -0.49499202
v -0.29503384 0.14595510 -0.50489730
v -0.30288187 0.14493887 -0.50234491
v -0.22532548 -0.22504993 -0.50248325
v -0.22532548 -0.24666454 -0.50309193
v -0.23287693 -0.24283411 -0.50182611
v -0.22532548 -0.10091256 -0.45447853
v -0.22533688 0.14595510 -0.43478554
v -0.31131166 -0.11279472 -0.43477863
v -0.31136870 -0.11267746 -0.43477863
v -0.31479082 -0.10497750 -0.43477863
v -0.26286602 -0.21281599 -0.50182611
v -0.27241370 -0.20265362 -0.46500638
v -0.27101064 -0.19159225 -0.43477863
v -0.27464947 -0.18479128 -0.43477863
v -0.26933381 -0.20929824 -0.49499202
v -0.27383956 -0.20429523 -0.49499202
v -0.27387381 -0.20429523 -0.48498988
v -0.27386239 -0.20429523 -0.47499466
v -0.22532548 -0.23935544 -0.43477863
v -0.29441786 0.14595510 -0.43480629
v -0.31118619 0.13231407 -0.46760720
v -0.30532297 0.14595510 -0.47403318
v -0.30547127 0.14595510 -0.47499466
v -0.22532548 -0.25147212 -0.49921143
v -0.22932935 -0.24928330 -0.49499202
v -0.26933381 -0.20929824 -0.47499466
v -0.26777104 -0.20765664 -0.46500638
v -0.26237550 -0.20234092 -0.43477863
v -0.26247817 -0.20222366 -0.43477863
v -0.26737177 -0.19659527 -0.43477863
v -0.26934519 -0.20929824 -0.48498988
v -0.22532548 -0.25334823 -0.48498988
v -0.22736734 -0.23732296 -0.43477863
v -0.22532548 -0.25018227 -0.46500638
v -0.30292749 0.14595510 -0.46491644
v -0.22532548 -0.25327009 -0.49499202
v -0.26433751 -0.21430126 -0.47499466
v -0.26276335 -0.21273781 -0.46500638
v -0.24776310 -0.22774687 -0.46500638
v -0.23226094 -0.23243721 -0.43477863
v -0.22532548 -0.25330916 -0.47499466
f 1 2 11
f 1 11 3
f 1 3 14
f 1 14 4
f 1 4 5
f 1 5 6
f 1 6 7
f 1 7 2
f 2 7 8
f 2 8 9
f 2 9 10
f 2 10 31
f 2 31 11
f 3 11 12
f 3 12 13
f 3 13 14
f 4 15 16
f 4 16 17
f 4 17 18
f 4 18 19
f 4 19 5
f 4 14 40
f 4 40 15
f 5 19 6
f 6 20 21
f 6 21 22
f 6 22 23
f 6 23 7
f 6 19 24
f 6 24 25
f 6 25 26
f 6 26 27
f 6 27 20
f 7 23 8
f 8 23 28
f 8 28 9
f 9 28 10
f 10 28 29
f 10 29 30
f 10 30 62
f 10 62 31
f 11 31 32
f 11 32 33
f 11 33 12
f 12 33 34
f 12 34 35
f 12 35 13
f 13 35 36
f 13 36 37
f 13 37 14
f 14 37 38
f 14 38 39
f 14 39 40
f 15 40 74
f 15 74 41
f 15 41 42
f 15 42 43
f 15 43 16
f 16 43 17
f 17 43 44
f 17 44 24
f 17 24 18
f 18 24 19
f 20 27 21
f 21 45 23
f 21 23 22
f 21 27 46
f 21 46 47
f 21 47 45
f 23 45 28
f 24 48 49
f 24 49 25
f 24 44 48
f 25 50 26
f 25 49 51
f 25 51 52
f 25 52 53
f 25 53 50
f 26 50 54
f 26 54 47
f 26 47 46
f 26 46 27
f 28 45 55
f 28 55 56
f 28 56 57
f 28 57 58
f 28 58 59
f 28 59 60
f 28 60 29
f 29 60 61
f 29 61 30
f 30 61 89
f 30 89 62
f 31 62 63
f 31 63 32
f 32 63 64
f 32 64 33
f 33 64 65
f 33 65 34
f 34 65 66
f 34 66 35
f 35 66 67
f 35 67 68
f 35 68 69
f 35 69 70
f 35 70 36
f 36 70 37
f 37 70 38
f 38 70 71
f 38 71 72
f 38 72 39
f 39 72 40
f 40 72 73
f 40 73 74
f 41 75 42
f 41 74 76
f 41 76 75
f 42 75 77
f 42 77 48
f 42 48 43
f 43 48 44
f 45 47 55
f 47 54 78
f 47 78 55
f 48 77 79
f 48 79 80
f 48 80 49
f 49 80 51
f 50 81 82
f 50 82 83
f 50 83 78
f 50 78 54
f 50 53 84
f 50 84 85
f 50 85 81
f 51 80 52
f 52 80 86
f 52 86 84
f 52 84 53
f 55 78 56
f 56 78 87
f 56 87 58
f 56 58 57
f 58 87 88
f 58 88 59
f 59 88 60
f 60 88 61
f 61 88 89
f 62 89 63
f 63 89 90
f 63 90 91
f 63 91 64
f 64 92 93
f 64 93 94
f 64 94 95
f 64 95 65
f 64 91 92
f 65 95 96
f 65 96 66
f 66 96 68
f 66 68 67
f 68 96 97
f 68 97 69
f 69 97 98
f 69 98 99
f 69 99 100
f 69 100 70
f 70 100 101
f 70 101 71
f 71 101 72
f 72 101 73
f 73 101 102
f 73 102 74
f 74 102 76
f 75 76 80
f 75 80 79
f 75 79 77
f 76 103 136
f 76 136 139
f 76 139 120
f 76 120 152
f 76 152 167
f 76 167 174
f 76 174 165
f 76 165 169
f 76 169 157
f 76 157 137
f 76 137 104
f 76 104 105
f 76 105 80
f 76 102 106
f 76 106 107
f 76 107 108
f 76 108 109
f 76 109 103
f 78 83 110
f 78 110 87
f 80 105 111
f 80 111 112
f 80 112 86
f 81 85 113
f 81 113 114
f 81 114 82
f 82 114 83
f 83 114 110
f 84 86 115
f 84 115 116
f 84 116 85
f 85 116 117
f 85 117 118
f 85 118 113
f 86 112 115
f 87 110 119
f 87 119 88
f 88 119 143
f 88 143 142
f 88 142 141
f 88 141 147
f 88 147 146
f 88 146 163
f 88 163 162
f 88 162 161
f 88 161 173
f 88 173 166
f 88 166 152
f 88 152 120
f 88 120 140
f 88 140 121
f 88 121 122
f 88 122 123
f 88 123 124
f 88 124 125
f 88 125 93
f 88 93 92
f 88 92 91
f 88 91 90
f 88 90 89
f 93 125 126
f 93 126 94
f 94 126 95
f 95 126 127
f 95 127 128
f 95 128 97
f 95 97 96
f 97 128 129
f 97 129 130
f 97 130 131
f 97 131 132
f 97 132 98
f 98 132 133
f 98 133 99
f 99 133 131
f 99 131 130
f 99 130 156
f 99 156 155
f 99 155 168
f 99 168 153
f 99 153 121
f 99 121 140
f 99 140 109
f 99 109 108
f 99 108 107
f 99 107 134
f 99 134 135
f 99 135 100
f 100 135 134
f 100 134 106
f 100 106 101
f 101 106 102
f 103 109 136
f 104 137 105
f 105 137 138
f 105 138 111
f 106 134 107
f 109 139 136
f 109 140 120
f 109 120 139
f 110 141 142
f 110 142 143
f 110 143 119
f 110 114 141
f 111 138 144
f 111 144 112
f 112 144 115
f 113 118 114
f 114 118 145
f 114 145 146
f 114 146 147
f 114 147 141
f 115 144 148
f 115 148 149
f 115 149 116
f 116 149 150
f 116 150 117
f 117 150 151
f 117 151 118
f 118 151 145
f 121 153 122
f 122 153 123
f 123 153 124
f 124 153 154
f 124 154 127
f 124 127 125
f 125 127 126
f 127 154 129
f 127 129 128
f 129 154 155
f 129 155 156
f 129 156 130
f 131 133 132
f 137 157 138
f 138 157 158
f 138 158 148
f 138 148 144
f 145 151 159
f 145 159 160
f 145 160 161
f 145 161 162
f 145 162 163
f 145 163 146
f 148 164 150
f 148 150 149
f 148 158 165
f 148 165 164
f 150 164 159
f 150 159 151
f 152 166 167
f 153 168 154
f 154 168 155
f 157 169 158
f 158 169 165
f 159 164 170
f 159 170 171
f 159 171 160
f 160 171 161
f 161 171 172
f 161 172 167
f 161 167 173
f 164 165 170
f 165 174 170
f 166 173 167
f 167 172 170
f 167 170 174
f 170 172 171

