# https://github.com/mikedh/trimesh
v -0.22532547 -0.25335103 -0.48499727
v -0.22532547 -0.25335103 -0.48301595
v -0.22532547 -0.25331137 -0.49499816
v -0.21930873 -0.25932577 -0.49499816
v -0.20933598 -0.26933214 -0.48499727
v -0.21932146 -0.25933897 -0.47500134
v -0.22532547 -0.25333780 -0.47500134
v -0.22532547 -0.25151366 -0.49921900
v -0.21284680 -0.26285511 -0.50183094
v -0.20931053 -0.26930571 -0.49499816
v -0.20932326 -0.26931894 -0.47500134
v -0.20432416 -0.27385288 -0.48499727
v -0.20432416 -0.27385288 -0.47500134
v -0.22275595 -0.25276941 -0.46500045
v -0.22532547 -0.25242573 -0.47209144
v -0.22284500 -0.25286195 -0.50183094
v -0.22532547 -0.24668890 -0.50309724
v -0.20571068 -0.26571029 -0.50329584
v -0.20284860 -0.27250460 -0.50183094
v -0.20431145 -0.27381322 -0.49499816
v -0.20769505 -0.26774594 -0.46500045
v -0.21274504 -0.26274934 -0.46500045
v -0.21774414 -0.25776598 -0.46500045
v -0.20269595 -0.27239883 -0.46500045
v -0.19801486 -0.27880979 -0.49499816
v -0.19800214 -0.27884945 -0.48499727
v -0.19798942 -0.27884945 -0.47500134
v -0.22532547 -0.25019181 -0.46500045
v -0.21483117 -0.25377402 -0.45464697
v -0.22429511 -0.24430959 -0.45464697
v -0.22532547 -0.24610730 -0.50329584
v -0.22532547 -0.24569753 -0.50336039
v -0.18498921 -0.27498966 -0.50502390
v -0.19520366 -0.27550519 -0.50291842
v -0.19201085 -0.28101727 -0.50120032
v -0.20071158 -0.27064079 -0.45923030
v -0.20424783 -0.26426947 -0.45464697
v -0.21078610 -0.26079303 -0.45913100
v -0.19198541 -0.28100407 -0.46792522
v -0.19519094 -0.27748796 -0.46475711
v -0.19301577 -0.28153279 -0.49499816
v -0.19300304 -0.28153279 -0.48499727
v -0.19299032 -0.28151959 -0.47500134
v -0.22482938 -0.24376762 -0.45464697
v -0.22532547 -0.24306706 -0.45464697
v -0.22532547 -0.23468654 -0.50499409
v -0.09537432 -0.31498876 -0.50537151
v -0.16499282 -0.28499603 -0.50506365
v -0.12500003 -0.31299278 -0.50239205
v -0.16499282 -0.29279494 -0.50231761
v -0.18498921 -0.28269604 -0.50227785
v -0.17214166 -0.29108977 -0.50125492
v -0.11378067 -0.32191524 -0.49499816
v -0.15340458 -0.30173063 -0.49499816
v -0.19437684 -0.27225342 -0.45464697
v -0.19480933 -0.27193621 -0.45464697
v -0.19866361 -0.26897526 -0.45464697
v -0.20361182 -0.26482466 -0.45464697
v -0.17211622 -0.29107654 -0.46781600
v -0.16523451 -0.29301965 -0.46469256
v -0.18515459 -0.28289431 -0.46475711
v -0.18860181 -0.27927244 -0.46126127
v -0.15837823 -0.29916626 -0.47500134
v -0.11375523 -0.32190204 -0.47500134
v -0.17819655 -0.28908056 -0.48499727
v -0.22532547 -0.19444951 -0.45464697
v -0.22532547 -0.22507671 -0.50249141
v -0.09537432 -0.31460541 -0.50527716
v -0.09537432 -0.32323709 -0.50283897
v -0.10500363 -0.31498876 -0.50517786
v -0.12500003 -0.30499560 -0.50514305
v -0.14500915 -0.29498920 -0.50510335
v -0.10500363 -0.32256293 -0.50242686
v -0.11252135 -0.32128075 -0.50140393
v -0.14500915 -0.30289385 -0.50235236
v -0.10500363 -0.32523307 -0.49499816
v -0.10500363 -0.32533884 -0.48499727
v -0.11876705 -0.31936407 -0.48499727
v -0.18515459 -0.27728969 -0.45464697
v -0.11249591 -0.32126755 -0.46749321
v -0.14531443 -0.30313179 -0.46462303
v -0.16871989 -0.28935814 -0.46114707
v -0.18193634 -0.28110981 -0.45843580
v -0.17495286 -0.28256384 -0.45464697
v -0.10500363 -0.32532561 -0.47500134
v -0.22528730 -0.19251961 -0.45464697
v -0.22532547 -0.19361675 -0.45508397
v -0.22532547 -0.22497097 -0.50244176
v -0.09537432 -0.30693871 -0.50263041
v -0.09537432 -0.32351467 -0.50273472
v -0.09537432 -0.32720262 -0.49527624
v -0.09537432 -0.32729515 -0.49499816
v -0.09537432 -0.32755953 -0.48499727
v -0.10520715 -0.32257617 -0.46449891
v -0.10866709 -0.31952271 -0.46082431
v -0.11549792 -0.31824049 -0.46449891
v -0.12538163 -0.31324393 -0.46455848
v -0.12896878 -0.30946344 -0.46093354
v -0.12230331 -0.31131402 -0.45810309
v -0.15458757 -0.29292715 -0.45464697
v -0.09537432 -0.32754630 -0.47537872
v -0.09537432 -0.32753310 -0.47500134
v -0.09537432 -0.32541814 -0.46537784
v -0.09537432 -0.28425580 -0.45464697
v -0.09537432 -0.30171740 -0.49467045
v -0.09537432 -0.30182317 -0.49485913
v -0.22532547 -0.21803126 -0.49499816
v -0.22532547 -0.22010656 -0.49821594
v -0.09537432 -0.30671400 -0.50236726
v -0.09537432 -0.32531238 -0.46498555
v -0.10200162 -0.32075202 -0.45882809
v -0.10519443 -0.31747383 -0.45464697
v -0.11503998 -0.31303242 -0.45464697
v -0.13494734 -0.30292028 -0.45464697
v -0.09537432 -0.31997213 -0.45464697
v -0.09537432 -0.32155836 -0.45749730
v -0.09537432 -0.32010430 -0.45487043
v -0.09743501 -0.31949627 -0.45464697
v -0.10455841 -0.31765890 -0.45464697
f 1 2 7
f 1 7 15
f 1 15 28
f 1 28 45
f 1 45 66
f 1 66 87
f 1 87 107
f 1 107 108
f 1 108 88
f 1 88 67
f 1 67 46
f 1 46 32
f 1 32 31
f 1 31 17
f 1 17 8
f 1 8 3
f 1 3 4
f 1 4 5
f 1 5 2
f 2 6 7
f 2 5 6
f 3 8 4
f 4 8 9
f 4 9 10
f 4 10 5
f 5 11 6
f 5 10 12
f 5 12 13
f 5 13 11
f 6 14 15
f 6 15 7
f 6 11 14
f 8 16 9
f 8 17 16
f 9 18 19
f 9 19 10
f 9 16 17
f 9 17 18
f 10 19 20
f 10 20 12
f 11 21 22
f 11 22 23
f 11 23 14
f 11 13 24
f 11 24 21
f 12 20 25
f 12 25 26
f 12 26 13
f 13 26 27
f 13 27 24
f 14 28 15
f 14 23 29
f 14 29 30
f 14 30 28
f 17 31 18
f 18 31 32
f 18 32 33
f 18 33 34
f 18 34 19
f 19 34 35
f 19 35 25
f 19 25 20
f 21 24 36
f 21 36 37
f 21 37 38
f 21 38 22
f 22 38 23
f 23 38 29
f 24 27 39
f 24 39 40
f 24 40 36
f 25 35 41
f 25 41 26
f 26 41 42
f 26 42 27
f 27 42 43
f 27 43 39
f 28 30 44
f 28 44 45
f 29 38 37
f 29 37 58
f 29 58 57
f 29 57 56
f 29 56 55
f 29 55 79
f 29 79 84
f 29 84 100
f 29 100 114
f 29 114 113
f 29 113 112
f 29 112 119
f 29 119 118
f 29 118 115
f 29 115 104
f 29 104 86
f 29 86 66
f 29 66 45
f 29 45 44
f 29 44 30
f 32 46 33
f 33 47 48
f 33 48 49
f 33 49 50
f 33 50 51
f 33 51 34
f 33 46 47
f 34 51 35
f 35 51 52
f 35 52 53
f 35 53 54
f 35 54 41
f 36 55 56
f 36 56 57
f 36 57 58
f 36 58 37
f 36 40 55
f 39 59 60
f 39 60 61
f 39 61 62
f 39 62 40
f 39 43 63
f 39 63 64
f 39 64 59
f 40 62 55
f 41 54 42
f 42 65 63
f 42 63 43
f 42 54 65
f 46 67 68
f 46 68 47
f 47 68 89
f 47 89 109
f 47 109 106
f 47 106 105
f 47 105 104
f 47 104 115
f 47 115 117
f 47 117 116
f 47 116 110
f 47 110 103
f 47 103 102
f 47 102 101
f 47 101 93
f 47 93 92
f 47 92 91
f 47 91 90
f 47 90 69
f 47 69 70
f 47 70 71
f 47 71 72
f 47 72 48
f 48 72 71
f 48 71 49
f 49 71 70
f 49 70 73
f 49 73 74
f 49 74 75
f 49 75 50
f 50 75 74
f 50 74 51
f 51 74 52
f 52 74 53
f 53 74 76
f 53 76 77
f 53 77 64
f 53 64 78
f 53 78 54
f 54 78 63
f 54 63 65
f 55 62 79
f 59 64 80
f 59 80 81
f 59 81 60
f 60 82 61
f 60 81 82
f 61 82 62
f 62 82 83
f 62 83 84
f 62 84 79
f 63 78 64
f 64 77 85
f 64 85 80
f 66 86 87
f 67 88 89
f 67 89 68
f 69 90 73
f 69 73 70
f 73 90 91
f 73 91 76
f 73 76 74
f 76 91 92
f 76 92 93
f 76 93 77
f 77 93 85
f 80 85 94
f 80 94 95
f 80 95 96
f 80 96 97
f 80 97 81
f 81 97 82
f 82 84 83
f 82 97 96
f 82 96 98
f 82 98 99
f 82 99 84
f 84 99 100
f 85 93 101
f 85 101 102
f 85 102 103
f 85 103 94
f 86 104 105
f 86 105 106
f 86 106 107
f 86 107 87
f 88 108 89
f 89 108 109
f 94 103 110
f 94 110 111
f 94 111 95
f 95 111 112
f 95 112 113
f 95 113 96
f 96 113 99
f 96 99 98
f 99 113 114
f 99 114 100
f 106 109 108
f 106 108 107
f 110 116 111
f 111 116 117
f 111 117 118
f 111 118 119
f 111 119 112
f 115 118 117

