# https://github.com/mikedh/trimesh
v 0.28198355 0.10133299 -0.45459867
v 0.31834555 0.10133299 -0.45459867
v 0.29947859 0.10133299 -0.49466854
v 0.28427011 -0.09507525 -0.45459867
v 0.32056761 0.10133299 -0.45822191
v 0.31948298 0.09737252 -0.45459867
v 0.30112022 0.10133299 -0.49750543
v 0.30187067 -0.09507525 -0.49472329
v 0.32002234 -0.09507525 -0.45459867
v 0.31952986 0.09719950 -0.45459867
v 0.32083145 0.10133299 -0.45869473
v 0.30158338 0.10133299 -0.49822211
v 0.30702421 -0.09507525 -0.50262678
v 0.32159948 -0.09507525 -0.45744053
v 0.32161123 -0.09499834 -0.45742062
v 0.32003996 -0.09499834 -0.45459867
v 0.32003996 0.09498855 -0.45459867
v 0.32161123 0.09498855 -0.45742062
v 0.32542214 0.09498855 -0.46500060
v 0.32365739 0.10133299 -0.46468705
v 0.30554089 0.10133299 -0.50267154
v 0.31499782 -0.09499834 -0.50537908
v 0.31499782 -0.09507525 -0.50537407
v 0.32536936 -0.09507525 -0.46493590
v 0.32542214 -0.09499834 -0.46500060
v 0.32349908 -0.07519603 -0.45459867
v 0.32192782 -0.08423205 -0.45459867
v 0.32198060 0.08399154 -0.45459867
v 0.32353425 0.07499398 -0.45459867
v 0.32617259 0.10133299 -0.47500437
v 0.32535765 0.10133299 -0.47133633
v 0.32820705 0.07499398 -0.46403009
v 0.32766178 0.08399154 -0.46600097
v 0.32999524 0.07999262 -0.47000250
v 0.30854857 0.10133299 -0.50370675
v 0.32499415 -0.03499540 -0.50544375
v 0.32499415 -0.04499269 -0.50539899
v 0.32499415 -0.05498997 -0.50502568
v 0.31499782 0.09498855 -0.50537407
v 0.32499415 0.03498561 -0.50544375
v 0.32354599 -0.09507525 -0.50274622
v 0.32539868 -0.09507525 -0.46500060
v 0.32759142 -0.09507525 -0.47492474
v 0.32760900 -0.09507525 -0.47500437
v 0.32999524 -0.08000241 -0.47000250
v 0.32766178 -0.08400133 -0.46600097
v 0.32820705 -0.07498455 -0.46403009
v 0.32353425 -0.07498455 -0.45459867
v 0.32359874 0.07459025 -0.45459867
v 0.32618430 0.10133299 -0.48499823
v 0.32762659 0.09498855 -0.47500437
v 0.32764420 0.09498855 -0.48499823
v 0.33866066 0.00499375 -0.46282068
v 0.33657932 0.02498832 -0.46500060
v 0.34036091 0.01228023 -0.46907678
v 0.33039391 0.07499398 -0.46903199
v 0.33079845 0.07499398 -0.47500437
v 0.32920960 0.08501050 -0.47500437
v 0.34185010 0.00499375 -0.47500437
v 0.34054267 0.01345299 -0.47500437
v 0.33396444 0.05499941 -0.47500437
v 0.31499782 0.10133299 -0.50524962
v 0.33499631 -0.00498432 -0.50405020
v 0.33270979 -0.04499269 -0.50265163
v 0.33200037 -0.05498997 -0.50227338
v 0.32499415 -0.06498726 -0.50433385
v 0.32499415 0.04498290 -0.50539899
v 0.33499631 0.00499375 -0.50405020
v 0.32736862 -0.09507525 -0.49499702
v 0.33120298 -0.06498726 -0.50158161
v 0.33041149 -0.07498455 -0.50060111
v 0.33001283 -0.08007932 -0.50001884
v 0.32762659 -0.09507525 -0.48492357
v 0.32762659 -0.09499834 -0.47500437
v 0.33039391 -0.07498455 -0.46903199
v 0.32920960 -0.08502029 -0.47500437
v 0.33000109 -0.08002165 -0.47500437
v 0.33871344 -0.02499812 -0.47500437
v 0.34054267 -0.01344356 -0.47500437
v 0.34185010 -0.00498432 -0.47500437
v 0.34036091 -0.01227080 -0.46907678
v 0.33657932 -0.02499812 -0.46500060
v 0.33866066 -0.00498432 -0.46282068
v 0.33449799 -0.00533038 -0.45459867
v 0.33455074 0.00499375 -0.45459867
v 0.32611981 0.10133299 -0.49132895
v 0.33001283 0.08010797 -0.49499702
v 0.33001283 0.08008875 -0.50001884
v 0.32738036 0.09498855 -0.49499702
v 0.32602602 0.10133299 -0.49499702
v 0.33241075 0.06499669 -0.49499702
v 0.34091792 0.00499375 -0.46781760
v 0.33829129 0.01535632 -0.46544853
v 0.34056026 0.01352989 -0.49499702
v 0.34187943 0.00499375 -0.49499702
v 0.31813449 0.10133299 -0.50428408
v 0.32499415 0.05499941 -0.50502568
v 0.34094137 -0.00498432 -0.50129789
v 0.33270979 0.04498290 -0.50265163
v 0.34094137 0.00499375 -0.50129789
v 0.32764420 -0.09499834 -0.48499823
v 0.32762659 -0.09507525 -0.48499823
v 0.34037265 -0.01236693 -0.50056630
v 0.34187943 -0.00498432 -0.49499702
v 0.34056026 -0.01353969 -0.49499702
v 0.33241075 -0.06498726 -0.49499702
v 0.33001283 -0.08009855 -0.49499702
v 0.33714804 -0.03499540 -0.48499823
v 0.33873102 -0.02499812 -0.48499823
v 0.34091792 -0.00498432 -0.46781760
v 0.33829129 -0.01536611 -0.46544853
v 0.33455074 -0.00498432 -0.45459867
v 0.34037265 0.01235713 -0.50056630
v 0.33041149 0.07499398 -0.50060111
v 0.32292452 0.10133299 -0.50254214
v 0.32433161 0.10133299 -0.49970028
v 0.32499415 0.06499669 -0.50433385
v 0.33200037 0.05499941 -0.50227338
v 0.33120885 0.06499669 -0.50158161
f 1 2 5
f 1 5 11
f 1 11 20
f 1 20 31
f 1 31 30
f 1 30 50
f 1 50 86
f 1 86 90
f 1 90 116
f 1 116 115
f 1 115 96
f 1 96 62
f 1 62 35
f 1 35 21
f 1 21 12
f 1 12 7
f 1 7 3
f 1 3 4
f 1 4 9
f 1 9 16
f 1 16 27
f 1 27 26
f 1 26 48
f 1 48 84
f 1 84 112
f 1 112 85
f 1 85 49
f 1 49 29
f 1 29 28
f 1 28 17
f 1 17 10
f 1 10 6
f 1 6 2
f 2 6 5
f 3 7 8
f 3 8 4
f 4 8 13
f 4 13 23
f 4 23 41
f 4 41 69
f 4 69 102
f 4 102 73
f 4 73 44
f 4 44 43
f 4 43 42
f 4 42 24
f 4 24 14
f 4 14 9
f 5 6 10
f 5 10 11
f 7 12 8
f 8 12 13
f 9 14 15
f 9 15 16
f 10 17 18
f 10 18 11
f 11 18 19
f 11 19 20
f 12 21 13
f 13 22 23
f 13 21 22
f 14 24 15
f 15 24 25
f 15 25 26
f 15 26 27
f 15 27 16
f 17 28 18
f 18 28 29
f 18 29 19
f 19 30 31
f 19 31 20
f 19 29 32
f 19 32 33
f 19 33 34
f 19 34 30
f 21 35 22
f 22 36 37
f 22 37 38
f 22 38 23
f 22 35 39
f 22 39 40
f 22 40 36
f 23 38 41
f 24 42 25
f 25 42 43
f 25 43 44
f 25 44 45
f 25 45 46
f 25 46 47
f 25 47 48
f 25 48 26
f 29 49 32
f 30 34 51
f 30 51 52
f 30 52 50
f 32 49 53
f 32 53 54
f 32 54 33
f 33 54 55
f 33 55 56
f 33 56 34
f 34 57 58
f 34 58 51
f 34 56 55
f 34 55 59
f 34 59 60
f 34 60 61
f 34 61 57
f 35 62 39
f 36 63 37
f 36 40 68
f 36 68 63
f 37 63 38
f 38 63 64
f 38 64 65
f 38 65 66
f 38 66 41
f 39 62 67
f 39 67 40
f 40 67 68
f 41 66 65
f 41 65 70
f 41 70 71
f 41 71 72
f 41 72 69
f 44 73 74
f 44 74 45
f 45 75 46
f 45 74 76
f 45 76 77
f 45 77 78
f 45 78 79
f 45 79 80
f 45 80 81
f 45 81 75
f 46 75 81
f 46 81 82
f 46 82 47
f 47 82 83
f 47 83 48
f 48 83 84
f 49 85 53
f 50 52 86
f 51 58 52
f 52 87 88
f 52 88 89
f 52 89 90
f 52 90 86
f 52 58 57
f 52 57 91
f 52 91 87
f 53 85 112
f 53 112 83
f 53 83 110
f 53 110 92
f 53 92 93
f 53 93 54
f 54 93 55
f 55 93 92
f 55 92 59
f 57 61 94
f 57 94 91
f 59 95 94
f 59 94 60
f 59 92 110
f 59 110 80
f 59 80 104
f 59 104 95
f 60 94 61
f 62 96 97
f 62 97 67
f 63 98 64
f 63 68 100
f 63 100 98
f 64 98 65
f 65 98 70
f 67 97 68
f 68 97 99
f 68 99 100
f 69 101 102
f 69 72 101
f 70 98 103
f 70 103 71
f 71 103 72
f 72 103 104
f 72 104 105
f 72 105 106
f 72 106 107
f 72 107 101
f 73 101 74
f 73 102 101
f 74 101 76
f 76 101 108
f 76 108 109
f 76 109 77
f 77 109 78
f 78 109 79
f 79 109 105
f 79 105 80
f 80 110 81
f 80 105 104
f 81 110 111
f 81 111 82
f 82 111 83
f 83 112 84
f 83 111 110
f 87 91 88
f 88 91 94
f 88 94 95
f 88 95 113
f 88 113 114
f 88 114 115
f 88 115 116
f 88 116 90
f 88 90 89
f 95 104 98
f 95 98 100
f 95 100 113
f 96 115 117
f 96 117 97
f 97 118 99
f 97 117 118
f 98 104 103
f 99 118 100
f 100 118 119
f 100 119 113
f 101 107 106
f 101 106 105
f 101 105 108
f 105 109 108
f 113 119 114
f 114 119 115
f 115 119 118
f 115 118 117

