# https://github.com/mikedh/trimesh
v 0.00496739 0.33455363 -0.45459673
v -0.00501020 0.33455363 -0.45459673
v 0.00496739 0.33185831 -0.43477178
v 0.01329651 0.33058450 -0.43477178
v 0.07498408 0.32353234 -0.45459673
v -0.01871855 0.32973528 -0.43477178
v -0.01355623 0.33054757 -0.43477178
v -0.00522710 0.33183986 -0.43477178
v -0.00501020 0.33185831 -0.43477178
v -0.07502688 0.32353234 -0.45459673
v 0.03477003 0.32718766 -0.43477178
v 0.07476718 0.32085550 -0.43477178
v 0.09476575 0.31768018 -0.43477178
v 0.09498265 0.31764328 -0.43477178
v 0.08396391 0.32198164 -0.45459673
v -0.02526906 0.32870147 -0.43477178
v -0.07524379 0.32349545 -0.45459673
v -0.09498207 0.31764328 -0.43477178
v -0.07515703 0.32080013 -0.43477178
v -0.06526620 0.32236931 -0.43477178
v 0.09736859 0.31947091 -0.45459673
v 0.09498265 0.32004321 -0.45459673
v 0.10496024 0.31480026 -0.43477178
v 0.10448305 0.31766173 -0.45459673
v -0.08422363 0.32192624 -0.45459673
v -0.09498207 0.32004321 -0.45459673
v -0.10517658 0.31745866 -0.45459673
v -0.09519898 0.31758788 -0.43477178
v 0.11281217 0.31131113 -0.43477178
v 0.10517714 0.31745866 -0.45459673
v -0.10569714 0.31723714 -0.45459673
v -0.10495967 0.31480026 -0.43477178
v 0.11480769 0.31312031 -0.45459673
v 0.13233355 0.30136058 -0.43477178
v 0.13489303 0.30291131 -0.45459673
v -0.11498065 0.31302801 -0.45459673
v -0.11268146 0.31136650 -0.43477178
v -0.10513319 0.31472641 -0.43477178
v 0.14482725 0.29499152 -0.43477178
v 0.14595515 0.29441923 -0.43480280
v 0.14595515 0.29722530 -0.45459673
v -0.13489245 0.30291131 -0.45459673
v -0.11758350 0.30887425 -0.43477178
v 0.14495739 0.29491767 -0.43477178
v 0.14595515 0.29334849 -0.43477178
v 0.14595515 0.25720164 -0.45459673
v -0.17471607 0.28265950 -0.45459673
v -0.13766883 0.29864681 -0.43477178
v 0.14595515 0.14595512 -0.43477178
v 0.14595515 0.14595512 -0.45449194
v 0.14495739 0.14595512 -0.45449388
v 0.11498121 0.14595512 -0.45450360
v -0.25674924 0.14595512 -0.45459673
v -0.18512747 0.27726886 -0.45459673
v -0.18499732 0.27453661 -0.43477178
v -0.17731893 0.27845037 -0.43477178
v -0.16499877 0.28472716 -0.43477178
v -0.29331931 0.14595512 -0.43477178
v -0.29722357 0.14595512 -0.45459673
v -0.19436759 0.27224743 -0.45459673
v -0.19159122 0.27099210 -0.43477178
v -0.29115027 0.15234265 -0.43477178
v -0.29440382 0.14595512 -0.43479699
v -0.29275534 0.15483490 -0.45459673
v -0.19649325 0.26742911 -0.43477178
v -0.20421505 0.26425380 -0.45459673
v -0.28863418 0.15734561 -0.43477178
v -0.28264761 0.17473596 -0.45459673
v -0.19658002 0.26735526 -0.43477178
v -0.21427941 0.25428480 -0.45459673
v -0.20234966 0.26235229 -0.43477178
v -0.28472990 0.16500697 -0.43477178
v -0.27453539 0.18500033 -0.43477178
v -0.27726838 0.18516648 -0.45459673
v -0.20746860 0.25723857 -0.43477178
v -0.25427654 0.21429807 -0.45459673
v -0.23735800 0.22736853 -0.43477178
v -0.27444863 0.18516648 -0.43477178
v -0.27097815 0.19162786 -0.43477178
v -0.27223620 0.19437855 -0.45459673
v -0.26425412 0.20425524 -0.45459673
v -0.26234537 0.20237221 -0.43477178
v -0.25735658 0.20737517 -0.43477178
v -0.26742095 0.19650158 -0.43477178
v -0.26733416 0.19661236 -0.43477178
f 1 2 9
f 1 9 3
f 1 3 4
f 1 4 5
f 1 5 15
f 1 15 22
f 1 22 21
f 1 21 24
f 1 24 30
f 1 30 33
f 1 33 35
f 1 35 41
f 1 41 46
f 1 46 53
f 1 53 59
f 1 59 64
f 1 64 68
f 1 68 74
f 1 74 80
f 1 80 81
f 1 81 76
f 1 76 70
f 1 70 66
f 1 66 60
f 1 60 54
f 1 54 47
f 1 47 42
f 1 42 36
f 1 36 31
f 1 31 27
f 1 27 26
f 1 26 25
f 1 25 17
f 1 17 10
f 1 10 2
f 2 6 7
f 2 7 8
f 2 8 9
f 2 10 6
f 3 9 8
f 3 8 7
f 3 7 6
f 3 6 16
f 3 16 20
f 3 20 19
f 3 19 18
f 3 18 28
f 3 28 32
f 3 32 38
f 3 38 37
f 3 37 43
f 3 43 48
f 3 48 57
f 3 57 56
f 3 56 55
f 3 55 61
f 3 61 65
f 3 65 69
f 3 69 71
f 3 71 75
f 3 75 77
f 3 77 83
f 3 83 82
f 3 82 85
f 3 85 84
f 3 84 79
f 3 79 78
f 3 78 73
f 3 73 72
f 3 72 67
f 3 67 62
f 3 62 58
f 3 58 49
f 3 49 45
f 3 45 44
f 3 44 39
f 3 39 34
f 3 34 29
f 3 29 23
f 3 23 14
f 3 14 13
f 3 13 12
f 3 12 11
f 3 11 4
f 4 11 5
f 5 12 13
f 5 13 14
f 5 14 15
f 5 11 12
f 6 10 16
f 10 17 18
f 10 18 19
f 10 19 20
f 10 20 16
f 14 21 22
f 14 22 15
f 14 23 24
f 14 24 21
f 17 25 18
f 18 26 27
f 18 27 28
f 18 25 26
f 23 29 30
f 23 30 24
f 27 31 38
f 27 38 32
f 27 32 28
f 29 33 30
f 29 34 35
f 29 35 33
f 31 36 37
f 31 37 38
f 34 39 35
f 35 39 40
f 35 40 41
f 36 42 37
f 37 42 43
f 39 44 40
f 40 44 45
f 40 45 49
f 40 49 50
f 40 50 46
f 40 46 41
f 42 47 43
f 43 47 48
f 46 50 51
f 46 51 52
f 46 52 53
f 47 54 55
f 47 55 56
f 47 56 57
f 47 57 48
f 49 58 63
f 49 63 59
f 49 59 53
f 49 53 52
f 49 52 51
f 49 51 50
f 54 60 61
f 54 61 55
f 58 62 63
f 59 63 64
f 60 65 61
f 60 66 65
f 62 67 63
f 63 67 64
f 64 67 68
f 65 66 69
f 66 70 71
f 66 71 69
f 67 72 68
f 68 72 73
f 68 73 74
f 70 75 71
f 70 76 83
f 70 83 77
f 70 77 75
f 73 78 74
f 74 78 79
f 74 79 80
f 76 81 82
f 76 82 83
f 79 84 80
f 80 84 85
f 80 85 81
f 81 85 82

