# https://github.com/mikedh/trimesh
v 0.14597276 0.25708485 -0.45452037
v 0.14597276 0.29719701 -0.45452037
v 0.14597276 0.27980909 -0.49985370
v 0.29945901 0.10133299 -0.49466878
v 0.28194040 0.10133299 -0.45452037
v 0.15505844 0.29264018 -0.45452037
v 0.14884843 0.29941547 -0.46104127
v 0.14597276 0.30245337 -0.46397144
v 0.14597276 0.28306681 -0.50226736
v 0.30552790 0.10133299 -0.50266963
v 0.30157608 0.10133299 -0.49821973
v 0.30109972 0.10133299 -0.49750459
v 0.31755981 0.10133299 -0.45452037
v 0.17434126 0.28284699 -0.45452037
v 0.18861371 0.27926946 -0.46125978
v 0.16523793 0.29301989 -0.46469158
v 0.15535836 0.29801643 -0.46462700
v 0.14597276 0.30293304 -0.46491507
v 0.14597276 0.28390622 -0.50270438
v 0.30852705 0.10133299 -0.50370765
v 0.14597276 0.28460574 -0.50296265
v 0.32055897 0.10133299 -0.45822036
v 0.31828314 0.10139295 -0.45452037
v 0.18517351 0.27725086 -0.45452037
v 0.19521186 0.27749068 -0.46475613
v 0.19200100 0.28100824 -0.46792468
v 0.18517351 0.28288695 -0.46475613
v 0.17527629 0.28790346 -0.46469158
v 0.19436504 0.27223435 -0.45452037
v 0.15225336 0.30113429 -0.46770617
v 0.14597276 0.30549127 -0.47500181
v 0.31498408 0.10133299 -0.50525218
v 0.14597276 0.29403919 -0.50507832
v 0.32082361 0.10133299 -0.45869216
v 0.32075304 0.10201252 -0.45882624
v 0.31764802 0.10443084 -0.45452037
v 0.20071620 0.27063546 -0.45923349
v 0.20270975 0.27239424 -0.46500444
v 0.19799931 0.27884975 -0.47500181
v 0.19300660 0.28150791 -0.47500181
v 0.17319453 0.29162088 -0.47500181
v 0.19484138 0.27187461 -0.45452037
v 0.14597276 0.30551124 -0.48613650
v 0.27498943 0.18501489 -0.50502372
v 0.30499864 0.12501654 -0.50514293
v 0.31498408 0.10501043 -0.50517768
v 0.31812435 0.10133299 -0.50428373
v 0.16500859 0.28498548 -0.50506341
v 0.18501472 0.27499244 -0.50502372
v 0.14597276 0.29503852 -0.50490952
v 0.32364634 0.10133299 -0.46468660
v 0.32257017 0.10521030 -0.46449786
v 0.31951809 0.10866790 -0.46082771
v 0.31743631 0.10519031 -0.45452037
v 0.31752452 0.10491051 -0.45452037
v 0.19861679 0.26893663 -0.45452037
v 0.20352128 0.26485947 -0.45452037
v 0.20424461 0.26423988 -0.45452037
v 0.20770247 0.26773745 -0.46500444
v 0.20934318 0.26931638 -0.47500181
v 0.20433283 0.27385321 -0.47500181
v 0.19801696 0.27884975 -0.48499918
v 0.19302425 0.28152788 -0.48499918
v 0.17322981 0.29162088 -0.49499655
v 0.15340009 0.30171388 -0.49499655
v 0.14597276 0.30541131 -0.49499655
v 0.19304189 0.28152788 -0.49499655
v 0.26570970 0.20570053 -0.50329542
v 0.27550104 0.19522780 -0.50291795
v 0.28269902 0.18501489 -0.50227731
v 0.31299052 0.12501654 -0.50239152
v 0.21572962 0.25570580 -0.50329542
v 0.25570661 0.21571358 -0.50329542
v 0.32255253 0.10501043 -0.50242627
v 0.32292300 0.10133299 -0.50254548
v 0.14597276 0.30221352 -0.50241137
v 0.16500859 0.29278007 -0.50231701
v 0.18501472 0.28268707 -0.50227731
v 0.19522950 0.27549207 -0.50291795
v 0.20572655 0.26569888 -0.50329542
v 0.32535762 0.10133299 -0.47133660
v 0.32532233 0.10501043 -0.47500181
v 0.32126465 0.11250523 -0.46749261
v 0.31824785 0.11550315 -0.46449786
v 0.31300816 0.11500350 -0.45452037
v 0.31313163 0.11474368 -0.45452037
v 0.21276575 0.26274094 -0.46500444
v 0.21428297 0.25426680 -0.45452037
v 0.20934318 0.26933634 -0.48499918
v 0.23277189 0.24275480 -0.46500444
v 0.22433896 0.25432676 -0.47500181
v 0.20435047 0.27385321 -0.48499918
v 0.19803460 0.27880979 -0.49499655
v 0.19203629 0.28102824 -0.50119960
v 0.15228865 0.30115426 -0.50130385
v 0.14597276 0.30527139 -0.49582595
v 0.27250189 0.20286250 -0.50183034
v 0.26285166 0.21285556 -0.50183034
v 0.28102303 0.19203003 -0.50119960
v 0.29107901 0.17216381 -0.50125420
v 0.30115265 0.15227762 -0.50130385
v 0.32128230 0.11252522 -0.50140321
v 0.21287160 0.26284087 -0.50183034
v 0.23286010 0.24285474 -0.50183034
v 0.32523412 0.10501043 -0.49499655
v 0.32431674 0.10133299 -0.49969974
v 0.14597276 0.30265322 -0.50221771
v 0.20286854 0.27251413 -0.50183034
v 0.32616916 0.10133299 -0.47500181
v 0.32533997 0.10501043 -0.48499918
v 0.32189977 0.11374438 -0.47500181
v 0.31325513 0.12539628 -0.46456245
v 0.31935930 0.11876089 -0.47500181
v 0.30113500 0.15225764 -0.46770617
v 0.30946207 0.12897381 -0.46093202
v 0.31131452 0.12229843 -0.45810115
v 0.31291994 0.11518338 -0.45452037
v 0.21488281 0.25366724 -0.45452037
v 0.22934932 0.24933024 -0.48499918
v 0.21932861 0.25930333 -0.49499655
v 0.20932554 0.26929638 -0.49499655
v 0.23428911 0.23426071 -0.45452037
v 0.25485981 0.21367499 -0.45452037
v 0.26274580 0.21275564 -0.46500444
v 0.26932633 0.20931803 -0.47500181
v 0.26433361 0.21433453 -0.48499918
v 0.20431519 0.27381325 -0.49499655
v 0.26930869 0.20929803 -0.49499655
v 0.27380741 0.20430151 -0.49499655
v 0.27881777 0.19802587 -0.49499655
v 0.25431290 0.22430761 -0.49499655
v 0.25930560 0.21931109 -0.49499655
v 0.28153464 0.19302933 -0.49499655
v 0.31182614 0.13359059 -0.49499655
v 0.32191741 0.11378435 -0.49499655
v 0.32618681 0.10133299 -0.48499918
v 0.32611623 0.10133299 -0.49133134
v 0.32601038 0.10133299 -0.49499655
v 0.28100538 0.19201005 -0.46792468
v 0.29301965 0.16524862 -0.46469158
v 0.28935009 0.16874619 -0.46115053
v 0.31618375 0.12501654 -0.48499918
v 0.29917675 0.15839338 -0.48499918
v 0.28560996 0.18501489 -0.48499918
v 0.28906783 0.17819962 -0.47500181
v 0.30305800 0.13460988 -0.45452037
v 0.28284016 0.17434230 -0.45452037
v 0.26424539 0.20422156 -0.45452037
v 0.26775616 0.20767915 -0.46500444
v 0.26932633 0.20931803 -0.48499918
v 0.27239603 0.20270261 -0.46500444
v 0.27384269 0.20432149 -0.47500181
v 0.27386034 0.20432149 -0.48499918
v 0.27885306 0.19802587 -0.48499918
v 0.27885306 0.19800587 -0.47500181
v 0.28151700 0.19300935 -0.47500181
v 0.27747697 0.19520782 -0.46475613
v 0.27927646 0.18861240 -0.46125978
v 0.28289309 0.18517478 -0.46475613
v 0.28264609 0.17472205 -0.45452037
v 0.26486287 0.20350206 -0.45452037
v 0.27063182 0.20072399 -0.45923349
v 0.27223727 0.19436839 -0.45452037
v 0.27724761 0.18517478 -0.45452037
v 0.26893818 0.19862545 -0.45452037
v 0.27188441 0.19484806 -0.45452037
f 1 2 8
f 1 8 18
f 1 18 31
f 1 31 43
f 1 43 66
f 1 66 96
f 1 96 107
f 1 107 76
f 1 76 50
f 1 50 33
f 1 33 21
f 1 21 19
f 1 19 9
f 1 9 3
f 1 3 4
f 1 4 5
f 1 5 13
f 1 13 23
f 1 23 36
f 1 36 55
f 1 55 54
f 1 54 86
f 1 86 85
f 1 85 117
f 1 117 146
f 1 146 147
f 1 147 160
f 1 160 164
f 1 164 163
f 1 163 166
f 1 166 165
f 1 165 161
f 1 161 148
f 1 148 123
f 1 123 122
f 1 122 118
f 1 118 88
f 1 88 58
f 1 58 57
f 1 57 56
f 1 56 42
f 1 42 29
f 1 29 24
f 1 24 14
f 1 14 6
f 1 6 2
f 2 6 7
f 2 7 8
f 3 9 10
f 3 10 11
f 3 11 12
f 3 12 4
f 4 12 11
f 4 11 10
f 4 10 20
f 4 20 32
f 4 32 47
f 4 47 75
f 4 75 106
f 4 106 138
f 4 138 137
f 4 137 136
f 4 136 109
f 4 109 81
f 4 81 51
f 4 51 34
f 4 34 22
f 4 22 13
f 4 13 5
f 6 14 7
f 7 14 15
f 7 15 8
f 8 15 16
f 8 16 17
f 8 17 18
f 9 19 10
f 10 19 21
f 10 21 20
f 13 22 23
f 14 24 15
f 15 25 26
f 15 26 27
f 15 27 28
f 15 28 16
f 15 24 29
f 15 29 25
f 16 30 17
f 16 28 26
f 16 26 30
f 17 30 18
f 18 30 31
f 20 21 33
f 20 33 32
f 22 34 35
f 22 35 36
f 22 36 23
f 25 29 37
f 25 37 38
f 25 38 26
f 26 28 27
f 26 38 39
f 26 39 40
f 26 40 41
f 26 41 31
f 26 31 30
f 29 42 37
f 31 41 43
f 32 44 45
f 32 45 46
f 32 46 47
f 32 33 48
f 32 48 49
f 32 49 44
f 33 50 48
f 34 51 35
f 35 51 52
f 35 52 53
f 35 53 54
f 35 54 55
f 35 55 36
f 37 56 57
f 37 57 58
f 37 58 59
f 37 59 38
f 37 42 56
f 38 59 60
f 38 60 61
f 38 61 39
f 39 62 67
f 39 67 63
f 39 63 40
f 39 61 92
f 39 92 62
f 40 63 41
f 41 63 43
f 43 64 65
f 43 65 66
f 43 63 67
f 43 67 64
f 44 68 69
f 44 69 70
f 44 70 71
f 44 71 45
f 44 49 72
f 44 72 73
f 44 73 68
f 45 71 46
f 46 74 75
f 46 75 47
f 46 71 74
f 48 50 76
f 48 76 49
f 49 76 77
f 49 77 78
f 49 78 79
f 49 79 80
f 49 80 72
f 51 81 52
f 52 82 83
f 52 83 53
f 52 81 82
f 53 83 84
f 53 84 85
f 53 85 86
f 53 86 54
f 58 87 59
f 58 88 87
f 59 87 60
f 60 89 61
f 60 87 90
f 60 90 91
f 60 91 89
f 61 89 92
f 62 92 93
f 62 93 67
f 64 67 94
f 64 94 65
f 65 95 96
f 65 96 66
f 65 94 95
f 67 93 94
f 68 97 69
f 68 73 98
f 68 98 97
f 69 97 99
f 69 99 70
f 70 99 100
f 70 100 101
f 70 101 102
f 70 102 71
f 71 102 74
f 72 80 103
f 72 103 104
f 72 104 98
f 72 98 73
f 74 102 105
f 74 105 106
f 74 106 75
f 76 107 77
f 77 107 78
f 78 107 95
f 78 95 94
f 78 94 79
f 79 108 80
f 79 94 108
f 80 108 103
f 81 109 82
f 82 110 111
f 82 111 83
f 82 109 136
f 82 136 110
f 83 112 84
f 83 111 113
f 83 113 114
f 83 114 112
f 84 112 115
f 84 115 116
f 84 116 117
f 84 117 85
f 87 88 90
f 88 118 90
f 89 119 120
f 89 120 121
f 89 121 92
f 89 91 119
f 90 118 122
f 90 122 123
f 90 123 124
f 90 124 125
f 90 125 91
f 91 125 126
f 91 126 119
f 92 121 127
f 92 127 93
f 93 127 108
f 93 108 94
f 95 107 96
f 97 98 128
f 97 128 129
f 97 129 130
f 97 130 99
f 98 104 120
f 98 120 131
f 98 131 132
f 98 132 128
f 99 101 100
f 99 130 133
f 99 133 134
f 99 134 135
f 99 135 101
f 101 135 102
f 102 135 105
f 103 120 104
f 103 108 121
f 103 121 120
f 105 135 110
f 105 110 136
f 105 136 137
f 105 137 138
f 105 138 106
f 108 127 121
f 110 135 111
f 111 135 113
f 112 114 139
f 112 139 140
f 112 140 141
f 112 141 115
f 113 135 142
f 113 142 143
f 113 143 144
f 113 144 145
f 113 145 139
f 113 139 114
f 115 141 116
f 116 146 117
f 116 141 147
f 116 147 146
f 119 126 131
f 119 131 120
f 123 148 124
f 124 148 149
f 124 149 125
f 125 150 126
f 125 149 151
f 125 151 152
f 125 152 153
f 125 153 150
f 126 150 128
f 126 128 132
f 126 132 131
f 128 150 153
f 128 153 129
f 129 153 130
f 130 153 154
f 130 154 133
f 133 154 155
f 133 155 156
f 133 156 144
f 133 144 134
f 134 142 135
f 134 144 143
f 134 143 142
f 139 145 156
f 139 156 155
f 139 155 151
f 139 151 157
f 139 157 158
f 139 158 159
f 139 159 140
f 140 159 141
f 141 159 158
f 141 158 147
f 144 156 145
f 147 158 160
f 148 161 162
f 148 162 149
f 149 162 151
f 151 162 157
f 151 155 152
f 152 155 153
f 153 155 154
f 157 162 163
f 157 163 158
f 158 163 164
f 158 164 160
f 161 165 162
f 162 165 166
f 162 166 163

