# https://github.com/mikedh/trimesh
v -0.22532547 -0.24303323 -0.45464203
v -0.22481668 -0.24373877 -0.45464203
v -0.22532547 -0.23936442 -0.43477175
v -0.22532547 -0.19444495 -0.45464203
v -0.22459862 -0.24397396 -0.45464203
v -0.22223631 -0.24246879 -0.43477175
v -0.22532547 0.14595512 -0.43477175
v -0.22528914 -0.19251648 -0.45464203
v -0.22532547 0.14496736 -0.45446503
v -0.21482232 -0.25375745 -0.45464203
v -0.20246568 -0.26222396 -0.43477175
v 0.14595515 0.14595512 -0.43477175
v -0.22532547 0.14595512 -0.45444557
v 0.14595515 -0.25681478 -0.45464203
v -0.22499838 0.14595512 -0.45446503
v -0.21594897 0.14595512 -0.45446894
v -0.20595464 0.14595512 -0.45447281
v -0.19592395 0.14595512 -0.45447671
v -0.18498468 0.14595512 -0.45448059
v -0.12592724 0.14595512 -0.45450005
v -0.11498797 0.14496736 -0.45450392
v -0.10593855 0.14595512 -0.45450589
v -0.06497993 0.14496736 -0.45451561
v -0.05498559 0.14496736 -0.45451754
v -0.04499125 0.13499571 -0.45452338
v -0.03503326 0.12497702 -0.45452923
v -0.02500257 0.07497768 -0.45455256
v 0.02496912 0.07497768 -0.45455256
v -0.20424649 -0.26424649 -0.45464203
v -0.20221129 -0.26245913 -0.43477175
v 0.14595515 0.14595512 -0.45449227
v 0.14595515 -0.29439664 -0.43477175
v 0.14595515 -0.29721880 -0.45464203
v 0.03499980 0.07497768 -0.45455062
v 0.04499415 0.07497768 -0.45454866
v 0.08497150 0.11495835 -0.45452338
v 0.11400960 0.14595512 -0.45450392
v 0.14402896 0.14595512 -0.45449421
v 0.14595515 0.14402664 -0.45449421
v -0.03597818 0.14595512 -0.45451948
v -0.00501389 0.10498670 -0.45454088
v -0.01500824 0.08499636 -0.45454866
v 0.01497478 0.08499636 -0.45454866
v 0.00498044 0.10498670 -0.45454088
v 0.03499980 0.12497702 -0.45452923
v 0.03499980 0.08499636 -0.45454672
v -0.20359233 -0.26481092 -0.45464203
v -0.19657812 -0.26735088 -0.43477175
v 0.14515561 -0.29481995 -0.43477175
v 0.14497387 -0.29491401 -0.43477175
v 0.13490686 -0.30291015 -0.45464203
v 0.08497150 0.13499571 -0.45451561
v 0.06498282 0.14496736 -0.45451561
v 0.10499652 0.14595512 -0.45450589
v -0.00595881 0.14595512 -0.45452145
v -0.01500824 0.14496736 -0.45452145
v 0.01402986 0.14595512 -0.45452145
v 0.03499980 0.14595512 -0.45451948
v 0.04499415 0.13499571 -0.45452338
v 0.05498848 0.14496736 -0.45451754
v -0.19864967 -0.26895010 -0.45464203
v -0.19479731 -0.27191338 -0.45464203
v -0.19436121 -0.27224264 -0.45464203
v -0.19159913 -0.27097267 -0.43477175
v 0.11270124 -0.31137663 -0.43477175
v 0.11502720 -0.31302291 -0.45464203
v -0.19145375 -0.27106673 -0.43477175
v -0.18513006 -0.27727550 -0.45464203
v 0.10514190 -0.31471622 -0.43477175
v 0.10565070 -0.31725615 -0.45464203
v -0.18498468 -0.27450037 -0.43477175
v -0.17444521 -0.28282577 -0.45464203
v 0.10499652 -0.31476325 -0.43477175
v 0.10517823 -0.31744429 -0.45464203
v -0.18480298 -0.27459443 -0.43477175
v -0.17211926 -0.28108543 -0.43477175
v -0.11513335 -0.31297588 -0.45464203
v -0.11269836 -0.31137663 -0.43477175
v 0.09522025 -0.31758541 -0.43477175
v 0.09496584 -0.32003129 -0.45464203
v -0.10517535 -0.31744429 -0.45464203
v -0.10499363 -0.31476325 -0.43477175
v 0.09496584 -0.31763244 -0.43477175
v 0.08402658 -0.32195976 -0.45464009
v 0.08402658 -0.32195976 -0.45464203
v -0.10473923 -0.31485730 -0.43477175
v -0.10452117 -0.31763244 -0.45464203
v 0.08529859 -0.31918463 -0.43477175
v 0.07515888 -0.32351196 -0.45464203
v -0.09499929 -0.31763244 -0.43477175
v -0.09739794 -0.31946683 -0.45464203
v 0.04521220 -0.32553452 -0.43477175
v 0.00498044 -0.33456543 -0.45464203
v 0.02496912 -0.32873297 -0.43477175
v -0.09499929 -0.32003129 -0.45464203
v -0.09474489 -0.31767946 -0.43477175
v 0.01839103 -0.32976776 -0.43477175
v 0.00516216 -0.33183736 -0.43477175
v -0.00501389 -0.33456543 -0.45464203
v -0.08402369 -0.32195976 -0.45464203
v -0.08402369 -0.32195976 -0.45464009
v -0.07461084 -0.32360601 -0.45464203
v -0.07995327 -0.32003129 -0.43477175
v -0.00501389 -0.33183736 -0.43477175
v -0.01366354 -0.33052033 -0.43477175
v -0.02500257 -0.32873297 -0.43477175
f 1 2 3
f 1 3 7
f 1 7 13
f 1 13 9
f 1 9 4
f 1 4 8
f 1 8 14
f 1 14 33
f 1 33 51
f 1 51 66
f 1 66 70
f 1 70 74
f 1 74 80
f 1 80 85
f 1 85 89
f 1 89 93
f 1 93 99
f 1 99 102
f 1 102 100
f 1 100 95
f 1 95 91
f 1 91 87
f 1 87 81
f 1 81 77
f 1 77 72
f 1 72 68
f 1 68 63
f 1 63 62
f 1 62 61
f 1 61 47
f 1 47 29
f 1 29 10
f 1 10 5
f 1 5 2
f 2 5 3
f 3 5 6
f 3 6 11
f 3 11 30
f 3 30 48
f 3 48 64
f 3 64 67
f 3 67 71
f 3 71 75
f 3 75 76
f 3 76 78
f 3 78 82
f 3 82 86
f 3 86 90
f 3 90 96
f 3 96 103
f 3 103 106
f 3 106 105
f 3 105 104
f 3 104 98
f 3 98 97
f 3 97 94
f 3 94 92
f 3 92 88
f 3 88 83
f 3 83 79
f 3 79 73
f 3 73 69
f 3 69 65
f 3 65 50
f 3 50 49
f 3 49 32
f 3 32 12
f 3 12 7
f 4 9 8
f 5 10 6
f 6 10 11
f 7 12 31
f 7 31 38
f 7 38 37
f 7 37 54
f 7 54 58
f 7 58 57
f 7 57 55
f 7 55 40
f 7 40 22
f 7 22 20
f 7 20 19
f 7 19 18
f 7 18 17
f 7 17 16
f 7 16 15
f 7 15 13
f 8 9 15
f 8 15 16
f 8 16 17
f 8 17 18
f 8 18 19
f 8 19 20
f 8 20 21
f 8 21 22
f 8 22 23
f 8 23 24
f 8 24 25
f 8 25 26
f 8 26 27
f 8 27 28
f 8 28 14
f 9 13 15
f 10 29 11
f 11 29 30
f 12 32 33
f 12 33 14
f 12 14 39
f 12 39 31
f 14 28 34
f 14 34 35
f 14 35 36
f 14 36 37
f 14 37 38
f 14 38 39
f 20 22 21
f 22 40 24
f 22 24 23
f 24 40 25
f 25 40 26
f 26 40 41
f 26 41 27
f 27 41 42
f 27 42 43
f 27 43 28
f 28 43 44
f 28 44 45
f 28 45 46
f 28 46 34
f 29 47 48
f 29 48 30
f 31 39 38
f 32 49 33
f 33 49 50
f 33 50 51
f 34 46 35
f 35 46 52
f 35 52 36
f 36 52 37
f 37 52 53
f 37 53 54
f 40 55 56
f 40 56 41
f 41 56 55
f 41 55 57
f 41 57 44
f 41 44 43
f 41 43 42
f 44 57 45
f 45 57 58
f 45 58 59
f 45 59 46
f 46 59 60
f 46 60 53
f 46 53 52
f 47 61 48
f 48 61 62
f 48 62 63
f 48 63 64
f 50 65 51
f 51 65 66
f 53 60 54
f 54 60 58
f 58 60 59
f 63 67 64
f 63 68 67
f 65 69 70
f 65 70 66
f 67 68 71
f 68 72 71
f 69 73 74
f 69 74 70
f 71 72 75
f 72 76 75
f 72 77 78
f 72 78 76
f 73 79 74
f 74 79 80
f 77 81 78
f 78 81 82
f 79 83 80
f 80 84 85
f 80 83 84
f 81 86 82
f 81 87 86
f 83 88 89
f 83 89 84
f 84 89 85
f 86 87 90
f 87 91 90
f 88 92 89
f 89 92 94
f 89 94 93
f 90 91 95
f 90 95 96
f 93 94 97
f 93 97 98
f 93 98 104
f 93 104 99
f 95 100 101
f 95 101 96
f 96 101 102
f 96 102 103
f 99 104 105
f 99 105 102
f 100 102 101
f 102 105 106
f 102 106 103

