# https://github.com/mikedh/trimesh
v 0.30551153 -0.14595509 0.48613635
v 0.30549157 -0.14595509 0.47500244
v 0.30541161 -0.14595509 0.49499682
v 0.30171418 -0.15340003 0.49499682
v 0.29162118 -0.17322972 0.49499682
v 0.29917592 -0.15839274 0.48499963
v 0.30171418 -0.15338239 0.47500244
v 0.28100854 -0.19200088 0.46792397
v 0.30113459 -0.15225330 0.46770558
v 0.30293334 -0.14595509 0.46491092
v 0.30527169 -0.14595509 0.49582577
v 0.30115455 -0.15228859 0.50130588
v 0.28102854 -0.19203617 0.50120163
v 0.28152817 -0.19304177 0.49499682
v 0.28152817 -0.19302413 0.48499963
v 0.29162118 -0.17319444 0.47500244
v 0.28150821 -0.19300649 0.47500244
v 0.27885005 -0.19799918 0.47500244
v 0.27239454 -0.20270962 0.46500027
v 0.27749097 -0.19521174 0.46475706
v 0.27926975 -0.18861361 0.46125752
v 0.28288725 -0.18517341 0.46475706
v 0.28790376 -0.17527620 0.46469250
v 0.29302019 -0.16523787 0.46469250
v 0.29801673 -0.15535831 0.46462303
v 0.30245367 -0.14595509 0.46396780
v 0.30265352 -0.14595509 0.50221425
v 0.28268737 -0.18501462 0.50227380
v 0.27881008 -0.19803447 0.49499682
v 0.27549237 -0.19522938 0.50291914
v 0.27251443 -0.20286840 0.50183201
v 0.27885005 -0.19801682 0.48499963
v 0.27385351 -0.20433268 0.47500244
v 0.26931667 -0.20934303 0.47500244
v 0.26773775 -0.20770232 0.46500027
v 0.27063575 -0.20071606 0.45923227
v 0.27223465 -0.19436492 0.45454144
v 0.28284729 -0.17435881 0.45454144
v 0.28934276 -0.16873100 0.46114832
v 0.27257439 -0.19374745 0.45454144
v 0.27725115 -0.18517341 0.45454144
v 0.29939577 -0.14884838 0.46103913
v 0.29719731 -0.14595509 0.45454144
v 0.30221382 -0.14595509 0.50241280
v 0.29278037 -0.16500852 0.50231349
v 0.27499273 -0.18501462 0.50502378
v 0.27381355 -0.20431505 0.49499682
v 0.27385351 -0.20435032 0.48499963
v 0.26569918 -0.20572641 0.50329638
v 0.26929668 -0.20932539 0.49499682
v 0.26284117 -0.21287145 0.50183201
v 0.26933664 -0.20934303 0.48499963
v 0.26274124 -0.21276560 0.46500027
v 0.25432706 -0.22433880 0.47500244
v 0.24275510 -0.23277169 0.46500027
v 0.26424018 -0.20424448 0.45454144
v 0.26483977 -0.20355643 0.45454144
v 0.26893693 -0.19863430 0.45454144
v 0.27189487 -0.19484125 0.45454144
v 0.29278037 -0.15482906 0.45454144
v 0.25712514 -0.14595509 0.45454144
v 0.29503882 -0.14595509 0.50490963
v 0.28498578 -0.16500852 0.50506347
v 0.25570610 -0.21572946 0.50329638
v 0.10133329 -0.31498373 0.50525212
v 0.18501519 -0.27498916 0.50502378
v 0.25930363 -0.21932845 0.49499682
v 0.24285504 -0.23285991 0.50183201
v 0.24933054 -0.22934914 0.48499963
v 0.26078260 -0.21080732 0.45913300
v 0.25368750 -0.21486500 0.45454144
v 0.25484672 -0.21370062 0.45454144
v 0.21433483 -0.26433337 0.48499963
v 0.20931832 -0.26932606 0.47500244
v 0.21275593 -0.26274556 0.46500027
v 0.21485448 -0.25369519 0.45454144
v 0.24369445 -0.22486806 0.45454144
v 0.27980939 -0.14595509 0.49985641
v 0.10133329 -0.28194013 0.45454144
v 0.10133329 -0.29945871 0.49466920
v 0.29403949 -0.14595509 0.50507838
v 0.21571387 -0.25570640 0.50329638
v 0.21285586 -0.26285142 0.50183201
v 0.10133329 -0.30852675 0.50370836
v 0.10133329 -0.31812403 0.50428414
v 0.10501073 -0.31498373 0.50517768
v 0.12501684 -0.30499834 0.50514293
v 0.12501684 -0.31299019 0.50239295
v 0.18501519 -0.28269875 0.50227380
v 0.19522810 -0.27550077 0.50291914
v 0.20570083 -0.26570943 0.50329638
v 0.22430791 -0.25431266 0.49499682
v 0.21931139 -0.25930536 0.49499682
v 0.20929833 -0.26930842 0.49499682
v 0.20931832 -0.26932606 0.48499963
v 0.20432179 -0.27386007 0.48499963
v 0.20432179 -0.27384242 0.47500244
v 0.20270291 -0.27239579 0.46500027
v 0.20767945 -0.26775593 0.46500027
v 0.20422186 -0.26424515 0.45454144
v 0.28306711 -0.14595509 0.50226885
v 0.10133329 -0.30109942 0.49750355
v 0.10133329 -0.30157578 0.49821836
v 0.10133329 -0.30552757 0.50267094
v 0.10133329 -0.31830043 0.45454144
v 0.28460604 -0.14595509 0.50296378
v 0.20286280 -0.27250165 0.50183201
v 0.10133329 -0.32292265 0.50254184
v 0.10501073 -0.32255217 0.50242770
v 0.11252552 -0.32128197 0.50140017
v 0.15227792 -0.30115235 0.50130588
v 0.17216411 -0.29107875 0.50125623
v 0.19203033 -0.28102276 0.50120163
v 0.13241172 -0.31120834 0.50135553
v 0.20430180 -0.27380714 0.49499682
v 0.19802617 -0.27881750 0.49499682
v 0.19802617 -0.27885279 0.48499963
v 0.19800617 -0.27885279 0.47500244
v 0.19201034 -0.28100511 0.46792397
v 0.19520812 -0.27747670 0.46475706
v 0.20072429 -0.27063158 0.45923227
v 0.20352234 -0.26484498 0.45454144
v 0.28390652 -0.14595509 0.50270569
v 0.10133329 -0.32055864 0.45821965
v 0.10447111 -0.31764770 0.45454144
v 0.10133329 -0.32431638 0.49970254
v 0.10501073 -0.32523376 0.49499682
v 0.11378465 -0.32191706 0.49499682
v 0.19302963 -0.28153437 0.49499682
v 0.13359089 -0.31182581 0.49499682
v 0.19300964 -0.28151673 0.47500244
v 0.15225793 -0.30113471 0.46770558
v 0.12539658 -0.31325480 0.46455848
v 0.16524892 -0.29301935 0.46469250
v 0.18517508 -0.28289282 0.46475706
v 0.18861270 -0.27927619 0.46125752
v 0.17819992 -0.28906754 0.47500244
v 0.11876119 -0.31935897 0.47500244
v 0.19436869 -0.27223700 0.45454144
v 0.19862574 -0.26893795 0.45454144
v 0.19484836 -0.27188417 0.45454144
v 0.10133329 -0.32082325 0.45869619
v 0.10201282 -0.32075268 0.45882523
v 0.10493079 -0.31752419 0.45454144
v 0.10133329 -0.32601002 0.49499682
v 0.10501073 -0.32533962 0.48499963
v 0.10133329 -0.32611588 0.49132854
v 0.10133329 -0.32618645 0.48499963
v 0.11374468 -0.32189941 0.47500244
v 0.12501684 -0.31618339 0.48499963
v 0.18501519 -0.28560969 0.48499963
v 0.15839368 -0.29917645 0.48499963
v 0.11250553 -0.32126433 0.46749213
v 0.11550345 -0.31824753 0.46449894
v 0.12229873 -0.31131417 0.45810053
v 0.14886029 -0.29940578 0.46103913
v 0.16874649 -0.28934979 0.46114832
v 0.18517508 -0.27724734 0.45454144
v 0.17436258 -0.28283989 0.45454144
v 0.17498216 -0.28252232 0.45454144
v 0.10133329 -0.32364598 0.46468756
v 0.10519061 -0.31745362 0.45454144
v 0.10866820 -0.31951773 0.46082568
v 0.10521059 -0.32256982 0.46449894
v 0.10501073 -0.32532197 0.47500244
v 0.10133329 -0.32616881 0.47500244
v 0.11518367 -0.31293726 0.45454144
v 0.15505600 -0.29266652 0.45454144
v 0.10133329 -0.32535726 0.47133416
v 0.11476397 -0.31313133 0.45454144
f 1 2 10
f 1 10 26
f 1 26 43
f 1 43 61
f 1 61 78
f 1 78 101
f 1 101 123
f 1 123 106
f 1 106 81
f 1 81 62
f 1 62 44
f 1 44 27
f 1 27 11
f 1 11 3
f 1 3 4
f 1 4 5
f 1 5 6
f 1 6 7
f 1 7 2
f 2 7 8
f 2 8 9
f 2 9 10
f 3 11 4
f 4 11 12
f 4 12 13
f 4 13 5
f 5 13 14
f 5 14 6
f 6 14 15
f 6 15 16
f 6 16 7
f 7 16 8
f 8 17 18
f 8 18 19
f 8 19 20
f 8 20 21
f 8 21 22
f 8 22 23
f 8 23 24
f 8 24 25
f 8 25 9
f 8 16 17
f 9 25 10
f 10 25 26
f 11 27 12
f 12 27 28
f 12 28 13
f 13 29 14
f 13 28 30
f 13 30 31
f 13 31 29
f 14 29 32
f 14 32 18
f 14 18 15
f 15 18 17
f 15 17 16
f 18 32 48
f 18 48 33
f 18 33 19
f 19 33 34
f 19 34 35
f 19 35 36
f 19 36 20
f 20 36 37
f 20 37 21
f 21 38 39
f 21 39 24
f 21 24 23
f 21 23 22
f 21 37 40
f 21 40 41
f 21 41 38
f 24 39 25
f 25 39 26
f 26 39 42
f 26 42 43
f 27 44 45
f 27 45 28
f 28 45 46
f 28 46 30
f 29 31 47
f 29 47 48
f 29 48 32
f 30 46 49
f 30 49 31
f 31 50 47
f 31 49 51
f 31 51 50
f 33 48 52
f 33 52 34
f 34 53 35
f 34 52 54
f 34 54 55
f 34 55 53
f 35 53 56
f 35 56 36
f 36 56 57
f 36 57 58
f 36 58 59
f 36 59 37
f 37 59 58
f 37 58 57
f 37 57 56
f 37 56 72
f 37 72 71
f 37 71 77
f 37 77 76
f 37 76 100
f 37 100 122
f 37 122 140
f 37 140 141
f 37 141 139
f 37 139 158
f 37 158 160
f 37 160 159
f 37 159 168
f 37 168 167
f 37 167 170
f 37 170 162
f 37 162 144
f 37 144 125
f 37 125 105
f 37 105 79
f 37 79 61
f 37 61 43
f 37 43 60
f 37 60 38
f 37 38 41
f 37 41 40
f 38 60 42
f 38 42 39
f 42 60 43
f 44 62 63
f 44 63 46
f 44 46 45
f 46 64 49
f 46 63 65
f 46 65 66
f 46 66 64
f 47 50 48
f 48 50 52
f 49 64 51
f 50 51 67
f 50 67 52
f 51 64 68
f 51 68 67
f 52 67 69
f 52 69 54
f 53 70 56
f 53 55 77
f 53 77 71
f 53 71 72
f 53 72 70
f 54 69 73
f 54 73 74
f 54 74 55
f 55 74 75
f 55 75 76
f 55 76 77
f 56 70 72
f 61 79 80
f 61 80 78
f 62 81 63
f 63 81 65
f 64 66 82
f 64 82 83
f 64 83 68
f 65 84 104
f 65 104 103
f 65 103 102
f 65 102 80
f 65 80 79
f 65 79 105
f 65 105 124
f 65 124 142
f 65 142 161
f 65 161 169
f 65 169 166
f 65 166 148
f 65 148 147
f 65 147 145
f 65 145 126
f 65 126 108
f 65 108 85
f 65 85 86
f 65 86 87
f 65 87 66
f 65 81 84
f 66 87 88
f 66 88 89
f 66 89 90
f 66 90 91
f 66 91 82
f 67 68 83
f 67 83 92
f 67 92 73
f 67 73 69
f 73 92 93
f 73 93 94
f 73 94 95
f 73 95 74
f 74 95 96
f 74 96 97
f 74 97 98
f 74 98 99
f 74 99 75
f 75 99 100
f 75 100 76
f 78 80 102
f 78 102 103
f 78 103 104
f 78 104 101
f 81 106 84
f 82 91 83
f 83 94 93
f 83 93 92
f 83 91 107
f 83 107 94
f 84 106 104
f 85 108 86
f 86 108 109
f 86 109 88
f 86 88 87
f 88 109 110
f 88 110 89
f 89 111 112
f 89 112 113
f 89 113 90
f 89 110 114
f 89 114 111
f 90 107 91
f 90 113 107
f 94 107 115
f 94 115 96
f 94 96 95
f 96 115 116
f 96 116 117
f 96 117 118
f 96 118 97
f 97 118 98
f 98 118 119
f 98 119 120
f 98 120 121
f 98 121 99
f 99 121 100
f 100 121 122
f 101 104 123
f 104 106 123
f 105 125 124
f 107 113 116
f 107 116 115
f 108 126 109
f 109 127 110
f 109 126 127
f 110 127 128
f 110 128 111
f 110 111 114
f 111 113 112
f 111 128 113
f 113 129 116
f 113 128 130
f 113 130 129
f 116 129 117
f 117 129 118
f 118 129 131
f 118 131 119
f 119 132 133
f 119 133 134
f 119 134 135
f 119 135 136
f 119 136 120
f 119 131 137
f 119 137 138
f 119 138 132
f 120 136 139
f 120 139 121
f 121 140 122
f 121 139 141
f 121 141 140
f 124 125 143
f 124 143 142
f 125 144 143
f 126 145 127
f 127 146 128
f 127 145 147
f 127 147 148
f 127 148 146
f 128 146 149
f 128 149 138
f 128 138 150
f 128 150 130
f 129 151 131
f 129 130 151
f 130 150 152
f 130 152 151
f 131 151 137
f 132 138 153
f 132 153 133
f 133 153 154
f 133 154 155
f 133 155 156
f 133 156 157
f 133 157 134
f 134 157 135
f 135 157 136
f 136 158 139
f 136 157 159
f 136 159 160
f 136 160 158
f 137 151 138
f 138 149 153
f 138 151 152
f 138 152 150
f 142 143 161
f 143 144 162
f 143 162 163
f 143 163 164
f 143 164 161
f 146 165 149
f 146 148 166
f 146 166 165
f 149 165 153
f 153 165 164
f 153 164 163
f 153 163 154
f 154 163 167
f 154 167 155
f 155 167 168
f 155 168 159
f 155 159 157
f 155 157 156
f 161 164 169
f 162 170 163
f 163 170 167
f 164 165 169
f 165 166 169

