# https://github.com/mikedh/trimesh
v 0.14595513 -0.25683504 -0.45464697
v 0.14595513 -0.29724279 -0.45464697
v 0.14595513 -0.27821267 -0.49647287
v -0.09537430 -0.30171311 -0.49466777
v -0.09537430 -0.28426468 -0.45464697
v 0.13492332 -0.30292016 -0.45464697
v 0.14217550 -0.30124694 -0.45821744
v 0.14595513 -0.30020633 -0.45981368
v 0.14595513 -0.28307426 -0.50226617
v -0.09537430 -0.30671620 -0.50236559
v -0.09537430 -0.30182964 -0.49485672
v -0.09537430 -0.31997734 -0.45464697
v 0.11500940 -0.31303459 -0.45464697
v 0.12228519 -0.31131139 -0.45810306
v 0.14595513 -0.30245399 -0.46397090
v 0.12894680 -0.30947167 -0.46093255
v 0.14595513 -0.28461432 -0.50296235
v -0.09537430 -0.30694929 -0.50262916
v -0.09537430 -0.32010221 -0.45486578
v -0.09499635 -0.32006058 -0.45464697
v 0.10518236 -0.31747997 -0.45464697
v 0.10865490 -0.31952780 -0.46082813
v 0.11548185 -0.31824583 -0.46449801
v 0.14595513 -0.30280364 -0.46462733
v 0.14595513 -0.29506174 -0.50490665
v 0.14498660 -0.29500344 -0.50510561
v -0.09537430 -0.31499922 -0.50536913
v -0.09537430 -0.31461629 -0.50527966
v -0.09537430 -0.32155901 -0.45749637
v -0.09499635 -0.32160896 -0.45742178
v -0.08403541 -0.32198358 -0.45464697
v 0.09497735 -0.32006058 -0.45464697
v 0.10199329 -0.32075155 -0.45882908
v 0.10518236 -0.32257462 -0.46449801
v 0.11248177 -0.32126766 -0.46749163
v 0.14595513 -0.30294514 -0.46491078
v 0.14595513 -0.30266210 -0.50221640
v 0.14498660 -0.30289519 -0.50235564
v 0.12497817 -0.31299299 -0.50239044
v 0.10499337 -0.31499922 -0.50517523
v 0.09497735 -0.31499922 -0.50537413
v -0.09499635 -0.31499922 -0.50537413
v -0.09537430 -0.32323226 -0.50283802
v -0.04498710 -0.32499710 -0.50539899
v -0.05497950 -0.32499710 -0.50502604
v -0.09537430 -0.32531342 -0.46498534
v -0.09499635 -0.32542166 -0.46500027
v -0.07498792 -0.32354861 -0.45464697
v 0.08401643 -0.32198358 -0.45464697
v 0.09497735 -0.32160896 -0.45742178
v 0.09497735 -0.32542166 -0.46500027
v 0.10499337 -0.32532176 -0.47500050
v 0.11373377 -0.32190034 -0.47500050
v 0.13234846 -0.31120318 -0.46760103
v 0.14595513 -0.30534264 -0.47404075
v 0.14595513 -0.30541757 -0.49499598
v 0.13237208 -0.31121984 -0.50135612
v 0.11250539 -0.32127598 -0.50140089
v 0.10499337 -0.32255799 -0.50242525
v 0.06497654 -0.32499710 -0.50433481
v 0.05498414 -0.32499710 -0.50502604
v 0.04499174 -0.32499710 -0.50539899
v 0.03499934 -0.32499710 -0.50544375
v -0.03499470 -0.32499710 -0.50544375
v -0.09537430 -0.32351530 -0.50273359
v -0.06499553 -0.32499710 -0.50433481
v -0.09499635 -0.32355693 -0.50274849
v -0.00499388 -0.33499497 -0.50405139
v -0.04498710 -0.33270571 -0.50264907
v -0.05497950 -0.33199811 -0.50227112
v -0.09537430 -0.32541332 -0.46537820
v -0.09537430 -0.32754442 -0.47500050
v -0.07999593 -0.33000019 -0.47000286
v -0.08398817 -0.32766098 -0.46599981
v -0.07498792 -0.32820207 -0.46403059
v -0.07463358 -0.32360688 -0.45464697
v 0.07499255 -0.32354861 -0.45464697
v 0.07499255 -0.32820207 -0.46403059
v 0.08399281 -0.32766098 -0.46599981
v 0.08000056 -0.33000019 -0.47000286
v 0.09497735 -0.32762769 -0.47500050
v 0.10499337 -0.32533839 -0.48499575
v 0.11375740 -0.32190865 -0.48499575
v 0.11874178 -0.31935298 -0.47500050
v 0.14595513 -0.30549249 -0.47500050
v 0.13355322 -0.31181088 -0.47500050
v 0.14595513 -0.30550915 -0.48499575
v 0.13357684 -0.31181920 -0.49499598
v 0.11375740 -0.32191697 -0.49499598
v 0.10499337 -0.32523850 -0.49499598
v 0.08007143 -0.33000851 -0.50001848
v 0.07499255 -0.33041644 -0.50060028
v 0.06497654 -0.33120728 -0.50158489
v 0.05498414 -0.33199811 -0.50227112
v 0.04499174 -0.33270571 -0.50264907
v 0.00502214 -0.33499497 -0.50405139
v -0.06499553 -0.33120728 -0.50158489
v -0.07498792 -0.33041644 -0.50060028
v -0.08006680 -0.33000851 -0.50001848
v -0.09537430 -0.32720312 -0.49527445
v -0.00499388 -0.34093875 -0.50130141
v -0.09537430 -0.32755277 -0.48499575
v -0.09499635 -0.32764432 -0.48499575
v -0.09499635 -0.32762769 -0.47500050
v -0.07498792 -0.33039147 -0.46903318
v -0.03499470 -0.33713442 -0.47500050
v -0.01345081 -0.34053919 -0.47500050
v -0.00499388 -0.34184614 -0.47500050
v -0.01226967 -0.34035605 -0.46907794
v -0.02497868 -0.33657664 -0.46500027
v -0.00499388 -0.33865780 -0.46281722
v -0.00499388 -0.33456209 -0.45464697
v 0.00502214 -0.33456209 -0.45464697
v 0.00502214 -0.33865780 -0.46281722
v 0.02500694 -0.33657664 -0.46500027
v 0.07499255 -0.33039147 -0.46903318
v 0.01229793 -0.34035605 -0.46907794
v 0.03499934 -0.33713442 -0.47500050
v 0.08009506 -0.33001685 -0.49499598
v 0.08505583 -0.32921767 -0.48499575
v 0.09497735 -0.32764432 -0.48499575
v 0.00502214 -0.34184614 -0.47500050
v 0.01345544 -0.34053919 -0.47500050
v 0.02500694 -0.33871609 -0.47500050
v 0.09497735 -0.32737795 -0.49499598
v 0.01354993 -0.34055582 -0.49499598
v 0.00502214 -0.34187111 -0.49499598
v 0.01239242 -0.34037268 -0.50056547
v 0.00502214 -0.34093875 -0.50130141
v -0.01236416 -0.34037268 -0.50056547
v -0.08009042 -0.33001685 -0.49499598
v -0.09499635 -0.32737795 -0.49499598
v -0.09537430 -0.32730302 -0.49499598
v -0.00499388 -0.34187111 -0.49499598
v -0.01352168 -0.34055582 -0.49499598
v -0.09537430 -0.32755277 -0.48537368
v -0.01349805 -0.34054750 -0.48499575
v -0.00499388 -0.34186280 -0.48499575
v -0.00499388 -0.34092212 -0.46781984
v -0.01536424 -0.33829153 -0.46544781
v 0.00502214 -0.34092212 -0.46781984
v 0.01539250 -0.33829153 -0.46544781
v 0.00502214 -0.34186280 -0.48499575
v 0.01350269 -0.34054750 -0.48499575
f 1 2 8
f 1 8 15
f 1 15 24
f 1 24 36
f 1 36 55
f 1 55 85
f 1 85 87
f 1 87 56
f 1 56 37
f 1 37 25
f 1 25 17
f 1 17 9
f 1 9 3
f 1 3 4
f 1 4 5
f 1 5 12
f 1 12 20
f 1 20 31
f 1 31 48
f 1 48 76
f 1 76 112
f 1 112 113
f 1 113 77
f 1 77 49
f 1 49 32
f 1 32 21
f 1 21 13
f 1 13 6
f 1 6 2
f 2 6 7
f 2 7 8
f 3 9 10
f 3 10 11
f 3 11 4
f 4 11 10
f 4 10 18
f 4 18 28
f 4 28 27
f 4 27 43
f 4 43 65
f 4 65 100
f 4 100 133
f 4 133 136
f 4 136 102
f 4 102 72
f 4 72 71
f 4 71 46
f 4 46 29
f 4 29 19
f 4 19 12
f 4 12 5
f 6 13 14
f 6 14 7
f 7 14 8
f 8 14 16
f 8 16 15
f 9 17 18
f 9 18 10
f 12 19 20
f 13 21 22
f 13 22 23
f 13 23 14
f 14 23 16
f 15 16 23
f 15 23 24
f 17 25 26
f 17 26 27
f 17 27 28
f 17 28 18
f 19 29 30
f 19 30 20
f 20 30 31
f 21 32 33
f 21 33 22
f 22 33 34
f 22 34 35
f 22 35 23
f 23 35 24
f 24 35 36
f 25 37 38
f 25 38 26
f 26 38 39
f 26 39 40
f 26 40 41
f 26 41 42
f 26 42 27
f 27 42 44
f 27 44 45
f 27 45 43
f 29 46 47
f 29 47 30
f 30 47 48
f 30 48 31
f 32 49 50
f 32 50 33
f 33 50 51
f 33 51 34
f 34 51 52
f 34 52 35
f 35 52 53
f 35 53 54
f 35 54 36
f 36 54 55
f 37 56 57
f 37 57 38
f 38 57 58
f 38 58 39
f 39 58 59
f 39 59 40
f 40 59 60
f 40 60 61
f 40 61 62
f 40 62 41
f 41 62 63
f 41 63 64
f 41 64 42
f 42 64 44
f 43 45 66
f 43 66 67
f 43 67 65
f 44 64 68
f 44 68 45
f 45 68 69
f 45 69 70
f 45 70 66
f 46 71 47
f 47 71 72
f 47 72 73
f 47 73 74
f 47 74 75
f 47 75 76
f 47 76 48
f 49 77 50
f 50 77 51
f 51 77 78
f 51 78 79
f 51 79 80
f 51 80 52
f 52 80 81
f 52 81 121
f 52 121 82
f 52 82 83
f 52 83 53
f 53 83 84
f 53 84 54
f 54 84 55
f 55 84 86
f 55 86 85
f 56 87 88
f 56 88 57
f 57 88 89
f 57 89 58
f 58 89 90
f 58 90 91
f 58 91 59
f 59 91 92
f 59 92 93
f 59 93 94
f 59 94 60
f 60 94 61
f 61 94 95
f 61 95 96
f 61 96 62
f 62 96 63
f 63 96 68
f 63 68 64
f 65 67 70
f 65 70 97
f 65 97 98
f 65 98 99
f 65 99 100
f 66 70 67
f 68 96 129
f 68 129 101
f 68 101 69
f 69 101 70
f 70 101 97
f 72 102 103
f 72 103 104
f 72 104 73
f 73 105 74
f 73 104 103
f 73 103 106
f 73 106 107
f 73 107 108
f 73 108 109
f 73 109 105
f 74 105 109
f 74 109 110
f 74 110 75
f 75 110 111
f 75 111 76
f 76 111 112
f 77 113 114
f 77 114 78
f 78 114 115
f 78 115 79
f 79 116 80
f 79 115 117
f 79 117 116
f 80 118 119
f 80 119 120
f 80 120 121
f 80 121 81
f 80 116 117
f 80 117 122
f 80 122 123
f 80 123 124
f 80 124 118
f 82 90 89
f 82 89 83
f 82 121 90
f 83 89 87
f 83 87 86
f 83 86 84
f 85 86 87
f 87 89 88
f 90 121 125
f 90 125 91
f 91 125 121
f 91 121 119
f 91 119 126
f 91 126 127
f 91 127 128
f 91 128 92
f 92 128 93
f 93 128 129
f 93 129 94
f 94 129 95
f 95 129 96
f 97 101 130
f 97 130 98
f 98 130 99
f 99 131 103
f 99 103 132
f 99 132 133
f 99 133 100
f 99 130 134
f 99 134 135
f 99 135 131
f 101 129 127
f 101 127 134
f 101 134 130
f 102 136 103
f 103 136 133
f 103 133 132
f 103 131 106
f 106 135 137
f 106 137 107
f 106 131 135
f 107 137 138
f 107 138 108
f 108 139 109
f 108 138 143
f 108 143 122
f 108 122 141
f 108 141 139
f 109 139 140
f 109 140 110
f 110 140 111
f 111 140 139
f 111 139 141
f 111 141 114
f 111 114 113
f 111 113 112
f 114 141 142
f 114 142 115
f 115 142 117
f 117 142 141
f 117 141 122
f 118 124 126
f 118 126 119
f 119 121 120
f 122 143 123
f 123 143 144
f 123 144 124
f 124 144 126
f 126 144 143
f 126 143 127
f 127 129 128
f 127 143 138
f 127 138 134
f 134 138 135
f 135 138 137

