# https://github.com/mikedh/trimesh
v 0.14595515 -0.30550975 -0.48499846
v 0.15838560 -0.29916540 -0.47500271
v 0.14595515 -0.30548915 -0.47500271
v 0.14595515 -0.30540675 -0.49499917
v 0.15340629 -0.30171961 -0.49499917
v 0.19302730 -0.28153306 -0.48499846
v 0.17819610 -0.28907213 -0.47500271
v 0.19199587 -0.28099751 -0.46792465
v 0.17213202 -0.29107019 -0.46781531
v 0.15225039 -0.30112225 -0.46770597
v 0.14595515 -0.30532438 -0.47403842
v 0.14595515 -0.30266714 -0.50221640
v 0.15228596 -0.30114287 -0.50130677
v 0.17214981 -0.29109079 -0.50125706
v 0.19203144 -0.28101811 -0.50120240
v 0.19302730 -0.28153306 -0.49499917
v 0.19802439 -0.27885526 -0.48499846
v 0.19300953 -0.28151247 -0.47500271
v 0.19800660 -0.27883467 -0.47500271
v 0.20270136 -0.27238733 -0.46500200
v 0.19519685 -0.27747515 -0.46475843
v 0.18861707 -0.27926722 -0.46125919
v 0.18516712 -0.28289258 -0.46475843
v 0.17527965 -0.28789800 -0.46468884
v 0.15536246 -0.29801190 -0.46462423
v 0.14595515 -0.30293494 -0.46491253
v 0.14595515 -0.29504570 -0.50491041
v 0.16500096 -0.29277986 -0.50231582
v 0.18500707 -0.28268659 -0.50227606
v 0.19804217 -0.27881408 -0.49499917
v 0.19521463 -0.27549770 -0.50292218
v 0.20286141 -0.27251092 -0.50182867
v 0.20433742 -0.27384982 -0.48499846
v 0.20433742 -0.27384982 -0.47500271
v 0.20933451 -0.26931813 -0.47500271
v 0.20769845 -0.26775265 -0.46500200
v 0.20072743 -0.27063644 -0.45923120
v 0.19437882 -0.27224314 -0.45459867
v 0.17474616 -0.28266597 -0.45459867
v 0.14885381 -0.29941258 -0.46104047
v 0.18546943 -0.27710438 -0.45459867
v 0.18516712 -0.27726918 -0.45459867
v 0.14595515 -0.30279073 -0.46462423
v 0.16500096 -0.28499362 -0.50506449
v 0.14595515 -0.28460225 -0.50296199
v 0.31498459 -0.09509585 -0.50537765
v 0.18500707 -0.27498275 -0.50502473
v 0.20431964 -0.27380863 -0.49499917
v 0.20572451 -0.26571339 -0.50329995
v 0.21287337 -0.26285022 -0.50182867
v 0.20931673 -0.26929754 -0.49499917
v 0.20935228 -0.26931813 -0.48499846
v 0.21276666 -0.26274723 -0.46500200
v 0.21434937 -0.26433331 -0.48499846
v 0.22434354 -0.25432241 -0.47500271
v 0.21081051 -0.26079035 -0.45913178
v 0.20424852 -0.26425090 -0.45459867
v 0.15482897 -0.29277986 -0.45459867
v 0.14595515 -0.30019534 -0.45981774
v 0.14595515 -0.30244058 -0.46396813
v 0.14595515 -0.28305736 -0.50226611
v 0.30701768 -0.09509585 -0.50262892
v 0.32353830 -0.09509585 -0.50274324
v 0.31498459 -0.10500374 -0.50517386
v 0.29499626 -0.14500606 -0.50510424
v 0.27499014 -0.18500839 -0.50502473
v 0.22573063 -0.24571224 -0.50329995
v 0.21932867 -0.25930727 -0.49499917
v 0.21431381 -0.26431268 -0.49499917
v 0.25285003 -0.22284788 -0.50182867
v 0.23431993 -0.24431154 -0.49499917
v 0.23277278 -0.24274606 -0.46500200
v 0.26933506 -0.20933525 -0.48499846
v 0.25932312 -0.21932553 -0.47500271
v 0.26275527 -0.21275461 -0.46500200
v 0.23430213 -0.23428005 -0.45459867
v 0.21429603 -0.25428122 -0.45459867
v 0.14618632 -0.29710555 -0.45459867
v 0.14595515 -0.29720855 -0.45459867
v 0.14595515 -0.27819610 -0.49647543
v 0.30186057 -0.09509585 -0.49472579
v 0.32736170 -0.09509585 -0.49499917
v 0.32256022 -0.10500374 -0.50242513
v 0.31299287 -0.12500490 -0.50239038
v 0.30289200 -0.14500606 -0.50235558
v 0.28269026 -0.18500839 -0.50227606
v 0.27550584 -0.19522527 -0.50292218
v 0.26570728 -0.20570990 -0.50329995
v 0.26284420 -0.21283700 -0.50182867
v 0.25430825 -0.22431037 -0.49499917
v 0.26929951 -0.20929405 -0.49499917
v 0.27381644 -0.20430921 -0.49499917
v 0.27385199 -0.20432980 -0.48499846
v 0.27385199 -0.20430921 -0.47500271
v 0.26931730 -0.20931464 -0.47500271
v 0.25427270 -0.21427889 -0.45459867
v 0.26775235 -0.20768736 -0.46500200
v 0.26426685 -0.20422682 -0.45459867
v 0.14595515 -0.25677365 -0.45459867
v 0.28425518 -0.09509585 -0.45459867
v 0.32761067 -0.09509585 -0.48499846
v 0.32522771 -0.10500374 -0.49499917
v 0.32127982 -0.11252220 -0.50140125
v 0.29108393 -0.17215492 -0.50125706
v 0.28101864 -0.19203249 -0.50120240
v 0.31121454 -0.13239977 -0.50135648
v 0.27250049 -0.20284672 -0.50182867
v 0.27881351 -0.19802666 -0.49499917
v 0.27884910 -0.19802666 -0.48499846
v 0.27884910 -0.19800606 -0.47500271
v 0.27239379 -0.20268193 -0.46500200
v 0.27063325 -0.20070447 -0.45923120
v 0.27225152 -0.19438072 -0.45459867
v 0.32001722 -0.09509585 -0.45459867
v 0.32533440 -0.10500374 -0.48499846
v 0.32761067 -0.09509585 -0.47500271
v 0.32192004 -0.11377871 -0.49499917
v 0.29163522 -0.17322604 -0.49499917
v 0.28153434 -0.19304182 -0.49499917
v 0.28151658 -0.19300061 -0.47500271
v 0.28100085 -0.19201189 -0.46792465
v 0.27747977 -0.19520466 -0.46475843
v 0.27927589 -0.18861313 -0.46125919
v 0.27726638 -0.18517318 -0.45459867
v 0.32074633 -0.10201695 -0.45882860
v 0.32159993 -0.09509585 -0.45743683
v 0.31745645 -0.10518912 -0.45459867
v 0.32531661 -0.10500374 -0.47500271
v 0.32190225 -0.11375811 -0.47500271
v 0.32538778 -0.09509585 -0.46499702
v 0.31935924 -0.11876355 -0.47500271
v 0.28790075 -0.17528589 -0.46468884
v 0.28288588 -0.18517318 -0.46475843
v 0.30113146 -0.15225674 -0.46770597
v 0.31324184 -0.12539628 -0.46455961
v 0.28110754 -0.18195981 -0.45843592
v 0.28265470 -0.17475033 -0.45459867
v 0.30947179 -0.12898041 -0.46093112
v 0.32536998 -0.09509585 -0.46493739
v 0.31951928 -0.10867027 -0.46082675
v 0.32257801 -0.10520972 -0.46449500
v 0.31722528 -0.10572468 -0.45459867
v 0.32126206 -0.11250160 -0.46749222
v 0.31823891 -0.11550898 -0.46449500
v 0.29279113 -0.15483156 -0.45459867
v 0.31130344 -0.12230650 -0.45810288
v 0.31302842 -0.11503521 -0.45459867
f 1 2 3
f 1 3 11
f 1 11 26
f 1 26 43
f 1 43 60
f 1 60 59
f 1 59 79
f 1 79 99
f 1 99 80
f 1 80 61
f 1 61 45
f 1 45 27
f 1 27 12
f 1 12 4
f 1 4 5
f 1 5 6
f 1 6 2
f 2 6 7
f 2 7 8
f 2 8 3
f 3 8 9
f 3 9 10
f 3 10 11
f 4 12 13
f 4 13 5
f 5 13 14
f 5 14 15
f 5 15 16
f 5 16 6
f 6 16 17
f 6 17 19
f 6 19 18
f 6 18 7
f 7 18 8
f 8 18 19
f 8 19 20
f 8 20 21
f 8 21 22
f 8 22 23
f 8 23 9
f 9 23 24
f 9 24 25
f 9 25 10
f 10 25 26
f 10 26 11
f 12 27 28
f 12 28 29
f 12 29 13
f 13 29 14
f 14 29 15
f 15 30 16
f 15 29 31
f 15 31 32
f 15 32 30
f 16 30 17
f 17 30 33
f 17 33 34
f 17 34 19
f 19 34 20
f 20 34 35
f 20 35 36
f 20 36 37
f 20 37 21
f 21 37 38
f 21 38 22
f 22 39 40
f 22 40 24
f 22 24 23
f 22 38 41
f 22 41 42
f 22 42 39
f 24 40 25
f 25 40 43
f 25 43 26
f 27 44 28
f 27 45 46
f 27 46 44
f 28 44 47
f 28 47 29
f 29 47 31
f 30 32 48
f 30 48 33
f 31 47 49
f 31 49 32
f 32 49 50
f 32 50 51
f 32 51 48
f 33 48 51
f 33 51 52
f 33 52 34
f 34 52 35
f 35 53 36
f 35 52 54
f 35 54 55
f 35 55 53
f 36 53 56
f 36 56 57
f 36 57 37
f 37 57 38
f 38 57 77
f 38 77 76
f 38 76 96
f 38 96 98
f 38 98 113
f 38 113 124
f 38 124 137
f 38 137 145
f 38 145 147
f 38 147 142
f 38 142 127
f 38 127 114
f 38 114 100
f 38 100 99
f 38 99 79
f 38 79 78
f 38 78 58
f 38 58 39
f 38 39 42
f 38 42 41
f 39 58 40
f 40 58 59
f 40 59 60
f 40 60 43
f 44 46 47
f 45 61 62
f 45 62 46
f 46 62 81
f 46 81 100
f 46 100 114
f 46 114 126
f 46 126 139
f 46 139 130
f 46 130 116
f 46 116 101
f 46 101 82
f 46 82 63
f 46 63 64
f 46 64 65
f 46 65 66
f 46 66 47
f 47 67 49
f 47 66 67
f 49 67 50
f 50 68 69
f 50 69 51
f 50 67 88
f 50 88 70
f 50 70 90
f 50 90 71
f 50 71 68
f 51 69 54
f 51 54 52
f 53 55 72
f 53 72 56
f 54 69 68
f 54 68 73
f 54 73 55
f 55 73 74
f 55 74 75
f 55 75 72
f 56 72 76
f 56 76 77
f 56 77 57
f 58 78 59
f 59 78 79
f 61 80 62
f 62 80 81
f 63 82 83
f 63 83 64
f 64 83 84
f 64 84 65
f 65 84 66
f 66 84 85
f 66 85 86
f 66 86 87
f 66 87 88
f 66 88 67
f 68 71 73
f 70 89 91
f 70 91 90
f 70 88 89
f 71 90 73
f 72 75 76
f 73 90 91
f 73 91 92
f 73 92 93
f 73 93 94
f 73 94 95
f 73 95 74
f 74 95 75
f 75 96 76
f 75 95 97
f 75 97 98
f 75 98 96
f 80 99 100
f 80 100 81
f 82 101 102
f 82 102 83
f 83 102 103
f 83 103 84
f 84 103 85
f 85 103 86
f 86 104 105
f 86 105 87
f 86 103 106
f 86 106 104
f 87 107 88
f 87 105 107
f 88 107 89
f 89 107 91
f 91 107 92
f 92 107 108
f 92 108 93
f 93 108 109
f 93 109 110
f 93 110 94
f 94 110 111
f 94 111 95
f 95 111 97
f 97 111 112
f 97 112 98
f 98 112 113
f 101 115 102
f 101 116 115
f 102 115 117
f 102 117 103
f 103 117 106
f 104 106 117
f 104 117 105
f 105 118 119
f 105 119 108
f 105 108 107
f 105 117 118
f 108 119 109
f 109 119 110
f 110 119 120
f 110 120 121
f 110 121 111
f 111 121 122
f 111 122 112
f 112 122 113
f 113 123 124
f 113 122 123
f 114 125 126
f 114 127 125
f 115 128 129
f 115 129 117
f 115 116 128
f 116 130 128
f 117 129 131
f 117 131 118
f 118 131 119
f 119 131 120
f 120 131 121
f 121 132 133
f 121 133 123
f 121 123 122
f 121 131 129
f 121 129 134
f 121 134 135
f 121 135 132
f 123 136 137
f 123 137 124
f 123 133 132
f 123 132 135
f 123 135 138
f 123 138 136
f 125 139 126
f 125 127 140
f 125 140 141
f 125 141 139
f 127 142 140
f 128 141 143
f 128 143 129
f 128 130 141
f 129 143 134
f 130 139 141
f 134 143 135
f 135 143 144
f 135 144 138
f 136 138 137
f 137 138 146
f 137 146 145
f 138 144 146
f 140 142 147
f 140 147 144
f 140 144 143
f 140 143 141
f 144 147 146
f 145 146 147

