# https://github.com/mikedh/trimesh
v 0.10133329 -0.28198463 0.45460722
v 0.10133329 -0.29947349 0.49466929
v 0.10133329 -0.31835184 0.45460722
v -0.09499808 -0.28430048 0.45460722
v -0.09507498 -0.28427702 0.45461220
v 0.10133329 -0.30112094 0.49750599
v -0.09507498 -0.30179518 0.49453491
v -0.09507498 -0.30191830 0.49476385
v 0.10133329 -0.32056800 0.45822027
v 0.09737283 -0.31948337 0.45460722
v -0.09507498 -0.28440601 0.45460722
v 0.10133329 -0.30158412 0.49822262
v -0.09507498 -0.30702484 0.50262696
v 0.10133329 -0.32083181 0.45869306
v 0.09719980 -0.31953028 0.45460722
v -0.09507498 -0.32002273 0.45460722
v 0.10133329 -0.30554155 0.50267178
v -0.09507498 -0.31499830 0.50537407
v 0.10133329 -0.30854329 0.50370687
v 0.10133329 -0.32365772 0.46468991
v 0.09498887 -0.32542244 0.46500346
v 0.09498887 -0.32161158 0.45742401
v 0.09498887 -0.32004619 0.45460722
v -0.09507498 -0.32159984 0.45743895
v -0.09499808 -0.32004619 0.45460722
v -0.09507498 -0.32354632 0.50274640
v -0.05498970 -0.32499444 0.50502568
v -0.04499241 -0.32499444 0.50539899
v -0.03499512 -0.32499444 0.50543880
v 0.09498887 -0.31499830 0.50537407
v 0.10133329 -0.31499830 0.50524968
v 0.10133329 -0.32535794 0.47133374
v 0.07999294 -0.32999542 0.47000000
v 0.08399184 -0.32766202 0.46600375
v 0.07499428 -0.32820728 0.46403301
v 0.07499428 -0.32353458 0.45460722
v 0.08401108 -0.32198092 0.45460722
v -0.09499808 -0.32161158 0.45742401
v -0.09499808 -0.32542244 0.46500346
v -0.09507498 -0.32536966 0.46493876
v -0.08402029 -0.32198092 0.45460722
v -0.09507498 -0.32736889 0.49499774
v -0.08007905 -0.33001304 0.50001919
v -0.07498427 -0.33041170 0.50060147
v -0.06498699 -0.33120319 0.50158185
v -0.05498970 -0.33200052 0.50227362
v -0.06498699 -0.32499444 0.50433397
v -0.04499241 -0.33270994 0.50265187
v -0.00498403 -0.33499643 0.50405031
v 0.03498590 -0.32499444 0.50543880
v 0.04498319 -0.32499444 0.50539899
v 0.10133329 -0.31813490 0.50428420
v 0.05499971 -0.32499444 0.50502568
v 0.10133329 -0.32616699 0.47500154
v 0.09498887 -0.32762685 0.47500154
v 0.08501080 -0.32920980 0.47500154
v 0.07499428 -0.33079866 0.47500154
v 0.05499971 -0.33396459 0.47500154
v 0.01345328 -0.34054267 0.47500154
v 0.00499404 -0.34185010 0.47500154
v 0.01228052 -0.34036094 0.46907437
v 0.07499428 -0.33039412 0.46903455
v 0.02498862 -0.33657941 0.46500346
v 0.07459055 -0.32359907 0.45460722
v 0.00499404 -0.33866072 0.46281871
v -0.07519576 -0.32350528 0.45460722
v -0.09507498 -0.32760927 0.47500154
v -0.09507498 -0.32539898 0.46499848
v -0.07498427 -0.32820728 0.46403301
v -0.08400106 -0.32766202 0.46600375
v -0.08000214 -0.32999542 0.47000000
v -0.09507498 -0.32762685 0.48499966
v -0.09499808 -0.32764444 0.48499966
v -0.08009827 -0.33001304 0.49499774
v -0.05498970 -0.33399388 0.49499774
v -0.01353940 -0.34056029 0.49499774
v -0.01236664 -0.34037265 0.50056660
v -0.00498403 -0.34094137 0.50129819
v 0.00499404 -0.33499643 0.50405031
v 0.10133329 -0.32292485 0.50254238
v 0.06499700 -0.32499444 0.50433397
v 0.04498319 -0.33270994 0.50265187
v 0.05499971 -0.33200052 0.50227362
v 0.10133329 -0.32617873 0.48133186
v 0.09498887 -0.32764444 0.48499966
v 0.05499971 -0.33399388 0.49499774
v 0.01353018 -0.34056029 0.49499774
v 0.00499404 -0.34091792 0.46782023
v 0.00499404 -0.34187356 0.49499774
v -0.00498403 -0.34185010 0.47500154
v 0.01535661 -0.33829135 0.46544638
v 0.00499404 -0.33455086 0.45460722
v -0.00498403 -0.33866072 0.46281871
v -0.00533009 -0.33449811 0.45460722
v -0.09507498 -0.32762685 0.48492500
v -0.09499808 -0.32762685 0.47500154
v -0.02499783 -0.33657941 0.46500346
v -0.01227051 -0.34036094 0.46907437
v -0.07498427 -0.33039412 0.46903455
v -0.08002137 -0.33000129 0.47500154
v -0.08502002 -0.32920980 0.47500154
v -0.01344327 -0.34054267 0.47500154
v -0.02499783 -0.33871347 0.47500154
v -0.03499512 -0.33714810 0.48499966
v -0.02499783 -0.33873108 0.48499966
v -0.00498403 -0.34187356 0.49499774
v 0.00499404 -0.34094137 0.50129819
v 0.06499700 -0.33120319 0.50158185
v 0.07499428 -0.33041170 0.50060147
v 0.08006983 -0.33001304 0.50001919
v 0.10133329 -0.32432607 0.49970070
v 0.10133329 -0.32618460 0.48499966
v 0.10133329 -0.32612011 0.49132997
v 0.09498887 -0.32738060 0.49499774
v 0.08010828 -0.33001304 0.49499774
v -0.00498403 -0.34091792 0.46782023
v 0.01235742 -0.34037265 0.50056660
v -0.00498403 -0.33455086 0.45460722
v -0.01536583 -0.33829135 0.46544638
v 0.10133329 -0.32602042 0.49499774
f 1 2 6
f 1 6 12
f 1 12 17
f 1 17 19
f 1 19 31
f 1 31 52
f 1 52 80
f 1 80 111
f 1 111 120
f 1 120 113
f 1 113 112
f 1 112 84
f 1 84 54
f 1 54 32
f 1 32 20
f 1 20 14
f 1 14 9
f 1 9 3
f 1 3 10
f 1 10 15
f 1 15 23
f 1 23 37
f 1 37 36
f 1 36 64
f 1 64 92
f 1 92 118
f 1 118 94
f 1 94 66
f 1 66 41
f 1 41 25
f 1 25 16
f 1 16 11
f 1 11 4
f 1 4 5
f 1 5 2
f 2 5 7
f 2 7 8
f 2 8 6
f 3 9 10
f 4 11 5
f 5 11 16
f 5 16 24
f 5 24 40
f 5 40 68
f 5 68 67
f 5 67 95
f 5 95 72
f 5 72 42
f 5 42 26
f 5 26 18
f 5 18 13
f 5 13 8
f 5 8 7
f 6 8 12
f 8 13 12
f 9 14 15
f 9 15 10
f 12 13 17
f 13 18 19
f 13 19 17
f 14 20 21
f 14 21 22
f 14 22 15
f 15 22 23
f 16 25 24
f 18 26 27
f 18 27 28
f 18 28 29
f 18 29 50
f 18 50 30
f 18 30 19
f 19 30 31
f 20 32 21
f 21 32 33
f 21 33 34
f 21 34 35
f 21 35 36
f 21 36 22
f 22 36 37
f 22 37 23
f 24 25 38
f 24 38 39
f 24 39 40
f 25 41 38
f 26 42 43
f 26 43 44
f 26 44 45
f 26 45 46
f 26 46 47
f 26 47 27
f 27 46 48
f 27 48 49
f 27 49 28
f 27 47 46
f 28 49 29
f 29 49 79
f 29 79 50
f 30 50 51
f 30 51 31
f 31 51 53
f 31 53 52
f 32 54 33
f 33 54 55
f 33 55 56
f 33 56 57
f 33 57 58
f 33 58 59
f 33 59 60
f 33 60 61
f 33 61 62
f 33 62 34
f 34 62 61
f 34 61 63
f 34 63 35
f 35 64 36
f 35 63 65
f 35 65 64
f 38 41 66
f 38 66 39
f 39 67 68
f 39 68 40
f 39 66 69
f 39 69 70
f 39 70 71
f 39 71 67
f 42 72 73
f 42 73 43
f 43 74 75
f 43 75 76
f 43 76 77
f 43 77 44
f 43 73 74
f 44 77 45
f 45 77 78
f 45 78 46
f 46 78 48
f 48 78 49
f 49 78 107
f 49 107 79
f 50 79 51
f 51 79 53
f 52 53 81
f 52 81 80
f 53 79 82
f 53 82 83
f 53 83 81
f 54 84 55
f 55 84 85
f 55 85 56
f 56 85 57
f 57 85 86
f 57 86 87
f 57 87 58
f 58 87 59
f 59 87 60
f 60 88 61
f 60 87 89
f 60 89 106
f 60 106 90
f 60 90 116
f 60 116 88
f 61 91 63
f 61 88 91
f 63 91 65
f 64 65 92
f 65 91 88
f 65 88 116
f 65 116 93
f 65 93 118
f 65 118 92
f 66 94 93
f 66 93 69
f 67 71 96
f 67 96 95
f 69 93 97
f 69 97 70
f 70 97 98
f 70 98 99
f 70 99 71
f 71 100 101
f 71 101 96
f 71 99 98
f 71 98 90
f 71 90 102
f 71 102 103
f 71 103 100
f 72 95 73
f 73 95 96
f 73 96 101
f 73 101 104
f 73 104 76
f 73 76 75
f 73 75 74
f 76 104 105
f 76 105 102
f 76 102 90
f 76 90 106
f 76 106 77
f 77 106 78
f 78 106 89
f 78 89 107
f 79 107 82
f 80 108 109
f 80 109 110
f 80 110 111
f 80 81 83
f 80 83 108
f 82 107 83
f 83 107 108
f 84 112 85
f 85 112 113
f 85 113 114
f 85 114 110
f 85 110 115
f 85 115 86
f 86 115 110
f 86 110 87
f 87 110 89
f 89 110 117
f 89 117 107
f 90 98 116
f 93 116 119
f 93 119 97
f 93 94 118
f 97 119 98
f 98 119 116
f 100 103 105
f 100 105 104
f 100 104 101
f 102 105 103
f 107 117 108
f 108 117 109
f 109 117 110
f 110 114 120
f 110 120 111
f 113 120 114

