# https://github.com/mikedh/trimesh
v -0.00493863 -0.33192825 0.44342631
v 0.00493863 -0.33192825 0.44342631
v -0.06498194 -0.32244086 0.44342631
v -0.03476533 -0.32718456 -0.43477172
v -0.01332130 -0.33056360 -0.43477172
v -0.00493863 -0.33186325 -0.43477172
v 0.06342237 -0.32270080 0.44342631
v 0.00493863 -0.33186325 -0.43477172
v 0.01838989 -0.32978383 -0.43477172
v -0.09493861 -0.31763220 0.44342631
v -0.09493861 -0.31763220 -0.43477172
v -0.07498915 -0.32081631 -0.43477172
v 0.09337904 -0.31789213 0.44342631
v 0.03522021 -0.32711956 -0.43477172
v 0.07498915 -0.32081631 -0.43477172
v 0.09493861 -0.31763220 -0.43477172
v -0.09656315 -0.31717733 0.44342631
v -0.10475088 -0.31483796 -0.43477172
v 0.09493861 -0.31763220 0.44342631
v 0.09519853 -0.31756720 -0.43477172
v -0.10494582 -0.31477299 0.44342631
v -0.10494582 -0.31477299 -0.43477172
v 0.10338626 -0.31522787 0.44342631
v 0.10494582 -0.31477299 -0.43477172
v -0.10618048 -0.31425312 0.44342631
v -0.11267868 -0.31132895 -0.43477172
v -0.11267868 -0.31139392 0.44342631
v 0.10494582 -0.31477299 0.44342631
v 0.10514077 -0.31470799 -0.43477172
v -0.11280864 -0.31126395 -0.43477172
v -0.17213714 -0.28111228 0.44342631
v -0.15231766 -0.29118451 -0.43477172
v -0.13750178 -0.29872242 -0.43477172
v -0.11768229 -0.30879465 -0.43477172
v 0.11267868 -0.31139392 0.44342631
v 0.11267868 -0.31132895 -0.43477172
v -0.18493858 -0.27454910 0.44342631
v -0.18480863 -0.27461410 -0.43477172
v 0.13132849 -0.30190653 0.44342631
v 0.11781225 -0.30872965 -0.43477172
v 0.13750178 -0.29872242 -0.43477172
v -0.19156674 -0.27097508 0.44342631
v -0.19169670 -0.27091011 -0.43477172
v 0.17213714 -0.28111228 0.44342631
v 0.15231766 -0.29118451 -0.43477172
v -0.19579057 -0.26792094 0.44342631
v -0.19657035 -0.26733610 -0.43477172
v 0.18493858 -0.27454910 0.44342631
v 0.17727071 -0.27844802 -0.43477172
v 0.18513353 -0.27441913 -0.43477172
v -0.19657035 -0.26733610 0.44342631
v -0.20222378 -0.26246244 -0.43477172
v -0.19748010 -0.26655632 0.44342631
v 0.19052704 -0.27155992 0.44342631
v 0.19156674 -0.27097508 -0.43477172
v -0.26246202 -0.20222409 -0.43477172
v -0.20235375 -0.26233247 0.44342631
v 0.19156674 -0.27097508 0.44342631
v 0.19657035 -0.26733610 -0.43477172
v -0.26733568 -0.19657066 -0.43477172
v -0.26233208 -0.20235406 0.44342631
v -0.26655591 -0.19748041 0.44342631
v 0.19657035 -0.26733610 0.44342631
v 0.20235375 -0.26233247 -0.43477172
v -0.27090970 -0.19169700 -0.43477172
v -0.26733568 -0.19657066 0.44342631
v -0.26792052 -0.19579087 0.44342631
v 0.20235375 -0.26233247 0.44342631
v 0.26233208 -0.20235406 -0.43477172
v -0.27461365 -0.18480891 -0.43477172
v -0.27097467 -0.19156705 0.44342631
v -0.27454868 -0.18493888 0.44342631
v 0.26233208 -0.20235406 0.44342631
v 0.26733568 -0.19657066 -0.43477172
v -0.29118404 -0.15231790 -0.43477172
v -0.28111184 -0.17213741 0.44342631
v 0.26733568 -0.19657066 0.44342631
v 0.27097467 -0.19156705 -0.43477172
v -0.29872194 -0.13750198 -0.43477172
v -0.31139344 -0.11267885 0.44342631
v 0.27097467 -0.19156705 0.44342631
v 0.27441871 -0.18513381 -0.43477172
v 0.27155951 -0.19052733 0.44342631
v -0.30879414 -0.11768246 -0.43477172
v -0.31425264 -0.10618065 0.44342631
v -0.31477249 -0.10494599 -0.43477172
v -0.31132844 -0.11267885 -0.43477172
v -0.31126347 -0.11280882 -0.43477172
v 0.27844760 -0.17727099 -0.43477172
v 0.28111184 -0.17213741 0.44342631
v 0.27454868 -0.18493888 0.44342631
v -0.31477249 -0.10494599 0.44342631
v -0.31483746 -0.10475104 -0.43477172
v 0.29118404 -0.15231790 -0.43477172
v 0.30190608 -0.13132869 0.44342631
v -0.31717682 -0.09656330 0.44342631
v -0.31763169 -0.09493876 -0.43477172
v 0.29872194 -0.13750198 -0.43477172
v 0.31139344 -0.11267885 0.44342631
v -0.31763169 -0.09493876 0.44342631
v -0.32081580 -0.07498927 -0.43477172
v -0.32244036 -0.06498203 0.44342631
v 0.30872917 -0.11781243 -0.43477172
v 0.31477249 -0.10494599 0.44342631
v 0.31132844 -0.11267885 -0.43477172
v 0.31470752 -0.10514093 -0.43477172
v -0.32718405 -0.03476539 -0.43477172
v -0.33192772 -0.00493863 0.44342631
v 0.31522736 -0.10338642 0.44342631
v 0.31477249 -0.10494599 -0.43477172
v -0.33056310 -0.01332132 -0.43477172
v -0.33192772 0.00493863 0.44342631
v -0.33186275 -0.00493863 -0.43477172
v 0.31763169 -0.09493876 0.44342631
v 0.31756672 -0.09519868 -0.43477172
v -0.32270029 0.06342246 0.44342631
v -0.32978332 0.01838992 -0.43477172
v -0.33186275 0.00493863 -0.43477172
v 0.31789163 -0.09337918 0.44342631
v 0.31763169 -0.09493876 -0.43477172
v -0.31789163 0.09337918 0.44342631
v -0.31763169 0.09493876 -0.43477172
v -0.32081580 0.07498927 -0.43477172
v -0.32711905 0.03522026 -0.43477172
v 0.32270029 -0.06342246 0.44342631
v 0.32081580 -0.07498927 -0.43477172
v -0.31763169 0.09493876 0.44342631
v -0.31756672 0.09519868 -0.43477172
v 0.33192772 -0.00493863 0.44342631
v 0.32711905 -0.03522026 -0.43477172
v 0.32978332 -0.01838992 -0.43477172
v -0.31522736 0.10338642 0.44342631
v -0.31477249 0.10494599 -0.43477172
v 0.33192772 0.00493863 0.44342631
v 0.33186275 -0.00493863 -0.43477172
v -0.31477249 0.10494599 0.44342631
v -0.31470752 0.10514093 -0.43477172
v 0.32244036 0.06498203 0.44342631
v 0.33186275 0.00493863 -0.43477172
v 0.33056310 0.01332132 -0.43477172
v 0.32718405 0.03476539 -0.43477172
v -0.31139344 0.11267885 0.44342631
v -0.31132844 0.11267885 -0.43477172
v 0.31763169 0.09493876 0.44342631
v 0.32081580 0.07498927 -0.43477172
v 0.31763169 0.09493876 -0.43477172
v -0.30190608 0.13132869 0.44342631
v -0.29872194 0.13750198 -0.43477172
v -0.30872917 0.11781243 -0.43477172
v 0.31717682 0.09656330 0.44342631
v 0.31483746 0.10475104 -0.43477172
v -0.28111184 0.17213741 0.44342631
v -0.29118404 0.15231790 -0.43477172
v 0.31477249 0.10494599 0.44342631
v 0.31477249 0.10494599 -0.43477172
v -0.27454868 0.18493888 0.44342631
v -0.27441871 0.18513381 -0.43477172
v -0.27844760 0.17727099 -0.43477172
v 0.31425264 0.10618065 0.44342631
v 0.31132844 0.11267885 -0.43477172
v 0.31139344 0.11267885 0.44342631
v -0.27155951 0.19052733 0.44342631
v -0.27097467 0.19156705 -0.43477172
v 0.31126347 0.11280882 -0.43477172
v 0.28111184 0.17213741 0.44342631
v 0.30879414 0.11768246 -0.43477172
v 0.29872194 0.13750198 -0.43477172
v 0.29118404 0.15231790 -0.43477172
v -0.27097467 0.19156705 0.44342631
v -0.26733568 0.19657066 -0.43477172
v 0.27454868 0.18493888 0.44342631
v 0.27461365 0.18480891 -0.43477172
v -0.26733568 0.19657066 0.44342631
v -0.26233208 0.20235406 -0.43477172
v 0.27097467 0.19156705 0.44342631
v 0.27090970 0.19169700 -0.43477172
v -0.26233208 0.20235406 0.44342631
v -0.20235375 0.26233247 -0.43477172
v 0.26792052 0.19579087 0.44342631
v 0.26733568 0.19657066 -0.43477172
v -0.20235375 0.26233247 0.44342631
v -0.19657035 0.26733610 -0.43477172
v 0.26733568 0.19657066 0.44342631
v 0.26246202 0.20222409 -0.43477172
v 0.26655591 0.19748041 0.44342631
v -0.19657035 0.26733610 0.44342631
v -0.19156674 0.27097508 -0.43477172
v 0.20222378 0.26246244 -0.43477172
v 0.26233208 0.20235406 0.44342631
v -0.19156674 0.27097508 0.44342631
v -0.18513353 0.27441913 -0.43477172
v -0.19052704 0.27155992 0.44342631
v 0.19657035 0.26733610 -0.43477172
v 0.19748010 0.26655632 0.44342631
v 0.20235375 0.26233247 0.44342631
v -0.17727071 0.27844802 -0.43477172
v -0.18493858 0.27454910 0.44342631
v -0.17213714 0.28111228 0.44342631
v 0.19169670 0.27091011 -0.43477172
v 0.19579057 0.26792094 0.44342631
v 0.19657035 0.26733610 0.44342631
v -0.15231766 0.29118451 -0.43477172
v -0.13132849 0.30190653 0.44342631
v 0.18480863 0.27461410 -0.43477172
v 0.18493858 0.27454910 0.44342631
v 0.19156674 0.27097508 0.44342631
v -0.13750178 0.29872242 -0.43477172
v -0.11267868 0.31139392 0.44342631
v 0.15231766 0.29118451 -0.43477172
v 0.17213714 0.28111228 0.44342631
v -0.11781225 0.30872965 -0.43477172
v -0.10494582 0.31477299 0.44342631
v -0.10514077 0.31470799 -0.43477172
v -0.11267868 0.31132895 -0.43477172
v 0.13750178 0.29872242 -0.43477172
v 0.11267868 0.31139392 0.44342631
v -0.10338626 0.31522787 0.44342631
v -0.10494582 0.31477299 -0.43477172
v 0.11768229 0.30879465 -0.43477172
v 0.10618048 0.31425312 0.44342631
v 0.11280864 0.31126395 -0.43477172
v 0.11267868 0.31132895 -0.43477172
v 0.10494582 0.31477299 -0.43477172
v -0.09493861 0.31763220 0.44342631
v -0.09519853 0.31756720 -0.43477172
v 0.10494582 0.31477299 0.44342631
v 0.10475088 0.31483796 -0.43477172
v -0.09337904 0.31789213 0.44342631
v -0.09493861 0.31763220 -0.43477172
v 0.09656315 0.31717733 0.44342631
v 0.09493861 0.31763220 -0.43477172
v -0.06342237 0.32270080 0.44342631
v -0.07498915 0.32081631 -0.43477172
v 0.09493861 0.31763220 0.44342631
v 0.07498915 0.32081631 -0.43477172
v 0.06498194 0.32244086 0.44342631
v -0.00493863 0.33192825 0.44342631
v -0.01838989 0.32978383 -0.43477172
v -0.03522021 0.32711956 -0.43477172
v 0.03476533 0.32718456 -0.43477172
v 0.00493863 0.33192825 0.44342631
v -0.00493863 0.33186325 -0.43477172
v 0.01332130 0.33056360 -0.43477172
v 0.00493863 0.33186325 -0.43477172
f 1 2 7
f 1 7 13
f 1 13 19
f 1 19 23
f 1 23 28
f 1 28 35
f 1 35 39
f 1 39 44
f 1 44 48
f 1 48 54
f 1 54 58
f 1 58 63
f 1 63 68
f 1 68 73
f 1 73 77
f 1 77 81
f 1 81 83
f 1 83 91
f 1 91 90
f 1 90 95
f 1 95 99
f 1 99 104
f 1 104 109
f 1 109 114
f 1 114 119
f 1 119 125
f 1 125 129
f 1 129 134
f 1 134 138
f 1 138 144
f 1 144 150
f 1 150 154
f 1 154 159
f 1 159 161
f 1 161 165
f 1 165 171
f 1 171 175
f 1 175 179
f 1 179 183
f 1 183 185
f 1 185 189
f 1 189 195
f 1 195 194
f 1 194 201
f 1 201 200
f 1 200 206
f 1 206 205
f 1 205 210
f 1 210 216
f 1 216 220
f 1 220 226
f 1 226 230
f 1 230 234
f 1 234 236
f 1 236 241
f 1 241 237
f 1 237 232
f 1 232 228
f 1 228 224
f 1 224 217
f 1 217 212
f 1 212 208
f 1 208 203
f 1 203 198
f 1 198 197
f 1 197 192
f 1 192 190
f 1 190 186
f 1 186 181
f 1 181 177
f 1 177 173
f 1 173 169
f 1 169 162
f 1 162 156
f 1 156 152
f 1 152 147
f 1 147 142
f 1 142 136
f 1 136 132
f 1 132 127
f 1 127 121
f 1 121 116
f 1 116 112
f 1 112 108
f 1 108 102
f 1 102 100
f 1 100 96
f 1 96 92
f 1 92 85
f 1 85 80
f 1 80 76
f 1 76 72
f 1 72 71
f 1 71 67
f 1 67 66
f 1 66 62
f 1 62 61
f 1 61 57
f 1 57 53
f 1 53 51
f 1 51 46
f 1 46 42
f 1 42 37
f 1 37 31
f 1 31 27
f 1 27 25
f 1 25 21
f 1 21 17
f 1 17 10
f 1 10 3
f 1 3 4
f 1 4 5
f 1 5 6
f 1 6 8
f 1 8 2
f 2 8 9
f 2 9 7
f 3 10 11
f 3 11 12
f 3 12 4
f 4 12 11
f 4 11 18
f 4 18 22
f 4 22 26
f 4 26 30
f 4 30 34
f 4 34 33
f 4 33 32
f 4 32 38
f 4 38 43
f 4 43 47
f 4 47 52
f 4 52 56
f 4 56 60
f 4 60 65
f 4 65 70
f 4 70 75
f 4 75 79
f 4 79 84
f 4 84 88
f 4 88 87
f 4 87 86
f 4 86 93
f 4 93 97
f 4 97 101
f 4 101 107
f 4 107 111
f 4 111 113
f 4 113 118
f 4 118 117
f 4 117 124
f 4 124 123
f 4 123 122
f 4 122 128
f 4 128 133
f 4 133 137
f 4 137 143
f 4 143 149
f 4 149 148
f 4 148 153
f 4 153 158
f 4 158 157
f 4 157 163
f 4 163 170
f 4 170 174
f 4 174 178
f 4 178 182
f 4 182 187
f 4 187 191
f 4 191 196
f 4 196 202
f 4 202 207
f 4 207 211
f 4 211 214
f 4 214 213
f 4 213 218
f 4 218 225
f 4 225 229
f 4 229 233
f 4 233 239
f 4 239 238
f 4 238 242
f 4 242 244
f 4 244 243
f 4 243 240
f 4 240 235
f 4 235 231
f 4 231 227
f 4 227 223
f 4 223 222
f 4 222 221
f 4 221 219
f 4 219 215
f 4 215 209
f 4 209 204
f 4 204 199
f 4 199 193
f 4 193 188
f 4 188 184
f 4 184 180
f 4 180 176
f 4 176 172
f 4 172 168
f 4 168 167
f 4 167 166
f 4 166 164
f 4 164 160
f 4 160 155
f 4 155 151
f 4 151 146
f 4 146 145
f 4 145 141
f 4 141 140
f 4 140 139
f 4 139 135
f 4 135 131
f 4 131 130
f 4 130 126
f 4 126 120
f 4 120 115
f 4 115 110
f 4 110 106
f 4 106 105
f 4 105 103
f 4 103 98
f 4 98 94
f 4 94 89
f 4 89 82
f 4 82 78
f 4 78 74
f 4 74 69
f 4 69 64
f 4 64 59
f 4 59 55
f 4 55 50
f 4 50 49
f 4 49 45
f 4 45 41
f 4 41 40
f 4 40 36
f 4 36 29
f 4 29 24
f 4 24 20
f 4 20 16
f 4 16 15
f 4 15 14
f 4 14 9
f 4 9 8
f 4 8 6
f 4 6 5
f 7 9 14
f 7 14 15
f 7 15 16
f 7 16 13
f 10 17 11
f 11 17 18
f 13 16 19
f 16 20 19
f 17 21 18
f 18 21 22
f 19 20 23
f 20 24 23
f 21 25 22
f 22 25 27
f 22 27 26
f 23 24 28
f 24 29 28
f 26 27 30
f 27 31 32
f 27 32 33
f 27 33 34
f 27 34 30
f 28 29 35
f 29 36 35
f 31 37 38
f 31 38 32
f 35 36 40
f 35 40 41
f 35 41 39
f 37 42 43
f 37 43 38
f 39 41 45
f 39 45 44
f 42 46 43
f 43 46 47
f 44 45 49
f 44 49 50
f 44 50 48
f 46 51 47
f 47 51 53
f 47 53 52
f 48 50 54
f 50 55 54
f 52 53 57
f 52 57 61
f 52 61 56
f 54 55 58
f 55 59 63
f 55 63 58
f 56 61 62
f 56 62 60
f 59 64 68
f 59 68 63
f 60 62 66
f 60 66 67
f 60 67 65
f 64 69 73
f 64 73 68
f 65 67 71
f 65 71 72
f 65 72 70
f 69 74 77
f 69 77 73
f 70 72 76
f 70 76 75
f 74 78 81
f 74 81 77
f 75 76 80
f 75 80 79
f 78 82 83
f 78 83 81
f 79 80 84
f 80 85 86
f 80 86 87
f 80 87 88
f 80 88 84
f 82 89 90
f 82 90 91
f 82 91 83
f 85 92 86
f 86 92 93
f 89 94 90
f 90 94 95
f 92 96 93
f 93 96 97
f 94 98 95
f 95 98 99
f 96 100 97
f 97 100 102
f 97 102 101
f 98 103 99
f 99 103 105
f 99 105 106
f 99 106 104
f 101 102 107
f 102 108 107
f 104 106 110
f 104 110 109
f 107 108 111
f 108 112 118
f 108 118 113
f 108 113 111
f 109 110 115
f 109 115 114
f 112 116 117
f 112 117 118
f 114 115 120
f 114 120 119
f 116 121 122
f 116 122 123
f 116 123 124
f 116 124 117
f 119 120 125
f 120 126 125
f 121 127 122
f 122 127 128
f 125 126 130
f 125 130 131
f 125 131 129
f 127 132 128
f 128 132 133
f 129 131 135
f 129 135 139
f 129 139 134
f 132 136 133
f 133 136 137
f 134 139 140
f 134 140 141
f 134 141 138
f 136 142 137
f 137 142 143
f 138 141 145
f 138 145 146
f 138 146 144
f 142 147 148
f 142 148 149
f 142 149 143
f 144 146 150
f 146 151 150
f 147 152 153
f 147 153 148
f 150 151 154
f 151 155 154
f 152 156 157
f 152 157 158
f 152 158 153
f 154 155 159
f 155 160 161
f 155 161 159
f 156 162 157
f 157 162 163
f 160 164 161
f 161 164 166
f 161 166 167
f 161 167 168
f 161 168 165
f 162 169 163
f 163 169 173
f 163 173 170
f 165 168 172
f 165 172 171
f 170 173 177
f 170 177 174
f 171 172 176
f 171 176 175
f 174 177 181
f 174 181 178
f 175 176 179
f 176 180 179
f 178 181 186
f 178 186 182
f 179 180 183
f 180 184 185
f 180 185 183
f 182 186 190
f 182 190 187
f 184 188 195
f 184 195 189
f 184 189 185
f 187 190 192
f 187 192 191
f 188 193 194
f 188 194 195
f 191 192 197
f 191 197 198
f 191 198 196
f 193 199 200
f 193 200 201
f 193 201 194
f 196 198 202
f 198 203 202
f 199 204 205
f 199 205 206
f 199 206 200
f 202 203 207
f 203 208 207
f 204 209 210
f 204 210 205
f 207 208 211
f 208 212 213
f 208 213 214
f 208 214 211
f 209 215 216
f 209 216 210
f 212 217 218
f 212 218 213
f 215 219 216
f 216 219 221
f 216 221 222
f 216 222 223
f 216 223 220
f 217 224 225
f 217 225 218
f 220 223 226
f 223 227 226
f 224 228 229
f 224 229 225
f 226 227 230
f 227 231 230
f 228 232 229
f 229 232 233
f 230 231 234
f 231 235 236
f 231 236 234
f 232 237 238
f 232 238 239
f 232 239 233
f 235 240 236
f 236 240 241
f 237 242 238
f 237 241 244
f 237 244 242
f 240 243 241
f 241 243 244

