# https://github.com/mikedh/trimesh
v 0.14595515 -0.29722357 -0.45459673
v 0.15483491 -0.29274344 -0.45459673
v 0.15234266 -0.29117244 -0.43477368
v 0.14595515 -0.29437256 -0.43477368
v 0.14595515 -0.25672758 -0.45459673
v 0.17475438 -0.28261942 -0.45459673
v 0.18516642 -0.27441549 -0.43477368
v 0.31583381 0.10133621 -0.43477175
v 0.14595515 0.10133621 -0.43477175
v 0.14595515 0.29718328 -0.45451522
v 0.28197622 0.10127803 -0.45459673
v 0.18546180 -0.27709198 -0.45459673
v 0.19164626 -0.27092445 -0.43477368
v 0.31766143 0.10441996 -0.45451522
v 0.31485537 0.10476907 -0.43477175
v 0.19661228 -0.26731706 -0.43477368
v 0.20237213 -0.26231325 -0.43477368
v 0.23739275 -0.22734471 -0.43477368
v 0.26235211 -0.20232563 -0.43477368
v 0.26735505 -0.19656542 -0.43477368
v 0.27099189 -0.19156159 -0.43477368
v 0.27451795 -0.18492864 -0.43477368
v 0.27857938 -0.17701562 -0.43477368
v 0.28869605 -0.15717492 -0.43477368
v 0.31134775 -0.11266422 -0.43477368
v 0.31470767 -0.10515849 -0.43477368
v 0.31478152 -0.10492575 -0.43477368
v 0.31758761 -0.09520904 -0.43477368
v 0.31764299 -0.09497631 -0.43477368
v 0.32236901 -0.06524432 -0.43477368
v 0.33054727 -0.01351883 -0.43477368
v 0.33183953 -0.00519853 -0.43477368
v 0.33183953 0.00492547 -0.43477368
v 0.33056572 0.01330395 -0.43477368
v 0.32081828 0.07497890 -0.43477368
v 0.31764299 0.09493598 -0.43477368
v 0.14595515 0.29334313 -0.43477175
v 0.14595515 0.29439044 -0.43480280
v 0.15481645 0.29276127 -0.45451522
v 0.31834450 0.10127803 -0.45459673
v 0.19437850 -0.27220452 -0.45459673
v 0.31743991 0.10517635 -0.45451522
v 0.31952602 0.09714697 -0.45459673
v 0.31478152 0.10500180 -0.43477175
v 0.20427363 -0.26423329 -0.45459673
v 0.22432233 -0.24427623 -0.45459673
v 0.25426617 -0.21425332 -0.45459673
v 0.26423514 -0.20418751 -0.45459673
v 0.27222878 -0.19429624 -0.45459673
v 0.27726865 -0.18510319 -0.45459673
v 0.28264081 -0.17468826 -0.45459673
v 0.31302771 -0.11499158 -0.45459673
v 0.31745836 -0.10515849 -0.45459673
v 0.32002446 -0.09497631 -0.45459673
v 0.32192594 -0.08421228 -0.45459673
v 0.32349515 -0.07519378 -0.45459673
v 0.33455330 -0.00496579 -0.45459673
v 0.33455330 0.00492547 -0.45459673
v 0.32351360 0.07497890 -0.45459673
v 0.32196286 0.08393922 -0.45459673
v 0.32002446 0.09493598 -0.45459673
v 0.15217651 0.29124850 -0.43477175
v 0.17499438 0.28246272 -0.45451522
v 0.18483412 0.27460790 -0.43477175
v 0.18516642 0.27722621 -0.45451522
v 0.19436003 0.27222234 -0.45451522
v 0.19485848 0.27187324 -0.45451522
v 0.19862454 0.26890588 -0.45451522
v 0.20353518 0.26483303 -0.45451522
v 0.20423670 0.26419300 -0.45451522
v 0.21488872 0.25360352 -0.45451522
v 0.22369465 0.24481775 -0.45451522
v 0.24366952 0.22486065 -0.45451522
v 0.25485691 0.21363117 -0.45451522
v 0.26423514 0.20420536 -0.45451522
v 0.26892424 0.19856153 -0.45451522
v 0.27187800 0.19483776 -0.45451522
v 0.27222878 0.19431411 -0.45451522
v 0.27257955 0.19367409 -0.45451522
v 0.27723172 0.18512104 -0.45451522
v 0.28249311 0.17493886 -0.45451522
v 0.30289260 0.13485014 -0.45451522
v 0.31291693 0.11512580 -0.45451522
v 0.31136620 0.11268207 -0.43477175
v 0.19162780 0.27094233 -0.43477175
v 0.19661228 0.26733494 -0.43477175
v 0.20237213 0.26233113 -0.43477175
v 0.25734916 0.20734730 -0.43477175
v 0.26233366 0.20234348 -0.43477175
v 0.26733661 0.19658327 -0.43477175
v 0.27106574 0.19146310 -0.43477175
v 0.27462870 0.18483013 -0.43477175
v 0.28109008 0.17214604 -0.43477175
f 1 2 3
f 1 3 4
f 1 4 9
f 1 9 37
f 1 37 38
f 1 38 10
f 1 10 5
f 1 5 11
f 1 11 40
f 1 40 43
f 1 43 61
f 1 61 60
f 1 60 59
f 1 59 58
f 1 58 57
f 1 57 56
f 1 56 55
f 1 55 54
f 1 54 53
f 1 53 52
f 1 52 51
f 1 51 50
f 1 50 49
f 1 49 48
f 1 48 47
f 1 47 46
f 1 46 45
f 1 45 41
f 1 41 12
f 1 12 6
f 1 6 2
f 2 6 3
f 3 6 7
f 3 7 8
f 3 8 4
f 4 8 9
f 5 10 11
f 6 12 7
f 7 12 13
f 7 13 8
f 8 14 15
f 8 15 44
f 8 44 84
f 8 84 93
f 8 93 92
f 8 92 91
f 8 91 90
f 8 90 89
f 8 89 88
f 8 88 87
f 8 87 86
f 8 86 85
f 8 85 64
f 8 64 62
f 8 62 37
f 8 37 9
f 8 13 16
f 8 16 17
f 8 17 18
f 8 18 19
f 8 19 20
f 8 20 21
f 8 21 22
f 8 22 23
f 8 23 24
f 8 24 25
f 8 25 26
f 8 26 27
f 8 27 28
f 8 28 29
f 8 29 30
f 8 30 31
f 8 31 32
f 8 32 33
f 8 33 34
f 8 34 35
f 8 35 36
f 8 36 14
f 10 38 39
f 10 39 40
f 10 40 11
f 12 41 13
f 13 41 16
f 14 40 42
f 14 42 15
f 14 36 43
f 14 43 40
f 15 42 44
f 16 45 17
f 16 41 45
f 17 45 46
f 17 46 18
f 18 46 19
f 19 46 47
f 19 47 48
f 19 48 20
f 20 48 49
f 20 49 21
f 21 49 50
f 21 50 22
f 22 51 23
f 22 50 51
f 23 51 24
f 24 51 52
f 24 52 25
f 25 52 53
f 25 53 26
f 26 53 27
f 27 53 28
f 28 54 29
f 28 53 54
f 29 54 55
f 29 55 56
f 29 56 30
f 30 56 31
f 31 57 32
f 31 56 57
f 32 57 58
f 32 58 33
f 33 58 34
f 34 58 59
f 34 59 35
f 35 59 36
f 36 59 60
f 36 60 61
f 36 61 43
f 37 62 38
f 38 62 39
f 39 63 40
f 39 62 64
f 39 64 63
f 40 63 65
f 40 65 66
f 40 66 67
f 40 67 68
f 40 68 69
f 40 69 70
f 40 70 71
f 40 71 72
f 40 72 73
f 40 73 74
f 40 74 75
f 40 75 76
f 40 76 77
f 40 77 78
f 40 78 79
f 40 79 80
f 40 80 81
f 40 81 82
f 40 82 83
f 40 83 42
f 42 84 44
f 42 83 84
f 63 64 65
f 64 85 65
f 65 85 66
f 66 85 67
f 67 85 86
f 67 86 68
f 68 86 69
f 69 86 87
f 69 87 70
f 70 87 71
f 71 87 72
f 72 87 73
f 73 87 88
f 73 88 74
f 74 88 89
f 74 89 75
f 75 89 90
f 75 90 76
f 76 90 77
f 77 90 91
f 77 91 78
f 78 91 79
f 79 91 80
f 80 91 92
f 80 92 81
f 81 92 93
f 81 93 84
f 81 84 82
f 82 84 83

