# https://github.com/mikedh/trimesh
v -0.00499553 0.34187943 0.49499622
v -0.00499553 0.34174702 0.47499961
v -0.07988518 0.32996106 0.47062874
v -0.08001903 0.32996106 0.50001663
v -0.01235733 0.34015790 0.50054479
v -0.00499553 0.34082001 0.50129753
v 0.00490945 0.34082001 0.50129753
v 0.00490945 0.34174702 0.49499622
v 0.00490945 0.34174702 0.47499961
v -0.00499553 0.34082001 0.46783626
v -0.01229041 0.34015790 0.46909288
v -0.07988518 0.32989484 0.47001562
v -0.09487650 0.32751116 0.47499961
v -0.07493269 0.33035833 0.50058728
v -0.09487650 0.32751116 0.48499185
v -0.09487650 0.32731253 0.49499622
v -0.10217138 0.32572341 0.49499622
v -0.10484840 0.32506129 0.49498409
v -0.11241098 0.32115471 0.50138253
v -0.10484840 0.32241276 0.50241452
v -0.06489386 0.33108670 0.50157678
v -0.05492196 0.33181503 0.50226277
v -0.04495006 0.33260959 0.50265127
v -0.00499553 0.33486083 0.50404751
v 0.00490945 0.33486083 0.50404751
v 0.04493091 0.33260959 0.50265127
v 0.05490281 0.33181503 0.50226277
v 0.06494164 0.33108670 0.50157678
v 0.07484662 0.33035833 0.50058728
v 0.07999988 0.32996106 0.50001663
v 0.01227126 0.34015790 0.50054479
v 0.01340899 0.34048897 0.49499622
v 0.00490945 0.34082001 0.46783626
v 0.07926370 0.33002728 0.47062874
v 0.07986603 0.32989484 0.47001562
v 0.01033042 0.34062138 0.47062874
v -0.00499553 0.33181503 0.44343844
v -0.06322072 0.32267761 0.44343844
v -0.09487650 0.31751299 0.44343844
v -0.09487650 0.32532614 0.46500129
v -0.10049824 0.32532614 0.47062874
v -0.10484840 0.32506129 0.47498140
v -0.10484840 0.32525992 0.48499185
v -0.10217138 0.32578963 0.49236158
v -0.11354872 0.32175061 0.49498409
v -0.17204161 0.29096147 0.50125504
v -0.18489131 0.28255242 0.50226277
v -0.12485912 0.31281185 0.50237811
v -0.10484840 0.31493068 0.50517666
v -0.06489386 0.32486263 0.50432676
v -0.05492196 0.32486263 0.50501883
v -0.04495006 0.32486263 0.50538307
v -0.03484431 0.32486263 0.50544375
v 0.03495901 0.32486263 0.50544375
v 0.04493091 0.32486263 0.50538307
v 0.05490281 0.32486263 0.50501883
v 0.06494164 0.32486263 0.50432676
v 0.10482924 0.32241276 0.50242060
v 0.07999988 0.32996106 0.49499622
v 0.11239183 0.32115471 0.50138253
v 0.10482924 0.32506129 0.49499622
v 0.09485734 0.32731253 0.49499622
v 0.09485734 0.32751116 0.48499185
v 0.01213741 0.34015790 0.46909288
v 0.00624796 0.33161640 0.44343844
v 0.00490945 0.33181503 0.44343844
v 0.09485734 0.32751116 0.47499961
v 0.10482924 0.32525992 0.47499961
v 0.09485734 0.32532614 0.46500129
v 0.09485734 0.31751299 0.44343844
v 0.05644210 0.32373703 0.44343844
v -0.10217138 0.31546038 0.44342631
v -0.10217138 0.32327354 0.46463704
v -0.11241098 0.32115471 0.46749631
v -0.11354872 0.32175061 0.47498140
v -0.12485912 0.31605628 0.47498140
v -0.19285545 0.28149301 0.49498409
v -0.19191849 0.28089708 0.50118828
v -0.19499707 0.27540138 0.50290018
v -0.18489131 0.27487168 0.50501883
v -0.14480293 0.29493427 0.50510383
v -0.09487650 0.31493068 0.50537699
v -0.32489949 0.03498125 0.50544375
v 0.09485734 0.31493068 0.50537699
v -0.32489949 -0.03487368 0.50544375
v 0.32494730 -0.03493989 0.50543767
v 0.32494730 0.03498125 0.50543767
v 0.10482924 0.31493068 0.50517666
v 0.12490690 0.31281185 0.50238419
v 0.14592151 0.30254880 0.50221419
v 0.15227944 0.30102590 0.50130361
v 0.11366341 0.32175061 0.49499622
v 0.10482924 0.32525992 0.48499185
v 0.14592151 0.29440457 0.44342631
v 0.11359649 0.32175061 0.47499961
v 0.11292724 0.32148576 0.47062874
v 0.11239183 0.32115471 0.46749631
v 0.10503002 0.32241276 0.46450350
v 0.10482924 0.31459960 0.44343844
v -0.10484840 0.31459960 0.44342631
v -0.10504918 0.32241276 0.46451563
v -0.11261176 0.31128892 0.44342631
v -0.19191849 0.28089708 0.46793339
v -0.19285545 0.28136057 0.47498140
v -0.19780794 0.27877825 0.47498140
v -0.19787487 0.27877825 0.49498409
v -0.20276043 0.27228937 0.50182569
v -0.20195733 0.26897871 0.50316727
v -0.20563823 0.26553562 0.50328869
v -0.26567042 0.20548025 0.50328869
v -0.27490616 0.18482172 0.50501883
v -0.31486064 0.09497041 0.50537091
v -0.32489949 0.04497945 0.50538307
v -0.33493835 0.00498667 0.50404751
v 0.31497538 0.09516905 0.50537091
v 0.27495390 0.18488793 0.50502491
v 0.18493909 0.27487168 0.50502491
v 0.14491764 0.29493427 0.50510383
v -0.33493835 -0.00487910 0.50404751
v -0.32489949 -0.04493808 0.50538307
v -0.31486064 -0.09486283 0.50537091
v 0.31497538 -0.09499526 0.50537699
v 0.32494730 -0.04493808 0.50539517
v 0.33498609 -0.00501152 0.50404751
v 0.33498609 0.00498667 0.50404751
v 0.32494730 0.04497945 0.50539517
v 0.18493909 0.28255242 0.50226277
v 0.19196627 0.28096330 0.50118828
v 0.15328331 0.30168802 0.49499622
v 0.15328331 0.30168802 0.48499185
v 0.15836966 0.29910570 0.47499961
v 0.11259261 0.31122273 0.44343844
v 0.13246949 0.30122453 0.44343844
v 0.19196627 0.28096330 0.46793339
v 0.16606610 0.28407532 0.44342631
v -0.18489131 0.27447441 0.44342631
v -0.19145001 0.27096510 0.44342631
v -0.20262659 0.27222314 0.46501949
v -0.20195733 0.27553380 0.47498140
v -0.20195733 0.27553380 0.48499185
v -0.20423280 0.27367985 0.49498409
v -0.20918527 0.26904491 0.49498409
v -0.21273233 0.26268846 0.50182569
v -0.26279265 0.21269748 0.50182569
v -0.27242988 0.20269929 0.50182569
v -0.27537459 0.19508477 0.50290018
v -0.28260255 0.18482172 0.50226277
v -0.31285292 0.12489878 0.50238419
v -0.28494495 0.16489156 0.50506133
v -0.30488878 0.12489878 0.50514024
v -0.31486064 0.10476997 0.50517058
v -0.32489949 0.05497764 0.50501883
v -0.33259594 0.04497945 0.50264519
v -0.34082776 0.00498667 0.50129753
v 0.31490844 0.10490239 0.50517666
v 0.30493653 0.12489878 0.50514024
v 0.31296760 0.12489878 0.50238419
v 0.29275608 0.16489156 0.50230527
v 0.28258342 0.18488793 0.50226277
v 0.27548933 0.19508477 0.50290620
v 0.26565129 0.20561267 0.50329477
v 0.20568600 0.26553562 0.50329477
v 0.19517869 0.27533516 0.50290620
v -0.34082776 -0.00487910 0.50129753
v -0.33259594 -0.04493808 0.50264519
v -0.32489949 -0.05493627 0.50501883
v -0.31486064 -0.10492724 0.50517058
v -0.29491687 -0.14492002 0.50510383
v 0.29496461 -0.14498623 0.50510383
v 0.31497538 -0.10492724 0.50517058
v 0.32494730 -0.05493627 0.50502491
v 0.33264369 -0.04493808 0.50265127
v 0.34094244 -0.00501152 0.50129753
v 0.34094244 0.00498667 0.50129753
v 0.33264369 0.04497945 0.50265127
v 0.32494730 0.05497764 0.50502491
v 0.19297016 0.28149301 0.49499622
v 0.20280820 0.27248800 0.50182569
v 0.19798957 0.27877825 0.49499622
v 0.19297016 0.28149301 0.47499961
v 0.19792265 0.27884448 0.47499961
v 0.20260742 0.27228937 0.46501949
v 0.19156471 0.27083266 0.44342631
v 0.18493909 0.27434197 0.44342631
v -0.19640251 0.26732337 0.44342631
v -0.20229195 0.26215875 0.44342631
v -0.20309506 0.26143038 0.44342631
v -0.20764600 0.26758823 0.46501949
v -0.20423280 0.27367985 0.47498140
v -0.20925221 0.26917735 0.48499185
v -0.25924557 0.21918638 0.49498409
v -0.26921749 0.20918818 0.49498409
v -0.27376842 0.20415598 0.49498409
v -0.27872092 0.19793195 0.49498409
v -0.28092945 0.19190654 0.50118828
v -0.30107403 0.15204619 0.50130361
v -0.32121861 0.11225206 0.50138253
v -0.32249016 0.10476997 0.50242060
v -0.32489949 0.06484340 0.50432676
v -0.33185977 0.05497764 0.50226277
v -0.34183162 0.00498667 0.49498409
v -0.33112359 0.06484340 0.50157678
v -0.34029239 0.01227012 0.50054479
v 0.32494730 0.06497583 0.50433284
v 0.32247102 0.10490239 0.50242060
v 0.32119942 0.11245070 0.50138855
v 0.29101604 0.17204258 0.50125504
v 0.28097719 0.19190654 0.50118828
v 0.27241075 0.20269929 0.50182569
v 0.26277345 0.21269748 0.50182569
v 0.25280154 0.22276188 0.50182569
v 0.21284702 0.26275465 0.50182569
v -0.34183162 -0.00487910 0.49498409
v -0.34029239 -0.01229497 0.50054479
v -0.33112359 -0.06486826 0.50157678
v -0.33185977 -0.05493627 0.50226277
v -0.32489949 -0.06486826 0.50432676
v -0.32249016 -0.10492724 0.50242060
v -0.31285292 -0.12492363 0.50238419
v -0.30281407 -0.14492002 0.50234169
v -0.29498380 -0.14591321 0.50490350
v 0.29402769 -0.14591321 0.50507951
v 0.29503155 -0.14591321 0.50490350
v 0.30219257 -0.14591321 0.50240844
v 0.30286187 -0.14498623 0.50234771
v 0.31296760 -0.12498984 0.50239021
v 0.32253796 -0.10492724 0.50242662
v 0.32494730 -0.06493447 0.50433284
v 0.33197445 -0.05493627 0.50226879
v 0.34181249 -0.00501152 0.49499622
v 0.34187943 0.00498667 0.49499622
v 0.33117133 -0.06493447 0.50157678
v 0.33036822 -0.07493266 0.50059938
v 0.34034014 -0.01236119 0.50056297
v 0.34034014 0.01233634 0.50056297
v 0.33036822 0.07497402 0.50059938
v 0.33117133 0.06497583 0.50157678
v 0.33197445 0.05497764 0.50226879
v 0.19792265 0.27884448 0.48499185
v 0.20428057 0.27367985 0.49499622
v 0.21431939 0.26427758 0.49499622
v 0.20923305 0.26917735 0.49499622
v 0.20428057 0.27374604 0.48499185
v 0.20428057 0.27374604 0.47499961
v 0.20923305 0.26917735 0.47499961
v 0.20769377 0.26758823 0.46501949
v 0.20227280 0.26215875 0.44342631
v 0.19745415 0.26639637 0.44342631
v 0.19651720 0.26712474 0.44342631
v -0.24733283 0.21726619 0.44342631
v -0.21775174 0.25759003 0.46501949
v -0.20925221 0.26904491 0.47498140
v -0.21427162 0.26421136 0.47498140
v -0.26921749 0.20918818 0.47498140
v -0.27376842 0.20415598 0.47498140
v -0.27878779 0.19786572 0.48499185
v -0.28146482 0.19283353 0.49498409
v -0.32182091 0.11364254 0.49498409
v -0.32516718 0.10476997 0.49498409
v -0.32991892 0.08007244 0.50001663
v -0.34176475 0.00498667 0.47498140
v -0.34049314 0.01359439 0.49498409
v 0.32347488 0.09516905 0.50273627
v 0.32996666 0.08000623 0.50001663
v 0.32521498 0.10490239 0.49499622
v 0.32186872 0.11364254 0.49499622
v 0.28151262 0.19289973 0.49499622
v 0.27876866 0.19793195 0.49499622
v 0.27374923 0.20415598 0.49499622
v 0.26926523 0.20918818 0.49499622
v -0.34049314 -0.01348681 0.49498409
v -0.32991892 -0.07996486 0.50001663
v -0.34176475 -0.00487910 0.47498140
v -0.34049314 -0.01342060 0.48498577
v -0.32121861 -0.11247554 0.50138253
v -0.30254638 -0.14591321 0.50221419
v -0.18542673 -0.27708155 0.45460838
v -0.15470791 -0.29277408 0.45460838
v -0.11488722 -0.31296912 0.45460838
v -0.10511610 -0.31740540 0.45460838
v -0.09487650 -0.31998771 0.45460838
v -0.08396763 -0.32190791 0.45460838
v -0.07513347 -0.32343081 0.45460838
v -0.00492860 -0.33455461 0.45460838
v 0.10503002 -0.31740540 0.45454767
v 0.00484252 -0.33455461 0.45460838
v 0.07491354 -0.32349703 0.45460838
v 0.09492427 -0.31998771 0.45460838
v 0.09706589 -0.31952423 0.45460838
v 0.10436077 -0.31760404 0.45454767
v 0.11493500 -0.31296912 0.45454767
v 0.17463256 -0.28257725 0.45454767
v 0.18507294 -0.27721399 0.45454767
v 0.30266106 -0.14591321 0.50220811
v 0.19430867 -0.27218178 0.45454767
v 0.32126635 -0.11247554 0.50140071
v 0.32996666 -0.08003107 0.50001663
v 0.34054095 -0.01355303 0.49499622
v 0.34181249 -0.00501152 0.47499961
v 0.34181249 0.00498667 0.47499961
v 0.34054095 0.01339575 0.47499961
v 0.34054095 0.01352817 0.49499622
v 0.22429129 0.25427938 0.48499185
v 0.26926523 0.20918818 0.47499961
v 0.21773259 0.25765625 0.46501949
v 0.20816225 0.25646442 0.44342631
v -0.25730473 0.20720178 0.44342631
v -0.26265877 0.21263127 0.46501949
v -0.27229607 0.20256686 0.46501949
v -0.26761127 0.20753285 0.46501949
v -0.27872092 0.19786572 0.47498140
v -0.28139794 0.19283353 0.47498140
v -0.28554732 0.18482172 0.47498140
v -0.32141936 0.11450330 0.49316290
v -0.32182091 0.11357632 0.47498140
v -0.32523412 0.10476997 0.47498140
v -0.32523412 0.10476997 0.48498577
v -0.32757652 0.09497041 0.48498577
v -0.32730883 0.09497041 0.49498409
v -0.33969003 0.01842795 0.48498577
v -0.32757652 0.09497041 0.47498140
v -0.32985198 0.07987380 0.47001562
v -0.34022546 0.01227012 0.46909288
v -0.34082776 0.00498667 0.46783626
v 0.32762432 0.09497041 0.48499790
v 0.32728964 0.09516905 0.49499622
v 0.32528192 0.10490239 0.48499185
v 0.32528192 0.10490239 0.47499961
v 0.32180178 0.11364254 0.47499961
v 0.31932551 0.11860853 0.47499961
v 0.28144568 0.19289973 0.47499961
v 0.27876866 0.19793195 0.47499961
v 0.27381617 0.20422219 0.48499185
v -0.32757652 -0.09486283 0.48498577
v -0.32757652 -0.09486283 0.47498140
v -0.32730883 -0.09486283 0.49498409
v -0.32516718 -0.10492724 0.49498409
v -0.34082776 -0.00487910 0.46783626
v -0.34029239 -0.01222876 0.46909288
v -0.32991892 -0.07989866 0.47001562
v -0.34042621 -0.01342060 0.47498140
v -0.32182091 -0.11366738 0.49498409
v -0.31171519 -0.13346513 0.49498409
v -0.31104594 -0.13233951 0.50134611
v -0.30529034 -0.14591321 0.49498409
v -0.26413113 -0.20424704 0.45460838
v -0.24418733 -0.22430964 0.45460838
v -0.21420470 -0.25423801 0.45460838
v -0.20416586 -0.26423621 0.45460838
v -0.19419396 -0.27224800 0.45460838
v -0.19151694 -0.27098995 0.44342631
v -0.18489131 -0.27449924 0.44342631
v -0.13242172 -0.30124938 0.44342631
v -0.11261176 -0.31131378 0.44342631
v -0.10611998 -0.31422716 0.44342631
v -0.10484840 -0.31475687 0.44342631
v -0.09487650 -0.31760404 0.44342631
v -0.06489386 -0.32243761 0.44342631
v -0.00492860 -0.33190608 0.44342631
v 0.10489617 -0.31475687 0.44343844
v 0.11265953 -0.31131378 0.44343844
v 0.00484252 -0.33190608 0.44342631
v 0.06487472 -0.32243761 0.44342631
v 0.09331806 -0.31786889 0.44342631
v 0.09492427 -0.31760404 0.44342631
v 0.10121527 -0.31581628 0.44342631
v 0.12490690 -0.30508974 0.44343844
v 0.18366751 -0.27516139 0.44343844
v 0.19149779 -0.27098995 0.44343844
v 0.30520427 -0.14591321 0.49582183
v 0.31116062 -0.13233951 0.50135213
v 0.19477715 -0.27185073 0.45454767
v 0.19852497 -0.26893735 0.45454767
v 0.20341054 -0.26483211 0.45454767
v 0.20474905 -0.26364028 0.45454767
v 0.25480932 -0.21371552 0.45454767
v 0.32186872 -0.11373360 0.49499622
v 0.32521498 -0.10492724 0.49499622
v 0.32735658 -0.09499526 0.49499622
v 0.32762432 -0.09499526 0.48499790
v 0.34054095 -0.01342060 0.47499961
v 0.32762432 -0.09499526 0.47499961
v 0.34087557 -0.00501152 0.46782413
v 0.34034014 -0.01222876 0.46907467
v 0.34087557 0.00498667 0.46782413
v 0.34034014 0.01227012 0.46907467
v 0.32996666 0.07994001 0.47000349
v 0.33237600 0.06497583 0.47499961
v 0.32762432 0.09497041 0.47499961
v 0.27381617 0.20422219 0.47499961
v 0.27234381 0.20256686 0.46501949
v 0.26772594 0.20753285 0.46501949
v 0.26270652 0.21263127 0.46501949
v 0.26230496 0.20216958 0.44342631
v -0.26225722 0.20216958 0.44342631
v -0.26306033 0.20130882 0.44342631
v -0.26727664 0.19647525 0.44342631
v -0.27095753 0.19137684 0.44342631
v -0.28092945 0.19184032 0.46793339
v -0.32135242 0.11450330 0.47498140
v -0.32121861 0.11225206 0.46750239
v -0.32249016 0.10503482 0.46451563
v -0.32530105 0.09497041 0.46501949
v -0.31753767 0.09497041 0.44343844
v -0.32242328 0.06484340 0.44343844
v -0.33179283 0.00492046 0.44343844
v 0.32253796 0.10510103 0.46450350
v 0.32119942 0.11238448 0.46749631
v 0.32541573 0.09497041 0.46500736
v 0.28097719 0.19190654 0.46793339
v -0.32523412 -0.10492724 0.48498577
v -0.32530105 -0.09486283 0.46501949
v -0.32523412 -0.10492724 0.47498140
v -0.33179283 -0.00487910 0.44343844
v -0.32208860 -0.06645737 0.44343844
v -0.31753767 -0.09486283 0.44343844
v -0.30542415 -0.14591321 0.48498577
v -0.32182091 -0.11366738 0.47498140
v -0.27216220 -0.19431506 0.45460838
v -0.26654047 -0.19749330 0.44342631
v -0.26219028 -0.20232686 0.44342631
v -0.25643468 -0.20815362 0.44342631
v -0.20804754 -0.25655547 0.44342631
v -0.20222503 -0.26231602 0.44342631
v -0.19646943 -0.26728201 0.44342631
v 0.29442924 -0.14591321 0.44342631
v 0.20140277 -0.26311058 0.44343844
v 0.19651720 -0.26728201 0.44343844
v 0.30540502 -0.14591321 0.49499622
v 0.26411200 -0.20424704 0.45454767
v 0.31176293 -0.13353135 0.49499622
v 0.20220587 -0.26231602 0.44343844
v 0.23305854 -0.23159309 0.44343844
v 0.26150191 -0.20312142 0.44343844
v 0.32186872 -0.11373360 0.47499961
v 0.32528192 -0.10492724 0.48499790
v 0.30547196 -0.14591321 0.48613310
v 0.32996666 -0.07996486 0.47000349
v 0.32528192 -0.10492724 0.47499961
v 0.32541573 -0.09499526 0.46500736
v 0.33184057 -0.00487910 0.44342631
v 0.32240409 -0.06486826 0.44342631
v 0.33184057 0.00492046 0.44342631
v 0.33170676 0.00631094 0.44342631
v 0.32240409 0.06497583 0.44342631
v 0.31758547 0.09497041 0.44342631
v 0.27093840 0.19137684 0.44342631
v 0.26732439 0.19647525 0.44342631
v -0.27443767 0.18482172 0.44342631
v -0.30502260 0.12489878 0.44342631
v -0.31030971 0.11450330 0.44342631
v -0.31091207 0.11331147 0.44343844
v -0.31472683 0.10476997 0.44343844
v 0.31470770 0.10476997 0.44342631
v 0.31136137 0.11251691 0.44342631
v 0.27395004 0.18594734 0.44342631
v -0.32249016 -0.10512588 0.46451563
v -0.32115167 -0.11240933 0.46750239
v -0.29438144 -0.14591321 0.44342631
v -0.31472683 -0.10492724 0.44343844
v -0.30542415 -0.14591321 0.48383236
v -0.30522341 -0.14591321 0.47405258
v -0.30535722 -0.14591321 0.47498140
v -0.27089059 -0.19160032 0.44342631
v -0.26727664 -0.19656631 0.44342631
v 0.31136137 -0.11260797 0.44342631
v 0.31116062 -0.13233951 0.46760559
v 0.27448541 -0.18497901 0.44343844
v 0.27087146 -0.19160032 0.44343844
v 0.26725745 -0.19656631 0.44343844
v 0.26304114 -0.20146608 0.44343844
v 0.26886368 -0.19861892 0.45454767
v 0.27180839 -0.19477856 0.45454767
v 0.27214307 -0.19431506 0.45454767
v 0.32119942 -0.11247554 0.46749631
v 0.30547196 -0.14591321 0.47499961
v 0.31758547 -0.09486283 0.44342631
v 0.31785315 -0.09333993 0.44342631
v 0.32253796 -0.10519210 0.46449742
v -0.31124669 -0.11260797 0.44343844
v -0.30502260 -0.12492363 0.44343844
v -0.28099638 -0.17213364 0.44342631
v -0.27443767 -0.18497901 0.44342631
v -0.31104594 -0.13227329 0.46761772
v -0.30288100 -0.14591321 0.46494058
v 0.31470770 -0.10492724 0.44342631
v 0.30292881 -0.14591321 0.46491629
v 0.31517613 -0.10333812 0.44342631
f 1 2 3
f 1 3 4
f 1 4 5
f 1 5 6
f 1 6 7
f 1 7 8
f 1 8 9
f 1 9 2
f 2 9 33
f 2 33 10
f 2 10 11
f 2 11 3
f 3 12 13
f 3 13 4
f 3 11 12
f 4 14 6
f 4 6 5
f 4 13 15
f 4 15 16
f 4 16 17
f 4 17 18
f 4 18 19
f 4 19 20
f 4 20 14
f 6 14 21
f 6 21 22
f 6 22 23
f 6 23 24
f 6 24 25
f 6 25 7
f 7 25 26
f 7 26 27
f 7 27 28
f 7 28 29
f 7 29 30
f 7 30 31
f 7 31 8
f 8 31 32
f 8 32 9
f 9 32 34
f 9 34 35
f 9 35 36
f 9 36 33
f 10 37 11
f 10 33 66
f 10 66 37
f 11 37 12
f 12 37 38
f 12 38 39
f 12 39 40
f 12 40 41
f 12 41 13
f 13 41 42
f 13 42 43
f 13 43 15
f 14 20 21
f 15 43 44
f 15 44 16
f 16 44 17
f 17 44 18
f 18 44 43
f 18 43 45
f 18 45 19
f 19 45 46
f 19 46 47
f 19 47 48
f 19 48 20
f 20 48 49
f 20 49 50
f 20 50 22
f 20 22 21
f 22 50 23
f 23 50 51
f 23 51 24
f 24 51 52
f 24 52 53
f 24 53 54
f 24 54 25
f 25 54 55
f 25 55 56
f 25 56 26
f 26 56 57
f 26 57 27
f 27 57 58
f 27 58 28
f 28 58 29
f 29 58 30
f 30 59 32
f 30 32 31
f 30 58 60
f 30 60 61
f 30 61 62
f 30 62 63
f 30 63 67
f 30 67 59
f 32 59 34
f 33 36 64
f 33 64 65
f 33 65 66
f 34 59 67
f 34 67 35
f 35 67 68
f 35 68 69
f 35 69 70
f 35 70 71
f 35 71 65
f 35 65 64
f 35 64 36
f 37 66 72
f 37 72 38
f 38 72 39
f 39 72 73
f 39 73 40
f 40 73 41
f 41 73 74
f 41 74 42
f 42 74 75
f 42 75 43
f 43 75 45
f 45 75 76
f 45 76 77
f 45 77 78
f 45 78 46
f 46 78 47
f 47 78 79
f 47 79 80
f 47 80 48
f 48 81 49
f 48 80 81
f 49 81 82
f 49 82 52
f 49 52 51
f 49 51 50
f 52 82 53
f 53 82 83
f 53 83 85
f 53 85 54
f 54 84 55
f 54 85 86
f 54 86 87
f 54 87 84
f 55 84 88
f 55 88 56
f 56 88 57
f 57 88 58
f 58 88 89
f 58 89 60
f 60 89 90
f 60 90 91
f 60 91 92
f 60 92 61
f 61 92 93
f 61 93 63
f 61 63 62
f 63 93 68
f 63 68 67
f 65 71 94
f 65 94 66
f 66 94 72
f 68 93 92
f 68 92 95
f 68 95 96
f 68 96 97
f 68 97 98
f 68 98 69
f 69 98 70
f 70 98 99
f 70 99 94
f 70 94 71
f 72 100 101
f 72 101 73
f 72 94 135
f 72 135 184
f 72 184 183
f 72 183 249
f 72 249 248
f 72 248 247
f 72 247 306
f 72 306 394
f 72 394 448
f 72 448 447
f 72 447 456
f 72 456 455
f 72 455 454
f 72 454 446
f 72 446 445
f 72 445 444
f 72 444 443
f 72 443 441
f 72 441 442
f 72 442 478
f 72 478 477
f 72 477 488
f 72 488 486
f 72 486 466
f 72 466 426
f 72 426 366
f 72 366 365
f 72 365 364
f 72 364 363
f 72 363 362
f 72 362 359
f 72 359 358
f 72 358 357
f 72 357 356
f 72 356 355
f 72 355 354
f 72 354 353
f 72 353 352
f 72 352 351
f 72 351 425
f 72 425 424
f 72 424 423
f 72 423 422
f 72 422 421
f 72 421 420
f 72 420 465
f 72 465 464
f 72 464 483
f 72 483 482
f 72 482 459
f 72 459 451
f 72 451 450
f 72 450 449
f 72 449 398
f 72 398 397
f 72 397 396
f 72 396 395
f 72 395 307
f 72 307 250
f 72 250 187
f 72 187 186
f 72 186 185
f 72 185 137
f 72 137 136
f 72 136 102
f 72 102 100
f 73 101 74
f 74 101 100
f 74 100 102
f 74 102 103
f 74 103 76
f 74 76 75
f 76 103 104
f 76 104 77
f 77 104 105
f 77 105 106
f 77 106 78
f 78 106 107
f 78 107 79
f 79 107 108
f 79 108 80
f 80 82 81
f 80 108 109
f 80 109 110
f 80 110 111
f 80 111 82
f 82 111 112
f 82 112 83
f 83 113 114
f 83 114 119
f 83 119 85
f 83 112 113
f 84 87 115
f 84 115 116
f 84 116 117
f 84 117 118
f 84 118 88
f 85 119 120
f 85 120 121
f 85 121 122
f 85 122 86
f 86 122 123
f 86 123 124
f 86 124 125
f 86 125 87
f 87 125 126
f 87 126 115
f 88 118 89
f 89 118 117
f 89 117 127
f 89 127 90
f 90 127 91
f 91 127 128
f 91 128 92
f 92 128 129
f 92 129 130
f 92 130 131
f 92 131 95
f 94 132 133
f 94 133 97
f 94 97 134
f 94 134 135
f 94 99 132
f 95 131 96
f 96 131 134
f 96 134 97
f 97 133 132
f 97 132 99
f 97 99 98
f 102 136 103
f 103 136 137
f 103 137 138
f 103 138 105
f 103 105 104
f 105 138 139
f 105 139 106
f 106 139 140
f 106 140 141
f 106 141 107
f 107 141 142
f 107 142 143
f 107 143 109
f 107 109 108
f 109 143 144
f 109 144 110
f 110 144 145
f 110 145 146
f 110 146 111
f 111 146 147
f 111 147 148
f 111 148 149
f 111 149 112
f 112 149 150
f 112 150 151
f 112 151 113
f 113 152 114
f 113 151 152
f 114 153 154
f 114 154 164
f 114 164 119
f 114 152 153
f 115 126 155
f 115 155 156
f 115 156 116
f 116 156 157
f 116 157 158
f 116 158 159
f 116 159 160
f 116 160 161
f 116 161 117
f 117 161 162
f 117 162 163
f 117 163 127
f 119 164 165
f 119 165 166
f 119 166 120
f 120 166 167
f 120 167 121
f 121 167 168
f 121 168 122
f 122 169 170
f 122 170 123
f 122 168 169
f 123 170 171
f 123 171 124
f 124 172 173
f 124 173 174
f 124 174 125
f 124 171 172
f 125 174 175
f 125 175 176
f 125 176 126
f 126 176 155
f 127 163 128
f 128 177 129
f 128 163 178
f 128 178 179
f 128 179 177
f 129 177 131
f 129 131 130
f 131 177 180
f 131 180 134
f 134 180 181
f 134 181 182
f 134 182 183
f 134 183 184
f 134 184 135
f 137 185 138
f 138 185 186
f 138 186 187
f 138 187 188
f 138 188 252
f 138 252 189
f 138 189 139
f 139 189 141
f 139 141 140
f 141 189 190
f 141 190 142
f 142 190 191
f 142 191 143
f 143 191 144
f 144 191 192
f 144 192 145
f 145 192 193
f 145 193 194
f 145 194 195
f 145 195 146
f 146 195 147
f 147 195 196
f 147 196 197
f 147 197 148
f 148 151 150
f 148 150 149
f 148 197 198
f 148 198 151
f 151 198 152
f 152 198 199
f 152 199 200
f 152 200 153
f 153 200 154
f 154 201 213
f 154 213 164
f 154 200 202
f 154 202 203
f 154 203 201
f 155 176 204
f 155 204 205
f 155 205 157
f 155 157 156
f 157 205 206
f 157 206 158
f 158 207 208
f 158 208 159
f 158 206 207
f 159 208 160
f 160 208 209
f 160 209 161
f 161 209 210
f 161 210 211
f 161 211 212
f 161 212 162
f 162 212 178
f 162 178 163
f 164 213 214
f 164 214 215
f 164 215 216
f 164 216 165
f 165 216 166
f 166 217 218
f 166 218 167
f 166 216 217
f 167 219 168
f 167 218 219
f 168 219 220
f 168 220 221
f 168 221 222
f 168 222 169
f 169 222 223
f 169 223 224
f 169 224 225
f 169 225 226
f 169 226 170
f 170 226 227
f 170 227 228
f 170 228 171
f 171 228 229
f 171 229 172
f 172 229 173
f 173 230 231
f 173 231 174
f 173 229 232
f 173 232 233
f 173 233 234
f 173 234 230
f 174 231 235
f 174 235 236
f 174 236 237
f 174 237 238
f 174 238 175
f 175 238 176
f 176 238 204
f 177 179 239
f 177 239 181
f 177 181 180
f 178 240 179
f 178 212 241
f 178 241 242
f 178 242 240
f 179 240 243
f 179 243 239
f 181 239 243
f 181 243 244
f 181 244 182
f 182 244 245
f 182 245 246
f 182 246 247
f 182 247 248
f 182 248 249
f 182 249 183
f 187 250 251
f 187 251 188
f 188 251 253
f 188 253 252
f 189 252 190
f 190 252 253
f 190 253 191
f 191 253 254
f 191 254 192
f 192 254 255
f 192 255 193
f 193 255 256
f 193 256 194
f 194 256 257
f 194 257 195
f 195 257 258
f 195 258 197
f 195 197 196
f 197 258 259
f 197 259 260
f 197 260 198
f 198 260 202
f 198 202 200
f 198 200 199
f 201 261 273
f 201 273 213
f 201 203 260
f 201 260 262
f 201 262 261
f 202 260 203
f 204 263 205
f 204 238 263
f 205 263 238
f 205 238 237
f 205 237 236
f 205 236 264
f 205 264 206
f 206 264 265
f 206 265 266
f 206 266 208
f 206 208 207
f 208 266 267
f 208 267 268
f 208 268 209
f 209 269 270
f 209 270 210
f 209 268 269
f 210 270 211
f 211 241 212
f 211 270 241
f 213 271 272
f 213 272 214
f 213 273 274
f 213 274 271
f 214 272 215
f 215 272 218
f 215 218 216
f 216 218 217
f 218 272 275
f 218 275 219
f 219 275 220
f 220 276 221
f 220 275 276
f 221 276 277
f 221 277 278
f 221 278 279
f 221 279 280
f 221 280 281
f 221 281 282
f 221 282 283
f 221 283 284
f 221 284 222
f 222 285 223
f 222 284 286
f 222 286 287
f 222 287 288
f 222 288 289
f 222 289 290
f 222 290 285
f 223 285 291
f 223 291 292
f 223 292 293
f 223 293 224
f 224 294 225
f 224 293 295
f 224 295 294
f 225 294 226
f 226 296 227
f 226 294 296
f 227 296 297
f 227 297 233
f 227 233 232
f 227 232 229
f 227 229 228
f 230 234 298
f 230 298 299
f 230 299 231
f 231 300 301
f 231 301 302
f 231 302 264
f 231 264 235
f 231 299 300
f 233 297 234
f 234 297 298
f 235 264 236
f 240 242 243
f 241 303 245
f 241 245 242
f 241 270 304
f 241 304 303
f 242 245 244
f 242 244 243
f 245 305 246
f 245 303 304
f 245 304 305
f 246 305 306
f 246 306 247
f 250 307 308
f 250 308 251
f 251 308 253
f 253 308 254
f 254 309 255
f 254 308 310
f 254 310 309
f 255 311 256
f 255 309 311
f 256 311 312
f 256 312 257
f 257 312 313
f 257 313 314
f 257 314 258
f 258 314 315
f 258 315 316
f 258 316 317
f 258 317 259
f 259 317 318
f 259 318 319
f 259 319 260
f 260 319 318
f 260 318 262
f 261 262 320
f 261 320 321
f 261 321 322
f 261 322 323
f 261 323 324
f 261 324 338
f 261 338 273
f 262 318 321
f 262 321 320
f 264 302 325
f 264 325 326
f 264 326 265
f 265 327 266
f 265 326 325
f 265 325 327
f 266 327 328
f 266 328 329
f 266 329 330
f 266 330 267
f 267 331 332
f 267 332 268
f 267 330 331
f 268 332 390
f 268 390 333
f 268 333 269
f 269 333 270
f 270 333 390
f 270 390 304
f 271 334 272
f 271 274 335
f 271 335 334
f 272 334 336
f 272 336 337
f 272 337 275
f 273 338 339
f 273 339 340
f 273 340 341
f 273 341 274
f 274 341 340
f 274 340 335
f 275 337 342
f 275 342 343
f 275 343 344
f 275 344 276
f 276 344 345
f 276 345 346
f 276 346 347
f 276 347 348
f 276 348 349
f 276 349 350
f 276 350 277
f 277 350 351
f 277 351 352
f 277 352 278
f 278 352 353
f 278 353 354
f 278 354 279
f 279 354 280
f 280 354 355
f 280 355 356
f 280 356 357
f 280 357 281
f 281 357 282
f 282 357 283
f 283 357 358
f 283 358 284
f 284 358 359
f 284 359 362
f 284 362 286
f 285 360 361
f 285 361 291
f 285 290 360
f 286 362 363
f 286 363 287
f 287 363 364
f 287 364 365
f 287 365 288
f 288 365 289
f 289 365 290
f 290 365 366
f 290 366 360
f 291 361 367
f 291 367 292
f 292 367 368
f 292 368 293
f 293 368 369
f 293 369 295
f 294 370 371
f 294 371 296
f 294 295 372
f 294 372 373
f 294 373 374
f 294 374 375
f 294 375 376
f 294 376 370
f 295 369 372
f 296 371 377
f 296 377 378
f 296 378 297
f 297 379 380
f 297 380 298
f 297 378 379
f 298 381 299
f 298 380 382
f 298 382 381
f 299 383 385
f 299 385 300
f 299 381 384
f 299 384 383
f 300 385 386
f 300 386 301
f 301 386 387
f 301 387 388
f 301 388 302
f 302 388 389
f 302 389 325
f 304 390 391
f 304 391 392
f 304 392 393
f 304 393 305
f 305 393 306
f 306 393 394
f 307 395 308
f 308 395 310
f 309 310 395
f 309 395 396
f 309 396 397
f 309 397 398
f 309 398 399
f 309 399 311
f 311 399 312
f 312 399 313
f 313 399 400
f 313 400 314
f 314 400 315
f 315 400 401
f 315 401 316
f 316 401 402
f 316 402 403
f 316 403 321
f 316 321 318
f 316 318 317
f 321 403 322
f 322 403 404
f 322 404 405
f 322 405 323
f 323 405 406
f 323 406 324
f 324 406 414
f 324 414 338
f 325 389 328
f 325 328 327
f 328 407 408
f 328 408 329
f 328 389 409
f 328 409 407
f 329 408 330
f 330 408 410
f 330 410 331
f 331 410 332
f 332 410 391
f 332 391 390
f 334 411 337
f 334 337 336
f 334 335 413
f 334 413 411
f 335 340 412
f 335 412 413
f 337 411 342
f 338 414 339
f 339 414 415
f 339 415 340
f 340 415 416
f 340 416 412
f 342 417 343
f 342 411 413
f 342 413 418
f 342 418 461
f 342 461 417
f 343 417 345
f 343 345 344
f 345 417 419
f 345 419 346
f 346 419 420
f 346 420 421
f 346 421 422
f 346 422 347
f 347 422 423
f 347 423 348
f 348 423 349
f 349 423 424
f 349 424 425
f 349 425 350
f 350 425 351
f 360 366 361
f 361 366 367
f 366 426 427
f 366 427 428
f 366 428 369
f 366 369 368
f 366 368 367
f 369 428 372
f 370 429 371
f 370 376 430
f 370 430 429
f 371 429 431
f 371 431 377
f 372 428 373
f 373 428 374
f 374 428 427
f 374 427 375
f 375 427 432
f 375 432 433
f 375 433 376
f 376 433 434
f 376 434 430
f 377 435 439
f 377 439 436
f 377 436 378
f 377 431 437
f 377 437 476
f 377 476 435
f 378 436 380
f 378 380 379
f 380 436 439
f 380 439 382
f 381 382 438
f 381 438 384
f 382 439 440
f 382 440 438
f 383 384 441
f 383 441 443
f 383 443 385
f 384 438 442
f 384 442 441
f 385 443 444
f 385 444 386
f 386 444 387
f 387 444 445
f 387 445 446
f 387 446 409
f 387 409 389
f 387 389 388
f 391 410 447
f 391 447 448
f 391 448 394
f 391 394 392
f 392 394 393
f 398 449 399
f 399 449 450
f 399 450 451
f 399 451 401
f 399 401 400
f 401 451 452
f 401 452 453
f 401 453 402
f 402 453 404
f 402 404 403
f 404 453 451
f 404 451 405
f 405 451 406
f 406 451 414
f 407 446 454
f 407 454 408
f 407 409 446
f 408 454 455
f 408 455 410
f 410 455 456
f 410 456 447
f 412 416 457
f 412 457 413
f 413 457 458
f 413 458 418
f 414 451 459
f 414 459 415
f 415 459 416
f 416 459 460
f 416 460 457
f 417 461 419
f 418 458 462
f 418 462 463
f 418 463 461
f 419 464 465
f 419 465 420
f 419 461 463
f 419 463 462
f 419 462 464
f 426 466 467
f 426 467 468
f 426 468 469
f 426 469 470
f 426 470 471
f 426 471 434
f 426 434 433
f 426 433 432
f 426 432 427
f 429 437 431
f 429 430 472
f 429 472 473
f 429 473 474
f 429 474 437
f 430 471 470
f 430 470 472
f 430 434 471
f 435 475 439
f 435 476 467
f 435 467 475
f 437 474 476
f 438 440 477
f 438 477 478
f 438 478 442
f 439 475 479
f 439 479 440
f 440 479 477
f 451 453 452
f 457 460 458
f 458 460 480
f 458 480 481
f 458 481 459
f 458 459 482
f 458 482 483
f 458 483 484
f 458 484 462
f 459 481 480
f 459 480 460
f 462 484 485
f 462 485 464
f 464 485 483
f 466 486 475
f 466 475 467
f 467 476 487
f 467 487 468
f 468 487 469
f 469 487 474
f 469 474 473
f 469 473 470
f 470 473 472
f 474 487 476
f 475 486 479
f 477 479 488
f 479 486 488
f 483 485 484

