# https://github.com/mikedh/trimesh
v 0.00000000 0.46989334 -0.47999451
v 0.00000000 0.46989334 -0.49563080
v -0.04599584 0.46759352 -0.47999451
v -0.04525990 0.45959026 -0.47129831
v -0.02079012 0.46078613 -0.47129831
v 0.00000000 0.46179804 -0.47129831
v 0.04525990 0.45959026 -0.47129831
v 0.04599584 0.46759352 -0.47999451
v 0.00000000 0.46630564 -0.49924979
v -0.04562787 0.46409786 -0.49924979
v -0.04599584 0.46759352 -0.49563080
v 0.04599584 0.46759352 -0.49563080
v 0.04562787 0.46409786 -0.49924979
v -0.09162370 0.46078613 -0.47999451
v -0.09005985 0.45287487 -0.47129831
v 0.06936172 0.45600259 -0.47129831
v 0.09162370 0.46078613 -0.47999451
v 0.00000000 0.46584567 -0.49971339
v -0.04562787 0.46363789 -0.49971339
v -0.09097976 0.45738247 -0.49924979
v -0.09153172 0.46041819 -0.49609441
v -0.09162370 0.46078613 -0.49563080
v 0.09162370 0.46078613 -0.49563080
v 0.09153172 0.46041819 -0.49609441
v 0.09097976 0.45738247 -0.49924979
v 0.04562787 0.46363789 -0.49971339
v -0.13633166 0.44965515 -0.47999451
v -0.13403186 0.44192785 -0.47129831
v 0.09005985 0.45287487 -0.47129831
v 0.11379369 0.44698739 -0.47129831
v 0.13633166 0.44965515 -0.47999451
v 0.00000000 0.46446583 -0.49975833
v -0.04544389 0.46225801 -0.49975833
v -0.09088777 0.45692250 -0.49971339
v -0.13531975 0.44625145 -0.49924979
v -0.13633166 0.44965515 -0.49563080
v 0.13633166 0.44965515 -0.49563080
v 0.09088777 0.45692250 -0.49971339
v 0.13531975 0.44625145 -0.49924979
v 0.04544389 0.46225801 -0.49975833
v -0.17975172 0.43410856 -0.47999451
v -0.17671600 0.42665723 -0.47129831
v 0.13403186 0.44192785 -0.47129831
v 0.17671600 0.42665723 -0.47129831
v 0.17975172 0.43410856 -0.47999451
v 0.00000000 0.45683050 -0.50000000
v -0.04470795 0.45462272 -0.50000000
v -0.09061179 0.45554262 -0.49975833
v -0.13476780 0.44450364 -0.49975833
v -0.13522775 0.44579151 -0.49971339
v -0.17827986 0.43042889 -0.49971339
v -0.17975172 0.43410856 -0.49563080
v 0.17975172 0.43410856 -0.49563080
v 0.17827986 0.43042889 -0.49971339
v 0.09061179 0.45554262 -0.49975833
v 0.13522775 0.44579151 -0.49971339
v 0.13476780 0.44450364 -0.49975833
v 0.04470795 0.45462272 -0.50000000
v -0.22142395 0.41433036 -0.47999451
v -0.19557430 0.41773406 -0.47129831
v 0.21765229 0.40724701 -0.47129831
v 0.22142395 0.41433036 -0.47999451
v -0.08904794 0.44799930 -0.50000000
v -0.13256000 0.43714428 -0.50000000
v -0.17478417 0.42205766 -0.50000000
v -0.17772791 0.42914101 -0.49975833
v -0.21894018 0.40963879 -0.49975833
v -0.21958412 0.41083467 -0.49971339
v -0.21976811 0.41129464 -0.49924979
v -0.22123997 0.41396239 -0.49609441
v -0.22142395 0.41433036 -0.49563080
v 0.22142395 0.41433036 -0.49563080
v 0.22123997 0.41396239 -0.49609441
v 0.21976811 0.41129464 -0.49924979
v 0.17772791 0.42914101 -0.49975833
v 0.21958412 0.41083467 -0.49971339
v 0.21894018 0.40963879 -0.49975833
v 0.08904794 0.44799930 -0.50000000
v 0.13256000 0.43714428 -0.50000000
v 0.17478417 0.42205766 -0.50000000
v -0.21765229 0.40724701 -0.47129831
v -0.26098037 0.39068851 -0.47999451
v 0.23862639 0.39473614 -0.47129831
v 0.26098037 0.39068851 -0.47999451
v -0.21535251 0.40283141 -0.50000000
v -0.21599644 0.40411928 -0.49995503
v -0.25380501 0.37983349 -0.50000000
v -0.25803664 0.38618091 -0.49975833
v -0.25877258 0.38737682 -0.49971339
v -0.25904855 0.38774478 -0.49924979
v -0.26079640 0.39032054 -0.49609441
v -0.26098037 0.39068851 -0.49563080
v 0.26098037 0.39068851 -0.49563080
v 0.26079640 0.39032054 -0.49609441
v 0.25904855 0.38774478 -0.49924979
v 0.25877258 0.38737682 -0.49971339
v 0.25803664 0.38618091 -0.49975833
v 0.25380501 0.37983349 -0.50000000
v 0.21599644 0.40411928 -0.49995503
v 0.21535251 0.40283141 -0.50000000
v -0.25656477 0.38397312 -0.47129831
v -0.29805303 0.36318299 -0.47999451
v -0.27330726 0.37155426 -0.47129831
v 0.25656477 0.38397312 -0.47129831
v 0.27615899 0.36943844 -0.47129831
v 0.29805303 0.36318299 -0.47999451
v -0.28977376 0.35306391 -0.50000000
v -0.29069367 0.35416782 -0.49995503
v -0.29556924 0.36014727 -0.49971339
v -0.29584521 0.36051524 -0.49924979
v -0.29805303 0.36318299 -0.49563080
v 0.29805303 0.36318299 -0.49563080
v 0.29584521 0.36051524 -0.49924979
v 0.29556924 0.36014727 -0.49971339
v 0.29069367 0.35416782 -0.49995503
v 0.28977376 0.35306391 -0.50000000
v -0.33218193 0.33218181 -0.47999451
v -0.30844808 0.34294483 -0.47129831
v -0.29290149 0.35692757 -0.47129831
v 0.29290149 0.35692757 -0.47129831
v 0.31102383 0.34055305 -0.47129831
v 0.33218193 0.33218181 -0.47999451
v -0.32298276 0.32298264 -0.50000000
v -0.32399467 0.32399455 -0.49995503
v -0.32942218 0.32942206 -0.49971339
v -0.33190596 0.33190584 -0.49609441
v -0.33218193 0.33218181 -0.49563080
v 0.33218193 0.33218181 -0.49563080
v 0.33190596 0.33190584 -0.49609441
v 0.32942218 0.32942206 -0.49971339
v 0.32399467 0.32399455 -0.49995503
v 0.32298276 0.32298264 -0.50000000
v -0.32647845 0.32647833 -0.47129831
v -0.36318311 0.29805291 -0.47999451
v -0.34055316 0.31102374 -0.47129831
v 0.32647845 0.32647833 -0.47129831
v 0.34294495 0.30844796 -0.47129831
v 0.36318311 0.29805291 -0.47999451
v -0.35306403 0.28977367 -0.50000000
v -0.35416794 0.29069358 -0.49995503
v -0.36014739 0.29556912 -0.49971339
v -0.36051536 0.29584512 -0.49924979
v -0.36318311 0.29805291 -0.49563080
v 0.36318311 0.29805291 -0.49563080
v 0.36051536 0.29584512 -0.49924979
v 0.36014739 0.29556912 -0.49971339
v 0.35416794 0.29069358 -0.49995503
v 0.35306403 0.28977367 -0.50000000
v -0.39068863 0.26098028 -0.47999451
v -0.36943856 0.27615890 -0.47129831
v -0.35692769 0.29290137 -0.47129831
v 0.35692769 0.29290137 -0.47129831
v 0.37155434 0.27330714 -0.47129831
v 0.39068863 0.26098028 -0.47999451
v -0.37983361 0.25380492 -0.50000000
v -0.38618103 0.25803652 -0.49975833
v -0.38737693 0.25877246 -0.49971339
v -0.38774490 0.25904843 -0.49924979
v -0.39032066 0.26079628 -0.49609441
v -0.39068863 0.26098028 -0.49563080
v 0.39068863 0.26098028 -0.49563080
v 0.39032066 0.26079628 -0.49609441
v 0.38774490 0.25904843 -0.49924979
v 0.38737693 0.25877246 -0.49971339
v 0.38618103 0.25803652 -0.49975833
v 0.37983361 0.25380492 -0.50000000
v -0.39473626 0.23862630 -0.47129831
v -0.38397324 0.25656468 -0.47129831
v -0.41433048 0.22142386 -0.47999451
v 0.38397324 0.25656468 -0.47129831
v 0.40724713 0.21765220 -0.47129831
v 0.41433048 0.22142386 -0.47999451
v 0.00000000 -0.45683062 -0.49999717
v -0.04470795 -0.45462283 -0.49999717
v -0.08904794 -0.44799942 -0.49999717
v -0.13256000 -0.43714440 -0.49999717
v -0.17478417 -0.42205778 -0.49999717
v -0.21535251 -0.40283152 -0.49999717
v -0.25380501 -0.37983361 -0.49999717
v -0.28977376 -0.35306403 -0.49999717
v -0.32298276 -0.32298276 -0.49999717
v -0.35306403 -0.28977379 -0.49999717
v -0.37983361 -0.25380504 -0.49999717
v -0.40283152 -0.21535252 -0.49999717
v -0.42205778 -0.17478421 -0.49999717
v -0.43714443 -0.13256003 -0.49999717
v -0.44799945 -0.08904798 -0.49999717
v -0.45462283 -0.04470801 -0.49999717
v -0.45683065 -0.00000006 -0.49999717
v -0.45462283 0.04470789 -0.49999717
v -0.44799945 0.08904786 -0.49999717
v -0.43714443 0.13255991 -0.49999717
v -0.42205778 0.17478409 -0.49999717
v -0.40283152 0.21535240 -0.49999717
v -0.40411940 0.21599635 -0.49995503
v -0.40963891 0.21894008 -0.49975833
v -0.41083479 0.21958402 -0.49971339
v -0.41129476 0.21976800 -0.49924979
v -0.41396251 0.22123988 -0.49609441
v -0.41433048 0.22142386 -0.49563080
v 0.41433048 0.22142386 -0.49563080
v 0.41396251 0.22123988 -0.49609441
v 0.41129476 0.21976800 -0.49924979
v 0.41083479 0.21958402 -0.49971339
v 0.40963891 0.21894008 -0.49975833
v 0.40411940 0.21599635 -0.49995503
v 0.40283152 0.21535240 -0.49999717
v 0.42205778 0.17478409 -0.49999717
v 0.43714443 0.13255991 -0.49999717
v 0.44799945 0.08904786 -0.49999717
v 0.45462283 0.04470789 -0.49999717
v 0.45683065 -0.00000006 -0.49999717
v 0.45462283 -0.04470801 -0.49999717
v 0.44799945 -0.08904798 -0.49999717
v 0.43714443 -0.13256003 -0.49999717
v 0.42205778 -0.17478421 -0.49999717
v 0.40283152 -0.21535252 -0.49999717
v 0.37983361 -0.25380504 -0.49999717
v 0.35306403 -0.28977379 -0.49999717
v 0.32298276 -0.32298276 -0.49999717
v 0.28977376 -0.35306403 -0.49999717
v 0.25380501 -0.37983361 -0.49999717
v 0.21535251 -0.40283152 -0.49999717
v 0.17478417 -0.42205778 -0.49999717
v 0.13256000 -0.43714440 -0.49999717
v 0.08904794 -0.44799942 -0.49999717
v 0.04470795 -0.45462283 -0.49999717
v -0.40724713 0.21765220 -0.47129831
v -0.43410870 0.17975163 -0.47999451
v 0.41773418 0.19557421 -0.47129831
v 0.43410870 0.17975163 -0.47999451
v 0.00000000 -0.45821050 -0.49995503
v -0.04489193 -0.45600271 -0.49995503
v 0.04489193 -0.45600271 -0.49995503
v -0.08932392 -0.44937930 -0.49995503
v -0.13301995 -0.43843231 -0.49995503
v -0.17533612 -0.42334566 -0.49995503
v -0.21599644 -0.40411940 -0.49995503
v -0.25803664 -0.38618103 -0.49975833
v -0.29069367 -0.35416794 -0.49995503
v -0.32399467 -0.32399467 -0.49995503
v -0.35416794 -0.29069370 -0.49995503
v -0.38618103 -0.25803664 -0.49975833
v -0.40411940 -0.21599647 -0.49995503
v -0.42334569 -0.17533615 -0.49995503
v -0.43843231 -0.13302000 -0.49995503
v -0.44937932 -0.08932396 -0.49995503
v -0.45600271 -0.04489199 -0.49995503
v -0.45821053 -0.00000006 -0.49995503
v -0.45600271 0.04489187 -0.49995503
v -0.44937932 0.08932384 -0.49995503
v -0.43843231 0.13301988 -0.49995503
v -0.42334569 0.17533603 -0.49995503
v -0.42914113 0.17772782 -0.49975833
v -0.43042904 0.17827977 -0.49971339
v -0.43410870 0.17975163 -0.49563080
v 0.43410870 0.17975163 -0.49563080
v 0.43042904 0.17827977 -0.49971339
v 0.42914113 0.17772782 -0.49975833
v 0.42334569 0.17533603 -0.49995503
v 0.43843231 0.13301988 -0.49995503
v 0.44937932 0.08932384 -0.49995503
v 0.45600271 0.04489187 -0.49995503
v 0.45821053 -0.00000006 -0.49995503
v 0.45600271 -0.04489199 -0.49995503
v 0.44937932 -0.08932396 -0.49995503
v 0.43843231 -0.13302000 -0.49995503
v 0.42334569 -0.17533615 -0.49995503
v 0.40411940 -0.21599647 -0.49995503
v 0.38618103 -0.25803664 -0.49975833
v 0.35416794 -0.29069370 -0.49995503
v 0.32399467 -0.32399467 -0.49995503
v 0.29069367 -0.35416794 -0.49995503
v 0.25803664 -0.38618103 -0.49975833
v 0.21599644 -0.40411940 -0.49995503
v 0.17533612 -0.42334566 -0.49995503
v 0.13301995 -0.43843231 -0.49995503
v 0.08932392 -0.44937930 -0.49995503
v -0.42665738 0.17671591 -0.47129831
v -0.44965529 0.13633157 -0.47999451
v 0.42665738 0.17671591 -0.47129831
v 0.44965529 0.13633157 -0.47999451
v 0.04544389 -0.46225813 -0.49975833
v 0.00000000 -0.46446595 -0.49975833
v -0.04544389 -0.46225813 -0.49975833
v -0.09061179 -0.45554274 -0.49975833
v 0.09061179 -0.45554274 -0.49975833
v -0.13476780 -0.44450375 -0.49975833
v -0.17772791 -0.42914113 -0.49975833
v -0.21894018 -0.40963891 -0.49975833
v -0.25877258 -0.38737693 -0.49971339
v -0.29556924 -0.36014739 -0.49971339
v -0.32942218 -0.32942218 -0.49971339
v -0.36014739 -0.29556924 -0.49971339
v -0.38737693 -0.25877258 -0.49971339
v -0.40963891 -0.21894020 -0.49975833
v -0.42914113 -0.17772794 -0.49975833
v -0.44450375 -0.13476783 -0.49975833
v -0.45554274 -0.09061184 -0.49975833
v -0.46225816 -0.04544394 -0.49975833
v -0.46446595 -0.00000006 -0.49975833
v -0.46225816 0.04544382 -0.49975833
v -0.45554274 0.09061172 -0.49975833
v -0.44450375 0.13476771 -0.49975833
v -0.44579163 0.13522768 -0.49971339
v -0.44625160 0.13531967 -0.49924979
v -0.44965529 0.13633157 -0.49563080
v 0.44965529 0.13633157 -0.49563080
v 0.44625160 0.13531967 -0.49924979
v 0.44579163 0.13522768 -0.49971339
v 0.44450375 0.13476771 -0.49975833
v 0.45554274 0.09061172 -0.49975833
v 0.46225816 0.04544382 -0.49975833
v 0.46446595 -0.00000006 -0.49975833
v 0.46225816 -0.04544394 -0.49975833
v 0.45554274 -0.09061184 -0.49975833
v 0.44450375 -0.13476783 -0.49975833
v 0.42914113 -0.17772794 -0.49975833
v 0.40963891 -0.21894020 -0.49975833
v 0.38737693 -0.25877258 -0.49971339
v 0.36014739 -0.29556924 -0.49971339
v 0.32942218 -0.32942218 -0.49971339
v 0.29556924 -0.36014739 -0.49971339
v 0.25877258 -0.38737693 -0.49971339
v 0.21894018 -0.40963891 -0.49975833
v 0.17772791 -0.42914113 -0.49975833
v 0.13476780 -0.44450375 -0.49975833
v -0.44192800 0.13403179 -0.47129831
v -0.46078628 0.09162363 -0.47999451
v -0.44698754 0.11379362 -0.47129831
v 0.44192800 0.13403179 -0.47129831
v 0.46078628 0.09162363 -0.47999451
v 0.09088777 -0.45692262 -0.49971339
v 0.04562787 -0.46363801 -0.49971339
v 0.00000000 -0.46584579 -0.49971339
v -0.04562787 -0.46363801 -0.49971339
v -0.09088777 -0.45692262 -0.49971339
v -0.13522775 -0.44579163 -0.49971339
v -0.17827986 -0.43042901 -0.49971339
v -0.21958412 -0.41083479 -0.49971339
v -0.21976811 -0.41129476 -0.49924979
v -0.25904855 -0.38774490 -0.49924979
v -0.29584521 -0.36051536 -0.49924979
v -0.33190596 -0.33190596 -0.49609441
v -0.36051536 -0.29584524 -0.49924979
v -0.38774490 -0.25904855 -0.49924979
v -0.41129476 -0.21976812 -0.49924979
v -0.41083479 -0.21958414 -0.49971339
v -0.43042904 -0.17827989 -0.49971339
v -0.44579163 -0.13522780 -0.49971339
v -0.45692262 -0.09088781 -0.49971339
v -0.46363801 -0.04562792 -0.49971339
v -0.46584582 -0.00000006 -0.49971339
v -0.46363801 0.04562780 -0.49971339
v -0.45692262 0.09088770 -0.49971339
v -0.45738259 0.09097969 -0.49924979
v -0.46041831 0.09153164 -0.49609441
v -0.46078628 0.09162363 -0.49563080
v 0.46078628 0.09162363 -0.49563080
v 0.46041831 0.09153164 -0.49609441
v 0.45738259 0.09097969 -0.49924979
v 0.45692262 0.09088770 -0.49971339
v 0.46363801 0.04562780 -0.49971339
v 0.46584582 -0.00000006 -0.49971339
v 0.46363801 -0.04562792 -0.49971339
v 0.45692262 -0.09088781 -0.49971339
v 0.44579163 -0.13522780 -0.49971339
v 0.43042904 -0.17827989 -0.49971339
v 0.41083479 -0.21958414 -0.49971339
v 0.38774490 -0.25904855 -0.49924979
v 0.41129476 -0.21976812 -0.49924979
v 0.36051536 -0.29584524 -0.49924979
v 0.33190596 -0.33190596 -0.49609441
v 0.29584521 -0.36051536 -0.49924979
v 0.25904855 -0.38774490 -0.49924979
v 0.21976811 -0.41129476 -0.49924979
v 0.21958412 -0.41083479 -0.49971339
v 0.17827986 -0.43042901 -0.49971339
v 0.13522775 -0.44579163 -0.49971339
v -0.46759367 0.04599577 -0.47999451
v -0.45600271 0.06936165 -0.47129831
v -0.45287499 0.09005977 -0.47129831
v 0.45287499 0.09005977 -0.47129831
v 0.45959038 0.04525984 -0.47129831
v 0.46759367 0.04599577 -0.47999451
v 0.09097976 -0.45738259 -0.49924979
v 0.04562787 -0.46409798 -0.49924979
v 0.00000000 -0.46630576 -0.49924979
v -0.04562787 -0.46409798 -0.49924979
v -0.09097976 -0.45738259 -0.49924979
v -0.13531975 -0.44625157 -0.49924979
v -0.13633166 -0.44965526 -0.49563080
v -0.17975172 -0.43410867 -0.49563080
v -0.22123997 -0.41396251 -0.49609441
v -0.26079640 -0.39032066 -0.49609441
v -0.29805303 -0.36318311 -0.49563080
v -0.33218193 -0.33218193 -0.49563080
v -0.36318311 -0.29805303 -0.49563080
v -0.39032066 -0.26079640 -0.49609441
v -0.41396251 -0.22124000 -0.49609441
v -0.43410870 -0.17975175 -0.49563080
v -0.44965529 -0.13633169 -0.49563080
v -0.44625160 -0.13531978 -0.49924979
v -0.45738259 -0.09097981 -0.49924979
v -0.46409798 -0.04562792 -0.49924979
v -0.46630579 -0.00000006 -0.49924979
v -0.46409798 0.04562780 -0.49924979
v -0.46759367 0.04599577 -0.49563080
v 0.46759367 0.04599577 -0.49563080
v 0.46409798 0.04562780 -0.49924979
v 0.46630579 -0.00000006 -0.49924979
v 0.46409798 -0.04562792 -0.49924979
v 0.45738259 -0.09097981 -0.49924979
v 0.44625160 -0.13531978 -0.49924979
v 0.44965529 -0.13633169 -0.49563080
v 0.43410870 -0.17975175 -0.49563080
v 0.39032066 -0.26079640 -0.49609441
v 0.41396251 -0.22124000 -0.49609441
v 0.36318311 -0.29805303 -0.49563080
v 0.33218193 -0.33218193 -0.49563080
v 0.29805303 -0.36318311 -0.49563080
v 0.26079640 -0.39032066 -0.49609441
v 0.22123997 -0.41396251 -0.49609441
v 0.17975172 -0.43410867 -0.49563080
v 0.13633166 -0.44965526 -0.49563080
v 0.13531975 -0.44625157 -0.49924979
v -0.46989346 -0.00000006 -0.47999451
v -0.45959038 0.04525984 -0.47129831
v 0.46078628 0.02079006 -0.47129831
v 0.46989346 -0.00000006 -0.47999451
v 0.09153172 -0.46041831 -0.49609441
v 0.04599584 -0.46759364 -0.49563080
v 0.00000000 -0.46989346 -0.49563080
v -0.04599584 -0.46759364 -0.49563080
v -0.09153172 -0.46041831 -0.49609441
v -0.13633166 -0.44965526 -0.47999451
v -0.09162370 -0.46078625 -0.49563080
v -0.17975172 -0.43410867 -0.47999451
v -0.22142395 -0.41433048 -0.49563080
v -0.26098037 -0.39068863 -0.49563080
v -0.29805303 -0.36318311 -0.47999451
v -0.33218193 -0.33218193 -0.47999451
v -0.36318311 -0.29805303 -0.47999451
v -0.39068863 -0.26098040 -0.49563080
v -0.41433048 -0.22142398 -0.49563080
v -0.43410870 -0.17975175 -0.47999451
v -0.44965529 -0.13633169 -0.47999451
v -0.46078628 -0.09162375 -0.49563080
v -0.46041831 -0.09153176 -0.49609441
v -0.46759367 -0.04599589 -0.49563080
v -0.46989346 -0.00000006 -0.49563080
v 0.46989346 -0.00000006 -0.49563080
v 0.46759367 -0.04599589 -0.49563080
v 0.46041831 -0.09153176 -0.49609441
v 0.46078628 -0.09162375 -0.49563080
v 0.44965529 -0.13633169 -0.47999451
v 0.43410870 -0.17975175 -0.47999451
v 0.41433048 -0.22142398 -0.49563080
v 0.39068863 -0.26098040 -0.49563080
v 0.36318311 -0.29805303 -0.47999451
v 0.33218193 -0.33218193 -0.47999451
v 0.29805303 -0.36318311 -0.47999451
v 0.26098037 -0.39068863 -0.49563080
v 0.22142395 -0.41433048 -0.49563080
v 0.17975172 -0.43410867 -0.47999451
v 0.13633166 -0.44965526 -0.47999451
v 0.09162370 -0.46078625 -0.49563080
v -0.46759367 -0.04599589 -0.47999451
v -0.45959038 -0.04525996 -0.47129831
v -0.46078628 -0.02079017 -0.47129831
v -0.46179819 -0.00000006 -0.47129831
v 0.46179819 -0.00000006 -0.47129831
v 0.46759367 -0.04599589 -0.47999451
v 0.45959038 -0.04525996 -0.47129831
v 0.04599584 -0.46759364 -0.47999451
v 0.00000000 -0.46989346 -0.47999451
v -0.04599584 -0.46759364 -0.47999451
v -0.09162370 -0.46078625 -0.47999451
v -0.11379369 -0.44698751 -0.47129831
v -0.13403186 -0.44192797 -0.47129831
v -0.17671600 -0.42665735 -0.47129831
v -0.21765229 -0.40724713 -0.47129831
v -0.22142395 -0.41433048 -0.47999451
v -0.26098037 -0.39068863 -0.47999451
v -0.27615899 -0.36943856 -0.47129831
v -0.29290149 -0.35692769 -0.47129831
v -0.31102383 -0.34055316 -0.47129831
v -0.32647845 -0.32647845 -0.47129831
v -0.34294495 -0.30844808 -0.47129831
v -0.35692769 -0.29290149 -0.47129831
v -0.37155434 -0.27330726 -0.47129831
v -0.39068863 -0.26098040 -0.47999451
v -0.41433048 -0.22142398 -0.47999451
v -0.41773418 -0.19557433 -0.47129831
v -0.42665738 -0.17671603 -0.47129831
v -0.44192800 -0.13403191 -0.47129831
v -0.46078628 -0.09162375 -0.47999451
v 0.46078628 -0.09162375 -0.47999451
v 0.44698754 -0.11379374 -0.47129831
v 0.44192800 -0.13403191 -0.47129831
v 0.42665738 -0.17671603 -0.47129831
v 0.40724713 -0.21765232 -0.47129831
v 0.41433048 -0.22142398 -0.47999451
v 0.39068863 -0.26098040 -0.47999451
v 0.36943856 -0.27615902 -0.47129831
v 0.35692769 -0.29290149 -0.47129831
v 0.34055316 -0.31102386 -0.47129831
v 0.32647845 -0.32647845 -0.47129831
v 0.30844808 -0.34294495 -0.47129831
v 0.29290149 -0.35692769 -0.47129831
v 0.27330726 -0.37155437 -0.47129831
v 0.26098037 -0.39068863 -0.47999451
v 0.22142395 -0.41433048 -0.47999451
v 0.19557430 -0.41773418 -0.47129831
v 0.17671600 -0.42665735 -0.47129831
v 0.13403186 -0.44192797 -0.47129831
v 0.09162370 -0.46078625 -0.47999451
v -0.45287499 -0.09005989 -0.47129831
v 0.45600271 -0.06936177 -0.47129831
v 0.04525990 -0.45959038 -0.47129831
v 0.02079012 -0.46078625 -0.47129831
v 0.00000000 -0.46179816 -0.47129831
v -0.04525990 -0.45959038 -0.47129831
v -0.06936172 -0.45600271 -0.47129831
v -0.09005985 -0.45287499 -0.47129831
v -0.23862639 -0.39473626 -0.47129831
v -0.25656477 -0.38397324 -0.47129831
v -0.38397324 -0.25656480 -0.47129831
v -0.40724713 -0.21765232 -0.47129831
v 0.45287499 -0.09005989 -0.47129831
v 0.39473626 -0.23862642 -0.47129831
v 0.38397324 -0.25656480 -0.47129831
v 0.25656477 -0.38397324 -0.47129831
v 0.21765229 -0.40724713 -0.47129831
v 0.09005985 -0.45287499 -0.47129831
f 1 2 11
f 1 11 3
f 1 3 4
f 1 4 5
f 1 5 6
f 1 6 7
f 1 7 8
f 1 8 12
f 1 12 2
f 2 9 10
f 2 10 11
f 2 12 13
f 2 13 9
f 3 11 22
f 3 22 14
f 3 14 4
f 4 14 15
f 4 15 28
f 4 28 42
f 4 42 60
f 4 60 81
f 4 81 101
f 4 101 103
f 4 103 119
f 4 119 118
f 4 118 133
f 4 133 135
f 4 135 151
f 4 151 150
f 4 150 168
f 4 168 167
f 4 167 228
f 4 228 279
f 4 279 328
f 4 328 330
f 4 330 382
f 4 382 381
f 4 381 428
f 4 428 471
f 4 471 470
f 4 470 469
f 4 469 518
f 4 518 496
f 4 496 495
f 4 495 494
f 4 494 529
f 4 529 528
f 4 528 491
f 4 491 490
f 4 490 489
f 4 489 488
f 4 488 487
f 4 487 486
f 4 486 485
f 4 485 527
f 4 527 526
f 4 526 482
f 4 482 481
f 4 481 480
f 4 480 479
f 4 479 525
f 4 525 524
f 4 524 523
f 4 523 522
f 4 522 521
f 4 521 520
f 4 520 535
f 4 535 516
f 4 516 515
f 4 515 514
f 4 514 534
f 4 534 533
f 4 533 511
f 4 511 510
f 4 510 509
f 4 509 508
f 4 508 507
f 4 507 506
f 4 506 505
f 4 505 532
f 4 532 531
f 4 531 502
f 4 502 501
f 4 501 500
f 4 500 499
f 4 499 530
f 4 530 519
f 4 519 474
f 4 474 472
f 4 472 429
f 4 429 384
f 4 384 383
f 4 383 331
f 4 331 281
f 4 281 230
f 4 230 171
f 4 171 170
f 4 170 153
f 4 153 152
f 4 152 137
f 4 137 136
f 4 136 121
f 4 121 120
f 4 120 105
f 4 105 104
f 4 104 83
f 4 83 61
f 4 61 44
f 4 44 43
f 4 43 30
f 4 30 29
f 4 29 16
f 4 16 7
f 4 7 6
f 4 6 5
f 7 16 8
f 8 16 17
f 8 17 23
f 8 23 12
f 9 18 19
f 9 19 10
f 9 13 26
f 9 26 18
f 10 19 20
f 10 20 21
f 10 21 11
f 11 21 22
f 12 23 24
f 12 24 13
f 13 24 25
f 13 25 26
f 14 22 36
f 14 36 27
f 14 27 28
f 14 28 15
f 16 29 17
f 17 29 30
f 17 30 31
f 17 31 37
f 17 37 23
f 18 32 19
f 18 26 32
f 19 33 34
f 19 34 20
f 19 32 33
f 20 34 50
f 20 50 35
f 20 35 36
f 20 36 21
f 21 36 22
f 23 37 24
f 24 37 25
f 25 38 26
f 25 37 39
f 25 39 56
f 25 56 38
f 26 40 32
f 26 38 40
f 27 36 52
f 27 52 41
f 27 41 42
f 27 42 28
f 30 43 31
f 31 43 44
f 31 44 45
f 31 45 53
f 31 53 37
f 32 46 33
f 32 40 46
f 33 47 48
f 33 48 34
f 33 46 47
f 34 48 49
f 34 49 50
f 35 50 51
f 35 51 36
f 36 51 52
f 37 53 54
f 37 54 39
f 38 55 40
f 38 56 57
f 38 57 55
f 39 54 56
f 40 55 58
f 40 58 46
f 41 52 71
f 41 71 59
f 41 59 60
f 41 60 42
f 44 61 45
f 45 61 62
f 45 62 72
f 45 72 53
f 46 58 78
f 46 78 79
f 46 79 80
f 46 80 100
f 46 100 98
f 46 98 116
f 46 116 132
f 46 132 148
f 46 148 166
f 46 166 155
f 46 155 139
f 46 139 123
f 46 123 107
f 46 107 87
f 46 87 85
f 46 85 65
f 46 65 64
f 46 64 63
f 46 63 47
f 47 63 48
f 48 63 64
f 48 64 49
f 49 64 65
f 49 65 66
f 49 66 51
f 49 51 50
f 51 66 67
f 51 67 68
f 51 68 69
f 51 69 52
f 52 69 70
f 52 70 71
f 53 72 73
f 53 73 74
f 53 74 54
f 54 75 57
f 54 57 56
f 54 74 76
f 54 76 77
f 54 77 75
f 55 78 58
f 55 57 79
f 55 79 78
f 57 75 80
f 57 80 79
f 59 81 60
f 59 71 92
f 59 92 82
f 59 82 81
f 61 83 62
f 62 83 84
f 62 84 93
f 62 93 72
f 65 85 86
f 65 86 67
f 65 67 66
f 67 86 87
f 67 87 88
f 67 88 89
f 67 89 68
f 68 89 69
f 69 89 90
f 69 90 91
f 69 91 70
f 70 91 92
f 70 92 71
f 72 93 94
f 72 94 73
f 73 94 74
f 74 94 95
f 74 95 96
f 74 96 76
f 75 77 80
f 76 96 77
f 77 96 97
f 77 97 98
f 77 98 99
f 77 99 80
f 80 99 100
f 81 82 101
f 82 92 111
f 82 111 102
f 82 102 103
f 82 103 101
f 83 104 84
f 84 105 106
f 84 106 112
f 84 112 93
f 84 104 105
f 85 87 86
f 87 107 108
f 87 108 109
f 87 109 88
f 88 109 89
f 89 109 110
f 89 110 90
f 90 110 91
f 91 110 111
f 91 111 92
f 93 112 94
f 94 112 113
f 94 113 95
f 95 113 114
f 95 114 96
f 96 114 97
f 97 114 98
f 98 100 99
f 98 114 115
f 98 115 116
f 102 111 127
f 102 127 117
f 102 117 118
f 102 118 119
f 102 119 103
f 105 120 106
f 106 120 121
f 106 121 122
f 106 122 128
f 106 128 112
f 107 123 108
f 108 123 109
f 109 123 124
f 109 124 125
f 109 125 110
f 110 125 126
f 110 126 111
f 111 126 127
f 112 128 129
f 112 129 113
f 113 129 130
f 113 130 114
f 114 130 131
f 114 131 132
f 114 132 115
f 115 132 116
f 117 133 118
f 117 127 143
f 117 143 134
f 117 134 135
f 117 135 133
f 121 136 122
f 122 137 138
f 122 138 144
f 122 144 128
f 122 136 137
f 123 139 140
f 123 140 141
f 123 141 124
f 124 141 125
f 125 141 142
f 125 142 126
f 126 142 143
f 126 143 127
f 128 144 129
f 129 144 145
f 129 145 130
f 130 145 146
f 130 146 131
f 131 146 132
f 132 146 147
f 132 147 148
f 134 143 160
f 134 160 149
f 134 149 150
f 134 150 151
f 134 151 135
f 137 152 138
f 138 152 153
f 138 153 154
f 138 154 161
f 138 161 144
f 139 155 140
f 140 155 141
f 141 155 156
f 141 156 157
f 141 157 158
f 141 158 142
f 142 158 159
f 142 159 143
f 143 159 160
f 144 161 162
f 144 162 145
f 145 162 163
f 145 163 164
f 145 164 146
f 146 164 165
f 146 165 166
f 146 166 147
f 147 166 148
f 149 167 168
f 149 168 150
f 149 160 200
f 149 200 169
f 149 169 167
f 153 170 154
f 154 170 171
f 154 171 172
f 154 172 201
f 154 201 161
f 155 173 174
f 155 174 175
f 155 175 176
f 155 176 177
f 155 177 178
f 155 178 179
f 155 179 180
f 155 180 181
f 155 181 182
f 155 182 183
f 155 183 184
f 155 184 185
f 155 185 186
f 155 186 187
f 155 187 188
f 155 188 189
f 155 189 190
f 155 190 191
f 155 191 192
f 155 192 193
f 155 193 194
f 155 194 195
f 155 195 196
f 155 196 156
f 155 166 173
f 156 196 157
f 157 196 197
f 157 197 198
f 157 198 158
f 158 198 159
f 159 198 199
f 159 199 200
f 159 200 160
f 161 201 202
f 161 202 162
f 162 202 203
f 162 203 163
f 163 203 164
f 164 203 204
f 164 204 205
f 164 205 165
f 165 205 166
f 166 205 206
f 166 206 207
f 166 207 208
f 166 208 209
f 166 209 210
f 166 210 211
f 166 211 212
f 166 212 213
f 166 213 214
f 166 214 215
f 166 215 216
f 166 216 217
f 166 217 218
f 166 218 219
f 166 219 220
f 166 220 221
f 166 221 222
f 166 222 223
f 166 223 224
f 166 224 225
f 166 225 226
f 166 226 227
f 166 227 173
f 167 169 228
f 169 200 256
f 169 256 229
f 169 229 228
f 171 230 172
f 172 230 231
f 172 231 257
f 172 257 201
f 173 232 233
f 173 233 174
f 173 227 234
f 173 234 232
f 174 233 235
f 174 235 175
f 175 235 176
f 176 235 236
f 176 236 237
f 176 237 177
f 177 237 238
f 177 238 178
f 178 238 179
f 179 238 239
f 179 239 240
f 179 240 180
f 180 240 181
f 181 240 241
f 181 241 242
f 181 242 182
f 182 242 183
f 183 242 243
f 183 243 244
f 183 244 184
f 184 244 185
f 185 244 245
f 185 245 186
f 186 245 246
f 186 246 247
f 186 247 187
f 187 247 188
f 188 248 189
f 188 247 248
f 189 248 249
f 189 249 250
f 189 250 190
f 190 250 251
f 190 251 191
f 191 251 192
f 192 252 253
f 192 253 193
f 192 251 252
f 193 253 195
f 193 195 194
f 195 253 254
f 195 254 196
f 196 254 255
f 196 255 197
f 197 255 198
f 198 255 256
f 198 256 199
f 199 256 200
f 201 257 202
f 202 257 203
f 203 257 258
f 203 258 204
f 204 258 205
f 205 258 259
f 205 259 206
f 206 259 260
f 206 260 208
f 206 208 207
f 208 260 209
f 209 260 261
f 209 261 262
f 209 262 210
f 210 262 211
f 211 263 212
f 211 262 263
f 212 263 264
f 212 264 265
f 212 265 213
f 213 265 266
f 213 266 214
f 214 266 215
f 215 267 268
f 215 268 216
f 215 266 267
f 216 268 269
f 216 269 217
f 217 269 218
f 218 270 271
f 218 271 219
f 218 269 270
f 219 271 220
f 220 272 273
f 220 273 221
f 220 271 272
f 221 273 222
f 222 274 275
f 222 275 223
f 222 273 274
f 223 275 224
f 224 275 276
f 224 276 225
f 225 276 277
f 225 277 278
f 225 278 226
f 226 278 227
f 227 278 234
f 228 229 279
f 229 256 307
f 229 307 280
f 229 280 279
f 230 281 231
f 231 281 282
f 231 282 308
f 231 308 257
f 232 234 283
f 232 283 284
f 232 284 285
f 232 285 233
f 233 285 286
f 233 286 235
f 234 278 287
f 234 287 283
f 235 286 288
f 235 288 236
f 236 288 237
f 237 288 289
f 237 289 238
f 238 290 239
f 238 289 290
f 239 290 291
f 239 291 292
f 239 292 240
f 240 292 241
f 241 292 293
f 241 293 294
f 241 294 242
f 242 294 243
f 243 295 296
f 243 296 244
f 243 294 295
f 244 296 297
f 244 297 245
f 245 297 298
f 245 298 246
f 246 298 247
f 247 299 248
f 247 298 299
f 248 299 300
f 248 300 249
f 249 300 301
f 249 301 302
f 249 302 250
f 250 303 251
f 250 302 303
f 251 303 304
f 251 304 252
f 252 304 253
f 253 304 254
f 254 304 255
f 255 304 305
f 255 305 306
f 255 306 307
f 255 307 256
f 257 308 258
f 258 308 309
f 258 309 310
f 258 310 311
f 258 311 259
f 259 311 260
f 260 311 261
f 261 311 262
f 262 312 263
f 262 311 312
f 263 312 313
f 263 313 264
f 264 313 314
f 264 314 315
f 264 315 265
f 265 316 266
f 265 315 316
f 266 316 317
f 266 317 267
f 267 317 268
f 268 318 269
f 268 317 318
f 269 319 270
f 269 318 319
f 270 319 320
f 270 320 321
f 270 321 271
f 271 321 272
f 272 322 323
f 272 323 273
f 272 321 322
f 273 323 274
f 274 324 325
f 274 325 275
f 274 323 324
f 275 325 326
f 275 326 276
f 276 326 327
f 276 327 277
f 277 327 278
f 278 327 287
f 279 280 328
f 280 307 358
f 280 358 329
f 280 329 330
f 280 330 328
f 281 331 282
f 282 332 359
f 282 359 308
f 282 331 332
f 283 287 333
f 283 333 334
f 283 334 284
f 284 334 335
f 284 335 336
f 284 336 285
f 285 336 337
f 285 337 286
f 286 337 288
f 287 327 333
f 288 338 339
f 288 339 289
f 288 337 338
f 289 339 290
f 290 340 291
f 290 339 340
f 291 340 341
f 291 341 342
f 291 342 343
f 291 343 292
f 292 343 293
f 293 343 344
f 293 344 345
f 293 345 294
f 294 345 346
f 294 346 295
f 295 346 347
f 295 347 348
f 295 348 296
f 296 348 349
f 296 349 297
f 297 349 298
f 298 349 350
f 298 350 351
f 298 351 299
f 299 351 300
f 300 352 301
f 300 351 352
f 301 353 354
f 301 354 302
f 301 352 353
f 302 354 355
f 302 355 303
f 303 355 304
f 304 355 305
f 305 355 356
f 305 356 306
f 306 356 307
f 307 356 357
f 307 357 358
f 308 359 360
f 308 360 361
f 308 361 309
f 309 361 362
f 309 362 310
f 310 362 311
f 311 362 312
f 312 362 313
f 313 363 314
f 313 362 363
f 314 364 365
f 314 365 315
f 314 363 364
f 315 365 366
f 315 366 316
f 316 366 317
f 317 367 368
f 317 368 318
f 317 366 367
f 318 368 319
f 319 368 369
f 319 369 320
f 320 370 372
f 320 372 321
f 320 369 371
f 320 371 370
f 321 372 322
f 322 373 374
f 322 374 323
f 322 372 373
f 323 374 375
f 323 375 324
f 324 375 376
f 324 376 377
f 324 377 325
f 325 377 378
f 325 378 326
f 326 378 327
f 327 378 379
f 327 379 333
f 329 358 408
f 329 408 380
f 329 380 381
f 329 381 382
f 329 382 330
f 331 383 332
f 332 384 385
f 332 385 409
f 332 409 359
f 332 383 384
f 333 386 334
f 333 379 426
f 333 426 386
f 334 386 387
f 334 387 388
f 334 388 335
f 335 388 389
f 335 389 336
f 336 389 390
f 336 390 337
f 337 390 391
f 337 391 338
f 338 391 339
f 339 391 392
f 339 392 393
f 339 393 341
f 339 341 340
f 341 394 395
f 341 395 342
f 341 393 394
f 342 395 343
f 343 396 344
f 343 395 396
f 344 396 397
f 344 397 398
f 344 398 345
f 345 398 399
f 345 399 346
f 346 399 347
f 347 399 400
f 347 400 401
f 347 401 349
f 347 349 348
f 349 401 402
f 349 402 403
f 349 403 350
f 350 403 404
f 350 404 351
f 351 404 352
f 352 405 406
f 352 406 353
f 352 404 405
f 353 406 407
f 353 407 354
f 354 407 356
f 354 356 355
f 356 407 357
f 357 407 408
f 357 408 358
f 359 409 360
f 360 409 410
f 360 410 361
f 361 410 363
f 361 363 362
f 363 410 411
f 363 411 364
f 364 411 412
f 364 412 365
f 365 412 413
f 365 413 366
f 366 413 414
f 366 414 367
f 367 414 368
f 368 414 415
f 368 415 416
f 368 416 371
f 368 371 369
f 370 371 417
f 370 417 372
f 371 418 417
f 371 416 418
f 372 419 373
f 372 417 419
f 373 420 421
f 373 421 374
f 373 419 420
f 374 421 422
f 374 422 375
f 375 422 376
f 376 422 423
f 376 423 424
f 376 424 378
f 376 378 377
f 378 424 425
f 378 425 426
f 378 426 379
f 380 408 451
f 380 451 427
f 380 427 428
f 380 428 381
f 384 429 430
f 384 430 385
f 385 430 452
f 385 452 409
f 386 431 387
f 386 426 425
f 386 425 431
f 387 431 432
f 387 432 433
f 387 433 388
f 388 433 389
f 389 434 435
f 389 435 390
f 389 433 434
f 390 435 392
f 390 392 391
f 392 436 438
f 392 438 393
f 392 435 437
f 392 437 478
f 392 478 436
f 393 438 483
f 393 483 439
f 393 439 394
f 394 439 440
f 394 440 395
f 395 440 396
f 396 440 484
f 396 484 441
f 396 441 442
f 396 442 397
f 397 442 443
f 397 443 398
f 398 443 492
f 398 492 444
f 398 444 399
f 399 444 445
f 399 445 400
f 400 445 401
f 401 445 493
f 401 493 446
f 401 446 447
f 401 447 402
f 402 447 497
f 402 497 448
f 402 448 449
f 402 449 404
f 402 404 403
f 404 449 405
f 405 450 451
f 405 451 406
f 405 449 450
f 406 451 407
f 407 451 408
f 409 452 410
f 410 452 411
f 411 452 412
f 412 452 453
f 412 453 454
f 412 454 413
f 413 415 414
f 413 454 415
f 415 454 455
f 415 455 498
f 415 498 456
f 415 456 457
f 415 457 416
f 416 457 503
f 416 503 458
f 416 458 418
f 417 459 419
f 417 418 458
f 417 458 459
f 419 459 504
f 419 504 460
f 419 460 461
f 419 461 420
f 420 461 462
f 420 462 421
f 421 462 512
f 421 512 463
f 421 463 422
f 422 463 464
f 422 464 423
f 423 464 424
f 424 465 466
f 424 466 425
f 424 464 513
f 424 513 465
f 425 466 517
f 425 517 467
f 425 467 431
f 427 451 450
f 427 450 468
f 427 468 469
f 427 469 470
f 427 470 471
f 427 471 428
f 429 472 430
f 430 473 453
f 430 453 452
f 430 472 474
f 430 474 473
f 431 467 432
f 432 467 517
f 432 517 475
f 432 475 476
f 432 476 433
f 433 476 477
f 433 477 434
f 434 477 478
f 434 478 437
f 434 437 435
f 436 478 479
f 436 479 480
f 436 480 481
f 436 481 438
f 438 481 482
f 438 482 483
f 439 483 484
f 439 484 440
f 441 484 485
f 441 485 486
f 441 486 487
f 441 487 442
f 442 487 488
f 442 488 489
f 442 489 443
f 443 489 490
f 443 490 491
f 443 491 492
f 444 492 493
f 444 493 445
f 446 493 494
f 446 494 495
f 446 495 447
f 447 495 496
f 447 496 497
f 448 497 468
f 448 468 450
f 448 450 449
f 453 473 498
f 453 498 455
f 453 455 454
f 456 498 499
f 456 499 500
f 456 500 501
f 456 501 457
f 457 501 502
f 457 502 503
f 458 503 504
f 458 504 459
f 460 504 505
f 460 505 506
f 460 506 507
f 460 507 461
f 461 507 508
f 461 508 509
f 461 509 462
f 462 509 510
f 462 510 511
f 462 511 512
f 463 512 513
f 463 513 464
f 465 513 514
f 465 514 515
f 465 515 466
f 466 515 516
f 466 516 517
f 468 497 469
f 469 497 518
f 473 474 519
f 473 519 498
f 475 517 520
f 475 520 476
f 476 520 521
f 476 521 522
f 476 522 523
f 476 523 477
f 477 523 524
f 477 524 478
f 478 524 525
f 478 525 479
f 482 526 483
f 483 526 484
f 484 526 527
f 484 527 485
f 491 528 492
f 492 528 529
f 492 529 493
f 493 529 494
f 496 518 497
f 498 519 530
f 498 530 499
f 502 531 503
f 503 531 504
f 504 531 532
f 504 532 505
f 511 533 512
f 512 533 534
f 512 534 513
f 513 534 514
f 516 535 517
f 517 535 520

