# https://github.com/mikedh/trimesh
v -0.10449817 -0.13328263 0.26273054
v -0.10314101 -0.13779898 0.26273054
v -0.06073623 -0.13779898 0.34694451
v -0.06197389 -0.13364284 0.34694451
v -0.06207632 -0.13328263 0.34694451
v -0.10449817 0.13326530 0.26273054
v -0.10052913 -0.14012642 0.26273054
v -0.05750125 -0.14068058 0.34694451
v -0.06207632 0.13326530 0.34694451
v -0.06191414 0.13384716 0.34694451
v -0.06073623 0.13778165 0.34694451
v -0.10314101 0.13778165 0.26273054
v -0.09943657 -0.14109620 0.26273054
v -0.05703179 -0.14109620 0.34694451
v -0.05703179 0.14110658 0.34694451
v -0.09943657 0.14110658 0.26273054
v -0.09589431 -0.14195514 0.26273054
v -0.05513689 -0.14153951 0.34694451
v -0.01729865 0.11165331 0.26273054
v -0.01729865 0.07737890 0.34694451
v -0.01729865 -0.10986964 0.26273054
v -0.01729865 -0.07360028 0.34694451
f 1 2 3
f 1 3 4
f 1 4 5
f 1 5 9
f 1 9 6
f 1 6 12
f 1 12 16
f 1 16 19
f 1 19 21
f 1 21 17
f 1 17 13
f 1 13 7
f 1 7 2
f 2 7 3
f 3 7 8
f 3 8 14
f 3 14 18
f 3 18 22
f 3 22 20
f 3 20 15
f 3 15 11
f 3 11 10
f 3 10 9
f 3 9 5
f 3 5 4
f 6 9 10
f 6 10 11
f 6 11 12
f 7 13 8
f 8 13 14
f 11 15 16
f 11 16 12
f 13 17 14
f 14 17 18
f 15 19 16
f 15 20 19
f 17 21 18
f 18 21 22
f 19 20 22
f 19 22 21

