# https://github.com/mikedh/trimesh
v 0.01735093 0.07767425 0.34694451
v 0.04122039 0.07752250 0.34694451
v 0.01735093 0.11177397 0.26273054
v 0.01735093 -0.07324897 0.34694451
v 0.04664996 0.07747914 0.34694451
v 0.04664996 0.09063777 0.31445751
v 0.04664996 0.11157887 0.26273054
v 0.01735093 -0.10968992 0.26273054
v 0.04664996 -0.08738312 0.31383100
v 0.04664996 -0.07305387 0.34694451
v 0.04664996 -0.10947314 0.26273054
f 1 2 3
f 1 3 8
f 1 8 4
f 1 4 10
f 1 10 5
f 1 5 2
f 2 5 6
f 2 6 7
f 2 7 3
f 3 7 11
f 3 11 8
f 4 8 9
f 4 9 10
f 5 10 9
f 5 9 11
f 5 11 7
f 5 7 6
f 8 11 9

