# https://github.com/mikedh/trimesh
v 0.14231627 0.13326129 0.18762219
v 0.14231627 -0.13326129 0.18762219
v 0.14231627 0.13326129 -0.49096611
v 0.14109036 0.13777485 0.18732354
v 0.10314307 0.13777485 0.26265588
v 0.10353313 0.13646537 0.26265588
v 0.10448042 0.13326129 0.26265588
v 0.10448042 -0.13326129 0.26265588
v 0.10409036 -0.13459864 0.26265588
v 0.10314307 -0.13777485 0.26265588
v 0.14109036 -0.13777485 0.18732354
v 0.14231627 -0.13326129 -0.49096611
v 0.14109036 0.13326129 -0.49544573
v 0.14042169 0.13716190 -0.49484843
v 0.14109036 0.13777485 -0.49096611
v 0.13777485 0.14109036 0.18650228
v 0.09943751 0.14109036 0.26265588
v 0.10205647 -0.13875000 0.26265588
v 0.09943751 -0.14109036 0.26265588
v 0.13777485 -0.14109036 0.18650228
v 0.14109036 -0.13777485 -0.49096611
v 0.14042169 -0.13716190 -0.49484843
v 0.14109036 -0.13326129 -0.49544573
v 0.13777485 0.13326129 -0.49873078
v 0.13716190 0.13716190 -0.49805883
v 0.13716190 0.14042169 -0.49484843
v 0.13777485 0.14109036 -0.49096611
v 0.13326129 0.14231627 0.18545705
v 0.09587124 0.14195406 0.26265588
v -0.09587124 -0.14195406 0.26265588
v 0.13326129 -0.14231627 0.18545705
v 0.13777485 -0.14109036 -0.49096611
v 0.13716190 -0.14042169 -0.49484843
v 0.13716190 -0.13716190 -0.49805883
v 0.13777485 -0.13326129 -0.49873078
v 0.13326129 0.13326129 -0.49992535
v 0.13326129 0.13777485 -0.49873078
v 0.13326129 0.14231627 -0.49096611
v 0.13326129 0.14109036 -0.49544573
v -0.00551657 0.14231627 0.18762219
v -0.13326129 0.14231627 0.18545705
v -0.09943751 0.14109036 0.26265588
v -0.09943751 -0.14109036 0.26265588
v -0.13326129 -0.14231627 0.18545705
v -0.00551657 -0.14231627 0.18762219
v 0.13326129 -0.14231627 -0.49096611
v 0.13326129 -0.14109036 -0.49544573
v 0.13326129 -0.13777485 -0.49873078
v 0.13326129 -0.13326129 -0.49992535
v -0.13326129 0.13326129 -0.49992535
v -0.13326129 0.13777485 -0.49873078
v -0.13326129 0.14231627 -0.49096611
v -0.13326129 0.14109036 -0.49544573
v -0.13777485 0.14109036 0.18650228
v -0.14109036 0.13777485 0.18732354
v -0.10205647 0.13875000 0.26265588
v -0.10314307 -0.13777485 0.26265588
v -0.14109036 -0.13777485 0.18732354
v -0.13777485 -0.14109036 0.18650228
v -0.13326129 -0.14231627 -0.49096611
v -0.13326129 -0.14109036 -0.49544573
v -0.13326129 -0.13777485 -0.49873078
v -0.13326129 -0.13326129 -0.49992535
v -0.13777485 0.13326129 -0.49873078
v -0.13716190 0.13716190 -0.49805883
v -0.13716190 0.14042169 -0.49484843
v -0.13777485 0.14109036 -0.49096611
v -0.14231627 0.13326129 0.18762219
v -0.10314307 0.13777485 0.26265588
v -0.14109036 0.13777485 -0.49096611
v -0.10353313 -0.13646537 0.26265588
v -0.14231627 -0.13326129 0.18762219
v -0.14109036 -0.13777485 -0.49096611
v -0.13777485 -0.14109036 -0.49096611
v -0.13716190 -0.14042169 -0.49484843
v -0.13716190 -0.13716190 -0.49805883
v -0.13777485 -0.13326129 -0.49873078
v -0.14109036 0.13326129 -0.49544573
v -0.14042169 0.13716190 -0.49484843
v -0.10448042 0.13326129 0.26265588
v -0.10409036 0.13459864 0.26265588
v -0.14231627 0.13326129 -0.49096611
v -0.10448042 -0.13326129 0.26265588
v -0.14231627 -0.13326129 -0.49096611
v -0.14042169 -0.13716190 -0.49484843
v -0.14109036 -0.13326129 -0.49544573
f 1 2 12
f 1 12 3
f 1 3 15
f 1 15 4
f 1 4 5
f 1 5 6
f 1 6 7
f 1 7 8
f 1 8 2
f 2 8 9
f 2 9 10
f 2 10 11
f 2 11 21
f 2 21 12
f 3 12 23
f 3 23 13
f 3 13 14
f 3 14 15
f 4 16 17
f 4 17 5
f 4 15 27
f 4 27 16
f 5 17 29
f 5 29 42
f 5 42 56
f 5 56 69
f 5 69 81
f 5 81 80
f 5 80 83
f 5 83 71
f 5 71 57
f 5 57 43
f 5 43 30
f 5 30 19
f 5 19 18
f 5 18 10
f 5 10 9
f 5 9 8
f 5 8 7
f 5 7 6
f 10 18 11
f 11 18 19
f 11 19 20
f 11 20 32
f 11 32 21
f 12 21 22
f 12 22 23
f 13 23 35
f 13 35 24
f 13 24 14
f 14 24 25
f 14 25 26
f 14 26 27
f 14 27 15
f 16 28 17
f 16 27 38
f 16 38 28
f 17 28 29
f 19 30 31
f 19 31 20
f 20 31 46
f 20 46 32
f 21 32 33
f 21 33 22
f 22 33 34
f 22 34 35
f 22 35 23
f 24 35 49
f 24 49 36
f 24 36 25
f 25 36 37
f 25 37 26
f 26 38 27
f 26 37 39
f 26 39 38
f 28 40 29
f 28 38 52
f 28 52 41
f 28 41 40
f 29 40 41
f 29 41 42
f 30 43 44
f 30 44 45
f 30 45 31
f 31 45 44
f 31 44 60
f 31 60 46
f 32 46 33
f 33 46 47
f 33 47 48
f 33 48 34
f 34 48 49
f 34 49 35
f 36 49 63
f 36 63 50
f 36 50 51
f 36 51 37
f 37 51 53
f 37 53 39
f 38 39 53
f 38 53 52
f 41 54 42
f 41 52 67
f 41 67 54
f 42 54 55
f 42 55 56
f 43 57 58
f 43 58 59
f 43 59 44
f 44 59 74
f 44 74 60
f 46 60 61
f 46 61 47
f 47 61 62
f 47 62 48
f 48 62 63
f 48 63 49
f 50 64 65
f 50 65 51
f 50 63 77
f 50 77 64
f 51 65 66
f 51 66 53
f 52 53 66
f 52 66 67
f 54 67 70
f 54 70 55
f 55 68 69
f 55 69 56
f 55 70 82
f 55 82 68
f 57 71 72
f 57 72 58
f 58 72 84
f 58 84 73
f 58 73 74
f 58 74 59
f 60 74 75
f 60 75 61
f 61 75 62
f 62 75 76
f 62 76 63
f 63 76 77
f 64 78 79
f 64 79 65
f 64 77 86
f 64 86 78
f 65 79 66
f 66 79 70
f 66 70 67
f 68 72 83
f 68 83 80
f 68 80 81
f 68 81 69
f 68 82 84
f 68 84 72
f 70 79 82
f 71 83 72
f 73 84 85
f 73 85 75
f 73 75 74
f 75 85 76
f 76 85 77
f 77 85 86
f 78 82 79
f 78 86 84
f 78 84 82
f 84 86 85

