# https://github.com/mikedh/trimesh
v 0.05513240 0.14153942 0.34694451
v 0.05702934 0.14109612 0.34694451
v 0.09589682 0.14195505 0.26273054
v 0.04664996 0.11158741 0.26273054
v 0.04664996 0.09064038 0.31445751
v 0.04664996 0.07747922 0.34694451
v 0.09944154 0.14109612 0.26273054
v 0.06073262 0.13779891 0.34694451
v 0.04664996 -0.10949237 0.26273054
v 0.04664996 -0.07305674 0.34694451
v 0.10313917 0.13779891 0.26273054
v 0.06197837 0.13364273 0.34694451
v 0.10449817 0.13328254 0.26273054
v 0.09944154 -0.14110687 0.26273054
v 0.05702934 -0.14110687 0.34694451
v 0.06208596 0.13328254 0.34694451
v 0.10449817 -0.13326558 0.26273054
v 0.10313917 -0.13778195 0.26273054
v 0.06014938 -0.13830838 0.34694451
v 0.06208596 -0.13326558 0.34694451
v 0.06191609 -0.13384745 0.34694451
v 0.10410179 -0.13459554 0.26273054
v 0.06073262 -0.13778195 0.34694451
f 1 2 3
f 1 3 4
f 1 4 5
f 1 5 6
f 1 6 10
f 1 10 15
f 1 15 19
f 1 19 23
f 1 23 21
f 1 21 20
f 1 20 16
f 1 16 12
f 1 12 8
f 1 8 2
f 2 7 3
f 2 8 7
f 3 7 11
f 3 11 13
f 3 13 17
f 3 17 22
f 3 22 18
f 3 18 14
f 3 14 9
f 3 9 4
f 4 9 10
f 4 10 6
f 4 6 5
f 7 8 11
f 8 12 13
f 8 13 11
f 9 14 15
f 9 15 10
f 12 16 13
f 13 16 20
f 13 20 17
f 14 18 19
f 14 19 15
f 17 20 21
f 17 21 22
f 18 22 23
f 18 23 19
f 21 23 22

