# https://github.com/mikedh/trimesh
v 0.00355460 0.14231627 0.49999115
v 0.00806829 0.14109036 0.49878526
v 0.02555957 0.14109036 0.40941572
v 0.02488222 0.14125752 0.40941572
v 0.00355460 0.14231627 0.44634637
v -0.00355460 0.14231627 0.49999115
v 0.00355460 -0.14231627 0.49999115
v 0.01137113 0.13777485 0.49547789
v 0.02926403 0.13777485 0.40941572
v 0.02875452 0.13824850 0.40941572
v 0.00806829 -0.14109036 0.49878526
v -0.00048554 0.14231627 0.44511387
v -0.02555957 0.14109036 0.40941572
v -0.00355460 0.14231627 0.44634637
v -0.00806829 0.14109036 0.49878526
v -0.00355460 -0.14231627 0.49999115
v 0.00355460 -0.14231627 0.44634637
v 0.02555957 -0.14109036 0.40941572
v 0.01258197 0.13326129 0.49096465
v 0.03061873 0.13326129 0.40941572
v 0.03042692 0.13390210 0.40941572
v 0.01137113 -0.13777485 0.49547789
v 0.02606309 -0.14064458 0.40941572
v 0.02904824 -0.13796988 0.40941572
v 0.02926403 -0.13777485 0.40941572
v -0.02606309 0.14064458 0.40941572
v -0.02904824 0.13796988 0.40941572
v -0.02926403 0.13777485 0.40941572
v -0.01137113 0.13777485 0.49547789
v -0.00806829 -0.14109036 0.49878526
v -0.02555957 -0.14109036 0.40941572
v -0.02488222 -0.14125752 0.40941572
v -0.00355460 -0.14231627 0.44634637
v -0.00048554 -0.14231627 0.44511387
v 0.01258197 -0.13326129 0.49096465
v 0.03061873 -0.13326129 0.40941572
v 0.02944985 -0.13716190 0.40941572
v 0.03054081 -0.13353992 0.40941572
v -0.02944985 0.13716190 0.40941572
v -0.03054081 0.13353992 0.40941572
v -0.03061873 0.13326129 0.40941572
v -0.01258197 0.13326129 0.49096465
v -0.01137113 -0.13777485 0.49547789
v -0.02926403 -0.13777485 0.40941572
v -0.02875452 -0.13824850 0.40941572
v -0.03061873 -0.13326129 0.40941572
v -0.01258197 -0.13326129 0.49096465
v -0.03042692 -0.13390210 0.40941572
f 1 2 3
f 1 3 4
f 1 4 5
f 1 5 12
f 1 12 14
f 1 14 6
f 1 6 16
f 1 16 7
f 1 7 11
f 1 11 2
f 2 8 9
f 2 9 10
f 2 10 3
f 2 11 22
f 2 22 8
f 3 10 9
f 3 9 21
f 3 21 20
f 3 20 36
f 3 36 38
f 3 38 37
f 3 37 25
f 3 25 24
f 3 24 23
f 3 23 18
f 3 18 32
f 3 32 31
f 3 31 45
f 3 45 44
f 3 44 48
f 3 48 46
f 3 46 41
f 3 41 40
f 3 40 39
f 3 39 28
f 3 28 27
f 3 27 26
f 3 26 13
f 3 13 4
f 4 12 5
f 4 13 12
f 6 14 13
f 6 13 15
f 6 15 30
f 6 30 16
f 7 16 33
f 7 33 34
f 7 34 17
f 7 17 18
f 7 18 11
f 8 19 20
f 8 20 21
f 8 21 9
f 8 22 35
f 8 35 19
f 11 18 23
f 11 23 24
f 11 24 25
f 11 25 22
f 12 13 14
f 13 26 15
f 15 26 27
f 15 27 28
f 15 28 29
f 15 29 43
f 15 43 30
f 16 30 31
f 16 31 32
f 16 32 33
f 17 34 18
f 18 34 32
f 19 35 36
f 19 36 20
f 22 25 37
f 22 37 38
f 22 38 36
f 22 36 35
f 28 39 29
f 29 39 40
f 29 40 41
f 29 41 42
f 29 42 47
f 29 47 43
f 30 43 44
f 30 44 45
f 30 45 31
f 32 34 33
f 41 46 47
f 41 47 42
f 43 47 46
f 43 46 48
f 43 48 44

