# https://github.com/mikedh/trimesh
v 0.00257505 0.05247762 0.40941566
v -0.01729865 0.05236902 0.40941566
v 0.01734806 0.05236902 0.40941566
v 0.01734806 0.11176965 0.26274487
v -0.00279017 0.11189996 0.26274487
v -0.01729865 0.11166106 0.26274487
v -0.01729865 -0.04668994 0.40941566
v 0.01734806 -0.04668994 0.40941566
v 0.01734806 -0.10967415 0.26274487
v -0.01729865 -0.10986961 0.26274487
v -0.01729865 -0.05624616 0.38724634
v -0.00377029 -0.04679853 0.40941566
v -0.00494033 -0.10997821 0.26274487
f 1 2 7
f 1 7 12
f 1 12 8
f 1 8 3
f 1 3 4
f 1 4 5
f 1 5 2
f 2 5 6
f 2 6 10
f 2 10 11
f 2 11 7
f 3 8 9
f 3 9 4
f 4 9 13
f 4 13 10
f 4 10 6
f 4 6 5
f 7 11 12
f 8 12 13
f 8 13 9
f 10 13 11
f 11 13 12

