# https://github.com/mikedh/trimesh
v -0.02556639 0.14110658 0.40941566
v -0.05702414 0.14110658 0.34695062
v -0.02905585 0.13797997 0.40941566
v -0.01729865 0.05237164 0.40941566
v -0.01729865 0.07738455 0.34695062
v -0.06072840 0.13778628 0.34695062
v -0.02926627 0.13778628 0.40941566
v -0.01729865 -0.04668388 0.40941566
v -0.01729865 -0.07360595 0.34695062
v -0.06186818 0.13399561 0.34695062
v -0.02945477 0.13717756 0.40941566
v -0.02488691 -0.14125700 0.40941566
v -0.05512598 -0.14156136 0.34695062
v -0.03062085 0.13327621 0.40941566
v -0.06207860 0.13327621 0.34695062
v -0.02556639 -0.14109099 0.40941566
v -0.05702414 -0.14109099 0.34695062
v -0.03062085 -0.13326062 0.40941566
v -0.06207860 -0.13326062 0.34695062
v -0.02926627 -0.13779835 0.40941566
v -0.06072840 -0.13779835 0.34695062
v -0.06197339 -0.13362032 0.34695062
v -0.06156570 -0.13500378 0.34695062
v -0.03043235 -0.13389701 0.40941566
f 1 2 3
f 1 3 7
f 1 7 11
f 1 11 14
f 1 14 18
f 1 18 24
f 1 24 20
f 1 20 16
f 1 16 12
f 1 12 8
f 1 8 4
f 1 4 5
f 1 5 2
f 2 6 3
f 2 5 9
f 2 9 13
f 2 13 17
f 2 17 21
f 2 21 23
f 2 23 22
f 2 22 19
f 2 19 15
f 2 15 10
f 2 10 6
f 3 6 7
f 4 8 9
f 4 9 5
f 6 10 11
f 6 11 7
f 8 12 9
f 9 12 13
f 10 14 11
f 10 15 14
f 12 16 13
f 13 16 17
f 14 15 19
f 14 19 18
f 16 20 21
f 16 21 17
f 18 19 22
f 18 22 23
f 18 23 24
f 20 24 23
f 20 23 21

