# https://github.com/mikedh/trimesh
v 0.02488854 0.14125684 0.40941566
v 0.02556727 0.14109081 0.40941566
v 0.05512489 0.14156118 0.34695062
v 0.01734806 0.07767311 0.34695062
v 0.01734806 0.05238351 0.40941566
v 0.05702534 0.14109081 0.34695062
v 0.02926745 0.13779819 0.40941566
v 0.01734806 -0.07326210 0.34695062
v 0.01734806 -0.04669972 0.40941566
v 0.06072552 0.13779819 0.34695062
v 0.03043224 0.13389683 0.40941566
v 0.06156627 0.13500360 0.34695062
v 0.05702534 -0.14110687 0.34695062
v 0.02556727 -0.14110687 0.40941566
v 0.03062053 0.13326043 0.40941566
v 0.06208298 0.13326043 0.34695062
v 0.06014312 -0.13831228 0.34695062
v 0.02905288 -0.13798025 0.40941566
v 0.03062053 -0.13327649 0.40941566
v 0.06208298 -0.13327649 0.34695062
v 0.06072552 -0.13778657 0.34695062
v 0.02926745 -0.13778657 0.40941566
v 0.02945136 -0.13717785 0.40941566
v 0.06186841 -0.13399589 0.34695062
v 0.06083499 -0.13742688 0.34695062
f 1 2 3
f 1 3 4
f 1 4 5
f 1 5 9
f 1 9 14
f 1 14 18
f 1 18 22
f 1 22 23
f 1 23 19
f 1 19 15
f 1 15 11
f 1 11 7
f 1 7 2
f 2 6 3
f 2 7 10
f 2 10 6
f 3 6 10
f 3 10 12
f 3 12 16
f 3 16 20
f 3 20 24
f 3 24 25
f 3 25 21
f 3 21 17
f 3 17 13
f 3 13 8
f 3 8 4
f 4 8 9
f 4 9 5
f 7 11 12
f 7 12 10
f 8 13 14
f 8 14 9
f 11 15 16
f 11 16 12
f 13 17 14
f 14 17 18
f 15 19 20
f 15 20 16
f 17 21 22
f 17 22 18
f 19 23 24
f 19 24 20
f 21 25 22
f 22 25 23
f 23 25 24

