# https://github.com/mikedh/trimesh
v -0.35501653 -0.15835005 -0.41431668
v -0.36499885 -0.14495876 -0.41419378
v -0.36499885 -0.13498536 -0.41437814
v -0.35501653 -0.14495876 -0.41437814
v -0.34501049 -0.15835005 -0.41431668
v -0.36266965 -0.15835005 -0.41296455
v -0.38498721 -0.07497673 -0.41431668
v -0.37498114 -0.10495302 -0.41437814
v -0.36504638 -0.15835005 -0.41234997
v -0.37239051 -0.14495876 -0.41198120
v -0.38498721 -0.08495015 -0.41382501
v -0.23501506 0.29499242 -0.41437814
v -0.34161174 -0.15835005 -0.41419378
v -0.38498721 -0.06494728 -0.41437814
v -0.39252147 -0.07497673 -0.41216558
v -0.39499328 -0.00499468 -0.41364062
v -0.36991870 -0.15835005 -0.40903112
v -0.37120214 -0.15285906 -0.41118222
v -0.38201627 -0.11498247 -0.41185829
v -0.38092297 -0.12310690 -0.41099784
v -0.39164206 -0.08495015 -0.41161245
v -0.23480114 0.30496585 -0.41437814
v -0.23480114 0.29493636 -0.41431668
v -0.23480114 -0.15835005 -0.38752005
v -0.33486181 -0.15835005 -0.41271871
v -0.38498721 0.06504340 -0.41437814
v -0.40005574 -0.03065664 -0.41007593
v -0.40031716 -0.02499755 -0.41044471
v -0.40081629 -0.01496810 -0.41099784
v -0.40129164 -0.00499468 -0.41142806
v -0.39499328 0.00503477 -0.41364062
v -0.37032273 -0.15835005 -0.40749460
v -0.37189138 -0.15571663 -0.40509766
v -0.37987721 -0.12977451 -0.40952280
v -0.39062008 -0.09212205 -0.41075200
v -0.39596772 -0.07497673 -0.40497473
v -0.23501506 0.30496585 -0.41437814
v -0.23480114 0.31499529 -0.41376355
v -0.23480114 -0.15835005 0.21349898
v -0.38498721 0.07501682 -0.41431668
v -0.37498114 0.10504915 -0.41437814
v -0.39746508 -0.07497673 -0.39495674
v -0.39855838 -0.06494728 -0.39495674
v -0.40012702 -0.04147051 -0.40116420
v -0.40038848 -0.03435464 -0.40466744
v -0.40129164 -0.02499755 -0.40497473
v -0.40226609 -0.01496810 -0.40497473
v -0.40321678 -0.00499468 -0.40497473
v -0.40129164 0.00503477 -0.41142806
v -0.39252147 0.07501682 -0.41216558
v -0.37096447 -0.15835005 -0.40331531
v -0.37355509 -0.15498823 -0.39495674
v -0.37716773 -0.14495876 -0.39495674
v -0.37564662 -0.14495876 -0.40497473
v -0.37937811 -0.15835005 -0.34099472
v -0.38035256 -0.13117528 -0.40288511
v -0.38158846 -0.12585238 -0.40571228
v -0.39107165 -0.09525976 -0.40429869
v -0.39401880 -0.08495015 -0.40497473
v -0.26500949 0.28496295 -0.41437814
v -0.25500342 0.29499242 -0.41425523
v -0.24502112 0.30496585 -0.41407084
v -0.23501506 0.31499529 -0.41376355
v -0.23480114 0.31723648 -0.41314894
v -0.23480114 0.41400111 0.21349898
v -0.44913536 -0.15835005 0.21349898
v -0.36499885 0.14499886 -0.41419378
v -0.38498721 0.08504628 -0.41382501
v -0.36499885 0.13496941 -0.41437814
v -0.39998442 -0.07996343 -0.37000391
v -0.40026963 -0.07497673 -0.37227792
v -0.39996067 -0.06959780 -0.37965316
v -0.39950907 -0.05531004 -0.39507964
v -0.40250376 -0.02499755 -0.39495674
v -0.40445268 -0.00499468 -0.39495674
v -0.40321678 0.00503477 -0.40497473
v -0.41010934 -0.00124064 -0.35095125
v -0.40081629 0.01500820 -0.41099784
v -0.40031716 0.02503765 -0.41044471
v -0.40005574 0.03069673 -0.41007593
v -0.39164206 0.08504628 -0.41161245
v -0.37911665 -0.15767768 -0.34498963
v -0.37999606 -0.15000153 -0.36004734
v -0.37959200 -0.14865679 -0.36674652
v -0.37933058 -0.13784289 -0.39495674
v -0.38130325 -0.13554564 -0.38487726
v -0.37975839 -0.15835005 -0.33810607
v -0.38627064 -0.11498247 -0.39495674
v -0.39233133 -0.09497960 -0.39495674
v -0.39534977 -0.08495015 -0.39495674
v -0.27501553 0.27498955 -0.41437814
v -0.27577609 0.28574738 -0.41259581
v -0.26536599 0.29532859 -0.41253436
v -0.25493211 0.30507791 -0.41234997
v -0.24449824 0.31471515 -0.41191974
v -0.23480114 0.32396016 -0.41124368
v -0.23480114 0.41013500 0.18498147
v -0.24026763 0.39013213 0.05898810
v -0.25236523 0.39125276 0.11497832
v -0.25314957 0.40167442 0.19499949
v -0.25509849 0.40313122 0.21349898
v -0.44932550 -0.15778974 0.21349898
v -0.44690123 -0.15835005 0.19555262
v -0.35501653 0.16494571 -0.41419378
v -0.32502210 0.21498092 -0.41437814
v -0.35501653 0.15497229 -0.41437814
v -0.37239051 0.14499886 -0.41198120
v -0.36321628 0.16494571 -0.41198120
v -0.38201627 0.11502257 -0.41185829
v -0.40989542 -0.07901092 -0.28918377
v -0.39827317 -0.08399764 -0.37399882
v -0.43024030 -0.09077732 -0.10191463
v -0.45022866 -0.09077732 0.05806620
v -0.46011588 -0.09049717 0.13888633
v -0.40067369 -0.05531004 -0.38543040
v -0.43603954 -0.07497673 -0.07505654
v -0.40611640 -0.02499755 -0.36496416
v -0.40566483 -0.00499468 -0.38493872
v -0.40226609 0.01500820 -0.40497473
v -0.41010934 0.00128073 -0.35095125
v -0.40445268 0.00503477 -0.39495674
v -0.40934876 -0.00471453 -0.35457739
v -0.45493460 -0.00499468 0.02493917
v -0.44999099 -0.00000797 -0.02004968
v -0.39596772 0.07501682 -0.40497473
v -0.40129164 0.02503765 -0.40497473
v -0.40038848 0.03445076 -0.40466744
v -0.39855838 0.06504340 -0.39495674
v -0.39062008 0.09216214 -0.41075200
v -0.38092297 0.12314699 -0.41099784
v -0.39000213 -0.15835005 -0.25968289
v -0.39140439 -0.15566060 -0.25513485
v -0.41412601 -0.15498823 -0.07505654
v -0.42988378 -0.10960355 -0.05913835
v -0.40067369 -0.09223410 -0.33497161
v -0.39359099 -0.09497960 -0.38493872
v -0.39889112 -0.10635379 -0.31499705
v -0.28502160 0.26496008 -0.41437814
v -0.28578216 0.27571791 -0.41259581
v -0.28295386 0.28288984 -0.41142806
v -0.27294779 0.29230297 -0.41142806
v -0.26225245 0.30177212 -0.41136661
v -0.25155714 0.31124124 -0.41105929
v -0.24083805 0.32065436 -0.41062906
v -0.23480114 0.32709786 -0.40497473
v -0.23480114 0.38979596 0.03495718
v -0.23480114 0.37623659 -0.06503852
v -0.24587674 0.38245597 0.02450895
v -0.25951922 0.38968390 0.13194132
v -0.26004210 0.39999351 0.20987284
v -0.25918648 0.39954525 0.20317367
v -0.24005374 0.37001720 -0.09017573
v -0.25978065 0.40060982 0.21349898
v -0.45579022 -0.13649818 0.21349898
v -0.44661602 -0.15498823 0.18498147
v -0.43311614 -0.15835005 0.08517014
v -0.44433436 -0.15835005 0.17496347
v -0.33500442 0.20495147 -0.41394794
v -0.30500999 0.24495721 -0.41407084
v -0.29500392 0.25498664 -0.41425523
v -0.32502210 0.22495434 -0.41333333
v -0.31501603 0.23498379 -0.41376355
v -0.37120214 0.15284313 -0.41118222
v -0.33531338 0.21498092 -0.41228849
v -0.36131489 0.17245379 -0.41118222
v -0.34246737 0.20495147 -0.41173536
v -0.45971185 -0.08724740 0.13218719
v -0.46629542 -0.08495015 0.18498147
v -0.39879605 -0.08601473 -0.36496416
v -0.46040109 -0.10131104 0.16494545
v -0.46004459 -0.10019043 0.15947551
v -0.46534473 -0.10495302 0.21349898
v -0.46577251 -0.09497960 0.19499949
v -0.46698466 -0.09497960 0.20495602
v -0.46822056 -0.09419517 0.21349898
v -0.46964660 -0.08495015 0.21288440
v -0.40987164 -0.01866612 -0.33890507
v -0.43969971 -0.04696150 -0.06755839
v -0.46869591 -0.08495015 0.20495602
v -0.45766786 -0.07497673 0.10496031
v -0.45029998 -0.04303937 0.01744103
v -0.40830299 -0.01496810 -0.35494617
v -0.40934876 0.00475462 -0.35457739
v -0.40566483 0.00503477 -0.38493872
v -0.44999099 0.00004806 -0.02004968
v -0.45493460 0.00503477 0.02493917
v -0.42006785 -0.01070979 -0.26054335
v -0.41167796 -0.00499468 -0.33497161
v -0.44968200 -0.00667560 -0.01740689
v -0.46237379 -0.01496810 0.09494231
v -0.47656292 -0.00499468 0.20495602
v -0.47012195 -0.00146475 0.14878142
v -0.39401880 0.08504628 -0.40497473
v -0.39746508 0.07501682 -0.39495674
v -0.40250376 0.02503765 -0.39495674
v -0.39950907 0.05535012 -0.39507964
v -0.40012702 0.04151060 -0.40116420
v -0.39996067 0.06963789 -0.37965316
v -0.37987721 0.12975858 -0.40952280
v -0.39950907 -0.15835005 -0.18365666
v -0.40942007 -0.15812594 -0.10498764
v -0.44861248 -0.14434245 0.17508638
v -0.29540795 0.26529628 -0.41253436
v -0.29231820 0.27291641 -0.41142806
v -0.28963250 0.27958405 -0.40835506
v -0.27962643 0.28955746 -0.40835506
v -0.24673237 0.31729254 -0.40497473
v -0.28033945 0.29022983 -0.40171736
v -0.26962036 0.29964292 -0.39784536
v -0.25379127 0.31309026 -0.39495674
v -0.23480114 0.33023557 -0.38493872
v -0.23480114 0.36267722 -0.16491130
v -0.26027977 0.39013213 0.13857904
v -0.24026763 0.36015582 -0.16134661
v -0.26536599 0.39702389 0.21349898
v -0.26044613 0.40021762 0.21349898
v -0.45840463 -0.12786949 0.21349898
v -0.45849970 -0.12422749 0.20538625
v -0.42025799 -0.15835005 -0.01771419
v -0.33172452 0.22495434 -0.41112077
v -0.32442793 0.23403126 -0.41130513
v -0.31477839 0.24445294 -0.41191974
v -0.30510506 0.25487459 -0.41234997
v -0.36963347 0.15951076 -0.40853944
v -0.34089872 0.21161908 -0.41087490
v -0.35111868 0.19206446 -0.41105929
v -0.46971792 -0.08495015 0.21349898
v -0.47009820 -0.08114007 0.21349898
v -0.43855888 -0.02499755 -0.09503109
v -0.46881473 -0.03497098 0.16494545
v -0.41167796 0.00503477 -0.33497161
v -0.42006785 0.01074988 -0.26054335
v -0.40987164 0.01870620 -0.33890507
v -0.40830299 0.01500820 -0.35494617
v -0.46078137 0.00576317 0.07416876
v -0.40611640 0.02503765 -0.36496416
v -0.47012195 0.00156088 0.14878142
v -0.47656292 0.00503477 0.20495602
v -0.47558844 -0.01496810 0.20495602
v -0.47758490 -0.00499468 0.21349898
v -0.39107165 0.09529985 -0.40429869
v -0.39998442 0.08005956 -0.37000391
v -0.39534977 0.08504628 -0.39495674
v -0.40026963 0.07501682 -0.37227792
v -0.40067369 0.05535012 -0.38543040
v -0.40953889 0.07546507 -0.29514542
v -0.40989542 0.07905102 -0.28918377
v -0.40818417 0.06504340 -0.31499705
v -0.43822613 0.06504340 -0.06503852
v -0.43603954 0.07501682 -0.07505654
v -0.38158846 0.12589248 -0.40571228
v -0.38035256 0.13115934 -0.40288511
v -0.37716773 0.14499886 -0.39495674
v -0.37564662 0.14499886 -0.40497473
v -0.37189138 0.15570068 -0.40509766
v -0.40951514 -0.15835005 -0.10363551
v -0.30182517 0.26221460 -0.41136661
v -0.31126079 0.25151277 -0.41105929
v -0.32069644 0.24081096 -0.41062906
v -0.33010834 0.23005310 -0.41007593
v -0.29027420 0.28031242 -0.40171736
v -0.28497410 0.28496295 -0.40503621
v -0.25783175 0.30815959 -0.40497473
v -0.28597230 0.28591549 -0.39495674
v -0.28784993 0.28782052 -0.37498218
v -0.28951365 0.28944540 -0.35728166
v -0.29010785 0.29006171 -0.35064393
v -0.28095740 0.29079014 -0.39495674
v -0.27582365 0.29656127 -0.38493872
v -0.24566284 0.32300764 -0.37406027
v -0.23480114 0.33679116 -0.34265414
v -0.23480114 0.36127645 -0.17499077
v -0.23950708 0.35965157 -0.16804577
v -0.27066612 0.39052436 0.19499949
v -0.27240115 0.39192510 0.21349898
v -0.24979836 0.36984912 -0.04912034
v -0.23480114 0.34833342 -0.26496848
v -0.23480114 0.34093738 -0.31499705
v -0.23998243 0.34995830 -0.22981325
v -0.37025142 0.16046327 -0.40190172
v -0.35202184 0.19374537 -0.40497473
v -0.34168303 0.21313190 -0.40497473
v -0.33883095 0.21811861 -0.40497473
v -0.47449514 -0.03648379 0.21349898
v -0.46237379 0.01500820 0.09494231
v -0.43855888 0.02503765 -0.09503109
v -0.43969971 0.04700159 -0.06755839
v -0.47758490 0.00503477 0.21349898
v -0.47675306 0.01355141 0.21349898
v -0.47558844 0.01500820 0.20495602
v -0.47661045 -0.01496810 0.21349898
v -0.39040616 0.10140717 -0.39495674
v -0.38322842 0.12505202 -0.39495674
v -0.39879605 0.08611085 -0.36496416
v -0.39660946 0.08504628 -0.38493872
v -0.46011588 0.09053726 0.13888633
v -0.45022866 0.09081741 0.05806620
v -0.43066812 0.09227420 -0.09503109
v -0.46629542 0.08504628 0.18498147
v -0.45971185 0.08728749 0.13218719
v -0.45082283 0.04588098 0.02407873
v -0.46869591 0.08504628 0.20495602
v -0.37355509 0.15497229 -0.39495674
v -0.38448811 0.12505202 -0.38493872
v -0.37959200 0.14864084 -0.36674652
v -0.37999606 0.14998558 -0.36004734
v -0.37963954 0.15900648 -0.33730710
v -0.38006735 0.16012709 -0.33066940
v -0.33436269 0.22495434 -0.40497473
v -0.33959150 0.21918321 -0.39680055
v -0.33681074 0.22400182 -0.39409629
v -0.33053616 0.23061341 -0.40497473
v -0.32143325 0.24170744 -0.40497473
v -0.30020899 0.27022696 -0.39120767
v -0.29633489 0.28552327 -0.33497161
v -0.30807596 0.29762584 -0.19496533
v -0.31993589 0.31992596 0.00035510
v -0.28837281 0.29863441 -0.30497906
v -0.27501553 0.30496585 -0.33497161
v -0.30952579 0.31958979 -0.05741746
v -0.32830203 0.33858413 0.16494545
v -0.26270404 0.35219949 -0.09503109
v -0.25429040 0.36676744 -0.04549419
v -0.23480114 0.35987568 -0.18494733
v -0.23480114 0.35124701 -0.24499393
v -0.27408862 0.38626602 0.18559608
v -0.28350049 0.38284817 0.21349898
v -0.27316171 0.39130878 0.21349898
v -0.37072679 0.16135976 -0.39495674
v -0.34981149 0.19962856 -0.39852142
v -0.47035962 0.04431213 0.18541169
v -0.47661045 0.01500820 0.21349898
v -0.47380590 0.04352770 0.21349898
v -0.46964660 0.08504628 0.21288440
v -0.39161831 0.12594850 -0.32575259
v -0.42964610 0.09888580 -0.08722565
v -0.46967036 0.08543849 0.21349898
v -0.46860084 0.09199405 0.21349898
v -0.46822056 0.09423527 0.21349898
v -0.46698466 0.09501970 0.20495602
v -0.46049616 0.09193802 0.14497089
v -0.46534473 0.10504915 0.21349898
v -0.46040109 0.10135113 0.16494545
v -0.44870755 0.09451542 0.05480882
v -0.38981199 0.15939869 -0.25863808
v -0.44305092 0.17497516 0.20495602
v -0.44150603 0.17575958 0.19450781
v -0.43986607 0.17962569 0.19088164
v -0.39023980 0.16051930 -0.25193891
v -0.41003802 0.17010051 -0.07044702
v -0.34004310 0.22002366 -0.39016283
v -0.33987671 0.22977296 -0.34904599
v -0.33942515 0.22910058 -0.35494617
v -0.33210480 0.23251845 -0.38493872
v -0.33286536 0.23347096 -0.37498218
v -0.33740491 0.24680620 -0.27498648
v -0.32989442 0.30984050 0.01080333
v -0.33985296 0.32978731 0.18104801
v -0.32383373 0.31594780 0.00416563
v -0.33008456 0.33001146 0.11958783
v -0.33205727 0.34166580 0.20495602
v -0.32678089 0.34732485 0.21349898
v -0.28052959 0.37040943 0.11725236
v -0.35549188 0.19497803 -0.37498218
v -0.40067369 0.17127715 -0.13498020
v -0.42156520 0.18293148 0.06494974
v -0.37966332 0.16937211 -0.29754236
v -0.47064483 0.07563315 0.21349898
v -0.46971792 0.08504628 0.21349898
v -0.42322892 0.12505202 -0.07505654
v -0.45117936 0.11547081 0.12536511
v -0.46574876 0.10353632 0.21349898
v -0.45084661 0.15278710 0.21349898
v -0.45849970 0.12426759 0.20538625
v -0.45571893 0.12505202 0.18498147
v -0.44409668 0.17497516 0.21349898
v -0.44029391 0.18063423 0.19751933
v -0.43016899 0.18035409 0.11848155
v -0.42767340 0.18422019 0.11510124
v -0.35145143 0.21268366 -0.33497161
v -0.40038848 0.23072547 0.09709341
v -0.39121425 0.24226776 0.07496775
v -0.39660946 0.25498664 0.16494545
v -0.39389998 0.25498664 0.14497089
v -0.34988278 0.22977296 -0.27910432
v -0.36017406 0.24025065 -0.16134661
v -0.39016849 0.26025352 0.13857904
v -0.36984739 0.24977583 -0.04912034
v -0.35050073 0.24058683 -0.22317556
v -0.34073234 0.24086699 -0.28494301
v -0.34781504 0.24731049 -0.20498334
v -0.35299632 0.26361537 -0.08501308
v -0.35097608 0.28115290 -0.00505339
v -0.35508785 0.29499242 0.09494231
v -0.35028684 0.32031816 0.19825688
v -0.34310910 0.33191648 0.21349898
v -0.34168303 0.33202857 0.20495602
v -0.34234852 0.33281296 0.21349898
v -0.33785650 0.33779967 0.21349898
v -0.33284158 0.34233814 0.21349898
v -0.42800617 0.19626674 0.16494545
v -0.41999656 0.20999420 0.15996718
v -0.44129211 0.18287545 0.21349898
v -0.43896294 0.18786217 0.21349898
v -0.43525520 0.19497803 0.21349898
v -0.43135735 0.19251269 0.17496347
v -0.40167192 0.25313765 0.19499949
v -0.40188581 0.25549093 0.20587793
v -0.39955661 0.25913292 0.20317367
v -0.38969314 0.25946909 0.13194132
v -0.35969871 0.23946622 -0.16804577
v -0.40000820 0.25997338 0.20987284
v -0.40024588 0.26042163 0.21349898
v -0.39701349 0.26535231 0.21349898
v -0.39195105 0.27235609 0.21349898
v -0.39128557 0.27157170 0.20495602
v -0.39007342 0.27011490 0.18934515
v -0.38047141 0.26058972 0.07681156
v -0.38165978 0.27201992 0.14497089
v -0.35244966 0.25296956 -0.14499821
v -0.38719758 0.27655840 0.20495602
v -0.35083348 0.32250339 0.21349898
v -0.43024030 0.20046902 0.19807249
v -0.42341906 0.21498092 0.20495602
v -0.42139882 0.22092015 0.21349898
v -0.41094118 0.24047478 0.21349898
v -0.40314549 0.25504267 0.21349898
f 1 2 3
f 1 3 4
f 1 4 5
f 1 5 13
f 1 13 25
f 1 25 24
f 1 24 39
f 1 39 66
f 1 66 103
f 1 103 157
f 1 157 156
f 1 156 219
f 1 219 256
f 1 256 200
f 1 200 131
f 1 131 87
f 1 87 55
f 1 55 51
f 1 51 32
f 1 32 17
f 1 17 9
f 1 9 6
f 1 6 2
f 2 7 8
f 2 8 3
f 2 6 9
f 2 9 10
f 2 10 11
f 2 11 7
f 3 8 14
f 3 14 26
f 3 26 41
f 3 41 69
f 3 69 106
f 3 106 105
f 3 105 138
f 3 138 91
f 3 91 60
f 3 60 37
f 3 37 22
f 3 22 12
f 3 12 4
f 4 12 5
f 5 12 13
f 7 14 8
f 7 11 15
f 7 15 16
f 7 16 14
f 9 17 18
f 9 18 10
f 10 19 11
f 10 18 20
f 10 20 19
f 11 19 21
f 11 21 15
f 12 22 23
f 12 23 24
f 12 24 25
f 12 25 13
f 14 16 31
f 14 31 26
f 15 21 27
f 15 27 28
f 15 28 29
f 15 29 30
f 15 30 16
f 16 30 49
f 16 49 31
f 17 32 33
f 17 33 34
f 17 34 18
f 18 34 20
f 19 20 21
f 20 35 21
f 20 34 35
f 21 35 36
f 21 36 27
f 22 37 63
f 22 63 38
f 22 38 64
f 22 64 96
f 22 96 145
f 22 145 211
f 22 211 271
f 22 271 278
f 22 278 277
f 22 277 325
f 22 325 324
f 22 324 272
f 22 272 212
f 22 212 147
f 22 147 146
f 22 146 97
f 22 97 65
f 22 65 39
f 22 39 24
f 22 24 23
f 26 31 40
f 26 40 41
f 27 29 28
f 27 36 42
f 27 42 43
f 27 43 44
f 27 44 45
f 27 45 46
f 27 46 47
f 27 47 48
f 27 48 29
f 29 48 30
f 30 48 76
f 30 76 49
f 31 50 40
f 31 49 50
f 32 51 33
f 33 52 53
f 33 53 54
f 33 54 34
f 33 51 55
f 33 55 52
f 34 54 53
f 34 53 56
f 34 56 57
f 34 57 58
f 34 58 59
f 34 59 35
f 35 59 36
f 36 59 42
f 37 60 61
f 37 61 62
f 37 62 63
f 38 63 64
f 39 65 101
f 39 101 153
f 39 153 216
f 39 216 215
f 39 215 275
f 39 275 328
f 39 328 327
f 39 327 362
f 39 362 400
f 39 400 399
f 39 399 398
f 39 398 396
f 39 396 422
f 39 422 415
f 39 415 414
f 39 414 413
f 39 413 427
f 39 427 426
f 39 426 425
f 39 425 405
f 39 405 404
f 39 404 403
f 39 403 376
f 39 376 373
f 39 373 342
f 39 342 372
f 39 372 339
f 39 339 338
f 39 338 337
f 39 337 369
f 39 369 368
f 39 368 333
f 39 333 332
f 39 332 289
f 39 289 288
f 39 288 240
f 39 240 291
f 39 291 284
f 39 284 228
f 39 228 227
f 39 227 175
f 39 175 172
f 39 172 217
f 39 217 154
f 39 154 102
f 39 102 66
f 40 67 41
f 40 50 68
f 40 68 67
f 41 67 69
f 42 59 70
f 42 70 71
f 42 71 72
f 42 72 43
f 43 73 44
f 43 72 73
f 44 46 45
f 44 73 46
f 46 73 74
f 46 74 118
f 46 118 75
f 46 75 47
f 47 75 48
f 48 75 77
f 48 77 120
f 48 120 76
f 49 76 78
f 49 78 50
f 50 78 79
f 50 79 80
f 50 80 81
f 50 81 68
f 52 55 82
f 52 82 83
f 52 83 84
f 52 84 53
f 53 85 56
f 53 84 86
f 53 86 85
f 55 87 82
f 56 58 57
f 56 85 86
f 56 86 88
f 56 88 58
f 58 88 89
f 58 89 90
f 58 90 59
f 59 90 70
f 60 91 92
f 60 92 61
f 61 92 62
f 62 92 93
f 62 93 63
f 63 93 94
f 63 94 95
f 63 95 96
f 63 96 64
f 65 97 98
f 65 98 99
f 65 99 100
f 65 100 101
f 66 102 103
f 67 104 105
f 67 105 106
f 67 106 69
f 67 68 107
f 67 107 108
f 67 108 104
f 68 81 109
f 68 109 107
f 70 110 71
f 70 90 111
f 70 111 112
f 70 112 113
f 70 113 114
f 70 114 110
f 71 110 72
f 72 115 73
f 72 110 116
f 72 116 115
f 73 115 74
f 74 115 117
f 74 117 118
f 75 118 77
f 76 119 80
f 76 80 78
f 76 120 121
f 76 121 119
f 77 118 122
f 77 122 123
f 77 123 124
f 77 124 185
f 77 185 120
f 78 80 79
f 80 125 81
f 80 119 126
f 80 126 127
f 80 127 128
f 80 128 125
f 81 125 129
f 81 129 130
f 81 130 109
f 82 87 131
f 82 131 83
f 83 131 84
f 84 131 132
f 84 132 133
f 84 133 134
f 84 134 86
f 86 135 136
f 86 136 88
f 86 134 137
f 86 137 135
f 88 136 89
f 89 136 111
f 89 111 90
f 91 138 139
f 91 139 92
f 92 139 140
f 92 140 141
f 92 141 93
f 93 141 94
f 94 141 142
f 94 142 95
f 95 142 143
f 95 143 96
f 96 143 144
f 96 144 145
f 97 146 98
f 98 146 147
f 98 147 148
f 98 148 99
f 99 149 150
f 99 150 151
f 99 151 100
f 99 148 152
f 99 152 149
f 100 151 150
f 100 150 101
f 101 150 153
f 102 154 155
f 102 155 133
f 102 133 156
f 102 156 157
f 102 157 103
f 104 108 158
f 104 158 105
f 105 159 160
f 105 160 138
f 105 158 161
f 105 161 162
f 105 162 159
f 107 109 130
f 107 130 163
f 107 163 108
f 108 164 158
f 108 163 165
f 108 165 166
f 108 166 164
f 110 114 167
f 110 167 168
f 110 168 116
f 111 136 169
f 111 169 112
f 112 170 113
f 112 169 135
f 112 135 170
f 113 170 171
f 113 171 172
f 113 172 173
f 113 173 174
f 113 174 114
f 114 174 175
f 114 175 176
f 114 176 167
f 115 177 117
f 115 116 178
f 115 178 177
f 116 168 179
f 116 179 180
f 116 180 181
f 116 181 178
f 117 177 182
f 117 182 118
f 118 182 122
f 119 121 126
f 120 183 184
f 120 184 121
f 120 185 186
f 120 186 183
f 121 184 195
f 121 195 126
f 122 182 177
f 122 177 187
f 122 187 188
f 122 188 123
f 123 189 190
f 123 190 191
f 123 191 124
f 123 188 189
f 124 191 192
f 124 192 237
f 124 237 185
f 125 193 129
f 125 128 194
f 125 194 193
f 126 195 196
f 126 196 197
f 126 197 127
f 127 197 128
f 128 197 196
f 128 196 198
f 128 198 194
f 129 199 130
f 129 193 199
f 130 199 163
f 131 200 201
f 131 201 132
f 132 201 133
f 133 201 156
f 133 155 202
f 133 202 170
f 133 170 134
f 134 170 135
f 134 135 137
f 135 169 136
f 138 160 139
f 139 160 159
f 139 159 203
f 139 203 204
f 139 204 140
f 140 204 205
f 140 205 206
f 140 206 141
f 141 206 142
f 142 206 143
f 143 206 144
f 144 206 145
f 145 206 207
f 145 207 208
f 145 208 209
f 145 209 210
f 145 210 211
f 147 212 152
f 147 152 148
f 149 213 150
f 149 152 214
f 149 214 213
f 150 215 216
f 150 216 153
f 150 213 215
f 152 212 214
f 154 217 218
f 154 218 202
f 154 202 155
f 156 201 219
f 158 164 161
f 159 162 203
f 161 164 220
f 161 220 221
f 161 221 222
f 161 222 223
f 161 223 162
f 162 223 203
f 163 199 224
f 163 224 165
f 164 166 225
f 164 225 220
f 165 226 166
f 165 224 226
f 166 226 225
f 167 176 179
f 167 179 168
f 170 202 218
f 170 218 172
f 170 172 171
f 172 218 217
f 172 175 174
f 172 174 173
f 175 227 176
f 176 227 228
f 176 228 179
f 177 178 229
f 177 229 190
f 177 190 187
f 178 181 229
f 179 228 180
f 180 228 230
f 180 230 181
f 181 230 190
f 181 190 229
f 183 231 232
f 183 232 233
f 183 233 234
f 183 234 184
f 183 186 235
f 183 235 231
f 184 234 236
f 184 236 195
f 185 237 238
f 185 238 186
f 186 238 235
f 187 190 189
f 187 189 188
f 190 230 239
f 190 239 191
f 191 239 291
f 191 291 240
f 191 240 192
f 192 240 288
f 192 288 237
f 193 241 199
f 193 194 242
f 193 242 243
f 193 243 241
f 194 198 244
f 194 244 242
f 195 236 245
f 195 245 196
f 196 245 198
f 198 246 247
f 198 247 244
f 198 245 248
f 198 248 249
f 198 249 250
f 198 250 246
f 199 251 252
f 199 252 253
f 199 253 254
f 199 254 255
f 199 255 224
f 199 241 251
f 200 256 201
f 201 256 219
f 203 223 204
f 204 257 205
f 204 223 257
f 205 257 258
f 205 258 259
f 205 259 260
f 205 260 261
f 205 261 262
f 205 262 206
f 206 262 208
f 206 208 263
f 206 263 207
f 207 263 208
f 208 262 264
f 208 264 265
f 208 265 266
f 208 266 267
f 208 267 268
f 208 268 209
f 209 268 210
f 210 268 269
f 210 269 211
f 211 269 270
f 211 270 271
f 212 272 273
f 212 273 214
f 213 274 275
f 213 275 215
f 213 214 276
f 213 276 274
f 214 273 277
f 214 277 278
f 214 278 271
f 214 271 279
f 214 279 276
f 220 225 260
f 220 260 221
f 221 260 259
f 221 259 222
f 222 259 258
f 222 258 257
f 222 257 223
f 224 225 226
f 224 255 280
f 224 280 281
f 224 281 282
f 224 282 225
f 225 282 283
f 225 283 260
f 228 284 239
f 228 239 230
f 231 235 232
f 232 235 285
f 232 285 233
f 233 245 236
f 233 236 234
f 233 285 286
f 233 286 287
f 233 287 245
f 235 238 285
f 237 288 238
f 238 288 289
f 238 289 290
f 238 290 285
f 239 284 291
f 241 252 251
f 241 243 292
f 241 292 293
f 241 293 253
f 241 253 252
f 242 294 295
f 242 295 243
f 242 244 247
f 242 247 296
f 242 296 297
f 242 297 298
f 242 298 294
f 243 295 292
f 245 287 249
f 245 249 248
f 246 250 299
f 246 299 247
f 247 299 300
f 247 300 296
f 249 287 301
f 249 301 250
f 250 301 302
f 250 302 299
f 253 303 255
f 253 255 254
f 253 293 304
f 253 304 305
f 253 305 306
f 253 306 303
f 255 303 307
f 255 307 308
f 255 308 280
f 260 283 309
f 260 309 310
f 260 310 311
f 260 311 312
f 260 312 313
f 260 313 261
f 261 264 262
f 261 313 312
f 261 312 314
f 261 314 315
f 261 315 316
f 261 316 267
f 261 267 266
f 261 266 265
f 261 265 264
f 267 316 317
f 267 317 268
f 268 317 318
f 268 318 269
f 269 319 271
f 269 271 270
f 269 318 319
f 271 319 320
f 271 320 321
f 271 321 322
f 271 322 323
f 271 323 276
f 271 276 279
f 272 324 273
f 273 324 325
f 273 325 277
f 274 326 327
f 274 327 328
f 274 328 275
f 274 276 323
f 274 323 326
f 280 329 330
f 280 330 282
f 280 282 281
f 280 308 329
f 282 330 310
f 282 310 283
f 283 310 309
f 285 290 331
f 285 331 301
f 285 301 286
f 286 301 287
f 289 332 290
f 290 332 333
f 290 333 334
f 290 334 302
f 290 302 331
f 292 295 294
f 292 294 335
f 292 335 304
f 292 304 293
f 294 298 336
f 294 336 335
f 296 300 334
f 296 334 337
f 296 337 338
f 296 338 339
f 296 339 340
f 296 340 341
f 296 341 297
f 297 341 340
f 297 340 342
f 297 342 343
f 297 343 344
f 297 344 298
f 298 344 343
f 298 343 336
f 299 302 300
f 300 302 334
f 301 331 302
f 303 306 307
f 304 335 305
f 305 345 306
f 305 335 346
f 305 346 347
f 305 347 348
f 305 348 345
f 306 345 307
f 307 345 308
f 308 345 349
f 308 349 350
f 308 350 329
f 310 330 351
f 310 351 352
f 310 352 353
f 310 353 311
f 311 353 312
f 312 353 352
f 312 352 354
f 312 354 314
f 314 316 315
f 314 354 355
f 314 355 356
f 314 356 357
f 314 357 316
f 316 357 358
f 316 358 359
f 316 359 317
f 317 359 358
f 317 358 360
f 317 360 321
f 317 321 320
f 317 320 318
f 318 320 319
f 321 360 361
f 321 361 362
f 321 362 327
f 321 327 326
f 321 326 363
f 321 363 323
f 321 323 322
f 323 363 326
f 329 364 330
f 329 350 365
f 329 365 366
f 329 366 367
f 329 367 364
f 330 364 351
f 333 368 334
f 334 368 369
f 334 369 337
f 335 336 370
f 335 370 346
f 336 343 371
f 336 371 370
f 339 372 340
f 340 372 342
f 342 373 346
f 342 346 374
f 342 374 375
f 342 375 371
f 342 371 343
f 345 348 350
f 345 350 349
f 346 375 374
f 346 373 376
f 346 376 348
f 346 348 347
f 346 370 375
f 348 376 377
f 348 377 378
f 348 378 350
f 350 378 379
f 350 379 365
f 351 364 380
f 351 380 381
f 351 381 382
f 351 382 383
f 351 383 384
f 351 384 385
f 351 385 352
f 352 385 386
f 352 386 387
f 352 387 388
f 352 388 389
f 352 389 354
f 354 389 355
f 355 389 390
f 355 390 356
f 356 390 391
f 356 391 392
f 356 392 393
f 356 393 357
f 357 393 394
f 357 394 395
f 357 395 358
f 358 395 396
f 358 396 397
f 358 397 360
f 360 397 398
f 360 398 399
f 360 399 400
f 360 400 361
f 361 400 362
f 364 367 401
f 364 401 402
f 364 402 380
f 365 379 366
f 366 379 401
f 366 401 367
f 370 371 375
f 376 403 377
f 377 403 404
f 377 404 378
f 378 404 405
f 378 405 379
f 379 405 406
f 379 406 401
f 380 402 381
f 381 402 407
f 381 407 383
f 381 383 382
f 383 407 408
f 383 408 409
f 383 409 384
f 384 409 410
f 384 410 385
f 385 411 386
f 385 410 387
f 385 387 411
f 386 411 387
f 387 410 409
f 387 409 412
f 387 412 413
f 387 413 414
f 387 414 415
f 387 415 416
f 387 416 417
f 387 417 418
f 387 418 388
f 388 418 389
f 389 391 390
f 389 418 417
f 389 417 391
f 391 417 419
f 391 419 420
f 391 420 392
f 392 419 394
f 392 394 393
f 392 420 419
f 394 419 395
f 395 417 421
f 395 421 422
f 395 422 396
f 395 419 417
f 396 398 397
f 401 406 405
f 401 405 423
f 401 423 424
f 401 424 402
f 402 424 407
f 405 425 424
f 405 424 423
f 407 424 408
f 408 424 425
f 408 425 426
f 408 426 427
f 408 427 412
f 408 412 409
f 412 427 413
f 415 422 421
f 415 421 416
f 416 421 417

