# https://github.com/mikedh/trimesh
v 0.00499687 0.47758526 0.21349898
v -0.00500976 0.47758526 0.21349898
v 0.01646601 0.47646469 0.21349898
v 0.01496501 0.47559312 0.20495602
v 0.00499687 0.47416127 0.18498147
v 0.00149455 0.47011474 0.14878142
v -0.01501639 0.47559312 0.20495602
v -0.03352866 0.47478381 0.21349898
v -0.00154593 0.47011474 0.14878142
v -0.00500976 0.47416127 0.18498147
v 0.05499154 0.47266716 0.21349898
v 0.07927686 0.46992797 0.21054891
v 0.00499687 0.46214616 0.08498576
v 0.08497294 0.46388930 0.16494545
v 0.04417668 0.43917426 -0.07419609
v 0.03497827 0.44838792 -0.00505339
v 0.02497164 0.44216248 -0.06503852
v 0.01442619 0.41925284 -0.26429242
v 0.00399621 0.44913498 -0.02404459
v 0.00122514 0.41010144 -0.35095125
v -0.00000644 0.44994429 -0.02004968
v -0.02502302 0.44216248 -0.06503852
v -0.03502965 0.44838792 -0.00505339
v -0.08498583 0.46388930 0.16494545
v -0.08540919 0.46967894 0.21349898
v -0.00574102 0.46077657 0.07416876
v -0.01524731 0.40947890 -0.34498963
v -0.00404758 0.44913498 -0.02404459
v -0.00004493 0.44994429 -0.02004968
v -0.00127652 0.41010144 -0.35095125
v -0.00500976 0.46214616 0.08498576
v 0.07515875 0.47067502 0.21349898
v 0.08497294 0.46961671 0.21288440
v 0.08497294 0.46868289 0.20495602
v 0.00499687 0.42249009 -0.24499393
v 0.08724367 0.45971823 0.13218719
v 0.07538967 0.40954116 -0.29514542
v 0.07496631 0.43363363 -0.09503109
v 0.06572942 0.39964271 -0.38543040
v 0.03497827 0.41234261 -0.30497906
v 0.01519594 0.40947890 -0.34498963
v 0.00499687 0.40686423 -0.37498218
v 0.00499687 0.40443629 -0.39495674
v 0.00499687 0.40319121 -0.40497473
v -0.07497920 0.43363363 -0.09503109
v -0.03502965 0.41234261 -0.30497906
v -0.08725657 0.45971823 0.13218719
v -0.07540256 0.40954116 -0.29514542
v -0.09422272 0.46818486 0.21349898
v -0.09048948 0.46009177 0.13888633
v -0.00500976 0.42249009 -0.24499393
v -0.00793478 0.40979019 -0.34830847
v -0.00500976 0.40686423 -0.37498218
v -0.02502302 0.40250641 -0.39495674
v -0.02502302 0.40611717 -0.36496416
v -0.00500976 0.40319121 -0.40497473
v -0.00500976 0.40443629 -0.39495674
v 0.07639033 0.47055051 0.21349898
v 0.08497294 0.46967894 0.21349898
v 0.08670486 0.46942994 0.21349898
v 0.09047658 0.46009177 0.13888633
v 0.08839829 0.44981977 0.05136704
v 0.07900745 0.40985245 -0.28918377
v 0.07496631 0.40356475 -0.34498963
v 0.06957813 0.39995396 -0.37965316
v 0.07496631 0.39746380 -0.39495674
v 0.06499816 0.39852214 -0.39495674
v 0.04144410 0.40014076 -0.40116420
v 0.04498491 0.40294218 -0.37498218
v 0.02497164 0.40611717 -0.36496416
v 0.02497164 0.40250641 -0.39495674
v 0.01496501 0.40225738 -0.40497473
v 0.03066772 0.40001625 -0.41007593
v 0.02497164 0.40032750 -0.41044471
v 0.00499687 0.40126133 -0.41142806
v -0.06574231 0.39964271 -0.38543040
v -0.08841117 0.44981977 0.05136704
v -0.07902034 0.40985245 -0.28918377
v -0.06959102 0.39995396 -0.37965316
v -0.07497920 0.40356475 -0.34498963
v -0.09499246 0.46700200 0.20495602
v -0.10499909 0.46532115 0.21349898
v -0.09075889 0.45019332 0.05806620
v -0.01501639 0.40225738 -0.40497473
v -0.04145699 0.40014076 -0.40116420
v -0.00500976 0.40126133 -0.41142806
v -0.02502302 0.40032750 -0.41044471
v -0.03068062 0.40001625 -0.41007593
v 0.09420983 0.46818486 0.21349898
v 0.09497958 0.46700200 0.20495602
v 0.09078448 0.45019332 0.05806620
v 0.08000811 0.39995396 -0.37000391
v 0.07496631 0.40026525 -0.37227792
v 0.07496631 0.39870888 -0.38493872
v 0.08497294 0.39397755 -0.40497473
v 0.07496631 0.39596969 -0.40497473
v 0.03440097 0.40038976 -0.40466744
v 0.08497294 0.39161187 -0.41161245
v 0.07496631 0.39248344 -0.41216558
v 0.01496501 0.40076327 -0.41099784
v 0.00499687 0.39497364 -0.41364062
v -0.06497256 0.39852214 -0.39495674
v -0.07497920 0.39746380 -0.39495674
v -0.07998252 0.39995396 -0.37000391
v -0.07497920 0.40026525 -0.37227792
v -0.07497920 0.39870888 -0.38493872
v -0.10018821 0.46002951 0.15947551
v -0.10338263 0.46102560 0.17496347
v -0.10499909 0.46426281 0.20495602
v -0.11346624 0.46276870 0.21349898
v -0.09075889 0.44023260 -0.02195495
v -0.03441386 0.40038976 -0.40466744
v -0.00500976 0.39497364 -0.41364062
v -0.07497920 0.39248344 -0.41216558
v -0.01501639 0.40076327 -0.41099784
v -0.08498583 0.39161187 -0.41161245
v -0.07497920 0.39596969 -0.40497473
v 0.10498620 0.46532115 0.21349898
v 0.10017531 0.46002951 0.15947551
v 0.10336975 0.46102560 0.17496347
v 0.09078448 0.44023260 -0.02195495
v 0.08397228 0.39827311 -0.37399882
v 0.08497294 0.39534715 -0.39495674
v 0.09528746 0.39105159 -0.40429869
v 0.12977186 0.37984580 -0.40952280
v 0.09213153 0.39061582 -0.41075200
v 0.12311359 0.38090414 -0.41099784
v 0.11499283 0.38202471 -0.41185829
v 0.08497294 0.38495064 -0.41382501
v 0.07496631 0.38495064 -0.41431668
v 0.06499816 0.38495064 -0.41437814
v -0.08498583 0.39397755 -0.40497473
v -0.08498583 0.39534715 -0.39495674
v -0.08398516 0.39827311 -0.37399882
v -0.10838595 0.44950852 0.09494231
v -0.14864340 0.42958710 0.03323629
v -0.15499376 0.43662184 0.10496031
v -0.15811121 0.43942329 0.13495287
v -0.16496190 0.44608453 0.20495602
v -0.09499246 0.43232629 -0.07505654
v -0.16496190 0.44714284 0.21349898
v -0.06497256 0.38495064 -0.41437814
v -0.07497920 0.38495064 -0.41431668
v -0.08498583 0.38495064 -0.41382501
v -0.09214441 0.39061582 -0.41075200
v -0.11496723 0.38202471 -0.41185829
v -0.12312648 0.38090414 -0.41099784
v 0.11633987 0.46189713 0.21349898
v 0.10498620 0.46426281 0.20495602
v 0.14589792 0.45293251 0.21349898
v 0.14435846 0.43861398 0.09506523
v 0.10960465 0.44988203 0.10090395
v 0.09497958 0.43232629 -0.07505654
v 0.09497958 0.39733928 -0.35494617
v 0.10021380 0.39005554 -0.40048814
v 0.12588465 0.38158894 -0.40571228
v 0.13119587 0.38034382 -0.40288511
v 0.14497423 0.37716883 -0.39495674
v 0.14497423 0.37561250 -0.40497473
v 0.15571213 0.37187722 -0.40509766
v 0.15836772 0.37032086 -0.40749460
v 0.15836772 0.36988509 -0.40903112
v 0.15286407 0.37119243 -0.41118222
v 0.14497423 0.37237525 -0.41198120
v 0.11499283 0.37498993 -0.41400939
v 0.14497423 0.36496699 -0.41419378
v 0.10498620 0.37498993 -0.41437814
v -0.12978473 0.37984580 -0.40952280
v -0.09526187 0.39105159 -0.40429869
v -0.10018821 0.39005554 -0.40048814
v -0.09499246 0.39733928 -0.35494617
v -0.12370379 0.42112049 -0.09503109
v -0.10576883 0.40151036 -0.29545271
v -0.11100307 0.39030454 -0.37240085
v -0.14437133 0.38862365 -0.30485612
v -0.15941978 0.39982948 -0.17861693
v -0.16723263 0.42915130 0.07496775
v -0.17962545 0.43985906 0.19088164
v -0.17496854 0.44303405 0.20495602
v -0.17496854 0.44409236 0.21349898
v -0.10499909 0.37498993 -0.41437814
v -0.14498714 0.36496699 -0.41419378
v -0.11496723 0.37498993 -0.41400939
v -0.14498714 0.37237525 -0.41198120
v -0.15287697 0.37119243 -0.41118222
v 0.15779042 0.44932175 0.21349898
v 0.15809831 0.43942329 0.13495287
v 0.14863050 0.42958710 0.03323629
v 0.13923967 0.39976722 -0.22815382
v 0.13781565 0.42933807 0.00496461
v 0.10841154 0.39951819 -0.30497906
v 0.11099017 0.39030454 -0.37240085
v 0.15001604 0.37997031 -0.36004734
v 0.15498087 0.37355810 -0.39495674
v 0.14193377 0.38059285 -0.37498218
v 0.14435846 0.38862365 -0.30485612
v 0.15498087 0.40287995 -0.16497277
v 0.15836772 0.41078624 -0.09349459
v 0.15836772 0.38999325 -0.25968289
v 0.15836772 0.37934774 -0.34099472
v 0.15836772 0.37150371 -0.39925894
v 0.15836772 0.37094343 -0.40331531
v 0.15836772 0.36502925 -0.41234997
v 0.15836772 0.36266357 -0.41296455
v 0.15836772 0.35494402 -0.41431668
v 0.13496760 0.36496699 -0.41437814
v -0.15953523 0.36963606 -0.40853944
v -0.15572500 0.37187722 -0.40509766
v -0.14498714 0.37561250 -0.40497473
v -0.14498714 0.37716883 -0.39495674
v -0.13120876 0.38034382 -0.40288511
v -0.12585907 0.38158894 -0.40571228
v -0.14194664 0.38059285 -0.37498218
v -0.15941978 0.38980651 -0.25863808
v -0.18066460 0.44029486 0.19751933
v -0.17008066 0.41003919 -0.07044702
v -0.18285838 0.44129092 0.21349898
v -0.13498050 0.36496699 -0.41437814
v -0.16496190 0.35494402 -0.41419378
v -0.16496190 0.36322385 -0.41198120
v -0.21499506 0.32499963 -0.41437814
v -0.17250535 0.36129397 -0.41118222
v 0.15836772 0.44913498 0.21349898
v 0.15836772 0.44807667 0.20495602
v 0.15836772 0.43133020 0.07091139
v 0.13554490 0.39130062 -0.30485612
v 0.15767497 0.37909874 -0.34498963
v 0.15836772 0.37990806 -0.33681542
v 0.15498087 0.35494402 -0.41437814
v 0.15836772 0.35158229 -0.41437814
v -0.16045892 0.37025863 -0.40190172
v -0.19205678 0.35108423 -0.41105929
v -0.21164668 0.34087452 -0.41087490
v -0.21310920 0.34162158 -0.40497473
v -0.15499376 0.37355810 -0.39495674
v -0.16015102 0.38003254 -0.33066940
v -0.15002893 0.37997031 -0.36004734
v -0.16049740 0.39024228 -0.25193891
v -0.15903489 0.37959677 -0.33730710
v -0.18786168 0.43892527 0.21349898
v -0.18035671 0.43014738 0.11848155
v -0.17404485 0.40742451 -0.07425755
v -0.18420541 0.42224106 0.07496775
v -0.18497515 0.34498331 -0.41407084
v -0.20498842 0.33496034 -0.41394794
v -0.21495655 0.33527160 -0.41228849
v -0.20498842 0.34243089 -0.41173536
v -0.22496319 0.31497666 -0.41437814
v -0.23473892 0.31497666 -0.41376355
v -0.22496319 0.32499963 -0.41333333
v 0.15836772 -0.15840608 0.21349898
v 0.15836772 0.34498331 -0.41437814
v -0.21919015 0.33956718 -0.39680055
v -0.20260224 0.35139552 -0.37498218
v -0.17431426 0.36783069 -0.36527148
v -0.16580862 0.37237525 -0.36527148
v -0.16842574 0.37916100 -0.30497906
v -0.22496319 0.33166087 -0.41112077
v -0.23008198 0.33004224 -0.41007593
v -0.21811250 0.33875787 -0.40497473
v -0.19498178 0.43525225 0.21349898
v -0.18955511 0.42977387 0.15160859
v -0.23473892 0.30495369 -0.41437814
v -0.23473892 0.31721783 -0.41314894
v -0.23473892 0.32400358 -0.41124368
v -0.23404613 0.32437709 -0.41130513
v -0.23473892 -0.15840608 0.21349898
v 0.15836772 -0.15840608 -0.38752005
v -0.23473892 0.29493076 -0.41431668
v -0.22496319 0.30495369 -0.41437814
v -0.20887560 0.34940338 -0.36496416
v -0.22496319 0.33433780 -0.40497473
v -0.22400102 0.33676571 -0.39409629
v -0.22908130 0.33938041 -0.35494617
v -0.22977409 0.33981621 -0.34904599
v -0.22003686 0.34000295 -0.39016283
v -0.22977409 0.34983915 -0.27910432
v -0.23362279 0.36191651 -0.17499077
v -0.23473892 0.37218851 -0.09490817
v -0.22600234 0.35786998 -0.23497590
v -0.23092869 0.39049131 0.02493917
v -0.19706008 0.35843027 -0.34498963
v -0.21499506 0.40443629 0.06494974
v -0.20229432 0.41122204 0.06494974
v -0.23062080 0.33047801 -0.40497473
v -0.23473892 0.32711628 -0.40497473
v -0.20133215 0.43070766 0.20495602
v -0.22069114 0.42037344 0.20495602
v -0.22176877 0.42093372 0.21349898
v -0.23473892 -0.15840608 -0.38752005
v -0.23473892 0.41396123 0.21349898
v -0.23042837 0.34031421 -0.34240830
v -0.23127508 0.35083523 -0.26496848
v -0.23158297 0.33128732 -0.39495674
v -0.23473892 0.36129397 -0.17499077
v -0.23473892 0.36403316 -0.15495476
v -0.23473892 0.39783734 0.09426624
v -0.23473892 0.40325347 0.13421535
v -0.23123658 0.41066176 0.17496347
v -0.22569445 0.41769651 0.20495602
v -0.23473892 0.33178538 -0.37498218
v -0.23346883 0.33284369 -0.37498218
v -0.22677210 0.41825679 0.21349898
v -0.23473892 0.41271615 0.20409557
v -0.23423856 0.33676571 -0.34541985
v -0.23473892 0.33794856 -0.33497161
v -0.23112112 0.34087452 -0.33497161
v -0.23473892 0.34977689 -0.25495046
v -0.23473892 0.35071072 -0.24849716
v -0.23473892 0.35986212 -0.18494733
v -0.23473892 0.41215584 0.19991630
v -0.23473892 0.33645445 -0.34474379
v -0.23473892 0.34093678 -0.31499705
f 1 2 8
f 1 8 25
f 1 25 49
f 1 49 82
f 1 82 110
f 1 110 141
f 1 141 180
f 1 180 217
f 1 217 240
f 1 240 261
f 1 261 289
f 1 289 303
f 1 303 291
f 1 291 267
f 1 267 251
f 1 251 223
f 1 223 186
f 1 186 150
f 1 150 148
f 1 148 118
f 1 118 89
f 1 89 60
f 1 60 59
f 1 59 58
f 1 58 32
f 1 32 11
f 1 11 3
f 1 3 4
f 1 4 5
f 1 5 6
f 1 6 9
f 1 9 2
f 2 7 8
f 2 9 10
f 2 10 7
f 3 11 12
f 3 12 4
f 4 13 5
f 4 12 14
f 4 14 15
f 4 15 16
f 4 16 17
f 4 17 18
f 4 18 13
f 5 13 19
f 5 19 20
f 5 20 6
f 6 21 29
f 6 29 9
f 6 20 21
f 7 22 23
f 7 23 24
f 7 24 25
f 7 25 8
f 7 10 26
f 7 26 27
f 7 27 22
f 9 28 10
f 9 29 30
f 9 30 28
f 10 28 31
f 10 31 26
f 11 32 12
f 12 32 33
f 12 33 34
f 12 34 14
f 13 18 35
f 13 35 19
f 14 34 36
f 14 36 37
f 14 37 38
f 14 38 15
f 15 38 37
f 15 37 39
f 15 39 40
f 15 40 41
f 15 41 18
f 15 18 16
f 16 18 17
f 18 41 35
f 19 35 20
f 20 35 42
f 20 42 43
f 20 43 44
f 20 44 56
f 20 56 30
f 20 30 29
f 20 29 21
f 22 27 23
f 23 45 24
f 23 27 46
f 23 46 45
f 24 47 25
f 24 45 48
f 24 48 47
f 25 47 50
f 25 50 49
f 26 31 28
f 26 28 51
f 26 51 52
f 26 52 27
f 27 52 53
f 27 53 54
f 27 54 55
f 27 55 46
f 28 30 51
f 30 56 57
f 30 57 53
f 30 53 51
f 32 58 33
f 33 59 60
f 33 60 61
f 33 61 34
f 33 58 59
f 34 61 36
f 35 41 42
f 36 61 62
f 36 62 63
f 36 63 37
f 37 63 64
f 37 64 65
f 37 65 39
f 39 65 66
f 39 66 67
f 39 67 68
f 39 68 69
f 39 69 40
f 40 69 70
f 40 70 41
f 41 70 71
f 41 71 42
f 42 71 72
f 42 72 43
f 43 72 44
f 44 72 73
f 44 73 74
f 44 74 75
f 44 75 86
f 44 86 56
f 45 46 48
f 46 55 76
f 46 76 48
f 47 77 50
f 47 48 78
f 47 78 77
f 48 76 79
f 48 79 80
f 48 80 78
f 49 81 82
f 49 50 81
f 50 77 83
f 50 83 81
f 51 53 52
f 53 57 84
f 53 84 54
f 54 84 85
f 54 85 55
f 55 85 76
f 56 86 87
f 56 87 88
f 56 88 84
f 56 84 57
f 60 89 61
f 61 89 90
f 61 90 91
f 61 91 62
f 62 91 92
f 62 92 63
f 63 92 93
f 63 93 64
f 64 93 65
f 65 93 94
f 65 94 66
f 66 95 96
f 66 96 73
f 66 73 68
f 66 68 67
f 66 94 92
f 66 92 95
f 68 73 97
f 68 97 72
f 68 72 71
f 68 71 70
f 68 70 69
f 72 97 73
f 73 96 98
f 73 98 99
f 73 99 74
f 74 99 100
f 74 100 75
f 75 100 99
f 75 99 101
f 75 101 113
f 75 113 86
f 76 85 102
f 76 102 103
f 76 103 79
f 77 78 104
f 77 104 83
f 78 80 105
f 78 105 104
f 79 103 106
f 79 106 105
f 79 105 80
f 81 107 82
f 81 83 107
f 82 107 108
f 82 108 109
f 82 109 110
f 83 111 108
f 83 108 107
f 83 104 111
f 84 88 112
f 84 112 85
f 85 112 88
f 85 88 103
f 85 103 102
f 86 113 114
f 86 114 115
f 86 115 87
f 87 115 114
f 87 114 88
f 88 114 116
f 88 116 117
f 88 117 103
f 89 118 90
f 90 118 119
f 90 119 91
f 91 119 120
f 91 120 121
f 91 121 92
f 92 122 123
f 92 123 95
f 92 94 93
f 92 121 122
f 95 123 124
f 95 124 125
f 95 125 126
f 95 126 96
f 96 126 98
f 98 126 127
f 98 127 128
f 98 128 129
f 98 129 99
f 99 129 130
f 99 130 101
f 101 130 131
f 101 131 142
f 101 142 113
f 103 117 132
f 103 132 104
f 103 104 106
f 104 105 106
f 104 132 133
f 104 133 134
f 104 134 111
f 108 135 136
f 108 136 137
f 108 137 138
f 108 138 139
f 108 139 110
f 108 110 109
f 108 111 140
f 108 140 135
f 110 139 141
f 111 134 140
f 113 142 143
f 113 143 114
f 114 143 144
f 114 144 116
f 116 145 117
f 116 144 146
f 116 146 147
f 116 147 145
f 117 145 132
f 118 148 149
f 118 149 120
f 118 120 119
f 120 149 148
f 120 148 150
f 120 150 151
f 120 151 152
f 120 152 153
f 120 153 121
f 121 153 154
f 121 154 122
f 122 154 123
f 123 154 155
f 123 155 124
f 124 155 156
f 124 156 125
f 125 156 157
f 125 157 158
f 125 158 159
f 125 159 160
f 125 160 161
f 125 161 162
f 125 162 163
f 125 163 127
f 125 127 126
f 127 163 164
f 127 164 128
f 128 164 129
f 129 164 165
f 129 165 130
f 130 165 166
f 130 166 167
f 130 167 131
f 131 167 206
f 131 206 229
f 131 229 230
f 131 230 252
f 131 252 270
f 131 270 263
f 131 263 248
f 131 248 221
f 131 221 218
f 131 218 181
f 131 181 142
f 132 145 168
f 132 168 169
f 132 169 133
f 133 169 170
f 133 170 171
f 133 171 134
f 134 171 140
f 135 140 136
f 136 138 137
f 136 140 172
f 136 172 173
f 136 173 174
f 136 174 175
f 136 175 176
f 136 176 138
f 138 176 177
f 138 177 139
f 139 177 178
f 139 178 179
f 139 179 180
f 139 180 141
f 140 171 173
f 140 173 172
f 142 181 143
f 143 181 182
f 143 182 183
f 143 183 144
f 144 183 184
f 144 184 146
f 145 147 168
f 146 184 147
f 147 184 185
f 147 185 168
f 150 186 187
f 150 187 151
f 151 187 188
f 151 188 189
f 151 189 190
f 151 190 152
f 152 190 153
f 153 190 191
f 153 191 154
f 154 191 192
f 154 192 155
f 155 192 158
f 155 158 157
f 155 157 156
f 158 193 194
f 158 194 160
f 158 160 159
f 158 192 195
f 158 195 196
f 158 196 197
f 158 197 198
f 158 198 199
f 158 199 193
f 160 194 200
f 160 200 201
f 160 201 202
f 160 202 161
f 161 202 201
f 161 201 200
f 161 200 228
f 161 228 199
f 161 199 198
f 161 198 225
f 161 225 224
f 161 224 223
f 161 223 251
f 161 251 268
f 161 268 252
f 161 252 230
f 161 230 205
f 161 205 204
f 161 204 203
f 161 203 162
f 162 203 163
f 163 203 164
f 164 203 166
f 164 166 165
f 166 203 204
f 166 204 205
f 166 205 206
f 166 206 167
f 168 185 207
f 168 207 208
f 168 208 209
f 168 209 210
f 168 210 211
f 168 211 212
f 168 212 169
f 169 212 211
f 169 211 170
f 170 174 171
f 170 211 210
f 170 210 174
f 171 174 173
f 174 210 213
f 174 213 175
f 175 213 176
f 176 213 210
f 176 210 214
f 176 214 178
f 176 178 177
f 178 215 180
f 178 180 179
f 178 214 216
f 178 216 215
f 180 215 217
f 181 218 182
f 182 219 220
f 182 220 184
f 182 184 183
f 182 218 221
f 182 221 219
f 184 220 185
f 185 220 222
f 185 222 207
f 186 223 224
f 186 224 187
f 187 224 225
f 187 225 198
f 187 198 188
f 188 198 196
f 188 196 189
f 189 196 226
f 189 226 191
f 189 191 190
f 191 226 195
f 191 195 192
f 193 227 194
f 193 199 227
f 194 227 228
f 194 228 200
f 195 226 196
f 196 198 197
f 199 228 227
f 205 229 206
f 205 230 229
f 207 231 208
f 207 222 232
f 207 232 233
f 207 233 234
f 207 234 231
f 208 235 210
f 208 210 209
f 208 231 236
f 208 236 235
f 210 235 237
f 210 237 214
f 214 238 216
f 214 237 235
f 214 235 239
f 214 239 236
f 214 236 238
f 215 240 217
f 215 216 241
f 215 241 240
f 216 242 243
f 216 243 241
f 216 238 236
f 216 236 231
f 216 231 242
f 219 244 220
f 219 221 244
f 220 244 245
f 220 245 246
f 220 246 247
f 220 247 222
f 221 248 249
f 221 249 250
f 221 250 245
f 221 245 244
f 222 247 232
f 231 234 253
f 231 253 254
f 231 254 255
f 231 255 256
f 231 256 257
f 231 257 242
f 232 247 233
f 233 247 246
f 233 246 258
f 233 258 259
f 233 259 260
f 233 260 234
f 234 260 253
f 235 236 239
f 240 241 261
f 241 262 261
f 241 243 262
f 242 257 243
f 243 257 262
f 245 250 246
f 246 250 258
f 248 263 249
f 249 264 250
f 249 263 269
f 249 269 290
f 249 290 267
f 249 267 291
f 249 291 304
f 249 304 311
f 249 311 298
f 249 298 297
f 249 297 279
f 249 279 296
f 249 296 295
f 249 295 310
f 249 310 309
f 249 309 308
f 249 308 313
f 249 313 306
f 249 306 312
f 249 312 301
f 249 301 286
f 249 286 265
f 249 265 264
f 250 264 265
f 250 265 266
f 250 266 258
f 251 267 290
f 251 290 268
f 252 269 270
f 252 268 269
f 253 271 254
f 253 260 272
f 253 272 273
f 253 273 274
f 253 274 275
f 253 275 276
f 253 276 277
f 253 277 278
f 253 278 279
f 253 279 280
f 253 280 281
f 253 281 271
f 254 271 282
f 254 282 255
f 255 257 256
f 255 282 257
f 257 282 283
f 257 283 284
f 257 284 262
f 258 266 265
f 258 265 259
f 259 285 273
f 259 273 272
f 259 272 260
f 259 265 286
f 259 286 285
f 261 262 287
f 261 287 288
f 261 288 289
f 262 284 288
f 262 288 287
f 263 270 269
f 268 290 269
f 271 281 282
f 273 285 274
f 274 285 275
f 275 292 293
f 275 293 277
f 275 277 276
f 275 285 294
f 275 294 292
f 277 293 295
f 277 295 296
f 277 296 278
f 278 296 279
f 279 297 281
f 279 281 280
f 281 297 298
f 281 298 299
f 281 299 300
f 281 300 288
f 281 288 283
f 281 283 282
f 283 288 284
f 285 286 294
f 286 301 302
f 286 302 294
f 288 300 303
f 288 303 289
f 291 303 304
f 292 294 302
f 292 302 305
f 292 305 306
f 292 306 307
f 292 307 308
f 292 308 309
f 292 309 310
f 292 310 295
f 292 295 293
f 298 311 299
f 299 311 300
f 300 311 304
f 300 304 303
f 301 312 302
f 302 312 305
f 305 312 306
f 306 313 307
f 307 313 308

