# https://github.com/mikedh/trimesh
v -0.46517903 -0.00845734 0.39152396
v -0.46430457 -0.00498206 0.39500043
v -0.46517903 0.01153552 0.39152396
v -0.46516919 -0.01498847 0.39152396
v -0.46429473 -0.01498847 0.39500043
v -0.46152398 -0.00498206 0.40223071
v -0.46430457 0.00500438 0.39500043
v -0.46429473 0.01501080 0.39500043
v -0.46516919 0.01501080 0.39152396
v -0.46502182 -0.01846376 0.39152396
v -0.46151417 -0.01498847 0.40221953
v -0.46473688 -0.02499489 0.39152396
v -0.46385258 -0.02499489 0.39500043
v -0.46129799 -0.02499489 0.40193096
v -0.45720083 -0.00498206 0.40722838
v -0.46152398 0.00500438 0.40223071
v -0.46151417 0.01501080 0.40221953
v -0.46129799 0.02501722 0.40193096
v -0.46385258 0.02501722 0.39500043
v -0.46473688 0.02501722 0.39152396
v -0.45718119 -0.01498847 0.40721720
v -0.46444213 -0.02847017 0.39152396
v -0.46300763 -0.03498133 0.39500043
v -0.46014845 -0.05165869 0.40026206
v -0.46044320 -0.04498775 0.40072069
v -0.46086568 -0.03498133 0.40135154
v -0.45695519 -0.02499489 0.40692863
v -0.45653272 -0.03498133 0.40634921
v -0.45219973 -0.00498206 0.41163769
v -0.45720083 0.00500438 0.40722838
v -0.45718119 0.01501080 0.40721720
v -0.45695519 0.02501722 0.40692863
v -0.45653272 0.03500366 0.40634921
v -0.46086568 0.03500366 0.40135154
v -0.46044320 0.04499010 0.40072069
v -0.46014845 0.05166104 0.40026206
v -0.46300763 0.03500366 0.39500043
v -0.46418667 0.03152838 0.39152396
v -0.45218009 -0.01498847 0.41162652
v -0.45195410 -0.02499489 0.41148335
v -0.46303710 -0.04498775 0.39152396
v -0.46215281 -0.04498775 0.39500043
v -0.45981437 -0.05832964 0.39938065
v -0.45360476 -0.06476091 0.40581456
v -0.45639515 -0.05499416 0.40415463
v -0.45610040 -0.04498775 0.40571836
v -0.45062765 -0.05499416 0.41052139
v -0.45110911 -0.04498775 0.41089275
v -0.45153159 -0.03498133 0.41120148
v -0.44499773 -0.00498206 0.41382784
v -0.45219973 0.00500438 0.41163769
v -0.44499773 -0.01498847 0.41381663
v -0.45218009 0.01501080 0.41162652
v -0.45195410 0.02501722 0.41148335
v -0.45153159 0.03500366 0.41120148
v -0.45110911 0.04499010 0.41089275
v -0.45062765 0.05499652 0.41052139
v -0.45610040 0.04499010 0.40571836
v -0.45639515 0.05499652 0.40415463
v -0.45357528 0.06486312 0.40583244
v -0.45343772 0.07498938 0.40421501
v -0.45261240 0.08499579 0.40341190
v -0.45981437 0.05833199 0.39938065
v -0.46215281 0.04499010 0.39500043
v -0.46303710 0.04499010 0.39152396
v -0.44499773 -0.02499489 0.41367123
v -0.44499773 -0.05499416 0.41271150
v -0.44499773 -0.04498775 0.41308287
v -0.44499773 -0.03498133 0.41338935
v -0.46273249 -0.04846303 0.39152396
v -0.46110150 -0.05499416 0.39562905
v -0.46214297 -0.05499416 0.39152396
v -0.46164191 -0.05884893 0.39152396
v -0.46083620 -0.06476091 0.39162239
v -0.46058077 -0.06476091 0.39264253
v -0.45930347 -0.06476091 0.39746347
v -0.45345736 -0.06476091 0.40597785
v -0.45024449 -0.06144540 0.41020596
v -0.44589186 -0.06476091 0.41181892
v -0.44573465 -0.06476091 0.41188380
v -0.44499773 0.00500438 0.41382784
v -0.43499553 -0.06476091 0.41437590
v -0.44499773 0.01501080 0.41381663
v -0.44499773 0.02501722 0.41367123
v -0.44499773 0.03500366 0.41338935
v -0.44499773 0.04499010 0.41308287
v -0.44499773 0.05499652 0.41271150
v -0.44318986 0.08499579 0.41206276
v -0.45024449 0.06144776 0.41020596
v -0.44819099 0.08499579 0.40841180
v -0.45170847 0.09498224 0.40238509
v -0.45928380 0.06498297 0.39739189
v -0.46060041 0.06498297 0.39239198
v -0.46082640 0.06498297 0.39152396
v -0.46098360 0.06382453 0.39152396
v -0.46214297 0.05499652 0.39152396
v -0.46110150 0.05499652 0.39562905
v -0.45081434 0.10313118 0.40119717
v -0.45470518 0.09498224 0.39500043
v -0.45650324 0.08499579 0.39500043
v -0.46085587 -0.06476091 0.39152396
v -0.43499553 0.07498938 0.41437590
v -0.41500092 -0.06476091 0.41437590
v -0.43499553 0.08499579 0.41425288
v -0.43499553 0.09498224 0.41381887
v -0.44227612 0.09498224 0.41163099
v -0.44110689 0.10498865 0.41084802
v -0.44727722 0.09498224 0.40738276
v -0.46038425 0.06757943 0.39152396
v -0.43843439 0.12498151 0.40868026
v -0.44294423 0.12498151 0.40368035
v -0.44156867 0.13498792 0.40214571
v -0.44993991 0.10980211 0.39981017
v -0.45559931 0.09498224 0.39152396
v -0.45199341 0.10586746 0.39588630
v -0.45321172 0.10552792 0.39152396
v -0.45736787 0.08513560 0.39152396
v -0.38509253 -0.06476091 0.39152396
v -0.42499331 0.11499506 0.41437590
v -0.40608931 -0.06476091 0.41218802
v -0.39051613 0.13928209 0.41340277
v -0.39500630 0.13498792 0.41432670
v -0.39500630 0.13928209 0.41434908
v -0.40072468 0.13928209 0.41437590
v -0.42499331 0.12498151 0.41425288
v -0.42499331 0.13498792 0.41362873
v -0.43343329 0.12498151 0.41206276
v -0.43203810 0.13498792 0.41143861
v -0.44030121 0.11116028 0.41024622
v -0.43133065 0.13928209 0.41096434
v -0.43340382 0.13928209 0.40917915
v -0.43703920 0.13498792 0.40714338
v -0.44090056 0.13928209 0.40127325
v -0.44189292 0.13928209 0.39880124
v -0.44445735 0.13498792 0.39500043
v -0.44721827 0.12498151 0.39500043
v -0.44904578 0.12150623 0.39152396
v -0.45039186 0.11637320 0.39152396
v -0.45081434 0.11313759 0.39314362
v -0.45165932 0.11151978 0.39152396
v -0.36481297 0.13928209 0.39152396
v -0.41500092 0.13928209 0.41437590
v -0.38596699 0.13928209 0.41215223
v -0.42070946 0.13928209 0.41394863
v -0.42529789 0.13928209 0.41301128
v -0.42944419 0.13928209 0.41172272
v -0.43622369 0.13928209 0.40635815
v -0.44311127 0.13928209 0.39482147
v -0.44537109 0.13498792 0.39152396
v -0.44633397 0.13151264 0.39152396
v -0.44804358 0.12532105 0.39152396
v -0.44398573 0.13928209 0.39152396
f 1 2 7
f 1 7 3
f 1 3 9
f 1 9 20
f 1 20 38
f 1 38 65
f 1 65 96
f 1 96 95
f 1 95 94
f 1 94 109
f 1 109 117
f 1 117 114
f 1 114 116
f 1 116 140
f 1 140 138
f 1 138 137
f 1 137 151
f 1 151 150
f 1 150 149
f 1 149 152
f 1 152 141
f 1 141 118
f 1 118 101
f 1 101 73
f 1 73 72
f 1 72 70
f 1 70 41
f 1 41 22
f 1 22 12
f 1 12 10
f 1 10 4
f 1 4 5
f 1 5 2
f 2 5 6
f 2 6 16
f 2 16 7
f 3 7 8
f 3 8 9
f 4 10 5
f 5 11 6
f 5 10 12
f 5 12 13
f 5 13 14
f 5 14 11
f 6 15 30
f 6 30 16
f 6 11 15
f 7 16 8
f 8 17 18
f 8 18 19
f 8 19 20
f 8 20 9
f 8 16 17
f 11 14 21
f 11 21 15
f 12 22 23
f 12 23 13
f 13 23 24
f 13 24 25
f 13 25 26
f 13 26 14
f 14 27 21
f 14 26 28
f 14 28 27
f 15 29 51
f 15 51 30
f 15 21 39
f 15 39 29
f 16 30 17
f 17 31 18
f 17 30 31
f 18 32 33
f 18 33 34
f 18 34 19
f 18 31 32
f 19 34 35
f 19 35 36
f 19 36 37
f 19 37 38
f 19 38 20
f 21 27 40
f 21 40 39
f 22 41 23
f 23 41 42
f 23 42 24
f 24 43 44
f 24 44 45
f 24 45 46
f 24 46 25
f 24 42 43
f 25 46 28
f 25 28 26
f 27 28 47
f 27 47 48
f 27 48 49
f 27 49 40
f 28 46 47
f 29 50 81
f 29 81 51
f 29 39 52
f 29 52 50
f 30 51 53
f 30 53 31
f 31 53 54
f 31 54 32
f 32 54 55
f 32 55 56
f 32 56 57
f 32 57 33
f 33 58 35
f 33 35 34
f 33 57 58
f 35 58 36
f 36 59 60
f 36 60 61
f 36 61 62
f 36 62 63
f 36 63 64
f 36 64 37
f 36 58 59
f 37 64 65
f 37 65 38
f 39 40 66
f 39 66 52
f 40 49 67
f 40 67 68
f 40 68 69
f 40 69 66
f 41 70 42
f 42 70 71
f 42 71 43
f 43 71 72
f 43 72 73
f 43 73 74
f 43 74 75
f 43 75 76
f 43 76 44
f 44 77 78
f 44 78 45
f 44 76 75
f 44 75 74
f 44 74 101
f 44 101 118
f 44 118 120
f 44 120 103
f 44 103 82
f 44 82 80
f 44 80 79
f 44 79 77
f 45 78 46
f 46 78 47
f 47 78 79
f 47 79 80
f 47 80 48
f 48 80 67
f 48 67 49
f 50 52 82
f 50 82 102
f 50 102 81
f 51 81 83
f 51 83 53
f 52 66 82
f 53 83 84
f 53 84 54
f 54 84 85
f 54 85 86
f 54 86 87
f 54 87 88
f 54 88 55
f 55 88 56
f 56 88 57
f 57 88 89
f 57 89 58
f 58 89 59
f 59 89 60
f 60 89 62
f 60 62 61
f 62 90 91
f 62 91 63
f 62 89 90
f 63 92 93
f 63 93 94
f 63 94 95
f 63 95 96
f 63 96 97
f 63 97 64
f 63 91 98
f 63 98 99
f 63 99 100
f 63 100 92
f 64 97 65
f 65 97 96
f 66 69 82
f 67 80 82
f 67 82 68
f 68 82 69
f 70 72 71
f 73 101 74
f 77 79 78
f 81 102 83
f 82 103 124
f 82 124 142
f 82 142 119
f 82 119 102
f 83 102 104
f 83 104 84
f 84 104 85
f 85 104 86
f 86 104 87
f 87 104 88
f 88 104 105
f 88 105 106
f 88 106 89
f 89 106 90
f 90 106 107
f 90 107 108
f 90 108 91
f 91 108 98
f 92 100 93
f 93 100 109
f 93 109 94
f 98 108 110
f 98 110 111
f 98 111 112
f 98 112 113
f 98 113 99
f 99 114 100
f 99 113 115
f 99 115 116
f 99 116 114
f 100 114 117
f 100 117 109
f 102 119 104
f 103 120 121
f 103 121 122
f 103 122 123
f 103 123 124
f 104 119 125
f 104 125 105
f 105 125 126
f 105 126 127
f 105 127 106
f 106 127 128
f 106 128 107
f 107 128 129
f 107 129 108
f 108 129 110
f 110 129 128
f 110 128 130
f 110 130 131
f 110 131 132
f 110 132 112
f 110 112 111
f 112 132 133
f 112 133 113
f 113 133 134
f 113 134 135
f 113 135 136
f 113 136 137
f 113 137 138
f 113 138 139
f 113 139 115
f 115 139 140
f 115 140 116
f 118 141 120
f 119 142 125
f 120 141 143
f 120 143 121
f 121 143 141
f 121 141 152
f 121 152 148
f 121 148 134
f 121 134 133
f 121 133 147
f 121 147 131
f 121 131 130
f 121 130 146
f 121 146 145
f 121 145 144
f 121 144 142
f 121 142 124
f 121 124 123
f 121 123 122
f 125 142 144
f 125 144 126
f 126 128 127
f 126 144 145
f 126 145 146
f 126 146 128
f 128 146 130
f 131 147 132
f 132 147 133
f 134 148 135
f 135 149 150
f 135 150 151
f 135 151 136
f 135 148 152
f 135 152 149
f 136 151 137
f 138 140 139

