# https://github.com/mikedh/trimesh
v -0.07414940 0.45943248 0.39152396
v -0.07414940 0.45871773 0.39421967
v -0.07414940 0.38498840 0.39152396
v -0.07614728 0.45914656 0.39152396
v -0.07460506 0.45862243 0.39432481
v -0.07414940 0.45865420 0.39445233
v -0.07414940 0.40441343 0.41209409
v -0.07791733 0.39955321 0.41056165
v -0.08501506 0.37747571 0.39152396
v -0.08093167 0.45832065 0.39152396
v -0.08501506 0.45663705 0.39500043
v -0.08501506 0.45266628 0.40344098
v -0.07414940 0.45400044 0.40368706
v -0.07414940 0.40495345 0.41222829
v -0.08501506 0.40498522 0.41350791
v -0.25318736 0.32547444 0.41275403
v -0.25318736 0.32460088 0.41250345
v -0.25318736 0.29718664 0.39152396
v -0.08517279 0.45749474 0.39152396
v -0.09162208 0.45611292 0.39152396
v -0.09500445 0.45449284 0.39500043
v -0.10997102 0.44998205 0.39997348
v -0.10331142 0.45069677 0.40106520
v -0.09500445 0.45160210 0.40225309
v -0.09500445 0.44717073 0.40725076
v -0.08501506 0.44820312 0.40844089
v -0.07500814 0.45352396 0.40430450
v -0.07414940 0.45352396 0.40443203
v -0.07414940 0.41499156 0.41437590
v -0.24498554 0.33500430 0.41374728
v -0.25318736 0.33500430 0.41426182
v -0.25318736 0.39038867 0.39152396
v -0.10558970 0.45311099 0.39152396
v -0.10599278 0.45187211 0.39598474
v -0.11500076 0.45096678 0.39152396
v -0.11738420 0.45037910 0.39152396
v -0.11500076 0.44934672 0.39763796
v -0.14153399 0.44046804 0.40071395
v -0.13501459 0.44146869 0.40201148
v -0.12500767 0.44296169 0.40366021
v -0.11487809 0.44369233 0.40574744
v -0.10599278 0.44686896 0.40463784
v -0.11146066 0.44037277 0.41030663
v -0.07500814 0.44906080 0.40930441
v -0.10501137 0.44110337 0.41085920
v -0.09500445 0.44216755 0.41157284
v -0.07414940 0.44942611 0.40902030
v -0.07414940 0.43498838 0.41437590
v -0.25318736 0.33681497 0.41437590
v -0.25318736 0.38865739 0.39726883
v -0.24991013 0.38994393 0.39984372
v -0.25190800 0.39118281 0.39152396
v -0.12150262 0.44928318 0.39152396
v -0.12411389 0.44779015 0.39412796
v -0.14821111 0.43940389 0.39790642
v -0.17059085 0.43023935 0.40037170
v -0.16498277 0.43136704 0.40179226
v -0.15501091 0.43324125 0.40386602
v -0.13501459 0.43694201 0.40700915
v -0.12500767 0.43840325 0.40866014
v -0.11812025 0.43940389 0.40957734
v -0.14258550 0.43077937 0.41060865
v -0.13501459 0.43193883 0.41138491
v -0.08501506 0.44319993 0.41203815
v -0.07414940 0.44912434 0.40935588
v -0.12500767 0.43340009 0.41202027
v -0.07414940 0.43587783 0.41416562
v -0.07500814 0.43498838 0.41437590
v -0.25318736 0.35682768 0.41437590
v -0.25318736 0.38568726 0.40220836
v -0.24325055 0.39199284 0.40227547
v -0.23117563 0.40071267 0.40095782
v -0.23296322 0.40182447 0.39500043
v -0.23392710 0.40225333 0.39152396
v -0.13501459 0.44516945 0.39152396
v -0.13501459 0.44424823 0.39500043
v -0.15047187 0.44038865 0.39152396
v -0.15124297 0.44013453 0.39152396
v -0.15457277 0.43808559 0.39474314
v -0.14493388 0.44127810 0.39474314
v -0.16498277 0.43408304 0.39500043
v -0.17258874 0.43103349 0.39500043
v -0.18499660 0.42603034 0.39500043
v -0.19183145 0.42088419 0.40124416
v -0.18499660 0.42232955 0.40290633
v -0.16498277 0.42669740 0.40678993
v -0.15501091 0.42861927 0.40886596
v -0.14924510 0.42968345 0.40980330
v -0.16498277 0.42169425 0.41117910
v -0.15501091 0.42361608 0.41200012
v -0.08501506 0.43498838 0.41422603
v -0.07500814 0.44405764 0.41218802
v -0.07414940 0.44470882 0.41190168
v -0.10501137 0.43498838 0.41304931
v -0.09500445 0.43498838 0.41376296
v -0.13501459 0.42499793 0.41357279
v -0.07414940 0.44420058 0.41215897
v -0.11500076 0.42499793 0.41437590
v -0.25318736 0.36500746 0.41386586
v -0.24498554 0.36500746 0.41437590
v -0.25318736 0.38389248 0.40407407
v -0.23774761 0.38860974 0.40893978
v -0.22498924 0.39745665 0.40782121
v -0.22498924 0.40242803 0.40282354
v -0.21177518 0.41089374 0.40121284
v -0.21843478 0.40917835 0.39723527
v -0.22418307 0.40697062 0.39434049
v -0.22497171 0.40736768 0.39152396
v -0.23082513 0.40406400 0.39152396
v -0.14165667 0.44313642 0.39152396
v -0.14495142 0.44211990 0.39152396
v -0.15581706 0.43851444 0.39152396
v -0.16184576 0.43625903 0.39152396
v -0.16470237 0.43514723 0.39152396
v -0.17681232 0.43028700 0.39152396
v -0.18501413 0.42698330 0.39152396
v -0.19509116 0.42172599 0.39440086
v -0.19849105 0.41921648 0.39733371
v -0.20499292 0.41257733 0.40302935
v -0.20499292 0.40773299 0.40802926
v -0.19526640 0.41511863 0.40536937
v -0.18499660 0.41759640 0.40790400
v -0.17782879 0.41910529 0.40929547
v -0.17115167 0.42045537 0.41036257
v -0.18499660 0.41259322 0.41164219
v -0.16498277 0.41499156 0.41336697
v -0.12500767 0.42499793 0.41421038
v -0.15501091 0.41499156 0.41419023
v -0.14500399 0.41499156 0.41437590
v -0.25318736 0.36718345 0.41349673
v -0.23499614 0.37501383 0.41418353
v -0.22498924 0.38498840 0.41363543
v -0.21499984 0.38498840 0.41437590
v -0.25318736 0.37979463 0.40800020
v -0.24982250 0.37987405 0.40992633
v -0.23108801 0.39065868 0.41047218
v -0.21864510 0.39928320 0.40947220
v -0.25318736 0.37873048 0.40901360
v -0.21521014 0.40509641 0.40534028
v -0.21506993 0.41173553 0.39434049
v -0.21897806 0.41056019 0.39152396
v -0.22129139 0.40933719 0.39152396
v -0.19505611 0.42253605 0.39152396
v -0.19915701 0.42053476 0.39152396
v -0.19870135 0.40930542 0.40949458
v -0.19204175 0.41102079 0.41073391
v -0.20499292 0.40272981 0.41163099
v -0.18499660 0.40498522 0.41383007
v -0.17498969 0.40498522 0.41437367
v -0.19498600 0.39499477 0.41437590
v -0.24589685 0.37593505 0.41247216
v -0.25318736 0.37369552 0.41174510
v -0.20499292 0.39499477 0.41382110
v -0.21519262 0.39556655 0.41217908
v -0.22498924 0.39246935 0.41144755
v -0.23464563 0.38516313 0.41187930
v -0.24316292 0.38193884 0.41120148
v -0.25318736 0.37550619 0.41098896
v -0.21198550 0.40099856 0.41071603
v -0.20124251 0.41948649 0.39152396
f 1 2 6
f 1 6 13
f 1 13 28
f 1 28 47
f 1 47 65
f 1 65 93
f 1 93 97
f 1 97 67
f 1 67 48
f 1 48 29
f 1 29 14
f 1 14 7
f 1 7 3
f 1 3 9
f 1 9 18
f 1 18 32
f 1 32 52
f 1 52 74
f 1 74 109
f 1 109 108
f 1 108 142
f 1 142 141
f 1 141 160
f 1 160 144
f 1 144 143
f 1 143 116
f 1 116 115
f 1 115 114
f 1 114 113
f 1 113 112
f 1 112 78
f 1 78 77
f 1 77 111
f 1 111 110
f 1 110 75
f 1 75 53
f 1 53 36
f 1 36 35
f 1 35 33
f 1 33 20
f 1 20 19
f 1 19 10
f 1 10 4
f 1 4 2
f 2 4 5
f 2 5 6
f 3 7 8
f 3 8 9
f 4 10 11
f 4 11 5
f 5 11 6
f 6 11 12
f 6 12 13
f 7 14 15
f 7 15 16
f 7 16 17
f 7 17 8
f 8 17 18
f 8 18 9
f 10 19 11
f 11 19 20
f 11 20 21
f 11 21 22
f 11 22 23
f 11 23 24
f 11 24 12
f 12 24 25
f 12 25 26
f 12 26 44
f 12 44 27
f 12 27 13
f 13 27 28
f 14 29 15
f 15 29 30
f 15 30 16
f 16 30 31
f 16 31 49
f 16 49 69
f 16 69 99
f 16 99 130
f 16 130 152
f 16 152 158
f 16 158 138
f 16 138 134
f 16 134 101
f 16 101 70
f 16 70 50
f 16 50 32
f 16 32 18
f 16 18 17
f 20 33 21
f 21 33 34
f 21 34 22
f 22 34 33
f 22 33 35
f 22 35 36
f 22 36 37
f 22 37 38
f 22 38 39
f 22 39 40
f 22 40 41
f 22 41 23
f 23 41 42
f 23 42 25
f 23 25 24
f 25 42 41
f 25 41 43
f 25 43 26
f 26 43 45
f 26 45 46
f 26 46 44
f 27 44 28
f 28 44 47
f 29 48 68
f 29 68 98
f 29 98 129
f 29 129 150
f 29 150 133
f 29 133 100
f 29 100 69
f 29 69 49
f 29 49 31
f 29 31 30
f 32 50 51
f 32 51 52
f 36 53 37
f 37 53 54
f 37 54 38
f 38 54 55
f 38 55 56
f 38 56 57
f 38 57 58
f 38 58 39
f 39 58 59
f 39 59 40
f 40 59 60
f 40 60 61
f 40 61 41
f 41 61 43
f 43 61 62
f 43 62 63
f 43 63 45
f 44 46 64
f 44 64 65
f 44 65 47
f 45 63 66
f 45 66 46
f 46 66 64
f 48 67 68
f 50 70 51
f 51 71 72
f 51 72 73
f 51 73 52
f 51 70 71
f 52 73 74
f 53 75 76
f 53 76 54
f 54 76 55
f 55 77 78
f 55 78 79
f 55 79 56
f 55 76 80
f 55 80 77
f 56 79 81
f 56 81 82
f 56 82 83
f 56 83 84
f 56 84 85
f 56 85 57
f 57 86 87
f 57 87 58
f 57 85 86
f 58 87 88
f 58 88 59
f 59 88 60
f 60 88 62
f 60 62 61
f 62 88 89
f 62 89 63
f 63 89 90
f 63 90 66
f 64 91 92
f 64 92 93
f 64 93 65
f 64 66 94
f 64 94 95
f 64 95 91
f 66 90 96
f 66 96 94
f 67 97 68
f 68 97 92
f 68 92 91
f 68 91 98
f 69 100 99
f 70 101 71
f 71 102 72
f 71 101 102
f 72 102 103
f 72 103 104
f 72 104 105
f 72 105 106
f 72 106 73
f 73 106 107
f 73 107 108
f 73 108 109
f 73 109 74
f 75 110 76
f 76 110 80
f 77 80 111
f 78 112 79
f 79 112 113
f 79 113 81
f 80 110 111
f 81 113 114
f 81 114 82
f 82 114 115
f 82 115 116
f 82 116 83
f 83 116 117
f 83 117 84
f 84 117 118
f 84 118 105
f 84 105 119
f 84 119 120
f 84 120 121
f 84 121 122
f 84 122 85
f 85 122 86
f 86 122 123
f 86 123 87
f 87 123 124
f 87 124 88
f 88 124 89
f 89 124 125
f 89 125 90
f 90 126 96
f 90 125 126
f 91 95 127
f 91 127 98
f 92 97 93
f 94 96 95
f 95 96 127
f 96 126 128
f 96 128 127
f 98 127 129
f 99 100 131
f 99 131 132
f 99 132 130
f 100 133 131
f 101 134 102
f 102 135 136
f 102 136 137
f 102 137 103
f 102 134 138
f 102 138 135
f 103 137 104
f 104 137 139
f 104 139 105
f 105 139 120
f 105 120 119
f 105 118 106
f 106 118 140
f 106 140 141
f 106 141 142
f 106 142 107
f 107 142 108
f 116 143 117
f 117 143 144
f 117 144 118
f 118 144 140
f 120 139 137
f 120 137 145
f 120 145 122
f 120 122 121
f 122 145 146
f 122 146 123
f 123 146 124
f 124 146 125
f 125 146 147
f 125 147 148
f 125 148 126
f 126 148 128
f 127 128 149
f 127 149 129
f 128 148 149
f 129 149 150
f 130 151 152
f 130 132 151
f 131 133 132
f 132 133 153
f 132 153 154
f 132 154 155
f 132 155 156
f 132 156 151
f 133 150 148
f 133 148 153
f 135 157 136
f 135 138 158
f 135 158 157
f 136 157 155
f 136 155 159
f 136 159 137
f 137 159 145
f 140 160 141
f 140 144 160
f 145 159 146
f 146 159 147
f 147 159 155
f 147 155 154
f 147 154 153
f 147 153 148
f 148 150 149
f 151 156 152
f 152 156 157
f 152 157 158
f 155 157 156

