# https://github.com/mikedh/trimesh
v -0.18619433 -0.41420898 0.06499067
v -0.10491498 -0.41850334 -0.02525543
v -0.09678258 -0.41959798 -0.02525543
v -0.03520866 -0.42776567 -0.02525543
v -0.01416272 -0.43054438 -0.02525543
v -0.00495791 -0.43163902 -0.02525543
v -0.00343867 -0.43029177 0.03498392
v -0.00187475 -0.43012336 0.04307332
v -0.00513665 -0.42961815 0.04583480
v -0.00495791 -0.42869192 0.05499184
v -0.18619433 -0.41311434 0.07379867
v -0.18619433 -0.41404057 0.06355347
v -0.11492409 -0.41614565 -0.02525543
v 0.00505120 -0.43147063 -0.02525543
v 0.21390206 -0.43130222 0.04499301
v 0.20527813 -0.43138641 0.04537284
v 0.20496534 -0.43113381 0.05417058
v -0.00495791 -0.42734465 0.06499067
v -0.18619433 -0.41201970 0.07906500
v -0.00495791 -0.42591321 0.07499976
v -0.00495791 -0.42523959 0.07961934
v -0.18619433 -0.41227230 0.05650090
v -0.12493321 -0.41235650 -0.02525543
v 0.21274027 -0.43079698 0.03888490
v 0.02484601 -0.42886031 -0.02525543
v 0.21787889 -0.42978656 0.04499301
v 0.21238281 -0.43088120 0.05313374
v -0.00035551 -0.42523959 0.07961934
v 0.20469724 -0.42313451 0.07961934
v -0.18619433 -0.41185129 0.07961934
v -0.13552320 -0.40797794 -0.02525543
v -0.18619433 -0.38701135 -0.02525543
v -0.17949180 -0.38979006 -0.02525543
v 0.22270471 -0.42187145 0.02500562
v 0.23365217 -0.41353536 0.01500679
v 0.21895128 -0.42936555 0.04499301
v 0.09102233 -0.42010319 -0.02525543
v 0.09589283 -0.41942957 -0.02525543
v 0.10491890 -0.41816652 -0.02525543
v 0.24200800 -0.40115747 -0.01144801
v 0.23249041 -0.41185129 0.00755387
v 0.21787889 -0.42961815 0.04632755
v 0.21546598 -0.42869192 0.05588496
v 0.21363395 -0.42153466 0.07961934
v 0.20916560 -0.42246088 0.07961934
v -0.18619433 0.37721667 0.07961934
v -0.18619433 0.38395292 -0.02525543
v 0.24321446 -0.40275735 -0.00499086
v 0.25300014 -0.39332658 -0.01499996
v 0.22355370 -0.42431334 0.04499301
v 0.22324091 -0.42347133 0.05499184
v 0.22239192 -0.42195567 0.06499067
v 0.24321446 -0.40376776 0.00500797
v 0.23338407 -0.41412476 0.02500562
v 0.25219584 -0.39172673 -0.02525543
v 0.25224054 -0.39181092 -0.02499878
v 0.22114079 -0.42069262 0.07200217
v 0.21787889 -0.41934535 0.07961934
v -0.12908877 0.40079355 0.07961934
v -0.18619433 0.37873232 0.06950759
v -0.18619433 0.38395292 -0.02342813
v -0.18498787 0.38445812 -0.02525543
v 0.25724506 -0.38776916 -0.02499878
v 0.26189217 -0.38280118 -0.02525543
v 0.26189217 -0.38280118 -0.02499878
v 0.25250864 -0.39324239 -0.00499086
v 0.22824547 -0.41774550 0.05499184
v 0.23155205 -0.41168287 0.07499976
v 0.24285698 -0.40351516 0.01500679
v 0.23302661 -0.41370374 0.03498392
v 0.23114990 -0.41117766 0.07961934
v 0.22739647 -0.41404057 0.07961934
v 0.25715572 -0.38768497 -0.02525543
v 0.21984497 -0.41825071 0.07961934
v -0.12520131 0.40239340 0.07961934
v -0.12493321 0.40466690 0.06499067
v -0.14428118 0.39818326 0.05496104
v -0.18619433 0.38092160 0.05473519
v -0.14343219 0.40163559 -0.02525543
v -0.18619433 0.38243726 0.03498392
v -0.12010738 0.41005591 0.02272663
v -0.12140320 0.41072953 -0.02525543
v 0.26837128 -0.37294942 -0.02525543
v 0.25014040 -0.39021108 0.04149240
v 0.24066749 -0.40090486 0.06499067
v 0.25796002 -0.38701135 -0.01499996
v 0.24821901 -0.39770514 0.00500797
v 0.24165052 -0.40208372 0.04499301
v 0.24249952 -0.40300995 0.02500562
v 0.23190951 -0.41227230 0.06499067
v 0.23691407 -0.40587285 0.06499067
v 0.23709281 -0.40418878 0.07550278
v 0.23941635 -0.40023124 0.07961934
v -0.11492409 0.40635094 0.07961934
v -0.11108132 0.41039270 0.06288619
v -0.11760511 0.40904546 0.05499184
v -0.14052776 0.40020412 0.05160414
v -0.18619433 0.38109002 0.05332879
v -0.18619433 0.38193202 0.04499301
v -0.11970523 0.40988749 0.03498392
v -0.11492409 0.41258198 -0.00499086
v -0.11470068 0.41308722 -0.02525543
v 0.27029267 -0.37000230 -0.02525543
v 0.24026534 -0.40031543 0.07250518
v 0.27029267 -0.36191881 0.02500562
v 0.23977382 -0.39981022 0.07916765
v 0.23972914 -0.39972603 0.07961934
v -0.10965143 0.40795082 0.07961934
v -0.10947271 0.40988749 0.06955892
v -0.10491498 0.41241360 0.05499184
v -0.10491498 0.41350824 0.04499301
v -0.11264524 0.41089791 0.05499184
v -0.11907966 0.40963489 0.04499301
v -0.11474536 0.41157156 0.03498392
v -0.10491498 0.41401345 0.03498392
v -0.10491498 0.41426605 0.02500562
v -0.10491498 0.41544491 -0.02499878
v -0.10491498 0.41544491 -0.02525543
v 0.27029267 0.32846302 -0.02525543
v 0.27029267 -0.36057153 0.03271519
v 0.25764722 -0.37614915 0.05499184
v 0.27029267 -0.35055137 0.07490736
v 0.24544863 -0.39021108 0.07961934
v -0.10536182 0.40904546 0.07961934
v -0.09919550 0.40988749 0.07961934
v -0.05473537 0.41923404 0.05476599
v -0.09495056 0.41485548 0.04499301
v -0.11407511 0.41131893 0.04499301
v -0.07493233 0.41754997 0.04499301
v -0.01496702 0.42588609 0.03498392
v -0.06666587 0.41957086 0.01500679
v -0.09495056 0.41679215 -0.02525543
v 0.27029267 0.32846302 -0.02503985
v 0.22980939 0.35961819 -0.02525543
v 0.21787889 0.41157156 0.03671883
v 0.27029267 -0.34869891 0.07961934
v -0.03954297 0.41780257 0.07961934
v -0.07493233 0.41376084 0.07499976
v -0.02493145 0.42176014 0.06499067
v -0.01496702 0.42445463 0.05499184
v -0.05129474 0.42007607 0.05127564
v -0.01496702 0.42538089 0.04499301
v -0.00495791 0.42664391 0.04499301
v -0.00495791 0.42698073 0.03498392
v -0.00495791 0.42807537 -0.00499086
v -0.01496702 0.42613870 0.02500562
v -0.01496702 0.42689654 -0.00499086
v -0.02493145 0.42605451 -0.02499878
v -0.04468157 0.42344421 -0.02525543
v 0.27029267 0.32804200 0.04499301
v 0.21787889 0.41157156 0.04075326
v 0.22467078 0.36349154 -0.02525543
v 0.21787889 0.36854374 -0.02525543
v 0.21774484 0.36862794 -0.02525543
v 0.21287432 0.37157506 -0.02525543
v 0.20514408 0.37519577 -0.02525543
v 0.19687763 0.37873232 -0.02525543
v 0.13516966 0.40424588 -0.02525543
v 0.11510675 0.41241360 -0.02525543
v 0.10491890 0.41510808 -0.02525543
v 0.09522258 0.41645533 -0.02525543
v 0.08521347 0.41780257 -0.02525543
v 0.00527462 0.42841220 -0.02525543
v 0.27029267 0.32593691 0.07961934
v -0.01465424 0.42108652 0.07961934
v -0.00495791 0.42563349 0.05499184
v 0.00505120 0.42647552 0.04499301
v 0.00505120 0.42698073 0.03498392
v 0.00505120 0.42723334 0.02500562
v 0.00505120 0.42748594 0.01500679
v -0.00495791 0.42832798 -0.01499996
v -0.00495791 0.42858058 -0.02525543
v -0.02493145 0.42605451 -0.02525543
v 0.27029267 0.32644215 0.07476365
v 0.21787889 0.41131893 0.04434627
v 0.00505120 0.42841220 -0.02499878
v 0.21787889 0.40315124 0.07961934
v -0.00956032 0.42167592 0.07961934
v -0.00495791 0.42285478 0.07499976
v 0.00040411 0.42218116 0.07961934
v 0.00505120 0.42411783 0.06499067
v 0.00505120 0.42538089 0.05499184
v 0.00505120 0.42201275 0.07961934
v -0.00495791 0.42218116 0.07961934
f 1 2 3
f 1 3 4
f 1 4 5
f 1 5 6
f 1 6 7
f 1 7 8
f 1 8 9
f 1 9 10
f 1 10 11
f 1 11 19
f 1 19 30
f 1 30 46
f 1 46 60
f 1 60 78
f 1 78 98
f 1 98 99
f 1 99 80
f 1 80 61
f 1 61 47
f 1 47 32
f 1 32 22
f 1 22 12
f 1 12 2
f 2 12 13
f 2 13 23
f 2 23 31
f 2 31 33
f 2 33 32
f 2 32 47
f 2 47 62
f 2 62 79
f 2 79 82
f 2 82 102
f 2 102 118
f 2 118 132
f 2 132 149
f 2 149 173
f 2 173 172
f 2 172 163
f 2 163 162
f 2 162 161
f 2 161 160
f 2 160 159
f 2 159 158
f 2 158 157
f 2 157 156
f 2 156 155
f 2 155 154
f 2 154 153
f 2 153 152
f 2 152 134
f 2 134 119
f 2 119 103
f 2 103 83
f 2 83 64
f 2 64 73
f 2 73 55
f 2 55 39
f 2 39 38
f 2 38 37
f 2 37 25
f 2 25 14
f 2 14 6
f 2 6 5
f 2 5 4
f 2 4 3
f 6 14 15
f 6 15 16
f 6 16 8
f 6 8 7
f 8 16 17
f 8 17 10
f 8 10 9
f 10 17 18
f 10 18 11
f 11 18 20
f 11 20 21
f 11 21 19
f 12 22 13
f 13 22 23
f 14 24 15
f 14 25 24
f 15 17 16
f 15 24 26
f 15 26 27
f 15 27 17
f 17 28 21
f 17 21 20
f 17 20 18
f 17 27 29
f 17 29 28
f 19 21 30
f 21 28 29
f 21 29 45
f 21 45 44
f 21 44 58
f 21 58 74
f 21 74 72
f 21 72 71
f 21 71 93
f 21 93 107
f 21 107 123
f 21 123 136
f 21 136 164
f 21 164 177
f 21 177 183
f 21 183 180
f 21 180 184
f 21 184 178
f 21 178 165
f 21 165 137
f 21 137 125
f 21 125 124
f 21 124 108
f 21 108 94
f 21 94 75
f 21 75 59
f 21 59 46
f 21 46 30
f 22 31 23
f 22 32 33
f 22 33 31
f 24 34 35
f 24 35 36
f 24 36 26
f 24 25 37
f 24 37 38
f 24 38 39
f 24 39 40
f 24 40 41
f 24 41 34
f 26 42 27
f 26 36 42
f 27 42 43
f 27 43 44
f 27 44 45
f 27 45 29
f 34 41 35
f 35 41 48
f 35 48 49
f 35 49 36
f 36 50 51
f 36 51 52
f 36 52 43
f 36 43 42
f 36 49 53
f 36 53 54
f 36 54 50
f 39 55 40
f 40 55 56
f 40 56 48
f 40 48 41
f 43 52 57
f 43 57 44
f 44 57 58
f 46 59 60
f 47 61 62
f 48 56 49
f 49 56 63
f 49 63 64
f 49 64 65
f 49 65 66
f 49 66 53
f 50 67 68
f 50 68 51
f 50 54 69
f 50 69 70
f 50 70 67
f 51 68 71
f 51 71 52
f 52 71 72
f 52 72 57
f 53 66 69
f 53 69 54
f 55 73 63
f 55 63 56
f 57 74 58
f 57 72 74
f 59 75 76
f 59 76 77
f 59 77 60
f 60 77 78
f 61 79 62
f 61 80 81
f 61 81 82
f 61 82 79
f 63 73 64
f 64 83 65
f 65 83 84
f 65 84 85
f 65 85 86
f 65 86 66
f 66 87 69
f 66 86 88
f 66 88 89
f 66 89 87
f 67 70 69
f 67 69 89
f 67 89 90
f 67 90 68
f 68 90 88
f 68 88 91
f 68 91 85
f 68 85 92
f 68 92 93
f 68 93 71
f 69 87 89
f 75 94 95
f 75 95 96
f 75 96 76
f 76 96 97
f 76 97 77
f 77 97 78
f 78 97 98
f 80 99 100
f 80 100 81
f 81 100 101
f 81 101 82
f 82 101 102
f 83 103 84
f 84 104 85
f 84 103 105
f 84 105 104
f 85 104 92
f 85 91 88
f 85 88 86
f 88 90 89
f 92 104 93
f 93 104 106
f 93 106 107
f 94 108 109
f 94 109 95
f 95 109 110
f 95 110 111
f 95 111 112
f 95 112 96
f 96 113 97
f 96 112 113
f 97 113 99
f 97 99 98
f 99 113 100
f 100 114 101
f 100 113 114
f 101 114 115
f 101 115 116
f 101 116 117
f 101 117 102
f 102 117 118
f 103 119 133
f 103 133 150
f 103 150 174
f 103 174 164
f 103 164 136
f 103 136 122
f 103 122 120
f 103 120 105
f 104 105 120
f 104 120 106
f 106 120 121
f 106 121 122
f 106 122 107
f 107 122 123
f 108 124 109
f 109 125 126
f 109 126 110
f 109 124 125
f 110 126 111
f 111 126 127
f 111 127 115
f 111 115 128
f 111 128 112
f 112 128 113
f 113 128 114
f 114 128 115
f 115 127 129
f 115 129 130
f 115 130 131
f 115 131 116
f 116 132 117
f 116 131 132
f 117 132 118
f 119 134 135
f 119 135 151
f 119 151 133
f 120 122 121
f 122 136 123
f 125 137 138
f 125 138 126
f 126 138 137
f 126 137 139
f 126 139 140
f 126 140 141
f 126 141 127
f 127 141 129
f 129 141 142
f 129 142 130
f 130 142 143
f 130 143 144
f 130 144 145
f 130 145 146
f 130 146 131
f 131 146 147
f 131 147 132
f 132 147 148
f 132 148 149
f 133 151 150
f 134 152 135
f 135 152 153
f 135 153 154
f 135 154 155
f 135 155 156
f 135 156 157
f 135 157 158
f 135 158 159
f 135 159 160
f 135 160 161
f 135 161 162
f 135 162 163
f 135 163 151
f 137 165 139
f 139 165 140
f 140 166 143
f 140 143 142
f 140 142 141
f 140 165 166
f 143 167 168
f 143 168 144
f 143 166 167
f 144 168 145
f 145 168 169
f 145 169 170
f 145 170 171
f 145 171 147
f 145 147 146
f 147 171 172
f 147 172 148
f 148 172 173
f 148 173 149
f 150 151 174
f 151 175 174
f 151 163 170
f 151 170 169
f 151 169 168
f 151 168 167
f 151 167 175
f 163 172 176
f 163 176 170
f 164 174 175
f 164 175 177
f 165 178 179
f 165 179 166
f 166 179 180
f 166 180 181
f 166 181 182
f 166 182 167
f 167 182 175
f 170 176 172
f 170 172 171
f 175 182 181
f 175 181 183
f 175 183 177
f 178 184 179
f 179 184 180
f 180 183 181

