# https://github.com/mikedh/trimesh
v -0.26665711 -0.33784124 -0.09002004
v -0.22242938 -0.37181994 -0.09002004
v -0.23266728 -0.36201513 -0.02500435
v -0.26665711 -0.33564359 -0.01686217
v -0.26665711 0.33471727 -0.09002004
v -0.21498983 -0.37621519 -0.09002004
v -0.22099607 -0.37072110 -0.01686217
v -0.26665711 0.38568532 -0.01686217
v -0.26665711 0.39092582 -0.04671682
v -0.26447302 0.33640775 -0.09002004
v -0.21498983 -0.37418661 -0.01686217
v -0.21171369 -0.37782115 -0.09002004
v -0.20638998 -0.37841281 -0.01686217
v -0.26126516 0.39650440 -0.01686217
v -0.26665711 0.38864368 -0.02290614
v -0.26665711 0.39278534 -0.03709946
v -0.26078743 0.40073061 -0.03184320
v -0.11493136 0.41459256 -0.09002004
v -0.12359945 0.41146520 -0.09002004
v -0.18618719 0.38560081 -0.09002004
v -0.20447890 0.37799364 -0.09002004
v -0.21498983 0.37309122 -0.09002004
v -0.21765168 0.37173885 -0.09002004
v -0.22038178 0.37021741 -0.09002004
v -0.22543250 0.36641383 -0.09002004
v -0.24590831 0.35069233 -0.09002004
v -0.20864232 -0.37925807 -0.09002004
v -0.20611699 -0.38035688 -0.09002004
v -0.18618719 -0.38872474 -0.09002004
v -0.19499178 -0.38339972 -0.02500435
v -0.12489626 -0.41230699 -0.02526215
v -0.18618719 -0.38669619 -0.01686217
v -0.25730652 0.40284371 -0.01686217
v -0.26003665 0.40005443 -0.01959055
v -0.26665711 0.39134845 -0.02944423
v -0.26065087 0.40064609 -0.02500435
v -0.25075424 0.41078898 -0.01686217
v -0.25034475 0.41002828 -0.02029234
v -0.10489821 0.41695926 -0.09002004
v -0.12489626 -0.41399747 -0.09002004
v -0.11486310 -0.41611058 -0.02526215
v -0.10496646 -0.41847724 -0.02526215
v -0.09677614 -0.41957605 -0.02526215
v -0.01405385 -0.43047968 -0.02526215
v -0.00490799 -0.43157849 -0.02526215
v 0.00512516 -0.43149397 -0.02526215
v 0.09098707 -0.42008319 -0.02526215
v 0.10470586 -0.41822368 -0.02526215
v 0.25206345 -0.39176762 -0.02526215
v 0.25704592 -0.38771045 -0.02526215
v 0.39095771 -0.27081358 -0.02526215
v 0.39464337 -0.26388261 -0.02526215
v 0.41600645 -0.10489272 -0.02526215
v 0.41962385 -0.07750691 -0.02526215
v 0.42781419 -0.01495905 -0.02526215
v 0.42897451 -0.00481616 -0.02526215
v -0.18618719 0.38365674 -0.01686217
v -0.24850191 0.41078898 -0.01686217
v -0.00490799 0.42853907 -0.02526215
v -0.00047156 0.42997596 -0.06750552
v -0.00299691 0.43031406 -0.09002004
v -0.00797936 0.42972240 -0.09002004
v -0.01494114 0.42887715 -0.09002004
v -0.11486310 -0.41771653 -0.09002004
v -0.11486310 -0.41661772 -0.04501248
v -0.10769656 -0.41966060 -0.09002004
v -0.10496646 -0.41898438 -0.04501248
v -0.01487289 -0.43090230 -0.04501248
v -0.00490799 -0.43183208 -0.03502274
v -0.00490799 -0.43318444 -0.09002004
v 0.00512516 -0.43301541 -0.09002004
v 0.10136148 -0.42016774 -0.08499295
v 0.10668519 -0.41949153 -0.09002004
v 0.11105336 -0.41830820 -0.09002004
v 0.11494377 -0.41712487 -0.09002004
v 0.25076666 -0.39024618 -0.03041098
v 0.26168710 -0.38154021 -0.04217668
v 0.26230139 -0.38272354 -0.03502274
v 0.38037854 -0.28044933 -0.05095620
v 0.38037854 -0.28044933 -0.04668818
v 0.39095771 -0.27089810 -0.03327543
v 0.41518742 -0.11486657 -0.09002004
v 0.41750801 -0.10489272 -0.09002004
v 0.41996515 -0.07978906 -0.05051221
v 0.42815548 -0.01495905 -0.03502274
v 0.42986178 -0.00895784 -0.07498171
v 0.43061256 -0.00523878 -0.09002004
v 0.42999828 -0.00143519 -0.05500939
v 0.42986178 -0.00050543 -0.04784112
v 0.42986178 0.00042434 -0.04784112
v 0.42870146 0.00524222 -0.02526215
v 0.41273034 0.11512358 -0.02526215
v 0.39634967 0.15484993 -0.02526215
v 0.37560087 0.20505726 -0.02526215
v 0.37171048 0.21300253 -0.02526215
v 0.36863911 0.21790493 -0.02526215
v 0.35962975 0.22982283 -0.02526215
v 0.32052094 0.28070635 -0.02526215
v 0.30789417 0.29701951 -0.02526215
v 0.30359426 0.30183738 -0.02526215
v 0.27704394 0.32322198 -0.02526215
v 0.22455762 0.36353999 -0.02526215
v 0.21773235 0.36861145 -0.02526215
v 0.21281816 0.37156978 -0.02526215
v 0.20496909 0.37528884 -0.02526215
v 0.42092067 0.06491625 -0.02526215
v 0.41682553 0.09492232 -0.02526215
v 0.41539222 0.10489617 -0.02526215
v 0.11501202 0.41239494 -0.02526215
v 0.10497887 0.41501519 -0.02526215
v 0.09521873 0.41636759 -0.02526215
v 0.00505690 0.42837000 -0.02526215
v 0.12067699 0.41019732 -0.02526215
v 0.00055223 0.42997596 -0.06750552
v 0.00259981 0.43031406 -0.09002004
v -0.01985534 -0.43132493 -0.09002004
v -0.01487289 -0.43183208 -0.08499295
v 0.08996328 -0.42177370 -0.09002004
v 0.09815361 -0.42067489 -0.09002004
v 0.12490866 -0.41315222 -0.09002004
v 0.27021867 -0.37021399 -0.06027996
v 0.28052485 -0.36057821 -0.07110755
v 0.30100065 -0.34088409 -0.09002004
v 0.31492421 -0.33006501 -0.09002004
v 0.34017771 -0.31020182 -0.09002004
v 0.34584266 -0.30673635 -0.08499295
v 0.35191715 -0.30174944 -0.08499295
v 0.35294098 -0.30234110 -0.07498171
v 0.35082513 -0.30090418 -0.09002004
v 0.36017573 -0.29067677 -0.08028810
v 0.41361761 -0.11959992 -0.09002004
v 0.42685866 -0.03490674 -0.09002004
v 0.42815548 -0.02484837 -0.09002004
v 0.43047607 0.00465055 -0.09002004
v 0.43047607 0.00372078 -0.08499295
v 0.42999828 0.00101601 -0.05500939
v 0.42945224 0.00422793 -0.04470455
v 0.41382241 0.11487001 -0.06499197
v 0.41116053 0.12281528 -0.08499295
v 0.40488130 0.13490224 -0.03502274
v 0.37723893 0.20488821 -0.08499295
v 0.37191522 0.21317157 -0.03502274
v 0.36959463 0.21934184 -0.09002004
v 0.36399794 0.22492044 -0.04501248
v 0.31260362 0.29338497 -0.08499295
v 0.30878145 0.29845643 -0.09002004
v 0.30393553 0.30183738 -0.03502274
v 0.27704394 0.32516605 -0.09002004
v 0.21923392 0.36945668 -0.08499295
v 0.21322767 0.37190789 -0.04501248
v 0.20496909 0.37562695 -0.03502274
v 0.41743976 0.09492232 -0.04501248
v 0.41716677 0.09492232 -0.03502274
v 0.41703027 0.10489617 -0.09002004
v 0.12217855 0.41087350 -0.07498171
v 0.11501202 0.41400090 -0.09002004
v 0.10497887 0.41535330 -0.03502274
v 0.08928075 0.41873425 -0.09002004
v 0.09494573 0.41788903 -0.08499295
v 0.29458490 -0.34418052 -0.09002004
v 0.29055798 -0.35051984 -0.08167019
v 0.41989690 0.08435680 -0.09002004
v 0.41430014 0.11487001 -0.09002004
v 0.41279858 0.11901169 -0.09002004
v 0.41020501 0.12543553 -0.09002004
v 0.37730718 0.20488821 -0.09002004
v 0.37252951 0.21435492 -0.09002004
v 0.38071984 0.19677390 -0.09002004
v 0.30632436 0.30107668 -0.09002004
v 0.30516407 0.30183738 -0.07498171
v 0.30543709 0.30183738 -0.08499295
v 0.30550534 0.30183738 -0.09002004
v 0.22489889 0.36523050 -0.09002004
v 0.21923392 0.36954123 -0.09002004
v 0.21418321 0.37241504 -0.09002004
v 0.20496909 0.37697935 -0.09002004
v 0.12504517 0.40994376 -0.09002004
v 0.10497887 0.41662115 -0.09002004
f 1 2 3
f 1 3 4
f 1 4 8
f 1 8 15
f 1 15 35
f 1 35 16
f 1 16 9
f 1 9 5
f 1 5 10
f 1 10 26
f 1 26 25
f 1 25 24
f 1 24 23
f 1 23 22
f 1 22 21
f 1 21 20
f 1 20 19
f 1 19 18
f 1 18 39
f 1 39 63
f 1 63 62
f 1 62 61
f 1 61 115
f 1 115 158
f 1 158 178
f 1 178 156
f 1 156 177
f 1 177 176
f 1 176 175
f 1 175 174
f 1 174 173
f 1 173 148
f 1 148 172
f 1 172 169
f 1 169 146
f 1 146 143
f 1 143 167
f 1 167 166
f 1 166 168
f 1 168 165
f 1 165 164
f 1 164 163
f 1 163 154
f 1 154 162
f 1 162 134
f 1 134 87
f 1 87 133
f 1 133 132
f 1 132 83
f 1 83 82
f 1 82 131
f 1 131 129
f 1 129 125
f 1 125 124
f 1 124 123
f 1 123 160
f 1 160 120
f 1 120 75
f 1 75 74
f 1 74 73
f 1 73 119
f 1 119 118
f 1 118 71
f 1 71 70
f 1 70 116
f 1 116 66
f 1 66 64
f 1 64 40
f 1 40 29
f 1 29 28
f 1 28 27
f 1 27 12
f 1 12 6
f 1 6 2
f 2 6 7
f 2 7 3
f 3 7 4
f 4 7 11
f 4 11 13
f 4 13 32
f 4 32 57
f 4 57 58
f 4 58 37
f 4 37 33
f 4 33 14
f 4 14 8
f 5 9 10
f 6 11 7
f 6 12 13
f 6 13 11
f 8 14 15
f 9 16 17
f 9 17 18
f 9 18 19
f 9 19 20
f 9 20 21
f 9 21 22
f 9 22 23
f 9 23 24
f 9 24 25
f 9 25 26
f 9 26 10
f 12 27 13
f 13 27 28
f 13 28 29
f 13 29 30
f 13 30 31
f 13 31 32
f 14 33 34
f 14 34 15
f 15 34 35
f 16 35 36
f 16 36 17
f 17 36 37
f 17 37 38
f 17 38 18
f 18 38 39
f 29 40 30
f 30 40 31
f 31 40 41
f 31 41 32
f 32 41 42
f 32 42 43
f 32 43 44
f 32 44 45
f 32 45 46
f 32 46 47
f 32 47 48
f 32 48 49
f 32 49 50
f 32 50 51
f 32 51 52
f 32 52 53
f 32 53 54
f 32 54 55
f 32 55 56
f 32 56 57
f 33 36 34
f 33 37 36
f 34 36 35
f 37 58 59
f 37 59 60
f 37 60 61
f 37 61 62
f 37 62 63
f 37 63 39
f 37 39 38
f 40 64 65
f 40 65 41
f 41 65 66
f 41 66 42
f 42 66 67
f 42 67 43
f 43 67 68
f 43 68 44
f 44 68 45
f 45 69 46
f 45 68 69
f 46 69 70
f 46 70 71
f 46 71 72
f 46 72 47
f 47 72 48
f 48 72 73
f 48 73 49
f 49 73 74
f 49 74 75
f 49 75 76
f 49 76 77
f 49 77 78
f 49 78 50
f 50 78 79
f 50 79 80
f 50 80 51
f 51 80 81
f 51 81 52
f 52 81 82
f 52 82 83
f 52 83 84
f 52 84 53
f 53 84 85
f 53 85 54
f 54 85 55
f 55 85 56
f 56 85 86
f 56 86 87
f 56 87 88
f 56 88 89
f 56 89 90
f 56 90 91
f 56 91 57
f 57 92 93
f 57 93 94
f 57 94 95
f 57 95 96
f 57 96 97
f 57 97 98
f 57 98 99
f 57 99 100
f 57 100 101
f 57 101 102
f 57 102 103
f 57 103 104
f 57 104 105
f 57 105 58
f 57 91 106
f 57 106 107
f 57 107 108
f 57 108 92
f 58 109 110
f 58 110 111
f 58 111 112
f 58 112 59
f 58 105 113
f 58 113 109
f 59 112 114
f 59 114 60
f 60 114 115
f 60 115 61
f 64 66 65
f 66 116 67
f 67 116 68
f 68 116 117
f 68 117 70
f 68 70 69
f 70 117 116
f 71 118 72
f 72 118 119
f 72 119 73
f 75 120 121
f 75 121 77
f 75 77 76
f 77 121 122
f 77 122 123
f 77 123 78
f 78 123 124
f 78 124 125
f 78 125 126
f 78 126 127
f 78 127 128
f 78 128 79
f 79 128 127
f 79 127 129
f 79 129 130
f 79 130 131
f 79 131 82
f 79 82 81
f 79 81 80
f 83 132 84
f 84 132 85
f 85 132 86
f 86 132 133
f 86 133 87
f 87 134 135
f 87 135 136
f 87 136 88
f 88 136 90
f 88 90 89
f 90 136 137
f 90 137 91
f 91 137 106
f 92 138 139
f 92 139 140
f 92 140 93
f 92 108 138
f 93 140 94
f 94 141 142
f 94 142 95
f 94 140 141
f 95 142 96
f 96 143 144
f 96 144 97
f 96 142 143
f 97 144 145
f 97 145 98
f 98 145 99
f 99 146 147
f 99 147 100
f 99 145 146
f 100 147 148
f 100 148 101
f 101 148 149
f 101 149 102
f 102 149 103
f 103 149 150
f 103 150 104
f 104 150 151
f 104 151 105
f 105 151 113
f 106 137 152
f 106 152 153
f 106 153 107
f 107 153 108
f 108 153 152
f 108 152 154
f 108 154 138
f 109 113 155
f 109 155 156
f 109 156 157
f 109 157 110
f 110 157 111
f 111 157 112
f 112 115 114
f 112 157 115
f 113 151 155
f 115 157 159
f 115 159 158
f 120 160 122
f 120 122 121
f 122 160 161
f 122 161 123
f 123 161 160
f 125 129 127
f 125 127 126
f 129 131 130
f 134 162 152
f 134 152 137
f 134 137 135
f 135 137 136
f 138 163 164
f 138 164 139
f 138 154 163
f 139 164 165
f 139 165 141
f 139 141 140
f 141 166 167
f 141 167 142
f 141 165 168
f 141 168 166
f 142 167 143
f 143 145 144
f 143 146 145
f 146 169 170
f 146 170 147
f 147 170 148
f 148 170 171
f 148 171 172
f 148 173 149
f 149 174 175
f 149 175 150
f 149 173 174
f 150 175 176
f 150 176 151
f 151 176 155
f 152 162 154
f 155 176 177
f 155 177 156
f 156 178 157
f 157 178 159
f 158 159 178
f 169 172 171
f 169 171 170

