# https://github.com/mikedh/trimesh
v 0.27029783 0.39444393 0.07961934
v 0.27235720 0.39262134 0.07961934
v 0.27029783 0.39679810 0.07499976
v 0.27029783 -0.34871656 0.07961934
v 0.27482909 0.38981152 0.07961934
v 0.27029783 0.39953199 0.06952812
v 0.27029783 -0.35061508 0.07491763
v 0.30321890 -0.31947920 0.07961934
v 0.27769420 0.38654605 0.07961934
v 0.27029783 0.40029141 0.06784454
v 0.27029783 -0.36063933 0.03247908
v 0.27029783 -0.36193034 0.02500562
v 0.27029783 -0.36223412 0.02316805
v 0.30321890 -0.32023862 0.07499976
v 0.30321890 0.31584480 0.07961934
v 0.28027567 0.40029141 0.04073273
v 0.27799714 0.40568325 0.03499418
v 0.27592486 0.40568325 0.04065060
v 0.27121955 0.40135458 0.06315310
v 0.28135207 0.38191363 0.07961934
v 0.27029783 0.40568325 0.05457094
v 0.27029783 -0.37013200 -0.02525543
v 0.30321890 -0.32145369 0.06499067
v 0.30321890 0.34925893 -0.02525543
v 0.28458133 0.40499976 0.00500797
v 0.28344691 0.40499976 0.01500679
v 0.28469092 0.38495129 0.05499184
v 0.28197408 0.38282493 0.07499976
v 0.28116837 0.40158242 0.03499418
v 0.28159380 0.40568325 0.02364028
v 0.27444559 0.40568325 0.04457211
v 0.27407172 0.40568325 0.04553709
v 0.27029783 0.40568325 0.01195787
v 0.30247122 -0.33223733 -0.02525543
v 0.30321890 -0.33155385 -0.02521436
v 0.27029783 0.32852697 -0.02525543
v 0.28949937 0.38943183 -0.02525543
v 0.28491652 0.40499976 -0.01499996
v 0.28479084 0.40568325 -0.00499086
v 0.28442019 0.40568325 0.00393006
v 0.28440410 0.40568325 0.00428936
v 0.30321890 -0.32638985 -0.02525543
v 0.28435576 0.40568325 0.00500797
v 0.28331155 0.40568325 0.01419580
v 0.28170338 0.40568325 0.02325018
v 0.28264120 0.38555881 0.06495987
v 0.27549300 0.40568325 -0.01427109
v 0.27552199 0.40499976 -0.01499996
v 0.30260015 -0.33208546 -0.02525543
v 0.27789077 0.40477195 -0.02525543
v 0.28787184 0.39406425 -0.02525543
v 0.28466514 0.40568325 -0.01499996
v 0.27776510 0.40568325 -0.02377716
v 0.27781987 0.40568325 -0.02400301
v 0.27794880 0.40568325 -0.02446496
v 0.28301182 0.40477195 -0.02525543
v 0.28491330 0.40082300 -0.02525543
v 0.28284425 0.40568325 -0.02446496
f 1 2 3
f 1 3 6
f 1 6 10
f 1 10 21
f 1 21 33
f 1 33 36
f 1 36 22
f 1 22 13
f 1 13 12
f 1 12 11
f 1 11 7
f 1 7 4
f 1 4 8
f 1 8 15
f 1 15 20
f 1 20 9
f 1 9 5
f 1 5 2
f 2 5 6
f 2 6 3
f 4 7 8
f 5 9 6
f 6 9 10
f 7 11 8
f 8 11 12
f 8 12 13
f 8 13 14
f 8 14 23
f 8 23 35
f 8 35 42
f 8 42 24
f 8 24 15
f 9 16 17
f 9 17 18
f 9 18 19
f 9 19 10
f 9 20 16
f 10 19 21
f 13 22 14
f 14 22 23
f 15 24 25
f 15 25 26
f 15 26 27
f 15 27 28
f 15 28 20
f 16 29 17
f 16 20 29
f 17 30 45
f 17 45 44
f 17 44 43
f 17 43 41
f 17 41 40
f 17 40 39
f 17 39 52
f 17 52 58
f 17 58 55
f 17 55 54
f 17 54 53
f 17 53 47
f 17 47 33
f 17 33 21
f 17 21 32
f 17 32 31
f 17 31 18
f 17 29 30
f 18 31 19
f 19 31 32
f 19 32 21
f 20 28 29
f 22 34 35
f 22 35 23
f 22 36 50
f 22 50 56
f 22 56 57
f 22 57 51
f 22 51 37
f 22 37 24
f 22 24 42
f 22 42 49
f 22 49 34
f 24 37 38
f 24 38 39
f 24 39 40
f 24 40 41
f 24 41 25
f 25 41 43
f 25 43 26
f 26 43 44
f 26 44 27
f 27 44 45
f 27 45 46
f 27 46 28
f 28 46 45
f 28 45 29
f 29 45 30
f 33 47 48
f 33 48 36
f 34 49 35
f 35 49 42
f 36 48 50
f 37 51 38
f 38 51 52
f 38 52 39
f 47 53 50
f 47 50 48
f 50 53 54
f 50 54 55
f 50 55 58
f 50 58 56
f 51 57 52
f 52 57 58
f 56 58 57

