# https://github.com/mikedh/trimesh
v 0.28478220 0.40568084 -0.00496963
v 0.28464469 0.40568084 -0.01497401
v 0.28307310 0.41133463 -0.00497982
v 0.28438932 0.40568084 0.00430124
v 0.27029076 0.37681067 0.07961934
v 0.28283080 0.40568084 -0.02445881
v 0.28196642 0.41302627 -0.01498419
v 0.28209740 0.41450253 -0.00497982
v 0.28292903 0.41133463 -0.00163823
v 0.28175688 0.41343459 0.00502457
v 0.28433692 0.40568084 0.00502457
v 0.27029076 0.39449444 0.07961934
v 0.21789107 0.39302266 0.07961934
v 0.21789107 0.39495212 0.06498972
v 0.21789107 0.39619955 0.05787866
v 0.21789107 0.39672005 0.05499553
v 0.27029076 0.37802669 0.07488203
v 0.28330228 0.40568084 0.01421392
v 0.28169140 0.40568084 0.02327084
v 0.27793920 0.40568084 -0.02445881
v 0.28111514 0.41102052 -0.02142286
v 0.28125265 0.41133463 -0.02041427
v 0.27293628 0.42112553 -0.00168917
v 0.27956319 0.41698840 0.00134678
v 0.27808326 0.41843325 0.00501438
v 0.28084666 0.41133463 0.01459087
v 0.27029076 0.39684120 0.07499410
v 0.26990440 0.39990142 0.06982891
v 0.26854891 0.39871234 0.07499410
v 0.26697731 0.39794055 0.07961934
v 0.28158662 0.40568084 0.02364779
v 0.27797195 0.40568084 0.03498676
v 0.21789107 0.40323088 0.07961934
v 0.21788451 0.41133463 0.04435951
v 0.21788451 0.41133463 0.03670850
v 0.21789107 0.39896363 0.04741583
v 0.28080082 0.41124040 0.01501876
v 0.21789761 0.40739495 0.03671869
v 0.21788451 0.41166219 0.03670850
v 0.23989998 0.42006657 0.01991907
v 0.27881014 0.41102052 -0.02142286
v 0.21789107 0.40241423 0.04242383
v 0.26800540 0.42112553 -0.00168917
v 0.26479018 0.42216656 0.00462724
v 0.27308035 0.42133644 0.00501438
v 0.27115515 0.42065439 0.01251257
v 0.26953769 0.41961786 0.01917536
v 0.27084738 0.41089490 0.04236270
v 0.28004122 0.41006029 0.02015339
v 0.27029076 0.39956939 0.06952327
v 0.26234108 0.40185782 0.07961934
v 0.27029076 0.40034118 0.06784229
v 0.26936746 0.40958017 0.04902550
v 0.22038597 0.40346420 0.07961934
v 0.25445691 0.42165053 0.02591966
v 0.24501422 0.42099091 0.02289389
v 0.21788451 0.41133910 0.04433913
v 0.21789107 0.40567636 0.03953051
v 0.21788451 0.41166219 0.04075304
v 0.23989998 0.42006657 0.02065259
v 0.24501422 0.42099091 0.01806490
v 0.25437179 0.42264667 0.01450937
v 0.25729889 0.42183000 0.00770395
v 0.26572004 0.42228770 0.01551796
v 0.26250479 0.42112106 0.02501295
v 0.26750773 0.41876081 0.02501295
v 0.25529510 0.40422702 0.07961934
v 0.26059270 0.41030258 0.06106743
v 0.22500254 0.40384114 0.07961934
v 0.26046827 0.42016977 0.03042265
v 0.23500839 0.40436614 0.07961934
v 0.24500112 0.40476996 0.07961934
v 0.25037730 0.40479240 0.07961934
f 1 2 3
f 1 3 4
f 1 4 5
f 1 5 2
f 2 6 7
f 2 7 8
f 2 8 3
f 2 5 6
f 3 8 9
f 3 9 4
f 4 9 10
f 4 10 11
f 4 11 5
f 5 12 30
f 5 30 51
f 5 51 67
f 5 67 73
f 5 73 72
f 5 72 71
f 5 71 69
f 5 69 54
f 5 54 33
f 5 33 13
f 5 13 14
f 5 14 15
f 5 15 16
f 5 16 17
f 5 17 6
f 5 11 18
f 5 18 19
f 5 19 12
f 6 20 41
f 6 41 21
f 6 21 22
f 6 22 7
f 6 17 20
f 7 22 23
f 7 23 8
f 8 23 24
f 8 24 10
f 8 10 9
f 10 24 25
f 10 25 26
f 10 26 19
f 10 19 18
f 10 18 11
f 12 27 28
f 12 28 29
f 12 29 30
f 12 19 31
f 12 31 32
f 12 32 27
f 13 33 34
f 13 34 35
f 13 35 14
f 14 35 15
f 15 35 16
f 16 36 17
f 16 35 36
f 17 36 20
f 19 26 37
f 19 37 31
f 20 38 35
f 20 35 39
f 20 39 40
f 20 40 41
f 20 36 42
f 20 42 38
f 21 41 43
f 21 43 23
f 21 23 22
f 23 43 44
f 23 44 45
f 23 45 25
f 23 25 24
f 25 45 46
f 25 46 47
f 25 47 48
f 25 48 49
f 25 49 37
f 25 37 26
f 27 50 28
f 27 32 50
f 28 51 29
f 28 50 52
f 28 52 48
f 28 48 53
f 28 53 51
f 29 51 30
f 31 37 49
f 31 49 32
f 32 49 50
f 33 54 55
f 33 55 56
f 33 56 34
f 34 56 57
f 34 57 59
f 34 59 39
f 34 39 35
f 35 38 58
f 35 58 42
f 35 42 36
f 38 42 58
f 39 59 60
f 39 60 40
f 40 60 56
f 40 56 61
f 40 61 62
f 40 62 63
f 40 63 41
f 41 63 43
f 43 63 44
f 44 63 62
f 44 62 64
f 44 64 45
f 45 64 46
f 46 64 47
f 47 64 65
f 47 65 66
f 47 66 53
f 47 53 48
f 48 52 49
f 49 52 50
f 51 53 68
f 51 68 67
f 53 66 68
f 54 69 55
f 55 70 65
f 55 65 64
f 55 64 62
f 55 62 56
f 55 69 71
f 55 71 72
f 55 72 73
f 55 73 70
f 56 62 61
f 56 60 57
f 57 60 59
f 65 70 68
f 65 68 66
f 67 68 73
f 68 70 73

