# https://github.com/mikedh/trimesh
v 0.40618297 -0.07498592 0.30828163
v 0.40618297 -0.07560840 0.30822229
v 0.40675640 -0.07498592 0.30791572
v 0.41006470 0.07256387 0.30094367
v 0.40618297 -0.06498180 0.30723333
v 0.41408506 -0.07498592 0.30291167
v 0.40618297 -0.08447873 0.30410829
v 0.41323435 -0.08232228 0.30207106
v 0.41045541 0.07225263 0.30056787
v 0.41006470 0.07941114 0.29925257
v 0.40618297 -0.05451081 0.30466208
v 0.41909477 -0.07498592 0.29881743
v 0.40618297 -0.08725765 0.30104256
v 0.40753779 -0.08899171 0.29829329
v 0.42330417 -0.08261129 0.29324967
v 0.46030036 -0.11028939 0.24032131
v 0.43113697 0.08499122 0.27149287
v 0.45139003 0.10497725 0.24185418
v 0.44752088 0.10497725 0.24684834
v 0.43061393 0.09303899 0.27076104
v 0.41826296 0.08499122 0.28785992
v 0.41325957 0.08499122 0.29396170
v 0.46312973 -0.08499005 0.25313804
v 0.46745887 -0.07498592 0.24658133
v 0.41006470 0.08499122 0.29784825
v 0.40618297 0.02483306 0.27109730
v 0.41006470 0.09499536 0.29532644
v 0.41006470 0.09948610 0.29362547
v 0.40618297 -0.08925848 0.29872841
v 0.41141322 -0.10084105 0.28103620
v 0.46152285 -0.09179286 0.25138760
v 0.46186313 -0.10497608 0.24199262
v 0.44118157 -0.11024492 0.25057667
v 0.45498818 -0.11091187 0.24191351
v 0.45571285 -0.11108971 0.23456565
v 0.46030036 -0.11028939 0.23762149
v 0.47018743 -0.09054790 0.24050921
v 0.45706767 0.10553304 0.23416018
v 0.45077246 0.11113535 0.24097401
v 0.44251749 0.10497725 0.25317761
v 0.42994598 0.09968618 0.26991054
v 0.42702836 0.09581792 0.27444983
v 0.42133179 0.09499536 0.28160977
v 0.41222611 0.09499536 0.29269585
v 0.46812683 -0.08499005 0.24667034
v 0.47055921 -0.07498592 0.24157727
v 0.46014911 0.10255403 0.23025385
v 0.40618297 0.02483306 0.25217876
v 0.41006470 0.10226502 0.29198381
v 0.41006470 0.10377676 0.28938287
v 0.41006470 0.10664461 0.28016591
v 0.42054412 0.10155362 0.28064060
v 0.41114226 0.10197601 0.29137066
v 0.40618297 -0.09779534 0.28774124
v 0.40618297 -0.10101889 0.28271741
v 0.46518403 -0.09450509 0.24475178
v 0.43913358 -0.11024492 0.25057667
v 0.44627950 -0.11113418 0.23501068
v 0.40618297 -0.11186782 0.20725098
v 0.45287088 -0.11057840 0.22857264
v 0.46186313 -0.10497608 0.23655343
v 0.47018743 -0.09054790 0.23977739
v 0.47052771 -0.08499005 0.24166627
v 0.45301580 0.11273601 0.23501068
v 0.43336770 0.10497725 0.26408568
v 0.43836480 0.10497725 0.25815201
v 0.44138321 0.11135767 0.25170407
v 0.47055921 -0.07498592 0.23933236
v 0.47021264 -0.06902791 0.24039054
v 0.46014911 0.10255403 0.22952203
v 0.45317334 0.11266932 0.22501244
v 0.40618297 -0.03419131 0.20725098
v 0.41006470 0.10117568 0.24695714
v 0.41006470 0.08403528 0.20726088
v 0.42165947 0.11062403 0.27190822
v 0.41891834 0.11062403 0.27190822
v 0.41891834 0.11062403 0.26807112
v 0.42836431 0.11120205 0.21500431
v 0.43181753 0.11124650 0.26218688
v 0.40618297 -0.10215270 0.27500361
v 0.44218981 -0.08456766 0.20725098
v 0.44133282 -0.09265988 0.20883329
v 0.44218981 -0.08499005 0.20736966
v 0.47052771 -0.08499005 0.23942137
v 0.44499397 0.11524816 0.22501244
v 0.44499397 0.11520369 0.23501068
v 0.44482383 0.11253593 0.24458367
v 0.47021264 -0.06902791 0.23965871
v 0.46166149 -0.03499164 0.22807817
v 0.45285827 0.03499281 0.21738768
v 0.46036968 0.08499122 0.22857264
v 0.46037596 0.09499536 0.22880010
v 0.45098042 0.11102419 0.21940511
v 0.44499397 0.11220246 0.21735801
v 0.43511951 0.08332387 0.20726088
v 0.42479762 -0.03670346 0.20725098
v 0.42929691 0.11071295 0.20932777
v 0.42890623 0.10497725 0.20883329
v 0.43352523 0.10497725 0.20883329
v 0.43500608 0.11355858 0.22501244
v 0.44244817 -0.07754254 0.20725098
v 0.44268763 -0.06687146 0.20725098
v 0.43238467 0.11071295 0.20932777
v 0.44137692 0.06498297 0.20726088
v 0.44039387 0.07952230 0.20726088
v 0.43631679 0.08250131 0.20726088
v 0.43381509 -0.03843750 0.20725098
v 0.44162267 -0.05642271 0.20725098
v 0.44140843 -0.05517775 0.20725098
v 0.44023004 -0.04861949 0.20725098
v 0.43878070 -0.04435106 0.20725098
f 1 2 3
f 1 3 4
f 1 4 5
f 1 5 11
f 1 11 26
f 1 26 48
f 1 48 72
f 1 72 59
f 1 59 80
f 1 80 55
f 1 55 54
f 1 54 29
f 1 29 13
f 1 13 7
f 1 7 2
f 2 6 3
f 2 7 8
f 2 8 6
f 3 6 4
f 4 9 10
f 4 10 11
f 4 11 5
f 4 6 12
f 4 12 9
f 6 8 12
f 7 13 14
f 7 14 8
f 8 15 12
f 8 14 16
f 8 16 15
f 9 17 18
f 9 18 19
f 9 19 20
f 9 20 21
f 9 21 22
f 9 22 10
f 9 12 23
f 9 23 24
f 9 24 17
f 10 22 25
f 10 25 11
f 11 25 27
f 11 27 28
f 11 28 26
f 12 15 23
f 13 29 14
f 14 29 30
f 14 30 16
f 15 16 31
f 15 31 23
f 16 32 31
f 16 30 33
f 16 33 34
f 16 34 35
f 16 35 36
f 16 36 62
f 16 62 37
f 16 37 32
f 17 24 18
f 18 38 39
f 18 39 19
f 18 24 38
f 19 39 40
f 19 40 20
f 20 40 41
f 20 41 42
f 20 42 21
f 21 42 43
f 21 43 22
f 22 43 44
f 22 44 27
f 22 27 25
f 23 31 45
f 23 45 24
f 24 45 46
f 24 46 47
f 24 47 38
f 26 28 49
f 26 49 50
f 26 50 51
f 26 51 48
f 27 44 41
f 27 41 40
f 27 40 52
f 27 52 28
f 28 52 53
f 28 53 49
f 29 54 30
f 30 54 55
f 30 55 33
f 31 32 56
f 31 56 37
f 31 37 45
f 32 37 56
f 33 57 34
f 33 55 57
f 34 58 35
f 34 57 58
f 35 58 59
f 35 59 60
f 35 60 36
f 36 60 61
f 36 61 62
f 37 62 84
f 37 84 63
f 37 63 45
f 38 47 64
f 38 64 39
f 39 65 66
f 39 66 40
f 39 64 67
f 39 67 53
f 39 53 52
f 39 52 65
f 40 66 52
f 41 44 43
f 41 43 42
f 45 63 46
f 46 63 84
f 46 84 68
f 46 68 88
f 46 88 69
f 46 69 47
f 47 70 71
f 47 71 64
f 47 69 88
f 47 88 70
f 48 51 73
f 48 73 74
f 48 74 72
f 49 53 75
f 49 75 50
f 50 75 76
f 50 76 51
f 51 76 77
f 51 77 78
f 51 78 73
f 52 66 65
f 53 67 79
f 53 79 75
f 55 80 57
f 57 59 58
f 57 80 59
f 59 81 82
f 59 82 60
f 59 72 96
f 59 96 107
f 59 107 111
f 59 111 110
f 59 110 109
f 59 109 108
f 59 108 102
f 59 102 101
f 59 101 81
f 60 82 62
f 60 62 61
f 62 82 83
f 62 83 81
f 62 81 84
f 64 71 85
f 64 85 86
f 64 86 87
f 64 87 67
f 67 87 79
f 68 84 89
f 68 89 90
f 68 90 91
f 68 91 92
f 68 92 70
f 68 70 88
f 70 93 71
f 70 92 93
f 71 93 94
f 71 94 85
f 72 74 95
f 72 95 96
f 73 78 97
f 73 97 74
f 74 97 98
f 74 98 99
f 74 99 95
f 75 79 86
f 75 86 76
f 76 86 100
f 76 100 77
f 77 100 78
f 78 100 97
f 79 87 86
f 81 101 84
f 81 83 82
f 84 101 102
f 84 102 89
f 85 100 86
f 85 94 103
f 85 103 97
f 85 97 100
f 89 102 90
f 90 102 104
f 90 104 93
f 90 93 92
f 90 92 91
f 93 103 94
f 93 104 105
f 93 105 103
f 95 106 107
f 95 107 96
f 95 99 106
f 97 103 99
f 97 99 98
f 99 103 105
f 99 105 106
f 102 108 105
f 102 105 104
f 105 108 109
f 105 109 110
f 105 110 111
f 105 111 107
f 105 107 106

