# https://github.com/mikedh/trimesh
v -0.18620220 -0.40715826 0.07961935
v -0.18620220 0.37704682 0.07960990
v -0.18636760 0.45205998 0.07960990
v -0.19511801 0.45257497 0.07960990
v -0.24940836 -0.40715826 0.07961935
v -0.18620220 -0.41187876 0.07961935
v -0.18620220 0.37756181 0.07708831
v -0.18729699 0.45180252 0.07731497
v -0.19442491 0.45248914 0.07438728
v -0.18620220 0.37910670 0.06642586
v -0.18620220 0.38099489 0.05331737
v -0.18620220 0.38193899 0.04497818
v -0.18620220 0.38228232 0.03715841
v -0.18620220 0.38253978 0.03073639
v -0.18620220 0.38339806 -0.00499086
v -0.18620220 0.38356972 -0.01499222
v -0.18620220 0.38356972 -0.01686217
v -0.22015631 0.44982848 0.04973803
v -0.22015631 0.44982848 0.05057856
v -0.20506561 0.45128754 0.07425506
v -0.20309657 0.45094424 0.07960990
v -0.20748357 0.44879857 0.07960990
v -0.21463513 0.44416389 0.07960990
v -0.21966800 0.44013000 0.07960990
v -0.22017206 0.43952921 0.07960990
v -0.22306262 0.43506616 0.07960990
v -0.22817424 0.42596847 0.07960990
v -0.22959195 0.42322198 0.07960990
v -0.26664928 0.35009703 0.07960990
v -0.26664928 -0.39737391 0.07960990
v -0.26230949 -0.40140781 0.07960990
v -0.25454360 -0.40509838 0.07960990
v -0.24182363 -0.41050550 0.07961935
v -0.22500803 -0.41196460 0.07961935
v -0.24498984 -0.42346546 0.02500378
v -0.22500803 -0.42011818 0.04073775
v -0.18620220 -0.41282284 0.07509559
v -0.19736272 0.45137337 0.06744583
v -0.20790890 0.45068675 0.05825666
v -0.21957348 0.44982848 0.04973803
v -0.24853411 0.41069117 -0.01686217
v -0.23924024 0.42056134 -0.00092043
v -0.22908787 0.43086064 0.01871397
v -0.18620220 -0.38673133 -0.01686217
v -0.24110690 0.42056134 -0.00092043
v -0.25078669 0.41069117 -0.01686217
v -0.25103086 0.41103449 -0.01499222
v -0.25103873 0.41137782 -0.00499086
v -0.23239586 0.43403625 0.03497681
v -0.22858380 0.43789849 0.04497818
v -0.22253491 0.44527963 0.05434678
v -0.22215685 0.44270480 0.06498090
v -0.21871498 0.44914186 0.05724614
v -0.21174458 0.45051509 0.06498090
v -0.21027175 0.44982848 0.07046796
v -0.22104633 0.44107410 0.07319732
v -0.23137197 0.43292049 0.04497818
v -0.26234102 0.39446980 -0.01686217
v -0.26664928 0.38580123 -0.01686217
v -0.26664928 -0.39943379 0.07498226
v -0.26664928 -0.40801653 0.05024802
v -0.26163214 -0.41076300 0.05238239
v -0.25003844 -0.41994652 0.04004833
v -0.23498712 -0.41162127 0.07961935
v -0.23012753 -0.41187876 0.07961935
v -0.25499254 -0.42423791 0.01501186
v -0.24465904 -0.42277884 0.01462465
v -0.21974675 -0.42011818 0.02980142
v -0.21831329 -0.42011818 0.03498626
v -0.21800612 -0.42003235 0.04047331
v -0.23498712 -0.41273704 0.07497282
v -0.18620220 -0.41308033 0.07378286
v -0.20640455 -0.37840605 -0.01686217
v -0.18620220 -0.41230789 0.05648116
v -0.25821391 -0.42166308 -0.00239372
v -0.26664928 -0.42131978 -0.00919351
v -0.26664928 -0.41453940 -0.01616330
v -0.25733179 0.40288088 -0.01686217
v -0.26127774 0.39652967 -0.01686217
v -0.26664928 -0.33566400 -0.01686217
v -0.26664928 -0.40973306 0.04497818
v -0.26334918 -0.41196460 0.04497818
v -0.26096269 -0.42071897 0.02232164
v -0.25544938 -0.42183474 0.02538155
v -0.26201808 -0.42174891 0.01501186
v -0.26503465 -0.42217803 0.00435885
v -0.26664928 -0.42192057 0.00203559
v -0.26664928 -0.42157724 -0.00712524
v -0.26472747 -0.42183474 -0.00543474
v -0.25492954 -0.42303631 0.00499161
v -0.18620220 -0.41402444 0.06353594
v -0.18620220 -0.41419610 0.06498090
v -0.21501319 -0.37420052 -0.01686217
v -0.23250613 -0.36192721 -0.01686217
v -0.22102270 -0.37068158 -0.01686217
v -0.26664928 -0.42166308 0.00319722
f 1 2 3
f 1 3 4
f 1 4 5
f 1 5 33
f 1 33 64
f 1 64 65
f 1 65 34
f 1 34 6
f 1 6 37
f 1 37 72
f 1 72 92
f 1 92 91
f 1 91 74
f 1 74 44
f 1 44 17
f 1 17 16
f 1 16 15
f 1 15 14
f 1 14 13
f 1 13 12
f 1 12 11
f 1 11 10
f 1 10 7
f 1 7 2
f 2 7 3
f 3 8 9
f 3 9 4
f 3 7 10
f 3 10 11
f 3 11 12
f 3 12 13
f 3 13 14
f 3 14 15
f 3 15 16
f 3 16 17
f 3 17 8
f 4 9 18
f 4 18 19
f 4 19 20
f 4 20 21
f 4 21 5
f 5 21 22
f 5 22 23
f 5 23 24
f 5 24 25
f 5 25 26
f 5 26 27
f 5 27 28
f 5 28 29
f 5 29 30
f 5 30 31
f 5 31 32
f 5 32 33
f 6 34 35
f 6 35 36
f 6 36 37
f 8 38 9
f 8 17 38
f 9 38 39
f 9 39 40
f 9 40 18
f 17 41 42
f 17 42 43
f 17 43 40
f 17 40 39
f 17 39 38
f 17 44 73
f 17 73 93
f 17 93 95
f 17 95 94
f 17 94 80
f 17 80 59
f 17 59 58
f 17 58 79
f 17 79 78
f 17 78 46
f 17 46 41
f 18 40 42
f 18 42 45
f 18 45 46
f 18 46 47
f 18 47 48
f 18 48 19
f 19 49 50
f 19 50 51
f 19 51 52
f 19 52 53
f 19 53 54
f 19 54 20
f 19 48 49
f 20 54 21
f 21 54 53
f 21 53 55
f 21 55 22
f 22 55 53
f 22 53 23
f 23 53 24
f 24 53 56
f 24 56 25
f 25 56 26
f 26 56 52
f 26 52 27
f 27 57 28
f 27 52 57
f 28 57 29
f 29 58 59
f 29 59 80
f 29 80 77
f 29 77 76
f 29 76 88
f 29 88 87
f 29 87 96
f 29 96 81
f 29 81 61
f 29 61 60
f 29 60 30
f 29 57 58
f 30 60 31
f 31 60 61
f 31 61 62
f 31 62 32
f 32 62 63
f 32 63 33
f 33 63 64
f 34 65 35
f 35 63 66
f 35 66 67
f 35 67 68
f 35 68 69
f 35 69 70
f 35 70 36
f 35 65 71
f 35 71 63
f 36 70 72
f 36 72 37
f 40 43 42
f 41 46 45
f 41 45 42
f 44 74 68
f 44 68 75
f 44 75 76
f 44 76 77
f 44 77 73
f 46 78 47
f 47 78 48
f 48 78 79
f 48 79 49
f 49 57 50
f 49 79 57
f 50 52 51
f 50 57 52
f 52 56 53
f 57 79 58
f 61 81 62
f 62 81 82
f 62 82 83
f 62 83 63
f 63 83 84
f 63 84 66
f 63 71 64
f 64 71 65
f 66 84 83
f 66 83 85
f 66 85 86
f 66 86 87
f 66 87 88
f 66 88 89
f 66 89 90
f 66 90 67
f 67 90 68
f 68 74 91
f 68 91 92
f 68 92 69
f 68 90 75
f 69 92 70
f 70 92 72
f 73 77 93
f 75 90 76
f 76 90 89
f 76 89 88
f 77 80 94
f 77 94 95
f 77 95 93
f 81 96 83
f 81 83 82
f 83 96 85
f 85 96 87
f 85 87 86

