# https://github.com/mikedh/trimesh
v 0.39323261 0.22698028 0.03664889
v 0.40067321 0.24879208 0.01910033
v 0.40021998 0.23927009 0.02940227
v 0.39533511 0.22698028 0.04295539
v 0.38842326 0.22698028 0.03670764
v 0.27711615 0.30193767 -0.09001017
v 0.30566999 0.30193767 -0.09001017
v 0.35062847 0.31931049 -0.09071523
v 0.37117514 0.30903998 -0.06153293
v 0.40023258 0.25974149 0.00979725
v 0.40055990 0.29908282 -0.02081480
v 0.40157971 0.26503342 0.00809331
v 0.40329191 0.28553966 -0.00461764
v 0.40325415 0.27500802 0.00460711
v 0.40572178 0.28501743 0.00499881
v 0.40021998 0.23927009 0.03077326
v 0.39537290 0.22698028 0.04499229
v 0.38550243 0.22698028 0.04499229
v 0.27711615 0.30193767 -0.02526069
v 0.27711615 0.32524651 -0.09001017
v 0.32807997 0.33936411 -0.12046552
v 0.37943411 0.22698028 0.06743720
v 0.37913194 0.22698028 0.06882776
v 0.37770930 0.22698028 0.07693614
v 0.37730640 0.22698028 0.07961935
v 0.33048466 0.33936411 -0.12046552
v 0.38049164 0.30938813 -0.05068260
v 0.40055990 0.30108470 -0.02081480
v 0.40107611 0.30145025 -0.01501751
v 0.40281349 0.29589722 -0.00428469
v 0.40304011 0.29380828 0.00499881
v 0.40330452 0.28501743 0.01498739
v 0.40418580 0.27500802 0.01498739
v 0.40028295 0.24501461 0.03092994
v 0.39026141 0.22698028 0.07153055
v 0.39051318 0.22698028 0.07041419
v 0.39391246 0.22698028 0.05498086
v 0.39427757 0.22698028 0.05302231
v 0.27711615 0.32331425 -0.02526069
v 0.30322754 0.28407741 0.07961935
v 0.27892908 0.40161389 -0.03217435
v 0.28817007 0.38159510 -0.06219883
v 0.29922399 0.37064567 -0.08080500
v 0.31871310 0.35095763 -0.11129953
v 0.32807997 0.34072191 -0.12046552
v 0.27746868 0.39496419 -0.02526069
v 0.27788413 0.40457320 -0.02526069
v 0.27790931 0.40479952 -0.02526069
v 0.38754198 0.22698028 0.07961935
v 0.33048466 0.34072191 -0.12046552
v 0.38049164 0.31064150 -0.05068260
v 0.39139450 0.31093740 -0.03238979
v 0.39199880 0.31121594 -0.02526069
v 0.39202398 0.31121594 -0.02498650
v 0.39631712 0.30646366 -0.01501751
v 0.40087467 0.30085838 -0.00712457
v 0.39980453 0.29981393 -0.00046552
v 0.39883509 0.29880428 0.00499881
v 0.38066790 0.29079676 0.07961935
v 0.40123978 0.29163232 0.01498739
v 0.40018222 0.29025713 0.02049090
v 0.39053836 0.28127477 0.06236457
v 0.39086571 0.27500802 0.06379431
v 0.38634595 0.27500802 0.07961935
v 0.38712651 0.24532795 0.07961935
v 0.30322754 0.31588119 0.07961935
v 0.28202620 0.40161389 -0.03217435
v 0.30121318 0.37064567 -0.08080500
v 0.32131922 0.35095763 -0.11129953
v 0.28303340 0.40479952 -0.02526069
v 0.33156738 0.34164453 -0.11498159
v 0.39130634 0.31076333 -0.01501751
v 0.39046285 0.31031075 -0.00859348
v 0.39513367 0.30512327 -0.00451971
v 0.39383692 0.30334768 0.00499881
v 0.37164095 0.30127618 0.07499719
v 0.37846467 0.29838648 0.06498902
v 0.37665173 0.29666314 0.07499719
v 0.37569490 0.29568830 0.07961935
v 0.38185135 0.28872526 0.07961935
v 0.38376501 0.28522632 0.07961935
v 0.38518769 0.28038698 0.07961935
v 0.36036044 0.30402657 0.07961935
v 0.36504388 0.30275583 0.07961935
v 0.36844313 0.30146766 0.07961935
v 0.37060860 0.30051023 0.07961935
f 1 2 3
f 1 3 4
f 1 4 17
f 1 17 38
f 1 38 37
f 1 37 36
f 1 36 35
f 1 35 49
f 1 49 25
f 1 25 24
f 1 24 23
f 1 23 22
f 1 22 18
f 1 18 5
f 1 5 6
f 1 6 7
f 1 7 8
f 1 8 2
f 2 8 9
f 2 9 10
f 2 10 11
f 2 11 12
f 2 12 13
f 2 13 14
f 2 14 15
f 2 15 3
f 3 16 17
f 3 17 4
f 3 15 16
f 5 18 6
f 6 19 39
f 6 39 20
f 6 20 45
f 6 45 21
f 6 21 26
f 6 26 7
f 6 18 22
f 6 22 23
f 6 23 24
f 6 24 25
f 6 25 19
f 7 26 8
f 8 26 27
f 8 27 9
f 9 27 11
f 9 11 10
f 11 28 15
f 11 15 13
f 11 13 12
f 11 27 51
f 11 51 28
f 13 15 14
f 15 28 29
f 15 29 30
f 15 30 31
f 15 31 32
f 15 32 33
f 15 33 16
f 16 34 35
f 16 35 36
f 16 36 37
f 16 37 38
f 16 38 17
f 16 33 34
f 19 25 40
f 19 40 66
f 19 66 39
f 20 41 42
f 20 42 43
f 20 43 44
f 20 44 45
f 20 39 46
f 20 46 47
f 20 47 48
f 20 48 41
f 21 45 50
f 21 50 26
f 25 49 65
f 25 65 64
f 25 64 82
f 25 82 81
f 25 81 80
f 25 80 59
f 25 59 79
f 25 79 86
f 25 86 85
f 25 85 84
f 25 84 83
f 25 83 66
f 25 66 40
f 26 50 51
f 26 51 27
f 28 51 52
f 28 52 29
f 29 52 53
f 29 53 54
f 29 54 55
f 29 55 56
f 29 56 30
f 30 56 31
f 31 56 57
f 31 57 58
f 31 58 59
f 31 59 60
f 31 60 32
f 32 60 61
f 32 61 62
f 32 62 63
f 32 63 33
f 33 63 35
f 33 35 34
f 35 63 64
f 35 64 65
f 35 65 49
f 39 66 46
f 41 67 68
f 41 68 43
f 41 43 42
f 41 48 70
f 41 70 67
f 43 68 69
f 43 69 44
f 44 69 50
f 44 50 45
f 46 66 47
f 47 66 48
f 48 66 70
f 50 69 71
f 50 71 52
f 50 52 51
f 52 71 70
f 52 70 53
f 53 70 54
f 54 70 55
f 55 72 73
f 55 73 56
f 55 70 72
f 56 73 74
f 56 74 57
f 57 74 75
f 57 75 76
f 57 76 77
f 57 77 78
f 57 78 59
f 57 59 58
f 59 78 79
f 59 80 60
f 60 80 81
f 60 81 61
f 61 81 62
f 62 81 82
f 62 82 64
f 62 64 63
f 66 83 70
f 67 69 68
f 67 70 69
f 69 70 71
f 70 83 84
f 70 84 85
f 70 85 86
f 70 86 76
f 70 76 73
f 70 73 72
f 73 76 74
f 74 76 75
f 76 86 78
f 76 78 77
f 78 86 79

