# https://github.com/mikedh/trimesh
v -0.42478561 -0.00492494 0.07961935
v -0.42366904 -0.01491557 0.07961935
v -0.41016144 -0.17044766 0.08976203
v -0.41383791 -0.16629900 0.10220385
v -0.41394684 -0.16494435 0.10220385
v -0.42405030 -0.00492494 0.08500240
v -0.42165381 0.11496262 0.10220385
v -0.42456773 0.00498103 0.07961935
v -0.39341313 -0.27492595 0.07961935
v -0.39158851 -0.28432390 0.07961935
v -0.39011791 -0.28025991 0.09046724
v -0.38565168 -0.27729660 0.10220385
v -0.42165381 -0.00492494 0.10220385
v -0.42075509 0.12444525 0.10220385
v -0.42056447 0.13214989 0.09499697
v -0.42042831 0.14197119 0.08263917
v -0.42034662 0.14349517 0.07961935
v -0.38968217 -0.28948855 0.07961935
v -0.38366365 -0.28500122 0.10220385
v -0.42034662 0.12723924 0.10220385
v -0.41255796 0.17507572 0.07961935
v -0.42001981 0.13011789 0.10022970
v -0.41062441 0.18261103 0.07961935
v -0.38543382 -0.29507652 0.07961935
v -0.37952423 -0.29947919 0.08851520
v -0.37843493 -0.29787052 0.09499697
v -0.38183907 -0.29287520 0.09499697
v -0.38053188 -0.29101256 0.10163791
v -0.38088590 -0.29008120 0.10220385
v -0.38235649 -0.28745654 0.10220385
v -0.41095120 0.16339177 0.10220385
v -0.40250894 0.19548032 0.10220385
v -0.40095666 0.20106830 0.10220385
v -0.40321702 0.20487829 0.08500240
v -0.40414295 0.20487829 0.07961935
v -0.38083142 -0.30057985 0.07961935
v -0.38053188 -0.30032584 0.08184994
v -0.37219855 -0.30134183 0.10220385
v -0.26234037 -0.40150213 0.07961935
v -0.37734559 -0.29549986 0.10220385
v -0.37832600 -0.29414520 0.10220385
v -0.38042295 -0.29084322 0.10220385
v -0.40065712 0.20199963 0.10220385
v -0.40125623 0.20496295 0.09443766
v -0.40013969 0.21029693 0.09073474
v -0.40076604 0.21173626 0.08500240
v -0.40114731 0.21334492 0.07961935
v -0.26114210 -0.40074015 0.08500240
v -0.26002556 -0.39997813 0.09002953
v -0.26244929 -0.39303550 0.10220385
v -0.25455171 -0.40514278 0.07961935
v -0.39292291 0.22062624 0.10220385
v -0.39161572 0.22367422 0.10220385
v -0.39224207 0.22562155 0.09539489
v -0.39047194 0.23095553 0.09232423
v -0.39128894 0.23239486 0.08500240
v -0.39428458 0.22824620 0.07961935
v -0.24098964 -0.41039211 0.08131275
v -0.25084800 -0.40031680 0.10101891
v -0.25749287 -0.39879280 0.09669036
v -0.25542316 -0.39769214 0.10220385
v -0.24183387 -0.41047677 0.07961935
v -0.38606018 0.23485018 0.10220385
v -0.38788480 0.23459618 0.09539489
v -0.38232926 0.24526414 0.09430723
v -0.39183360 0.23324151 0.07961935
v -0.23499838 -0.41166210 0.07961935
v -0.23499838 -0.41073078 0.08324489
v -0.23499838 -0.40505812 0.10220385
v -0.23780337 -0.40438080 0.10220385
v -0.24491119 -0.40217948 0.10220385
v -0.24888723 -0.40065548 0.10220385
v -0.25035781 -0.40006280 0.10220385
v -0.25204626 -0.39930081 0.10220385
v -0.38344580 0.24001482 0.10220385
v -0.38012338 0.25017479 0.09051809
v -0.38064080 0.25093681 0.08500240
v -0.38178459 0.24306281 0.10220385
v -0.38107651 0.25169879 0.07961935
v -0.23015088 -0.41183144 0.07961935
v -0.14659984 -0.41115409 0.10220385
v -0.22780883 -0.40598944 0.10220385
v -0.37723666 0.25669408 0.07961935
v -0.37919745 0.25432342 0.07961935
v -0.38069528 0.24458681 0.10220385
v -0.37900680 0.24882013 0.09718114
v -0.21996573 0.43991208 0.07988463
v -0.22500384 -0.41200078 0.07961935
v -0.14659984 -0.41123876 0.10084426
v -0.14659984 0.39029759 0.10220385
v -0.22018358 0.43957341 0.07961935
v -0.37813535 0.24780414 0.10220385
v -0.21168686 0.44042009 0.10220385
v -0.21236768 0.44194406 0.09499697
v -0.21462804 0.44423008 0.07961935
v -0.21969339 0.44008142 0.07961935
v -0.18502569 -0.41191611 0.07961935
v -0.14659984 -0.41149276 0.09356444
v -0.14659984 0.39046693 0.10129746
v -0.14687216 0.41899949 0.10220385
v -0.21116944 0.44084340 0.10220385
v -0.21021628 0.44719338 0.07961935
v -0.21040690 0.44135141 0.10220385
v -0.17002028 -0.41174677 0.07961935
v -0.16081551 -0.41098475 0.07961935
v -0.14659984 -0.41056144 0.08800674
v -0.14659984 0.39359960 0.07961935
v -0.14752576 0.42264014 0.10220385
v -0.20749298 0.44880205 0.07961935
v -0.20561388 0.44372207 0.10220385
v -0.20310844 0.45100337 0.07961935
v -0.15776539 -0.41056144 0.07961935
v -0.14659984 -0.40929145 0.08684833
v -0.14659984 -0.39718416 0.07961935
v -0.18636012 0.45227337 0.07961935
v -0.16830459 0.44185942 0.08880701
v -0.14828829 0.42230147 0.09902044
v -0.15735690 0.43203813 0.09748179
v -0.15411617 0.42949814 0.10220385
v -0.20329908 0.44482273 0.10220385
v -0.20180127 0.45066470 0.08320289
v -0.19597338 0.45244271 0.08592205
v -0.19512916 0.45244271 0.07961935
v -0.14659984 -0.40429613 0.08245125
v -0.14717174 -0.39938548 0.07961935
v -0.14659984 -0.39955482 0.07965693
v -0.18439934 0.45295072 0.08448289
v -0.17810848 0.45134205 0.08746733
v -0.16756929 0.44211340 0.09499697
v -0.17336994 0.44719338 0.09499697
v -0.16835906 0.44118208 0.10220385
v -0.19240585 0.44905606 0.10220385
v -0.19082633 0.45024139 0.10059888
v -0.19308668 0.45134205 0.09499697
v -0.19994941 0.44973338 0.08987036
v -0.18502569 0.45244271 0.09499697
v -0.17838082 0.45117271 0.09499697
v -0.17595708 0.44668540 0.10220385
v -0.18502569 0.44956404 0.10220385
v -0.18502569 0.45032606 0.10075363
v -0.17976971 0.45007205 0.10040434
v -0.17789063 0.44804007 0.10220385
v -0.18153986 0.44939470 0.10220385
f 1 2 3
f 1 3 4
f 1 4 5
f 1 5 6
f 1 6 7
f 1 7 8
f 1 8 17
f 1 17 21
f 1 21 23
f 1 23 35
f 1 35 47
f 1 47 57
f 1 57 66
f 1 66 79
f 1 79 84
f 1 84 83
f 1 83 91
f 1 91 96
f 1 96 95
f 1 95 102
f 1 102 109
f 1 109 111
f 1 111 123
f 1 123 115
f 1 115 107
f 1 107 114
f 1 114 125
f 1 125 112
f 1 112 105
f 1 105 104
f 1 104 97
f 1 97 88
f 1 88 80
f 1 80 67
f 1 67 62
f 1 62 51
f 1 51 39
f 1 39 36
f 1 36 24
f 1 24 18
f 1 18 10
f 1 10 9
f 1 9 2
f 2 9 3
f 3 9 4
f 4 9 10
f 4 10 11
f 4 11 12
f 4 12 19
f 4 19 30
f 4 30 29
f 4 29 42
f 4 42 41
f 4 41 40
f 4 40 38
f 4 38 50
f 4 50 61
f 4 61 74
f 4 74 73
f 4 73 72
f 4 72 71
f 4 71 70
f 4 70 69
f 4 69 82
f 4 82 81
f 4 81 90
f 4 90 100
f 4 100 108
f 4 108 119
f 4 119 131
f 4 131 138
f 4 138 142
f 4 142 143
f 4 143 139
f 4 139 132
f 4 132 120
f 4 120 110
f 4 110 103
f 4 103 101
f 4 101 93
f 4 93 92
f 4 92 85
f 4 85 78
f 4 78 75
f 4 75 63
f 4 63 53
f 4 53 52
f 4 52 43
f 4 43 33
f 4 33 32
f 4 32 31
f 4 31 20
f 4 20 14
f 4 14 7
f 4 7 13
f 4 13 5
f 5 13 6
f 6 13 7
f 7 14 15
f 7 15 16
f 7 16 17
f 7 17 8
f 10 18 11
f 11 19 12
f 11 18 19
f 14 20 15
f 15 21 16
f 15 20 22
f 15 22 23
f 15 23 21
f 16 21 17
f 18 24 25
f 18 25 26
f 18 26 27
f 18 27 28
f 18 28 29
f 18 29 30
f 18 30 19
f 20 31 22
f 22 31 23
f 23 32 33
f 23 33 34
f 23 34 35
f 23 31 32
f 24 36 37
f 24 37 25
f 25 38 26
f 25 37 39
f 25 39 38
f 26 40 41
f 26 41 27
f 26 38 40
f 27 41 28
f 28 42 29
f 28 41 42
f 33 43 34
f 34 43 44
f 34 44 45
f 34 45 46
f 34 46 47
f 34 47 35
f 36 39 37
f 38 39 48
f 38 48 49
f 38 49 50
f 39 51 48
f 43 52 45
f 43 45 44
f 45 52 53
f 45 53 46
f 46 53 54
f 46 54 55
f 46 55 47
f 47 55 56
f 47 56 57
f 48 51 49
f 49 51 58
f 49 58 59
f 49 59 60
f 49 60 50
f 50 60 61
f 51 62 58
f 53 63 55
f 53 55 54
f 55 63 64
f 55 64 56
f 56 64 65
f 56 65 66
f 56 66 57
f 58 62 67
f 58 67 68
f 58 68 69
f 58 69 70
f 58 70 71
f 58 71 59
f 59 71 72
f 59 72 73
f 59 73 74
f 59 74 60
f 60 74 61
f 63 75 64
f 64 75 65
f 65 76 77
f 65 77 66
f 65 75 78
f 65 78 76
f 66 77 79
f 67 80 81
f 67 81 68
f 68 81 82
f 68 82 69
f 76 83 84
f 76 84 77
f 76 78 85
f 76 85 86
f 76 86 87
f 76 87 83
f 77 84 79
f 80 88 81
f 81 88 89
f 81 89 98
f 81 98 106
f 81 106 113
f 81 113 124
f 81 124 126
f 81 126 114
f 81 114 107
f 81 107 99
f 81 99 90
f 83 87 91
f 85 92 86
f 86 92 87
f 87 93 94
f 87 94 95
f 87 95 96
f 87 96 91
f 87 92 93
f 88 97 98
f 88 98 89
f 90 99 100
f 93 101 94
f 94 102 95
f 94 101 103
f 94 103 102
f 97 104 98
f 98 104 105
f 98 105 106
f 99 107 100
f 100 107 108
f 102 103 109
f 103 110 111
f 103 111 109
f 105 112 106
f 106 112 113
f 107 115 116
f 107 116 117
f 107 117 108
f 108 117 116
f 108 116 118
f 108 118 119
f 110 120 121
f 110 121 111
f 111 121 122
f 111 122 123
f 112 124 113
f 112 125 126
f 112 126 124
f 114 126 125
f 115 123 127
f 115 127 128
f 115 128 116
f 116 119 118
f 116 128 129
f 116 129 119
f 119 129 130
f 119 130 131
f 120 132 133
f 120 133 134
f 120 134 135
f 120 135 121
f 121 135 134
f 121 134 122
f 122 134 136
f 122 136 127
f 122 127 123
f 127 136 137
f 127 137 128
f 128 130 129
f 128 137 130
f 130 137 131
f 131 137 138
f 132 139 133
f 133 140 136
f 133 136 134
f 133 139 140
f 136 140 141
f 136 141 137
f 137 141 138
f 138 141 142
f 139 143 140
f 140 143 141
f 141 143 142

