# https://github.com/mikedh/trimesh
v -0.14657262 -0.41146794 0.09356444
v -0.14657262 -0.41121903 0.10084426
v -0.14657262 -0.41055530 0.08800674
v -0.00495178 -0.42532334 0.07961935
v -0.13770342 -0.41296133 0.10220385
v -0.14657262 -0.41113606 0.10220385
v -0.14657262 -0.40931082 0.08684833
v -0.11201140 -0.41072124 0.07961935
v -0.10497329 -0.41213167 0.07961935
v -0.10033841 -0.41279539 0.07961935
v -0.03035770 -0.42208764 0.07961935
v -0.02034411 -0.42341509 0.07961935
v -0.01033051 -0.42465958 0.07961935
v 0.20470428 -0.42316619 0.07961935
v -0.00495178 -0.42457664 0.08500240
v -0.00495178 -0.42217061 0.10220385
v -0.14657262 0.39040244 0.10220385
v -0.14657262 -0.40433282 0.08245125
v -0.14291051 -0.40242460 0.07961935
v 0.00225802 -0.42208764 0.10220385
v 0.20916748 -0.42250246 0.07961935
v 0.21231461 -0.42100906 0.08302604
v 0.20727921 -0.41968161 0.08969129
v 0.20436096 -0.42125797 0.08581594
v -0.12614489 0.40243259 0.10220385
v -0.14657262 0.39056838 0.10129746
v -0.14657262 -0.39960372 0.07965693
v -0.14645818 -0.39960372 0.07961935
v 0.00506182 -0.42200467 0.10220385
v 0.21363068 -0.42158982 0.07961935
v 0.21529007 -0.41312727 0.10220385
v 0.20476151 -0.41594812 0.10220385
v 0.20064162 -0.42001349 0.09010911
v -0.12099504 0.40442377 0.10220385
v -0.11492965 0.40649793 0.07961935
v -0.13158083 0.39977765 0.07961935
v -0.14657262 0.39355516 0.07961935
v -0.14657262 0.39338925 0.08088829
v -0.14657262 -0.39719772 0.07961935
v 0.21981050 -0.41835415 0.07961935
v 0.22999576 -0.40997455 0.09004721
v 0.22061159 -0.41072124 0.10220385
v -0.09919401 0.40989956 0.07961935
v -0.10537383 0.40906990 0.07961935
v -0.01479371 0.41794729 0.10220385
v -0.01467927 0.42110002 0.07961935
v -0.02160296 0.42018738 0.07961935
v -0.03476368 0.41844511 0.07961935
v 0.22730640 -0.41403988 0.07961935
v 0.23016742 -0.40408391 0.10220385
v 0.22782138 -0.40856412 0.09671026
v 0.22576144 -0.40756851 0.10220385
v 0.22112657 -0.41055530 0.10187446
v 0.23062518 -0.41063827 0.08500240
v 0.41859466 -0.22860996 0.07961935
v -0.00495178 0.41910884 0.10220385
v -0.00495178 0.42151487 0.08500240
v -0.00495178 0.42226157 0.07961935
v 0.23114017 -0.41121903 0.07961935
v 0.41733581 -0.22728249 0.08500240
v 0.41075543 -0.23068412 0.09149301
v 0.40509060 -0.23109895 0.10220385
v 0.42746383 -0.21964958 0.07961935
v 0.00506182 0.41894290 0.10220385
v 0.00506182 0.41960663 0.09751274
v 0.00042695 0.42217860 0.07961935
v 0.42248565 -0.21251447 0.10220385
v 0.42855102 -0.21848805 0.07961935
v 0.13821401 0.41056329 0.10220385
v 0.00506182 0.42134893 0.08500240
v 0.00506182 0.42209563 0.07961935
v 0.43032485 -0.21035735 0.09082538
v 0.42431670 -0.21035735 0.10220385
v 0.42952377 -0.21732652 0.07961935
v 0.25008017 0.40002656 0.10021422
v 0.25030905 0.40475565 0.07961935
v 0.24761969 0.39911392 0.10220385
v 0.43513140 -0.20828319 0.07961935
v 0.43656191 -0.20513046 0.07961935
v 0.43152648 -0.20463267 0.09449072
v 0.43049651 -0.20106511 0.10139473
v 0.42866546 -0.20778538 0.09748621
v 0.43227035 -0.21375898 0.07961935
v 0.43146926 -0.21193370 0.08500240
v 0.42746383 -0.20571123 0.10220385
v 0.26146704 0.40118808 0.08285139
v 0.26232535 0.40185180 0.07961935
v 0.25523001 0.40417486 0.07961935
v 0.25208288 0.39811832 0.10220385
v 0.25946432 0.39961171 0.08951886
v 0.43770632 -0.19716568 0.07961935
v 0.42963821 -0.20189478 0.10220385
v 0.43799242 -0.19492559 0.07961935
v 0.43289977 -0.19492559 0.09499697
v 0.43049651 -0.19492559 0.10143452
v 0.43015319 -0.19492559 0.10220385
v 0.26221091 0.39156398 0.10220385
v 0.27010736 0.39015356 0.09033460
v 0.26690301 0.39786944 0.07961935
v 0.25465780 0.39670789 0.10220385
v 0.42254287 0.00494049 0.07961935
v 0.42008239 0.00104107 0.10103659
v 0.41979629 0.00220260 0.10220385
v 0.26701745 0.38733271 0.10220385
v 0.27216730 0.38260362 0.10220385
v 0.37087274 0.29075980 0.10194962
v 0.27130899 0.39139804 0.08500240
v 0.37567925 0.29565480 0.07961935
v 0.37247491 0.29225320 0.09499697
v 0.37911248 0.28901750 0.08792937
v 0.37470651 0.29465920 0.08435246
v 0.42185622 0.01025034 0.07961935
v 0.40434673 0.14772569 0.10220385
v 0.37081552 0.29067683 0.10220385
v 0.37573647 0.28578180 0.10220385
v 0.37751031 0.28744113 0.09499697
v 0.38042855 0.29042792 0.08126411
v 0.38065743 0.29067683 0.07961935
v 0.38065743 0.28088680 0.10177497
v 0.41727859 0.04493031 0.07961935
v 0.41001156 0.09952220 0.07961935
v 0.38632226 0.27491319 0.07961935
v 0.38546395 0.27491319 0.08500240
v 0.38363290 0.27491319 0.09499697
v 0.38180184 0.27466431 0.10220385
v 0.37991357 0.28138459 0.10220385
v 0.38163018 0.28246313 0.09499697
v 0.38243127 0.28544995 0.08475922
v 0.38185906 0.28860265 0.07961935
v 0.38054299 0.28072086 0.10220385
v 0.38071465 0.28005713 0.10220385
v 0.38517785 0.28030601 0.07961935
v 0.38374734 0.28511807 0.07961935
f 1 2 6
f 1 6 17
f 1 17 26
f 1 26 38
f 1 38 37
f 1 37 39
f 1 39 27
f 1 27 18
f 1 18 7
f 1 7 3
f 1 3 4
f 1 4 5
f 1 5 2
f 2 5 6
f 3 7 8
f 3 8 9
f 3 9 10
f 3 10 11
f 3 11 12
f 3 12 13
f 3 13 4
f 4 13 12
f 4 12 11
f 4 11 10
f 4 10 9
f 4 9 8
f 4 8 19
f 4 19 28
f 4 28 39
f 4 39 37
f 4 37 36
f 4 36 35
f 4 35 44
f 4 44 43
f 4 43 48
f 4 48 47
f 4 47 46
f 4 46 58
f 4 58 66
f 4 66 71
f 4 71 76
f 4 76 88
f 4 88 87
f 4 87 99
f 4 99 108
f 4 108 118
f 4 118 129
f 4 129 133
f 4 133 132
f 4 132 122
f 4 122 121
f 4 121 120
f 4 120 112
f 4 112 101
f 4 101 93
f 4 93 91
f 4 91 79
f 4 79 78
f 4 78 83
f 4 83 74
f 4 74 68
f 4 68 63
f 4 63 55
f 4 55 59
f 4 59 49
f 4 49 40
f 4 40 30
f 4 30 21
f 4 21 14
f 4 14 15
f 4 15 5
f 5 15 16
f 5 16 20
f 5 20 29
f 5 29 32
f 5 32 31
f 5 31 42
f 5 42 52
f 5 52 50
f 5 50 62
f 5 62 67
f 5 67 73
f 5 73 85
f 5 85 92
f 5 92 96
f 5 96 103
f 5 103 113
f 5 113 125
f 5 125 131
f 5 131 130
f 5 130 126
f 5 126 115
f 5 115 114
f 5 114 105
f 5 105 104
f 5 104 97
f 5 97 100
f 5 100 89
f 5 89 77
f 5 77 69
f 5 69 64
f 5 64 56
f 5 56 45
f 5 45 34
f 5 34 25
f 5 25 17
f 5 17 6
f 7 18 19
f 7 19 8
f 14 20 16
f 14 16 15
f 14 21 22
f 14 22 23
f 14 23 24
f 14 24 20
f 17 25 26
f 18 27 19
f 19 27 28
f 20 24 29
f 21 30 22
f 22 31 32
f 22 32 23
f 22 30 31
f 23 32 24
f 24 32 33
f 24 33 29
f 25 34 35
f 25 35 36
f 25 36 37
f 25 37 38
f 25 38 26
f 27 39 28
f 29 33 32
f 30 40 41
f 30 41 42
f 30 42 31
f 34 43 44
f 34 44 35
f 34 45 46
f 34 46 47
f 34 47 48
f 34 48 43
f 40 49 41
f 41 50 51
f 41 51 52
f 41 52 53
f 41 53 42
f 41 49 54
f 41 54 55
f 41 55 50
f 42 53 52
f 45 56 57
f 45 57 46
f 46 57 58
f 49 59 54
f 50 52 51
f 50 55 60
f 50 60 61
f 50 61 62
f 54 59 55
f 55 63 60
f 56 64 65
f 56 65 57
f 57 66 58
f 57 65 66
f 60 62 61
f 60 63 62
f 62 63 68
f 62 68 67
f 64 69 65
f 65 69 70
f 65 70 66
f 66 70 71
f 67 68 72
f 67 72 73
f 68 74 72
f 69 75 76
f 69 76 71
f 69 71 70
f 69 77 75
f 72 78 79
f 72 79 80
f 72 80 81
f 72 81 82
f 72 82 73
f 72 74 83
f 72 83 84
f 72 84 78
f 73 82 85
f 75 86 87
f 75 87 88
f 75 88 76
f 75 77 89
f 75 89 90
f 75 90 86
f 78 84 83
f 79 91 81
f 79 81 80
f 81 92 82
f 81 91 93
f 81 93 94
f 81 94 95
f 81 95 96
f 81 96 92
f 82 92 85
f 86 90 97
f 86 97 98
f 86 98 99
f 86 99 87
f 89 100 90
f 90 100 97
f 93 101 102
f 93 102 103
f 93 103 94
f 94 103 95
f 95 103 96
f 97 104 98
f 98 104 105
f 98 105 106
f 98 106 107
f 98 107 99
f 99 107 106
f 99 106 109
f 99 109 110
f 99 110 111
f 99 111 108
f 101 112 113
f 101 113 102
f 102 113 103
f 105 114 106
f 106 114 115
f 106 115 116
f 106 116 110
f 106 110 109
f 108 111 110
f 108 110 117
f 108 117 118
f 110 116 119
f 110 119 117
f 112 120 113
f 113 120 121
f 113 121 122
f 113 122 123
f 113 123 124
f 113 124 125
f 115 126 119
f 115 119 116
f 117 119 127
f 117 127 128
f 117 128 129
f 117 129 118
f 119 130 131
f 119 131 124
f 119 124 127
f 119 126 130
f 122 132 123
f 123 132 124
f 124 132 127
f 124 131 125
f 127 133 128
f 127 132 133
f 128 133 129

