# https://github.com/mikedh/trimesh
v -0.47100437 0.09491716 0.21863611
v -0.47082549 0.08497179 0.21910672
v -0.47100437 0.09491716 0.22237749
v -0.47055709 0.10079397 0.21894200
v -0.42144501 0.11480791 0.10222959
v -0.44121510 -0.13798541 0.13816100
v -0.44121510 -0.14241563 0.13816100
v -0.47028875 0.07484559 0.21967146
v -0.47082549 0.08497179 0.22336578
v -0.46823120 0.09491716 0.22734247
v -0.47055709 0.10079397 0.22134215
v -0.46903634 0.08497179 0.22837783
v -0.38163650 0.24292241 0.10222959
v -0.38324672 0.23993880 0.10222959
v -0.38593048 0.23469487 0.10222959
v -0.39138734 0.22357413 0.10222959
v -0.39272922 0.22050011 0.10222959
v -0.40051204 0.20187514 0.10222959
v -0.41079962 0.16326900 0.10222959
v -0.42010319 0.12719442 0.10222959
v -0.42046100 0.12439164 0.10222959
v -0.42144501 -0.00480781 0.10222959
v -0.43021184 -0.15064315 0.11961880
v -0.38360459 -0.28490570 0.10222959
v -0.44103616 -0.14232521 0.14463197
v -0.46993089 0.06978249 0.22033031
v -0.46993089 0.06978249 0.22000089
v -0.47028875 0.07484559 0.22228336
v -0.46939415 0.07484559 0.22724836
v -0.46501076 0.08497179 0.23501350
v -0.46089572 0.08497179 0.24139032
v -0.46026951 0.09148148 0.24049616
v -0.46277434 0.09482675 0.23562530
v -0.37796879 0.24780469 0.10222959
v -0.38047355 0.24454984 0.10222959
v -0.45928550 0.09817201 0.23936668
v -0.46179026 0.10142686 0.23270749
v -0.28046030 0.27049822 0.29059309
v -0.29083735 0.28089565 0.26141497
v -0.29271591 0.28297514 0.25501460
v -0.29933578 0.27917781 0.24852014
v -0.29522073 0.28523546 0.24560232
v -0.29906738 0.28894237 0.22809546
v -0.30040926 0.29047939 0.22143626
v -0.20952061 0.43956956 0.10971236
v -0.21086247 0.44065452 0.10307670
v -0.46518964 0.07484559 0.23501350
v -0.41384113 -0.16492833 0.10222959
v -0.42090827 -0.16104059 0.10837111
v -0.38029468 -0.29069212 0.10222959
v -0.38029468 -0.28065631 0.12147772
v -0.44094670 -0.14241563 0.14500844
v -0.41366225 -0.16637494 0.10222959
v -0.44049942 -0.07071852 0.26127380
v -0.45007139 -0.03030414 0.24061380
v -0.44103616 -0.06493212 0.26235619
v -0.43155372 -0.05489633 0.28313383
v -0.42198175 -0.04495096 0.30393499
v -0.41938752 -0.03482476 0.30927646
v -0.44049942 0.08497179 0.27085078
v -0.43996269 0.09012530 0.27014488
v -0.21095192 0.44083536 0.10222959
v -0.44980299 0.09979944 0.24995551
v -0.43101698 0.09139107 0.28165141
v -0.40990502 0.08994447 0.30995888
v -0.25451764 0.24301282 0.34257245
v -0.25165501 0.24644850 0.34257245
v -0.24637704 0.25151160 0.34257245
v -0.27017266 0.28017235 0.29026365
v -0.27732927 0.27755040 0.28494570
v -0.27947623 0.27953947 0.27941597
v -0.28189158 0.28170937 0.27278030
v -0.28770632 0.28794783 0.25501460
v -0.28958493 0.28966567 0.24936724
v -0.21113084 0.43152288 0.12310135
v -0.20120108 0.42112541 0.16253886
v -0.11031243 0.46036446 0.24040203
v -0.37698472 -0.28427282 0.12488968
v -0.37823713 -0.29403737 0.10222959
v -0.37036490 -0.28056592 0.15145588
v -0.43003291 -0.15010068 0.17049223
v -0.34003884 -0.18020804 0.31017065
v -0.43092752 -0.06131562 0.28181612
v -0.34003884 -0.27016848 0.23047206
v -0.32044768 -0.26040393 0.27089787
v -0.41017342 -0.04024951 0.32014766
v -0.42117667 -0.05155107 0.30224079
v -0.41017342 -0.03735631 0.32014766
v -0.41366225 -0.03428229 0.31591213
v -0.41929805 0.08497179 0.29927590
v -0.42332363 0.08497179 0.29402858
v -0.43191153 0.08497179 0.28275734
v -0.20540558 0.44372854 0.10222959
v -0.34308040 0.08497179 0.34257245
v -0.34164912 0.09066778 0.34257245
v -0.34102291 0.09247603 0.34257245
v -0.31123358 0.16489643 0.34257245
v -0.30667126 0.17402810 0.34257245
v -0.30264568 0.18026656 0.34257245
v -0.29262644 0.19346678 0.34257245
v -0.26346338 0.23144002 0.34257245
v -0.25845379 0.23794973 0.34257245
v -0.40972614 -0.03057537 0.31991237
v -0.11854250 0.32863346 0.34259599
v -0.24494570 0.25268695 0.34257245
v -0.08034422 0.41018552 0.31040594
v -0.10485553 0.46090692 0.24089618
v -0.10485553 0.46144938 0.23501350
v -0.11084917 0.46072608 0.23501350
v -0.19216588 0.44888207 0.10222959
v -0.20307969 0.44472310 0.10222959
v -0.20352697 0.28442174 0.34257245
v -0.18661954 0.29735073 0.34257245
v -0.18160993 0.30114806 0.34257245
v -0.37063324 -0.29051128 0.13138416
v -0.37725312 -0.29539356 0.10222959
v -0.36061406 -0.28065631 0.17220998
v -0.32921451 -0.19883302 0.30901763
v -0.33136147 -0.19223291 0.31146485
v -0.34147018 -0.17496412 0.31181780
v -0.35989839 -0.12993871 0.31995943
v -0.36240321 -0.13391685 0.31499445
v -0.36097187 -0.14187315 0.31165308
v -0.35095263 -0.28065631 0.19122280
v -0.34057558 -0.28047550 0.21169454
v -0.11067026 -0.45216882 0.25247329
v -0.33136147 -0.27071095 0.24202564
v -0.28851146 -0.25850525 0.30809993
v -0.30121440 -0.25136268 0.30186430
v -0.29835176 -0.24792700 0.30854702
v -0.23769967 -0.30778006 0.30675870
v -0.30783421 -0.17451206 0.34257245
v -0.31194925 -0.16556121 0.34257245
v -0.33744460 -0.10399032 0.34257245
v -0.34093344 -0.09476824 0.34257245
v -0.34263313 -0.08708318 0.34257245
v -0.34308040 -0.08491328 0.34257245
v -0.35265231 -0.01755597 0.34257245
v -0.35354692 -0.00724895 0.34257245
v -0.35336798 0.00251560 0.34257245
v -0.35327852 0.00486632 0.34257245
v -0.40391141 -0.02487939 0.32224190
v -0.11084917 0.33179790 0.34259599
v -0.08186500 0.39273590 0.32085359
v -0.13536048 0.32176208 0.34257245
v -0.16318171 0.31027973 0.34257245
v -0.16693892 0.30856186 0.34257245
v -0.17302202 0.30575910 0.34257245
v -0.17499007 0.30476454 0.34257245
v -0.18008915 0.30205217 0.34257245
v -0.11854250 -0.33146814 0.34259599
v -0.07909182 0.41018552 0.31040594
v -0.08481709 0.46153980 0.24202564
v -0.09483631 0.46163023 0.24188447
v -0.08562221 0.46172065 0.23416638
v -0.18483038 0.44951496 0.10222959
v -0.37045437 -0.30036625 0.11128892
v -0.37206459 -0.30127037 0.10222959
v -0.37170672 -0.30108956 0.10502975
v -0.35265231 -0.28228375 0.18501070
v -0.30264568 -0.18346289 0.34257245
v -0.26077968 -0.39077872 0.11197131
v -0.10548173 -0.45885932 0.24491993
v -0.10485553 -0.45316336 0.25550875
v -0.10888111 -0.44972768 0.25729710
v -0.23090091 -0.31058285 0.31045300
v -0.29173189 -0.25190514 0.31094715
v -0.24118851 -0.30108956 0.31057066
v -0.26149532 -0.28147003 0.31073537
v -0.25076044 -0.25072980 0.34257245
v -0.25612789 -0.24412967 0.34257245
v -0.29969358 -0.18735063 0.34257245
v -0.10235073 0.33523357 0.34259599
v -0.09447848 0.33821717 0.34259599
v -0.08410143 0.34092954 0.34259599
v -0.08186500 0.34138161 0.34259599
v -0.06486811 0.34355152 0.34259599
v -0.02505959 0.34843379 0.34259599
v -0.00502115 0.35078451 0.34259599
v -0.00287417 0.35087493 0.34259599
v 0.06493448 0.39201260 0.32127714
v -0.07748159 0.39273590 0.32085359
v -0.24414060 -0.25615454 0.34257245
v -0.23555270 -0.26293546 0.34257245
v -0.18858759 -0.29882923 0.34257245
v -0.18357798 -0.30262655 0.34257245
v -0.17472170 -0.30805132 0.34257245
v -0.11630607 -0.33255309 0.34259599
v 0.06493448 0.39698529 0.31727692
v 0.05491526 0.40204838 0.31247663
v 0.04498550 0.40738273 0.30687633
v 0.04498550 0.41136089 0.30186430
v 0.04498550 0.42022130 0.29047543
v 0.05491526 0.42890090 0.27871007
v 0.06493448 0.45023826 0.25049672
v 0.06493448 0.45439723 0.24501406
v -0.07488732 0.46135899 0.23513114
v -0.06486811 0.46072608 0.22913080
v -0.07479787 0.46108773 0.22894257
v -0.18116264 0.44924372 0.10222959
v 0.07495371 0.45367393 0.23661359
v 0.08488347 0.45295063 0.23656651
v -0.26230043 -0.39285821 0.10222959
v -0.26212150 -0.39213493 0.10502975
v -0.10252964 -0.46030593 0.24153151
v -0.09483631 -0.46048677 0.24164915
v 0.08676207 -0.46121007 0.25153208
v -0.25532275 -0.39746925 0.10222959
v -0.25013423 -0.40000081 0.10222959
v -0.10154561 -0.45008934 0.26045021
v -0.10199290 -0.44068643 0.27113315
v -0.10825491 -0.44864273 0.25917956
v -0.10190344 -0.41247773 0.30301732
v -0.10127724 -0.40280360 0.31212369
v 0.00464024 0.35087493 0.34259599
v 0.02449977 0.34852418 0.34259599
v 0.06770766 0.34246656 0.34259599
v 0.07575882 0.34120080 0.34259599
v 0.07191215 0.39137971 0.32104182
v -0.10056158 -0.39114037 0.32052416
v -0.16568652 -0.31221029 0.34257245
v -0.10413987 -0.33761618 0.34259599
v -0.15772481 -0.31564596 0.34257245
v -0.14439566 -0.32125154 0.34257245
v 0.07262781 0.40096346 0.31134719
v 0.06493448 0.40168673 0.31226486
v 0.06493448 0.40674984 0.30595863
v 0.06493448 0.42862967 0.27828652
v 0.07495371 0.44110659 0.26155615
v 0.07575882 0.44680259 0.25414398
v 0.07960548 0.44978619 0.25000256
v 0.07575882 0.45295063 0.24602588
v 0.08488347 0.45295063 0.24454343
v 0.24733798 0.39897436 0.10222959
v 0.09123494 0.45168486 0.23760188
v -0.10252964 -0.46030593 0.23960198
v -0.09483631 -0.46048677 0.23936668
v 0.07495371 -0.46193337 0.24386105
v 0.08398890 -0.46184295 0.24586116
v 0.09257680 -0.46121007 0.25153208
v 0.08488347 -0.44240427 0.27294502
v -0.09483631 -0.40913248 0.30930001
v -0.09483631 -0.42269436 0.29332262
v -0.24467734 -0.40208030 0.10222959
v -0.10199290 -0.43137395 0.28172198
v -0.09483631 -0.40415978 0.31341788
v 0.08497293 0.33957335 0.34259599
v 0.09427649 0.33776510 0.34259599
v 0.11172067 0.33062252 0.34259599
v 0.14428313 0.31724149 0.34259599
v 0.16494778 0.30838105 0.34259599
v 0.16700530 0.30738652 0.34259599
v 0.17577212 0.30295631 0.34259599
v 0.19008529 0.32989922 0.31002945
v -0.09483631 -0.39177328 0.32073593
v -0.08481709 -0.34331217 0.34259599
v -0.09492577 -0.34105188 0.34259599
v -0.09483631 -0.39674595 0.31842992
v 0.07906874 0.40873891 0.29972300
v 0.07549045 0.41344038 0.29581690
v 0.07253835 0.41027594 0.30047598
v 0.07495371 0.42320490 0.28416920
v 0.08202083 0.44056413 0.26089728
v 0.08488347 0.44888207 0.24950843
v 0.09123494 0.45168486 0.24270804
v 0.25190032 0.39788941 0.10222959
v -0.23761021 -0.40425020 0.10222959
v -0.23483704 -0.40488309 0.10222959
v -0.22768044 -0.40587762 0.10222959
v -0.13768637 -0.41283938 0.10222959
v -0.00502115 -0.42197105 0.10222959
v 0.06493448 -0.46175253 0.23795484
v 0.07495371 -0.46193337 0.23833133
v 0.09552889 -0.46175253 0.24557880
v 0.10492191 -0.46084842 0.24221390
v 0.11028935 -0.46012512 0.24033144
v 0.09928610 -0.45949224 0.24929665
v 0.09204005 -0.45162633 0.26212090
v 0.08497293 -0.43092188 0.28553396
v 0.07495371 -0.40334606 0.31308845
v 0.07495371 -0.39285821 0.32252428
v 0.07495371 -0.41862577 0.29864058
v 0.07495371 -0.41374350 0.30351144
v 0.18444948 0.29707950 0.34259599
v 0.23195133 0.31136465 0.30195841
v -0.00511061 -0.35407126 0.34259599
v -0.01772409 -0.35253426 0.34259599
v -0.04742393 -0.34864652 0.34259599
v 0.24098651 0.32067716 0.28134549
v 0.25002170 0.32998964 0.26023844
v 0.25986201 0.34988040 0.21004739
v 0.25959367 0.35973534 0.18981096
v 0.25932527 0.36949989 0.16926864
v 0.25127411 0.38080147 0.15253830
v 0.25449455 0.39662364 0.10222959
v 0.00481916 -0.42179021 0.10222959
v 0.10492191 -0.46084842 0.23920196
v 0.20466684 -0.41573259 0.10222959
v 0.11028935 -0.46012512 0.23979023
v 0.21513334 -0.41302019 0.10222959
v 0.22050078 -0.41057906 0.10222959
v 0.22568931 -0.40741464 0.10222959
v 0.23007272 -0.40388855 0.10222959
v 0.12048748 -0.45090303 0.24117854
v 0.11386764 -0.45406747 0.24407282
v 0.11064718 -0.45045099 0.25047317
v 0.10492191 -0.45759356 0.24717888
v 0.09159277 -0.44177139 0.27216852
v 0.08497293 -0.42811909 0.28838119
v 0.08300486 -0.39231575 0.32210073
v 0.07495371 -0.38481152 0.32635978
v 0.00249327 -0.35398084 0.34259599
v 0.08497293 -0.42314640 0.29329911
v 0.08497293 -0.41781208 0.29828763
v 0.19205335 0.29147393 0.34259599
v 0.24304403 0.25232530 0.34259599
v 0.24796419 0.24807592 0.34259599
v 0.24197055 0.30196175 0.30209959
v 0.23866062 0.30865228 0.29840529
v 0.25950420 0.33912131 0.22950730
v 0.29913378 0.24888964 0.29892296
v 0.32033515 0.27022699 0.24073146
v 0.33089113 0.27122152 0.22193041
v 0.34010524 0.28035319 0.19096397
v 0.34994555 0.28017235 0.17058636
v 0.36917889 0.28921360 0.10865348
v 0.37061018 0.29056978 0.10222959
v 0.26030928 0.37031361 0.16475074
v 0.26209843 0.39128929 0.10222959
v 0.29716569 -0.29928130 0.20727077
v 0.29188776 -0.30163202 0.21503590
v 0.21933784 -0.39963916 0.13936108
v 0.40505123 -0.23092945 0.10222959
v 0.39986271 -0.22984450 0.11992470
v 0.29045641 -0.30036625 0.22150685
v 0.28974074 -0.28969756 0.24962607
v 0.28133178 -0.29114416 0.26188558
v 0.27014959 -0.28011385 0.29026365
v 0.25744665 -0.27794394 0.30729988
v 0.25073737 -0.28056592 0.31047654
v 0.23857115 -0.25877649 0.34259599
v 0.19482653 -0.29259077 0.34259599
v 0.18248142 -0.30190325 0.34259599
v 0.09114548 -0.43182600 0.28186318
v 0.17425135 -0.30714718 0.34259599
v 0.16521615 -0.31157738 0.34259599
v 0.14079431 -0.32170358 0.34259599
v 0.09329246 -0.34123269 0.34259599
v 0.08497293 -0.41292980 0.30266434
v 0.08497293 -0.34322175 0.34259599
v 0.04480658 -0.34864652 0.34259599
v 0.00490861 -0.35380003 0.34259599
v 0.25234759 0.24310324 0.34259599
v 0.31094217 0.22140424 0.31090009
v 0.29242450 0.25205407 0.30231136
v 0.41006088 0.10215016 0.29195786
v 0.36962616 0.26932284 0.14463197
v 0.38036102 0.28062442 0.10222959
v 0.37982428 0.28125730 0.10222959
v 0.27193874 0.38242888 0.10222959
v 0.26576620 0.38812485 0.10222959
v 0.40075731 -0.22062242 0.14173768
v 0.40800333 -0.22785543 0.10222959
v 0.42240596 -0.21257572 0.10222959
v 0.40200973 -0.22188820 0.13500789
v 0.29242450 -0.28318787 0.25501460
v 0.28830945 -0.28816056 0.25501460
v 0.40415668 -0.21492644 0.14463197
v 0.29081422 -0.28110838 0.26141497
v 0.28491008 -0.28490570 0.26499164
v 0.27927423 -0.27920973 0.27925128
v 0.27041799 -0.27053013 0.30071127
v 0.26129335 -0.27125341 0.31108832
v 0.28177905 -0.28201252 0.27263913
v 0.24367024 -0.25470793 0.34259599
v 0.26120389 0.23162085 0.34259599
v 0.29161936 0.19211058 0.34259599
v 0.29716569 0.18451594 0.34259599
v 0.38885945 0.09672541 0.31944174
v 0.39225888 0.10178851 0.31278256
v 0.40156239 0.10187893 0.30207607
v 0.41006088 0.09934738 0.29358149
v 0.44011855 0.07945663 0.20724723
v 0.41006088 0.10368717 0.28934595
v 0.38053995 0.27999154 0.10222959
v 0.40701932 -0.21637304 0.13500789
v 0.40460396 -0.21456479 0.14432606
v 0.42419511 -0.21031541 0.10222959
v 0.41104490 -0.21140036 0.13500789
v 0.30011779 -0.27016848 0.26037961
v 0.29779190 -0.26727527 0.26703882
v 0.29117209 -0.27152467 0.27179202
v 0.28848833 -0.27812478 0.26809770
v 0.28875673 -0.26854104 0.27842769
v 0.27981097 -0.25986144 0.29991126
v 0.26791316 -0.26709443 0.30737048
v 0.25306326 -0.24539545 0.34259599
v 0.24545939 -0.25317094 0.34259599
v 0.30306989 0.17583634 0.34259599
v 0.39887869 0.09491716 0.30875880
v 0.30861628 0.16498685 0.34259599
v 0.31756198 0.14410156 0.34259599
v 0.32131922 0.13506031 0.34259599
v 0.33795828 0.09455551 0.34259599
v 0.38993299 0.09003489 0.31995943
v 0.39315343 0.09392262 0.31565329
v 0.41006088 0.09491716 0.29527569
v 0.41006088 0.08786499 0.29708755
v 0.41006088 0.07936621 0.29922885
v 0.44128150 0.06499062 0.20724723
v 0.44172877 0.06499062 0.20501181
v 0.44092363 0.06499062 0.19901147
v 0.38161343 0.27456677 0.10222959
v 0.40997142 -0.21004416 0.14023173
v 0.40451449 -0.21447438 0.14463197
v 0.40120459 -0.21176200 0.15500902
v 0.42741561 -0.20579478 0.10222959
v 0.30933189 -0.25922856 0.25896779
v 0.33965796 -0.21962789 0.25948545
v 0.33044386 -0.23056780 0.26087376
v 0.33080167 -0.22107449 0.27136847
v 0.30968976 -0.24964483 0.26972133
v 0.30101240 -0.24132688 0.29160491
v 0.28929347 -0.24901195 0.29913473
v 0.29188776 -0.19485487 0.34259599
v 0.39959437 0.08840746 0.30958238
v 0.34099978 0.08442932 0.34259599
v 0.34287840 0.07484559 0.34259599
v 0.34395188 0.06707012 0.34259599
v 0.34520429 0.05757681 0.34259599
v 0.35101902 0.00531839 0.34259599
v 0.35137683 -0.00227626 0.34259599
v 0.38993299 0.08876912 0.31995943
v 0.40603530 -0.07487749 0.30824113
v 0.40066785 0.07493600 0.31071186
v 0.40031004 0.08171694 0.31033534
v 0.41006088 0.07249486 0.30089954
v 0.44262332 -0.06674037 0.20724723
v 0.44289172 -0.06484171 0.20501181
v 0.44217604 -0.04495096 0.19498773
v 0.41963279 0.00233477 0.10222959
v 0.40424615 0.14762764 0.10222959
v 0.44110256 -0.03744672 0.18795204
v 0.43009931 -0.19485487 0.10222959
v 0.39986271 -0.20995376 0.16004460
v 0.42115360 -0.20217828 0.12310135
v 0.40603530 -0.08916267 0.29868764
v 0.42947310 -0.20190704 0.10222959
v 0.34887207 -0.20832632 0.25772065
v 0.34171546 -0.21221407 0.26501518
v 0.33795828 -0.21727717 0.26501518
v 0.34001577 -0.21004416 0.27023900
v 0.31022650 -0.23038697 0.29047543
v 0.29859704 -0.23789121 0.29826409
v 0.30154914 -0.18210670 0.34259599
v 0.35137683 -0.00489823 0.34259599
v 0.38859111 -0.07487749 0.31918290
v 0.40165186 -0.07487749 0.31106481
v 0.40120459 -0.08093513 0.31080598
v 0.40603530 -0.07551038 0.30817053
v 0.44208658 -0.08455163 0.20724723
v 0.44235498 -0.07749946 0.20724723
v 0.41006088 0.06779341 0.30087602
v 0.40603530 -0.08717360 0.30099365
v 0.34681451 -0.20489065 0.26517987
v 0.40603530 -0.08446122 0.30405265
v 0.31004757 -0.22017036 0.30009949
v 0.30557472 -0.17487371 0.34259599
v 0.35039282 -0.01393948 0.34259599
v 0.38358152 -0.07487749 0.32217133
v 0.33223301 -0.11185620 0.34259599
v 0.31112105 -0.16275844 0.34259599
v 0.30897409 -0.16773112 0.34259599
v 0.30646926 -0.17315587 0.34259599
v 0.34332567 -0.07487749 0.34259599
v 0.34189439 -0.08301461 0.34259599
v 0.33858448 -0.09485865 0.34259599
v 0.33491671 -0.10489444 0.34259599
f 1 2 9
f 1 9 3
f 1 3 11
f 1 11 4
f 1 4 5
f 1 5 6
f 1 6 7
f 1 7 2
f 2 8 28
f 2 28 9
f 2 7 8
f 3 10 11
f 3 9 12
f 3 12 10
f 4 11 13
f 4 13 14
f 4 14 15
f 4 15 16
f 4 16 17
f 4 17 18
f 4 18 19
f 4 19 20
f 4 20 21
f 4 21 5
f 5 21 20
f 5 20 19
f 5 19 18
f 5 18 17
f 5 17 16
f 5 16 15
f 5 15 14
f 5 14 13
f 5 13 35
f 5 35 34
f 5 34 62
f 5 62 93
f 5 93 111
f 5 111 110
f 5 110 156
f 5 156 200
f 5 200 234
f 5 234 266
f 5 266 295
f 5 295 329
f 5 329 361
f 5 361 360
f 5 360 327
f 5 327 359
f 5 359 358
f 5 358 385
f 5 385 413
f 5 413 442
f 5 442 441
f 5 441 444
f 5 444 448
f 5 448 417
f 5 417 388
f 5 388 364
f 5 364 363
f 5 363 333
f 5 333 303
f 5 303 302
f 5 302 301
f 5 301 300
f 5 300 298
f 5 298 296
f 5 296 271
f 5 271 270
f 5 270 269
f 5 269 268
f 5 268 267
f 5 267 244
f 5 244 209
f 5 209 208
f 5 208 203
f 5 203 158
f 5 158 116
f 5 116 79
f 5 79 50
f 5 50 24
f 5 24 53
f 5 53 48
f 5 48 22
f 5 22 7
f 5 7 6
f 7 22 23
f 7 23 24
f 7 24 25
f 7 25 26
f 7 26 27
f 7 27 8
f 8 27 26
f 8 26 28
f 9 28 29
f 9 29 12
f 10 12 30
f 10 30 31
f 10 31 32
f 10 32 33
f 10 33 11
f 11 34 35
f 11 35 13
f 11 33 36
f 11 36 37
f 11 37 38
f 11 38 39
f 11 39 40
f 11 40 41
f 11 41 42
f 11 42 43
f 11 43 44
f 11 44 45
f 11 45 46
f 11 46 34
f 12 29 47
f 12 47 30
f 22 48 49
f 22 49 23
f 23 49 24
f 24 50 51
f 24 51 52
f 24 52 25
f 24 49 53
f 25 52 54
f 25 54 55
f 25 55 26
f 26 29 28
f 26 55 54
f 26 54 29
f 29 54 56
f 29 56 57
f 29 57 58
f 29 58 47
f 30 47 59
f 30 59 31
f 31 60 32
f 31 59 60
f 32 60 61
f 32 61 36
f 32 36 33
f 34 46 62
f 36 63 37
f 36 61 64
f 36 64 65
f 36 65 63
f 37 63 38
f 38 66 67
f 38 67 68
f 38 68 69
f 38 69 70
f 38 70 71
f 38 71 39
f 38 63 65
f 38 65 66
f 39 71 72
f 39 72 73
f 39 73 74
f 39 74 40
f 40 74 41
f 41 74 42
f 42 74 43
f 43 74 45
f 43 45 44
f 45 74 75
f 45 75 76
f 45 76 77
f 45 77 46
f 46 77 62
f 47 58 59
f 48 53 49
f 50 78 51
f 50 79 78
f 51 80 54
f 51 54 81
f 51 81 52
f 51 78 80
f 52 81 54
f 54 82 83
f 54 83 58
f 54 58 57
f 54 57 56
f 54 80 84
f 54 84 85
f 54 85 82
f 58 86 59
f 58 83 87
f 58 87 86
f 59 86 88
f 59 88 89
f 59 89 65
f 59 65 90
f 59 90 91
f 59 91 92
f 59 92 60
f 60 92 61
f 61 92 64
f 62 77 93
f 64 92 65
f 65 94 95
f 65 95 96
f 65 96 97
f 65 97 98
f 65 98 99
f 65 99 100
f 65 100 101
f 65 101 102
f 65 102 66
f 65 92 91
f 65 91 90
f 65 89 88
f 65 88 103
f 65 103 94
f 66 102 104
f 66 104 67
f 67 104 68
f 68 105 77
f 68 77 69
f 68 104 105
f 69 77 70
f 70 77 71
f 71 77 72
f 72 77 73
f 73 77 74
f 74 77 76
f 74 76 75
f 77 106 107
f 77 107 108
f 77 108 109
f 77 109 110
f 77 110 111
f 77 111 93
f 77 105 112
f 77 112 113
f 77 113 114
f 77 114 106
f 78 79 115
f 78 115 80
f 79 116 115
f 80 117 84
f 80 115 117
f 82 118 119
f 82 119 120
f 82 120 121
f 82 121 122
f 82 122 123
f 82 123 87
f 82 87 83
f 82 85 118
f 84 117 124
f 84 124 125
f 84 125 126
f 84 126 127
f 84 127 85
f 85 128 129
f 85 129 130
f 85 130 118
f 85 127 131
f 85 131 128
f 86 87 121
f 86 121 132
f 86 132 133
f 86 133 134
f 86 134 135
f 86 135 136
f 86 136 137
f 86 137 138
f 86 138 139
f 86 139 88
f 87 123 122
f 87 122 121
f 88 139 140
f 88 140 141
f 88 141 142
f 88 142 103
f 94 103 142
f 94 142 141
f 94 141 104
f 94 104 95
f 95 104 96
f 96 104 97
f 97 104 98
f 98 104 99
f 99 104 100
f 100 104 101
f 101 104 102
f 104 143 144
f 104 144 145
f 104 145 146
f 104 146 147
f 104 147 148
f 104 148 149
f 104 149 150
f 104 150 114
f 104 114 113
f 104 113 112
f 104 112 105
f 104 141 140
f 104 140 139
f 104 139 151
f 104 151 188
f 104 188 222
f 104 222 257
f 104 257 256
f 104 256 288
f 104 288 287
f 104 287 286
f 104 286 312
f 104 312 352
f 104 352 351
f 104 351 350
f 104 350 348
f 104 348 347
f 104 347 346
f 104 346 345
f 104 345 343
f 104 343 342
f 104 342 341
f 104 341 375
f 104 375 398
f 104 398 397
f 104 397 425
f 104 425 455
f 104 455 468
f 104 468 474
f 104 474 473
f 104 473 472
f 104 472 471
f 104 471 478
f 104 478 477
f 104 477 476
f 104 476 475
f 104 475 469
f 104 469 456
f 104 456 432
f 104 432 431
f 104 431 430
f 104 430 429
f 104 429 428
f 104 428 427
f 104 427 404
f 104 404 403
f 104 403 402
f 104 402 401
f 104 401 399
f 104 399 378
f 104 378 377
f 104 377 376
f 104 376 353
f 104 353 317
f 104 317 316
f 104 316 315
f 104 315 284
f 104 284 253
f 104 253 252
f 104 252 251
f 104 251 250
f 104 250 249
f 104 249 248
f 104 248 247
f 104 247 218
f 104 218 217
f 104 217 216
f 104 216 215
f 104 215 180
f 104 180 179
f 104 179 178
f 104 178 177
f 104 177 176
f 104 176 175
f 104 175 174
f 104 174 173
f 104 173 143
f 106 152 153
f 106 153 154
f 106 154 107
f 106 114 150
f 106 150 144
f 106 144 182
f 106 182 152
f 107 154 108
f 108 154 155
f 108 155 156
f 108 156 110
f 108 110 109
f 115 116 157
f 115 157 117
f 116 158 159
f 116 159 157
f 117 157 160
f 117 160 124
f 118 130 119
f 119 130 161
f 119 161 120
f 120 161 121
f 121 161 132
f 124 160 125
f 125 160 157
f 125 157 162
f 125 162 126
f 126 162 163
f 126 163 164
f 126 164 165
f 126 165 166
f 126 166 131
f 126 131 127
f 128 167 130
f 128 130 129
f 128 131 168
f 128 168 169
f 128 169 167
f 130 167 170
f 130 170 171
f 130 171 172
f 130 172 161
f 131 166 168
f 132 161 151
f 132 151 133
f 133 151 134
f 134 151 135
f 135 151 136
f 136 151 137
f 137 151 138
f 138 151 139
f 143 173 144
f 144 150 149
f 144 149 148
f 144 148 147
f 144 147 146
f 144 146 145
f 144 173 174
f 144 174 175
f 144 175 176
f 144 176 177
f 144 177 178
f 144 178 179
f 144 179 180
f 144 180 181
f 144 181 182
f 151 161 172
f 151 172 171
f 151 171 170
f 151 170 183
f 151 183 184
f 151 184 185
f 151 185 186
f 151 186 187
f 151 187 188
f 152 182 181
f 152 181 189
f 152 189 190
f 152 190 191
f 152 191 192
f 152 192 193
f 152 193 194
f 152 194 195
f 152 195 196
f 152 196 153
f 153 196 197
f 153 197 155
f 153 155 154
f 155 197 198
f 155 198 199
f 155 199 156
f 156 199 198
f 156 198 201
f 156 201 202
f 156 202 200
f 157 159 203
f 157 203 204
f 157 204 162
f 158 203 159
f 162 204 163
f 163 205 206
f 163 206 207
f 163 207 164
f 163 204 203
f 163 203 208
f 163 208 209
f 163 209 205
f 164 210 211
f 164 211 212
f 164 212 165
f 164 207 210
f 165 212 166
f 166 186 185
f 166 185 184
f 166 184 183
f 166 183 170
f 166 170 168
f 166 212 213
f 166 213 214
f 166 214 186
f 167 169 170
f 168 170 169
f 180 215 181
f 181 215 216
f 181 216 217
f 181 217 218
f 181 218 219
f 181 219 189
f 186 214 220
f 186 220 187
f 187 220 221
f 187 221 188
f 188 221 223
f 188 223 224
f 188 224 222
f 189 225 226
f 189 226 190
f 189 219 225
f 190 226 191
f 191 226 227
f 191 227 192
f 192 228 194
f 192 194 193
f 192 227 228
f 194 228 229
f 194 229 195
f 195 229 230
f 195 230 231
f 195 231 196
f 196 232 233
f 196 233 201
f 196 201 198
f 196 198 197
f 196 231 232
f 200 202 234
f 201 233 202
f 202 233 265
f 202 265 235
f 202 235 234
f 205 236 237
f 205 237 206
f 205 209 236
f 206 237 273
f 206 273 238
f 206 238 239
f 206 239 207
f 207 239 240
f 207 240 241
f 207 241 242
f 207 242 243
f 207 243 210
f 209 244 236
f 210 243 242
f 210 242 211
f 211 242 245
f 211 245 212
f 212 245 213
f 213 245 242
f 213 242 214
f 214 242 246
f 214 246 220
f 218 247 219
f 219 247 248
f 219 248 249
f 219 249 250
f 219 250 251
f 219 251 252
f 219 252 253
f 219 253 254
f 219 254 225
f 220 255 256
f 220 256 257
f 220 257 222
f 220 222 224
f 220 224 223
f 220 223 221
f 220 246 258
f 220 258 255
f 225 259 260
f 225 260 261
f 225 261 226
f 225 254 259
f 226 261 262
f 226 262 227
f 227 262 229
f 227 229 228
f 229 231 230
f 229 262 231
f 231 233 232
f 231 262 263
f 231 263 233
f 233 263 264
f 233 264 265
f 234 235 266
f 235 265 266
f 236 244 267
f 236 267 268
f 236 268 269
f 236 269 270
f 236 270 271
f 236 271 237
f 237 272 273
f 237 271 272
f 238 273 274
f 238 274 239
f 239 274 240
f 240 274 275
f 240 275 276
f 240 276 277
f 240 277 278
f 240 278 241
f 241 278 279
f 241 279 242
f 242 280 281
f 242 281 246
f 242 279 282
f 242 282 283
f 242 283 280
f 246 281 258
f 253 284 285
f 253 285 254
f 254 285 259
f 255 286 287
f 255 287 288
f 255 288 256
f 255 258 286
f 258 281 286
f 259 265 263
f 259 263 260
f 259 285 265
f 260 263 262
f 260 262 261
f 263 265 264
f 265 285 289
f 265 289 290
f 265 290 291
f 265 291 292
f 265 292 293
f 265 293 294
f 265 294 295
f 265 295 266
f 271 296 273
f 271 273 272
f 273 297 274
f 273 296 298
f 273 298 297
f 274 297 275
f 275 297 299
f 275 299 276
f 276 299 300
f 276 300 301
f 276 301 302
f 276 302 303
f 276 303 304
f 276 304 305
f 276 305 306
f 276 306 307
f 276 307 277
f 277 307 306
f 277 306 278
f 278 306 308
f 278 308 309
f 278 309 279
f 279 309 282
f 280 283 310
f 280 310 281
f 281 310 311
f 281 311 312
f 281 312 286
f 282 309 283
f 283 309 313
f 283 313 314
f 283 314 310
f 284 315 285
f 285 315 316
f 285 316 317
f 285 317 318
f 285 318 319
f 285 319 289
f 289 319 290
f 290 320 291
f 290 319 321
f 290 321 322
f 290 322 323
f 290 323 320
f 291 320 324
f 291 324 292
f 292 324 325
f 292 325 293
f 293 325 326
f 293 326 327
f 293 327 328
f 293 328 329
f 293 329 295
f 293 295 294
f 297 298 299
f 298 300 299
f 303 330 331
f 303 331 332
f 303 332 304
f 303 333 334
f 303 334 330
f 304 332 331
f 304 331 335
f 304 335 336
f 304 336 337
f 304 337 338
f 304 338 339
f 304 339 305
f 305 339 340
f 305 340 306
f 306 340 341
f 306 341 342
f 306 342 343
f 306 343 308
f 308 344 313
f 308 313 309
f 308 343 344
f 310 343 345
f 310 345 346
f 310 346 347
f 310 347 348
f 310 348 311
f 310 314 349
f 310 349 343
f 311 348 350
f 311 350 351
f 311 351 352
f 311 352 312
f 313 344 314
f 314 344 343
f 314 343 349
f 317 353 354
f 317 354 355
f 317 355 318
f 318 355 321
f 318 321 319
f 320 323 324
f 321 355 354
f 321 354 356
f 321 356 322
f 322 356 323
f 323 356 324
f 324 356 357
f 324 357 325
f 325 357 358
f 325 358 359
f 325 359 326
f 326 359 327
f 327 360 328
f 328 360 361
f 328 361 329
f 330 334 331
f 331 336 335
f 331 334 362
f 331 362 336
f 333 363 334
f 334 363 364
f 334 364 365
f 334 365 362
f 336 366 367
f 336 367 337
f 336 362 368
f 336 368 366
f 337 367 369
f 337 369 370
f 337 370 338
f 338 371 372
f 338 372 373
f 338 373 339
f 338 370 374
f 338 374 371
f 339 373 340
f 340 373 375
f 340 375 341
f 353 376 354
f 354 376 377
f 354 377 378
f 354 378 379
f 354 379 380
f 354 380 381
f 354 381 356
f 356 381 382
f 356 382 383
f 356 383 384
f 356 384 358
f 356 358 357
f 358 384 383
f 358 383 385
f 362 365 364
f 362 364 386
f 362 386 387
f 362 387 368
f 364 388 389
f 364 389 386
f 366 368 369
f 366 369 367
f 368 387 390
f 368 390 369
f 369 390 391
f 369 391 392
f 369 392 393
f 369 393 370
f 370 393 374
f 371 393 394
f 371 394 372
f 371 374 393
f 372 394 395
f 372 395 396
f 372 396 373
f 373 396 397
f 373 397 398
f 373 398 375
f 378 399 379
f 379 400 382
f 379 382 381
f 379 381 380
f 379 399 401
f 379 401 402
f 379 402 403
f 379 403 404
f 379 404 405
f 379 405 406
f 379 406 400
f 382 400 407
f 382 407 383
f 383 407 408
f 383 408 409
f 383 409 410
f 383 410 411
f 383 411 412
f 383 412 413
f 383 413 385
f 386 389 414
f 386 414 387
f 387 415 416
f 387 416 390
f 387 414 415
f 388 417 389
f 389 417 414
f 390 418 419
f 390 419 420
f 390 420 421
f 390 421 422
f 390 422 391
f 390 416 418
f 391 422 423
f 391 423 392
f 392 423 394
f 392 394 393
f 394 423 424
f 394 424 395
f 395 424 396
f 396 424 397
f 397 424 425
f 400 406 426
f 400 426 407
f 404 427 405
f 405 427 428
f 405 428 429
f 405 429 430
f 405 430 431
f 405 431 432
f 405 432 456
f 405 456 433
f 405 433 434
f 405 434 435
f 405 435 436
f 405 436 406
f 406 436 426
f 407 426 408
f 408 426 409
f 409 437 410
f 409 426 437
f 410 437 438
f 410 438 411
f 411 439 440
f 411 440 412
f 411 438 439
f 412 441 442
f 412 442 413
f 412 440 443
f 412 443 444
f 412 444 441
f 414 445 416
f 414 416 415
f 414 417 446
f 414 446 447
f 414 447 445
f 416 445 419
f 416 419 418
f 417 448 446
f 419 445 449
f 419 449 450
f 419 450 451
f 419 451 420
f 420 451 421
f 421 451 452
f 421 452 453
f 421 453 423
f 421 423 422
f 423 453 454
f 423 454 424
f 424 454 425
f 425 454 455
f 426 436 437
f 433 456 457
f 433 457 458
f 433 458 434
f 434 458 459
f 434 459 460
f 434 460 461
f 434 461 462
f 434 462 438
f 434 438 463
f 434 463 437
f 434 437 435
f 435 437 436
f 437 463 438
f 438 462 439
f 439 461 444
f 439 444 440
f 439 462 461
f 440 444 443
f 444 461 448
f 445 447 449
f 446 448 447
f 447 461 464
f 447 464 449
f 447 448 461
f 449 465 450
f 449 464 465
f 450 465 452
f 450 452 451
f 452 465 466
f 452 466 453
f 453 466 454
f 454 466 467
f 454 467 455
f 455 467 466
f 455 466 459
f 455 459 468
f 456 469 470
f 456 470 457
f 457 470 459
f 457 459 458
f 459 466 460
f 459 470 471
f 459 471 472
f 459 472 473
f 459 473 474
f 459 474 468
f 460 466 461
f 461 466 464
f 464 466 465
f 469 475 470
f 470 475 476
f 470 476 477
f 470 477 478
f 470 478 471

