# https://github.com/mikedh/trimesh
v -0.30099648 -0.37006718 -0.09000103
v -0.30995795 -0.36617878 -0.09000103
v -0.31246111 -0.36390263 -0.09498756
v -0.31199515 -0.36207360 -0.10285999
v -0.32104334 -0.35093680 -0.12092142
v -0.29995620 -0.37006718 -0.09000103
v -0.31831264 -0.31019673 0.07959972
v -0.31831264 -0.31258124 0.07282668
v -0.36498389 -0.30576640 0.07959972
v -0.37036946 -0.30479091 0.07959972
v -0.37306765 -0.30403221 0.07959972
v -0.37533242 -0.30338186 0.07959972
v -0.37980774 -0.30989864 0.03849033
v -0.40140417 -0.30098379 0.00499816
v -0.40222773 -0.30144444 -0.00499452
v -0.32187772 -0.35195294 -0.11499256
v -0.40150169 -0.30101091 -0.01320070
v -0.33074167 -0.34106001 -0.11085021
v -0.32104334 -0.34798324 -0.12092142
v -0.31849685 -0.35093680 -0.12092142
v -0.29997787 -0.37004006 -0.09004030
v -0.30996880 -0.35036778 -0.11010419
v -0.29995620 -0.36982331 -0.09000103
v -0.31831264 -0.29420960 0.07959972
v -0.37884334 -0.30171540 0.07959972
v -0.38084802 -0.30064508 0.07959972
v -0.38146567 -0.30114639 0.07498620
v -0.40040725 -0.30041477 0.01084849
v -0.41012728 -0.29037538 0.00042390
v -0.41012728 -0.29037538 -0.00034174
v -0.39043799 -0.30103800 -0.03049648
v -0.33074167 -0.33904129 -0.11085021
v -0.36049774 -0.32045287 -0.07080095
v -0.31849685 -0.34798324 -0.12092142
v -0.31878942 -0.29137796 -0.08998141
v -0.30996880 -0.34989357 -0.11010419
v -0.31831264 -0.29137796 -0.08998141
v -0.31831264 -0.29137796 -0.07411876
v -0.37326270 -0.23167011 0.07959972
v -0.38546419 -0.29513088 0.07959972
v -0.38700294 -0.29469734 0.07567331
v -0.39073056 -0.29117474 0.07278742
v -0.38971198 -0.28960314 0.07946229
v -0.39216095 -0.28576893 0.07567331
v -0.40027720 -0.28049859 0.05109407
v -0.41044152 -0.28105408 0.01112334
v -0.41028982 -0.28522700 0.00452699
v -0.41044152 -0.27703020 0.00863008
v -0.41012728 -0.28941345 -0.00034174
v -0.39043799 -0.29964250 -0.03049648
v -0.36049774 -0.31871867 -0.07080095
v -0.35164461 -0.31863737 -0.08165744
v -0.41024646 -0.25962049 0.01964362
v -0.40021220 -0.23971787 0.02977373
v -0.39390555 -0.23167011 0.03676271
v -0.38854167 -0.23167011 0.03801916
v -0.38529083 -0.23167011 0.04487073
v -0.37756467 -0.23167011 0.06167571
v -0.38519329 -0.23167011 0.07959972
v -0.38967946 -0.28953540 0.07959972
v -0.39160830 -0.28435990 0.07959972
v -0.41061491 -0.27133986 0.02266695
v -0.41065824 -0.26501277 0.01744484
v -0.41024646 -0.25962049 0.02113565
v -0.40020135 -0.23962303 0.03499584
v -0.39558518 -0.23167011 0.04416398
v -0.39446905 -0.23167011 0.03868665
v -0.39497834 -0.23167011 0.04846338
v -0.40006047 -0.23977207 0.04017868
v -0.40190265 -0.25464821 0.04553821
v -0.40023386 -0.26903665 0.06067448
v -0.39268106 -0.26532438 0.07959972
v -0.39340711 -0.27499795 0.07959972
v -0.40023386 -0.27098760 0.06067448
v -0.40111160 -0.27459148 0.05464746
v -0.41065824 -0.26501277 0.02284364
v -0.40426493 -0.26501277 0.04498852
v -0.40522933 -0.25501403 0.03499584
v -0.40127414 -0.26543278 0.05496157
f 1 2 3
f 1 3 4
f 1 4 5
f 1 5 20
f 1 20 6
f 1 6 7
f 1 7 8
f 1 8 9
f 1 9 10
f 1 10 11
f 1 11 12
f 1 12 13
f 1 13 2
f 2 14 15
f 2 15 3
f 2 13 14
f 3 16 5
f 3 5 4
f 3 15 17
f 3 17 16
f 5 18 32
f 5 32 19
f 5 19 34
f 5 34 20
f 5 16 17
f 5 17 18
f 6 20 21
f 6 21 22
f 6 22 36
f 6 36 23
f 6 23 24
f 6 24 7
f 7 24 39
f 7 39 59
f 7 59 72
f 7 72 73
f 7 73 61
f 7 61 60
f 7 60 40
f 7 40 26
f 7 26 25
f 7 25 12
f 7 12 11
f 7 11 10
f 7 10 9
f 7 9 8
f 12 25 13
f 13 25 26
f 13 26 27
f 13 27 14
f 14 28 29
f 14 29 15
f 14 27 26
f 14 26 28
f 15 29 30
f 15 30 17
f 17 30 31
f 17 31 18
f 18 31 33
f 18 33 51
f 18 51 32
f 19 32 35
f 19 35 37
f 19 37 34
f 20 34 36
f 20 36 22
f 20 22 21
f 23 36 37
f 23 37 38
f 23 38 24
f 24 38 39
f 26 40 41
f 26 41 28
f 28 41 42
f 28 42 29
f 29 42 43
f 29 43 44
f 29 44 45
f 29 45 46
f 29 46 30
f 30 46 47
f 30 47 48
f 30 48 49
f 30 49 50
f 30 50 31
f 31 50 51
f 31 51 33
f 32 51 52
f 32 52 35
f 34 37 36
f 35 52 53
f 35 53 54
f 35 54 55
f 35 55 37
f 37 55 56
f 37 56 57
f 37 57 58
f 37 58 39
f 37 39 38
f 39 58 57
f 39 57 56
f 39 56 55
f 39 55 67
f 39 67 66
f 39 66 68
f 39 68 59
f 40 60 43
f 40 43 42
f 40 42 41
f 43 60 61
f 43 61 44
f 44 61 45
f 45 61 62
f 45 62 46
f 46 62 63
f 46 63 48
f 46 48 47
f 48 63 53
f 48 53 49
f 49 53 50
f 50 52 51
f 50 53 52
f 53 63 76
f 53 76 64
f 53 64 65
f 53 65 54
f 54 65 66
f 54 66 67
f 54 67 55
f 59 68 69
f 59 69 70
f 59 70 71
f 59 71 72
f 61 73 74
f 61 74 75
f 61 75 62
f 62 76 63
f 62 75 74
f 62 74 76
f 64 76 77
f 64 77 78
f 64 78 69
f 64 69 65
f 65 69 66
f 66 69 68
f 69 78 70
f 70 77 79
f 70 79 71
f 70 78 77
f 71 79 77
f 71 77 76
f 71 76 74
f 71 74 73
f 71 73 72

