# https://github.com/mikedh/trimesh
v 0.30322212 0.22694799 -0.02525543
v 0.30322212 0.22694799 0.07961934
v 0.30322212 0.28405219 -0.02525543
v 0.30323446 -0.16643155 -0.02525543
v 0.30322212 0.28405219 0.07961934
v 0.30323446 -0.16643155 0.07961934
v 0.31810737 0.28405219 -0.02525543
v 0.39291567 -0.16643155 -0.02525543
v 0.31025812 0.28405219 0.07961934
v 0.38613844 -0.16643155 0.07961934
v 0.32495853 0.27514482 -0.02525543
v 0.31632066 0.28405219 0.03498392
v 0.39538011 0.22694799 0.04499301
v 0.39534312 0.22694799 0.04297066
v 0.39324835 0.22694799 0.03666750
v 0.40898386 -0.12753895 -0.02499878
v 0.39285403 -0.16643155 -0.02277112
v 0.41105399 -0.12251203 -0.02525543
v 0.31426284 0.28405219 0.05748641
v 0.38754317 0.22694799 0.07961934
v 0.39026639 0.22694799 0.07154021
v 0.39052513 0.22694799 0.07042124
v 0.39391375 0.22694799 0.05499184
v 0.39428341 0.22694799 0.05304135
v 0.38661900 -0.16643155 0.07640617
v 0.40394405 -0.12498139 0.07499976
v 0.40310615 -0.12533416 0.07961934
v 0.36201149 0.22694799 -0.02525543
v 0.31584010 0.28405219 0.04499301
v 0.40999427 0.09995180 0.07961934
v 0.41258195 0.10493463 0.05499184
v 0.41362932 0.10493463 0.04499301
v 0.41409758 0.10493463 0.03498392
v 0.41507104 0.10493463 -0.00499086
v 0.41556391 0.10493463 -0.02525543
v 0.31462020 0.28405219 0.05535114
v 0.41281605 0.11494441 -0.02525543
v 0.41041324 0.12098555 -0.02525543
v 0.39915070 0.14828090 -0.02525543
v 0.37894225 0.19718327 -0.02525543
v 0.37571383 0.20494413 -0.02525543
v 0.37182000 0.21301369 -0.02525543
v 0.36866552 0.21804062 -0.02525543
v 0.39163414 -0.16643155 0.02500562
v 0.39265689 -0.16643155 -0.01499996
v 0.41053644 -0.12127733 0.01500679
v 0.41027769 -0.12065999 0.03498392
v 0.41375256 -0.11497162 -0.02525543
v 0.39690807 0.18033862 0.07961934
v 0.38676685 -0.16643155 0.07541039
v 0.40543506 -0.12498139 0.06499067
v 0.40948907 -0.11858749 0.05499184
v 0.40874973 -0.11660317 0.06499067
v 0.40732035 -0.11457476 0.07961934
v 0.41004357 0.09959903 0.07961934
v 0.41406062 0.09496896 0.05499184
v 0.41508335 0.09496896 0.04499301
v 0.41553926 0.09496896 0.03498392
v 0.41601986 0.09496896 0.01500679
v 0.41698098 0.09496896 -0.02525543
v 0.39138770 -0.16643155 0.03423452
v 0.41226158 -0.11497162 0.03498392
v 0.41014212 -0.12030722 0.04204674
v 0.39137536 -0.16643155 0.03462462
v 0.41605681 -0.10496186 -0.02525543
v 0.41557625 -0.10496186 -0.00499086
v 0.41486156 -0.10496186 0.02500562
v 0.41461509 -0.10496186 0.03498392
v 0.38945311 -0.16643155 0.05726057
v 0.40048152 -0.14116459 0.05327746
v 0.40691370 -0.12498139 0.05499184
v 0.40990803 -0.11968988 0.04871947
v 0.41123882 -0.11356056 0.05499184
v 0.41054878 -0.11157624 0.06499067
v 0.41011751 -0.11034155 0.07099612
v 0.40820754 -0.11417790 0.07458913
v 0.40878668 -0.10950373 0.07961934
v 0.41053644 0.09589498 0.07961934
v 0.41268051 0.09496896 0.06499067
v 0.41539142 0.08495919 0.05499184
v 0.42023405 0.05179907 0.05172733
v 0.41979045 0.05845756 0.04696403
v 0.41641414 0.08495919 0.04499301
v 0.42001224 0.06013320 0.04030157
v 0.42613640 0.01502309 0.03498392
v 0.42505205 0.02503286 0.02500562
v 0.42624730 0.02503286 -0.02499878
v 0.42757809 0.01502309 -0.02525543
v 0.41417152 -0.10496186 0.04499301
v 0.41148525 -0.11580944 0.04522912
v 0.39088249 -0.16643155 0.04499301
v 0.39105499 -0.16643155 0.04192355
v 0.41609377 -0.10474138 -0.02525543
v 0.41751084 -0.08498640 0.02500562
v 0.41594592 -0.09495208 0.03498392
v 0.42014778 -0.06113053 0.04233418
v 0.38978580 -0.16643155 0.05499184
v 0.41313645 -0.10496186 0.05499184
v 0.40966156 -0.10751942 0.07765859
v 0.40948907 -0.10663749 0.07961934
v 0.41194117 0.08531196 0.07961934
v 0.41926059 0.03014799 0.07961934
v 0.42598853 0.00501332 0.05499184
v 0.42701128 0.00501332 0.04499301
v 0.42436200 0.02503286 0.04499301
v 0.42745489 0.00501332 0.03498392
v 0.42770132 0.00501332 0.02500562
v 0.42661697 0.01502309 0.01500679
v 0.42889658 0.00501332 -0.02499878
v 0.42889658 0.00501332 -0.02525543
v 0.41682079 -0.08498640 0.04499301
v 0.41992599 -0.05945488 0.04900691
v 0.42669091 -0.02470731 -0.02525543
v 0.42773828 -0.01496212 -0.01499996
v 0.42702359 -0.01496212 0.01500679
v 0.41963026 -0.06717166 0.03498392
v 0.42545867 -0.02497189 0.02500562
v 0.42654303 -0.01496212 0.03498392
v 0.42608711 -0.01496212 0.04499301
v 0.42476863 -0.02497189 0.04499301
v 0.42036960 -0.05279640 0.05271284
v 0.41579804 -0.08498640 0.05499184
v 0.41110328 -0.09473160 0.07961934
v 0.41019142 -0.10156646 0.07961934
v 0.40993267 -0.10346259 0.07961934
v 0.42187291 0.01039302 0.07961934
v 0.42321604 0.00501332 0.07499976
v 0.42267385 0.00042735 0.07961934
v 0.42342550 -0.00495235 0.07499976
v 0.42618570 -0.00495235 0.05499184
v 0.42720842 -0.00495235 0.04499301
v 0.42766434 -0.00495235 0.03498392
v 0.42814493 -0.00495235 0.01500679
v 0.42910606 -0.00495235 -0.02525543
v 0.42506436 -0.01496212 0.05499184
v 0.42800939 -0.01469754 -0.02525543
v 0.42797241 -0.01496212 -0.02499878
v 0.42230418 -0.01496212 0.07499976
v 0.41897717 -0.03524623 0.07961934
v 0.42257527 0.00501332 0.07961934
v 0.42278475 -0.00495235 0.07961934
v 0.42226723 -0.00958242 0.07961934
v 0.42163879 -0.01509441 0.07961934
f 1 2 5
f 1 5 3
f 1 3 7
f 1 7 11
f 1 11 28
f 1 28 43
f 1 43 42
f 1 42 41
f 1 41 40
f 1 40 39
f 1 39 38
f 1 38 37
f 1 37 35
f 1 35 60
f 1 60 88
f 1 88 110
f 1 110 134
f 1 134 136
f 1 136 113
f 1 113 93
f 1 93 65
f 1 65 48
f 1 48 18
f 1 18 8
f 1 8 4
f 1 4 6
f 1 6 2
f 2 6 10
f 2 10 27
f 2 27 54
f 2 54 77
f 2 77 100
f 2 100 125
f 2 125 124
f 2 124 123
f 2 123 139
f 2 139 143
f 2 143 142
f 2 142 141
f 2 141 128
f 2 128 140
f 2 140 126
f 2 126 102
f 2 102 101
f 2 101 78
f 2 78 55
f 2 55 30
f 2 30 49
f 2 49 20
f 2 20 9
f 2 9 5
f 3 5 9
f 3 9 19
f 3 19 36
f 3 36 29
f 3 29 12
f 3 12 7
f 4 8 17
f 4 17 45
f 4 45 44
f 4 44 61
f 4 61 64
f 4 64 92
f 4 92 91
f 4 91 97
f 4 97 69
f 4 69 50
f 4 50 25
f 4 25 10
f 4 10 6
f 7 12 13
f 7 13 14
f 7 14 15
f 7 15 11
f 8 16 17
f 8 18 16
f 9 20 21
f 9 21 22
f 9 22 23
f 9 23 24
f 9 24 19
f 10 25 26
f 10 26 27
f 11 15 28
f 12 29 13
f 13 24 30
f 13 30 31
f 13 31 32
f 13 32 33
f 13 33 34
f 13 34 35
f 13 35 14
f 13 29 36
f 13 36 24
f 14 35 37
f 14 37 15
f 15 37 38
f 15 38 39
f 15 39 40
f 15 40 41
f 15 41 42
f 15 42 43
f 15 43 28
f 16 44 45
f 16 45 17
f 16 18 46
f 16 46 47
f 16 47 44
f 18 48 46
f 19 24 36
f 20 49 21
f 21 49 22
f 22 49 23
f 23 49 24
f 24 49 30
f 25 50 51
f 25 51 26
f 26 51 52
f 26 52 27
f 27 52 53
f 27 53 54
f 30 55 56
f 30 56 31
f 31 56 32
f 32 56 57
f 32 57 33
f 33 57 58
f 33 58 34
f 34 58 35
f 35 58 59
f 35 59 60
f 44 47 61
f 46 48 47
f 47 48 62
f 47 62 63
f 47 63 64
f 47 64 61
f 48 65 66
f 48 66 67
f 48 67 68
f 48 68 62
f 50 69 51
f 51 69 70
f 51 70 71
f 51 71 52
f 52 71 72
f 52 72 73
f 52 73 74
f 52 74 53
f 53 74 75
f 53 75 76
f 53 76 54
f 54 76 75
f 54 75 77
f 55 78 79
f 55 79 56
f 56 79 80
f 56 80 81
f 56 81 57
f 57 81 82
f 57 82 83
f 57 83 84
f 57 84 58
f 58 84 85
f 58 85 86
f 58 86 59
f 59 86 87
f 59 87 60
f 60 87 88
f 62 68 89
f 62 89 90
f 62 90 63
f 63 90 72
f 63 72 91
f 63 91 92
f 63 92 64
f 65 93 66
f 66 93 67
f 67 93 94
f 67 94 95
f 67 95 68
f 68 95 96
f 68 96 89
f 69 97 70
f 70 97 91
f 70 91 72
f 70 72 71
f 72 90 73
f 73 89 98
f 73 98 74
f 73 90 89
f 74 98 75
f 75 98 99
f 75 99 77
f 77 99 100
f 78 101 80
f 78 80 79
f 80 102 103
f 80 103 81
f 80 101 102
f 81 103 104
f 81 104 82
f 82 104 105
f 82 105 83
f 83 105 84
f 84 105 104
f 84 104 106
f 84 106 85
f 85 106 107
f 85 107 86
f 86 107 108
f 86 108 87
f 87 108 88
f 88 108 109
f 88 109 110
f 89 96 111
f 89 111 112
f 89 112 98
f 93 113 114
f 93 114 115
f 93 115 94
f 94 116 95
f 94 115 117
f 94 117 116
f 95 116 96
f 96 116 118
f 96 118 119
f 96 119 120
f 96 120 111
f 98 112 121
f 98 121 122
f 98 122 123
f 98 123 124
f 98 124 99
f 99 124 125
f 99 125 100
f 102 126 103
f 103 126 127
f 103 127 128
f 103 128 129
f 103 129 130
f 103 130 131
f 103 131 104
f 104 131 132
f 104 132 106
f 106 132 107
f 107 132 133
f 107 133 109
f 107 109 108
f 109 133 134
f 109 134 110
f 111 120 112
f 112 120 119
f 112 119 135
f 112 135 121
f 113 136 137
f 113 137 114
f 114 137 136
f 114 136 134
f 114 134 115
f 115 134 133
f 115 133 132
f 115 132 118
f 115 118 117
f 116 117 118
f 118 132 131
f 118 131 119
f 119 131 130
f 119 130 135
f 121 135 122
f 122 135 138
f 122 138 123
f 123 138 139
f 126 140 127
f 127 140 128
f 128 141 129
f 129 141 142
f 129 142 138
f 129 138 135
f 129 135 130
f 138 143 139
f 138 142 143

