# https://github.com/mikedh/trimesh
v 0.30322212 -0.33156404 -0.02521118
v 0.30750063 -0.32766849 -0.02525224
v 0.39114815 -0.27081934 -0.02525224
v 0.39114815 -0.27081934 -0.02498537
v 0.30324921 -0.32146147 0.06497893
v 0.30324921 -0.32024917 0.07498637
v 0.30322212 -0.33051339 -0.01764658
v 0.30322212 -0.32637537 -0.02525224
v 0.39473611 -0.26391727 -0.02525224
v 0.40114033 -0.26142800 -0.02159824
v 0.40197980 -0.26186442 -0.01498820
v 0.40149239 -0.26104006 -0.00499102
v 0.30324921 -0.31948945 0.07959493
v 0.30322212 -0.32703811 0.00733609
v 0.30322212 -0.32740986 0.00468797
v 0.30322212 -0.23731114 -0.02525224
v 0.40114033 -0.25846997 -0.02159824
v 0.39290828 -0.16643155 -0.02525224
v 0.42023116 -0.24046314 0.00964550
v 0.43058893 -0.23078084 0.02895216
v 0.41130856 -0.25137392 -0.00258924
v 0.41164705 -0.25150323 0.00500615
v 0.44051343 -0.22059746 0.04855647
v 0.44051343 -0.22059746 0.05147146
v 0.43046707 -0.23037675 0.04159745
v 0.42044780 -0.23032825 0.07105525
v 0.41908029 -0.22913210 0.07771660
v 0.41733369 -0.22985949 0.07960519
v 0.41397586 -0.23238109 0.07960519
v 0.40449816 -0.23933166 0.07960519
v 0.40180379 -0.24125518 0.07960519
v 0.39744404 -0.24387378 0.07960519
v 0.39460072 -0.24550635 0.07960519
v 0.39208236 -0.24691263 0.07960519
v 0.30324921 -0.16643155 0.07959493
v 0.30322212 -0.23731114 0.00733609
v 0.30323565 -0.16643155 -0.02525224
v 0.42023116 -0.23962261 0.00964550
v 0.39208236 -0.16643155 0.00733609
v 0.43160439 -0.16701345 0.07960519
v 0.43161795 -0.16754687 0.07834271
v 0.44068944 -0.18836623 0.06860214
v 0.44102794 -0.19837181 0.05881025
v 0.44024265 -0.20965436 0.04970604
v 0.44058114 -0.21502084 0.04871043
v 0.43058893 -0.22876033 0.02895216
v 0.44121748 -0.20579115 0.05527942
v 0.44091964 -0.21510166 0.05486885
v 0.44154245 -0.20535471 0.06531765
v 0.44077069 -0.21182035 0.06219738
v 0.43910533 -0.21847996 0.05813282
v 0.43071079 -0.22077526 0.07138370
v 0.41863349 -0.22866336 0.07960519
v 0.39208236 -0.23409449 0.07960519
v 0.42756960 -0.16712660 0.07960519
v 0.38612497 -0.16643155 0.07959493
v 0.30323565 -0.16643155 0.00733609
v 0.39140540 -0.16643155 0.03375573
v 0.43207827 -0.16895315 0.07960519
v 0.44068944 -0.18836623 0.07185584
v 0.39137831 -0.16643155 0.03464870
v 0.39103982 -0.16643155 0.04193617
v 0.39087734 -0.16643155 0.04498459
v 0.38978064 -0.16643155 0.05498176
v 0.38661239 -0.16643155 0.07639255
v 0.44148830 -0.19504201 0.06516369
v 0.44109565 -0.19502585 0.07303621
v 0.44077069 -0.20221888 0.07217403
v 0.43660051 -0.20520923 0.07960519
v 0.43517885 -0.20834507 0.07960519
v 0.42954639 -0.21741313 0.07960519
v 0.43232200 -0.21382470 0.07960519
v 0.42899126 -0.21894872 0.07805532
v 0.42746130 -0.21970843 0.07960519
v 0.43799508 -0.19502585 0.07960519
v 0.43771076 -0.19728881 0.07960519
v 0.42858508 -0.21852845 0.07960519
f 1 2 3
f 1 3 4
f 1 4 5
f 1 5 6
f 1 6 7
f 1 7 15
f 1 15 14
f 1 14 36
f 1 36 16
f 1 16 8
f 1 8 2
f 2 8 16
f 2 16 37
f 2 37 18
f 2 18 9
f 2 9 3
f 3 9 10
f 3 10 11
f 3 11 4
f 4 11 12
f 4 12 6
f 4 6 5
f 6 13 14
f 6 14 15
f 6 15 7
f 6 12 13
f 9 17 10
f 9 18 17
f 10 17 38
f 10 38 19
f 10 19 20
f 10 20 21
f 10 21 11
f 11 22 12
f 11 21 20
f 11 20 23
f 11 23 24
f 11 24 22
f 12 22 13
f 13 22 25
f 13 25 24
f 13 24 26
f 13 26 27
f 13 27 28
f 13 28 29
f 13 29 30
f 13 30 31
f 13 31 32
f 13 32 33
f 13 33 34
f 13 34 54
f 13 54 35
f 13 35 36
f 13 36 14
f 16 36 57
f 16 57 37
f 17 18 38
f 18 37 57
f 18 57 35
f 18 35 56
f 18 56 65
f 18 65 64
f 18 64 63
f 18 63 62
f 18 62 61
f 18 61 58
f 18 58 39
f 18 39 40
f 18 40 41
f 18 41 42
f 18 42 43
f 18 43 44
f 18 44 45
f 18 45 46
f 18 46 38
f 19 38 46
f 19 46 20
f 20 46 23
f 22 24 25
f 23 46 45
f 23 45 47
f 23 47 48
f 23 48 24
f 24 48 49
f 24 49 50
f 24 50 51
f 24 51 52
f 24 52 27
f 24 27 26
f 27 52 53
f 27 53 28
f 28 53 74
f 28 74 77
f 28 77 71
f 28 71 72
f 28 72 70
f 28 70 69
f 28 69 76
f 28 76 75
f 28 75 59
f 28 59 40
f 28 40 55
f 28 55 54
f 28 54 34
f 28 34 33
f 28 33 32
f 28 32 31
f 28 31 30
f 28 30 29
f 35 55 40
f 35 40 56
f 35 57 36
f 35 54 55
f 39 58 40
f 40 59 60
f 40 60 42
f 40 42 41
f 40 58 61
f 40 61 62
f 40 62 63
f 40 63 64
f 40 64 65
f 40 65 56
f 42 66 43
f 42 60 66
f 43 66 47
f 43 47 44
f 44 47 45
f 47 66 49
f 47 49 48
f 49 66 67
f 49 67 68
f 49 68 50
f 50 68 69
f 50 69 70
f 50 70 51
f 51 71 52
f 51 70 72
f 51 72 71
f 52 71 73
f 52 73 74
f 52 74 53
f 59 75 60
f 60 75 67
f 60 67 66
f 67 75 68
f 68 76 69
f 68 75 76
f 71 77 73
f 73 77 74

