# https://github.com/mikedh/trimesh
v -0.26666218 0.35021058 0.07960274
v -0.26666218 0.39136782 -0.02942269
v -0.35439888 0.27914253 0.07960274
v -0.26666218 -0.39747944 0.07960274
v -0.26666218 0.39288330 -0.03707622
v -0.27008981 0.39009163 -0.03968273
v -0.37153685 0.27132583 0.05494875
v -0.37064341 0.27044845 0.06185519
v -0.36258611 0.27228299 0.07960274
v -0.35672185 0.27722824 0.07960274
v -0.26766935 -0.39668185 0.07960274
v -0.26666218 -0.39859614 0.07717885
v -0.26666218 0.39088923 -0.04670538
v -0.26916385 0.39017138 -0.05054045
v -0.27039844 0.39017138 -0.05054045
v -0.27034971 0.39017138 -0.04497878
v -0.37243029 0.27204370 0.04498754
v -0.38220951 0.27180442 -0.03500096
v -0.38027641 0.27020916 0.00288483
v -0.37990278 0.26981035 0.00955884
v -0.37740114 0.26622108 0.04498754
v -0.37694630 0.26414725 0.05518118
v -0.37795344 0.25728771 0.07497078
v -0.37918803 0.25433651 0.07960274
v -0.37226787 0.26231271 0.07960274
v -0.36528271 0.26973060 0.07960274
v -0.27134061 -0.39205563 0.07960274
v -0.26963493 -0.39955327 0.06912687
v -0.26835161 -0.39811754 0.07497078
v -0.26666218 -0.39955327 0.07497078
v -0.26940751 0.38091898 -0.06090011
v -0.26666218 0.33481649 -0.09000344
v -0.27998272 0.36991182 -0.08002563
v -0.28082743 0.36991182 -0.08002563
v -0.28747144 0.36289275 -0.09000344
v -0.29258847 0.36241418 -0.09000344
v -0.29331946 0.36377013 -0.08497303
v -0.28006393 0.38004160 -0.06033564
v -0.28006393 0.38004160 -0.05977117
v -0.38162470 0.27140561 -0.04328537
v -0.39023432 0.26039842 -0.03065124
v -0.39023432 0.26039842 -0.02759647
v -0.38718033 0.26414725 -0.02455830
v -0.38128358 0.26701868 0.01231478
v -0.38141352 0.26223296 0.03497653
v -0.38077998 0.26119605 0.04498754
v -0.38027641 0.26039842 0.05197699
v -0.37900934 0.25864366 0.06495976
v -0.38107240 0.25162458 0.07960274
v -0.38518226 -0.23157427 0.07960274
v -0.27072334 -0.40090922 0.06245286
v -0.26836789 -0.40864617 0.04498754
v -0.26666218 -0.40800807 0.05025038
v -0.39494523 -0.23157427 0.04845736
v -0.26666218 -0.33781740 -0.09000344
v -0.30163667 0.35244390 -0.09000344
v -0.36005199 0.28999016 -0.07004782
v -0.37044847 0.28041872 -0.06056807
v -0.41645297 0.11483258 -0.09000344
v -0.40001351 0.23989958 -0.01011455
v -0.41919830 0.10454326 -0.09000344
v -0.39129019 0.25210318 0.00497669
v -0.38765144 0.25609127 0.01498770
v -0.40001351 0.23989958 -0.00923464
v -0.41177455 0.21357808 0.02496551
v -0.40173542 0.23280074 0.01498770
v -0.39245981 0.24396744 0.03497653
v -0.40045211 0.23072693 0.03497653
v -0.38222575 0.25369841 0.06495976
v -0.40006226 0.23000906 0.04057141
v -0.39228112 0.23391742 0.07497078
v -0.39181003 0.23319955 0.07960274
v -0.40168670 -0.18930034 0.07960274
v -0.27148682 -0.40226519 0.05498195
v -0.27160054 -0.42100927 -0.00500112
v -0.27034971 -0.42037117 0.00056055
v -0.26666218 -0.40976283 0.04498754
v -0.39556253 -0.23157427 0.04415744
v -0.28058374 -0.41095924 -0.01879740
v -0.26666218 -0.41454855 -0.01615768
v -0.26851407 -0.41183662 -0.02213440
v -0.27881309 -0.40146756 -0.04177459
v -0.28909588 -0.39077944 -0.06108273
v -0.29996347 -0.37004128 -0.09000344
v -0.34252414 0.30235329 -0.09000344
v -0.41123849 0.21254116 0.01820849
v -0.41989681 0.09943849 -0.09000344
v -0.41365892 0.20496376 0.03497653
v -0.41117349 0.21214235 0.03497653
v -0.39036426 0.24053767 0.06261888
v -0.40217403 0.22538286 0.04434006
v -0.40171918 0.22306976 0.05494875
v -0.40123186 0.22227214 0.05969693
v -0.40066329 0.22131500 0.06495976
v -0.39426294 0.22817454 0.07960274
v -0.40300250 -0.18108486 0.07960274
v -0.41659918 -0.10483228 0.03497653
v -0.41685909 -0.10483228 0.02496551
v -0.41944197 -0.10602871 -0.09000344
v -0.28085992 -0.41111878 -0.02498995
v -0.27177921 -0.42100927 -0.01160873
v -0.26666218 -0.42196643 0.00202153
v -0.26666218 -0.42164737 0.00318367
v -0.41731393 -0.11480254 -0.09000344
v -0.41367516 -0.12485257 -0.09000344
v -0.37926924 -0.20820397 -0.09000344
v -0.31765378 -0.35097814 -0.09000344
v -0.31191945 -0.36366034 -0.09000344
v -0.30074322 -0.38096869 -0.07273734
v -0.26666218 -0.42132834 -0.00920143
v -0.26789677 -0.42100927 -0.01160873
v -0.27878061 -0.41048068 -0.03080066
v -0.29124016 -0.39077944 -0.06108273
v -0.30098689 -0.37004128 -0.09000344
v -0.43019584 0.02182996 -0.09000344
v -0.41434118 0.19483398 0.04498754
v -0.41253805 0.19483398 0.05494875
v -0.41156337 0.20536257 0.04523657
v -0.41041002 0.21078640 0.04206559
v -0.43240511 0.00500015 -0.09000344
v -0.42004302 0.15032671 0.06984076
v -0.42004302 0.15032671 0.07062105
v -0.42033541 0.14346717 0.07960274
v -0.40007851 0.22011857 0.07050484
v -0.40113437 0.21341854 0.07960274
v -0.42806780 -0.01494038 0.04498754
v -0.42012423 -0.07109290 0.05113029
v -0.41616058 -0.10483228 0.04498754
v -0.42363304 -0.01494038 0.07960274
v -0.42704439 -0.01494038 0.05494875
v -0.41989681 -0.07938816 0.03756644
v -0.42455900 -0.04485117 0.03497653
v -0.42598850 -0.04493093 -0.02497335
v -0.43138170 -0.01494038 -0.08497303
v -0.43149540 -0.01494038 -0.09000344
v -0.28058374 -0.41048068 -0.03080066
v -0.26666218 -0.42164737 -0.00712618
v -0.30993763 -0.36613294 -0.09000344
v -0.41305786 0.18486372 0.06495976
v -0.41021508 0.19084586 0.07115231
v -0.41002014 0.20017804 0.06029460
v -0.40412337 0.20496376 0.07960274
v -0.42996842 0.00013466 0.04007335
v -0.43260002 -0.00489035 -0.09000344
v -0.43251881 -0.00489035 -0.08497303
v -0.42795411 0.00507991 0.05494875
v -0.42457524 0.00507991 0.07960274
v -0.41255429 0.17505297 0.07960274
v -0.41354519 0.17497320 0.07497078
v -0.42850640 -0.01494038 0.03497653
v -0.42818153 -0.00497011 0.05494875
v -0.42933488 -0.00393321 0.04404123
v -0.42996842 -0.00002486 0.04007335
v -0.42957854 -0.00568797 0.03497653
v -0.42477018 -0.00497011 0.07960274
v -0.42541996 -0.00497011 0.07497078
v -0.42998466 -0.01007489 0.00072657
v -0.43204772 -0.00999513 -0.09000344
v -0.41060495 0.18255061 0.07960274
v -0.42985472 -0.00871893 0.01229817
v -0.43027705 -0.00329511 0.01498770
f 1 2 3
f 1 3 10
f 1 10 9
f 1 9 26
f 1 26 25
f 1 25 24
f 1 24 49
f 1 49 72
f 1 72 95
f 1 95 125
f 1 125 142
f 1 142 159
f 1 159 148
f 1 148 123
f 1 123 147
f 1 147 155
f 1 155 129
f 1 129 96
f 1 96 73
f 1 73 50
f 1 50 27
f 1 27 11
f 1 11 4
f 1 4 12
f 1 12 30
f 1 30 53
f 1 53 77
f 1 77 103
f 1 103 102
f 1 102 137
f 1 137 110
f 1 110 80
f 1 80 55
f 1 55 32
f 1 32 13
f 1 13 5
f 1 5 2
f 2 5 6
f 2 6 7
f 2 7 8
f 2 8 9
f 2 9 10
f 2 10 3
f 4 11 12
f 5 13 14
f 5 14 15
f 5 15 16
f 5 16 6
f 6 17 7
f 6 16 18
f 6 18 19
f 6 19 20
f 6 20 17
f 7 17 20
f 7 20 21
f 7 21 22
f 7 22 23
f 7 23 8
f 8 23 24
f 8 24 25
f 8 25 26
f 8 26 9
f 11 27 28
f 11 28 29
f 11 29 12
f 12 29 30
f 13 31 14
f 13 32 31
f 14 31 33
f 14 33 34
f 14 34 15
f 15 34 35
f 15 35 36
f 15 36 37
f 15 37 38
f 15 38 39
f 15 39 16
f 16 39 18
f 18 39 38
f 18 38 37
f 18 37 40
f 18 40 41
f 18 41 42
f 18 42 43
f 18 43 19
f 19 43 42
f 19 42 20
f 20 42 44
f 20 44 45
f 20 45 46
f 20 46 21
f 21 46 47
f 21 47 22
f 22 47 48
f 22 48 24
f 22 24 23
f 24 48 49
f 27 50 28
f 28 51 52
f 28 52 53
f 28 53 30
f 28 30 29
f 28 50 54
f 28 54 51
f 31 32 33
f 32 35 33
f 32 55 84
f 32 84 114
f 32 114 138
f 32 138 108
f 32 108 107
f 32 107 106
f 32 106 105
f 32 105 104
f 32 104 99
f 32 99 135
f 32 135 158
f 32 158 144
f 32 144 120
f 32 120 115
f 32 115 87
f 32 87 61
f 32 61 59
f 32 59 85
f 32 85 56
f 32 56 36
f 32 36 35
f 33 35 34
f 36 56 37
f 37 56 57
f 37 57 58
f 37 58 40
f 40 58 59
f 40 59 41
f 41 60 64
f 41 64 42
f 41 59 61
f 41 61 60
f 42 62 63
f 42 63 44
f 42 64 65
f 42 65 66
f 42 66 62
f 44 63 45
f 45 63 46
f 46 63 66
f 46 66 67
f 46 67 68
f 46 68 47
f 47 69 49
f 47 49 48
f 47 68 70
f 47 70 69
f 49 69 71
f 49 71 72
f 50 73 54
f 51 74 75
f 51 75 52
f 51 54 74
f 52 75 76
f 52 76 77
f 52 77 53
f 54 78 79
f 54 79 75
f 54 75 74
f 54 73 78
f 55 80 81
f 55 81 82
f 55 82 83
f 55 83 84
f 56 85 57
f 57 85 58
f 58 85 59
f 60 86 65
f 60 65 64
f 60 61 86
f 61 87 88
f 61 88 65
f 61 65 86
f 62 66 63
f 65 68 66
f 65 88 89
f 65 89 68
f 66 68 67
f 68 89 70
f 69 90 71
f 69 70 90
f 70 89 91
f 70 91 71
f 70 71 90
f 71 91 92
f 71 92 72
f 72 92 89
f 72 89 93
f 72 93 94
f 72 94 95
f 73 96 97
f 73 97 98
f 73 98 99
f 73 99 78
f 75 79 100
f 75 100 101
f 75 101 102
f 75 102 76
f 76 102 103
f 76 103 77
f 78 99 104
f 78 104 105
f 78 105 106
f 78 106 107
f 78 107 108
f 78 108 109
f 78 109 100
f 78 100 79
f 80 110 81
f 81 110 111
f 81 111 82
f 82 111 83
f 83 111 112
f 83 112 136
f 83 136 113
f 83 113 114
f 83 114 84
f 87 115 88
f 88 116 117
f 88 117 118
f 88 118 119
f 88 119 89
f 88 115 120
f 88 120 121
f 88 121 122
f 88 122 123
f 88 123 116
f 89 119 94
f 89 94 93
f 89 92 91
f 94 124 95
f 94 119 124
f 95 124 125
f 96 126 127
f 96 127 128
f 96 128 97
f 96 129 130
f 96 130 126
f 97 128 131
f 97 131 132
f 97 132 98
f 98 132 133
f 98 133 99
f 99 133 134
f 99 134 135
f 100 109 136
f 100 136 101
f 101 111 137
f 101 137 102
f 101 136 112
f 101 112 111
f 108 138 109
f 109 138 114
f 109 114 113
f 109 113 136
f 110 137 111
f 116 123 117
f 117 123 139
f 117 139 140
f 117 140 141
f 117 141 118
f 118 141 119
f 119 141 142
f 119 142 125
f 119 125 124
f 120 143 123
f 120 123 122
f 120 122 121
f 120 144 145
f 120 145 143
f 123 143 146
f 123 146 147
f 123 148 149
f 123 149 139
f 126 150 131
f 126 131 128
f 126 128 127
f 126 130 151
f 126 151 152
f 126 152 153
f 126 153 154
f 126 154 150
f 129 155 156
f 129 156 130
f 130 156 151
f 131 150 132
f 132 150 157
f 132 157 133
f 133 157 134
f 134 157 145
f 134 145 135
f 135 145 158
f 139 149 140
f 140 149 159
f 140 159 142
f 140 142 141
f 143 153 151
f 143 151 146
f 143 145 153
f 144 158 145
f 145 157 160
f 145 160 161
f 145 161 153
f 146 151 147
f 147 151 156
f 147 156 155
f 148 159 149
f 150 154 160
f 150 160 157
f 151 153 152
f 153 161 160
f 153 160 154

