# https://github.com/mikedh/trimesh
v -0.32125869 -0.22875208 -0.50550002
v -0.28039208 -0.22875208 -0.50550002
v -0.32501110 -0.22875208 -0.50540155
v -0.32501110 -0.22497973 -0.50550002
v -0.28039208 0.13481927 -0.50550002
v -0.28039208 -0.22875208 0.47370556
v -0.33241343 -0.22875208 -0.50382549
v -0.33500043 -0.21497938 -0.50530303
v -0.37499616 -0.13497660 -0.50540155
v -0.37499616 -0.12497624 -0.50550002
v -0.36499402 0.13481927 -0.50550002
v -0.28039208 0.13481927 0.47232652
v -0.28039208 -0.07497450 0.48926881
v -0.30344439 -0.22875208 0.49724746
v -0.33510289 -0.22875208 -0.50293899
v -0.34356821 -0.21497938 -0.50254500
v -0.36499402 -0.16497764 -0.50402248
v -0.37499616 -0.14497694 -0.50412101
v -0.38499829 -0.12497624 -0.50382549
v -0.38499829 -0.11497589 -0.50490904
v -0.38499829 -0.10497554 -0.50530303
v -0.38499829 -0.09497520 -0.50550002
v -0.37499616 0.12499686 -0.50550002
v -0.37499616 0.13481927 -0.50540155
v -0.35812956 0.13481927 0.50030100
v -0.28039208 0.07958604 0.48897332
v -0.28039208 0.07499512 0.48926881
v -0.30781153 -0.22875208 0.50030100
v -0.34155753 -0.22302234 -0.50155997
v -0.33995667 -0.22875208 -0.49574834
v -0.35161090 -0.20316401 -0.50155997
v -0.38507515 -0.13419364 -0.50224948
v -0.35368559 -0.19497868 -0.50254500
v -0.39087665 -0.12497624 -0.50106746
v -0.39190120 -0.11497589 -0.50215095
v -0.39498764 -0.05497381 -0.50471199
v -0.39498764 -0.04500905 -0.50520450
v -0.39263117 -0.10497554 -0.50254500
v -0.40244120 -0.04500905 -0.50254500
v -0.39498764 -0.03500870 -0.50550002
v -0.38499829 0.09499582 -0.50550002
v -0.38499829 0.10499617 -0.50530303
v -0.38499829 0.11499652 -0.50490904
v -0.38499829 0.12499686 -0.50382549
v -0.38507515 0.13417867 -0.50224948
v -0.38487023 0.13481927 -0.50215095
v -0.36517331 0.13481927 0.50079352
v -0.31458634 -0.22875208 0.50059652
v -0.37003991 -0.17006677 -0.49998394
v -0.38010609 -0.15020844 -0.50008243
v -0.39015946 -0.13031450 -0.50018096
v -0.38142520 -0.14497694 -0.50136292
v -0.34014878 -0.22875208 -0.49496034
v -0.36167705 -0.18327010 -0.50155997
v -0.40031528 -0.07198507 -0.50047648
v -0.40086597 -0.06497416 -0.50116599
v -0.40166000 -0.05497381 -0.50195396
v -0.40498978 -0.00500766 -0.50362849
v -0.41059917 -0.00500766 -0.50087047
v -0.39498764 0.03499373 -0.50550002
v -0.39498764 0.04499408 -0.50520450
v -0.39498764 0.05499443 -0.50471199
v -0.40244120 0.04499408 -0.50254500
v -0.39263117 0.10499617 -0.50254500
v -0.39190120 0.11499652 -0.50215095
v -0.39087665 0.12499686 -0.50106746
v -0.39015946 0.13029954 -0.50018096
v -0.38804632 0.13481927 -0.49496034
v -0.37516266 0.13481927 0.50069505
v -0.37499616 0.12499686 0.50079352
v -0.32501110 -0.21497938 0.50079352
v -0.32501110 -0.22497973 0.50079352
v -0.32501110 -0.22875208 0.50069505
v -0.34233874 -0.22455266 -0.49496034
v -0.38015732 -0.15031520 -0.49496034
v -0.39024910 -0.13049245 -0.49496034
v -0.39176032 -0.12497624 -0.49496034
v -0.39382219 -0.11497589 -0.49496034
v -0.34020001 -0.22875208 -0.48658770
v -0.41015092 -0.01098651 -0.50018096
v -0.40498978 0.00499269 -0.50362849
v -0.41121387 -0.00500766 -0.49496034
v -0.41059917 0.00499269 -0.50087047
v -0.40166000 0.05499443 -0.50195396
v -0.40086597 0.06499477 -0.50116599
v -0.40031528 0.07200570 -0.50047648
v -0.39382219 0.11499652 -0.49496034
v -0.39176032 0.12499686 -0.49496034
v -0.39024910 0.13047749 -0.49496034
v -0.38804632 0.13481927 0.48493475
v -0.38136116 0.13481927 0.50030100
v -0.38499829 0.11499652 0.50059652
v -0.38499829 0.09499582 0.50079352
v -0.37499616 -0.12497624 0.50079352
v -0.37499616 -0.13497660 0.50069505
v -0.34500256 -0.19497868 0.50069505
v -0.33500043 -0.21497938 0.50069505
v -0.32722667 -0.22875208 0.50059652
v -0.38015732 -0.15031520 0.48493475
v -0.39024910 -0.13049245 0.48493475
v -0.39176032 -0.12497624 0.48493475
v -0.40943372 -0.01646713 -0.48491317
v -0.41022778 -0.01144916 -0.49496034
v -0.39382219 -0.11497589 0.48493475
v -0.34020001 -0.22875208 0.48493475
v -0.41120109 0.00499269 -0.49496034
v -0.41121387 -0.00500766 0.48493475
v -0.41015092 0.01093596 -0.50018096
v -0.41022778 0.01143420 -0.49496034
v -0.39382219 0.11499652 0.48493475
v -0.39176032 0.12499686 0.48493475
v -0.39024910 0.13047749 0.48493475
v -0.39015946 0.13029954 0.49074635
v -0.38802072 0.13481927 0.48572275
v -0.38554901 0.13481927 0.49498191
v -0.39006981 0.12033478 0.50000548
v -0.39030033 0.11499652 0.50020254
v -0.40052018 0.04499408 0.50030100
v -0.39498764 0.04499408 0.50069505
v -0.39498764 0.03499373 0.50079352
v -0.38499829 -0.09497520 0.50079352
v -0.38499829 -0.11497589 0.50059652
v -0.38041344 -0.14106220 0.50020254
v -0.33456498 -0.22444588 0.50039953
v -0.36035794 -0.18092126 0.50020254
v -0.34031525 -0.22074470 0.50020254
v -0.33307940 -0.22875208 0.50030100
v -0.37003991 -0.17006677 0.49015534
v -0.38010609 -0.15020844 0.49045083
v -0.39015946 -0.13031450 0.49074635
v -0.40943372 -0.01646713 0.48493475
v -0.41022778 -0.01144916 0.48493475
v -0.39074856 -0.12419330 0.49448940
v -0.40031528 -0.07198507 0.49153435
v -0.41015092 -0.01098651 0.49074635
v -0.33763865 -0.22875208 0.49498191
v -0.34140384 -0.22284442 0.49498191
v -0.41120109 0.00499269 0.48493475
v -0.41059917 -0.00500766 0.49261788
v -0.41059917 0.00499269 0.49261788
v -0.41022778 0.01143420 0.48493475
v -0.41015092 0.01093596 0.49074635
v -0.40031528 0.07200570 0.49153435
v -0.39074856 0.12421391 0.49448940
v -0.38577953 0.13481927 0.49439090
v -0.39970055 0.05958533 0.49980849
v -0.40026405 0.05293030 0.50010401
v -0.39220855 0.11499652 0.49498191
v -0.40086597 0.06499477 0.49360290
v -0.40258208 0.00499269 0.50030100
v -0.40758955 0.00499269 0.49764147
v -0.39498764 -0.03500870 0.50079352
v -0.39498764 -0.04500905 0.50069505
v -0.40052018 -0.04500905 0.50030100
v -0.39030033 -0.11497589 0.50020254
v -0.39006981 -0.12034974 0.50000548
v -0.38138679 -0.14465664 0.49429241
v -0.39220855 -0.11497589 0.49498191
v -0.40086597 -0.06497416 0.49360290
v -0.39970055 -0.05960030 0.49980849
v -0.40758955 -0.00500766 0.49764147
v -0.40258208 -0.00500766 0.50030100
v -0.40026405 -0.05290968 0.50010401
f 1 2 6
f 1 6 14
f 1 14 28
f 1 28 48
f 1 48 73
f 1 73 98
f 1 98 127
f 1 127 136
f 1 136 105
f 1 105 79
f 1 79 53
f 1 53 30
f 1 30 15
f 1 15 7
f 1 7 3
f 1 3 4
f 1 4 10
f 1 10 22
f 1 22 40
f 1 40 60
f 1 60 41
f 1 41 23
f 1 23 11
f 1 11 5
f 1 5 2
f 2 5 12
f 2 12 26
f 2 26 27
f 2 27 13
f 2 13 6
f 3 7 8
f 3 8 4
f 4 8 9
f 4 9 10
f 5 11 24
f 5 24 46
f 5 46 68
f 5 68 90
f 5 90 114
f 5 114 145
f 5 145 115
f 5 115 91
f 5 91 69
f 5 69 47
f 5 47 25
f 5 25 12
f 6 13 14
f 7 15 16
f 7 16 8
f 8 16 17
f 8 17 18
f 8 18 9
f 9 18 19
f 9 19 20
f 9 20 21
f 9 21 22
f 9 22 10
f 11 23 24
f 12 25 26
f 13 27 28
f 13 28 14
f 15 29 16
f 15 30 29
f 16 29 31
f 16 31 32
f 16 32 33
f 16 33 18
f 16 18 17
f 18 33 32
f 18 32 19
f 19 32 34
f 19 34 35
f 19 35 20
f 20 36 37
f 20 37 21
f 20 35 38
f 20 38 39
f 20 39 36
f 21 37 40
f 21 40 22
f 23 41 24
f 24 41 42
f 24 42 43
f 24 43 44
f 24 44 45
f 24 45 46
f 25 47 28
f 25 28 27
f 25 27 26
f 28 47 48
f 29 49 50
f 29 50 51
f 29 51 52
f 29 52 31
f 29 30 49
f 30 53 49
f 31 52 54
f 31 54 32
f 32 54 52
f 32 52 51
f 32 51 34
f 34 51 55
f 34 55 35
f 35 55 56
f 35 56 57
f 35 57 39
f 35 39 38
f 36 58 37
f 36 39 58
f 37 58 40
f 39 57 59
f 39 59 58
f 40 58 81
f 40 81 60
f 41 60 42
f 42 61 43
f 42 60 61
f 43 61 62
f 43 62 63
f 43 63 64
f 43 64 65
f 43 65 44
f 44 65 66
f 44 66 45
f 45 66 67
f 45 67 46
f 46 67 68
f 47 69 70
f 47 70 93
f 47 93 120
f 47 120 152
f 47 152 121
f 47 121 94
f 47 94 72
f 47 72 71
f 47 71 48
f 48 71 72
f 48 72 73
f 49 53 74
f 49 74 75
f 49 75 76
f 49 76 50
f 50 76 51
f 51 76 77
f 51 77 78
f 51 78 55
f 53 79 74
f 55 59 56
f 55 78 80
f 55 80 59
f 56 59 57
f 58 59 83
f 58 83 81
f 59 80 82
f 59 82 83
f 60 81 61
f 61 81 62
f 62 81 63
f 63 83 84
f 63 84 65
f 63 65 64
f 63 81 83
f 65 84 85
f 65 85 86
f 65 86 66
f 66 86 67
f 67 86 87
f 67 87 88
f 67 88 89
f 67 89 68
f 68 89 112
f 68 112 90
f 69 91 92
f 69 92 93
f 69 93 70
f 72 94 95
f 72 95 96
f 72 96 97
f 72 97 73
f 73 97 98
f 74 79 75
f 75 79 105
f 75 105 99
f 75 99 100
f 75 100 76
f 76 100 101
f 76 101 77
f 77 101 104
f 77 104 78
f 78 102 103
f 78 103 80
f 78 104 131
f 78 131 102
f 80 103 82
f 82 106 83
f 82 103 132
f 82 132 107
f 82 107 138
f 82 138 106
f 83 106 108
f 83 108 86
f 83 86 85
f 83 85 84
f 86 108 87
f 87 108 109
f 87 109 141
f 87 141 110
f 87 110 111
f 87 111 88
f 88 111 112
f 88 112 89
f 90 112 113
f 90 113 114
f 91 115 116
f 91 116 117
f 91 117 92
f 92 118 119
f 92 119 120
f 92 120 93
f 92 117 118
f 94 121 122
f 94 122 95
f 95 122 123
f 95 123 96
f 96 123 97
f 97 124 98
f 97 123 125
f 97 125 126
f 97 126 124
f 98 124 127
f 99 105 128
f 99 128 100
f 100 128 129
f 100 129 130
f 100 130 101
f 101 130 104
f 102 131 132
f 102 132 103
f 104 130 133
f 104 133 134
f 104 134 135
f 104 135 131
f 105 136 137
f 105 137 128
f 106 109 108
f 106 138 141
f 106 141 109
f 107 132 135
f 107 135 139
f 107 139 140
f 107 140 138
f 110 141 142
f 110 142 143
f 110 143 144
f 110 144 113
f 110 113 111
f 111 113 112
f 113 145 114
f 113 144 116
f 113 116 115
f 113 115 145
f 116 146 147
f 116 147 117
f 116 144 148
f 116 148 143
f 116 143 149
f 116 149 146
f 117 147 118
f 118 150 120
f 118 120 119
f 118 147 151
f 118 151 150
f 120 150 162
f 120 162 152
f 121 152 153
f 121 153 122
f 122 153 154
f 122 154 155
f 122 155 123
f 123 155 156
f 123 156 130
f 123 130 157
f 123 157 125
f 124 126 127
f 125 157 126
f 126 157 130
f 126 130 137
f 126 137 136
f 126 136 127
f 128 137 129
f 129 137 130
f 130 156 133
f 131 135 132
f 133 158 134
f 133 156 158
f 134 158 156
f 134 156 159
f 134 159 139
f 134 139 135
f 138 140 142
f 138 142 141
f 139 159 160
f 139 160 161
f 139 161 151
f 139 151 140
f 140 149 143
f 140 143 142
f 140 151 146
f 140 146 149
f 143 148 144
f 146 151 147
f 150 151 161
f 150 161 162
f 152 162 154
f 152 154 153
f 154 161 163
f 154 163 155
f 154 162 161
f 155 163 156
f 156 163 160
f 156 160 159
f 160 163 161

