# https://github.com/mikedh/trimesh
v 0.13634551 -0.36499134 0.50079352
v -0.31495702 -0.23500323 0.50079352
v 0.12496265 -0.37499318 0.50079352
v 0.13634551 -0.37493959 0.50069505
v 0.13634551 -0.35761499 0.50039953
v -0.31458384 -0.22875208 0.50059652
v -0.32498702 -0.22875208 0.50069505
v -0.29499036 -0.25500691 0.50079352
v -0.32498702 -0.23500323 0.50069505
v 0.09496600 -0.38499501 0.50079352
v 0.10499599 -0.38499501 0.50069505
v 0.11497932 -0.38499501 0.50059652
v 0.13634551 -0.38102999 0.50030100
v -0.30777276 -0.22875208 0.50030100
v 0.13634551 -0.22875208 0.47232652
v -0.32717961 -0.22875208 0.50059652
v -0.26499373 -0.28501239 0.50079352
v -0.26499373 -0.29501423 0.50069505
v -0.33305764 -0.22875208 0.50030100
v -0.33086506 -0.23500323 0.50030100
v -0.33025858 -0.24037921 0.50010401
v -0.32419395 -0.24421920 0.50030100
v -0.31421062 -0.25422102 0.50030100
v 0.03497272 -0.39499685 0.50079352
v 0.04495605 -0.39499685 0.50069505
v 0.04495605 -0.40051574 0.50030100
v 0.11497932 -0.39029956 0.50020254
v 0.12034418 -0.39006737 0.50000548
v 0.13634551 -0.38426274 0.49626243
v 0.13634551 -0.22875208 -0.50550002
v -0.23499709 -0.31500003 0.50079352
v -0.23499709 -0.32498401 0.50069505
v -0.25421733 -0.31423205 0.50030100
v -0.33758280 -0.22875208 0.49498191
v -0.32032192 -0.25038105 0.50010401
v -0.33128491 -0.24166515 0.49498191
v -0.32661980 -0.24666607 0.49498191
v -0.30035526 -0.27036685 0.50010401
v -0.03500391 -0.39499685 0.50079352
v 0.00497607 -0.40258753 0.50030100
v 0.00497607 -0.40758845 0.49764147
v 0.05293337 -0.40024781 0.50010401
v 0.11497932 -0.39221063 0.49498191
v 0.12416958 -0.39074606 0.49448940
v 0.13032752 -0.39015669 0.49074635
v 0.05960449 -0.39969414 0.49980849
v 0.06496935 -0.40085506 0.49360290
v 0.07196701 -0.40030140 0.49153435
v 0.13634551 -0.38506645 0.49439090
v 0.13634551 -0.36499134 -0.50550002
v -0.32120827 -0.22875208 -0.50550002
v -0.22496709 -0.32498401 0.50079352
v -0.15499048 -0.36499134 0.50069505
v -0.12499384 -0.37499318 0.50079352
v -0.18498713 -0.34498769 0.50079352
v -0.24418736 -0.32421601 0.50030100
v -0.24036196 -0.33027071 0.50010401
v -0.23499709 -0.33089581 0.50030100
v -0.22072186 -0.34030825 0.50020254
v -0.16100848 -0.37038520 0.50020254
v -0.14108846 -0.38040489 0.50020254
v -0.27035859 -0.30037236 0.50010401
v -0.25034529 -0.32035816 0.50010401
v -0.34014863 -0.22875208 0.48493475
v -0.33977541 -0.22957365 0.48493475
v -0.30665314 -0.26666975 0.49498191
v -0.33697635 -0.23500323 0.48493475
v -0.33217129 -0.24277250 0.48493475
v -0.32773942 -0.24777342 0.48493475
v -0.09504385 -0.38499501 0.50079352
v -0.04503389 -0.39499685 0.50069505
v -0.04503389 -0.40051574 0.50030100
v -0.00500726 -0.40258753 0.50030100
v -0.00500726 -0.40758845 0.49764147
v 0.00497607 -0.41060686 0.49261788
v 0.11497932 -0.39381808 0.48493475
v 0.12496265 -0.39176410 0.48493475
v 0.13046747 -0.39024597 0.48493475
v 0.13634551 -0.38724542 0.48493475
v 0.13634551 -0.38708469 0.48582128
v 0.01094741 -0.41014248 0.49074635
v 0.13634551 -0.37499318 -0.50520450
v 0.13499263 -0.37499318 -0.50540155
v 0.12496265 -0.37499318 -0.50550002
v -0.32498702 -0.22875208 -0.50540155
v -0.29499036 -0.25500691 -0.50550002
v -0.13497716 -0.37499318 0.50069505
v -0.25165153 -0.32164413 0.49498191
v -0.24661320 -0.32664502 0.49498191
v -0.24162152 -0.33130661 0.49498191
v -0.22282115 -0.34139773 0.49498191
v -0.13031206 -0.39015669 0.49074635
v -0.14463395 -0.38138720 0.49429241
v -0.12032873 -0.39006737 0.50000548
v -0.11496386 -0.39029956 0.50020254
v -0.11496386 -0.38499501 0.50059652
v -0.27665651 -0.29667524 0.49498191
v -0.25664318 -0.31666106 0.49498191
v -0.34014863 -0.22875208 -0.48658770
v -0.33977541 -0.22957365 -0.48491317
v -0.31276444 -0.26277617 0.48493475
v -0.33697635 -0.23500323 -0.48491317
v -0.33217129 -0.24277250 -0.49496034
v -0.32773942 -0.24777342 -0.49496034
v -0.05296457 -0.40024781 0.50010401
v -0.05963568 -0.39969414 0.49980849
v -0.00500726 -0.41060686 0.49261788
v 0.00497607 -0.41121411 0.48493475
v 0.10499599 -0.39540765 0.48493475
v 0.11497932 -0.39381808 -0.49496034
v 0.12496265 -0.39176410 -0.49496034
v 0.13046747 -0.39024597 -0.49496034
v 0.13634551 -0.38724542 -0.49496034
v 0.01141392 -0.41021395 0.48493475
v 0.01640558 -0.40942806 0.48493475
v 0.02498939 -0.40807068 0.48493475
v 0.13634551 -0.38433418 -0.50205243
v 0.13419956 -0.38506645 -0.50224948
v 0.12496265 -0.38499501 -0.50382549
v 0.11497932 -0.38499501 -0.50490904
v 0.10499599 -0.38499501 -0.50530303
v 0.09496600 -0.38499501 -0.50550002
v -0.23499709 -0.32498401 -0.50520450
v -0.26499373 -0.29501423 -0.50520450
v -0.32498702 -0.23500323 -0.50520450
v -0.33235788 -0.22875208 -0.50382549
v -0.26499373 -0.28501239 -0.50550002
v -0.23499709 -0.31500003 -0.50550002
v -0.22496709 -0.32498401 -0.50550002
v -0.25776282 -0.31778628 0.48493475
v -0.24773282 -0.32775238 0.48493475
v -0.24274117 -0.33219963 0.48493475
v -0.23499709 -0.33698621 0.48493475
v -0.17005879 -0.37002799 0.49015534
v -0.15018542 -0.38010126 0.49045083
v -0.12420077 -0.39074606 0.49448940
v -0.13049866 -0.39024597 0.48493475
v -0.12499384 -0.39176410 0.48493475
v -0.11496386 -0.39381808 0.48493475
v -0.11496386 -0.39221063 0.49498191
v -0.07204486 -0.40030140 0.49153435
v -0.06500055 -0.40085506 0.49360290
v -0.28276777 -0.29278168 0.48493475
v -0.34010196 -0.22875208 -0.49496034
v -0.33692968 -0.23500323 -0.49496034
v -0.31276444 -0.26277617 -0.49496034
v -0.33147150 -0.24186163 -0.50146145
v -0.32181475 -0.25186345 -0.50146145
v -0.01097860 -0.41014248 0.49074635
v -0.00500726 -0.41121411 0.48493475
v 0.00497607 -0.41121411 -0.49496034
v 0.10499599 -0.39540765 -0.48491317
v 0.05498602 -0.40331981 -0.49496034
v 0.01094741 -0.41014248 -0.50018096
v 0.07196701 -0.40030140 -0.50047648
v 0.13032752 -0.39015669 -0.50018096
v 0.01141392 -0.41021395 -0.49496034
v 0.01640558 -0.40942806 -0.48491317
v 0.02498939 -0.40807068 -0.48491317
v 0.12496265 -0.39087111 -0.50106746
v 0.11497932 -0.39190701 -0.50215095
v 0.04495605 -0.39499685 -0.50520450
v 0.10499599 -0.39263928 -0.50254500
v 0.04495605 -0.40242678 -0.50254500
v 0.05498602 -0.39499685 -0.50471199
v 0.03497272 -0.39499685 -0.50550002
v -0.21498376 -0.33498585 -0.50530303
v -0.16497381 -0.36499134 -0.50402248
v -0.21498376 -0.34355885 -0.50254500
v -0.23499709 -0.33343199 -0.50244647
v -0.24507371 -0.32509118 -0.50284046
v -0.25510371 -0.31512505 -0.50284046
v -0.31509697 -0.25511405 -0.50284046
v -0.32508031 -0.24511221 -0.50284046
v -0.33343086 -0.23500323 -0.50244647
v -0.33506364 -0.22875208 -0.50293899
v -0.18498713 -0.34498769 -0.50550002
v -0.13497716 -0.37499318 -0.50540155
v -0.25776282 -0.31778628 -0.49496034
v -0.24773282 -0.32775238 -0.49496034
v -0.24274117 -0.33219963 -0.49496034
v -0.22454724 -0.34232649 0.48493475
v -0.23499709 -0.33698621 -0.48491317
v -0.21498376 -0.34720236 0.48493475
v -0.13049866 -0.39024597 -0.49496034
v -0.12499384 -0.39176410 -0.49496034
v -0.10498053 -0.39540765 0.48493475
v -0.11496386 -0.39381808 -0.49496034
v -0.28276777 -0.29278168 -0.49496034
v -0.33991536 -0.22875208 -0.49574834
v -0.28183475 -0.29185295 -0.50146145
v -0.04503389 -0.40490937 0.48493475
v -0.01648343 -0.40942806 0.48493475
v -0.01144511 -0.41021395 0.48493475
v -0.00500726 -0.41121411 -0.49496034
v 0.00497607 -0.41060686 -0.50087047
v 0.06496935 -0.40085506 -0.50116599
v 0.05498602 -0.40165877 -0.50195396
v 0.00497607 -0.40499869 -0.50362849
v -0.03500391 -0.39499685 -0.50550002
v -0.14496049 -0.37499318 -0.50412101
v -0.19497046 -0.35368571 -0.50254500
v -0.13418409 -0.38506645 -0.50224948
v -0.20313439 -0.35161391 -0.50155997
v -0.22300775 -0.34154063 -0.50155997
v -0.24180815 -0.33146733 -0.50146145
v -0.25183812 -0.32184058 -0.50146145
v -0.12499384 -0.37499318 -0.50550002
v -0.10498053 -0.38499501 -0.50530303
v -0.11496386 -0.38499501 -0.50490904
v -0.12499384 -0.38499501 -0.50382549
v -0.09504385 -0.38499501 -0.50550002
v -0.23499709 -0.33693263 -0.49496034
v -0.22454724 -0.34232649 -0.49496034
v -0.21498376 -0.34720236 -0.48491317
v -0.18494047 -0.36250874 -0.49496034
v -0.17005879 -0.37002799 -0.49998394
v -0.15018542 -0.38010126 -0.50008243
v -0.13031206 -0.39015669 -0.50018096
v -0.10498053 -0.39540765 -0.48491317
v -0.07204486 -0.40030140 -0.50047648
v -0.01097860 -0.41014248 -0.50018096
v -0.05501722 -0.40331981 -0.49496034
v -0.04503389 -0.40490937 -0.48491317
v -0.01648343 -0.40942806 -0.48491317
v -0.01144511 -0.41021395 -0.49496034
v -0.00500726 -0.41060686 -0.50087047
v -0.00500726 -0.40499869 -0.50362849
v -0.04503389 -0.39499685 -0.50520450
v -0.12499384 -0.39087111 -0.50106746
v -0.14496049 -0.38142294 -0.50136292
v -0.18326104 -0.36166930 -0.50155997
v -0.05501722 -0.39499685 -0.50471199
v -0.04503389 -0.40242678 -0.50254500
v -0.10498053 -0.39263928 -0.50254500
v -0.11496386 -0.39190701 -0.50215095
v -0.06500055 -0.40085506 -0.50116599
v -0.05501722 -0.40165877 -0.50195396
f 1 2 8
f 1 8 17
f 1 17 31
f 1 31 52
f 1 52 55
f 1 55 54
f 1 54 70
f 1 70 39
f 1 39 24
f 1 24 10
f 1 10 3
f 1 3 4
f 1 4 13
f 1 13 29
f 1 29 49
f 1 49 80
f 1 80 79
f 1 79 113
f 1 113 117
f 1 117 82
f 1 82 50
f 1 50 30
f 1 30 15
f 1 15 5
f 1 5 6
f 1 6 7
f 1 7 2
f 2 7 9
f 2 9 8
f 3 10 4
f 4 10 11
f 4 11 12
f 4 12 13
f 5 14 6
f 5 15 14
f 6 14 15
f 6 15 30
f 6 30 51
f 6 51 85
f 6 85 126
f 6 126 176
f 6 176 190
f 6 190 144
f 6 144 99
f 6 99 64
f 6 64 34
f 6 34 19
f 6 19 16
f 6 16 7
f 7 16 9
f 8 9 18
f 8 18 17
f 9 16 19
f 9 19 20
f 9 20 21
f 9 21 22
f 9 22 23
f 9 23 33
f 9 33 18
f 10 24 11
f 11 24 25
f 11 25 12
f 12 25 26
f 12 26 27
f 12 27 13
f 13 27 28
f 13 28 29
f 17 18 31
f 18 32 31
f 18 33 32
f 19 21 20
f 19 34 21
f 21 35 22
f 21 34 36
f 21 36 37
f 21 37 35
f 22 35 23
f 23 35 38
f 23 38 62
f 23 62 33
f 24 39 73
f 24 73 40
f 24 40 26
f 24 26 25
f 26 40 41
f 26 41 42
f 26 42 27
f 27 42 28
f 28 43 44
f 28 44 45
f 28 45 29
f 28 42 46
f 28 46 47
f 28 47 48
f 28 48 43
f 29 45 49
f 30 50 84
f 30 84 122
f 30 122 166
f 30 166 200
f 30 200 212
f 30 212 208
f 30 208 177
f 30 177 129
f 30 129 128
f 30 128 127
f 30 127 86
f 30 86 51
f 31 32 52
f 32 53 54
f 32 54 55
f 32 55 52
f 32 33 56
f 32 56 57
f 32 57 58
f 32 58 59
f 32 59 60
f 32 60 61
f 32 61 53
f 33 62 63
f 33 63 56
f 34 64 65
f 34 65 36
f 35 37 66
f 35 66 38
f 36 65 67
f 36 67 68
f 36 68 69
f 36 69 37
f 37 69 101
f 37 101 66
f 38 66 97
f 38 97 62
f 39 70 71
f 39 71 72
f 39 72 73
f 40 73 74
f 40 74 41
f 41 46 42
f 41 74 107
f 41 107 75
f 41 75 46
f 43 48 44
f 44 48 76
f 44 76 45
f 45 76 77
f 45 77 78
f 45 78 79
f 45 79 80
f 45 80 49
f 46 75 47
f 47 75 48
f 48 81 76
f 48 75 81
f 50 82 83
f 50 83 84
f 51 86 85
f 53 87 54
f 53 61 87
f 54 87 70
f 56 63 57
f 57 59 58
f 57 63 88
f 57 88 89
f 57 89 90
f 57 90 91
f 57 91 59
f 59 91 92
f 59 92 93
f 59 93 60
f 60 93 61
f 61 94 95
f 61 95 96
f 61 96 87
f 61 93 92
f 61 92 94
f 62 97 98
f 62 98 63
f 63 98 88
f 64 99 100
f 64 100 65
f 65 100 102
f 65 102 67
f 66 101 143
f 66 143 97
f 67 102 103
f 67 103 68
f 68 103 104
f 68 104 69
f 69 104 146
f 69 146 101
f 70 87 96
f 70 96 71
f 71 96 72
f 72 96 95
f 72 95 105
f 72 105 74
f 72 74 73
f 74 105 106
f 74 106 107
f 75 107 150
f 75 150 108
f 75 108 81
f 76 81 109
f 76 109 152
f 76 152 110
f 76 110 111
f 76 111 77
f 77 111 112
f 77 112 78
f 78 112 113
f 78 113 79
f 81 108 114
f 81 114 115
f 81 115 116
f 81 116 109
f 82 117 118
f 82 118 119
f 82 119 83
f 83 119 120
f 83 120 121
f 83 121 122
f 83 122 84
f 85 123 124
f 85 124 125
f 85 125 126
f 85 86 127
f 85 127 128
f 85 128 129
f 85 129 123
f 88 98 130
f 88 130 131
f 88 131 89
f 89 131 90
f 90 131 132
f 90 132 133
f 90 133 91
f 91 133 134
f 91 134 135
f 91 135 92
f 92 136 94
f 92 135 137
f 92 137 138
f 92 138 139
f 92 139 136
f 94 106 105
f 94 105 95
f 94 136 140
f 94 140 141
f 94 141 142
f 94 142 106
f 97 143 130
f 97 130 98
f 99 144 100
f 100 144 145
f 100 145 102
f 101 146 189
f 101 189 143
f 102 145 103
f 103 145 147
f 103 147 104
f 104 147 148
f 104 148 146
f 106 142 107
f 107 142 141
f 107 141 149
f 107 149 150
f 108 150 195
f 108 195 151
f 108 151 157
f 108 157 114
f 109 116 159
f 109 159 152
f 110 152 153
f 110 153 154
f 110 154 155
f 110 155 156
f 110 156 111
f 111 156 112
f 112 156 113
f 113 156 117
f 114 157 158
f 114 158 115
f 115 158 159
f 115 159 116
f 117 156 118
f 118 156 160
f 118 160 119
f 119 160 161
f 119 161 120
f 120 162 121
f 120 161 163
f 120 163 164
f 120 164 165
f 120 165 162
f 121 162 166
f 121 166 122
f 123 129 167
f 123 167 201
f 123 201 168
f 123 168 169
f 123 169 170
f 123 170 171
f 123 171 172
f 123 172 124
f 124 172 173
f 124 173 125
f 125 173 174
f 125 174 175
f 125 175 126
f 126 175 176
f 129 177 178
f 129 178 167
f 130 143 189
f 130 189 179
f 130 179 180
f 130 180 131
f 131 180 181
f 131 181 132
f 132 181 183
f 132 183 133
f 133 182 134
f 133 183 214
f 133 214 182
f 134 182 184
f 134 184 137
f 134 137 135
f 136 139 141
f 136 141 140
f 137 184 215
f 137 215 185
f 137 185 186
f 137 186 138
f 138 186 188
f 138 188 139
f 139 187 149
f 139 149 141
f 139 188 220
f 139 220 187
f 144 190 145
f 145 190 147
f 146 148 189
f 147 175 174
f 147 174 148
f 147 190 175
f 148 174 173
f 148 173 172
f 148 172 191
f 148 191 189
f 149 192 193
f 149 193 194
f 149 194 150
f 149 187 192
f 150 194 226
f 150 226 195
f 151 195 227
f 151 227 196
f 151 196 154
f 151 154 157
f 152 159 153
f 153 159 157
f 153 157 154
f 154 196 155
f 155 196 197
f 155 197 161
f 155 161 160
f 155 160 156
f 157 159 158
f 161 197 198
f 161 198 164
f 161 164 163
f 162 165 199
f 162 199 166
f 164 199 165
f 164 198 196
f 164 196 199
f 166 199 228
f 166 228 200
f 167 178 201
f 168 201 169
f 169 201 202
f 169 202 203
f 169 203 204
f 169 204 205
f 169 205 170
f 170 205 206
f 170 206 171
f 171 206 207
f 171 207 172
f 172 207 191
f 175 190 176
f 177 208 178
f 178 209 210
f 178 210 211
f 178 211 201
f 178 208 212
f 178 212 209
f 179 189 191
f 179 191 207
f 179 207 180
f 180 207 206
f 180 206 181
f 181 206 213
f 181 213 183
f 182 214 215
f 182 215 184
f 183 213 214
f 185 215 216
f 185 216 217
f 185 217 218
f 185 218 219
f 185 219 186
f 186 219 188
f 187 220 224
f 187 224 192
f 188 219 221
f 188 221 222
f 188 222 223
f 188 223 224
f 188 224 220
f 192 224 225
f 192 225 193
f 193 225 226
f 193 226 194
f 195 226 222
f 195 222 227
f 196 227 228
f 196 228 199
f 196 198 197
f 200 228 229
f 200 229 209
f 200 209 212
f 201 211 203
f 201 203 202
f 203 230 219
f 203 219 231
f 203 231 232
f 203 232 204
f 203 211 230
f 204 232 231
f 204 231 205
f 205 231 219
f 205 219 218
f 205 218 217
f 205 217 213
f 205 213 206
f 209 229 210
f 210 229 233
f 210 233 234
f 210 234 235
f 210 235 236
f 210 236 211
f 211 236 230
f 213 217 214
f 214 217 216
f 214 216 215
f 219 230 221
f 221 227 222
f 221 230 236
f 221 236 237
f 221 237 227
f 222 226 223
f 223 226 225
f 223 225 224
f 227 237 238
f 227 238 234
f 227 234 228
f 228 234 233
f 228 233 229
f 234 238 236
f 234 236 235
f 236 238 237

