# https://github.com/mikedh/trimesh
v 0.38805556 0.13481927 0.48493475
v 0.34232154 0.22458807 0.48493475
v 0.36997467 0.17009911 0.49015534
v 0.38007870 0.15021363 0.49045083
v 0.38577646 0.13481927 0.49439090
v 0.38805556 0.13481927 -0.49496034
v 0.33973855 0.22959326 0.48493475
v 0.34232154 0.22458807 -0.49496034
v 0.33692765 0.23500428 0.48493475
v 0.34133393 0.22285655 0.49498191
v 0.38137019 0.14466733 0.49429241
v 0.35143796 0.20302516 0.49498191
v 0.38038257 0.14109606 0.50020254
v 0.38228184 0.13481927 0.49902052
v 0.38797960 0.13481927 -0.49564984
v 0.38007870 0.15021363 -0.50008243
v 0.36997467 0.17009911 -0.49998394
v 0.33973855 0.22959326 -0.48491317
v 0.33692765 0.23500428 -0.49496034
v 0.33214152 0.24276909 0.48493475
v 0.33130586 0.24165983 0.49498191
v 0.33024228 0.24038824 0.50010401
v 0.34027034 0.22077331 0.50020254
v 0.37035453 0.16103566 0.50020254
v 0.32492438 0.23500428 0.50069505
v 0.34498048 0.19501686 0.50069505
v 0.37498870 0.13500866 0.50069505
v 0.38121825 0.13500866 0.50030100
v 0.38121825 0.13481927 0.50030100
v 0.38486481 0.13481927 -0.50215095
v 0.38137019 0.14501904 -0.50136292
v 0.35158989 0.20318750 -0.50155997
v 0.34148586 0.22304593 -0.50155997
v 0.33145779 0.24184923 -0.50146145
v 0.33214152 0.24276909 -0.49496034
v 0.32773528 0.24777429 0.48493475
v 0.32659572 0.24666503 0.49498191
v 0.31033811 0.26038197 0.50010401
v 0.31421256 0.25424045 0.50030100
v 0.32416466 0.24423008 0.50030100
v 0.33085003 0.23500428 0.50030100
v 0.32165766 0.25167021 0.49498191
v 0.31497228 0.24501467 0.50069505
v 0.32492438 0.22502096 0.50079352
v 0.34498048 0.18500647 0.50079352
v 0.37498870 0.13481927 0.50069505
v 0.36496064 0.14501904 0.50079352
v 0.38448498 0.13481927 -0.50234795
v 0.34353706 0.21501057 -0.50254500
v 0.33343303 0.23500428 -0.50244647
v 0.32507631 0.24512289 -0.50284046
v 0.32180959 0.25185961 -0.50146145
v 0.32773528 0.24777429 -0.49496034
v 0.31276914 0.26278988 0.48493475
v 0.26034972 0.31035271 0.50010401
v 0.25419614 0.31419456 0.50030100
v 0.23497570 0.32498953 0.50069505
v 0.29499212 0.26500839 0.50069505
v 0.26665527 0.30664617 0.49498191
v 0.29499212 0.25502506 0.50079352
v 0.31497228 0.23500428 0.50079352
v 0.36496064 0.13500866 0.50079352
v -0.36511257 0.13481927 0.50079352
v 0.35364109 0.19501686 -0.50254500
v 0.37498870 0.13481927 -0.50540155
v 0.37498870 0.13500866 -0.50540155
v 0.37498870 0.14501904 -0.50412101
v 0.36496064 0.16501275 -0.50402248
v 0.32492438 0.23500428 -0.50520450
v 0.30509615 0.26511660 -0.50284046
v 0.31497228 0.24501467 -0.50520450
v 0.30182943 0.27185333 -0.50146145
v 0.31276914 0.26278988 -0.49496034
v 0.25776675 0.31776583 0.48493475
v 0.25032166 0.32036310 0.50010401
v 0.24416809 0.32420492 0.50030100
v 0.21499555 0.33499992 0.50069505
v 0.22494763 0.32498953 0.50079352
v 0.23497570 0.31497914 0.50079352
v 0.24029361 0.33026528 0.50010401
v 0.23497570 0.33088753 0.50030100
v 0.22069331 0.34030271 0.50020254
v 0.20078912 0.35034016 0.50020254
v 0.16098076 0.37038797 0.50020254
v 0.14107658 0.38039836 0.50020254
v 0.25662720 0.31665656 0.49498191
v -0.36496064 0.14501904 0.50079352
v -0.37514064 0.13481927 0.50069505
v 0.36511257 0.13481927 -0.50550002
v 0.36496064 0.14501904 -0.50550002
v 0.34498048 0.18500647 -0.50550002
v 0.32492438 0.22502096 -0.50550002
v 0.33495241 0.21501057 -0.50530303
v 0.24507973 0.32509774 -0.50284046
v 0.25184107 0.32182407 -0.50146145
v 0.29499212 0.26500839 -0.50520450
v 0.31497228 0.23500428 -0.50550002
v 0.29499212 0.25502506 -0.50550002
v 0.25776675 0.31776583 -0.49496034
v 0.24773869 0.32774913 0.48493475
v 0.24659914 0.32663989 0.49498191
v 0.13499898 0.37498733 0.50069505
v 0.20496748 0.33499992 0.50079352
v 0.24158511 0.33129337 0.49498191
v 0.22282048 0.34138492 0.49498191
v 0.13028882 0.39016524 0.49074635
v 0.14464718 0.38137233 0.49429241
v 0.12033673 0.39005703 0.50000548
v 0.11494285 0.39030051 0.50020254
v 0.11494285 0.38499773 0.50059652
v -0.34498048 0.18500647 0.50079352
v -0.34498048 0.19501686 0.50069505
v -0.38038257 0.14109606 0.50020254
v -0.38137019 0.13481927 0.50030100
v -0.36496064 0.13481927 -0.50550002
v 0.23497570 0.33343071 -0.50244647
v 0.24181302 0.33145571 -0.50146145
v 0.23497570 0.32498953 -0.50520450
v 0.24773869 0.32774913 -0.49496034
v 0.23497570 0.31497914 -0.50550002
v 0.24272466 0.33218619 0.48493475
v 0.10499076 0.38499773 0.50069505
v 0.12497091 0.37498733 0.50079352
v 0.23497570 0.33697492 0.48493475
v 0.17002121 0.37003624 0.49015534
v 0.15019301 0.38010076 0.49045083
v 0.12421121 0.39073342 0.49448940
v 0.13044076 0.39024642 0.48493475
v 0.12497091 0.39176148 0.48493475
v 0.11494285 0.39381769 0.48493475
v 0.05956060 0.39968866 0.49980849
v 0.05287523 0.40025681 0.50010401
v 0.11494285 0.39219439 0.49498191
v 0.07194374 0.40031090 0.49153435
v 0.06495448 0.40085202 0.49360290
v 0.04497433 0.40050030 0.50030100
v 0.04497433 0.39498106 0.50069505
v -0.32492438 0.22502096 0.50079352
v -0.32492438 0.23500428 0.50069505
v -0.37035453 0.16103566 0.50020254
v -0.38137019 0.14466733 0.49429241
v -0.38554856 0.13481927 0.49498191
v -0.36496064 0.14501904 -0.50550002
v -0.37498870 0.13481927 -0.50540155
v 0.21499555 0.34354931 -0.50254500
v 0.22297241 0.34154725 -0.50155997
v 0.23497570 0.33692083 -0.49496034
v 0.24272466 0.33218619 -0.49496034
v 0.21499555 0.33499992 -0.50530303
v 0.16493121 0.36497694 -0.50402248
v 0.22494763 0.32498953 -0.50550002
v 0.09496269 0.38499773 0.50079352
v 0.21499555 0.34720176 0.48493475
v 0.23497570 0.33697492 -0.48491317
v 0.15528300 0.37761170 0.48493475
v 0.13545479 0.38770324 0.48493475
v 0.13044076 0.39024642 -0.49496034
v 0.12497091 0.39176148 -0.49496034
v 0.07300732 0.40047324 0.48493475
v 0.01093970 0.41013190 0.49074635
v 0.11494285 0.39381769 -0.49496034
v 0.00493806 0.40758872 0.49764147
v 0.00493806 0.41059184 0.49261788
v 0.00493806 0.40258354 0.50030100
v 0.03494627 0.39498106 0.50079352
v -0.31497228 0.23500428 0.50079352
v -0.31497228 0.24501467 0.50069505
v -0.32416466 0.24423008 0.50030100
v -0.33024228 0.24038824 0.50010401
v -0.33085003 0.23500428 0.50030100
v -0.34027034 0.22077331 0.50020254
v -0.35143796 0.20302516 0.49498191
v -0.38007870 0.15021363 0.49045083
v -0.38577646 0.13481927 0.49439090
v -0.34498048 0.18500647 -0.50550002
v -0.37498870 0.13500866 -0.50540155
v -0.38486481 0.13481927 -0.50215095
v 0.13416331 0.38507891 -0.50224948
v 0.20314421 0.35161173 -0.50155997
v 0.14495106 0.37498733 -0.50412101
v 0.14495106 0.38142645 -0.50136292
v 0.13028882 0.39016524 -0.50018096
v 0.15019301 0.38010076 -0.50008243
v 0.17002121 0.37003624 -0.49998394
v 0.22449182 0.34230480 -0.49496034
v 0.13499898 0.37498733 -0.50540155
v 0.20496748 0.33499992 -0.50550002
v 0.21499555 0.34720176 -0.48491317
v 0.15528300 0.37761170 -0.49496034
v 0.13545479 0.38770324 -0.49496034
v 0.02499418 0.40807572 0.48493475
v 0.07300732 0.40047324 -0.49496034
v 0.01640955 0.40942848 0.48493475
v 0.01139552 0.41021305 0.48493475
v 0.00493806 0.41121411 0.48493475
v 0.07194374 0.40031090 -0.50047648
v 0.01093970 0.41013190 -0.50018096
v -0.00493806 0.40758872 0.49764147
v -0.00493806 0.41059184 0.49261788
v -0.00493806 0.40258354 0.50030100
v -0.03494627 0.39498106 0.50079352
v -0.29499212 0.25502506 0.50079352
v -0.29499212 0.26500839 0.50069505
v -0.31421256 0.25424045 0.50030100
v -0.31033811 0.26038197 0.50010401
v -0.32165766 0.25167021 0.49498191
v -0.32659572 0.24666503 0.49498191
v -0.33130586 0.24165983 0.49498191
v -0.34133393 0.22285655 0.49498191
v -0.36997467 0.17009911 0.49015534
v -0.38805556 0.13481927 0.48493475
v -0.38797960 0.13481927 0.48572275
v -0.32492438 0.22502096 -0.50550002
v -0.37498870 0.14501904 -0.50412101
v -0.33495241 0.21501057 -0.50530303
v -0.38805556 0.13481927 -0.49496034
v -0.38007870 0.15021363 -0.50008243
v -0.38137019 0.14501904 -0.50136292
v -0.35158989 0.20318750 -0.50155997
v -0.35364109 0.19501686 -0.50254500
v 0.12497091 0.39086866 -0.50106746
v 0.18324003 0.36167622 -0.50155997
v 0.12497091 0.38499773 -0.50382549
v 0.18491137 0.36251494 -0.49496034
v 0.20473957 0.35239634 -0.49496034
v 0.10499076 0.38499773 -0.50530303
v 0.11494285 0.38499773 -0.50490904
v 0.12497091 0.37498733 -0.50550002
v 0.09496269 0.38499773 -0.50550002
v 0.02499418 0.40807572 -0.48491317
v 0.01139552 0.41021305 -0.49496034
v 0.01640955 0.40942848 -0.48491317
v -0.00493806 0.41121411 0.48493475
v 0.00493806 0.41121411 -0.49496034
v 0.11494285 0.39189678 -0.50215095
v 0.06495448 0.40085202 -0.50116599
v 0.00493806 0.41059184 -0.50087047
v -0.05956060 0.39968866 0.49980849
v -0.05287523 0.40025681 0.50010401
v -0.04497433 0.40050030 0.50030100
v -0.01093970 0.41013190 0.49074635
v -0.07194374 0.40031090 0.49153435
v -0.06495448 0.40085202 0.49360290
v -0.04497433 0.39498106 0.50069505
v -0.09496269 0.38499773 0.50079352
v -0.23497570 0.31497914 0.50079352
v -0.23497570 0.32498953 0.50069505
v -0.25419614 0.31419456 0.50030100
v -0.26034972 0.31035271 0.50010401
v -0.26665527 0.30664617 0.49498191
v -0.31276914 0.26278988 0.48493475
v -0.32773528 0.24777429 0.48493475
v -0.33214152 0.24276909 0.48493475
v -0.33692765 0.23500428 0.48493475
v -0.33973855 0.22959326 0.48493475
v -0.34232154 0.22458807 0.48493475
v -0.31497228 0.23500428 -0.50550002
v -0.32492438 0.23500428 -0.50520450
v -0.31497228 0.24501467 -0.50520450
v -0.36496064 0.16501275 -0.50402248
v -0.34353706 0.21501057 -0.50254500
v -0.34232154 0.22458807 -0.49496034
v -0.36997467 0.17009911 -0.49998394
v -0.34148586 0.22304593 -0.50155997
v 0.04497433 0.39498106 -0.50520450
v 0.03494627 0.39498106 -0.50550002
v 0.05492643 0.39498106 -0.50471199
v 0.04497433 0.40242121 -0.50254500
v 0.10499076 0.39262727 -0.50254500
v -0.01139552 0.41021305 0.48493475
v -0.00493806 0.41121411 -0.49496034
v 0.05492643 0.40166366 -0.50195396
v -0.00493806 0.41059184 -0.50087047
v 0.00493806 0.40499145 -0.50362849
v -0.12033673 0.39005703 0.50000548
v -0.11494285 0.39030051 0.50020254
v -0.11494285 0.38499773 0.50059652
v -0.01640955 0.40942848 0.48493475
v -0.02499418 0.40807572 0.48493475
v -0.07300732 0.40047324 0.48493475
v -0.11494285 0.39381769 0.48493475
v -0.12421121 0.39073342 0.49448940
v -0.11494285 0.39219439 0.49498191
v -0.10499076 0.38499773 0.50069505
v -0.12497091 0.37498733 0.50079352
v -0.22494763 0.32498953 0.50079352
v -0.21499555 0.33499992 0.50069505
v -0.14107658 0.38039836 0.50020254
v -0.16098076 0.37038797 0.50020254
v -0.20078912 0.35034016 0.50020254
v -0.22069331 0.34030271 0.50020254
v -0.23497570 0.33088753 0.50030100
v -0.24029361 0.33026528 0.50010401
v -0.24416809 0.32420492 0.50030100
v -0.25032166 0.32036310 0.50010401
v -0.25662720 0.31665656 0.49498191
v -0.25776675 0.31776583 0.48493475
v -0.31276914 0.26278988 -0.49496034
v -0.32773528 0.24777429 -0.49496034
v -0.33214152 0.24276909 -0.49496034
v -0.33692765 0.23500428 -0.49496034
v -0.33973855 0.22959326 -0.48491317
v -0.29499212 0.25502506 -0.50550002
v -0.33343303 0.23500428 -0.50244647
v -0.32507631 0.24512289 -0.50284046
v -0.29499212 0.26500839 -0.50520450
v -0.33145779 0.24184923 -0.50146145
v -0.03494627 0.39498106 -0.50550002
v -0.01139552 0.41021305 -0.49496034
v -0.01093970 0.41013190 -0.50018096
v -0.04497433 0.40242121 -0.50254500
v -0.05492643 0.40166366 -0.50195396
v -0.06495448 0.40085202 -0.50116599
v -0.07194374 0.40031090 -0.50047648
v -0.00493806 0.40499145 -0.50362849
v -0.13028882 0.39016524 0.49074635
v -0.13499898 0.37498733 0.50069505
v -0.01640955 0.40942848 -0.48491317
v -0.02499418 0.40807572 -0.48491317
v -0.07300732 0.40047324 -0.49496034
v -0.12497091 0.39176148 0.48493475
v -0.11494285 0.39381769 -0.49496034
v -0.20496748 0.33499992 0.50079352
v -0.14464718 0.38137233 0.49429241
v -0.22282048 0.34138492 0.49498191
v -0.24158511 0.33129337 0.49498191
v -0.24659914 0.32663989 0.49498191
v -0.24773869 0.32774913 0.48493475
v -0.25776675 0.31776583 -0.49496034
v -0.25184107 0.32182407 -0.50146145
v -0.30182943 0.27185333 -0.50146145
v -0.32180959 0.25185961 -0.50146145
v -0.23497570 0.31497914 -0.50550002
v -0.23497570 0.32498953 -0.50520450
v -0.30509615 0.26511660 -0.50284046
v -0.09496269 0.38499773 -0.50550002
v -0.10499076 0.38499773 -0.50530303
v -0.04497433 0.39498106 -0.50520450
v -0.10499076 0.39262727 -0.50254500
v -0.11494285 0.39189678 -0.50215095
v -0.05492643 0.39498106 -0.50471199
v -0.11494285 0.38499773 -0.50490904
v -0.12497091 0.39086866 -0.50106746
v -0.13028882 0.39016524 -0.50018096
v -0.15019301 0.38010076 0.49045083
v -0.13044076 0.39024642 0.48493475
v -0.12497091 0.39176148 -0.49496034
v -0.17002121 0.37003624 0.49015534
v -0.23497570 0.33697492 0.48493475
v -0.24272466 0.33218619 0.48493475
v -0.24773869 0.32774913 -0.49496034
v -0.24181302 0.33145571 -0.50146145
v -0.24507973 0.32509774 -0.50284046
v -0.22494763 0.32498953 -0.50550002
v -0.16493121 0.36497694 -0.50402248
v -0.21499555 0.33499992 -0.50530303
v -0.23497570 0.33343071 -0.50244647
v -0.21499555 0.34354931 -0.50254500
v -0.12497091 0.37498733 -0.50550002
v -0.13499898 0.37498733 -0.50540155
v -0.12497091 0.38499773 -0.50382549
v -0.13416331 0.38507891 -0.50224948
v -0.14495106 0.38142645 -0.50136292
v -0.22297241 0.34154725 -0.50155997
v -0.15019301 0.38010076 -0.50008243
v -0.13044076 0.39024642 -0.49496034
v -0.13545479 0.38770324 0.48493475
v -0.15528300 0.37761170 0.48493475
v -0.21499555 0.34720176 0.48493475
v -0.23497570 0.33697492 -0.48491317
v -0.24272466 0.33218619 -0.49496034
v -0.23497570 0.33692083 -0.49496034
v -0.20496748 0.33499992 -0.50550002
v -0.14495106 0.37498733 -0.50412101
v -0.20314421 0.35161173 -0.50155997
v -0.18324003 0.36167622 -0.50155997
v -0.17002121 0.37003624 -0.49998394
v -0.13545479 0.38770324 -0.49496034
v -0.15528300 0.37761170 -0.49496034
v -0.21499555 0.34720176 -0.48491317
v -0.22449182 0.34230480 -0.49496034
v -0.20473957 0.35239634 -0.49496034
v -0.18491137 0.36251494 -0.49496034
f 1 2 3
f 1 3 4
f 1 4 5
f 1 5 14
f 1 14 29
f 1 29 46
f 1 46 63
f 1 63 88
f 1 88 114
f 1 114 142
f 1 142 174
f 1 174 212
f 1 212 211
f 1 211 216
f 1 216 177
f 1 177 144
f 1 144 115
f 1 115 89
f 1 89 65
f 1 65 48
f 1 48 30
f 1 30 15
f 1 15 6
f 1 6 8
f 1 8 2
f 2 7 3
f 2 8 18
f 2 18 7
f 3 7 9
f 3 9 10
f 3 10 4
f 4 11 5
f 4 10 12
f 4 12 11
f 5 11 13
f 5 13 14
f 6 15 16
f 6 16 17
f 6 17 8
f 7 18 19
f 7 19 9
f 8 17 19
f 8 19 18
f 9 20 21
f 9 21 10
f 9 19 35
f 9 35 20
f 10 21 22
f 10 22 23
f 10 23 12
f 11 12 23
f 11 23 24
f 11 24 13
f 13 24 25
f 13 25 26
f 13 26 27
f 13 27 28
f 13 28 14
f 14 28 29
f 15 30 16
f 16 30 31
f 16 31 32
f 16 32 33
f 16 33 17
f 17 33 19
f 19 33 34
f 19 34 35
f 20 36 21
f 20 35 53
f 20 53 36
f 21 36 37
f 21 37 22
f 22 38 39
f 22 39 40
f 22 40 25
f 22 25 41
f 22 41 23
f 22 37 42
f 22 42 38
f 23 41 25
f 23 25 24
f 25 40 39
f 25 39 43
f 25 43 44
f 25 44 26
f 26 44 45
f 26 45 27
f 27 46 29
f 27 29 28
f 27 45 47
f 27 47 62
f 27 62 46
f 30 48 31
f 31 48 32
f 32 48 49
f 32 49 33
f 33 49 50
f 33 50 34
f 34 50 51
f 34 51 52
f 34 52 53
f 34 53 35
f 36 54 42
f 36 42 37
f 36 53 73
f 36 73 54
f 38 42 55
f 38 55 39
f 39 55 56
f 39 56 57
f 39 57 58
f 39 58 43
f 42 54 74
f 42 74 59
f 42 59 55
f 43 58 60
f 43 60 61
f 43 61 44
f 44 61 60
f 44 60 79
f 44 79 78
f 44 78 103
f 44 103 123
f 44 123 152
f 44 152 165
f 44 165 201
f 44 201 245
f 44 245 285
f 44 285 323
f 44 323 286
f 44 286 246
f 44 246 202
f 44 202 166
f 44 166 138
f 44 138 111
f 44 111 87
f 44 87 63
f 44 63 62
f 44 62 47
f 44 47 45
f 46 62 63
f 48 64 49
f 48 65 66
f 48 66 67
f 48 67 64
f 49 64 67
f 49 67 68
f 49 68 69
f 49 69 50
f 50 69 51
f 51 70 72
f 51 72 52
f 51 69 71
f 51 71 96
f 51 96 70
f 52 72 73
f 52 73 53
f 54 73 99
f 54 99 74
f 55 59 86
f 55 86 75
f 55 75 76
f 55 76 56
f 56 76 57
f 57 77 103
f 57 103 78
f 57 78 79
f 57 79 60
f 57 60 58
f 57 76 80
f 57 80 81
f 57 81 82
f 57 82 83
f 57 83 84
f 57 84 85
f 57 85 77
f 59 74 86
f 63 87 88
f 65 89 66
f 66 89 90
f 66 90 91
f 66 91 92
f 66 92 93
f 66 93 67
f 67 93 69
f 67 69 68
f 69 93 92
f 69 92 71
f 70 94 95
f 70 95 72
f 70 96 118
f 70 118 94
f 71 92 97
f 71 97 98
f 71 98 96
f 72 95 73
f 73 95 99
f 74 100 101
f 74 101 86
f 74 99 119
f 74 119 100
f 75 80 76
f 75 86 101
f 75 101 80
f 77 102 123
f 77 123 103
f 77 85 102
f 80 82 81
f 80 101 104
f 80 104 105
f 80 105 82
f 82 105 106
f 82 106 107
f 82 107 83
f 83 107 84
f 84 107 85
f 85 108 109
f 85 109 110
f 85 110 102
f 85 107 106
f 85 106 108
f 87 111 88
f 88 111 112
f 88 112 113
f 88 113 114
f 89 115 143
f 89 143 175
f 89 175 213
f 89 213 257
f 89 257 303
f 89 303 333
f 89 333 354
f 89 354 373
f 89 373 359
f 89 359 336
f 89 336 308
f 89 308 266
f 89 266 229
f 89 229 228
f 89 228 187
f 89 187 151
f 89 151 120
f 89 120 98
f 89 98 97
f 89 97 92
f 89 92 91
f 89 91 90
f 94 116 117
f 94 117 95
f 94 118 116
f 95 117 119
f 95 119 99
f 96 98 118
f 98 120 118
f 100 121 104
f 100 104 101
f 100 119 148
f 100 148 121
f 102 110 122
f 102 122 152
f 102 152 123
f 104 121 124
f 104 124 105
f 105 124 125
f 105 125 126
f 105 126 106
f 106 127 108
f 106 126 128
f 106 128 129
f 106 129 130
f 106 130 127
f 108 131 132
f 108 132 109
f 108 127 133
f 108 133 134
f 108 134 135
f 108 135 131
f 109 132 136
f 109 136 110
f 110 136 137
f 110 137 122
f 111 138 112
f 112 138 139
f 112 139 113
f 113 139 140
f 113 140 141
f 113 141 142
f 113 142 114
f 115 144 176
f 115 176 143
f 116 145 146
f 116 146 117
f 116 118 145
f 117 146 147
f 117 147 148
f 117 148 119
f 118 149 180
f 118 180 150
f 118 150 145
f 118 120 151
f 118 151 149
f 121 148 154
f 121 154 124
f 122 137 165
f 122 165 152
f 124 153 125
f 124 154 188
f 124 188 153
f 125 153 155
f 125 155 156
f 125 156 126
f 126 156 128
f 127 130 134
f 127 134 133
f 128 156 190
f 128 190 157
f 128 157 158
f 128 158 129
f 129 158 161
f 129 161 130
f 130 159 160
f 130 160 134
f 130 161 192
f 130 192 159
f 131 162 132
f 131 135 163
f 131 163 162
f 132 162 136
f 134 160 163
f 134 163 135
f 136 164 165
f 136 165 137
f 136 162 164
f 138 166 167
f 138 167 139
f 139 167 204
f 139 204 168
f 139 168 169
f 139 169 170
f 139 170 171
f 139 171 140
f 140 171 141
f 141 172 173
f 141 173 174
f 141 174 142
f 141 171 172
f 143 176 175
f 144 177 176
f 145 178 179
f 145 179 146
f 145 150 180
f 145 180 178
f 146 179 181
f 146 181 182
f 146 182 183
f 146 183 184
f 146 184 147
f 147 184 185
f 147 185 154
f 147 154 148
f 149 186 180
f 149 151 186
f 151 187 186
f 153 188 189
f 153 189 155
f 154 185 188
f 155 189 190
f 155 190 156
f 157 190 183
f 157 183 182
f 157 182 158
f 158 182 161
f 159 191 160
f 159 192 230
f 159 230 191
f 160 191 193
f 160 193 194
f 160 194 195
f 160 195 163
f 161 182 196
f 161 196 197
f 161 197 192
f 162 198 200
f 162 200 164
f 162 163 199
f 162 199 198
f 163 195 233
f 163 233 199
f 164 200 201
f 164 201 165
f 166 202 167
f 167 202 203
f 167 203 204
f 168 204 169
f 169 171 170
f 169 204 205
f 169 205 206
f 169 206 207
f 169 207 208
f 169 208 209
f 169 209 171
f 171 209 172
f 172 209 173
f 173 210 211
f 173 211 212
f 173 212 174
f 173 209 210
f 175 176 213
f 176 177 214
f 176 214 215
f 176 215 213
f 177 216 217
f 177 217 218
f 177 218 219
f 177 219 220
f 177 220 214
f 178 221 182
f 178 182 181
f 178 181 222
f 178 222 179
f 178 180 223
f 178 223 221
f 179 222 181
f 180 186 223
f 182 221 196
f 183 190 184
f 184 190 189
f 184 189 224
f 184 224 225
f 184 225 185
f 185 225 188
f 186 226 227
f 186 227 223
f 186 187 228
f 186 228 229
f 186 229 226
f 188 225 224
f 188 224 189
f 191 230 232
f 191 232 193
f 192 197 231
f 192 231 230
f 193 232 231
f 193 231 194
f 194 231 234
f 194 234 195
f 195 234 271
f 195 271 233
f 196 221 235
f 196 235 236
f 196 236 237
f 196 237 197
f 197 237 234
f 197 234 231
f 198 238 239
f 198 239 240
f 198 240 200
f 198 199 238
f 199 233 241
f 199 241 242
f 199 242 243
f 199 243 238
f 200 240 201
f 201 240 244
f 201 244 284
f 201 284 245
f 202 246 247
f 202 247 203
f 203 247 204
f 204 247 248
f 204 248 249
f 204 249 205
f 205 249 206
f 206 249 250
f 206 250 297
f 206 297 251
f 206 251 252
f 206 252 207
f 207 252 208
f 208 252 253
f 208 253 254
f 208 254 209
f 209 254 210
f 210 254 255
f 210 255 256
f 210 256 211
f 211 256 262
f 211 262 216
f 213 215 258
f 213 258 259
f 213 259 257
f 214 260 258
f 214 258 215
f 214 220 261
f 214 261 260
f 216 262 263
f 216 263 217
f 217 263 264
f 217 264 219
f 217 219 218
f 219 264 261
f 219 261 220
f 221 223 235
f 223 227 235
f 226 265 227
f 226 229 266
f 226 266 265
f 227 265 267
f 227 267 268
f 227 268 269
f 227 269 235
f 230 231 232
f 233 270 241
f 233 271 309
f 233 309 270
f 234 237 273
f 234 273 271
f 235 269 268
f 235 268 272
f 235 272 236
f 236 272 237
f 237 272 268
f 237 268 274
f 237 274 315
f 237 315 273
f 238 275 239
f 238 243 275
f 239 275 276
f 239 276 240
f 240 277 244
f 240 276 277
f 241 270 278
f 241 278 279
f 241 279 280
f 241 280 281
f 241 281 242
f 242 282 283
f 242 283 275
f 242 275 243
f 242 281 282
f 244 277 284
f 245 284 317
f 245 317 285
f 246 286 247
f 247 286 323
f 247 323 287
f 247 287 288
f 247 288 289
f 247 289 290
f 247 290 291
f 247 291 292
f 247 292 293
f 247 293 294
f 247 294 248
f 248 294 295
f 248 295 249
f 249 295 296
f 249 296 250
f 250 296 297
f 251 297 329
f 251 329 298
f 251 298 299
f 251 299 252
f 252 299 300
f 252 300 253
f 253 300 301
f 253 301 254
f 254 301 302
f 254 302 255
f 255 302 262
f 255 262 256
f 257 259 303
f 258 260 261
f 258 261 304
f 258 304 305
f 258 305 259
f 259 305 335
f 259 335 306
f 259 306 303
f 261 264 304
f 262 302 301
f 262 301 263
f 263 301 264
f 264 301 307
f 264 307 304
f 265 274 267
f 265 266 274
f 266 308 315
f 266 315 274
f 267 274 268
f 270 309 318
f 270 318 278
f 271 273 310
f 271 310 309
f 273 311 312
f 273 312 313
f 273 313 314
f 273 314 310
f 273 315 311
f 275 288 276
f 275 283 282
f 275 282 316
f 275 316 288
f 276 288 277
f 277 317 284
f 277 288 317
f 278 318 319
f 278 319 279
f 279 319 320
f 279 320 280
f 280 320 322
f 280 322 281
f 281 321 316
f 281 316 282
f 281 322 347
f 281 347 321
f 285 317 287
f 285 287 323
f 287 317 288
f 288 316 324
f 288 324 289
f 289 324 290
f 290 324 291
f 291 293 292
f 291 324 316
f 291 316 325
f 291 325 293
f 293 295 294
f 293 325 326
f 293 326 327
f 293 327 295
f 295 327 296
f 296 327 328
f 296 328 297
f 297 328 351
f 297 351 329
f 298 329 330
f 298 330 331
f 298 331 332
f 298 332 299
f 299 332 307
f 299 307 300
f 300 307 301
f 303 306 334
f 303 334 333
f 304 307 305
f 305 307 332
f 305 332 331
f 305 331 335
f 306 335 353
f 306 353 334
f 308 336 337
f 308 337 338
f 308 338 315
f 309 310 320
f 309 320 319
f 309 319 318
f 310 314 322
f 310 322 320
f 311 339 340
f 311 340 312
f 311 315 341
f 311 341 342
f 311 342 339
f 312 340 313
f 313 340 314
f 314 340 343
f 314 343 344
f 314 344 322
f 315 338 341
f 316 345 325
f 316 321 346
f 316 346 345
f 321 347 366
f 321 366 346
f 322 344 347
f 325 345 348
f 325 348 349
f 325 349 326
f 326 349 350
f 326 350 328
f 326 328 327
f 328 350 371
f 328 371 351
f 329 351 330
f 330 352 353
f 330 353 335
f 330 335 331
f 330 351 352
f 333 334 354
f 334 355 374
f 334 374 356
f 334 356 354
f 334 353 357
f 334 357 358
f 334 358 355
f 336 359 360
f 336 360 337
f 337 360 342
f 337 342 338
f 338 342 341
f 339 342 340
f 340 342 361
f 340 361 343
f 342 360 361
f 343 361 362
f 343 362 344
f 344 362 363
f 344 363 364
f 344 364 365
f 344 365 366
f 344 366 347
f 345 346 367
f 345 367 348
f 346 366 378
f 346 378 367
f 348 367 368
f 348 368 369
f 348 369 349
f 349 369 380
f 349 380 370
f 349 370 371
f 349 371 350
f 351 371 352
f 352 364 357
f 352 357 353
f 352 371 372
f 352 372 364
f 354 356 360
f 354 360 373
f 355 358 374
f 356 374 360
f 357 364 358
f 358 364 375
f 358 375 362
f 358 362 374
f 359 373 360
f 360 374 361
f 361 374 362
f 362 375 376
f 362 376 363
f 363 376 375
f 363 375 364
f 364 372 377
f 364 377 365
f 365 377 378
f 365 378 366
f 367 378 379
f 367 379 368
f 368 379 380
f 368 380 369
f 370 380 381
f 370 381 372
f 370 372 371
f 372 381 377
f 377 381 382
f 377 382 383
f 377 383 379
f 377 379 378
f 379 383 380
f 380 383 382
f 380 382 381

