# https://github.com/mikedh/trimesh
v 0.13641904 -0.38725516 -0.49496034
v 0.13641904 -0.38434225 -0.50205243
v 0.15021932 -0.38010067 -0.50008243
v 0.17009923 -0.37003326 -0.49998394
v 0.20477477 -0.35240251 -0.49496034
v 0.21502410 -0.34718993 -0.48491317
v 0.13641904 -0.38725516 0.48493475
v 0.13641904 -0.37499028 -0.50520450
v 0.14500050 -0.37499028 -0.50412101
v 0.19500966 -0.35368007 -0.50254500
v 0.21502410 -0.34356159 -0.50254500
v 0.18330768 -0.36165226 -0.50155997
v 0.14500050 -0.38142934 -0.50136292
v 0.22306752 -0.34151745 -0.50155997
v 0.23501162 -0.33691812 -0.49496034
v 0.22457398 -0.34228399 -0.49496034
v 0.23501162 -0.33696920 -0.48491317
v 0.21502410 -0.34718993 0.48493475
v 0.17009923 -0.37003326 0.49015534
v 0.15021932 -0.38010067 0.49045083
v 0.13641904 -0.38705075 0.48582128
v 0.15500772 -0.36497399 -0.50530303
v 0.19500966 -0.34499246 -0.50530303
v 0.21502410 -0.33497617 -0.50530303
v 0.13641904 -0.36497399 -0.50550002
v 0.14500050 -0.36497399 -0.50550002
v 0.16501492 -0.36497399 -0.50402248
v 0.23501162 -0.33339196 -0.50244647
v 0.23501162 -0.32495987 -0.50520450
v 0.24187140 -0.33145005 -0.50146145
v 0.24278605 -0.33216548 -0.49496034
v 0.23501162 -0.33696920 0.48493475
v 0.22287922 -0.34136415 0.49498191
v 0.14467768 -0.38137823 0.49429241
v 0.13641904 -0.38505769 0.49439090
v 0.18500245 -0.34499246 -0.50550002
v 0.20501688 -0.33497617 -0.50550002
v 0.22500440 -0.32495987 -0.50550002
v 0.13641904 0.13481924 -0.50550002
v 0.24512644 -0.32506210 -0.50284046
v 0.24501884 -0.31499466 -0.50520450
v 0.25185171 -0.32184255 -0.50146145
v 0.24778965 -0.32771945 -0.49496034
v 0.24278605 -0.33216548 0.48493475
v 0.24168310 -0.33129671 0.49498191
v 0.24036494 -0.33027464 0.50010401
v 0.22078094 -0.34029096 0.50020254
v 0.16103357 -0.37039095 0.50020254
v 0.14109984 -0.38040727 0.50020254
v 0.13641904 -0.38424003 0.49626243
v 0.23501162 -0.31499466 -0.50550002
v 0.36515921 0.13481924 -0.50550002
v 0.13641904 0.13481924 0.47232652
v 0.25513366 -0.31509686 -0.50284046
v 0.30498141 -0.25499904 -0.50520450
v 0.26500636 -0.28499687 -0.50550002
v 0.31509623 -0.25510126 -0.50284046
v 0.32182151 -0.25183061 -0.50146145
v 0.31275582 -0.26276678 -0.49496034
v 0.25279325 -0.32276243 -0.49496034
v 0.24778965 -0.32771945 0.48493475
v 0.24665980 -0.32664627 0.49498191
v 0.25037217 -0.32036054 0.50010401
v 0.24423870 -0.32419330 0.50030100
v 0.23501162 -0.32495987 0.50069505
v 0.23501162 -0.33088788 0.50030100
v 0.13641904 -0.37493920 0.50069505
v 0.13641904 -0.38102052 0.50030100
v 0.37497813 0.13481924 -0.50540155
v 0.37497813 0.12495625 -0.50550002
v 0.13641904 -0.35761505 0.50039953
v 0.35808420 0.13481924 0.50030100
v 0.32499585 -0.23496643 -0.50520450
v 0.32499585 -0.22495012 -0.50550002
v 0.32510346 -0.24508494 -0.50284046
v 0.33145210 -0.24181432 -0.50146145
v 0.32776666 -0.24774233 -0.49496034
v 0.31275582 -0.26276678 0.48493475
v 0.25279325 -0.32276243 0.48493475
v 0.27167785 -0.30165660 0.49498191
v 0.32034194 -0.25034863 0.50010401
v 0.32421571 -0.24421617 0.50030100
v 0.26422623 -0.30421180 0.50030100
v 0.24501884 -0.31499466 0.50069505
v 0.22500440 -0.32495987 0.50079352
v 0.20501688 -0.33497617 0.50079352
v 0.18500245 -0.34499246 0.50079352
v 0.14500050 -0.36497399 0.50079352
v 0.13641904 -0.36497399 0.50079352
v 0.38498533 0.10497473 -0.50530303
v 0.38498533 0.09495842 -0.50550002
v 0.38450110 0.13481924 -0.50234795
v 0.38498533 0.12495625 -0.50382549
v 0.38498533 0.11499104 -0.50490904
v 0.36483639 0.13481924 0.50069505
v 0.36499780 -0.16495448 -0.50402248
v 0.34355760 -0.21498492 -0.50254500
v 0.33341590 -0.23496643 -0.50244647
v 0.33497617 -0.21498492 -0.50530303
v 0.37497813 -0.12504257 -0.50550002
v 0.37497813 -0.13495667 -0.50540155
v 0.33691305 -0.23496643 -0.49496034
v 0.33220536 -0.24273416 -0.49496034
v 0.34154004 -0.22300819 -0.50155997
v 0.32776666 -0.24774233 0.48493475
v 0.31665650 -0.25663435 0.49498191
v 0.33026847 -0.24033231 0.50010401
v 0.32663682 -0.24661805 0.49498191
v 0.32499585 -0.23496643 0.50069505
v 0.30498141 -0.25499904 0.50069505
v 0.26500636 -0.28499687 0.50079352
v 0.23501162 -0.31499466 0.50079352
v 0.37497813 0.12495625 0.50079352
v 0.39499253 0.04497911 -0.50520450
v 0.39499253 0.03496280 -0.50550002
v 0.38485080 0.13481924 -0.50215095
v 0.38506603 0.13415489 -0.50224948
v 0.39087665 0.12495625 -0.50106746
v 0.39189890 0.11499104 -0.50215095
v 0.39262524 0.10497473 -0.50254500
v 0.40241724 0.04497911 -0.50254500
v 0.39499253 0.05499540 -0.50471199
v 0.37497813 0.13481924 0.50069505
v 0.37497813 -0.14497298 -0.50412101
v 0.35367244 -0.19495231 -0.50254500
v 0.38506603 -0.13419013 -0.50224948
v 0.38498533 -0.09504476 -0.50550002
v 0.38498533 -0.10500997 -0.50530303
v 0.38498533 -0.11502627 -0.50490904
v 0.38498533 -0.12504257 -0.50382549
v 0.37002832 -0.17006485 -0.49998394
v 0.34232014 -0.22454129 -0.49496034
v 0.33696684 -0.23496643 -0.48491317
v 0.33220536 -0.24273416 0.48493475
v 0.36166206 -0.18324958 -0.50155997
v 0.38143438 -0.14497298 -0.50136292
v 0.39015034 -0.13030624 -0.50018096
v 0.33129069 -0.24160990 0.49498191
v 0.34030259 -0.22075963 0.50020254
v 0.33088720 -0.23496643 0.50030100
v 0.34137863 -0.22280377 0.49498191
v 0.36499780 -0.15498929 0.50069505
v 0.37497813 -0.12504257 0.50079352
v 0.32499585 -0.22495012 0.50079352
v 0.35033670 -0.20082922 0.50020254
v 0.38041213 -0.14108911 0.50020254
v 0.38498533 0.09495842 0.50079352
v 0.38498533 0.11499104 0.50059652
v 0.40499973 0.00496498 -0.50362849
v 0.39499253 -0.03504913 -0.50550002
v 0.38802516 0.13481924 -0.49564984
v 0.39015034 0.13032213 -0.50018096
v 0.40029204 0.07196181 -0.50047648
v 0.40166402 0.05499540 -0.50195396
v 0.40085697 0.06496061 -0.50116599
v 0.41059518 0.00496498 -0.50087047
v 0.38127297 0.13481924 0.50030100
v 0.39087665 -0.12504257 -0.50106746
v 0.39499253 -0.04501434 -0.50520450
v 0.39499253 -0.05503064 -0.50471199
v 0.40241724 -0.04501434 -0.50254500
v 0.39262524 -0.10500997 -0.50254500
v 0.39189890 -0.11502627 -0.50215095
v 0.38770235 -0.13546771 -0.49496034
v 0.37005520 -0.17011595 -0.49496034
v 0.33976454 -0.22954944 -0.48491317
v 0.34232014 -0.22454129 0.48493475
v 0.33696684 -0.23496643 0.48493475
v 0.40029204 -0.07204814 -0.50047648
v 0.39380890 -0.11502627 -0.49496034
v 0.39176440 -0.12504257 -0.49496034
v 0.39023104 -0.13045956 -0.49496034
v 0.35146654 -0.20297557 0.49498191
v 0.39015034 -0.13030624 0.49074635
v 0.38138056 -0.14461526 0.49429241
v 0.37002832 -0.17006485 0.49015534
v 0.37497813 -0.13495667 0.50069505
v 0.38498533 -0.09504476 0.50079352
v 0.38498533 -0.11502627 0.50059652
v 0.39006963 -0.12039215 0.50000548
v 0.39028484 -0.11502627 0.50020254
v 0.39499253 0.03496280 0.50079352
v 0.39499253 0.04497911 0.50069505
v 0.40050727 0.04497911 0.50030100
v 0.39028484 0.11499104 0.50020254
v 0.40499973 -0.00500022 -0.50362849
v 0.38805205 0.13481924 -0.49496034
v 0.39023104 0.13047543 -0.49496034
v 0.39176440 0.12495625 -0.49496034
v 0.39380890 0.11499104 -0.49496034
v 0.41013786 0.01094410 -0.50018096
v 0.41059518 -0.00500022 -0.50087047
v 0.41118699 0.00496498 -0.49496034
v 0.41121390 -0.00500022 -0.49496034
v 0.39006963 0.12035692 0.50000548
v 0.38229522 0.13481924 0.49902052
v 0.40166402 -0.05503064 -0.50195396
v 0.40085697 -0.06504695 -0.50116599
v 0.38770235 -0.13546771 0.48493475
v 0.37005520 -0.17011595 0.48493475
v 0.33976454 -0.22954944 0.48493475
v 0.41013786 -0.01097934 -0.50018096
v 0.40174472 -0.06504695 -0.49496034
v 0.39698321 -0.09504476 -0.48491317
v 0.39380890 -0.11502627 0.48493475
v 0.39176440 -0.12504257 0.48493475
v 0.39023104 -0.13045956 0.48493475
v 0.39074215 -0.12422492 0.49448940
v 0.39499253 -0.03504913 0.50079352
v 0.40050727 -0.04501434 0.50030100
v 0.39499253 -0.04501434 0.50069505
v 0.39970022 -0.05962997 0.49980849
v 0.40023828 -0.05298650 0.50010401
v 0.39219481 -0.11502627 0.49498191
v 0.40029204 -0.07204814 0.49153435
v 0.40085697 -0.06504695 0.49360290
v 0.40257865 0.00496498 0.50030100
v 0.40758225 0.00496498 0.49764147
v 0.40023828 0.05290017 0.50010401
v 0.38805205 0.13481924 0.48493475
v 0.39023104 0.13047543 0.48493475
v 0.39176440 0.12495625 0.48493475
v 0.39857039 0.08499323 -0.48491317
v 0.40174472 0.06496061 -0.49496034
v 0.39380890 0.11499104 0.48493475
v 0.41021857 0.01140404 -0.49496034
v 0.41118699 0.00496498 0.48493475
v 0.41021857 -0.01149037 -0.49496034
v 0.41121390 -0.00500022 0.48493475
v 0.39970022 0.05959474 0.49980849
v 0.40085697 0.06496061 0.49360290
v 0.40029204 0.07196181 0.49153435
v 0.39219481 0.11499104 0.49498191
v 0.39074215 0.12418967 0.49448940
v 0.39015034 0.13032213 0.49074635
v 0.38576546 0.13481924 0.49439090
v 0.40174472 -0.06504695 0.48493475
v 0.39698321 -0.09504476 0.48493475
v 0.41013786 -0.01097934 0.49074635
v 0.40257865 -0.00500022 0.50030100
v 0.40758225 -0.00500022 0.49764147
v 0.41059518 -0.00500022 0.49261788
v 0.41059518 0.00496498 0.49261788
v 0.38684151 0.13481924 0.48995835
v 0.39857039 0.08499323 0.48493475
v 0.40174472 0.06496061 0.48493475
v 0.41013786 0.01094410 0.49074635
v 0.41021857 0.01140404 0.48493475
v 0.41021857 -0.01149037 0.48493475
f 1 2 3
f 1 3 4
f 1 4 5
f 1 5 6
f 1 6 18
f 1 18 7
f 1 7 21
f 1 21 35
f 1 35 50
f 1 50 68
f 1 68 67
f 1 67 89
f 1 89 71
f 1 71 53
f 1 53 39
f 1 39 25
f 1 25 8
f 1 8 2
f 2 8 9
f 2 9 10
f 2 10 11
f 2 11 12
f 2 12 13
f 2 13 3
f 3 13 14
f 3 14 4
f 4 15 16
f 4 16 5
f 4 14 15
f 5 16 6
f 6 16 17
f 6 17 32
f 6 32 18
f 7 18 19
f 7 19 20
f 7 20 21
f 8 22 23
f 8 23 24
f 8 24 9
f 8 25 26
f 8 26 22
f 9 27 11
f 9 11 10
f 9 24 27
f 11 28 14
f 11 14 12
f 11 27 29
f 11 29 28
f 12 14 13
f 14 30 15
f 14 28 30
f 15 30 31
f 15 31 17
f 15 17 16
f 17 31 44
f 17 44 32
f 18 32 19
f 19 33 20
f 19 32 33
f 20 33 34
f 20 34 35
f 20 35 21
f 22 26 36
f 22 36 23
f 23 36 37
f 23 37 24
f 24 29 27
f 24 37 38
f 24 38 29
f 25 39 52
f 25 52 70
f 25 70 91
f 25 91 115
f 25 115 150
f 25 150 127
f 25 127 100
f 25 100 74
f 25 74 56
f 25 56 51
f 25 51 38
f 25 38 37
f 25 37 36
f 25 36 26
f 28 40 30
f 28 29 40
f 29 38 51
f 29 51 41
f 29 41 54
f 29 54 40
f 30 40 42
f 30 42 43
f 30 43 31
f 31 43 61
f 31 61 44
f 32 44 45
f 32 45 33
f 33 45 46
f 33 46 47
f 33 47 34
f 34 47 48
f 34 48 49
f 34 49 50
f 34 50 35
f 39 53 72
f 39 72 95
f 39 95 123
f 39 123 157
f 39 157 196
f 39 196 236
f 39 236 244
f 39 244 220
f 39 220 187
f 39 187 151
f 39 151 116
f 39 116 92
f 39 92 69
f 39 69 52
f 40 54 42
f 41 55 57
f 41 57 54
f 41 51 56
f 41 56 55
f 42 54 57
f 42 57 58
f 42 58 59
f 42 59 60
f 42 60 43
f 43 60 79
f 43 79 61
f 44 61 45
f 45 62 46
f 45 61 62
f 46 63 64
f 46 64 65
f 46 65 66
f 46 66 47
f 46 62 63
f 47 66 65
f 47 65 67
f 47 67 48
f 48 67 49
f 49 67 68
f 49 68 50
f 52 69 70
f 53 71 72
f 55 73 75
f 55 75 57
f 55 56 73
f 56 74 73
f 57 75 58
f 58 76 77
f 58 77 59
f 58 75 76
f 59 77 105
f 59 105 78
f 59 78 79
f 59 79 60
f 61 79 62
f 62 80 63
f 62 79 80
f 63 81 82
f 63 82 83
f 63 83 64
f 63 80 81
f 64 83 84
f 64 84 65
f 65 84 112
f 65 112 85
f 65 85 67
f 67 85 86
f 67 86 87
f 67 87 88
f 67 88 89
f 69 90 91
f 69 91 70
f 69 92 93
f 69 93 94
f 69 94 90
f 71 89 72
f 72 89 95
f 73 96 97
f 73 97 98
f 73 98 75
f 73 74 99
f 73 99 124
f 73 124 96
f 74 100 101
f 74 101 99
f 75 98 76
f 76 102 103
f 76 103 77
f 76 98 104
f 76 104 102
f 77 103 134
f 77 134 105
f 78 105 80
f 78 80 79
f 80 106 81
f 80 105 106
f 81 107 82
f 81 106 108
f 81 108 107
f 82 107 109
f 82 109 110
f 82 110 84
f 82 84 83
f 84 110 111
f 84 111 112
f 85 112 111
f 85 111 144
f 85 144 143
f 85 143 178
f 85 178 209
f 85 209 182
f 85 182 147
f 85 147 113
f 85 113 89
f 85 89 88
f 85 88 87
f 85 87 86
f 89 113 95
f 90 94 114
f 90 114 115
f 90 115 91
f 92 116 117
f 92 117 93
f 93 117 118
f 93 118 119
f 93 119 94
f 94 119 120
f 94 120 121
f 94 121 122
f 94 122 114
f 95 113 123
f 96 124 97
f 97 125 126
f 97 126 104
f 97 104 98
f 97 124 125
f 99 101 124
f 100 127 101
f 101 128 129
f 101 129 130
f 101 130 124
f 101 127 128
f 102 104 131
f 102 131 132
f 102 132 133
f 102 133 103
f 103 133 168
f 103 168 134
f 104 126 135
f 104 135 136
f 104 136 137
f 104 137 131
f 105 134 138
f 105 138 108
f 105 108 106
f 107 139 140
f 107 140 109
f 107 108 138
f 107 138 141
f 107 141 139
f 109 142 143
f 109 143 144
f 109 144 111
f 109 111 110
f 109 140 139
f 109 139 145
f 109 145 146
f 109 146 142
f 113 147 148
f 113 148 123
f 114 122 149
f 114 149 115
f 115 149 186
f 115 186 150
f 116 151 152
f 116 152 117
f 117 152 118
f 118 152 153
f 118 153 119
f 119 154 121
f 119 121 120
f 119 153 155
f 119 155 154
f 121 149 122
f 121 154 156
f 121 156 149
f 123 148 157
f 124 130 126
f 124 126 125
f 126 130 158
f 126 158 137
f 126 137 136
f 126 136 135
f 127 150 128
f 128 159 129
f 128 150 159
f 129 159 160
f 129 160 161
f 129 161 162
f 129 162 163
f 129 163 130
f 130 163 158
f 131 137 164
f 131 164 165
f 131 165 132
f 132 166 133
f 132 165 200
f 132 200 167
f 132 167 201
f 132 201 166
f 133 166 201
f 133 201 168
f 134 168 138
f 137 158 169
f 137 169 170
f 137 170 171
f 137 171 172
f 137 172 164
f 138 168 141
f 139 141 173
f 139 173 174
f 139 174 175
f 139 175 145
f 141 168 176
f 141 176 174
f 141 174 173
f 142 177 143
f 142 146 177
f 143 177 179
f 143 179 178
f 145 175 146
f 146 180 181
f 146 181 179
f 146 179 177
f 146 175 174
f 146 174 180
f 147 182 183
f 147 183 148
f 148 183 184
f 148 184 185
f 148 185 157
f 149 156 192
f 149 192 186
f 150 186 159
f 151 187 152
f 152 187 188
f 152 188 189
f 152 189 190
f 152 190 153
f 153 191 156
f 153 156 155
f 153 190 191
f 154 155 156
f 156 191 193
f 156 193 194
f 156 194 192
f 157 185 195
f 157 195 196
f 158 163 169
f 159 186 160
f 160 186 161
f 161 197 163
f 161 163 162
f 161 186 192
f 161 192 197
f 163 197 198
f 163 198 169
f 164 172 207
f 164 207 199
f 164 199 200
f 164 200 165
f 167 200 176
f 167 176 201
f 168 201 176
f 169 192 202
f 169 202 170
f 169 198 192
f 170 202 203
f 170 203 204
f 170 204 238
f 170 238 205
f 170 205 206
f 170 206 171
f 171 206 207
f 171 207 172
f 174 176 199
f 174 199 207
f 174 207 206
f 174 206 205
f 174 205 208
f 174 208 180
f 176 200 199
f 178 179 209
f 179 210 211
f 179 211 209
f 179 181 210
f 180 212 213
f 180 213 181
f 180 208 214
f 180 214 215
f 180 215 216
f 180 216 212
f 181 213 210
f 182 209 240
f 182 240 217
f 182 217 184
f 182 184 183
f 184 217 218
f 184 218 219
f 184 219 185
f 185 219 195
f 187 220 221
f 187 221 188
f 188 221 222
f 188 222 189
f 189 222 225
f 189 225 190
f 190 223 224
f 190 224 191
f 190 225 245
f 190 245 223
f 191 224 226
f 191 226 193
f 192 198 197
f 192 194 202
f 193 226 248
f 193 248 227
f 193 227 229
f 193 229 194
f 194 228 202
f 194 229 249
f 194 249 228
f 195 219 230
f 195 230 231
f 195 231 232
f 195 232 233
f 195 233 234
f 195 234 235
f 195 235 236
f 195 236 196
f 202 228 203
f 203 228 249
f 203 249 237
f 203 237 238
f 203 238 204
f 205 238 239
f 205 239 215
f 205 215 208
f 208 215 214
f 209 211 210
f 209 210 240
f 210 213 241
f 210 241 240
f 212 241 213
f 212 216 242
f 212 242 241
f 215 239 242
f 215 242 216
f 217 240 241
f 217 241 218
f 218 230 219
f 218 241 242
f 218 242 243
f 218 243 230
f 220 244 235
f 220 235 221
f 221 235 222
f 222 235 225
f 223 245 246
f 223 246 224
f 224 246 248
f 224 248 226
f 225 235 234
f 225 234 232
f 225 232 247
f 225 247 245
f 227 248 247
f 227 247 243
f 227 243 229
f 229 243 242
f 229 242 239
f 229 239 249
f 230 243 231
f 231 243 232
f 232 234 233
f 232 243 247
f 235 244 236
f 237 249 239
f 237 239 238
f 245 247 246
f 246 247 248

