# https://github.com/mikedh/trimesh
v 0.13639218 0.13481927 0.47234762
v -0.28037933 0.13481927 0.47234762
v -0.23497340 0.08499547 0.48927018
v -0.06501746 0.03499373 0.50371867
v -0.05502245 0.03499373 0.50361973
v -0.04502744 0.02499338 0.50540107
v -0.03503243 0.01499304 0.50540107
v -0.02503742 0.00499269 0.50431246
v 0.13639218 -0.22875208 0.47234762
v 0.13639218 0.13481927 -0.50540107
v -0.28037933 0.07958604 0.48897329
v -0.27499425 0.08499547 0.48857746
v -0.26499924 0.08499547 0.48917124
v -0.25496343 0.08499547 0.48927018
v -0.28037933 0.13481927 -0.50540107
v -0.07497167 0.02499338 0.50540107
v -0.03503243 -0.01500801 0.50540107
v -0.02503742 -0.00500766 0.50431246
v -0.04502744 -0.02500835 0.50540107
v -0.28037933 -0.22875208 0.47373310
v 0.13639218 -0.22875208 -0.50540107
v -0.28037933 0.07499512 0.48927018
v -0.28037933 -0.22875208 -0.50540107
v -0.08496668 0.01499304 0.50540107
v -0.07497167 -0.02500835 0.50540107
v -0.26499924 -0.08497486 0.48917124
v -0.28037933 -0.07497450 0.48927018
v -0.09496169 0.00499269 0.50530207
v -0.08496668 -0.01500801 0.50540107
v -0.09496169 -0.00500766 0.50530207
f 1 2 14
f 1 14 3
f 1 3 4
f 1 4 5
f 1 5 6
f 1 6 7
f 1 7 8
f 1 8 18
f 1 18 9
f 1 9 21
f 1 21 10
f 1 10 15
f 1 15 2
f 2 11 12
f 2 12 13
f 2 13 14
f 2 15 23
f 2 23 20
f 2 20 27
f 2 27 22
f 2 22 11
f 3 14 4
f 4 16 6
f 4 6 5
f 4 14 13
f 4 13 16
f 6 16 24
f 6 24 29
f 6 29 25
f 6 25 19
f 6 19 17
f 6 17 7
f 7 17 18
f 7 18 8
f 9 18 17
f 9 17 19
f 9 19 20
f 9 20 23
f 9 23 21
f 10 21 23
f 10 23 15
f 11 22 16
f 11 16 13
f 11 13 12
f 16 22 24
f 19 25 20
f 20 25 26
f 20 26 27
f 22 28 24
f 22 27 30
f 22 30 28
f 24 28 30
f 24 30 29
f 25 29 27
f 25 27 26
f 27 29 30

