# https://github.com/mikedh/trimesh
v 0.23393999 0.06707209 0.38686159
v 0.23201552 0.02026086 0.45155516
v 0.22935793 0.00798498 0.45155516
v 0.22935793 0.05445467 0.38686159
v -0.23416357 0.06707209 0.38686159
v -0.23233074 0.02026086 0.45155516
v 0.19210576 -0.00001503 0.45155516
v 0.19205993 -0.00001503 0.38686159
v -0.23233074 0.05872397 0.38686159
v -0.22981061 0.00855641 0.45155516
v -0.19214605 -0.00001503 0.45155516
v -0.19205441 -0.00001503 0.38686159
v -0.23223910 0.05836929 0.38686159
v -0.22935240 0.00798498 0.45155516
f 1 2 3
f 1 3 4
f 1 4 8
f 1 8 12
f 1 12 13
f 1 13 9
f 1 9 5
f 1 5 6
f 1 6 2
f 2 6 10
f 2 10 14
f 2 14 11
f 2 11 7
f 2 7 3
f 3 7 8
f 3 8 4
f 5 9 10
f 5 10 6
f 7 11 12
f 7 12 8
f 9 13 10
f 10 13 12
f 10 12 14
f 11 14 12

