# https://github.com/mikedh/trimesh
v 0.25005999 0.15861551 -0.48621759
v 0.25005999 -0.15861551 -0.48621759
v 0.24095443 0.20673625 -0.50000000
v 0.23938788 0.20320486 0.19871265
v 0.24854240 0.15589249 0.14571419
v 0.24095443 -0.20673625 -0.50000000
v 0.24854240 -0.15589249 0.14571419
v 0.23938788 -0.20320486 0.19871265
v -0.24095443 0.20673625 -0.50000000
v 0.20526655 0.21733049 -0.48763844
v 0.20394477 0.21392672 0.14720613
v -0.23938788 0.20320486 0.19871265
v 0.23860462 0.18363319 0.22578022
v 0.20526655 -0.21733049 -0.48763844
v -0.24095443 -0.20673625 -0.50000000
v 0.23860462 -0.18363319 0.22578022
v -0.23938788 -0.20320486 0.19871265
v 0.20394477 -0.21392672 0.14720613
v -0.20526655 0.21733049 -0.48763844
v -0.25005999 0.15861551 -0.48621759
v -0.20394477 0.21392672 0.14720613
v -0.24854240 0.15589249 0.14571419
v -0.23865357 0.18363319 0.22578022
v -0.20526655 -0.21733049 -0.48763844
v -0.25005999 -0.15861551 -0.48621759
v -0.23865357 -0.18363319 0.22578022
v -0.24854240 -0.15589249 0.14571419
v -0.20394477 -0.21392672 0.14720613
f 1 2 6
f 1 6 3
f 1 3 4
f 1 4 5
f 1 5 7
f 1 7 2
f 2 7 8
f 2 8 6
f 3 6 15
f 3 15 9
f 3 9 19
f 3 19 10
f 3 10 4
f 4 10 11
f 4 11 21
f 4 21 12
f 4 12 23
f 4 23 13
f 4 13 5
f 5 13 16
f 5 16 7
f 6 14 24
f 6 24 15
f 6 8 14
f 7 16 8
f 8 17 28
f 8 28 18
f 8 18 14
f 8 16 26
f 8 26 17
f 9 15 25
f 9 25 20
f 9 20 12
f 9 12 19
f 10 19 21
f 10 21 11
f 12 21 19
f 12 20 22
f 12 22 23
f 13 23 26
f 13 26 16
f 14 18 28
f 14 28 24
f 15 24 17
f 15 17 25
f 17 27 25
f 17 24 28
f 17 26 27
f 20 25 27
f 20 27 22
f 22 27 26
f 22 26 23

