# https://github.com/mikedh/trimesh
v -0.19204028 -0.04342448 0.38686159
v -0.22937241 -0.04342448 0.40222442
v -0.19204028 -0.00002160 0.38686159
v 0.19205166 -0.04342448 0.38686159
v -0.23325166 -0.04342448 0.41954401
v -0.22937241 -0.00798332 0.45155516
v -0.19213156 -0.00002160 0.45155516
v 0.19205166 -0.00002160 0.38686159
v 0.22938380 -0.04342448 0.40222442
v -0.23233891 -0.02026155 0.45155516
v 0.23298922 -0.04342448 0.41954401
v 0.19214295 -0.00002160 0.45155516
v 0.22938380 -0.00798332 0.45155516
v 0.22979455 -0.00855687 0.45155516
v 0.23152880 -0.04342448 0.40627727
v 0.23120934 -0.04342448 0.40566301
v 0.23203082 -0.02026155 0.45155516
f 1 2 3
f 1 3 8
f 1 8 4
f 1 4 9
f 1 9 16
f 1 16 15
f 1 15 11
f 1 11 5
f 1 5 2
f 2 5 6
f 2 6 3
f 3 6 7
f 3 7 12
f 3 12 8
f 4 8 9
f 5 10 6
f 5 11 17
f 5 17 10
f 6 10 17
f 6 17 14
f 6 14 13
f 6 13 12
f 6 12 7
f 8 12 13
f 8 13 14
f 8 14 15
f 8 15 16
f 8 16 9
f 11 15 14
f 11 14 17

