# https://github.com/mikedh/trimesh
v -0.22530311 -0.04342447 0.22578020
v -0.19204576 -0.04342447 0.38684583
v -0.19213398 0.04631216 0.38654625
v -0.22530311 0.04631216 0.22578020
v 0.22530308 -0.04342447 0.22578020
v -0.19204576 0.04631216 0.38684583
v 0.19204573 -0.04342447 0.38684583
v 0.22530308 0.04631216 0.22578020
v 0.19213395 0.04631216 0.38654625
v 0.19204573 0.04631216 0.38684583
f 1 2 3
f 1 3 4
f 1 4 8
f 1 8 5
f 1 5 7
f 1 7 2
f 2 6 3
f 2 7 10
f 2 10 6
f 3 6 10
f 3 10 9
f 3 9 8
f 3 8 4
f 5 8 9
f 5 9 7
f 7 9 10

