# https://github.com/mikedh/trimesh
v -0.23865792 0.18365695 0.22578020
v -0.22529620 0.04631217 0.22578020
v -0.23412615 0.06708328 0.38684583
v 0.23862574 0.18365695 0.22578020
v -0.19212556 0.04631217 0.38654625
v -0.22936079 0.05445928 0.38684583
v -0.23225737 0.05837151 0.38684583
v 0.22526404 0.04631217 0.22578020
v 0.23390710 0.06708328 0.38684583
v -0.19203213 0.04631217 0.38684583
v 0.22937533 0.05445928 0.38684583
v 0.19204667 0.04631217 0.38684583
f 1 2 3
f 1 3 9
f 1 9 4
f 1 4 8
f 1 8 2
f 2 5 6
f 2 6 7
f 2 7 3
f 2 8 12
f 2 12 10
f 2 10 5
f 3 7 6
f 3 6 10
f 3 10 12
f 3 12 11
f 3 11 9
f 4 9 8
f 5 10 6
f 8 9 11
f 8 11 12

