# https://github.com/mikedh/trimesh
v 0.00495027 0.35850540 0.48499647
v 0.00495027 0.35820374 0.49499589
v 0.02494172 0.35741940 0.48499647
v 0.02494172 0.35323635 0.46129119
v 0.01497773 0.35375923 0.46129119
v 0.00495027 0.35428211 0.46129119
v -0.00495027 0.35850540 0.48499647
v 0.00495027 0.35369891 0.50244635
v 0.02494172 0.35313579 0.50231266
v 0.03496918 0.35283414 0.50220817
v 0.02494172 0.35711774 0.49499589
v -0.00495027 0.35820374 0.49499589
v 0.03496918 0.35683620 0.48499647
v 0.02868615 0.35299504 0.46129119
v -0.00495027 0.35428211 0.46129119
v -0.01123329 0.35396034 0.46129119
v -0.02126076 0.35343748 0.46129119
v -0.02494172 0.35741940 0.48499647
v 0.05496064 0.34499091 0.50397992
v -0.00495027 0.35369891 0.50244635
v 0.03496918 0.35647419 0.49499589
v 0.06498810 0.34499091 0.50370830
v 0.04499664 0.35229114 0.50195330
v -0.02494172 0.35711774 0.49499589
v -0.03496918 0.35283414 0.50220817
v -0.02494172 0.35313579 0.50231266
v 0.03496918 0.35257271 0.46129119
v 0.04499664 0.35573012 0.48499647
v -0.02494172 0.35323635 0.46129119
v -0.03496918 0.35683620 0.48499647
v 0.29498506 0.18500920 0.50386709
v 0.12496247 0.32498062 0.50391304
v 0.09494355 0.33499584 0.50391722
v 0.10497101 0.33499584 0.50367486
v -0.05496064 0.34499091 0.50397992
v 0.05496064 0.35160738 0.50155216
v 0.06498810 0.35094371 0.50102562
v 0.07196924 0.35040075 0.50047404
v 0.04499664 0.35534799 0.49499589
v 0.07520595 0.34573501 0.50239623
v 0.08497956 0.34358317 0.50235862
v -0.03496918 0.35647419 0.49499589
v -0.04499664 0.35229114 0.50195330
v -0.06498810 0.34499091 0.50370830
v 0.03865015 0.35213026 0.46129119
v 0.04499664 0.35136604 0.46129119
v 0.06498810 0.35243192 0.49499589
v 0.06498810 0.35257271 0.48499647
v 0.07209617 0.35046107 0.47884557
v -0.03128821 0.35283414 0.46129119
v -0.03496918 0.35257271 0.46129119
v -0.04499664 0.35573012 0.48499647
v 0.31497651 0.15305308 0.50348687
v 0.31497651 0.15500383 0.50347430
v 0.28495759 0.20501947 0.50351608
v 0.27499360 0.21501458 0.50380862
v 0.18493684 0.29499537 0.50386709
v -0.29498506 0.18500920 0.50386709
v 0.15498139 0.31498554 0.50347430
v 0.11455422 0.33531761 0.50222492
v 0.10497101 0.34106928 0.50107580
v 0.09494355 0.34223574 0.50187808
v 0.13581498 0.32588562 0.50266367
v 0.12496247 0.33242163 0.50186974
v -0.10497101 0.33499584 0.50367486
v -0.09494355 0.33499584 0.50391722
v -0.12496247 0.32498062 0.50391304
v 0.07869653 0.34955609 0.49668407
v 0.07520595 0.35068229 0.49400973
v 0.11093672 0.34034532 0.50039464
v -0.04499664 0.35534799 0.49499589
v -0.07196924 0.35040075 0.50047404
v -0.06498810 0.35094371 0.50102562
v -0.05496064 0.35160738 0.50155216
v -0.07520595 0.34573501 0.50239623
v -0.08497956 0.34358317 0.50235862
v 0.04747178 0.35098395 0.46129119
v 0.07996582 0.34999850 0.49001917
v 0.07996582 0.34999850 0.48997739
v 0.07526942 0.35070240 0.48598680
v 0.07882345 0.34971696 0.48331249
v 0.07495210 0.34619755 0.46129119
v 0.06866907 0.34740421 0.46129119
v 0.06498810 0.34810808 0.46129119
v 0.05991090 0.34897286 0.46129119
v 0.05496064 0.34977728 0.46129119
v 0.08497956 0.34378427 0.46129119
v -0.04125221 0.35182860 0.46129119
v -0.04499664 0.35136604 0.46129119
v -0.07209617 0.35046107 0.47884557
v -0.06498810 0.35257271 0.48499647
v -0.06498810 0.35243192 0.49499589
v 0.32164031 0.15305308 0.50121784
v -0.31497651 0.15305308 0.50348687
v 0.31484956 0.16409393 0.50179452
v 0.30596447 0.17597944 0.50268871
v 0.29523891 0.19500428 0.50247145
v 0.28444988 0.21412969 0.50145602
v 0.27473971 0.22456722 0.50203687
v 0.26502958 0.23500474 0.50239623
v 0.25506559 0.24514060 0.50250071
v 0.24510160 0.25513569 0.50250071
v 0.22498322 0.26499000 0.50380862
v 0.21495575 0.27498507 0.50380862
v 0.20499176 0.28498018 0.50351608
v -0.18493684 0.29499537 0.50386709
v -0.27499360 0.21501458 0.50380862
v -0.28495759 0.20501947 0.50351608
v -0.31497651 0.15500383 0.50347430
v 0.17592481 0.30597588 0.50268871
v 0.16405687 0.31488499 0.50179452
v 0.14495392 0.32353264 0.50219566
v 0.13302252 0.33101389 0.50097549
v -0.09494355 0.34223574 0.50187808
v -0.10497101 0.34106928 0.50107580
v -0.11455422 0.33531761 0.50222492
v -0.12496247 0.33242163 0.50186974
v -0.13581498 0.32588562 0.50266367
v -0.15498139 0.31498554 0.50347430
v 0.10497101 0.34271839 0.49499589
v 0.13968633 0.32982734 0.49891126
v 0.11201562 0.34074754 0.49499589
v -0.07520595 0.35068229 0.49400973
v -0.07869653 0.34955609 0.49668407
v -0.11093672 0.34034532 0.50039464
v 0.10497101 0.34289938 0.48499647
v 0.11106364 0.34038553 0.47905031
v 0.09773601 0.34038553 0.46129119
v -0.05369134 0.34999850 0.46129119
v -0.06498810 0.34810808 0.46129119
v -0.07495210 0.34619755 0.46129119
v -0.08123513 0.34468925 0.46129119
v -0.08497956 0.34378427 0.46129119
v -0.07882345 0.34971696 0.48331249
v -0.07526942 0.35070240 0.48598680
v -0.07996582 0.34999850 0.48997739
v -0.07996582 0.34999850 0.49001917
v 0.32392505 0.15305308 0.49506277
v 0.32119605 0.15500383 0.50097966
v -0.31662658 0.15305308 0.50322360
v 0.31148592 0.17330469 0.50119698
v 0.30323547 0.18500920 0.50190318
v 0.29162139 0.20501947 0.50115520
v 0.28070542 0.22094727 0.50064957
v 0.29009825 0.21020807 0.50014395
v 0.27124915 0.23164622 0.50099224
v 0.26179287 0.24188265 0.50117189
v 0.25182888 0.25189784 0.50117189
v 0.24186489 0.26179239 0.50117189
v 0.23494720 0.26507044 0.50239623
v 0.22453895 0.27476388 0.50203687
v 0.21406725 0.28443718 0.50145602
v 0.19496429 0.29523671 0.50247145
v -0.20499176 0.28498018 0.50351608
v -0.21495575 0.27498507 0.50380862
v -0.22498322 0.26499000 0.50380862
v -0.24510160 0.25513569 0.50250071
v -0.25506559 0.24514060 0.50250071
v -0.26502958 0.23500474 0.50239623
v -0.28444988 0.21412969 0.50145602
v -0.29523891 0.19500428 0.50247145
v -0.30596447 0.17597944 0.50268871
v -0.27473971 0.22456722 0.50203687
v -0.31484956 0.16409393 0.50179452
v 0.18493684 0.30324081 0.50190318
v 0.15498139 0.32119977 0.50097966
v 0.17325929 0.31148624 0.50119698
v 0.16012205 0.32005346 0.50007707
v -0.13302252 0.33101389 0.50097549
v -0.14495392 0.32353264 0.50219566
v -0.16405687 0.31488499 0.50179452
v -0.17592481 0.30597588 0.50268871
v 0.14425582 0.32807770 0.49534690
v 0.14044791 0.33018935 0.49224219
v 0.11214255 0.34076762 0.48499647
v -0.10497101 0.34271839 0.49499589
v -0.11201562 0.34074754 0.49499589
v -0.13968633 0.32982734 0.49891126
v 0.13974980 0.32990777 0.48100170
v 0.12731066 0.33039045 0.46129119
v 0.11836211 0.33376908 0.46129119
v 0.11499847 0.33503604 0.46129119
v 0.10497101 0.33833423 0.46129119
v 0.09957649 0.33988276 0.46129119
v -0.09957649 0.33988276 0.46129119
v -0.11106364 0.34038553 0.47905031
v -0.10497101 0.34289938 0.48499647
v 0.32417890 0.15305308 0.48492545
v 0.32303655 0.15500383 0.49499589
v 0.32005370 0.16015220 0.50007707
v -0.32164031 0.15305308 0.50121784
v 0.30996278 0.17996138 0.49979714
v 0.30101421 0.19164577 0.50089192
v 0.26813936 0.23792082 0.49499589
v 0.29041556 0.21063040 0.49499589
v 0.28641728 0.21563801 0.49499589
v 0.28140354 0.22181204 0.49499589
v 0.27226460 0.23291321 0.49499589
v 0.25823885 0.24827789 0.49499589
v 0.26312566 0.24327029 0.49499589
v 0.24821138 0.25825286 0.49499589
v 0.24319765 0.26313981 0.49499589
v 0.23786660 0.26812729 0.49499589
v 0.23158357 0.27128470 0.50099224
v 0.22092146 0.28073677 0.50064957
v 0.21013242 0.29012856 0.50014395
v 0.20499176 0.29165697 0.50115520
v -0.19496429 0.29523671 0.50247145
v -0.21406725 0.28443718 0.50145602
v -0.22453895 0.27476388 0.50203687
v -0.23494720 0.26507044 0.50239623
v -0.24186489 0.26179239 0.50117189
v -0.25182888 0.25189784 0.50117189
v -0.26179287 0.24188265 0.50117189
v -0.27124915 0.23164622 0.50099224
v -0.28070542 0.22094727 0.50064957
v -0.29009825 0.21020807 0.50014395
v -0.29162139 0.20501947 0.50115520
v -0.30323547 0.18500920 0.50190318
v -0.32119605 0.15500383 0.50097966
v -0.31148592 0.17330469 0.50119698
v 0.19160065 0.30100852 0.50089192
v 0.17992310 0.30995783 0.49979714
v 0.16062976 0.32033503 0.49499589
v 0.15498139 0.32304999 0.49499589
v -0.16012205 0.32005346 0.50007707
v -0.15498139 0.32119977 0.50097966
v -0.17325929 0.31148624 0.50119698
v -0.18493684 0.30324081 0.50190318
v 0.14044791 0.33018935 0.48766243
v 0.15498139 0.32325110 0.48499647
v 0.12496247 0.33588070 0.48499647
v -0.11214255 0.34076762 0.48499647
v -0.14044791 0.33018935 0.49224219
v -0.14425582 0.32807770 0.49534690
v 0.14425582 0.32825869 0.48459950
v 0.16018552 0.32009369 0.47977740
v 0.15091963 0.32047582 0.46129119
v 0.14717519 0.32220533 0.46129119
v 0.14495392 0.32323098 0.46129119
v 0.13498993 0.32743415 0.46129119
v -0.10497101 0.33833423 0.46129119
v -0.11499847 0.33503604 0.46129119
v -0.12077378 0.33286408 0.46129119
v -0.13974980 0.32990777 0.48100170
v 0.32005370 0.16021253 0.47977740
v 0.32322693 0.15500383 0.48499647
v 0.32030755 0.16067508 0.49499589
v 0.31935558 0.15305308 0.46129119
v -0.32240191 0.15305308 0.49995592
v 0.31028008 0.18048427 0.49313223
v 0.27245498 0.23305398 0.48499647
v 0.26826629 0.23806159 0.48499647
v 0.26331604 0.24343118 0.48499647
v 0.29047903 0.21067062 0.48499647
v 0.28648075 0.21565811 0.48499647
v 0.25842923 0.24843878 0.48499647
v 0.25341550 0.25344637 0.48499647
v 0.24840178 0.25841376 0.48499647
v 0.24338804 0.26330069 0.48499647
v 0.23799352 0.26830828 0.48499647
v 0.23304327 0.27245113 0.48499647
v 0.23285286 0.27231035 0.49499589
v 0.22174650 0.28144068 0.49499589
v 0.21559040 0.28642815 0.49499589
v 0.21057667 0.29045033 0.49499589
v -0.20499176 0.29165697 0.50115520
v -0.21013242 0.29012856 0.50014395
v -0.22092146 0.28073677 0.50064957
v -0.23158357 0.27128470 0.50099224
v -0.23786660 0.26812729 0.49499589
v -0.24319765 0.26313981 0.49499589
v -0.24821138 0.25825286 0.49499589
v -0.25823885 0.24827789 0.49499589
v -0.26312566 0.24327029 0.49499589
v -0.26813936 0.23792082 0.49499589
v -0.30101421 0.19164577 0.50089192
v -0.27226460 0.23291321 0.49499589
v -0.28140354 0.22181204 0.49499589
v -0.28641728 0.21563801 0.49499589
v -0.29041556 0.21063040 0.49499589
v -0.30996278 0.17996138 0.49979714
v -0.32005370 0.16015220 0.50007707
v 0.18043083 0.31027961 0.49313223
v 0.16069323 0.32035515 0.48499647
v -0.16062976 0.32033503 0.49499589
v -0.17992310 0.30995783 0.49979714
v -0.15498139 0.32304999 0.49499589
v -0.19160065 0.30100852 0.50089192
v -0.12496247 0.33588070 0.48499647
v -0.14044791 0.33018935 0.48766243
v -0.15498139 0.32325110 0.48499647
v 0.16570696 0.31780106 0.48499647
v 0.17998657 0.30999807 0.47999886
v 0.17072070 0.31038016 0.46129119
v -0.12915115 0.32966647 0.46129119
v -0.13498993 0.32743415 0.46129119
v -0.14495392 0.32323098 0.46129119
v -0.15091963 0.32047582 0.46129119
v -0.16018552 0.32009369 0.47977740
v -0.14425582 0.32825869 0.48459950
v 0.31884786 0.15407872 0.46129119
v 0.31789589 0.15594904 0.46129119
v 0.31618235 0.15930754 0.46129119
v 0.31218404 0.16713066 0.46129119
v 0.31034356 0.17073050 0.46129119
v 0.30996278 0.18000160 0.47999886
v 0.31776896 0.16572291 0.48499647
v -0.31935558 0.15305308 0.46129119
v -0.32392505 0.15305308 0.49506277
v 0.31300908 0.17501411 0.48499647
v 0.31015316 0.18036360 0.48499647
v 0.30697992 0.18535107 0.48499647
v 0.30196619 0.19305354 0.48499647
v 0.26959908 0.22959493 0.46129119
v 0.29016170 0.21024829 0.47963530
v 0.26788551 0.23160601 0.46129119
v 0.26496613 0.23500474 0.46129119
v 0.26325259 0.23699571 0.46129119
v 0.26033318 0.24035423 0.46129119
v 0.24719594 0.25350672 0.46129119
v 0.24034172 0.26032430 0.46129119
v 0.23697808 0.26326045 0.46129119
v 0.23158357 0.26792619 0.46129119
v 0.22955269 0.26965570 0.46129119
v 0.21019588 0.29016876 0.47963530
v 0.21565387 0.28650859 0.48499647
v 0.21064013 0.29047042 0.48499647
v -0.21057667 0.29045033 0.49499589
v -0.21559040 0.28642815 0.49499589
v -0.22174650 0.28144068 0.49499589
v -0.23285286 0.27231035 0.49499589
v -0.23799352 0.26830828 0.48499647
v -0.24338804 0.26330069 0.48499647
v -0.23304327 0.27245113 0.48499647
v -0.24840178 0.25841376 0.48499647
v -0.25341550 0.25344637 0.48499647
v -0.25842923 0.24843878 0.48499647
v -0.26331604 0.24343118 0.48499647
v -0.26826629 0.23806159 0.48499647
v -0.27245498 0.23305398 0.48499647
v -0.28648075 0.21565811 0.48499647
v -0.29047903 0.21067062 0.48499647
v -0.31028008 0.18048427 0.49313223
v -0.32030755 0.16067508 0.49499589
v -0.32303655 0.15500383 0.49499589
v 0.19299689 0.30197382 0.48499647
v 0.18531762 0.30696133 0.48499647
v 0.18030390 0.31019917 0.48499647
v 0.17497285 0.31301469 0.48499647
v 0.20499176 0.29417083 0.48499647
v -0.16069323 0.32035515 0.48499647
v -0.18043083 0.31027961 0.49313223
v 0.18404832 0.30261737 0.46129119
v 0.17878073 0.30577478 0.46129119
v 0.17567095 0.30762497 0.46129119
v 0.20169158 0.29113409 0.46129119
v 0.19743943 0.29390937 0.46129119
v -0.17072070 0.31038016 0.46129119
v -0.17998657 0.30999807 0.47999886
v -0.16570696 0.31780106 0.48499647
v 0.30863002 0.17388791 0.46129119
v 0.30761456 0.17573810 0.46129119
v 0.30577409 0.17883517 0.46129119
v 0.30260083 0.18406399 0.46129119
v 0.30056995 0.18722139 0.46129119
v 0.29390615 0.19751814 0.46129119
v -0.32417890 0.15305308 0.48492545
v -0.32005370 0.16021253 0.47977740
v -0.31789589 0.15594904 0.46129119
v -0.32398853 0.15305308 0.49311134
v 0.27112222 0.22774473 0.46129119
v 0.29111367 0.20176153 0.46129119
v 0.28768659 0.20674902 0.46129119
v 0.28273630 0.21342582 0.46129119
v 0.28019771 0.21656311 0.46129119
v 0.22771220 0.27116403 0.46129119
v 0.21654238 0.28019381 0.46129119
v 0.21336913 0.28272775 0.46129119
v 0.20670532 0.28773534 0.46129119
v -0.21064013 0.29047042 0.48499647
v -0.21565387 0.28650859 0.48499647
v -0.24034172 0.26032430 0.46129119
v -0.22955269 0.26965570 0.46129119
v -0.23297979 0.26671952 0.46129119
v -0.21019588 0.29016876 0.47963530
v -0.24846524 0.25221962 0.46129119
v -0.26033318 0.24035423 0.46129119
v -0.26959908 0.22959493 0.46129119
v -0.26204672 0.23838337 0.46129119
v -0.26496613 0.23500474 0.46129119
v -0.29016170 0.21024829 0.47963530
v -0.30996278 0.18000160 0.47999886
v -0.30196619 0.19305354 0.48499647
v -0.30697992 0.18535107 0.48499647
v -0.31015316 0.18036360 0.48499647
v -0.31300908 0.17501411 0.48499647
v -0.31776896 0.16572291 0.48499647
v -0.32322693 0.15500383 0.48499647
v -0.17497285 0.31301469 0.48499647
v -0.18030390 0.31019917 0.48499647
v -0.18531762 0.30696133 0.48499647
v -0.19299689 0.30197382 0.48499647
v -0.20499176 0.29417083 0.48499647
v -0.17567095 0.30762497 0.46129119
v -0.18404832 0.30261737 0.46129119
v -0.19921646 0.29276305 0.46129119
v -0.31034356 0.17073050 0.46129119
v -0.31326294 0.16501904 0.46129119
v -0.21838287 0.27868548 0.46129119
v -0.20169158 0.29113409 0.46129119
v -0.20359553 0.28986710 0.46129119
v -0.20670532 0.28773534 0.46129119
v -0.21336913 0.28272775 0.46129119
v -0.27220112 0.22645764 0.46129119
v -0.28273630 0.21342582 0.46129119
v -0.28457680 0.21095218 0.46129119
v -0.28768659 0.20674902 0.46129119
v -0.28984439 0.20361173 0.46129119
v -0.29111367 0.20176153 0.46129119
v -0.29276377 0.19924767 0.46129119
v -0.29695246 0.19279209 0.46129119
v -0.29936412 0.18907160 0.46129119
v -0.30139500 0.18593431 0.46129119
v -0.30260083 0.18406399 0.46129119
v -0.30761456 0.17573810 0.46129119
v -0.30932811 0.17260081 0.46129119
f 1 2 11
f 1 11 3
f 1 3 4
f 1 4 5
f 1 5 6
f 1 6 15
f 1 15 7
f 1 7 12
f 1 12 2
f 2 8 9
f 2 9 10
f 2 10 11
f 2 12 20
f 2 20 8
f 3 11 13
f 3 13 4
f 4 13 14
f 4 14 27
f 4 27 45
f 4 45 46
f 4 46 77
f 4 77 86
f 4 86 85
f 4 85 84
f 4 84 83
f 4 83 82
f 4 82 87
f 4 87 128
f 4 128 184
f 4 184 183
f 4 183 182
f 4 182 181
f 4 181 180
f 4 180 241
f 4 241 240
f 4 240 239
f 4 239 238
f 4 238 295
f 4 295 356
f 4 356 355
f 4 355 354
f 4 354 358
f 4 358 357
f 4 357 380
f 4 380 379
f 4 379 378
f 4 378 377
f 4 377 325
f 4 325 324
f 4 324 323
f 4 323 322
f 4 322 321
f 4 321 320
f 4 320 319
f 4 319 318
f 4 318 317
f 4 317 315
f 4 315 372
f 4 372 376
f 4 376 375
f 4 375 374
f 4 374 373
f 4 373 367
f 4 367 366
f 4 366 365
f 4 365 364
f 4 364 363
f 4 363 362
f 4 362 306
f 4 306 305
f 4 305 304
f 4 304 303
f 4 303 302
f 4 302 249
f 4 249 309
f 4 309 370
f 4 370 409
f 4 409 408
f 4 408 427
f 4 427 426
f 4 426 425
f 4 425 424
f 4 424 423
f 4 423 422
f 4 422 421
f 4 421 420
f 4 420 419
f 4 419 418
f 4 418 417
f 4 417 416
f 4 416 415
f 4 415 389
f 4 389 391
f 4 391 390
f 4 390 388
f 4 388 387
f 4 387 383
f 4 383 385
f 4 385 384
f 4 384 410
f 4 410 414
f 4 414 413
f 4 413 412
f 4 412 411
f 4 411 407
f 4 407 406
f 4 406 405
f 4 405 359
f 4 359 299
f 4 299 298
f 4 298 297
f 4 297 296
f 4 296 244
f 4 244 243
f 4 243 242
f 4 242 185
f 4 185 133
f 4 133 132
f 4 132 131
f 4 131 130
f 4 130 129
f 4 129 89
f 4 89 88
f 4 88 51
f 4 51 50
f 4 50 29
f 4 29 17
f 4 17 16
f 4 16 15
f 4 15 6
f 4 6 5
f 7 15 16
f 7 16 17
f 7 17 18
f 7 18 24
f 7 24 12
f 8 19 9
f 8 20 35
f 8 35 19
f 9 19 10
f 10 21 11
f 10 19 22
f 10 22 23
f 10 23 21
f 11 21 13
f 12 24 25
f 12 25 26
f 12 26 20
f 13 27 14
f 13 21 28
f 13 28 27
f 17 29 18
f 18 29 30
f 18 30 24
f 19 31 32
f 19 32 33
f 19 33 34
f 19 34 22
f 19 35 58
f 19 58 31
f 20 26 35
f 21 23 36
f 21 36 37
f 21 37 38
f 21 38 39
f 21 39 28
f 22 40 37
f 22 37 36
f 22 36 23
f 22 34 41
f 22 41 40
f 24 30 42
f 24 42 25
f 25 42 43
f 25 43 44
f 25 44 35
f 25 35 26
f 27 28 45
f 28 46 45
f 28 39 47
f 28 47 48
f 28 48 49
f 28 49 46
f 29 50 30
f 30 50 51
f 30 51 52
f 30 52 42
f 31 53 54
f 31 54 55
f 31 55 56
f 31 56 57
f 31 57 32
f 31 58 94
f 31 94 53
f 32 34 33
f 32 57 59
f 32 59 34
f 34 60 61
f 34 61 62
f 34 62 41
f 34 59 63
f 34 63 64
f 34 64 60
f 35 44 65
f 35 65 66
f 35 66 67
f 35 67 58
f 37 40 41
f 37 41 62
f 37 62 38
f 38 68 69
f 38 69 47
f 38 47 39
f 38 62 61
f 38 61 70
f 38 70 68
f 42 52 71
f 42 71 72
f 42 72 73
f 42 73 74
f 42 74 43
f 43 74 44
f 44 74 73
f 44 73 75
f 44 75 76
f 44 76 65
f 46 49 77
f 47 69 78
f 47 78 48
f 48 78 79
f 48 79 80
f 48 80 81
f 48 81 49
f 49 82 83
f 49 83 84
f 49 84 85
f 49 85 86
f 49 86 77
f 49 81 87
f 49 87 82
f 51 88 52
f 52 88 89
f 52 89 90
f 52 90 91
f 52 91 92
f 52 92 71
f 53 93 54
f 53 94 140
f 53 140 191
f 53 191 250
f 53 250 310
f 53 310 371
f 53 371 368
f 53 368 309
f 53 309 249
f 53 249 188
f 53 188 138
f 53 138 93
f 54 93 95
f 54 95 96
f 54 96 55
f 55 96 97
f 55 97 98
f 55 98 99
f 55 99 100
f 55 100 56
f 56 100 101
f 56 101 102
f 56 102 103
f 56 103 57
f 57 103 104
f 57 104 105
f 57 105 59
f 58 67 106
f 58 106 107
f 58 107 108
f 58 108 109
f 58 109 94
f 59 105 110
f 59 110 111
f 59 111 112
f 59 112 63
f 60 64 61
f 61 64 70
f 63 112 64
f 64 112 113
f 64 113 70
f 65 76 114
f 65 114 115
f 65 115 116
f 65 116 117
f 65 117 118
f 65 118 119
f 65 119 67
f 65 67 66
f 67 119 106
f 68 70 120
f 68 120 78
f 68 78 69
f 70 113 121
f 70 121 122
f 70 122 120
f 71 92 72
f 72 92 123
f 72 123 124
f 72 124 125
f 72 125 115
f 72 115 114
f 72 114 73
f 73 114 76
f 73 76 75
f 78 120 122
f 78 122 126
f 78 126 79
f 79 81 80
f 79 126 81
f 81 126 127
f 81 127 87
f 87 127 128
f 89 129 90
f 90 129 130
f 90 130 131
f 90 131 132
f 90 132 133
f 90 133 134
f 90 134 91
f 91 134 135
f 91 135 136
f 91 136 137
f 91 137 92
f 92 137 123
f 93 138 139
f 93 139 95
f 94 109 140
f 95 141 142
f 95 142 96
f 95 139 141
f 96 142 97
f 97 143 98
f 97 142 143
f 98 144 99
f 98 143 145
f 98 145 144
f 99 146 100
f 99 144 146
f 100 147 101
f 100 146 147
f 101 147 148
f 101 148 102
f 102 148 149
f 102 149 150
f 102 150 104
f 102 104 103
f 104 150 105
f 105 150 151
f 105 151 152
f 105 152 153
f 105 153 110
f 106 154 155
f 106 155 156
f 106 156 107
f 106 119 154
f 107 157 158
f 107 158 159
f 107 159 108
f 107 156 157
f 108 160 161
f 108 161 162
f 108 162 109
f 108 159 163
f 108 163 160
f 109 162 164
f 109 164 140
f 110 165 111
f 110 153 165
f 111 166 112
f 111 165 167
f 111 167 166
f 112 166 113
f 113 166 168
f 113 168 121
f 115 125 117
f 115 117 116
f 117 169 170
f 117 170 118
f 117 125 169
f 118 170 119
f 119 170 171
f 119 171 172
f 119 172 154
f 121 173 174
f 121 174 122
f 121 168 173
f 122 175 126
f 122 174 175
f 123 137 124
f 124 137 176
f 124 176 125
f 125 176 177
f 125 177 178
f 125 178 169
f 126 175 127
f 127 175 179
f 127 179 180
f 127 180 181
f 127 181 182
f 127 182 183
f 127 183 184
f 127 184 128
f 133 185 186
f 133 186 134
f 134 186 187
f 134 187 136
f 134 136 135
f 136 187 137
f 137 187 177
f 137 177 176
f 138 188 189
f 138 189 190
f 138 190 139
f 139 190 141
f 140 164 191
f 141 190 192
f 141 192 142
f 142 192 193
f 142 193 143
f 143 193 145
f 144 145 194
f 144 194 146
f 145 195 196
f 145 196 197
f 145 197 198
f 145 198 194
f 145 193 192
f 145 192 195
f 146 194 147
f 147 199 148
f 147 194 200
f 147 200 199
f 148 201 149
f 148 199 201
f 149 202 203
f 149 203 204
f 149 204 150
f 149 201 202
f 150 204 151
f 151 204 205
f 151 205 152
f 152 206 207
f 152 207 153
f 152 205 206
f 153 207 165
f 154 208 209
f 154 209 210
f 154 210 211
f 154 211 155
f 154 172 208
f 155 211 157
f 155 157 156
f 157 211 212
f 157 212 213
f 157 213 158
f 158 214 159
f 158 213 214
f 159 214 215
f 159 215 163
f 160 216 217
f 160 217 218
f 160 218 161
f 160 163 216
f 161 218 219
f 161 219 162
f 162 219 164
f 163 215 216
f 164 220 191
f 164 219 221
f 164 221 220
f 165 222 223
f 165 223 167
f 165 207 222
f 166 167 168
f 167 223 168
f 168 224 225
f 168 225 173
f 168 223 224
f 169 178 226
f 169 226 227
f 169 227 170
f 170 227 171
f 171 228 229
f 171 229 172
f 171 227 228
f 172 229 208
f 173 225 174
f 174 230 175
f 174 225 224
f 174 224 231
f 174 231 230
f 175 230 232
f 175 232 179
f 177 187 233
f 177 233 234
f 177 234 178
f 178 234 235
f 178 235 226
f 179 232 230
f 179 230 236
f 179 236 231
f 179 231 237
f 179 237 238
f 179 238 239
f 179 239 240
f 179 240 241
f 179 241 180
f 185 242 186
f 186 242 243
f 186 243 244
f 186 244 245
f 186 245 233
f 186 233 187
f 188 246 247
f 188 247 248
f 188 248 189
f 188 249 246
f 189 248 190
f 190 248 192
f 191 220 250
f 192 248 251
f 192 251 195
f 194 198 252
f 194 252 253
f 194 253 254
f 194 254 200
f 195 255 196
f 195 251 255
f 196 255 256
f 196 256 252
f 196 252 197
f 197 252 198
f 199 200 254
f 199 254 257
f 199 257 258
f 199 258 201
f 201 258 259
f 201 259 260
f 201 260 202
f 202 260 203
f 203 260 261
f 203 261 262
f 203 262 263
f 203 263 206
f 203 206 205
f 203 205 204
f 206 263 264
f 206 264 265
f 206 265 266
f 206 266 223
f 206 223 222
f 206 222 207
f 208 267 209
f 208 229 267
f 209 267 268
f 209 268 269
f 209 269 210
f 210 269 270
f 210 270 211
f 211 270 212
f 212 270 271
f 212 271 272
f 212 272 273
f 212 273 213
f 213 273 274
f 213 274 214
f 214 275 276
f 214 276 215
f 214 274 275
f 215 276 216
f 216 276 217
f 217 277 218
f 217 276 278
f 217 278 279
f 217 279 280
f 217 280 281
f 217 281 282
f 217 282 277
f 218 277 219
f 219 282 221
f 219 277 282
f 220 283 250
f 220 221 283
f 221 282 283
f 223 284 224
f 223 266 284
f 224 285 231
f 224 284 285
f 226 286 287
f 226 287 228
f 226 228 227
f 226 235 288
f 226 288 286
f 228 287 229
f 229 287 289
f 229 289 267
f 230 231 236
f 231 285 237
f 233 245 290
f 233 290 291
f 233 291 234
f 234 291 292
f 234 292 286
f 234 286 288
f 234 288 235
f 237 285 293
f 237 293 294
f 237 294 295
f 237 295 238
f 244 296 245
f 245 296 297
f 245 297 298
f 245 298 299
f 245 299 300
f 245 300 292
f 245 292 301
f 245 301 291
f 245 291 290
f 246 249 302
f 246 302 303
f 246 303 304
f 246 304 305
f 246 305 306
f 246 306 307
f 246 307 308
f 246 308 247
f 247 308 251
f 247 251 248
f 250 283 310
f 251 308 311
f 251 311 312
f 251 312 313
f 251 313 314
f 251 314 255
f 252 315 253
f 252 256 316
f 252 316 315
f 253 315 317
f 253 317 318
f 253 318 319
f 253 319 320
f 253 320 254
f 254 320 257
f 255 316 256
f 255 314 307
f 255 307 316
f 257 320 321
f 257 321 258
f 258 321 322
f 258 322 259
f 259 322 260
f 260 322 261
f 261 322 323
f 261 323 324
f 261 324 325
f 261 325 262
f 262 325 326
f 262 326 327
f 262 327 265
f 262 265 264
f 262 264 263
f 265 327 266
f 266 327 328
f 266 328 284
f 267 289 268
f 268 329 330
f 268 330 331
f 268 331 332
f 268 332 271
f 268 271 269
f 268 289 287
f 268 287 329
f 269 271 270
f 271 333 334
f 271 334 272
f 271 332 335
f 271 335 333
f 272 334 336
f 272 336 273
f 273 336 337
f 273 337 274
f 274 338 339
f 274 339 275
f 274 337 338
f 275 339 276
f 276 340 341
f 276 341 278
f 276 339 340
f 278 341 279
f 279 341 280
f 280 342 343
f 280 343 281
f 280 341 342
f 281 343 344
f 281 344 282
f 282 344 345
f 282 345 283
f 283 345 346
f 283 346 310
f 284 347 348
f 284 348 349
f 284 349 350
f 284 350 293
f 284 293 285
f 284 328 351
f 284 351 347
f 286 352 353
f 286 353 287
f 286 292 352
f 287 353 329
f 291 301 292
f 292 300 352
f 293 350 294
f 294 354 355
f 294 355 356
f 294 356 295
f 294 350 349
f 294 349 348
f 294 348 347
f 294 347 351
f 294 351 326
f 294 326 357
f 294 357 358
f 294 358 354
f 299 359 300
f 300 359 360
f 300 360 361
f 300 361 352
f 306 362 307
f 307 362 363
f 307 363 364
f 307 364 365
f 307 365 366
f 307 366 367
f 307 367 316
f 307 314 313
f 307 313 312
f 307 312 311
f 307 311 308
f 309 368 369
f 309 369 370
f 310 346 371
f 315 316 372
f 316 367 373
f 316 373 374
f 316 374 375
f 316 375 376
f 316 376 372
f 325 377 326
f 326 351 328
f 326 328 327
f 326 377 378
f 326 378 379
f 326 379 380
f 326 380 357
f 329 381 382
f 329 382 330
f 329 353 381
f 330 382 335
f 330 335 331
f 331 335 332
f 333 383 334
f 333 335 384
f 333 384 385
f 333 385 383
f 334 383 336
f 335 382 386
f 335 386 384
f 336 383 337
f 337 383 387
f 337 387 338
f 338 388 339
f 338 387 388
f 339 388 340
f 340 389 341
f 340 388 390
f 340 390 391
f 340 391 389
f 341 389 392
f 341 392 342
f 342 392 343
f 343 392 393
f 343 393 394
f 343 394 344
f 344 394 395
f 344 395 396
f 344 396 397
f 344 397 398
f 344 398 399
f 344 399 345
f 345 399 368
f 345 368 346
f 346 368 371
f 352 361 353
f 353 361 400
f 353 400 401
f 353 401 402
f 353 402 403
f 353 403 404
f 353 404 381
f 359 405 360
f 360 403 402
f 360 402 401
f 360 401 400
f 360 400 361
f 360 405 406
f 360 406 407
f 360 407 386
f 360 386 404
f 360 404 403
f 368 399 369
f 369 399 398
f 369 398 393
f 369 393 408
f 369 408 409
f 369 409 370
f 381 404 386
f 381 386 382
f 384 386 410
f 386 407 411
f 386 411 412
f 386 412 413
f 386 413 414
f 386 414 410
f 389 415 392
f 392 416 417
f 392 417 418
f 392 418 419
f 392 419 420
f 392 420 421
f 392 421 393
f 392 415 416
f 393 397 396
f 393 396 395
f 393 395 394
f 393 421 422
f 393 422 423
f 393 423 424
f 393 424 425
f 393 425 426
f 393 426 427
f 393 427 408
f 393 398 397

