# https://github.com/mikedh/trimesh
v 0.35429060 0.00496452 0.46129119
v 0.35409266 0.00870532 0.46129119
v 0.35429060 -0.00501094 0.46129119
v 0.35424110 0.00496452 -0.46493143
v 0.35320193 0.02496164 -0.46493143
v 0.35354832 0.01868078 0.46129119
v 0.35374627 -0.01503258 0.46129119
v 0.35320193 -0.02500805 -0.46493143
v 0.35424110 -0.00501094 -0.46493143
v 0.35305345 0.00496452 -0.49498641
v 0.35201427 0.02496164 -0.49498641
v 0.35250911 0.03498328 -0.46493143
v 0.35255861 0.03498328 0.46129119
v 0.35320193 0.02496164 0.46129119
v 0.35320193 -0.02500805 0.46129119
v 0.35250911 -0.03502969 -0.46493143
v 0.35201427 -0.02500805 -0.49498641
v 0.35280603 -0.03133507 0.46129119
v 0.35255861 -0.03502969 0.46129119
v 0.35305345 -0.00501094 -0.49498641
v 0.35142043 0.00496452 -0.50169683
v 0.35092559 0.02496164 -0.50122422
v 0.35057920 0.03498328 -0.50075167
v 0.35023278 0.04163359 -0.50027907
v 0.35132146 0.03498328 -0.49498641
v 0.35043073 0.04297288 -0.49498641
v 0.35132146 0.04495874 -0.46493143
v 0.35137096 0.04495874 0.46129119
v 0.35132146 -0.04500515 -0.46493143
v 0.35043073 -0.04301929 -0.49498641
v 0.35132146 -0.03502969 -0.49498641
v 0.35181633 -0.04131053 0.46129119
v 0.35023278 -0.04168000 -0.50027907
v 0.35057920 -0.03502969 -0.50075167
v 0.35092559 -0.02500805 -0.50122422
v 0.35142043 -0.00501094 -0.50169683
v 0.34498733 0.00496452 -0.50387061
v 0.34498733 0.01498617 -0.50368154
v 0.34498733 0.03498328 -0.50311446
v 0.34320584 0.06495585 -0.50264192
v 0.34236458 0.07497749 -0.50226390
v 0.34112746 0.08499914 -0.50131875
v 0.34033567 0.09127998 -0.50046813
v 0.34493783 0.07497749 -0.49498641
v 0.34676880 0.06495585 -0.49498641
v 0.35013381 0.05110104 -0.47173634
v 0.34810492 0.06495585 -0.46493143
v 0.35028228 0.05183996 0.46129119
v 0.34810492 -0.06500226 -0.46493143
v 0.35013381 -0.05114745 -0.47173634
v 0.35137096 -0.04500515 0.46129119
v 0.35067815 -0.04939251 0.46129119
v 0.34998536 -0.05373368 0.46129119
v 0.34676880 -0.06500226 -0.49498641
v 0.34033567 -0.09132640 -0.50046813
v 0.34112746 -0.08504555 -0.50131875
v 0.34236458 -0.07502390 -0.50226390
v 0.34493783 -0.07502390 -0.49498641
v 0.34320584 -0.06500226 -0.50264192
v 0.34498733 -0.03502969 -0.50311446
v 0.34498733 -0.01503258 -0.50368154
v 0.34498733 -0.00501094 -0.50387061
v 0.33499125 0.07497749 -0.50424862
v 0.33499125 0.08499914 -0.50358701
v 0.33325925 0.10499625 -0.50254738
v 0.33177468 0.11497171 -0.50179130
v 0.33251697 0.11746557 -0.49716020
v 0.33375409 0.11497171 -0.49498641
v 0.33692119 0.10499625 -0.49498641
v 0.34058312 0.09224983 -0.49498641
v 0.34251305 0.08499914 -0.49498641
v 0.33127981 0.11746557 -0.50131875
v 0.34617499 0.07497749 -0.46493143
v 0.34741211 0.06869665 0.46129119
v 0.34810492 0.06495585 0.46129119
v 0.34894615 0.05992194 0.46129119
v 0.34617499 -0.07502390 -0.46493143
v 0.34810492 -0.06500226 0.46129119
v 0.33053756 -0.12148370 -0.50065720
v 0.33177468 -0.11501812 -0.50179130
v 0.34251305 -0.08504555 -0.49498641
v 0.34058312 -0.09229624 -0.49498641
v 0.33692119 -0.10504266 -0.49498641
v 0.33375409 -0.11501812 -0.49498641
v 0.33325925 -0.10504266 -0.50254738
v 0.33499125 -0.08504555 -0.50358701
v 0.33499125 -0.07502390 -0.50424862
v -0.07499646 -0.33498630 -0.50424862
v -0.13497293 -0.31498921 -0.50415409
v 0.32499516 0.10499625 -0.50405961
v 0.32499516 0.11497171 -0.50387061
v 0.33014166 0.11746557 -0.50188583
v 0.32509413 0.11746557 -0.50349253
v 0.33281389 0.11746557 -0.49498641
v 0.33499125 0.11497171 -0.46493143
v 0.33830678 0.10499625 -0.46493143
v 0.33984083 0.09950051 -0.46493143
v 0.34375018 0.08499914 -0.46493143
v 0.34528422 0.07867211 0.46129119
v 0.34617499 0.07497749 0.46129119
v 0.34375018 -0.08504555 -0.46493143
v 0.34617499 -0.07502390 0.46129119
v 0.34469041 -0.08130475 0.46129119
v 0.33093342 -0.12249972 -0.49498641
v 0.32598487 -0.13496904 -0.49498641
v 0.32207552 -0.14457504 -0.49498641
v 0.32128376 -0.14291248 -0.50131875
v 0.32281780 -0.13496904 -0.50235838
v 0.33984083 -0.09954692 -0.46493143
v 0.33830678 -0.10504266 -0.46493143
v 0.33499125 -0.11501812 -0.46493143
v 0.33157673 -0.12411612 -0.46493143
v 0.32499516 -0.11501812 -0.50387061
v 0.31499907 -0.13496904 -0.50415409
v 0.07504369 -0.33498630 -0.50424862
v -0.00497442 -0.34496176 -0.50387061
v -0.01497050 -0.34496176 -0.50368154
v -0.03496266 -0.34496176 -0.50311446
v -0.06495091 -0.34320682 -0.50264192
v -0.07499646 -0.34232935 -0.50226390
v -0.08499255 -0.33498630 -0.50358701
v -0.11498078 -0.32496464 -0.50387061
v -0.13497293 -0.32284027 -0.50235838
v -0.15125370 -0.31434262 -0.50245291
v -0.15125370 -0.30935490 -0.50349253
v -0.15125370 -0.30487520 -0.50339806
v 0.32207552 0.11746557 -0.50349253
v -0.15125370 0.11746557 -0.47958088
v 0.33405101 0.11746557 -0.46493143
v 0.33504072 0.11497171 0.46129119
v 0.33711913 0.10869086 0.46129119
v 0.33830678 0.10499625 0.46129119
v 0.33929649 0.10162491 0.46129119
v 0.34038517 0.09769937 0.46129119
v 0.34122643 0.09455895 0.46129119
v 0.34375018 0.08499914 0.46129119
v 0.34375018 -0.08504555 0.46129119
v 0.34216663 -0.09109548 0.46129119
v 0.34122643 -0.09460537 0.46129119
v 0.32964680 -0.12910384 -0.46493143
v 0.32737046 -0.13496904 -0.46493143
v 0.32029402 -0.15057880 -0.47268146
v 0.31970021 -0.14956278 -0.49498641
v 0.32316419 -0.14499068 -0.46493143
v 0.31138664 -0.16281721 -0.50141323
v 0.31331658 -0.15496615 -0.50235838
v 0.33984083 -0.09963928 0.46129119
v 0.33890060 -0.10296444 0.46129119
v 0.33830678 -0.10504266 0.46129119
v 0.33504072 -0.11501812 0.46129119
v 0.33088395 -0.12600960 0.46129119
v 0.32826120 -0.13279846 0.46129119
v 0.29495743 -0.17496327 -0.50405961
v 0.17495501 -0.29499209 -0.50405961
v 0.13497069 -0.31498921 -0.50415409
v 0.11497853 -0.32496464 -0.50387061
v 0.08503977 -0.33498630 -0.50358701
v 0.07504369 -0.34232935 -0.50226390
v 0.06504761 -0.34320682 -0.50264192
v 0.03500989 -0.34496176 -0.50311446
v 0.01501773 -0.34496176 -0.50368154
v 0.00502165 -0.34496176 -0.50387061
v -0.00497442 -0.35142735 -0.50169683
v -0.02496659 -0.35091934 -0.50122422
v -0.03496266 -0.35054988 -0.50075167
v -0.08499255 -0.34112859 -0.50131875
v -0.11498078 -0.33175352 -0.50179130
v -0.10498471 -0.33327752 -0.50254738
v -0.04164321 -0.35022658 -0.50027907
v -0.14294010 -0.32131624 -0.50131875
v -0.15125370 -0.31776017 -0.49725470
v -0.15125370 0.11746557 0.46129119
v 0.33410051 0.11746557 0.46129119
v 0.32741997 -0.13496904 0.46129119
v 0.31019899 -0.17043737 -0.47211438
v 0.31222790 -0.16443360 -0.49498641
v 0.32044250 -0.15090208 -0.46493143
v 0.31326708 -0.16498780 -0.46493143
v 0.32321370 -0.14499068 0.46129119
v 0.30312255 -0.17496327 -0.50216937
v 0.30960515 -0.16942134 -0.49498641
v 0.30119261 -0.18184447 -0.50112975
v 0.27496529 -0.20498201 -0.50396514
v 0.20499273 -0.27499497 -0.50396514
v 0.29540282 -0.18512344 -0.50264192
v 0.28496137 -0.19496037 -0.50377607
v 0.15496284 -0.31332663 -0.50235838
v 0.19499665 -0.28497046 -0.50377607
v 0.17495501 -0.30312026 -0.50216937
v 0.13497069 -0.32284027 -0.50235838
v 0.10498245 -0.33327752 -0.50254738
v 0.11497853 -0.33175352 -0.50179130
v 0.08503977 -0.34112859 -0.50131875
v 0.04169044 -0.35022658 -0.50027907
v 0.03500989 -0.35054988 -0.50075167
v 0.02501381 -0.35091934 -0.50122422
v 0.00502165 -0.35142735 -0.50169683
v -0.00497442 -0.35304374 -0.49498641
v -0.02496659 -0.35202771 -0.49498641
v -0.09127720 -0.34029731 -0.50046813
v -0.12151287 -0.33055276 -0.50065720
v -0.03496266 -0.35133499 -0.49498641
v -0.04297932 -0.35045749 -0.49498641
v -0.06495091 -0.34676290 -0.49498641
v -0.07499646 -0.34496176 -0.49498641
v -0.14457312 -0.32210135 -0.49498641
v -0.14957118 -0.31969982 -0.49498641
v -0.15125370 -0.31886855 -0.49498641
v -0.15125370 -0.32030022 0.46129119
v 0.30653706 -0.17496327 -0.49498641
v 0.31034744 -0.17066827 -0.46493143
v 0.30762574 -0.17565601 -0.46493143
v 0.32148170 -0.14873149 0.46129119
v 0.32044250 -0.15090208 0.46129119
v 0.31791872 -0.15588981 0.46129119
v 0.31499907 -0.16161646 0.46129119
v 0.31143612 -0.16859005 0.46129119
v 0.31034744 -0.17071445 0.46129119
v 0.29188934 -0.19496037 -0.50150776
v 0.30188543 -0.18295287 -0.49498641
v 0.29020682 -0.20031756 -0.50027907
v 0.26546407 -0.22539476 -0.50283098
v 0.25571540 -0.23573969 -0.50292546
v 0.23572326 -0.25573680 -0.50292546
v 0.22538078 -0.26548135 -0.50283098
v 0.28471392 -0.20419690 -0.50188583
v 0.27511373 -0.21491130 -0.50254738
v 0.16283104 -0.31138694 -0.50141323
v 0.14293785 -0.32131624 -0.50131875
v 0.21488982 -0.27508736 -0.50254738
v 0.20420095 -0.28473952 -0.50188583
v 0.18509954 -0.29536155 -0.50264192
v 0.19499665 -0.29189783 -0.50150776
v 0.18183349 -0.30118057 -0.50112975
v 0.12151062 -0.33055276 -0.50065720
v 0.09132444 -0.34029731 -0.50046813
v 0.07504369 -0.34496176 -0.49498641
v 0.06504761 -0.34676290 -0.49498641
v 0.04302655 -0.35045749 -0.49498641
v 0.03500989 -0.35133499 -0.49498641
v 0.02501381 -0.35202771 -0.49498641
v 0.00502165 -0.35304374 -0.49498641
v -0.00497442 -0.35424447 -0.46493143
v -0.01497050 -0.35373646 -0.46493143
v -0.02496659 -0.35318229 -0.46493143
v -0.03496266 -0.35253572 -0.46493143
v -0.08499255 -0.34251410 -0.49498641
v -0.09221744 -0.34057441 -0.49498641
v -0.10498471 -0.33692598 -0.49498641
v -0.11498078 -0.33373937 -0.49498641
v -0.12245310 -0.33092225 -0.49498641
v -0.13497293 -0.32602686 -0.49498641
v -0.04495875 -0.35128880 -0.46493143
v -0.05109496 -0.35013422 -0.47173634
v -0.06495091 -0.34810221 -0.46493143
v -0.07499646 -0.34616250 -0.46493143
v -0.13497293 -0.32736617 -0.46493143
v -0.14496902 -0.32316354 -0.46493143
v -0.15056089 -0.32030022 -0.47268146
v -0.15125370 -0.31997693 -0.47173634
v -0.14496902 -0.32320970 0.46129119
v -0.15125370 -0.32025403 -0.46493143
v -0.15085781 -0.32043874 -0.46493143
v 0.30935773 -0.17256176 0.46129119
v 0.30257821 -0.18401507 -0.46493143
v 0.30762574 -0.17570218 0.46129119
v 0.30262771 -0.18401507 0.46129119
v 0.28120047 -0.21153995 -0.50112975
v 0.29040477 -0.20064084 -0.49498641
v 0.29936165 -0.18900280 -0.46493143
v 0.29550177 -0.19496037 -0.46493143
v 0.28694078 -0.20567475 -0.49498641
v 0.28194275 -0.21246362 -0.49498641
v 0.26244545 -0.23287636 -0.50169683
v 0.25289473 -0.24289802 -0.50179130
v 0.24289864 -0.25287348 -0.50179130
v 0.23285308 -0.26247948 -0.50169683
v 0.27184770 -0.22230053 -0.50150776
v 0.16941261 -0.30963200 -0.49498641
v 0.16441458 -0.31221825 -0.49498641
v 0.14956892 -0.31969982 -0.49498641
v 0.14457089 -0.32210135 -0.49498641
v 0.22231266 -0.27185458 -0.50150776
v 0.21152481 -0.28122965 -0.50112975
v 0.20034108 -0.29018909 -0.50027907
v 0.18292218 -0.30191949 -0.49498641
v 0.17495501 -0.30653775 -0.49498641
v 0.13497069 -0.32602686 -0.49498641
v 0.12245084 -0.33092225 -0.49498641
v 0.11497853 -0.33373937 -0.49498641
v 0.10498245 -0.33692598 -0.49498641
v 0.09226467 -0.34057441 -0.49498641
v 0.08503977 -0.34251410 -0.49498641
v 0.07504369 -0.34616250 -0.46493143
v 0.06504761 -0.34810221 -0.46493143
v 0.05114218 -0.35013422 -0.47173634
v 0.04500597 -0.35128880 -0.46493143
v 0.03500989 -0.35253572 -0.46493143
v 0.02501381 -0.35318229 -0.46493143
v 0.01501773 -0.35373646 -0.46493143
v 0.00502165 -0.35424447 -0.46493143
v -0.00497442 -0.35424447 0.46129119
v -0.00868584 -0.35405976 0.46129119
v -0.01868192 -0.35355175 0.46129119
v -0.02496659 -0.35322845 0.46129119
v -0.02867799 -0.35299754 0.46129119
v -0.03496266 -0.35258192 0.46129119
v -0.04495875 -0.35138118 0.46129119
v -0.08499255 -0.34371483 -0.46493143
v -0.09449377 -0.34117478 -0.46493143
v -0.09949181 -0.33983549 -0.46493143
v -0.10498471 -0.33831146 -0.46493143
v -0.11498078 -0.33503249 -0.46493143
v -0.12408612 -0.33156878 -0.46493143
v -0.05668681 -0.34944147 -0.46493143
v -0.05183723 -0.35027277 0.46129119
v -0.05495482 -0.34976476 0.46129119
v -0.06495091 -0.34810221 0.46129119
v -0.06866232 -0.34740946 0.46129119
v -0.07499646 -0.34616250 0.46129119
v -0.07870788 -0.34528506 0.46129119
v -0.08499255 -0.34376103 0.46129119
v -0.13131100 -0.32884401 0.46129119
v -0.13497293 -0.32741234 0.46129119
v 0.29693687 -0.19278978 0.46129119
v 0.27793440 -0.21745133 -0.49498641
v 0.26882908 -0.22862756 -0.49498641
v 0.29109758 -0.20170304 -0.46493143
v 0.28773254 -0.20673695 -0.46493143
v 0.28268501 -0.21338727 -0.46493143
v 0.25947630 -0.23948050 -0.49498641
v 0.24448219 -0.25448987 -0.49498641
v 0.23943466 -0.25947762 -0.49498641
v 0.26383105 -0.23444659 -0.49498641
v 0.17045182 -0.31023240 -0.47211438
v 0.15055864 -0.32030022 -0.47268146
v 0.14496677 -0.32316354 -0.46493143
v 0.13497069 -0.32736617 -0.46493143
v 0.23443663 -0.26386493 -0.49498641
v 0.22859734 -0.26885268 -0.49498641
v 0.22359928 -0.27291676 -0.49498641
v 0.21246505 -0.28196856 -0.49498641
v 0.20563604 -0.28695631 -0.49498641
v 0.20063800 -0.29042000 -0.49498641
v 0.19499665 -0.29550010 -0.46493143
v 0.18401086 -0.30261225 -0.46493143
v 0.17569730 -0.30759996 -0.46493143
v 0.12408387 -0.33156878 -0.46493143
v 0.11497853 -0.33503249 -0.46493143
v 0.10498245 -0.33831146 -0.46493143
v 0.09953904 -0.33983549 -0.46493143
v 0.09454100 -0.34117478 -0.46493143
v 0.08503977 -0.34371483 -0.46493143
v 0.08132836 -0.34468466 0.46129119
v 0.07504369 -0.34616250 0.46129119
v 0.07133228 -0.34690145 0.46129119
v 0.05673404 -0.34944147 -0.46493143
v 0.06504761 -0.34810221 0.46129119
v 0.05371543 -0.34999567 0.46129119
v 0.04500597 -0.35138118 0.46129119
v 0.03500989 -0.35258192 0.46129119
v 0.02501381 -0.35322845 0.46129119
v 0.00502165 -0.35424447 0.46129119
v -0.08850602 -0.34283736 0.46129119
v -0.09459274 -0.34122097 0.46129119
v -0.09959079 -0.33988166 0.46129119
v -0.10498471 -0.33831146 0.46129119
v -0.10869613 -0.33711070 0.46129119
v -0.11498078 -0.33503249 0.46129119
v -0.12413561 -0.33156878 0.46129119
v -0.12913364 -0.32967532 0.46129119
v 0.28986043 -0.20359653 0.46129119
v 0.27867669 -0.21837500 -0.46493143
v 0.27367866 -0.22456348 -0.46493143
v 0.26962084 -0.22955121 -0.46493143
v 0.26021859 -0.24021941 -0.47154731
v 0.28773254 -0.20673695 0.46129119
v 0.28273451 -0.21338727 0.46129119
v 0.24022642 -0.26021653 -0.47154731
v 0.15585358 -0.31789869 -0.46493143
v 0.15085554 -0.32043874 -0.46493143
v 0.17069924 -0.31032473 -0.46493143
v 0.14496677 -0.32320970 0.46129119
v 0.14125535 -0.32477993 0.46129119
v 0.13497069 -0.32741234 0.46129119
v 0.12913139 -0.32967532 0.46129119
v 0.22953755 -0.26963779 -0.46493143
v 0.21835382 -0.27868959 -0.46493143
v 0.21335578 -0.28270751 -0.46493143
v 0.20672472 -0.28769523 -0.46493143
v 0.20172668 -0.29111272 -0.46493143
v 0.18905839 -0.29937947 0.46129119
v 0.18406034 -0.30261225 0.46129119
v 0.17569730 -0.30759996 0.46129119
v 0.17257971 -0.30935490 0.46129119
v 0.12601380 -0.33087605 0.46129119
v 0.12076834 -0.33286190 0.46129119
v 0.11497853 -0.33503249 0.46129119
v 0.10498245 -0.33831146 0.46129119
v 0.10295354 -0.33891183 0.46129119
v 0.09963801 -0.33988166 0.46129119
v 0.09463997 -0.34122097 0.46129119
v 0.08503977 -0.34376103 0.46129119
v 0.27555910 -0.22225434 0.46129119
v 0.27219409 -0.22641078 0.46129119
v 0.26496920 -0.23495458 -0.46493143
v 0.26962084 -0.22955121 0.46129119
v 0.26670119 -0.23296872 0.46129119
v 0.26031756 -0.24031177 -0.46493143
v 0.25032148 -0.25033343 -0.46493143
v 0.24032539 -0.26030889 -0.46493143
v 0.23498097 -0.26497334 -0.46493143
v 0.15278548 -0.31951511 0.46129119
v 0.15090503 -0.32043874 0.46129119
v 0.17069924 -0.31037092 0.46129119
v 0.22453952 -0.27370185 -0.45491311
v 0.22958705 -0.26963779 0.46129119
v 0.21840331 -0.27868959 0.46129119
v 0.21340527 -0.28270751 0.46129119
v 0.20672472 -0.28769523 0.46129119
v 0.20355764 -0.28986579 0.46129119
v 0.20172668 -0.29111272 0.46129119
v 0.26204956 -0.23832592 0.46129119
v 0.26031756 -0.24031177 0.46129119
v 0.25220194 -0.24848612 0.46129119
v 0.24032539 -0.26030889 0.46129119
v 0.23498097 -0.26497334 0.46129119
f 1 2 6
f 1 6 14
f 1 14 13
f 1 13 28
f 1 28 48
f 1 48 76
f 1 76 75
f 1 75 74
f 1 74 100
f 1 100 99
f 1 99 136
f 1 136 135
f 1 135 134
f 1 134 133
f 1 133 132
f 1 132 131
f 1 131 130
f 1 130 173
f 1 173 172
f 1 172 209
f 1 209 261
f 1 261 324
f 1 324 323
f 1 323 371
f 1 371 370
f 1 370 369
f 1 369 368
f 1 368 367
f 1 367 366
f 1 366 365
f 1 365 364
f 1 364 322
f 1 322 321
f 1 321 320
f 1 320 319
f 1 319 318
f 1 318 317
f 1 317 316
f 1 316 308
f 1 308 307
f 1 307 306
f 1 306 305
f 1 305 304
f 1 304 303
f 1 303 302
f 1 302 363
f 1 363 362
f 1 362 361
f 1 361 360
f 1 360 359
f 1 359 358
f 1 358 356
f 1 356 355
f 1 355 354
f 1 354 403
f 1 403 402
f 1 402 401
f 1 401 400
f 1 400 399
f 1 399 398
f 1 398 397
f 1 397 396
f 1 396 386
f 1 386 385
f 1 385 384
f 1 384 383
f 1 383 414
f 1 414 413
f 1 413 415
f 1 415 395
f 1 395 394
f 1 394 393
f 1 393 392
f 1 392 422
f 1 422 421
f 1 421 420
f 1 420 419
f 1 419 418
f 1 418 417
f 1 417 427
f 1 427 426
f 1 426 425
f 1 425 424
f 1 424 423
f 1 423 408
f 1 408 407
f 1 407 405
f 1 405 404
f 1 404 378
f 1 378 377
f 1 377 372
f 1 372 325
f 1 325 267
f 1 267 266
f 1 266 264
f 1 264 218
f 1 218 217
f 1 217 216
f 1 216 215
f 1 215 214
f 1 214 213
f 1 213 179
f 1 179 174
f 1 174 152
f 1 152 151
f 1 151 150
f 1 150 149
f 1 149 148
f 1 148 147
f 1 147 139
f 1 139 138
f 1 138 137
f 1 137 103
f 1 103 102
f 1 102 78
f 1 78 53
f 1 53 52
f 1 52 51
f 1 51 32
f 1 32 19
f 1 19 18
f 1 18 15
f 1 15 7
f 1 7 3
f 1 3 9
f 1 9 4
f 1 4 5
f 1 5 2
f 2 5 6
f 3 7 8
f 3 8 9
f 4 9 20
f 4 20 10
f 4 10 11
f 4 11 5
f 5 11 25
f 5 25 12
f 5 12 13
f 5 13 14
f 5 14 6
f 7 15 8
f 8 16 31
f 8 31 17
f 8 17 20
f 8 20 9
f 8 15 18
f 8 18 19
f 8 19 16
f 10 20 36
f 10 36 21
f 10 21 22
f 10 22 23
f 10 23 11
f 11 23 24
f 11 24 25
f 12 25 26
f 12 26 27
f 12 27 28
f 12 28 13
f 16 29 30
f 16 30 31
f 16 19 32
f 16 32 29
f 17 31 33
f 17 33 34
f 17 34 20
f 20 34 35
f 20 35 36
f 21 36 62
f 21 62 37
f 21 37 38
f 21 38 39
f 21 39 22
f 22 39 40
f 22 40 23
f 23 40 41
f 23 41 24
f 24 41 42
f 24 42 43
f 24 43 44
f 24 44 45
f 24 45 26
f 24 26 25
f 26 45 46
f 26 46 27
f 27 46 47
f 27 47 48
f 27 48 28
f 29 49 50
f 29 50 30
f 29 32 51
f 29 51 52
f 29 52 53
f 29 53 49
f 30 50 54
f 30 54 33
f 30 33 31
f 33 55 56
f 33 56 57
f 33 57 34
f 33 54 58
f 33 58 55
f 34 57 59
f 34 59 35
f 35 59 60
f 35 60 36
f 36 60 61
f 36 61 62
f 37 62 87
f 37 87 63
f 37 63 38
f 38 63 39
f 39 63 40
f 40 63 41
f 41 63 64
f 41 64 65
f 41 65 66
f 41 66 42
f 42 66 43
f 43 67 68
f 43 68 69
f 43 69 70
f 43 70 71
f 43 71 44
f 43 66 72
f 43 72 67
f 44 71 98
f 44 98 73
f 44 73 47
f 44 47 45
f 45 47 46
f 47 73 74
f 47 74 75
f 47 75 76
f 47 76 48
f 49 77 58
f 49 58 54
f 49 54 50
f 49 53 78
f 49 78 102
f 49 102 77
f 55 79 80
f 55 80 56
f 55 58 81
f 55 81 82
f 55 82 83
f 55 83 84
f 55 84 79
f 56 80 57
f 57 80 85
f 57 85 86
f 57 86 87
f 57 87 59
f 58 77 101
f 58 101 81
f 59 87 60
f 60 87 61
f 61 87 62
f 63 87 115
f 63 115 88
f 63 88 89
f 63 89 90
f 63 90 91
f 63 91 64
f 64 91 65
f 65 91 66
f 66 92 72
f 66 91 93
f 66 93 92
f 67 72 92
f 67 92 93
f 67 93 127
f 67 127 128
f 67 128 172
f 67 172 173
f 67 173 129
f 67 129 94
f 67 94 68
f 68 94 129
f 68 129 95
f 68 95 96
f 68 96 69
f 69 96 70
f 70 96 97
f 70 97 98
f 70 98 71
f 73 98 99
f 73 99 100
f 73 100 74
f 77 102 103
f 77 103 101
f 79 84 104
f 79 104 105
f 79 105 106
f 79 106 107
f 79 107 80
f 80 107 108
f 80 108 85
f 81 101 82
f 82 101 109
f 82 109 110
f 82 110 83
f 83 110 84
f 84 110 111
f 84 111 112
f 84 112 104
f 85 113 86
f 85 108 113
f 86 113 87
f 87 113 114
f 87 114 115
f 88 115 162
f 88 162 116
f 88 116 117
f 88 117 118
f 88 118 119
f 88 119 120
f 88 120 121
f 88 121 122
f 88 122 89
f 89 122 123
f 89 123 124
f 89 124 125
f 89 125 126
f 89 126 91
f 89 91 90
f 91 127 93
f 91 126 128
f 91 128 127
f 95 129 173
f 95 173 130
f 95 130 96
f 96 130 131
f 96 131 132
f 96 132 133
f 96 133 97
f 97 133 134
f 97 134 98
f 98 134 135
f 98 135 136
f 98 136 99
f 101 103 137
f 101 137 138
f 101 138 139
f 101 139 109
f 104 112 140
f 104 140 141
f 104 141 105
f 105 141 106
f 106 142 143
f 106 143 107
f 106 141 144
f 106 144 142
f 107 145 146
f 107 146 108
f 107 143 145
f 108 146 114
f 108 114 113
f 109 139 147
f 109 147 110
f 110 147 148
f 110 148 149
f 110 149 150
f 110 150 111
f 111 150 112
f 112 150 151
f 112 151 152
f 112 152 140
f 114 153 154
f 114 154 155
f 114 155 115
f 114 146 153
f 115 155 156
f 115 156 157
f 115 157 158
f 115 158 159
f 115 159 160
f 115 160 161
f 115 161 162
f 116 162 197
f 116 197 163
f 116 163 117
f 117 163 118
f 118 163 164
f 118 164 119
f 119 164 165
f 119 165 120
f 120 166 167
f 120 167 168
f 120 168 121
f 120 165 169
f 120 169 166
f 121 168 122
f 122 168 123
f 123 168 167
f 123 167 170
f 123 170 124
f 124 170 171
f 124 171 208
f 124 208 260
f 124 260 262
f 124 262 209
f 124 209 172
f 124 172 128
f 124 128 126
f 124 126 125
f 140 152 174
f 140 174 141
f 141 174 179
f 141 179 144
f 142 175 176
f 142 176 143
f 142 144 177
f 142 177 178
f 142 178 175
f 143 176 145
f 144 179 177
f 145 180 146
f 145 176 181
f 145 181 182
f 145 182 180
f 146 180 153
f 153 183 184
f 153 184 154
f 153 180 185
f 153 185 186
f 153 186 183
f 154 187 155
f 154 184 188
f 154 188 189
f 154 189 187
f 155 187 190
f 155 190 156
f 156 190 191
f 156 191 157
f 157 191 158
f 158 191 192
f 158 192 193
f 158 193 194
f 158 194 195
f 158 195 159
f 159 195 196
f 159 196 160
f 160 196 197
f 160 197 161
f 161 197 162
f 163 197 242
f 163 242 198
f 163 198 164
f 164 198 165
f 165 198 199
f 165 199 169
f 166 169 200
f 166 200 167
f 167 200 201
f 167 201 170
f 169 199 202
f 169 202 203
f 169 203 204
f 169 204 205
f 169 205 200
f 170 201 206
f 170 206 207
f 170 207 208
f 170 208 171
f 175 210 181
f 175 181 176
f 175 178 211
f 175 211 212
f 175 212 210
f 177 179 213
f 177 213 214
f 177 214 215
f 177 215 178
f 178 215 216
f 178 216 217
f 178 217 218
f 178 218 211
f 180 182 219
f 180 219 185
f 181 210 182
f 182 210 220
f 182 220 221
f 182 221 219
f 183 186 222
f 183 222 223
f 183 223 184
f 184 223 224
f 184 224 225
f 184 225 188
f 185 219 226
f 185 226 186
f 186 226 227
f 186 227 222
f 187 189 228
f 187 228 229
f 187 229 190
f 188 225 230
f 188 230 231
f 188 231 232
f 188 232 189
f 189 233 234
f 189 234 228
f 189 232 233
f 190 229 192
f 190 192 191
f 192 229 235
f 192 235 236
f 192 236 193
f 193 236 194
f 194 236 237
f 194 237 238
f 194 238 239
f 194 239 240
f 194 240 241
f 194 241 195
f 195 241 242
f 195 242 196
f 196 242 197
f 198 242 301
f 198 301 243
f 198 243 244
f 198 244 199
f 199 244 245
f 199 245 246
f 199 246 202
f 200 205 247
f 200 247 248
f 200 248 249
f 200 249 250
f 200 250 201
f 201 250 251
f 201 251 252
f 201 252 206
f 202 246 203
f 203 246 253
f 203 253 254
f 203 254 204
f 204 254 255
f 204 255 205
f 205 255 256
f 205 256 309
f 205 309 247
f 206 252 257
f 206 257 258
f 206 258 259
f 206 259 207
f 207 259 208
f 208 259 260
f 209 262 263
f 209 263 261
f 210 212 220
f 211 218 264
f 211 264 212
f 212 265 220
f 212 264 266
f 212 266 267
f 212 267 265
f 219 221 268
f 219 268 226
f 220 269 221
f 220 265 270
f 220 270 271
f 220 271 269
f 221 269 272
f 221 272 273
f 221 273 268
f 222 227 274
f 222 274 223
f 223 274 275
f 223 275 224
f 224 275 276
f 224 276 277
f 224 277 225
f 225 277 230
f 226 268 227
f 227 268 278
f 227 278 274
f 228 234 279
f 228 279 280
f 228 280 281
f 228 281 229
f 229 281 282
f 229 282 235
f 230 277 283
f 230 283 284
f 230 284 231
f 231 233 232
f 231 284 233
f 233 284 285
f 233 285 234
f 234 285 286
f 234 286 287
f 234 287 279
f 235 282 288
f 235 288 289
f 235 289 290
f 235 290 236
f 236 290 291
f 236 291 292
f 236 292 293
f 236 293 237
f 237 293 353
f 237 353 294
f 237 294 295
f 237 295 238
f 238 295 296
f 238 296 239
f 239 296 297
f 239 297 298
f 239 298 240
f 240 298 241
f 241 298 299
f 241 299 300
f 241 300 301
f 241 301 242
f 243 301 363
f 243 363 302
f 243 302 303
f 243 303 304
f 243 304 244
f 244 304 305
f 244 305 245
f 245 305 306
f 245 306 246
f 246 306 307
f 246 307 308
f 246 308 253
f 247 309 310
f 247 310 311
f 247 311 248
f 248 311 312
f 248 312 249
f 249 312 250
f 250 312 313
f 250 313 251
f 251 313 314
f 251 314 257
f 251 257 252
f 253 315 254
f 253 308 315
f 254 315 255
f 255 315 316
f 255 316 317
f 255 317 318
f 255 318 319
f 255 319 256
f 256 319 320
f 256 320 321
f 256 321 322
f 256 322 309
f 257 314 323
f 257 323 324
f 257 324 261
f 257 261 258
f 258 263 259
f 258 261 263
f 259 263 262
f 259 262 260
f 265 267 270
f 267 325 271
f 267 271 270
f 268 273 326
f 268 326 327
f 268 327 278
f 269 271 328
f 269 328 329
f 269 329 272
f 271 325 328
f 272 329 273
f 273 329 330
f 273 330 373
f 273 373 326
f 274 278 331
f 274 331 275
f 275 331 332
f 275 332 276
f 276 332 333
f 276 333 277
f 277 333 283
f 278 327 334
f 278 334 331
f 279 287 335
f 279 335 280
f 280 335 336
f 280 336 281
f 281 336 282
f 282 336 337
f 282 337 338
f 282 338 288
f 283 333 339
f 283 339 284
f 284 339 340
f 284 340 341
f 284 341 342
f 284 342 285
f 285 342 343
f 285 343 344
f 285 344 286
f 286 344 345
f 286 345 346
f 286 346 347
f 286 347 287
f 287 347 335
f 288 338 289
f 289 338 348
f 289 348 349
f 289 349 290
f 290 349 350
f 290 350 291
f 291 350 292
f 292 350 351
f 292 351 293
f 293 351 352
f 293 352 353
f 294 353 354
f 294 354 355
f 294 355 356
f 294 356 295
f 295 357 296
f 295 356 358
f 295 358 359
f 295 359 357
f 296 357 297
f 297 357 360
f 297 360 298
f 298 360 361
f 298 361 362
f 298 362 299
f 299 362 300
f 300 362 363
f 300 363 301
f 308 316 315
f 309 322 364
f 309 364 365
f 309 365 310
f 310 365 366
f 310 366 311
f 311 366 312
f 312 366 367
f 312 367 368
f 312 368 313
f 313 368 369
f 313 369 370
f 313 370 371
f 313 371 314
f 314 371 323
f 325 372 328
f 326 373 374
f 326 374 375
f 326 375 327
f 327 376 334
f 327 375 376
f 328 372 329
f 329 372 377
f 329 377 378
f 329 378 330
f 330 378 373
f 331 334 376
f 331 376 332
f 332 376 379
f 332 379 333
f 333 379 339
f 335 380 381
f 335 381 336
f 335 347 382
f 335 382 380
f 336 381 337
f 337 381 383
f 337 383 384
f 337 384 338
f 338 384 385
f 338 385 386
f 338 386 348
f 339 379 340
f 340 379 387
f 340 387 341
f 341 387 342
f 342 387 388
f 342 388 389
f 342 389 390
f 342 390 343
f 343 390 344
f 344 390 391
f 344 391 345
f 345 391 392
f 345 392 346
f 346 392 393
f 346 393 347
f 347 393 394
f 347 394 395
f 347 395 382
f 348 386 396
f 348 396 349
f 349 396 397
f 349 397 398
f 349 398 399
f 349 399 350
f 350 399 400
f 350 400 401
f 350 401 351
f 351 401 402
f 351 402 352
f 352 402 353
f 353 402 403
f 353 403 354
f 357 359 360
f 373 378 374
f 374 378 404
f 374 404 405
f 374 405 375
f 375 406 376
f 375 405 407
f 375 407 408
f 375 408 406
f 376 406 409
f 376 409 410
f 376 410 379
f 379 410 411
f 379 411 412
f 379 412 387
f 380 382 413
f 380 413 381
f 381 413 414
f 381 414 383
f 382 395 415
f 382 415 413
f 387 416 388
f 387 412 417
f 387 417 416
f 388 416 418
f 388 418 419
f 388 419 389
f 389 419 390
f 390 419 420
f 390 420 421
f 390 421 391
f 391 421 422
f 391 422 392
f 406 408 423
f 406 423 409
f 409 423 424
f 409 424 425
f 409 425 410
f 410 425 411
f 411 425 426
f 411 426 427
f 411 427 412
f 412 427 417
f 416 417 418

