# https://github.com/mikedh/trimesh
v -0.35845530 -0.00503132 0.48499647
v -0.35820490 -0.00503132 0.49499589
v -0.35845530 0.00498354 0.48499647
v -0.35424906 -0.00503132 0.46129119
v -0.35795456 -0.01504616 0.48499647
v -0.35369825 -0.00503132 0.50244635
v -0.35820490 0.00498354 0.49499589
v -0.35765409 -0.01504616 0.49499589
v -0.35279691 -0.03502578 0.50220817
v -0.35309732 -0.02501094 0.50231266
v -0.35339779 -0.01504616 0.50237954
v -0.35795456 0.01499838 0.48499647
v -0.35394859 0.01124281 0.46129119
v -0.35424906 0.00498354 0.46129119
v -0.35374832 -0.01504616 0.46129119
v -0.35324758 -0.02501094 0.46129119
v -0.35740376 -0.02501094 0.48499647
v -0.35369825 0.00498354 0.50244635
v -0.34498531 -0.05500541 0.50397992
v -0.35339779 0.01499838 0.50237954
v -0.35309732 0.02496316 0.50231266
v -0.35279691 0.03497800 0.50220817
v -0.35765409 0.01499838 0.49499589
v -0.35710329 -0.02501094 0.49499589
v -0.35645229 -0.03502578 0.49499589
v -0.35224608 -0.04504063 0.50195330
v -0.34498531 -0.06502026 0.50370830
v -0.35740376 0.02496316 0.48499647
v -0.35324758 0.02496316 0.46129119
v -0.35299718 -0.02871643 0.46129119
v -0.35680282 -0.03502578 0.48499647
v -0.34498531 0.05495763 0.50397992
v -0.33497047 -0.10497950 0.50367486
v -0.33497047 -0.09501473 0.50391722
v -0.32495561 -0.12495913 0.50391304
v -0.05500540 -0.34498537 0.50397992
v -0.34498531 0.06497248 0.50370830
v -0.35224608 0.04499285 0.50195330
v -0.35645229 0.03497800 0.49499589
v -0.35710329 0.02496316 0.49499589
v -0.35535067 -0.04504063 0.49499589
v -0.35039333 -0.07203065 0.50047404
v -0.35094416 -0.06502026 0.50102562
v -0.35159510 -0.05500541 0.50155216
v -0.34573644 -0.07523540 0.50239623
v -0.34358323 -0.08504996 0.50235862
v -0.35680282 0.03497800 0.48499647
v -0.35254651 0.03497800 0.46129119
v -0.35254651 -0.03502578 0.46129119
v -0.35570121 -0.04504063 0.48499647
v -0.32495561 0.12496142 0.50391304
v -0.33497047 0.09496695 0.50391722
v -0.33497047 0.10498179 0.50367486
v 0.05495763 -0.34498537 0.50397992
v -0.34223121 -0.09501473 0.50187808
v -0.34107953 -0.10497950 0.50107580
v -0.33527091 -0.11454368 0.50222492
v -0.33241668 -0.12495913 0.50186974
v -0.32585695 -0.13577516 0.50266367
v -0.31499085 -0.15495360 0.50347430
v -0.29496115 -0.18499814 0.50386709
v -0.12495911 -0.32495564 0.50391304
v -0.09501471 -0.33497050 0.50391722
v -0.10497949 -0.33497050 0.50367486
v -0.06502025 -0.34498537 0.50370830
v -0.03502578 -0.35279694 0.50220817
v -0.02501093 -0.35309738 0.50231266
v -0.01504616 -0.35339782 0.50237954
v -0.00503131 -0.35369825 0.50244635
v -0.34358323 0.08495210 0.50235862
v -0.34573644 0.07518762 0.50239623
v -0.35094416 0.06497248 0.50102562
v -0.35159510 0.05495763 0.50155216
v -0.35039333 0.07198288 0.50047404
v -0.35535067 0.04499285 0.49499589
v -0.35239631 -0.06502026 0.49499589
v -0.35064369 -0.07523540 0.49400973
v -0.34954208 -0.07874060 0.49668407
v -0.34032840 -0.11093834 0.50039464
v -0.35570121 0.04499285 0.48499647
v -0.35179541 0.04128736 0.46129119
v -0.35134476 -0.04504063 0.46129119
v -0.35044342 -0.07218087 0.47884557
v -0.35414892 -0.05500541 0.48499647
v -0.31499085 0.15305308 0.50348687
v -0.31664330 0.15305308 0.50322360
v 0.12496142 -0.32495564 0.50391304
v -0.32585695 0.13577746 0.50266367
v -0.33241668 0.12496142 0.50186974
v -0.33527091 0.11454597 0.50222492
v -0.34107953 0.10498179 0.50107580
v -0.34223121 0.09496695 0.50187808
v 0.00498354 -0.35369825 0.50244635
v 0.01499839 -0.35339782 0.50237954
v 0.02496316 -0.35309738 0.50231266
v 0.03497802 -0.35279694 0.50220817
v 0.06497248 -0.34498537 0.50370830
v 0.10498179 -0.33497050 0.50367486
v 0.09496695 -0.33497050 0.50391722
v -0.33101460 -0.13302109 0.50097549
v -0.32350346 -0.14498882 0.50219566
v -0.31489068 -0.16406710 0.50179452
v -0.30597746 -0.17593470 0.50268871
v -0.28499639 -0.20497777 0.50351608
v -0.27498153 -0.21499261 0.50380862
v -0.18499812 -0.29496118 0.50386709
v -0.15495357 -0.31499088 0.50347430
v -0.12495911 -0.33241671 0.50186974
v -0.11454367 -0.33527094 0.50222492
v -0.10497949 -0.34107956 0.50107580
v -0.09501471 -0.34223127 0.50187808
v -0.08504994 -0.34358329 0.50235862
v -0.13577515 -0.32585698 0.50266367
v -0.07523539 -0.34573644 0.50239623
v -0.06502025 -0.35094416 0.50102562
v -0.05500540 -0.35159516 0.50155216
v -0.04504062 -0.35224611 0.50195330
v -0.03502578 -0.35645235 0.49499589
v -0.02501093 -0.35710332 0.49499589
v -0.01504616 -0.35765412 0.49499589
v -0.00503131 -0.35820496 0.49499589
v -0.34954208 0.07869282 0.49668407
v -0.35064369 0.07518762 0.49400973
v -0.35239631 0.06497248 0.49499589
v -0.34032840 0.11094064 0.50039464
v -0.35254651 -0.06502026 0.48499647
v -0.34999275 -0.08004253 0.49001917
v -0.34273195 -0.10497950 0.49499589
v -0.34072900 -0.11203997 0.49499589
v -0.32981282 -0.13968095 0.49891126
v -0.35414892 0.05495763 0.48499647
v -0.35044342 0.07213309 0.47884557
v -0.35134476 0.04499285 0.46129119
v -0.35029319 -0.05185073 0.46129119
v -0.34894118 -0.05996276 0.46129119
v -0.34808993 -0.06502026 0.46129119
v -0.34738886 -0.06872575 0.46129119
v -0.34618711 -0.07503510 0.46129119
v -0.34378353 -0.08504996 0.46129119
v -0.34969229 -0.07884075 0.48331249
v -0.35069376 -0.07533555 0.48598680
v 0.14499111 0.13497627 0.48279434
v 0.13497627 0.14499111 0.48279434
v 0.12496142 0.15305308 0.48279852
v 0.15300299 -0.31499088 0.50348687
v -0.32165071 0.15305308 0.50121784
v -0.32350346 0.14499111 0.50219566
v 0.15300299 -0.31664333 0.50322360
v -0.33101460 0.13302337 0.50097549
v 0.00498354 -0.35820496 0.49499589
v 0.01499839 -0.35765412 0.49499589
v 0.02496316 -0.35710332 0.49499589
v 0.03497802 -0.35645235 0.49499589
v 0.04499286 -0.35224611 0.50195330
v 0.05495763 -0.35159516 0.50155216
v 0.06497248 -0.35094416 0.50102562
v 0.07518762 -0.34573644 0.50239623
v 0.08495210 -0.34358329 0.50235862
v 0.09496695 -0.34223127 0.50187808
v 0.10498179 -0.34107956 0.50107580
v 0.11454597 -0.33527094 0.50222492
v 0.12496142 -0.33241671 0.50186974
v 0.13577746 -0.32585698 0.50266367
v -0.32004833 -0.16011125 0.50007707
v -0.32120007 -0.15495360 0.50097966
v -0.31148565 -0.17328078 0.50119698
v -0.30322340 -0.18499814 0.50190318
v -0.29521152 -0.19496292 0.50247145
v -0.28444555 -0.21409127 0.50145602
v -0.27473116 -0.22455680 0.50203687
v -0.26506683 -0.23497224 0.50239623
v -0.25510204 -0.24508724 0.50250071
v -0.21499258 -0.27498156 0.50380862
v -0.20497775 -0.28499639 0.50351608
v -0.16406709 -0.31489074 0.50179452
v -0.14498881 -0.32350349 0.50219566
v -0.17593469 -0.30597752 0.50268871
v -0.13302106 -0.33101463 0.50097549
v -0.11093833 -0.34032845 0.50039464
v -0.07203063 -0.35039335 0.50047404
v -0.04504062 -0.35535070 0.49499589
v -0.03502578 -0.35680288 0.48499647
v -0.02501093 -0.35740376 0.48499647
v -0.01504616 -0.35795456 0.48499647
v -0.00503131 -0.35850540 0.48499647
v -0.34999275 0.07999475 0.49001917
v -0.34273195 0.10498179 0.49499589
v -0.35254651 0.06497248 0.48499647
v -0.32981282 0.13968325 0.49891126
v -0.34072900 0.11204226 0.49499589
v -0.34999275 -0.08004253 0.48997739
v -0.34288222 -0.10497950 0.48499647
v -0.34077907 -0.11214012 0.48499647
v -0.33016336 -0.14043206 0.49224219
v -0.32806021 -0.14423771 0.49534690
v -0.32305279 -0.15495360 0.49499589
v -0.35069376 0.07528777 0.48598680
v -0.34969229 0.07879297 0.48331249
v -0.34378353 0.08495210 0.46129119
v -0.34468487 0.08124660 0.46129119
v -0.34618711 0.07498732 0.46129119
v -0.34808993 0.06497248 0.46129119
v -0.34999275 0.05365570 0.46129119
v -0.35029319 0.05180295 0.46129119
v -0.34122974 -0.09461413 0.46129119
v -0.34037846 -0.11103848 0.47905031
v 0.15300299 0.12496142 0.48279852
v 0.15300299 0.13497627 0.48201713
v 0.15300299 0.15305308 0.48057967
v 0.13497627 0.15305308 0.48201713
v -0.32245189 0.15305308 0.49995592
v 0.14499111 -0.32350349 0.50219566
v 0.15300299 -0.32165074 0.50121784
v 0.00498354 -0.35850540 0.48499647
v 0.01499839 -0.35795456 0.48499647
v 0.02496316 -0.35740376 0.48499647
v 0.03497802 -0.35680288 0.48499647
v 0.04499286 -0.35535070 0.49499589
v 0.07198288 -0.35039335 0.50047404
v 0.11094064 -0.34032845 0.50039464
v 0.13302337 -0.33101463 0.50097549
v -0.32029873 -0.16066206 0.49499589
v -0.30993336 -0.17994064 0.49979714
v -0.30102015 -0.19160795 0.50089192
v -0.29165626 -0.20497777 0.50115520
v -0.28074008 -0.22090137 0.50064957
v -0.29010394 -0.21018548 0.50014395
v -0.27127606 -0.23161726 0.50099224
v -0.26176193 -0.24183241 0.50117189
v -0.25184724 -0.25184727 0.50117189
v -0.24508721 -0.25510210 0.50250071
v -0.23497221 -0.26506686 0.50239623
v -0.22455677 -0.27473119 0.50203687
v -0.21409126 -0.28444558 0.50145602
v -0.19496289 -0.29521155 0.50247145
v -0.18499812 -0.30322343 0.50190318
v -0.17328075 -0.31148568 0.50119698
v -0.15495357 -0.32120007 0.50097966
v -0.16011122 -0.32004839 0.50007707
v -0.13968094 -0.32981285 0.49891126
v -0.11203995 -0.34072906 0.49499589
v -0.10497949 -0.34273201 0.49499589
v -0.07874058 -0.34954208 0.49668407
v -0.07523539 -0.35064375 0.49400973
v -0.06502025 -0.35239634 0.49499589
v -0.04504062 -0.35570124 0.48499647
v -0.03502578 -0.35254657 0.46129119
v -0.02871642 -0.35299721 0.46129119
v -0.02501093 -0.35324758 0.46129119
v -0.01504616 -0.35374835 0.46129119
v -0.00503131 -0.35424909 0.46129119
v -0.34288222 0.10498179 0.48499647
v -0.34999275 0.07999475 0.48997739
v -0.32395414 0.15305308 0.49506277
v -0.32806021 0.14424001 0.49534690
v -0.33016336 0.14043435 0.49224219
v -0.34077907 0.11214241 0.48499647
v -0.32991296 -0.13978110 0.48100170
v -0.33887625 -0.11714754 0.48499647
v -0.33016336 -0.14043206 0.48766661
v -0.32325310 -0.15495360 0.48499647
v -0.34037846 0.11104079 0.47905031
v -0.34122974 0.09456636 0.46129119
v -0.34037846 -0.09776881 0.46129119
v -0.33987772 -0.09962156 0.46129119
v -0.33832544 -0.10497950 0.46129119
v -0.33712366 -0.10868499 0.46129119
v -0.33502054 -0.11499435 0.46129119
v -0.33376867 -0.11834933 0.46129119
v 0.15300299 0.15305308 0.46129119
v 0.13968325 -0.32981285 0.49891126
v 0.15300299 -0.32245195 0.49995592
v 0.00498354 -0.35424909 0.46129119
v 0.01124282 -0.35394862 0.46129119
v 0.02496316 -0.35324758 0.46129119
v 0.04499286 -0.35570124 0.48499647
v 0.03497802 -0.35254657 0.46129119
v 0.06497248 -0.35239634 0.49499589
v 0.07518762 -0.35064375 0.49400973
v 0.07869282 -0.34954208 0.49668407
v 0.10498179 -0.34273201 0.49499589
v 0.11204226 -0.34072906 0.49499589
v -0.31028387 -0.18044138 0.49313223
v -0.29045445 -0.21058607 0.49499589
v -0.26812136 -0.23787655 0.49499589
v -0.28144109 -0.22175264 0.49499589
v -0.27227753 -0.23286912 0.49499589
v -0.26311392 -0.24323449 0.49499589
v -0.25825673 -0.24824192 0.49499589
v -0.24824189 -0.25825676 0.49499589
v -0.24183238 -0.26176196 0.50117189
v -0.23161724 -0.27127606 0.50099224
v -0.22090134 -0.28074008 0.50064957
v -0.21018547 -0.29010397 0.50014395
v -0.20497775 -0.29165629 0.50115520
v -0.17994063 -0.30993336 0.49979714
v -0.19160792 -0.30102015 0.50089192
v -0.16066204 -0.32029873 0.49499589
v -0.15495357 -0.32305282 0.49499589
v -0.14423770 -0.32806027 0.49534690
v -0.14043204 -0.33016336 0.49224219
v -0.11214010 -0.34077913 0.48499647
v -0.10497949 -0.34288222 0.48499647
v -0.08004252 -0.34999275 0.49001917
v -0.06502025 -0.35254657 0.48499647
v -0.05500540 -0.35414892 0.48499647
v -0.07218086 -0.35044342 0.47884557
v -0.04504062 -0.35134476 0.46129119
v -0.32400420 0.15305308 0.49311134
v -0.32415444 0.15305308 0.48492545
v -0.33016336 0.14043435 0.48766661
v -0.32991296 0.13978340 0.48100170
v -0.33156544 -0.12415794 0.46129119
v -0.32966259 -0.12916537 0.46129119
v -0.32740927 -0.13497397 0.46129119
v -0.32585695 -0.13867947 0.46129119
v -0.32320303 -0.14498882 0.46129119
v -0.32220155 -0.14714202 0.46129119
v -0.32044894 -0.15089758 0.46129119
v -0.32009840 -0.16016132 0.47977740
v -0.32826054 -0.14423771 0.48459950
v -0.32034880 -0.16066206 0.48499647
v -0.33286735 0.12075518 0.46129119
v -0.33502054 0.11499664 0.46129119
v -0.33832544 0.10498179 0.46129119
v -0.33987772 0.09957378 0.46129119
v 0.15300299 -0.31939739 0.46129119
v -0.31939739 0.15305308 0.46129119
v 0.14043435 -0.33016336 0.49224219
v 0.14424001 -0.32806027 0.49534690
v 0.15300299 -0.32395416 0.49506277
v 0.04128736 -0.35179543 0.46129119
v 0.04499286 -0.35134476 0.46129119
v 0.07213309 -0.35044342 0.47884557
v 0.05495763 -0.35414892 0.48499647
v 0.06497248 -0.35254657 0.48499647
v 0.07999475 -0.34999275 0.49001917
v 0.10498179 -0.34288222 0.48499647
v 0.11214241 -0.34077913 0.48499647
v -0.31779501 -0.16566949 0.48499647
v -0.31298786 -0.17498329 0.48499647
v -0.31018370 -0.18034124 0.48499647
v -0.30697897 -0.18534866 0.48499647
v -0.29415995 -0.20497777 0.48499647
v -0.29045445 -0.21063615 0.48499647
v -0.28649861 -0.21564358 0.48499647
v -0.28149116 -0.22185278 0.48499647
v -0.26827157 -0.23802677 0.48499647
v -0.26331425 -0.24338470 0.48499647
v -0.27743518 -0.22686021 0.48499647
v -0.27242774 -0.23301934 0.48499647
v -0.25840694 -0.24839213 0.48499647
v -0.24839211 -0.25840700 0.48499647
v -0.24338469 -0.26331425 0.48499647
v -0.24323446 -0.26311398 0.49499589
v -0.23787652 -0.26812139 0.49499589
v -0.22175261 -0.28144115 0.49499589
v -0.21058606 -0.29045451 0.49499589
v -0.23286909 -0.27227753 0.49499589
v -0.18044136 -0.31028390 0.49313223
v -0.15495357 -0.32325312 0.48499647
v -0.14043204 -0.33016336 0.48766243
v -0.11714753 -0.33887631 0.48499647
v -0.13978109 -0.32991302 0.48100170
v -0.11103847 -0.34037852 0.47905031
v -0.07884073 -0.34969234 0.48331249
v -0.08004252 -0.34999275 0.48997739
v -0.07533554 -0.35069382 0.48598680
v -0.08504994 -0.34378356 0.46129119
v -0.07503510 -0.34618711 0.46129119
v -0.06872573 -0.34738892 0.46129119
v -0.06502025 -0.34808993 0.46129119
v -0.05996275 -0.34894121 0.46129119
v -0.05185072 -0.35029322 0.46129119
v -0.32826054 0.14424001 0.48459950
v -0.32044894 0.15089989 0.46129119
v -0.32320303 0.14499111 0.46129119
v -0.32740927 0.13497627 0.46129119
v -0.32966259 0.12916766 0.46129119
v -0.31884658 -0.15405226 0.46129119
v -0.31038404 -0.17067692 0.46129119
v -0.30998343 -0.17999071 0.47999886
v 0.15300299 -0.32415447 0.48492545
v 0.15089987 -0.32044896 0.46129119
v 0.14043435 -0.33016336 0.48766243
v 0.15300299 -0.32400423 0.49311134
v 0.05180295 -0.35029322 0.46129119
v 0.07879297 -0.34969234 0.48331249
v 0.07528777 -0.35069382 0.48598680
v 0.05365570 -0.34999275 0.46129119
v 0.06497248 -0.34808993 0.46129119
v 0.07498732 -0.34618711 0.46129119
v 0.08124661 -0.34468490 0.46129119
v 0.08495210 -0.34378356 0.46129119
v 0.07999475 -0.34999275 0.48997739
v 0.11104079 -0.34037852 0.47905031
v 0.13978340 -0.32991302 0.48100170
v -0.29015404 -0.21018548 0.47963530
v -0.26962358 -0.22956422 0.46129119
v -0.26792106 -0.23156719 0.46129119
v -0.26326415 -0.23697521 0.46129119
v -0.26030976 -0.24033017 0.46129119
v -0.25034499 -0.25034502 0.46129119
v -0.24033016 -0.26030982 0.46129119
v -0.23802674 -0.26827163 0.48499647
v -0.22686020 -0.27743518 0.48499647
v -0.22185276 -0.28149122 0.48499647
v -0.23301932 -0.27242777 0.48499647
v -0.21564355 -0.28649864 0.48499647
v -0.21063614 -0.29045451 0.48499647
v -0.20497775 -0.29416001 0.48499647
v -0.18534863 -0.30697900 0.48499647
v -0.18034121 -0.31018376 0.48499647
v -0.17498326 -0.31298792 0.48499647
v -0.16566947 -0.31779504 0.48499647
v -0.16066204 -0.32034880 0.48499647
v -0.16016130 -0.32009846 0.47977740
v -0.14423770 -0.32826054 0.48459950
v -0.15089756 -0.32044896 0.46129119
v -0.14714199 -0.32220155 0.46129119
v -0.14498881 -0.32320306 0.46129119
v -0.13867944 -0.32585698 0.46129119
v -0.13497396 -0.32740927 0.46129119
v -0.12916535 -0.32966262 0.46129119
v -0.12415792 -0.33156544 0.46129119
v -0.11834931 -0.33376873 0.46129119
v -0.10868498 -0.33712369 0.46129119
v -0.10497949 -0.33832547 0.46129119
v -0.09962154 -0.33987778 0.46129119
v -0.09776880 -0.34037852 0.46129119
v -0.09461412 -0.34122980 0.46129119
v -0.11499433 -0.33502057 0.46129119
v -0.30762994 -0.17568433 0.46129119
v -0.30262250 -0.18404673 0.46129119
v -0.29936767 -0.18905416 0.46129119
v -0.29110545 -0.20172295 0.46129119
v 0.14424001 -0.32826054 0.48459950
v 0.14499111 -0.32320306 0.46129119
v 0.09456636 -0.34122980 0.46129119
v 0.09957378 -0.33987778 0.46129119
v 0.10498179 -0.33832547 0.46129119
v 0.11499664 -0.33502057 0.46129119
v 0.12075518 -0.33286738 0.46129119
v 0.12916766 -0.32966262 0.46129119
v 0.13497627 -0.32740927 0.46129119
v -0.28770038 -0.20673037 0.46129119
v -0.28269297 -0.21339023 0.46129119
v -0.28018925 -0.21654491 0.46129119
v -0.27868700 -0.21839766 0.46129119
v -0.23697518 -0.26326418 0.46129119
v -0.23156716 -0.26792109 0.46129119
v -0.22956419 -0.26962361 0.46129119
v -0.21018547 -0.29015404 0.47963530
v -0.17999069 -0.30998343 0.47999886
v -0.15405224 -0.31884658 0.46129119
v -0.17067689 -0.31038404 0.46129119
v -0.21839765 -0.27868706 0.46129119
v -0.21654490 -0.28018928 0.46129119
v -0.21339022 -0.28269297 0.46129119
v -0.20673034 -0.28770041 0.46129119
v -0.20172292 -0.29110545 0.46129119
v -0.18905413 -0.29936773 0.46129119
v -0.18404672 -0.30262256 0.46129119
v -0.17568430 -0.30762994 0.46129119
f 1 2 7
f 1 7 3
f 1 3 14
f 1 14 4
f 1 4 15
f 1 15 5
f 1 5 2
f 2 6 18
f 2 18 7
f 2 5 8
f 2 8 9
f 2 9 10
f 2 10 11
f 2 11 6
f 3 7 12
f 3 12 13
f 3 13 14
f 4 14 13
f 4 13 29
f 4 29 48
f 4 48 81
f 4 81 133
f 4 133 204
f 4 204 203
f 4 203 202
f 4 202 201
f 4 201 200
f 4 200 199
f 4 199 263
f 4 263 326
f 4 326 325
f 4 325 324
f 4 324 323
f 4 323 379
f 4 379 378
f 4 378 377
f 4 377 376
f 4 376 328
f 4 328 270
f 4 270 327
f 4 327 384
f 4 384 438
f 4 438 445
f 4 445 444
f 4 444 443
f 4 443 442
f 4 442 441
f 4 441 440
f 4 440 439
f 4 439 394
f 4 394 393
f 4 393 392
f 4 392 391
f 4 391 390
f 4 390 387
f 4 387 333
f 4 333 332
f 4 332 277
f 4 277 275
f 4 275 274
f 4 274 273
f 4 273 251
f 4 251 250
f 4 250 249
f 4 249 248
f 4 248 247
f 4 247 308
f 4 308 374
f 4 374 373
f 4 373 372
f 4 372 371
f 4 371 370
f 4 370 369
f 4 369 431
f 4 431 430
f 4 430 429
f 4 429 428
f 4 428 427
f 4 427 432
f 4 432 426
f 4 426 425
f 4 425 424
f 4 424 423
f 4 423 422
f 4 422 421
f 4 421 420
f 4 420 419
f 4 419 455
f 4 455 456
f 4 456 464
f 4 464 463
f 4 463 462
f 4 462 461
f 4 461 460
f 4 460 459
f 4 459 458
f 4 458 457
f 4 457 452
f 4 452 451
f 4 451 450
f 4 450 404
f 4 404 403
f 4 403 402
f 4 402 401
f 4 401 400
f 4 400 399
f 4 399 449
f 4 449 448
f 4 448 447
f 4 447 446
f 4 446 436
f 4 436 435
f 4 435 434
f 4 434 433
f 4 433 381
f 4 381 380
f 4 380 319
f 4 319 318
f 4 318 317
f 4 317 316
f 4 316 315
f 4 315 314
f 4 314 313
f 4 313 269
f 4 269 268
f 4 268 267
f 4 267 266
f 4 266 265
f 4 265 264
f 4 264 205
f 4 205 139
f 4 139 138
f 4 138 137
f 4 137 136
f 4 136 135
f 4 135 134
f 4 134 82
f 4 82 49
f 4 49 30
f 4 30 16
f 4 16 15
f 5 15 16
f 5 16 17
f 5 17 24
f 5 24 8
f 6 11 19
f 6 19 32
f 6 32 18
f 7 18 20
f 7 20 21
f 7 21 22
f 7 22 23
f 7 23 12
f 8 24 9
f 9 24 25
f 9 25 26
f 9 26 27
f 9 27 19
f 9 19 10
f 10 19 11
f 12 23 40
f 12 40 28
f 12 28 29
f 12 29 13
f 16 30 31
f 16 31 17
f 17 31 24
f 18 32 20
f 19 27 33
f 19 33 34
f 19 34 35
f 19 35 62
f 19 62 36
f 19 36 54
f 19 54 32
f 20 32 21
f 21 32 22
f 22 32 37
f 22 37 38
f 22 38 39
f 22 39 40
f 22 40 23
f 24 31 25
f 25 31 50
f 25 50 41
f 25 41 42
f 25 42 43
f 25 43 44
f 25 44 26
f 26 44 27
f 27 44 43
f 27 43 45
f 27 45 46
f 27 46 33
f 28 40 47
f 28 47 29
f 29 47 48
f 30 49 31
f 31 49 50
f 32 51 52
f 32 52 53
f 32 53 37
f 32 54 87
f 32 87 51
f 33 46 55
f 33 55 56
f 33 56 57
f 33 57 58
f 33 58 59
f 33 59 60
f 33 60 35
f 33 35 34
f 35 60 61
f 35 61 106
f 35 106 62
f 36 62 63
f 36 63 64
f 36 64 65
f 36 65 66
f 36 66 67
f 36 67 68
f 36 68 69
f 36 69 93
f 36 93 54
f 37 70 71
f 37 71 72
f 37 72 73
f 37 73 38
f 37 53 70
f 38 73 39
f 39 47 40
f 39 73 72
f 39 72 74
f 39 74 75
f 39 75 80
f 39 80 47
f 41 50 76
f 41 76 42
f 42 76 77
f 42 77 78
f 42 78 79
f 42 79 56
f 42 56 55
f 42 55 43
f 43 55 46
f 43 46 45
f 47 80 48
f 48 80 81
f 49 82 50
f 50 82 83
f 50 83 84
f 50 84 76
f 51 85 86
f 51 86 53
f 51 53 52
f 51 87 85
f 53 86 88
f 53 88 89
f 53 89 90
f 53 90 91
f 53 91 92
f 53 92 70
f 54 93 94
f 54 94 95
f 54 95 96
f 54 96 97
f 54 97 98
f 54 98 99
f 54 99 87
f 56 79 58
f 56 58 57
f 58 100 101
f 58 101 59
f 58 79 100
f 59 101 60
f 60 101 102
f 60 102 103
f 60 103 104
f 60 104 61
f 61 104 105
f 61 105 173
f 61 173 106
f 62 107 64
f 62 64 63
f 62 106 107
f 64 108 109
f 64 109 110
f 64 110 111
f 64 111 112
f 64 112 65
f 64 107 113
f 64 113 108
f 65 112 114
f 65 114 115
f 65 115 116
f 65 116 117
f 65 117 66
f 66 117 118
f 66 118 119
f 66 119 120
f 66 120 121
f 66 121 67
f 67 121 68
f 68 121 69
f 69 121 150
f 69 150 93
f 70 92 72
f 70 72 71
f 72 92 74
f 74 122 123
f 74 123 124
f 74 124 75
f 74 92 91
f 74 91 125
f 74 125 122
f 75 124 80
f 76 126 127
f 76 127 77
f 76 84 126
f 77 127 78
f 78 127 128
f 78 128 79
f 79 128 129
f 79 129 130
f 79 130 100
f 80 124 131
f 80 131 132
f 80 132 133
f 80 133 81
f 82 134 83
f 83 126 84
f 83 134 135
f 83 135 136
f 83 136 137
f 83 137 138
f 83 138 139
f 83 139 140
f 83 140 141
f 83 141 126
f 85 142 143
f 85 143 144
f 85 144 210
f 85 210 209
f 85 209 270
f 85 270 328
f 85 328 310
f 85 310 309
f 85 309 254
f 85 254 211
f 85 211 146
f 85 146 86
f 85 87 145
f 85 145 142
f 86 146 147
f 86 147 88
f 87 99 98
f 87 98 148
f 87 148 145
f 88 147 89
f 89 149 125
f 89 125 91
f 89 91 90
f 89 147 149
f 93 150 94
f 94 150 95
f 95 150 96
f 96 150 151
f 96 151 152
f 96 152 153
f 96 153 154
f 96 154 97
f 97 154 155
f 97 155 156
f 97 156 157
f 97 157 158
f 97 158 98
f 98 158 159
f 98 159 160
f 98 160 161
f 98 161 162
f 98 162 163
f 98 163 148
f 100 130 164
f 100 164 165
f 100 165 101
f 101 165 102
f 102 165 166
f 102 166 167
f 102 167 103
f 103 167 168
f 103 168 104
f 104 168 169
f 104 169 170
f 104 170 171
f 104 171 105
f 105 171 172
f 105 172 231
f 105 231 173
f 106 173 174
f 106 174 107
f 107 175 176
f 107 176 113
f 107 174 177
f 107 177 175
f 108 178 179
f 108 179 110
f 108 110 109
f 108 113 176
f 108 176 178
f 110 179 180
f 110 180 111
f 111 180 115
f 111 115 112
f 112 115 114
f 115 180 118
f 115 118 116
f 116 118 117
f 118 181 246
f 118 246 182
f 118 182 119
f 118 180 181
f 119 182 183
f 119 183 184
f 119 184 120
f 120 184 185
f 120 185 121
f 121 185 214
f 121 214 150
f 122 186 123
f 122 125 187
f 122 187 186
f 123 186 124
f 124 188 131
f 124 186 188
f 125 149 189
f 125 189 190
f 125 190 187
f 126 141 191
f 126 191 127
f 127 191 192
f 127 192 129
f 127 129 128
f 129 192 193
f 129 193 194
f 129 194 130
f 130 194 195
f 130 195 196
f 130 196 164
f 131 188 132
f 132 197 198
f 132 198 199
f 132 199 200
f 132 200 201
f 132 201 202
f 132 202 203
f 132 203 204
f 132 204 133
f 132 188 197
f 139 205 206
f 139 206 140
f 140 206 192
f 140 192 191
f 140 191 141
f 142 207 208
f 142 208 209
f 142 209 143
f 142 145 207
f 143 209 210
f 143 210 144
f 145 148 213
f 145 213 272
f 145 272 331
f 145 331 386
f 145 386 383
f 145 383 327
f 145 327 270
f 145 270 209
f 145 209 208
f 145 208 207
f 146 211 189
f 146 189 149
f 146 149 147
f 148 163 212
f 148 212 213
f 150 214 215
f 150 215 151
f 151 215 216
f 151 216 152
f 152 216 217
f 152 217 153
f 153 217 276
f 153 276 218
f 153 218 219
f 153 219 156
f 153 156 155
f 153 155 154
f 156 219 159
f 156 159 158
f 156 158 157
f 159 219 160
f 160 219 220
f 160 220 162
f 160 162 161
f 162 221 212
f 162 212 163
f 162 220 221
f 164 196 222
f 164 222 223
f 164 223 166
f 164 166 165
f 166 223 167
f 167 224 225
f 167 225 168
f 167 223 224
f 168 225 169
f 169 226 170
f 169 225 227
f 169 227 226
f 170 226 228
f 170 228 171
f 171 228 229
f 171 229 172
f 172 230 231
f 172 229 230
f 173 231 232
f 173 232 174
f 174 232 233
f 174 233 234
f 174 234 235
f 174 235 177
f 175 177 236
f 175 236 237
f 175 237 238
f 175 238 176
f 176 238 178
f 177 235 236
f 178 238 239
f 178 239 240
f 178 240 179
f 179 241 242
f 179 242 243
f 179 243 180
f 179 240 241
f 180 243 244
f 180 244 245
f 180 245 181
f 181 245 246
f 182 246 247
f 182 247 248
f 182 248 249
f 182 249 183
f 183 249 184
f 184 249 185
f 185 249 250
f 185 250 251
f 185 251 273
f 185 273 214
f 186 187 190
f 186 190 252
f 186 252 253
f 186 253 188
f 188 253 197
f 189 211 254
f 189 254 255
f 189 255 256
f 189 256 190
f 190 256 257
f 190 257 252
f 192 206 193
f 193 206 258
f 193 258 259
f 193 259 260
f 193 260 194
f 194 260 261
f 194 261 222
f 194 222 196
f 194 196 195
f 197 253 198
f 198 253 252
f 198 252 262
f 198 262 199
f 199 262 263
f 205 264 206
f 206 264 265
f 206 265 266
f 206 266 267
f 206 267 268
f 206 268 269
f 206 269 258
f 212 221 213
f 213 221 271
f 213 271 272
f 214 273 274
f 214 274 275
f 214 275 215
f 215 275 216
f 216 275 217
f 217 275 277
f 217 277 276
f 218 276 278
f 218 278 219
f 219 278 279
f 219 279 280
f 219 280 220
f 220 280 281
f 220 281 282
f 220 282 271
f 220 271 221
f 222 261 283
f 222 283 223
f 223 283 284
f 223 284 227
f 223 227 224
f 224 227 225
f 226 285 228
f 226 227 285
f 227 284 286
f 227 286 287
f 227 287 285
f 228 285 229
f 229 285 288
f 229 288 289
f 229 289 230
f 230 289 290
f 230 290 291
f 230 291 231
f 231 291 232
f 232 291 292
f 232 292 233
f 233 292 293
f 233 293 234
f 234 293 294
f 234 294 295
f 234 295 235
f 235 295 236
f 236 296 237
f 236 295 297
f 236 297 296
f 237 239 238
f 237 296 239
f 239 298 299
f 239 299 240
f 239 296 298
f 240 299 300
f 240 300 301
f 240 301 241
f 241 302 303
f 241 303 304
f 241 304 242
f 241 301 302
f 242 304 243
f 243 304 244
f 244 304 245
f 245 304 305
f 245 305 306
f 245 306 246
f 246 306 307
f 246 307 308
f 246 308 247
f 252 257 262
f 254 309 256
f 254 256 255
f 256 309 310
f 256 310 311
f 256 311 257
f 257 311 312
f 257 312 262
f 258 269 313
f 258 313 314
f 258 314 315
f 258 315 316
f 258 316 317
f 258 317 318
f 258 318 319
f 258 319 320
f 258 320 261
f 258 261 321
f 258 321 260
f 258 260 259
f 260 321 261
f 261 320 322
f 261 322 283
f 262 312 323
f 262 323 324
f 262 324 325
f 262 325 326
f 262 326 263
f 271 329 330
f 271 330 331
f 271 331 272
f 271 282 329
f 276 277 332
f 276 332 333
f 276 333 334
f 276 334 335
f 276 335 278
f 278 336 337
f 278 337 279
f 278 335 336
f 279 337 280
f 280 337 281
f 281 337 282
f 282 337 338
f 282 338 339
f 282 339 329
f 283 322 340
f 283 340 341
f 283 341 342
f 283 342 343
f 283 343 344
f 283 344 345
f 283 345 284
f 284 345 346
f 284 346 347
f 284 347 286
f 285 348 349
f 285 349 288
f 285 287 351
f 285 351 348
f 286 347 350
f 286 350 351
f 286 351 287
f 288 349 289
f 289 352 353
f 289 353 290
f 289 349 352
f 290 353 354
f 290 354 355
f 290 355 291
f 291 355 356
f 291 356 292
f 292 356 293
f 293 356 294
f 294 357 358
f 294 358 296
f 294 296 297
f 294 297 295
f 294 356 359
f 294 359 357
f 296 358 360
f 296 360 298
f 298 361 301
f 298 301 299
f 298 360 361
f 299 301 300
f 301 361 362
f 301 362 302
f 302 362 363
f 302 363 364
f 302 364 365
f 302 365 303
f 303 365 366
f 303 366 367
f 303 367 304
f 304 367 305
f 305 367 368
f 305 368 307
f 305 307 306
f 307 366 369
f 307 369 370
f 307 370 371
f 307 371 372
f 307 372 373
f 307 373 374
f 307 374 308
f 307 368 366
f 310 328 312
f 310 312 375
f 310 375 311
f 311 375 312
f 312 328 376
f 312 376 377
f 312 377 378
f 312 378 379
f 312 379 323
f 319 380 320
f 320 380 381
f 320 381 382
f 320 382 340
f 320 340 322
f 327 383 384
f 329 385 383
f 329 383 386
f 329 386 331
f 329 331 330
f 329 339 385
f 333 387 334
f 334 388 389
f 334 389 336
f 334 336 335
f 334 387 390
f 334 390 391
f 334 391 392
f 334 392 393
f 334 393 394
f 334 394 388
f 336 389 395
f 336 395 337
f 337 395 338
f 338 395 388
f 338 388 396
f 338 396 339
f 339 396 397
f 339 397 385
f 340 382 341
f 341 382 342
f 342 382 343
f 343 382 344
f 344 382 345
f 345 382 398
f 345 398 346
f 346 398 347
f 347 398 350
f 348 399 400
f 348 400 401
f 348 401 402
f 348 402 349
f 348 351 398
f 348 398 399
f 349 402 352
f 350 398 351
f 352 403 353
f 352 402 403
f 353 403 404
f 353 404 354
f 354 405 356
f 354 356 355
f 354 404 405
f 356 405 408
f 356 408 359
f 357 406 407
f 357 407 358
f 357 359 408
f 357 408 406
f 358 407 409
f 358 409 410
f 358 410 360
f 360 410 411
f 360 411 412
f 360 412 413
f 360 413 414
f 360 414 415
f 360 415 416
f 360 416 361
f 361 416 417
f 361 417 364
f 361 364 418
f 361 418 362
f 362 418 364
f 362 364 363
f 364 417 419
f 364 419 420
f 364 420 421
f 364 421 422
f 364 422 423
f 364 423 424
f 364 424 425
f 364 425 426
f 364 426 365
f 365 427 428
f 365 428 429
f 365 429 430
f 365 430 431
f 365 431 369
f 365 369 366
f 365 426 432
f 365 432 427
f 366 368 367
f 381 433 382
f 382 433 434
f 382 434 435
f 382 435 436
f 382 436 398
f 383 385 437
f 383 437 397
f 383 397 384
f 384 397 438
f 385 397 437
f 388 395 389
f 388 394 396
f 394 439 396
f 396 439 440
f 396 440 441
f 396 441 442
f 396 442 443
f 396 443 397
f 397 443 444
f 397 444 445
f 397 445 438
f 398 436 446
f 398 446 447
f 398 447 448
f 398 448 449
f 398 449 399
f 404 450 405
f 405 450 451
f 405 451 452
f 405 452 453
f 405 453 408
f 406 453 407
f 406 408 453
f 407 453 409
f 409 453 410
f 410 453 454
f 410 454 411
f 411 454 412
f 412 454 413
f 413 454 414
f 414 454 415
f 415 454 417
f 415 417 416
f 417 455 419
f 417 454 456
f 417 456 455
f 452 457 453
f 453 457 458
f 453 458 459
f 453 459 460
f 453 460 461
f 453 461 454
f 454 462 463
f 454 463 464
f 454 464 456
f 454 461 462

