# https://github.com/mikedh/trimesh
v 0.33410111 0.11751175 0.46129119
v 0.33158311 0.12418680 0.46129119
v -0.15125367 0.11751175 0.46129119
v 0.33405361 0.11751175 -0.46493143
v 0.32882759 0.13134858 0.46129119
v 0.33153561 0.12414045 -0.46493143
v 0.32740229 0.13501059 -0.46493143
v -0.15125367 0.32031280 0.46129119
v -0.15125367 0.11751175 -0.47958088
v 0.33281836 0.11751175 -0.49498641
v 0.33091798 0.12251804 -0.49498641
v 0.32740229 0.13501059 0.46129119
v 0.32602453 0.13501059 -0.49498641
v 0.32208127 0.14462915 -0.49498641
v 0.32317397 0.14502317 -0.46493143
v 0.32322147 0.14502317 0.46129119
v -0.15092111 0.32047504 0.46129119
v -0.15125367 0.32026643 -0.46493143
v -0.15125367 0.30487674 -0.50339806
v 0.32208127 0.11751175 -0.50349253
v 0.33253330 0.11751175 -0.49716020
v 0.33053792 0.12152141 -0.50065720
v 0.32132110 0.14296038 -0.50131875
v 0.31970578 0.14961225 -0.49498641
v 0.32027590 0.15060888 -0.47268146
v 0.32041845 0.15091018 -0.46493143
v 0.32046595 0.15093336 0.46129119
v -0.14873570 0.32149485 0.46129119
v -0.15087360 0.32045186 -0.46493143
v -0.15058854 0.32028961 -0.47268146
v -0.15125367 0.31989563 -0.47315401
v -0.15125367 0.31435624 -0.50245291
v -0.13495800 0.31498203 -0.50415409
v 0.31495488 0.13501059 -0.50415409
v 0.32512185 0.11751175 -0.50349253
v 0.33129805 0.11751175 -0.50131875
v 0.32284141 0.13501059 -0.50235838
v 0.31333956 0.15501256 -0.50235838
v 0.31139168 0.16284648 -0.50141323
v 0.31219932 0.16444570 -0.49498641
v 0.31020394 0.17047179 -0.47211438
v 0.31790045 0.15591648 -0.46493143
v 0.31619012 0.15932353 0.46129119
v -0.14498246 0.32323313 0.46129119
v -0.14498246 0.32318678 -0.46493143
v -0.14460239 0.32209745 -0.49498641
v -0.14959085 0.31973338 -0.49498641
v -0.15125367 0.31889898 -0.49498641
v -0.14293957 0.32133260 -0.50131875
v -0.13495800 0.32286230 -0.50235838
v -0.11495660 0.32499462 -0.50387061
v -0.07495379 0.33498400 -0.50424862
v 0.07503301 0.33498400 -0.50424862
v 0.13498972 0.31498203 -0.50415409
v 0.17499253 0.29498005 -0.50405961
v 0.29495347 0.17501454 -0.50405961
v 0.33015785 0.11751175 -0.50188583
v 0.30312505 0.17501454 -0.50216937
v 0.30117717 0.18189818 -0.50112975
v 0.30963382 0.16945200 -0.49498641
v 0.30759093 0.17570986 -0.46493143
v 0.31034645 0.17070356 -0.46493143
v 0.30654573 0.17501454 -0.49498641
v 0.31329206 0.16500196 0.46129119
v -0.14127675 0.32478601 0.46129119
v -0.13495800 0.32740504 -0.46493143
v -0.13495800 0.32601440 -0.49498641
v -0.12151287 0.33055714 -0.50065720
v -0.11495660 0.33176237 -0.50179130
v -0.10497964 0.33329207 -0.50254738
v -0.08497825 0.33498400 -0.50358701
v -0.07495379 0.34235436 -0.50226390
v -0.06497683 0.34321195 -0.50264192
v -0.03499848 0.34499657 -0.50311446
v -0.01499707 0.34499657 -0.50368154
v -0.00497261 0.34499657 -0.50387061
v 0.00500434 0.34499657 -0.50387061
v 0.01502879 0.34499657 -0.50368154
v 0.03503020 0.34499657 -0.50311446
v 0.06500855 0.34321195 -0.50264192
v 0.07503301 0.34235436 -0.50226390
v 0.08500996 0.33498400 -0.50358701
v 0.11498831 0.32499462 -0.50387061
v 0.13498972 0.32286230 -0.50235838
v 0.15499112 0.31335962 -0.50235838
v 0.19499394 0.28499064 -0.50377607
v 0.20497090 0.27497807 -0.50396514
v 0.27499956 0.20500591 -0.50396514
v 0.17499253 0.30313843 -0.50216937
v 0.28497651 0.19501652 -0.50377607
v 0.29191285 0.19501652 -0.50150776
v 0.29538104 0.18514299 -0.50264192
v 0.29020253 0.20037046 -0.50027907
v 0.30188981 0.18298751 -0.49498641
v 0.30260247 0.18405367 -0.46493143
v 0.30573806 0.17883879 0.46129119
v 0.30759093 0.17573303 0.46129119
v 0.30863613 0.17387885 0.46129119
v 0.31034645 0.17074992 0.46129119
v -0.13495800 0.32742822 0.46129119
v -0.12911436 0.32965323 -0.46493143
v -0.12246305 0.33092797 -0.49498641
v -0.13282007 0.32826260 0.46129119
v -0.12916186 0.32967642 0.46129119
v -0.11495660 0.33375561 -0.49498641
v -0.09129698 0.34033796 -0.50046813
v -0.08497825 0.34114915 -0.50131875
v -0.04164978 0.35023463 -0.50027907
v -0.03499848 0.35058230 -0.50075167
v -0.02497402 0.35090679 -0.50122422
v -0.00497261 0.35143986 -0.50169683
v 0.00500434 0.35143986 -0.50169683
v 0.02500574 0.35090679 -0.50122422
v 0.03503020 0.35058230 -0.50075167
v 0.08500996 0.34114915 -0.50131875
v 0.11498831 0.33176237 -0.50179130
v 0.10496385 0.33329207 -0.50254738
v 0.04168150 0.35023463 -0.50027907
v 0.14292377 0.32133260 -0.50131875
v 0.16283016 0.31141272 -0.50141323
v 0.18511200 0.29539725 -0.50264192
v 0.20421073 0.28473571 -0.50188583
v 0.21490033 0.27511713 -0.50254738
v 0.22535238 0.26547539 -0.50283098
v 0.23570940 0.25574094 -0.50292546
v 0.24573386 0.24572837 -0.50292546
v 0.25571081 0.23576215 -0.50292546
v 0.26545021 0.22540191 -0.50283098
v 0.18183386 0.30119157 -0.50112975
v 0.19499394 0.29192066 -0.50150776
v 0.27509457 0.21494897 -0.50254738
v 0.28473896 0.20421788 -0.50188583
v 0.28122327 0.21156508 -0.50112975
v 0.28193593 0.21249217 -0.49498641
v 0.28697190 0.20567806 -0.49498641
v 0.29039258 0.20069495 -0.49498641
v 0.29937184 0.18905996 -0.46493143
v 0.30260247 0.18407685 0.46129119
v -0.12407837 0.33157694 -0.46493143
v -0.11495660 0.33503038 -0.46493143
v -0.12075273 0.33287486 0.46129119
v -0.10497964 0.33693090 -0.49498641
v -0.10497964 0.33829835 -0.46493143
v -0.09224715 0.34059292 -0.49498641
v -0.08497825 0.34251660 -0.49498641
v -0.07495379 0.34495023 -0.49498641
v -0.06497683 0.34678122 -0.49498641
v -0.04298004 0.35046643 -0.49498641
v -0.03499848 0.35134715 -0.49498641
v -0.02497402 0.35201931 -0.49498641
v -0.00497261 0.35306227 -0.49498641
v 0.00500434 0.35306227 -0.49498641
v 0.02500574 0.35201931 -0.49498641
v 0.09132870 0.34033796 -0.50046813
v 0.12149709 0.33055714 -0.50065720
v 0.03503020 0.35134715 -0.49498641
v 0.04301176 0.35046643 -0.49498641
v 0.06500855 0.34678122 -0.49498641
v 0.07503301 0.34495023 -0.49498641
v 0.14458659 0.32209745 -0.49498641
v 0.14957507 0.31973338 -0.49498641
v 0.16439795 0.31222394 -0.49498641
v 0.16943395 0.30962807 -0.49498641
v 0.21152717 0.28123593 -0.50112975
v 0.22231176 0.27187231 -0.50150776
v 0.23285884 0.26248553 -0.50169683
v 0.24288329 0.25289014 -0.50179130
v 0.25290775 0.24290074 -0.50179130
v 0.26245710 0.23291133 -0.50169683
v 0.17499253 0.30654550 -0.49498641
v 0.18292658 0.30191004 -0.49498641
v 0.20031497 0.29020554 -0.50027907
v 0.27186394 0.22234251 -0.50150776
v 0.26887086 0.22864673 -0.49498641
v 0.26963103 0.22959699 -0.46493143
v 0.27865776 0.21842556 -0.46493143
v 0.28269607 0.21341926 -0.46493143
v 0.28773206 0.20674421 -0.46493143
v 0.29110521 0.20176110 -0.46493143
v 0.29390827 0.19751966 0.46129119
v 0.29794654 0.19128498 0.46129119
v 0.29937184 0.18908313 0.46129119
v -0.11495660 0.33503038 0.46129119
v -0.11125087 0.33625877 0.46129119
v -0.10497964 0.33832154 0.46129119
v -0.09946857 0.33985123 -0.46493143
v -0.09956359 0.33987442 0.46129119
v -0.09448009 0.34119552 -0.46493143
v -0.08497825 0.34374499 -0.46493143
v -0.07495379 0.34617862 -0.46493143
v -0.06497683 0.34810233 -0.46493143
v -0.05110412 0.35016513 -0.47173634
v -0.04497542 0.35132396 -0.46493143
v -0.03499848 0.35252920 -0.46493143
v -0.02497402 0.35320133 -0.46493143
v -0.01499707 0.35373440 -0.46493143
v -0.00497261 0.35424432 -0.46493143
v 0.00500434 0.35424432 -0.46493143
v 0.01502879 0.35373440 -0.46493143
v 0.02500574 0.35320133 -0.46493143
v 0.08500996 0.34251660 -0.49498641
v 0.09223137 0.34059292 -0.49498641
v 0.10496385 0.33693090 -0.49498641
v 0.11498831 0.33375561 -0.49498641
v 0.12249478 0.33092797 -0.49498641
v 0.13498972 0.32601440 -0.49498641
v 0.03503020 0.35252920 -0.46493143
v 0.04500715 0.35132396 -0.46493143
v 0.05113585 0.35016513 -0.47173634
v 0.06500855 0.34810233 -0.46493143
v 0.07503301 0.34617862 -0.46493143
v 0.13498972 0.32740504 -0.46493143
v 0.14496666 0.32318678 -0.46493143
v 0.15057276 0.32028961 -0.47268146
v 0.17043164 0.31023067 -0.47211438
v 0.21242985 0.28197759 -0.49498641
v 0.21746582 0.27792159 -0.49498641
v 0.22863051 0.26885927 -0.49498641
v 0.23447415 0.26385298 -0.49498641
v 0.23946261 0.25949568 -0.49498641
v 0.24449861 0.25448936 -0.49498641
v 0.25447556 0.24449997 -0.49498641
v 0.25946403 0.23947051 -0.49498641
v 0.17565766 0.30761164 -0.46493143
v 0.20064753 0.29041412 -0.49498641
v 0.18401930 0.30260536 -0.46493143
v 0.19499394 0.29548994 -0.46493143
v 0.20563602 0.28696072 -0.49498641
v 0.26383489 0.23448740 -0.49498641
v 0.26017666 0.24021217 -0.47154731
v 0.27870530 0.21842556 -0.45491311
v 0.26497510 0.23502047 -0.46493143
v 0.26792067 0.23161341 0.46129119
v 0.26963103 0.22959699 0.46129119
v 0.27115130 0.22774281 0.46129119
v 0.28269607 0.21341926 0.46129119
v 0.28587919 0.20922418 0.46129119
v 0.28773206 0.20676738 0.46129119
v 0.29110521 0.20176110 0.46129119
v -0.09105942 0.34216896 0.46129119
v -0.08497825 0.34376818 0.46129119
v -0.08127252 0.34467208 0.46129119
v -0.07495379 0.34620181 0.46129119
v -0.05167424 0.35025781 -0.46493143
v -0.06497683 0.34810233 0.46129119
v -0.05680523 0.34946978 0.46129119
v -0.05181677 0.35028100 0.46129119
v -0.04934628 0.35067502 0.46129119
v -0.04497542 0.35137033 0.46129119
v -0.03499848 0.35257554 0.46129119
v -0.03124525 0.35283050 0.46129119
v -0.02497402 0.35324770 0.46129119
v -0.00497261 0.35429066 0.46129119
v 0.00500434 0.35429066 0.46129119
v 0.02500574 0.35324770 0.46129119
v 0.08500996 0.34374499 -0.46493143
v 0.09950029 0.33985123 -0.46493143
v 0.10496385 0.33829835 -0.46493143
v 0.11498831 0.33503038 -0.46493143
v 0.12411010 0.33157694 -0.46493143
v 0.03503020 0.35257554 0.46129119
v 0.05170596 0.35025781 -0.46493143
v 0.04500715 0.35137033 0.46129119
v 0.04752514 0.35097632 0.46129119
v 0.05503161 0.34977108 0.46129119
v 0.05688447 0.34946978 0.46129119
v 0.05992506 0.34895989 0.46129119
v 0.06500855 0.34810233 0.46129119
v 0.06871428 0.34740701 0.46129119
v 0.07503301 0.34620181 0.46129119
v 0.13133150 0.32884204 0.46129119
v 0.13498972 0.32742822 0.46129119
v 0.13869545 0.32587534 0.46129119
v 0.14496666 0.32323313 0.46129119
v 0.15085782 0.32045186 -0.46493143
v 0.15589380 0.31790236 -0.46493143
v 0.16496807 0.31326690 -0.46493143
v 0.17066920 0.31034657 -0.46493143
v 0.20672873 0.28772557 -0.46493143
v 0.21338004 0.28271928 -0.46493143
v 0.21836850 0.27868643 -0.46493143
v 0.22953320 0.26964730 -0.46493143
v 0.24022278 0.26021415 -0.47154731
v 0.25019974 0.25022477 -0.47154731
v 0.17071670 0.31036976 0.46129119
v 0.17570516 0.30761164 0.46129119
v 0.20174026 0.29110944 -0.46493143
v 0.18401930 0.30262855 0.46129119
v 0.18720242 0.30058897 0.46129119
v 0.26031920 0.24032806 -0.46493143
v 0.27870530 0.21842556 0.44494054
v 0.26497510 0.23502047 0.46129119
v 0.28017807 0.21657138 0.46129119
v 0.08500996 0.34376818 0.46129119
v 0.08852565 0.34284109 0.46129119
v 0.09769494 0.34038430 0.46129119
v 0.09954780 0.33987442 0.46129119
v 0.10159070 0.33929497 0.46129119
v 0.10496385 0.33832154 0.46129119
v 0.10866958 0.33711630 0.46129119
v 0.11498831 0.33503038 0.46129119
v 0.12415761 0.33157694 0.46129119
v 0.12914608 0.32967642 0.46129119
v 0.15090533 0.32047504 0.46129119
v 0.16710600 0.31222394 0.46129119
v 0.20174026 0.29113263 0.46129119
v 0.20672873 0.28772557 0.46129119
v 0.20919922 0.28587139 0.46129119
v 0.22454470 0.27370334 -0.45491311
v 0.21338004 0.28271928 0.46129119
v 0.22069645 0.27683225 0.46129119
v 0.23499677 0.26496550 -0.46493143
v 0.22772783 0.27115381 0.46129119
v 0.22958070 0.26964730 0.46129119
v 0.24031779 0.26033005 -0.46493143
v 0.25034225 0.25034064 -0.46493143
v 0.25718358 0.24348018 0.46129119
v 0.26031920 0.24032806 0.46129119
v 0.23499677 0.26498866 0.46129119
v 0.24031779 0.26033005 0.46129119
v 0.25034225 0.25034064 0.46129119
f 1 2 5
f 1 5 12
f 1 12 16
f 1 16 27
f 1 27 43
f 1 43 64
f 1 64 99
f 1 99 98
f 1 98 97
f 1 97 96
f 1 96 138
f 1 138 182
f 1 182 181
f 1 181 180
f 1 180 239
f 1 239 238
f 1 238 237
f 1 237 236
f 1 236 293
f 1 293 235
f 1 235 234
f 1 234 233
f 1 233 292
f 1 292 318
f 1 318 317
f 1 317 321
f 1 321 320
f 1 320 319
f 1 319 314
f 1 314 313
f 1 313 311
f 1 311 310
f 1 310 308
f 1 308 307
f 1 307 306
f 1 306 289
f 1 289 288
f 1 288 286
f 1 286 285
f 1 285 305
f 1 305 304
f 1 304 274
f 1 274 273
f 1 273 272
f 1 272 271
f 1 271 303
f 1 303 302
f 1 302 301
f 1 301 300
f 1 300 299
f 1 299 298
f 1 298 297
f 1 297 296
f 1 296 295
f 1 295 294
f 1 294 270
f 1 270 269
f 1 269 268
f 1 268 267
f 1 267 266
f 1 266 265
f 1 265 264
f 1 264 263
f 1 263 261
f 1 261 255
f 1 255 254
f 1 254 253
f 1 253 252
f 1 252 251
f 1 251 250
f 1 250 249
f 1 249 248
f 1 248 247
f 1 247 246
f 1 246 245
f 1 245 243
f 1 243 242
f 1 242 241
f 1 241 240
f 1 240 187
f 1 187 185
f 1 185 184
f 1 184 183
f 1 183 141
f 1 141 104
f 1 104 103
f 1 103 100
f 1 100 65
f 1 65 44
f 1 44 28
f 1 28 17
f 1 17 8
f 1 8 3
f 1 3 9
f 1 9 20
f 1 20 35
f 1 35 57
f 1 57 36
f 1 36 21
f 1 21 10
f 1 10 4
f 1 4 2
f 2 4 6
f 2 6 7
f 2 7 5
f 3 8 18
f 3 18 31
f 3 31 48
f 3 48 32
f 3 32 19
f 3 19 9
f 4 10 11
f 4 11 6
f 5 7 12
f 6 11 7
f 7 11 13
f 7 13 14
f 7 14 15
f 7 15 16
f 7 16 12
f 8 17 29
f 8 29 18
f 9 19 20
f 10 21 11
f 11 21 22
f 11 22 13
f 13 22 14
f 14 22 23
f 14 23 24
f 14 24 25
f 14 25 15
f 15 25 26
f 15 26 27
f 15 27 16
f 17 28 29
f 18 29 30
f 18 30 31
f 19 32 33
f 19 33 20
f 20 33 34
f 20 34 35
f 21 36 22
f 22 36 23
f 23 36 37
f 23 37 38
f 23 38 39
f 23 39 24
f 24 39 40
f 24 40 25
f 25 41 42
f 25 42 26
f 25 40 41
f 26 42 27
f 27 42 43
f 28 44 45
f 28 45 29
f 29 45 30
f 30 45 46
f 30 46 47
f 30 47 48
f 30 48 31
f 32 48 49
f 32 49 50
f 32 50 33
f 33 51 52
f 33 52 34
f 33 50 51
f 34 52 53
f 34 53 54
f 34 54 55
f 34 55 56
f 34 56 38
f 34 38 37
f 34 37 35
f 35 37 57
f 36 57 37
f 38 58 39
f 38 56 58
f 39 58 59
f 39 59 60
f 39 60 40
f 40 60 41
f 41 61 62
f 41 62 42
f 41 60 63
f 41 63 61
f 42 62 64
f 42 64 43
f 44 65 66
f 44 66 45
f 45 66 46
f 46 67 68
f 46 68 49
f 46 49 47
f 46 66 67
f 47 49 48
f 49 69 50
f 49 68 69
f 50 70 51
f 50 69 70
f 51 71 52
f 51 70 71
f 52 71 72
f 52 72 73
f 52 73 74
f 52 74 75
f 52 75 76
f 52 76 77
f 52 77 53
f 53 77 78
f 53 78 79
f 53 79 80
f 53 80 81
f 53 81 82
f 53 82 83
f 53 83 54
f 54 83 84
f 54 84 85
f 54 85 55
f 55 86 87
f 55 87 88
f 55 88 56
f 55 85 89
f 55 89 86
f 56 88 90
f 56 90 58
f 58 91 59
f 58 90 92
f 58 92 91
f 59 91 93
f 59 93 94
f 59 94 63
f 59 63 60
f 61 63 94
f 61 94 95
f 61 95 96
f 61 96 97
f 61 97 98
f 61 98 62
f 62 98 99
f 62 99 64
f 65 100 66
f 66 101 102
f 66 102 67
f 66 100 103
f 66 103 104
f 66 104 101
f 67 102 68
f 68 102 105
f 68 105 106
f 68 106 69
f 69 106 107
f 69 107 70
f 70 107 72
f 70 72 71
f 72 107 108
f 72 108 109
f 72 109 73
f 73 109 110
f 73 110 74
f 74 111 75
f 74 110 111
f 75 111 76
f 76 111 112
f 76 112 77
f 77 112 78
f 78 112 79
f 79 112 113
f 79 113 80
f 80 113 114
f 80 114 81
f 81 115 116
f 81 116 117
f 81 117 82
f 81 114 118
f 81 118 115
f 82 117 83
f 83 117 84
f 84 116 119
f 84 119 85
f 84 117 116
f 85 119 120
f 85 120 89
f 86 89 121
f 86 121 122
f 86 122 123
f 86 123 124
f 86 124 87
f 87 124 125
f 87 125 126
f 87 126 127
f 87 127 88
f 88 127 128
f 88 128 90
f 89 120 129
f 89 129 130
f 89 130 121
f 90 128 131
f 90 131 132
f 90 132 92
f 91 92 132
f 91 132 133
f 91 133 93
f 93 133 134
f 93 134 135
f 93 135 136
f 93 136 94
f 94 136 137
f 94 137 95
f 95 137 182
f 95 182 138
f 95 138 96
f 101 139 102
f 101 104 139
f 102 139 140
f 102 140 105
f 104 141 139
f 105 142 106
f 105 140 143
f 105 143 142
f 106 142 144
f 106 144 145
f 106 145 146
f 106 146 108
f 106 108 107
f 108 146 147
f 108 147 148
f 108 148 149
f 108 149 150
f 108 150 109
f 109 150 151
f 109 151 110
f 110 151 111
f 111 151 152
f 111 152 112
f 112 152 113
f 113 152 114
f 114 152 153
f 114 153 118
f 115 118 154
f 115 154 116
f 116 154 155
f 116 155 119
f 118 153 156
f 118 156 157
f 118 157 158
f 118 158 159
f 118 159 154
f 119 155 160
f 119 160 161
f 119 161 120
f 120 161 162
f 120 162 163
f 120 163 129
f 121 130 122
f 122 130 164
f 122 164 123
f 123 164 165
f 123 165 166
f 123 166 124
f 124 166 125
f 125 166 167
f 125 167 168
f 125 168 126
f 126 168 127
f 127 168 169
f 127 169 128
f 128 169 131
f 129 163 170
f 129 170 171
f 129 171 172
f 129 172 130
f 130 172 164
f 131 169 173
f 131 173 133
f 131 133 132
f 133 173 174
f 133 174 134
f 134 174 175
f 134 175 176
f 134 176 177
f 134 177 178
f 134 178 135
f 135 178 136
f 136 178 179
f 136 179 137
f 137 179 180
f 137 180 181
f 137 181 182
f 139 141 140
f 140 141 183
f 140 183 184
f 140 184 185
f 140 185 143
f 142 143 144
f 143 186 144
f 143 185 187
f 143 187 186
f 144 186 188
f 144 188 189
f 144 189 145
f 145 189 190
f 145 190 146
f 146 190 191
f 146 191 147
f 147 191 192
f 147 192 148
f 148 192 193
f 148 193 194
f 148 194 149
f 149 194 195
f 149 195 150
f 150 195 196
f 150 196 151
f 151 196 197
f 151 197 198
f 151 198 152
f 152 198 199
f 152 199 153
f 153 199 200
f 153 200 207
f 153 207 156
f 154 159 201
f 154 201 202
f 154 202 203
f 154 203 204
f 154 204 155
f 155 204 205
f 155 205 206
f 155 206 160
f 156 207 157
f 157 207 208
f 157 208 209
f 157 209 158
f 158 209 210
f 158 210 159
f 159 210 211
f 159 211 256
f 159 256 201
f 160 206 212
f 160 212 213
f 160 213 214
f 160 214 161
f 161 214 162
f 162 214 215
f 162 215 163
f 163 215 170
f 164 172 216
f 164 216 217
f 164 217 218
f 164 218 165
f 165 218 219
f 165 219 220
f 165 220 166
f 166 220 167
f 167 220 221
f 167 221 168
f 168 221 222
f 168 222 223
f 168 223 169
f 169 223 173
f 170 215 224
f 170 224 171
f 171 225 172
f 171 224 226
f 171 226 227
f 171 227 225
f 172 225 228
f 172 228 216
f 173 223 229
f 173 229 174
f 174 229 230
f 174 230 175
f 175 231 176
f 175 230 232
f 175 232 233
f 175 233 234
f 175 234 235
f 175 235 231
f 176 231 177
f 177 231 291
f 177 291 236
f 177 236 237
f 177 237 178
f 178 237 238
f 178 238 179
f 179 238 239
f 179 239 180
f 186 187 240
f 186 240 188
f 188 240 189
f 189 240 241
f 189 241 242
f 189 242 190
f 190 242 243
f 190 243 191
f 191 244 192
f 191 243 245
f 191 245 246
f 191 246 247
f 191 247 244
f 192 244 193
f 193 244 248
f 193 248 249
f 193 249 250
f 193 250 194
f 194 250 251
f 194 251 195
f 195 251 252
f 195 252 196
f 196 252 253
f 196 253 197
f 197 253 254
f 197 254 198
f 198 254 199
f 199 254 255
f 199 255 200
f 200 255 261
f 200 261 207
f 201 256 202
f 202 256 257
f 202 257 258
f 202 258 203
f 203 258 204
f 204 258 259
f 204 259 205
f 205 259 260
f 205 260 212
f 205 212 206
f 207 261 263
f 207 263 208
f 208 262 209
f 208 263 264
f 208 264 262
f 209 262 210
f 210 262 265
f 210 265 266
f 210 266 267
f 210 267 268
f 210 268 269
f 210 269 270
f 210 270 211
f 211 270 294
f 211 294 256
f 212 260 271
f 212 271 272
f 212 272 273
f 212 273 274
f 212 274 213
f 213 275 214
f 213 274 275
f 214 275 276
f 214 276 215
f 215 276 277
f 215 277 278
f 215 278 224
f 216 228 279
f 216 279 280
f 216 280 217
f 217 280 281
f 217 281 282
f 217 282 218
f 218 282 283
f 218 283 219
f 219 283 220
f 220 283 221
f 221 283 284
f 221 284 222
f 222 284 230
f 222 230 223
f 223 230 229
f 224 278 285
f 224 285 286
f 224 286 226
f 225 227 287
f 225 287 279
f 225 279 228
f 226 286 288
f 226 288 289
f 226 289 227
f 227 289 287
f 230 284 316
f 230 316 290
f 230 290 232
f 231 235 291
f 232 290 318
f 232 318 292
f 232 292 233
f 235 293 291
f 236 291 293
f 244 247 248
f 256 294 295
f 256 295 296
f 256 296 257
f 257 296 297
f 257 297 298
f 257 298 258
f 258 298 299
f 258 299 300
f 258 300 259
f 259 300 301
f 259 301 302
f 259 302 260
f 260 302 303
f 260 303 271
f 262 264 265
f 274 304 275
f 275 304 276
f 276 304 305
f 276 305 277
f 277 305 278
f 278 305 285
f 279 287 306
f 279 306 307
f 279 307 308
f 279 308 280
f 280 309 281
f 280 308 310
f 280 310 311
f 280 311 309
f 281 309 282
f 282 312 283
f 282 309 313
f 282 313 314
f 282 314 312
f 283 312 315
f 283 315 316
f 283 316 284
f 287 289 306
f 290 316 317
f 290 317 318
f 309 311 313
f 312 314 319
f 312 319 315
f 315 319 320
f 315 320 321
f 315 321 316
f 316 321 317

