# https://github.com/mikedh/trimesh
v 0.15305306 -0.32417896 0.48492545
v 0.15500382 -0.32324469 0.48499647
v 0.15500382 -0.32305783 0.49499589
v 0.15305306 -0.32399210 0.49311134
v 0.15305306 -0.31936741 0.46129119
v 0.16021252 -0.32006812 0.47977740
v 0.16071528 -0.32034838 0.48499647
v 0.16067506 -0.32030168 0.49499589
v 0.15305306 -0.32394540 0.49506277
v 0.16015218 -0.32006812 0.50007707
v 0.15594903 -0.31791925 0.46129119
v 0.15305306 0.15305308 0.46129119
v 0.16164038 -0.31502298 0.46129119
v 0.16501901 -0.31329456 0.46129119
v 0.18002169 -0.30997783 0.47999886
v 0.17501408 -0.31301427 0.48499647
v 0.18048424 -0.31025815 0.49313223
v 0.17996135 -0.30993113 0.49979714
v 0.15305306 -0.32245052 0.49995592
v 0.15500382 -0.32118925 0.50097966
v 0.17330468 -0.31147271 0.50119698
v 0.15305306 0.15305308 0.48057967
v 0.31938979 0.15305308 0.46129119
v 0.17073047 -0.31035155 0.46129119
v 0.18036357 -0.31021142 0.48499647
v 0.17260079 -0.30932385 0.46129119
v 0.17573808 -0.30759543 0.46129119
v 0.18096690 -0.30446559 0.46129119
v 0.18406397 -0.30259699 0.46129119
v 0.18907157 -0.29937375 0.46129119
v 0.20176150 -0.29110533 0.46129119
v 0.21024828 -0.29017103 0.47963530
v 0.21067061 -0.29045132 0.48499647
v 0.20501946 -0.29414174 0.48499647
v 0.19305351 -0.30194300 0.48499647
v 0.21063039 -0.29045132 0.49499589
v 0.21020806 -0.29012433 0.50014395
v 0.19164574 -0.30100873 0.50089192
v 0.15305306 -0.32165641 0.50121784
v 0.16409391 -0.31488281 0.50179452
v 0.18500918 -0.30320430 0.50190318
v 0.31498551 0.15305308 0.50348687
v 0.15305306 0.13497469 0.48201713
v 0.32417616 0.15305308 0.48492545
v 0.32047576 0.15090422 0.46129119
v 0.20361170 -0.28984404 0.46129119
v 0.20674899 -0.28769517 0.46129119
v 0.21095215 -0.28456533 0.46129119
v 0.21342579 -0.28269678 0.46129119
v 0.22231477 -0.27554950 0.46129119
v 0.22645761 -0.27218610 0.46129119
v 0.22959490 -0.26961678 0.46129119
v 0.23806156 -0.26830882 0.48499647
v 0.23305397 -0.27241963 0.48499647
v 0.22687994 -0.27746478 0.48499647
v 0.21565808 -0.28648061 0.48499647
v 0.21563798 -0.28643391 0.49499589
v 0.20501946 -0.29166591 0.50115520
v 0.22181201 -0.28143549 0.49499589
v 0.23291318 -0.27232623 0.49499589
v 0.23792079 -0.26812196 0.49499589
v 0.22094724 -0.28073478 0.50064957
v 0.21412966 -0.28442520 0.50145602
v 0.15305306 -0.31665796 0.50322360
v 0.17597941 -0.30596042 0.50268871
v 0.15500382 -0.31497627 0.50347430
v 0.19500425 -0.29521617 0.50247145
v 0.32498059 0.12497784 0.50391304
v 0.33499581 0.10498418 0.50367486
v 0.32588559 0.13581553 0.50266367
v 0.32353261 0.14497152 0.50219566
v 0.32166231 0.15305308 0.50121784
v 0.15305306 0.12497784 0.48279852
v 0.15305306 -0.31497627 0.50348687
v 0.33018929 0.14044024 0.48766661
v 0.32825866 0.14427081 0.48459950
v 0.32990775 0.13978624 0.48100170
v 0.32413593 0.15305308 0.48687685
v 0.33018929 0.14044024 0.49224219
v 0.32323095 0.14497152 0.46129119
v 0.23299363 -0.26672053 0.46129119
v 0.23500471 -0.26499209 0.46129119
v 0.23838334 -0.26204911 0.46129119
v 0.24035420 -0.26032066 0.46129119
v 0.24343115 -0.26331037 0.48499647
v 0.23164621 -0.27125180 0.50099224
v 0.24327026 -0.26312351 0.49499589
v 0.24188262 -0.26176882 0.50117189
v 0.22456719 -0.27475536 0.50203687
v 0.20501946 -0.28498578 0.50351608
v 0.18500918 -0.29498261 0.50386709
v 0.34499088 0.05495329 0.50397992
v 0.33499581 0.09498735 0.50391722
v 0.34499088 0.06499684 0.50370830
v 0.34358311 0.08499052 0.50235862
v 0.34223568 0.09498735 0.50187808
v 0.34106925 0.10498418 0.50107580
v 0.33531755 0.11456059 0.50222492
v 0.33242160 0.12497784 0.50186974
v 0.33101386 0.13301268 0.50097549
v 0.32395494 0.15305308 0.49506277
v 0.32982731 0.13969281 0.49891126
v 0.34076759 0.11213145 0.48499647
v 0.33887717 0.11712986 0.48499647
v 0.33169761 0.13586225 0.48459950
v 0.33039039 0.12731355 0.46129119
v 0.32884187 0.13133098 0.46129119
v 0.32743412 0.13497469 0.46129119
v 0.34038550 0.11105703 0.47905031
v 0.32807767 0.14427081 0.49534690
v 0.34074748 0.11203802 0.49499589
v 0.24843875 -0.25840539 0.48499647
v 0.24849908 -0.25219241 0.46129119
v 0.23500471 -0.26503879 0.50239623
v 0.24827786 -0.25821853 0.49499589
v 0.25189781 -0.25186542 0.50117189
v 0.24514058 -0.25508869 0.50250071
v 0.21501455 -0.27498895 0.50380862
v 0.22500962 -0.26499209 0.50380862
v 0.29499534 -0.18497071 0.50386709
v 0.32498059 -0.12498971 0.50391304
v 0.34499088 -0.05501187 0.50397992
v 0.35369885 0.00496913 0.50244635
v 0.35313576 0.02496280 0.50231266
v 0.35283411 0.03495963 0.50220817
v 0.35229111 0.04495646 0.50195330
v 0.35160732 0.05495329 0.50155216
v 0.35094368 0.06499684 0.50102562
v 0.34573498 0.07518053 0.50239623
v 0.35040069 0.07200398 0.50047404
v 0.34034526 0.11096360 0.50039464
v 0.34289935 0.10498418 0.48499647
v 0.33503601 0.11498101 0.46129119
v 0.34971693 0.07882424 0.48331249
v 0.34378421 0.08499052 0.46129119
v 0.34038550 0.09769677 0.46129119
v 0.33988273 0.09956534 0.46129119
v 0.33929950 0.10162076 0.46129119
v 0.33833420 0.10498418 0.46129119
v 0.34271836 0.10498418 0.49499589
v 0.34999847 0.07999210 0.49001917
v 0.25344634 -0.25340700 0.48499647
v 0.25036940 -0.25032383 0.46129119
v 0.25825283 -0.24822171 0.49499589
v 0.26179236 -0.24186859 0.50117189
v 0.25513566 -0.24509186 0.50250071
v 0.27498505 -0.21496122 0.50380862
v 0.31498551 -0.15498021 0.50347430
v 0.28498015 -0.20496437 0.50351608
v 0.33499581 -0.10499604 0.50367486
v 0.33499581 -0.09499921 0.50391722
v 0.34499088 -0.06500871 0.50370830
v 0.35283411 -0.03501821 0.50220817
v 0.35313576 -0.02502137 0.50231266
v 0.35369885 -0.00502770 0.50244635
v 0.35820371 0.00496913 0.49499589
v 0.35711771 0.02496280 0.49499589
v 0.35647416 0.03495963 0.49499589
v 0.35243189 0.06499684 0.49499589
v 0.35068226 0.07518053 0.49400973
v 0.34955603 0.07868411 0.49668407
v 0.35534796 0.04495646 0.49499589
v 0.34999847 0.07999210 0.48997739
v 0.35070235 0.07527396 0.48598680
v 0.35257265 0.06499684 0.48499647
v 0.35046101 0.07214412 0.47884557
v 0.34619752 0.07499368 0.46129119
v 0.25535688 -0.24532543 0.46129119
v 0.25847405 -0.24219558 0.46129119
v 0.25841373 -0.24840856 0.48499647
v 0.26313978 -0.24322329 0.49499589
v 0.26812726 -0.23789787 0.49499589
v 0.27128467 -0.23163818 0.50099224
v 0.26507041 -0.23495488 0.50239623
v 0.30597585 -0.17595488 0.50268871
v 0.31488496 -0.16404277 0.50179452
v 0.32353261 -0.14498338 0.50219566
v 0.32588559 -0.13578069 0.50266367
v 0.27476382 -0.22453763 0.50203687
v 0.28443715 -0.21407364 0.50145602
v 0.29523668 -0.19496754 0.50247145
v 0.33242160 -0.12498971 0.50186974
v 0.33531755 -0.11457245 0.50222492
v 0.34106925 -0.10499604 0.50107580
v 0.34223568 -0.09499921 0.50187808
v 0.34358311 -0.08500238 0.50235862
v 0.35094368 -0.06500871 0.50102562
v 0.35160732 -0.05501187 0.50155216
v 0.35229111 -0.04501504 0.50195330
v 0.34573498 -0.07523911 0.50239623
v 0.35647416 -0.03501821 0.49499589
v 0.35711771 -0.02502137 0.49499589
v 0.35820371 -0.00502770 0.49499589
v 0.35848525 0.00496913 0.48499647
v 0.35741937 0.02496280 0.48499647
v 0.35683614 0.03495963 0.48499647
v 0.35573006 0.04495646 0.48499647
v 0.34947559 0.05682187 0.46129119
v 0.34897283 0.05990501 0.46129119
v 0.34810805 0.06499684 0.46129119
v 0.34740418 0.06868726 0.46129119
v 0.35098392 0.04747903 0.46129119
v 0.26032427 -0.24032702 0.46129119
v 0.26330066 -0.24341014 0.48499647
v 0.26830825 -0.23803802 0.48499647
v 0.27231032 -0.23289946 0.49499589
v 0.29012853 -0.21014965 0.50014395
v 0.28073674 -0.22094063 0.50064957
v 0.30324078 -0.18497071 0.50190318
v 0.31148621 -0.17324546 0.50119698
v 0.32119977 -0.15498021 0.50097966
v 0.33101386 -0.13302454 0.50097549
v 0.29165694 -0.20496437 0.50115520
v 0.34034526 -0.11097546 0.50039464
v 0.35040069 -0.07206254 0.50047404
v 0.35534796 -0.04501504 0.49499589
v 0.35573006 -0.04501504 0.48499647
v 0.35683614 -0.03501821 0.48499647
v 0.35741937 -0.02502137 0.48499647
v 0.35848525 -0.00502770 0.48499647
v 0.35428208 0.00496913 0.46129119
v 0.35323632 0.02496280 0.46129119
v 0.35299498 0.02869993 0.46129119
v 0.35257265 0.03495963 0.46129119
v 0.35213023 0.03869677 0.46129119
v 0.35136601 0.04495646 0.46129119
v 0.26205379 -0.23836501 0.46129119
v 0.27245110 -0.23303960 0.48499647
v 0.26965567 -0.22958276 0.46129119
v 0.29016873 -0.21019638 0.47963530
v 0.28144065 -0.22178148 0.49499589
v 0.30100846 -0.19160412 0.50089192
v 0.28642812 -0.21561521 0.49499589
v 0.29045027 -0.21061680 0.49499589
v 0.30995780 -0.17992559 0.49979714
v 0.32005343 -0.16011876 0.50007707
v 0.32982731 -0.13965796 0.49891126
v 0.34074748 -0.11204989 0.49499589
v 0.34271836 -0.10499604 0.49499589
v 0.34955603 -0.07874268 0.49668407
v 0.35243189 -0.06500871 0.49499589
v 0.35068226 -0.07523911 0.49400973
v 0.35257265 -0.06500871 0.48499647
v 0.35046101 -0.07220269 0.47884557
v 0.35136601 -0.04501504 0.46129119
v 0.35182858 -0.04132462 0.46129119
v 0.35257265 -0.03501821 0.46129119
v 0.35283411 -0.03132778 0.46129119
v 0.35323632 -0.02502137 0.46129119
v 0.35343742 -0.02133095 0.46129119
v 0.35396031 -0.01133412 0.46129119
v 0.35428208 -0.00502770 0.46129119
v 0.28150097 -0.22182819 0.48499647
v 0.27369797 -0.22458433 0.46129119
v 0.29047039 -0.21061680 0.48499647
v 0.28650856 -0.21561521 0.48499647
v 0.27554816 -0.22229534 0.46129119
v 0.28123951 -0.21524149 0.46129119
v 0.28272772 -0.21337293 0.46129119
v 0.28773531 -0.20673952 0.46129119
v 0.29113406 -0.20174110 0.46129119
v 0.30999804 -0.17997229 0.47999886
v 0.31027958 -0.18043944 0.49313223
v 0.32033500 -0.16063263 0.49499589
v 0.32304996 -0.15498021 0.49499589
v 0.32807767 -0.14423595 0.49534690
v 0.33018929 -0.14045210 0.49224219
v 0.34076759 -0.11214331 0.48499647
v 0.34289935 -0.10499604 0.48499647
v 0.34999847 -0.08005067 0.49001917
v 0.34999847 -0.08005067 0.48997739
v 0.35070235 -0.07533254 0.48598680
v 0.34971693 -0.07883611 0.48331249
v 0.34619752 -0.07500554 0.46129119
v 0.34810805 -0.06500871 0.46129119
v 0.34947559 -0.05688044 0.46129119
v 0.34999847 -0.05370387 0.46129119
v 0.35068226 -0.04940617 0.46129119
v 0.34378421 -0.08500238 0.46129119
v 0.34468922 -0.08131196 0.46129119
v 0.29417080 -0.20496437 0.48499647
v 0.29696620 -0.19277197 0.46129119
v 0.31019914 -0.18034601 0.48499647
v 0.30696130 -0.18534443 0.48499647
v 0.30197379 -0.19300555 0.48499647
v 0.30141070 -0.18590499 0.46129119
v 0.30261734 -0.18403643 0.46129119
v 0.30762494 -0.17572130 0.46129119
v 0.31038013 -0.17072289 0.46129119
v 0.32009366 -0.16016549 0.47977740
v 0.32035512 -0.16067934 0.48499647
v 0.31780103 -0.16567776 0.48499647
v 0.31301466 -0.17497388 0.48499647
v 0.32325107 -0.15498021 0.48499647
v 0.33018929 -0.14045210 0.48766661
v 0.33887717 -0.11714172 0.48499647
v 0.32990775 -0.13975139 0.48100170
v 0.34038550 -0.11106888 0.47905031
v 0.34072739 -0.09644735 0.46129119
v 0.31953055 -0.15278465 0.46129119
v 0.32047576 -0.15091607 0.46129119
v 0.32825866 -0.14423595 0.48459950
v 0.33588067 -0.12498971 0.48499647
v 0.32323095 -0.14498338 0.46129119
v 0.32743412 -0.13498655 0.46129119
v 0.33087307 -0.12601742 0.46129119
v 0.33503601 -0.11499287 0.46129119
v 0.33833420 -0.10499604 0.46129119
v 0.33988273 -0.09957720 0.46129119
f 1 2 3
f 1 3 4
f 1 4 9
f 1 9 19
f 1 19 39
f 1 39 64
f 1 64 74
f 1 74 73
f 1 73 43
f 1 43 22
f 1 22 12
f 1 12 5
f 1 5 6
f 1 6 2
f 2 6 7
f 2 7 8
f 2 8 3
f 3 9 4
f 3 8 10
f 3 10 9
f 5 11 6
f 5 12 23
f 5 23 45
f 5 45 80
f 5 80 108
f 5 108 107
f 5 107 106
f 5 106 133
f 5 133 139
f 5 139 138
f 5 138 137
f 5 137 136
f 5 136 135
f 5 135 167
f 5 167 201
f 5 201 200
f 5 200 199
f 5 199 198
f 5 198 202
f 5 202 226
f 5 226 225
f 5 225 224
f 5 224 223
f 5 223 222
f 5 222 221
f 5 221 252
f 5 252 251
f 5 251 250
f 5 250 249
f 5 249 248
f 5 248 247
f 5 247 246
f 5 246 245
f 5 245 278
f 5 278 277
f 5 277 276
f 5 276 275
f 5 275 274
f 5 274 280
f 5 280 279
f 5 279 299
f 5 299 309
f 5 309 308
f 5 308 307
f 5 307 306
f 5 306 305
f 5 305 304
f 5 304 301
f 5 301 300
f 5 300 289
f 5 289 288
f 5 288 287
f 5 287 286
f 5 286 282
f 5 282 261
f 5 261 260
f 5 260 259
f 5 259 258
f 5 258 257
f 5 257 254
f 5 254 229
f 5 229 227
f 5 227 203
f 5 203 169
f 5 169 168
f 5 168 143
f 5 143 113
f 5 113 84
f 5 84 83
f 5 83 82
f 5 82 81
f 5 81 52
f 5 52 51
f 5 51 50
f 5 50 49
f 5 49 48
f 5 48 47
f 5 47 46
f 5 46 31
f 5 31 30
f 5 30 29
f 5 29 28
f 5 28 27
f 5 27 26
f 5 26 24
f 5 24 14
f 5 14 13
f 5 13 11
f 6 11 13
f 6 13 14
f 6 14 15
f 6 15 7
f 7 15 16
f 7 16 17
f 7 17 8
f 8 17 18
f 8 18 10
f 9 10 19
f 10 20 19
f 10 18 21
f 10 21 20
f 12 22 42
f 12 42 72
f 12 72 101
f 12 101 78
f 12 78 44
f 12 44 23
f 14 24 15
f 15 25 16
f 15 24 26
f 15 26 27
f 15 27 28
f 15 28 29
f 15 29 30
f 15 30 31
f 15 31 32
f 15 32 33
f 15 33 34
f 15 34 35
f 15 35 25
f 16 25 17
f 17 25 35
f 17 35 34
f 17 34 33
f 17 33 36
f 17 36 18
f 18 36 37
f 18 37 38
f 18 38 21
f 19 20 39
f 20 21 40
f 20 40 39
f 21 38 41
f 21 41 40
f 22 43 42
f 23 44 45
f 31 46 32
f 32 46 47
f 32 47 48
f 32 48 49
f 32 49 50
f 32 50 51
f 32 51 52
f 32 52 53
f 32 53 54
f 32 54 55
f 32 55 56
f 32 56 33
f 33 56 36
f 36 56 57
f 36 57 37
f 37 58 38
f 37 57 59
f 37 59 60
f 37 60 61
f 37 61 62
f 37 62 63
f 37 63 58
f 38 58 41
f 39 40 64
f 40 41 65
f 40 65 66
f 40 66 64
f 41 58 67
f 41 67 65
f 42 68 69
f 42 69 70
f 42 70 71
f 42 71 72
f 42 43 73
f 42 73 74
f 42 74 68
f 44 75 76
f 44 76 77
f 44 77 45
f 44 78 79
f 44 79 75
f 45 77 80
f 52 81 53
f 53 81 82
f 53 82 83
f 53 83 84
f 53 84 85
f 53 85 61
f 53 61 60
f 53 60 54
f 54 60 59
f 54 59 55
f 55 59 57
f 55 57 56
f 58 63 67
f 61 86 62
f 61 85 87
f 61 87 88
f 61 88 86
f 62 86 89
f 62 89 63
f 63 89 90
f 63 90 67
f 64 66 74
f 65 67 90
f 65 90 66
f 66 90 91
f 66 91 74
f 68 92 93
f 68 93 69
f 68 74 91
f 68 91 92
f 69 93 92
f 69 92 94
f 69 94 95
f 69 95 96
f 69 96 97
f 69 97 98
f 69 98 99
f 69 99 70
f 70 99 71
f 71 99 100
f 71 100 72
f 72 100 102
f 72 102 101
f 75 79 103
f 75 103 104
f 75 104 105
f 75 105 77
f 75 77 76
f 77 106 107
f 77 107 108
f 77 108 80
f 77 105 104
f 77 104 103
f 77 103 109
f 77 109 106
f 78 101 79
f 79 101 110
f 79 110 102
f 79 102 111
f 79 111 103
f 84 112 85
f 84 113 112
f 85 112 115
f 85 115 87
f 86 88 114
f 86 114 89
f 87 115 88
f 88 115 116
f 88 116 117
f 88 117 114
f 89 114 90
f 90 114 118
f 90 118 91
f 91 118 119
f 91 119 120
f 91 120 121
f 91 121 122
f 91 122 92
f 92 122 155
f 92 155 123
f 92 123 124
f 92 124 125
f 92 125 94
f 94 125 126
f 94 126 127
f 94 127 128
f 94 128 129
f 94 129 95
f 95 129 128
f 95 128 96
f 96 128 130
f 96 130 97
f 97 131 99
f 97 99 98
f 97 130 131
f 99 131 100
f 100 131 102
f 101 102 110
f 102 131 111
f 103 111 132
f 103 132 109
f 106 109 133
f 109 132 134
f 109 134 135
f 109 135 136
f 109 136 137
f 109 137 138
f 109 138 139
f 109 139 133
f 111 131 140
f 111 140 141
f 111 141 132
f 112 113 142
f 112 142 115
f 113 143 142
f 114 117 118
f 115 142 144
f 115 144 116
f 116 144 145
f 116 145 146
f 116 146 117
f 117 146 119
f 117 119 118
f 119 146 147
f 119 147 120
f 120 148 121
f 120 147 149
f 120 149 148
f 121 150 151
f 121 151 122
f 121 148 150
f 122 152 153
f 122 153 154
f 122 154 155
f 122 151 150
f 122 150 152
f 123 155 193
f 123 193 156
f 123 156 124
f 124 156 125
f 125 156 157
f 125 157 158
f 125 158 126
f 126 158 127
f 127 158 128
f 128 158 130
f 130 159 160
f 130 160 161
f 130 161 131
f 130 158 162
f 130 162 159
f 131 161 140
f 132 163 134
f 132 141 163
f 134 163 164
f 134 164 165
f 134 165 166
f 134 166 135
f 135 166 167
f 140 161 141
f 141 161 160
f 141 160 159
f 141 159 165
f 141 165 163
f 142 143 168
f 142 168 169
f 142 169 170
f 142 170 144
f 144 170 204
f 144 204 171
f 144 171 145
f 145 171 172
f 145 172 173
f 145 173 174
f 145 174 146
f 146 174 147
f 147 174 149
f 148 149 175
f 148 175 176
f 148 176 177
f 148 177 178
f 148 178 150
f 149 174 179
f 149 179 180
f 149 180 181
f 149 181 175
f 150 178 182
f 150 182 183
f 150 183 184
f 150 184 185
f 150 185 186
f 150 186 152
f 152 187 188
f 152 188 189
f 152 189 153
f 152 186 190
f 152 190 187
f 153 189 191
f 153 191 192
f 153 192 193
f 153 193 154
f 154 193 155
f 156 193 220
f 156 220 194
f 156 194 195
f 156 195 157
f 157 195 196
f 157 196 158
f 158 196 197
f 158 197 162
f 159 162 197
f 159 197 165
f 163 165 164
f 165 197 166
f 166 198 199
f 166 199 200
f 166 200 201
f 166 201 167
f 166 197 202
f 166 202 198
f 169 203 170
f 170 203 204
f 171 204 172
f 172 204 205
f 172 205 206
f 172 206 207
f 172 207 208
f 172 208 173
f 173 208 179
f 173 179 174
f 175 209 176
f 175 181 209
f 176 209 210
f 176 210 211
f 176 211 177
f 177 212 182
f 177 182 178
f 177 211 212
f 179 208 180
f 180 207 213
f 180 213 181
f 180 208 207
f 181 213 209
f 182 214 184
f 182 184 183
f 182 212 214
f 184 214 215
f 184 215 185
f 185 215 187
f 185 187 186
f 186 187 190
f 187 215 191
f 187 191 188
f 188 191 189
f 191 215 216
f 191 216 217
f 191 217 218
f 191 218 192
f 192 218 219
f 192 219 193
f 193 219 220
f 194 220 252
f 194 252 221
f 194 221 222
f 194 222 195
f 195 222 196
f 196 222 223
f 196 223 224
f 196 224 197
f 197 224 225
f 197 225 226
f 197 226 202
f 203 227 205
f 203 205 204
f 205 228 206
f 205 227 229
f 205 229 230
f 205 230 228
f 206 228 231
f 206 231 207
f 207 232 213
f 207 231 233
f 207 233 234
f 207 234 235
f 207 235 232
f 209 235 210
f 209 213 232
f 209 232 235
f 210 236 211
f 210 235 236
f 211 236 212
f 212 236 237
f 212 237 214
f 214 238 239
f 214 239 240
f 214 240 215
f 214 237 238
f 215 241 216
f 215 240 242
f 215 242 241
f 216 241 217
f 217 243 244
f 217 244 245
f 217 245 246
f 217 246 247
f 217 247 218
f 217 241 243
f 218 247 248
f 218 248 249
f 218 249 219
f 219 249 250
f 219 250 220
f 220 250 251
f 220 251 252
f 228 253 233
f 228 233 231
f 228 230 253
f 229 254 230
f 230 255 256
f 230 256 253
f 230 254 257
f 230 257 258
f 230 258 259
f 230 259 260
f 230 260 261
f 230 261 262
f 230 262 255
f 233 256 234
f 233 253 256
f 234 256 255
f 234 255 263
f 234 263 235
f 235 263 264
f 235 264 236
f 236 264 265
f 236 265 266
f 236 266 237
f 237 266 267
f 237 267 238
f 238 268 269
f 238 269 270
f 238 270 239
f 238 267 268
f 239 270 240
f 240 270 242
f 241 242 270
f 241 270 243
f 243 271 272
f 243 272 273
f 243 273 244
f 243 270 271
f 244 274 275
f 244 275 276
f 244 276 277
f 244 277 278
f 244 278 245
f 244 273 279
f 244 279 280
f 244 280 274
f 255 262 281
f 255 281 263
f 261 282 262
f 262 283 284
f 262 284 285
f 262 285 281
f 262 282 286
f 262 286 287
f 262 287 288
f 262 288 289
f 262 289 290
f 262 290 291
f 262 291 292
f 262 292 293
f 262 293 283
f 263 281 285
f 263 285 284
f 263 284 283
f 263 283 293
f 263 293 292
f 263 292 291
f 263 291 294
f 263 294 264
f 264 294 267
f 264 267 265
f 265 267 266
f 267 294 295
f 267 295 268
f 268 296 297
f 268 297 298
f 268 298 269
f 268 295 296
f 269 298 273
f 269 273 271
f 269 271 270
f 271 273 272
f 273 298 279
f 279 298 299
f 289 300 290
f 290 300 301
f 290 301 297
f 290 297 294
f 290 294 291
f 294 297 302
f 294 302 295
f 295 302 297
f 295 297 303
f 295 303 296
f 296 303 297
f 297 301 304
f 297 304 305
f 297 305 306
f 297 306 298
f 298 306 307
f 298 307 308
f 298 308 309
f 298 309 299

