# https://github.com/mikedh/trimesh
v -0.15125369 -0.32031488 0.46129119
v -0.15125369 0.32031590 0.46129119
v -0.16500679 -0.31329155 0.46129119
v -0.17071074 -0.31034422 -0.46493143
v -0.15125369 -0.32025218 -0.46493143
v -0.15125369 0.32025319 -0.46493143
v -0.17071074 0.31034523 -0.46493143
v -0.16500679 0.31329256 0.46129119
v -0.17073061 -0.31034422 0.46129119
v -0.17571908 -0.30758506 -0.46493143
v -0.17047223 -0.31021881 -0.47211438
v -0.15125369 -0.32000136 -0.47173634
v -0.15125369 0.31987697 -0.47315401
v -0.16445029 0.31222653 -0.49498641
v -0.17047223 0.31021982 -0.47211438
v -0.17571908 0.30758607 -0.46493143
v -0.17259881 0.30934191 0.46129119
v -0.17073061 0.31034523 0.46129119
v -0.17573896 -0.30758506 0.46129119
v -0.18404645 -0.30256838 -0.46493143
v -0.18297324 -0.30187857 -0.49498641
v -0.17500360 -0.30651897 -0.49498641
v -0.17883936 -0.30576646 0.46129119
v -0.18406633 -0.30263108 0.46129119
v -0.16943878 -0.30959171 -0.49498641
v -0.16445029 -0.31222546 -0.49498641
v -0.15125369 -0.31887257 -0.49498641
v -0.15125369 0.31887364 -0.49498641
v -0.16286033 0.31141132 -0.50141323
v -0.16943878 0.30959278 -0.49498641
v -0.17500360 0.30652004 -0.49498641
v -0.18297324 0.30187958 -0.49498641
v -0.18404645 0.30256939 -0.46493143
v -0.18098581 0.30445063 0.46129119
v -0.17573896 0.30758607 0.46129119
v -0.18905482 -0.29937023 -0.46493143
v -0.20068133 -0.29040289 -0.49498641
v -0.20036334 -0.29021478 -0.50027907
v -0.18188015 -0.30118877 -0.50112975
v -0.18907468 -0.29937023 0.46129119
v -0.16286033 -0.31141025 -0.50141323
v -0.15125369 -0.31774384 -0.49725470
v -0.15125369 0.31435859 -0.50245291
v -0.15500996 0.31335527 -0.50235838
v -0.17500360 0.30313379 -0.50216937
v -0.18188015 0.30118978 -0.50112975
v -0.20036334 0.29021579 -0.50027907
v -0.20068133 0.29040396 -0.49498641
v -0.18905482 0.29937124 -0.46493143
v -0.18593453 0.30137795 0.46129119
v -0.18406633 0.30256939 0.46129119
v -0.20175456 -0.29109269 -0.46493143
v -0.20568968 -0.28695393 -0.49498641
v -0.20674303 -0.28770643 -0.46493143
v -0.21248673 -0.28193724 -0.49498641
v -0.21157251 -0.28118473 -0.50112975
v -0.19501713 -0.29190791 -0.50150776
v -0.17500360 -0.30313271 -0.50216937
v -0.20175456 -0.29109269 0.46129119
v -0.15500996 -0.31335425 -0.50235838
v -0.15125369 -0.31435758 -0.50245291
v -0.15125369 0.30482692 -0.50339806
v -0.15500996 0.30495232 -0.50405961
v -0.17500360 0.29498166 -0.50405961
v -0.19501713 0.29190892 -0.50150776
v -0.19501713 0.28494829 -0.50377607
v -0.18513955 0.29535788 -0.50264192
v -0.21157251 0.28118575 -0.50112975
v -0.21248673 0.28193825 -0.49498641
v -0.20568968 0.28695494 -0.49498641
v -0.20674303 0.28770745 -0.46493143
v -0.20175456 0.29109371 -0.46493143
v -0.18907468 0.29937124 0.46129119
v -0.20676291 -0.28770643 0.46129119
v -0.21342084 -0.28268975 -0.46493143
v -0.21747521 -0.27792388 -0.49498641
v -0.22365615 -0.27290720 -0.49498641
v -0.22864462 -0.26883113 -0.49498641
v -0.22234444 -0.27184117 -0.50150776
v -0.21495116 -0.27510202 -0.50254738
v -0.20421898 -0.28469640 -0.50188583
v -0.18513955 -0.29535687 -0.50264192
v -0.19501713 -0.28494722 -0.50377607
v -0.17500360 -0.29498065 -0.50405961
v -0.15500996 -0.30495131 -0.50405961
v -0.15125369 -0.30934089 -0.50349253
v -0.33499256 0.07499998 -0.50424862
v -0.31499892 0.13494937 -0.50415409
v -0.29498538 0.17495745 -0.50405961
v -0.27499175 0.20499486 -0.50396514
v -0.20501396 0.27497762 -0.50396514
v -0.20421898 0.28469747 -0.50188583
v -0.22540510 0.26544595 -0.50283098
v -0.21495116 0.27510303 -0.50254738
v -0.22234444 0.27184218 -0.50150776
v -0.22864462 0.26883221 -0.49498641
v -0.22365615 0.27290827 -0.49498641
v -0.21747521 0.27792495 -0.49498641
v -0.21342084 0.28269076 -0.46493143
v -0.21095639 0.28457206 0.46129119
v -0.20676291 0.28770745 0.46129119
v -0.20175456 0.29109371 0.46129119
v -0.21342084 -0.28268975 0.46129119
v -0.21840930 -0.27867639 -0.46493143
v -0.21656099 -0.28018141 0.46129119
v -0.22957872 -0.26964635 -0.46493143
v -0.23448770 -0.26381445 -0.49498641
v -0.24023139 -0.26017737 -0.47154731
v -0.23291762 -0.26243484 -0.50169683
v -0.23949605 -0.25948757 -0.49498641
v -0.22540510 -0.26544487 -0.50283098
v -0.20501396 -0.27497661 -0.50396514
v -0.27499175 -0.20499381 -0.50396514
v -0.29498538 -0.17495641 -0.50405961
v -0.31499892 -0.13494833 -0.50415409
v -0.33499256 -0.07499894 -0.50424862
v -0.34498939 0.00495450 -0.50387061
v -0.34498939 0.01498787 -0.50368154
v -0.34498939 0.03499191 -0.50311446
v -0.34320068 0.06496660 -0.50264192
v -0.34236598 0.07499998 -0.50226390
v -0.33499256 0.08497064 -0.50358701
v -0.32499576 0.11494534 -0.50387061
v -0.32284930 0.13494937 -0.50235838
v -0.31334934 0.15495341 -0.50235838
v -0.29540277 0.18511623 -0.50264192
v -0.28498855 0.19496149 -0.50377607
v -0.30313390 0.17495745 -0.50216937
v -0.26549178 0.22537515 -0.50283098
v -0.25573343 0.23572205 -0.50292546
v -0.23575966 0.25572610 -0.50292546
v -0.23291762 0.26243591 -0.50169683
v -0.23949605 0.25948858 -0.49498641
v -0.23448770 0.26381552 -0.49498641
v -0.24023139 0.26017839 -0.47154731
v -0.22957872 0.26964742 -0.46493143
v -0.21840930 0.27867740 -0.46493143
v -0.21342084 0.28269076 0.46129119
v -0.22775027 -0.27115136 0.46129119
v -0.23500444 -0.26494318 -0.46493143
v -0.22959860 -0.26964635 0.46129119
v -0.23699188 -0.26325005 0.46129119
v -0.24035065 -0.26030278 -0.46493143
v -0.25024810 -0.25020671 -0.47154731
v -0.24291445 -0.25290316 -0.50179130
v -0.23575966 -0.25572503 -0.50292546
v -0.25448135 -0.24450022 -0.49498641
v -0.25573343 -0.23572101 -0.50292546
v -0.26549178 -0.22537410 -0.50283098
v -0.28498855 -0.19496045 -0.50377607
v -0.29540277 -0.18511519 -0.50264192
v -0.30313390 -0.17495641 -0.50216937
v -0.31334934 -0.15495236 -0.50235838
v -0.32499576 -0.11494429 -0.50387061
v -0.32284930 -0.13494833 -0.50235838
v -0.33499256 -0.08496960 -0.50358701
v -0.34236598 -0.07499894 -0.50226390
v -0.34320068 -0.06496556 -0.50264192
v -0.34498939 -0.03499086 -0.50311446
v -0.34498939 -0.01498683 -0.50368154
v -0.34498939 -0.00495346 -0.50387061
v -0.35142869 0.00495450 -0.50169683
v -0.35091197 0.02495853 -0.50122422
v -0.35057411 0.03499191 -0.50075167
v -0.33177292 0.11494534 -0.50179130
v -0.33328336 0.10497468 -0.50254738
v -0.35023624 0.04163902 -0.50027907
v -0.34115362 0.08497064 -0.50131875
v -0.32131898 0.14291337 -0.50131875
v -0.31142151 0.16279198 -0.50141323
v -0.29190487 0.19496149 -0.50150776
v -0.28473020 0.20417964 -0.50188583
v -0.27511099 0.21490280 -0.50254738
v -0.30120608 0.18185540 -0.50112975
v -0.26249075 0.23290017 -0.50169683
v -0.25289139 0.24287084 -0.50179130
v -0.24291445 0.25290424 -0.50179130
v -0.24951275 0.24945523 -0.49498641
v -0.25024810 0.25020772 -0.47154731
v -0.24035065 0.26030380 -0.46493143
v -0.23500444 0.26494426 -0.46493143
v -0.23838308 0.26205969 0.46129119
v -0.22959860 0.26964742 0.46129119
v -0.22230469 0.27554202 0.46129119
v -0.21840930 0.27867740 0.46129119
v -0.24035065 -0.26030278 0.46129119
v -0.25034747 -0.25033212 -0.46493143
v -0.24535900 -0.25534880 0.46129119
v -0.26032442 -0.24029873 -0.46493143
v -0.26020518 -0.24017332 -0.47154731
v -0.25948972 -0.23948354 -0.49498641
v -0.25289139 -0.24286979 -0.50179130
v -0.26249075 -0.23289913 -0.50169683
v -0.27511099 -0.21490176 -0.50254738
v -0.28473020 -0.20417860 -0.50188583
v -0.29190487 -0.19496045 -0.50150776
v -0.30120608 -0.18185435 -0.50112975
v -0.31142151 -0.16279094 -0.50141323
v -0.32131898 -0.14291233 -0.50131875
v -0.33328336 -0.10497364 -0.50254738
v -0.33177292 -0.11494429 -0.50179130
v -0.34115362 -0.08496960 -0.50131875
v -0.35023624 -0.04163797 -0.50027907
v -0.35057411 -0.03499086 -0.50075167
v -0.35091197 -0.02495749 -0.50122422
v -0.35142869 -0.00495346 -0.50169683
v -0.35305840 0.00495450 -0.49498641
v -0.35254169 0.01498787 -0.49498641
v -0.35202494 0.02495853 -0.49498641
v -0.34033877 0.09130421 -0.50046813
v -0.33056056 0.12146703 -0.50065720
v -0.35134920 0.03499191 -0.49498641
v -0.35045487 0.04295589 -0.49498641
v -0.34677809 0.06496660 -0.49498641
v -0.34496951 0.07499998 -0.49498641
v -0.32209408 0.14454378 -0.49498641
v -0.31972903 0.14956048 -0.49498641
v -0.31223637 0.16442241 -0.49498641
v -0.30963284 0.16937639 -0.49498641
v -0.29021552 0.20029171 -0.50027907
v -0.28123230 0.21151654 -0.50112975
v -0.27187145 0.22230242 -0.50150776
v -0.30655229 0.17495745 -0.49498641
v -0.30190170 0.18292144 -0.49498641
v -0.26386207 0.23446788 -0.49498641
v -0.25948972 0.23942186 -0.49498641
v -0.26020518 0.24017437 -0.47154731
v -0.26032442 0.24029978 -0.46493143
v -0.25034747 0.25033313 -0.46493143
v -0.24221884 0.25848526 0.46129119
v -0.24035065 0.26030380 0.46129119
v -0.25036734 -0.25033212 0.46129119
v -0.25348762 -0.24719669 0.46129119
v -0.26497504 -0.23496851 -0.46493143
v -0.26032442 -0.24029873 0.46129119
v -0.26326585 -0.23697518 0.46129119
v -0.26964551 -0.22951287 -0.46493143
v -0.26887041 -0.22863494 -0.49498641
v -0.26386207 -0.23446684 -0.49498641
v -0.27187145 -0.22230138 -0.50150776
v -0.28123230 -0.21151550 -0.50112975
v -0.29021552 -0.20029067 -0.50027907
v -0.30190170 -0.18292040 -0.49498641
v -0.30655229 -0.17495641 -0.49498641
v -0.30963284 -0.16943805 -0.49498641
v -0.31223637 -0.16442136 -0.49498641
v -0.31972903 -0.14955944 -0.49498641
v -0.32209408 -0.14460546 -0.49498641
v -0.33056056 -0.12146599 -0.50065720
v -0.34033877 -0.09130316 -0.50046813
v -0.34496951 -0.07499894 -0.49498641
v -0.34677809 -0.06496556 -0.49498641
v -0.35045487 -0.04295485 -0.49498641
v -0.35134920 -0.03499086 -0.49498641
v -0.35202494 -0.02495749 -0.49498641
v -0.35254169 -0.01498683 -0.49498641
v -0.35305840 -0.00495346 -0.49498641
v -0.35425088 0.00495450 -0.46493143
v -0.35373414 0.01498787 -0.46493143
v -0.35319752 0.02495853 -0.46493143
v -0.34252498 0.08497064 -0.49498641
v -0.34059715 0.09224483 -0.49498641
v -0.33694026 0.10497468 -0.49498641
v -0.33376035 0.11494534 -0.49498641
v -0.33093819 0.12247037 -0.49498641
v -0.32602921 0.13494937 -0.49498641
v -0.35252178 0.03499191 -0.46493143
v -0.35130945 0.04496257 -0.46493143
v -0.35017663 0.05110801 -0.47173634
v -0.34808981 0.06496660 -0.46493143
v -0.34618187 0.07499998 -0.46493143
v -0.32740054 0.13494937 -0.46493143
v -0.32318717 0.14498276 -0.46493143
v -0.32030538 0.15056381 -0.47268146
v -0.31022906 0.17044243 -0.47211438
v -0.29043415 0.20066796 -0.49498641
v -0.28697601 0.20562194 -0.49498641
v -0.28196764 0.21245718 -0.49498641
v -0.26887041 0.22863598 -0.49498641
v -0.30762550 0.17564724 -0.46493143
v -0.30261716 0.18398748 -0.46493143
v -0.29937762 0.18900417 -0.46493143
v -0.26964551 0.22951391 -0.46493143
v -0.26497504 0.23496956 -0.46493143
v -0.26205349 0.23835582 0.46129119
v -0.26032442 0.24029978 0.46129119
v -0.25847611 0.24218105 0.46129119
v -0.25036734 0.25033313 0.46129119
v -0.26964551 -0.22957557 -0.45491311
v -0.26791644 -0.23158225 0.46129119
v -0.27369991 -0.22455889 -0.46493143
v -0.28196764 -0.21245614 -0.49498641
v -0.28697601 -0.20562090 -0.49498641
v -0.29043415 -0.20066692 -0.49498641
v -0.29937762 -0.18900312 -0.46493143
v -0.30261716 -0.18398644 -0.46493143
v -0.30762550 -0.17564620 -0.46493143
v -0.31022906 -0.17044139 -0.47211438
v -0.32030538 -0.15056276 -0.47268146
v -0.32602921 -0.13494833 -0.49498641
v -0.32318717 -0.14498171 -0.46493143
v -0.32740054 -0.13494833 -0.46493143
v -0.33093819 -0.12246933 -0.49498641
v -0.33376035 -0.11494429 -0.49498641
v -0.33694026 -0.10497364 -0.49498641
v -0.34059715 -0.09224379 -0.49498641
v -0.34252498 -0.08496960 -0.49498641
v -0.34618187 -0.07499894 -0.46493143
v -0.34808981 -0.06496556 -0.46493143
v -0.35017663 -0.05110697 -0.47173634
v -0.35130945 -0.04496153 -0.46493143
v -0.35252178 -0.03499086 -0.46493143
v -0.35319752 -0.02495749 -0.46493143
v -0.35373414 -0.01498683 -0.46493143
v -0.35425088 -0.00495346 -0.46493143
v -0.35427076 0.00495450 0.46129119
v -0.35395277 0.01128807 0.46129119
v -0.35343602 0.02125873 0.46129119
v -0.35323727 0.02495853 0.46129119
v -0.35258141 0.03499191 0.46129119
v -0.34373730 0.08497064 -0.46493143
v -0.34119338 0.09450234 -0.46493143
v -0.33986181 0.09945633 -0.46493143
v -0.33831158 0.10497468 -0.46493143
v -0.33503231 0.11494534 -0.46493143
v -0.33157417 0.12410079 -0.46493143
v -0.32964635 0.12911747 -0.46493143
v -0.35182619 0.04126276 0.46129119
v -0.35025612 0.05167239 -0.46493143
v -0.35136908 0.04496257 0.46129119
v -0.34946114 0.05662636 -0.46493143
v -0.34999776 0.05367906 0.46129119
v -0.34862641 0.06189388 0.46129119
v -0.34810966 0.06496660 0.46129119
v -0.34620172 0.07499998 0.46129119
v -0.34469128 0.08127084 0.46129119
v -0.33159405 0.12416350 0.46129119
v -0.32825515 0.13281728 0.46129119
v -0.32742041 0.13494937 0.46129119
v -0.32477713 0.14128295 0.46129119
v -0.32322693 0.14498276 0.46129119
v -0.32044449 0.15087736 -0.46493143
v -0.31790057 0.15589404 -0.46493143
v -0.31326985 0.16498679 -0.46493143
v -0.31034830 0.17069326 -0.46493143
v -0.29112977 0.20173401 -0.46493143
v -0.28773123 0.20668799 -0.46493143
v -0.28272289 0.21339780 -0.46493143
v -0.27369991 0.22455993 -0.46493143
v -0.30935457 0.17257452 0.46129119
v -0.30762550 0.17570995 0.46129119
v -0.30261716 0.18405019 0.46129119
v -0.26964551 0.22957662 -0.45491311
v -0.26499492 0.23496956 0.46129119
v -0.28272289 -0.21339676 -0.46493143
v -0.26964551 -0.22957557 0.46129119
v -0.28019884 -0.21653219 0.46129119
v -0.28773123 -0.20668694 -0.46493143
v -0.29112977 -0.20173296 -0.46493143
v -0.30058998 -0.18718457 0.46129119
v -0.30261716 -0.18404914 0.46129119
v -0.31034830 -0.17069222 -0.46493143
v -0.30762550 -0.17570890 0.46129119
v -0.31326985 -0.16498575 -0.46493143
v -0.31790057 -0.15589300 -0.46493143
v -0.32044449 -0.15087631 -0.46493143
v -0.32221332 -0.14717650 0.46129119
v -0.32322693 -0.14498171 0.46129119
v -0.32964635 -0.12911643 -0.46493143
v -0.32742041 -0.13494833 0.46129119
v -0.32883149 -0.13131124 0.46129119
v -0.33159405 -0.12416246 0.46129119
v -0.33157417 -0.12409975 -0.46493143
v -0.33503231 -0.11494429 -0.46493143
v -0.33831158 -0.10497364 -0.46493143
v -0.33986181 -0.09945528 -0.46493143
v -0.34119338 -0.09450130 -0.46493143
v -0.34373730 -0.08496960 -0.46493143
v -0.34377706 -0.08496960 0.46129119
v -0.34620172 -0.07499894 0.46129119
v -0.34741408 -0.06866537 0.46129119
v -0.34946114 -0.05662532 -0.46493143
v -0.34810966 -0.06496556 0.46129119
v -0.34896427 -0.05988617 0.46129119
v -0.35029587 -0.05179676 0.46129119
v -0.35025612 -0.05167134 -0.46493143
v -0.35136908 -0.04496153 0.46129119
v -0.35258141 -0.03499086 0.46129119
v -0.35323727 -0.02495749 0.46129119
v -0.35357514 -0.01868663 0.46129119
v -0.35409188 -0.00865326 0.46129119
v -0.35427076 -0.00495346 0.46129119
v -0.34377706 0.08497064 0.46129119
v -0.34216723 0.09105337 0.46129119
v -0.33988166 0.09958174 0.46129119
v -0.33833146 0.10497468 0.46129119
v -0.33505219 0.11494534 0.46129119
v -0.33286601 0.12077723 0.46129119
v -0.35029587 0.05179780 0.46129119
v -0.32046437 0.15087736 0.46129119
v -0.31953028 0.15275861 0.46129119
v -0.31501880 0.16160052 0.46129119
v -0.31328970 0.16498679 0.46129119
v -0.31146127 0.16856118 0.46129119
v -0.31036818 0.17069326 0.46129119
v -0.29275945 0.19922566 0.46129119
v -0.29112977 0.20173401 0.46129119
v -0.28773123 0.20668799 0.46129119
v -0.28272289 0.21339780 0.46129119
v -0.27218944 0.22644119 0.46129119
v -0.26964551 0.22957662 0.46129119
v -0.28272289 -0.21339676 0.46129119
v -0.28588292 -0.20919529 0.46129119
v -0.28773123 -0.20668694 0.46129119
v -0.28898332 -0.20486839 0.46129119
v -0.29112977 -0.20173296 0.46129119
v -0.29794669 -0.19126064 0.46129119
v -0.31036818 -0.17069222 0.46129119
v -0.31328970 -0.16498575 0.46129119
v -0.31885454 -0.15407445 0.46129119
v -0.32046437 -0.15087631 0.46129119
v -0.33505219 -0.11494429 0.46129119
v -0.33711913 -0.10867344 0.46129119
v -0.33833146 -0.10497364 0.46129119
v -0.33930531 -0.10158737 0.46129119
v -0.33988166 -0.09958070 0.46129119
v -0.34284297 -0.08848128 0.46129119
f 1 2 8
f 1 8 18
f 1 18 17
f 1 17 35
f 1 35 34
f 1 34 51
f 1 51 50
f 1 50 73
f 1 73 102
f 1 102 101
f 1 101 100
f 1 100 138
f 1 138 185
f 1 185 184
f 1 184 183
f 1 183 182
f 1 182 231
f 1 231 230
f 1 230 288
f 1 288 287
f 1 287 286
f 1 286 285
f 1 285 354
f 1 354 411
f 1 411 410
f 1 410 409
f 1 409 408
f 1 408 407
f 1 407 406
f 1 406 352
f 1 352 351
f 1 351 350
f 1 350 405
f 1 405 404
f 1 404 403
f 1 403 402
f 1 402 401
f 1 401 400
f 1 400 341
f 1 341 340
f 1 340 339
f 1 339 338
f 1 338 337
f 1 337 398
f 1 398 397
f 1 397 396
f 1 396 395
f 1 395 394
f 1 394 393
f 1 393 336
f 1 336 335
f 1 335 334
f 1 334 333
f 1 333 332
f 1 332 399
f 1 399 330
f 1 330 328
f 1 328 320
f 1 320 319
f 1 319 318
f 1 318 317
f 1 317 316
f 1 316 392
f 1 392 391
f 1 391 390
f 1 390 389
f 1 389 388
f 1 388 387
f 1 387 385
f 1 385 384
f 1 384 383
f 1 383 381
f 1 381 380
f 1 380 379
f 1 379 427
f 1 427 426
f 1 426 425
f 1 425 424
f 1 424 423
f 1 423 422
f 1 422 372
f 1 372 371
f 1 371 370
f 1 370 368
f 1 368 367
f 1 367 421
f 1 421 420
f 1 420 419
f 1 419 418
f 1 418 363
f 1 363 361
f 1 361 360
f 1 360 417
f 1 417 416
f 1 416 415
f 1 415 414
f 1 414 413
f 1 413 412
f 1 412 357
f 1 357 356
f 1 356 290
f 1 290 236
f 1 236 235
f 1 235 233
f 1 233 232
f 1 232 188
f 1 188 186
f 1 186 142
f 1 142 141
f 1 141 139
f 1 139 105
f 1 105 103
f 1 103 74
f 1 74 59
f 1 59 40
f 1 40 24
f 1 24 23
f 1 23 19
f 1 19 9
f 1 9 3
f 1 3 4
f 1 4 5
f 1 5 12
f 1 12 27
f 1 27 42
f 1 42 61
f 1 61 86
f 1 86 62
f 1 62 43
f 1 43 28
f 1 28 13
f 1 13 6
f 1 6 2
f 2 6 7
f 2 7 8
f 3 9 4
f 4 10 11
f 4 11 5
f 4 9 19
f 4 19 10
f 5 11 12
f 6 13 14
f 6 14 15
f 6 15 7
f 7 15 16
f 7 16 17
f 7 17 18
f 7 18 8
f 10 20 21
f 10 21 22
f 10 22 11
f 10 19 23
f 10 23 24
f 10 24 20
f 11 22 25
f 11 25 26
f 11 26 12
f 12 26 27
f 13 28 14
f 14 28 29
f 14 29 30
f 14 30 15
f 15 30 31
f 15 31 16
f 16 31 32
f 16 32 33
f 16 33 34
f 16 34 35
f 16 35 17
f 20 36 21
f 20 24 36
f 21 37 38
f 21 38 39
f 21 39 22
f 21 36 37
f 22 39 25
f 24 40 36
f 25 39 41
f 25 41 26
f 26 41 27
f 27 41 42
f 28 43 44
f 28 44 29
f 29 44 45
f 29 45 46
f 29 46 30
f 30 46 31
f 31 46 32
f 32 46 47
f 32 47 48
f 32 48 49
f 32 49 33
f 33 49 50
f 33 50 51
f 33 51 34
f 36 52 37
f 36 40 52
f 37 53 38
f 37 52 54
f 37 54 53
f 38 53 55
f 38 55 56
f 38 56 57
f 38 57 39
f 39 57 58
f 39 58 41
f 40 59 52
f 41 58 60
f 41 60 42
f 42 60 61
f 43 62 63
f 43 63 44
f 44 63 64
f 44 64 45
f 45 65 46
f 45 64 66
f 45 66 67
f 45 67 65
f 46 65 47
f 47 65 68
f 47 68 69
f 47 69 70
f 47 70 48
f 48 70 71
f 48 71 72
f 48 72 49
f 49 72 73
f 49 73 50
f 52 59 74
f 52 74 54
f 53 54 55
f 54 75 55
f 54 74 75
f 55 76 56
f 55 75 104
f 55 104 76
f 56 76 77
f 56 77 78
f 56 78 79
f 56 79 80
f 56 80 81
f 56 81 57
f 57 81 82
f 57 82 58
f 58 82 83
f 58 83 84
f 58 84 60
f 60 84 85
f 60 85 86
f 60 86 61
f 62 86 63
f 63 86 85
f 63 85 116
f 63 116 87
f 63 87 64
f 64 87 88
f 64 88 89
f 64 89 90
f 64 90 91
f 64 91 66
f 65 67 92
f 65 92 68
f 66 91 93
f 66 93 94
f 66 94 92
f 66 92 67
f 68 92 94
f 68 94 95
f 68 95 96
f 68 96 97
f 68 97 98
f 68 98 69
f 69 98 137
f 69 137 99
f 69 99 71
f 69 71 70
f 71 99 100
f 71 100 101
f 71 101 72
f 72 101 102
f 72 102 73
f 74 103 75
f 75 103 105
f 75 105 104
f 76 104 106
f 76 106 77
f 77 106 78
f 78 107 79
f 78 106 108
f 78 108 107
f 79 109 80
f 79 107 110
f 79 110 109
f 80 111 83
f 80 83 81
f 80 109 111
f 81 83 82
f 83 112 84
f 83 111 112
f 84 112 113
f 84 113 114
f 84 114 115
f 84 115 116
f 84 116 85
f 87 116 161
f 87 161 117
f 87 117 118
f 87 118 119
f 87 119 120
f 87 120 121
f 87 121 122
f 87 122 123
f 87 123 88
f 88 123 124
f 88 124 125
f 88 125 89
f 89 126 127
f 89 127 90
f 89 125 128
f 89 128 126
f 90 127 129
f 90 129 130
f 90 130 131
f 90 131 91
f 91 131 93
f 93 131 132
f 93 132 94
f 94 132 95
f 95 132 133
f 95 133 134
f 95 134 96
f 96 134 135
f 96 135 136
f 96 136 97
f 97 136 98
f 98 136 137
f 99 137 185
f 99 185 138
f 99 138 100
f 104 105 139
f 104 139 106
f 106 140 108
f 106 139 141
f 106 141 142
f 106 142 140
f 107 108 110
f 108 140 143
f 108 143 144
f 108 144 110
f 109 145 146
f 109 146 111
f 109 110 145
f 110 147 145
f 110 144 147
f 111 146 112
f 112 146 113
f 113 146 148
f 113 148 149
f 113 149 150
f 113 150 114
f 114 150 151
f 114 151 152
f 114 152 153
f 114 153 115
f 115 154 116
f 115 153 155
f 115 155 154
f 116 154 156
f 116 156 157
f 116 157 158
f 116 158 159
f 116 159 160
f 116 160 161
f 117 161 206
f 117 206 162
f 117 162 118
f 118 162 119
f 119 162 163
f 119 163 120
f 120 163 164
f 120 164 121
f 121 165 166
f 121 166 122
f 121 164 167
f 121 167 168
f 121 168 165
f 122 166 123
f 123 166 124
f 124 166 165
f 124 165 169
f 124 169 125
f 125 169 170
f 125 170 128
f 126 128 171
f 126 171 172
f 126 172 127
f 127 172 173
f 127 173 129
f 128 170 174
f 128 174 171
f 129 173 175
f 129 175 130
f 130 175 176
f 130 176 177
f 130 177 131
f 131 177 132
f 132 177 133
f 133 177 178
f 133 178 179
f 133 179 135
f 133 135 134
f 135 179 180
f 135 180 181
f 135 181 136
f 136 181 182
f 136 182 183
f 136 183 137
f 137 183 184
f 137 184 185
f 140 142 143
f 142 186 143
f 143 187 144
f 143 186 188
f 143 188 187
f 144 187 189
f 144 189 190
f 144 190 191
f 144 191 147
f 145 192 148
f 145 148 146
f 145 147 191
f 145 191 192
f 148 192 193
f 148 193 149
f 149 194 150
f 149 193 194
f 150 194 195
f 150 195 151
f 151 195 196
f 151 196 152
f 152 196 197
f 152 197 198
f 152 198 153
f 153 198 199
f 153 199 155
f 154 200 156
f 154 155 200
f 155 201 200
f 155 199 201
f 156 200 157
f 157 200 201
f 157 201 202
f 157 202 203
f 157 203 204
f 157 204 158
f 158 204 205
f 158 205 159
f 159 206 160
f 159 205 206
f 160 206 161
f 162 206 257
f 162 257 207
f 162 207 163
f 163 207 164
f 164 207 208
f 164 208 209
f 164 209 167
f 165 168 210
f 165 210 211
f 165 211 169
f 167 210 168
f 167 209 212
f 167 212 213
f 167 213 214
f 167 214 215
f 167 215 210
f 169 211 216
f 169 216 217
f 169 217 170
f 170 217 218
f 170 218 219
f 170 219 174
f 171 174 220
f 171 220 221
f 171 221 172
f 172 221 173
f 173 221 222
f 173 222 175
f 174 219 223
f 174 223 224
f 174 224 220
f 175 222 225
f 175 225 226
f 175 226 176
f 176 226 178
f 176 178 177
f 178 226 179
f 179 227 228
f 179 228 229
f 179 229 180
f 179 226 227
f 180 229 230
f 180 230 231
f 180 231 182
f 180 182 181
f 187 188 232
f 187 232 233
f 187 233 189
f 189 234 190
f 189 233 235
f 189 235 236
f 189 236 234
f 190 234 237
f 190 237 238
f 190 238 239
f 190 239 191
f 191 239 240
f 191 240 193
f 191 193 192
f 193 240 194
f 194 240 241
f 194 241 195
f 195 241 196
f 196 241 242
f 196 242 197
f 197 242 243
f 197 243 244
f 197 244 245
f 197 245 198
f 198 245 246
f 198 246 247
f 198 247 199
f 199 247 248
f 199 248 249
f 199 249 201
f 201 249 250
f 201 250 202
f 202 250 203
f 203 250 251
f 203 251 252
f 203 252 253
f 203 253 254
f 203 254 255
f 203 255 204
f 204 255 256
f 204 256 257
f 204 257 205
f 205 257 206
f 207 257 315
f 207 315 258
f 207 258 259
f 207 259 208
f 208 259 209
f 209 259 260
f 209 260 267
f 209 267 212
f 210 215 261
f 210 261 262
f 210 262 263
f 210 263 264
f 210 264 211
f 211 264 265
f 211 265 266
f 211 266 216
f 212 267 213
f 213 267 268
f 213 268 269
f 213 269 214
f 214 269 270
f 214 270 215
f 215 270 271
f 215 271 321
f 215 321 261
f 216 266 272
f 216 272 273
f 216 273 274
f 216 274 217
f 217 274 218
f 218 274 275
f 218 275 219
f 219 275 223
f 220 224 276
f 220 276 277
f 220 277 278
f 220 278 221
f 221 278 279
f 221 279 222
f 222 279 225
f 223 275 280
f 223 280 224
f 224 280 281
f 224 281 282
f 224 282 276
f 225 279 227
f 225 227 226
f 227 283 284
f 227 284 228
f 227 279 283
f 228 284 285
f 228 285 286
f 228 286 287
f 228 287 229
f 229 287 288
f 229 288 230
f 234 289 237
f 234 236 289
f 236 290 289
f 237 289 291
f 237 291 238
f 238 292 241
f 238 241 240
f 238 240 239
f 238 291 292
f 241 292 242
f 242 292 293
f 242 293 294
f 242 294 243
f 243 294 295
f 243 295 296
f 243 296 297
f 243 297 244
f 244 297 298
f 244 298 245
f 245 298 246
f 246 298 299
f 246 299 247
f 247 299 248
f 248 300 249
f 248 299 301
f 248 301 302
f 248 302 300
f 249 300 303
f 249 303 304
f 249 304 250
f 250 304 305
f 250 305 306
f 250 306 307
f 250 307 251
f 251 307 378
f 251 378 308
f 251 308 309
f 251 309 252
f 252 309 310
f 252 310 253
f 253 310 311
f 253 311 312
f 253 312 254
f 254 312 313
f 254 313 255
f 255 313 314
f 255 314 256
f 256 314 315
f 256 315 257
f 258 315 392
f 258 392 316
f 258 316 317
f 258 317 259
f 259 317 318
f 259 318 319
f 259 319 260
f 260 319 320
f 260 320 267
f 261 321 262
f 262 321 322
f 262 322 323
f 262 323 324
f 262 324 263
f 263 324 264
f 264 324 325
f 264 325 265
f 265 325 326
f 265 326 327
f 265 327 272
f 265 272 266
f 267 320 328
f 267 328 268
f 268 329 269
f 268 328 330
f 268 330 329
f 269 329 331
f 269 331 270
f 270 331 332
f 270 332 333
f 270 333 334
f 270 334 335
f 270 335 271
f 271 335 336
f 271 336 321
f 272 327 337
f 272 337 338
f 272 338 339
f 272 339 340
f 272 340 341
f 272 341 273
f 273 342 274
f 273 341 342
f 274 342 343
f 274 343 275
f 275 343 344
f 275 344 345
f 275 345 280
f 276 282 346
f 276 346 347
f 276 347 277
f 277 347 278
f 278 347 348
f 278 348 349
f 278 349 279
f 279 349 283
f 280 345 350
f 280 350 351
f 280 351 352
f 280 352 281
f 281 352 282
f 282 352 346
f 283 349 353
f 283 353 284
f 284 353 354
f 284 354 285
f 289 355 291
f 289 290 356
f 289 356 357
f 289 357 355
f 291 355 292
f 292 355 358
f 292 358 293
f 293 358 294
f 294 358 359
f 294 359 295
f 295 359 360
f 295 360 361
f 295 361 296
f 296 361 363
f 296 363 297
f 297 362 298
f 297 363 362
f 298 362 364
f 298 364 365
f 298 365 299
f 299 365 366
f 299 366 301
f 300 302 303
f 301 366 367
f 301 367 368
f 301 368 302
f 302 369 303
f 302 368 370
f 302 370 371
f 302 371 372
f 302 372 369
f 303 369 373
f 303 373 374
f 303 374 304
f 304 374 375
f 304 375 305
f 305 375 306
f 306 375 376
f 306 376 377
f 306 377 378
f 306 378 307
f 308 378 379
f 308 379 380
f 308 380 381
f 308 381 309
f 309 382 310
f 309 381 383
f 309 383 384
f 309 384 385
f 309 385 382
f 310 382 386
f 310 386 311
f 311 386 387
f 311 387 388
f 311 388 312
f 312 388 313
f 313 388 389
f 313 389 390
f 313 390 314
f 314 390 391
f 314 391 315
f 315 391 392
f 321 336 393
f 321 393 394
f 321 394 322
f 322 394 395
f 322 395 323
f 323 395 324
f 324 395 396
f 324 396 397
f 324 397 325
f 325 397 398
f 325 398 337
f 325 337 326
f 326 337 327
f 329 330 399
f 329 399 332
f 329 332 331
f 341 400 342
f 342 400 401
f 342 401 343
f 343 401 344
f 344 401 402
f 344 402 403
f 344 403 404
f 344 404 345
f 345 404 405
f 345 405 350
f 346 352 406
f 346 406 407
f 346 407 408
f 346 408 347
f 347 408 409
f 347 409 348
f 348 353 349
f 348 409 410
f 348 410 353
f 353 410 411
f 353 411 354
f 355 357 412
f 355 412 413
f 355 413 358
f 358 413 414
f 358 414 415
f 358 415 359
f 359 415 416
f 359 416 417
f 359 417 360
f 362 363 418
f 362 418 419
f 362 419 364
f 364 419 420
f 364 420 365
f 365 420 366
f 366 420 421
f 366 421 367
f 369 372 373
f 372 422 374
f 372 374 373
f 374 422 423
f 374 423 375
f 375 423 424
f 375 424 425
f 375 425 426
f 375 426 376
f 376 426 377
f 377 426 378
f 378 426 427
f 378 427 379
f 382 385 386
f 385 387 386

