# https://github.com/mikedh/trimesh
v -0.41837224 0.00000000 0.39761958
v -0.41837224 0.00000000 0.48482487
v -0.39789593 0.12924676 0.39761958
v -0.38151488 0.00540576 0.38237533
v -0.38233390 0.00000000 0.38237533
v -0.36365950 -0.11810762 0.38237533
v -0.39789593 -0.12924676 0.39761958
v -0.39478353 0.00000000 0.49998850
v -0.39789593 0.12924676 0.48482487
v -0.39789593 -0.12924676 0.48482487
v -0.33843267 0.24588008 0.39761958
v -0.30935630 0.22474849 0.38237533
v -0.36365950 0.11810762 0.38237533
v -0.30935630 -0.22474849 0.38237533
v -0.33843267 -0.24588008 0.39761958
v -0.37545386 -0.12195718 0.49998850
v -0.37545386 0.12195718 0.49998850
v -0.31934875 0.23203807 0.49998850
v -0.33843267 0.24588008 0.48482487
v -0.33843267 -0.24588008 0.48482487
v -0.31934875 -0.23203807 0.49998850
v -0.24587969 0.33843321 0.39761958
v -0.22474813 0.30935678 0.38237533
v -0.22474813 -0.30935678 0.38237533
v -0.24587969 -0.33843321 0.39761958
v -0.23203769 0.31934926 0.49998850
v -0.24587969 0.33843321 0.48482487
v -0.24587969 -0.33843321 0.48482487
v -0.23203769 -0.31934926 0.49998850
v -0.12924655 0.39781466 0.39761958
v -0.11810744 0.36366010 0.38237533
v -0.11810744 -0.36366010 0.38237533
v -0.12924655 -0.39781466 0.39761958
v -0.12195698 0.37545449 0.49998850
v -0.12924655 0.39781466 0.48482487
v -0.12924655 -0.39781466 0.48482487
v -0.12195698 -0.37545449 0.49998850
v 0.00000000 0.41837293 0.39761958
v 0.00000000 0.38233453 0.38237533
v -0.00540575 -0.38151547 0.38237533
v 0.00000000 -0.41829100 0.39761958
v 0.00000000 -0.41837293 0.48482487
v 0.00000000 0.39478415 0.49998850
v 0.00000000 0.41837293 0.48482487
v 0.00000000 -0.39478415 0.49998850
v 0.12924655 0.39781466 0.39761958
v 0.11810744 0.36366010 0.38237533
v 0.00540575 0.38151547 0.38237533
v 0.00000000 -0.38233453 0.38237533
v 0.11810744 -0.36366010 0.38237533
v 0.12924655 -0.39781466 0.39761958
v 0.12924655 -0.39781466 0.48482487
v 0.12195698 -0.37545449 0.49998850
v 0.12195698 0.37545449 0.49998850
v 0.12924655 0.39781466 0.48482487
v 0.24587969 0.33843321 0.39761958
v 0.22474813 0.30935678 0.38237533
v 0.22474813 -0.30935678 0.38237533
v 0.24587969 -0.33843321 0.39761958
v 0.24587969 -0.33843321 0.48482487
v 0.23203769 -0.31934926 0.49998850
v 0.23203769 0.31934926 0.49998850
v 0.24587969 0.33843321 0.48482487
v 0.33843267 0.24588008 0.39761958
v 0.30935630 0.22474849 0.38237533
v 0.30935630 -0.22474849 0.38237533
v 0.33843267 -0.24588008 0.39761958
v 0.33843267 -0.24588008 0.48482487
v 0.31934875 -0.23203807 0.49998850
v 0.31934875 0.23203807 0.49998850
v 0.33843267 0.24588008 0.48482487
v 0.39789593 0.12924676 0.39761958
v 0.36365950 0.11810762 0.38237533
v 0.36365950 -0.11810762 0.38237533
v 0.39789593 -0.12924676 0.39761958
v 0.39789593 -0.12924676 0.48482487
v 0.37545386 -0.12195718 0.49998850
v 0.37545386 0.12195718 0.49998850
v 0.39789593 0.12924676 0.48482487
v 0.41837224 0.00000000 0.39761958
v 0.38233390 0.00000000 0.38237533
v 0.38151488 -0.00540576 0.38237533
v 0.41837224 0.00000000 0.48482487
v 0.39478353 0.00000000 0.49998850
f 1 2 9
f 1 9 3
f 1 3 4
f 1 4 5
f 1 5 6
f 1 6 7
f 1 7 10
f 1 10 2
f 2 8 9
f 2 10 8
f 3 9 19
f 3 19 11
f 3 11 12
f 3 12 13
f 3 13 4
f 4 13 12
f 4 12 23
f 4 23 31
f 4 31 39
f 4 39 48
f 4 48 47
f 4 47 57
f 4 57 65
f 4 65 73
f 4 73 81
f 4 81 82
f 4 82 74
f 4 74 66
f 4 66 58
f 4 58 50
f 4 50 49
f 4 49 40
f 4 40 32
f 4 32 24
f 4 24 14
f 4 14 6
f 4 6 5
f 6 14 7
f 7 14 15
f 7 15 20
f 7 20 10
f 8 10 16
f 8 16 21
f 8 21 29
f 8 29 37
f 8 37 45
f 8 45 53
f 8 53 61
f 8 61 69
f 8 69 77
f 8 77 84
f 8 84 78
f 8 78 70
f 8 70 62
f 8 62 54
f 8 54 43
f 8 43 34
f 8 34 26
f 8 26 18
f 8 18 17
f 8 17 9
f 9 17 18
f 9 18 19
f 10 20 21
f 10 21 16
f 11 19 27
f 11 27 22
f 11 22 23
f 11 23 12
f 14 24 25
f 14 25 15
f 15 25 28
f 15 28 20
f 18 26 27
f 18 27 19
f 20 28 29
f 20 29 21
f 22 27 35
f 22 35 30
f 22 30 31
f 22 31 23
f 24 32 25
f 25 32 33
f 25 33 36
f 25 36 28
f 26 34 27
f 27 34 35
f 28 36 37
f 28 37 29
f 30 35 44
f 30 44 38
f 30 38 31
f 31 38 39
f 32 40 33
f 33 40 41
f 33 41 42
f 33 42 36
f 34 43 44
f 34 44 35
f 36 42 37
f 37 42 45
f 38 44 55
f 38 55 46
f 38 46 47
f 38 47 48
f 38 48 39
f 40 49 41
f 41 49 50
f 41 50 51
f 41 51 42
f 42 51 52
f 42 52 53
f 42 53 45
f 43 54 44
f 44 54 55
f 46 56 47
f 46 55 63
f 46 63 56
f 47 56 57
f 50 58 59
f 50 59 51
f 51 59 60
f 51 60 52
f 52 60 53
f 53 60 61
f 54 62 63
f 54 63 55
f 56 64 65
f 56 65 57
f 56 63 71
f 56 71 64
f 58 66 67
f 58 67 59
f 59 67 68
f 59 68 60
f 60 68 69
f 60 69 61
f 62 70 71
f 62 71 63
f 64 72 65
f 64 71 79
f 64 79 72
f 65 72 73
f 66 74 75
f 66 75 67
f 67 75 76
f 67 76 68
f 68 76 69
f 69 76 77
f 70 78 79
f 70 79 71
f 72 80 73
f 72 79 83
f 72 83 80
f 73 80 81
f 74 82 75
f 75 82 80
f 75 80 83
f 75 83 76
f 76 83 84
f 76 84 77
f 78 84 79
f 79 84 83
f 80 82 81

