# https://github.com/mikedh/trimesh
v -0.00000033 -0.41417900 -0.47417480
v 0.12795071 -0.39382681 -0.47417480
v -0.00000033 -0.41417900 0.28831637
v -0.12795137 -0.39382681 -0.47417480
v -0.12073487 -0.37160969 -0.50000000
v -0.00000033 -0.39074561 -0.50000000
v 0.12073421 -0.37160969 -0.50000000
v 0.24341477 -0.33504066 -0.47417480
v 0.12795071 -0.39382681 0.28831637
v -0.12795137 -0.39382681 0.28831637
v 0.11813951 -0.36366343 0.38237536
v -0.00000033 -0.38239393 0.38237536
v -0.11814017 -0.36366343 0.38237536
v -0.24341543 -0.33504066 -0.47417480
v -0.22963110 -0.31606689 -0.50000000
v 0.22963044 -0.31606689 -0.50000000
v 0.33504006 -0.24341530 -0.47417480
v 0.24341477 -0.33504066 0.28831637
v -0.24341543 -0.33504066 0.28831637
v 0.22476539 -0.30933690 0.38237536
v -0.22476605 -0.30933690 0.38237536
v -0.33504072 -0.24341530 -0.47417480
v -0.31606698 -0.22963096 -0.50000000
v 0.31606632 -0.22963096 -0.50000000
v 0.39390725 -0.12795115 -0.47417480
v 0.33504006 -0.24341530 0.28831637
v 0.37160906 -0.12073464 -0.50000000
v -0.33504072 -0.24341530 0.28831637
v 0.30933633 -0.22476590 0.38237536
v -0.30933699 -0.22476590 0.38237536
v -0.39382684 -0.12795115 -0.47417480
v -0.37160972 -0.12073464 -0.50000000
v 0.41417834 0.00000000 -0.47417480
v 0.39390725 -0.12795115 0.28831637
v 0.39074498 0.00000000 -0.50000000
v -0.39382684 -0.12795115 0.28831637
v -0.36366346 -0.11813994 0.38237536
v 0.36366281 -0.11813994 0.38237536
v -0.41417900 0.00000000 -0.47417480
v -0.39074564 0.00000000 -0.50000000
v 0.39390725 0.12795115 -0.47417480
v 0.41417834 0.00000000 0.28831637
v 0.38239330 0.00000000 0.38237536
v 0.37160906 0.12073464 -0.50000000
v -0.41417900 0.00000000 0.28831637
v -0.38239396 0.00000000 0.38237536
v -0.39382684 0.12795115 -0.47417480
v -0.37160972 0.12073464 -0.50000000
v 0.33504006 0.24341530 -0.47417480
v 0.39390725 0.12795115 0.28831637
v 0.36366281 0.11813994 0.38237536
v 0.31606632 0.22963096 -0.50000000
v -0.39382684 0.12795115 0.28831637
v -0.36366346 0.11813994 0.38237536
v -0.33504072 0.24341530 -0.47417480
v -0.31606698 0.22963096 -0.50000000
v 0.24341477 0.33504066 -0.47417480
v 0.33504006 0.24341530 0.28831637
v 0.30933633 0.22476590 0.38237536
v 0.22963044 0.31606689 -0.50000000
v -0.33504072 0.24341530 0.28831637
v -0.30933699 0.22476590 0.38237536
v -0.24341543 0.33504066 -0.47417480
v -0.22963110 0.31606689 -0.50000000
v 0.12073421 0.37160969 -0.50000000
v 0.12795071 0.39382681 -0.47417480
v 0.24341477 0.33504066 0.28831637
v 0.22476539 0.30933690 0.38237536
v -0.24341543 0.33504066 0.28831637
v -0.22476605 0.30933690 0.38237536
v -0.12795137 0.39382681 -0.47417480
v -0.12073487 0.37160969 -0.50000000
v -0.00000033 0.39074561 -0.50000000
v -0.00000033 0.41417900 -0.47417480
v 0.12795071 0.39382681 0.28831637
v 0.11813951 0.36366343 0.38237536
v -0.12795137 0.39382681 0.28831637
v -0.11814017 0.36366343 0.38237536
v -0.00000033 0.41417900 0.28831637
v -0.00000033 0.38239393 0.38237536
f 1 2 9
f 1 9 3
f 1 3 10
f 1 10 4
f 1 4 5
f 1 5 6
f 1 6 7
f 1 7 2
f 2 8 18
f 2 18 9
f 2 7 8
f 3 9 11
f 3 11 12
f 3 12 13
f 3 13 10
f 4 10 19
f 4 19 14
f 4 14 5
f 5 14 15
f 5 15 23
f 5 23 32
f 5 32 40
f 5 40 48
f 5 48 56
f 5 56 64
f 5 64 72
f 5 72 73
f 5 73 65
f 5 65 60
f 5 60 52
f 5 52 44
f 5 44 35
f 5 35 27
f 5 27 24
f 5 24 16
f 5 16 7
f 5 7 6
f 7 16 8
f 8 17 26
f 8 26 18
f 8 16 24
f 8 24 17
f 9 18 11
f 10 13 19
f 11 20 29
f 11 29 38
f 11 38 43
f 11 43 51
f 11 51 59
f 11 59 68
f 11 68 76
f 11 76 80
f 11 80 78
f 11 78 70
f 11 70 62
f 11 62 54
f 11 54 46
f 11 46 37
f 11 37 30
f 11 30 21
f 11 21 13
f 11 13 12
f 11 18 20
f 13 21 19
f 14 19 28
f 14 28 22
f 14 22 23
f 14 23 15
f 17 25 34
f 17 34 26
f 17 24 27
f 17 27 25
f 18 26 29
f 18 29 20
f 19 21 30
f 19 30 28
f 22 28 36
f 22 36 31
f 22 31 32
f 22 32 23
f 25 33 42
f 25 42 34
f 25 27 35
f 25 35 33
f 26 34 29
f 28 30 37
f 28 37 36
f 29 34 38
f 31 36 45
f 31 45 39
f 31 39 32
f 32 39 40
f 33 41 50
f 33 50 42
f 33 35 41
f 34 42 43
f 34 43 38
f 35 44 41
f 36 37 45
f 37 46 45
f 39 45 53
f 39 53 47
f 39 47 48
f 39 48 40
f 41 44 49
f 41 49 58
f 41 58 50
f 42 50 43
f 43 50 51
f 44 52 49
f 45 46 54
f 45 54 53
f 47 53 61
f 47 61 55
f 47 55 48
f 48 55 56
f 49 57 67
f 49 67 58
f 49 52 60
f 49 60 57
f 50 58 59
f 50 59 51
f 53 54 61
f 54 62 61
f 55 61 69
f 55 69 63
f 55 63 64
f 55 64 56
f 57 60 65
f 57 65 66
f 57 66 75
f 57 75 67
f 58 67 68
f 58 68 59
f 61 62 70
f 61 70 69
f 63 69 77
f 63 77 71
f 63 71 72
f 63 72 64
f 65 73 74
f 65 74 66
f 66 74 79
f 66 79 75
f 67 75 76
f 67 76 68
f 69 70 78
f 69 78 77
f 71 74 72
f 71 77 79
f 71 79 74
f 72 74 73
f 75 79 76
f 76 79 80
f 77 78 79
f 78 80 79

