# https://github.com/mikedh/trimesh
v 0.42960456 -0.09953484 -0.40082383
v 0.42556286 -0.09953484 -0.40075329
v 0.42646691 -0.09497578 -0.40089434
v 0.43497580 -0.08497842 -0.40103540
v 0.43447059 -0.09953484 -0.40068278
v 0.20236441 -0.00519483 -0.39158478
v 0.20236441 0.00503049 -0.39278373
v 0.20236441 0.20820183 -0.40096489
v 0.20236441 -0.09953484 -0.37486988
v 0.40498200 0.14499369 -0.40110594
v 0.43497580 0.08497690 -0.40103540
v 0.44300604 -0.04498893 -0.40068278
v 0.44297945 -0.05498630 -0.40068278
v 0.44239447 -0.06498367 -0.40054172
v 0.44000134 -0.09005851 -0.39997751
v 0.43928340 -0.09673429 -0.39983645
v 0.43899092 -0.09953484 -0.39969540
v 0.20236441 0.21285859 -0.40096489
v 0.20236441 -0.09953484 0.31939828
v 0.42535013 0.12509665 -0.40075329
v 0.42497787 0.11496902 -0.40103540
v 0.26501101 0.21285859 -0.40096489
v 0.27500895 0.21279345 -0.40096489
v 0.32502517 0.20374046 -0.40096489
v 0.34499443 0.19498055 -0.40096489
v 0.37498823 0.17498580 -0.40096489
v 0.38450754 0.17505093 -0.40068278
v 0.39551589 0.16544434 -0.40068278
v 0.40500861 0.15463285 -0.40061224
v 0.43338037 0.10497164 -0.40068278
v 0.44239447 0.06501472 -0.40054172
v 0.44297945 0.05501735 -0.40068278
v 0.44300604 0.04501998 -0.40068278
v 0.44800502 -0.04498893 -0.39941329
v 0.44797841 -0.05498630 -0.39941329
v 0.44739342 -0.06498367 -0.39920169
v 0.44625005 -0.07498105 -0.39863747
v 0.44449508 -0.09953484 -0.39659220
v 0.20236441 0.21416117 -0.40040067
v 0.46861243 -0.09953484 0.31939828
v 0.20236441 0.23314640 0.31939828
v 0.40171140 0.16241582 -0.40025961
v 0.42223907 0.13314013 -0.40033013
v 0.42891321 0.12848337 -0.39976591
v 0.43085432 0.12180761 -0.40018907
v 0.43205085 0.11496902 -0.40040067
v 0.26501101 0.21784098 -0.39870802
v 0.27500895 0.21777585 -0.39870802
v 0.28500688 0.21728738 -0.39849642
v 0.28500688 0.21227242 -0.40075329
v 0.33502311 0.20273095 -0.40082383
v 0.35406169 0.19472003 -0.40054172
v 0.37498823 0.18221517 -0.40047118
v 0.39253777 0.17176190 -0.40033013
v 0.39921191 0.16905902 -0.39983645
v 0.43928340 0.09673277 -0.39983645
v 0.44000134 0.09005699 -0.39997751
v 0.44739342 0.06501472 -0.39920169
v 0.44797841 0.05501735 -0.39941329
v 0.44800502 0.04501998 -0.39941329
v 0.45499825 -0.05498630 -0.39468798
v 0.45499825 -0.06498367 -0.39440587
v 0.45563641 -0.07436231 -0.39292479
v 0.45358896 -0.08497842 -0.39278373
v 0.45202014 -0.09953484 -0.39158478
v 0.20236441 0.21784098 -0.39870802
v 0.46978241 -0.09442218 0.31939828
v 0.46853268 -0.09953484 -0.35498124
v 0.20236441 0.23311384 -0.35498124
v 0.29500479 0.23314640 0.31939828
v 0.40835896 0.15775907 -0.39962485
v 0.42535013 0.13587557 -0.39906064
v 0.43449718 0.12509665 -0.39821431
v 0.43704984 0.11496902 -0.39906064
v 0.43837935 0.10497164 -0.39955434
v 0.27500895 0.22266056 -0.39370060
v 0.28500688 0.22262800 -0.39348900
v 0.29500479 0.22223723 -0.39271322
v 0.33502311 0.21364014 -0.39398271
v 0.33502311 0.20771335 -0.39899012
v 0.32502517 0.20875542 -0.39948380
v 0.31768626 0.20940672 -0.39983645
v 0.31103870 0.21009058 -0.40004802
v 0.34499443 0.20107014 -0.40033013
v 0.35009977 0.20002808 -0.39997751
v 0.36881930 0.18928172 -0.39983645
v 0.38751221 0.17843767 -0.39955434
v 0.39551589 0.17505093 -0.39863747
v 0.40498200 0.17498580 -0.39482903
v 0.40500861 0.16544434 -0.39870802
v 0.44497371 0.10497164 -0.39567533
v 0.45563641 0.07436080 -0.39292479
v 0.45499825 0.06501472 -0.39440587
v 0.45499825 0.05501735 -0.39468798
v 0.46034288 -0.05498630 -0.39024475
v 0.46026310 -0.06498367 -0.39017424
v 0.46013016 -0.07061736 -0.39010370
v 0.45941222 -0.07729314 -0.38953948
v 0.45858791 -0.08497842 -0.38876370
v 0.45752430 -0.09497578 -0.38770580
v 0.45701909 -0.09953484 -0.38707104
v 0.20236441 0.22266056 -0.39370060
v 0.47185645 -0.08497842 0.31939828
v 0.46802747 -0.09953484 -0.35998866
v 0.47018126 -0.09087263 -0.36090553
v 0.47028762 -0.09132853 -0.35498124
v 0.29500479 0.23311384 -0.35498124
v 0.20236441 0.23256025 -0.36499608
v 0.30500272 0.23259281 0.31939828
v 0.41434178 0.15463285 -0.39800274
v 0.42497787 0.14499369 -0.39623955
v 0.43590644 0.13587557 -0.39391217
v 0.44223493 0.13310757 -0.39137319
v 0.44409624 0.12499894 -0.39292479
v 0.44593096 0.11571800 -0.39355955
v 0.20236441 0.22399572 -0.39151424
v 0.27500895 0.22767553 -0.38537839
v 0.28500688 0.22764297 -0.38537839
v 0.29500479 0.22725219 -0.38523734
v 0.30500272 0.22142310 -0.39165530
v 0.34499443 0.21272832 -0.39306584
v 0.30029625 0.23002020 -0.38008887
v 0.30417842 0.22679628 -0.38403839
v 0.34499443 0.20605256 -0.39807326
v 0.35406169 0.20400098 -0.39680377
v 0.35677391 0.19784625 -0.39934275
v 0.36528277 0.19472003 -0.39821431
v 0.38450754 0.18420163 -0.39743853
v 0.39479795 0.18524370 -0.39306584
v 0.40498200 0.18156388 -0.39116162
v 0.41000757 0.18000078 -0.38996264
v 0.41200182 0.17498580 -0.39123213
v 0.41559151 0.16541177 -0.39341849
v 0.45358896 0.08497690 -0.39278373
v 0.46013016 0.07061585 -0.39010370
v 0.46026310 0.06501472 -0.39017424
v 0.46034288 0.05501735 -0.39024475
v 0.46473026 -0.05498630 -0.38495523
v 0.46465051 -0.06498367 -0.38495523
v 0.46326780 -0.07436231 -0.38566050
v 0.46305507 -0.08497842 -0.38375628
v 0.46196488 -0.09497578 -0.38269836
v 0.45906654 -0.09953484 -0.38481417
v 0.47347844 -0.07498105 0.31939828
v 0.47164375 -0.08497842 -0.35498124
v 0.46752223 -0.09953484 -0.36471397
v 0.46863902 -0.09451988 -0.36450240
v 0.46946332 -0.08758359 -0.36760560
v 0.47076625 -0.08455507 -0.36450240
v 0.47225529 -0.07498105 -0.36499608
v 0.47323912 -0.07498105 -0.35498124
v 0.30500272 0.23256025 -0.35498124
v 0.29500479 0.23256025 -0.36499608
v 0.20236441 0.23115996 -0.37494040
v 0.31500065 0.23109482 0.31939828
v 0.43295494 0.14499369 -0.39186689
v 0.43984181 0.13978332 -0.38989213
v 0.44531938 0.13587557 -0.38763526
v 0.44909519 0.12499894 -0.38939843
v 0.44989291 0.11952807 -0.38989213
v 0.45061085 0.11288486 -0.39045635
v 0.20236441 0.22767553 -0.38537839
v 0.28500688 0.23015045 -0.38037097
v 0.29500479 0.23011789 -0.38022992
v 0.31500065 0.22051129 -0.39059740
v 0.32021233 0.22002283 -0.39003319
v 0.32688648 0.21940409 -0.38918686
v 0.33502311 0.21865511 -0.38812897
v 0.34499443 0.21774329 -0.38664788
v 0.35499236 0.21139316 -0.39144373
v 0.35828954 0.21966460 -0.37853727
v 0.35161540 0.22028334 -0.38051203
v 0.34499443 0.22090207 -0.38164046
v 0.33502311 0.22181389 -0.38312152
v 0.29500479 0.23112740 -0.37494040
v 0.30500272 0.23190895 -0.36499608
v 0.30417842 0.23054123 -0.37444672
v 0.31101212 0.23018302 -0.37077931
v 0.30697039 0.22940147 -0.37747937
v 0.37557322 0.19572954 -0.39391217
v 0.36060292 0.21031854 -0.39024475
v 0.36435214 0.20497791 -0.39250162
v 0.38498616 0.19279870 -0.39207846
v 0.39134121 0.19081226 -0.39059740
v 0.39798877 0.18876068 -0.38897526
v 0.40585947 0.18716502 -0.38537839
v 0.40976825 0.18983531 -0.37959519
v 0.41399610 0.18234544 -0.38446155
v 0.42061707 0.18068463 -0.38072363
v 0.41700080 0.17498580 -0.38777632
v 0.41931415 0.16905902 -0.38953948
v 0.45941222 0.07729162 -0.38953948
v 0.46305507 0.08497690 -0.38375628
v 0.46326780 0.07436080 -0.38566050
v 0.46465051 0.06501472 -0.38495523
v 0.46473026 0.05501735 -0.38495523
v 0.46938354 -0.06498367 -0.37804359
v 0.46898469 -0.07498105 -0.37698567
v 0.46148625 -0.09953484 -0.38206363
v 0.47377095 -0.06937991 0.31939828
v 0.47379753 -0.06498367 -0.35498124
v 0.46595341 -0.09953484 -0.37042665
v 0.47018126 -0.08094038 -0.37056771
v 0.47060668 -0.07498105 -0.37197825
v 0.47092581 -0.06498367 -0.37310669
v 0.47284028 -0.06498367 -0.36499608
v 0.31500065 0.23106226 -0.35498124
v 0.32029212 0.23002020 -0.36034131
v 0.28500688 0.23115996 -0.37494040
v 0.20236441 0.23015045 -0.38037097
v 0.31805852 0.23054123 0.31939828
v 0.42838141 0.15775907 -0.38883421
v 0.43795389 0.14499369 -0.38841107
v 0.43476307 0.15466541 -0.38509628
v 0.44468123 0.14414701 -0.38290995
v 0.45018542 0.14027181 -0.38022992
v 0.45175421 0.13499632 -0.38213417
v 0.45374849 0.12499894 -0.38439101
v 0.45752430 0.09497426 -0.38770580
v 0.45858791 0.08497690 -0.38876370
v 0.35496578 0.21689661 -0.38432050
v 0.35496578 0.22106490 -0.37515199
v 0.36145380 0.22041360 -0.37190774
v 0.36485735 0.21826433 -0.37515199
v 0.37238237 0.21145830 -0.38185206
v 0.36435214 0.21289115 -0.38509628
v 0.31460181 0.23050866 -0.36414975
v 0.31460181 0.22868504 -0.37444672
v 0.31765968 0.22956428 -0.36697084
v 0.35499236 0.22295365 -0.36499608
v 0.36727706 0.20829952 -0.38848159
v 0.37929583 0.19957218 -0.38961002
v 0.40309411 0.19191946 -0.38227519
v 0.41500652 0.18762091 -0.37571618
v 0.39107531 0.20064680 -0.38093519
v 0.37902993 0.20940672 -0.37832570
v 0.38456070 0.20715976 -0.37501094
v 0.41168275 0.19104022 -0.37289512
v 0.42197317 0.18215004 -0.37494040
v 0.42739758 0.17488810 -0.37550461
v 0.42965776 0.16954750 -0.37924254
v 0.44111812 0.15157177 -0.38135836
v 0.42271769 0.17498580 -0.38276890
v 0.46196488 0.09497426 -0.38269836
v 0.46898469 0.07497953 -0.37698567
v 0.46938354 0.06501472 -0.37804359
v 0.46568751 -0.09497578 -0.37494040
v 0.46813381 -0.08455507 -0.37430567
v 0.46470368 -0.09953484 -0.37494040
v 0.47398365 -0.06498367 0.31939828
v 0.47379753 0.06501472 -0.35498124
v 0.47401026 -0.05498630 0.31939828
v 0.47092581 0.06501472 -0.37310669
v 0.47284028 0.06501472 -0.36499608
v 0.32542402 0.22914094 -0.35498124
v 0.34499443 0.22552626 -0.35498124
v 0.35499236 0.22367007 -0.35498124
v 0.35499236 0.22370264 0.31939828
v 0.44776571 0.14688244 -0.37494040
v 0.45135537 0.14186747 -0.37494040
v 0.45545027 0.13499632 -0.37494040
v 0.45898676 0.12591076 -0.37515199
v 0.45951858 0.11783470 -0.37860781
v 0.46023652 0.11119150 -0.38037097
v 0.46090126 0.10497164 -0.38135836
v 0.36485735 0.22083694 -0.36422029
v 0.37012219 0.22005539 -0.36034131
v 0.36810136 0.21933897 -0.36704138
v 0.37541366 0.21282601 -0.37501094
v 0.41843665 0.18889093 -0.36499608
v 0.38097101 0.21057905 -0.37162563
v 0.39966395 0.19976756 -0.36908665
v 0.41343769 0.19214742 -0.36499608
v 0.42370152 0.18390854 -0.36499608
v 0.42870051 0.17820972 -0.36499608
v 0.43109363 0.17150137 -0.37254247
v 0.44016087 0.16020142 -0.37035614
v 0.46813381 0.08455355 -0.37430567
v 0.47018126 0.08093887 -0.37056771
v 0.47060668 0.07497953 -0.37197825
v 0.47323912 0.07497953 -0.35498124
v 0.47347844 0.07497953 0.31939828
v 0.47398365 0.06501472 0.31939828
v 0.47401026 0.06061848 0.31939828
v 0.47225529 0.07497953 -0.36499608
v 0.36499029 0.22148824 -0.35498124
v 0.36057630 0.22249775 0.31939828
v 0.44920158 0.14890146 -0.36704138
v 0.45252535 0.14535190 -0.36422029
v 0.45842838 0.13496375 -0.36591294
v 0.45994401 0.12985109 -0.36986244
v 0.46066195 0.12317532 -0.37197825
v 0.46568751 0.09497426 -0.37494040
v 0.40086052 0.20051655 -0.36238658
v 0.37408414 0.21676634 -0.36422029
v 0.37020198 0.22012052 -0.35498124
v 0.38825676 0.20891824 -0.35498124
v 0.41434178 0.19270101 -0.35498124
v 0.41934073 0.18954223 -0.35498124
v 0.38235372 0.21145830 -0.36499608
v 0.42436630 0.18455982 -0.35498124
v 0.42936525 0.17912152 -0.35498124
v 0.45007905 0.15010634 -0.36034131
v 0.44625005 0.15407926 -0.36422029
v 0.46946332 0.08758207 -0.36760560
v 0.47076625 0.08455355 -0.36450240
v 0.47018126 0.09087111 -0.36090553
v 0.47164375 0.08497690 -0.35498124
v 0.47257438 0.08058066 0.31939828
v 0.36499029 0.22152080 0.31939828
v 0.45872086 0.13743867 -0.35498124
v 0.46066195 0.13160959 -0.36316237
v 0.46164578 0.12591076 -0.36591294
v 0.36791521 0.22073925 0.31939828
v 0.37022856 0.22012052 0.31939828
v 0.37240896 0.21881792 0.31939828
v 0.37522754 0.21709199 0.31939828
v 0.40139234 0.20087476 0.31939828
v 0.41088504 0.19494799 0.31939828
v 0.41439494 0.19273359 0.31939828
v 0.41660196 0.19133329 0.31939828
v 0.41939390 0.18954223 0.31939828
v 0.42436630 0.18455982 0.31939828
v 0.42657328 0.18221517 0.31939828
v 0.42936525 0.17918664 0.31939828
v 0.45388144 0.14499369 -0.35498124
v 0.43300810 0.17420426 0.31939828
v 0.44385692 0.15922448 0.31939828
v 0.46308166 0.12499894 -0.35498124
v 0.47028762 0.09132702 -0.35498124
v 0.47185645 0.08497690 0.31939828
v 0.46100762 0.13245627 -0.35498124
v 0.45877406 0.13756892 0.31939828
v 0.46108741 0.13255396 0.31939828
v 0.45023859 0.15033430 0.31939828
v 0.45401439 0.14499369 0.31939828
v 0.46329439 0.12499894 0.31939828
v 0.46212441 0.12916723 0.31939828
f 1 2 3
f 1 3 4
f 1 4 5
f 1 5 17
f 1 17 38
f 1 38 65
f 1 65 101
f 1 101 143
f 1 143 199
f 1 199 249
f 1 249 202
f 1 202 146
f 1 146 104
f 1 104 68
f 1 68 40
f 1 40 19
f 1 19 9
f 1 9 2
f 2 6 7
f 2 7 8
f 2 8 3
f 2 9 6
f 3 8 4
f 4 8 10
f 4 10 11
f 4 11 33
f 4 33 12
f 4 12 13
f 4 13 14
f 4 14 5
f 5 14 15
f 5 15 16
f 5 16 17
f 6 9 19
f 6 19 41
f 6 41 69
f 6 69 108
f 6 108 154
f 6 154 210
f 6 210 162
f 6 162 116
f 6 116 102
f 6 102 66
f 6 66 39
f 6 39 18
f 6 18 8
f 6 8 7
f 8 18 10
f 10 20 21
f 10 21 11
f 10 18 22
f 10 22 23
f 10 23 24
f 10 24 25
f 10 25 26
f 10 26 27
f 10 27 28
f 10 28 29
f 10 29 20
f 11 21 30
f 11 30 31
f 11 31 32
f 11 32 33
f 12 33 60
f 12 60 34
f 12 34 35
f 12 35 13
f 13 35 14
f 14 35 36
f 14 36 15
f 15 36 16
f 16 36 17
f 17 36 37
f 17 37 38
f 18 39 22
f 19 40 67
f 19 67 103
f 19 103 144
f 19 144 200
f 19 200 250
f 19 250 252
f 19 252 284
f 19 284 283
f 19 283 282
f 19 282 309
f 19 309 331
f 19 331 337
f 19 337 338
f 19 338 334
f 19 334 333
f 19 333 336
f 19 336 335
f 19 335 328
f 19 328 327
f 19 327 325
f 19 325 324
f 19 324 323
f 19 323 322
f 19 322 321
f 19 321 320
f 19 320 319
f 19 319 318
f 19 318 317
f 19 317 316
f 19 316 315
f 19 315 314
f 19 314 310
f 19 310 287
f 19 287 258
f 19 258 211
f 19 211 155
f 19 155 109
f 19 109 70
f 19 70 41
f 20 30 21
f 20 29 42
f 20 42 43
f 20 43 44
f 20 44 45
f 20 45 46
f 20 46 30
f 22 39 47
f 22 47 48
f 22 48 23
f 23 48 49
f 23 49 50
f 23 50 24
f 24 50 51
f 24 51 25
f 25 51 27
f 25 27 26
f 27 52 53
f 27 53 54
f 27 54 28
f 27 51 52
f 28 54 55
f 28 55 42
f 28 42 29
f 30 46 56
f 30 56 57
f 30 57 31
f 31 57 58
f 31 58 59
f 31 59 32
f 32 59 60
f 32 60 33
f 34 60 94
f 34 94 61
f 34 61 35
f 35 61 62
f 35 62 36
f 36 62 63
f 36 63 37
f 37 63 38
f 38 63 64
f 38 64 65
f 39 66 47
f 40 68 67
f 41 70 107
f 41 107 69
f 42 55 44
f 42 44 43
f 44 71 72
f 44 72 73
f 44 73 74
f 44 74 45
f 44 55 71
f 45 74 75
f 45 75 46
f 46 75 56
f 47 76 48
f 47 66 102
f 47 102 76
f 48 76 77
f 48 77 49
f 49 77 78
f 49 78 79
f 49 79 80
f 49 80 81
f 49 81 82
f 49 82 83
f 49 83 50
f 50 83 51
f 51 83 82
f 51 82 81
f 51 81 80
f 51 80 84
f 51 84 52
f 52 84 85
f 52 85 86
f 52 86 53
f 53 86 54
f 54 86 87
f 54 87 55
f 55 87 88
f 55 88 89
f 55 89 90
f 55 90 71
f 56 75 58
f 56 58 57
f 58 75 91
f 58 91 92
f 58 92 93
f 58 93 59
f 59 93 94
f 59 94 60
f 61 94 137
f 61 137 95
f 61 95 96
f 61 96 62
f 62 96 97
f 62 97 63
f 63 97 64
f 64 97 65
f 65 97 98
f 65 98 99
f 65 99 100
f 65 100 101
f 67 68 103
f 68 104 105
f 68 105 106
f 68 106 103
f 69 107 153
f 69 153 108
f 70 109 152
f 70 152 107
f 71 90 72
f 72 90 110
f 72 110 111
f 72 111 73
f 73 111 112
f 73 112 113
f 73 113 114
f 73 114 74
f 74 114 115
f 74 115 91
f 74 91 75
f 76 116 117
f 76 117 118
f 76 118 77
f 76 102 116
f 77 118 119
f 77 119 78
f 78 120 121
f 78 121 79
f 78 119 122
f 78 122 123
f 78 123 120
f 79 121 80
f 80 85 84
f 80 121 124
f 80 124 85
f 85 124 125
f 85 125 126
f 85 126 86
f 86 126 87
f 87 126 127
f 87 127 128
f 87 128 88
f 88 128 129
f 88 129 130
f 88 130 89
f 89 130 131
f 89 131 132
f 89 132 133
f 89 133 90
f 90 133 111
f 90 111 110
f 91 115 92
f 92 115 134
f 92 134 135
f 92 135 93
f 93 135 136
f 93 136 94
f 94 136 137
f 95 137 196
f 95 196 138
f 95 138 139
f 95 139 96
f 96 139 97
f 97 139 140
f 97 140 141
f 97 141 98
f 98 141 99
f 99 141 100
f 100 141 142
f 100 142 143
f 100 143 101
f 103 106 145
f 103 145 144
f 104 146 105
f 105 146 147
f 105 147 148
f 105 148 149
f 105 149 150
f 105 150 151
f 105 151 145
f 105 145 106
f 107 152 153
f 108 153 209
f 108 209 154
f 109 155 207
f 109 207 152
f 111 133 112
f 112 133 156
f 112 156 113
f 113 156 157
f 113 157 158
f 113 158 159
f 113 159 114
f 114 159 115
f 115 159 160
f 115 160 161
f 115 161 134
f 116 162 117
f 117 162 210
f 117 210 163
f 117 163 118
f 118 163 164
f 118 164 122
f 118 122 119
f 120 165 121
f 120 123 165
f 121 165 166
f 121 166 167
f 121 167 168
f 121 168 169
f 121 169 170
f 121 170 124
f 122 171 172
f 122 172 173
f 122 173 174
f 122 174 168
f 122 168 123
f 122 164 175
f 122 175 176
f 122 176 177
f 122 177 178
f 122 178 179
f 122 179 171
f 123 168 167
f 123 167 166
f 123 166 165
f 124 170 125
f 125 180 127
f 125 127 126
f 125 170 181
f 125 181 182
f 125 182 180
f 127 180 128
f 128 180 129
f 129 182 183
f 129 183 130
f 129 180 182
f 130 183 184
f 130 184 131
f 131 185 186
f 131 186 187
f 131 187 188
f 131 188 189
f 131 189 190
f 131 190 191
f 131 191 132
f 131 184 185
f 132 191 133
f 133 191 156
f 134 161 135
f 135 192 193
f 135 193 194
f 135 194 195
f 135 195 136
f 135 161 192
f 136 195 137
f 137 195 196
f 138 196 246
f 138 246 197
f 138 197 139
f 139 197 140
f 140 197 198
f 140 198 141
f 141 198 142
f 142 199 143
f 142 198 199
f 144 145 151
f 144 151 201
f 144 201 200
f 146 202 203
f 146 203 148
f 146 148 147
f 148 203 149
f 149 203 150
f 150 203 204
f 150 204 205
f 150 205 206
f 150 206 151
f 151 206 201
f 152 207 208
f 152 208 176
f 152 176 153
f 153 176 175
f 153 175 209
f 154 209 163
f 154 163 210
f 155 211 207
f 156 191 157
f 157 191 212
f 157 212 213
f 157 213 158
f 158 213 214
f 158 214 215
f 158 215 216
f 158 216 217
f 158 217 159
f 159 217 218
f 159 218 160
f 160 218 219
f 160 219 220
f 160 220 192
f 160 192 161
f 163 209 175
f 163 175 164
f 168 174 173
f 168 173 169
f 169 173 172
f 169 172 221
f 169 221 170
f 170 221 181
f 171 179 222
f 171 222 223
f 171 223 224
f 171 224 225
f 171 225 226
f 171 226 221
f 171 221 172
f 176 178 177
f 176 208 227
f 176 227 178
f 178 228 179
f 178 227 229
f 178 229 230
f 178 230 222
f 178 222 228
f 179 228 222
f 181 221 226
f 181 226 231
f 181 231 232
f 181 232 184
f 181 184 183
f 181 183 182
f 184 232 185
f 185 232 231
f 185 231 225
f 185 225 233
f 185 233 186
f 186 233 187
f 187 234 189
f 187 189 188
f 187 233 235
f 187 235 236
f 187 236 237
f 187 237 238
f 187 238 234
f 189 234 239
f 189 239 240
f 189 240 241
f 189 241 216
f 189 216 242
f 189 242 243
f 189 243 190
f 190 212 191
f 190 243 212
f 192 220 193
f 193 220 219
f 193 219 244
f 193 244 245
f 193 245 194
f 194 245 246
f 194 246 195
f 195 246 196
f 197 246 253
f 197 253 205
f 197 205 204
f 197 204 198
f 198 247 199
f 198 204 203
f 198 203 248
f 198 248 247
f 199 247 249
f 200 201 250
f 201 206 254
f 201 254 251
f 201 251 284
f 201 284 252
f 201 252 250
f 202 249 203
f 203 249 247
f 203 247 248
f 205 253 254
f 205 254 206
f 207 255 208
f 207 211 255
f 208 255 256
f 208 256 257
f 208 257 230
f 208 230 229
f 208 229 227
f 211 258 256
f 211 256 255
f 212 214 213
f 212 243 214
f 214 243 242
f 214 242 215
f 215 242 216
f 216 241 259
f 216 259 260
f 216 260 261
f 216 261 217
f 217 261 262
f 217 262 218
f 218 262 263
f 218 263 264
f 218 264 265
f 218 265 244
f 218 244 219
f 222 230 223
f 223 230 266
f 223 266 267
f 223 267 268
f 223 268 224
f 224 269 225
f 224 268 269
f 225 231 226
f 225 269 236
f 225 236 235
f 225 235 233
f 230 257 267
f 230 267 266
f 234 238 270
f 234 270 239
f 236 269 237
f 237 269 271
f 237 271 238
f 238 271 272
f 238 272 273
f 238 273 270
f 239 270 274
f 239 274 275
f 239 275 240
f 240 275 276
f 240 276 277
f 240 277 241
f 241 277 259
f 244 265 245
f 245 265 264
f 245 264 278
f 245 278 279
f 245 279 280
f 245 280 246
f 246 280 253
f 251 254 281
f 251 281 282
f 251 282 283
f 251 283 284
f 253 280 285
f 253 285 254
f 254 285 281
f 256 258 257
f 257 286 267
f 257 258 287
f 257 287 286
f 259 277 260
f 260 277 288
f 260 288 289
f 260 289 290
f 260 290 261
f 261 290 291
f 261 291 262
f 262 291 292
f 262 292 293
f 262 293 263
f 263 293 278
f 263 278 264
f 267 294 273
f 267 273 295
f 267 295 268
f 267 286 296
f 267 296 297
f 267 297 298
f 267 298 294
f 268 295 269
f 269 295 271
f 270 273 299
f 270 299 274
f 271 295 272
f 272 300 273
f 272 295 300
f 273 300 295
f 273 294 299
f 274 299 301
f 274 301 302
f 274 302 275
f 275 288 277
f 275 277 276
f 275 302 303
f 275 303 304
f 275 304 289
f 275 289 288
f 278 293 279
f 279 293 292
f 279 292 291
f 279 291 305
f 279 305 306
f 279 306 285
f 279 285 280
f 281 285 307
f 281 307 308
f 281 308 282
f 282 308 309
f 285 306 307
f 286 287 310
f 286 310 296
f 289 304 303
f 289 303 311
f 289 311 290
f 290 311 312
f 290 312 291
f 291 312 313
f 291 313 305
f 294 298 299
f 296 310 314
f 296 314 315
f 296 315 316
f 296 316 317
f 296 317 318
f 296 318 297
f 297 318 298
f 298 318 319
f 298 319 320
f 298 320 299
f 299 320 321
f 299 321 322
f 299 322 301
f 301 322 323
f 301 323 324
f 301 324 325
f 301 325 302
f 302 326 303
f 302 325 327
f 302 327 328
f 302 328 326
f 303 326 311
f 305 313 307
f 305 307 306
f 307 312 329
f 307 329 330
f 307 330 308
f 307 313 312
f 308 330 331
f 308 331 309
f 311 332 312
f 311 326 333
f 311 333 334
f 311 334 332
f 312 332 329
f 326 328 335
f 326 335 336
f 326 336 333
f 329 332 337
f 329 337 330
f 330 337 331
f 332 334 338
f 332 338 337

