# https://github.com/mikedh/trimesh
v -0.50507236 -0.07499590 0.38499779
v -0.50450569 -0.07499590 0.37499520
v -0.50504398 -0.08495971 0.38499779
v -0.50229573 -0.08495971 0.39361656
v -0.50229573 -0.07499590 0.39368129
v -0.50507236 0.07499588 0.38499779
v -0.50175744 -0.07499590 0.36771175
v -0.50444901 -0.08495971 0.37499520
v -0.50450569 0.07499588 0.37499520
v -0.50396740 -0.09497212 0.38499779
v -0.50175744 -0.09497212 0.39286393
v -0.49753585 -0.08495971 0.39861783
v -0.49773419 -0.07499590 0.39868259
v -0.50229573 0.07499588 0.39368129
v -0.50229573 0.08495969 0.39361656
v -0.50504398 0.08495969 0.38499779
v -0.47399136 -0.06498349 0.31940633
v -0.50170076 -0.08495971 0.36776841
v -0.50175744 0.07499588 0.36771175
v -0.50116241 -0.09497212 0.36844820
v -0.50337237 -0.09497212 0.37499520
v -0.50444901 0.08495969 0.37499520
v -0.50042582 -0.11198350 0.37789240
v -0.50189912 -0.10498453 0.38499779
v -0.50014246 -0.11071980 0.39028233
v -0.50073743 -0.10498453 0.39130202
v -0.49671420 -0.09497212 0.39786521
v -0.49138767 -0.14498559 0.39230552
v -0.49249262 -0.13497317 0.39365700
v -0.48753440 -0.13497317 0.39865831
v -0.48866773 -0.12496075 0.39943519
v -0.48940438 -0.11771876 0.39980745
v -0.49014103 -0.11106002 0.40006644
v -0.49172765 -0.09497212 0.40060055
v -0.49252096 -0.08495971 0.40084332
v -0.49271929 -0.07499590 0.40092427
v -0.49773419 0.07499588 0.39868259
v -0.49753585 0.08495969 0.39861783
v -0.50175744 0.09497210 0.39286393
v -0.50396740 0.09497210 0.38499779
v -0.47345304 -0.07499590 0.31940633
v -0.47399136 0.06498347 0.31940633
v -0.50170076 0.08495969 0.36776841
v -0.47186643 -0.08495971 0.31940633
v -0.50042582 -0.10197109 0.36937886
v -0.49968913 -0.10862983 0.37122399
v -0.50119078 -0.10517894 0.37473622
v -0.50337237 0.09497210 0.37499520
v -0.50116241 0.09497210 0.36844820
v -0.50042582 -0.11203210 0.38499779
v -0.49484426 -0.13497317 0.37499520
v -0.49260595 -0.14498559 0.37499520
v -0.49325761 -0.14498559 0.38499779
v -0.49546754 -0.13497317 0.38499779
v -0.49764919 -0.12496075 0.38499779
v -0.49053767 -0.15091527 0.39097023
v -0.48597610 -0.14498559 0.39730683
v -0.48002625 -0.15004039 0.40000978
v -0.48096120 -0.14498559 0.40034160
v -0.48254785 -0.13497317 0.40081096
v -0.48365283 -0.12496075 0.40099710
v -0.48498446 -0.09497212 0.40163642
v -0.48498446 -0.08495971 0.40187919
v -0.48498446 -0.07499590 0.40196013
v -0.49271929 0.07499588 0.40092427
v -0.49252096 0.08495969 0.40084332
v -0.49172765 0.09497210 0.40060055
v -0.49014103 0.11106001 0.40006644
v -0.48940438 0.11771875 0.39980745
v -0.48866773 0.12496074 0.39943519
v -0.49671420 0.09497210 0.39786521
v -0.50073743 0.10498451 0.39130202
v -0.48753440 0.13497314 0.39865831
v -0.49249262 0.13497314 0.39365700
v -0.49138767 0.14498556 0.39230552
v -0.50014246 0.11071979 0.39028233
v -0.50189912 0.10498451 0.38499779
v -0.50042582 0.11198349 0.37789240
v -0.47376472 0.06935783 0.31940633
v -0.47345304 0.07499588 0.31940633
v -0.47110143 -0.08855639 0.31940633
v -0.46328160 -0.12496075 0.31940633
v -0.49076432 -0.14498559 0.36895803
v -0.49011266 -0.15018621 0.36981586
v -0.50119078 0.10517893 0.37473622
v -0.49968913 0.10862982 0.37122399
v -0.50042582 0.10197107 0.36937886
v -0.47186643 0.08495969 0.31940633
v -0.47277308 0.07937024 0.31940633
v -0.49070767 -0.15120688 0.37499520
v -0.49104768 -0.15174153 0.38499779
v -0.48764774 -0.15674773 0.38499779
v -0.47016644 -0.18022344 0.39025807
v -0.48158455 -0.16223997 0.39209512
v -0.48413450 -0.15383151 0.39486283
v -0.47753295 -0.15669912 0.39875543
v -0.46857983 -0.16802385 0.39947566
v -0.45951337 -0.17934856 0.39985603
v -0.46192163 -0.17268983 0.40048724
v -0.47450137 -0.15402591 0.40057629
v -0.47498301 -0.14498559 0.40137747
v -0.47498301 -0.13497317 0.40184683
v -0.47498301 -0.12496075 0.40203297
v -0.47498301 -0.11499695 0.40207344
v -0.48498446 0.07499588 0.40196013
v -0.48498446 0.08495969 0.40187919
v -0.48498446 0.09497210 0.40163642
v -0.48365283 0.12496074 0.40099710
v -0.48254785 0.13497314 0.40081096
v -0.48096120 0.14498556 0.40034160
v -0.48002625 0.15004039 0.40000978
v -0.48597610 0.14498556 0.39730683
v -0.49053767 0.15091524 0.39097023
v -0.50042582 0.11203209 0.38499779
v -0.49325761 0.14498556 0.38499779
v -0.49546754 0.13497314 0.38499779
v -0.49764919 0.12496074 0.38499779
v -0.49260595 0.14498556 0.37499520
v -0.49484426 0.13497314 0.37499520
v -0.46211997 -0.12914070 0.31940633
v -0.46109998 -0.13254297 0.31940633
v -0.45877671 -0.13754916 0.31940633
v -0.45401680 -0.14498559 0.31940633
v -0.45024857 -0.15033200 0.31940633
v -0.46056166 -0.19077051 0.36932221
v -0.46962813 -0.17944577 0.37130493
v -0.48727942 -0.15616450 0.37499520
v -0.49011266 0.15018618 0.36981586
v -0.49076432 0.14498556 0.36895803
v -0.46328160 0.12496074 0.31940633
v -0.47047812 -0.18066087 0.37797332
v -0.47909126 -0.16870430 0.38499779
v -0.47458637 -0.17497420 0.38499779
v -0.46687984 -0.18566707 0.38499779
v -0.46186498 -0.19261745 0.38499779
v -0.45806840 -0.19762364 0.38499779
v -0.46107167 -0.19149956 0.39151242
v -0.46515158 -0.17560607 0.39775193
v -0.45741674 -0.18498662 0.39852881
v -0.45036191 -0.19052747 0.40011498
v -0.45240185 -0.18498662 0.40060055
v -0.46515158 -0.16481599 0.40085953
v -0.45571679 -0.17560607 0.40111041
v -0.44497868 -0.18498662 0.40163642
v -0.46498156 -0.15499800 0.40174162
v -0.46498156 -0.14498559 0.40206534
v -0.44497868 -0.17497420 0.40206534
v -0.44497868 0.17497420 0.40206534
v -0.46498156 0.14498556 0.40206534
v -0.47498301 0.11499693 0.40206534
v -0.47498301 0.12496074 0.40203297
v -0.47498301 0.13497314 0.40184683
v -0.47498301 0.14498556 0.40137747
v -0.47450137 0.15402591 0.40057629
v -0.46192163 0.17268983 0.40048724
v -0.45951337 0.17934856 0.39985603
v -0.46857983 0.16802382 0.39947566
v -0.47753295 0.15669912 0.39875543
v -0.48413450 0.15383148 0.39486283
v -0.48158455 0.16223997 0.39209512
v -0.47016644 0.18022344 0.39025807
v -0.48764774 0.15674773 0.38499779
v -0.49104768 0.15174150 0.38499779
v -0.49070767 0.15120688 0.37499520
v -0.44665033 -0.15533823 0.31940633
v -0.44384536 -0.15922654 0.31940633
v -0.43302226 -0.17419654 0.31940633
v -0.42936736 -0.17920277 0.31940633
v -0.45132521 -0.20112315 0.36865860
v -0.45767173 -0.19708902 0.37499520
v -0.46149665 -0.19208279 0.37499520
v -0.46696487 -0.18440339 0.37478480
v -0.48226452 -0.16316345 0.37499520
v -0.45234519 0.14741576 0.31940633
v -0.45401680 0.14498556 0.31940633
v -0.45673674 0.14075702 0.31940633
v -0.45877671 0.13754916 0.31940633
v -0.45982501 0.13536197 0.31940633
v -0.46109998 0.13254297 0.31940633
v -0.48727942 0.15616447 0.37499520
v -0.46962813 0.17944577 0.37130493
v -0.46056166 0.19077048 0.36932221
v -0.45268518 -0.20224103 0.37499520
v -0.45308185 -0.20258126 0.38499779
v -0.45186353 -0.20156059 0.39224887
v -0.45444179 -0.19436720 0.39521080
v -0.44699031 -0.19718623 0.39891726
v -0.44418538 -0.19431859 0.40052772
v -0.44033211 -0.20015106 0.40006644
v -0.43497723 -0.19499904 0.40158787
v -0.42497578 -0.19499904 0.40204915
v -0.45498013 -0.16496181 0.40191966
v -0.42497578 0.19499904 0.40204915
v -0.44497868 0.18498662 0.40163642
v -0.45498013 0.16496179 0.40191966
v -0.46498156 0.15499797 0.40174162
v -0.45571679 0.17560604 0.40111041
v -0.46515158 0.16481596 0.40085953
v -0.45240185 0.18498662 0.40060055
v -0.45033357 0.19052747 0.40011498
v -0.45741674 0.18498662 0.39852881
v -0.46515158 0.17560604 0.39775193
v -0.46107167 0.19149953 0.39151242
v -0.47458637 0.17497420 0.38499779
v -0.47909126 0.16870430 0.38499779
v -0.45806840 0.19762364 0.38499779
v -0.46186498 0.19261745 0.38499779
v -0.46687984 0.18566707 0.38499779
v -0.47047812 0.18066087 0.37797332
v -0.42656243 -0.18221620 0.31940633
v -0.42435247 -0.18454918 0.31940633
v -0.42219919 -0.18673638 0.31940633
v -0.41939425 -0.18955541 0.31940633
v -0.43979380 -0.20987186 0.37049565
v -0.44665033 0.15533820 0.31940633
v -0.48226452 0.16316345 0.37499520
v -0.46696487 0.18440336 0.37478480
v -0.46149665 0.19208279 0.37499520
v -0.45767173 0.19708899 0.37499520
v -0.45132521 0.20112312 0.36865860
v -0.42936736 0.17920274 0.31940633
v -0.43302226 0.17419654 0.31940633
v -0.43965214 0.16505900 0.31940633
v -0.44458202 -0.20773327 0.37429923
v -0.44098377 -0.21060091 0.37716404
v -0.44611198 -0.20758745 0.38499779
v -0.44050211 -0.21030930 0.39054132
v -0.43497723 -0.21201041 0.39255640
v -0.44373202 -0.20418519 0.39472523
v -0.43497723 -0.20680979 0.39754960
v -0.42831904 -0.20894837 0.39952421
v -0.43497723 -0.20180359 0.40054390
v -0.40961945 -0.21968985 0.39990458
v -0.40296128 -0.22177982 0.40055200
v -0.42497578 -0.20535168 0.40100518
v -0.40576622 -0.21580154 0.40115896
v -0.41497433 -0.20496285 0.40179020
v -0.39499977 -0.21497527 0.40196824
v -0.36499545 -0.22498769 0.40194395
v -0.36499545 0.22498766 0.40194395
v -0.39499977 0.21497524 0.40196824
v -0.41497433 0.20496282 0.40179020
v -0.43497723 0.19499904 0.40158787
v -0.44418538 0.19431856 0.40052772
v -0.44033211 0.20015106 0.40006644
v -0.44699031 0.19718620 0.39891726
v -0.45444179 0.19436717 0.39521080
v -0.45186353 0.20156056 0.39224887
v -0.45308185 0.20258123 0.38499779
v -0.45268518 0.20224100 0.37499520
v -0.41089442 -0.19495043 0.31940633
v -0.42109421 -0.22066191 0.36911988
v -0.40905279 -0.22941065 0.37251884
v -0.42755407 -0.21847475 0.37499520
v -0.41939425 0.18955538 0.31940633
v -0.42157587 0.18736821 0.31940633
v -0.42435247 0.18454918 0.31940633
v -0.43979380 0.20987183 0.37049565
v -0.41024280 -0.23013970 0.37918723
v -0.41024280 -0.23013970 0.38197923
v -0.44112542 -0.21069813 0.38499779
v -0.40978944 -0.22984806 0.38864762
v -0.42180252 -0.22109935 0.39172286
v -0.39729473 -0.22848716 0.39923289
v -0.39063653 -0.23013970 0.40010691
v -0.39437646 -0.22508487 0.40081096
v -0.38499832 -0.22498769 0.40142602
v -0.37499690 -0.22498769 0.40183064
v -0.32501799 -0.23495150 0.40158787
v -0.31501654 -0.23495150 0.40167689
v -0.21562541 -0.23495150 0.40164453
v -0.21562541 0.23495147 0.40164453
v -0.31501654 0.23495147 0.40167689
v -0.32501799 0.23495147 0.40158787
v -0.37499690 0.22498766 0.40183064
v -0.38499832 0.22498766 0.40142602
v -0.39437646 0.22508487 0.40081096
v -0.40576622 0.21580151 0.40115896
v -0.42497578 0.20535165 0.40100518
v -0.43497723 0.20180357 0.40054390
v -0.42831904 0.20894834 0.39952421
v -0.40296128 0.22177979 0.40055200
v -0.40961945 0.21968982 0.39990458
v -0.43497723 0.20680979 0.39754960
v -0.44373202 0.20418516 0.39472523
v -0.43497723 0.21201041 0.39255640
v -0.44050211 0.21030927 0.39054132
v -0.44611198 0.20758745 0.38499779
v -0.44098377 0.21060088 0.37716404
v -0.44458202 0.20773324 0.37429923
v -0.40137464 -0.20088011 0.31940633
v -0.37241861 -0.21881497 0.31940633
v -0.40239462 -0.23140338 0.36836725
v -0.40542620 -0.23218107 0.37551314
v -0.41721264 0.19096491 0.31940633
v -0.40417957 0.19913036 0.31940633
v -0.42755407 0.21847472 0.37499520
v -0.40905279 0.22941062 0.37251884
v -0.42109421 0.22066191 0.36911988
v -0.40585122 -0.23242408 0.38518393
v -0.40310293 -0.23179224 0.39256448
v -0.39437646 -0.23271570 0.39553452
v -0.36499545 -0.24117279 0.39245120
v -0.36499545 -0.23738167 0.39745247
v -0.33992100 -0.23995769 0.39998552
v -0.38499832 -0.23067433 0.40039015
v -0.37499690 -0.23154920 0.40079477
v -0.36499545 -0.23237547 0.40100518
v -0.32501799 -0.24083257 0.40055200
v -0.31501654 -0.24097836 0.40067339
v -0.21562541 -0.24097836 0.40067339
v -0.21562541 -0.23534033 0.40158787
v -0.21562541 0.24097836 0.40067339
v -0.31501654 0.24097836 0.40067339
v -0.32501799 0.24083254 0.40055200
v -0.36499545 0.23237547 0.40100518
v -0.37499690 0.23154920 0.40079477
v -0.38499832 0.23067433 0.40039015
v -0.39063653 0.23013967 0.40010691
v -0.39729473 0.22848713 0.39923289
v -0.42180252 0.22109935 0.39172286
v -0.40978944 0.22984806 0.38864762
v -0.44112542 0.21069810 0.38499779
v -0.41024280 0.23013967 0.38197923
v -0.41024280 0.23013967 0.37918723
v -0.37020865 -0.22012728 0.31940633
v -0.39499977 -0.23281291 0.36633599
v -0.39499977 -0.23650682 0.37499520
v -0.39499977 -0.23699284 0.38499779
v -0.40137464 0.20088011 0.31940633
v -0.40542620 0.23218104 0.37551314
v -0.40239462 0.23140338 0.36836725
v -0.37020865 0.22012725 0.31940633
v -0.37522355 0.21706522 0.31940633
v -0.37879348 0.21487805 0.31940633
v -0.39786139 0.20306727 0.31940633
v -0.37938845 -0.23986048 0.38834009
v -0.37273028 -0.24049234 0.39111590
v -0.34502089 -0.24642202 0.38499779
v -0.35502234 -0.24209628 0.39373794
v -0.34502089 -0.24306834 0.39461195
v -0.33595443 -0.24326277 0.39598772
v -0.33323449 -0.24044374 0.40029302
v -0.32501799 -0.24481809 0.39499229
v -0.31501654 -0.24496388 0.39499229
v -0.21562541 -0.24496388 0.39499229
v -0.21562541 0.24472088 0.39534837
v -0.31501654 0.24496388 0.39499229
v -0.32501799 0.24481806 0.39499229
v -0.33323449 0.24044371 0.40029302
v -0.33992100 0.23995766 0.39998552
v -0.36499545 0.23738167 0.39745247
v -0.36499545 0.24117276 0.39245120
v -0.39437646 0.23271570 0.39553452
v -0.40310293 0.23179221 0.39256448
v -0.40585122 0.23242405 0.38518393
v -0.36499545 -0.22148818 0.31940633
v -0.37125698 -0.24020070 0.36958927
v -0.37791514 -0.23956886 0.37257549
v -0.38431835 -0.23883981 0.37554550
v -0.38055009 -0.24010351 0.37924388
v -0.38055009 -0.24010351 0.38167170
v -0.38431835 -0.23918003 0.38500589
v -0.39499977 0.23699284 0.38499779
v -0.39499977 0.23650679 0.37499520
v -0.39499977 0.23281288 0.36633599
v -0.36499545 0.22148818 0.31940633
v -0.37562022 -0.24078396 0.38500589
v -0.34502089 -0.24603319 0.37499520
v -0.33501944 -0.24744269 0.37499520
v -0.33501944 -0.24778292 0.38499779
v -0.32501799 -0.24826896 0.38499779
v -0.21562541 -0.24520692 0.39436916
v -0.21562541 0.24496388 0.39499229
v -0.32501799 0.24826896 0.38499779
v -0.34502089 0.24306834 0.39461195
v -0.33595443 0.24326274 0.39598772
v -0.33501944 0.24778292 0.38499779
v -0.35502234 0.24209625 0.39373794
v -0.34502089 0.24642199 0.38499779
v -0.37273028 0.24049231 0.39111590
v -0.37938845 0.23986048 0.38834009
v -0.36057556 -0.22246027 0.31940633
v -0.35502234 -0.22367537 0.31940633
v -0.32051310 -0.23009109 0.31940633
v -0.31501654 -0.23111176 0.31940633
v -0.35502234 -0.24418622 0.37499520
v -0.36499545 -0.24233928 0.37499520
v -0.38431835 0.23918000 0.38500589
v -0.38055009 0.24010348 0.38167170
v -0.38055009 0.24010348 0.37924388
v -0.38431835 0.23883978 0.37554550
v -0.37791514 0.23956883 0.37257549
v -0.37125698 0.24020070 0.36958927
v -0.35502234 0.22367534 0.31940633
v -0.30501509 -0.23256990 0.31940633
v -0.32501799 -0.24792874 0.37499520
v -0.30062354 -0.23281291 0.31940633
v -0.29501367 -0.23310453 0.31940633
v -0.21562541 -0.24826896 0.38499779
v -0.21562541 0.24826896 0.38499779
v -0.21562541 0.24797732 0.37561834
v -0.32501799 0.24792871 0.37499520
v -0.33501944 0.24744269 0.37499520
v -0.34502089 0.24603316 0.37499520
v -0.37562022 0.24078393 0.38500589
v -0.35502234 0.24418622 0.37499520
v -0.36499545 0.24233925 0.37499520
v -0.31501654 0.23111176 0.31940633
v -0.32051310 0.23009107 0.31940633
v -0.21562541 -0.24778292 0.37437207
v -0.21562541 -0.24792874 0.37499520
v -0.21562541 -0.23310453 0.31940633
v -0.21562541 0.24792871 0.37499520
v -0.29501367 0.23310453 0.31940633
v -0.29940522 0.23291010 0.31940633
v -0.30501509 0.23256987 0.31940633
v -0.30940667 0.23193803 0.31940633
v -0.21562541 0.23310453 0.31940633
f 1 2 3
f 1 3 4
f 1 4 5
f 1 5 14
f 1 14 6
f 1 6 9
f 1 9 2
f 2 7 8
f 2 8 3
f 2 9 19
f 2 19 7
f 3 8 21
f 3 21 10
f 3 10 11
f 3 11 4
f 4 12 13
f 4 13 5
f 4 11 12
f 5 13 37
f 5 37 14
f 6 14 15
f 6 15 16
f 6 16 9
f 7 17 18
f 7 18 8
f 7 19 42
f 7 42 17
f 8 18 20
f 8 20 21
f 9 16 22
f 9 22 19
f 10 21 23
f 10 23 24
f 10 24 25
f 10 25 26
f 10 26 11
f 11 27 12
f 11 26 28
f 11 28 29
f 11 29 30
f 11 30 27
f 12 27 31
f 12 31 32
f 12 32 33
f 12 33 34
f 12 34 35
f 12 35 36
f 12 36 13
f 13 36 65
f 13 65 37
f 14 37 15
f 15 38 39
f 15 39 16
f 15 37 38
f 16 39 40
f 16 40 48
f 16 48 22
f 17 41 18
f 17 42 79
f 17 79 80
f 17 80 89
f 17 89 88
f 17 88 130
f 17 130 179
f 17 179 178
f 17 178 177
f 17 177 176
f 17 176 175
f 17 175 174
f 17 174 215
f 17 215 223
f 17 223 222
f 17 222 221
f 17 221 257
f 17 257 256
f 17 256 255
f 17 255 295
f 17 295 296
f 17 296 330
f 17 330 336
f 17 336 335
f 17 335 334
f 17 334 333
f 17 333 367
f 17 367 395
f 17 395 410
f 17 410 409
f 17 409 418
f 17 418 417
f 17 417 416
f 17 416 415
f 17 415 419
f 17 419 413
f 17 413 399
f 17 399 398
f 17 398 396
f 17 396 386
f 17 386 385
f 17 385 384
f 17 384 383
f 17 383 357
f 17 357 326
f 17 326 292
f 17 292 291
f 17 291 251
f 17 251 213
f 17 213 212
f 17 212 211
f 17 211 210
f 17 210 168
f 17 168 167
f 17 167 166
f 17 166 165
f 17 165 124
f 17 124 123
f 17 123 122
f 17 122 121
f 17 121 120
f 17 120 82
f 17 82 81
f 17 81 44
f 17 44 41
f 18 41 20
f 19 22 43
f 19 43 42
f 20 44 45
f 20 45 21
f 20 41 44
f 21 45 46
f 21 46 47
f 21 47 23
f 22 48 49
f 22 49 43
f 23 50 24
f 23 47 46
f 23 46 51
f 23 51 52
f 23 52 53
f 23 53 54
f 23 54 55
f 23 55 50
f 24 50 25
f 25 50 55
f 25 55 54
f 25 54 53
f 25 53 56
f 25 56 28
f 25 28 26
f 27 30 31
f 28 56 57
f 28 57 30
f 28 30 29
f 30 57 58
f 30 58 59
f 30 59 31
f 31 59 60
f 31 60 32
f 32 60 33
f 33 60 34
f 34 60 61
f 34 61 35
f 35 61 62
f 35 62 63
f 35 63 36
f 36 63 64
f 36 64 105
f 36 105 65
f 37 65 38
f 38 66 67
f 38 67 68
f 38 68 69
f 38 69 70
f 38 70 71
f 38 71 39
f 38 65 66
f 39 72 40
f 39 71 73
f 39 73 74
f 39 74 75
f 39 75 72
f 40 72 76
f 40 76 77
f 40 77 78
f 40 78 48
f 42 43 79
f 43 49 80
f 43 80 79
f 44 81 45
f 45 81 82
f 45 82 83
f 45 83 84
f 45 84 46
f 46 84 51
f 48 78 85
f 48 85 86
f 48 86 87
f 48 87 49
f 49 88 89
f 49 89 80
f 49 87 88
f 51 84 52
f 52 84 90
f 52 90 53
f 53 90 91
f 53 91 56
f 56 91 92
f 56 92 93
f 56 93 94
f 56 94 95
f 56 95 58
f 56 58 57
f 58 95 96
f 58 96 97
f 58 97 98
f 58 98 99
f 58 99 100
f 58 100 101
f 58 101 59
f 59 101 60
f 60 101 102
f 60 102 61
f 61 102 62
f 62 102 63
f 63 102 103
f 63 103 64
f 64 103 104
f 64 104 105
f 65 105 106
f 65 106 66
f 66 106 107
f 66 107 108
f 66 108 67
f 67 108 109
f 67 109 68
f 68 109 69
f 69 109 70
f 70 109 110
f 70 110 73
f 70 73 71
f 72 75 76
f 73 110 111
f 73 111 112
f 73 112 75
f 73 75 74
f 75 112 113
f 75 113 76
f 76 114 77
f 76 113 115
f 76 115 116
f 76 116 117
f 76 117 114
f 77 114 78
f 78 86 85
f 78 114 117
f 78 117 116
f 78 116 115
f 78 115 118
f 78 118 119
f 78 119 86
f 82 120 84
f 82 84 83
f 84 120 121
f 84 121 122
f 84 122 123
f 84 123 124
f 84 124 125
f 84 125 126
f 84 126 127
f 84 127 90
f 86 119 128
f 86 128 87
f 87 128 129
f 87 129 130
f 87 130 88
f 90 127 92
f 90 92 91
f 92 127 131
f 92 131 132
f 92 132 93
f 93 132 133
f 93 133 134
f 93 134 135
f 93 135 136
f 93 136 137
f 93 137 94
f 94 137 138
f 94 138 97
f 94 97 96
f 94 96 95
f 97 138 139
f 97 139 98
f 98 139 140
f 98 140 99
f 99 140 141
f 99 141 142
f 99 142 100
f 100 142 101
f 101 142 143
f 101 143 144
f 101 144 145
f 101 145 102
f 102 145 146
f 102 146 103
f 103 146 104
f 104 146 147
f 104 147 148
f 104 148 149
f 104 149 150
f 104 150 105
f 105 150 151
f 105 151 106
f 106 151 152
f 106 152 107
f 107 152 108
f 108 152 109
f 109 152 153
f 109 153 110
f 110 153 111
f 111 154 155
f 111 155 156
f 111 156 157
f 111 157 158
f 111 158 159
f 111 159 113
f 111 113 112
f 111 153 154
f 113 159 160
f 113 160 161
f 113 161 162
f 113 162 163
f 113 163 115
f 115 163 164
f 115 164 118
f 118 164 128
f 118 128 119
f 124 165 125
f 125 165 166
f 125 166 167
f 125 167 168
f 125 168 169
f 125 169 170
f 125 170 171
f 125 171 126
f 126 171 172
f 126 172 131
f 126 131 173
f 126 173 127
f 127 173 131
f 128 174 175
f 128 175 176
f 128 176 177
f 128 177 178
f 128 178 179
f 128 179 130
f 128 130 129
f 128 164 180
f 128 180 181
f 128 181 182
f 128 182 174
f 131 133 132
f 131 172 171
f 131 171 170
f 131 170 136
f 131 136 135
f 131 135 134
f 131 134 133
f 136 170 183
f 136 183 184
f 136 184 185
f 136 185 137
f 137 185 186
f 137 186 139
f 137 139 138
f 139 186 187
f 139 187 140
f 140 188 141
f 140 187 189
f 140 189 188
f 141 188 144
f 141 144 143
f 141 143 142
f 144 188 190
f 144 190 191
f 144 191 147
f 144 147 192
f 144 192 145
f 145 192 146
f 146 192 147
f 147 191 193
f 147 193 148
f 148 193 194
f 148 194 195
f 148 195 149
f 149 152 151
f 149 151 150
f 149 195 196
f 149 196 152
f 152 196 153
f 153 196 194
f 153 194 197
f 153 197 198
f 153 198 154
f 154 198 155
f 155 198 199
f 155 199 200
f 155 200 156
f 156 200 201
f 156 201 157
f 157 201 202
f 157 202 160
f 157 160 158
f 158 160 159
f 160 202 203
f 160 203 161
f 161 204 205
f 161 205 162
f 161 203 206
f 161 206 207
f 161 207 208
f 161 208 204
f 162 205 209
f 162 209 180
f 162 180 164
f 162 164 163
f 168 210 169
f 169 210 211
f 169 211 212
f 169 212 213
f 169 213 214
f 169 214 183
f 169 183 170
f 174 182 215
f 180 209 216
f 180 216 181
f 181 216 209
f 181 209 217
f 181 217 218
f 181 218 182
f 182 218 219
f 182 219 220
f 182 220 221
f 182 221 222
f 182 222 223
f 182 223 215
f 183 214 224
f 183 224 225
f 183 225 226
f 183 226 184
f 184 226 227
f 184 227 185
f 185 187 186
f 185 227 228
f 185 228 229
f 185 229 187
f 187 229 230
f 187 230 231
f 187 231 189
f 188 189 232
f 188 232 190
f 189 231 233
f 189 233 234
f 189 234 232
f 190 232 235
f 190 235 236
f 190 236 237
f 190 237 191
f 191 237 238
f 191 238 239
f 191 239 240
f 191 240 193
f 193 240 241
f 193 241 242
f 193 242 243
f 193 243 194
f 194 199 197
f 194 196 195
f 194 243 244
f 194 244 199
f 197 199 198
f 199 244 200
f 200 244 245
f 200 245 246
f 200 246 201
f 201 246 247
f 201 247 203
f 201 203 202
f 203 247 248
f 203 248 206
f 204 209 205
f 204 208 209
f 206 248 249
f 206 249 250
f 206 250 219
f 206 219 209
f 206 209 207
f 207 209 208
f 209 219 218
f 209 218 217
f 213 251 214
f 214 251 252
f 214 252 253
f 214 253 254
f 214 254 224
f 219 250 220
f 220 255 256
f 220 256 257
f 220 257 221
f 220 250 258
f 220 258 255
f 224 254 225
f 225 254 259
f 225 259 226
f 226 259 260
f 226 260 261
f 226 261 262
f 226 262 227
f 227 262 263
f 227 263 228
f 228 231 230
f 228 230 229
f 228 263 231
f 231 263 264
f 231 264 233
f 232 234 235
f 233 264 265
f 233 265 234
f 234 266 236
f 234 236 235
f 234 265 266
f 236 266 238
f 236 238 237
f 238 266 267
f 238 267 268
f 238 268 239
f 239 268 269
f 239 269 270
f 239 270 271
f 239 271 272
f 239 272 240
f 240 272 273
f 240 273 274
f 240 274 275
f 240 275 241
f 241 275 276
f 241 276 277
f 241 277 278
f 241 278 242
f 242 278 243
f 243 278 279
f 243 279 280
f 243 280 244
f 244 280 245
f 245 281 246
f 245 280 282
f 245 282 283
f 245 283 281
f 246 281 284
f 246 284 285
f 246 285 248
f 246 248 247
f 248 285 286
f 248 286 287
f 248 287 249
f 249 287 288
f 249 288 250
f 250 288 289
f 250 289 290
f 250 290 258
f 251 291 252
f 252 292 293
f 252 293 253
f 252 291 292
f 253 293 294
f 253 294 259
f 253 259 254
f 255 258 295
f 258 296 295
f 258 290 297
f 258 297 298
f 258 298 299
f 258 299 296
f 259 294 300
f 259 300 260
f 260 300 262
f 260 262 261
f 262 300 301
f 262 301 263
f 263 301 264
f 264 301 302
f 264 302 265
f 265 302 303
f 265 303 304
f 265 304 305
f 265 305 306
f 265 306 266
f 266 306 267
f 267 306 307
f 267 307 268
f 268 307 308
f 268 308 269
f 269 309 310
f 269 310 270
f 269 308 309
f 270 310 311
f 270 311 312
f 270 312 271
f 271 312 311
f 271 311 346
f 271 346 373
f 271 373 400
f 271 400 412
f 271 412 411
f 271 411 413
f 271 413 419
f 271 419 414
f 271 414 402
f 271 402 401
f 271 401 374
f 271 374 347
f 271 347 313
f 271 313 272
f 272 313 273
f 273 313 314
f 273 314 274
f 274 314 315
f 274 315 316
f 274 316 275
f 275 316 317
f 275 317 276
f 276 317 318
f 276 318 277
f 277 282 278
f 277 318 319
f 277 319 282
f 278 282 279
f 279 282 280
f 281 286 284
f 281 283 320
f 281 320 321
f 281 321 286
f 282 319 283
f 283 319 320
f 284 286 285
f 286 321 287
f 287 321 322
f 287 322 288
f 288 322 323
f 288 323 324
f 288 324 325
f 288 325 289
f 289 325 297
f 289 297 290
f 292 326 293
f 293 327 328
f 293 328 294
f 293 326 327
f 294 328 329
f 294 329 300
f 296 299 330
f 297 325 298
f 298 325 331
f 298 331 332
f 298 332 299
f 299 332 333
f 299 333 334
f 299 334 335
f 299 335 336
f 299 336 330
f 300 329 301
f 301 329 337
f 301 337 338
f 301 338 302
f 302 338 303
f 303 338 339
f 303 339 340
f 303 340 304
f 304 340 305
f 305 340 341
f 305 341 342
f 305 342 343
f 305 343 307
f 305 307 306
f 307 343 309
f 307 309 308
f 309 343 344
f 309 344 310
f 310 344 345
f 310 345 346
f 310 346 311
f 313 347 314
f 314 347 348
f 314 348 349
f 314 349 315
f 315 349 350
f 315 350 317
f 315 317 316
f 317 350 351
f 317 351 318
f 318 351 319
f 319 351 352
f 319 352 353
f 319 353 354
f 319 354 320
f 320 354 355
f 320 355 321
f 321 355 322
f 322 355 356
f 322 356 324
f 322 324 323
f 324 356 325
f 325 356 331
f 326 357 328
f 326 328 327
f 328 358 359
f 328 359 360
f 328 360 361
f 328 361 329
f 328 357 358
f 329 361 362
f 329 362 363
f 329 363 337
f 331 356 364
f 331 364 365
f 331 365 332
f 332 365 366
f 332 366 333
f 333 366 365
f 333 365 367
f 337 363 362
f 337 362 368
f 337 368 339
f 337 339 338
f 339 369 370
f 339 370 371
f 339 371 340
f 339 368 362
f 339 362 361
f 339 361 369
f 340 371 341
f 341 344 342
f 341 371 344
f 342 344 343
f 344 371 372
f 344 372 345
f 345 372 373
f 345 373 346
f 347 374 348
f 348 374 401
f 348 401 375
f 348 375 349
f 349 376 377
f 349 377 350
f 349 375 378
f 349 378 376
f 350 377 351
f 351 377 376
f 351 376 379
f 351 379 352
f 352 379 353
f 353 379 380
f 353 380 381
f 353 381 354
f 354 381 355
f 355 381 382
f 355 382 364
f 355 364 356
f 357 383 358
f 358 369 359
f 358 383 384
f 358 384 385
f 358 385 386
f 358 386 369
f 359 369 387
f 359 387 388
f 359 388 360
f 360 388 361
f 361 388 387
f 361 387 369
f 364 382 389
f 364 389 390
f 364 390 391
f 364 391 365
f 365 391 392
f 365 392 393
f 365 393 394
f 365 394 367
f 367 394 395
f 369 386 396
f 369 396 370
f 370 397 372
f 370 372 371
f 370 396 398
f 370 398 399
f 370 399 397
f 372 397 412
f 372 412 400
f 372 400 373
f 375 401 402
f 375 402 403
f 375 403 404
f 375 404 378
f 376 378 379
f 378 404 380
f 378 380 379
f 380 404 405
f 380 405 391
f 380 391 390
f 380 390 406
f 380 406 382
f 380 382 381
f 382 406 390
f 382 390 389
f 391 405 407
f 391 407 408
f 391 408 392
f 392 408 393
f 393 408 407
f 393 407 405
f 393 405 394
f 394 405 409
f 394 409 410
f 394 410 395
f 397 411 412
f 397 399 411
f 399 413 411
f 402 414 403
f 403 414 419
f 403 419 415
f 403 415 416
f 403 416 404
f 404 416 417
f 404 417 405
f 405 417 418
f 405 418 409

