# https://github.com/mikedh/trimesh
v 0.32496846 0.24826896 0.38499779
v 0.31495094 0.24496388 0.39499229
v 0.32496846 0.24481806 0.39499229
v 0.33498597 0.24778292 0.38499779
v 0.32496846 0.24792871 0.37499520
v -0.21562541 0.24797732 0.37561834
v -0.21562541 0.24826896 0.38499779
v 0.31495094 0.24097836 0.40067339
v -0.21562541 0.24496388 0.39499229
v -0.21562541 0.24472088 0.39534837
v 0.32496846 0.24083254 0.40055200
v 0.33322233 0.24044371 0.40029302
v 0.33590311 0.24326274 0.39598772
v 0.34493297 0.24306834 0.39461195
v 0.35495049 0.24209625 0.39373794
v 0.36496803 0.24117276 0.39245120
v 0.34493297 0.24642199 0.38499779
v 0.33498597 0.24744269 0.37499520
v 0.29498643 0.23310453 0.31940633
v -0.21562541 0.24792871 0.37499520
v 0.31495094 0.23495147 0.40167689
v 0.32496846 0.23495147 0.40158787
v -0.21562541 0.24097836 0.40067339
v 0.36496803 0.23237547 0.40100518
v 0.37498558 0.23154920 0.40079477
v 0.33985364 0.23995766 0.39998552
v 0.36496803 0.23738167 0.39745247
v 0.39057624 0.23013967 0.40010691
v 0.39431518 0.23271570 0.39553452
v 0.37272811 0.24049231 0.39111590
v 0.34493297 0.24603316 0.37499520
v 0.37935942 0.23986048 0.38834009
v 0.37562048 0.24078393 0.38500589
v 0.38055870 0.24010348 0.38167170
v 0.38055870 0.24010348 0.37924388
v 0.30493340 0.23256987 0.31940633
v 0.30055955 0.23281288 0.31940633
v -0.21562541 0.23310453 0.31940633
v 0.36496803 0.22498766 0.40194395
v -0.21562541 0.23495147 0.40164453
v 0.37498558 0.22498766 0.40183064
v 0.38493255 0.22498766 0.40142602
v 0.38493255 0.23067433 0.40039015
v 0.39431518 0.22508487 0.40081096
v 0.40292177 0.22177979 0.40055200
v 0.40962365 0.21968982 0.39990458
v 0.39727810 0.22848713 0.39923289
v 0.40306285 0.23179221 0.39256448
v 0.36496803 0.24233925 0.37499520
v 0.37787795 0.23956883 0.37257549
v 0.37124664 0.24020070 0.36958927
v 0.31495094 0.23111176 0.31940633
v 0.39495006 0.23699284 0.38499779
v 0.38429761 0.23918000 0.38500589
v 0.39495006 0.23650679 0.37499520
v 0.38429761 0.23883978 0.37554550
v -0.21562541 -0.23310453 0.31940633
v 0.42493212 0.19499904 0.40204915
v 0.39495006 0.21497524 0.40196824
v -0.21562541 -0.23495150 0.40164453
v 0.44496718 0.17497420 0.40206534
v 0.40574360 0.21580151 0.40115896
v 0.42493212 0.20535165 0.40100518
v 0.43494964 0.20180357 0.40054390
v 0.44031113 0.20015106 0.40006644
v 0.42831832 0.20894834 0.39952421
v 0.41498512 0.22323793 0.39372984
v 0.40976474 0.22984806 0.38864762
v 0.40581417 0.23242405 0.38518393
v 0.42175755 0.22109935 0.39172286
v 0.36496803 0.22148818 0.31940633
v 0.36059418 0.22246024 0.31940633
v 0.35495049 0.22367534 0.31940633
v 0.32045352 0.23009107 0.31940633
v 0.40539089 0.23218104 0.37551314
v 0.39495006 0.23281288 0.36633599
v 0.37018842 0.22012725 0.31940633
v 0.40235740 0.23140338 0.36836725
v -0.21562541 -0.24778292 0.37437207
v 0.29498643 -0.23310453 0.31940633
v 0.44496718 0.18498662 0.40163642
v 0.43494964 0.19499904 0.40158787
v 0.41498512 0.20496282 0.40179020
v -0.21562541 -0.23534033 0.40158787
v 0.31495094 -0.23495150 0.40167689
v 0.36496803 -0.22498769 0.40194395
v 0.42493212 -0.19499904 0.40204915
v 0.44496718 -0.17497420 0.40206534
v 0.47494921 -0.11499695 0.40207344
v 0.46493170 0.14498556 0.40206534
v 0.45498469 0.16496179 0.40191966
v 0.44419116 0.19431856 0.40052772
v 0.45032868 0.19052747 0.40011498
v 0.44694248 0.19718620 0.39891726
v 0.43494964 0.20680979 0.39754960
v 0.43494964 0.21201041 0.39255640
v 0.41025856 0.23013967 0.38197923
v 0.44045225 0.21030927 0.39054132
v 0.44609591 0.20758745 0.38499779
v 0.41025856 0.23013967 0.37918723
v 0.40905929 0.22941062 0.37251884
v 0.37237537 0.21881497 0.31940633
v 0.42105210 0.22066191 0.36911988
v -0.21562541 -0.24792874 0.37499520
v 0.32496846 -0.24792874 0.37499520
v 0.29936028 -0.23291013 0.31940633
v 0.46493170 0.15499797 0.40174162
v 0.47494921 0.14498556 0.40137747
v 0.45569018 0.17560604 0.40111041
v 0.45237452 0.18498662 0.40060055
v -0.21562541 -0.24097836 0.40067339
v 0.31495094 -0.24097836 0.40067339
v 0.32496846 -0.23495150 0.40158787
v 0.37498558 -0.22498769 0.40183064
v 0.39495006 -0.21497527 0.40196824
v 0.41498512 -0.20496285 0.40179020
v 0.43494964 -0.19499904 0.40158787
v 0.44496718 -0.18498662 0.40163642
v 0.45498469 -0.16496181 0.40191966
v 0.46493170 -0.14498559 0.40206534
v 0.47494921 0.11499693 0.40206534
v 0.47494921 -0.12496075 0.40203297
v 0.48496675 -0.07499590 0.40196013
v 0.48496675 0.07499588 0.40196013
v 0.47494921 0.12496074 0.40203297
v 0.47494921 0.13497314 0.40184683
v 0.46189821 0.17268983 0.40048724
v 0.45949966 0.17934856 0.39985603
v 0.45738328 0.18498662 0.39852881
v 0.45442033 0.19436717 0.39521080
v 0.45188069 0.20156056 0.39224887
v 0.45307997 0.20258123 0.38499779
v 0.45265669 0.20224100 0.37499520
v 0.44094604 0.21060088 0.37716404
v 0.42754233 0.21847472 0.37499520
v 0.43974677 0.20987183 0.37049565
v 0.40136975 0.20088011 0.31940633
v 0.41089347 0.19495043 0.31940633
v -0.21562541 -0.24826896 0.38499779
v 0.33498597 -0.24744269 0.37499520
v 0.32496846 -0.24826896 0.38499779
v 0.30493340 -0.23256990 0.31940633
v 0.47445539 0.15402591 0.40057629
v 0.46514332 0.16481596 0.40085953
v 0.48249763 0.13497314 0.40081096
v 0.48094562 0.14498556 0.40034160
v 0.48002854 0.15004039 0.40000978
v -0.21562541 -0.24496388 0.39499229
v 0.31495094 -0.24496388 0.39499229
v 0.32496846 -0.24481809 0.39499229
v 0.32496846 -0.24083257 0.40055200
v 0.36496803 -0.23237547 0.40100518
v 0.37498558 -0.23154920 0.40079477
v 0.38493255 -0.22498769 0.40142602
v 0.39431518 -0.22508487 0.40081096
v 0.40574360 -0.21580154 0.40115896
v 0.42493212 -0.20535168 0.40100518
v 0.43494964 -0.20180359 0.40054390
v 0.44419116 -0.19431859 0.40052772
v 0.45237452 -0.18498662 0.40060055
v 0.45569018 -0.17560607 0.40111041
v 0.47494921 -0.14498559 0.40137747
v 0.46493170 -0.15499800 0.40174162
v 0.47494921 -0.13497317 0.40184683
v 0.48496675 -0.08495971 0.40187919
v 0.49272680 -0.07499590 0.40092427
v 0.49272680 0.07499588 0.40092427
v 0.48496675 0.08495969 0.40187919
v 0.48496675 0.09497210 0.40163642
v 0.48362637 0.12496074 0.40099710
v 0.46860009 0.16802382 0.39947566
v 0.46105167 0.19149953 0.39151242
v 0.45808873 0.19762364 0.38499779
v 0.45131633 0.20112312 0.36865860
v 0.44454390 0.20773324 0.37429923
v 0.45766544 0.19708899 0.37499520
v 0.41935900 0.18955538 0.31940633
v -0.21562541 -0.24520692 0.39436916
v 0.34493297 -0.24603319 0.37499520
v 0.34493297 -0.24642202 0.38499779
v 0.33498597 -0.24778292 0.38499779
v 0.30937779 -0.23193803 0.31940633
v 0.49166861 0.09497210 0.40060055
v 0.49011660 0.11106001 0.40006644
v 0.48941115 0.11771875 0.39980745
v 0.48863515 0.12496074 0.39943519
v 0.48750639 0.13497314 0.39865831
v 0.48595440 0.14498556 0.39730683
v 0.49053988 0.15091524 0.39097023
v 0.48412019 0.15383148 0.39486283
v 0.47748888 0.15669912 0.39875543
v 0.34493297 -0.24306834 0.39461195
v 0.33590311 -0.24326277 0.39598772
v 0.33322233 -0.24044374 0.40029302
v 0.33985364 -0.23995769 0.39998552
v 0.38493255 -0.23067433 0.40039015
v 0.39057624 -0.23013970 0.40010691
v 0.40292177 -0.22177982 0.40055200
v 0.44031113 -0.20015106 0.40006644
v 0.45032868 -0.19052747 0.40011498
v 0.46189821 -0.17268983 0.40048724
v 0.46514332 -0.16481599 0.40085953
v 0.47445539 -0.15402591 0.40057629
v 0.48002854 -0.15004039 0.40000978
v 0.48094562 -0.14498559 0.40034160
v 0.48249763 -0.13497317 0.40081096
v 0.48362637 -0.12496075 0.40099710
v 0.48496675 -0.09497212 0.40163642
v 0.49251518 -0.08495971 0.40084332
v 0.49752393 -0.08495971 0.39861783
v 0.49773556 -0.07499590 0.39868259
v 0.49773556 0.07499588 0.39868259
v 0.49752393 0.08495969 0.39861783
v 0.49251518 0.08495969 0.40084332
v 0.48158056 0.16223997 0.39209512
v 0.47015208 0.18022344 0.39025807
v 0.46182767 0.19261745 0.38499779
v 0.47043428 0.18066087 0.37797332
v 0.42930597 0.17920274 0.31940633
v 0.42655468 0.18221620 0.31940633
v 0.42436776 0.18454918 0.31940633
v 0.42218083 0.18673635 0.31940633
v 0.46055785 0.19077048 0.36932221
v 0.46147493 0.19208279 0.37499520
v 0.31495094 -0.23111176 0.31940633
v 0.37124664 -0.24020070 0.36958927
v 0.37787795 -0.23956886 0.37257549
v 0.36496803 -0.24233928 0.37499520
v 0.38055870 -0.24010351 0.37924388
v 0.38055870 -0.24010351 0.38167170
v 0.37562048 -0.24078396 0.38500589
v 0.37935942 -0.23986048 0.38834009
v 0.37272811 -0.24049234 0.39111590
v 0.36496803 -0.24117279 0.39245120
v 0.35495049 -0.24209628 0.39373794
v 0.49667737 0.09497210 0.39786521
v 0.50175667 0.09497210 0.39286393
v 0.49251518 0.13497314 0.39365700
v 0.49138644 0.14498556 0.39230552
v 0.50013411 0.11071979 0.39028233
v 0.49322063 0.14498556 0.38499779
v 0.49103370 0.15174150 0.38499779
v 0.48764750 0.15674773 0.38499779
v 0.36496803 -0.23738167 0.39745247
v 0.39431518 -0.23271570 0.39553452
v 0.39727810 -0.22848716 0.39923289
v 0.40962365 -0.21968985 0.39990458
v 0.42831832 -0.20894837 0.39952421
v 0.44694248 -0.19718623 0.39891726
v 0.45738328 -0.18498662 0.39852881
v 0.45949966 -0.17934856 0.39985603
v 0.47748888 -0.15669912 0.39875543
v 0.48412019 -0.15383151 0.39486283
v 0.49053988 -0.15091527 0.39097023
v 0.48595440 -0.14498559 0.39730683
v 0.48750639 -0.13497317 0.39865831
v 0.46860009 -0.16802385 0.39947566
v 0.48863515 -0.12496075 0.39943519
v 0.48941115 -0.11771876 0.39980745
v 0.49011660 -0.11106002 0.40006644
v 0.49166861 -0.09497212 0.40060055
v 0.49667737 -0.09497212 0.39786521
v 0.50175667 -0.09497212 0.39286393
v 0.50225055 -0.08495971 0.39361656
v 0.50232106 -0.07499590 0.39368129
v 0.50232106 0.07499588 0.39368129
v 0.50225055 0.08495969 0.39361656
v 0.46683642 0.18566707 0.38499779
v 0.46697754 0.18440336 0.37478480
v 0.49068096 0.15120688 0.37499520
v 0.48722422 0.15616447 0.37499520
v 0.47868815 0.16816965 0.37499520
v 0.43297437 0.17419654 0.31940633
v 0.46958771 0.17944577 0.37130493
v 0.49011660 0.15018618 0.36981586
v 0.44666028 0.15533820 0.31940633
v 0.32045352 -0.23009109 0.31940633
v 0.35495049 -0.22367537 0.31940633
v 0.36496803 -0.22148818 0.31940633
v 0.39495006 -0.23650682 0.37499520
v 0.38429761 -0.23883981 0.37554550
v 0.39495006 -0.23699284 0.38499779
v 0.38429761 -0.23918003 0.38500589
v 0.40306285 -0.23179224 0.39256448
v 0.50500178 0.08495969 0.38499779
v 0.50394362 0.09497210 0.38499779
v 0.50069851 0.10498451 0.39130202
v 0.50189781 0.10498451 0.38499779
v 0.50041628 0.11203209 0.38499779
v 0.49935812 0.11703829 0.38499779
v 0.49547809 0.13497314 0.38499779
v 0.50041628 0.11198349 0.37789240
v 0.49258572 0.14498556 0.37499520
v 0.41498512 -0.22323793 0.39372984
v 0.42175755 -0.22109935 0.39172286
v 0.43494964 -0.21201041 0.39255640
v 0.43494964 -0.20680979 0.39754960
v 0.45188069 -0.20156059 0.39224887
v 0.45442033 -0.19436720 0.39521080
v 0.46105167 -0.19149956 0.39151242
v 0.48158056 -0.16223997 0.39209512
v 0.48764750 -0.15674773 0.38499779
v 0.49103370 -0.15174153 0.38499779
v 0.49322063 -0.14498559 0.38499779
v 0.50013411 -0.11071980 0.39028233
v 0.49138644 -0.14498559 0.39230552
v 0.47015208 -0.18022344 0.39025807
v 0.49251518 -0.13497317 0.39365700
v 0.50069851 -0.10498453 0.39130202
v 0.50394362 -0.09497212 0.38499779
v 0.50500178 -0.08495971 0.38499779
v 0.50507236 -0.07499590 0.38499779
v 0.50507236 -0.00495761 0.38499779
v 0.49484318 0.13497314 0.37499520
v 0.49964032 0.10862982 0.37122399
v 0.50041628 0.10197107 0.36937886
v 0.49075150 0.14498556 0.36895803
v 0.46323860 0.12496074 0.31940633
v 0.46210986 0.12914068 0.31940633
v 0.46105167 0.13254297 0.31940633
v 0.45872363 0.13754916 0.31940633
v 0.45604289 0.14177769 0.31940633
v 0.45399708 0.14498556 0.31940633
v 0.37018842 -0.22012728 0.31940633
v 0.39495006 -0.23281291 0.36633599
v 0.40235740 -0.23140338 0.36836725
v 0.40539089 -0.23218107 0.37551314
v 0.40581417 -0.23242408 0.38518393
v 0.40976474 -0.22984806 0.38864762
v 0.50450802 0.07499588 0.37499520
v 0.50443745 0.08495969 0.37499520
v 0.50337923 0.09497210 0.37499520
v 0.50119233 0.10517893 0.37473622
v 0.44045225 -0.21030930 0.39054132
v 0.45307997 -0.20258126 0.38499779
v 0.45808873 -0.19762364 0.38499779
v 0.49068096 -0.15120688 0.37499520
v 0.46683642 -0.18566707 0.38499779
v 0.47043428 -0.18066087 0.37797332
v 0.50041628 -0.11198350 0.37789240
v 0.49547809 -0.13497317 0.38499779
v 0.49258572 -0.14498559 0.37499520
v 0.49935812 -0.11703831 0.38499779
v 0.50041628 -0.11203210 0.38499779
v 0.50189781 -0.10498453 0.38499779
v 0.46182767 -0.19261745 0.38499779
v 0.50337923 -0.09497212 0.37499520
v 0.50443745 -0.08495971 0.37499520
v 0.50450802 -0.07499590 0.37499520
v 0.50112176 0.09497210 0.36844820
v 0.47184521 0.08495969 0.31940633
v 0.37519720 -0.21706524 0.31940633
v 0.42105210 -0.22066191 0.36911988
v 0.40905929 -0.22941065 0.37251884
v 0.41025856 -0.23013970 0.37918723
v 0.41025856 -0.23013970 0.38197923
v 0.44609591 -0.20758745 0.38499779
v 0.50175667 0.07499588 0.36771175
v 0.50168616 0.08495969 0.36776841
v 0.45265669 -0.20224103 0.37499520
v 0.45766544 -0.19708902 0.37499520
v 0.49011660 -0.15018621 0.36981586
v 0.48722422 -0.15616450 0.37499520
v 0.46147493 -0.19208279 0.37499520
v 0.46697754 -0.18440339 0.37478480
v 0.47868815 -0.16816965 0.37499520
v 0.50119233 -0.10517894 0.37473622
v 0.49484318 -0.13497317 0.37499520
v 0.49964032 -0.10862983 0.37122399
v 0.50041628 -0.10197109 0.36937886
v 0.50112176 -0.09497212 0.36844820
v 0.50168616 -0.08495971 0.36776841
v 0.50175667 -0.07499590 0.36771175
v 0.47346777 0.07499588 0.31940633
v 0.39784247 -0.20306730 0.31940633
v 0.43974677 -0.20987186 0.37049565
v 0.40419161 -0.19913039 0.31940633
v 0.42754233 -0.21847475 0.37499520
v 0.44094604 -0.21060091 0.37716404
v 0.47396156 0.06498347 0.31940633
v 0.44454390 -0.20773327 0.37429923
v 0.45131633 -0.20112315 0.36865860
v 0.46055785 -0.19077051 0.36932221
v 0.49075150 -0.14498559 0.36895803
v 0.46958771 -0.17944577 0.37130493
v 0.44666028 -0.15533823 0.31940633
v 0.45230395 -0.14741579 0.31940633
v 0.45399708 -0.14498559 0.31940633
v 0.45674837 -0.14075702 0.31940633
v 0.45872363 -0.13754916 0.31940633
v 0.45978183 -0.13536200 0.31940633
v 0.46105167 -0.13254297 0.31940633
v 0.46323860 -0.12496075 0.31940633
v 0.47184521 -0.08495971 0.31940633
v 0.47276229 -0.07937025 0.31940633
v 0.47346777 -0.07499590 0.31940633
v 0.47374994 -0.06935784 0.31940633
v 0.47396156 -0.06498349 0.31940633
v 0.41717204 -0.19096491 0.31940633
v 0.41935900 -0.18955541 0.31940633
v 0.42436776 -0.18454918 0.31940633
v 0.42930597 -0.17920277 0.31940633
v 0.43297437 -0.17419654 0.31940633
f 1 2 3
f 1 3 4
f 1 4 18
f 1 18 5
f 1 5 6
f 1 6 7
f 1 7 9
f 1 9 2
f 2 8 3
f 2 9 10
f 2 10 8
f 3 11 12
f 3 12 13
f 3 13 14
f 3 14 4
f 3 8 11
f 4 14 15
f 4 15 16
f 4 16 17
f 4 17 18
f 5 18 19
f 5 19 38
f 5 38 20
f 5 20 6
f 6 20 38
f 6 38 57
f 6 57 79
f 6 79 104
f 6 104 139
f 6 139 178
f 6 178 148
f 6 148 111
f 6 111 84
f 6 84 60
f 6 60 40
f 6 40 23
f 6 23 10
f 6 10 9
f 6 9 7
f 8 21 22
f 8 22 11
f 8 10 23
f 8 23 21
f 11 22 24
f 11 24 25
f 11 25 12
f 12 26 13
f 12 25 26
f 13 26 14
f 14 26 15
f 15 27 16
f 15 26 27
f 16 27 28
f 16 28 29
f 16 29 30
f 16 30 17
f 17 31 18
f 17 30 32
f 17 32 33
f 17 33 34
f 17 34 35
f 17 35 31
f 18 31 36
f 18 36 37
f 18 37 19
f 19 37 36
f 19 36 52
f 19 52 74
f 19 74 73
f 19 73 72
f 19 72 71
f 19 71 77
f 19 77 102
f 19 102 137
f 19 137 138
f 19 138 177
f 19 177 222
f 19 222 221
f 19 221 220
f 19 220 219
f 19 219 273
f 19 273 276
f 19 276 323
f 19 323 322
f 19 322 321
f 19 321 320
f 19 320 319
f 19 319 318
f 19 318 351
f 19 351 374
f 19 374 380
f 19 380 398
f 19 398 397
f 19 397 396
f 19 396 395
f 19 395 394
f 19 394 393
f 19 393 392
f 19 392 391
f 19 391 390
f 19 390 389
f 19 389 388
f 19 388 387
f 19 387 386
f 19 386 403
f 19 403 402
f 19 402 401
f 19 401 400
f 19 400 399
f 19 399 377
f 19 377 375
f 19 375 352
f 19 352 324
f 19 324 279
f 19 279 278
f 19 278 277
f 19 277 225
f 19 225 182
f 19 182 142
f 19 142 106
f 19 106 80
f 19 80 57
f 19 57 38
f 21 39 22
f 21 23 40
f 21 40 39
f 22 39 41
f 22 41 24
f 24 41 25
f 25 41 42
f 25 42 43
f 25 43 26
f 26 43 28
f 26 28 27
f 28 43 44
f 28 44 45
f 28 45 46
f 28 46 47
f 28 47 29
f 29 47 48
f 29 48 30
f 30 48 32
f 31 49 50
f 31 50 51
f 31 51 52
f 31 52 36
f 31 35 49
f 32 48 53
f 32 53 54
f 32 54 34
f 32 34 33
f 34 54 53
f 34 53 35
f 35 53 55
f 35 55 56
f 35 56 49
f 39 58 59
f 39 59 41
f 39 40 58
f 40 60 88
f 40 88 61
f 40 61 58
f 41 59 42
f 42 44 43
f 42 59 44
f 44 59 62
f 44 62 45
f 45 62 63
f 45 63 64
f 45 64 65
f 45 65 46
f 46 65 66
f 46 66 47
f 47 66 67
f 47 67 48
f 48 68 69
f 48 69 53
f 48 67 70
f 48 70 68
f 49 56 50
f 50 56 55
f 50 55 51
f 51 71 72
f 51 72 73
f 51 73 74
f 51 74 52
f 51 55 71
f 53 69 75
f 53 75 55
f 55 76 77
f 55 77 71
f 55 75 78
f 55 78 76
f 57 80 79
f 58 61 81
f 58 81 82
f 58 82 83
f 58 83 59
f 59 83 62
f 60 84 85
f 60 85 86
f 60 86 87
f 60 87 88
f 61 88 89
f 61 89 90
f 61 90 91
f 61 91 81
f 62 83 82
f 62 82 63
f 63 82 64
f 64 82 92
f 64 92 65
f 65 92 93
f 65 93 94
f 65 94 66
f 66 94 95
f 66 95 96
f 66 96 70
f 66 70 67
f 68 97 69
f 68 70 98
f 68 98 99
f 68 99 97
f 69 97 100
f 69 100 75
f 70 96 98
f 75 100 101
f 75 101 78
f 76 78 77
f 77 78 103
f 77 103 102
f 78 101 103
f 79 80 105
f 79 105 104
f 80 106 105
f 81 91 107
f 81 107 108
f 81 108 109
f 81 109 110
f 81 110 92
f 81 92 82
f 84 111 85
f 85 112 113
f 85 113 86
f 85 111 112
f 86 113 114
f 86 114 115
f 86 115 87
f 87 115 116
f 87 116 117
f 87 117 118
f 87 118 88
f 88 118 119
f 88 119 120
f 88 120 89
f 89 121 90
f 89 120 122
f 89 122 123
f 89 123 124
f 89 124 121
f 90 121 125
f 90 125 126
f 90 126 107
f 90 107 91
f 92 110 93
f 93 110 127
f 93 127 128
f 93 128 129
f 93 129 94
f 94 129 130
f 94 130 131
f 94 131 95
f 95 131 96
f 96 131 98
f 97 99 100
f 98 131 132
f 98 132 99
f 99 132 133
f 99 133 134
f 99 134 100
f 100 134 135
f 100 135 101
f 101 135 136
f 101 136 103
f 102 103 137
f 103 136 138
f 103 138 137
f 104 105 141
f 104 141 139
f 105 106 140
f 105 140 181
f 105 181 141
f 106 142 140
f 107 126 108
f 108 143 144
f 108 144 109
f 108 126 145
f 108 145 146
f 108 146 147
f 108 147 143
f 109 144 110
f 110 144 127
f 111 148 149
f 111 149 112
f 112 149 150
f 112 150 151
f 112 151 113
f 113 151 152
f 113 152 114
f 114 152 153
f 114 153 154
f 114 154 115
f 115 154 155
f 115 155 156
f 115 156 116
f 116 156 117
f 117 156 157
f 117 157 158
f 117 158 159
f 117 159 118
f 118 159 160
f 118 160 161
f 118 161 162
f 118 162 163
f 118 163 119
f 119 163 120
f 120 163 164
f 120 164 122
f 121 124 125
f 122 164 165
f 122 165 123
f 123 165 166
f 123 166 167
f 123 167 124
f 124 167 168
f 124 168 125
f 125 168 126
f 126 168 169
f 126 169 170
f 126 170 145
f 127 144 143
f 127 143 147
f 127 147 128
f 128 147 171
f 128 171 129
f 129 171 172
f 129 172 130
f 130 172 131
f 131 172 173
f 131 173 132
f 132 173 133
f 133 174 175
f 133 175 134
f 133 173 176
f 133 176 174
f 134 175 135
f 135 175 136
f 136 175 174
f 136 174 177
f 136 177 138
f 139 141 178
f 140 179 180
f 140 180 181
f 140 142 179
f 141 181 150
f 141 150 149
f 141 149 178
f 142 182 179
f 145 170 183
f 145 183 184
f 145 184 185
f 145 185 186
f 145 186 146
f 146 186 187
f 146 187 147
f 147 187 188
f 147 188 189
f 147 189 190
f 147 190 191
f 147 191 171
f 148 178 149
f 150 181 192
f 150 192 193
f 150 193 194
f 150 194 151
f 151 194 153
f 151 153 152
f 153 194 195
f 153 195 196
f 153 196 154
f 154 196 155
f 155 196 197
f 155 197 198
f 155 198 156
f 156 198 157
f 157 198 158
f 158 199 159
f 158 198 199
f 159 199 200
f 159 200 160
f 160 200 201
f 160 201 202
f 160 202 161
f 161 202 162
f 162 164 163
f 162 202 203
f 162 203 204
f 162 204 205
f 162 205 206
f 162 206 164
f 164 206 207
f 164 207 208
f 164 208 165
f 165 208 209
f 165 209 166
f 166 210 211
f 166 211 212
f 166 212 167
f 166 209 210
f 167 212 213
f 167 213 214
f 167 214 168
f 168 214 169
f 169 214 170
f 170 214 183
f 171 191 215
f 171 215 172
f 172 216 173
f 172 215 216
f 173 216 217
f 173 217 218
f 173 218 176
f 174 219 220
f 174 220 221
f 174 221 222
f 174 222 177
f 174 176 223
f 174 223 219
f 176 218 224
f 176 224 223
f 179 182 225
f 179 225 226
f 179 226 227
f 179 227 228
f 179 228 229
f 179 229 180
f 180 230 231
f 180 231 232
f 180 232 233
f 180 233 234
f 180 234 181
f 180 229 230
f 181 234 235
f 181 235 192
f 183 214 213
f 183 213 184
f 184 213 185
f 185 213 186
f 186 213 236
f 186 236 187
f 187 236 237
f 187 237 238
f 187 238 239
f 187 239 188
f 188 239 189
f 189 215 190
f 189 239 240
f 189 240 241
f 189 241 242
f 189 242 243
f 189 243 216
f 189 216 215
f 190 215 191
f 192 195 193
f 192 235 195
f 193 195 194
f 195 235 244
f 195 244 197
f 195 197 196
f 197 245 246
f 197 246 247
f 197 247 198
f 197 244 234
f 197 234 245
f 198 247 199
f 199 248 249
f 199 249 200
f 199 247 248
f 200 249 250
f 200 250 251
f 200 251 201
f 201 251 204
f 201 204 203
f 201 203 202
f 204 252 253
f 204 253 254
f 204 254 255
f 204 255 256
f 204 256 205
f 204 251 257
f 204 257 252
f 205 256 258
f 205 258 206
f 206 258 259
f 206 259 260
f 206 260 261
f 206 261 207
f 207 261 209
f 207 209 208
f 209 261 210
f 210 261 260
f 210 260 259
f 210 259 258
f 210 258 262
f 210 262 263
f 210 263 264
f 210 264 211
f 211 264 265
f 211 265 266
f 211 266 212
f 212 266 267
f 212 267 213
f 213 267 237
f 213 237 236
f 216 268 217
f 216 243 268
f 217 268 218
f 218 269 224
f 218 268 243
f 218 243 270
f 218 270 271
f 218 271 272
f 218 272 269
f 219 223 273
f 223 224 274
f 223 274 275
f 223 275 276
f 223 276 273
f 224 269 274
f 225 277 226
f 226 277 278
f 226 278 279
f 226 279 280
f 226 280 227
f 227 280 281
f 227 281 228
f 228 281 229
f 229 281 280
f 229 280 282
f 229 282 230
f 230 282 283
f 230 283 232
f 230 232 231
f 232 283 282
f 232 282 284
f 232 284 233
f 233 284 245
f 233 245 234
f 234 244 235
f 237 267 285
f 237 285 286
f 237 286 240
f 237 240 287
f 237 287 239
f 237 239 238
f 239 287 240
f 240 286 288
f 240 288 289
f 240 289 290
f 240 290 291
f 240 291 241
f 241 291 292
f 241 292 293
f 241 293 270
f 241 270 242
f 242 270 243
f 245 284 246
f 246 284 294
f 246 294 248
f 246 248 247
f 248 295 296
f 248 296 297
f 248 297 249
f 248 294 295
f 249 298 299
f 249 299 250
f 249 297 298
f 250 300 257
f 250 257 251
f 250 299 300
f 252 301 253
f 252 257 301
f 253 301 254
f 254 302 303
f 254 303 304
f 254 304 305
f 254 305 306
f 254 306 255
f 254 301 307
f 254 307 302
f 255 306 256
f 256 306 308
f 256 308 263
f 256 263 262
f 256 262 258
f 257 300 301
f 263 309 305
f 263 305 310
f 263 310 311
f 263 311 264
f 263 308 306
f 263 306 309
f 264 311 265
f 265 311 312
f 265 312 313
f 265 313 266
f 266 313 285
f 266 285 267
f 269 272 274
f 270 275 271
f 270 293 275
f 271 275 272
f 272 275 274
f 275 293 314
f 275 314 315
f 275 315 316
f 275 316 317
f 275 317 318
f 275 318 319
f 275 319 320
f 275 320 321
f 275 321 322
f 275 322 323
f 275 323 276
f 279 324 280
f 280 325 326
f 280 326 327
f 280 327 282
f 280 324 325
f 282 328 284
f 282 327 328
f 284 328 329
f 284 329 295
f 284 295 294
f 285 313 330
f 285 330 331
f 285 331 332
f 285 332 286
f 286 332 292
f 286 292 288
f 288 292 289
f 289 292 290
f 290 292 291
f 292 332 333
f 292 333 314
f 292 314 293
f 295 334 296
f 295 329 334
f 296 334 298
f 296 298 297
f 298 334 335
f 298 335 336
f 298 336 300
f 298 300 299
f 300 336 307
f 300 307 301
f 302 337 303
f 302 307 338
f 302 338 339
f 302 339 337
f 303 337 304
f 304 340 341
f 304 341 305
f 304 337 342
f 304 342 340
f 305 341 343
f 305 343 344
f 305 344 345
f 305 345 310
f 305 309 306
f 307 336 346
f 307 346 338
f 310 347 348
f 310 348 311
f 310 345 340
f 310 340 347
f 311 348 349
f 311 349 312
f 312 349 330
f 312 330 313
f 314 333 315
f 315 333 332
f 315 332 316
f 316 332 350
f 316 350 351
f 316 351 318
f 316 318 317
f 324 352 353
f 324 353 326
f 324 326 325
f 326 353 354
f 326 354 327
f 327 354 355
f 327 355 328
f 328 355 356
f 328 356 329
f 329 356 357
f 329 357 334
f 330 349 373
f 330 373 358
f 330 358 331
f 331 358 359
f 331 359 350
f 331 350 332
f 334 357 335
f 335 357 360
f 335 360 336
f 336 361 339
f 336 339 346
f 336 360 361
f 337 362 342
f 337 339 363
f 337 363 362
f 338 346 339
f 339 361 364
f 339 364 365
f 339 365 366
f 339 366 363
f 340 367 347
f 340 345 344
f 340 344 343
f 340 343 341
f 340 342 368
f 340 368 367
f 342 362 368
f 347 367 369
f 347 369 370
f 347 370 371
f 347 371 348
f 348 371 372
f 348 372 373
f 348 373 349
f 350 359 374
f 350 374 351
f 352 375 353
f 353 376 354
f 353 375 377
f 353 377 376
f 354 376 378
f 354 378 355
f 355 378 379
f 355 379 357
f 355 357 356
f 357 379 360
f 358 373 398
f 358 398 380
f 358 380 359
f 359 380 374
f 360 379 381
f 360 381 382
f 360 382 361
f 361 383 364
f 361 382 383
f 362 384 370
f 362 370 369
f 362 369 368
f 362 363 366
f 362 366 385
f 362 385 383
f 362 383 386
f 362 386 387
f 362 387 388
f 362 388 389
f 362 389 390
f 362 390 391
f 362 391 392
f 362 392 393
f 362 393 384
f 364 383 385
f 364 385 365
f 365 385 366
f 367 368 369
f 370 384 393
f 370 393 394
f 370 394 371
f 371 394 395
f 371 395 396
f 371 396 372
f 372 396 397
f 372 397 398
f 372 398 373
f 376 377 399
f 376 399 400
f 376 400 382
f 376 382 381
f 376 381 378
f 378 381 379
f 382 400 401
f 382 401 402
f 382 402 383
f 383 402 403
f 383 403 386

