# https://github.com/mikedh/trimesh
v -0.40495360 -0.14500934 -0.40110585
v -0.26495552 -0.21286143 -0.40096480
v -0.27495539 -0.21279603 -0.40096480
v -0.32495469 -0.20374560 -0.40096480
v -0.34495443 -0.19499598 -0.40096480
v -0.37495404 -0.17499870 -0.40096480
v -0.38449520 -0.17505102 -0.40068269
v -0.39550418 -0.16545129 -0.40068269
v -0.40495360 -0.15466139 -0.40061218
v -0.42532033 -0.12510362 -0.40075323
v -0.42495334 -0.11500689 -0.40103534
v 0.40494359 -0.14500934 -0.40110585
v -0.26495552 -0.21785748 -0.39870796
v 0.26494551 -0.21286143 -0.40096480
v -0.27495539 -0.21779208 -0.39870796
v -0.28495526 -0.21228597 -0.40075323
v -0.33495456 -0.20272547 -0.40082374
v -0.37495404 -0.18223120 -0.40047112
v -0.39247674 -0.17176828 -0.40033007
v -0.35403687 -0.19470824 -0.40054163
v -0.39917386 -0.16907407 -0.39983636
v -0.40165091 -0.16243011 -0.40025952
v -0.41284341 -0.14500934 -0.40047112
v -0.42220110 -0.13314700 -0.40033007
v -0.42889822 -0.12850407 -0.39976585
v -0.43082482 -0.12184703 -0.40018901
v -0.43201745 -0.11500689 -0.40040058
v -0.43330187 -0.10500172 -0.40068269
v -0.43440276 -0.09954792 -0.40068269
v -0.42550379 -0.09954792 -0.40075323
v 0.42953038 -0.09954792 -0.40082374
v 0.42494333 -0.11500689 -0.40103534
v 0.42531025 -0.12510362 -0.40075323
v 0.40494359 -0.15466139 -0.40061218
v 0.39549416 -0.16545129 -0.40068269
v 0.38448513 -0.17505102 -0.40068269
v 0.37494397 -0.17499870 -0.40096480
v 0.34494442 -0.19499598 -0.40096480
v 0.32494467 -0.20374560 -0.40096480
v 0.27494538 -0.21279603 -0.40096480
v -0.27495539 -0.22268350 -0.39370051
v 0.26494551 -0.21785748 -0.39870796
v -0.28495526 -0.22264427 -0.39348894
v -0.28495526 -0.21728201 -0.39849636
v -0.31100994 -0.21010183 -0.40004796
v -0.33495456 -0.20773458 -0.39899004
v -0.34495443 -0.20106448 -0.40033007
v -0.31761539 -0.20940867 -0.39983636
v -0.32495469 -0.20875473 -0.39948374
v -0.36880732 -0.18928060 -0.39983636
v -0.35009199 -0.20004433 -0.39997742
v -0.38743091 -0.17843840 -0.39955425
v -0.39550418 -0.17505102 -0.39863741
v -0.40495360 -0.17499870 -0.39482895
v -0.40495360 -0.16545129 -0.39870796
v -0.40834808 -0.15777411 -0.39962479
v -0.42532033 -0.13589351 -0.39906058
v -0.43449450 -0.12510362 -0.39821425
v -0.43697155 -0.11500689 -0.39906058
v -0.43834764 -0.10500172 -0.39955425
v -0.43724674 -0.09954792 -0.40011847
v 0.43439269 -0.09954792 -0.40068269
v 0.43338352 -0.10500172 -0.40068269
v 0.43200743 -0.11500689 -0.40040058
v 0.43081480 -0.12184703 -0.40018901
v 0.42888820 -0.12850407 -0.39976585
v 0.42219102 -0.13314700 -0.40033007
v 0.41283339 -0.14500934 -0.40047112
v 0.40164089 -0.16243011 -0.40025952
v 0.39916384 -0.16907407 -0.39983636
v 0.39246666 -0.17176828 -0.40033007
v 0.37494397 -0.18223120 -0.40047112
v 0.35402685 -0.19470824 -0.40054163
v 0.33494455 -0.20272547 -0.40082374
v 0.28494519 -0.21228597 -0.40075323
v 0.27494538 -0.21779208 -0.39870796
v -0.27495539 -0.22767955 -0.38537833
v -0.28495526 -0.22764032 -0.38537833
v 0.27494538 -0.22268350 -0.39370051
v -0.29495513 -0.22726104 -0.38523728
v -0.29495513 -0.22225191 -0.39278367
v -0.33495456 -0.21365923 -0.39398262
v -0.34495443 -0.21274373 -0.39306578
v -0.34495443 -0.20607361 -0.39807320
v -0.35669738 -0.19786021 -0.39934269
v -0.35403687 -0.20402026 -0.39680371
v -0.38449520 -0.18420608 -0.39743847
v -0.37495404 -0.18722725 -0.39899004
v -0.36522937 -0.19470824 -0.39821425
v -0.40495360 -0.18159035 -0.39116156
v -0.39477026 -0.18525238 -0.39306578
v -0.40999943 -0.18002091 -0.38996258
v -0.41201776 -0.17499870 -0.39123207
v -0.41559565 -0.16545129 -0.39341840
v -0.41431129 -0.15466139 -0.39800268
v -0.42495334 -0.14500934 -0.39623949
v -0.43587065 -0.13588044 -0.39391211
v -0.44220084 -0.13313392 -0.39137313
v -0.44403565 -0.12501207 -0.39292473
v -0.44587046 -0.11573930 -0.39355946
v -0.44495308 -0.10500172 -0.39567527
v -0.44449437 -0.09954792 -0.39659214
v -0.43898988 -0.09954792 -0.39969531
v 0.43897980 -0.09954792 -0.39969531
v 0.43833762 -0.10500172 -0.39955425
v 0.43696147 -0.11500689 -0.39906058
v 0.43448448 -0.12510362 -0.39821425
v 0.42531025 -0.13589351 -0.39906058
v 0.40833801 -0.15777411 -0.39962479
v 0.39549416 -0.17505102 -0.39863741
v 0.38751262 -0.17843840 -0.39955425
v 0.40494359 -0.16545129 -0.39870796
v 0.40494359 -0.17499870 -0.39482895
v 0.36879730 -0.18928060 -0.39983636
v 0.35008192 -0.20004433 -0.39997742
v 0.34494442 -0.20106448 -0.40033007
v 0.33494455 -0.20773458 -0.39899004
v 0.32494467 -0.20875473 -0.39948374
v 0.31760532 -0.20940867 -0.39983636
v 0.31099993 -0.21010183 -0.40004796
v 0.28494519 -0.21728201 -0.39849636
v 0.28494519 -0.22264427 -0.39348894
v -0.28495526 -0.23016450 -0.38037091
v 0.27494538 -0.22767955 -0.38537833
v -0.29495513 -0.23011218 -0.38022986
v -0.30027616 -0.23004678 -0.38008881
v 0.28494519 -0.22764032 -0.38537833
v -0.30412930 -0.22680327 -0.38403833
v -0.30495501 -0.22144103 -0.39165524
v -0.31495482 -0.22051245 -0.39059734
v -0.32018411 -0.22002853 -0.39003313
v -0.33495456 -0.21866836 -0.38812888
v -0.34495443 -0.21773976 -0.38664782
v -0.35495430 -0.21139662 -0.39144367
v -0.36055058 -0.21033725 -0.39024469
v -0.36431199 -0.20497499 -0.39250156
v -0.37550449 -0.19574146 -0.39391211
v -0.38495392 -0.19279876 -0.39207840
v -0.39128411 -0.19082388 -0.39059734
v -0.40972418 -0.18985607 -0.37959513
v -0.41394430 -0.18234891 -0.38446149
v -0.42054975 -0.18068792 -0.38072354
v -0.41697180 -0.17499870 -0.38777626
v -0.41926533 -0.16906099 -0.38953942
v -0.37926590 -0.19957352 -0.38960996
v -0.39798123 -0.18875746 -0.38897520
v -0.40577930 -0.18718801 -0.38537833
v -0.43293488 -0.14500934 -0.39186683
v -0.43981552 -0.13980404 -0.38989207
v -0.44532001 -0.13588044 -0.38763520
v -0.44908148 -0.12501207 -0.38939837
v -0.44981539 -0.11955827 -0.38989207
v -0.45201719 -0.09954792 -0.39158472
v -0.44908148 -0.09954792 -0.39363000
v 0.44448429 -0.09954792 -0.39659214
v 0.44494301 -0.10500172 -0.39567527
v 0.44586045 -0.11573930 -0.39355946
v 0.44402564 -0.12501207 -0.39292473
v 0.44219077 -0.13313392 -0.39137313
v 0.43586057 -0.13588044 -0.39391211
v 0.42494333 -0.14500934 -0.39623949
v 0.41430122 -0.15466139 -0.39800268
v 0.40494359 -0.18159035 -0.39116156
v 0.39476025 -0.18525238 -0.39306578
v 0.38448513 -0.18420608 -0.39743847
v 0.35677910 -0.19786021 -0.39934269
v 0.41558564 -0.16545129 -0.39341840
v 0.41200769 -0.17499870 -0.39123207
v 0.40998936 -0.18002091 -0.38996258
v 0.35402685 -0.20402026 -0.39680371
v 0.34494442 -0.20607361 -0.39807320
v 0.34494442 -0.21274373 -0.39306578
v 0.33494455 -0.21365923 -0.39398262
v 0.29494506 -0.22225191 -0.39278367
v 0.29494506 -0.22726104 -0.38523728
v -0.28495526 -0.23117155 -0.37494034
v -0.29495513 -0.23113231 -0.37494034
v 0.28494519 -0.23016450 -0.38037091
v -0.35155988 -0.22030318 -0.38058248
v -0.34495443 -0.22090480 -0.38164040
v -0.33495456 -0.22183339 -0.38312146
v -0.29495513 -0.23257098 -0.36499602
v -0.30495501 -0.23191704 -0.36499602
v -0.30412930 -0.23054378 -0.37444663
v -0.31091821 -0.23017758 -0.37077925
v -0.31458789 -0.22868660 -0.37444663
v -0.35495430 -0.22106175 -0.37515190
v -0.35825700 -0.21966234 -0.37853721
v 0.30026609 -0.23004678 -0.38008881
v 0.29494506 -0.23011218 -0.38022986
v -0.35495430 -0.21691582 -0.38432044
v -0.36431199 -0.21288759 -0.38509622
v -0.37238526 -0.21147509 -0.38185197
v -0.36724770 -0.20831005 -0.38848153
v -0.41165078 -0.19104622 -0.37289506
v -0.41495347 -0.18764578 -0.37571612
v -0.40302706 -0.19193557 -0.38227513
v -0.39100885 -0.20067212 -0.38093513
v -0.37899065 -0.20940867 -0.37832564
v -0.37541276 -0.21284835 -0.37501085
v -0.42192584 -0.18215273 -0.37494034
v -0.42733866 -0.17490716 -0.37550455
v -0.42963219 -0.16954491 -0.37924248
v -0.45018238 -0.14028794 -0.38022986
v -0.44109988 -0.15158790 -0.38135830
v -0.42265981 -0.17499870 -0.38276884
v -0.42834777 -0.15777411 -0.38883415
v -0.44467783 -0.14417231 -0.38290989
v -0.45174199 -0.13500416 -0.38213408
v -0.45376027 -0.12501207 -0.38439095
v -0.45642078 -0.10500172 -0.38636571
v -0.45697123 -0.09954792 -0.38707098
v -0.45476943 -0.09954792 -0.38925731
v 0.45200717 -0.09954792 -0.39158472
v 0.44989711 -0.11955827 -0.38989207
v 0.44907141 -0.12501207 -0.38939837
v 0.44531000 -0.13588044 -0.38763520
v 0.43980551 -0.13980404 -0.38989207
v 0.43292487 -0.14500934 -0.39186683
v 0.42503506 -0.15466139 -0.39243105
v 0.39127403 -0.19082388 -0.39059734
v 0.38494384 -0.19279876 -0.39207840
v 0.36430192 -0.20497499 -0.39250156
v 0.37558615 -0.19574146 -0.39391211
v 0.36521935 -0.19470824 -0.39821425
v 0.41925532 -0.16906099 -0.38953942
v 0.41696173 -0.17499870 -0.38777626
v 0.42053968 -0.18068792 -0.38072354
v 0.41393429 -0.18234891 -0.38446149
v 0.40971416 -0.18985607 -0.37959513
v 0.40586102 -0.18718801 -0.38537833
v 0.39797121 -0.18875746 -0.38897520
v 0.37925583 -0.19957352 -0.38960996
v 0.35494423 -0.21139662 -0.39144367
v 0.36054051 -0.21033725 -0.39024469
v 0.34494442 -0.21773976 -0.38664782
v 0.33494455 -0.21866836 -0.38812888
v 0.32687122 -0.21941385 -0.38918680
v 0.32017410 -0.22002853 -0.39003313
v 0.31494480 -0.22051245 -0.39059734
v 0.30494493 -0.22144103 -0.39165524
v 0.30411929 -0.22680327 -0.38403833
v 0.28494519 -0.23117155 -0.37494034
v 0.29494506 -0.23113231 -0.37494034
v -0.29495513 -0.23312026 -0.35498118
v -0.30495501 -0.23255789 -0.35498118
v 0.29494506 -0.23257098 -0.36499602
v -0.32027590 -0.23004678 -0.36034125
v -0.31458789 -0.23053071 -0.36414969
v -0.31761539 -0.22956288 -0.36697078
v -0.35495430 -0.22294508 -0.36499602
v -0.36137623 -0.22043398 -0.37190768
v -0.36486244 -0.21828908 -0.37515190
v 0.31457782 -0.22868660 -0.37444663
v 0.31090814 -0.23017758 -0.37077925
v 0.30411929 -0.23054378 -0.37444663
v 0.30494493 -0.23191704 -0.36499602
v 0.33494455 -0.22183339 -0.38312146
v 0.34494442 -0.22090480 -0.38164040
v 0.35154980 -0.22030318 -0.38058248
v 0.35824698 -0.21966234 -0.37853721
v 0.35494423 -0.22106175 -0.37515190
v -0.41339386 -0.19214483 -0.36499602
v -0.41843969 -0.18891440 -0.36499602
v -0.38091725 -0.21059883 -0.37162557
v -0.39963257 -0.19979584 -0.36908659
v -0.36807340 -0.21933536 -0.36704132
v -0.37403661 -0.21677195 -0.36422023
v -0.42366898 -0.18391836 -0.36499602
v -0.42862302 -0.17820299 -0.36499602
v -0.43110007 -0.17151979 -0.37254241
v -0.43871462 -0.15825802 -0.37698561
v -0.45128328 -0.14190969 -0.37494034
v -0.45541161 -0.13500416 -0.37494034
v -0.44229257 -0.15496220 -0.37416452
v -0.43201745 -0.16288787 -0.38220462
v -0.45898956 -0.12592757 -0.37515190
v -0.45944828 -0.11787112 -0.37860775
v -0.46018219 -0.11120100 -0.38037091
v -0.46091616 -0.10500172 -0.38135830
v -0.45944828 -0.09954792 -0.38432044
v 0.45696121 -0.09954792 -0.38707098
v 0.45641077 -0.10500172 -0.38636571
v 0.45375025 -0.12501207 -0.38439095
v 0.45173192 -0.13500416 -0.38213408
v 0.44466782 -0.14417231 -0.38290989
v 0.43797064 -0.14500934 -0.38841099
v 0.45017231 -0.14028794 -0.38022986
v 0.42833775 -0.15777411 -0.38883415
v 0.42264974 -0.17499870 -0.38276884
v 0.44108987 -0.15158790 -0.38135830
v 0.42962211 -0.16954491 -0.37924248
v 0.42732859 -0.17490716 -0.37550455
v 0.42191583 -0.18215273 -0.37494034
v 0.41494346 -0.18764578 -0.37571612
v 0.41164070 -0.19104622 -0.37289506
v 0.40586102 -0.19367504 -0.37571612
v 0.38457686 -0.20717221 -0.37501085
v 0.37898064 -0.20940867 -0.37832564
v 0.39099878 -0.20067212 -0.38093513
v 0.40310872 -0.19193557 -0.38227513
v 0.37237519 -0.21147509 -0.38185197
v 0.36723769 -0.20831005 -0.38848153
v 0.35494423 -0.21691582 -0.38432044
v 0.36430192 -0.21288759 -0.38509622
v -0.29495513 -0.23314643 0.31939825
v -0.30495501 -0.23259713 0.31939825
v 0.29494506 -0.23312026 -0.35498118
v -0.31495482 -0.23111925 0.31939825
v -0.31495482 -0.23106693 -0.35498118
v 0.30494493 -0.23255789 -0.35498118
v -0.34495443 -0.22480224 -0.36499602
v -0.32036763 -0.23007295 -0.35498118
v -0.32541341 -0.22914436 -0.35498118
v -0.33495456 -0.22737874 -0.35498118
v -0.35495430 -0.22367749 -0.35498118
v -0.37009174 -0.22008085 -0.36034125
v -0.36486244 -0.22085249 -0.36422023
v 0.35494423 -0.22294508 -0.36499602
v 0.31760532 -0.22956288 -0.36697078
v 0.31457782 -0.23053071 -0.36414969
v 0.32026583 -0.23004678 -0.36034125
v 0.36485237 -0.21828908 -0.37515190
v 0.36145794 -0.22043398 -0.37190768
v -0.39577943 -0.20301320 -0.36541918
v -0.40082526 -0.20054133 -0.36238652
v -0.41935706 -0.18955526 -0.35498118
v -0.38733917 -0.20834929 -0.36499602
v -0.42431116 -0.18455921 -0.35498118
v -0.42935693 -0.17911848 -0.35498118
v -0.45009059 -0.15014926 -0.36034125
v -0.43229270 -0.17320693 -0.36499602
v -0.44009078 -0.16023290 -0.37035608
v -0.44917321 -0.14893293 -0.36704132
v -0.45247591 -0.14536247 -0.36422023
v -0.45843911 -0.13499108 -0.36591288
v -0.45990700 -0.12986425 -0.36986238
v -0.46064091 -0.12319414 -0.37197819
v -0.46137488 -0.11473224 -0.37515190
v -0.46467757 -0.09954792 -0.37494034
v -0.46348494 -0.09954792 -0.37783194
v -0.46146661 -0.09954792 -0.38206357
v 0.46145654 -0.09954792 -0.38206357
v 0.46090609 -0.10500172 -0.38135830
v 0.46017218 -0.11120100 -0.38037091
v 0.45943826 -0.11787112 -0.37860775
v 0.45897955 -0.12592757 -0.37515190
v 0.45540160 -0.13500416 -0.37494034
v 0.43475968 -0.15467447 -0.38509622
v 0.45136493 -0.14190969 -0.37494034
v 0.43109000 -0.17151979 -0.37254241
v 0.42870474 -0.17820299 -0.36499602
v 0.42365891 -0.18391836 -0.36499602
v 0.41842961 -0.18891440 -0.36499602
v 0.41338384 -0.19214483 -0.36499602
v 0.39962256 -0.19979584 -0.36908659
v 0.38090718 -0.21059883 -0.37162557
v 0.37540269 -0.21284835 -0.37501085
v 0.29494506 -0.23314643 0.31939825
v 0.30494493 -0.23259713 0.31939825
v 0.29934871 -0.23291102 0.31939825
v -0.35495430 -0.22371672 0.31939825
v 0.31494480 -0.23106693 -0.35498118
v 0.30934852 -0.23195627 0.31939825
v -0.36495417 -0.22149335 -0.35498118
v -0.37018347 -0.22012009 -0.35498118
v -0.38825661 -0.20891167 -0.35498118
v -0.41431129 -0.19270721 -0.35498118
v 0.34494442 -0.22480224 -0.36499602
v 0.36485237 -0.22085249 -0.36422023
v 0.37008166 -0.22008085 -0.36034125
v 0.35494423 -0.22367749 -0.35498118
v 0.32035756 -0.23007295 -0.35498118
v 0.33494455 -0.22737874 -0.35498118
v 0.32540339 -0.22914436 -0.35498118
v 0.36806333 -0.21933536 -0.36704132
v -0.41440302 -0.19274645 0.31939825
v -0.41660482 -0.19133395 0.31939825
v -0.41935706 -0.18955526 0.31939825
v -0.42220110 -0.18675642 0.31939825
v -0.42431116 -0.18455921 0.31939825
v -0.42651296 -0.18223120 0.31939825
v -0.42935693 -0.17919695 0.31939825
v -0.44385219 -0.15925200 0.31939825
v -0.45385206 -0.14500934 -0.35498118
v -0.45871437 -0.13746296 -0.35498118
v -0.44623744 -0.15408593 -0.36422023
v -0.46064091 -0.13164295 -0.36316231
v -0.46155834 -0.12592757 -0.36591288
v -0.46412712 -0.11500689 -0.36499602
v -0.46752155 -0.09954792 -0.36471391
v 0.46466750 -0.09954792 -0.37494034
v 0.46136481 -0.11473224 -0.37515190
v 0.46063089 -0.12319414 -0.37197819
v 0.45989692 -0.12986425 -0.36986238
v 0.45842910 -0.13499108 -0.36591288
v 0.45246583 -0.14536247 -0.36422023
v 0.44916314 -0.14893293 -0.36704132
v 0.44008070 -0.16023290 -0.37035608
v 0.42934692 -0.17911848 -0.35498118
v 0.44622743 -0.15408593 -0.36422023
v 0.45008057 -0.15014926 -0.36034125
v 0.42430109 -0.18455921 -0.35498118
v 0.41934705 -0.18955526 -0.35498118
v 0.40081519 -0.20054133 -0.36238652
v 0.39576936 -0.20301320 -0.36541918
v 0.38732916 -0.20834929 -0.36499602
v 0.37402654 -0.21677195 -0.36422023
v -0.36055058 -0.22248733 0.31939825
v 0.31494480 -0.23111925 0.31939825
v -0.36495417 -0.22151950 0.31939825
v -0.36788988 -0.22074786 0.31939825
v -0.37018347 -0.22012009 0.31939825
v -0.37238526 -0.21882530 0.31939825
v -0.37522924 -0.21708584 0.31939825
v -0.40137571 -0.20088138 0.31939825
v 0.38824654 -0.20891167 -0.35498118
v 0.37017339 -0.22012009 -0.35498118
v 0.36494410 -0.22149335 -0.35498118
v 0.41430122 -0.19270721 -0.35498118
v 0.32329333 -0.22957596 0.31939825
v 0.35494423 -0.22371672 0.31939825
v -0.45192546 -0.14792588 0.31939825
v -0.45394379 -0.14500934 0.31939825
v -0.45605385 -0.14180507 0.31939825
v -0.45871437 -0.13758066 0.31939825
v -0.46109962 -0.13258462 0.31939825
v -0.46100789 -0.13246691 -0.35498118
v -0.46302623 -0.12501207 -0.35498118
v -0.46522802 -0.11500689 -0.35498118
v -0.46853071 -0.09954792 -0.35498118
v 0.46595192 -0.09954792 -0.37042660
v 0.46751153 -0.09954792 -0.36471391
v 0.46164006 -0.12592757 -0.36591288
v 0.46063089 -0.13164295 -0.36316231
v 0.45870429 -0.13746296 -0.35498118
v 0.44154859 -0.16216855 -0.35498118
v 0.43962198 -0.16508508 0.31939825
v 0.43301660 -0.17420091 0.31939825
v 0.42934692 -0.17919695 0.31939825
v 0.45384198 -0.14500934 -0.35498118
v 0.42430109 -0.18455921 0.31939825
v 0.42154884 -0.18735804 0.31939825
v 0.41934705 -0.18955526 0.31939825
v 0.41439301 -0.19274645 0.31939825
v 0.40136564 -0.20088138 0.31939825
v 0.37521923 -0.21708584 0.31939825
v 0.37017339 -0.22012009 0.31939825
v 0.36494410 -0.22151950 0.31939825
v 0.38329250 -0.21208979 0.31939825
v -0.46210879 -0.12918416 0.31939825
v -0.46320969 -0.12501207 0.31939825
v -0.46862245 -0.09954792 0.31939825
v 0.46852070 -0.09954792 -0.35498118
v 0.46521801 -0.11500689 -0.35498118
v 0.46411705 -0.11500689 -0.36499602
v 0.46301615 -0.12501207 -0.35498118
v 0.46099788 -0.13246691 -0.35498118
v 0.45980519 -0.13538344 0.31939825
v 0.45870429 -0.13758066 0.31939825
v 0.45402545 -0.14500934 0.31939825
v 0.44164032 -0.16227317 0.31939825
v 0.45228237 -0.14744197 0.31939825
v 0.46861243 -0.09954792 0.31939825
v 0.46329141 -0.12501207 0.31939825
v 0.46108961 -0.13258462 0.31939825
f 1 2 3
f 1 3 4
f 1 4 5
f 1 5 6
f 1 6 7
f 1 7 8
f 1 8 9
f 1 9 10
f 1 10 11
f 1 11 32
f 1 32 12
f 1 12 14
f 1 14 2
f 2 13 15
f 2 15 3
f 2 14 42
f 2 42 13
f 3 15 44
f 3 44 16
f 3 16 4
f 4 16 17
f 4 17 5
f 5 17 7
f 5 7 6
f 7 18 19
f 7 19 8
f 7 17 20
f 7 20 18
f 8 21 22
f 8 22 9
f 8 19 21
f 9 22 23
f 9 23 10
f 10 23 24
f 10 24 25
f 10 25 26
f 10 26 27
f 10 27 28
f 10 28 11
f 11 28 29
f 11 29 30
f 11 30 31
f 11 31 32
f 12 32 33
f 12 33 34
f 12 34 35
f 12 35 36
f 12 36 37
f 12 37 38
f 12 38 39
f 12 39 40
f 12 40 14
f 13 41 15
f 13 42 79
f 13 79 41
f 14 40 76
f 14 76 42
f 15 41 43
f 15 43 44
f 16 44 45
f 16 45 17
f 17 46 47
f 17 47 20
f 17 45 48
f 17 48 49
f 17 49 46
f 18 50 19
f 18 20 51
f 18 51 50
f 19 50 52
f 19 52 21
f 20 47 51
f 21 52 53
f 21 53 54
f 21 54 55
f 21 55 56
f 21 56 25
f 21 25 22
f 22 25 24
f 22 24 23
f 25 56 57
f 25 57 58
f 25 58 59
f 25 59 26
f 26 59 60
f 26 60 27
f 27 60 61
f 27 61 28
f 28 61 29
f 29 61 103
f 29 103 102
f 29 102 154
f 29 154 153
f 29 153 213
f 29 213 212
f 29 212 281
f 29 281 342
f 29 342 341
f 29 341 340
f 29 340 391
f 29 391 431
f 29 431 453
f 29 453 464
f 29 464 454
f 29 454 433
f 29 433 432
f 29 432 392
f 29 392 343
f 29 343 282
f 29 282 214
f 29 214 155
f 29 155 104
f 29 104 62
f 29 62 31
f 29 31 30
f 31 62 32
f 32 62 63
f 32 63 33
f 33 63 64
f 33 64 65
f 33 65 66
f 33 66 67
f 33 67 68
f 33 68 34
f 34 69 35
f 34 68 69
f 35 69 70
f 35 70 71
f 35 71 36
f 36 71 72
f 36 72 73
f 36 73 74
f 36 74 38
f 36 38 37
f 38 74 39
f 39 74 75
f 39 75 40
f 40 75 121
f 40 121 76
f 41 77 78
f 41 78 43
f 41 79 124
f 41 124 77
f 42 76 79
f 43 78 80
f 43 80 81
f 43 81 44
f 44 48 45
f 44 81 46
f 44 46 49
f 44 49 48
f 46 81 82
f 46 82 83
f 46 83 84
f 46 84 51
f 46 51 47
f 50 85 52
f 50 51 85
f 51 84 86
f 51 86 85
f 52 87 53
f 52 85 88
f 52 88 89
f 52 89 87
f 53 90 54
f 53 87 91
f 53 91 90
f 54 90 92
f 54 92 93
f 54 93 94
f 54 94 55
f 55 94 95
f 55 95 56
f 56 95 57
f 57 96 58
f 57 95 96
f 58 97 98
f 58 98 99
f 58 99 59
f 58 96 97
f 59 99 100
f 59 100 101
f 59 101 60
f 60 101 102
f 60 102 103
f 60 103 61
f 62 104 63
f 63 104 105
f 63 105 64
f 64 105 65
f 65 105 106
f 65 106 66
f 66 106 107
f 66 107 108
f 66 108 109
f 66 109 70
f 66 70 69
f 66 69 67
f 67 69 68
f 70 110 111
f 70 111 71
f 70 109 112
f 70 112 113
f 70 113 110
f 71 111 114
f 71 114 72
f 72 114 115
f 72 115 73
f 73 115 116
f 73 116 74
f 74 116 117
f 74 117 118
f 74 118 119
f 74 119 120
f 74 120 75
f 75 120 121
f 76 121 122
f 76 122 79
f 77 123 78
f 77 124 178
f 77 178 123
f 78 123 125
f 78 125 126
f 78 126 80
f 79 122 127
f 79 127 124
f 80 126 81
f 81 126 128
f 81 128 129
f 81 129 83
f 81 83 82
f 83 129 130
f 83 130 131
f 83 131 132
f 83 132 133
f 83 133 134
f 83 134 84
f 84 134 86
f 85 89 88
f 85 86 89
f 86 134 135
f 86 135 136
f 86 136 137
f 86 137 87
f 86 87 89
f 87 137 91
f 90 91 138
f 90 138 139
f 90 139 92
f 91 137 136
f 91 136 138
f 92 140 141
f 92 141 142
f 92 142 143
f 92 143 144
f 92 144 93
f 92 139 145
f 92 145 146
f 92 146 147
f 92 147 140
f 93 144 94
f 94 144 148
f 94 148 97
f 94 97 96
f 94 96 95
f 97 148 98
f 98 149 150
f 98 150 151
f 98 151 99
f 98 148 149
f 99 151 100
f 100 151 152
f 100 152 153
f 100 153 154
f 100 154 101
f 101 154 102
f 104 155 105
f 105 155 156
f 105 156 106
f 106 156 157
f 106 157 158
f 106 158 107
f 107 158 159
f 107 159 160
f 107 160 161
f 107 161 108
f 108 161 162
f 108 162 109
f 109 162 112
f 110 113 163
f 110 163 164
f 110 164 165
f 110 165 111
f 111 165 166
f 111 166 114
f 112 162 167
f 112 167 113
f 113 167 168
f 113 168 169
f 113 169 163
f 114 166 115
f 115 166 170
f 115 170 171
f 115 171 117
f 115 117 116
f 117 171 172
f 117 172 173
f 117 173 174
f 117 174 121
f 117 121 118
f 118 121 119
f 119 121 120
f 121 174 122
f 122 174 175
f 122 175 127
f 123 176 177
f 123 177 125
f 123 178 243
f 123 243 176
f 124 127 178
f 125 177 126
f 126 179 180
f 126 180 181
f 126 181 132
f 126 132 128
f 126 177 182
f 126 182 183
f 126 183 184
f 126 184 185
f 126 185 186
f 126 186 187
f 126 187 188
f 126 188 179
f 127 175 189
f 127 189 190
f 127 190 178
f 128 132 131
f 128 131 130
f 128 130 129
f 132 181 180
f 132 180 133
f 133 180 179
f 133 179 191
f 133 191 134
f 134 191 135
f 135 191 192
f 135 192 193
f 135 193 194
f 135 194 145
f 135 145 138
f 135 138 136
f 138 145 139
f 140 195 196
f 140 196 142
f 140 142 141
f 140 147 197
f 140 197 198
f 140 198 199
f 140 199 200
f 140 200 195
f 142 201 202
f 142 202 203
f 142 203 204
f 142 204 205
f 142 205 206
f 142 206 143
f 142 196 201
f 143 206 207
f 143 207 144
f 144 207 149
f 144 149 148
f 145 194 146
f 146 194 193
f 146 193 197
f 146 197 147
f 149 207 150
f 150 207 208
f 150 208 204
f 150 204 209
f 150 209 151
f 151 209 210
f 151 210 211
f 151 211 212
f 151 212 152
f 152 212 213
f 152 213 153
f 155 214 156
f 156 214 157
f 157 214 215
f 157 215 216
f 157 216 158
f 158 216 159
f 159 216 217
f 159 217 218
f 159 218 219
f 159 219 160
f 160 219 220
f 160 220 167
f 160 167 161
f 161 167 162
f 163 221 222
f 163 222 164
f 163 169 221
f 164 222 223
f 164 223 224
f 164 224 165
f 165 224 170
f 165 170 225
f 165 225 166
f 166 225 170
f 167 220 226
f 167 226 168
f 168 226 169
f 169 226 227
f 169 227 228
f 169 228 229
f 169 229 230
f 169 230 231
f 169 231 232
f 169 232 233
f 169 233 221
f 170 234 171
f 170 224 223
f 170 223 235
f 170 235 234
f 171 234 172
f 172 234 236
f 172 236 237
f 172 237 238
f 172 238 239
f 172 239 240
f 172 240 241
f 172 241 174
f 172 174 173
f 174 241 242
f 174 242 189
f 174 189 175
f 176 182 177
f 176 243 247
f 176 247 182
f 178 190 244
f 178 244 243
f 179 188 191
f 182 245 246
f 182 246 183
f 182 247 308
f 182 308 245
f 183 246 248
f 183 248 249
f 183 249 185
f 183 185 184
f 185 249 250
f 185 250 251
f 185 251 187
f 185 187 186
f 187 251 252
f 187 252 188
f 188 252 253
f 188 253 193
f 188 193 192
f 188 192 191
f 189 254 255
f 189 255 256
f 189 256 257
f 189 257 247
f 189 247 244
f 189 244 190
f 189 242 237
f 189 237 258
f 189 258 259
f 189 259 260
f 189 260 261
f 189 261 262
f 189 262 254
f 193 253 200
f 193 200 199
f 193 199 198
f 193 198 197
f 195 263 264
f 195 264 196
f 195 200 265
f 195 265 266
f 195 266 263
f 196 264 201
f 200 253 267
f 200 267 268
f 200 268 265
f 201 269 270
f 201 270 271
f 201 271 202
f 201 264 269
f 202 271 203
f 203 271 272
f 203 272 204
f 204 273 274
f 204 274 209
f 204 208 205
f 204 272 275
f 204 275 273
f 205 208 207
f 205 207 276
f 205 276 206
f 206 276 207
f 209 274 277
f 209 277 210
f 210 277 278
f 210 278 279
f 210 279 280
f 210 280 211
f 211 280 281
f 211 281 212
f 214 282 215
f 215 282 283
f 215 283 284
f 215 284 216
f 216 284 285
f 216 285 217
f 217 286 287
f 217 287 218
f 217 285 288
f 217 288 286
f 218 287 289
f 218 289 226
f 218 226 219
f 219 226 220
f 221 233 222
f 222 233 235
f 222 235 223
f 226 289 227
f 227 289 290
f 227 290 228
f 228 290 291
f 228 291 288
f 228 288 292
f 228 292 293
f 228 293 294
f 228 294 295
f 228 295 230
f 228 230 229
f 230 295 296
f 230 296 297
f 230 297 298
f 230 298 299
f 230 299 300
f 230 300 301
f 230 301 231
f 231 301 232
f 232 301 302
f 232 302 303
f 232 303 233
f 233 303 235
f 234 304 236
f 234 235 304
f 235 303 302
f 235 302 305
f 235 305 304
f 236 304 260
f 236 260 259
f 236 259 258
f 236 258 237
f 237 242 238
f 238 242 239
f 239 242 240
f 240 242 241
f 243 244 247
f 245 306 307
f 245 307 246
f 245 308 359
f 245 359 306
f 246 309 310
f 246 310 248
f 246 307 309
f 247 257 311
f 247 311 308
f 248 312 250
f 248 250 249
f 248 310 313
f 248 313 314
f 248 314 315
f 248 315 316
f 248 316 251
f 248 251 312
f 250 312 251
f 251 316 317
f 251 317 318
f 251 318 252
f 252 318 317
f 252 317 267
f 252 267 253
f 254 262 255
f 255 262 319
f 255 319 320
f 255 320 321
f 255 321 257
f 255 257 256
f 257 321 322
f 257 322 311
f 260 304 261
f 261 305 302
f 261 302 323
f 261 323 324
f 261 324 262
f 261 304 305
f 262 324 319
f 263 266 325
f 263 325 326
f 263 326 264
f 264 326 327
f 264 327 269
f 265 268 266
f 266 268 328
f 266 328 325
f 267 317 268
f 268 317 328
f 269 327 329
f 269 329 330
f 269 330 270
f 270 330 331
f 270 331 332
f 270 332 271
f 271 332 333
f 271 333 275
f 271 275 272
f 273 334 335
f 273 335 336
f 273 336 274
f 273 275 333
f 273 333 334
f 274 336 337
f 274 337 277
f 277 337 338
f 277 338 339
f 277 339 278
f 278 339 340
f 278 340 279
f 279 340 341
f 279 341 280
f 280 342 281
f 280 341 342
f 282 343 344
f 282 344 283
f 283 344 284
f 284 344 345
f 284 345 346
f 284 346 347
f 284 347 285
f 285 347 348
f 285 348 288
f 286 291 349
f 286 349 287
f 286 288 291
f 287 349 289
f 288 348 350
f 288 350 292
f 289 349 290
f 290 349 291
f 292 351 293
f 292 350 351
f 293 351 294
f 294 351 352
f 294 352 353
f 294 353 354
f 294 354 295
f 295 354 296
f 296 354 355
f 296 355 356
f 296 356 357
f 296 357 298
f 296 298 297
f 298 357 358
f 298 358 299
f 299 358 302
f 299 302 300
f 300 302 301
f 302 358 323
f 306 359 361
f 306 361 360
f 306 360 364
f 306 364 410
f 306 410 421
f 306 421 422
f 306 422 449
f 306 449 448
f 306 448 447
f 306 447 450
f 306 450 446
f 306 446 445
f 306 445 444
f 306 444 443
f 306 443 442
f 306 442 440
f 306 440 439
f 306 439 438
f 306 438 462
f 306 462 463
f 306 463 461
f 306 461 460
f 306 460 459
f 306 459 466
f 306 466 465
f 306 465 464
f 306 464 453
f 306 453 452
f 306 452 451
f 306 451 427
f 306 427 426
f 306 426 425
f 306 425 424
f 306 424 423
f 306 423 384
f 306 384 383
f 306 383 382
f 306 382 381
f 306 381 380
f 306 380 379
f 306 379 378
f 306 378 377
f 306 377 416
f 306 416 415
f 306 415 414
f 306 414 413
f 306 413 412
f 306 412 411
f 306 411 409
f 306 409 362
f 306 362 309
f 306 309 307
f 308 311 360
f 308 360 361
f 308 361 359
f 309 362 316
f 309 316 315
f 309 315 314
f 309 314 313
f 309 313 310
f 311 322 363
f 311 363 364
f 311 364 360
f 316 365 317
f 316 362 365
f 317 326 328
f 317 365 366
f 317 366 367
f 317 367 368
f 317 368 327
f 317 327 326
f 319 369 320
f 319 324 370
f 319 370 371
f 319 371 372
f 319 372 322
f 319 322 369
f 320 322 321
f 320 369 322
f 322 373 363
f 322 372 374
f 322 374 375
f 322 375 373
f 323 376 324
f 323 358 376
f 324 376 371
f 324 371 370
f 325 328 326
f 327 368 377
f 327 377 378
f 327 378 379
f 327 379 380
f 327 380 329
f 329 380 381
f 329 381 382
f 329 382 383
f 329 383 330
f 330 383 384
f 330 384 385
f 330 385 331
f 331 385 386
f 331 386 335
f 331 335 334
f 331 334 387
f 331 387 332
f 332 387 334
f 332 334 333
f 335 386 336
f 336 386 388
f 336 388 337
f 337 388 389
f 337 389 390
f 337 390 391
f 337 391 340
f 337 340 338
f 338 340 339
f 343 392 344
f 344 392 345
f 345 392 346
f 346 392 393
f 346 393 347
f 347 393 394
f 347 394 395
f 347 395 348
f 348 395 396
f 348 396 350
f 350 396 397
f 350 397 398
f 350 398 399
f 350 399 351
f 351 399 352
f 352 400 353
f 352 399 398
f 352 398 401
f 352 401 402
f 352 402 400
f 353 400 403
f 353 403 404
f 353 404 354
f 354 404 405
f 354 405 355
f 355 405 406
f 355 406 356
f 356 406 407
f 356 407 408
f 356 408 357
f 357 408 358
f 358 408 376
f 362 409 365
f 363 373 410
f 363 410 364
f 365 409 411
f 365 411 366
f 366 411 412
f 366 412 413
f 366 413 414
f 366 414 415
f 366 415 416
f 366 416 367
f 367 416 368
f 368 416 377
f 371 417 418
f 371 418 419
f 371 419 372
f 371 376 408
f 371 408 407
f 371 407 405
f 371 405 404
f 371 404 420
f 371 420 417
f 372 421 374
f 372 419 422
f 372 422 421
f 373 375 410
f 374 421 375
f 375 421 410
f 384 423 385
f 385 423 424
f 385 424 425
f 385 425 386
f 386 425 426
f 386 426 427
f 386 427 428
f 386 428 388
f 388 428 429
f 388 429 390
f 388 390 389
f 390 429 430
f 390 430 391
f 391 430 431
f 392 432 395
f 392 395 394
f 392 394 393
f 395 432 433
f 395 433 434
f 395 434 435
f 395 435 396
f 396 436 397
f 396 435 436
f 397 402 398
f 397 436 402
f 398 402 401
f 400 437 438
f 400 438 439
f 400 439 440
f 400 440 403
f 400 402 437
f 402 436 441
f 402 441 437
f 403 442 443
f 403 443 404
f 403 440 442
f 404 443 444
f 404 444 445
f 404 445 420
f 405 407 406
f 417 446 450
f 417 450 418
f 417 420 446
f 418 447 448
f 418 448 449
f 418 449 419
f 418 450 447
f 419 449 422
f 420 445 446
f 427 451 428
f 428 451 429
f 429 452 430
f 429 451 452
f 430 452 431
f 431 452 453
f 433 454 455
f 433 455 456
f 433 456 434
f 434 457 435
f 434 456 455
f 434 455 457
f 435 457 458
f 435 458 436
f 436 458 459
f 436 459 460
f 436 460 461
f 436 461 441
f 437 462 438
f 437 441 461
f 437 461 463
f 437 463 462
f 454 464 465
f 454 465 455
f 455 465 457
f 457 465 458
f 458 465 466
f 458 466 459

