# https://github.com/mikedh/trimesh
v 0.20236441 0.23311386 0.31939825
v 0.08497871 0.23314641 0.31939825
v 0.20236441 -0.09953482 0.31939825
v 0.20236441 0.23311386 -0.35498127
v -0.29498541 0.23314641 0.31939825
v -0.46858117 -0.09953482 0.31939825
v 0.20236441 -0.09953482 -0.37486991
v 0.20236441 0.23256026 -0.36499611
v -0.29498541 0.23311386 -0.35498127
v -0.30498275 0.23259282 0.31939825
v -0.47109705 -0.08852795 0.31939825
v -0.46858117 -0.09953482 0.31770560
v -0.18527980 -0.09953482 -0.39179638
v 0.19494918 -0.00499943 -0.39207849
v 0.20236441 -0.00519481 -0.39158481
v -0.29498541 0.23256026 -0.36499611
v 0.20236441 0.23115997 -0.37494043
v -0.30498275 0.23256026 -0.35498127
v -0.30935243 0.23194152 0.31939825
v -0.47182533 -0.08497840 0.31939825
v -0.47162673 -0.08497840 -0.35498127
v -0.46851498 -0.09953482 -0.35498127
v -0.42554638 -0.09953482 -0.40075332
v 0.20236441 0.00503051 -0.39278376
v -0.30498275 0.23190896 -0.36499611
v -0.28498811 0.23115997 -0.37494043
v -0.29498541 0.23112741 -0.37494043
v 0.20236441 0.23015046 -0.38037100
v -0.32021046 0.23002021 -0.36034134
v -0.31498006 0.23106228 -0.35498127
v -0.31498006 0.23109484 0.31939825
v -0.47255364 -0.08058216 0.31939825
v -0.47321570 -0.07498103 -0.35498127
v -0.47017017 -0.09087262 -0.36090556
v -0.47348052 -0.07498103 0.31939825
v -0.46752188 -0.09953482 -0.36471400
v -0.43441817 -0.09953482 -0.40068281
v -0.42647329 -0.09497577 -0.40089437
v 0.20236441 0.20820184 -0.40096492
v -0.30028200 0.23002021 -0.38008890
v -0.30412203 0.23054124 -0.37444675
v -0.31094140 0.23018304 -0.37077934
v -0.31458282 0.23050867 -0.36414978
v -0.28498811 0.23015046 -0.38037100
v -0.29498541 0.23011790 -0.38022995
v 0.20236441 0.22767554 -0.38537842
v -0.35496932 0.22367008 -0.35498127
v -0.34497201 0.22552627 -0.35498127
v -0.31762835 0.22956429 -0.36697087
v -0.33497471 0.22663347 -0.36499611
v -0.35496932 0.22292110 -0.36499611
v -0.32047528 0.23008534 0.31939825
v -0.47381157 -0.06498365 -0.35498127
v -0.47222260 -0.07498103 -0.36499611
v -0.47076604 -0.08455506 -0.36450243
v -0.47394398 -0.06498365 0.31939825
v -0.46944189 -0.08758357 -0.36760563
v -0.47017017 -0.08094037 -0.37056774
v -0.46619773 -0.09953482 -0.36950985
v -0.44236305 -0.06498365 -0.40054175
v -0.43554369 -0.09403139 -0.40068281
v -0.43494785 -0.08497840 -0.40103543
v -0.43726510 -0.09953482 -0.40011859
v -0.43997958 -0.09005849 -0.39997754
v -0.40495589 0.14499371 -0.40110597
v 0.20236441 0.21285860 -0.40096492
v -0.28498811 0.22764298 -0.38537842
v -0.29498541 0.22725220 -0.38523737
v -0.29498541 0.22223724 -0.39271325
v -0.30412203 0.22679630 -0.38403842
v -0.33497471 0.21865512 -0.38812900
v -0.33497471 0.22181390 -0.38312155
v -0.34497201 0.22090209 -0.38164049
v -0.35159275 0.22028336 -0.38051206
v -0.35827971 0.21966462 -0.37853730
v -0.35496932 0.22106491 -0.37515202
v -0.30690277 0.22940148 -0.37747940
v -0.31458282 0.22868505 -0.37444675
v -0.27499080 0.22767554 -0.38537842
v 0.20236441 0.22399573 -0.39151427
v -0.37013081 0.22005540 -0.36034134
v -0.36496663 0.22148825 -0.35498127
v -0.35496932 0.22370265 0.31939825
v -0.36145765 0.22041361 -0.37190777
v -0.36483422 0.22083695 -0.36422032
v -0.47381157 0.06501473 -0.35498127
v -0.47281846 -0.06498365 -0.36499611
v -0.47401020 -0.06058742 0.31939825
v -0.47056741 -0.07498103 -0.37197828
v -0.46897843 -0.07498103 -0.37698570
v -0.46811774 -0.08455506 -0.37430570
v -0.46566805 -0.09497577 -0.37494043
v -0.46467495 -0.09953482 -0.37494043
v -0.44295892 -0.05498628 -0.40068281
v -0.44739482 -0.06498365 -0.39920172
v -0.44792449 -0.05498628 -0.39941332
v -0.43494785 0.08497691 -0.40103543
v -0.43898648 -0.09953482 -0.39969543
v -0.43925130 -0.09673427 -0.39983648
v -0.42495051 0.11496903 -0.40103543
v -0.42534778 0.12509665 -0.40075332
v -0.40502208 0.15463287 -0.40061226
v -0.39548823 0.16544434 -0.40068281
v -0.38449782 0.17505094 -0.40068281
v -0.37496394 0.17498583 -0.40096492
v -0.34497201 0.19498056 -0.40096492
v -0.32497740 0.20374048 -0.40096492
v -0.27499080 0.21279347 -0.40096492
v -0.26499349 0.21285860 -0.40096492
v 0.20236441 0.21416119 -0.40040070
v -0.27499080 0.22266057 -0.39370063
v -0.28498811 0.22262801 -0.39348903
v -0.28498811 0.21728739 -0.39849645
v -0.33497471 0.21364015 -0.39398274
v -0.34497201 0.21272834 -0.39306587
v -0.30498275 0.22142312 -0.39165533
v -0.31498006 0.22051130 -0.39059743
v -0.32014424 0.22002284 -0.39003322
v -0.32683116 0.21940410 -0.38918689
v -0.34497201 0.21774331 -0.38664791
v -0.35496932 0.21689662 -0.38432053
v -0.36483422 0.21826434 -0.37515202
v -0.36430454 0.21289116 -0.38509631
v -0.37238187 0.21145831 -0.38185209
v 0.20236441 0.22266057 -0.39370063
v -0.36807838 0.21933898 -0.36704141
v -0.37403703 0.21676636 -0.36422032
v -0.38231295 0.21145831 -0.36499611
v -0.41343042 0.19214743 -0.36499611
v -0.40085104 0.20051657 -0.36238661
v -0.41435733 0.19270103 -0.35498127
v -0.37019700 0.22012053 -0.35498127
v -0.36496663 0.22152081 0.31939825
v -0.47401020 0.05501736 0.31939825
v -0.47394398 0.06501473 0.31939825
v -0.47374535 0.06937841 0.31939825
v -0.47348052 0.07497954 0.31939825
v -0.47321570 0.07497954 -0.35498127
v -0.47281846 0.06501473 -0.36499611
v -0.47089845 -0.06498365 -0.37303621
v -0.46937567 -0.06498365 -0.37804362
v -0.46321839 -0.07436229 -0.38566053
v -0.46301976 -0.08497840 -0.38375631
v -0.46196043 -0.09497577 -0.38269839
v -0.46149698 -0.09953482 -0.38206366
v -0.46348321 -0.09953482 -0.37783203
v -0.44799069 -0.04498892 -0.39941332
v -0.44295892 0.05501736 -0.40068281
v -0.44626930 -0.07498103 -0.39863750
v -0.45560452 -0.07436229 -0.39292482
v -0.45494246 -0.06498365 -0.39440590
v -0.45494246 -0.05498628 -0.39468801
v -0.44236305 0.06501473 -0.40054175
v -0.43335885 0.10497165 -0.40068281
v -0.44117132 -0.09953482 -0.39849645
v -0.43203470 0.11496903 -0.40040070
v -0.43084297 0.12180762 -0.40018910
v -0.42892295 0.12848338 -0.39976594
v -0.42223603 0.13314015 -0.40033016
v -0.40171173 0.16241583 -0.40025964
v -0.39919585 0.16905904 -0.39983648
v -0.39250889 0.17176190 -0.40033016
v -0.37496394 0.18221518 -0.40047121
v -0.35404241 0.19472004 -0.40054175
v -0.33497471 0.20273097 -0.40082386
v -0.28498811 0.21227244 -0.40075332
v -0.27499080 0.21777587 -0.39870805
v -0.26499349 0.21784100 -0.39870805
v 0.20236441 0.21784100 -0.39870805
v -0.31100762 0.21009059 -0.40004805
v -0.31762835 0.20940673 -0.39983648
v -0.32497740 0.20875543 -0.39948383
v -0.33497471 0.20771337 -0.39899015
v -0.35496932 0.21139318 -0.39144376
v -0.34497201 0.20605257 -0.39807329
v -0.36059695 0.21031855 -0.39024478
v -0.37542740 0.21282603 -0.37501097
v -0.36721769 0.20829953 -0.38848162
v -0.39800411 0.18876070 -0.38897529
v -0.40310207 0.19191948 -0.38227522
v -0.39105234 0.20064682 -0.38093522
v -0.37900260 0.20940673 -0.37832573
v -0.38092262 0.21057907 -0.37162566
v -0.39965931 0.19976757 -0.36908668
v -0.41164285 0.19104022 -0.37289515
v -0.41839600 0.18889096 -0.36499611
v -0.41932288 0.18954225 -0.35498127
v -0.41720426 0.19097510 0.31939825
v -0.40416139 0.19914885 0.31939825
v -0.40138069 0.20087478 0.31939825
v -0.37522876 0.21709201 0.31939825
v -0.37019700 0.22012053 0.31939825
v -0.47182533 0.08497691 0.31939825
v -0.47162673 0.08497691 -0.35498127
v -0.47017017 0.09087113 -0.36090556
v -0.47222260 0.07497954 -0.36499611
v -0.47056741 0.07497954 -0.37197828
v -0.47089845 0.06501473 -0.37303621
v -0.46937567 0.06501473 -0.37804362
v -0.46474114 -0.05498628 -0.38495526
v -0.46460873 -0.06498365 -0.38495526
v -0.46010664 -0.07061735 -0.39010373
v -0.45937836 -0.07729313 -0.38953951
v -0.45858386 -0.08497840 -0.38876373
v -0.45752454 -0.09497577 -0.38770583
v -0.45699489 -0.09953482 -0.38707107
v -0.44799069 0.04501999 -0.39941332
v -0.44792449 0.05501736 -0.39941332
v -0.44448170 -0.09953482 -0.39659223
v -0.45355210 -0.08497840 -0.39278376
v -0.46023905 -0.06498365 -0.39017427
v -0.45494246 0.05501736 -0.39468801
v -0.46030527 -0.05498628 -0.39024478
v -0.44739482 0.06501473 -0.39920172
v -0.43997958 0.09005701 -0.39997754
v -0.43925130 0.09673278 -0.39983648
v -0.43832442 0.10497165 -0.39955437
v -0.43700027 0.11496903 -0.39906067
v -0.43448439 0.12509665 -0.39821434
v -0.42534778 0.13587558 -0.39906067
v -0.40833247 0.15775907 -0.39962488
v -0.38747713 0.17843768 -0.39955437
v -0.40502208 0.16544434 -0.39870805
v -0.40495589 0.17498583 -0.39482906
v -0.39548823 0.17505094 -0.39863750
v -0.36880666 0.18928173 -0.39983648
v -0.35006997 0.20002809 -0.39997754
v -0.34497201 0.20107016 -0.40033016
v -0.35404241 0.20400099 -0.39680380
v -0.39131716 0.19081227 -0.39059743
v -0.37926742 0.19957219 -0.38961005
v -0.36430454 0.20497793 -0.39250165
v -0.38496125 0.19279872 -0.39207849
v -0.38456401 0.20715977 -0.37501097
v -0.40998766 0.18000078 -0.38996267
v -0.40581658 0.18716502 -0.38537842
v -0.40972283 0.18983534 -0.37959522
v -0.41501942 0.18762094 -0.37571621
v -0.42369258 0.18390855 -0.36499611
v -0.42197120 0.18215007 -0.37494043
v -0.42435464 0.18455985 -0.35498127
v -0.41938910 0.18954225 0.31939825
v -0.46328458 0.12499896 0.31939825
v -0.46308598 0.12499896 -0.35498127
v -0.47076604 0.08455357 -0.36450243
v -0.46162942 0.12591077 -0.36591297
v -0.47017017 0.08093888 -0.37056774
v -0.46897843 0.07497954 -0.37698570
v -0.46321839 0.07436081 -0.38566053
v -0.46460873 0.06501473 -0.38495526
v -0.46474114 0.05501736 -0.38495526
v -0.45202935 -0.09953482 -0.39158481
v -0.45474383 -0.09953482 -0.38925740
v -0.45494246 0.06501473 -0.39440590
v -0.44905001 -0.09953482 -0.39363009
v -0.46030527 0.05501736 -0.39024478
v -0.46023905 0.06501473 -0.39017427
v -0.44626930 0.07497954 -0.39863750
v -0.45560452 0.07436081 -0.39292482
v -0.44494516 0.10497165 -0.39567536
v -0.44593826 0.11571801 -0.39355958
v -0.44408447 0.12499896 -0.39292482
v -0.44223064 0.13310757 -0.39137322
v -0.43587473 0.13587558 -0.39391220
v -0.42495051 0.14499371 -0.39623958
v -0.41435733 0.15463287 -0.39800277
v -0.35675693 0.19784626 -0.39934278
v -0.38449782 0.18420163 -0.39743856
v -0.36529768 0.19472004 -0.39821434
v -0.41554907 0.16541179 -0.39341852
v -0.41197386 0.17498583 -0.39123216
v -0.40495589 0.18156388 -0.39116165
v -0.39475995 0.18524370 -0.39306587
v -0.37555981 0.19572955 -0.39391220
v -0.41396010 0.18234545 -0.38446158
v -0.41932288 0.16905904 -0.38953951
v -0.41700563 0.17498583 -0.38777635
v -0.42058083 0.18068466 -0.38072366
v -0.42865813 0.17820972 -0.36499611
v -0.42932022 0.17912154 -0.35498127
v -0.42740020 0.17488813 -0.37550464
v -0.42932022 0.17918667 0.31939825
v -0.42435464 0.18455985 0.31939825
v -0.42157394 0.18736041 0.31939825
v -0.46109974 0.13255398 0.31939825
v -0.46096733 0.13245629 -0.35498127
v -0.46063629 0.13160960 -0.36316240
v -0.46944189 0.08758209 -0.36760563
v -0.45990801 0.12985110 -0.36986247
v -0.46063629 0.12317534 -0.37197828
v -0.45898113 0.12591077 -0.37515202
v -0.46811774 0.08455357 -0.37430570
v -0.46023905 0.11119152 -0.38037100
v -0.46090114 0.10497165 -0.38135839
v -0.46196043 0.09497428 -0.38269839
v -0.46301976 0.08497691 -0.38375631
v -0.46010664 0.07061587 -0.39010373
v -0.45355210 0.08497691 -0.39278376
v -0.45057279 0.11288488 -0.39045638
v -0.44984451 0.11952808 -0.38989216
v -0.44905001 0.12499896 -0.38939846
v -0.43296161 0.14499371 -0.39186692
v -0.44534239 0.13587558 -0.38763529
v -0.43984717 0.13978335 -0.38989216
v -0.42839330 0.15775907 -0.38883424
v -0.42269948 0.17498583 -0.38276893
v -0.44110513 0.15157178 -0.38135839
v -0.45017552 0.14027181 -0.38022995
v -0.42965123 0.16954750 -0.37924257
v -0.43104160 0.17150140 -0.37254250
v -0.44011202 0.16020143 -0.37035617
v -0.43229952 0.17319477 -0.36499611
v -0.45004311 0.15010637 -0.36034134
v -0.43296161 0.17410657 -0.35498127
v -0.43097538 0.17700483 0.31939825
v -0.43872166 0.15824755 -0.37698570
v -0.44229686 0.15492594 -0.37416464
v -0.45977560 0.13535455 0.31939825
v -0.45871627 0.13743868 -0.35498127
v -0.45838526 0.13496377 -0.36591297
v -0.45540592 0.13499632 -0.37494043
v -0.45176449 0.13499632 -0.38213420
v -0.45375073 0.12499896 -0.38439104
v -0.45951077 0.11783472 -0.37860784
v -0.45752454 0.09497428 -0.38770583
v -0.45858386 0.08497691 -0.38876373
v -0.45937836 0.07729164 -0.38953951
v -0.44468033 0.14414702 -0.38290998
v -0.45130107 0.14186749 -0.37494043
v -0.44772586 0.14688246 -0.37494043
v -0.44918242 0.14890146 -0.36704141
v -0.45249280 0.14535192 -0.36422032
v -0.45388314 0.14499371 -0.35498127
v -0.44666654 0.15531673 0.31939825
v -0.43964857 0.16505358 0.31939825
v -0.45871627 0.13756895 0.31939825
v -0.45673007 0.14076029 0.31939825
v -0.45401555 0.14499371 0.31939825
v -0.45024174 0.15033433 0.31939825
f 1 2 5
f 1 5 10
f 1 10 19
f 1 19 31
f 1 31 52
f 1 52 83
f 1 83 133
f 1 133 192
f 1 192 191
f 1 191 190
f 1 190 189
f 1 189 188
f 1 188 242
f 1 242 284
f 1 284 283
f 1 283 282
f 1 282 315
f 1 315 335
f 1 335 334
f 1 334 339
f 1 339 338
f 1 338 337
f 1 337 336
f 1 336 318
f 1 318 285
f 1 285 243
f 1 243 193
f 1 193 137
f 1 137 136
f 1 136 135
f 1 135 134
f 1 134 88
f 1 88 56
f 1 56 35
f 1 35 32
f 1 32 20
f 1 20 11
f 1 11 6
f 1 6 3
f 1 3 7
f 1 7 15
f 1 15 24
f 1 24 39
f 1 39 66
f 1 66 110
f 1 110 169
f 1 169 125
f 1 125 80
f 1 80 46
f 1 46 28
f 1 28 17
f 1 17 8
f 1 8 4
f 1 4 2
f 2 4 9
f 2 9 5
f 3 6 12
f 3 12 22
f 3 22 36
f 3 36 59
f 3 59 93
f 3 93 146
f 3 146 145
f 3 145 206
f 3 206 253
f 3 253 252
f 3 252 255
f 3 255 209
f 3 209 155
f 3 155 98
f 3 98 63
f 3 63 37
f 3 37 23
f 3 23 13
f 3 13 7
f 4 8 16
f 4 16 9
f 5 9 18
f 5 18 10
f 6 11 12
f 7 13 14
f 7 14 15
f 8 17 26
f 8 26 16
f 9 16 18
f 10 18 19
f 11 20 21
f 11 21 22
f 11 22 12
f 13 23 14
f 14 23 24
f 14 24 15
f 16 25 18
f 16 26 27
f 16 27 25
f 17 28 44
f 17 44 26
f 18 25 29
f 18 29 30
f 18 30 19
f 19 30 31
f 20 32 21
f 21 33 34
f 21 34 22
f 21 32 35
f 21 35 33
f 22 34 36
f 23 37 38
f 23 38 39
f 23 39 24
f 25 27 40
f 25 40 41
f 25 41 42
f 25 42 43
f 25 43 29
f 26 44 27
f 27 44 45
f 27 45 40
f 28 46 79
f 28 79 44
f 29 47 48
f 29 48 30
f 29 43 49
f 29 49 50
f 29 50 51
f 29 51 47
f 30 48 52
f 30 52 31
f 33 53 87
f 33 87 54
f 33 54 34
f 33 35 53
f 34 55 36
f 34 54 55
f 35 56 53
f 36 55 57
f 36 57 58
f 36 58 59
f 37 60 61
f 37 61 62
f 37 62 38
f 37 63 64
f 37 64 60
f 38 62 39
f 39 62 65
f 39 65 66
f 40 45 67
f 40 67 68
f 40 68 69
f 40 69 70
f 40 70 71
f 40 71 72
f 40 72 73
f 40 73 74
f 40 74 75
f 40 75 76
f 40 76 77
f 40 77 78
f 40 78 42
f 40 42 41
f 42 51 49
f 42 49 43
f 42 78 76
f 42 76 51
f 44 79 67
f 44 67 45
f 46 80 79
f 47 51 81
f 47 81 82
f 47 82 133
f 47 133 83
f 47 83 48
f 48 83 52
f 49 51 50
f 51 76 84
f 51 84 85
f 51 85 81
f 53 86 139
f 53 139 87
f 53 56 88
f 53 88 134
f 53 134 86
f 54 87 89
f 54 89 58
f 54 58 55
f 55 58 57
f 58 89 90
f 58 90 91
f 58 91 92
f 58 92 93
f 58 93 59
f 60 94 62
f 60 62 61
f 60 64 95
f 60 95 96
f 60 96 94
f 62 97 65
f 62 94 148
f 62 148 97
f 63 98 99
f 63 99 64
f 64 99 95
f 65 97 100
f 65 100 101
f 65 101 102
f 65 102 103
f 65 103 104
f 65 104 105
f 65 105 106
f 65 106 107
f 65 107 108
f 65 108 109
f 65 109 66
f 66 109 110
f 67 79 111
f 67 111 112
f 67 112 68
f 68 112 69
f 69 112 113
f 69 113 114
f 69 114 115
f 69 115 116
f 69 116 70
f 70 116 117
f 70 117 118
f 70 118 119
f 70 119 71
f 71 120 73
f 71 73 72
f 71 119 115
f 71 115 120
f 73 120 74
f 74 120 121
f 74 121 75
f 75 122 84
f 75 84 76
f 75 121 123
f 75 123 124
f 75 124 122
f 76 78 77
f 79 80 111
f 80 125 111
f 81 85 84
f 81 84 126
f 81 126 127
f 81 127 128
f 81 128 129
f 81 129 130
f 81 130 131
f 81 131 132
f 81 132 82
f 82 132 133
f 84 122 126
f 86 134 135
f 86 135 136
f 86 136 137
f 86 137 138
f 86 138 196
f 86 196 139
f 87 139 198
f 87 198 140
f 87 140 89
f 89 140 141
f 89 141 90
f 90 141 142
f 90 142 143
f 90 143 144
f 90 144 145
f 90 145 146
f 90 146 91
f 91 146 92
f 92 146 93
f 94 96 147
f 94 147 207
f 94 207 148
f 95 99 98
f 95 98 149
f 95 149 150
f 95 150 151
f 95 151 96
f 96 151 152
f 96 152 147
f 97 148 153
f 97 153 154
f 97 154 100
f 98 155 149
f 100 154 101
f 101 154 156
f 101 156 157
f 101 157 158
f 101 158 159
f 101 159 160
f 101 160 102
f 102 160 103
f 103 160 161
f 103 161 162
f 103 162 104
f 104 162 163
f 104 163 164
f 104 164 165
f 104 165 106
f 104 106 105
f 106 165 107
f 107 165 166
f 107 166 108
f 108 166 113
f 108 113 167
f 108 167 168
f 108 168 109
f 109 168 110
f 110 168 169
f 111 125 169
f 111 169 168
f 111 168 167
f 111 167 112
f 112 167 113
f 113 166 170
f 113 170 171
f 113 171 172
f 113 172 173
f 113 173 114
f 114 173 115
f 115 174 120
f 115 119 118
f 115 118 117
f 115 117 116
f 115 173 175
f 115 175 174
f 120 174 121
f 121 174 176
f 121 176 123
f 122 124 177
f 122 177 126
f 123 176 124
f 124 176 178
f 124 178 179
f 124 179 180
f 124 180 181
f 124 181 182
f 124 182 177
f 126 177 127
f 127 177 183
f 127 183 184
f 127 184 128
f 128 184 129
f 129 184 185
f 129 185 186
f 129 186 187
f 129 187 130
f 130 187 131
f 131 187 188
f 131 188 189
f 131 189 132
f 132 189 190
f 132 190 191
f 132 191 192
f 132 192 133
f 137 193 194
f 137 194 138
f 138 194 195
f 138 195 196
f 139 196 197
f 139 197 198
f 140 198 199
f 140 199 141
f 141 199 251
f 141 251 200
f 141 200 201
f 141 201 142
f 142 202 143
f 142 201 202
f 143 202 203
f 143 203 204
f 143 204 205
f 143 205 144
f 144 205 145
f 145 205 206
f 147 152 212
f 147 212 207
f 148 207 208
f 148 208 153
f 149 155 209
f 149 209 150
f 150 209 210
f 150 210 202
f 150 202 151
f 151 202 211
f 151 211 152
f 152 211 213
f 152 213 256
f 152 256 212
f 153 208 214
f 153 214 215
f 153 215 154
f 154 215 216
f 154 216 156
f 156 216 217
f 156 217 157
f 157 217 218
f 157 218 158
f 158 218 219
f 158 219 220
f 158 220 221
f 158 221 161
f 158 161 160
f 158 160 159
f 161 222 162
f 161 221 223
f 161 223 224
f 161 224 225
f 161 225 222
f 162 222 226
f 162 226 163
f 163 226 164
f 164 226 227
f 164 227 228
f 164 228 165
f 165 228 173
f 165 173 172
f 165 172 171
f 165 171 170
f 165 170 166
f 173 228 227
f 173 227 175
f 174 175 229
f 174 229 176
f 175 227 229
f 176 230 231
f 176 231 178
f 176 229 232
f 176 232 233
f 176 233 230
f 177 182 234
f 177 234 183
f 178 231 179
f 179 231 230
f 179 230 235
f 179 235 236
f 179 236 180
f 180 236 237
f 180 237 181
f 181 237 182
f 182 237 234
f 183 185 184
f 183 234 185
f 185 234 237
f 185 237 238
f 185 238 186
f 186 239 187
f 186 238 240
f 186 240 239
f 187 239 241
f 187 241 242
f 187 242 188
f 193 243 244
f 193 244 194
f 194 244 195
f 195 245 196
f 195 244 246
f 195 246 245
f 196 247 197
f 196 245 247
f 197 247 248
f 197 248 199
f 197 199 198
f 199 248 249
f 199 249 250
f 199 250 251
f 200 251 256
f 200 256 213
f 200 213 211
f 200 211 201
f 201 211 202
f 202 210 252
f 202 252 203
f 203 252 204
f 204 252 253
f 204 253 205
f 205 253 206
f 207 212 208
f 208 212 254
f 208 254 214
f 209 255 210
f 210 255 252
f 212 256 257
f 212 257 254
f 214 258 217
f 214 217 216
f 214 216 215
f 214 254 259
f 214 259 260
f 214 260 258
f 217 258 260
f 217 260 218
f 218 260 261
f 218 261 262
f 218 262 219
f 219 262 263
f 219 263 264
f 219 264 265
f 219 265 220
f 220 265 266
f 220 266 223
f 220 223 221
f 222 267 226
f 222 225 268
f 222 268 269
f 222 269 267
f 223 266 265
f 223 265 270
f 223 270 224
f 224 270 271
f 224 271 235
f 224 235 272
f 224 272 225
f 225 272 273
f 225 273 268
f 226 267 227
f 227 267 229
f 229 267 269
f 229 269 274
f 229 274 232
f 230 272 235
f 230 233 272
f 232 274 273
f 232 273 233
f 233 273 272
f 235 275 237
f 235 237 236
f 235 271 276
f 235 276 277
f 235 277 278
f 235 278 275
f 237 275 278
f 237 278 238
f 238 278 240
f 239 279 280
f 239 280 241
f 239 240 279
f 240 278 281
f 240 281 279
f 241 280 282
f 241 282 283
f 241 283 284
f 241 284 242
f 243 285 286
f 243 286 244
f 244 286 287
f 244 287 246
f 245 246 288
f 245 288 247
f 246 289 288
f 246 287 289
f 247 288 289
f 247 289 290
f 247 290 291
f 247 291 292
f 247 292 248
f 248 293 294
f 248 294 295
f 248 295 296
f 248 296 249
f 248 292 293
f 249 297 250
f 249 296 297
f 250 297 257
f 250 257 251
f 251 257 256
f 254 257 297
f 254 297 259
f 259 298 261
f 259 261 260
f 259 297 298
f 261 298 299
f 261 299 300
f 261 300 301
f 261 301 262
f 262 301 263
f 263 302 264
f 263 301 303
f 263 303 304
f 263 304 302
f 264 302 270
f 264 270 265
f 268 273 274
f 268 274 269
f 270 302 276
f 270 276 271
f 276 304 305
f 276 305 277
f 276 302 304
f 277 305 306
f 277 306 278
f 278 307 308
f 278 308 309
f 278 309 281
f 278 306 307
f 279 281 310
f 279 310 311
f 279 311 312
f 279 312 313
f 279 313 280
f 280 313 314
f 280 314 315
f 280 315 282
f 281 309 316
f 281 316 317
f 281 317 311
f 281 311 310
f 285 318 319
f 285 319 286
f 286 319 287
f 287 319 320
f 287 320 289
f 289 320 321
f 289 321 291
f 289 291 290
f 291 321 322
f 291 322 323
f 291 323 324
f 291 324 292
f 292 324 293
f 293 324 323
f 293 323 294
f 294 323 295
f 295 323 325
f 295 325 326
f 295 326 296
f 296 326 327
f 296 327 297
f 297 327 299
f 297 299 298
f 299 327 300
f 300 327 326
f 300 326 325
f 300 325 323
f 300 323 301
f 301 323 322
f 301 322 303
f 303 305 304
f 303 322 308
f 303 308 328
f 303 328 307
f 303 307 305
f 305 307 306
f 307 328 308
f 308 321 329
f 308 329 330
f 308 330 316
f 308 316 309
f 308 322 321
f 311 317 330
f 311 330 329
f 311 329 331
f 311 331 312
f 312 331 332
f 312 332 313
f 313 332 319
f 313 319 333
f 313 333 314
f 314 333 334
f 314 334 335
f 314 335 315
f 316 330 317
f 318 336 319
f 319 332 320
f 319 336 337
f 319 337 333
f 320 332 329
f 320 329 321
f 329 332 331
f 333 337 338
f 333 338 339
f 333 339 334

