# https://github.com/mikedh/trimesh
v -0.05414531 -0.04515075 0.45948040
v -0.05304187 -0.05577977 0.45948040
v -0.05006260 -0.06016331 0.49065489
v -0.05010272 -0.04061825 0.49146160
v -0.05010272 -0.03977772 0.49146160
v -0.05394468 -0.04304409 0.45948040
v -0.04589963 -0.07259044 0.45948040
v -0.04814663 -0.06513204 0.48499888
v -0.04002133 -0.08002757 0.49011409
v -0.04166646 -0.07486732 0.49406797
v -0.04703316 -0.06409999 0.49439156
v -0.04896919 -0.05574785 0.49439156
v -0.04936041 -0.04437405 0.49487472
v -0.05310206 -0.03664966 0.45948040
v -0.04782563 -0.03587296 0.49487472
v -0.04509714 -0.01435956 0.45948040
v -0.04445514 -0.07519716 0.45948040
v -0.03716243 -0.07812306 0.49678072
v -0.04069342 -0.07145199 0.50034451
v -0.04332161 -0.07667607 0.45948040
v -0.03662074 -0.08394296 0.45948040
v -0.03536684 -0.08529420 0.45948040
v -0.03013054 -0.09009269 0.49037564
v -0.04223824 -0.06499372 0.50070357
v -0.04408398 -0.05499244 0.50107592
v -0.04457551 -0.04500179 0.50144380
v -0.04351220 -0.03500051 0.50181615
v -0.04172664 -0.02678669 0.50133300
v -0.04256926 -0.02521202 0.49499881
v -0.03658062 -0.00424125 0.45948040
v -0.03984077 -0.02021138 0.49499881
v -0.03049166 -0.08036803 0.50007415
v -0.03429350 -0.07486732 0.50044650
v -0.03499569 -0.03500051 0.50340748
v -0.03407281 -0.08654968 0.45948040
v -0.03013054 -0.09009269 0.48888183
v -0.02485411 -0.09342290 0.45948040
v -0.02580708 -0.09238021 0.48532689
v -0.01499341 -0.09668928 0.48499888
v -0.02499454 -0.09157160 0.49250329
v -0.03593862 -0.02407358 0.50252539
v -0.03323019 -0.01684925 0.50155908
v -0.02980954 -0.01017818 0.49869117
v -0.02479392 0.00382362 0.45948040
v -0.02499454 -0.08584746 0.49750325
v -0.01499341 -0.09360377 0.49448463
v -0.01557522 -0.08445366 0.49944472
v -0.02499454 -0.08084682 0.50010073
v -0.01499341 -0.01500858 0.50476384
v -0.02691051 -0.09211423 0.45948040
v -0.02118268 -0.09474222 0.45948040
v -0.01500344 -0.09684888 0.45948040
v -0.00032774 -0.10004076 0.49013183
v -0.02588733 -0.01411485 0.50284010
v -0.02314880 -0.00826304 0.50163001
v -0.01499341 -0.00384758 0.49499881
v -0.01499341 0.00657929 0.45948040
v -0.00418977 -0.09567851 0.49372223
v 0.01499998 -0.08499628 0.49907237
v -0.01929681 -0.08077234 0.50005645
v 0.03499223 -0.06499372 0.50087202
v 0.03499223 -0.04500179 0.50232589
v 0.00499884 -0.01500858 0.50459099
v 0.00499884 -0.00619894 0.50260073
v -0.00499227 -0.00607127 0.50263178
v -0.01499341 -0.00693308 0.50254756
v 0.03499223 -0.03500051 0.50299966
v -0.01016838 -0.09766813 0.45948040
v -0.00032774 -0.10004076 0.48945364
v 0.00023400 -0.10004076 0.49013183
v -0.00499227 -0.00195372 0.49499881
v -0.00505245 0.00786669 0.45948040
v 0.00414619 -0.09558275 0.49367791
v 0.01499998 -0.09308243 0.49422756
v 0.02573340 -0.08580490 0.49553961
v 0.04014828 -0.07031355 0.50010520
v 0.03499223 -0.07224997 0.50022930
v 0.04082037 -0.06499372 0.50039774
v 0.01499998 -0.01500858 0.50444913
v 0.01499998 -0.00739058 0.50226384
v 0.00499884 -0.00211331 0.49499881
v 0.04176331 -0.05499244 0.50082326
v 0.04221471 -0.04500179 0.50119114
v 0.04191378 -0.03500051 0.50140393
v 0.03530319 -0.02492475 0.50214416
v -0.00499227 -0.09807243 0.45948040
v -0.00123056 -0.09808307 0.45948040
v 0.00023400 -0.10004076 0.48945364
v 0.01499998 -0.09569979 0.48499888
v 0.02289456 -0.09147584 0.49268943
v 0.01451848 0.00849443 0.45948040
v 0.00500887 0.00864339 0.45948040
v 0.00429665 0.00862211 0.45948040
v 0.03261482 -0.08301730 0.49323907
v 0.04086050 -0.07185631 0.49499881
v 0.04338837 -0.06499372 0.49499881
v 0.04517393 -0.05499244 0.49499881
v 0.02529202 -0.01460428 0.50251210
v 0.02215225 -0.00869926 0.50129312
v 0.04559524 -0.04500179 0.49499881
v 0.04463224 -0.03500051 0.49499881
v 0.04100094 -0.02821241 0.50095183
v 0.03217345 -0.01765786 0.50143498
v 0.00506906 -0.09798731 0.45948040
v 0.01499998 -0.09556147 0.45948040
v 0.02383750 -0.09249724 0.45948040
v 0.02389768 -0.09196527 0.48499888
v 0.02890327 -0.08929471 0.48499888
v 0.01499998 0.00835612 0.45948040
v 0.03375838 -0.08429407 0.48499888
v 0.03876397 -0.07804859 0.48499888
v 0.04146237 -0.07304794 0.48499888
v 0.04509368 -0.06499372 0.48499888
v 0.04672877 -0.05499244 0.48499888
v 0.02844183 -0.01109319 0.49499881
v 0.02525190 0.00472799 0.45948040
v 0.02433906 0.00515358 0.45948040
v 0.04672877 -0.04500179 0.48499888
v 0.04549493 -0.03500051 0.48499888
v 0.04486296 -0.02694629 0.45948040
v 0.04169309 -0.02718036 0.49499881
v 0.03850316 -0.02217972 0.49499881
v 0.03349757 -0.01609383 0.49499881
v 0.03461104 -0.08475158 0.45948040
v 0.04352881 -0.07398424 0.45948040
v 0.04660839 -0.06499372 0.45948040
v 0.04813314 -0.05499244 0.45948040
v 0.04833376 -0.04500179 0.45948040
v 0.03488188 -0.00485834 0.45948040
v 0.04747108 -0.03727740 0.45948040
v 0.04711999 -0.03500051 0.45948040
v 0.04398021 -0.02477579 0.45948040
v 0.03539348 -0.00565632 0.45948040
f 1 2 3
f 1 3 4
f 1 4 5
f 1 5 6
f 1 6 14
f 1 14 16
f 1 16 30
f 1 30 44
f 1 44 57
f 1 57 72
f 1 72 93
f 1 93 92
f 1 92 91
f 1 91 109
f 1 109 117
f 1 117 116
f 1 116 129
f 1 129 133
f 1 133 132
f 1 132 120
f 1 120 131
f 1 131 130
f 1 130 128
f 1 128 127
f 1 127 126
f 1 126 125
f 1 125 124
f 1 124 106
f 1 106 105
f 1 105 104
f 1 104 87
f 1 87 86
f 1 86 68
f 1 68 52
f 1 52 51
f 1 51 37
f 1 37 50
f 1 50 35
f 1 35 22
f 1 22 21
f 1 21 20
f 1 20 17
f 1 17 7
f 1 7 2
f 2 7 3
f 3 7 8
f 3 8 9
f 3 9 10
f 3 10 11
f 3 11 12
f 3 12 13
f 3 13 4
f 4 13 5
f 5 14 6
f 5 13 15
f 5 15 16
f 5 16 14
f 7 17 9
f 7 9 8
f 9 18 19
f 9 19 10
f 9 17 20
f 9 20 21
f 9 21 22
f 9 22 23
f 9 23 18
f 10 19 11
f 11 19 24
f 11 24 12
f 12 24 25
f 12 25 26
f 12 26 13
f 13 27 15
f 13 26 27
f 15 27 28
f 15 28 29
f 15 29 16
f 16 29 31
f 16 31 30
f 18 23 32
f 18 32 19
f 19 32 33
f 19 33 34
f 19 34 24
f 22 35 23
f 23 36 37
f 23 37 38
f 23 38 39
f 23 39 40
f 23 40 32
f 23 35 36
f 24 34 25
f 25 34 26
f 26 34 27
f 27 34 41
f 27 41 28
f 28 41 42
f 28 42 43
f 28 43 31
f 28 31 29
f 30 31 43
f 30 43 44
f 32 40 45
f 32 45 46
f 32 46 47
f 32 47 48
f 32 48 33
f 33 48 34
f 34 49 41
f 34 48 49
f 35 50 36
f 36 50 37
f 37 51 39
f 37 39 38
f 39 52 53
f 39 53 40
f 39 51 52
f 40 53 46
f 40 46 45
f 41 49 54
f 41 54 42
f 42 54 55
f 42 55 43
f 43 55 44
f 44 56 57
f 44 55 56
f 46 53 58
f 46 58 47
f 47 59 48
f 47 58 59
f 48 59 60
f 48 60 61
f 48 61 62
f 48 62 49
f 49 63 64
f 49 64 65
f 49 65 66
f 49 66 54
f 49 62 67
f 49 67 63
f 52 68 69
f 52 69 53
f 53 69 88
f 53 88 70
f 53 70 58
f 54 66 55
f 55 66 56
f 56 71 57
f 56 66 71
f 57 71 72
f 58 70 73
f 58 73 59
f 59 73 74
f 59 74 75
f 59 75 76
f 59 76 77
f 59 77 60
f 60 77 61
f 61 77 76
f 61 76 62
f 62 76 78
f 62 78 67
f 63 79 64
f 63 67 79
f 64 79 80
f 64 80 81
f 64 81 71
f 64 71 65
f 65 71 66
f 67 78 82
f 67 82 83
f 67 83 84
f 67 84 85
f 67 85 79
f 68 86 69
f 69 86 87
f 69 87 88
f 70 88 89
f 70 89 90
f 70 90 74
f 70 74 73
f 71 81 91
f 71 91 92
f 71 92 93
f 71 93 72
f 74 90 75
f 75 90 76
f 76 90 94
f 76 94 95
f 76 95 96
f 76 96 97
f 76 97 78
f 78 97 82
f 79 98 80
f 79 85 98
f 80 98 99
f 80 99 81
f 81 99 91
f 82 97 83
f 83 100 84
f 83 97 100
f 84 100 101
f 84 101 102
f 84 102 85
f 85 102 103
f 85 103 98
f 87 104 88
f 88 104 105
f 88 105 89
f 89 105 106
f 89 106 107
f 89 107 90
f 90 107 108
f 90 108 94
f 91 99 109
f 94 108 110
f 94 110 111
f 94 111 95
f 95 112 113
f 95 113 96
f 95 111 112
f 96 113 97
f 97 113 114
f 97 114 100
f 98 103 99
f 99 103 115
f 99 115 116
f 99 116 117
f 99 117 109
f 100 114 118
f 100 118 101
f 101 118 119
f 101 119 120
f 101 120 121
f 101 121 102
f 102 121 122
f 102 122 103
f 103 122 123
f 103 123 115
f 106 108 107
f 106 124 108
f 108 124 110
f 110 124 125
f 110 125 111
f 111 125 112
f 112 125 113
f 113 125 126
f 113 126 114
f 114 126 127
f 114 127 128
f 114 128 118
f 115 123 116
f 116 123 129
f 118 128 130
f 118 130 119
f 119 130 131
f 119 131 120
f 120 132 121
f 121 132 133
f 121 133 122
f 122 133 129
f 122 129 123

