# https://github.com/mikedh/trimesh
v 0.15658107 0.02498493 0.26203859
v 0.15615183 0.02795204 0.26203859
v 0.15658107 -0.02498495 0.26203859
v 0.15658107 0.02498493 -0.07060277
v 0.15507872 0.03499304 0.26203859
v 0.15575325 0.03058947 -0.07060277
v 0.15501741 -0.03499305 0.26203859
v 0.15590656 -0.02938851 -0.07060277
v 0.15658107 -0.02498495 -0.07060277
v 0.15409760 0.03730079 0.26203859
v 0.15507872 0.03499304 -0.07060277
v 0.15268724 -0.04033856 0.26203859
v 0.15357639 -0.03833694 -0.07060277
v 0.15501741 -0.03499305 -0.07060277
v 0.15176743 0.04276404 0.26203859
v 0.15176743 0.04276404 -0.07060277
v 0.15170611 -0.04257566 0.26203859
v 0.15170611 -0.04257566 -0.07060277
v 0.14857879 0.04777986 0.26203859
v 0.14857879 0.04777986 -0.07060277
v 0.15072499 -0.04405922 0.26203859
v 0.14621796 -0.05084118 -0.07060277
v 0.13815436 0.06414606 0.26203859
v 0.13441382 0.07000963 -0.07060277
v 0.14106707 -0.05856508 0.26203859
v 0.13171574 -0.07259998 -0.07060277
v 0.13171574 -0.07259998 0.26203859
v 0.13220631 0.07347126 0.26203859
v 0.13220631 0.07347126 -0.07060277
v 0.12837379 -0.07759225 -0.07060277
v 0.12837379 -0.07759225 0.26203859
v 0.12901765 0.07846353 0.25497288
v 0.12892567 0.07846353 0.26203859
v 0.12901765 0.07846353 -0.07060277
v 0.12619692 -0.08065356 -0.07060277
v 0.12484788 -0.08251389 0.26203859
v 0.12337620 -0.08458616 0.25497288
v 0.12398940 0.08399743 0.25497288
v 0.12745398 0.08011193 0.26203859
v 0.12619692 0.08157194 -0.07060277
v 0.12337620 -0.08458616 -0.07060277
v 0.12337620 -0.08456261 0.26203859
v 0.11951303 -0.08957843 0.26203859
v 0.12122999 -0.08738843 -0.07060277
v 0.11850125 0.08901326 0.25497288
v 0.12012623 0.08745906 0.26203859
v 0.12392808 0.08392678 0.26203859
v 0.12398940 0.08399743 -0.07060277
v 0.12159791 0.08621099 -0.07060277
v 0.11598711 -0.09190974 0.26203859
v 0.11730550 -0.09103844 -0.07060277
v 0.11951303 -0.08957843 -0.07060277
v 0.08848502 0.10900591 0.25497288
v 0.09498496 0.10467300 0.26203859
v 0.10099433 0.10066976 0.26203859
v 0.11350365 0.09233359 0.26203859
v 0.11850125 0.08894261 0.26203859
v 0.11850125 0.08901326 -0.07060277
v 0.11571117 0.09087358 -0.07060277
v 0.10320186 0.09920975 -0.07060277
v 0.11451543 -0.09287522 0.26203859
v 0.11451543 -0.09287522 -0.07060277
v 0.08348742 0.11232625 0.26203859
v 0.09835757 0.10243589 -0.07060277
v 0.09213357 0.10658042 -0.07060277
v 0.08569495 0.11086625 -0.07060277
v 0.10166886 -0.10107009 0.26203859
v 0.11013104 -0.09567749 -0.07060277
v 0.07530118 0.11731853 0.26203859
v 0.08348742 0.11232625 -0.07060277
v 0.07990019 0.11451626 -0.07060277
v 0.08382468 -0.11242046 0.26203859
v 0.08661475 -0.11065432 -0.07060277
v 0.10166886 -0.10107009 -0.07060277
v 0.07379884 0.11816628 0.26203859
v 0.07530118 0.11731853 -0.07060277
v 0.07530118 -0.11743629 0.26203859
v 0.08382468 -0.11242046 -0.07060277
v 0.07027292 0.12012080 0.26203859
v 0.07248045 0.11889628 -0.07060277
v 0.07027292 0.12012080 -0.07060277
v 0.07030358 -0.12012082 0.26203859
v 0.07530118 -0.11743629 -0.07060277
v 0.06656305 0.12023854 0.26203859
v 0.06794275 0.12019145 -0.07060277
v 0.06870926 -0.12016791 0.26203859
v 0.06732956 -0.12021501 -0.07060277
v 0.07030358 -0.12012082 -0.07060277
v 0.06499939 0.12026209 0.26203859
v 0.06499939 0.12026209 -0.07060277
v 0.06499939 -0.12026211 0.26203859
v 0.06499939 -0.12026211 -0.07060277
v -0.06499939 0.12026209 0.26203859
v 0.05497354 0.12028564 -0.03498124
v 0.05497354 0.12028564 -0.07060277
v 0.05497354 -0.12028565 0.26203859
v -0.06499939 -0.12026211 -0.07060277
v 0.05497354 -0.12028565 0.22498438
v -0.06870926 0.12016790 0.26203859
v -0.06499939 0.12026209 -0.07060277
v -0.06732956 0.12021499 -0.07060277
v -0.05497354 -0.12028565 0.26203859
v -0.06794275 -0.12019146 -0.07060277
v -0.05497354 -0.12028565 0.22498438
v -0.06499939 -0.12026211 0.26203859
v -0.06656305 -0.12023856 0.26203859
v -0.07030358 0.12012080 0.26203859
v -0.07030358 0.12012080 -0.07060277
v -0.07027292 -0.12012082 -0.07060277
v -0.07027292 -0.12012082 0.26203859
v -0.07530118 0.11743627 0.26203859
v -0.07530118 0.11743627 -0.07060277
v -0.07248045 -0.11889629 -0.07060277
v -0.07379884 -0.11816629 0.26203859
v -0.08382468 0.11242045 0.26203859
v -0.08382468 0.11242045 -0.07060277
v -0.07530118 -0.11731855 -0.07060277
v -0.07530118 -0.11731855 0.26203859
v -0.10166886 0.10107008 0.26203859
v -0.08661475 0.11065431 -0.07060277
v -0.07990019 -0.11451627 -0.07060277
v -0.08348742 -0.11232626 0.26203859
v -0.11451543 0.09287520 0.26203859
v -0.10166886 0.10107008 -0.07060277
v -0.11013104 0.09567747 -0.07060277
v -0.08348742 -0.11232626 -0.07060277
v -0.09498496 -0.10467301 0.26203859
v -0.08848502 -0.10900593 0.25497288
v -0.08569495 -0.11086626 -0.07060277
v -0.11598711 0.09190972 0.26203859
v -0.11451543 0.09287520 -0.07060277
v -0.10099433 -0.10066977 0.26203859
v -0.11850125 -0.08901327 0.25497288
v -0.10320186 -0.09920976 -0.07060277
v -0.09835757 -0.10243590 -0.07060277
v -0.09213357 -0.10658044 -0.07060277
v -0.11951303 0.08957842 0.26203859
v -0.11730550 0.09103843 -0.07060277
v -0.11350365 -0.09233361 0.26203859
v -0.11850125 -0.08894262 0.26203859
v -0.12012623 -0.08745907 0.26203859
v -0.12398940 -0.08399744 0.25497288
v -0.12159791 -0.08621100 -0.07060277
v -0.11850125 -0.08901327 -0.07060277
v -0.11571117 -0.09087360 -0.07060277
v -0.12337620 0.08458614 0.25497288
v -0.12337620 0.08456259 0.26203859
v -0.11951303 0.08957842 -0.07060277
v -0.12122999 0.08738841 -0.07060277
v -0.12392808 -0.08392680 0.26203859
v -0.12745398 -0.08011194 0.26203859
v -0.12901765 -0.07846355 0.25497288
v -0.12619692 -0.08157195 -0.07060277
v -0.12398940 -0.08399744 -0.07060277
v -0.12837379 0.07759224 0.26203859
v -0.12484788 0.08251388 0.26203859
v -0.12337620 0.08458614 -0.07060277
v -0.12619692 0.08065354 -0.07060277
v -0.12892567 -0.07846355 0.26203859
v -0.13220631 -0.07347127 0.26203859
v -0.12901765 -0.07846355 -0.07060277
v -0.13171574 0.07259996 0.26203859
v -0.12837379 0.07759224 -0.07060277
v -0.13815436 -0.06414607 0.26203859
v -0.13220631 -0.07347127 -0.07060277
v -0.14106707 0.05856507 0.26203859
v -0.13171574 0.07259996 -0.07060277
v -0.14621796 0.05084116 -0.07060277
v -0.14857879 -0.04777988 0.26203859
v -0.14857879 -0.04777988 -0.07060277
v -0.13441382 -0.07000964 -0.07060277
v -0.15072499 0.04405920 0.26203859
v -0.15170611 0.04257565 -0.07060277
v -0.15176743 -0.04276405 0.26203859
v -0.15176743 -0.04276405 -0.07060277
v -0.15170611 0.04257565 0.26203859
v -0.15357639 0.03833692 -0.07060277
v -0.15409760 -0.03730080 0.26203859
v -0.15507872 -0.03499305 -0.07060277
v -0.15268724 0.04033854 0.26203859
v -0.15501741 0.03499304 -0.07060277
v -0.15501741 0.03499304 0.26203859
v -0.15507872 -0.03499305 0.26203859
v -0.15575325 -0.03058949 -0.07060277
v -0.15590656 0.02938850 -0.07060277
v -0.15658107 0.02498493 0.26203859
v -0.15615183 -0.02795206 0.26203859
v -0.15658107 -0.02498495 -0.07060277
v -0.15658107 0.02498493 -0.07060277
v -0.15658107 -0.02498495 0.26203859
f 1 2 5
f 1 5 10
f 1 10 15
f 1 15 19
f 1 19 23
f 1 23 28
f 1 28 33
f 1 33 39
f 1 39 47
f 1 47 46
f 1 46 57
f 1 57 56
f 1 56 55
f 1 55 54
f 1 54 63
f 1 63 69
f 1 69 75
f 1 75 79
f 1 79 84
f 1 84 89
f 1 89 93
f 1 93 99
f 1 99 107
f 1 107 111
f 1 111 115
f 1 115 119
f 1 119 123
f 1 123 130
f 1 130 137
f 1 137 147
f 1 147 156
f 1 156 155
f 1 155 162
f 1 162 166
f 1 166 172
f 1 172 176
f 1 176 180
f 1 180 182
f 1 182 186
f 1 186 190
f 1 190 187
f 1 187 183
f 1 183 178
f 1 178 174
f 1 174 169
f 1 169 164
f 1 164 160
f 1 160 159
f 1 159 151
f 1 151 150
f 1 150 141
f 1 141 140
f 1 140 139
f 1 139 132
f 1 132 127
f 1 127 122
f 1 122 118
f 1 118 114
f 1 114 110
f 1 110 106
f 1 106 105
f 1 105 102
f 1 102 96
f 1 96 91
f 1 91 86
f 1 86 82
f 1 82 77
f 1 77 72
f 1 72 67
f 1 67 61
f 1 61 50
f 1 50 43
f 1 43 42
f 1 42 36
f 1 36 31
f 1 31 27
f 1 27 25
f 1 25 21
f 1 21 17
f 1 17 12
f 1 12 7
f 1 7 3
f 1 3 9
f 1 9 4
f 1 4 2
f 2 4 6
f 2 6 5
f 3 7 8
f 3 8 9
f 4 9 8
f 4 8 14
f 4 14 13
f 4 13 18
f 4 18 22
f 4 22 26
f 4 26 30
f 4 30 35
f 4 35 41
f 4 41 44
f 4 44 52
f 4 52 51
f 4 51 62
f 4 62 68
f 4 68 74
f 4 74 73
f 4 73 78
f 4 78 83
f 4 83 88
f 4 88 87
f 4 87 92
f 4 92 97
f 4 97 103
f 4 103 109
f 4 109 113
f 4 113 117
f 4 117 121
f 4 121 126
f 4 126 129
f 4 129 136
f 4 136 135
f 4 135 134
f 4 134 145
f 4 145 144
f 4 144 143
f 4 143 154
f 4 154 153
f 4 153 161
f 4 161 165
f 4 165 171
f 4 171 170
f 4 170 175
f 4 175 179
f 4 179 184
f 4 184 188
f 4 188 189
f 4 189 185
f 4 185 181
f 4 181 177
f 4 177 173
f 4 173 168
f 4 168 167
f 4 167 163
f 4 163 158
f 4 158 157
f 4 157 149
f 4 149 148
f 4 148 138
f 4 138 131
f 4 131 125
f 4 125 124
f 4 124 120
f 4 120 116
f 4 116 112
f 4 112 108
f 4 108 101
f 4 101 100
f 4 100 95
f 4 95 90
f 4 90 85
f 4 85 81
f 4 81 80
f 4 80 76
f 4 76 71
f 4 71 70
f 4 70 66
f 4 66 65
f 4 65 64
f 4 64 60
f 4 60 59
f 4 59 58
f 4 58 49
f 4 49 48
f 4 48 40
f 4 40 34
f 4 34 29
f 4 29 24
f 4 24 20
f 4 20 16
f 4 16 11
f 4 11 6
f 5 6 11
f 5 11 10
f 7 12 13
f 7 13 14
f 7 14 8
f 10 11 16
f 10 16 15
f 12 17 13
f 13 17 18
f 15 16 20
f 15 20 19
f 17 21 18
f 18 21 22
f 19 20 23
f 20 24 23
f 21 25 22
f 22 25 27
f 22 27 26
f 23 24 29
f 23 29 28
f 26 27 31
f 26 31 30
f 28 32 33
f 28 29 34
f 28 34 32
f 30 31 35
f 31 36 37
f 31 37 35
f 32 38 39
f 32 39 33
f 32 34 40
f 32 40 38
f 35 37 41
f 36 42 37
f 37 42 43
f 37 43 44
f 37 44 41
f 38 45 46
f 38 46 47
f 38 47 39
f 38 40 48
f 38 48 49
f 38 49 45
f 43 50 51
f 43 51 52
f 43 52 44
f 45 53 54
f 45 54 55
f 45 55 56
f 45 56 57
f 45 57 46
f 45 49 58
f 45 58 59
f 45 59 60
f 45 60 53
f 50 61 62
f 50 62 51
f 53 63 54
f 53 60 64
f 53 64 65
f 53 65 66
f 53 66 63
f 61 67 68
f 61 68 62
f 63 66 70
f 63 70 71
f 63 71 69
f 67 72 73
f 67 73 74
f 67 74 68
f 69 71 76
f 69 76 75
f 72 77 83
f 72 83 78
f 72 78 73
f 75 76 80
f 75 80 81
f 75 81 79
f 77 82 88
f 77 88 83
f 79 81 84
f 81 85 84
f 82 86 87
f 82 87 88
f 84 85 90
f 84 90 89
f 86 91 87
f 87 91 92
f 89 90 95
f 89 95 94
f 89 94 93
f 91 96 98
f 91 98 92
f 92 98 104
f 92 104 97
f 93 94 95
f 93 95 100
f 93 100 101
f 93 101 99
f 96 102 104
f 96 104 98
f 97 104 102
f 97 102 105
f 97 105 106
f 97 106 103
f 99 101 107
f 101 108 107
f 103 106 109
f 106 110 109
f 107 108 112
f 107 112 111
f 109 110 114
f 109 114 113
f 111 112 116
f 111 116 115
f 113 114 117
f 114 118 117
f 115 116 120
f 115 120 119
f 117 118 121
f 118 122 121
f 119 120 124
f 119 124 125
f 119 125 123
f 121 122 126
f 122 127 128
f 122 128 129
f 122 129 126
f 123 125 131
f 123 131 130
f 127 132 133
f 127 133 128
f 128 133 134
f 128 134 135
f 128 135 136
f 128 136 129
f 130 131 138
f 130 138 137
f 132 139 133
f 133 139 140
f 133 140 141
f 133 141 142
f 133 142 143
f 133 143 144
f 133 144 145
f 133 145 134
f 137 146 147
f 137 138 148
f 137 148 149
f 137 149 146
f 141 150 142
f 142 150 151
f 142 151 152
f 142 152 153
f 142 153 154
f 142 154 143
f 146 155 156
f 146 156 147
f 146 149 157
f 146 157 158
f 146 158 155
f 151 159 152
f 152 159 160
f 152 160 165
f 152 165 161
f 152 161 153
f 155 158 163
f 155 163 167
f 155 167 162
f 160 164 165
f 162 167 168
f 162 168 166
f 164 169 170
f 164 170 171
f 164 171 165
f 166 168 172
f 168 173 172
f 169 174 175
f 169 175 170
f 172 173 176
f 173 177 176
f 174 178 175
f 175 178 179
f 176 177 180
f 177 181 182
f 177 182 180
f 178 183 179
f 179 183 184
f 181 185 182
f 182 185 186
f 183 187 184
f 184 187 188
f 185 189 186
f 186 189 188
f 186 188 190
f 187 190 188

