# https://github.com/mikedh/trimesh
v 0.05497354 0.12028562 0.27500683
v 0.06499939 0.12012076 0.28169388
v 0.06499939 0.12026206 0.27500683
v 0.05497354 0.12028562 0.26203859
v -0.05497354 0.12028562 0.27500683
v 0.06499939 0.11969690 0.28669947
v 0.07499458 0.11722431 0.31501314
v 0.11497533 0.10841718 0.41499028
v 0.10498014 0.11103106 0.38499522
v 0.07018095 0.12007368 0.28113338
v -0.06499939 0.12012076 0.28169388
v 0.06656305 0.12023851 0.26203859
v 0.06499939 0.12026206 0.26203859
v 0.07030358 0.12012076 0.27500683
v -0.05497354 0.12028562 0.26203859
v -0.06499939 0.12026206 0.27500683
v 0.06499939 0.11899044 0.29500997
v -0.06499939 0.11969690 0.28669947
v 0.10498014 0.10987718 0.39860123
v 0.11497533 0.10667460 0.43499345
v 0.12497052 0.10655685 0.43499345
v 0.11068292 0.11020686 0.39239734
v 0.11114282 0.11048944 0.38499522
v -0.07018095 0.12007368 0.28113338
v -0.10498014 0.11103106 0.38499522
v -0.11497533 0.10841718 0.41499028
v -0.07499458 0.11722431 0.31501314
v 0.07027292 0.12012076 0.26203859
v -0.06499939 0.12026206 0.26203859
v -0.06870926 0.12016787 0.26203859
v -0.07030358 0.12012076 0.27500683
v 0.08498976 0.11371559 0.35500014
v -0.06499939 0.11899044 0.29500997
v 0.12497052 0.10309522 0.44378710
v -0.11497533 0.10667460 0.43499345
v 0.12497052 0.10681587 0.42498219
v 0.13294214 0.10205908 0.44251156
v 0.13422987 0.10321297 0.43499345
v 0.11074424 0.11039525 0.37498397
v -0.11117348 0.11048944 0.38499522
v -0.11068292 0.11020686 0.39239734
v -0.12497052 0.10655685 0.43499345
v -0.10498014 0.10987718 0.39860123
v 0.07379884 0.11816625 0.26203859
v -0.07030358 0.12012076 0.26203859
v -0.08498976 0.11371559 0.35500014
v 0.12497052 0.09499454 0.44792300
v -0.12497052 0.10309522 0.44378710
v 0.12497052 0.10655685 0.41499028
v 0.13450581 0.09499454 0.44396105
v 0.13922746 0.09435874 0.43460691
v 0.13361667 0.10304813 0.42498219
v 0.13861427 0.09633681 0.42498219
v 0.12497052 0.10587394 0.40499836
v -0.11077490 0.11041880 0.37498397
v -0.12497052 0.10683943 0.42498219
v -0.13422987 0.10321297 0.43499345
v -0.13294214 0.10205908 0.44251156
v 0.07530118 0.11731850 0.26203859
v -0.07530118 0.11743625 0.26203859
v 0.00499759 0.00864227 0.45948040
v 0.01450222 0.00847743 0.45948040
v 0.01499278 0.00835969 0.45948040
v 0.02431345 0.00513355 0.45948040
v 0.12497052 0.00499226 0.45598227
v 0.13594684 0.00426226 0.45240682
v 0.14014727 0.01040841 0.45014560
v -0.12497052 0.09499454 0.44792300
v 0.13959539 0.08498643 0.43669420
v 0.14008595 0.09061453 0.43099281
v 0.14042321 0.09132098 0.42498219
v 0.14072980 0.09150937 0.41499028
v 0.13269687 0.10234167 0.41499028
v 0.13769446 0.09652519 0.41499028
v 0.12497052 0.10455522 0.39498714
v -0.12497052 0.10599168 0.40499836
v -0.12497052 0.10660395 0.41499028
v -0.13361667 0.10307167 0.42498219
v -0.13861427 0.09631325 0.42498219
v -0.13922746 0.09435874 0.43458760
v -0.13450581 0.09499454 0.44396105
v 0.08348742 0.11232622 0.26203859
v -0.08382468 0.11242042 0.26203859
v -0.12497052 0.10476716 0.39498714
v 0.00429241 0.00861872 0.45948040
v 0.02523325 0.00473323 0.45948040
v 0.13036670 -0.07163449 0.45012626
v 0.13101056 -0.06499381 0.45037752
v 0.13189970 -0.05498572 0.45076406
v 0.13266620 -0.04497761 0.45115060
v 0.13327940 -0.03499306 0.45153713
v 0.13383129 -0.02498495 0.45190433
v 0.13429119 -0.01497685 0.45223290
v 0.13472043 -0.00499230 0.45256144
v 0.03486052 -0.00485101 0.45948040
v 0.03538174 -0.00565165 0.45948040
v 0.04396657 -0.02474947 0.45948040
v 0.04485571 -0.02691593 0.45948040
v 0.04712456 -0.03499306 0.45948040
v 0.04746182 -0.03725371 0.45948040
v 0.04832030 -0.04497761 0.45948040
v 0.04813634 -0.05498572 0.45948040
v 0.04660333 -0.06499381 0.45948040
v 0.04350667 -0.07398933 0.45948040
v 0.13993265 0.00044740 0.44995233
v 0.14014727 0.00711162 0.45014560
v 0.14207885 0.00426226 0.44597101
v -0.14008595 0.01024357 0.45008761
v -0.13591617 0.00489806 0.45213625
v -0.12497052 0.00499226 0.45575035
v -0.11497533 0.00499226 0.45634949
v -0.02477335 0.00381483 0.45948040
v -0.01499278 0.00657001 0.45948040
v -0.00505891 0.00786517 0.45948040
v 0.14554344 0.00499226 0.43499345
v 0.15008113 0.01040841 0.39108312
v 0.15372968 0.00499226 0.35500014
v 0.14955992 0.05477374 0.34423515
v 0.15480278 0.03499302 0.29500997
v 0.15241130 0.04497758 0.31501314
v 0.15084764 0.05241890 0.32500505
v 0.14039254 0.09070872 0.40499836
v 0.15100093 0.05190083 0.31501314
v 0.15507872 0.03499302 0.26203859
v 0.15409760 0.03730077 0.26203859
v 0.15176743 0.04276402 0.26203859
v 0.12892567 0.07846351 0.26203859
v 0.12745398 0.08011191 0.26203859
v 0.12392808 0.08392675 0.26203859
v 0.12012623 0.08745903 0.26203859
v 0.11850125 0.08894259 0.26203859
v 0.11350365 0.09233357 0.26203859
v 0.10099433 0.10066973 0.26203859
v 0.09498496 0.10467297 0.26203859
v -0.13269687 0.10238877 0.41499028
v -0.13769446 0.09647810 0.41499028
v -0.14072980 0.09148581 0.41499028
v -0.14008595 0.09061453 0.43099281
v -0.13959539 0.08498643 0.43667486
v -0.14042321 0.09129743 0.42498219
v -0.10166886 0.10107005 0.26203859
v -0.11451543 0.09287518 0.26203859
v -0.11598711 0.09190969 0.26203859
v -0.11951303 0.08957839 0.26203859
v -0.13088793 0.10078748 0.39498714
v 0.12497052 -0.09499457 0.44821292
v 0.13465911 -0.09499457 0.44409633
v 0.13689730 -0.05498572 0.44705331
v 0.13766380 -0.04497761 0.44763312
v 0.03458458 -0.08475100 0.45948040
v 0.13827699 -0.03499306 0.44819361
v 0.13882889 -0.02498495 0.44871542
v 0.13928878 -0.01497685 0.44921792
v 0.13971803 -0.00499230 0.44970107
v 0.14011660 -0.08220775 0.44030830
v 0.14057651 -0.06499381 0.44142926
v 0.14085245 -0.05498572 0.44204772
v 0.14112839 -0.04497761 0.44262749
v 0.14140433 -0.03499306 0.44318798
v 0.14220150 -0.00499230 0.44469547
v -0.14008595 0.00817130 0.45008761
v -0.14204820 0.00489806 0.44591305
v -0.13410723 -0.01497685 0.45202029
v -0.13456713 -0.00499230 0.45231020
v -0.13312611 -0.03499306 0.45144048
v -0.13257423 -0.04497761 0.45113125
v -0.13186905 -0.05498572 0.45076406
v -0.13101056 -0.06499381 0.45037752
v -0.13036670 -0.07175224 0.45012626
v -0.04445713 -0.07519031 0.45948040
v -0.04589815 -0.07257643 0.45948040
v -0.05304195 -0.05578636 0.45948040
v -0.05411506 -0.04514245 0.45948040
v -0.05393109 -0.04302309 0.45948040
v -0.05310327 -0.03661790 0.45948040
v -0.04510099 -0.01434104 0.45948040
v -0.03657749 -0.00421520 0.45948040
v 0.13993265 -0.08887197 0.43945792
v 0.14391845 -0.02498495 0.43499345
v 0.14673918 -0.01497685 0.41499028
v 0.15035707 -0.01497685 0.38315916
v 0.15241130 -0.01497685 0.36499205
v 0.15351507 -0.01497685 0.35500014
v 0.15008113 -0.00228422 0.39100581
v 0.14962123 0.00499226 0.39657190
v 0.15014246 0.00499226 0.39156631
v 0.15372968 -0.00499230 0.35500014
v 0.15434289 0.00499226 0.34500822
v 0.15605985 0.02498492 0.28501806
v 0.15658107 0.02498492 0.27500683
v 0.15510939 0.03499302 0.28501806
v 0.14857879 0.04777984 0.26203859
v 0.13815436 0.06414604 0.26203859
v 0.13220631 0.07347123 0.26203859
v 0.15615183 0.02795202 0.26203859
v -0.12337620 0.08456257 0.26203859
v -0.12484788 0.08251385 0.26203859
v -0.12837379 0.07759222 0.26203859
v -0.14036189 0.09063807 0.40499836
v -0.15170611 0.04257563 0.26203859
v -0.15268724 0.04033852 0.26203859
v -0.15501741 0.03499302 0.26203859
v -0.15097028 0.05183018 0.31501314
v -0.15084764 0.05234825 0.32500505
v -0.14955992 0.05477374 0.34423515
v -0.15372968 0.00499226 0.35500014
v -0.15008113 0.01040841 0.39108312
v -0.14554344 0.00499226 0.43499345
v -0.15241130 0.04497758 0.31501314
v -0.15480278 0.03499302 0.29500997
v 0.12497052 -0.10309526 0.44380644
v 0.13294214 -0.10205913 0.44253087
v 0.02382289 -0.09249844 0.45948040
v 0.01499278 -0.09555975 0.45948040
v 0.00505891 -0.09798524 0.45948040
v -0.13984066 0.00150708 0.44985569
v -0.14140433 -0.03499306 0.44311067
v -0.14220150 -0.00499230 0.44456017
v -0.14192554 -0.01497685 0.44411567
v -0.13956472 -0.00499230 0.44956580
v -0.13910483 -0.01497685 0.44910195
v -0.13861427 -0.02498495 0.44861877
v -0.13812371 -0.03499306 0.44811630
v -0.13757181 -0.04497761 0.44757515
v -0.13686663 -0.05498572 0.44701466
v -0.13465911 -0.09499457 0.44411567
v -0.12497052 -0.09499457 0.44830954
v -0.04332270 -0.07667387 0.45948040
v 0.13935010 -0.09480619 0.43566987
v 0.14030057 -0.09134457 0.43279019
v 0.14161895 -0.08498648 0.42498219
v 0.15014246 -0.04040921 0.37135053
v 0.15035707 -0.03499306 0.37330255
v 0.15185942 -0.02498495 0.36499205
v 0.14995849 -0.02941207 0.37971902
v 0.14456232 -0.05498572 0.41499028
v 0.14342789 -0.05498572 0.42498219
v 0.14174159 -0.06499381 0.43499345
v 0.15434289 -0.00499230 0.34500822
v 0.15271790 -0.00499230 0.36499205
v 0.15480278 -0.03499306 0.29500997
v 0.15658107 -0.02498495 0.27500683
v 0.15658107 0.02498492 0.26203859
v -0.13171574 0.07259995 0.26203859
v -0.14106707 0.05856505 0.26203859
v -0.15072499 0.04405918 0.26203859
v -0.15658107 0.02498492 0.26203859
v -0.15507872 0.03499302 0.28501806
v -0.15428157 0.00499226 0.34500822
v -0.15431222 -0.00499230 0.34500822
v -0.15372968 -0.00499230 0.35500014
v -0.15078631 0.00499226 0.38499522
v -0.15014246 0.00499226 0.39154696
v -0.14962123 0.00499226 0.39655259
v -0.15008113 -0.00226067 0.39098650
v -0.15241130 -0.01497685 0.36499205
v -0.15035707 -0.01497685 0.38313985
v -0.14673918 -0.01497685 0.41499028
v -0.14391845 -0.02498495 0.43499345
v -0.13993265 -0.08887197 0.43945792
v -0.14011660 -0.08220775 0.44028896
v -0.14057651 -0.06499381 0.44140992
v -0.14085245 -0.05498572 0.44200903
v -0.14112839 -0.04497761 0.44256952
v -0.15658107 0.02498492 0.27500683
v -0.15605985 0.02498492 0.28501806
v 0.11497533 -0.10667463 0.43499345
v 0.12497052 -0.10655688 0.43499345
v -0.00119574 -0.09807943 0.45948040
v 0.13422987 -0.10321300 0.43499345
v -0.13294214 -0.10205913 0.44255018
v -0.12497052 -0.10309526 0.44384509
v -0.01499278 -0.09683137 0.45948040
v -0.02118612 -0.09473555 0.45948040
v -0.02483467 -0.09341684 0.45948040
v -0.02688890 -0.09212166 0.45948040
v -0.03406336 -0.08654068 0.45948040
v -0.03535108 -0.08529261 0.45948040
v -0.03660814 -0.08395034 0.45948040
v 0.13861427 -0.09685491 0.42498219
v 0.14057651 -0.09186263 0.42498219
v 0.15084764 -0.05234829 0.32500505
v 0.15507872 -0.03499306 0.28501806
v 0.15658107 -0.02498495 0.26203859
v -0.15658107 -0.02498495 0.26203859
v -0.15658107 -0.02498495 0.27500683
v -0.15348440 -0.01497685 0.35500014
v -0.15271790 -0.00499230 0.36499205
v -0.15185942 -0.02498495 0.36499205
v -0.14995849 -0.02938852 0.37969968
v -0.15014246 -0.02272430 0.38130382
v -0.14456232 -0.05498572 0.41499028
v -0.14174159 -0.06499381 0.43499345
v -0.13935010 -0.09480619 0.43566987
v -0.15035707 -0.03499306 0.37326390
v -0.14161895 -0.08498648 0.42498219
v -0.14030057 -0.09136811 0.43279019
v 0.08498976 -0.11371562 0.35500014
v 0.10498014 -0.10987721 0.39860123
v 0.11497533 -0.10841721 0.41499028
v -0.00499759 -0.10361332 0.44498536
v -0.11497533 -0.10667463 0.43499345
v 0.12497052 -0.10683946 0.42498219
v 0.10498014 -0.11103110 0.38499522
v 0.07018095 -0.12007371 0.28113338
v 0.11068292 -0.11020690 0.39239734
v 0.11117348 -0.11048947 0.38499522
v -0.00499759 -0.09805588 0.45948040
v 0.13361667 -0.10307170 0.42498219
v 0.12497052 -0.10660398 0.41499028
v -0.12497052 -0.10655688 0.43499345
v -0.13422987 -0.10321300 0.43499345
v -0.01014849 -0.09765556 0.45948040
v 0.14072980 -0.09148586 0.41499028
v 0.13769446 -0.09647813 0.41499028
v 0.14036189 -0.09063812 0.40499836
v 0.15097028 -0.05183022 0.31501314
v 0.15501741 -0.03499306 0.26203859
v -0.15615183 -0.02795206 0.26203859
v -0.15510939 -0.03499306 0.28501806
v -0.15480278 -0.03499306 0.29500997
v -0.15011179 -0.04038566 0.37131190
v -0.13861427 -0.09687845 0.42498219
v -0.14057651 -0.09188618 0.42498219
v 0.06499939 -0.11899048 0.29500997
v -0.08498976 -0.11371562 0.35500014
v 0.07499458 -0.11722435 0.31501314
v 0.06499939 -0.12012081 0.28169388
v -0.11497533 -0.10841721 0.41499028
v -0.10498014 -0.10987721 0.39860123
v 0.11077490 -0.11041884 0.37498397
v 0.06499939 -0.12026210 0.27500683
v 0.07030358 -0.12012081 0.27500683
v 0.07030358 -0.12012081 0.26203859
v 0.13269687 -0.10238880 0.41499028
v 0.12497052 -0.10599172 0.40499836
v 0.12497052 -0.10476720 0.39498714
v -0.12497052 -0.10681592 0.42498219
v -0.11114282 -0.11048947 0.38499522
v -0.11068292 -0.11020690 0.39239734
v -0.07018095 -0.12007371 0.28113338
v -0.10498014 -0.11103110 0.38499522
v -0.13361667 -0.10304816 0.42498219
v -0.12497052 -0.10655688 0.41499028
v 0.15170611 -0.04257567 0.26203859
v 0.15268724 -0.04033856 0.26203859
v 0.11951303 -0.08957843 0.26203859
v 0.12337620 -0.08456260 0.26203859
v 0.12484788 -0.08251388 0.26203859
v 0.12837379 -0.07759225 0.26203859
v 0.14106707 -0.05856508 0.26203859
v 0.15072499 -0.04405922 0.26203859
v 0.13171574 -0.07259998 0.26203859
v -0.15507872 -0.03499306 0.26203859
v -0.15100093 -0.05190086 0.31501314
v -0.15084764 -0.05241893 0.32500505
v -0.13769446 -0.09652524 0.41499028
v -0.14072980 -0.09150940 0.41499028
v -0.14039254 -0.09070876 0.40499836
v 0.06499939 -0.11969693 0.28669947
v -0.06499939 -0.11899048 0.29500997
v 0.05497354 -0.12028565 0.27500683
v -0.06499939 -0.12012081 0.28169388
v -0.07499458 -0.11722435 0.31501314
v 0.07530118 -0.11743627 0.26203859
v 0.06499939 -0.12026210 0.26203859
v 0.06870926 -0.12016791 0.26203859
v 0.13088793 -0.10078751 0.39498714
v 0.11451543 -0.09287521 0.26203859
v 0.11598711 -0.09190974 0.26203859
v 0.08382468 -0.11242045 0.26203859
v 0.10166886 -0.10107009 0.26203859
v -0.11074424 -0.11039528 0.37498397
v -0.07030358 -0.12012081 0.27500683
v -0.07027292 -0.12012081 0.26203859
v -0.06499939 -0.12026210 0.27500683
v -0.13269687 -0.10234171 0.41499028
v -0.12497052 -0.10587397 0.40499836
v -0.15409760 -0.03730081 0.26203859
v -0.12892567 -0.07846355 0.26203859
v -0.15176743 -0.04276406 0.26203859
v -0.14857879 -0.04777988 0.26203859
v -0.13815436 -0.06414607 0.26203859
v -0.13220631 -0.07347128 0.26203859
v -0.06499939 -0.11969693 0.28669947
v 0.05497354 -0.12028565 0.26203859
v -0.05497354 -0.12028565 0.27500683
v -0.07379884 -0.11816628 0.26203859
v -0.06656305 -0.12023856 0.26203859
v -0.06499939 -0.12026210 0.26203859
v -0.12497052 -0.10455526 0.39498714
v -0.12745398 -0.08011194 0.26203859
v -0.12392808 -0.08392680 0.26203859
v -0.12012623 -0.08745907 0.26203859
v -0.11850125 -0.08894262 0.26203859
v -0.11350365 -0.09233360 0.26203859
v -0.07530118 -0.11731854 0.26203859
v -0.05497354 -0.12028565 0.26203859
v -0.10099433 -0.10066977 0.26203859
v -0.09498496 -0.10467301 0.26203859
v -0.08348742 -0.11232626 0.26203859
f 1 2 3
f 1 3 13
f 1 13 4
f 1 4 15
f 1 15 5
f 1 5 11
f 1 11 2
f 2 6 7
f 2 7 8
f 2 8 9
f 2 9 10
f 2 10 3
f 2 11 18
f 2 18 6
f 3 12 13
f 3 10 14
f 3 14 12
f 4 13 12
f 4 12 28
f 4 28 44
f 4 44 59
f 4 59 82
f 4 82 134
f 4 134 133
f 4 133 132
f 4 132 131
f 4 131 130
f 4 130 129
f 4 129 128
f 4 128 127
f 4 127 194
f 4 194 193
f 4 193 192
f 4 192 126
f 4 126 125
f 4 125 124
f 4 124 195
f 4 195 243
f 4 243 284
f 4 284 318
f 4 318 346
f 4 346 345
f 4 345 352
f 4 352 351
f 4 351 353
f 4 353 350
f 4 350 349
f 4 349 348
f 4 348 347
f 4 347 370
f 4 370 369
f 4 369 372
f 4 372 371
f 4 371 365
f 4 365 334
f 4 334 367
f 4 367 366
f 4 366 386
f 4 386 398
f 4 398 390
f 4 390 389
f 4 389 375
f 4 375 388
f 4 388 397
f 4 397 401
f 4 401 400
f 4 400 399
f 4 399 396
f 4 396 395
f 4 395 394
f 4 394 393
f 4 393 392
f 4 392 380
f 4 380 384
f 4 384 383
f 4 383 382
f 4 382 381
f 4 381 379
f 4 379 354
f 4 354 319
f 4 319 285
f 4 285 247
f 4 247 202
f 4 202 201
f 4 201 200
f 4 200 246
f 4 246 245
f 4 245 244
f 4 244 198
f 4 198 197
f 4 197 196
f 4 196 144
f 4 144 143
f 4 143 142
f 4 142 141
f 4 141 83
f 4 83 60
f 4 60 45
f 4 45 30
f 4 30 29
f 4 29 15
f 5 15 29
f 5 29 16
f 5 16 11
f 6 17 7
f 6 18 33
f 6 33 17
f 7 17 19
f 7 19 8
f 8 19 20
f 8 20 21
f 8 21 9
f 9 21 10
f 10 21 22
f 10 22 23
f 10 23 14
f 11 16 24
f 11 24 25
f 11 25 26
f 11 26 27
f 11 27 18
f 12 14 28
f 14 23 28
f 16 29 30
f 16 30 31
f 16 31 24
f 17 32 19
f 17 33 46
f 17 46 32
f 18 27 33
f 19 32 20
f 20 34 21
f 20 32 46
f 20 46 35
f 20 35 48
f 20 48 34
f 21 36 23
f 21 23 22
f 21 34 37
f 21 37 38
f 21 38 36
f 23 36 39
f 23 39 28
f 24 31 40
f 24 40 41
f 24 41 42
f 24 42 25
f 25 42 26
f 26 42 35
f 26 35 43
f 26 43 27
f 27 43 33
f 28 39 44
f 30 45 31
f 31 45 40
f 33 43 46
f 34 47 37
f 34 48 68
f 34 68 47
f 35 46 43
f 35 42 48
f 36 49 39
f 36 38 49
f 37 47 50
f 37 50 51
f 37 51 38
f 38 52 49
f 38 51 53
f 38 53 52
f 39 49 54
f 39 54 44
f 40 55 56
f 40 56 42
f 40 42 41
f 40 45 55
f 42 56 57
f 42 57 58
f 42 58 48
f 44 54 59
f 45 60 55
f 47 61 62
f 47 62 63
f 47 63 64
f 47 64 65
f 47 65 66
f 47 66 67
f 47 67 50
f 47 68 61
f 48 58 68
f 49 52 54
f 50 67 69
f 50 69 51
f 51 69 70
f 51 70 71
f 51 71 72
f 51 72 53
f 52 73 54
f 52 53 74
f 52 74 73
f 53 72 74
f 54 73 75
f 54 75 59
f 55 76 77
f 55 77 56
f 55 60 76
f 56 77 57
f 57 78 79
f 57 79 80
f 57 80 58
f 57 77 78
f 58 80 81
f 58 81 68
f 59 75 82
f 60 83 84
f 60 84 76
f 61 85 114
f 61 114 113
f 61 113 112
f 61 112 177
f 61 177 176
f 61 176 175
f 61 175 174
f 61 174 173
f 61 173 172
f 61 172 171
f 61 171 170
f 61 170 228
f 61 228 279
f 61 279 278
f 61 278 277
f 61 277 276
f 61 276 275
f 61 275 274
f 61 274 273
f 61 273 313
f 61 313 308
f 61 308 269
f 61 269 215
f 61 215 214
f 61 214 213
f 61 213 150
f 61 150 104
f 61 104 103
f 61 103 102
f 61 102 101
f 61 101 100
f 61 100 99
f 61 99 98
f 61 98 97
f 61 97 96
f 61 96 95
f 61 95 86
f 61 86 64
f 61 64 63
f 61 63 62
f 61 68 85
f 64 86 65
f 65 87 88
f 65 88 89
f 65 89 90
f 65 90 91
f 65 91 92
f 65 92 93
f 65 93 94
f 65 94 66
f 65 86 95
f 65 95 96
f 65 96 97
f 65 97 98
f 65 98 99
f 65 99 100
f 65 100 101
f 65 101 102
f 65 102 103
f 65 103 104
f 65 104 87
f 66 94 93
f 66 93 105
f 66 105 106
f 66 106 67
f 67 106 107
f 67 107 69
f 68 81 108
f 68 108 109
f 68 109 110
f 68 110 111
f 68 111 112
f 68 112 113
f 68 113 114
f 68 114 85
f 69 107 115
f 69 115 70
f 70 115 116
f 70 116 117
f 70 117 118
f 70 118 71
f 71 118 119
f 71 119 120
f 71 120 121
f 71 121 72
f 72 122 74
f 72 121 123
f 72 123 124
f 72 124 125
f 72 125 126
f 72 126 122
f 73 74 127
f 73 127 128
f 73 128 129
f 73 129 130
f 73 130 131
f 73 131 132
f 73 132 75
f 74 122 127
f 75 132 133
f 75 133 134
f 75 134 82
f 76 84 78
f 76 78 77
f 78 135 136
f 78 136 79
f 78 84 135
f 79 136 137
f 79 137 80
f 80 138 139
f 80 139 81
f 80 137 140
f 80 140 138
f 81 139 108
f 83 141 84
f 84 142 143
f 84 143 144
f 84 144 145
f 84 145 135
f 84 141 142
f 87 146 147
f 87 147 148
f 87 148 149
f 87 149 88
f 87 104 150
f 87 150 146
f 88 149 89
f 89 149 151
f 89 151 90
f 90 151 152
f 90 152 153
f 90 153 91
f 91 153 154
f 91 154 92
f 92 154 105
f 92 105 93
f 105 154 155
f 105 155 156
f 105 156 157
f 105 157 158
f 105 158 159
f 105 159 107
f 105 107 106
f 107 159 160
f 107 160 115
f 108 161 109
f 108 139 162
f 108 162 161
f 109 161 163
f 109 163 164
f 109 164 110
f 110 164 163
f 110 163 165
f 110 165 166
f 110 166 167
f 110 167 168
f 110 168 169
f 110 169 170
f 110 170 171
f 110 171 172
f 110 172 111
f 111 172 173
f 111 173 174
f 111 174 175
f 111 175 176
f 111 176 177
f 111 177 112
f 115 160 159
f 115 159 158
f 115 158 157
f 115 157 156
f 115 156 155
f 115 155 178
f 115 178 179
f 115 179 180
f 115 180 181
f 115 181 182
f 115 182 183
f 115 183 184
f 115 184 185
f 115 185 116
f 116 185 186
f 116 186 117
f 117 186 187
f 117 187 239
f 117 239 188
f 117 188 119
f 117 119 118
f 119 189 190
f 119 190 191
f 119 191 121
f 119 121 120
f 119 188 189
f 121 191 123
f 122 126 192
f 122 192 193
f 122 193 194
f 122 194 127
f 123 191 124
f 124 191 195
f 135 145 144
f 135 144 136
f 136 144 196
f 136 196 197
f 136 197 198
f 136 198 199
f 136 199 137
f 137 199 200
f 137 200 201
f 137 201 202
f 137 202 203
f 137 203 204
f 137 204 140
f 138 140 205
f 138 205 206
f 138 206 207
f 138 207 208
f 138 208 139
f 139 208 162
f 140 204 209
f 140 209 210
f 140 210 205
f 146 211 212
f 146 212 147
f 146 150 213
f 146 213 214
f 146 214 215
f 146 215 211
f 147 178 155
f 147 155 149
f 147 149 148
f 147 212 178
f 149 155 151
f 151 155 152
f 152 155 153
f 153 155 154
f 161 216 163
f 161 162 217
f 161 217 216
f 162 208 218
f 162 218 219
f 162 219 217
f 163 216 165
f 165 216 166
f 166 216 220
f 166 220 221
f 166 221 222
f 166 222 223
f 166 223 167
f 167 223 224
f 167 224 168
f 168 224 225
f 168 225 169
f 169 225 226
f 169 226 227
f 169 227 228
f 169 228 170
f 178 212 229
f 178 229 230
f 178 230 231
f 178 231 232
f 178 232 233
f 178 233 234
f 178 234 235
f 178 235 236
f 178 236 237
f 178 237 238
f 178 238 179
f 179 238 237
f 179 237 180
f 180 237 181
f 181 235 182
f 181 237 236
f 181 236 235
f 182 235 234
f 182 234 183
f 183 239 187
f 183 187 240
f 183 240 184
f 183 234 232
f 183 232 241
f 183 241 242
f 183 242 239
f 184 240 186
f 184 186 185
f 186 240 187
f 188 239 242
f 188 242 190
f 188 190 189
f 190 243 195
f 190 195 191
f 190 242 284
f 190 284 243
f 198 244 199
f 199 245 246
f 199 246 200
f 199 244 245
f 202 247 248
f 202 248 203
f 203 248 204
f 204 248 210
f 204 210 209
f 205 210 206
f 206 210 249
f 206 249 250
f 206 250 251
f 206 251 252
f 206 252 207
f 207 252 253
f 207 253 254
f 207 254 208
f 208 254 255
f 208 255 256
f 208 256 257
f 208 257 258
f 208 258 259
f 208 259 260
f 208 260 261
f 208 261 262
f 208 262 263
f 208 263 264
f 208 264 217
f 208 217 219
f 208 219 218
f 210 248 265
f 210 265 266
f 210 266 249
f 211 267 268
f 211 268 212
f 211 215 269
f 211 269 267
f 212 270 229
f 212 268 270
f 216 217 264
f 216 264 263
f 216 263 262
f 216 262 261
f 216 261 220
f 220 261 221
f 221 261 222
f 222 261 223
f 223 261 224
f 224 261 225
f 225 261 226
f 226 261 260
f 226 260 271
f 226 271 227
f 227 271 272
f 227 272 273
f 227 273 274
f 227 274 275
f 227 275 276
f 227 276 277
f 227 277 278
f 227 278 279
f 227 279 228
f 229 270 280
f 229 280 281
f 229 281 230
f 230 281 231
f 231 281 241
f 231 241 232
f 232 234 233
f 241 282 283
f 241 283 242
f 241 281 282
f 242 283 284
f 247 285 286
f 247 286 265
f 247 265 248
f 249 266 265
f 249 265 250
f 250 265 286
f 250 286 287
f 250 287 251
f 251 287 288
f 251 288 253
f 251 253 252
f 253 255 254
f 253 288 255
f 255 288 287
f 255 287 256
f 256 287 289
f 256 289 290
f 256 290 291
f 256 291 257
f 257 291 292
f 257 292 258
f 258 292 293
f 258 293 259
f 259 293 260
f 260 294 271
f 260 293 292
f 260 292 290
f 260 290 289
f 260 289 295
f 260 295 296
f 260 296 297
f 260 297 294
f 267 298 299
f 267 299 300
f 267 300 268
f 267 269 301
f 267 301 302
f 267 302 326
f 267 326 298
f 268 303 270
f 268 300 304
f 268 304 305
f 268 305 306
f 268 306 307
f 268 307 303
f 269 308 301
f 270 309 280
f 270 303 310
f 270 310 309
f 271 311 272
f 271 294 312
f 271 312 311
f 272 311 302
f 272 302 308
f 272 308 313
f 272 313 273
f 280 314 281
f 280 309 315
f 280 315 316
f 280 316 314
f 281 314 282
f 282 317 283
f 282 314 317
f 283 318 284
f 283 317 318
f 285 319 286
f 286 319 320
f 286 320 321
f 286 321 287
f 287 321 322
f 287 322 289
f 289 322 295
f 290 292 291
f 294 323 312
f 294 297 324
f 294 324 323
f 295 322 296
f 296 322 321
f 296 321 324
f 296 324 297
f 298 325 299
f 298 326 361
f 298 361 325
f 299 325 327
f 299 327 300
f 300 327 328
f 300 328 304
f 301 308 302
f 302 311 329
f 302 329 330
f 302 330 326
f 303 307 331
f 303 331 310
f 304 328 305
f 305 328 332
f 305 332 333
f 305 333 307
f 305 307 306
f 307 333 334
f 307 334 331
f 309 335 315
f 309 310 336
f 309 336 337
f 309 337 335
f 310 331 336
f 311 338 339
f 311 339 340
f 311 340 341
f 311 341 342
f 311 342 329
f 311 312 338
f 312 323 343
f 312 343 344
f 312 344 338
f 314 316 345
f 314 345 346
f 314 346 318
f 314 318 317
f 315 335 347
f 315 347 348
f 315 348 349
f 315 349 350
f 315 350 316
f 316 351 352
f 316 352 345
f 316 350 353
f 316 353 351
f 319 354 320
f 320 355 356
f 320 356 321
f 320 354 355
f 321 356 324
f 323 357 343
f 323 324 358
f 323 358 359
f 323 359 357
f 324 356 358
f 325 360 327
f 325 361 385
f 325 385 360
f 326 330 361
f 327 360 328
f 328 362 332
f 328 360 385
f 328 385 363
f 328 363 387
f 328 387 362
f 329 342 363
f 329 363 364
f 329 364 330
f 330 364 361
f 331 334 365
f 331 365 336
f 332 366 367
f 332 367 333
f 332 362 386
f 332 386 366
f 333 367 334
f 335 368 347
f 335 337 368
f 336 365 337
f 337 369 370
f 337 370 347
f 337 347 368
f 337 365 371
f 337 371 372
f 337 372 369
f 338 344 373
f 338 373 339
f 339 374 341
f 339 341 340
f 339 373 375
f 339 375 374
f 341 374 376
f 341 376 363
f 341 363 342
f 343 377 378
f 343 378 344
f 343 357 377
f 344 378 373
f 354 379 358
f 354 358 355
f 355 358 356
f 357 380 377
f 357 359 380
f 358 379 381
f 358 381 359
f 359 381 382
f 359 382 383
f 359 383 384
f 359 384 380
f 361 364 385
f 362 387 398
f 362 398 386
f 363 385 364
f 363 376 387
f 373 378 388
f 373 388 375
f 374 375 389
f 374 389 376
f 376 389 390
f 376 390 398
f 376 398 387
f 377 391 378
f 377 380 392
f 377 392 393
f 377 393 394
f 377 394 395
f 377 395 396
f 377 396 391
f 378 391 397
f 378 397 388
f 391 396 399
f 391 399 400
f 391 400 401
f 391 401 397

