# https://github.com/mikedh/trimesh
v 0.15658107 0.02498494 -0.07060277
v 0.15575325 0.03058948 -0.07060277
v 0.15658107 -0.02498494 -0.07060277
v 0.15658107 0.02498494 -0.31496185
v 0.15514004 0.03499305 -0.33496067
v 0.15507872 0.03499305 -0.07060277
v 0.15590656 -0.02938850 -0.07060277
v 0.15510939 -0.03499304 -0.33496067
v 0.15658107 -0.02498494 -0.31496185
v 0.15655041 0.02498494 -0.32498249
v 0.15471081 0.03499305 -0.34498131
v 0.15234998 0.04497761 -0.36498010
v 0.15078631 0.05244247 -0.37495828
v 0.15100093 0.05197150 -0.36498010
v 0.15176743 0.04276405 -0.07060277
v 0.14072980 0.09158005 -0.46497414
v 0.15501741 -0.03499304 -0.07060277
v 0.15100093 -0.05190085 -0.36498010
v 0.15078631 -0.05237182 -0.37495828
v 0.15234998 -0.04497760 -0.36498010
v 0.15471081 -0.03499304 -0.34498131
v 0.15655041 -0.02498494 -0.32498249
v 0.15596788 0.02498494 -0.33496067
v 0.15379101 0.03499305 -0.35495949
v 0.15161414 0.04497761 -0.37495828
v 0.14937595 0.05498571 -0.39499953
v 0.14033122 0.09115618 -0.47499478
v 0.14857879 0.04777987 -0.07060277
v 0.13873690 0.09614846 -0.47499478
v 0.13916615 0.09424102 -0.48429358
v 0.15357639 -0.03833693 -0.07060277
v 0.14072980 -0.09153295 -0.46497414
v 0.14033122 -0.09113263 -0.47499478
v 0.14937595 -0.05498570 -0.39499953
v 0.15161414 -0.04497760 -0.37495828
v 0.15379101 -0.03499304 -0.35495949
v 0.15596788 -0.02498494 -0.33496067
v 0.14998916 0.04497761 -0.38990432
v 0.14008595 0.08498648 -0.48076937
v 0.14615664 0.06499381 -0.42497653
v 0.14394912 0.07497837 -0.44497532
v 0.14005528 0.09042618 -0.48051459
v 0.13441382 0.07000963 -0.07060277
v 0.13426054 0.10318945 -0.48497295
v 0.12901765 0.07846354 -0.07060277
v 0.13220631 0.07347126 -0.07060277
v 0.13941142 0.08498648 -0.48577970
v 0.13438317 0.09499457 -0.49333763
v 0.13288082 0.10203558 -0.49214873
v 0.15170611 -0.04257565 -0.07060277
v 0.13873690 -0.09614845 -0.47499478
v 0.13916615 -0.09424102 -0.48429358
v 0.14005528 -0.09042616 -0.48051459
v 0.14394912 -0.07497837 -0.44497532
v 0.14615664 -0.06499381 -0.42497653
v 0.14008595 -0.08498646 -0.48076937
v 0.14998916 -0.04497760 -0.38990432
v 0.14069915 0.08498648 -0.47499478
v 0.12497052 0.10646269 -0.48497295
v 0.12497052 0.10681592 -0.47499478
v 0.12497052 0.10660398 -0.46497414
v 0.07027292 0.12012081 -0.07060277
v 0.13373931 0.10309526 -0.47499478
v 0.12619692 0.08157195 -0.07060277
v 0.13941142 -0.08498646 -0.48577970
v 0.13441382 0.08498648 -0.49346501
v 0.12497052 0.08498648 -0.49728644
v 0.12497052 0.09499457 -0.49690428
v 0.12497052 0.10304816 -0.49325269
v 0.14621796 -0.05084117 -0.07060277
v 0.13373931 -0.10311881 -0.47499478
v 0.13426054 -0.10318944 -0.48497295
v 0.13171574 -0.07259996 -0.07060277
v 0.12837379 -0.07759224 -0.07060277
v 0.12619692 -0.08065355 -0.07060277
v 0.13288082 -0.10203557 -0.49214873
v 0.13438317 -0.09499457 -0.49333763
v 0.14069915 -0.08498646 -0.47499478
v 0.11062160 0.11015980 -0.44196063
v 0.11114282 0.11046593 -0.43499714
v 0.11497533 0.10655689 -0.48497295
v 0.11497533 0.10832302 -0.46497414
v 0.07015029 0.12005016 -0.33075708
v 0.06794275 0.12019145 -0.07060277
v 0.07248045 0.11889629 -0.07060277
v 0.07027292 0.12012081 -0.31496185
v 0.07530118 0.11731854 -0.07060277
v 0.07990019 0.11451627 -0.07060277
v 0.08348742 0.11232626 -0.07060277
v 0.08569495 0.11086626 -0.07060277
v 0.09213357 0.10658044 -0.07060277
v 0.09835757 0.10243590 -0.07060277
v 0.10320186 0.09920976 -0.07060277
v 0.11571117 0.09087360 -0.07060277
v 0.11850125 0.08901326 -0.07060277
v 0.12159791 0.08621100 -0.07060277
v 0.12398940 0.08399744 -0.07060277
v 0.13441382 -0.08498646 -0.49346501
v 0.11497533 0.08498648 -0.49771103
v 0.12497052 -0.08498646 -0.49728644
v 0.10498014 0.06499381 -0.49868762
v 0.07499458 0.04497761 -0.50072575
v 0.03498316 0.01497684 -0.50344318
v 0.08253696 0.05498571 -0.50013125
v 0.08140253 0.06040186 -0.50004637
v 0.11497533 0.09499457 -0.49698919
v -0.12497052 0.10304816 -0.49325269
v 0.12337620 -0.08458614 -0.07060277
v 0.12122999 -0.08738841 -0.07060277
v 0.11951303 -0.08957842 -0.07060277
v 0.11730550 -0.09103844 -0.07060277
v 0.11451543 -0.09287521 -0.07060277
v 0.11013104 -0.09567748 -0.07060277
v 0.10166886 -0.10107008 -0.07060277
v 0.08661475 -0.11065431 -0.07060277
v 0.08382468 -0.11242045 -0.07060277
v 0.07530118 -0.11743627 -0.07060277
v 0.07030358 -0.12012081 -0.07060277
v 0.12497052 -0.10667463 -0.46497414
v 0.12497052 -0.10683946 -0.47499478
v 0.12497052 -0.10648623 -0.48497295
v 0.12497052 -0.10304816 -0.49321026
v 0.12497052 -0.09499457 -0.49686182
v 0.07024226 0.12012081 -0.32498249
v -0.11497533 0.10655689 -0.48497295
v -0.11497533 0.10832302 -0.46497414
v 0.07499458 0.11536402 -0.38497892
v 0.06499939 0.12009726 -0.33113924
v 0.06499939 0.12023856 -0.32498249
v 0.06499939 0.12026210 -0.07060277
v 0.06499939 0.12026210 -0.31496185
v 0.08140253 -0.06016637 -0.50004637
v 0.08253696 -0.05498570 -0.50013125
v 0.03498316 -0.01497683 -0.50344318
v 0.07499458 -0.04497760 -0.50072575
v 0.10498014 -0.06499381 -0.49868762
v 0.05497354 0.02498494 -0.50212693
v 0.02498797 0.00499228 -0.50416499
v 0.01499278 0.00499228 -0.50433481
v -0.01499278 0.00499228 -0.50437731
v -0.08140253 0.06040186 -0.50004637
v -0.11497533 0.09499457 -0.49698919
v -0.13288082 0.10203558 -0.49214873
v -0.12497052 0.10648625 -0.48497295
v -0.12497052 0.09499457 -0.49690428
v 0.06732956 -0.12021500 -0.07060277
v 0.07030358 -0.12012081 -0.31496185
v 0.11117348 -0.11046593 -0.43499714
v 0.11497533 -0.10832301 -0.46497414
v 0.11497533 -0.10655688 -0.48497295
v 0.07015029 -0.12005016 -0.33075708
v -0.12497052 -0.10304816 -0.49321026
v -0.12497052 -0.09499457 -0.49686182
v -0.07015029 0.12005016 -0.33075708
v -0.06499939 0.12009726 -0.33113924
v -0.07499458 0.11536402 -0.38497892
v -0.06499939 0.12023856 -0.32498249
v 0.05497354 0.12028565 -0.31496185
v 0.05497354 0.12028565 -0.18503332
v -0.06499939 0.12026210 -0.07060277
v -0.08140253 -0.06016637 -0.50004637
v -0.03498316 -0.01497683 -0.50344318
v 0.02498797 -0.00499227 -0.50416499
v 0.05497354 -0.02498494 -0.50212693
v -0.02498797 -0.00499227 -0.50416499
v -0.02498797 0.00499228 -0.50416499
v -0.03498316 0.01497684 -0.50344318
v -0.08253696 0.05498571 -0.50013125
v -0.12497052 0.08498648 -0.49728644
v -0.11497533 0.08498648 -0.49771103
v -0.13438317 0.09499457 -0.49333763
v -0.13916615 0.09424102 -0.48429358
v -0.13426054 0.10318945 -0.48497295
v -0.12497052 0.10683946 -0.47499478
v -0.11117348 0.11046593 -0.43499714
v 0.06499939 -0.12026210 -0.07060277
v 0.06499939 -0.12026210 -0.31496185
v 0.07027292 -0.12012081 -0.32498249
v -0.11497533 -0.10832301 -0.46497414
v 0.06499939 -0.12009725 -0.33113924
v 0.07499458 -0.11536402 -0.38497892
v -0.11497533 -0.10655688 -0.48497295
v 0.06499939 -0.12023854 -0.32498249
v -0.12497052 -0.10646269 -0.48497295
v -0.13288082 -0.10203557 -0.49214873
v -0.13438317 -0.09499457 -0.49333763
v -0.12497052 -0.08498646 -0.49728644
v -0.07027292 0.12012081 -0.32498249
v -0.06499939 0.12026210 -0.31496185
v 0.02498797 0.12028565 -0.31496185
v 0.04497835 0.12028565 -0.22503093
v -0.06732956 0.12021500 -0.07060277
v -0.08253696 -0.05498570 -0.50013125
v -0.07499458 -0.04497760 -0.50072575
v -0.05497354 -0.02498494 -0.50212693
v -0.10498014 -0.06499381 -0.49868762
v -0.05497354 0.02498494 -0.50212693
v -0.10498014 0.06499381 -0.49868762
v -0.07499458 0.04497761 -0.50072575
v -0.13441382 0.08498648 -0.49346501
v -0.13941142 0.08498648 -0.48577970
v -0.14005528 0.09042618 -0.48051459
v -0.14033122 0.09113263 -0.47499478
v -0.14072980 0.09153296 -0.46497414
v -0.13873690 0.09614846 -0.47499478
v -0.13373931 0.10311881 -0.47499478
v -0.07030358 0.12012081 -0.07060277
v -0.12497052 0.10667463 -0.46497414
v -0.07030358 0.12012081 -0.31496185
v 0.05497354 -0.12028565 -0.07060277
v -0.06499939 -0.12026210 -0.31496185
v 0.05497354 -0.12028565 -0.08503929
v -0.07499458 -0.11536402 -0.38497892
v -0.06499939 -0.12009725 -0.33113924
v -0.07015029 -0.12005016 -0.33075708
v -0.06499939 -0.12023854 -0.32498249
v -0.11062160 -0.11015980 -0.44196063
v -0.11114282 -0.11046593 -0.43499714
v -0.12497052 -0.10681590 -0.47499478
v -0.13426054 -0.10318944 -0.48497295
v -0.13916615 -0.09424102 -0.48429358
v -0.13941142 -0.08498646 -0.48577970
v -0.13441382 -0.08498646 -0.49346501
v -0.14008595 0.08498648 -0.48076937
v -0.14069915 0.08498648 -0.47499478
v -0.14394912 0.07497837 -0.44497532
v -0.15161414 0.04497761 -0.37495828
v -0.14937595 0.05498571 -0.39499953
v -0.15234998 0.04497761 -0.36498010
v -0.15078631 0.05237183 -0.37495828
v -0.15100093 0.05190086 -0.36498010
v -0.15501741 0.03499305 -0.07060277
v -0.15357639 0.03833693 -0.07060277
v -0.15170611 0.04257566 -0.07060277
v -0.14621796 0.05084118 -0.07060277
v -0.13171574 0.07259998 -0.07060277
v -0.12837379 0.07759225 -0.07060277
v -0.12619692 0.08065355 -0.07060277
v -0.12337620 0.08458616 -0.07060277
v -0.12122999 0.08738843 -0.07060277
v -0.11951303 0.08957843 -0.07060277
v -0.11730550 0.09103844 -0.07060277
v -0.11451543 0.09287521 -0.07060277
v -0.11013104 0.09567748 -0.07060277
v -0.10166886 0.10107009 -0.07060277
v -0.08661475 0.11065432 -0.07060277
v -0.08382468 0.11242045 -0.07060277
v -0.07530118 0.11743629 -0.07060277
v -0.05497354 -0.12028565 -0.07060277
v -0.07027292 -0.12012081 -0.31496185
v -0.07024226 -0.12012081 -0.32498249
v -0.05497354 -0.12028565 -0.08503929
v -0.06499939 -0.12026210 -0.07060277
v -0.06794275 -0.12019145 -0.07060277
v -0.07027292 -0.12012081 -0.07060277
v -0.12497052 -0.10660398 -0.46497414
v -0.13373931 -0.10309525 -0.47499478
v -0.12901765 -0.07846354 -0.07060277
v -0.13873690 -0.09614845 -0.47499478
v -0.14072980 -0.09158005 -0.46497414
v -0.14033122 -0.09115617 -0.47499478
v -0.14005528 -0.09042616 -0.48051459
v -0.14008595 -0.08498646 -0.48076937
v -0.14998916 0.04497761 -0.38990432
v -0.14615664 0.06499381 -0.42497653
v -0.15379101 0.03499305 -0.35495949
v -0.15471081 0.03499305 -0.34498131
v -0.15510939 0.03499305 -0.33496067
v -0.15590656 0.02938851 -0.07060277
v -0.07248045 -0.11889628 -0.07060277
v -0.07530118 -0.11731854 -0.07060277
v -0.07990019 -0.11451626 -0.07060277
v -0.08348742 -0.11232625 -0.07060277
v -0.08569495 -0.11086625 -0.07060277
v -0.09213357 -0.10658042 -0.07060277
v -0.09835757 -0.10243589 -0.07060277
v -0.10320186 -0.09920976 -0.07060277
v -0.11571117 -0.09087358 -0.07060277
v -0.11850125 -0.08901326 -0.07060277
v -0.12159791 -0.08621100 -0.07060277
v -0.12398940 -0.08399743 -0.07060277
v -0.12619692 -0.08157194 -0.07060277
v -0.13220631 -0.07347126 -0.07060277
v -0.13441382 -0.07000963 -0.07060277
v -0.14857879 -0.04777987 -0.07060277
v -0.15176743 -0.04276404 -0.07060277
v -0.15100093 -0.05197150 -0.36498010
v -0.15078631 -0.05244246 -0.37495828
v -0.15507872 -0.03499304 -0.07060277
v -0.15234998 -0.04497760 -0.36498010
v -0.14937595 -0.05498570 -0.39499953
v -0.14069915 -0.08498646 -0.47499478
v -0.15161414 -0.04497760 -0.37495828
v -0.14394912 -0.07497837 -0.44497532
v -0.14615664 -0.06499381 -0.42497653
v -0.14998916 -0.04497760 -0.38990432
v -0.15596788 0.02498494 -0.33496067
v -0.15655041 0.02498494 -0.32498249
v -0.15658107 0.02498494 -0.31496185
v -0.15658107 0.02498494 -0.07060277
v -0.15514004 -0.03499304 -0.33496067
v -0.15575325 -0.03058947 -0.07060277
v -0.15471081 -0.03499304 -0.34498131
v -0.15379101 -0.03499304 -0.35495949
v -0.15596788 -0.02498494 -0.33496067
v -0.15655041 -0.02498494 -0.32498249
v -0.15658107 -0.02498494 -0.31496185
v -0.15658107 -0.02498494 -0.07060277
f 1 2 6
f 1 6 15
f 1 15 28
f 1 28 43
f 1 43 46
f 1 46 45
f 1 45 64
f 1 64 97
f 1 97 96
f 1 96 95
f 1 95 94
f 1 94 93
f 1 93 92
f 1 92 91
f 1 91 90
f 1 90 89
f 1 89 88
f 1 88 87
f 1 87 85
f 1 85 62
f 1 62 84
f 1 84 130
f 1 130 160
f 1 160 192
f 1 192 207
f 1 207 248
f 1 248 247
f 1 247 246
f 1 246 245
f 1 245 244
f 1 244 243
f 1 243 242
f 1 242 241
f 1 241 240
f 1 240 239
f 1 239 238
f 1 238 237
f 1 237 236
f 1 236 235
f 1 235 234
f 1 234 233
f 1 233 232
f 1 232 269
f 1 269 300
f 1 300 308
f 1 308 302
f 1 302 289
f 1 289 286
f 1 286 285
f 1 285 284
f 1 284 283
f 1 283 258
f 1 258 282
f 1 282 281
f 1 281 280
f 1 280 279
f 1 279 278
f 1 278 277
f 1 277 276
f 1 276 275
f 1 275 274
f 1 274 273
f 1 273 272
f 1 272 271
f 1 271 270
f 1 270 255
f 1 255 254
f 1 254 253
f 1 253 249
f 1 249 210
f 1 210 176
f 1 176 146
f 1 146 118
f 1 118 117
f 1 117 116
f 1 116 115
f 1 115 114
f 1 114 113
f 1 113 112
f 1 112 111
f 1 111 110
f 1 110 109
f 1 109 108
f 1 108 75
f 1 75 74
f 1 74 73
f 1 73 70
f 1 70 50
f 1 50 31
f 1 31 17
f 1 17 7
f 1 7 3
f 1 3 9
f 1 9 4
f 1 4 5
f 1 5 2
f 2 5 6
f 3 7 8
f 3 8 9
f 4 9 22
f 4 22 10
f 4 10 5
f 5 10 11
f 5 11 12
f 5 12 13
f 5 13 14
f 5 14 6
f 6 14 16
f 6 16 15
f 7 17 8
f 8 18 19
f 8 19 20
f 8 20 21
f 8 21 22
f 8 22 9
f 8 17 18
f 10 22 37
f 10 37 23
f 10 23 11
f 11 24 25
f 11 25 26
f 11 26 12
f 11 23 24
f 12 26 27
f 12 27 13
f 13 27 16
f 13 16 14
f 15 16 29
f 15 29 28
f 16 27 30
f 16 30 29
f 17 31 32
f 17 32 18
f 18 32 19
f 19 32 33
f 19 33 20
f 20 34 21
f 20 33 34
f 21 34 35
f 21 35 36
f 21 36 37
f 21 37 22
f 23 37 57
f 23 57 38
f 23 38 24
f 24 38 25
f 25 38 39
f 25 39 40
f 25 40 41
f 25 41 42
f 25 42 26
f 26 42 27
f 27 42 30
f 28 29 43
f 29 30 44
f 29 44 45
f 29 45 46
f 29 46 43
f 30 47 48
f 30 48 49
f 30 49 44
f 30 42 47
f 31 50 32
f 32 51 52
f 32 52 33
f 32 50 51
f 33 52 53
f 33 53 34
f 34 53 35
f 35 53 54
f 35 54 55
f 35 55 56
f 35 56 57
f 35 57 36
f 36 57 37
f 38 57 56
f 38 56 39
f 39 56 65
f 39 65 47
f 39 47 42
f 39 42 58
f 39 58 40
f 40 58 41
f 41 58 42
f 44 59 60
f 44 60 61
f 44 61 62
f 44 62 63
f 44 63 45
f 44 49 59
f 45 63 64
f 47 65 98
f 47 98 66
f 47 66 48
f 48 66 67
f 48 67 68
f 48 68 49
f 49 68 69
f 49 69 59
f 50 70 51
f 51 71 72
f 51 72 52
f 51 70 73
f 51 73 74
f 51 74 75
f 51 75 71
f 52 72 76
f 52 76 77
f 52 77 65
f 52 65 53
f 53 65 56
f 53 56 78
f 53 78 54
f 54 78 55
f 55 78 56
f 59 79 80
f 59 80 60
f 59 69 81
f 59 81 82
f 59 82 83
f 59 83 79
f 60 80 62
f 60 62 61
f 62 85 63
f 62 80 86
f 62 86 84
f 63 85 87
f 63 87 88
f 63 88 89
f 63 89 90
f 63 90 91
f 63 91 92
f 63 92 93
f 63 93 94
f 63 94 95
f 63 95 96
f 63 96 97
f 63 97 64
f 65 77 98
f 66 98 100
f 66 100 67
f 67 99 68
f 67 100 136
f 67 136 101
f 67 101 102
f 67 102 103
f 67 103 104
f 67 104 105
f 67 105 99
f 68 99 105
f 68 105 106
f 68 106 69
f 69 107 125
f 69 125 81
f 69 106 142
f 69 142 107
f 71 75 108
f 71 108 109
f 71 109 110
f 71 110 111
f 71 111 112
f 71 112 113
f 71 113 114
f 71 114 115
f 71 115 116
f 71 116 117
f 71 117 118
f 71 118 72
f 72 118 119
f 72 119 120
f 72 120 121
f 72 121 76
f 76 122 123
f 76 123 77
f 76 121 122
f 77 123 100
f 77 100 98
f 79 83 80
f 80 83 124
f 80 124 86
f 81 125 126
f 81 126 82
f 82 126 156
f 82 156 127
f 82 127 128
f 82 128 83
f 83 128 129
f 83 129 124
f 84 86 131
f 84 131 130
f 86 124 131
f 100 123 132
f 100 132 133
f 100 133 134
f 100 134 135
f 100 135 136
f 101 136 164
f 101 164 137
f 101 137 138
f 101 138 102
f 102 138 103
f 103 138 139
f 103 139 105
f 103 105 104
f 105 139 140
f 105 140 141
f 105 141 142
f 105 142 106
f 107 143 144
f 107 144 125
f 107 142 145
f 107 145 143
f 118 146 147
f 118 147 148
f 118 148 120
f 118 120 119
f 120 148 121
f 121 149 150
f 121 150 122
f 121 148 151
f 121 151 149
f 122 150 182
f 122 182 152
f 122 152 153
f 122 153 123
f 123 153 161
f 123 161 132
f 124 129 131
f 125 144 126
f 126 144 154
f 126 154 155
f 126 155 156
f 127 156 155
f 127 155 128
f 128 155 157
f 128 157 129
f 129 157 190
f 129 190 158
f 129 158 131
f 130 159 160
f 130 131 158
f 130 158 159
f 132 161 162
f 132 162 134
f 132 134 133
f 134 162 165
f 134 165 163
f 134 163 135
f 135 163 136
f 136 163 164
f 137 164 163
f 137 163 138
f 138 163 139
f 139 163 140
f 140 163 165
f 140 165 166
f 140 166 167
f 140 167 141
f 141 167 168
f 141 168 169
f 141 169 170
f 141 170 145
f 141 145 142
f 143 145 171
f 143 171 172
f 143 172 173
f 143 173 144
f 144 173 174
f 144 174 175
f 144 175 154
f 145 170 169
f 145 169 171
f 146 176 177
f 146 177 147
f 147 177 178
f 147 178 148
f 148 178 151
f 149 179 182
f 149 182 150
f 149 151 180
f 149 180 181
f 149 181 213
f 149 213 179
f 151 178 183
f 151 183 180
f 152 182 184
f 152 184 185
f 152 185 153
f 153 185 186
f 153 186 187
f 153 187 161
f 154 188 157
f 154 157 155
f 154 175 188
f 157 188 189
f 157 189 190
f 158 190 191
f 158 191 159
f 159 191 160
f 160 191 190
f 160 190 189
f 160 189 192
f 161 193 162
f 161 187 193
f 162 193 187
f 162 187 194
f 162 194 165
f 165 195 197
f 165 197 166
f 165 194 196
f 165 196 195
f 166 197 198
f 166 198 199
f 166 199 167
f 167 199 169
f 167 169 168
f 169 187 223
f 169 223 200
f 169 200 171
f 169 199 198
f 169 198 196
f 169 196 187
f 171 200 201
f 171 201 172
f 172 202 203
f 172 203 204
f 172 204 205
f 172 205 173
f 172 201 202
f 173 205 206
f 173 206 207
f 173 207 208
f 173 208 174
f 174 208 207
f 174 207 175
f 175 209 188
f 175 207 209
f 176 210 212
f 176 212 177
f 177 211 216
f 177 216 183
f 177 183 178
f 177 212 252
f 177 252 211
f 179 184 182
f 179 213 214
f 179 214 215
f 179 215 184
f 180 183 216
f 180 216 214
f 180 214 213
f 180 213 181
f 184 217 218
f 184 218 219
f 184 219 220
f 184 220 185
f 184 215 217
f 185 220 221
f 185 221 186
f 186 221 222
f 186 222 223
f 186 223 187
f 187 196 194
f 188 209 189
f 189 209 192
f 192 209 207
f 195 196 198
f 195 198 197
f 200 223 222
f 200 222 201
f 201 224 202
f 201 222 263
f 201 263 224
f 202 224 225
f 202 225 226
f 202 226 227
f 202 227 228
f 202 228 203
f 203 228 229
f 203 229 230
f 203 230 204
f 204 230 231
f 204 231 232
f 204 232 233
f 204 233 234
f 204 234 205
f 205 234 235
f 205 235 236
f 205 236 237
f 205 237 238
f 205 238 206
f 206 238 239
f 206 239 240
f 206 240 241
f 206 241 242
f 206 242 243
f 206 243 244
f 206 244 245
f 206 245 246
f 206 246 247
f 206 247 248
f 206 248 207
f 210 249 252
f 210 252 212
f 211 250 251
f 211 251 216
f 211 252 249
f 211 249 253
f 211 253 254
f 211 254 250
f 214 216 215
f 215 216 251
f 215 251 218
f 215 218 217
f 218 251 250
f 218 250 255
f 218 255 219
f 219 256 220
f 219 255 256
f 220 256 255
f 220 255 257
f 220 257 258
f 220 258 259
f 220 259 221
f 221 259 260
f 221 260 261
f 221 261 262
f 221 262 222
f 222 262 263
f 224 263 296
f 224 296 264
f 224 264 227
f 224 227 265
f 224 265 225
f 225 265 226
f 226 265 227
f 227 264 266
f 227 266 267
f 227 267 228
f 228 267 229
f 229 267 268
f 229 268 230
f 230 268 231
f 231 268 232
f 232 268 269
f 250 254 255
f 255 270 257
f 257 270 271
f 257 271 272
f 257 272 273
f 257 273 274
f 257 274 275
f 257 275 276
f 257 276 277
f 257 277 278
f 257 278 279
f 257 279 280
f 257 280 281
f 257 281 282
f 257 282 258
f 258 283 259
f 259 283 284
f 259 284 285
f 259 285 286
f 259 286 260
f 260 287 288
f 260 288 261
f 260 286 289
f 260 289 287
f 261 288 290
f 261 290 291
f 261 291 262
f 262 292 263
f 262 291 293
f 262 293 294
f 262 294 292
f 263 292 295
f 263 295 293
f 263 293 296
f 264 296 305
f 264 305 297
f 264 297 266
f 266 297 267
f 267 297 298
f 267 298 268
f 268 298 299
f 268 299 300
f 268 300 269
f 287 301 288
f 287 289 301
f 288 301 290
f 289 302 301
f 290 301 303
f 290 303 291
f 291 303 293
f 292 294 295
f 293 303 304
f 293 304 296
f 293 295 294
f 296 304 305
f 297 305 306
f 297 306 298
f 298 306 307
f 298 307 299
f 299 307 308
f 299 308 300
f 301 307 306
f 301 306 303
f 301 302 308
f 301 308 307
f 303 306 305
f 303 305 304

