# https://github.com/mikedh/trimesh
v 0.07236567 0.17224780 0.40642780
v 0.07236567 0.17224780 0.38642859
v -0.13769668 0.17224780 0.38725805
v 0.26495308 0.17220323 0.46511206
v 0.27454615 0.17220323 0.46298081
v 0.27916119 0.17220323 0.45730132
v 0.28019828 0.17220323 0.43500957
v -0.14651194 0.17224780 0.38642859
v 0.28004271 0.17220323 0.42945680
v 0.27988714 0.17220323 0.42719883
v 0.27604991 0.17220323 0.38645163
v 0.26339743 -0.09789220 0.38642859
v -0.14620081 0.17224780 0.38646317
v 0.27667218 0.14274719 0.47033074
v 0.28133908 0.14274719 0.47033074
v -0.22963461 0.11743549 0.38642859
v -0.22963461 -0.19646522 0.47071090
v -0.22491586 -0.20497672 0.47257718
v -0.21495980 -0.21495880 0.47493884
v 0.29010248 0.13067065 0.47014642
v 0.28097609 0.16320154 0.46194398
v 0.27988714 0.16988596 0.45935193
v 0.28045756 0.17149022 0.43500957
v 0.28035384 0.17122285 0.42813197
v 0.28123537 0.15647255 0.38645163
v 0.28896168 0.13298793 0.38645163
v 0.28994691 0.12995765 0.38645163
v 0.29077658 0.12612525 0.38645163
v 0.29088029 0.12563506 0.38645163
v 0.29269519 0.11498454 0.38645163
v 0.29767323 0.07496710 0.38645163
v 0.29896957 0.06427201 0.38645163
v 0.29917699 0.05549313 0.38645163
v 0.29850289 0.04493173 0.38645163
v 0.29565090 0.00500342 0.38645163
v 0.29456195 -0.00502322 0.38645163
v 0.29243591 -0.01513899 0.38645163
v 0.29212481 -0.01629762 0.38645163
v 0.28102794 -0.05667156 0.38645163
v 0.27910933 -0.06348968 0.38645163
v 0.27874637 -0.06469288 0.38645163
v 0.27480543 -0.07498690 0.38645163
v 0.27117559 -0.08238433 0.38645163
v 0.26868659 -0.08737537 0.38645163
v 0.25442663 -0.11580647 0.38642859
v 0.23887029 -0.10916661 0.50012219
v 0.25981948 -0.01941702 0.49007648
v 0.27947232 -0.00970232 0.49003041
v -0.11322138 -0.25818479 0.49027234
v 0.29077658 0.06324706 0.48045707
v 0.28009456 -0.00970232 0.49003041
v -0.22963461 -0.21888034 0.38642859
v -0.22963461 -0.20497672 0.47203574
v -0.22491586 -0.21495880 0.47309560
v -0.18203223 -0.24102807 0.48058379
v -0.18187666 -0.23496753 0.48046857
v -0.17492819 -0.23496753 0.48134410
v 0.29056916 0.12492205 0.47068787
v 0.29788065 0.07496710 0.46498534
v 0.29673985 0.08494918 0.46498534
v 0.29300633 0.11498454 0.46498534
v 0.29165810 0.12492205 0.46498534
v 0.29041359 0.13267599 0.46498534
v 0.28984320 0.13953866 0.45817685
v 0.28999877 0.14016254 0.45150661
v 0.29041359 0.14127661 0.43500957
v 0.29030988 0.14105380 0.42935312
v 0.29191738 0.13494869 0.43500957
v 0.29342115 0.12492205 0.43500957
v 0.30011037 0.07113469 0.43976745
v 0.30011037 0.06783704 0.43976745
v 0.30011037 0.06783704 0.44210607
v 0.29549533 0.01494093 0.45498574
v 0.29456195 0.00500342 0.45498574
v 0.29259148 -0.00502322 0.45498574
v 0.29056916 -0.01210871 0.45498574
v 0.27760556 -0.05497818 0.46498534
v 0.27392390 -0.06496026 0.46498534
v 0.27076077 -0.07160012 0.46498534
v 0.26075286 -0.09156428 0.46498534
v 0.25115979 -0.12231264 0.38642859
v 0.17498562 -0.17498593 0.50320959
v 0.24021849 -0.10916661 0.50012219
v -0.15491235 -0.24494961 0.48447764
v -0.11322138 -0.26076943 0.49027234
v 0.00993292 -0.25992274 0.49999544
v 0.08496630 -0.23496753 0.50332481
v 0.10498212 -0.22494088 0.50372803
v 0.13500583 -0.20497672 0.50370497
v 0.16502956 -0.18496801 0.50364739
v 0.29129511 0.11498454 0.47159797
v 0.29150254 0.05495837 0.48104459
v 0.28045756 -0.01504986 0.49034145
v 0.29196924 0.04493173 0.48170125
v -0.22963461 -0.22235624 0.43502110
v -0.22481215 -0.22271274 0.38642859
v -0.22963461 -0.21455774 0.47193205
v -0.17057240 -0.25025260 0.48036489
v -0.16497213 -0.25132209 0.48139021
v -0.22963461 -0.22026178 0.47026160
v 0.29191738 0.10495789 0.47240439
v 0.29253963 0.09493124 0.47318777
v 0.29316187 0.08494918 0.47391355
v 0.29368043 0.07496710 0.47463933
v 0.29497680 0.05495837 0.47497341
v 0.29803619 0.06494045 0.46498534
v 0.29902142 0.06494045 0.45498574
v 0.30011037 0.07113469 0.44210607
v 0.29871032 0.07496710 0.45498574
v 0.29694727 0.09493124 0.44500917
v 0.29321373 0.12492205 0.44500917
v 0.29248777 0.12492205 0.45498574
v 0.29072472 0.13566169 0.45490509
v 0.29150254 0.13494869 0.44500917
v 0.29969555 0.06471764 0.44526261
v 0.29767323 0.04493173 0.45498574
v 0.29451010 0.01494093 0.46498534
v 0.29347301 0.01494093 0.47497341
v 0.29342115 0.00500342 0.46498534
v 0.29228035 0.00500342 0.47497341
v 0.29067287 -0.00275052 0.47497341
v 0.29119140 -0.00560254 0.46505445
v 0.29015434 -0.01090552 0.46175966
v 0.27947232 -0.04833831 0.46498534
v 0.27905747 -0.04490697 0.47580287
v 0.27625734 -0.05497818 0.47497341
v 0.27164230 -0.06335599 0.48497301
v 0.26967183 -0.06946110 0.47842950
v 0.25919724 -0.08840032 0.48497301
v 0.25022641 -0.11050349 0.47167861
v 0.25069311 -0.11135018 0.46498534
v 0.24887818 -0.12663524 0.38642859
v 0.19494957 -0.16495928 0.50270271
v 0.24021849 -0.11081543 0.50012219
v 0.28050941 -0.02498738 0.49046817
v 0.26495308 -0.05497818 0.49417770
v -0.09128695 -0.27008307 0.49016863
v -0.06499676 -0.26495832 0.49363625
v -0.05504070 -0.26495832 0.49448875
v -0.04498094 -0.26495832 0.49534124
v 0.00993292 -0.26001185 0.49999544
v 0.03497861 -0.25497624 0.50126266
v 0.01501465 -0.25840759 0.50023735
v 0.09497420 -0.23496753 0.50335938
v 0.06495048 -0.24494961 0.50257599
v 0.12499793 -0.21491425 0.50398147
v 0.15502165 -0.19495009 0.50391233
v 0.29207295 0.03494965 0.48216206
v -0.22963461 -0.22235624 0.43793574
v -0.22408620 -0.22324750 0.38642859
v -0.21724141 -0.22823854 0.38642859
v -0.22491586 -0.22538652 0.43502110
v -0.21091515 -0.23051125 0.47088370
v -0.17150578 -0.25074279 0.47498491
v -0.16497213 -0.25328285 0.47498491
v -0.14028940 -0.26005641 0.48020360
v -0.09792433 -0.26896900 0.48879772
v -0.22963461 -0.22088566 0.46497381
v -0.22491586 -0.22373769 0.46497381
v -0.21687841 -0.22837223 0.46497381
v 0.29508048 0.04493173 0.47497341
v 0.29482123 0.03494965 0.47497341
v 0.29419896 0.02496757 0.47497341
v 0.29596204 0.03494965 0.46498534
v 0.29145068 0.01494093 0.48247311
v 0.29082844 0.00500342 0.48180494
v 0.29020619 -0.00105713 0.48073354
v 0.28932464 -0.00778612 0.47497341
v 0.27993900 -0.03987137 0.47969672
v 0.27480543 -0.05497818 0.48497301
v 0.27081263 -0.06170717 0.49106723
v 0.26915330 -0.06839159 0.48497301
v 0.25079679 -0.10172461 0.49189669
v 0.25167835 -0.10337343 0.48499605
v 0.24970788 -0.10943398 0.47834885
v 0.24768555 -0.11429133 0.47499645
v 0.24794480 -0.11638579 0.46498534
v 0.24846336 -0.12734824 0.38642859
v 0.17545229 -0.18541364 0.50254142
v 0.19494957 -0.17235672 0.50117052
v 0.20210549 -0.16495928 0.50107837
v 0.21175042 -0.15248169 0.50100923
v 0.22098050 -0.14134097 0.50067514
v 0.21501723 -0.14481688 0.50134331
v 0.14501375 -0.20497672 0.50411969
v 0.16518512 -0.19521746 0.50261056
v 0.22455847 -0.13416636 0.50075579
v 0.23021060 -0.13033396 0.50017977
v 0.23793691 -0.11749986 0.49861300
v 0.24203342 -0.11446958 0.49516845
v 0.27195343 -0.05497818 0.49200037
v 0.28014642 -0.03100336 0.49019170
v 0.29181367 0.02496757 0.48236942
v -0.10170970 -0.27035043 0.48213902
v -0.09470934 -0.27070695 0.48527253
v -0.07500466 -0.27262312 0.48499605
v -0.05504070 -0.27440566 0.48499605
v -0.04498094 -0.27529693 0.48499605
v -0.08496071 -0.27043957 0.49056032
v -0.07500466 -0.27092975 0.49117091
v -0.06499676 -0.27141994 0.49174693
v -0.04498094 -0.27231121 0.49281830
v -0.03502489 -0.26495832 0.49602094
v 0.01501465 -0.26054662 0.50023735
v 0.02497071 -0.26134872 0.50072122
v 0.08496630 -0.24374641 0.50206912
v 0.09497420 -0.24178565 0.50158525
v 0.10451543 -0.23514578 0.50212669
v 0.11499002 -0.22494088 0.50331330
v 0.03497861 -0.26117048 0.50088251
v 0.06495048 -0.25185686 0.50151610
v -0.22491586 -0.22538652 0.44498613
v -0.22963461 -0.22226712 0.44498613
v -0.21226338 -0.23131338 0.38642859
v -0.21864149 -0.22930804 0.44498613
v -0.18493608 -0.24486049 0.46497381
v -0.17249101 -0.25127754 0.46497381
v -0.16497213 -0.25542188 0.45498574
v -0.15449753 -0.25880867 0.45538893
v -0.15491235 -0.25760546 0.46497381
v -0.15491235 -0.25640225 0.47498491
v -0.14143020 -0.26041293 0.47498491
v -0.11399921 -0.26838967 0.47413242
v -0.10839892 -0.26959288 0.47689730
v -0.22963461 -0.22159867 0.45498574
v -0.19401062 -0.24209759 0.44498613
v 0.28076869 -0.03314238 0.48497301
v 0.24913746 -0.10836447 0.48499605
v 0.24063334 -0.12084207 0.49193126
v 0.24555951 -0.11495978 0.48499605
v 0.24141115 -0.12195614 0.48499605
v 0.24229267 -0.12315933 0.47499645
v 0.24778926 -0.12841776 0.38642859
v 0.24296680 -0.12409516 0.46498534
v 0.17244473 -0.19209807 0.50158525
v 0.20018688 -0.17017314 0.50022584
v 0.14501375 -0.21290892 0.50212669
v 0.15486608 -0.20497672 0.50246078
v -0.10497653 -0.27182102 0.46497381
v -0.09491677 -0.27351439 0.46497381
v -0.09491677 -0.27222207 0.47498491
v -0.10502838 -0.27070695 0.47413242
v -0.05504070 -0.27703488 0.46497381
v -0.04498094 -0.27788156 0.46497381
v -0.03502489 -0.27823806 0.46497381
v -0.03502489 -0.27690119 0.47498491
v -0.03502489 -0.27547514 0.48499605
v -0.03502489 -0.27235577 0.49314088
v 0.07303977 -0.25087649 0.50092858
v 0.10088561 -0.24044876 0.50055993
v 0.13277610 -0.22146499 0.50150460
v 0.07972900 -0.24976240 0.49947703
v -0.02501698 -0.27191013 0.49311784
v -0.01500907 -0.27133083 0.49281830
v -0.00500116 -0.27079606 0.49212709
v 0.04213453 -0.26054662 0.50052536
v -0.20490006 -0.23519035 0.38642859
v -0.18493608 -0.24677669 0.44498613
v -0.17337254 -0.25172317 0.45498574
v -0.15086770 -0.26023465 0.45232454
v -0.17425406 -0.25199056 0.44498613
v -0.16497213 -0.25582296 0.44498613
v -0.11819942 -0.26945919 0.45498574
v -0.11005827 -0.26999393 0.47021553
v -0.16497213 -0.25582296 0.38642859
v 0.21024662 -0.16032475 0.49132067
v 0.23757392 -0.12690261 0.48499605
v 0.23855916 -0.12819493 0.47499645
v 0.23928511 -0.12908620 0.46498534
v 0.24291494 -0.13519131 0.38642859
v 0.16197014 -0.20163451 0.50142395
v 0.19432732 -0.17645651 0.49535277
v 0.20086098 -0.17084159 0.49499565
v 0.15139183 -0.21103728 0.50117052
v 0.15776993 -0.20800701 0.49499565
v 0.16357765 -0.20306052 0.49499565
v -0.10497653 -0.27293509 0.45498574
v -0.09491677 -0.27440566 0.45498574
v -0.08496071 -0.27440566 0.46497381
v -0.03502489 -0.28296173 0.38642859
v -0.02501698 -0.28300628 0.38642859
v -0.02501698 -0.27752507 0.46497381
v -0.02501698 -0.27614361 0.47498491
v -0.02501698 -0.27467304 0.48499605
v 0.09497420 -0.24468222 0.49499565
v 0.10213012 -0.24116176 0.49499565
v 0.12012361 -0.23002104 0.50009912
v 0.07583991 -0.25172317 0.49568686
v 0.08149205 -0.25043082 0.49280679
v 0.08854425 -0.24949501 0.48499605
v 0.08486259 -0.24864833 0.49568686
v 0.04524579 -0.26139331 0.49512237
v 0.05105349 -0.26032379 0.49187365
v 0.00319184 -0.27035043 0.49111331
v 0.03497861 -0.26415619 0.49498412
v -0.17923209 -0.24962871 0.44498613
v -0.15268263 -0.26090312 0.38642859
v -0.14350438 -0.26366600 0.38642859
v -0.10497653 -0.27480674 0.38642859
v -0.15766063 -0.25916517 0.38642859
v -0.11322138 -0.27084064 0.45498574
v 0.20687610 -0.16611792 0.48499605
v 0.20796505 -0.16741025 0.47499645
v 0.21688402 -0.15600216 0.47499645
v 0.23010689 -0.14018235 0.47068787
v 0.24089262 -0.13790965 0.38642859
v 0.19054195 -0.18046716 0.49226534
v 0.19645336 -0.17694670 0.48499605
v 0.19769785 -0.17801622 0.47499645
v 0.20293516 -0.17306973 0.47499645
v 0.13946532 -0.21945965 0.49833652
v 0.15274006 -0.21206222 0.49499565
v 0.16057009 -0.21050252 0.47238135
v -0.09491677 -0.27725768 0.38642859
v -0.08418290 -0.27877283 0.38642859
v -0.01500907 -0.28202590 0.38642859
v 0.01646658 -0.27846086 0.38642859
v 0.02497071 -0.27748048 0.38642859
v 0.00500675 -0.27396002 0.46497381
v 0.03077840 -0.27017218 0.47144821
v 0.02450402 -0.27052867 0.47486973
v 0.00982921 -0.26994938 0.48989215
v 0.09497420 -0.24664299 0.48499605
v 0.10384131 -0.24209759 0.48499605
v 0.11089352 -0.24049333 0.47271544
v 0.13567995 -0.22240080 0.49500716
v 0.04493467 -0.26353231 0.48499605
v 0.08984062 -0.24994065 0.47977737
v 0.06469121 -0.25876409 0.47545725
v 0.03497861 -0.26669627 0.48499605
v 0.02450402 -0.26905811 0.48439699
v 0.20884657 -0.17872921 0.38642859
v 0.20946881 -0.17801622 0.38642859
v 0.21289122 -0.17373818 0.38642859
v 0.19837198 -0.18857761 0.38642859
v 0.20386854 -0.18358657 0.38642859
v 0.20817247 -0.17948678 0.38642859
v 0.14433964 -0.21736521 0.49500716
v 0.14667308 -0.21807821 0.48499605
v 0.14838427 -0.21901403 0.47499645
v 0.15585132 -0.21353279 0.47541118
v 0.16093305 -0.22070742 0.38642859
v 0.03497861 -0.27605447 0.38642859
v 0.03446007 -0.26847881 0.47486973
v 0.02756343 -0.26968199 0.47811845
v 0.04503838 -0.27355897 0.38642859
v 0.04612732 -0.27324700 0.38642859
v 0.06121696 -0.26036835 0.47243893
v 0.09476679 -0.24838094 0.47586048
v 0.10586364 -0.24272147 0.47561854
v 0.10669331 -0.25207967 0.38642859
v 0.11457518 -0.24775706 0.38642859
v 0.13018337 -0.23006561 0.47059572
v 0.13412431 -0.22716902 0.47435132
v 0.14340626 -0.22182149 0.47499645
v 0.14055426 -0.22026178 0.49166629
v 0.04493467 -0.26513660 0.47498491
v 0.09124069 -0.25047541 0.47310713
v 0.08589968 -0.25185686 0.47586048
v 0.14817686 -0.22890697 0.38642859
v 0.15507351 -0.22462894 0.38642859
v 0.07589177 -0.26366600 0.38642859
v 0.08989247 -0.25912058 0.38642859
v 0.10570808 -0.25256985 0.38642859
v 0.09430010 -0.25760546 0.38642859
f 1 2 8
f 1 8 13
f 1 13 3
f 1 3 4
f 1 4 5
f 1 5 6
f 1 6 7
f 1 7 2
f 2 7 9
f 2 9 10
f 2 10 11
f 2 11 12
f 2 12 45
f 2 45 81
f 2 81 132
f 2 132 178
f 2 178 233
f 2 233 270
f 2 270 306
f 2 306 334
f 2 334 333
f 2 333 332
f 2 332 337
f 2 337 336
f 2 336 335
f 2 335 342
f 2 342 361
f 2 361 360
f 2 360 352
f 2 352 351
f 2 351 364
f 2 364 365
f 2 365 363
f 2 363 362
f 2 362 347
f 2 347 346
f 2 346 343
f 2 343 318
f 2 318 317
f 2 317 316
f 2 316 281
f 2 281 280
f 2 280 315
f 2 315 314
f 2 314 299
f 2 299 298
f 2 298 297
f 2 297 300
f 2 300 265
f 2 265 257
f 2 257 214
f 2 214 151
f 2 151 150
f 2 150 96
f 2 96 52
f 2 52 16
f 2 16 8
f 3 13 4
f 4 14 15
f 4 15 5
f 4 13 8
f 4 8 16
f 4 16 17
f 4 17 18
f 4 18 19
f 4 19 14
f 5 15 20
f 5 20 21
f 5 21 22
f 5 22 6
f 6 22 23
f 6 23 7
f 7 23 9
f 9 23 24
f 9 24 10
f 10 24 11
f 11 24 25
f 11 25 12
f 12 25 26
f 12 26 27
f 12 27 28
f 12 28 29
f 12 29 30
f 12 30 31
f 12 31 32
f 12 32 33
f 12 33 34
f 12 34 35
f 12 35 36
f 12 36 37
f 12 37 38
f 12 38 39
f 12 39 40
f 12 40 41
f 12 41 42
f 12 42 43
f 12 43 44
f 12 44 45
f 14 46 47
f 14 47 48
f 14 48 51
f 14 51 15
f 14 19 49
f 14 49 46
f 15 50 20
f 15 51 50
f 16 52 95
f 16 95 149
f 16 149 213
f 16 213 225
f 16 225 158
f 16 158 100
f 16 100 97
f 16 97 53
f 16 53 17
f 17 53 18
f 18 53 19
f 19 53 54
f 19 54 55
f 19 55 56
f 19 56 57
f 19 57 49
f 20 50 58
f 20 58 59
f 20 59 60
f 20 60 61
f 20 61 62
f 20 62 63
f 20 63 64
f 20 64 22
f 20 22 21
f 22 64 65
f 22 65 66
f 22 66 23
f 23 66 24
f 24 66 67
f 24 67 26
f 24 26 25
f 26 67 27
f 27 67 28
f 28 67 29
f 29 67 68
f 29 68 30
f 30 68 69
f 30 69 31
f 31 69 32
f 32 70 33
f 32 69 70
f 33 70 71
f 33 71 34
f 34 71 72
f 34 72 35
f 35 72 73
f 35 73 74
f 35 74 36
f 36 74 75
f 36 75 37
f 37 75 38
f 38 75 39
f 39 75 40
f 40 75 76
f 40 76 77
f 40 77 41
f 41 77 78
f 41 78 42
f 42 78 79
f 42 79 43
f 43 79 44
f 44 79 80
f 44 80 45
f 45 80 81
f 46 82 83
f 46 83 51
f 46 51 48
f 46 48 47
f 46 49 82
f 49 57 84
f 49 84 85
f 49 85 141
f 49 141 86
f 49 86 87
f 49 87 88
f 49 88 89
f 49 89 90
f 49 90 82
f 50 91 58
f 50 51 92
f 50 92 91
f 51 83 93
f 51 93 94
f 51 94 92
f 52 96 95
f 53 97 54
f 54 97 55
f 55 98 99
f 55 99 85
f 55 85 84
f 55 84 56
f 55 97 100
f 55 100 98
f 56 84 57
f 58 91 59
f 59 91 101
f 59 101 102
f 59 102 103
f 59 103 104
f 59 104 105
f 59 105 106
f 59 106 107
f 59 107 108
f 59 108 109
f 59 109 60
f 60 109 61
f 61 109 110
f 61 110 111
f 61 111 112
f 61 112 62
f 62 112 63
f 63 112 64
f 64 112 113
f 64 113 114
f 64 114 65
f 65 114 68
f 65 68 66
f 66 68 67
f 68 114 111
f 68 111 69
f 69 111 108
f 69 108 70
f 70 108 72
f 70 72 71
f 72 108 107
f 72 107 115
f 72 115 73
f 73 115 116
f 73 116 117
f 73 117 74
f 74 117 118
f 74 118 119
f 74 119 75
f 75 119 120
f 75 120 121
f 75 121 122
f 75 122 123
f 75 123 124
f 75 124 77
f 75 77 76
f 77 124 125
f 77 125 126
f 77 126 78
f 78 127 79
f 78 126 127
f 79 127 128
f 79 128 129
f 79 129 130
f 79 130 80
f 80 130 131
f 80 131 81
f 81 131 132
f 82 90 133
f 82 133 83
f 83 134 135
f 83 135 136
f 83 136 93
f 83 133 134
f 85 137 138
f 85 138 139
f 85 139 140
f 85 140 141
f 85 99 137
f 86 141 142
f 86 142 143
f 86 143 87
f 87 144 88
f 87 143 142
f 87 142 145
f 87 145 144
f 88 144 146
f 88 146 89
f 89 146 90
f 90 146 147
f 90 147 133
f 91 92 101
f 92 94 104
f 92 104 103
f 92 103 102
f 92 102 101
f 93 135 148
f 93 148 94
f 93 136 135
f 94 148 105
f 94 105 104
f 95 96 150
f 95 150 151
f 95 151 152
f 95 152 212
f 95 212 149
f 98 100 153
f 98 153 154
f 98 154 155
f 98 155 156
f 98 156 157
f 98 157 137
f 98 137 99
f 100 158 159
f 100 159 160
f 100 160 153
f 105 161 106
f 105 148 161
f 106 161 162
f 106 162 163
f 106 163 164
f 106 164 116
f 106 116 107
f 107 116 115
f 108 111 110
f 108 110 109
f 111 114 113
f 111 113 112
f 116 164 117
f 117 164 118
f 118 164 163
f 118 163 165
f 118 165 166
f 118 166 120
f 118 120 119
f 120 166 167
f 120 167 121
f 121 167 168
f 121 168 122
f 122 168 169
f 122 169 125
f 122 125 123
f 123 125 124
f 125 170 126
f 125 169 170
f 126 170 127
f 127 171 172
f 127 172 128
f 127 170 171
f 128 172 129
f 129 173 174
f 129 174 175
f 129 175 130
f 129 172 173
f 130 175 176
f 130 176 177
f 130 177 131
f 131 177 132
f 132 177 178
f 133 179 180
f 133 180 181
f 133 181 182
f 133 182 183
f 133 183 184
f 133 184 134
f 133 147 185
f 133 185 186
f 133 186 179
f 134 184 187
f 134 187 188
f 134 188 189
f 134 189 190
f 134 190 173
f 134 173 171
f 134 171 191
f 134 191 135
f 135 192 165
f 135 165 193
f 135 193 148
f 135 191 192
f 137 157 194
f 137 194 195
f 137 195 196
f 137 196 197
f 137 197 198
f 137 198 199
f 137 199 140
f 137 140 139
f 137 139 138
f 140 199 200
f 140 200 201
f 140 201 202
f 140 202 203
f 140 203 141
f 141 204 205
f 141 205 142
f 141 203 204
f 142 205 145
f 144 206 207
f 144 207 208
f 144 208 209
f 144 209 185
f 144 185 146
f 144 145 210
f 144 210 211
f 144 211 206
f 145 205 210
f 146 185 147
f 148 193 161
f 149 212 213
f 151 214 152
f 152 214 215
f 152 215 212
f 153 160 154
f 154 160 216
f 154 216 217
f 154 217 218
f 154 218 155
f 155 218 219
f 155 219 220
f 155 220 221
f 155 221 156
f 156 222 223
f 156 223 224
f 156 224 194
f 156 194 157
f 156 221 222
f 158 225 212
f 158 212 215
f 158 215 159
f 159 215 160
f 160 215 226
f 160 226 216
f 161 193 162
f 162 193 165
f 162 165 163
f 165 192 166
f 166 192 167
f 167 192 227
f 167 227 169
f 167 169 168
f 169 227 170
f 170 227 192
f 170 192 171
f 171 192 191
f 171 173 172
f 173 228 174
f 173 190 229
f 173 229 228
f 174 228 175
f 175 228 176
f 176 230 231
f 176 231 232
f 176 232 177
f 176 228 230
f 177 233 178
f 177 232 234
f 177 234 233
f 179 186 180
f 180 186 235
f 180 235 236
f 180 236 181
f 181 236 182
f 182 236 183
f 183 188 184
f 183 236 188
f 184 188 187
f 185 237 238
f 185 238 186
f 185 209 237
f 186 238 235
f 188 229 190
f 188 190 189
f 188 236 229
f 194 239 240
f 194 240 241
f 194 241 195
f 194 224 242
f 194 242 239
f 195 241 196
f 196 241 197
f 197 241 198
f 198 241 243
f 198 243 244
f 198 244 245
f 198 245 246
f 198 246 247
f 198 247 202
f 198 202 201
f 198 201 200
f 198 200 199
f 202 247 248
f 202 248 205
f 202 205 203
f 203 205 204
f 205 248 210
f 206 249 207
f 206 211 249
f 207 250 251
f 207 251 208
f 207 249 252
f 207 252 250
f 208 251 237
f 208 237 209
f 210 248 253
f 210 253 254
f 210 254 255
f 210 255 256
f 210 256 211
f 211 256 249
f 212 225 213
f 214 257 215
f 215 257 226
f 216 226 258
f 216 258 217
f 217 258 259
f 217 259 218
f 218 260 219
f 218 259 261
f 218 261 262
f 218 262 260
f 219 260 220
f 220 260 222
f 220 222 221
f 222 263 264
f 222 264 223
f 222 260 263
f 223 264 224
f 224 264 239
f 224 239 242
f 226 257 265
f 226 265 258
f 228 229 230
f 229 231 230
f 229 236 266
f 229 266 231
f 231 266 267
f 231 267 268
f 231 268 232
f 232 268 269
f 232 269 234
f 233 234 270
f 234 269 270
f 235 238 271
f 235 271 236
f 236 272 273
f 236 273 266
f 236 271 274
f 236 274 275
f 236 275 276
f 236 276 272
f 237 274 238
f 237 251 274
f 238 274 271
f 239 277 240
f 239 264 277
f 240 278 279
f 240 279 241
f 240 277 278
f 241 279 243
f 243 279 278
f 243 278 244
f 244 278 280
f 244 280 245
f 245 280 281
f 245 281 282
f 245 282 246
f 246 282 283
f 246 283 247
f 247 283 284
f 247 284 255
f 247 255 254
f 247 254 253
f 247 253 248
f 249 256 252
f 250 252 285
f 250 285 286
f 250 286 287
f 250 287 251
f 251 287 274
f 252 288 289
f 252 289 290
f 252 290 291
f 252 291 285
f 252 256 292
f 252 292 293
f 252 293 288
f 255 294 256
f 255 284 294
f 256 294 295
f 256 295 292
f 258 265 296
f 258 296 259
f 259 296 261
f 260 262 297
f 260 297 298
f 260 298 299
f 260 299 263
f 261 296 265
f 261 265 300
f 261 300 262
f 262 300 297
f 263 299 301
f 263 301 264
f 264 301 277
f 266 273 302
f 266 302 303
f 266 303 304
f 266 304 305
f 266 305 267
f 267 305 268
f 268 305 269
f 269 305 306
f 269 306 270
f 272 307 273
f 272 276 307
f 273 307 308
f 273 308 309
f 273 309 310
f 273 310 303
f 273 303 302
f 274 287 311
f 274 311 312
f 274 312 275
f 275 313 276
f 275 312 313
f 276 313 308
f 276 308 307
f 277 301 299
f 277 299 314
f 277 314 278
f 278 314 315
f 278 315 280
f 281 316 282
f 282 316 317
f 282 317 318
f 282 318 319
f 282 319 320
f 282 320 321
f 282 321 283
f 283 321 284
f 284 321 322
f 284 322 294
f 285 323 286
f 285 291 290
f 285 290 323
f 286 323 324
f 286 324 325
f 286 325 326
f 286 326 287
f 287 326 311
f 288 293 327
f 288 327 289
f 289 327 290
f 290 328 323
f 290 327 329
f 290 329 328
f 292 295 330
f 292 330 293
f 293 330 327
f 294 322 295
f 295 322 331
f 295 331 330
f 303 310 332
f 303 332 333
f 303 333 334
f 303 334 305
f 303 305 304
f 305 334 306
f 308 313 309
f 309 335 336
f 309 336 310
f 309 313 335
f 310 336 337
f 310 337 332
f 311 326 338
f 311 338 312
f 312 338 339
f 312 339 340
f 312 340 341
f 312 341 313
f 313 341 340
f 313 340 342
f 313 342 335
f 318 343 320
f 318 320 319
f 320 344 330
f 320 330 345
f 320 345 321
f 320 343 346
f 320 346 347
f 320 347 348
f 320 348 344
f 321 345 322
f 322 345 331
f 323 328 349
f 323 349 324
f 324 349 350
f 324 350 325
f 325 350 349
f 325 349 351
f 325 351 352
f 325 352 353
f 325 353 354
f 325 354 326
f 326 355 340
f 326 340 339
f 326 339 356
f 326 356 338
f 326 354 355
f 327 330 357
f 327 357 348
f 327 348 329
f 328 358 349
f 328 329 359
f 328 359 358
f 329 348 359
f 330 331 345
f 330 344 357
f 338 356 339
f 340 355 353
f 340 353 360
f 340 360 361
f 340 361 342
f 344 348 357
f 347 362 348
f 348 362 363
f 348 363 358
f 348 358 359
f 349 358 351
f 351 358 364
f 352 360 353
f 353 355 354
f 358 363 365
f 358 365 364

