# https://github.com/mikedh/trimesh
v -0.38123721 0.05496530 0.40500292
v -0.38079202 0.05515845 0.41559768
v -0.38064361 0.06497063 0.41280648
v -0.38006485 0.08104096 0.41020811
v -0.38006485 0.08104096 0.40925255
v -0.38064361 0.06578187 0.40413958
v -0.38036165 0.05473351 0.39473507
v -0.38006485 0.05121814 0.38936225
v -0.38006485 0.04940250 0.38936225
v -0.38028747 0.04762549 0.39500329
v -0.38061392 0.04445778 0.40479338
v -0.38083655 0.04499861 0.41500255
v -0.38030231 0.04499861 0.42034185
v -0.38021326 0.05195212 0.42022449
v -0.37162107 0.12496393 0.41107982
v -0.37062681 0.13203335 0.41049308
v -0.37610266 0.11499725 0.40500292
v -0.37737888 0.10499192 0.40500292
v -0.38028747 0.07497595 0.40711516
v -0.37607297 0.11499725 0.39500329
v -0.37691885 0.10499192 0.39500329
v -0.37997583 0.06964493 0.40023360
v -0.38021326 0.06300046 0.39788666
v -0.37987196 0.05790123 0.39122304
v -0.37953064 0.05396090 0.38643697
v -0.37871444 0.03499328 0.39500329
v -0.37921900 0.04646657 0.38643697
v -0.37368378 -0.00502801 0.39500329
v -0.37496001 0.00497731 0.39500329
v -0.37622136 0.01498264 0.39500329
v -0.37990162 0.04074924 0.40131488
v -0.38013905 0.03877908 0.40797850
v -0.38024294 0.03715660 0.41500255
v -0.38018358 0.03742701 0.42023289
v -0.37068617 -0.01503334 0.43058455
v -0.37044871 -0.00788668 0.43030795
v -0.36552194 -0.00475760 0.43117967
v -0.37537551 0.05515845 0.42081124
v -0.36498770 0.12496393 0.41250473
v -0.36491349 0.13520104 0.41088703
v -0.35796851 0.14872175 0.40981415
v -0.35498574 0.16498524 0.40707326
v -0.35562384 0.17224780 0.40476823
v -0.35793883 0.17224780 0.40340197
v -0.36096615 0.17224780 0.40159985
v -0.37123522 0.13520104 0.40491071
v -0.37403995 0.12496393 0.40500292
v -0.37421802 0.12496393 0.39500329
v -0.37605813 0.10499192 0.38643697
v -0.37509355 0.11499725 0.38643697
v -0.37593943 0.10642125 0.38643697
v -0.37677044 0.09498660 0.38643697
v -0.37969387 0.06578187 0.39473507
v -0.37746790 0.08498127 0.38643697
v -0.37089390 -0.00502801 0.38643697
v -0.37163591 -0.00502801 0.38754338
v -0.37070101 -0.01503334 0.38891801
v -0.37006289 -0.02020984 0.38989031
v -0.37187332 -0.01503334 0.39500329
v -0.37445545 -0.00502801 0.40500292
v -0.37519744 -0.00502801 0.41500255
v -0.37644398 0.00497731 0.41500255
v -0.37970871 0.03217325 0.41500255
v -0.37245208 -0.01503334 0.42500219
v -0.37044871 -0.02198684 0.43045881
v -0.35130548 -0.07498802 0.44107035
v -0.35166162 -0.06498270 0.44091946
v -0.36498770 -0.01503334 0.43256268
v -0.35498574 -0.02500003 0.43563047
v -0.35498574 -0.01503334 0.43431452
v -0.36196041 0.00497731 0.43043369
v -0.36006093 0.01007655 0.43000621
v -0.35130548 0.15073055 0.41010752
v -0.34499860 0.17224780 0.40741691
v -0.34774396 0.17224780 0.40710679
v -0.36109969 0.17224780 0.40076166
v -0.37024096 0.14091837 0.40150768
v -0.37024096 0.14091837 0.39802077
v -0.37129459 0.13558736 0.39481890
v -0.37311989 0.12496393 0.38643697
v -0.37482643 0.11642658 0.38643697
v -0.37038937 -0.00807983 0.38643697
v -0.36911315 -0.01503334 0.38643697
v -0.37034485 -0.02105971 0.39500329
v -0.36659038 -0.02364796 0.38643697
v -0.34631932 -0.07498802 0.38643697
v -0.35019249 -0.08031904 0.39968878
v -0.36040223 -0.05123020 0.39911044
v -0.35636583 -0.06498270 0.40500292
v -0.37263018 -0.01503334 0.40500292
v -0.37322375 -0.01503334 0.41500255
v -0.37086424 -0.02306850 0.42500219
v -0.36086226 -0.05258228 0.43185022
v -0.35044476 -0.08082124 0.44051713
v -0.32100275 -0.13142732 0.45094424
v -0.32214543 -0.12497601 0.45128790
v -0.32388169 -0.11497068 0.45075983
v -0.32598892 -0.10488810 0.44956961
v -0.34499860 -0.06498270 0.44226897
v -0.35091963 -0.05744973 0.44030759
v -0.34893113 -0.05076664 0.43988010
v -0.34226808 -0.04871921 0.44020700
v -0.23500657 -0.19655851 0.47049087
v -0.23500657 -0.19153652 0.46975327
v -0.28776178 0.17224780 0.39680541
v -0.22964942 -0.19648123 0.47072560
v -0.36127776 0.17224780 0.39500329
v -0.36105517 0.17224780 0.39320117
v -0.36601165 0.15497991 0.39500329
v -0.36884603 0.14454964 0.39481890
v -0.36765885 0.14493597 0.38643697
v -0.37071583 -0.02218000 0.40500292
v -0.36072871 -0.05219597 0.40500292
v -0.34240165 -0.08387306 0.38643697
v -0.33238482 -0.10148861 0.38643697
v -0.31804967 -0.12652123 0.38643697
v -0.31376100 -0.13359064 0.38643697
v -0.31304866 -0.13474955 0.38643697
v -0.32088405 -0.13135006 0.40864906
v -0.32147765 -0.13227719 0.41500255
v -0.32589987 -0.12497601 0.41500255
v -0.32941690 -0.11898827 0.41500255
v -0.33998278 -0.09998202 0.41056013
v -0.35044476 -0.08078261 0.40500292
v -0.35280430 -0.07498802 0.40500292
v -0.35691491 -0.06498270 0.41500255
v -0.37093842 -0.02287535 0.41500255
v -0.36932090 -0.02805185 0.42500219
v -0.36716914 -0.03496672 0.42500219
v -0.36402312 -0.04497205 0.42500219
v -0.35317528 -0.07498802 0.43499345
v -0.35071188 -0.08128481 0.43499345
v -0.34011632 -0.10021380 0.44027406
v -0.32162604 -0.13227719 0.44499308
v -0.31784192 -0.13729917 0.44499308
v -0.28034192 -0.18033364 0.46034038
v -0.29055166 -0.16117287 0.46022302
v -0.29055166 -0.15862325 0.46022302
v -0.31499267 -0.12497601 0.45316544
v -0.28500161 -0.15661445 0.46049124
v -0.24196640 -0.19864455 0.47018915
v -0.22964942 -0.20497996 0.47205830
v -0.25428337 0.17224780 0.38970593
v -0.22964942 0.11746960 0.38643697
v -0.24770938 0.17224780 0.38643697
v -0.24981661 0.17224780 0.38761881
v -0.25290328 0.17224780 0.38934550
v -0.36017963 0.17224780 0.38643697
v -0.35951185 -0.05853138 0.42500219
v -0.30981362 -0.13973290 0.38643697
v -0.31779739 -0.13726054 0.41500255
v -0.32164088 -0.13247034 0.42500219
v -0.31810901 -0.13749233 0.42500219
v -0.32610762 -0.12497601 0.42500219
v -0.33234030 -0.11415944 0.43499345
v -0.33734131 -0.10527440 0.43499345
v -0.34311396 -0.09499867 0.43499345
v -0.35071188 -0.08124617 0.42500219
v -0.35063770 -0.08113028 0.41500255
v -0.32624120 -0.12497601 0.43499345
v -0.35326433 -0.07498802 0.41500255
v -0.35736009 -0.06498270 0.42500219
v -0.35356110 -0.07498802 0.42500219
v -0.34796655 -0.08626816 0.43499345
v -0.32171506 -0.13243172 0.43499345
v -0.31797546 -0.13745369 0.43499345
v -0.31310803 -0.14363459 0.42500219
v -0.31284091 -0.14332554 0.44499308
v -0.28062388 -0.18060407 0.45499271
v -0.26977605 -0.18972090 0.45724744
v -0.23016882 -0.22012317 0.47013885
v -0.24040823 -0.21031100 0.47024781
v -0.28203365 -0.17496401 0.46098578
v -0.24177349 -0.20497996 0.47033164
v -0.23500657 -0.20497996 0.47142968
v -0.22964942 -0.21456036 0.47194934
v -0.22964942 -0.21888697 0.38643697
v -0.30537653 -0.14498666 0.38643697
v -0.30123624 -0.14985411 0.38643697
v -0.28703463 -0.16650391 0.38643697
v -0.28274596 -0.17152587 0.38643697
v -0.28142524 -0.17307109 0.38643697
v -0.27775982 -0.17735910 0.38643697
v -0.29035872 -0.17040560 0.41951203
v -0.29040325 -0.17044422 0.42500219
v -0.29000258 -0.16998065 0.44974563
v -0.28080195 -0.18083584 0.44499308
v -0.27569708 -0.18601236 0.43499345
v -0.27069610 -0.19053212 0.43499345
v -0.27005801 -0.19002992 0.45058382
v -0.27403504 -0.18632141 0.45434731
v -0.26587319 -0.19308174 0.45434731
v -0.23051015 -0.22035494 0.46499234
v -0.22964942 -0.22089577 0.46499234
v -0.22964942 -0.22027770 0.47027296
v -0.22964942 -0.22236374 0.43499345
v -0.23154891 -0.22112757 0.43499345
v -0.23654990 -0.21745765 0.43499345
v -0.24318326 -0.21247432 0.43499345
v -0.27060705 -0.19045487 0.42755029
v -0.23411620 -0.21537161 0.38643697
v -0.27348596 -0.18234244 0.38643697
v -0.27275884 -0.18315369 0.38643697
v -0.26803979 -0.18813702 0.38643697
v -0.28051999 -0.18052679 0.41927734
v -0.28089100 -0.18095174 0.42500219
v -0.28589198 -0.17542756 0.42500219
v -0.28093553 -0.18102899 0.43499345
v -0.28663397 -0.17403686 0.44584805
v -0.24818425 -0.20853397 0.43499345
v -0.25357106 -0.20281667 0.45499271
v -0.23097017 -0.22074124 0.45499271
v -0.22964942 -0.22159111 0.45499271
v -0.22964942 -0.22240236 0.43791035
v -0.23138568 -0.22108892 0.44499308
v -0.26375112 -0.19180694 0.38643697
v -0.26303881 -0.19238639 0.38643697
v -0.26213360 -0.19312039 0.38643697
v -0.25674677 -0.19740838 0.38643697
v -0.24532017 -0.20648655 0.38643697
v -0.24045275 -0.21034962 0.38643697
v -0.23514013 -0.21456036 0.38643697
v -0.22964942 -0.22224784 0.44499308
f 1 2 3
f 1 3 4
f 1 4 5
f 1 5 6
f 1 6 7
f 1 7 8
f 1 8 9
f 1 9 10
f 1 10 11
f 1 11 12
f 1 12 2
f 2 12 13
f 2 13 14
f 2 14 3
f 3 14 4
f 4 15 16
f 4 16 17
f 4 17 18
f 4 18 5
f 4 14 15
f 5 19 6
f 5 18 20
f 5 20 21
f 5 21 19
f 6 22 23
f 6 23 24
f 6 24 8
f 6 8 7
f 6 19 22
f 8 24 25
f 8 25 9
f 9 26 10
f 9 25 27
f 9 27 28
f 9 28 29
f 9 29 30
f 9 30 26
f 10 26 31
f 10 31 11
f 11 31 32
f 11 32 33
f 11 33 12
f 12 33 34
f 12 34 13
f 13 34 35
f 13 35 14
f 14 35 36
f 14 36 37
f 14 37 38
f 14 38 16
f 14 16 15
f 16 39 40
f 16 40 41
f 16 41 42
f 16 42 43
f 16 43 44
f 16 44 45
f 16 45 46
f 16 46 47
f 16 47 17
f 16 38 39
f 17 47 48
f 17 48 20
f 17 20 18
f 19 21 49
f 19 49 22
f 20 48 50
f 20 50 51
f 20 51 21
f 21 51 49
f 22 49 23
f 23 49 52
f 23 52 53
f 23 53 24
f 24 53 52
f 24 52 54
f 24 54 25
f 25 54 52
f 25 52 49
f 25 49 51
f 25 51 50
f 25 50 81
f 25 81 80
f 25 80 111
f 25 111 148
f 25 148 145
f 25 145 144
f 25 144 177
f 25 177 201
f 25 201 222
f 25 222 221
f 25 221 220
f 25 220 219
f 25 219 218
f 25 218 217
f 25 217 216
f 25 216 204
f 25 204 203
f 25 203 202
f 25 202 183
f 25 183 182
f 25 182 181
f 25 181 180
f 25 180 179
f 25 179 178
f 25 178 150
f 25 150 118
f 25 118 117
f 25 117 116
f 25 116 115
f 25 115 114
f 25 114 86
f 25 86 85
f 25 85 83
f 25 83 82
f 25 82 55
f 25 55 27
f 26 30 31
f 27 55 56
f 27 56 57
f 27 57 28
f 28 57 58
f 28 58 59
f 28 59 60
f 28 60 29
f 29 60 30
f 30 60 61
f 30 61 31
f 31 61 62
f 31 62 32
f 32 63 33
f 32 62 63
f 33 63 34
f 34 63 62
f 34 62 61
f 34 61 64
f 34 64 65
f 34 65 35
f 35 65 66
f 35 66 67
f 35 67 36
f 36 67 68
f 36 68 37
f 37 68 69
f 37 69 70
f 37 70 71
f 37 71 38
f 38 71 39
f 39 41 40
f 39 71 72
f 39 72 70
f 39 70 41
f 41 73 74
f 41 74 75
f 41 75 42
f 41 70 73
f 42 75 43
f 43 75 74
f 43 74 105
f 43 105 143
f 43 143 147
f 43 147 146
f 43 146 145
f 43 145 148
f 43 148 108
f 43 108 107
f 43 107 76
f 43 76 45
f 43 45 44
f 45 76 77
f 45 77 46
f 46 77 47
f 47 77 48
f 48 77 78
f 48 78 79
f 48 79 80
f 48 80 81
f 48 81 50
f 55 82 56
f 56 82 57
f 57 83 58
f 57 82 83
f 58 84 59
f 58 83 85
f 58 85 86
f 58 86 87
f 58 87 88
f 58 88 89
f 58 89 84
f 59 84 90
f 59 90 60
f 60 90 61
f 61 90 91
f 61 91 64
f 64 91 92
f 64 92 65
f 65 92 93
f 65 93 94
f 65 94 66
f 66 94 95
f 66 95 96
f 66 96 97
f 66 97 67
f 67 97 98
f 67 98 99
f 67 99 100
f 67 100 68
f 68 100 101
f 68 101 69
f 69 101 70
f 70 72 71
f 70 101 99
f 70 99 102
f 70 102 103
f 70 103 104
f 70 104 73
f 73 104 74
f 74 104 106
f 74 106 105
f 76 107 77
f 77 107 78
f 78 107 108
f 78 108 109
f 78 109 110
f 78 110 79
f 79 110 80
f 80 110 111
f 84 112 90
f 84 89 113
f 84 113 112
f 86 114 87
f 87 114 115
f 87 115 116
f 87 116 117
f 87 117 118
f 87 118 119
f 87 119 120
f 87 120 121
f 87 121 122
f 87 122 123
f 87 123 124
f 87 124 125
f 87 125 89
f 87 89 88
f 89 126 113
f 89 125 126
f 90 112 91
f 91 112 127
f 91 127 92
f 92 127 128
f 92 128 93
f 93 128 129
f 93 129 130
f 93 130 131
f 93 131 94
f 94 131 132
f 94 132 133
f 94 133 95
f 95 134 135
f 95 135 136
f 95 136 137
f 95 137 96
f 95 133 134
f 96 137 138
f 96 138 97
f 97 138 139
f 97 139 98
f 98 139 138
f 98 138 140
f 98 140 99
f 99 101 100
f 99 140 102
f 102 140 141
f 102 141 103
f 103 141 142
f 103 142 104
f 104 142 106
f 105 106 143
f 106 142 176
f 106 176 195
f 106 195 194
f 106 194 213
f 106 213 223
f 106 223 214
f 106 214 196
f 106 196 177
f 106 177 144
f 106 144 145
f 106 145 146
f 106 146 147
f 106 147 143
f 108 148 111
f 108 111 110
f 108 110 109
f 112 113 127
f 113 126 149
f 113 149 127
f 118 150 119
f 119 150 151
f 119 151 120
f 120 152 121
f 120 151 153
f 120 153 152
f 121 152 154
f 121 154 122
f 122 155 156
f 122 156 157
f 122 157 158
f 122 158 159
f 122 159 123
f 122 154 160
f 122 160 155
f 123 159 124
f 124 159 161
f 124 161 125
f 125 161 126
f 126 162 149
f 126 161 162
f 127 149 130
f 127 130 129
f 127 129 128
f 130 149 131
f 131 163 132
f 131 149 162
f 131 162 163
f 132 163 158
f 132 158 164
f 132 164 133
f 133 164 157
f 133 157 156
f 133 156 155
f 133 155 160
f 133 160 134
f 134 160 165
f 134 165 166
f 134 166 135
f 135 166 167
f 135 167 168
f 135 168 136
f 136 169 170
f 136 170 171
f 136 171 172
f 136 172 173
f 136 173 137
f 136 168 169
f 137 173 172
f 137 172 174
f 137 174 138
f 138 174 141
f 138 141 140
f 141 174 175
f 141 175 142
f 142 175 176
f 150 178 151
f 151 167 153
f 151 178 179
f 151 179 180
f 151 180 181
f 151 181 182
f 151 182 183
f 151 183 184
f 151 184 167
f 152 165 160
f 152 160 154
f 152 153 165
f 153 167 166
f 153 166 165
f 157 164 158
f 158 163 159
f 159 163 161
f 161 163 162
f 167 184 185
f 167 185 168
f 168 185 186
f 168 186 169
f 169 187 188
f 169 188 189
f 169 189 190
f 169 190 191
f 169 191 170
f 169 186 187
f 170 191 190
f 170 190 192
f 170 192 193
f 170 193 171
f 171 193 194
f 171 194 195
f 171 195 172
f 172 195 176
f 172 176 174
f 174 176 175
f 177 196 197
f 177 197 198
f 177 198 199
f 177 199 200
f 177 200 201
f 183 202 184
f 184 202 203
f 184 203 204
f 184 204 205
f 184 205 206
f 184 206 207
f 184 207 185
f 185 207 208
f 185 208 187
f 185 187 209
f 185 209 186
f 186 209 187
f 187 208 188
f 188 208 206
f 188 206 200
f 188 200 189
f 189 200 210
f 189 210 190
f 190 210 211
f 190 211 192
f 192 211 193
f 193 212 213
f 193 213 194
f 193 211 212
f 196 214 197
f 197 214 215
f 197 215 198
f 198 215 199
f 199 215 212
f 199 212 210
f 199 210 200
f 200 206 204
f 200 204 216
f 200 216 217
f 200 217 218
f 200 218 219
f 200 219 220
f 200 220 221
f 200 221 222
f 200 222 201
f 204 206 205
f 206 208 207
f 210 212 211
f 212 215 223
f 212 223 213
f 214 223 215

