# https://github.com/mikedh/trimesh
v 0.32377934 0.01364119 -0.41011429
v 0.33953184 -0.14181015 -0.41011429
v 0.32377934 0.13361642 -0.41011429
v 0.32377934 0.05052336 -0.42932045
v 0.33965525 -0.14170200 -0.41021550
v 0.34055844 -0.14218870 -0.41011429
v 0.32377934 0.06812622 -0.43824574
v 0.32377934 0.07050572 -0.43937722
v 0.32377934 0.07542694 -0.44110155
v 0.32377934 0.08621579 -0.44340786
v 0.33996940 0.10481912 -0.41011429
v 0.34137747 0.10243962 -0.41500166
v 0.32800919 0.12645090 -0.42500061
v 0.32377934 0.13369754 -0.41351956
v 0.34276313 -0.14170200 -0.41021550
v 0.32377934 0.09622049 -0.44498038
v 0.32377934 0.10498136 -0.44631067
v 0.32377934 0.10622519 -0.44649866
v 0.34320068 -0.14218870 -0.41011429
v 0.34335777 0.09878926 -0.41011429
v 0.34925374 0.08864936 -0.42500061
v 0.34144479 0.10254778 -0.42500061
v 0.33458394 0.11498605 -0.43499953
v 0.33088702 0.12155670 -0.43499953
v 0.32807088 0.12655905 -0.43499953
v 0.32377934 0.13394089 -0.42500061
v 0.32377934 0.11590540 -0.44704089
v 0.32500228 0.10498136 -0.44622752
v 0.36562893 -0.12585671 -0.41072881
v 0.36832726 -0.12866884 -0.41011429
v 0.34549513 0.09497666 -0.41011429
v 0.35191843 0.08364702 -0.42500061
v 0.34147283 0.10262890 -0.43499953
v 0.33869597 0.10763125 -0.43499953
v 0.34918642 0.08848713 -0.41500166
v 0.33061215 0.12106998 -0.44127506
v 0.32377934 0.13399497 -0.43499953
v 0.32500228 0.11498605 -0.44668663
v 0.35031399 0.08086193 -0.44022673
v 0.35031399 0.07813092 -0.44022673
v 0.32377934 0.12609938 -0.44634682
v 0.34500146 0.07634629 -0.44052315
v 0.37022901 0.01834610 -0.43018082
v 0.37220368 -0.05165973 -0.42022887
v 0.37081805 -0.12309866 -0.41047576
v 0.37092462 -0.12331498 -0.41011429
v 0.34915838 0.08835193 -0.41011429
v 0.35045984 0.08581019 -0.41011429
v 0.35173890 0.08348478 -0.41500166
v 0.35552555 0.07499431 -0.42500061
v 0.35122842 0.08251135 -0.43499953
v 0.34097919 0.10176363 -0.44104010
v 0.32377934 0.12742431 -0.44514304
v 0.32377934 0.13191292 -0.44103646
v 0.36024907 0.06074437 -0.43052784
v 0.36119151 0.05498492 -0.43160510
v 0.37022901 0.02188830 -0.43018082
v 0.38001823 -0.04046528 -0.42002282
v 0.37886819 -0.04714410 -0.41954926
v 0.37991723 -0.08042999 -0.41011429
v 0.35162669 0.08334958 -0.41011429
v 0.35861099 0.06577376 -0.42500061
v 0.35511604 0.07499431 -0.41500166
v 0.36216202 0.05498492 -0.42500061
v 0.37006071 0.03016246 -0.42102417
v 0.36958948 0.02856711 -0.42769012
v 0.37570423 0.00498848 -0.41500166
v 0.38001823 -0.03905922 -0.42002282
v 0.37086853 0.02513307 -0.42461380
v 0.38063532 -0.04427789 -0.41572827
v 0.38091579 -0.05498561 -0.41331351
v 0.38004628 -0.07964583 -0.41011429
v 0.37995091 -0.08024071 -0.41011429
v 0.35489166 0.07499431 -0.41011429
v 0.36639747 0.04011307 -0.41011429
v 0.36860776 0.03411026 -0.41519687
v 0.37006071 0.03016246 -0.41866362
v 0.37133417 0.02580906 -0.41519687
v 0.37416714 0.01499318 -0.41500166
v 0.37534520 0.00498848 -0.41011429
v 0.37595668 0.00009429 -0.41011429
v 0.37715718 -0.00988336 -0.41011429
v 0.37935627 -0.02873005 -0.41011429
v 0.37686548 -0.00498918 -0.41500166
v 0.37386981 0.01499318 -0.41011429
v 0.37905893 -0.02499857 -0.41500166
v 0.37982187 -0.03238041 -0.41500166
v 0.38025385 -0.03738276 -0.41500166
v 0.38089898 -0.04465644 -0.41011429
v 0.38100556 -0.04987511 -0.41011429
v 0.38108408 -0.05498561 -0.41011429
v 0.36917436 0.03167668 -0.41011429
v 0.37054315 0.02751257 -0.41011429
v 0.37135661 0.02502491 -0.41011429
v 0.38068020 -0.04108720 -0.41011429
f 1 2 6
f 1 6 19
f 1 19 30
f 1 30 46
f 1 46 60
f 1 60 73
f 1 73 72
f 1 72 91
f 1 91 90
f 1 90 89
f 1 89 95
f 1 95 83
f 1 83 82
f 1 82 81
f 1 81 80
f 1 80 85
f 1 85 94
f 1 94 93
f 1 93 92
f 1 92 75
f 1 75 74
f 1 74 61
f 1 61 48
f 1 48 47
f 1 47 31
f 1 31 20
f 1 20 11
f 1 11 3
f 1 3 14
f 1 14 26
f 1 26 37
f 1 37 54
f 1 54 53
f 1 53 41
f 1 41 27
f 1 27 18
f 1 18 17
f 1 17 16
f 1 16 10
f 1 10 9
f 1 9 8
f 1 8 7
f 1 7 4
f 1 4 2
f 2 5 6
f 2 4 7
f 2 7 8
f 2 8 9
f 2 9 10
f 2 10 5
f 3 11 12
f 3 12 13
f 3 13 14
f 5 15 19
f 5 19 6
f 5 10 16
f 5 16 17
f 5 17 18
f 5 18 15
f 11 20 12
f 12 20 21
f 12 21 22
f 12 22 23
f 12 23 13
f 13 23 24
f 13 24 25
f 13 25 14
f 14 25 26
f 15 18 19
f 18 27 28
f 18 28 29
f 18 29 19
f 19 29 30
f 20 31 21
f 21 32 33
f 21 33 34
f 21 34 23
f 21 23 22
f 21 31 35
f 21 35 32
f 23 34 36
f 23 36 24
f 24 36 25
f 25 37 26
f 25 36 37
f 27 38 39
f 27 39 40
f 27 40 28
f 27 41 38
f 28 40 42
f 28 42 30
f 28 30 29
f 30 43 44
f 30 44 45
f 30 45 46
f 30 42 43
f 31 47 35
f 32 48 49
f 32 49 50
f 32 50 51
f 32 51 33
f 32 35 47
f 32 47 48
f 33 51 52
f 33 52 36
f 33 36 34
f 36 41 53
f 36 53 54
f 36 54 37
f 36 52 41
f 38 41 39
f 39 41 52
f 39 52 51
f 39 51 55
f 39 55 56
f 39 56 57
f 39 57 43
f 39 43 40
f 40 43 42
f 43 57 68
f 43 68 58
f 43 58 59
f 43 59 44
f 44 59 45
f 45 59 58
f 45 58 60
f 45 60 46
f 48 61 49
f 49 61 50
f 50 62 55
f 50 55 51
f 50 61 63
f 50 63 62
f 55 62 64
f 55 64 65
f 55 65 66
f 55 66 57
f 55 57 56
f 57 67 68
f 57 66 69
f 57 69 67
f 58 68 70
f 58 70 71
f 58 71 72
f 58 72 73
f 58 73 60
f 61 74 63
f 62 75 76
f 62 76 77
f 62 77 64
f 62 63 75
f 63 74 75
f 64 77 65
f 65 77 78
f 65 78 79
f 65 79 69
f 65 69 66
f 67 80 81
f 67 81 82
f 67 82 83
f 67 83 84
f 67 84 68
f 67 69 79
f 67 79 85
f 67 85 80
f 68 86 87
f 68 87 88
f 68 88 70
f 68 84 86
f 70 88 89
f 70 89 90
f 70 90 91
f 70 91 71
f 71 91 72
f 75 92 76
f 76 92 93
f 76 93 78
f 76 78 77
f 78 93 94
f 78 94 79
f 79 94 85
f 83 95 86
f 83 86 84
f 86 95 87
f 87 95 88
f 88 95 89

