# https://github.com/mikedh/trimesh
v -0.09864756 -0.13194649 -0.41011426
v -0.18825933 -0.19183907 -0.41011426
v -0.20757613 -0.19183907 -0.42116258
v -0.21478537 -0.13194649 -0.42116258
v -0.29576579 -0.13194649 -0.41011426
v -0.28075480 -0.19183907 -0.41011426
v -0.28093255 -0.19183907 -0.42116258
v -0.30042711 -0.13194649 -0.42116258
v -0.30022961 -0.13194649 -0.41856271
v -0.29521275 -0.13512434 -0.41011426
v -0.28081405 -0.19176285 -0.41011426
v -0.28083378 -0.19183907 -0.41083127
v -0.28095230 -0.19183907 -0.42099926
v -0.28190035 -0.18924168 -0.42116258
v -0.29011691 -0.16421755 -0.42116258
v -0.28367800 -0.18499672 -0.41500035
v -0.28681844 -0.17499997 -0.41500035
v -0.29068971 -0.16241167 -0.41500035
v -0.29039344 -0.16159669 -0.41011426
v -0.28116956 -0.19183907 -0.41500035
v -0.28340146 -0.18499672 -0.42116258
v -0.28664067 -0.17499997 -0.42116258
f 1 2 3
f 1 3 4
f 1 4 8
f 1 8 9
f 1 9 5
f 1 5 10
f 1 10 19
f 1 19 11
f 1 11 6
f 1 6 2
f 2 6 12
f 2 12 20
f 2 20 13
f 2 13 7
f 2 7 3
f 3 7 14
f 3 14 21
f 3 21 22
f 3 22 15
f 3 15 8
f 3 8 4
f 5 9 10
f 6 11 12
f 7 13 14
f 8 15 16
f 8 16 17
f 8 17 18
f 8 18 9
f 9 18 19
f 9 19 10
f 11 16 20
f 11 20 12
f 11 19 16
f 13 20 14
f 14 20 16
f 14 16 21
f 15 22 16
f 16 22 21
f 16 19 17
f 17 19 18

