# https://github.com/mikedh/trimesh
v -0.21478882 -0.13196594 -0.42116541
v -0.18821502 -0.19184396 -0.41012007
v -0.00678098 -0.36922467 -0.41012007
v -0.26473722 -0.13196594 -0.46340778
v -0.30041879 -0.13196594 -0.42116541
v -0.28073341 -0.19184396 -0.41012007
v -0.00623336 -0.37092102 -0.41012007
v -0.00695391 -0.36940190 -0.41030058
v -0.26759058 -0.13196594 -0.46480519
v -0.30059171 -0.13196594 -0.42388451
v -0.28116572 -0.19184396 -0.41500518
v -0.28081986 -0.19184396 -0.41083625
v -0.27862939 -0.19728741 -0.41500518
v -0.27064574 -0.21123785 -0.41012007
v -0.00623336 -0.37294647 -0.41012007
v -0.00695391 -0.37211096 -0.41030058
v -0.27519959 -0.13196594 -0.46796682
v -0.30062053 -0.13196594 -0.42500827
v -0.30062053 -0.13204189 -0.42500827
v -0.28099281 -0.19227436 -0.41500518
v -0.29900649 -0.13702962 -0.42500827
v -0.29641253 -0.14503023 -0.42500827
v -0.28338501 -0.18500799 -0.42116541
v -0.28188628 -0.18926147 -0.42116541
v -0.28076223 -0.19189459 -0.42500827
v -0.27842766 -0.19594553 -0.44500279
v -0.27445021 -0.20503484 -0.41500518
v -0.27860057 -0.19703422 -0.42116541
v -0.27407554 -0.20500952 -0.44500279
v -0.27439258 -0.20500952 -0.42116541
v -0.26021218 -0.23045450 -0.41012007
v -0.02300772 -0.38671970 -0.41012007
v -0.02810921 -0.39028957 -0.41021907
v -0.28808299 -0.13196594 -0.46959132
v -0.30059171 -0.13196594 -0.42575353
v -0.30001527 -0.13196594 -0.43500555
v -0.29791129 -0.13502946 -0.45499426
v -0.29502907 -0.14503023 -0.45499426
v -0.27848530 -0.19645190 -0.43500555
v -0.27857175 -0.19688231 -0.42500827
v -0.29549021 -0.14503023 -0.44500279
v -0.29142633 -0.15594247 -0.45546588
v -0.28231859 -0.18500799 -0.44500279
v -0.28030106 -0.19095781 -0.44500279
v -0.28053164 -0.19146419 -0.43500555
v -0.28012812 -0.19045144 -0.45070305
v -0.25240144 -0.24435431 -0.41012007
v -0.27038634 -0.21073148 -0.45072052
v -0.26779234 -0.21614961 -0.44500279
v -0.25225735 -0.24405049 -0.43500555
v -0.24951926 -0.24916480 -0.42500827
v -0.02802274 -0.39034021 -0.41012007
v -0.03445003 -0.39059341 -0.41012007
v -0.03505529 -0.39044148 -0.41037628
v -0.10506375 -0.36246467 -0.42065302
v -0.11503614 -0.35497040 -0.42275494
v -0.15844196 -0.33063942 -0.43020195
v -0.20787156 -0.29066166 -0.44028655
v -0.28840002 -0.13196594 -0.46959132
v -0.24496539 -0.23501183 -0.45125619
v -0.25499541 -0.21501029 -0.45493603
v -0.27499783 -0.17500722 -0.46223748
v -0.29949647 -0.13196594 -0.44260392
v -0.29883355 -0.13196594 -0.45149490
v -0.29848772 -0.13196594 -0.45499426
v -0.29240626 -0.14503023 -0.46339032
v -0.29105163 -0.15323339 -0.46167850
v -0.28989875 -0.15989213 -0.45911077
v -0.28122336 -0.18503329 -0.45442364
v -0.28064692 -0.18171659 -0.46057805
v -0.24954808 -0.24934204 -0.41012007
v -0.26182622 -0.22311218 -0.45164049
v -0.25960693 -0.22979623 -0.44732016
v -0.26225853 -0.22587189 -0.44439143
v -0.24943279 -0.24903822 -0.43500555
v -0.24559948 -0.25493741 -0.43481922
v -0.04165551 -0.39034021 -0.41012007
v -0.04191491 -0.39026427 -0.41028893
v -0.11503614 -0.36167979 -0.42107806
v -0.16495572 -0.33061409 -0.43026018
v -0.21066730 -0.29066166 -0.44028655
v -0.25052801 -0.24088569 -0.45036533
v -0.24496539 -0.24083506 -0.45028967
v -0.29131103 -0.13196594 -0.46832201
v -0.27499783 -0.18364079 -0.46070614
v -0.29396266 -0.13196594 -0.46531758
v -0.29312682 -0.13426991 -0.46570188
v -0.24747288 -0.25227898 -0.41012007
v -0.24072856 -0.26096317 -0.44125310
v -0.24559948 -0.25491208 -0.43500555
v -0.24104559 -0.26129234 -0.43499970
v -0.04194373 -0.39028957 -0.41012007
v -0.08171799 -0.38049135 -0.41094106
v -0.07503130 -0.38147879 -0.41195416
v -0.12206869 -0.36084428 -0.42079857
v -0.17023012 -0.33015838 -0.43014956
v -0.18181655 -0.32134756 -0.43114519
v -0.19282652 -0.31225827 -0.43197784
v -0.22138906 -0.28152174 -0.44094449
v -0.23121732 -0.27147031 -0.44126475
v -0.24095914 -0.26119104 -0.42500246
v -0.24300548 -0.25810221 -0.41012007
v -0.23182258 -0.27215391 -0.43499970
v -0.23683760 -0.26633069 -0.43499970
v -0.08082451 -0.38074455 -0.41012007
v -0.08240972 -0.38026351 -0.41012007
v -0.09967405 -0.37251607 -0.41012007
v -0.10212392 -0.37104759 -0.41283920
v -0.12296217 -0.36135066 -0.41500518
v -0.14218639 -0.35112202 -0.42147982
v -0.17080657 -0.33061409 -0.42500246
v -0.17582159 -0.32701889 -0.42500246
v -0.18265238 -0.32203117 -0.42500246
v -0.14786431 -0.34874207 -0.41500518
v -0.18766740 -0.31823340 -0.42500246
v -0.19406587 -0.31322035 -0.42500246
v -0.19905205 -0.30919474 -0.42500246
v -0.20262598 -0.30289045 -0.43269983
v -0.22228253 -0.28261042 -0.43499970
v -0.22726873 -0.27716696 -0.43499970
v -0.20870739 -0.29851037 -0.41012007
v -0.24075738 -0.26096317 -0.41012007
v -0.20888034 -0.29873824 -0.42500246
v -0.11910003 -0.36312294 -0.41012007
v -0.14290693 -0.35147646 -0.41500518
v -0.15472393 -0.34372902 -0.41500518
v -0.14746080 -0.34853953 -0.41012007
v -0.15452218 -0.34352648 -0.41012007
v -0.17103714 -0.33084196 -0.41500518
v -0.19037665 -0.31519520 -0.41012007
v -0.19844680 -0.30873901 -0.41012007
v -0.20369239 -0.30372596 -0.41012007
v -0.20614225 -0.30121943 -0.41012007
v -0.20389414 -0.30420703 -0.42500246
v -0.13904481 -0.35304621 -0.41012007
v -0.14250344 -0.35127392 -0.41012007
v -0.15697204 -0.34165293 -0.41012007
v -0.15953720 -0.33962744 -0.41012007
f 1 2 3
f 1 3 4
f 1 4 9
f 1 9 17
f 1 17 34
f 1 34 59
f 1 59 84
f 1 84 86
f 1 86 65
f 1 65 64
f 1 64 63
f 1 63 36
f 1 36 35
f 1 35 18
f 1 18 10
f 1 10 5
f 1 5 6
f 1 6 2
f 2 6 14
f 2 14 31
f 2 31 47
f 2 47 71
f 2 71 88
f 2 88 102
f 2 102 122
f 2 122 121
f 2 121 133
f 2 133 132
f 2 132 131
f 2 131 130
f 2 130 138
f 2 138 137
f 2 137 128
f 2 128 127
f 2 127 136
f 2 136 135
f 2 135 124
f 2 124 107
f 2 107 106
f 2 106 105
f 2 105 92
f 2 92 77
f 2 77 53
f 2 53 52
f 2 52 32
f 2 32 15
f 2 15 7
f 2 7 3
f 3 7 8
f 3 8 4
f 4 8 9
f 5 10 11
f 5 11 12
f 5 12 6
f 6 12 13
f 6 13 14
f 7 15 16
f 7 16 8
f 8 16 17
f 8 17 9
f 10 18 19
f 10 19 11
f 11 20 12
f 11 19 21
f 11 21 22
f 11 22 23
f 11 23 24
f 11 24 25
f 11 25 26
f 11 26 20
f 12 20 13
f 13 27 14
f 13 20 28
f 13 28 29
f 13 29 30
f 13 30 27
f 14 27 31
f 15 32 33
f 15 33 16
f 16 33 34
f 16 34 17
f 18 35 19
f 19 35 36
f 19 36 37
f 19 37 38
f 19 38 21
f 20 26 39
f 20 39 40
f 20 40 28
f 21 38 41
f 21 41 22
f 22 41 42
f 22 42 43
f 22 43 23
f 23 43 44
f 23 44 24
f 24 44 45
f 24 45 25
f 25 45 26
f 26 45 44
f 26 44 46
f 26 46 29
f 26 29 39
f 27 30 47
f 27 47 31
f 28 40 29
f 29 48 49
f 29 49 50
f 29 50 51
f 29 51 30
f 29 40 39
f 29 46 48
f 30 51 47
f 32 52 33
f 33 52 53
f 33 53 54
f 33 54 55
f 33 55 56
f 33 56 57
f 33 57 58
f 33 58 34
f 34 58 60
f 34 60 61
f 34 61 62
f 34 62 59
f 36 63 37
f 37 63 64
f 37 64 65
f 37 65 66
f 37 66 67
f 37 67 68
f 37 68 38
f 38 68 42
f 38 42 41
f 42 68 43
f 43 46 44
f 43 68 46
f 46 68 69
f 46 69 70
f 46 70 48
f 47 51 71
f 48 72 73
f 48 73 74
f 48 74 49
f 48 70 72
f 49 74 75
f 49 75 50
f 50 75 51
f 51 75 76
f 51 76 71
f 53 77 78
f 53 78 54
f 54 78 79
f 54 79 55
f 55 79 57
f 55 57 56
f 57 79 80
f 57 80 58
f 58 81 82
f 58 82 83
f 58 83 60
f 58 80 81
f 59 62 85
f 59 85 70
f 59 70 84
f 60 83 61
f 61 83 62
f 62 83 82
f 62 82 85
f 65 86 66
f 66 86 87
f 66 87 84
f 66 84 70
f 66 70 67
f 67 70 68
f 68 70 69
f 70 85 82
f 70 82 72
f 71 76 88
f 72 82 73
f 73 75 74
f 73 82 89
f 73 89 75
f 75 90 76
f 75 89 90
f 76 91 88
f 76 90 89
f 76 89 91
f 77 92 78
f 78 92 93
f 78 93 94
f 78 94 95
f 78 95 79
f 79 95 96
f 79 96 80
f 80 96 81
f 81 96 97
f 81 97 98
f 81 98 99
f 81 99 82
f 82 99 100
f 82 100 89
f 84 87 86
f 88 91 101
f 88 101 102
f 89 100 103
f 89 103 104
f 89 104 91
f 91 104 101
f 92 105 93
f 93 105 106
f 93 106 107
f 93 107 108
f 93 108 95
f 93 95 94
f 95 109 110
f 95 110 96
f 95 108 109
f 96 111 112
f 96 112 113
f 96 113 97
f 96 110 114
f 96 114 111
f 97 113 115
f 97 115 116
f 97 116 98
f 98 116 117
f 98 117 118
f 98 118 99
f 99 118 117
f 99 117 119
f 99 119 100
f 100 119 120
f 100 120 103
f 101 104 121
f 101 121 122
f 101 122 102
f 103 123 104
f 103 120 123
f 104 123 121
f 107 124 109
f 107 109 108
f 109 124 125
f 109 125 110
f 110 125 114
f 111 114 112
f 112 114 113
f 113 114 126
f 113 126 115
f 114 125 136
f 114 136 127
f 114 127 128
f 114 128 126
f 115 126 116
f 116 126 129
f 116 129 130
f 116 130 131
f 116 131 117
f 117 131 132
f 117 132 133
f 117 133 134
f 117 134 119
f 119 134 120
f 120 134 123
f 121 123 134
f 121 134 133
f 124 135 125
f 125 135 136
f 126 128 137
f 126 137 138
f 126 138 129
f 129 138 130

