# https://github.com/mikedh/trimesh
v -0.30832809 -0.06497349 -0.43500578
v -0.30628526 -0.06497349 -0.42500579
v -0.30814606 -0.05498305 -0.43500578
v -0.30749881 -0.06497349 -0.44500580
v -0.30525374 -0.07499515 -0.46499678
v -0.30599201 -0.07499515 -0.45500582
v -0.30746847 -0.07499515 -0.43500578
v -0.30408064 -0.10499768 -0.42500579
v -0.30544591 -0.08498558 -0.42500579
v -0.30599201 -0.07499515 -0.42500579
v -0.30158275 -0.06119585 -0.41011429
v -0.30155241 -0.05498305 -0.41011429
v -0.30557737 -0.05498305 -0.42500579
v -0.30728644 -0.05498305 -0.44500580
v -0.30733702 -0.04499261 -0.43500578
v -0.30372670 -0.00499964 -0.44500580
v -0.30574930 -0.06497349 -0.46499678
v -0.30244234 -0.07499515 -0.47394797
v -0.30118835 -0.09497602 -0.47169662
v -0.30051076 -0.10499768 -0.47068396
v -0.30008602 -0.11055486 -0.47011432
v -0.30275586 -0.09497602 -0.46499678
v -0.30018717 -0.12151311 -0.45500582
v -0.29983321 -0.12866253 -0.44777253
v -0.30174455 -0.11498812 -0.44500580
v -0.30548635 -0.08498558 -0.44500580
v -0.30622458 -0.08498558 -0.43500578
v -0.30318061 -0.11498812 -0.42500579
v -0.30112767 -0.12497856 -0.41810703
v -0.30175465 -0.11498812 -0.41772729
v -0.30129957 -0.06594131 -0.41011429
v -0.30114788 -0.04951952 -0.41011429
v -0.29731509 -0.00499964 -0.41011429
v -0.30627516 -0.05498305 -0.45500582
v -0.30636618 -0.03497095 -0.43500578
v -0.30405030 -0.01499007 -0.43500578
v -0.30275586 -0.00499964 -0.43500578
v -0.30232099 0.00502202 -0.44500580
v -0.30024785 0.00099463 -0.47204021
v -0.30271539 -0.00499964 -0.45500582
v -0.30521330 -0.02498051 -0.43500578
v -0.30526388 -0.05498305 -0.46499678
v -0.30270529 -0.03497095 -0.47499681
v -0.30305925 -0.04499261 -0.47499681
v -0.30309969 -0.05498305 -0.47499681
v -0.30231088 -0.06512959 -0.47581959
v -0.30071303 -0.05498305 -0.48059356
v -0.30031863 -0.06188269 -0.48022285
v -0.29015511 -0.13041085 -0.47005105
v -0.29133832 -0.13190942 -0.46832410
v -0.29397780 -0.13190942 -0.46532229
v -0.29850841 -0.13190942 -0.45500582
v -0.29999501 -0.12001455 -0.46002391
v -0.30030853 -0.11433250 -0.46401125
v -0.30145127 -0.10499768 -0.46499678
v -0.29956016 -0.12650834 -0.45500582
v -0.30007592 -0.13028598 -0.44109985
v -0.30192658 -0.12497856 -0.42500579
v -0.30122879 -0.12497856 -0.43500578
v -0.30248278 -0.11498812 -0.43500578
v -0.29884213 -0.13190942 -0.45150673
v -0.30051076 -0.13159722 -0.41892079
v -0.29613185 -0.12991133 -0.41011429
v -0.29667798 -0.12497856 -0.41011429
v -0.29681954 -0.00009808 -0.41011429
v -0.29622287 0.00502202 -0.41011429
v -0.30063212 0.01235875 -0.43842351
v -0.30063212 0.01235875 -0.44500580
v -0.29884213 0.00458494 -0.47522283
v -0.29980287 -0.00153420 -0.47870386
v -0.30057144 -0.00490598 -0.47522283
v -0.30168387 -0.00499964 -0.46499678
v -0.30020738 0.01079774 -0.45164233
v -0.29330024 0.02500290 -0.47499681
v -0.29603073 0.01501246 -0.47499681
v -0.30140072 -0.01499007 -0.47499681
v -0.30210862 -0.02498051 -0.47499681
v -0.30017704 -0.00821531 -0.48037654
v -0.30045009 -0.01499007 -0.48078343
v -0.30079395 -0.02498051 -0.48111796
v -0.30103666 -0.03497095 -0.48119932
v -0.30103666 -0.04499261 -0.48100042
v -0.29008430 0.01875887 -0.49006009
v -0.29817468 -0.06188269 -0.48022285
v -0.28963935 -0.13041085 -0.47005105
v -0.28841567 -0.13190942 -0.46959895
v -0.30029839 -0.13100404 -0.43500578
v -0.29951972 -0.13190942 -0.44260979
v -0.30064225 -0.13190942 -0.42500579
v -0.30061191 -0.13190942 -0.42388463
v -0.30024785 -0.13190942 -0.41856816
v -0.29577792 -0.13190942 -0.41011429
v -0.29523182 0.00989236 -0.41011429
v -0.29410928 0.01501246 -0.41011429
v -0.29277438 0.01991402 -0.41011429
v -0.28183216 0.05981333 -0.41011429
v -0.28079051 0.06359097 -0.41011429
v -0.29018545 0.05060340 -0.43973455
v -0.29018545 0.05060340 -0.44213963
v -0.29441267 0.03499334 -0.44500580
v -0.28951800 0.04823067 -0.45500582
v -0.28370306 0.05497421 -0.48499680
v -0.28058827 0.06140556 -0.49078342
v -0.29008430 0.02066330 -0.49006009
v -0.29096416 0.03352599 -0.47499681
v -0.27499580 0.05497421 -0.49339646
v -0.24036904 0.11975596 -0.50003302
v -0.27499580 0.04498377 -0.49273643
v -0.28865838 0.01875887 -0.49006009
v -0.28518966 0.01526222 -0.48946336
v -0.23971170 0.11975596 -0.50003302
v -0.27521828 -0.13190942 -0.46797147
v -0.28811228 -0.13190942 -0.46959895
v -0.20502427 0.15497226 -0.50147963
v -0.30002534 -0.13190942 -0.43500578
v -0.30060178 -0.13190942 -0.42575625
v -0.20502427 -0.13190942 -0.41011429
v -0.27946571 0.06824276 -0.41011429
v -0.28501773 0.06499587 -0.44500580
v -0.28463343 0.06499587 -0.45500582
v -0.28989217 0.04960435 -0.44880328
v -0.29131809 0.04576428 -0.44528610
v -0.28765720 0.05497421 -0.45500582
v -0.28637287 0.05497421 -0.46499678
v -0.28507841 0.05497421 -0.47499681
v -0.28120515 0.06296656 -0.48499680
v -0.27894995 0.06796178 -0.48499680
v -0.27077869 0.08154254 -0.49118125
v -0.24041960 0.13055812 -0.50026810
v -0.28148830 0.05497421 -0.49157006
v -0.28228724 0.04498377 -0.49168760
v -0.24059153 0.12496972 -0.50023192
v -0.20502427 0.16499391 -0.50247425
v -0.26760322 -0.13190942 -0.46480691
v -0.20502427 0.14276519 -0.49954474
v -0.20502427 -0.13190942 -0.41982496
v -0.20502427 0.18413185 -0.41011429
v -0.27667454 0.07458045 -0.41011429
v -0.28158945 0.07317554 -0.44500580
v -0.28147820 0.07295700 -0.45500582
v -0.28068939 0.07136478 -0.46499678
v -0.28019387 0.07036573 -0.47120836
v -0.27965787 0.06921059 -0.47787201
v -0.27157763 0.08313476 -0.48499680
v -0.26077697 0.10155463 -0.49157909
v -0.25077528 0.12122331 -0.49225721
v -0.21983975 0.15981138 -0.49970749
v -0.21070775 0.17083207 -0.50064784
v -0.21291237 0.16499391 -0.50123554
v -0.23116624 0.14167249 -0.50065684
v -0.23470579 0.13433576 -0.50065684
v -0.20502427 0.17420384 -0.50142539
v -0.26474127 -0.13190942 -0.46340546
v -0.20502427 0.18694165 -0.45420110
v -0.20576251 0.18634847 -0.45500582
v -0.21135497 0.18135326 -0.45500582
v -0.20982791 0.17979226 -0.41011429
v -0.27397439 0.08007519 -0.41011429
v -0.27914211 0.07817076 -0.44500580
v -0.27899042 0.07798344 -0.45500582
v -0.26564130 0.09499840 -0.48499680
v -0.25562948 0.11497928 -0.48499680
v -0.25156409 0.12250333 -0.48499680
v -0.24823692 0.12749855 -0.48499680
v -0.22996281 0.14991459 -0.48976174
v -0.21718004 0.16452561 -0.49581960
v -0.21159768 0.17192478 -0.49499682
v -0.24324112 0.13411722 -0.48499680
v -0.20698619 0.17692000 -0.49499682
v -0.20502427 0.17879321 -0.49499682
v -0.20502427 0.18697287 -0.45500582
v -0.20502427 0.18631725 -0.45977074
v -0.20502427 0.18559919 -0.46492445
v -0.21064708 0.18063520 -0.46499678
v -0.21635078 0.17554632 -0.45500582
v -0.22051731 0.17061353 -0.44944525
v -0.21589570 0.17204966 -0.41011429
v -0.27184054 0.08438356 -0.41011429
v -0.25845101 0.11110799 -0.41011429
v -0.25668123 0.11463586 -0.41011429
v -0.25398108 0.12000572 -0.41011429
v -0.25181690 0.12425166 -0.41011429
v -0.26124218 0.11248167 -0.44776350
v -0.25894654 0.11791398 -0.45500582
v -0.26147479 0.11291876 -0.45500582
v -0.26897860 0.09796432 -0.45500582
v -0.26018032 0.11035871 -0.47111794
v -0.25815773 0.11632175 -0.46499678
v -0.25511372 0.12496972 -0.45500582
v -0.25115955 0.13152595 -0.45500582
v -0.25047189 0.13058934 -0.46241090
v -0.24982466 0.12971517 -0.46907455
v -0.22720197 0.15447274 -0.48585576
v -0.21763512 0.16692956 -0.48499680
v -0.22068924 0.16087286 -0.49303478
v -0.20826042 0.17820002 -0.48499680
v -0.21262920 0.17320481 -0.48499680
v -0.21009086 0.18007323 -0.47037655
v -0.20926160 0.17923029 -0.47704020
v -0.24695258 0.13436697 -0.46543983
v -0.20502427 0.18116593 -0.48499680
v -0.20502427 0.18344501 -0.47492447
v -0.21616875 0.17404775 -0.46422824
v -0.22008246 0.17008279 -0.46037653
v -0.22044653 0.17051987 -0.45500582
v -0.22486588 0.16499391 -0.45500582
v -0.22941671 0.15924941 -0.45500582
v -0.24232084 0.14292130 -0.45500582
v -0.24731664 0.13655239 -0.45500582
v -0.25108877 0.13143229 -0.44863150
v -0.24046005 0.14057979 -0.41011429
v -0.24935946 0.12887225 -0.41011429
v -0.22852677 0.15809427 -0.46499678
v -0.21941501 0.16923985 -0.46704924
v -0.24480863 0.13499138 -0.41011429
f 1 2 3
f 1 3 4
f 1 4 5
f 1 5 6
f 1 6 7
f 1 7 8
f 1 8 9
f 1 9 10
f 1 10 2
f 2 11 12
f 2 12 13
f 2 13 3
f 2 10 11
f 3 14 4
f 3 13 15
f 3 15 16
f 3 16 14
f 4 14 17
f 4 17 5
f 5 18 19
f 5 19 20
f 5 20 21
f 5 21 22
f 5 22 23
f 5 23 24
f 5 24 25
f 5 25 26
f 5 26 6
f 5 17 18
f 6 26 27
f 6 27 7
f 7 27 28
f 7 28 8
f 8 28 29
f 8 29 30
f 8 30 9
f 9 30 10
f 10 30 11
f 11 30 31
f 11 31 64
f 11 64 63
f 11 63 92
f 11 92 117
f 11 117 137
f 11 137 157
f 11 157 177
f 11 177 211
f 11 211 215
f 11 215 212
f 11 212 182
f 11 182 181
f 11 181 180
f 11 180 179
f 11 179 178
f 11 178 158
f 11 158 138
f 11 138 118
f 11 118 97
f 11 97 96
f 11 96 95
f 11 95 94
f 11 94 93
f 11 93 66
f 11 66 65
f 11 65 33
f 11 33 32
f 11 32 12
f 12 32 13
f 13 32 33
f 13 33 15
f 14 34 17
f 14 16 40
f 14 40 34
f 15 35 16
f 15 33 35
f 16 36 37
f 16 37 38
f 16 38 39
f 16 39 40
f 16 35 41
f 16 41 36
f 17 34 42
f 17 42 43
f 17 43 44
f 17 44 45
f 17 45 18
f 18 20 19
f 18 45 46
f 18 46 47
f 18 47 48
f 18 48 20
f 20 48 21
f 21 49 50
f 21 50 51
f 21 51 52
f 21 52 53
f 21 53 54
f 21 54 55
f 21 55 22
f 21 48 49
f 22 55 53
f 22 53 23
f 23 53 56
f 23 56 24
f 24 57 58
f 24 58 59
f 24 59 60
f 24 60 25
f 24 56 52
f 24 52 61
f 24 61 57
f 25 60 27
f 25 27 26
f 27 60 28
f 28 60 59
f 28 59 58
f 28 58 62
f 28 62 29
f 29 63 64
f 29 64 30
f 29 62 63
f 30 64 31
f 33 65 35
f 34 40 42
f 35 65 41
f 36 65 66
f 36 66 37
f 36 41 65
f 37 66 67
f 37 67 38
f 38 67 68
f 38 68 39
f 39 69 70
f 39 70 71
f 39 71 72
f 39 72 40
f 39 68 73
f 39 73 74
f 39 74 75
f 39 75 69
f 40 72 76
f 40 76 42
f 42 76 77
f 42 77 43
f 43 77 78
f 43 78 79
f 43 79 80
f 43 80 44
f 44 80 81
f 44 81 45
f 45 81 82
f 45 82 46
f 46 82 47
f 47 82 83
f 47 83 48
f 48 84 85
f 48 85 49
f 48 83 109
f 48 109 84
f 49 85 113
f 49 113 86
f 49 86 50
f 50 86 113
f 50 113 112
f 50 112 134
f 50 134 153
f 50 153 136
f 50 136 117
f 50 117 92
f 50 92 91
f 50 91 90
f 50 90 89
f 50 89 116
f 50 116 115
f 50 115 88
f 50 88 61
f 50 61 52
f 50 52 51
f 52 56 53
f 53 55 54
f 57 87 58
f 57 61 88
f 57 88 87
f 58 87 89
f 58 89 90
f 58 90 62
f 62 90 91
f 62 91 92
f 62 92 63
f 66 93 67
f 67 93 94
f 67 94 95
f 67 95 96
f 67 96 97
f 67 97 98
f 67 98 99
f 67 99 68
f 68 99 100
f 68 100 101
f 68 101 73
f 69 75 102
f 69 102 70
f 70 78 71
f 70 102 103
f 70 103 104
f 70 104 78
f 71 78 76
f 71 76 72
f 73 101 74
f 74 101 105
f 74 105 102
f 74 102 75
f 76 78 77
f 78 104 79
f 79 104 80
f 80 104 81
f 81 104 83
f 81 83 82
f 83 104 106
f 83 106 107
f 83 107 108
f 83 108 109
f 84 109 110
f 84 110 108
f 84 108 111
f 84 111 85
f 85 112 113
f 85 111 114
f 85 114 112
f 87 88 115
f 87 115 116
f 87 116 89
f 97 118 98
f 98 118 119
f 98 119 99
f 99 119 120
f 99 120 121
f 99 121 122
f 99 122 100
f 100 122 121
f 100 121 123
f 100 123 101
f 101 123 124
f 101 124 125
f 101 125 105
f 102 105 125
f 102 125 126
f 102 126 103
f 103 126 127
f 103 127 128
f 103 128 129
f 103 129 130
f 103 130 104
f 104 130 131
f 104 131 106
f 106 131 130
f 106 130 129
f 106 129 132
f 106 132 107
f 107 132 133
f 107 133 111
f 107 111 108
f 108 110 109
f 111 133 114
f 112 114 135
f 112 135 134
f 114 133 152
f 114 152 170
f 114 170 201
f 114 201 202
f 114 202 173
f 114 173 172
f 114 172 171
f 114 171 154
f 114 154 137
f 114 137 117
f 114 117 136
f 114 136 135
f 118 138 139
f 118 139 119
f 119 139 140
f 119 140 120
f 120 140 126
f 120 126 125
f 120 125 124
f 120 124 123
f 120 123 121
f 126 140 141
f 126 141 142
f 126 142 143
f 126 143 127
f 127 143 144
f 127 144 128
f 128 144 145
f 128 145 146
f 128 146 129
f 129 146 147
f 129 147 148
f 129 148 149
f 129 149 150
f 129 150 133
f 129 133 151
f 129 151 132
f 132 151 133
f 133 150 149
f 133 149 152
f 134 135 153
f 135 136 153
f 137 154 155
f 137 155 156
f 137 156 157
f 138 158 159
f 138 159 139
f 139 159 140
f 140 159 160
f 140 160 141
f 141 160 142
f 142 160 161
f 142 161 144
f 142 144 143
f 144 161 146
f 144 146 145
f 146 162 163
f 146 163 164
f 146 164 147
f 146 161 162
f 147 165 166
f 147 166 167
f 147 167 148
f 147 164 168
f 147 168 165
f 148 167 169
f 148 169 170
f 148 170 152
f 148 152 149
f 154 171 155
f 155 171 172
f 155 172 173
f 155 173 174
f 155 174 156
f 156 174 175
f 156 175 176
f 156 176 157
f 157 176 177
f 158 178 159
f 159 178 179
f 159 179 180
f 159 180 181
f 159 181 182
f 159 182 183
f 159 183 184
f 159 184 185
f 159 185 186
f 159 186 160
f 160 186 187
f 160 187 161
f 161 187 162
f 162 187 185
f 162 185 188
f 162 188 184
f 162 184 163
f 163 184 189
f 163 189 190
f 163 190 191
f 163 191 192
f 163 192 164
f 164 192 168
f 165 193 194
f 165 194 195
f 165 195 166
f 165 168 193
f 166 195 167
f 167 196 169
f 167 195 194
f 167 194 197
f 167 197 198
f 167 198 199
f 167 199 196
f 168 192 200
f 168 200 193
f 169 196 170
f 170 196 199
f 170 199 198
f 170 198 201
f 173 202 198
f 173 198 174
f 174 198 203
f 174 203 204
f 174 204 175
f 175 204 205
f 175 205 176
f 176 205 206
f 176 206 207
f 176 207 208
f 176 208 209
f 176 209 210
f 176 210 177
f 177 210 211
f 182 212 183
f 183 212 184
f 184 188 185
f 184 212 210
f 184 210 189
f 185 187 186
f 189 210 190
f 190 210 209
f 190 209 191
f 191 209 200
f 191 200 192
f 193 213 214
f 193 214 194
f 193 200 213
f 194 214 203
f 194 203 197
f 197 203 198
f 198 202 201
f 200 209 213
f 203 214 204
f 204 214 213
f 204 213 209
f 204 209 208
f 204 208 207
f 204 207 206
f 204 206 205
f 210 212 215
f 210 215 211

