# https://github.com/mikedh/trimesh
v -0.37953246 0.05391930 0.38642859
v -0.37916854 0.04642931 0.38642859
v -0.37734902 0.08640140 0.38642859
v -0.37662122 0.09496140 0.38496721
v -0.30806214 -0.03443203 -0.32450813
v -0.30857161 -0.04444416 -0.32450813
v -0.30857161 -0.04497916 -0.32450813
v -0.30813491 -0.05499129 -0.32450813
v -0.37902299 0.04535931 0.38642859
v -0.30697045 -0.06446842 -0.32450813
v -0.30573317 -0.07448056 -0.32450813
v -0.30442312 -0.08495126 -0.32450813
v -0.30194858 -0.10444053 -0.32450813
v -0.37676680 0.09496140 0.38642859
v -0.37589341 0.10497352 0.38496721
v -0.30595151 -0.00493063 -0.32450813
v -0.30187580 -0.10497552 -0.32450813
v -0.30260360 -0.10497552 -0.31497425
v -0.37087157 -0.00493063 0.38642859
v -0.37603900 0.10497352 0.38642859
v -0.37509283 0.11498566 0.38642859
v -0.30536926 0.01494077 -0.31497425
v -0.30522370 0.00500507 -0.32450813
v -0.30071133 -0.11223622 -0.32450813
v -0.37036210 -0.00798777 0.38642859
v -0.37305498 0.12499779 0.38642859
v -0.37290943 0.12499779 0.38496721
v -0.30238527 0.02495290 -0.32450813
v -0.30420479 0.01547577 -0.32450813
v -0.30427757 0.01494077 -0.32450813
v -0.30063856 -0.11261837 -0.32450813
v -0.36912486 -0.01494277 0.38642859
v -0.37269109 0.12652636 0.38642859
v -0.37028933 0.13111207 0.37793857
v -0.29918292 0.03672289 -0.32450813
v -0.29940128 -0.11766265 -0.32450813
v -0.30100244 -0.11368836 -0.31497425
v -0.36657754 -0.02357918 0.38642859
v -0.36490360 0.15495776 0.38642859
v -0.35995454 0.16993774 0.38002628
v -0.36097345 0.16374703 0.37494618
v -0.36337522 0.15495776 0.37494618
v -0.29132265 0.06546000 -0.32450813
v -0.29729065 -0.12461764 -0.32450813
v -0.29961962 -0.11865622 -0.31497425
v -0.34627181 -0.07493912 0.38642859
v -0.29103154 -0.14364834 -0.32450813
v -0.28739253 -0.15465404 -0.32450813
v -0.28397185 -0.16497189 -0.32450813
v -0.28127897 -0.17269115 -0.32450813
v -0.28106064 -0.17330259 -0.32450813
v -0.29030374 -0.16061546 -0.21497266
v -0.29052207 -0.16099760 -0.20495163
v -0.35951784 0.17459987 0.38642859
v -0.35784391 0.17498203 0.37494618
v -0.35959062 0.16871488 0.37494618
v -0.28899369 0.07386713 -0.32450813
v -0.33040571 -0.10077196 0.23499963
v -0.34241447 -0.08380483 0.38642859
v -0.27916834 -0.17804115 -0.32450813
v -0.29066762 -0.16122688 -0.19493058
v -0.35915396 0.17566988 0.38642859
v -0.35580605 0.18499415 0.38642859
v -0.35558772 0.18499415 0.38496721
v -0.35405931 0.18499415 0.37494618
v -0.28499076 0.08494926 -0.32450813
v -0.28972149 0.07906427 -0.30801517
v -0.28928480 0.07738285 -0.31497425
v -0.28877535 0.07463142 -0.32450813
v -0.33237079 -0.10145981 0.38642859
v -0.27560210 -0.18499614 -0.32450813
v -0.27574766 -0.18499614 -0.31497425
v -0.25325853 -0.22496824 -0.31497425
v -0.25849873 -0.21732539 -0.24496618
v -0.27924111 -0.17834687 -0.31497425
v -0.27931389 -0.17865258 -0.30495319
v -0.35173035 0.19363058 0.38642859
v -0.35165757 0.19332485 0.38496721
v -0.35085699 0.19171986 0.37494618
v -0.28135175 0.09274497 -0.32450813
v -0.30995443 -0.13990334 0.34495264
v -0.31803304 -0.12652835 0.38642859
v -0.25311297 -0.22496824 -0.32450813
v -0.25012898 -0.23024181 -0.32450813
v -0.25020176 -0.23031823 -0.31497425
v -0.34954694 0.19798699 0.38642859
v -0.34918302 0.19836913 0.38496721
v -0.33084238 0.23169196 0.37494618
v -0.27887723 0.09771282 -0.32450813
v -0.31002721 -0.13997976 0.35699180
v -0.25034732 -0.23047109 -0.29493216
v -0.31002721 -0.14005619 0.36499473
v -0.31373900 -0.13355978 0.38642859
v -0.24663553 -0.23520966 -0.32450813
v -0.33957604 0.21770555 0.38642859
v -0.33164299 0.23329696 0.38496721
v -0.32909566 0.23826480 0.38496721
v -0.32822230 0.23665981 0.37494618
v -0.26133716 0.13271707 -0.32450813
v -0.26497617 0.12545636 -0.32450813
v -0.24190480 -0.24162966 -0.32450813
v -0.25034732 -0.23039466 -0.28498071
v -0.27021635 -0.20028184 -0.06493551
v -0.29008541 -0.17009258 0.15497053
v -0.29001260 -0.17001615 0.16123368
v -0.30988166 -0.13990334 0.37745142
v -0.31301120 -0.13470620 0.38642859
v -0.33164299 0.23329696 0.38642859
v -0.32945955 0.23757695 0.38642859
v -0.32385549 0.24613693 0.38642859
v -0.32465607 0.24499051 0.38496721
v -0.32232708 0.24315622 0.36499473
v -0.25871706 0.13768493 -0.32450813
v -0.24146812 -0.24216464 -0.32450813
v -0.25012898 -0.23016538 -0.26493865
v -0.30136636 -0.15159690 0.32498017
v -0.30122077 -0.14983904 0.38642859
v -0.30980888 -0.13975048 0.38496721
v -0.30980888 -0.13967405 0.38642859
v -0.32058036 0.25072265 0.38642859
v -0.32058036 0.25072265 0.38496721
v -0.32261822 0.24552551 0.37578124
v -0.25005621 0.15006633 -0.32450813
v -0.25333130 0.14563349 -0.32450813
v -0.25857151 0.13791421 -0.32450813
v -0.31934309 0.24919409 0.37299764
v -0.31854251 0.24812408 0.36499473
v -0.22814931 -0.25783250 -0.32450813
v -0.26919743 -0.19905898 0.01502400
v -0.29066762 -0.16222046 0.38642859
v -0.31745079 0.25477338 0.38642859
v -0.29205045 0.28763762 0.38642859
v -0.30777103 0.26715478 0.38496721
v -0.30078411 0.27097619 0.36499473
v -0.31009999 0.26012334 0.36930934
v -0.22807653 0.17826845 -0.32450813
v -0.21366602 -0.27479962 -0.32450813
v -0.23055106 -0.25064820 -0.18497914
v -0.27771273 -0.17735329 0.38642859
v -0.26665011 -0.19607827 0.20493653
v -0.27290922 -0.18339115 0.37494618
v -0.29008541 0.29008332 0.38642859
v -0.28964871 0.28954831 0.38169643
v -0.29328772 0.28572690 0.38503680
v -0.28790197 0.28740832 0.36499473
v -0.22334582 0.18430629 -0.32450813
v -0.20959033 -0.27953818 -0.32450813
v -0.21322934 -0.27372962 -0.27495968
v -0.23360784 -0.24422821 -0.09499861
v -0.27276367 -0.18316185 0.38496721
v -0.27341869 -0.18232115 0.38642859
v -0.26097324 -0.20112255 0.25497210
v -0.26053658 -0.20058756 0.28496563
v -0.20915365 -0.27907962 -0.29493216
v -0.28739253 0.29291117 0.38642859
v -0.28506353 0.29505116 0.38482803
v -0.28288013 0.29291117 0.36499473
v -0.21941568 0.18927415 -0.32450813
v -0.20435014 -0.28488818 -0.32450813
v -0.26039100 -0.20035827 0.29498667
v -0.26861519 -0.18851185 0.36499473
v -0.26832408 -0.18835899 0.37494618
v -0.27203587 -0.18384972 0.38642859
v -0.22087128 -0.26088962 -0.15498564
v -0.19954664 -0.28962675 -0.32450813
v -0.20893531 -0.27892676 -0.28498071
v -0.22072572 -0.26066035 -0.14496461
v -0.28266180 0.29780260 0.38642859
v -0.28026006 0.30024830 0.38642859
v -0.27967781 0.29971331 0.38120931
v -0.27887723 0.29902545 0.37494618
v -0.27756718 0.29795545 0.36499473
v -0.20915365 0.19928628 -0.32450813
v -0.21985236 0.19982128 -0.27941349
v -0.21912456 0.18957986 -0.32450813
v -0.26017267 -0.20012899 0.30264160
v -0.26796016 -0.18812971 0.38642859
v -0.22043461 -0.26043105 -0.13494356
v -0.24030364 -0.23024181 0.08496247
v -0.19874606 -0.28901532 -0.30495319
v -0.22021626 -0.26020178 -0.12680148
v -0.20835306 -0.27846819 -0.26493865
v -0.20871696 -0.27869746 -0.27495968
v -0.17196289 -0.31156170 -0.32450813
v -0.27822220 0.30200616 0.38642859
v -0.27261811 0.30223545 0.36499473
v -0.26432115 0.31369972 0.38496721
v -0.24641718 0.32692185 0.37494618
v -0.24052198 0.33043757 0.36784792
v -0.18724675 0.21808769 -0.32450813
v -0.21439382 0.19424200 -0.32450813
v -0.25966319 -0.19974685 0.31495914
v -0.26301110 -0.19240971 0.38642859
v -0.26373890 -0.19179828 0.38642859
v -0.19750878 -0.28802174 -0.27495968
v -0.20049278 -0.28037891 -0.19493058
v -0.23826578 -0.22863682 0.13499805
v -0.16060916 -0.32050386 -0.32450813
v -0.16024525 -0.32019815 -0.31497425
v -0.15973578 -0.31981599 -0.30272630
v -0.19430645 -0.27342391 -0.01496951
v -0.24255982 0.33219540 0.38642859
v -0.24263261 0.33227184 0.38496721
v -0.24765445 0.32799184 0.38496721
v -0.24139534 0.33120185 0.37494618
v -0.23622793 0.33723968 0.38496721
v -0.23579125 0.33334184 0.36471635
v -0.23964861 0.32967326 0.36123684
v -0.17167176 0.23138624 -0.32450813
v -0.17698473 0.22687696 -0.32450813
v -0.23579125 -0.22664967 0.19498508
v -0.24423377 -0.21335112 0.29498667
v -0.23499067 -0.21541469 0.37494618
v -0.22909546 -0.21931253 0.38642859
v -0.15493229 -0.32470742 -0.32450813
v -0.15886243 -0.31920457 -0.28498071
v -0.17036171 -0.30025029 -0.13494356
v -0.19023076 -0.27013749 0.08287476
v -0.21402992 -0.23666181 0.30459014
v -0.21155539 -0.24124750 0.26499313
v -0.21657725 -0.23727323 0.26499313
v -0.23506345 0.33808041 0.38642859
v -0.23419009 0.33670470 0.37522453
v -0.23127887 0.34075540 0.38496721
v -0.23033273 0.34022039 0.37870404
v -0.17014338 0.24009909 -0.29054797
v -0.16381149 0.23696552 -0.32450813
v -0.22079851 -0.23062395 0.31495914
v -0.22480142 -0.22267538 0.38642859
v -0.15828018 -0.31889886 -0.27495968
v -0.14845483 -0.32914028 -0.32450813
v -0.17007060 -0.30002102 -0.12881960
v -0.18993963 -0.26990819 0.08955545
v -0.21002701 -0.24002466 0.30097145
v -0.22414640 -0.22328682 0.38496721
v -0.23127887 0.34075540 0.38642859
v -0.22647537 0.34350684 0.38642859
v -0.18302549 0.36819324 0.38642859
v -0.22494698 0.34434754 0.38496721
v -0.21752338 0.34855109 0.38496721
v -0.21250154 0.35137898 0.38496721
v -0.18418999 0.36735252 0.38531515
v -0.22552922 0.34228396 0.37522453
v -0.22807653 0.33884469 0.36499473
v -0.15951745 0.23971695 -0.32450813
v -0.22312747 -0.22397467 0.38642859
v -0.14350577 -0.33181527 -0.32450813
v -0.14765425 -0.32875812 -0.31497425
v -0.16963391 -0.29979172 -0.12213890
v -0.20915365 -0.23948966 0.31495914
v -0.20966311 -0.23979537 0.30765215
v -0.21803285 -0.22863682 0.37494618
v -0.17982316 0.36995110 0.38642859
v -0.18571837 0.36253753 0.36464676
v -0.19437924 0.35772252 0.36464676
v -0.19692655 0.35825753 0.37494618
v -0.20886253 0.34931540 0.36325496
v -0.22305469 0.34167254 0.36499473
v -0.14561640 0.24751265 -0.32450813
v -0.21737783 -0.22833109 0.38496721
v -0.21730505 -0.22825466 0.38642859
v -0.16002691 -0.31003314 -0.17948149
v -0.10434994 -0.35199240 -0.32450813
v -0.10151151 -0.35076952 -0.29493216
v -0.12378229 -0.32195598 -0.10495006
v -0.14255963 -0.30132028 0.01502400
v -0.20063834 -0.24033037 0.35497367
v -0.18368052 -0.27189532 0.10493495
v -0.19889161 -0.24942535 0.26499313
v -0.20646077 -0.23819037 0.34495264
v -0.21228319 -0.23131181 0.38642859
v -0.17894980 0.36956894 0.38225317
v -0.10995403 0.26998264 -0.31003332
v -0.11490309 0.26463264 -0.32450813
v -0.17647527 0.37125036 0.38642859
v -0.17538357 0.37155607 0.38531515
v -0.17094396 0.37033322 0.36763915
v -0.18957573 0.35970968 0.36116725
v -0.12698463 0.25790691 -0.32450813
v -0.09496128 -0.35650167 -0.32450813
v -0.10325824 -0.35168666 -0.31497425
v -0.10012868 -0.35000524 -0.27920470
v -0.16053638 -0.26027820 0.36304620
v -0.17210844 -0.25217679 0.38642859
v -0.18499057 -0.24552751 0.38642859
v -0.20493239 -0.23520966 0.38642859
v -0.17742141 0.36888108 0.37494618
v -0.10158429 0.27051762 -0.32304674
v -0.10828008 0.26937121 -0.31664440
v -0.16941558 0.36972180 0.36102805
v -0.10595111 0.26868334 -0.32450813
v -0.15282166 0.37942821 0.38642859
v -0.16497597 0.37522465 0.38496721
v -0.16563100 0.37163252 0.36457717
v -0.08782880 -0.35932952 -0.32450813
v -0.09823639 -0.34939381 -0.26493865
v -0.09932810 -0.34969953 -0.27259362
v -0.11068183 -0.33028668 -0.12499212
v -0.11170076 -0.33082169 -0.13494356
v -0.15085658 -0.27044320 0.30493811
v -0.15988135 -0.25997248 0.36965728
v -0.16497597 -0.25592178 0.38496721
v -0.16497597 -0.25576892 0.38642859
v -0.09867308 0.27120548 -0.32450813
v -0.10122038 0.27036476 -0.32450813
v -0.10325824 0.26967692 -0.32450813
v -0.10544164 0.26891261 -0.32450813
v -0.12312727 0.38898179 0.38642859
v -0.13499047 0.38493106 0.38496721
v -0.14081290 0.38026893 0.36833507
v -0.15493229 0.37514824 0.36499473
v -0.07567448 0.27861905 -0.32450813
v -0.09663522 -0.34893525 -0.25498721
v -0.08287974 -0.36078167 -0.32450813
v -0.08397145 -0.35841238 -0.30592746
v -0.09496128 -0.34282097 -0.19493058
v -0.11002681 -0.32998097 -0.11963364
v -0.13055086 -0.30025029 0.09240866
v -0.15027434 -0.27006105 0.31113166
v -0.15769793 -0.25920820 0.38642859
v -0.16373871 -0.25638035 0.38642859
v -0.11992494 0.38997534 0.38642859
v -0.12494678 0.38477820 0.36499473
v -0.13499047 0.38324964 0.37494618
v -0.13542715 0.38141537 0.36499473
v -0.13906617 0.37965751 0.36165437
v -0.05544155 0.28511548 -0.32450813
v -0.06497577 -0.36597881 -0.32450813
v -0.07873126 -0.35963523 -0.30321345
v -0.08499037 -0.35466740 -0.27495968
v -0.11497587 -0.31576529 -0.00494847
v -0.12960473 -0.29986817 0.09901976
v -0.14910986 -0.26967892 0.31781235
v -0.15267609 -0.26088962 0.38642859
v -0.15340389 -0.26066035 0.38642859
v -0.11017237 0.39005178 0.36958769
v -0.11410251 0.38821748 0.36576021
v -0.11701372 0.39073962 0.38642859
v -0.11519422 0.39104536 0.38524556
v -0.05493208 0.28526834 -0.32450813
v -0.05464096 -0.36895952 -0.32450813
v -0.04583454 -0.37148166 -0.32429937
v -0.07713009 -0.35917667 -0.29493216
v -0.13499047 -0.27304175 0.32498017
v -0.13870227 -0.27961460 0.25664228
v -0.13993953 -0.27999675 0.24996160
v -0.14547084 -0.27113104 0.31468078
v -0.14496137 -0.26455820 0.37494618
v -0.14496137 -0.26325890 0.38642859
v -0.10493218 0.39295605 0.38496721
v -0.10493218 0.39035749 0.36749998
v -0.03506305 0.28924260 -0.32450813
v -0.03811982 0.28977761 -0.31859294
v -0.04496118 0.28779048 -0.32450813
v -0.04852742 0.28977761 -0.30864149
v -0.05100195 0.29031262 -0.30196080
v -0.10682447 0.39257392 0.38642859
v -0.03499027 -0.37461522 -0.32450813
v -0.04430616 -0.36865380 -0.29514092
v -0.04496118 -0.36284524 -0.24496618
v -0.05529599 -0.35099882 -0.16577217
v -0.08499037 -0.32218528 0.01502400
v -0.10653336 -0.27900317 0.34495264
v -0.13499047 -0.26631606 0.38496721
v -0.10493218 -0.27479962 0.38642859
v -0.05493208 0.39884105 0.38642859
v -0.05493208 0.39715964 0.37494618
v -0.09932810 0.38989893 0.36040175
v -0.02443712 0.29046547 -0.32450813
v -0.02494658 -0.37652594 -0.32450813
v -0.04037602 -0.36009380 -0.20898788
v -0.05980837 -0.32998097 0.00987430
v -0.05085639 -0.35023454 -0.14767863
v -0.08520871 -0.30093816 0.20403185
v -0.06781421 -0.32936954 -0.00494847
v -0.09496128 -0.28343603 0.33493161
v -0.09721747 -0.27930889 0.36499473
v -0.09496128 -0.27724531 0.38642859
v -0.04496118 0.39937606 0.38642859
v -0.04496118 0.39777106 0.37494618
v 0.01493705 0.29482189 -0.32450813
v 0.00445668 0.29375190 -0.32450813
v -0.00500477 0.29268187 -0.32450813
v -0.02443712 -0.37660235 -0.32450813
v -0.02494658 -0.37537950 -0.31497425
v -0.03062345 -0.37010592 -0.27885675
v -0.08069633 -0.30017388 0.22191662
v -0.04998302 -0.33999312 -0.05992498
v -0.08499037 -0.28412390 0.34495264
v -0.09066724 -0.28014961 0.37118828
v -0.09219562 -0.28053176 0.36499473
v -0.09350567 -0.27747461 0.38642859
v -0.03761036 0.39899391 0.38642859
v -0.03499027 0.39868820 0.38496721
v -0.03499027 0.39738891 0.37494618
v 0.02498074 0.29482189 -0.32450813
v -0.01446621 -0.37751949 -0.32450813
v -0.00500477 -0.37836021 -0.32450813
v -0.02494658 -0.37278092 -0.29493216
v -0.02494658 -0.37041166 -0.27669945
v -0.02494658 -0.36888307 -0.26493865
v -0.02494658 -0.36628452 -0.24496618
v -0.03499027 -0.35107523 -0.13494356
v -0.07494668 -0.29283673 0.28496563
v -0.08499037 -0.28152531 0.36499473
v -0.08666432 -0.27969104 0.37779936
v -0.08418979 -0.27877390 0.38642859
v -0.03499027 0.39884105 0.38642859
v -0.01635850 0.39731249 0.38642859
v -0.02494658 0.39784747 0.38496721
v -0.02494658 0.39654821 0.37494618
v 0.07410748 0.29069474 -0.32450813
v 0.02396181 -0.38080591 -0.32450813
v -0.01497567 -0.36582595 -0.23494515
v 0.00700399 -0.36024666 -0.17802009
v 0.00496614 -0.35183954 -0.11497109
v -0.02975008 -0.32998097 0.02991637
v -0.05376760 -0.28137246 0.38642859
v -0.07996853 -0.27999675 0.37995669
v 0.00351053 0.39563105 0.38642859
v 0.00496614 0.39532533 0.38496721
v -0.00500477 0.39486676 0.37494618
v 0.07621811 0.29046547 -0.32450813
v 0.01493705 0.39310890 0.37494618
v 0.03495165 -0.38141736 -0.32450813
v 0.02709137 -0.38019449 -0.31810582
v 0.02498074 -0.37178737 -0.25498721
v 0.01879441 -0.36009380 -0.16925170
v 0.00525726 -0.34931740 -0.09548575
v -0.03499027 -0.29360104 0.30493811
v -0.03499027 -0.28313032 0.38496721
v -0.04350557 -0.28221318 0.38642859
v 0.01493705 0.39463750 0.38642859
v 0.08131273 0.29023618 -0.32200289
v 0.08400560 0.28939545 -0.32450813
v 0.04543202 -0.38088235 -0.32450813
v 0.04244802 -0.38027093 -0.31810582
v 0.03022092 -0.36995307 -0.23974690
v 0.02949312 -0.36995307 -0.23974690
v -0.01286504 -0.31018600 0.19150555
v -0.02494658 -0.29704031 0.28496563
v -0.02494658 -0.29436532 0.30493811
v -0.02494658 -0.28878602 0.34495264
v -0.02494658 -0.28297746 0.38642859
v -0.03499027 -0.28290105 0.38642859
v 0.02352513 0.39310890 0.38642859
v 0.02498074 0.39265034 0.38496721
v 0.08502453 0.28916618 -0.32450813
v 0.07498084 -0.37751949 -0.32450813
v 0.06493715 -0.37576166 -0.30495319
v 0.04499533 -0.37209308 -0.26493865
v 0.03691671 -0.36964735 -0.24232173
v 0.03407828 -0.37041166 -0.24538371
v -0.00791598 -0.31018600 0.19150555
v -0.01701352 -0.29031458 0.33221757
v -0.01497567 -0.28374174 0.37494618
v -0.01497567 -0.28221318 0.38496721
v -0.01337451 -0.28183103 0.38642859
v 0.02498074 0.39280319 0.38642859
v 0.03123985 0.39112177 0.38642859
v 0.03233155 0.39066321 0.38496721
v 0.09499543 0.28679690 -0.32450813
v 0.08982803 0.28993046 -0.30961576
v 0.08829964 0.28962475 -0.31497425
v 0.09499543 -0.37522665 -0.32450813
v 0.08764462 -0.36972380 -0.28170997
v 0.07498084 -0.36422095 -0.23494515
v 0.05183669 -0.33021027 0.01147489
v -0.01417509 -0.28955030 0.33534917
v -0.00500477 -0.30789316 0.20493653
v -0.01497567 -0.28672245 0.35497367
v -0.00369472 -0.28076103 0.38642859
v 0.04484977 0.38722393 0.38642859
v 0.12403479 0.27846619 -0.32416019
v 0.11566506 0.28083548 -0.32450813
v 0.09543212 -0.37515020 -0.32450813
v 0.10103621 -0.37025878 -0.29785496
v 0.09841611 -0.36972380 -0.29124388
v 0.09499543 -0.37232235 -0.30495319
v 0.07498084 -0.34488454 -0.10495006
v 0.02498074 -0.29963887 0.23757449
v 0.03495165 -0.28549960 0.32498017
v 0.01646544 -0.27846819 0.38642859
v 0.06704778 0.38080394 0.38642859
v 0.13495184 0.27525619 -0.32450813
v 0.10496634 -0.37331593 -0.32450813
v 0.09033749 -0.36009380 -0.21928728
v 0.10285571 -0.37087023 -0.30495319
v 0.10460244 -0.36865380 -0.29472339
v 0.08058492 -0.34014598 -0.07878402
v 0.07498084 -0.34190384 -0.08497757
v 0.04819767 -0.29979172 0.21864586
v 0.03495165 -0.28251889 0.34495264
v 0.02498074 -0.27770391 0.38496721
v 0.02498074 -0.27747461 0.38642859
v 0.07454415 0.37851107 0.38642859
v 0.07425304 0.37851107 0.38524556
v 0.14448607 0.27235192 -0.32450813
v 0.11297218 -0.37094665 -0.32450813
v 0.06013364 -0.31003314 0.14021735
v 0.14441329 -0.36093453 -0.32450813
v 0.10562137 -0.36162236 -0.25463927
v 0.10096342 -0.36032310 -0.23800713
v 0.03910013 -0.27984390 0.35928831
v 0.03495165 -0.27602246 0.38642859
v 0.08378726 0.37545395 0.38642859
v 0.15016294 0.27036476 -0.32450813
v 0.04499533 -0.27556390 0.37494618
v 0.04135632 -0.28037891 0.35260761
v 0.15416586 -0.35772452 -0.32450813
v 0.15998828 -0.35000524 -0.28985205
v 0.09499543 -0.26280034 0.35497367
v 0.08436950 -0.26096606 0.38642859
v 0.05853248 -0.26952603 0.38496721
v 0.04499533 -0.27388248 0.38496721
v 0.03640725 -0.27571675 0.38642859
v 0.08495174 0.37499535 0.38642859
v 0.08495174 0.37484249 0.38496721
v 0.15074518 0.27013549 -0.32450813
v 0.16501012 -0.35367382 -0.32450813
v 0.17032309 -0.35015810 -0.31901050
v 0.15081796 -0.33043954 -0.15742131
v 0.14958070 -0.32982811 -0.15074061
v 0.11027931 -0.27013749 0.28085977
v 0.09863445 -0.25951391 0.36736080
v 0.08764462 -0.25989607 0.38642859
v 0.05940584 -0.26899105 0.38642859
v 0.04506811 -0.27357677 0.38642859
v 0.09179310 0.37216750 0.38642859
v 0.16501012 0.26279834 -0.32450813
v 0.09295759 0.37147966 0.38496721
v 0.17119646 -0.35069311 -0.32450813
v 0.17418045 -0.34733024 -0.31539178
v 0.15089074 -0.32050386 -0.10495006
v 0.21420965 -0.32677099 -0.32450813
v 0.12003188 -0.27999675 0.20006520
v 0.11093433 -0.25049534 0.38274029
v 0.10569414 -0.25263536 0.38642859
v 0.10023562 -0.26004893 0.36068010
v 0.09608714 -0.25683892 0.38642859
v 0.09426763 -0.25760320 0.38642859
v 0.09412207 -0.25806177 0.38427129
v 0.09303036 0.37155607 0.38642859
v 0.18575253 0.25209838 -0.32450813
v 0.09375817 0.37117395 0.38642859
v 0.09805221 0.36888108 0.38642859
v 0.20365649 0.24262123 -0.32450813
v 0.19572343 0.24781837 -0.31497425
v 0.19412227 0.24774194 -0.32450813
v 0.19383115 0.24789479 -0.32450813
v 0.22228827 -0.32172671 -0.32450813
v 0.22025041 -0.32019815 -0.30878067
v 0.17978454 -0.25989607 0.12950040
v 0.15955161 -0.22970681 0.34864095
v 0.15176411 -0.23100609 0.36499473
v 0.13429682 -0.23673823 0.38642859
v 0.11457334 -0.24774393 0.38642859
v 0.11282662 0.36070323 0.38642859
v 0.20911501 0.23941123 -0.32450813
v 0.12832883 0.35206681 0.38642859
v 0.22731011 -0.31775242 -0.32450813
v 0.22003207 -0.31003314 -0.25978896
v 0.21049784 -0.30040315 -0.17788091
v 0.17010476 -0.24010108 0.26060894
v 0.16107999 -0.22091754 0.38496721
v 0.16086166 -0.22076468 0.38642859
v 0.15620370 -0.22389825 0.38642859
v 0.15503922 -0.22466253 0.38642859
v 0.14812508 -0.22894253 0.38642859
v 0.21493745 0.23490195 -0.32450813
v 0.13356902 0.34893325 0.38642859
v 0.14543222 0.34159613 0.38642859
v 0.23851828 -0.30819887 -0.32450813
v 0.21020673 -0.29016173 -0.12909795
v 0.19739738 -0.26776820 0.02504504
v 0.17163314 -0.23138824 0.29498667
v 0.16610183 -0.21663754 0.38496721
v 0.16581072 -0.21656111 0.38642859
v 0.22083266 0.23023981 -0.32450813
v 0.15358362 0.33525255 0.38642859
v 0.26486477 -0.28557605 -0.32450813
v 0.26195356 -0.28167817 -0.29493216
v 0.18757203 -0.19791256 0.38642859
v 0.17439879 -0.22672610 0.30556440
v 0.22556338 0.22649482 -0.32450813
v 0.15554868 0.33357114 0.38642859
v 0.25940624 0.19943914 -0.32450813
v 0.25409329 0.20379555 -0.32450813
v 0.24317622 0.21250841 -0.32450813
v 0.23211361 0.22129768 -0.32450813
v 0.27061442 -0.28060818 -0.32450813
v 0.24987203 -0.24988392 -0.10042667
v 0.21413687 -0.20356826 0.25497210
v 0.20030861 -0.19026971 0.37118828
v 0.19856188 -0.18874115 0.38496721
v 0.19914411 -0.18790042 0.38642859
v 0.16370009 0.32653970 0.38642859
v 0.25962457 0.19959199 -0.31497425
v 0.26406419 0.19408914 -0.32450813
v 0.17345265 0.31775042 0.38642859
v 0.19135661 0.30147117 0.38642859
v 0.20089084 0.29122975 0.38642859
v 0.27592739 -0.27426460 -0.32450813
v 0.27017772 -0.27021390 -0.27899593
v 0.26013404 -0.26012534 -0.18922417
v 0.23997389 -0.23001252 0.03012514
v 0.21981373 -0.19982328 0.24933527
v 0.21027951 -0.19026971 0.33131289
v 0.20947893 -0.18950543 0.33799359
v 0.20387484 -0.18362044 0.38642859
v 0.25991571 0.19989771 -0.29743743
v 0.26391864 0.19462414 -0.31497425
v 0.27308896 0.18361844 -0.32450813
v 0.23269585 0.25324479 0.38642859
v 0.24092004 0.24109265 0.30493811
v 0.29674256 0.15618061 -0.31497425
v 0.29186627 0.16160704 -0.32450813
v 0.27949363 -0.26937318 -0.32242042
v 0.28189537 -0.26677462 -0.32450813
v 0.26770321 -0.25706822 -0.21497266
v 0.26064351 -0.25080106 -0.15498564
v 0.21850368 -0.16665331 0.38642859
v 0.22731011 -0.19653684 0.22497860
v 0.21675695 -0.17429616 0.36513391
v 0.21981373 -0.18973471 0.28914106
v 0.20969726 -0.17972258 0.37891284
v 0.20889668 -0.17872901 0.38642859
v 0.23771770 0.24659552 0.38496721
v 0.24121116 0.24162766 0.34495264
v 0.24113837 0.24155124 0.33493161
v 0.23771770 0.24659552 0.38642859
v 0.24950811 0.22924624 0.25497210
v 0.30081826 0.15098348 -0.32450813
v 0.29659700 0.15602775 -0.32450813
v 0.28298709 -0.26539892 -0.32450813
v 0.28880951 -0.25798535 -0.32450813
v 0.30715016 -0.23452181 -0.32450813
v 0.23829994 -0.14127906 0.38642859
v 0.21289960 -0.17376116 0.38642859
v 0.20947893 -0.17804115 0.38642859
v 0.24048336 0.24231552 0.38642859
v 0.24092004 0.24162766 0.38642859
v 0.24950811 0.22924624 0.26499313
v 0.30089104 0.15121277 -0.30495319
v 0.30089104 0.15113634 -0.31497425
v 0.30467561 0.14494562 -0.32450813
v 0.30991581 -0.22985967 -0.32040229
v 0.25016314 -0.14020905 0.33089536
v 0.31268147 -0.22634396 -0.32450813
v 0.24295789 -0.13524120 0.38642859
v 0.24150227 0.24063408 0.38642859
v 0.24943534 0.22901696 0.28496563
v 0.28924617 0.16871488 -0.15498564
v 0.30081826 0.15121277 -0.29493216
v 0.30467561 0.14494562 -0.31497425
v 0.30882409 0.13791421 -0.32450813
v 0.31311813 -0.22565609 -0.32450813
v 0.31027970 -0.22038253 -0.28818187
v 0.30969745 -0.21946539 -0.28150120
v 0.29979932 -0.20968254 -0.19082475
v 0.28029421 -0.18041043 0.02184387
v 0.26013404 -0.15022118 0.24105401
v 0.24994481 -0.12996763 0.37000525
v 0.24776140 -0.12843907 0.38642859
v 0.24878031 0.22779410 0.38642859
v 0.24885309 0.22794697 0.37494618
v 0.24514130 0.23497838 0.35497367
v 0.25220099 0.22389625 0.29498667
v 0.26915881 0.19852199 0.09498351
v 0.28065810 0.18117273 -0.03494199
v 0.29215741 0.16382346 -0.16493708
v 0.29754314 0.15564561 -0.22499371
v 0.30460283 0.14494562 -0.30495319
v 0.31188089 0.13256422 -0.32450813
v 0.31821278 -0.21633182 -0.32450813
v 0.31035247 -0.21067612 -0.25777084
v 0.29019234 -0.19026971 -0.06876298
v 0.25169152 -0.12530550 0.37397191
v 0.25118205 -0.12232478 0.38642859
v 0.24863476 -0.12759835 0.38496721
v 0.24848920 -0.12736906 0.38642859
v 0.25947902 0.20906912 0.37494618
v 0.26180801 0.20463628 0.38642859
v 0.27650961 0.18499415 0.11495598
v 0.31588379 0.12499779 -0.30495319
v 0.30423895 0.14494562 -0.27495968
v 0.32228845 0.11406852 -0.32450813
v 0.32388964 -0.20502041 -0.32450813
v 0.31974116 -0.19951756 -0.28143162
v 0.30351114 -0.18499614 -0.13494356
v 0.28793615 -0.17437258 -0.00473971
v 0.26231745 -0.13577621 0.27529255
v 0.25489387 -0.11498765 0.38642859
v 0.27003217 0.19003843 0.38496721
v 0.26748487 0.19554128 0.34495264
v 0.30773240 0.13401635 -0.07502612
v 0.26995939 0.19003843 0.38642859
v 0.31508321 0.12499779 -0.24496618
v 0.33000317 0.10000568 -0.30947658
v 0.33022153 0.09992925 -0.32450813
v 0.33793625 -0.17697115 -0.32450813
v 0.33036709 -0.17070402 -0.25770125
v 0.30795074 -0.13440049 -0.00467011
v 0.26806709 -0.08869626 0.38642859
v 0.27170613 0.18507057 0.38642859
v 0.28961009 0.15893205 0.18496405
v 0.28982842 0.15954347 0.17494301
v 0.30977026 0.12935421 -0.04496302
v 0.32126954 0.11238709 -0.18497914
v 0.30991581 0.12981278 -0.06493551
v 0.32978484 0.09962353 -0.28498071
v 0.33284160 0.09496140 -0.32450813
v 0.34070188 -0.17139187 -0.32450813
v 0.34019244 -0.17047474 -0.31845376
v 0.33779067 -0.17421973 -0.31504384
v 0.33102211 -0.16206759 -0.23494515
v 0.30627680 -0.12499979 0.03499648
v 0.28779057 -0.10428766 0.21488798
v 0.28109479 -0.08227626 0.32498017
v 0.27119666 -0.08235269 0.38642859
v 0.27519959 0.17498203 0.38642859
v 0.27570903 0.17498203 0.37494618
v 0.28007585 0.17031989 0.31238428
v 0.28356931 0.16496989 0.27494460
v 0.30394781 0.13493349 0.04494793
v 0.33684453 0.08494926 -0.31497425
v 0.30955189 0.12881921 -0.03494199
v 0.32949373 0.09870639 -0.25498721
v 0.32963929 0.09916496 -0.26493865
v 0.33305997 0.09450282 -0.32450813
v 0.34295809 -0.16497189 -0.32450813
v 0.33997408 -0.16008046 -0.28964329
v 0.32993039 -0.14983904 -0.19026802
v 0.32010505 -0.14028548 -0.09903486
v 0.30001768 -0.11009623 0.12031446
v 0.29026511 -0.09053054 0.24188909
v 0.28043976 -0.08097698 0.33305266
v 0.27439898 -0.07585627 0.38642859
v 0.28880951 0.13363421 0.38642859
v 0.29448637 0.12499779 0.32498017
v 0.31013414 0.12041208 0.01502400
v 0.29062900 0.15190062 0.21495757
v 0.31646603 0.11498566 -0.08497757
v 0.33946463 0.07837641 -0.32450813
v 0.33720845 0.08494926 -0.32450813
v 0.34572375 -0.15549475 -0.32450813
v 0.34470481 -0.15495975 -0.31497425
v 0.31995949 -0.12989120 -0.07015479
v 0.27942085 -0.06798413 0.37494618
v 0.30984303 -0.11957335 0.02915088
v 0.27978474 -0.06943627 0.36882219
v 0.27993029 -0.07983055 0.33973336
v 0.27483568 -0.07493912 0.38642859
v 0.28997397 0.12996563 0.38642859
v 0.29026511 0.13080636 0.37494618
v 0.32076007 0.08242712 0.05496896
v 0.31006137 0.10023496 0.16186000
v 0.34099302 0.05300216 -0.17495811
v 0.35001779 0.04008574 -0.27920470
v 0.35016334 0.04046788 -0.28498071
v 0.34310365 0.05498930 -0.23494515
v 0.32250682 0.10497352 -0.14496461
v 0.33975574 0.06928143 -0.26493865
v 0.34717935 0.05498930 -0.32450813
v 0.34892607 -0.14403048 -0.32450813
v 0.34987220 -0.12950906 -0.30091694
v 0.34099302 -0.14525333 -0.26556498
v 0.32156065 -0.12591693 -0.07405186
v 0.28953731 -0.07830198 0.27494460
v 0.28080365 -0.06301628 0.37494618
v 0.28138590 -0.05552629 0.38642859
v 0.27891138 -0.06469771 0.38552392
v 0.27876583 -0.06469771 0.38642859
v 0.29092014 0.12568565 0.38642859
v 0.30016324 0.11055281 0.29220304
v 0.30038157 0.11146995 0.28496563
v 0.30074549 0.11246352 0.27494460
v 0.34041077 0.05139716 -0.15498564
v 0.34070188 0.05231430 -0.16493708
v 0.34987220 0.03947432 -0.27252403
v 0.35329288 0.03496503 -0.31497425
v 0.35372958 0.03496503 -0.32450813
v 0.35118225 0.04283717 -0.32450813
v 0.35402068 -0.12538193 -0.32450813
v 0.35307455 -0.11498765 -0.29493216
v 0.35147339 -0.11582837 -0.28428483
v 0.34259418 -0.12499979 -0.23494515
v 0.33742678 -0.12499979 -0.19493058
v 0.31959561 -0.11850336 -0.04308408
v 0.29841650 -0.08403412 0.19408041
v 0.27912971 -0.06347486 0.38642859
v 0.28662610 -0.03641917 0.38642859
v 0.29273963 0.11498566 0.38642859
v 0.29506862 0.11498566 0.35497367
v 0.33990130 0.04941002 -0.14092834
v 0.34011966 0.05055645 -0.14760904
v 0.35569465 0.02495290 -0.31497425
v 0.35627690 0.02495290 -0.32450813
v 0.35278344 0.03496503 -0.30495319
v 0.35387513 0.03450646 -0.32450813
v 0.35685912 -0.11498765 -0.32450813
v 0.35322011 -0.10497552 -0.27495968
v 0.35001779 -0.10008410 -0.23974690
v 0.34099302 -0.08365197 -0.13494356
v 0.33145878 -0.07577984 -0.04433671
v 0.31930447 -0.08747340 0.02504504
v 0.29608753 -0.04497916 0.29498667
v 0.29055622 -0.02205062 0.38642859
v 0.29608753 0.09496140 0.37494618
v 0.29557806 0.10497352 0.36499473
v 0.29768869 0.07493713 0.38642859
v 0.29783428 0.07493713 0.38496721
v 0.34572375 0.03496503 -0.19493058
v 0.33961019 0.00699221 -0.06493551
v 0.35955200 -0.00500706 -0.31434792
v 0.35431182 0.02495290 -0.29493216
v 0.34863496 0.03496503 -0.23494515
v 0.35503963 0.02495290 -0.30495319
v 0.35780528 0.01448220 -0.32450813
v 0.35634968 0.02449433 -0.32450813
v 0.35918811 -0.10474624 -0.32450813
v 0.35569465 -0.10497552 -0.29493216
v 0.35001779 -0.09022482 -0.21942645
v 0.33000317 -0.06003557 0.00020122
v 0.30656791 -0.03496703 0.23499963
v 0.29928988 -0.04742487 0.26499313
v 0.30081826 -0.02296776 0.30493811
v 0.29215741 -0.01616562 0.38642859
v 0.30001768 0.06018643 0.38030463
v 0.30773240 0.05498930 0.28496563
v 0.29899874 0.06423715 0.38642859
v 0.29921710 0.06408429 0.38420171
v 0.34965387 0.02716933 -0.23494515
v 0.35634968 0.01494077 -0.30495319
v 0.35343847 -0.01494277 -0.21497266
v 0.35787806 -0.01494277 -0.27495968
v 0.32003227 0.03022647 0.16039860
v 0.36035258 -0.01708276 -0.30495319
v 0.36282712 -0.02548990 -0.32450813
v 0.36158985 -0.01547777 -0.32450813
v 0.36042535 -0.00607706 -0.32450813
v 0.35977036 -0.00172064 -0.32297716
v 0.35947922 0.00148936 -0.32450813
v 0.35707748 0.01494077 -0.31497425
v 0.35926089 -0.10428766 -0.32450813
v 0.35984313 -0.09817339 -0.32123739
v 0.33982852 -0.06775485 -0.10154012
v 0.32563636 -0.04497916 0.05496896
v 0.29812539 -0.00493063 0.35497367
v 0.30009046 -0.01058634 0.33110413
v 0.30991581 -0.02954061 0.21962012
v 0.30030879 -0.02120990 0.31252345
v 0.29266685 -0.01494277 0.38496721
v 0.29244852 -0.01501919 0.38642859
v 0.29921710 0.05552430 0.38642859
v 0.30001768 0.05942215 0.38030463
v 0.35926089 -0.02579561 -0.27565560
v 0.32003227 0.02923290 0.16039860
v 0.35001779 -0.01914633 -0.16946046
v 0.35998869 -0.02961703 -0.27941349
v 0.36384603 -0.03496703 -0.32450813
v 0.36042535 -0.09473410 -0.32450813
v 0.35977036 -0.08678554 -0.31219062
v 0.34674266 -0.07493912 -0.17495811
v 0.33058542 -0.04551416 0.00569887
v 0.30190995 0.00500507 0.32498017
v 0.30322000 -0.00493063 0.30493811
v 0.31289980 -0.02495490 0.19498508
v 0.30118215 -0.00493063 0.32498017
v 0.29630587 0.01356506 0.38642859
v 0.29565087 0.00500507 0.38642859
v 0.29703370 -0.00493063 0.36499473
v 0.29455915 -0.00493063 0.38642859
v 0.29645145 -0.01494277 0.35497367
v 0.29521418 -0.01494277 0.36499473
v 0.29426804 -0.00645920 0.38642859
v 0.29841650 0.04352503 0.38642859
v 0.30059993 0.04436574 0.36569062
v 0.30474839 0.04497717 0.32498017
v 0.33000317 0.00966721 0.05016721
v 0.35001779 -0.02067490 -0.16946046
v 0.35998869 -0.03145132 -0.27941349
v 0.36399162 -0.04497916 -0.32450813
v 0.36027980 -0.08403412 -0.31532219
v 0.35584021 -0.07493912 -0.26493865
v 0.36231765 -0.05499129 -0.31497425
v 0.36100760 -0.04497916 -0.29493216
v 0.31748497 0.02495290 0.18496405
v 0.31100750 0.00500507 0.23499963
v 0.29783428 0.03496503 0.38642859
v 0.29550529 0.00362936 0.38642859
v 0.30707738 0.03496503 0.29498667
f 1 2 9
f 1 9 19
f 1 19 25
f 1 25 32
f 1 32 38
f 1 38 46
f 1 46 59
f 1 59 70
f 1 70 82
f 1 82 93
f 1 93 107
f 1 107 119
f 1 119 117
f 1 117 130
f 1 130 139
f 1 139 151
f 1 151 163
f 1 163 177
f 1 177 194
f 1 194 193
f 1 193 214
f 1 214 229
f 1 229 246
f 1 246 261
f 1 261 271
f 1 271 286
f 1 286 285
f 1 285 284
f 1 284 303
f 1 303 321
f 1 321 320
f 1 320 335
f 1 335 334
f 1 334 349
f 1 349 365
f 1 365 378
f 1 378 392
f 1 392 407
f 1 407 418
f 1 418 432
f 1 432 445
f 1 445 444
f 1 444 458
f 1 458 472
f 1 472 483
f 1 483 495
f 1 495 505
f 1 505 516
f 1 516 528
f 1 528 527
f 1 527 513
f 1 513 526
f 1 526 541
f 1 541 540
f 1 540 538
f 1 538 557
f 1 557 556
f 1 556 569
f 1 569 568
f 1 568 567
f 1 567 566
f 1 566 578
f 1 578 583
f 1 583 596
f 1 596 610
f 1 610 627
f 1 627 640
f 1 640 639
f 1 639 622
f 1 622 638
f 1 638 650
f 1 650 664
f 1 664 681
f 1 681 679
f 1 679 693
f 1 693 704
f 1 704 720
f 1 720 738
f 1 738 753
f 1 753 773
f 1 773 791
f 1 791 771
f 1 771 792
f 1 792 808
f 1 808 828
f 1 828 854
f 1 854 876
f 1 876 873
f 1 873 891
f 1 891 871
f 1 871 870
f 1 870 890
f 1 890 877
f 1 877 855
f 1 855 831
f 1 831 811
f 1 811 793
f 1 793 774
f 1 774 754
f 1 754 739
f 1 739 721
f 1 721 705
f 1 705 697
f 1 697 683
f 1 683 665
f 1 665 651
f 1 651 642
f 1 642 641
f 1 641 631
f 1 631 614
f 1 614 602
f 1 602 601
f 1 601 600
f 1 600 597
f 1 597 586
f 1 586 580
f 1 580 572
f 1 572 571
f 1 571 560
f 1 560 558
f 1 558 546
f 1 546 545
f 1 545 543
f 1 543 529
f 1 529 517
f 1 517 506
f 1 506 496
f 1 496 484
f 1 484 473
f 1 473 460
f 1 460 459
f 1 459 446
f 1 446 433
f 1 433 420
f 1 420 409
f 1 409 408
f 1 408 393
f 1 393 379
f 1 379 366
f 1 366 357
f 1 357 338
f 1 338 322
f 1 322 308
f 1 308 292
f 1 292 275
f 1 275 253
f 1 253 238
f 1 238 237
f 1 237 236
f 1 236 222
f 1 222 202
f 1 202 185
f 1 185 169
f 1 169 168
f 1 168 155
f 1 155 142
f 1 142 132
f 1 132 131
f 1 131 120
f 1 120 110
f 1 110 109
f 1 109 108
f 1 108 95
f 1 95 86
f 1 86 77
f 1 77 63
f 1 63 62
f 1 62 54
f 1 54 39
f 1 39 33
f 1 33 26
f 1 26 21
f 1 21 20
f 1 20 14
f 1 14 3
f 1 3 4
f 1 4 5
f 1 5 6
f 1 6 7
f 1 7 8
f 1 8 2
f 2 8 10
f 2 10 11
f 2 11 12
f 2 12 13
f 2 13 17
f 2 17 9
f 3 14 4
f 4 14 20
f 4 20 15
f 4 15 16
f 4 16 5
f 5 16 23
f 5 23 30
f 5 30 29
f 5 29 28
f 5 28 35
f 5 35 43
f 5 43 57
f 5 57 69
f 5 69 66
f 5 66 80
f 5 80 89
f 5 89 100
f 5 100 99
f 5 99 113
f 5 113 125
f 5 125 124
f 5 124 123
f 5 123 136
f 5 136 146
f 5 146 158
f 5 158 175
f 5 175 191
f 5 191 173
f 5 173 190
f 5 190 210
f 5 210 209
f 5 209 227
f 5 227 245
f 5 245 259
f 5 259 279
f 5 279 274
f 5 274 291
f 5 291 307
f 5 307 306
f 5 306 305
f 5 305 304
f 5 304 312
f 5 312 327
f 5 327 340
f 5 340 354
f 5 354 352
f 5 352 369
f 5 369 383
f 5 383 382
f 5 382 381
f 5 381 396
f 5 396 412
f 5 412 423
f 5 423 435
f 5 435 448
f 5 448 462
f 5 462 475
f 5 475 485
f 5 485 498
f 5 498 507
f 5 507 519
f 5 519 530
f 5 530 544
f 5 544 550
f 5 550 549
f 5 549 547
f 5 547 559
f 5 559 570
f 5 570 579
f 5 579 585
f 5 585 590
f 5 590 589
f 5 589 588
f 5 588 587
f 5 587 599
f 5 599 613
f 5 613 617
f 5 617 634
f 5 634 633
f 5 633 646
f 5 646 656
f 5 656 674
f 5 674 687
f 5 687 700
f 5 700 712
f 5 712 730
f 5 730 745
f 5 745 744
f 5 744 764
f 5 764 783
f 5 783 782
f 5 782 800
f 5 800 798
f 5 798 820
f 5 820 819
f 5 819 843
f 5 843 841
f 5 841 840
f 5 840 839
f 5 839 861
f 5 861 883
f 5 883 862
f 5 862 845
f 5 845 821
f 5 821 801
f 5 801 784
f 5 784 765
f 5 765 746
f 5 746 731
f 5 731 713
f 5 713 701
f 5 701 688
f 5 688 675
f 5 675 657
f 5 657 649
f 5 649 637
f 5 637 636
f 5 636 635
f 5 635 619
f 5 619 603
f 5 603 591
f 5 591 581
f 5 581 573
f 5 573 561
f 5 561 551
f 5 551 535
f 5 535 532
f 5 532 520
f 5 520 510
f 5 510 501
f 5 501 499
f 5 499 486
f 5 486 476
f 5 476 465
f 5 465 449
f 5 449 436
f 5 436 425
f 5 425 413
f 5 413 398
f 5 398 397
f 5 397 384
f 5 384 370
f 5 370 358
f 5 358 341
f 5 341 328
f 5 328 314
f 5 314 295
f 5 295 280
f 5 280 263
f 5 263 247
f 5 247 231
f 5 231 215
f 5 215 198
f 5 198 184
f 5 184 165
f 5 165 159
f 5 159 147
f 5 147 137
f 5 137 128
f 5 128 114
f 5 114 101
f 5 101 94
f 5 94 84
f 5 84 83
f 5 83 71
f 5 71 60
f 5 60 51
f 5 51 50
f 5 50 49
f 5 49 48
f 5 48 47
f 5 47 44
f 5 44 36
f 5 36 31
f 5 31 24
f 5 24 17
f 5 17 13
f 5 13 12
f 5 12 11
f 5 11 10
f 5 10 8
f 5 8 7
f 5 7 6
f 9 17 18
f 9 18 19
f 15 20 21
f 15 21 22
f 15 22 23
f 15 23 16
f 17 24 18
f 18 24 19
f 19 24 25
f 21 26 27
f 21 27 28
f 21 28 29
f 21 29 30
f 21 30 22
f 22 30 23
f 24 31 32
f 24 32 25
f 26 33 27
f 27 33 34
f 27 34 28
f 28 34 35
f 31 36 37
f 31 37 32
f 32 37 36
f 32 36 38
f 33 39 40
f 33 40 41
f 33 41 42
f 33 42 34
f 34 42 35
f 35 42 41
f 35 41 43
f 36 44 45
f 36 45 38
f 38 45 44
f 38 44 47
f 38 47 48
f 38 48 49
f 38 49 50
f 38 50 51
f 38 51 52
f 38 52 53
f 38 53 46
f 39 54 40
f 40 54 55
f 40 55 56
f 40 56 41
f 41 56 57
f 41 57 43
f 46 58 59
f 46 53 58
f 51 60 52
f 52 60 53
f 53 60 61
f 53 61 59
f 53 59 58
f 54 62 55
f 55 62 63
f 55 63 64
f 55 64 65
f 55 65 66
f 55 66 67
f 55 67 68
f 55 68 69
f 55 69 57
f 55 57 56
f 59 61 71
f 59 71 72
f 59 72 73
f 59 73 74
f 59 74 70
f 60 75 61
f 60 71 75
f 61 75 76
f 61 76 71
f 63 77 78
f 63 78 64
f 64 78 65
f 65 78 79
f 65 79 80
f 65 80 66
f 66 69 68
f 66 68 67
f 70 74 81
f 70 81 82
f 71 76 75
f 71 83 73
f 71 73 72
f 73 83 84
f 73 84 74
f 74 84 85
f 74 85 81
f 77 86 87
f 77 87 78
f 78 87 79
f 79 87 88
f 79 88 89
f 79 89 80
f 81 90 82
f 81 85 91
f 81 91 90
f 82 90 92
f 82 92 93
f 84 94 85
f 85 94 91
f 86 95 96
f 86 96 87
f 87 96 88
f 88 96 97
f 88 97 98
f 88 98 113
f 88 113 99
f 88 99 100
f 88 100 89
f 90 91 92
f 91 94 101
f 91 101 102
f 91 102 92
f 92 103 104
f 92 104 105
f 92 105 106
f 92 106 107
f 92 107 93
f 92 102 103
f 95 108 96
f 96 108 109
f 96 109 97
f 97 109 110
f 97 110 111
f 97 111 112
f 97 112 98
f 98 112 113
f 101 114 102
f 102 114 115
f 102 115 103
f 103 105 104
f 103 115 105
f 105 116 106
f 105 115 116
f 106 116 117
f 106 117 118
f 106 118 107
f 107 118 119
f 110 120 121
f 110 121 111
f 111 121 122
f 111 122 112
f 112 123 124
f 112 124 125
f 112 125 113
f 112 122 121
f 112 121 126
f 112 126 127
f 112 127 123
f 114 128 115
f 115 128 129
f 115 129 116
f 116 129 130
f 116 130 117
f 117 119 118
f 120 131 121
f 121 131 132
f 121 132 133
f 121 133 134
f 121 134 135
f 121 135 126
f 123 127 134
f 123 134 136
f 126 135 127
f 127 135 134
f 128 137 138
f 128 138 129
f 129 138 130
f 130 138 140
f 130 140 141
f 130 141 139
f 132 142 143
f 132 143 144
f 132 144 133
f 133 144 143
f 133 143 134
f 134 143 145
f 134 145 146
f 134 146 136
f 137 147 148
f 137 148 149
f 137 149 138
f 138 149 141
f 138 141 140
f 139 141 150
f 139 150 151
f 141 152 153
f 141 153 160
f 141 160 150
f 141 149 148
f 141 148 154
f 141 154 152
f 142 155 156
f 142 156 143
f 143 156 157
f 143 157 145
f 145 157 158
f 145 158 146
f 147 154 148
f 147 159 154
f 150 160 161
f 150 161 162
f 150 162 163
f 150 163 151
f 152 154 153
f 153 154 164
f 153 164 167
f 153 167 160
f 154 159 165
f 154 165 166
f 154 166 167
f 154 167 164
f 155 168 156
f 156 168 169
f 156 169 170
f 156 170 157
f 157 170 171
f 157 171 172
f 157 172 173
f 157 173 174
f 157 174 175
f 157 175 158
f 160 176 177
f 160 177 162
f 160 162 161
f 160 167 178
f 160 178 179
f 160 179 176
f 162 177 163
f 165 180 181
f 165 181 182
f 165 182 183
f 165 183 166
f 165 184 180
f 166 183 167
f 167 183 178
f 169 185 170
f 170 186 171
f 170 185 187
f 170 187 188
f 170 188 189
f 170 189 186
f 171 186 172
f 172 186 173
f 173 191 174
f 173 186 189
f 173 189 190
f 174 191 175
f 176 192 193
f 176 193 194
f 176 194 177
f 176 179 181
f 176 181 192
f 178 183 181
f 178 181 179
f 180 184 195
f 180 195 196
f 180 196 197
f 180 197 193
f 180 193 181
f 181 183 182
f 181 193 192
f 184 198 199
f 184 199 200
f 184 200 201
f 184 201 196
f 184 196 195
f 185 202 203
f 185 203 204
f 185 204 187
f 187 204 188
f 188 204 203
f 188 203 205
f 188 205 189
f 189 205 206
f 189 206 207
f 189 207 208
f 189 208 209
f 189 209 210
f 189 210 190
f 193 197 211
f 193 211 212
f 193 212 213
f 193 213 214
f 196 201 211
f 196 211 197
f 198 215 199
f 199 215 200
f 200 215 216
f 200 216 217
f 200 217 218
f 200 218 219
f 200 219 220
f 200 220 201
f 201 220 221
f 201 221 213
f 201 213 211
f 202 222 203
f 203 222 206
f 203 206 205
f 206 223 207
f 206 222 224
f 206 224 225
f 206 225 223
f 207 223 225
f 207 225 226
f 207 226 208
f 208 226 209
f 209 226 227
f 211 213 212
f 213 221 228
f 213 228 214
f 214 228 219
f 214 219 229
f 215 230 216
f 215 231 230
f 216 230 232
f 216 232 217
f 217 232 233
f 217 233 218
f 218 233 234
f 218 234 219
f 219 228 220
f 219 234 235
f 219 235 229
f 220 228 221
f 222 236 224
f 224 236 237
f 224 237 238
f 224 238 239
f 224 239 225
f 225 239 240
f 225 240 241
f 225 241 242
f 225 242 243
f 225 243 244
f 225 244 226
f 226 245 227
f 226 244 245
f 229 235 246
f 230 231 232
f 231 247 248
f 231 248 249
f 231 249 232
f 232 249 233
f 233 250 251
f 233 251 234
f 233 249 250
f 234 251 252
f 234 252 246
f 234 246 235
f 238 253 242
f 238 242 241
f 238 241 240
f 238 240 239
f 242 253 254
f 242 254 255
f 242 255 256
f 242 256 243
f 243 256 255
f 243 255 257
f 243 257 258
f 243 258 244
f 244 258 245
f 245 258 257
f 245 257 255
f 245 255 259
f 246 252 260
f 246 260 261
f 247 262 249
f 247 249 248
f 247 263 264
f 247 264 265
f 247 265 266
f 247 266 267
f 247 267 268
f 247 268 262
f 249 262 268
f 249 268 269
f 249 269 250
f 250 269 270
f 250 270 271
f 250 271 261
f 250 261 251
f 251 261 260
f 251 260 252
f 253 272 273
f 253 273 274
f 253 274 254
f 253 275 276
f 253 276 277
f 253 277 272
f 254 278 255
f 254 274 278
f 255 278 259
f 259 278 279
f 263 280 281
f 263 281 264
f 264 281 280
f 264 280 282
f 264 282 283
f 264 283 265
f 265 283 284
f 265 284 266
f 266 284 267
f 267 284 285
f 267 285 286
f 267 286 270
f 267 270 269
f 267 269 268
f 270 286 271
f 272 277 287
f 272 287 273
f 273 288 289
f 273 289 274
f 273 287 277
f 273 277 290
f 273 290 288
f 274 289 291
f 274 279 278
f 275 292 293
f 275 293 276
f 276 293 277
f 277 293 294
f 277 294 290
f 280 295 296
f 280 296 297
f 280 297 282
f 282 297 298
f 282 298 299
f 282 299 283
f 283 300 301
f 283 301 284
f 283 299 300
f 284 301 302
f 284 302 303
f 288 304 305
f 288 305 306
f 288 306 289
f 288 290 294
f 288 294 304
f 289 306 307
f 289 307 291
f 292 308 309
f 292 309 310
f 292 310 294
f 292 294 293
f 294 310 311
f 294 311 312
f 294 312 304
f 295 313 296
f 295 314 315
f 295 315 316
f 295 316 317
f 295 317 313
f 296 313 317
f 296 317 298
f 296 298 297
f 298 317 318
f 298 318 299
f 299 318 300
f 300 319 320
f 300 320 301
f 300 318 319
f 301 320 321
f 301 321 302
f 302 321 303
f 308 322 323
f 308 323 324
f 308 324 309
f 309 324 310
f 310 325 311
f 310 324 323
f 310 323 325
f 311 325 326
f 311 326 312
f 312 326 327
f 314 328 329
f 314 329 315
f 315 329 330
f 315 330 316
f 316 330 331
f 316 331 332
f 316 332 317
f 317 332 318
f 318 332 319
f 319 333 334
f 319 334 335
f 319 335 320
f 319 332 333
f 322 336 337
f 322 337 323
f 322 338 339
f 322 339 336
f 323 326 325
f 323 337 327
f 323 327 326
f 327 337 340
f 328 341 342
f 328 342 343
f 328 343 329
f 329 343 330
f 330 343 344
f 330 344 331
f 331 344 345
f 331 345 346
f 331 346 332
f 332 346 333
f 333 346 347
f 333 347 348
f 333 348 334
f 334 348 349
f 336 339 350
f 336 350 351
f 336 351 352
f 336 352 353
f 336 353 354
f 336 354 355
f 336 355 356
f 336 356 340
f 336 340 337
f 338 357 350
f 338 350 339
f 340 356 355
f 340 355 354
f 341 358 342
f 342 358 359
f 342 359 360
f 342 360 361
f 342 361 343
f 343 361 362
f 343 362 344
f 344 363 364
f 344 364 348
f 344 348 345
f 344 362 363
f 345 348 346
f 346 348 347
f 348 364 349
f 349 364 365
f 350 357 366
f 350 366 367
f 350 367 351
f 351 367 368
f 351 368 352
f 352 354 353
f 352 368 369
f 358 360 359
f 358 370 371
f 358 371 372
f 358 372 360
f 360 372 373
f 360 373 374
f 360 374 375
f 360 375 361
f 361 375 362
f 362 375 374
f 362 374 363
f 363 365 364
f 363 374 365
f 365 374 376
f 365 376 377
f 365 377 378
f 366 379 380
f 366 380 367
f 367 380 381
f 367 381 382
f 367 382 368
f 368 382 383
f 368 383 369
f 370 384 385
f 370 385 386
f 370 386 371
f 371 386 385
f 371 385 372
f 372 387 376
f 372 376 374
f 372 374 373
f 372 385 388
f 372 388 389
f 372 389 390
f 372 390 387
f 376 391 377
f 376 387 391
f 377 391 390
f 377 390 378
f 378 390 392
f 379 393 394
f 379 394 395
f 379 395 380
f 380 395 396
f 380 396 381
f 384 397 385
f 385 397 398
f 385 398 399
f 385 399 388
f 387 390 391
f 388 399 400
f 388 400 401
f 388 401 402
f 388 402 403
f 388 403 404
f 388 404 405
f 388 405 389
f 389 405 390
f 390 405 406
f 390 406 407
f 390 407 392
f 393 408 394
f 394 408 409
f 394 409 410
f 394 410 411
f 394 411 395
f 395 411 396
f 396 411 412
f 398 400 399
f 398 413 414
f 398 414 403
f 398 403 402
f 398 402 401
f 398 401 400
f 403 414 415
f 403 415 416
f 403 416 417
f 403 417 404
f 404 418 419
f 404 419 405
f 404 417 418
f 405 419 407
f 405 407 406
f 407 419 418
f 409 420 421
f 409 421 410
f 410 421 422
f 410 422 411
f 411 422 412
f 412 422 424
f 412 424 423
f 413 415 414
f 413 425 426
f 413 426 427
f 413 427 428
f 413 428 415
f 415 428 416
f 416 428 429
f 416 429 418
f 416 418 417
f 418 430 431
f 418 431 432
f 418 429 430
f 420 433 421
f 421 433 424
f 421 424 422
f 423 434 435
f 423 424 434
f 424 433 434
f 425 436 437
f 425 437 438
f 425 438 439
f 425 439 427
f 425 427 426
f 427 439 428
f 428 439 440
f 428 440 441
f 428 441 431
f 428 431 430
f 428 430 429
f 431 442 443
f 431 443 444
f 431 444 445
f 431 445 432
f 431 441 440
f 431 440 442
f 433 446 434
f 434 446 447
f 434 447 435
f 435 447 448
f 436 449 450
f 436 450 451
f 436 451 437
f 437 451 452
f 437 452 453
f 437 453 438
f 438 453 454
f 438 454 440
f 438 440 439
f 440 454 443
f 440 443 442
f 443 454 444
f 444 455 456
f 444 456 457
f 444 457 458
f 444 454 455
f 446 459 447
f 447 459 460
f 447 460 461
f 447 461 462
f 447 462 463
f 447 463 464
f 447 464 448
f 448 464 462
f 449 465 466
f 449 466 450
f 450 466 451
f 451 466 467
f 451 467 468
f 451 468 469
f 451 469 452
f 452 470 453
f 452 469 470
f 453 470 454
f 454 470 455
f 455 469 471
f 455 471 456
f 455 470 469
f 456 458 457
f 456 471 472
f 456 472 458
f 460 473 461
f 461 473 474
f 461 474 462
f 462 474 475
f 462 464 463
f 465 476 477
f 465 477 478
f 465 478 479
f 465 479 466
f 466 479 480
f 466 480 467
f 467 480 468
f 468 481 469
f 468 480 482
f 468 482 483
f 468 483 481
f 469 483 472
f 469 472 471
f 469 481 483
f 473 484 474
f 474 485 475
f 474 484 485
f 476 486 477
f 477 487 478
f 477 486 488
f 477 488 489
f 477 489 490
f 477 490 487
f 478 487 479
f 479 487 491
f 479 491 480
f 480 491 492
f 480 492 482
f 482 493 494
f 482 494 483
f 482 492 493
f 483 494 495
f 484 496 497
f 484 497 485
f 485 497 498
f 486 499 488
f 487 490 500
f 487 500 492
f 487 492 491
f 488 499 489
f 489 499 501
f 489 501 502
f 489 502 503
f 489 503 500
f 489 500 490
f 492 500 504
f 492 504 493
f 493 504 494
f 494 504 495
f 495 504 505
f 496 506 497
f 497 506 498
f 498 506 507
f 500 503 502
f 500 502 501
f 500 501 508
f 500 508 509
f 500 509 504
f 501 510 511
f 501 511 512
f 501 512 513
f 501 513 514
f 501 514 515
f 501 515 508
f 504 509 515
f 504 515 516
f 504 516 505
f 506 517 518
f 506 518 507
f 507 518 519
f 508 515 509
f 510 520 511
f 511 520 521
f 511 521 522
f 511 522 523
f 511 523 524
f 511 524 525
f 511 525 512
f 512 525 526
f 512 526 513
f 513 527 515
f 513 515 514
f 515 527 528
f 515 528 516
f 517 529 518
f 518 529 519
f 519 529 531
f 519 531 530
f 520 532 521
f 521 533 534
f 521 534 522
f 521 532 535
f 521 535 533
f 522 534 524
f 522 524 523
f 524 536 537
f 524 537 538
f 524 538 539
f 524 539 525
f 524 534 536
f 525 539 538
f 525 538 540
f 525 540 541
f 525 541 542
f 525 542 526
f 526 542 541
f 529 543 531
f 530 531 544
f 531 543 545
f 531 545 546
f 531 546 547
f 531 547 548
f 531 548 549
f 531 549 550
f 531 550 544
f 533 535 534
f 534 535 536
f 535 551 552
f 535 552 553
f 535 553 554
f 535 554 555
f 535 555 556
f 535 556 537
f 535 537 536
f 537 556 557
f 537 557 538
f 546 558 547
f 547 549 548
f 547 558 560
f 547 560 559
f 551 561 552
f 552 561 562
f 552 562 563
f 552 563 564
f 552 564 553
f 553 564 554
f 554 564 565
f 554 565 566
f 554 566 567
f 554 567 568
f 554 568 569
f 554 569 555
f 555 569 556
f 559 560 571
f 559 571 572
f 559 572 570
f 561 573 562
f 562 573 574
f 562 574 575
f 562 575 576
f 562 576 564
f 562 564 563
f 564 576 565
f 565 577 578
f 565 578 566
f 565 576 577
f 570 572 580
f 570 580 579
f 573 581 582
f 573 582 575
f 573 575 574
f 575 582 583
f 575 583 584
f 575 584 576
f 576 584 577
f 577 584 583
f 577 583 578
f 579 580 585
f 580 586 587
f 580 587 588
f 580 588 589
f 580 589 590
f 580 590 585
f 581 591 582
f 582 591 592
f 582 592 593
f 582 593 594
f 582 594 583
f 583 594 595
f 583 595 596
f 586 597 587
f 587 598 599
f 587 597 600
f 587 600 601
f 587 601 602
f 587 602 598
f 591 603 604
f 591 604 605
f 591 605 606
f 591 606 592
f 592 606 607
f 592 607 593
f 593 607 608
f 593 608 594
f 594 608 609
f 594 609 596
f 594 596 595
f 596 609 610
f 598 611 612
f 598 612 599
f 598 602 611
f 599 612 613
f 602 614 615
f 602 615 616
f 602 616 617
f 602 617 613
f 602 613 611
f 603 618 604
f 603 619 618
f 604 618 620
f 604 620 621
f 604 621 606
f 604 606 605
f 606 621 622
f 606 622 623
f 606 623 624
f 606 624 625
f 606 625 626
f 606 626 607
f 607 626 608
f 608 626 609
f 609 626 610
f 610 626 627
f 611 613 612
f 614 628 629
f 614 629 630
f 614 630 615
f 614 631 628
f 615 630 632
f 615 632 633
f 615 633 616
f 616 633 634
f 616 634 617
f 618 619 635
f 618 635 636
f 618 636 637
f 618 637 620
f 620 637 622
f 620 622 621
f 622 639 624
f 622 624 623
f 622 637 638
f 624 639 626
f 624 626 625
f 626 639 640
f 626 640 627
f 628 631 629
f 629 631 641
f 629 641 642
f 629 642 643
f 629 643 632
f 629 632 630
f 632 644 645
f 632 645 633
f 632 643 644
f 633 645 646
f 637 647 648
f 637 648 638
f 637 649 647
f 638 648 650
f 642 651 652
f 642 652 643
f 643 652 653
f 643 653 644
f 644 654 673
f 644 673 655
f 644 655 646
f 644 646 645
f 644 653 654
f 646 655 656
f 647 649 657
f 647 657 658
f 647 658 659
f 647 659 660
f 647 660 661
f 647 661 648
f 648 661 662
f 648 662 663
f 648 663 650
f 650 663 664
f 651 665 666
f 651 666 667
f 651 667 652
f 652 667 668
f 652 668 669
f 652 669 670
f 652 670 671
f 652 671 653
f 653 671 672
f 653 672 673
f 653 673 654
f 655 673 656
f 656 673 674
f 657 675 658
f 658 675 659
f 659 675 676
f 659 676 677
f 659 677 660
f 660 677 663
f 660 663 661
f 661 663 662
f 663 678 679
f 663 679 680
f 663 680 664
f 663 677 678
f 664 680 681
f 665 682 666
f 665 683 682
f 666 682 684
f 666 684 669
f 666 669 668
f 666 668 667
f 669 684 670
f 670 684 685
f 670 685 671
f 671 685 674
f 671 674 686
f 671 686 672
f 672 686 673
f 673 686 674
f 674 685 687
f 675 688 676
f 676 688 689
f 676 689 690
f 676 690 691
f 676 691 677
f 677 691 692
f 677 692 678
f 678 692 693
f 678 693 679
f 679 681 680
f 682 683 694
f 682 694 695
f 682 695 696
f 682 696 684
f 683 697 694
f 684 696 698
f 684 698 685
f 685 698 699
f 685 699 687
f 687 699 700
f 688 701 702
f 688 702 689
f 689 702 690
f 690 702 703
f 690 703 691
f 691 703 704
f 691 704 693
f 691 693 692
f 694 697 705
f 694 705 706
f 694 706 707
f 694 707 708
f 694 708 709
f 694 709 710
f 694 710 699
f 694 699 696
f 694 696 695
f 696 699 698
f 699 710 709
f 699 709 711
f 699 711 712
f 699 712 700
f 701 713 714
f 701 714 715
f 701 715 703
f 701 703 702
f 703 715 716
f 703 716 717
f 703 717 718
f 703 718 704
f 704 719 720
f 704 718 719
f 705 721 722
f 705 722 723
f 705 723 706
f 706 723 724
f 706 724 725
f 706 725 726
f 706 726 727
f 706 727 707
f 707 727 728
f 707 728 708
f 708 728 729
f 708 729 709
f 709 729 711
f 711 729 712
f 712 729 730
f 713 731 732
f 713 732 733
f 713 733 714
f 714 716 715
f 714 733 734
f 714 734 717
f 714 717 716
f 717 734 735
f 717 735 719
f 717 719 718
f 719 736 737
f 719 737 738
f 719 738 720
f 719 735 736
f 721 724 722
f 721 739 740
f 721 740 741
f 721 741 742
f 721 742 724
f 722 724 723
f 724 742 743
f 724 743 726
f 724 726 725
f 726 744 745
f 726 745 728
f 726 728 727
f 726 743 744
f 728 745 729
f 729 745 730
f 731 746 747
f 731 747 732
f 732 747 748
f 732 748 733
f 733 748 749
f 733 749 750
f 733 750 736
f 733 736 735
f 733 735 734
f 736 749 751
f 736 751 752
f 736 752 737
f 736 750 749
f 737 752 738
f 738 752 753
f 739 754 755
f 739 755 740
f 740 755 754
f 740 754 756
f 740 756 757
f 740 757 758
f 740 758 759
f 740 759 760
f 740 760 761
f 740 761 741
f 741 762 742
f 741 761 763
f 741 763 744
f 741 744 762
f 742 762 743
f 743 762 744
f 744 763 764
f 746 765 747
f 747 765 766
f 747 766 767
f 747 767 768
f 747 768 748
f 748 768 769
f 748 769 749
f 749 769 770
f 749 770 771
f 749 771 772
f 749 772 773
f 749 773 753
f 749 753 751
f 751 753 752
f 754 774 775
f 754 775 776
f 754 776 777
f 754 777 756
f 756 778 779
f 756 779 758
f 756 758 757
f 756 777 776
f 756 776 778
f 758 779 780
f 758 780 759
f 759 780 781
f 759 781 760
f 760 781 782
f 760 782 783
f 760 783 761
f 761 783 764
f 761 764 763
f 765 784 785
f 765 785 766
f 766 785 786
f 766 786 787
f 766 787 767
f 767 787 788
f 767 788 789
f 767 789 768
f 768 789 790
f 768 790 769
f 769 790 771
f 769 771 770
f 771 791 772
f 771 790 792
f 772 791 773
f 774 793 794
f 774 794 775
f 775 794 795
f 775 795 796
f 775 796 778
f 775 778 776
f 778 796 797
f 778 797 798
f 778 798 799
f 778 799 780
f 778 780 779
f 780 799 781
f 781 799 798
f 781 798 800
f 781 800 782
f 784 801 785
f 785 801 802
f 785 802 803
f 785 803 804
f 785 804 786
f 786 804 805
f 786 805 826
f 786 826 806
f 786 806 787
f 787 806 788
f 788 806 790
f 788 790 789
f 790 806 792
f 792 807 808
f 792 806 807
f 793 809 810
f 793 810 794
f 793 811 812
f 793 812 809
f 794 813 795
f 794 810 814
f 794 814 815
f 794 815 813
f 795 813 816
f 795 816 817
f 795 817 818
f 795 818 797
f 795 797 796
f 797 818 819
f 797 819 820
f 797 820 798
f 801 821 822
f 801 822 802
f 802 822 823
f 802 823 824
f 802 824 804
f 802 804 803
f 804 824 825
f 804 825 805
f 805 825 808
f 805 808 826
f 806 826 807
f 807 826 808
f 808 825 827
f 808 827 828
f 809 812 829
f 809 829 830
f 809 830 810
f 810 830 814
f 811 831 812
f 812 831 832
f 812 832 829
f 813 815 833
f 813 833 834
f 813 834 816
f 814 835 836
f 814 836 815
f 814 830 837
f 814 837 835
f 815 836 838
f 815 838 839
f 815 839 840
f 815 840 841
f 815 841 842
f 815 842 843
f 815 843 834
f 815 834 833
f 816 818 817
f 816 834 844
f 816 844 818
f 818 844 819
f 819 844 843
f 821 845 823
f 821 823 822
f 823 845 846
f 823 846 824
f 824 846 847
f 824 847 848
f 824 848 849
f 824 849 850
f 824 850 851
f 824 851 852
f 824 852 827
f 824 827 825
f 827 852 828
f 828 853 854
f 828 852 853
f 829 832 831
f 829 831 855
f 829 855 856
f 829 856 858
f 829 858 837
f 829 837 830
f 834 843 844
f 835 857 836
f 835 837 857
f 836 857 839
f 836 839 838
f 837 858 881
f 837 881 859
f 837 859 860
f 837 860 857
f 839 857 860
f 839 860 861
f 841 843 842
f 845 862 846
f 846 862 863
f 846 863 864
f 846 864 847
f 847 864 848
f 848 865 866
f 848 866 867
f 848 867 869
f 848 869 868
f 848 868 849
f 848 864 865
f 849 868 869
f 849 869 870
f 849 870 871
f 849 871 872
f 849 872 850
f 850 872 873
f 850 873 851
f 851 873 874
f 851 874 852
f 852 874 875
f 852 875 853
f 853 875 876
f 853 876 854
f 855 877 878
f 855 878 879
f 855 879 856
f 856 879 880
f 856 880 881
f 856 881 858
f 859 881 882
f 859 882 860
f 860 882 883
f 860 883 861
f 862 884 863
f 862 883 884
f 863 885 865
f 863 865 864
f 863 884 883
f 863 883 886
f 863 886 887
f 863 887 885
f 865 887 888
f 865 888 889
f 865 889 866
f 865 885 887
f 866 889 890
f 866 890 870
f 866 870 867
f 867 870 869
f 871 891 872
f 872 891 873
f 873 876 874
f 874 876 875
f 877 890 878
f 878 890 892
f 878 892 888
f 878 888 879
f 879 888 880
f 880 883 881
f 880 888 883
f 881 883 882
f 883 887 886
f 883 888 887
f 888 892 889
f 889 892 890

