# https://github.com/mikedh/trimesh
v 0.23987013 0.09129835 -0.41011429
v 0.32376555 0.01365162 -0.41011429
v 0.23987013 0.21578090 -0.41011429
v 0.23987013 0.17735359 -0.46135652
v 0.32376555 0.05055565 -0.42932802
v 0.32376555 0.13360494 -0.41011429
v 0.24417372 0.21346551 -0.41011429
v 0.23987013 0.22071633 -0.41878390
v 0.23987013 0.17979084 -0.46238863
v 0.32376555 0.07052079 -0.43937564
v 0.32376555 0.06816478 -0.43824869
v 0.32376555 0.13372681 -0.41500139
v 0.32299352 0.13498606 -0.41011429
v 0.25023487 0.21013460 -0.41011429
v 0.24058464 0.22045229 -0.41901264
v 0.23987013 0.22114284 -0.42500436
v 0.23987013 0.19012883 -0.46552956
v 0.32376555 0.07543591 -0.44109952
v 0.32376555 0.13390960 -0.42375469
v 0.32305923 0.13498606 -0.41500139
v 0.32149056 0.13764672 -0.41011429
v 0.26244757 0.20166516 -0.41011429
v 0.26836911 0.19880138 -0.41500139
v 0.24066678 0.22051322 -0.42500436
v 0.24024792 0.22018826 -0.43500179
v 0.23987013 0.22053353 -0.43428767
v 0.23987013 0.19498304 -0.46631616
v 0.32376555 0.08624105 -0.44340917
v 0.32376555 0.13392991 -0.42500436
v 0.32317421 0.13498606 -0.42500436
v 0.32008612 0.14012459 -0.41011429
v 0.27309978 0.19293168 -0.41011429
v 0.27402782 0.19380502 -0.41500139
v 0.26827055 0.19861859 -0.42500436
v 0.25196782 0.21155633 -0.42500436
v 0.24566847 0.21655269 -0.42500436
v 0.23987013 0.21917275 -0.45499659
v 0.23987013 0.21988359 -0.44417909
v 0.23987013 0.20012157 -0.46710280
v 0.32037359 0.12875076 -0.45020989
v 0.32376555 0.09623378 -0.44497687
v 0.32376555 0.13401115 -0.43500179
v 0.32320705 0.13498606 -0.43500179
v 0.32016826 0.14022614 -0.42500436
v 0.32011899 0.14016521 -0.41500139
v 0.31823000 0.14256184 -0.41011429
v 0.28265145 0.18310143 -0.41011429
v 0.27902132 0.18895084 -0.41500139
v 0.27892277 0.18878835 -0.42500436
v 0.27392107 0.19362223 -0.42500436
v 0.26243934 0.20192918 -0.44499919
v 0.27351043 0.19295198 -0.44499919
v 0.26743284 0.19794835 -0.44499919
v 0.23987013 0.21894932 -0.45561585
v 0.25071946 0.21056113 -0.45499659
v 0.25034165 0.21025646 -0.46049181
v 0.23987013 0.20499606 -0.46710280
v 0.25500661 0.19498304 -0.46461460
v 0.28058177 0.17780042 -0.46034116
v 0.26500177 0.18499030 -0.46280146
v 0.32376555 0.11591458 -0.44704106
v 0.32376555 0.10622650 -0.44649431
v 0.32376555 0.10500788 -0.44631022
v 0.32037359 0.13122863 -0.45020989
v 0.32376555 0.13189887 -0.44103259
v 0.32005328 0.14006366 -0.44037983
v 0.32013541 0.14016521 -0.43500179
v 0.31620139 0.14512095 -0.41011429
v 0.31120792 0.15139687 -0.41011429
v 0.30417761 0.15939918 -0.41011429
v 0.28336596 0.18393415 -0.41500139
v 0.28323457 0.18379200 -0.42500436
v 0.28310317 0.18362951 -0.43500179
v 0.28296354 0.18346703 -0.44499919
v 0.27872565 0.18862587 -0.43500179
v 0.27851212 0.18846339 -0.44499919
v 0.26202047 0.20158392 -0.45499659
v 0.27295193 0.19244424 -0.45499659
v 0.26701397 0.19744059 -0.45499659
v 0.24500322 0.21236874 -0.46253926
v 0.23987013 0.21391234 -0.46453092
v 0.26120740 0.20095429 -0.46104968
v 0.24500322 0.20499606 -0.46592009
v 0.28058177 0.18084697 -0.46034116
v 0.23987013 0.21037832 -0.46614322
v 0.32376555 0.12609009 -0.44634926
v 0.31038663 0.15046260 -0.45039397
v 0.31905952 0.13789044 -0.44704664
v 0.32149875 0.13472202 -0.44422927
v 0.32376555 0.12743057 -0.44513866
v 0.31588930 0.14518188 -0.43500179
v 0.31069872 0.15082818 -0.44499919
v 0.30649367 0.15582454 -0.44499919
v 0.30149198 0.16175519 -0.44499919
v 0.31115863 0.15135625 -0.41500139
v 0.29263020 0.17308840 -0.41500139
v 0.28836766 0.17808476 -0.41500139
v 0.28796524 0.17761762 -0.44499919
v 0.27794543 0.18732600 -0.45499659
v 0.27167070 0.19138809 -0.46101063
v 0.30662507 0.15604796 -0.43500179
f 1 2 6
f 1 6 13
f 1 13 21
f 1 21 31
f 1 31 46
f 1 46 68
f 1 68 69
f 1 69 70
f 1 70 47
f 1 47 32
f 1 32 22
f 1 22 14
f 1 14 7
f 1 7 3
f 1 3 8
f 1 8 16
f 1 16 26
f 1 26 38
f 1 38 37
f 1 37 54
f 1 54 81
f 1 81 85
f 1 85 57
f 1 57 39
f 1 39 27
f 1 27 17
f 1 17 9
f 1 9 4
f 1 4 2
f 2 4 5
f 2 5 11
f 2 11 10
f 2 10 18
f 2 18 28
f 2 28 41
f 2 41 63
f 2 63 62
f 2 62 61
f 2 61 86
f 2 86 90
f 2 90 65
f 2 65 42
f 2 42 29
f 2 29 19
f 2 19 12
f 2 12 6
f 3 7 8
f 4 9 10
f 4 10 11
f 4 11 5
f 6 12 13
f 7 14 8
f 8 15 16
f 8 14 15
f 9 17 18
f 9 18 10
f 12 19 20
f 12 20 13
f 13 20 21
f 14 22 15
f 15 22 23
f 15 23 16
f 16 23 24
f 16 24 25
f 16 25 26
f 17 27 28
f 17 28 18
f 19 29 30
f 19 30 20
f 20 30 31
f 20 31 21
f 22 32 23
f 23 33 34
f 23 34 35
f 23 35 36
f 23 36 24
f 23 32 33
f 24 36 25
f 25 37 38
f 25 38 26
f 25 36 37
f 27 39 40
f 27 40 41
f 27 41 28
f 29 42 30
f 30 42 43
f 30 43 44
f 30 44 45
f 30 45 31
f 31 45 46
f 32 47 48
f 32 48 33
f 33 48 49
f 33 49 50
f 33 50 34
f 34 51 35
f 34 50 52
f 34 52 53
f 34 53 51
f 35 37 36
f 35 51 37
f 37 51 55
f 37 55 56
f 37 56 54
f 39 57 58
f 39 58 59
f 39 59 60
f 39 60 40
f 40 61 62
f 40 62 63
f 40 63 41
f 40 60 59
f 40 59 84
f 40 84 64
f 40 64 61
f 42 65 66
f 42 66 43
f 43 66 67
f 43 67 44
f 44 68 46
f 44 46 45
f 44 67 69
f 44 69 68
f 47 70 48
f 48 71 49
f 48 70 69
f 48 69 71
f 49 71 72
f 49 72 73
f 49 73 74
f 49 74 75
f 49 75 50
f 50 75 76
f 50 76 52
f 51 53 77
f 51 77 55
f 52 76 78
f 52 78 79
f 52 79 77
f 52 77 53
f 54 80 81
f 54 56 80
f 55 77 56
f 56 77 79
f 56 79 78
f 56 78 82
f 56 82 80
f 57 83 84
f 57 84 58
f 57 85 83
f 58 84 59
f 61 64 86
f 64 84 87
f 64 87 88
f 64 88 89
f 64 89 90
f 64 90 86
f 65 90 89
f 65 89 66
f 66 91 67
f 66 89 88
f 66 88 87
f 66 87 92
f 66 92 93
f 66 93 94
f 66 94 91
f 67 91 95
f 67 95 69
f 69 95 96
f 69 96 97
f 69 97 71
f 71 97 72
f 72 97 96
f 72 96 98
f 72 98 73
f 73 98 74
f 74 98 87
f 74 87 99
f 74 99 76
f 74 76 75
f 76 99 78
f 78 99 100
f 78 100 82
f 80 82 81
f 81 82 100
f 81 100 85
f 83 85 100
f 83 100 84
f 84 100 87
f 87 94 93
f 87 93 92
f 87 100 99
f 87 98 94
f 91 94 101
f 91 101 96
f 91 96 95
f 94 98 96
f 94 96 101

