# https://github.com/mikedh/trimesh
v 0.12884001 0.23771474 0.41517580
v -0.05774144 0.17224780 0.39453554
v 0.11503714 0.17224780 0.41029081
v 0.12884001 0.17224780 0.41154581
v 0.12884001 0.23771474 0.38642859
v -0.04728144 0.23771474 0.38642859
v -0.11634974 0.19217113 0.38643140
v -0.14657049 0.17224780 0.38643140
v 0.12884001 0.17224780 0.38642859
v -0.11634974 0.19217753 0.38642859
v -0.11634974 0.17224780 0.38642859
f 1 2 3
f 1 3 4
f 1 4 9
f 1 9 5
f 1 5 6
f 1 6 7
f 1 7 8
f 1 8 2
f 2 8 11
f 2 11 9
f 2 9 4
f 2 4 3
f 5 9 11
f 5 11 10
f 5 10 6
f 6 10 8
f 6 8 7
f 8 10 11

