# https://github.com/mikedh/trimesh
v 0.12885483 0.17224780 0.38642859
v 0.27609649 0.17224780 0.38642859
v 0.12885483 0.17224780 0.41155139
v 0.12885483 0.35178518 0.38642859
v 0.27566665 0.17357689 0.38642859
v 0.27594829 0.18500005 0.42500257
v 0.27993539 0.17224780 0.42718282
v 0.25442675 0.17224780 0.46222836
v 0.24929833 0.17689967 0.46064904
v 0.13912648 0.31920406 0.43048784
v 0.12885483 0.33479416 0.42762965
v 0.12885483 0.35192886 0.38667512
v 0.13361269 0.34892941 0.38642859
v 0.27519235 0.17501378 0.38642859
v 0.27028626 0.20055421 0.41953272
v 0.27605203 0.18500005 0.43499467
v 0.28026149 0.17224780 0.43499467
v 0.28011325 0.17224780 0.42942467
v 0.27262816 0.19500428 0.42500257
v 0.26499483 0.17224780 0.46513277
v 0.24894261 0.18500005 0.46079540
v 0.13856323 0.32498747 0.43044931
v 0.13897824 0.33077091 0.43011805
v 0.13539132 0.33445290 0.42906260
v 0.12885483 0.34499595 0.42634308
v 0.12885483 0.35316819 0.39118198
v 0.13189334 0.35095897 0.38815430
v 0.15055422 0.34043390 0.38944086
v 0.14549993 0.34160134 0.38642859
v 0.27175367 0.18512577 0.38642859
v 0.27040485 0.20075178 0.42500257
v 0.27001947 0.19006503 0.38642859
v 0.24093874 0.25141954 0.40856993
v 0.24544463 0.24500750 0.41500276
v 0.27559257 0.18500005 0.44499448
v 0.27253923 0.19500428 0.43499467
v 0.27222794 0.19500428 0.44499448
v 0.27980199 0.17224780 0.44499448
v 0.27456984 0.17224780 0.46300647
v 0.26499483 0.17501378 0.46477839
v 0.18246597 0.29894415 0.43984821
v 0.17932372 0.29228064 0.44032586
v 0.15500082 0.32498747 0.43270659
v 0.14501080 0.33236942 0.43044931
v 0.14501080 0.33738053 0.42926291
v 0.12885483 0.35359925 0.42221373
v 0.12885483 0.35395846 0.39500317
v 0.13328660 0.35167742 0.39500317
v 0.13828161 0.34898329 0.39500317
v 0.16104820 0.33086070 0.38889387
v 0.16374579 0.32656804 0.38642859
v 0.15363720 0.33529705 0.38642859
v 0.14501080 0.34481633 0.39500317
v 0.15104336 0.34081107 0.39500317
v 0.19011413 0.31007993 0.39985669
v 0.27033073 0.20064402 0.43499467
v 0.26760352 0.20576288 0.42500257
v 0.26754421 0.20563716 0.43499467
v 0.25599787 0.21501276 0.38642859
v 0.24096838 0.24166676 0.38642859
v 0.24052373 0.24236724 0.38642859
v 0.23773718 0.24665990 0.38642859
v 0.23274218 0.25325155 0.38642859
v 0.20040059 0.30041695 0.39950231
v 0.23784094 0.25714907 0.41500276
v 0.24139822 0.25215593 0.41500276
v 0.24474798 0.23500326 0.38642859
v 0.24553356 0.24500750 0.42500257
v 0.25678346 0.22501698 0.42500257
v 0.26260850 0.21465354 0.42500257
v 0.27920914 0.17224780 0.45732862
v 0.27013806 0.20028479 0.45101133
v 0.27025664 0.20050032 0.44499448
v 0.27218348 0.18500005 0.46182775
v 0.26499483 0.18500005 0.46325299
v 0.25712436 0.20227847 0.46029466
v 0.22499028 0.25273070 0.45033336
v 0.22499028 0.25772384 0.44964772
v 0.18913586 0.30016547 0.44004852
v 0.15500082 0.33262089 0.43090385
v 0.13500595 0.35153374 0.42181313
v 0.14026776 0.35015073 0.42038786
v 0.12885483 0.35573658 0.41451743
v 0.16175964 0.33109421 0.43071896
v 0.12885483 0.35446137 0.40036514
v 0.13917094 0.34955803 0.40500295
v 0.19141845 0.30145869 0.38642859
v 0.17346902 0.31774923 0.38642859
v 0.13973418 0.34984541 0.41151285
v 0.14026776 0.35015073 0.41817683
v 0.15145837 0.34115231 0.40500295
v 0.15646820 0.33718294 0.40500295
v 0.16776256 0.32822046 0.40500295
v 0.19036609 0.31027749 0.40500295
v 0.19537593 0.30573338 0.40500295
v 0.26747009 0.20551142 0.44499448
v 0.25189218 0.23338678 0.44499448
v 0.23214929 0.25397000 0.38642859
v 0.20093417 0.29129279 0.38642859
v 0.20066738 0.30074024 0.40500295
v 0.23284593 0.26334560 0.41500276
v 0.23297933 0.26350725 0.42500257
v 0.23309790 0.26366889 0.43499467
v 0.23797433 0.25718501 0.42500257
v 0.23810774 0.25720295 0.43499467
v 0.24135375 0.25219187 0.42500257
v 0.24129446 0.25220981 0.43499467
v 0.27090880 0.19241792 0.46086475
v 0.27136829 0.19545332 0.45460910
v 0.26830012 0.19909938 0.45767528
v 0.25126967 0.23227319 0.45147356
v 0.26163024 0.20227847 0.46029466
v 0.23499511 0.24500750 0.45209759
v 0.23499511 0.25287437 0.45055678
v 0.19049950 0.30016547 0.44004852
v 0.15187338 0.34147561 0.41500276
v 0.18007964 0.32004824 0.43006411
v 0.13585082 0.35216236 0.41491032
v 0.19716939 0.29890823 0.43875423
v 0.21000524 0.29001758 0.44001770
v 0.15688321 0.33750623 0.41500276
v 0.18007964 0.32004824 0.42920896
v 0.17948675 0.31958124 0.41500276
v 0.18405193 0.31665361 0.42553416
v 0.19076629 0.31060079 0.41500276
v 0.19113684 0.31094205 0.42500257
v 0.24093874 0.25161710 0.44499448
v 0.19613186 0.30607462 0.42500257
v 0.20080078 0.30091986 0.41500276
v 0.22383416 0.27455321 0.43499467
v 0.24041997 0.25068316 0.45035648
v 0.20499541 0.29168794 0.44051847
v 0.19087005 0.31072652 0.43125054
v 0.21955059 0.27954635 0.43499467
v 0.21013863 0.29016125 0.43499467
v 0.20093417 0.30108151 0.42500257
v 0.20066738 0.30075821 0.43208256
f 1 2 7
f 1 7 18
f 1 18 17
f 1 17 38
f 1 38 71
f 1 71 39
f 1 39 20
f 1 20 8
f 1 8 3
f 1 3 11
f 1 11 25
f 1 25 46
f 1 46 83
f 1 83 85
f 1 85 47
f 1 47 26
f 1 26 12
f 1 12 4
f 1 4 13
f 1 13 29
f 1 29 52
f 1 52 51
f 1 51 88
f 1 88 87
f 1 87 99
f 1 99 98
f 1 98 63
f 1 63 62
f 1 62 61
f 1 61 60
f 1 60 67
f 1 67 59
f 1 59 32
f 1 32 30
f 1 30 14
f 1 14 5
f 1 5 2
f 2 5 6
f 2 6 7
f 3 8 9
f 3 9 10
f 3 10 11
f 4 12 13
f 5 14 15
f 5 15 6
f 6 16 17
f 6 17 18
f 6 18 7
f 6 15 19
f 6 19 16
f 8 20 21
f 8 21 22
f 8 22 10
f 8 10 9
f 10 22 11
f 11 22 23
f 11 23 24
f 11 24 25
f 12 26 27
f 12 27 13
f 13 27 28
f 13 28 29
f 14 30 15
f 15 31 19
f 15 30 32
f 15 32 33
f 15 33 34
f 15 34 31
f 16 35 38
f 16 38 17
f 16 19 36
f 16 36 37
f 16 37 35
f 19 31 36
f 20 39 40
f 20 40 41
f 20 41 42
f 20 42 23
f 20 23 22
f 20 22 21
f 23 43 44
f 23 44 24
f 23 42 41
f 23 41 43
f 24 44 25
f 25 45 46
f 25 44 45
f 26 47 48
f 26 48 27
f 27 48 49
f 27 49 28
f 28 50 51
f 28 51 52
f 28 52 29
f 28 49 53
f 28 53 54
f 28 54 55
f 28 55 50
f 31 56 36
f 31 34 57
f 31 57 58
f 31 58 56
f 32 59 33
f 33 60 61
f 33 61 62
f 33 62 63
f 33 63 64
f 33 64 65
f 33 65 66
f 33 66 34
f 33 59 67
f 33 67 60
f 34 66 68
f 34 68 69
f 34 69 70
f 34 70 57
f 35 71 38
f 35 37 72
f 35 72 71
f 36 56 73
f 36 73 37
f 37 73 72
f 39 71 74
f 39 74 40
f 40 74 75
f 40 75 76
f 40 76 77
f 40 77 41
f 41 77 78
f 41 78 79
f 41 79 43
f 43 80 44
f 43 79 80
f 44 80 45
f 45 80 46
f 46 81 82
f 46 82 83
f 46 80 84
f 46 84 81
f 47 85 48
f 48 86 49
f 48 85 86
f 49 86 53
f 50 55 64
f 50 64 87
f 50 87 88
f 50 88 51
f 53 86 89
f 53 89 90
f 53 90 54
f 54 90 91
f 54 91 92
f 54 92 93
f 54 93 94
f 54 94 55
f 55 94 95
f 55 95 64
f 56 58 96
f 56 96 73
f 57 70 97
f 57 97 58
f 58 97 96
f 63 98 64
f 64 99 87
f 64 95 100
f 64 100 101
f 64 101 65
f 64 98 99
f 65 101 102
f 65 102 103
f 65 103 104
f 65 104 66
f 66 104 105
f 66 105 106
f 66 106 68
f 68 106 107
f 68 107 97
f 68 97 69
f 69 97 70
f 71 108 74
f 71 72 109
f 71 109 108
f 72 110 108
f 72 108 109
f 72 73 96
f 72 96 97
f 72 97 111
f 72 111 110
f 74 108 75
f 75 108 112
f 75 112 76
f 76 112 113
f 76 113 78
f 76 78 77
f 78 113 114
f 78 114 115
f 78 115 79
f 79 115 80
f 80 115 84
f 81 84 82
f 82 116 90
f 82 90 83
f 82 84 117
f 82 117 116
f 83 118 86
f 83 86 85
f 83 90 118
f 84 115 119
f 84 119 120
f 84 120 117
f 86 118 89
f 89 118 90
f 90 116 91
f 91 116 121
f 91 121 92
f 92 121 122
f 92 122 123
f 92 123 93
f 93 123 94
f 94 124 125
f 94 125 95
f 94 123 124
f 95 125 126
f 95 126 100
f 97 107 127
f 97 127 111
f 100 126 128
f 100 128 129
f 100 129 101
f 101 130 102
f 101 129 130
f 102 130 103
f 103 127 105
f 103 105 104
f 103 130 120
f 103 120 127
f 105 127 107
f 105 107 106
f 108 110 111
f 108 111 131
f 108 131 112
f 111 127 131
f 112 131 114
f 112 114 113
f 114 131 115
f 115 132 120
f 115 120 119
f 115 131 132
f 116 117 122
f 116 122 121
f 117 133 126
f 117 126 122
f 117 120 133
f 120 131 127
f 120 130 134
f 120 134 135
f 120 135 136
f 120 136 137
f 120 137 133
f 120 132 131
f 122 126 124
f 122 124 123
f 124 126 125
f 126 133 128
f 128 136 129
f 128 133 137
f 128 137 136
f 129 136 130
f 130 136 134
f 134 136 135

