# https://github.com/mikedh/trimesh
v -0.04495545 0.40070924 0.40116328
v -0.03499479 0.40039015 0.40077201
v -0.04495545 0.40070924 0.39541945
v -0.05498811 0.40043801 0.40067521
v 0.01495250 0.39199790 0.41114235
v 0.02496116 0.39193410 0.41148117
v -0.03499479 0.40039015 0.39725876
v 0.01495250 0.39518887 0.40499517
v -0.02882639 0.40008700 0.40027589
v -0.03499479 0.39887443 0.38643262
v -0.04495545 0.39936903 0.38643262
v -0.05498811 0.40043801 0.39718616
v -0.06043647 0.40003914 0.40010646
v -0.10147918 0.39027479 0.40020329
v -0.05498811 0.39496550 0.40345839
v 0.00499185 0.39148736 0.41067848
v 0.02496116 0.38497779 0.41357461
v 0.08906939 0.37017170 0.42009690
v 0.03496982 0.39113635 0.41118672
v 0.09098952 0.37017170 0.42009690
v -0.02882639 0.40008700 0.39920294
v 0.00499185 0.39662480 0.39500803
v 0.01353641 0.39477405 0.38643262
v 0.00499185 0.39550796 0.38643262
v 0.02496116 0.39415181 0.40499517
v 0.01495250 0.39573133 0.39500803
v 0.04689861 0.38663709 0.38642859
v -0.05498811 0.39882657 0.38643262
v -0.06487677 0.39767784 0.38643262
v -0.10687953 0.39254037 0.38643262
v -0.06043647 0.40003914 0.39950547
v -0.11636016 0.39073747 0.39209980
v -0.11496807 0.39091298 0.39255157
v -0.10815161 0.38917390 0.39940867
v -0.11636016 0.38242501 0.40075991
v -0.11496807 0.38272816 0.40083656
v -0.10488740 0.38550431 0.40115520
v -0.00981713 0.38984400 0.40997261
v -0.00314469 0.39073747 0.41029125
v 0.01495250 0.38497779 0.41286874
v 0.06715594 0.36147633 0.42043170
v 0.12497576 0.34499499 0.42657888
v 0.04145025 0.39038646 0.41051310
v 0.12884001 0.34499499 0.42634493
v 0.11499111 0.36128485 0.42108917
v 0.12043946 0.36019993 0.42029053
v 0.07303634 0.38086143 0.41158605
v 0.01495250 0.39464641 0.38643262
v 0.03496982 0.39195004 0.40499517
v 0.02496116 0.39386463 0.39500803
v 0.02496116 0.39285946 0.38643262
v 0.06499580 0.38352591 0.40500727
v 0.07044417 0.38012752 0.38884068
v 0.06427576 0.38162726 0.38642859
v 0.04689861 0.23771474 0.38642859
v -0.11636016 0.39088106 0.38643262
v 0.03129758 0.39110443 0.38643262
v 0.03530585 0.39100870 0.39571792
v 0.04015417 0.39005142 0.39952967
v -0.11636016 0.38737100 0.39723456
v -0.11496807 0.38772202 0.39755321
v -0.11636016 0.38650945 0.39807355
v -0.11636016 0.37505388 0.40213132
v -0.06497277 0.38497779 0.40541869
v 0.00499185 0.38497779 0.41198134
v -0.11496807 0.37497410 0.40228459
v 0.12884001 0.33478391 0.42763567
v 0.11499111 0.34499499 0.42580846
v -0.02121788 0.38079762 0.41010168
v 0.04123424 0.39032266 0.40499517
v 0.07858070 0.37956908 0.40500727
v 0.12884001 0.35359463 0.42220244
v 0.12425572 0.35511035 0.42249689
v 0.12884001 0.35571665 0.41451040
v 0.12043946 0.36019993 0.41708785
v 0.10013412 0.37006003 0.41070271
v 0.08498912 0.37703228 0.40500727
v 0.07663658 0.37901068 0.39500803
v 0.07454844 0.37856394 0.38642859
v 0.06705994 0.38081357 0.38642859
v 0.04689861 0.23771474 0.39502415
v -0.04728360 0.23773070 0.38643262
v -0.11636016 0.29204091 0.38643262
v 0.12884001 0.23771474 0.38642859
v -0.11636016 0.37369773 0.40211520
v 0.12884001 0.27624565 0.42097220
v -0.11636016 0.36728388 0.40140125
v 0.08498912 0.37601116 0.39500803
v 0.08498912 0.37503791 0.38642859
v 0.08381305 0.37546870 0.38642859
v 0.12884001 0.35487103 0.40500727
v 0.10013412 0.37006003 0.40920624
v 0.09307766 0.37159169 0.38642859
v 0.09180557 0.37218201 0.38642859
v 0.09571783 0.37199056 0.40552759
v 0.09386971 0.37197459 0.39500803
v 0.12884001 0.23771474 0.41516787
v -0.11636016 0.29368427 0.38684002
v 0.12884001 0.35179174 0.38642859
v 0.12884001 0.24530923 0.41655946
v 0.12884001 0.35396159 0.39500803
v 0.11357501 0.36182731 0.39500803
v 0.09379771 0.37122473 0.38642859
v 0.12884001 0.35191938 0.38667464
v 0.12833598 0.35207891 0.38642859
v 0.12884001 0.35316387 0.39118418
v 0.09806999 0.36887935 0.38642859
v 0.11283096 0.36072645 0.38642859
f 1 2 7
f 1 7 3
f 1 3 12
f 1 12 4
f 1 4 5
f 1 5 6
f 1 6 2
f 2 6 8
f 2 8 9
f 2 9 21
f 2 21 7
f 3 7 10
f 3 10 11
f 3 11 12
f 4 12 31
f 4 31 13
f 4 13 14
f 4 14 15
f 4 15 16
f 4 16 5
f 5 16 17
f 5 17 18
f 5 18 6
f 6 19 8
f 6 18 20
f 6 20 19
f 7 21 22
f 7 22 23
f 7 23 24
f 7 24 10
f 8 19 25
f 8 25 9
f 9 25 26
f 9 26 21
f 10 24 27
f 10 27 11
f 11 28 12
f 11 27 28
f 12 28 29
f 12 29 30
f 12 30 31
f 13 31 30
f 13 30 32
f 13 32 33
f 13 33 34
f 13 34 14
f 14 34 35
f 14 35 36
f 14 36 37
f 14 37 38
f 14 38 15
f 15 38 39
f 15 39 16
f 16 39 17
f 17 39 40
f 17 40 41
f 17 41 18
f 18 41 42
f 18 42 20
f 19 43 25
f 19 20 43
f 20 42 44
f 20 44 45
f 20 45 46
f 20 46 47
f 20 47 43
f 21 26 22
f 22 26 23
f 23 26 48
f 23 48 27
f 23 27 24
f 25 43 49
f 25 49 50
f 25 50 26
f 26 50 51
f 26 51 48
f 27 52 53
f 27 53 54
f 27 54 80
f 27 80 79
f 27 79 90
f 27 90 89
f 27 89 94
f 27 94 93
f 27 93 103
f 27 103 107
f 27 107 108
f 27 108 105
f 27 105 99
f 27 99 84
f 27 84 55
f 27 55 83
f 27 83 56
f 27 56 30
f 27 30 29
f 27 29 28
f 27 48 51
f 27 51 57
f 27 57 58
f 27 58 59
f 27 59 52
f 30 56 32
f 32 60 61
f 32 61 34
f 32 34 33
f 32 56 83
f 32 83 98
f 32 98 87
f 32 87 85
f 32 85 63
f 32 63 35
f 32 35 62
f 32 62 60
f 34 61 60
f 34 60 62
f 34 62 35
f 35 63 64
f 35 64 38
f 35 38 36
f 36 38 37
f 38 65 40
f 38 40 39
f 38 64 66
f 38 66 65
f 40 65 41
f 41 67 68
f 41 68 42
f 41 65 69
f 41 69 66
f 41 66 67
f 42 68 67
f 42 67 44
f 43 70 49
f 43 47 71
f 43 71 52
f 43 52 70
f 44 72 73
f 44 73 45
f 44 67 86
f 44 86 100
f 44 100 97
f 44 97 84
f 44 84 99
f 44 99 104
f 44 104 106
f 44 106 101
f 44 101 91
f 44 91 74
f 44 74 72
f 45 73 46
f 46 73 72
f 46 72 74
f 46 74 75
f 46 75 92
f 46 92 76
f 46 76 47
f 47 76 77
f 47 77 71
f 49 70 50
f 50 57 51
f 50 70 59
f 50 59 58
f 50 58 57
f 52 71 53
f 52 59 70
f 53 71 78
f 53 78 79
f 53 79 80
f 53 80 54
f 55 81 82
f 55 82 83
f 55 84 97
f 55 97 81
f 63 85 66
f 63 66 64
f 65 66 69
f 66 85 67
f 67 85 87
f 67 87 86
f 71 77 88
f 71 88 89
f 71 89 90
f 71 90 78
f 74 91 92
f 74 92 75
f 76 92 77
f 77 93 94
f 77 94 88
f 77 92 95
f 77 95 96
f 77 96 93
f 78 90 79
f 81 97 82
f 82 98 83
f 82 97 98
f 86 87 100
f 87 98 97
f 87 97 100
f 88 94 89
f 91 101 92
f 92 102 103
f 92 103 95
f 92 101 102
f 93 96 103
f 95 103 96
f 99 105 104
f 101 106 103
f 101 103 102
f 103 106 107
f 104 105 108
f 104 108 106
f 106 108 107

