# https://github.com/mikedh/trimesh
v 0.05223682 0.28584743 -0.44500092
v 0.05223682 0.28548709 -0.45500165
v 0.05223682 0.28525889 -0.44334555
v 0.07501364 0.28422594 -0.44334555
v 0.07501364 0.28465834 -0.44500092
v 0.05501045 0.28394970 -0.46500242
v 0.05223682 0.28324103 -0.47221485
v 0.08500606 0.28400975 -0.44500092
v 0.08500606 0.28272459 -0.45500165
v 0.05223682 0.20496589 -0.44334555
v 0.08500606 0.28366143 -0.44334555
v 0.08500606 0.28038245 -0.47292778
v 0.05223682 0.28193185 -0.48221558
v 0.06500286 0.28179973 -0.47499827
v 0.09501684 0.28265253 -0.44334555
v 0.09501684 0.28289273 -0.44500092
v 0.09791905 0.27979392 -0.46821553
v 0.09475969 0.27931347 -0.47452459
v 0.09125131 0.28010619 -0.47087687
v 0.23985174 0.16315588 -0.44334555
v 0.05223682 0.24961048 -0.49033141
v 0.23985174 0.17528692 -0.45959184
v 0.23985174 0.17286071 -0.45672053
v 0.23985174 0.16451313 -0.44524020
v 0.08500606 0.27972186 -0.47792816
v 0.05501045 0.28133130 -0.48499900
v 0.05223682 0.28155953 -0.48499900
v 0.10366836 0.28105506 -0.44334555
v 0.10383368 0.28109109 -0.44500092
v 0.10188663 0.28053859 -0.45500165
v 0.10061921 0.28016627 -0.46155000
v 0.10500926 0.27736771 -0.47499827
v 0.06083323 0.28007016 -0.49011168
v 0.23985174 0.21994351 -0.44334555
v 0.05223682 0.25115988 -0.49075139
v 0.05501045 0.24969456 -0.49025330
v 0.23985174 0.19013241 -0.46552980
v 0.23985174 0.17980303 -0.46239480
v 0.23985174 0.17736481 -0.46136445
v 0.07955064 0.27995005 -0.47969586
v 0.06450691 0.28050256 -0.48499411
v 0.05223682 0.28085089 -0.48896903
v 0.14220528 0.27016115 -0.44334555
v 0.15498970 0.26648581 -0.44334555
v 0.12501246 0.27498955 -0.44500092
v 0.12501246 0.27387252 -0.45500165
v 0.13228634 0.27065361 -0.46500242
v 0.11500167 0.27450910 -0.47499827
v 0.12958619 0.26978883 -0.47890478
v 0.12291846 0.27083376 -0.48152217
v 0.11500167 0.27197480 -0.48324105
v 0.05223682 0.27498955 -0.49274370
v 0.05223682 0.28045452 -0.49068791
v 0.05501045 0.28033441 -0.49049744
v 0.10500926 0.27338010 -0.48459369
v 0.09330858 0.27074969 -0.49028260
v 0.23985174 0.21989547 -0.44418055
v 0.23672912 0.22242977 -0.44334555
v 0.05223682 0.25499138 -0.49150828
v 0.06070466 0.24992277 -0.49005309
v 0.23985174 0.19500884 -0.46632087
v 0.05223682 0.26499647 -0.49322715
v 0.16573521 0.26245016 -0.44334555
v 0.15498970 0.26634169 -0.44500092
v 0.14117666 0.27032930 -0.44500092
v 0.15498970 0.26522467 -0.45500165
v 0.12574719 0.27137426 -0.47534007
v 0.13728255 0.26921231 -0.46500242
v 0.15498970 0.26409563 -0.46500242
v 0.15498970 0.26275042 -0.47499827
v 0.16035327 0.26013204 -0.48015001
v 0.15498970 0.26098481 -0.48096550
v 0.05223682 0.26777098 -0.49313924
v 0.09330858 0.26853970 -0.49028260
v 0.17142943 0.25071549 -0.48028675
v 0.23985174 0.21971530 -0.44689071
v 0.23974153 0.21981139 -0.44696885
v 0.23584744 0.22307836 -0.44418055
v 0.23575559 0.22319847 -0.44334555
v 0.05223682 0.25777790 -0.49201611
v 0.23985174 0.20013751 -0.46711195
v 0.17008853 0.26045632 -0.44334555
v 0.16994159 0.25997591 -0.44973761
v 0.16595563 0.26212585 -0.44584572
v 0.16439432 0.26188564 -0.45500165
v 0.16329221 0.26132113 -0.46500242
v 0.14501566 0.26697826 -0.46500242
v 0.16162069 0.26062450 -0.47499827
v 0.18189943 0.25097972 -0.47232717
v 0.20168220 0.24086653 -0.47121868
v 0.22098739 0.23060921 -0.47059363
v 0.17142943 0.24854150 -0.48028675
v 0.22438556 0.21463469 -0.47064248
v 0.23090634 0.22084433 -0.47040319
v 0.23985174 0.21917482 -0.45500165
v 0.23941091 0.21953514 -0.45500165
v 0.23439634 0.22351076 -0.45500165
v 0.22844496 0.22883159 -0.44500092
v 0.22851844 0.22887963 -0.44334555
v 0.23090634 0.21770948 -0.47040319
v 0.23985174 0.20500194 -0.46710706
v 0.17091511 0.26005998 -0.44334555
v 0.16940890 0.25973567 -0.45500165
v 0.18329541 0.25170037 -0.46500242
v 0.17499290 0.25597626 -0.46500242
v 0.16830680 0.25927925 -0.46500242
v 0.20298636 0.24153914 -0.46500242
v 0.22205275 0.23125780 -0.46500242
v 0.22704896 0.22729419 -0.46500242
v 0.23277992 0.22230966 -0.46500242
v 0.23985174 0.21392605 -0.46453851
v 0.23985174 0.21039483 -0.46614996
v 0.23985174 0.21895862 -0.45561695
v 0.22789392 0.22849528 -0.45500165
v 0.22352225 0.23236281 -0.44334555
v 0.19203877 0.24916607 -0.44334555
v 0.21408087 0.23769565 -0.44446868
v 0.21499929 0.23625433 -0.45500165
v 0.22289771 0.23183432 -0.45500165
v 0.22343040 0.23229073 -0.44500092
v 0.22214460 0.23319155 -0.44334555
v 0.20456603 0.24270420 -0.44334555
v 0.21426456 0.23769565 -0.44334555
f 1 2 7
f 1 7 13
f 1 13 27
f 1 27 42
f 1 42 53
f 1 53 52
f 1 52 73
f 1 73 62
f 1 62 80
f 1 80 59
f 1 59 35
f 1 35 21
f 1 21 10
f 1 10 3
f 1 3 4
f 1 4 5
f 1 5 2
f 2 6 7
f 2 5 8
f 2 8 9
f 2 9 6
f 3 10 20
f 3 20 34
f 3 34 58
f 3 58 79
f 3 79 99
f 3 99 115
f 3 115 121
f 3 121 123
f 3 123 122
f 3 122 116
f 3 116 102
f 3 102 82
f 3 82 63
f 3 63 44
f 3 44 43
f 3 43 28
f 3 28 15
f 3 15 11
f 3 11 4
f 4 11 5
f 5 11 8
f 6 9 12
f 6 12 7
f 7 12 14
f 7 14 13
f 8 11 15
f 8 15 16
f 8 16 17
f 8 17 18
f 8 18 9
f 9 18 19
f 9 19 12
f 10 21 22
f 10 22 23
f 10 23 24
f 10 24 20
f 12 19 25
f 12 25 26
f 12 26 13
f 12 13 14
f 13 26 27
f 15 28 16
f 16 28 29
f 16 29 30
f 16 30 31
f 16 31 17
f 17 31 32
f 17 32 18
f 18 25 19
f 18 32 33
f 18 33 25
f 20 24 23
f 20 23 22
f 20 22 39
f 20 39 38
f 20 38 37
f 20 37 61
f 20 61 81
f 20 81 101
f 20 101 112
f 20 112 111
f 20 111 113
f 20 113 95
f 20 95 76
f 20 76 57
f 20 57 34
f 21 35 36
f 21 36 37
f 21 37 38
f 21 38 39
f 21 39 22
f 25 33 40
f 25 40 26
f 26 40 41
f 26 41 33
f 26 33 27
f 27 33 42
f 28 43 29
f 29 43 44
f 29 44 45
f 29 45 30
f 30 45 46
f 30 46 47
f 30 47 48
f 30 48 31
f 31 48 32
f 32 48 49
f 32 49 50
f 32 50 51
f 32 51 33
f 33 52 53
f 33 53 54
f 33 54 42
f 33 41 40
f 33 51 55
f 33 55 56
f 33 56 52
f 34 57 58
f 35 59 60
f 35 60 36
f 36 60 37
f 37 60 62
f 37 62 61
f 42 54 53
f 44 63 64
f 44 64 65
f 44 65 45
f 45 65 46
f 46 65 66
f 46 66 68
f 46 68 47
f 47 67 48
f 47 68 67
f 48 67 49
f 49 67 69
f 49 69 70
f 49 70 71
f 49 71 50
f 50 71 51
f 51 71 72
f 51 72 56
f 51 56 55
f 52 56 73
f 56 74 62
f 56 62 73
f 56 72 75
f 56 75 92
f 56 92 74
f 57 76 77
f 57 77 58
f 58 77 78
f 58 78 79
f 59 80 60
f 60 80 62
f 61 62 74
f 61 74 81
f 63 82 83
f 63 83 84
f 63 84 85
f 63 85 64
f 64 85 86
f 64 86 66
f 64 66 65
f 66 86 69
f 66 69 87
f 66 87 68
f 67 68 87
f 67 87 69
f 69 86 88
f 69 88 70
f 70 88 71
f 71 88 89
f 71 89 90
f 71 90 91
f 71 91 75
f 71 75 72
f 74 92 93
f 74 93 81
f 75 91 94
f 75 94 100
f 75 100 92
f 76 95 77
f 77 96 97
f 77 97 78
f 77 95 96
f 78 97 98
f 78 98 99
f 78 99 79
f 81 93 100
f 81 100 94
f 81 94 101
f 82 102 83
f 83 103 84
f 83 102 104
f 83 104 105
f 83 105 103
f 84 103 106
f 84 106 85
f 85 106 86
f 86 106 88
f 88 106 105
f 88 105 89
f 89 105 104
f 89 104 107
f 89 107 90
f 90 107 91
f 91 107 108
f 91 108 109
f 91 109 110
f 91 110 94
f 92 100 93
f 94 110 111
f 94 111 112
f 94 112 101
f 95 113 110
f 95 110 109
f 95 109 96
f 96 109 108
f 96 108 97
f 97 114 98
f 97 108 114
f 98 114 115
f 98 115 99
f 102 116 104
f 103 105 106
f 104 116 117
f 104 117 107
f 107 117 118
f 107 118 108
f 108 118 119
f 108 119 114
f 110 113 111
f 114 119 120
f 114 120 115
f 115 120 121
f 116 122 117
f 117 123 118
f 117 122 123
f 118 123 119
f 119 123 121
f 119 121 120

