# https://github.com/mikedh/trimesh
v -0.11637058 0.39089718 0.38643065
v -0.11637058 0.39072597 0.39209437
v -0.11637058 0.29201698 0.38643065
v -0.11704186 0.39076877 0.38643065
v -0.12066197 0.39019090 0.38878283
v -0.12066197 0.39019090 0.39066458
v -0.11637058 0.38734436 0.39722604
v -0.15101328 0.38030288 0.39068922
v -0.11637058 0.29364359 0.38683739
v -0.25427008 0.17224780 0.38970315
v -0.25290355 0.17224780 0.38934159
v -0.24981089 0.17224780 0.38761598
v -0.24770117 0.17224780 0.38643065
v -0.11999068 0.38999829 0.38643065
v -0.15288326 0.37942538 0.38643065
v -0.15101328 0.38030288 0.38811108
v -0.11637058 0.38650966 0.39806831
v -0.17498747 0.37124956 0.39164242
v -0.18035768 0.37017941 0.39032766
v -0.11637058 0.36726868 0.40139216
v -0.28776202 0.17224780 0.39680079
v -0.36016405 0.17224780 0.38643065
v -0.17690539 0.37114257 0.38643065
v -0.18035768 0.37017941 0.38893279
v -0.12912485 0.37927556 0.39980212
v -0.12246003 0.38109478 0.40040198
v -0.11637058 0.38242173 0.40074918
v -0.16501421 0.37302598 0.39346665
v -0.18421753 0.36497858 0.39286062
v -0.17498747 0.36497858 0.39597702
v -0.21224335 0.35123810 0.39145753
v -0.19296810 0.36163977 0.39177391
v -0.23135076 0.34083641 0.39106312
v -0.11637058 0.37368947 0.40211734
v -0.34498841 0.17224780 0.40741333
v -0.36129084 0.17224780 0.39500120
v -0.35920510 0.17571503 0.38643065
v -0.17985421 0.36992261 0.38643065
v -0.18306676 0.36818898 0.38643065
v -0.23132679 0.34081501 0.38643065
v -0.14950290 0.36962295 0.39993772
v -0.11637058 0.37503782 0.40213376
v -0.20500314 0.35322854 0.39281544
v -0.16475049 0.36433649 0.39864144
v -0.15501696 0.36765391 0.39952070
v -0.22502159 0.34261283 0.39231622
v -0.18498470 0.35496214 0.39780328
v -0.23513868 0.33809686 0.38643065
v -0.24257068 0.33216834 0.38643065
v -0.24218710 0.33184731 0.39168146
v -0.23482703 0.33510050 0.39292020
v -0.34498841 0.17500874 0.40710929
v -0.34772146 0.17224780 0.40709698
v -0.36109906 0.17224780 0.40075532
v -0.36083534 0.17312530 0.40143737
v -0.35954073 0.17849737 0.39500120
v -0.35580075 0.18502517 0.38643065
v -0.16789111 0.35838658 0.39978364
v -0.16122627 0.36054826 0.40010616
v -0.15501696 0.36264569 0.40038967
v -0.25038627 0.30029979 0.40009794
v -0.34498841 0.18502517 0.40598971
v -0.22502159 0.33499348 0.39577568
v -0.21500038 0.33497208 0.39763483
v -0.17522720 0.35502636 0.39938715
v -0.23501882 0.32497704 0.39670628
v -0.27829224 0.30201203 0.38643065
v -0.28052181 0.30042821 0.38793030
v -0.28052181 0.30042821 0.39065430
v -0.27498379 0.30280390 0.39224640
v -0.25273573 0.32234451 0.39194852
v -0.27498379 0.29497054 0.39617628
v -0.24530375 0.32540509 0.39354265
v -0.35560897 0.17224780 0.40476534
v -0.36095521 0.17224780 0.40159553
v -0.35697550 0.18502517 0.39500120
v -0.35381091 0.18502517 0.40280554
v -0.35148540 0.19502020 0.40136957
v -0.35011888 0.20026386 0.40015957
v -0.35172516 0.19371465 0.38643065
v -0.19066659 0.34057957 0.40011439
v -0.24499208 0.31498203 0.39735955
v -0.25424612 0.30417368 0.39832097
v -0.26115069 0.29092544 0.40029311
v -0.33499116 0.20501524 0.40415519
v -0.32453841 0.23485053 0.40080875
v -0.33067581 0.23142610 0.40044925
v -0.34498841 0.19502020 0.40388200
v -0.28033003 0.30025700 0.38643065
v -0.28272745 0.29781711 0.38643065
v -0.28742638 0.29295871 0.38643065
v -0.29030329 0.29039037 0.38840073
v -0.29030329 0.29039037 0.39054954
v -0.28430974 0.29422146 0.39220530
v -0.26467487 0.29454249 0.39861679
v -0.28498101 0.28499693 0.39639610
v -0.32089436 0.24148534 0.40023559
v -0.35793447 0.17224780 0.40339512
v -0.35011888 0.20026386 0.39893317
v -0.35201284 0.19568369 0.39536071
v -0.34139228 0.21284860 0.40106142
v -0.33153889 0.23313831 0.39500120
v -0.32945314 0.23759006 0.38643065
v -0.34971130 0.19947195 0.39226899
v -0.34927979 0.19859445 0.38643065
v -0.32499394 0.22502671 0.40230837
v -0.31713039 0.24816297 0.39884686
v -0.32070255 0.25094530 0.39218682
v -0.29011148 0.29013354 0.38643065
v -0.29205340 0.28765085 0.38643065
v -0.32058269 0.25079548 0.38643065
v -0.33957022 0.21777122 0.38643065
v -0.32389110 0.24619392 0.38643065
f 1 2 7
f 1 7 17
f 1 17 27
f 1 27 42
f 1 42 34
f 1 34 20
f 1 20 9
f 1 9 3
f 1 3 13
f 1 13 22
f 1 22 37
f 1 37 57
f 1 57 80
f 1 80 105
f 1 105 112
f 1 112 103
f 1 103 113
f 1 113 111
f 1 111 110
f 1 110 109
f 1 109 91
f 1 91 90
f 1 90 89
f 1 89 67
f 1 67 49
f 1 49 48
f 1 48 40
f 1 40 39
f 1 39 38
f 1 38 23
f 1 23 15
f 1 15 14
f 1 14 4
f 1 4 5
f 1 5 6
f 1 6 2
f 2 6 8
f 2 8 7
f 3 9 10
f 3 10 11
f 3 11 12
f 3 12 13
f 4 14 5
f 5 14 15
f 5 15 16
f 5 16 8
f 5 8 6
f 7 8 18
f 7 18 17
f 8 16 24
f 8 24 19
f 8 19 18
f 9 20 21
f 9 21 10
f 10 21 35
f 10 35 53
f 10 53 74
f 10 74 98
f 10 98 75
f 10 75 54
f 10 54 36
f 10 36 22
f 10 22 13
f 10 13 12
f 10 12 11
f 15 23 16
f 16 23 24
f 17 25 26
f 17 26 27
f 17 18 28
f 17 28 25
f 18 19 29
f 18 29 30
f 18 30 28
f 19 31 32
f 19 32 29
f 19 24 33
f 19 33 31
f 20 34 35
f 20 35 21
f 22 36 37
f 23 38 24
f 24 39 40
f 24 40 33
f 24 38 39
f 25 41 26
f 25 28 30
f 25 30 41
f 26 41 27
f 27 41 42
f 29 32 31
f 29 31 43
f 29 43 30
f 30 44 45
f 30 45 41
f 30 43 46
f 30 46 47
f 30 47 44
f 31 46 43
f 31 33 46
f 33 48 49
f 33 49 50
f 33 50 51
f 33 51 46
f 33 40 48
f 34 42 35
f 35 52 53
f 35 42 52
f 36 54 55
f 36 55 56
f 36 56 37
f 37 56 57
f 41 45 47
f 41 47 58
f 41 58 59
f 41 59 60
f 41 60 42
f 42 60 61
f 42 61 62
f 42 62 52
f 44 47 45
f 46 63 47
f 46 51 63
f 47 64 61
f 47 61 65
f 47 65 58
f 47 63 66
f 47 66 64
f 49 67 68
f 49 68 69
f 49 69 50
f 50 69 70
f 50 70 71
f 50 71 72
f 50 72 73
f 50 73 51
f 51 66 63
f 51 73 66
f 52 62 53
f 53 62 74
f 54 75 55
f 55 76 56
f 55 75 77
f 55 77 78
f 55 78 79
f 55 79 76
f 56 76 57
f 57 76 80
f 58 81 59
f 58 65 61
f 58 61 81
f 59 81 60
f 60 81 61
f 61 66 82
f 61 82 83
f 61 83 84
f 61 84 62
f 61 64 66
f 62 84 85
f 62 85 86
f 62 86 87
f 62 87 88
f 62 88 77
f 62 77 74
f 66 73 72
f 66 72 82
f 67 89 68
f 68 90 91
f 68 91 92
f 68 92 93
f 68 93 69
f 68 89 90
f 69 93 94
f 69 94 70
f 70 94 72
f 70 72 71
f 72 95 83
f 72 83 82
f 72 94 96
f 72 96 97
f 72 97 95
f 74 77 98
f 75 98 77
f 76 99 100
f 76 100 80
f 76 79 99
f 77 88 78
f 78 88 101
f 78 101 79
f 79 101 87
f 79 87 102
f 79 102 103
f 79 103 99
f 80 100 104
f 80 104 105
f 83 95 84
f 84 95 97
f 84 97 86
f 84 86 106
f 84 106 85
f 85 106 86
f 86 97 87
f 87 101 88
f 87 97 96
f 87 96 107
f 87 107 94
f 87 94 93
f 87 93 108
f 87 108 102
f 91 109 92
f 92 110 111
f 92 111 108
f 92 108 93
f 92 109 110
f 94 107 96
f 99 103 104
f 99 104 100
f 102 108 103
f 103 112 104
f 103 108 113
f 104 112 105
f 108 111 113

