# https://github.com/mikedh/trimesh
v 0.03496318 0.28684816 -0.45155650
v 0.02499092 0.28652021 -0.45155650
v 0.03496318 0.28676617 -0.44499290
v 0.04497898 0.28627425 -0.44499290
v 0.05220779 0.28582335 -0.44499290
v 0.08499867 0.28360969 -0.44334188
v 0.04497898 0.28615129 -0.45155650
v -0.03240401 0.28037119 -0.45155650
v -0.03240401 0.28037119 -0.44932941
v 0.02499092 0.28619227 -0.44499290
v 0.02499092 0.28299478 -0.41012236
v 0.03008592 0.28291279 -0.41012236
v 0.03496318 0.28278983 -0.41012236
v 0.06827663 0.28000227 -0.41011831
v 0.08491158 0.27848551 -0.41011831
v 0.09501448 0.28172398 -0.43738273
v 0.09501448 0.28262585 -0.44334188
v 0.05220779 0.28553638 -0.45155650
v -0.05931605 0.27209052 -0.45155650
v -0.06275626 0.27090174 -0.44881830
v -0.04498909 0.27409920 -0.41012236
v -0.03985055 0.27528802 -0.41012236
v -0.03497328 0.27639484 -0.41012236
v -0.02987828 0.27705073 -0.41012236
v -0.02500102 0.27762464 -0.41012236
v 0.01009785 0.28164199 -0.41012236
v 0.01501866 0.28217492 -0.41012236
v 0.02007011 0.28262585 -0.41012236
v 0.05220779 0.28131405 -0.41011831
v 0.06087364 0.28061718 -0.41011831
v 0.09022431 0.27770662 -0.41011831
v 0.10320131 0.28090411 -0.43837252
v 0.10363678 0.28102708 -0.44334188
v 0.14217585 0.27012283 -0.44334188
v 0.15497869 0.26647443 -0.44334188
v 0.16573480 0.26241606 -0.44334188
v 0.17004594 0.26040739 -0.44334188
v 0.17087334 0.25999749 -0.44334188
v 0.19203717 0.24913421 -0.44334188
v 0.21424612 0.23765606 -0.44334188
v 0.22212812 0.23318776 -0.44334188
v 0.22352165 0.23232691 -0.44334188
v 0.22848600 0.22884247 -0.44334188
v 0.23519224 0.22359531 -0.44334188
v 0.23985177 0.21990590 -0.44334188
v 0.05220779 0.21707736 -0.45155650
v -0.06297400 0.27094272 -0.45155650
v -0.06519490 0.27020484 -0.45155650
v -0.09471975 0.26012045 -0.45155650
v -0.09489394 0.25798881 -0.41012236
v -0.09162792 0.25909561 -0.41012236
v -0.05413396 0.27118868 -0.41012236
v -0.05030183 0.27241850 -0.41012236
v -0.09981475 0.25593913 -0.41012236
v -0.10530167 0.25356150 -0.41012236
v -0.10887253 0.25175780 -0.41012236
v -0.11109342 0.25060999 -0.41012236
v -0.14427623 0.23199897 -0.41012236
v -0.14893577 0.22937538 -0.41012236
v -0.15459687 0.22601393 -0.41012236
v -0.16169503 0.22134067 -0.41012236
v -0.16670293 0.21715935 -0.41012236
v -0.18333787 0.20285264 -0.41012236
v -0.19914544 0.18924282 -0.41012236
v -0.20502427 0.18411864 -0.41012236
v 0.05220779 -0.03244960 -0.41011831
v 0.09501448 0.27688676 -0.41011831
v 0.14174040 0.27032781 -0.42951292
v 0.14235005 0.27057379 -0.43499744
v 0.14735797 0.26926199 -0.43499744
v 0.15497869 0.26717132 -0.43499744
v 0.16495094 0.26352292 -0.43499744
v 0.17052495 0.26024342 -0.44306603
v 0.19591284 0.24790440 -0.43499744
v 0.21563962 0.23773804 -0.43499744
v 0.22391355 0.23269585 -0.43499744
v 0.22892147 0.22912942 -0.43499744
v 0.23985177 0.16308902 -0.44334188
v 0.23985177 0.22109471 -0.42500603
v -0.20502427 0.06855819 -0.45155650
v -0.10874189 0.25315157 -0.45155650
v -0.11453363 0.24999507 -0.45155650
v -0.12859932 0.24224731 -0.45155650
v -0.15037280 0.23019525 -0.45155650
v -0.15211469 0.22912942 -0.45155650
v -0.16230467 0.22175060 -0.45155650
v -0.18838933 0.20121291 -0.45155650
v -0.18995702 0.19994211 -0.44998252
v -0.20502427 0.18567640 -0.45155650
v -0.20502427 -0.13194063 -0.41012236
v -0.20254210 0.18887389 -0.45155650
v -0.09859543 -0.13194063 -0.41012236
v 0.23911145 0.09077662 -0.41011831
v 0.10010947 0.27561596 -0.41011831
v 0.14500642 0.26290798 -0.41011831
v 0.14827245 0.26192415 -0.41011831
v 0.15197393 0.26073533 -0.41011831
v 0.17109105 0.26053038 -0.42906263
v 0.10498673 0.27430418 -0.41011831
v 0.14012915 0.26430178 -0.41011831
v 0.17122170 0.26061237 -0.43499744
v 0.21611866 0.23802499 -0.42500603
v 0.22430548 0.23302379 -0.42500603
v 0.22931337 0.22937538 -0.42500603
v 0.23985177 0.09126855 -0.41011831
v -0.20476300 -0.13194063 -0.41980547
v 0.23985177 0.22072577 -0.41878319
v -0.20502427 -0.13194063 -0.41981763
v -0.19135052 0.19875330 -0.45155650
v -0.18995702 0.19994211 -0.45020971
v 0.16133654 0.25712794 -0.41011831
v 0.21080592 0.24032062 -0.41954991
v 0.21115428 0.24052559 -0.42500603
v 0.22299907 0.23208095 -0.41799623
v 0.23985177 0.21572457 -0.41011831
v 0.23985177 0.21592954 -0.41042662
v 0.16969755 0.25356150 -0.41011831
v 0.19003400 0.24409202 -0.41011831
v 0.20954305 0.23478651 -0.41011831
v 0.21302682 0.23290081 -0.41011831
f 1 2 3
f 1 3 4
f 1 4 5
f 1 5 6
f 1 6 7
f 1 7 18
f 1 18 46
f 1 46 80
f 1 80 89
f 1 89 91
f 1 91 109
f 1 109 87
f 1 87 86
f 1 86 85
f 1 85 84
f 1 84 83
f 1 83 82
f 1 82 81
f 1 81 49
f 1 49 48
f 1 48 47
f 1 47 19
f 1 19 8
f 1 8 2
f 2 8 9
f 2 9 10
f 2 10 3
f 3 10 11
f 3 11 12
f 3 12 13
f 3 13 4
f 4 13 6
f 4 6 5
f 6 14 15
f 6 15 16
f 6 16 17
f 6 17 18
f 6 18 7
f 6 13 14
f 8 19 9
f 9 19 20
f 9 20 21
f 9 21 22
f 9 22 23
f 9 23 24
f 9 24 25
f 9 25 26
f 9 26 27
f 9 27 10
f 10 27 28
f 10 28 11
f 11 28 29
f 11 29 12
f 12 29 13
f 13 29 30
f 13 30 14
f 14 30 29
f 14 29 66
f 14 66 93
f 14 93 105
f 14 105 115
f 14 115 120
f 14 120 119
f 14 119 118
f 14 118 117
f 14 117 111
f 14 111 97
f 14 97 96
f 14 96 95
f 14 95 100
f 14 100 99
f 14 99 94
f 14 94 67
f 14 67 31
f 14 31 15
f 15 31 32
f 15 32 16
f 16 32 17
f 17 32 33
f 17 33 18
f 18 33 34
f 18 34 35
f 18 35 36
f 18 36 37
f 18 37 38
f 18 38 39
f 18 39 40
f 18 40 41
f 18 41 42
f 18 42 43
f 18 43 44
f 18 44 45
f 18 45 78
f 18 78 46
f 19 47 20
f 20 47 48
f 20 48 49
f 20 49 50
f 20 50 51
f 20 51 52
f 20 52 53
f 20 53 21
f 21 53 29
f 21 29 22
f 22 29 23
f 23 29 24
f 24 29 25
f 25 29 26
f 26 29 27
f 27 29 28
f 29 53 52
f 29 52 51
f 29 51 50
f 29 50 54
f 29 54 55
f 29 55 56
f 29 56 57
f 29 57 58
f 29 58 59
f 29 59 60
f 29 60 61
f 29 61 62
f 29 62 63
f 29 63 64
f 29 64 65
f 29 65 90
f 29 90 66
f 31 67 32
f 32 67 68
f 32 68 69
f 32 69 33
f 33 69 70
f 33 70 71
f 33 71 34
f 34 71 35
f 35 71 72
f 35 72 36
f 36 72 73
f 36 73 37
f 37 73 38
f 38 73 39
f 39 74 75
f 39 75 40
f 39 73 74
f 40 75 41
f 41 75 76
f 41 76 42
f 42 76 43
f 43 76 77
f 43 77 44
f 44 77 45
f 45 77 79
f 45 79 107
f 45 107 116
f 45 116 115
f 45 115 105
f 45 105 78
f 46 78 80
f 49 81 55
f 49 55 54
f 49 54 50
f 55 81 56
f 56 81 57
f 57 82 83
f 57 83 84
f 57 84 58
f 57 81 82
f 58 84 59
f 59 84 60
f 60 84 85
f 60 85 61
f 61 85 86
f 61 86 87
f 61 87 88
f 61 88 62
f 62 88 63
f 63 88 64
f 64 88 65
f 65 89 80
f 65 80 108
f 65 108 90
f 65 88 91
f 65 91 89
f 66 90 92
f 66 92 93
f 67 94 68
f 68 95 96
f 68 96 97
f 68 97 98
f 68 98 71
f 68 71 70
f 68 70 69
f 68 94 99
f 68 99 100
f 68 100 95
f 71 98 72
f 72 98 101
f 72 101 73
f 73 101 74
f 74 101 102
f 74 102 75
f 75 102 76
f 76 103 77
f 76 102 103
f 77 104 79
f 77 103 104
f 78 105 93
f 78 93 92
f 78 92 106
f 78 106 80
f 79 104 107
f 80 106 108
f 87 109 110
f 87 110 88
f 88 110 109
f 88 109 91
f 90 108 106
f 90 106 92
f 97 111 98
f 98 111 112
f 98 112 113
f 98 113 101
f 101 113 102
f 102 113 112
f 102 112 103
f 103 107 104
f 103 112 114
f 103 114 107
f 107 114 116
f 111 117 112
f 112 118 119
f 112 119 120
f 112 120 114
f 112 117 118
f 114 120 115
f 114 115 116

