# https://github.com/mikedh/trimesh
v 0.03499507 0.28690153 -0.45500422
v 0.03499507 0.28551191 -0.46500358
v 0.02499846 0.28670913 -0.45500422
v 0.03499507 0.28685877 -0.45156163
v 0.04499168 0.28615329 -0.45156163
v 0.04499168 0.28608912 -0.45500422
v 0.04499168 0.28348097 -0.47500294
v 0.04499168 0.28217688 -0.48499715
v 0.03499507 0.28271133 -0.48499715
v 0.02499846 0.28653809 -0.45156163
v 0.02499846 0.28375888 -0.47500294
v 0.01497667 0.28557605 -0.45500422
v -0.03241279 0.28040248 -0.45274165
v -0.03241279 0.28040248 -0.45156163
v 0.04972559 0.28576845 -0.45156163
v 0.05221845 0.28549054 -0.45500422
v 0.04499168 0.28074452 -0.49118456
v 0.05221845 0.28155690 -0.48499715
v 0.05221845 0.28083003 -0.48896819
v 0.05221845 0.28044522 -0.49068689
v 0.03499507 0.28100106 -0.49168223
v 0.02499846 0.28074452 -0.49144107
v 0.02499846 0.28226238 -0.48499715
v 0.01429681 0.28093693 -0.48575649
v -0.00718205 0.27967560 -0.47783497
v -0.02924006 0.27991077 -0.45940620
v 0.00498006 0.28296787 -0.46500358
v 0.01497667 0.28410095 -0.46500358
v -0.01501315 0.28217688 -0.45500422
v -0.03500637 0.27800807 -0.46500358
v -0.03545962 0.27939767 -0.45564553
v -0.04500297 0.27693915 -0.45500422
v -0.02553855 0.28087279 -0.45564553
v -0.05935579 0.27212900 -0.45156163
v 0.05221845 0.28555468 -0.45156163
v 0.03499507 0.27499372 -0.49449372
v -0.00972527 0.27005529 -0.50002444
v -0.01501315 0.27039734 -0.50025529
v 0.05221845 0.27499372 -0.49273911
v 0.04499168 0.27499372 -0.49354973
v -0.02500976 0.27084631 -0.50061446
v -0.03500637 0.27056837 -0.50047588
v 0.01716737 0.28031695 -0.49070230
v 0.01049457 0.27991077 -0.48959923
v 0.00498006 0.27961147 -0.48749059
v -0.02500976 0.27657571 -0.48499715
v -0.03500637 0.27484405 -0.48499715
v -0.03500637 0.27642608 -0.47500294
v -0.04500297 0.27544266 -0.46500358
v -0.06152130 0.27048284 -0.46290520
v -0.06323357 0.27103871 -0.45500422
v -0.06298176 0.27097458 -0.45156163
v 0.05221845 0.21710080 -0.45156163
v -0.00972527 0.26984149 -0.50002444
v 0.05221845 0.26776779 -0.49313930
v 0.05221845 0.26498860 -0.49323162
v -0.01501315 0.26864430 -0.50025529
v -0.08498941 0.24499971 -0.50309247
v -0.09498602 0.24499971 -0.50313866
v -0.08498941 0.25290975 -0.50199968
v -0.06502137 0.26126873 -0.50112236
v -0.04049569 0.27011943 -0.50013214
v -0.03500637 0.27259934 -0.49499652
v -0.04261084 0.27080354 -0.49499652
v -0.04578357 0.27174419 -0.48558205
v -0.04500297 0.27377513 -0.47500294
v -0.05338804 0.27108145 -0.47500294
v -0.09148595 0.26047772 -0.46500358
v -0.06821928 0.26939255 -0.45500422
v -0.09810838 0.25934467 -0.45500422
v -0.06519764 0.27022630 -0.45156163
v 0.05221845 0.24961746 -0.49032778
v -0.20502426 0.06852042 -0.45156163
v -0.10498263 0.23499459 -0.50350803
v -0.20499907 0.15501772 -0.50148660
v -0.16498746 0.19499546 -0.50345671
v -0.15499085 0.20497921 -0.50389796
v 0.05221845 0.25776267 -0.49201569
v -0.20499907 0.14278923 -0.49953702
v -0.20499907 0.14779180 -0.50033736
v -0.12497585 0.22498946 -0.50376970
v -0.14499424 0.21498434 -0.50396466
v -0.11497924 0.23499459 -0.50314379
v -0.10445384 0.24510661 -0.50205100
v -0.09498602 0.25152016 -0.50147635
v -0.07144237 0.26043499 -0.50048620
v -0.04966135 0.26986289 -0.48930165
v -0.07358270 0.26111907 -0.49499652
v -0.05484850 0.26883671 -0.48558205
v -0.05139879 0.27044010 -0.48263714
v -0.07501798 0.26411206 -0.47500294
v -0.08838876 0.25947294 -0.47691149
v -0.09647166 0.25878882 -0.46500358
v -0.10498263 0.25496209 -0.46500358
v -0.10498263 0.25590274 -0.45500422
v -0.10878486 0.25318766 -0.45156163
v -0.09478457 0.26013568 -0.45156163
v 0.05221845 0.25115672 -0.49074847
v -0.20502426 0.12581472 -0.49276477
v -0.20502426 0.13432336 -0.49686402
v -0.20499907 0.13500747 -0.49717188
v -0.20502426 0.13500747 -0.49717700
v -0.20502426 0.18569583 -0.45156163
v -0.20502426 0.14779180 -0.50033736
v -0.20502426 0.15501772 -0.50148147
v -0.20502426 0.16500147 -0.50248194
v -0.20499907 0.16500147 -0.50248194
v -0.19497728 0.17500660 -0.50288212
v -0.18498068 0.18499035 -0.50300014
v 0.05221845 0.25498345 -0.49150777
v -0.20502426 0.14281061 -0.49954215
v -0.16554143 0.20553505 -0.50276411
v -0.15504122 0.21532640 -0.50261021
v -0.14499424 0.22289437 -0.50215358
v -0.13265586 0.23148853 -0.50145584
v -0.11497924 0.24140814 -0.50123012
v -0.10075232 0.25040847 -0.50051183
v -0.09498602 0.25397867 -0.49499652
v -0.07997852 0.25998604 -0.48997375
v -0.09498602 0.25579584 -0.48499715
v -0.09405434 0.25801921 -0.47414613
v -0.08501459 0.25902399 -0.48598221
v -0.10198616 0.25107121 -0.49499652
v -0.11205831 0.25113535 -0.46500358
v -0.11787498 0.24886921 -0.45500422
v -0.11457635 0.25002366 -0.45156163
v -0.20258176 0.18892398 -0.45156163
v -0.20502426 0.18695717 -0.45420384
v -0.20502426 0.17423697 -0.50143021
v -0.20452064 0.17451489 -0.50149691
v -0.16257015 0.21220514 -0.50171751
v -0.19419670 0.18445587 -0.50140965
v -0.15176776 0.22107720 -0.50121468
v -0.12004049 0.24001853 -0.50003469
v -0.10697187 0.24829200 -0.49499652
v -0.10865896 0.24925403 -0.48499715
v -0.11079930 0.25045124 -0.47240689
v -0.11704403 0.24835613 -0.46500358
v -0.15050875 0.23026994 -0.46151996
v -0.15060946 0.23033407 -0.45500422
v -0.15040803 0.23022719 -0.45156163
v -0.14849430 0.23129612 -0.45156163
v -0.12862700 0.24228466 -0.45156163
v -0.19137649 0.19877946 -0.45156163
v -0.20502426 0.18699992 -0.45500422
v -0.20502426 0.17879058 -0.49499652
v -0.20086950 0.18075740 -0.50071192
v -0.19034410 0.19029221 -0.50032198
v -0.17974316 0.19972011 -0.49923432
v -0.16924295 0.20923352 -0.49705899
v -0.15841538 0.21887523 -0.49499652
v -0.15340449 0.22210337 -0.49499652
v -0.13932866 0.22943619 -0.49803892
v -0.13560197 0.23232228 -0.49482208
v -0.12590751 0.23770966 -0.49499652
v -0.12089662 0.24051023 -0.49499652
v -0.11447562 0.24782167 -0.47544417
v -0.13099396 0.24055299 -0.46500358
v -0.14937562 0.22964998 -0.46818963
v -0.15428579 0.22736248 -0.46491122
v -0.16246942 0.22195372 -0.46500358
v -0.15562037 0.22725558 -0.45500422
v -0.15212029 0.22915827 -0.45156163
v -0.18996638 0.19997665 -0.45156163
v -0.18981531 0.19984838 -0.45688197
v -0.19399525 0.19642782 -0.45413202
v -0.20036589 0.19031358 -0.46154046
v -0.20502426 0.18633719 -0.45978072
v -0.20502426 0.18116359 -0.48499715
v -0.20195225 0.18167667 -0.49499652
v -0.19616076 0.18667924 -0.49499652
v -0.19114986 0.19099769 -0.49499652
v -0.16554143 0.21314579 -0.49423209
v -0.15944777 0.21960209 -0.48821399
v -0.16037944 0.22030757 -0.48154947
v -0.15499085 0.22496809 -0.47500294
v -0.14821732 0.22900862 -0.47500294
v -0.14653024 0.22804658 -0.48499715
v -0.14046177 0.23024857 -0.49136925
v -0.14323162 0.23180920 -0.47500294
v -0.13499764 0.23452426 -0.48499715
v -0.16745514 0.21782768 -0.46500358
v -0.16790839 0.21829800 -0.45500422
v -0.16289750 0.22225302 -0.45500422
v -0.16234352 0.22178268 -0.45156163
v -0.18843038 0.20125936 -0.45156163
v -0.17893738 0.20912664 -0.45500422
v -0.18588716 0.20331170 -0.45413202
v -0.20421848 0.18629442 -0.46492660
v -0.20502426 0.18558894 -0.46493688
v -0.17329699 0.21282512 -0.46500358
v -0.18911025 0.19924977 -0.46500358
v -0.20502426 0.18306628 -0.47670627
v -0.20323645 0.18278836 -0.48499715
v -0.19741978 0.18779092 -0.48499715
v -0.17077895 0.21066588 -0.48499715
v -0.16423205 0.21628842 -0.48493046
v -0.17392649 0.21329543 -0.45500422
v -0.20502426 0.18345109 -0.47493109
v -0.18286553 0.20245655 -0.47500294
f 1 2 3
f 1 3 4
f 1 4 5
f 1 5 6
f 1 6 7
f 1 7 8
f 1 8 2
f 2 9 3
f 2 8 9
f 3 10 4
f 3 9 11
f 3 11 28
f 3 28 12
f 3 12 13
f 3 13 14
f 3 14 10
f 4 10 14
f 4 14 34
f 4 34 52
f 4 52 71
f 4 71 97
f 4 97 96
f 4 96 126
f 4 126 143
f 4 143 142
f 4 142 141
f 4 141 163
f 4 163 185
f 4 185 186
f 4 186 164
f 4 164 144
f 4 144 127
f 4 127 103
f 4 103 73
f 4 73 53
f 4 53 35
f 4 35 15
f 4 15 5
f 5 15 6
f 6 15 16
f 6 16 7
f 7 16 8
f 8 17 9
f 8 16 18
f 8 18 19
f 8 19 20
f 8 20 17
f 9 21 22
f 9 22 23
f 9 23 11
f 9 17 21
f 11 23 24
f 11 24 25
f 11 25 26
f 11 26 27
f 11 27 28
f 12 28 27
f 12 27 29
f 12 29 13
f 13 26 30
f 13 30 31
f 13 31 32
f 13 32 14
f 13 29 33
f 13 33 26
f 14 32 34
f 15 35 16
f 16 35 53
f 16 53 72
f 16 72 98
f 16 98 110
f 16 110 78
f 16 78 56
f 16 56 55
f 16 55 39
f 16 39 20
f 16 20 19
f 16 19 18
f 17 36 37
f 17 37 38
f 17 38 21
f 17 20 36
f 20 39 40
f 20 40 36
f 21 38 41
f 21 41 42
f 21 42 22
f 22 43 23
f 22 42 43
f 23 43 44
f 23 44 24
f 24 44 45
f 24 45 46
f 24 46 25
f 25 46 26
f 26 47 48
f 26 48 30
f 26 33 29
f 26 29 27
f 26 46 47
f 30 48 31
f 31 49 32
f 31 48 47
f 31 47 49
f 32 49 50
f 32 50 51
f 32 51 52
f 32 52 34
f 36 40 37
f 37 54 57
f 37 57 38
f 37 40 39
f 37 39 55
f 37 55 56
f 37 56 54
f 38 57 58
f 38 58 41
f 41 58 59
f 41 59 42
f 42 59 60
f 42 60 61
f 42 61 62
f 42 62 43
f 43 62 63
f 43 63 44
f 44 46 45
f 44 63 46
f 46 63 47
f 47 63 64
f 47 64 65
f 47 65 66
f 47 66 49
f 49 66 67
f 49 67 50
f 50 67 68
f 50 68 51
f 51 68 69
f 51 69 52
f 52 69 70
f 52 70 71
f 53 73 72
f 54 74 58
f 54 58 57
f 54 56 75
f 54 75 76
f 54 76 77
f 54 77 74
f 56 78 79
f 56 79 80
f 56 80 75
f 58 74 59
f 59 74 81
f 59 81 82
f 59 82 83
f 59 83 84
f 59 84 85
f 59 85 60
f 60 85 61
f 61 85 86
f 61 86 62
f 62 64 63
f 62 86 64
f 64 87 65
f 64 86 88
f 64 88 87
f 65 87 89
f 65 89 90
f 65 90 66
f 66 90 67
f 67 90 89
f 67 89 91
f 67 91 68
f 68 91 92
f 68 92 93
f 68 93 70
f 68 70 69
f 70 93 94
f 70 94 95
f 70 95 96
f 70 96 97
f 70 97 71
f 72 73 99
f 72 99 100
f 72 100 101
f 72 101 102
f 72 102 79
f 72 79 98
f 73 103 128
f 73 128 145
f 73 145 168
f 73 168 190
f 73 190 199
f 73 199 193
f 73 193 169
f 73 169 146
f 73 146 129
f 73 129 106
f 73 106 105
f 73 105 104
f 73 104 111
f 73 111 102
f 73 102 100
f 73 100 99
f 74 77 81
f 75 80 104
f 75 104 105
f 75 105 106
f 75 106 107
f 75 107 76
f 76 107 77
f 77 107 108
f 77 108 109
f 77 109 82
f 77 82 81
f 78 110 79
f 79 102 111
f 79 111 80
f 79 110 98
f 80 111 104
f 82 109 112
f 82 112 113
f 82 113 114
f 82 114 83
f 83 114 84
f 84 114 115
f 84 115 85
f 85 115 116
f 85 116 117
f 85 117 86
f 86 117 118
f 86 118 88
f 87 88 119
f 87 119 89
f 88 118 119
f 89 119 91
f 91 119 92
f 92 120 121
f 92 121 93
f 92 119 122
f 92 122 120
f 93 123 94
f 93 121 120
f 93 120 123
f 94 123 124
f 94 124 95
f 95 124 125
f 95 125 96
f 96 125 126
f 100 102 101
f 103 127 128
f 106 129 130
f 106 130 108
f 106 108 107
f 108 130 109
f 109 130 112
f 112 131 113
f 112 130 132
f 112 132 131
f 113 133 114
f 113 131 133
f 114 133 115
f 115 133 117
f 115 117 116
f 117 123 118
f 117 133 134
f 117 134 123
f 118 123 120
f 118 120 122
f 118 122 119
f 123 134 135
f 123 135 136
f 123 136 137
f 123 137 124
f 124 137 138
f 124 138 139
f 124 139 125
f 125 139 140
f 125 140 141
f 125 141 142
f 125 142 143
f 125 143 126
f 127 144 128
f 128 144 145
f 129 146 147
f 129 147 130
f 130 147 132
f 131 132 147
f 131 147 148
f 131 148 149
f 131 149 150
f 131 150 133
f 133 150 151
f 133 151 152
f 133 152 153
f 133 153 134
f 134 153 152
f 134 152 154
f 134 154 155
f 134 155 156
f 134 156 135
f 135 156 136
f 136 156 155
f 136 155 157
f 136 157 137
f 137 157 138
f 138 157 158
f 138 158 139
f 139 159 152
f 139 152 160
f 139 160 161
f 139 161 162
f 139 162 140
f 139 158 159
f 140 162 141
f 141 162 163
f 144 164 165
f 144 165 166
f 144 166 145
f 145 167 168
f 145 166 165
f 145 165 167
f 146 169 170
f 146 170 147
f 147 170 148
f 148 170 171
f 148 171 149
f 149 171 172
f 149 172 173
f 149 173 150
f 150 173 151
f 151 173 174
f 151 174 152
f 152 174 175
f 152 175 176
f 152 176 160
f 152 159 177
f 152 177 178
f 152 178 179
f 152 179 154
f 154 179 177
f 154 177 180
f 154 180 181
f 154 181 157
f 154 157 155
f 157 181 180
f 157 180 158
f 158 180 159
f 159 180 177
f 160 176 175
f 160 175 161
f 161 175 182
f 161 182 183
f 161 183 184
f 161 184 162
f 162 184 163
f 163 184 185
f 164 186 187
f 164 187 188
f 164 188 165
f 165 188 187
f 165 187 182
f 165 182 167
f 167 189 190
f 167 190 168
f 167 182 191
f 167 191 192
f 167 192 189
f 169 193 170
f 170 193 194
f 170 194 171
f 171 194 172
f 172 194 193
f 172 193 195
f 172 195 196
f 172 196 173
f 173 196 197
f 173 197 175
f 173 175 174
f 175 197 182
f 177 179 178
f 182 197 191
f 182 187 198
f 182 198 183
f 183 198 186
f 183 186 184
f 184 186 185
f 186 198 187
f 189 192 199
f 189 199 190
f 191 200 199
f 191 199 192
f 191 197 196
f 191 196 200
f 193 199 196
f 193 196 195
f 196 199 200

