# https://github.com/mikedh/trimesh
v -0.30859071 -0.04502206 -0.32452488
v -0.30859071 -0.04454556 -0.32452488
v -0.30149972 -0.06115481 -0.41011423
v -0.30811799 -0.05489231 -0.32452488
v 0.05338816 -0.37992990 -0.32450813
v 0.05338816 -0.26700062 -0.32450813
v -0.30805045 -0.03508373 -0.32452488
v -0.30149972 -0.05489231 -0.41011423
v -0.30122960 -0.06591976 -0.41011423
v -0.29656976 -0.12493706 -0.41011423
v -0.29602951 -0.12983815 -0.41011423
v -0.30318803 -0.09444138 -0.32452488
v -0.10409966 -0.35208899 -0.32452488
v -0.09498265 -0.35644552 -0.32452488
v -0.08782411 -0.35937256 -0.32452488
v -0.05723150 -0.36822176 -0.32452488
v -0.04581836 -0.37148914 -0.32452488
v -0.03501302 -0.37455231 -0.32452488
v -0.02495055 -0.37652639 -0.32452488
v -0.01502314 -0.37747937 -0.32452488
v 0.02428128 -0.38081482 -0.32452488
v 0.03501909 -0.38135940 -0.32452488
v 0.03555936 -0.38135940 -0.32452488
v 0.04541923 -0.38088289 -0.32452488
v 0.09498872 -0.37523302 -0.32450813
v -0.30183738 -0.10492428 -0.32452488
v -0.30068928 -0.11220784 -0.32452488
v -0.29933864 -0.11765350 -0.32452488
v -0.29724509 -0.12459671 -0.32452488
v -0.28394103 -0.16496263 -0.32452488
v -0.28110462 -0.17306304 -0.32452488
v -0.27914613 -0.17803220 -0.32452488
v -0.27556688 -0.18497542 -0.32452488
v -0.25024188 -0.22997016 -0.32452488
v -0.24659507 -0.23521160 -0.32452488
v -0.24186774 -0.24161024 -0.32452488
v -0.23261566 -0.25250155 -0.32452488
v -0.20958678 -0.27952564 -0.32452488
v -0.20431918 -0.28483516 -0.32452488
v -0.19952431 -0.28960007 -0.32452488
v -0.18567997 -0.30062753 -0.32452488
v -0.18345137 -0.30239737 -0.32452488
v -0.16062509 -0.32050419 -0.32452488
v -0.15495229 -0.32465649 -0.32452488
v -0.14846909 -0.32914916 -0.32452488
v -0.14347161 -0.33180392 -0.32452488
v -0.11497253 -0.34650719 -0.32452488
v 0.28165096 -0.26700062 -0.32450813
v 0.02448388 0.29485497 -0.32452488
v 0.01496168 0.29478690 -0.32452488
v 0.00496674 0.29376581 -0.32452488
v -0.03508055 0.28920507 -0.32452488
v -0.04500796 0.28777561 -0.32452488
v -0.05500290 0.28525698 -0.32452488
v -0.10126325 0.27034950 -0.32452488
v -0.10328926 0.26966879 -0.32452488
v -0.10497759 0.26905617 -0.32452488
v -0.10599059 0.26864773 -0.32452488
v -0.11497253 0.26456350 -0.32452488
v -0.12165834 0.26088768 -0.32452488
v -0.15542503 0.24196401 -0.32452488
v -0.15940949 0.23964962 -0.32452488
v -0.16406929 0.23672259 -0.32452488
v -0.17163303 0.23141307 -0.32452488
v -0.19857885 0.20833710 -0.32452488
v -0.20911404 0.19921562 -0.32452488
v -0.21438165 0.19417839 -0.32452488
v -0.21931158 0.18927731 -0.32452488
v -0.22329606 0.18430814 -0.32452488
v -0.24666260 0.15435703 -0.32452488
v -0.24997173 0.15000050 -0.32452488
v -0.25301075 0.14598434 -0.32452488
v -0.25868356 0.13767971 -0.32452488
v -0.26124984 0.13271055 -0.32452488
v -0.26867849 0.11793920 -0.32452488
v -0.28130722 0.09275304 -0.32452488
v -0.28495401 0.08492491 -0.32452488
v -0.28860080 0.07498659 -0.32452488
v -0.28873593 0.07457817 -0.32452488
v -0.29400349 0.05545030 -0.32452488
v -0.30224258 0.02543112 -0.32452488
v -0.30413353 0.01542473 -0.32452488
v -0.30420107 0.01488016 -0.32452488
v -0.30514652 0.00541833 -0.32452488
v -0.30730760 -0.02446470 -0.32452488
v -0.30109453 -0.04965086 -0.41011423
v -0.30514652 0.00494184 -0.32501090
v -0.29515159 -0.13507959 -0.41011423
v -0.09964246 -0.36978737 -0.37161830
v -0.09302418 -0.37135300 -0.36711007
v -0.06162117 -0.38047448 -0.35942596
v -0.03042075 -0.39007244 -0.35973603
v -0.02495055 -0.39048088 -0.35883102
v 0.00057707 -0.38986823 -0.35021678
v 0.00726287 -0.39034474 -0.34958830
v 0.01502921 -0.39095736 -0.34902686
v 0.02502415 -0.39157000 -0.34838164
v 0.03501909 -0.39218265 -0.34782019
v 0.04494650 -0.39225072 -0.34759396
v 0.05500897 -0.39177421 -0.34780344
v 0.06500390 -0.39122966 -0.34819728
v 0.07499884 -0.39061701 -0.34881738
v 0.08229245 -0.39020857 -0.34946260
v 0.10498367 -0.37325898 -0.32450813
v 0.08897825 -0.38980016 -0.35078660
v 0.11497860 -0.38244852 -0.34549904
v -0.29028916 -0.16149104 -0.41011423
v -0.28076696 -0.19171442 -0.41011423
v -0.26010174 -0.23031050 -0.39971513
v -0.24956654 -0.24930224 -0.40498590
v -0.24038200 -0.26046583 -0.39831573
v -0.22694285 -0.27632630 -0.39498904
v -0.22194539 -0.28231651 -0.39498904
v -0.21269332 -0.29320782 -0.39498904
v -0.20837119 -0.29824507 -0.39498904
v -0.20607506 -0.30062753 -0.39498904
v -0.20337372 -0.30328229 -0.39498904
v -0.19189304 -0.31158692 -0.38498378
v -0.18054743 -0.32043612 -0.37948674
v -0.15211588 -0.34153804 -0.37672988
v -0.13894688 -0.34923002 -0.37498692
v -0.13394941 -0.35208899 -0.37498692
v -0.11949727 -0.35957676 -0.37276632
v 0.27719375 -0.27258241 -0.32450813
v 0.27867949 -0.28857905 -0.34193772
v 0.30711102 -0.23439474 -0.32452488
v 0.31291890 -0.22581784 -0.32452488
v 0.31791639 -0.21683250 -0.32452488
v 0.32068527 -0.21131878 -0.32452488
v 0.33817637 -0.17633045 -0.32452488
v 0.34067512 -0.17129320 -0.32452488
v 0.34290373 -0.16489455 -0.32452488
v 0.34587520 -0.15482010 -0.32452488
v 0.35681564 -0.11486259 -0.32452488
v 0.35917926 -0.10465199 -0.32452488
v 0.35924679 -0.10424356 -0.32452488
v 0.36039490 -0.09471367 -0.32452488
v 0.36390662 -0.04543048 -0.32452488
v 0.36390662 -0.04495399 -0.32452488
v 0.36383909 -0.03501566 -0.32452488
v 0.36275852 -0.02500927 -0.32452488
v 0.35782862 0.01440366 -0.32452488
v 0.35776109 0.01488016 -0.32452488
v 0.35627532 0.02481849 -0.32452488
v 0.35370904 0.03489295 -0.32452488
v 0.35100776 0.04312950 -0.32452488
v 0.33945954 0.07818592 -0.32452488
v 0.33716339 0.08485684 -0.32452488
v 0.33277375 0.09486324 -0.32452488
v 0.33020747 0.09983240 -0.32452488
v 0.31609297 0.12495048 -0.32452488
v 0.31150073 0.13311897 -0.32452488
v 0.30879939 0.13781585 -0.32452488
v 0.30461234 0.14482713 -0.32452488
v 0.30076289 0.15095349 -0.32452488
v 0.30056030 0.15122578 -0.32452488
v 0.26382214 0.19438261 -0.32452488
v 0.25936496 0.19935176 -0.32452488
v 0.24815442 0.20854130 -0.32452488
v 0.21499552 0.23488468 -0.32452488
v 0.20912012 0.23930925 -0.32452488
v 0.20371746 0.24257666 -0.32452488
v 0.19419524 0.24775004 -0.32452488
v 0.15023102 0.27034950 -0.32452488
v 0.14496341 0.27211934 -0.32452488
v 0.13496849 0.27525058 -0.32452488
v 0.09465106 0.28682262 -0.32452488
v 0.08506131 0.28913701 -0.32452488
v 0.08404832 0.28934124 -0.32452488
v 0.07621445 0.29036230 -0.32452488
v 0.07412091 0.29063457 -0.32452488
v 0.03447882 0.29403812 -0.32452488
v 0.03495156 0.28348714 -0.40498590
v 0.02495662 0.29342547 -0.33501616
v 0.02185008 0.29002193 -0.36058235
v 0.01921628 0.29002193 -0.36058235
v 0.01496168 0.29471880 -0.32501090
v 0.00496674 0.29369774 -0.32501090
v -0.01502314 0.29145142 -0.32501090
v -0.03487795 0.28920507 -0.32470086
v -0.03501302 0.28620997 -0.34501302
v -0.04055075 0.28008363 -0.38101184
v -0.04500796 0.27409339 -0.41011423
v -0.05500290 0.27511445 -0.38498378
v -0.08066558 0.26265752 -0.41011423
v -0.09356445 0.27109829 -0.33501616
v -0.09592812 0.27184707 -0.32587400
v -0.09977752 0.25993469 -0.38963446
v -0.11044779 0.26020697 -0.36131138
v -0.11558034 0.26231715 -0.33488208
v -0.11112313 0.25060901 -0.41011423
v -0.15556009 0.23236606 -0.37488633
v -0.16035496 0.23025587 -0.37148422
v -0.17062002 0.23052815 -0.33269501
v -0.19432424 0.19662893 -0.39544153
v -0.20776339 0.19812649 -0.33501616
v -0.16731089 0.21773085 -0.40498590
v -0.21100499 0.19097906 -0.35500991
v -0.21431412 0.19417839 -0.32501090
v -0.21931158 0.18920922 -0.32501090
v -0.20972185 0.17974740 -0.41011423
v -0.21924405 0.17913477 -0.36501518
v -0.22809093 0.15762442 -0.40498590
v -0.24963407 0.14959209 -0.32843816
v -0.25084966 0.14115131 -0.35500991
v -0.25274062 0.14366993 -0.33501616
v -0.25010681 0.13019194 -0.40114805
v -0.25199777 0.12549505 -0.40468425
v -0.26124984 0.13257441 -0.32501090
v -0.26840836 0.09111935 -0.41011423
v -0.28130722 0.09261690 -0.32501090
v -0.28488648 0.08492491 -0.32501090
v -0.28002411 0.07022164 -0.40089667
v -0.27941626 0.06817952 -0.41011423
v -0.28096956 0.06525248 -0.40453342
v -0.29069436 0.06266579 -0.33501616
v -0.29116708 0.06552476 -0.32506117
v -0.29055929 0.02767745 -0.41011423
v -0.30008149 0.02059810 -0.35129774
v -0.30001396 0.01038750 -0.37096468
v -0.30420107 0.01488016 -0.32501090
v -0.30109453 0.00494184 -0.36501518
v -0.29974383 0.00494184 -0.37822142
v -0.29724509 -0.00499648 -0.41011423
v -0.11564787 -0.36195925 -0.37565726
v -0.09498265 -0.37530109 -0.40498590
v -0.09579305 -0.37196565 -0.37496176
v -0.08498771 -0.37611794 -0.37498692
v -0.06364717 -0.38101903 -0.36501518
v -0.03163635 -0.39041281 -0.36501518
v -0.02495055 -0.39524582 -0.39498904
v -0.02495055 -0.39286333 -0.37498692
v -0.02495055 -0.39163807 -0.36501518
v -0.01502314 -0.39272720 -0.36501518
v -0.06999531 -0.37992990 -0.37008482
v -0.01502314 -0.39102542 -0.35744837
v 0.03501909 -0.39531389 -0.35500991
v 0.02502415 -0.39436090 -0.35500991
v 0.04494650 -0.39538196 -0.35500991
v 0.05332063 -0.39238685 -0.34898496
v 0.12497354 -0.37850043 -0.34276730
v 0.15070376 -0.37012774 -0.33982605
v 0.11302014 -0.37094459 -0.32450813
v 0.09498872 -0.38945982 -0.35308260
v 0.05332063 -0.39449704 -0.35500991
v 0.08539899 -0.39082122 -0.35448200
v 0.10403819 -0.38864297 -0.35601547
v 0.11497860 -0.38585207 -0.35501829
v 0.12497354 -0.38081482 -0.34776154
v -0.27063698 -0.21111457 -0.41011423
v -0.26016927 -0.23044665 -0.40498590
v -0.25240296 -0.24433307 -0.40498590
v -0.24949901 -0.24923415 -0.41011423
v -0.24740548 -0.25222927 -0.41011423
v -0.24531193 -0.25495210 -0.40498590
v -0.25098473 -0.24671555 -0.41011423
v -0.24065213 -0.26080617 -0.40498590
v -0.20857379 -0.29838121 -0.40498590
v -0.21796091 -0.28762603 -0.41011423
v -0.20668285 -0.30062753 -0.41011423
v -0.20627765 -0.30062753 -0.39942184
v -0.20371138 -0.30369073 -0.41011423
v -0.19837625 -0.30872795 -0.41011423
v -0.19783598 -0.30825147 -0.39498904
v -0.18102017 -0.32084453 -0.38498378
v -0.16967456 -0.32969373 -0.38301456
v -0.15846403 -0.33881521 -0.38498378
v -0.15346655 -0.34249103 -0.38498378
v -0.13982481 -0.34991074 -0.38058448
v 0.27516776 -0.27503294 -0.32450813
v 0.32014501 -0.24018076 -0.34963021
v 0.29974991 -0.25937670 -0.34044614
v 0.27057549 -0.28054667 -0.32450813
v 0.24092834 -0.32077646 -0.33933166
v 0.23052821 -0.33037445 -0.33958304
v 0.28036785 -0.29034886 -0.34860790
v 0.33047760 -0.22098482 -0.34915257
v 0.34047252 -0.20104010 -0.34933692
v 0.35039991 -0.18075503 -0.34955478
v 0.37011969 -0.12037633 -0.35976115
v 0.37079501 -0.11486259 -0.35888129
v 0.37153786 -0.10485621 -0.35807684
v 0.37410414 -0.09484981 -0.36502355
v 0.37822366 -0.05489231 -0.37498692
v 0.37822366 -0.04495399 -0.37498692
v 0.37727821 -0.03501566 -0.37498692
v 0.37592757 -0.02500927 -0.37498692
v 0.37032229 0.02134687 -0.37911806
v 0.35067010 0.08172560 -0.38856187
v 0.36025983 0.05075342 -0.37960407
v 0.34884667 0.08785196 -0.39498904
v 0.34067512 0.10112575 -0.38919035
v 0.34506482 0.09486324 -0.39498904
v 0.31994241 0.13985796 -0.39994976
v 0.31123060 0.15136191 -0.40497753
v 0.28259641 0.18301480 -0.41011423
v 0.27307421 0.19288504 -0.41011423
v 0.26240396 0.20153004 -0.41011423
v 0.20912012 0.23930925 -0.32501090
v 0.21310459 0.23284253 -0.41011423
v 0.20959285 0.23474854 -0.41011423
v 0.19007571 0.24400616 -0.41011423
v 0.15002842 0.26994109 -0.33022302
v 0.14908296 0.26960072 -0.33690158
v 0.14766476 0.26919231 -0.34501302
v 0.14827254 0.26184067 -0.41011423
v 0.14010102 0.26422313 -0.41011423
v 0.09498872 0.28444013 -0.34501302
v 0.09248999 0.28062817 -0.38498378
v 0.08479118 0.28913701 -0.32523715
v 0.09100425 0.28015170 -0.39204779
v 0.07797031 0.28974965 -0.32872307
v 0.08803278 0.27974325 -0.39871797
v 0.05332063 0.28124082 -0.41011423
v 0.04001656 0.28232995 -0.41011423
v 0.03495156 0.28273836 -0.41011423
v 0.03008915 0.28287452 -0.41011423
v 0.02495662 0.28301066 -0.41011423
v 0.01496168 0.28219381 -0.41011423
v 0.01496168 0.28743526 -0.37498692
v 0.01496168 0.29328933 -0.33501616
v -0.01502314 0.29036230 -0.33247715
v 0.00496674 0.28185347 -0.40498590
v -0.02501808 0.27763307 -0.41011423
v -0.03697149 0.27960712 -0.38767365
v -0.03501302 0.27633974 -0.41011423
v -0.03987542 0.27531865 -0.41011423
v -0.08701371 0.26061541 -0.41011423
v -0.08951245 0.25979856 -0.41011423
v -0.09842685 0.25945818 -0.39498904
v -0.09984505 0.25591850 -0.41011423
v -0.10538279 0.25353605 -0.41011423
v -0.10889453 0.25176620 -0.41011423
v -0.14894181 0.22937095 -0.41011423
v -0.15812635 0.22889444 -0.38498378
v -0.16163810 0.22133860 -0.41011423
v -0.18034483 0.20541006 -0.41011423
v -0.19911911 0.18927731 -0.41011423
v -0.16663556 0.21711820 -0.41011423
v -0.21026212 0.19023030 -0.36139518
v -0.24038200 0.14053868 -0.41011423
v -0.20945172 0.18948151 -0.36804020
v -0.20182045 0.18689482 -0.41011423
v -0.24646001 0.13414003 -0.40468425
v -0.24949901 0.12923893 -0.40780982
v -0.25172758 0.12420171 -0.41011423
v -0.25388867 0.11998132 -0.41011423
v -0.25544196 0.12495048 -0.38498378
v -0.27387857 0.08002383 -0.41011423
v -0.28137475 0.08281472 -0.35500991
v -0.27887601 0.08785196 -0.35500991
v -0.27657992 0.07451010 -0.41011423
v -0.28056437 0.08118102 -0.36501518
v -0.28069943 0.06355071 -0.41011423
v -0.28306311 0.05497380 -0.41011423
v -0.29400349 0.01488016 -0.41011423
v -0.29596198 0.01488016 -0.39498904
v -0.29724509 0.01488016 -0.38498378
v -0.29515159 0.00984293 -0.41011423
v -0.29616457 0.00494184 -0.41011423
v -0.14043261 -0.35025108 -0.38724628
v -0.09498265 -0.37332705 -0.38498378
v -0.12733114 -0.35862377 -0.40498590
v -0.14245862 -0.35127214 -0.41011423
v -0.13901441 -0.35304198 -0.41011423
v -0.11902453 -0.36311644 -0.41011423
v -0.09957492 -0.37251019 -0.41011423
v -0.08235391 -0.38027027 -0.41011423
v -0.08660851 -0.37890884 -0.40498590
v -0.08053051 -0.38013411 -0.39865929
v -0.07479017 -0.37904498 -0.37404838
v -0.03352728 -0.39102542 -0.37498692
v -0.01502314 -0.39667529 -0.39498904
v -0.03501302 -0.39279526 -0.39498904
v -0.04311702 -0.39068508 -0.40498590
v -0.04163129 -0.39034474 -0.41011423
v -0.03501302 -0.39218265 -0.40498590
v -0.01502314 -0.39538196 -0.38498378
v 0.01502921 -0.39531389 -0.36501518
v 0.03501909 -0.39694759 -0.36501518
v 0.05332063 -0.39476931 -0.35665232
v 0.04494650 -0.39687952 -0.36501518
v 0.15738955 -0.36897051 -0.34245726
v 0.17960803 -0.35971290 -0.34050480
v 0.16502082 -0.35358655 -0.32450813
v 0.15414795 -0.35767078 -0.32450813
v 0.14442316 -0.36087012 -0.32450813
v 0.13030869 -0.37999797 -0.34969723
v 0.09998620 -0.38993630 -0.36000416
v 0.05332063 -0.39926198 -0.38670158
v 0.09498872 -0.39422476 -0.38498378
v 0.11011620 -0.38993630 -0.36986697
v 0.11403313 -0.38803032 -0.36592853
v 0.13172688 -0.38047448 -0.35501829
v -0.26016927 -0.23037858 -0.41011423
v -0.25483412 -0.23990847 -0.41011423
v -0.24294828 -0.25801528 -0.41011423
v -0.24071966 -0.26087427 -0.41011423
v -0.20864132 -0.29844928 -0.41011423
v -0.19337878 -0.31274414 -0.41011423
v -0.16494723 -0.33534360 -0.41011423
v -0.15697829 -0.34167418 -0.41011423
v -0.15427695 -0.34330788 -0.40498590
v -0.14745608 -0.34854931 -0.41011423
v -0.14698336 -0.34834510 -0.40498590
v -0.14421448 -0.34793669 -0.38434693
v 0.28968745 -0.27966177 -0.35104635
v 0.30042523 -0.26700062 -0.35501829
v 0.31683588 -0.24589869 -0.35501829
v 0.32169825 -0.24222288 -0.36502355
v 0.32851911 -0.23711757 -0.38498378
v 0.32439959 -0.23487124 -0.35501829
v 0.32865417 -0.22731540 -0.35501829
v 0.26429489 -0.28599232 -0.32450813
v 0.23160873 -0.33125937 -0.34501302
v 0.23660621 -0.32697091 -0.34501302
v 0.23815948 -0.30845568 -0.32450813
v 0.23322953 -0.31267604 -0.32450813
v 0.22728659 -0.31771329 -0.32450813
v 0.22222160 -0.32172945 -0.32450813
v 0.21486045 -0.32629019 -0.32450813
v 0.21418512 -0.32669863 -0.32450813
v 0.21161886 -0.34078926 -0.33923110
v 0.21357733 -0.34187838 -0.34501302
v 0.26983261 -0.29987878 -0.35022515
v 0.27442491 -0.29688364 -0.35413843
v 0.27678856 -0.29722399 -0.36500677
v 0.28111070 -0.29109764 -0.35501829
v 0.28678352 -0.28429055 -0.35463282
v 0.34114784 -0.20240152 -0.35501829
v 0.35107529 -0.18218452 -0.35501829
v 0.35364151 -0.17490095 -0.35501829
v 0.35978705 -0.15924469 -0.36141193
v 0.36417675 -0.14494985 -0.36502355
v 0.37045735 -0.12180581 -0.36502355
v 0.37214565 -0.11486259 -0.36502355
v 0.37363142 -0.10485621 -0.36502355
v 0.37754834 -0.06489870 -0.37498692
v 0.37997955 -0.05094421 -0.38934118
v 0.37997955 -0.04910630 -0.38934118
v 0.37943929 -0.04543048 -0.38560387
v 0.37842631 -0.03501566 -0.38498378
v 0.37214565 0.01488016 -0.38498378
v 0.37072748 0.02257215 -0.38498378
v 0.36910671 0.02754131 -0.38498378
v 0.36329883 0.04489934 -0.38498378
v 0.35411429 0.07491852 -0.39498904
v 0.35121036 0.08281472 -0.39498904
v 0.36073256 0.05218291 -0.38498378
v 0.34904927 0.08812423 -0.40497753
v 0.35141295 0.08315508 -0.40497753
v 0.35039991 0.08567369 -0.41011423
v 0.34114784 0.10194258 -0.39498904
v 0.34540248 0.09486324 -0.40497753
v 0.32000995 0.13999411 -0.40497753
v 0.32000995 0.14006218 -0.41011423
v 0.31616050 0.14496328 -0.41011423
v 0.31116307 0.15129384 -0.41011423
v 0.30413955 0.15925811 -0.41011423
v 0.25018042 0.21003887 -0.41011423
v 0.16968063 0.25346798 -0.41011423
v 0.16137403 0.25700766 -0.41011423
v 0.15198690 0.26068348 -0.41011423
v 0.10498367 0.27429760 -0.41011423
v 0.09498872 0.28219381 -0.36502355
v 0.10012126 0.27559096 -0.41011423
v 0.09498872 0.27681622 -0.41011423
v 0.06993385 0.27981132 -0.41011423
v 0.09026138 0.27763307 -0.41011423
v 0.08492625 0.27838185 -0.41011423
v 0.07499884 0.27933484 -0.41011423
v 0.00050953 0.28056011 -0.41011423
v -0.02988048 0.27702042 -0.41011423
v -0.03501302 0.27715656 -0.40498590
v -0.09491512 0.25796065 -0.41011423
v -0.15454708 0.22596741 -0.41011423
v -0.24470414 0.13495688 -0.41011423
v -0.24929641 0.12883052 -0.41011423
v -0.08167858 -0.38047448 -0.41011423
v -0.08161104 -0.38047448 -0.40498590
v -0.07499278 -0.38238046 -0.40498590
v -0.04102349 -0.39027664 -0.38743901
v 0.01894615 -0.40001076 -0.40011734
v 0.01894615 -0.40001076 -0.39932129
v 0.03718016 -0.40021497 -0.38820153
v 0.00496674 -0.39708373 -0.38498378
v -0.08073311 -0.38074675 -0.41011423
v -0.03440522 -0.39054894 -0.41011423
v 0.03501909 -0.40041918 -0.40058661
v 0.02502415 -0.40021497 -0.40036038
v 0.03501909 -0.39830899 -0.37498692
v 0.05034916 -0.40001076 -0.38964283
v 0.04494650 -0.40014690 -0.38838589
v 0.16063115 -0.37012774 -0.34912741
v 0.16434550 -0.36747298 -0.34547392
v 0.17130144 -0.35072759 -0.32450813
v 0.17575863 -0.36250380 -0.34431753
v 0.18122885 -0.36066589 -0.34718335
v 0.16225196 -0.37067229 -0.35501829
v 0.10498367 -0.39299947 -0.38498378
v 0.11139933 -0.39041281 -0.37499529
v -0.15447955 -0.34351209 -0.41011423
v 0.29110563 -0.28149968 -0.36500677
v 0.29346931 -0.27578175 -0.35463282
v 0.29812908 -0.27761966 -0.38498378
v 0.31879431 -0.24848539 -0.37498692
v 0.32014501 -0.25018716 -0.38871270
v 0.32291383 -0.24555834 -0.38522679
v 0.32014501 -0.25018716 -0.39059812
v 0.33095032 -0.23187613 -0.39305335
v 0.35168308 -0.19328004 -0.39498904
v 0.33108538 -0.23208034 -0.38498378
v 0.32946461 -0.22894908 -0.36502355
v 0.23802440 -0.32826424 -0.35501829
v 0.21972287 -0.33976820 -0.35055196
v 0.22451773 -0.33779415 -0.35433117
v 0.22721906 -0.33833870 -0.36500677
v 0.22985287 -0.33983627 -0.38047555
v 0.23302694 -0.33234850 -0.35501829
v 0.20500058 -0.33187199 -0.32450813
v 0.20047586 -0.35025108 -0.34867492
v 0.27179110 -0.30151248 -0.36500677
v 0.24079327 -0.33064672 -0.37672988
v 0.27921975 -0.29933420 -0.38498378
v 0.28320423 -0.29327589 -0.37499529
v 0.28921473 -0.28898746 -0.38498378
v 0.28718871 -0.28640077 -0.36500677
v 0.35107529 -0.19212285 -0.38498378
v 0.35195321 -0.18395436 -0.36502355
v 0.35566753 -0.17490095 -0.36502355
v 0.35877407 -0.16441807 -0.36485595
v 0.35863900 -0.17435639 -0.38506758
v 0.36066502 -0.16244403 -0.37498692
v 0.36998463 -0.14004876 -0.39973190
v 0.37221324 -0.12486899 -0.38498378
v 0.37349635 -0.12486899 -0.39498904
v 0.37558991 -0.11486259 -0.39498904
v 0.37471193 -0.10485621 -0.37498692
v 0.38133019 -0.05489231 -0.40497753
v 0.38106006 -0.04495399 -0.40497753
v 0.37977695 -0.04243537 -0.39235783
v 0.38024968 -0.03767042 -0.40497753
v 0.37964189 -0.03263319 -0.40497753
v 0.37592757 0.00004075 -0.41011423
v 0.37525225 0.00494184 -0.41011423
v 0.37282103 0.01488016 -0.39498904
v 0.37383401 0.01488016 -0.41011423
v 0.37106514 0.02338900 -0.39498904
v 0.36944437 0.02842623 -0.39498904
v 0.35951692 0.05858155 -0.39498904
v 0.35485715 0.07491852 -0.41011423
v 0.34911680 0.08826038 -0.41011423
v 0.35154802 0.08322315 -0.41011423
v 0.34330893 0.09874326 -0.41011423
v 0.02502415 -0.40021497 -0.39736885
v 0.03434375 -0.40048727 -0.39428514
v 0.04494650 -0.40055534 -0.39498904
v -0.02798955 -0.39034474 -0.41011423
v 0.04494650 -0.40028304 -0.40037712
v 0.05068683 -0.40007883 -0.39498904
v 0.16724943 -0.36897051 -0.35501829
v 0.17501576 -0.36549893 -0.35501829
v 0.18264703 -0.36148274 -0.35501829
v 0.16900530 -0.36958316 -0.36188120
v 0.16542603 -0.37135300 -0.36513248
v 0.05048423 -0.40001076 -0.40007547
v 0.11497860 -0.39082122 -0.39160368
v 0.12017867 -0.39000437 -0.39014563
v 0.11504614 -0.39102542 -0.38575470
v 0.11849034 -0.38945982 -0.38293916
v 0.31089294 -0.26114655 -0.39156178
v 0.32851911 -0.22928944 -0.39971513
v 0.34067512 -0.21125071 -0.40051121
v 0.35121036 -0.19225898 -0.40110615
v 0.35566753 -0.18483928 -0.39498904
v 0.35458702 -0.18483928 -0.38498378
v 0.22222160 -0.34119767 -0.36500677
v 0.22390993 -0.34215066 -0.37499529
v 0.18494317 -0.36400136 -0.37499529
v 0.21155132 -0.35086372 -0.38498378
v 0.23059574 -0.34031275 -0.38715410
v 0.23431008 -0.33711344 -0.38428828
v 0.24167120 -0.33146358 -0.38498378
v 0.25254408 -0.32220596 -0.38498378
v 0.24146861 -0.33119127 -0.39112604
v 0.25207135 -0.32172945 -0.39146122
v 0.26267409 -0.31219956 -0.39171261
v 0.27320927 -0.30266964 -0.39183831
v 0.28306916 -0.29320782 -0.39199752
v 0.28414971 -0.29436505 -0.38498378
v 0.29238880 -0.28313339 -0.39208969
v 0.30164087 -0.27210593 -0.39194724
v 0.35708576 -0.17490095 -0.37498692
v 0.36052996 -0.17204198 -0.39498904
v 0.36012477 -0.17061250 -0.38846132
v 0.35890913 -0.17701115 -0.39498904
v 0.36255592 -0.16482648 -0.39498904
v 0.36998463 -0.14004876 -0.40010059
v 0.37491453 -0.11486259 -0.40497753
v 0.37660289 -0.10485621 -0.40497753
v 0.37997955 -0.08021460 -0.41003883
v 0.37997955 -0.08021460 -0.40972877
v 0.37673795 -0.10485621 -0.39498904
v 0.38018215 -0.07483702 -0.40783498
v 0.38099253 -0.05489231 -0.41011423
v 0.38078994 -0.04461363 -0.41011423
v 0.38065487 -0.04114202 -0.41011423
v 0.37930423 -0.02882123 -0.41011423
v 0.37126774 0.02488656 -0.41011423
v 0.37133527 0.02406970 -0.40497753
v 0.36971450 0.02910694 -0.40497753
v 0.08175218 -0.39027664 -0.40013412
v 0.36822873 -0.12854481 -0.41011423
v 0.17055857 -0.37012774 -0.36851785
v 0.17677164 -0.36835790 -0.37499529
v 0.19014324 -0.36005327 -0.36948988
v 0.15056869 -0.38006604 -0.38892218
v 0.16495329 -0.37312284 -0.37499529
v 0.10498367 -0.39184228 -0.39344719
v 0.13496849 -0.38258466 -0.39301983
v 0.14503095 -0.38095096 -0.39147797
v 0.15056869 -0.38006604 -0.39029646
v 0.12017867 -0.39000437 -0.38959256
v 0.32514244 -0.22547749 -0.40057823
v 0.36930931 -0.12963393 -0.40986285
v 0.28583804 -0.28578812 -0.39384103
v 0.27591062 -0.29593068 -0.39358965
v 0.26557803 -0.30559671 -0.39334664
v 0.28496009 -0.27489680 -0.39724314
v 0.25490773 -0.30491599 -0.39591917
v 0.36052996 -0.17204198 -0.40090504
v 0.19264197 -0.36141467 -0.38498378
v 0.17859504 -0.36917475 -0.38498378
v 0.23059574 -0.34031275 -0.39048919
v 0.23431008 -0.33473095 -0.39193887
v 0.24484527 -0.32506493 -0.39259246
v 0.25524542 -0.31533080 -0.39301983
v 0.37065995 -0.13494346 -0.40248039
v 0.37214565 -0.12568584 -0.40590766
v 0.37086254 -0.12323529 -0.41011423
v 0.37997955 -0.07953390 -0.41011423
v 0.18494317 -0.35487989 -0.39526555
v 0.16495329 -0.36495435 -0.39567617
v 0.08837046 -0.38830259 -0.39976540
v 0.16495329 -0.37257826 -0.39248353
v 0.21499552 -0.33493519 -0.39540800
v 0.17177416 -0.37074035 -0.37499529
v 0.17359757 -0.37155721 -0.38498378
v 0.16495329 -0.37462041 -0.38498378
v 0.17298977 -0.37128493 -0.39146960
v 0.24491280 -0.31492239 -0.39539963
v 0.19223678 -0.36121047 -0.39128524
v 0.21148379 -0.35079566 -0.39092493
v 0.22492293 -0.34181032 -0.39151987
v 0.22492293 -0.33493519 -0.39411756
v 0.23491786 -0.32499686 -0.39485496
v 0.18494317 -0.36325258 -0.39230755
v 0.20500058 -0.34494156 -0.39471251
v 0.17582616 -0.36577120 -0.39314553
v 0.21492799 -0.34521386 -0.39252543
f 1 2 8
f 1 8 3
f 1 3 4
f 1 4 5
f 1 5 6
f 1 6 2
f 2 6 7
f 2 7 8
f 3 8 86
f 3 86 224
f 3 224 360
f 3 360 359
f 3 359 356
f 3 356 218
f 3 218 355
f 3 355 354
f 3 354 214
f 3 214 352
f 3 352 349
f 3 349 210
f 3 210 347
f 3 347 346
f 3 346 478
f 3 478 477
f 3 477 341
f 3 341 201
f 3 201 343
f 3 343 338
f 3 338 337
f 3 337 339
f 3 339 336
f 3 336 476
f 3 476 334
f 3 334 191
f 3 191 333
f 3 333 332
f 3 332 331
f 3 331 475
f 3 475 329
f 3 329 328
f 3 328 185
f 3 185 183
f 3 183 327
f 3 327 326
f 3 326 473
f 3 473 324
f 3 324 472
f 3 472 319
f 3 319 318
f 3 318 317
f 3 317 316
f 3 316 315
f 3 315 314
f 3 314 468
f 3 468 471
f 3 471 470
f 3 470 469
f 3 469 467
f 3 467 466
f 3 466 464
f 3 464 307
f 3 307 306
f 3 306 463
f 3 463 462
f 3 462 461
f 3 461 302
f 3 302 301
f 3 301 300
f 3 300 460
f 3 460 298
f 3 298 297
f 3 297 296
f 3 296 459
f 3 459 458
f 3 458 457
f 3 457 456
f 3 456 554
f 3 554 552
f 3 552 452
f 3 452 553
f 3 553 551
f 3 551 609
f 3 609 547
f 3 547 545
f 3 545 544
f 3 544 608
f 3 608 607
f 3 607 606
f 3 606 605
f 3 605 641
f 3 641 640
f 3 640 613
f 3 613 558
f 3 558 488
f 3 488 376
f 3 376 487
f 3 487 479
f 3 479 368
f 3 368 367
f 3 367 366
f 3 366 365
f 3 365 364
f 3 364 404
f 3 404 502
f 3 502 402
f 3 402 401
f 3 401 400
f 3 400 263
f 3 263 262
f 3 262 260
f 3 260 399
f 3 399 259
f 3 259 398
f 3 398 397
f 3 397 254
f 3 254 253
f 3 253 256
f 3 256 396
f 3 396 395
f 3 395 250
f 3 250 108
f 3 108 107
f 3 107 88
f 3 88 11
f 3 11 10
f 3 10 9
f 3 9 4
f 4 9 10
f 4 10 11
f 4 11 12
f 4 12 5
f 5 13 14
f 5 14 15
f 5 15 16
f 5 16 17
f 5 17 18
f 5 18 19
f 5 19 20
f 5 20 21
f 5 21 22
f 5 22 23
f 5 23 24
f 5 24 25
f 5 25 104
f 5 104 243
f 5 243 387
f 5 387 386
f 5 386 385
f 5 385 496
f 5 496 520
f 5 520 422
f 5 422 421
f 5 421 420
f 5 420 419
f 5 419 418
f 5 418 417
f 5 417 414
f 5 414 273
f 5 273 270
f 5 270 124
f 5 124 48
f 5 48 6
f 5 12 26
f 5 26 27
f 5 27 28
f 5 28 29
f 5 29 30
f 5 30 31
f 5 31 32
f 5 32 33
f 5 33 34
f 5 34 35
f 5 35 36
f 5 36 37
f 5 37 38
f 5 38 39
f 5 39 40
f 5 40 41
f 5 41 42
f 5 42 43
f 5 43 44
f 5 44 45
f 5 45 46
f 5 46 47
f 5 47 13
f 6 48 49
f 6 49 50
f 6 50 51
f 6 51 52
f 6 52 53
f 6 53 54
f 6 54 55
f 6 55 56
f 6 56 57
f 6 57 58
f 6 58 59
f 6 59 60
f 6 60 61
f 6 61 62
f 6 62 63
f 6 63 64
f 6 64 65
f 6 65 66
f 6 66 67
f 6 67 68
f 6 68 69
f 6 69 70
f 6 70 71
f 6 71 72
f 6 72 73
f 6 73 74
f 6 74 75
f 6 75 76
f 6 76 77
f 6 77 78
f 6 78 79
f 6 79 80
f 6 80 81
f 6 81 82
f 6 82 83
f 6 83 84
f 6 84 85
f 6 85 7
f 7 85 8
f 8 85 87
f 8 87 86
f 11 27 26
f 11 26 12
f 11 88 27
f 13 89 14
f 13 47 89
f 14 89 90
f 14 90 15
f 15 90 91
f 15 91 92
f 15 92 16
f 16 92 17
f 17 92 18
f 18 92 19
f 19 92 93
f 19 93 94
f 19 94 95
f 19 95 96
f 19 96 20
f 20 96 97
f 20 97 98
f 20 98 21
f 21 98 22
f 22 98 99
f 22 99 23
f 23 99 24
f 24 99 100
f 24 100 101
f 24 101 102
f 24 102 103
f 24 103 25
f 25 103 105
f 25 105 106
f 25 106 104
f 27 88 107
f 27 107 28
f 28 107 29
f 29 107 108
f 29 108 30
f 30 108 31
f 31 108 32
f 32 108 109
f 32 109 33
f 33 109 34
f 34 109 110
f 34 110 35
f 35 110 111
f 35 111 36
f 36 111 112
f 36 112 113
f 36 113 114
f 36 114 37
f 37 114 38
f 38 114 115
f 38 115 116
f 38 116 39
f 39 116 40
f 40 116 117
f 40 117 118
f 40 118 119
f 40 119 41
f 41 119 42
f 42 119 43
f 43 119 120
f 43 120 44
f 44 120 45
f 45 120 121
f 45 121 122
f 45 122 123
f 45 123 89
f 45 89 46
f 46 89 47
f 48 124 125
f 48 125 126
f 48 126 127
f 48 127 128
f 48 128 129
f 48 129 130
f 48 130 131
f 48 131 132
f 48 132 133
f 48 133 134
f 48 134 135
f 48 135 136
f 48 136 137
f 48 137 138
f 48 138 139
f 48 139 140
f 48 140 141
f 48 141 142
f 48 142 143
f 48 143 144
f 48 144 145
f 48 145 146
f 48 146 147
f 48 147 148
f 48 148 149
f 48 149 150
f 48 150 151
f 48 151 152
f 48 152 153
f 48 153 154
f 48 154 155
f 48 155 156
f 48 156 157
f 48 157 158
f 48 158 159
f 48 159 160
f 48 160 161
f 48 161 162
f 48 162 163
f 48 163 164
f 48 164 165
f 48 165 166
f 48 166 167
f 48 167 168
f 48 168 169
f 48 169 170
f 48 170 171
f 48 171 172
f 48 172 49
f 49 172 173
f 49 173 174
f 49 174 175
f 49 175 176
f 49 176 50
f 50 177 178
f 50 178 51
f 50 176 177
f 51 178 179
f 51 179 52
f 52 180 181
f 52 181 53
f 52 179 180
f 53 181 182
f 53 182 54
f 54 182 183
f 54 183 184
f 54 184 185
f 54 185 186
f 54 186 187
f 54 187 55
f 55 187 186
f 55 186 188
f 55 188 56
f 56 188 57
f 57 188 58
f 58 188 189
f 58 189 59
f 59 189 190
f 59 190 60
f 60 190 189
f 60 189 191
f 60 191 61
f 61 191 192
f 61 192 193
f 61 193 62
f 62 193 63
f 63 193 64
f 64 193 194
f 64 194 65
f 65 195 196
f 65 196 66
f 65 194 197
f 65 197 195
f 66 196 198
f 66 198 199
f 66 199 67
f 67 199 68
f 68 199 200
f 68 200 69
f 69 201 202
f 69 202 203
f 69 203 204
f 69 204 70
f 69 200 201
f 70 204 71
f 71 204 72
f 72 204 205
f 72 205 206
f 72 206 73
f 73 207 208
f 73 208 209
f 73 209 74
f 73 206 207
f 74 209 75
f 75 209 210
f 75 210 211
f 75 211 76
f 76 211 77
f 77 211 212
f 77 212 213
f 77 213 78
f 78 213 79
f 79 213 214
f 79 214 215
f 79 215 216
f 79 216 217
f 79 217 80
f 80 217 216
f 80 216 81
f 81 218 219
f 81 219 220
f 81 220 221
f 81 221 82
f 81 216 218
f 82 221 83
f 83 221 84
f 84 221 87
f 84 87 85
f 86 87 222
f 86 222 223
f 86 223 224
f 87 221 220
f 87 220 222
f 89 123 225
f 89 225 226
f 89 226 227
f 89 227 228
f 89 228 90
f 90 228 91
f 91 228 229
f 91 229 92
f 92 230 231
f 92 231 232
f 92 232 233
f 92 233 234
f 92 234 93
f 92 229 235
f 92 235 230
f 93 236 94
f 93 234 237
f 93 237 238
f 93 238 236
f 94 236 95
f 95 236 96
f 96 236 238
f 96 238 237
f 96 237 97
f 97 237 98
f 98 237 99
f 99 237 239
f 99 239 240
f 99 240 100
f 100 240 101
f 101 240 239
f 101 239 102
f 102 239 103
f 103 239 105
f 104 106 241
f 104 241 242
f 104 242 243
f 105 244 106
f 105 239 245
f 105 245 246
f 105 246 244
f 106 244 247
f 106 247 248
f 106 248 249
f 106 249 241
f 108 250 109
f 109 251 252
f 109 252 110
f 109 250 251
f 110 253 254
f 110 254 255
f 110 255 111
f 110 252 256
f 110 256 253
f 111 255 257
f 111 257 112
f 112 257 113
f 113 257 114
f 114 258 115
f 114 257 259
f 114 259 258
f 115 258 260
f 115 260 261
f 115 261 116
f 116 261 262
f 116 262 117
f 117 262 263
f 117 263 264
f 117 264 118
f 118 264 119
f 119 264 265
f 119 265 266
f 119 266 267
f 119 267 120
f 120 267 268
f 120 268 269
f 120 269 121
f 121 269 122
f 122 269 123
f 123 269 225
f 124 270 125
f 125 271 272
f 125 272 126
f 125 270 273
f 125 273 274
f 125 274 275
f 125 275 276
f 125 276 271
f 126 271 127
f 126 272 271
f 127 271 128
f 128 277 129
f 128 271 277
f 129 277 130
f 130 277 131
f 131 277 278
f 131 278 279
f 131 279 132
f 132 279 133
f 133 279 134
f 134 280 135
f 134 279 280
f 135 280 281
f 135 281 136
f 136 281 137
f 137 281 282
f 137 282 138
f 138 282 283
f 138 283 284
f 138 284 285
f 138 285 139
f 139 285 140
f 140 286 141
f 140 285 286
f 141 286 142
f 142 286 287
f 142 287 143
f 143 287 288
f 143 288 144
f 144 288 145
f 145 288 146
f 146 288 147
f 147 288 148
f 148 289 149
f 148 288 290
f 148 290 289
f 149 289 291
f 149 291 150
f 150 292 151
f 150 291 293
f 150 293 292
f 151 292 152
f 152 292 153
f 153 292 294
f 153 294 154
f 154 294 155
f 155 294 156
f 156 294 295
f 156 295 157
f 157 295 158
f 158 295 296
f 158 296 297
f 158 297 159
f 159 297 298
f 159 298 160
f 160 298 161
f 161 298 299
f 161 299 162
f 162 299 300
f 162 300 163
f 163 300 301
f 163 301 164
f 164 301 302
f 164 302 303
f 164 303 165
f 165 303 304
f 165 304 166
f 166 304 305
f 166 305 306
f 166 306 307
f 166 307 308
f 166 308 167
f 167 308 309
f 167 309 310
f 167 310 168
f 168 310 169
f 169 310 311
f 169 311 312
f 169 312 170
f 170 312 171
f 171 312 313
f 171 313 314
f 171 314 172
f 172 314 173
f 173 314 315
f 173 315 316
f 173 316 317
f 173 317 318
f 173 318 175
f 173 175 174
f 175 318 176
f 176 318 319
f 176 319 320
f 176 320 178
f 176 178 321
f 176 321 177
f 177 321 178
f 178 320 322
f 178 322 179
f 179 322 180
f 180 322 181
f 181 322 323
f 181 323 324
f 181 324 325
f 181 325 182
f 182 325 326
f 182 326 327
f 182 327 183
f 183 185 184
f 185 328 186
f 186 328 188
f 188 328 329
f 188 329 330
f 188 330 331
f 188 331 332
f 188 332 189
f 189 332 333
f 189 333 191
f 191 334 192
f 192 334 193
f 193 334 335
f 193 335 336
f 193 336 194
f 194 336 197
f 195 197 337
f 195 337 338
f 195 338 198
f 195 198 196
f 197 336 339
f 197 339 337
f 198 338 340
f 198 340 201
f 198 201 200
f 198 200 199
f 201 341 203
f 201 203 202
f 201 340 342
f 201 342 343
f 203 341 344
f 203 344 204
f 204 344 205
f 205 344 207
f 205 207 206
f 207 344 345
f 207 345 208
f 208 346 347
f 208 347 210
f 208 210 348
f 208 348 209
f 208 345 346
f 209 348 210
f 210 349 350
f 210 350 351
f 210 351 211
f 211 351 350
f 211 350 212
f 212 350 213
f 213 352 214
f 213 350 353
f 213 353 352
f 214 354 215
f 215 354 355
f 215 355 218
f 215 218 216
f 218 356 219
f 219 356 357
f 219 357 358
f 219 358 220
f 220 358 359
f 220 359 360
f 220 360 224
f 220 224 223
f 220 223 222
f 225 269 361
f 225 361 226
f 226 362 227
f 226 361 363
f 226 363 364
f 226 364 365
f 226 365 366
f 226 366 367
f 226 367 368
f 226 368 369
f 226 369 362
f 227 362 369
f 227 369 228
f 228 369 370
f 228 370 371
f 228 371 235
f 228 235 229
f 230 372 231
f 230 235 371
f 230 371 372
f 231 373 232
f 231 372 374
f 231 374 375
f 231 375 376
f 231 376 377
f 231 377 373
f 232 373 233
f 233 373 378
f 233 378 234
f 234 378 379
f 234 379 237
f 237 379 380
f 237 380 239
f 239 381 245
f 239 380 382
f 239 382 381
f 241 249 242
f 242 383 384
f 242 384 385
f 242 385 386
f 242 386 387
f 242 387 243
f 242 249 388
f 242 388 383
f 244 246 389
f 244 389 247
f 245 381 246
f 246 381 390
f 246 390 391
f 246 391 389
f 247 389 392
f 247 392 248
f 248 392 393
f 248 393 394
f 248 394 388
f 248 388 249
f 250 395 251
f 251 395 252
f 252 395 396
f 252 396 256
f 254 397 255
f 255 397 398
f 255 398 257
f 257 398 259
f 258 259 399
f 258 399 260
f 260 262 261
f 263 400 264
f 264 400 401
f 264 401 402
f 264 402 267
f 264 267 265
f 265 267 266
f 267 402 403
f 267 403 268
f 268 403 404
f 268 404 405
f 268 405 406
f 268 406 269
f 269 406 361
f 271 407 408
f 271 408 409
f 271 409 410
f 271 410 411
f 271 411 412
f 271 412 413
f 271 413 277
f 271 276 407
f 273 414 275
f 273 275 274
f 275 415 416
f 275 416 276
f 275 414 417
f 275 417 418
f 275 418 419
f 275 419 420
f 275 420 421
f 275 421 422
f 275 422 423
f 275 423 384
f 275 384 424
f 275 424 415
f 276 416 425
f 276 425 426
f 276 426 427
f 276 427 428
f 276 428 429
f 276 429 407
f 277 430 278
f 277 413 430
f 278 430 431
f 278 431 279
f 279 431 432
f 279 432 280
f 280 433 434
f 280 434 435
f 280 435 436
f 280 436 281
f 280 432 433
f 281 436 437
f 281 437 282
f 282 437 283
f 283 437 284
f 284 437 438
f 284 438 439
f 284 439 440
f 284 440 285
f 285 440 441
f 285 441 442
f 285 442 286
f 286 442 443
f 286 443 287
f 287 443 288
f 288 443 444
f 288 444 445
f 288 445 446
f 288 446 290
f 289 447 448
f 289 448 291
f 289 290 449
f 289 449 447
f 290 446 449
f 291 450 293
f 291 448 451
f 291 451 452
f 291 452 450
f 292 453 294
f 292 293 453
f 293 450 454
f 293 454 453
f 294 453 455
f 294 455 295
f 295 455 456
f 295 456 457
f 295 457 458
f 295 458 459
f 295 459 296
f 298 460 299
f 299 460 300
f 302 461 303
f 303 461 462
f 303 462 463
f 303 463 304
f 304 463 305
f 305 463 306
f 307 464 308
f 308 465 309
f 308 464 465
f 309 311 310
f 309 465 464
f 309 464 466
f 309 466 311
f 311 313 312
f 311 466 467
f 311 467 313
f 313 468 314
f 313 467 469
f 313 469 470
f 313 470 471
f 313 471 468
f 319 472 323
f 319 323 320
f 320 323 322
f 323 472 324
f 324 473 325
f 325 473 474
f 325 474 326
f 326 474 473
f 329 475 330
f 330 475 331
f 334 476 335
f 335 476 336
f 338 343 342
f 338 342 340
f 341 477 344
f 344 477 345
f 345 477 478
f 345 478 346
f 349 352 350
f 350 352 353
f 356 359 357
f 357 359 358
f 361 406 364
f 361 364 363
f 364 406 405
f 364 405 404
f 368 479 480
f 368 480 369
f 369 480 370
f 370 480 481
f 370 481 374
f 370 374 482
f 370 482 371
f 371 482 372
f 372 482 374
f 373 483 484
f 373 484 485
f 373 485 486
f 373 486 378
f 373 377 376
f 373 376 483
f 374 481 375
f 375 481 487
f 375 487 376
f 376 488 489
f 376 489 490
f 376 490 483
f 378 486 379
f 379 486 491
f 379 491 380
f 380 491 485
f 380 485 382
f 381 382 492
f 381 492 390
f 382 485 493
f 382 493 492
f 383 388 494
f 383 494 495
f 383 495 384
f 384 496 385
f 384 495 497
f 384 497 498
f 384 498 424
f 384 423 496
f 388 394 499
f 388 499 494
f 389 391 500
f 389 500 392
f 390 492 391
f 391 492 500
f 392 500 501
f 392 501 393
f 393 501 499
f 393 499 394
f 402 502 403
f 403 502 404
f 407 429 503
f 407 503 504
f 407 504 408
f 408 504 503
f 408 503 505
f 408 505 410
f 408 410 409
f 410 505 506
f 410 506 507
f 410 507 508
f 410 508 411
f 411 508 507
f 411 507 509
f 411 509 510
f 411 510 511
f 411 511 512
f 411 512 513
f 411 513 413
f 411 413 412
f 413 513 430
f 415 514 425
f 415 425 416
f 415 424 515
f 415 515 516
f 415 516 517
f 415 517 518
f 415 518 519
f 415 519 514
f 422 520 423
f 423 520 496
f 424 498 521
f 424 521 515
f 425 514 426
f 426 522 427
f 426 514 523
f 426 523 522
f 427 522 523
f 427 523 524
f 427 524 428
f 428 524 525
f 428 525 526
f 428 526 527
f 428 527 429
f 429 527 526
f 429 526 503
f 430 528 529
f 430 529 431
f 430 513 528
f 431 529 530
f 431 530 432
f 432 530 433
f 433 531 532
f 433 532 533
f 433 533 434
f 433 530 531
f 434 533 534
f 434 534 535
f 434 535 435
f 435 535 536
f 435 536 436
f 436 536 537
f 436 537 437
f 437 537 538
f 437 538 438
f 438 538 539
f 438 539 439
f 439 539 440
f 440 540 441
f 440 539 540
f 441 540 541
f 441 541 442
f 442 541 540
f 442 540 542
f 442 542 543
f 442 543 544
f 442 544 443
f 443 544 545
f 443 545 546
f 443 546 444
f 444 546 547
f 444 547 548
f 444 548 549
f 444 549 445
f 445 549 550
f 445 550 447
f 445 447 446
f 446 447 449
f 447 550 551
f 447 551 448
f 448 551 451
f 450 452 552
f 450 552 454
f 451 551 553
f 451 553 452
f 453 454 455
f 454 554 455
f 454 552 554
f 455 554 456
f 479 487 481
f 479 481 480
f 483 490 555
f 483 555 484
f 484 555 485
f 485 491 486
f 485 555 556
f 485 556 557
f 485 557 493
f 488 558 489
f 489 559 557
f 489 557 556
f 489 556 490
f 489 558 559
f 490 556 555
f 492 493 557
f 492 557 560
f 492 560 500
f 494 499 561
f 494 561 497
f 494 497 495
f 497 561 562
f 497 562 498
f 498 562 563
f 498 563 521
f 499 564 561
f 499 501 565
f 499 565 564
f 500 560 566
f 500 566 567
f 500 567 568
f 500 568 569
f 500 569 501
f 501 569 570
f 501 570 565
f 503 526 505
f 505 526 507
f 505 507 506
f 507 526 509
f 509 526 571
f 509 571 572
f 509 572 573
f 509 573 510
f 510 573 574
f 510 574 511
f 511 574 575
f 511 575 576
f 511 576 528
f 511 528 512
f 512 528 513
f 514 519 523
f 515 521 577
f 515 577 516
f 516 577 517
f 517 577 518
f 518 577 578
f 518 578 579
f 518 579 580
f 518 580 581
f 518 581 582
f 518 582 523
f 518 523 519
f 521 563 577
f 523 582 583
f 523 583 584
f 523 584 524
f 524 584 585
f 524 585 586
f 524 586 587
f 524 587 588
f 524 588 589
f 524 589 590
f 524 590 525
f 525 590 526
f 526 590 589
f 526 589 591
f 526 591 592
f 526 592 571
f 528 576 529
f 529 576 530
f 530 576 593
f 530 593 531
f 531 593 532
f 532 594 595
f 532 595 533
f 532 593 576
f 532 576 596
f 532 596 594
f 533 595 597
f 533 597 534
f 534 597 594
f 534 594 631
f 534 631 598
f 534 598 536
f 534 536 535
f 536 598 537
f 537 598 599
f 537 599 600
f 537 600 601
f 537 601 602
f 537 602 603
f 537 603 538
f 538 603 539
f 539 604 602
f 539 602 601
f 539 601 605
f 539 605 606
f 539 606 540
f 539 603 604
f 540 606 607
f 540 607 608
f 540 608 542
f 542 608 544
f 542 544 543
f 545 547 546
f 547 609 610
f 547 610 548
f 548 610 611
f 548 611 549
f 549 611 550
f 550 611 551
f 551 611 609
f 557 559 566
f 557 566 560
f 558 612 566
f 558 566 559
f 558 613 612
f 561 564 562
f 562 564 614
f 562 614 615
f 562 615 563
f 563 615 579
f 563 579 616
f 563 616 577
f 564 565 614
f 565 617 618
f 565 618 614
f 565 570 617
f 566 612 619
f 566 619 567
f 567 619 620
f 567 620 621
f 567 621 622
f 567 622 568
f 568 623 569
f 568 622 617
f 568 617 623
f 569 623 570
f 570 623 617
f 571 592 572
f 572 624 625
f 572 625 573
f 572 592 591
f 572 591 589
f 572 589 626
f 572 626 627
f 572 627 628
f 572 628 629
f 572 629 630
f 572 630 624
f 573 625 574
f 574 625 631
f 574 631 575
f 575 631 596
f 575 596 576
f 577 616 578
f 578 616 579
f 579 632 580
f 579 615 633
f 579 633 632
f 580 632 581
f 581 634 583
f 581 583 582
f 581 632 634
f 583 634 585
f 583 585 584
f 585 635 636
f 585 636 586
f 585 634 635
f 586 637 587
f 586 636 637
f 587 637 628
f 587 628 588
f 588 627 589
f 588 628 627
f 589 627 626
f 594 596 631
f 594 597 595
f 598 631 638
f 598 638 639
f 598 639 599
f 599 639 640
f 599 640 601
f 599 601 600
f 601 640 641
f 601 641 605
f 602 604 603
f 609 611 610
f 612 642 643
f 612 643 644
f 612 644 645
f 612 645 620
f 612 620 619
f 612 613 625
f 612 625 624
f 612 624 630
f 612 630 646
f 612 646 642
f 613 640 625
f 614 618 647
f 614 647 615
f 615 647 648
f 615 648 633
f 617 622 648
f 617 648 649
f 617 649 618
f 618 649 647
f 620 645 650
f 620 650 621
f 621 650 622
f 622 650 648
f 625 640 639
f 625 639 631
f 628 637 630
f 628 630 629
f 630 637 651
f 630 651 646
f 631 639 638
f 632 633 634
f 633 648 650
f 633 650 652
f 633 652 653
f 633 653 634
f 634 653 654
f 634 654 635
f 635 655 636
f 635 654 655
f 636 655 656
f 636 656 637
f 637 656 651
f 642 657 643
f 642 646 658
f 642 658 657
f 643 657 659
f 643 659 650
f 643 650 645
f 643 645 644
f 646 651 656
f 646 656 658
f 647 649 648
f 650 659 657
f 650 657 652
f 652 657 654
f 652 654 653
f 654 657 660
f 654 660 655
f 655 660 658
f 655 658 656
f 657 658 660

