# https://github.com/mikedh/trimesh
v 0.00000000 -0.37500009 -0.49990213
v -0.18749997 0.32471129 -0.50000000
v 0.18749997 0.32471129 -0.50000000
v 0.09705362 -0.36215258 -0.49990213
v 0.09705362 -0.36215258 0.50000000
v 0.00000000 -0.37492666 0.50000000
v -0.09705362 -0.36215258 0.50000000
v -0.09705362 -0.36215258 -0.49990213
v -0.18749997 -0.32471129 -0.49990213
v -0.26509881 -0.26509893 -0.49990213
v -0.32471117 -0.18750004 -0.49990213
v -0.36215243 -0.09705366 -0.49990213
v -0.37499994 0.00000000 -0.49990213
v -0.36215243 0.09705366 -0.49990213
v -0.32471117 0.18742663 -0.49990213
v -0.26509881 0.26509893 -0.49990213
v -0.18749997 0.32471129 0.50000000
v -0.09705362 0.36215258 -0.50000000
v 0.09705362 0.36215258 -0.50000000
v 0.18749997 0.32471129 0.50000000
v 0.26509881 0.26509893 -0.49990213
v 0.32471117 0.18742663 -0.49990213
v 0.36215243 0.09705366 -0.49990213
v 0.37499994 0.00000000 -0.49990213
v 0.36215243 -0.09705366 -0.49990213
v 0.32471117 -0.18750004 -0.49990213
v 0.26509881 -0.26509893 -0.49990213
v 0.18749997 -0.32471129 -0.49990213
v 0.18749997 -0.32471129 0.50000000
v -0.18749997 -0.32471129 0.50000000
v -0.26509881 -0.26509893 0.50000000
v -0.32471117 -0.18742663 0.50000000
v -0.36215243 -0.09705366 0.50000000
v -0.37499994 0.00000000 0.50000000
v -0.36215243 0.09705366 0.50000000
v -0.32471117 0.18750004 0.50000000
v -0.26509881 0.26509893 0.50000000
v -0.09705362 0.36215258 0.50000000
v 0.00000000 0.37492666 -0.50000000
v 0.00000000 0.37500009 0.50000000
v 0.09705362 0.36215258 0.50000000
v 0.26509881 0.26509893 0.50000000
v 0.32471117 0.18750004 0.50000000
v 0.36215243 0.09705366 0.50000000
v 0.37499994 0.00000000 0.50000000
v 0.36215243 -0.09705366 0.50000000
v 0.32471117 -0.18742663 0.50000000
v 0.26509881 -0.26509893 0.50000000
f 1 2 3
f 1 3 4
f 1 4 5
f 1 5 6
f 1 6 7
f 1 7 8
f 1 8 2
f 2 8 9
f 2 9 10
f 2 10 11
f 2 11 12
f 2 12 13
f 2 13 14
f 2 14 15
f 2 15 16
f 2 16 37
f 2 37 17
f 2 17 38
f 2 38 18
f 2 18 39
f 2 39 19
f 2 19 3
f 3 19 41
f 3 41 20
f 3 20 42
f 3 42 21
f 3 21 22
f 3 22 23
f 3 23 24
f 3 24 25
f 3 25 26
f 3 26 27
f 3 27 28
f 3 28 4
f 4 28 29
f 4 29 5
f 5 29 48
f 5 48 47
f 5 47 46
f 5 46 45
f 5 45 44
f 5 44 43
f 5 43 42
f 5 42 20
f 5 20 41
f 5 41 40
f 5 40 38
f 5 38 17
f 5 17 37
f 5 37 36
f 5 36 35
f 5 35 34
f 5 34 33
f 5 33 32
f 5 32 31
f 5 31 30
f 5 30 7
f 5 7 6
f 7 30 9
f 7 9 8
f 9 30 31
f 9 31 10
f 10 31 11
f 11 31 32
f 11 32 33
f 11 33 12
f 12 33 34
f 12 34 13
f 13 34 35
f 13 35 14
f 14 35 36
f 14 36 15
f 15 36 16
f 16 36 37
f 18 38 40
f 18 40 39
f 19 39 40
f 19 40 41
f 21 42 43
f 21 43 22
f 22 43 23
f 23 43 44
f 23 44 45
f 23 45 24
f 24 45 46
f 24 46 25
f 25 46 26
f 26 46 47
f 26 47 48
f 26 48 27
f 27 48 29
f 27 29 28

