# https://github.com/mikedh/trimesh
v -0.12982301 0.10675669 0.31147027
v -0.02069850 0.10675669 0.40392023
v -0.12982301 0.13501415 0.31147027
v -0.05487925 0.10675669 0.31147027
v -0.00974373 0.10675669 0.40392023
v -0.02069850 0.24392436 0.40392023
v -0.12981126 0.19854994 0.31147027
v -0.05487925 0.11789721 0.31147027
v -0.00974373 0.10675669 0.37004122
v -0.00974373 0.25431058 0.40392023
v -0.02066324 0.24499780 0.40392023
v -0.09642979 0.19854994 0.31147027
v -0.02040465 0.24988629 0.40392023
v -0.02032237 0.25046653 0.40392023
v -0.09752291 0.24499780 0.33422524
v -0.09499580 0.24916099 0.33422524
v -0.09106994 0.25258440 0.33422524
v -0.08572185 0.25322264 0.33422524
v -0.07523725 0.25328067 0.33422524
v -0.06421196 0.24499780 0.33422524
v -0.05866405 0.25103223 0.33906767
v -0.00974373 0.24499780 0.37006837
v -0.00974373 0.23497424 0.37004122
v -0.00974373 0.25493434 0.38498491
v -0.06499948 0.25449917 0.34501439
v -0.08587465 0.25328067 0.33589068
v -0.01500954 0.25322264 0.40392023
v -0.07405009 0.25328067 0.33422524
v -0.07341538 0.25320813 0.33422524
v -0.06499948 0.24624531 0.33422524
v -0.06499948 0.25213468 0.33685011
v -0.00974373 0.25283098 0.37403286
f 1 2 6
f 1 6 3
f 1 3 7
f 1 7 12
f 1 12 8
f 1 8 4
f 1 4 9
f 1 9 5
f 1 5 2
f 2 5 10
f 2 10 27
f 2 27 14
f 2 14 13
f 2 13 11
f 2 11 6
f 3 6 7
f 4 8 23
f 4 23 9
f 5 9 23
f 5 23 22
f 5 22 32
f 5 32 24
f 5 24 10
f 6 11 7
f 7 11 13
f 7 13 14
f 7 14 15
f 7 15 16
f 7 16 17
f 7 17 18
f 7 18 19
f 7 19 28
f 7 28 12
f 8 12 20
f 8 20 21
f 8 21 22
f 8 22 23
f 10 24 25
f 10 25 26
f 10 26 17
f 10 17 27
f 12 28 29
f 12 29 30
f 12 30 20
f 14 16 15
f 14 27 17
f 14 17 16
f 17 26 18
f 18 26 25
f 18 25 19
f 19 25 28
f 20 30 21
f 21 31 32
f 21 32 22
f 21 30 31
f 24 32 25
f 25 32 29
f 25 29 28
f 29 32 31
f 29 31 30

