# https://github.com/mikedh/trimesh
v -0.00499481 0.25529814 0.40393612
v -0.00499481 0.25538546 0.38499615
v -0.00974373 0.25491983 0.38499615
v -0.00974373 0.25430864 0.40393612
v -0.00419676 0.25500712 0.40393612
v 0.04767041 0.25302812 0.35302770
v 0.03499726 0.25449783 0.35500276
v -0.00974373 0.25282440 0.37403807
v -0.00974373 0.10674220 0.40393612
v 0.00238428 0.25254792 0.40393612
v 0.04767041 0.25257701 0.35430807
v 0.04767041 0.25327548 0.34459633
v 0.04767041 0.25318819 0.34086418
v 0.04767041 0.25196588 0.33734316
v 0.04670939 0.25182036 0.33770409
v -0.00974373 0.24499571 0.37007436
v -0.00974373 0.10674220 0.37004712
v 0.00477841 0.10674220 0.40393612
v 0.00477279 0.24499571 0.40393612
v 0.04767041 0.24509758 0.35821047
v 0.04767041 0.25062713 0.33661443
v 0.04767041 0.24499571 0.33470067
v -0.00974373 0.23498429 0.37004712
v 0.04767041 0.10674220 0.33436015
v 0.04767041 0.10674220 0.35824454
v 0.00477841 0.23499885 0.40393612
v 0.04767041 0.24499571 0.35824454
f 1 2 3
f 1 3 4
f 1 4 9
f 1 9 18
f 1 18 26
f 1 26 19
f 1 19 10
f 1 10 5
f 1 5 6
f 1 6 7
f 1 7 2
f 2 7 3
f 3 7 8
f 3 8 16
f 3 16 23
f 3 23 17
f 3 17 9
f 3 9 4
f 5 10 6
f 6 10 11
f 6 11 20
f 6 20 27
f 6 27 25
f 6 25 24
f 6 24 22
f 6 22 21
f 6 21 14
f 6 14 13
f 6 13 12
f 6 12 7
f 7 12 13
f 7 13 8
f 8 13 14
f 8 14 15
f 8 15 16
f 9 17 24
f 9 24 25
f 9 25 18
f 10 19 20
f 10 20 11
f 14 21 15
f 15 21 16
f 16 21 22
f 16 22 23
f 17 23 24
f 18 25 27
f 18 27 26
f 19 27 20
f 19 26 27
f 22 24 23

