# https://github.com/mikedh/trimesh
v -0.00500034 0.24495406 0.50529015
v 0.00235567 0.24495406 0.50254172
v 0.00157046 0.25165144 0.50169837
v -0.00500034 0.25260106 0.50264096
v -0.01499863 0.25160146 0.50160903
v -0.01499863 0.24495406 0.50322634
v -0.00500034 -0.24495400 0.50529015
v 0.00471378 0.24495406 0.49499103
v 0.00235567 -0.24495400 0.50254172
v 0.00235567 0.25250110 0.49499103
v -0.00500034 0.25530002 0.49499103
v -0.01499863 0.25320083 0.49499103
v -0.02019844 0.25030196 0.50031918
v -0.02029815 0.24495406 0.50047791
v -0.01499863 -0.24495400 0.50322634
v -0.01499863 -0.25160140 0.50160903
v -0.00500034 -0.25260100 0.50264096
v 0.00157046 -0.25165138 0.50169837
v 0.00477360 0.23495798 0.40393615
v 0.00476612 0.24495406 0.40393615
v 0.00471378 -0.24495400 0.49499103
v 0.00237810 0.25250110 0.40393615
v -0.00500034 0.25530002 0.40393615
v -0.01393424 0.25345072 0.40393615
v -0.00419769 0.25500011 0.40393615
v -0.01499863 0.25320083 0.40393615
v -0.01973729 0.25075179 0.40393615
v -0.02031560 0.25045192 0.40393615
v -0.02029815 0.25045192 0.49499103
v -0.02059977 0.24495406 0.49499103
v -0.02029815 -0.24495400 0.50047791
v -0.02019844 -0.25030190 0.50031918
v -0.01499863 -0.25320077 0.49499103
v -0.00500034 -0.25529996 0.49499103
v 0.00235567 -0.25250104 0.49499103
v 0.00477360 -0.24390441 0.40393615
v 0.00476612 -0.24495400 0.40393615
v -0.02038789 0.24985215 0.40393615
v -0.02065959 0.24495406 0.40393615
v -0.02068701 0.24390447 0.40393615
v -0.02068951 -0.13604668 0.40393615
v -0.02059977 -0.24495400 0.49499103
v -0.02029815 -0.25045186 0.49499103
v -0.02031560 -0.25045186 0.40393615
v -0.01499863 -0.25320077 0.40393615
v -0.00500034 -0.25529996 0.40393615
v 0.00237810 -0.25250104 0.40393615
v 0.00265728 -0.25170135 0.40393615
v -0.02068951 -0.23495792 0.40393615
v -0.02065959 -0.24495400 0.40393615
f 1 2 3
f 1 3 4
f 1 4 5
f 1 5 6
f 1 6 15
f 1 15 7
f 1 7 9
f 1 9 2
f 2 8 3
f 2 9 21
f 2 21 8
f 3 10 11
f 3 11 4
f 3 8 10
f 4 11 5
f 5 11 12
f 5 12 13
f 5 13 6
f 6 13 14
f 6 14 31
f 6 31 15
f 7 15 16
f 7 16 17
f 7 17 18
f 7 18 9
f 8 19 20
f 8 20 10
f 8 21 36
f 8 36 19
f 9 18 21
f 10 20 22
f 10 22 11
f 11 23 24
f 11 24 12
f 11 22 25
f 11 25 23
f 12 24 26
f 12 26 27
f 12 27 28
f 12 28 29
f 12 29 13
f 13 30 14
f 13 29 30
f 14 30 42
f 14 42 31
f 15 31 32
f 15 32 16
f 16 33 34
f 16 34 17
f 16 32 33
f 17 34 18
f 18 34 35
f 18 35 21
f 19 36 37
f 19 37 48
f 19 48 47
f 19 47 46
f 19 46 45
f 19 45 44
f 19 44 50
f 19 50 49
f 19 49 41
f 19 41 40
f 19 40 39
f 19 39 38
f 19 38 28
f 19 28 27
f 19 27 26
f 19 26 24
f 19 24 23
f 19 23 25
f 19 25 22
f 19 22 20
f 21 35 37
f 21 37 36
f 28 38 29
f 29 38 39
f 29 39 30
f 30 39 40
f 30 40 41
f 30 41 49
f 30 49 42
f 31 42 32
f 32 42 43
f 32 43 33
f 33 44 45
f 33 45 46
f 33 46 34
f 33 43 44
f 34 46 47
f 34 47 35
f 35 47 48
f 35 48 37
f 42 49 50
f 42 50 43
f 43 50 44

