# https://github.com/mikedh/trimesh
v 0.22724599 -0.10752475 0.23147118
v 0.20423800 -0.10752475 0.24772578
v 0.12698540 -0.10755354 0.30878064
v 0.13387530 -0.10755354 0.30389625
v 0.22726384 -0.12502582 0.23147118
v 0.04491344 -0.10752475 0.23147118
v 0.18160483 -0.10752475 0.26368013
v 0.10146063 -0.10755354 0.32505527
v 0.08245093 -0.24497151 0.33370304
v 0.13005552 -0.25003761 0.30003279
v 0.22722813 -0.24498591 0.23147118
v 0.18106936 -0.10752475 0.26405045
v 0.22726384 -0.23980467 0.23147118
v 0.04491344 -0.23465221 0.23147118
v 0.04491344 -0.11051836 0.26405045
v 0.04493129 -0.10755354 0.31872958
v 0.04494914 -0.10752475 0.26405045
v 0.08279006 -0.10755354 0.33371305
v 0.08243307 -0.19787981 0.33371305
v 0.07800640 -0.25221086 0.33370304
v 0.08257587 -0.25162077 0.33179131
v 0.10063955 -0.25052696 0.32042110
v 0.20031109 -0.25029668 0.25023806
v 0.21169908 -0.25126097 0.24121995
v 0.22505051 -0.24977855 0.23147118
v 0.07502553 -0.25431213 0.32498521
v 0.05537324 -0.25275776 0.33370304
v 0.04907238 -0.24497151 0.33370304
v 0.04491344 -0.21504986 0.24490325
v 0.20498767 -0.25419700 0.23147118
v 0.04491344 -0.18707116 0.26405045
v 0.04903667 -0.23499763 0.33370304
v 0.04862614 -0.10755354 0.33371305
v 0.04905453 -0.19787981 0.33371305
v 0.06511907 -0.25416821 0.33370304
v 0.07475779 -0.25285852 0.33370304
v 0.08555673 -0.25316074 0.32559574
v 0.11518688 -0.25303122 0.30539760
v 0.14485274 -0.25280094 0.28519946
v 0.15281361 -0.25172150 0.28201661
v 0.11202753 -0.25140488 0.31140301
v 0.14142564 -0.25110263 0.29102468
v 0.17087729 -0.25074285 0.27063638
v 0.18224743 -0.25152004 0.26160827
v 0.22308706 -0.25180787 0.23220184
v 0.22342619 -0.25198057 0.23147118
v 0.10503053 -0.25445604 0.30498722
v 0.09501696 -0.25434092 0.31498623
v 0.21500123 -0.25363570 0.23147118
v 0.20498767 -0.25455680 0.23500437
v 0.12498625 -0.25411063 0.29499826
v 0.21500123 -0.25294486 0.23532465
v 0.13498197 -0.25449923 0.28500929
v 0.16496912 -0.25441289 0.26501131
v 0.19499196 -0.25425458 0.24500334
f 1 2 3
f 1 3 4
f 1 4 5
f 1 5 13
f 1 13 11
f 1 11 25
f 1 25 46
f 1 46 49
f 1 49 30
f 1 30 14
f 1 14 6
f 1 6 17
f 1 17 12
f 1 12 7
f 1 7 2
f 2 7 3
f 3 8 9
f 3 9 10
f 3 10 11
f 3 11 4
f 3 7 12
f 3 12 8
f 4 11 13
f 4 13 5
f 6 14 29
f 6 29 31
f 6 31 15
f 6 15 16
f 6 16 17
f 8 18 9
f 8 12 18
f 9 18 19
f 9 19 20
f 9 20 21
f 9 21 22
f 9 22 10
f 10 22 23
f 10 23 11
f 11 23 24
f 11 24 25
f 12 17 33
f 12 33 18
f 14 26 27
f 14 27 28
f 14 28 29
f 14 30 26
f 15 31 16
f 16 31 28
f 16 28 32
f 16 32 33
f 16 33 17
f 18 33 34
f 18 34 19
f 19 34 35
f 19 35 36
f 19 36 20
f 20 36 37
f 20 37 38
f 20 38 39
f 20 39 40
f 20 40 21
f 21 41 22
f 21 40 41
f 22 41 42
f 22 42 43
f 22 43 23
f 23 43 24
f 24 43 42
f 24 42 41
f 24 41 44
f 24 44 45
f 24 45 25
f 25 45 46
f 26 47 48
f 26 48 35
f 26 35 27
f 26 30 47
f 27 35 34
f 27 34 28
f 28 34 33
f 28 33 32
f 28 31 29
f 30 49 50
f 30 50 47
f 35 48 36
f 36 48 37
f 37 48 51
f 37 51 38
f 38 51 52
f 38 52 39
f 39 52 45
f 39 45 40
f 40 45 44
f 40 44 41
f 45 52 46
f 46 52 49
f 47 53 48
f 47 50 53
f 48 53 54
f 48 54 55
f 48 55 51
f 49 52 50
f 50 52 55
f 50 55 54
f 50 54 53
f 51 55 52

