# https://github.com/mikedh/trimesh
v 0.16442108 0.10674219 0.27621049
v 0.17498413 0.10437216 0.37498420
v 0.18497676 0.10254745 0.36499548
v 0.19302580 0.10084859 0.36499548
v 0.19695525 0.09950627 0.35500678
v 0.20498316 0.09715723 0.35500678
v 0.21351808 0.09266886 0.35500678
v 0.21271530 0.09153628 0.34500194
v 0.21772218 0.08870484 0.34500194
v 0.23010206 0.08006369 0.33975744
v 0.23232031 0.07203078 0.32668659
v 0.22997531 0.06997536 0.32002208
v 0.20056781 0.07058360 0.27919582
v 0.20242690 0.06582257 0.27621049
v 0.04556575 0.10674219 0.27621049
v 0.13427415 0.10674219 0.30428863
v 0.16594216 0.10177143 0.38597342
v 0.16323802 0.10051301 0.39104038
v 0.17498413 0.10198116 0.38363355
v 0.18185009 0.10116319 0.38155192
v 0.18510351 0.10193922 0.37498420
v 0.19154698 0.10072275 0.37164387
v 0.12502094 0.10674219 0.31117907
v 0.04556575 0.10674219 0.35975102
v 0.21176463 0.09187186 0.36181653
v 0.22940490 0.07851164 0.34719655
v 0.23010206 0.08006369 0.34053200
v 0.23922853 0.06905252 0.33501321
v 0.23346111 0.07519780 0.33585232
v 0.24161577 0.06208926 0.32754183
v 0.23584837 0.06605329 0.32378197
v 0.20399022 0.06395592 0.27621049
v 0.20956752 0.06949297 0.29057229
v 0.04556575 -0.10752474 0.27621049
v 0.16991386 0.09992574 0.38997537
v 0.17200534 0.10080664 0.38734505
v 0.15497772 0.10038716 0.39086288
v 0.14504847 0.09390631 0.40393373
v 0.14500621 0.09363364 0.40446627
v 0.18510351 0.09409507 0.38239104
v 0.20143397 0.09166212 0.37103069
v 0.16061838 0.09073928 0.40044817
v 0.17618831 0.09671678 0.38736117
v 0.04556575 0.00481019 0.37548447
v 0.06973398 0.00122370 0.41040462
v 0.08722638 0.00495701 0.43393216
v 0.09170511 0.00495701 0.43893459
v 0.09016290 0.02934938 0.42978498
v 0.09092344 0.03494934 0.42875224
v 0.09593032 0.03494934 0.43377081
v 0.09772604 0.04296128 0.43215710
v 0.10047244 0.04963091 0.42960748
v 0.10714827 0.05286085 0.43123731
v 0.11673951 0.07247122 0.42197475
v 0.12499981 0.07838579 0.41819873
v 0.13499245 0.08929210 0.40822613
v 0.14593576 0.09858343 0.39407411
v 0.21347584 0.08499250 0.36288157
v 0.23086260 0.07184201 0.35064983
v 0.24142565 0.06330574 0.34159705
v 0.23257381 0.07511391 0.34432417
v 0.24229181 0.06408176 0.33501321
v 0.25046760 0.05086835 0.33133399
v 0.25046760 0.05086835 0.32884893
v 0.24875639 0.04847736 0.32218441
v 0.25131264 0.04180773 0.31806952
v 0.24208055 0.05254624 0.31702060
v 0.23229918 0.06282334 0.31500351
v 0.23973556 0.04967285 0.31035608
v 0.23768634 0.05552451 0.31421280
v 0.21275756 0.05321740 0.27621049
v 0.04556575 -0.10752474 0.35975102
v 0.16230847 -0.10752474 0.27621049
v 0.14745684 0.09338196 0.40393373
v 0.15497772 0.09256399 0.40230390
v 0.13499245 0.08427940 0.41338995
v 0.19004701 0.09017299 0.38005120
v 0.17686434 0.09566809 0.38734505
v 0.20718026 0.08499250 0.36786786
v 0.15605515 0.08608313 0.40393373
v 0.15618190 0.08497152 0.40393373
v 0.16091415 0.08497152 0.40067410
v 0.14257671 0.08329363 0.41179240
v 0.13118975 0.07198883 0.42082903
v 0.04556575 -0.00483769 0.37548447
v 0.06973398 -0.00123022 0.41040462
v 0.08722638 -0.00496353 0.43393216
v 0.09170511 -0.00496353 0.43893459
v 0.09671199 0.00495701 0.44106466
v 0.09992315 0.02030973 0.44003189
v 0.10501454 0.03494934 0.43704659
v 0.10429625 0.04577175 0.43333510
v 0.11304245 0.05286085 0.43123731
v 0.12499981 0.07339407 0.42210385
v 0.23132738 0.06496266 0.35097256
v 0.24271435 0.05495822 0.34242004
v 0.21926439 0.07496709 0.35944441
v 0.24835500 0.04497476 0.33790171
v 0.25186193 0.04497476 0.33289927
v 0.25602376 0.03497032 0.32502449
v 0.25228447 0.04507962 0.32531494
v 0.24552411 0.04575078 0.31421280
v 0.25264359 0.03497032 0.31618148
v 0.24001020 0.04002497 0.29996395
v 0.22836973 0.04799496 0.29229894
v 0.21934889 0.04919046 0.28090632
v 0.21370822 0.05204288 0.27621049
v 0.14500621 -0.09364017 0.40446627
v 0.13499245 -0.08929862 0.40822613
v 0.12499981 -0.07839232 0.41819873
v 0.11673951 -0.07247775 0.42197475
v 0.10714827 -0.05284640 0.43123731
v 0.10047244 -0.04963743 0.42960748
v 0.09772604 -0.04296781 0.43215710
v 0.09593032 -0.03495587 0.43377081
v 0.09092344 -0.03495587 0.42875224
v 0.09016290 -0.02935590 0.42978498
v 0.10148648 -0.10752474 0.32508904
v 0.17498413 -0.10437869 0.37498420
v 0.16594216 -0.10177795 0.38597342
v 0.16520274 -0.10144237 0.38734505
v 0.16323802 -0.10051953 0.39102426
v 0.15497772 -0.10039369 0.39086288
v 0.14593576 -0.09858996 0.39407411
v 0.16435771 -0.10750376 0.27621049
v 0.16433658 -0.10752474 0.27625889
v 0.15278061 0.09103291 0.40393373
v 0.18497676 0.08499250 0.38369811
v 0.19509615 0.08499250 0.37654948
v 0.20217338 0.08499250 0.37153092
v 0.16594216 0.08497152 0.39714012
v 0.15497772 0.08497152 0.40474057
v 0.14386541 0.07496709 0.41271219
v 0.14887229 0.07496709 0.40919435
v 0.12499981 0.06498363 0.42507303
v 0.13178128 0.06498363 0.42124858
v 0.09992315 -0.02029528 0.44003189
v 0.09671199 -0.00496353 0.44106466
v 0.10216252 0.00495701 0.44106466
v 0.09890910 0.01496144 0.44040304
v 0.10017666 0.02030973 0.44003189
v 0.10102171 0.01496144 0.44040304
v 0.11464803 0.04497476 0.43254441
v 0.22496843 0.06496266 0.35547474
v 0.23134851 0.05495822 0.35097256
v 0.24841838 0.02496588 0.33891833
v 0.24841838 0.03497032 0.33885378
v 0.24334812 0.04497476 0.34243616
v 0.26003772 0.01051503 0.33009148
v 0.25334075 0.03497032 0.33386749
v 0.25798848 0.02496588 0.32502449
v 0.26041800 0.01213000 0.31926364
v 0.25355202 0.02569996 0.31409985
v 0.24985495 0.02949619 0.31017858
v 0.24064398 0.03497032 0.29906029
v 0.22946829 0.02790219 0.28072882
v 0.22498956 0.03299879 0.27621049
v 0.22444028 0.03509616 0.27621049
v 0.22230655 0.03996205 0.27621049
v 0.23094711 0.04132534 0.28861973
v 0.21808133 0.04656875 0.27621049
v 0.13499245 -0.08428591 0.41338995
v 0.16991386 -0.09993227 0.38997537
v 0.14745684 -0.09338849 0.40393373
v 0.12499981 -0.07337961 0.42210385
v 0.11304245 -0.05284640 0.43123731
v 0.10501454 -0.03495587 0.43704659
v 0.10429625 -0.04575730 0.43333510
v 0.12700678 -0.10752474 0.30880696
v 0.18497676 -0.10257495 0.36499548
v 0.19302580 -0.10087609 0.36499548
v 0.19154698 -0.10075025 0.37164387
v 0.18510351 -0.10196672 0.37498420
v 0.18185009 -0.10119069 0.38155192
v 0.17498413 -0.10200866 0.38363355
v 0.13391502 -0.10752474 0.30393362
v 0.21772218 -0.08871136 0.34500194
v 0.19951150 -0.06937364 0.27621049
v 0.20056781 -0.07059012 0.27919582
v 0.22997531 -0.06998188 0.32002208
v 0.23232031 -0.07205828 0.32668659
v 0.23010206 -0.08009119 0.33975744
v 0.21271530 -0.09156378 0.34500194
v 0.21351808 -0.09265441 0.35500678
v 0.20498316 -0.09716374 0.35500678
v 0.13678816 0.06498363 0.41773075
v 0.12499981 0.05497919 0.42599285
v 0.11963379 0.04497476 0.42978498
v 0.11471141 0.03494934 0.43325442
v 0.11471141 0.02496588 0.43330282
v 0.10017666 -0.02029528 0.44003189
v 0.09890910 -0.01496797 0.44040304
v 0.10216252 -0.00496353 0.44106466
v 0.10714827 0.00495701 0.43830526
v 0.23134851 -0.05498571 0.35097256
v 0.24841838 -0.02499338 0.33891833
v 0.25496745 0.00497798 0.33415794
v 0.26018560 0.00497798 0.33025283
v 0.26136866 0.00497798 0.32502449
v 0.26035461 0.01200416 0.32502449
v 0.25944620 0.01699589 0.32502449
v 0.26111516 0.00497798 0.31806952
v 0.25781947 0.00497798 0.31308320
v 0.25712234 0.01527605 0.31556830
v 0.25162953 0.01496144 0.30766124
v 0.24189043 0.02496588 0.29730135
v 0.22716555 0.02429472 0.27621049
v 0.22038406 0.04356952 0.27621049
v 0.22188401 0.04252084 0.27722710
v 0.15497772 -0.09257051 0.40230390
v 0.14555550 -0.08596381 0.40924278
v 0.14257671 -0.08330016 0.41179240
v 0.16061838 -0.09074581 0.40044817
v 0.13118975 -0.07199536 0.42082903
v 0.12499981 -0.06499015 0.42507303
v 0.11464803 -0.04496031 0.43254441
v 0.10102171 -0.01496797 0.44040304
v 0.21176463 -0.09185741 0.36181653
v 0.20143397 -0.09166865 0.37103069
v 0.18510351 -0.09410159 0.38239104
v 0.17519538 -0.09594727 0.38836166
v 0.20331420 -0.06478041 0.27621049
v 0.20956752 -0.06949949 0.29057229
v 0.23584837 -0.06605981 0.32378197
v 0.24161577 -0.06211676 0.32754183
v 0.23922853 -0.06908002 0.33501321
v 0.23346111 -0.07520432 0.33585232
v 0.23010206 -0.08009119 0.34053200
v 0.22940490 -0.07851816 0.34719655
v 0.13678816 -0.06499015 0.41773075
v 0.11471141 -0.02497241 0.43330282
v 0.11471141 -0.03495587 0.43325442
v 0.10714827 -0.00496353 0.43830526
v 0.17980087 -0.08495708 0.38736117
v 0.22496843 -0.06496917 0.35547474
v 0.23132738 -0.06496917 0.35097256
v 0.24841838 -0.03499781 0.33885378
v 0.25496745 -0.00498451 0.33415794
v 0.26018560 -0.00498451 0.33025283
v 0.26136866 -0.00498451 0.32502449
v 0.26111516 -0.00498451 0.31806952
v 0.25781947 -0.00498451 0.31308320
v 0.24928455 0.00497798 0.30098057
v 0.24011582 0.01053600 0.28981388
v 0.22942603 0.01496144 0.27621049
v 0.16091415 -0.08495708 0.40067410
v 0.15618190 -0.08495708 0.40393373
v 0.15497772 -0.08495708 0.40474057
v 0.19004701 -0.09017952 0.38005120
v 0.13178128 -0.06499015 0.42124858
v 0.14386541 -0.07497361 0.41271219
v 0.12499981 -0.05498571 0.42599285
v 0.11963379 -0.04496031 0.42978498
v 0.21347584 -0.08499902 0.36288157
v 0.23086260 -0.07184853 0.35064983
v 0.20718026 -0.08499902 0.36786786
v 0.20859572 -0.05832053 0.27621049
v 0.22484167 -0.05483890 0.29518744
v 0.23229918 -0.06282987 0.31500351
v 0.23973556 -0.04970035 0.31035608
v 0.24208055 -0.05257374 0.31702060
v 0.25131264 -0.04183523 0.31806952
v 0.24875639 -0.04850485 0.32218441
v 0.25046760 -0.05087488 0.32884893
v 0.25046760 -0.05087488 0.33133399
v 0.24229181 -0.06406731 0.33501321
v 0.24142565 -0.06331225 0.34159705
v 0.23257381 -0.07507848 0.34432417
v 0.14887229 -0.07497361 0.40919435
v 0.16594216 -0.08495708 0.39714012
v 0.19509615 -0.08499902 0.37654948
v 0.20217338 -0.08499902 0.37153092
v 0.21926439 -0.07499459 0.35944441
v 0.24271435 -0.05498571 0.34242004
v 0.24334812 -0.04498128 0.34243616
v 0.26003772 -0.01054253 0.33009148
v 0.26035461 -0.01203166 0.32502449
v 0.26041800 -0.01215750 0.31926364
v 0.25712234 -0.01528257 0.31556830
v 0.25162953 -0.01498894 0.30766124
v 0.24011582 -0.01056350 0.28981388
v 0.24928455 -0.00498451 0.30098057
v 0.23179215 0.00497798 0.27621049
v 0.20922950 -0.05754450 0.27621049
v 0.21934889 -0.04921796 0.28090632
v 0.22836973 -0.04802246 0.29229894
v 0.24001020 -0.04005247 0.29996395
v 0.25264359 -0.03499781 0.31618148
v 0.25602376 -0.03499781 0.32502449
v 0.25228447 -0.04508615 0.32531494
v 0.25186193 -0.04498128 0.33289927
v 0.24835500 -0.04498128 0.33790171
v 0.25334075 -0.03499781 0.33386749
v 0.25798848 -0.02499338 0.32502449
v 0.25944620 -0.01702339 0.32502449
v 0.25355202 -0.02570648 0.31409985
v 0.24189043 -0.02499338 0.29730135
v 0.22716555 -0.02432222 0.27621049
v 0.22874999 -0.01779941 0.27621049
v 0.23024994 -0.01157024 0.27621049
v 0.23179215 -0.00498451 0.27621049
v 0.21275756 -0.05322393 0.27621049
v 0.21808133 -0.04659625 0.27621049
v 0.23094711 -0.04135283 0.28861973
v 0.22154599 -0.04196107 0.27621049
v 0.22444028 -0.03510268 0.27621049
v 0.22946829 -0.02790872 0.28072882
v 0.24064398 -0.03499781 0.29906029
v 0.24985495 -0.02952369 0.31017858
v 0.22686978 -0.02551772 0.27621049
v 0.22038406 -0.04357604 0.27621049
v 0.22188401 -0.04254833 0.27722710
f 1 2 3
f 1 3 4
f 1 4 5
f 1 5 6
f 1 6 7
f 1 7 8
f 1 8 9
f 1 9 10
f 1 10 11
f 1 11 12
f 1 12 13
f 1 13 14
f 1 14 32
f 1 32 71
f 1 71 107
f 1 107 161
f 1 161 208
f 1 208 159
f 1 159 158
f 1 158 157
f 1 157 207
f 1 207 245
f 1 245 283
f 1 283 301
f 1 301 300
f 1 300 299
f 1 299 298
f 1 298 310
f 1 310 306
f 1 306 305
f 1 305 311
f 1 311 303
f 1 303 302
f 1 302 284
f 1 284 257
f 1 257 222
f 1 222 178
f 1 178 125
f 1 125 73
f 1 73 34
f 1 34 15
f 1 15 24
f 1 24 23
f 1 23 16
f 1 16 2
f 2 17 18
f 2 18 19
f 2 19 20
f 2 20 21
f 2 21 22
f 2 22 4
f 2 4 3
f 2 16 23
f 2 23 24
f 2 24 17
f 4 22 6
f 4 6 5
f 6 22 7
f 7 9 8
f 7 22 25
f 7 25 26
f 7 26 27
f 7 27 10
f 7 10 9
f 10 27 28
f 10 28 29
f 10 29 11
f 11 29 28
f 11 28 30
f 11 30 31
f 11 31 12
f 12 31 32
f 12 32 33
f 12 33 13
f 13 33 32
f 13 32 14
f 15 34 72
f 15 72 85
f 15 85 44
f 15 44 24
f 17 24 18
f 18 35 36
f 18 36 19
f 18 24 37
f 18 37 38
f 18 38 39
f 18 39 35
f 19 36 20
f 20 40 41
f 20 41 25
f 20 25 22
f 20 22 21
f 20 36 35
f 20 35 42
f 20 42 43
f 20 43 40
f 24 44 45
f 24 45 46
f 24 46 47
f 24 47 48
f 24 48 49
f 24 49 50
f 24 50 51
f 24 51 52
f 24 52 53
f 24 53 54
f 24 54 55
f 24 55 56
f 24 56 39
f 24 39 38
f 24 38 57
f 24 57 37
f 25 41 58
f 25 58 59
f 25 59 26
f 26 59 60
f 26 60 61
f 26 61 27
f 27 61 28
f 28 60 62
f 28 62 63
f 28 63 64
f 28 64 30
f 28 61 60
f 30 64 65
f 30 65 66
f 30 66 67
f 30 67 31
f 31 68 32
f 31 67 69
f 31 69 70
f 31 70 68
f 32 68 71
f 34 73 126
f 34 126 176
f 34 176 169
f 34 169 118
f 34 118 72
f 35 39 74
f 35 74 75
f 35 75 42
f 37 57 38
f 39 56 76
f 39 76 74
f 40 77 41
f 40 43 78
f 40 78 42
f 40 42 77
f 41 77 79
f 41 79 58
f 42 80 81
f 42 81 82
f 42 82 77
f 42 78 43
f 42 75 83
f 42 83 84
f 42 84 80
f 44 85 86
f 44 86 45
f 45 86 87
f 45 87 46
f 46 87 88
f 46 88 47
f 47 88 138
f 47 138 89
f 47 89 90
f 47 90 50
f 47 50 48
f 48 50 49
f 50 90 51
f 51 90 91
f 51 91 92
f 51 92 53
f 51 53 52
f 53 92 91
f 53 91 93
f 53 93 94
f 53 94 54
f 54 94 55
f 55 94 76
f 55 76 56
f 58 79 59
f 59 95 96
f 59 96 60
f 59 79 97
f 59 97 95
f 60 96 98
f 60 98 99
f 60 99 63
f 60 63 62
f 63 99 100
f 63 100 64
f 64 100 101
f 64 101 66
f 64 66 65
f 66 102 67
f 66 101 100
f 66 100 103
f 66 103 104
f 66 104 102
f 67 102 69
f 68 70 69
f 68 69 105
f 68 105 71
f 69 102 105
f 71 106 107
f 71 105 106
f 72 108 109
f 72 109 110
f 72 110 111
f 72 111 112
f 72 112 113
f 72 113 114
f 72 114 115
f 72 115 116
f 72 116 117
f 72 117 88
f 72 88 87
f 72 87 86
f 72 86 85
f 72 118 119
f 72 119 120
f 72 120 121
f 72 121 122
f 72 122 123
f 72 123 124
f 72 124 108
f 73 125 126
f 74 127 75
f 74 76 127
f 75 127 83
f 76 83 127
f 76 94 83
f 77 128 129
f 77 129 130
f 77 130 79
f 77 82 131
f 77 131 128
f 79 130 97
f 80 132 81
f 80 84 132
f 81 132 133
f 81 133 82
f 82 133 134
f 82 134 131
f 83 94 84
f 84 94 135
f 84 135 136
f 84 136 133
f 84 133 132
f 88 117 115
f 88 115 137
f 88 137 138
f 89 138 193
f 89 193 139
f 89 139 142
f 89 142 140
f 89 140 90
f 90 140 142
f 90 142 141
f 90 141 91
f 91 141 142
f 91 142 139
f 91 139 143
f 91 143 93
f 93 143 135
f 93 135 94
f 95 97 130
f 95 130 129
f 95 129 144
f 95 144 145
f 95 145 146
f 95 146 147
f 95 147 148
f 95 148 96
f 96 148 147
f 96 147 149
f 96 149 98
f 98 149 150
f 98 150 99
f 99 150 149
f 99 149 100
f 100 149 151
f 100 151 152
f 100 152 103
f 102 104 105
f 103 152 153
f 103 153 154
f 103 154 104
f 104 155 156
f 104 156 157
f 104 157 158
f 104 158 159
f 104 159 160
f 104 160 161
f 104 161 105
f 104 154 155
f 105 161 106
f 106 161 107
f 108 162 109
f 108 124 123
f 108 123 122
f 108 122 163
f 108 163 164
f 108 164 162
f 109 162 110
f 110 162 165
f 110 165 111
f 111 165 112
f 112 165 166
f 112 166 167
f 112 167 168
f 112 168 114
f 112 114 113
f 114 168 167
f 114 167 137
f 114 137 115
f 115 117 116
f 118 169 119
f 119 126 170
f 119 170 171
f 119 171 172
f 119 172 173
f 119 173 174
f 119 174 175
f 119 175 121
f 119 121 120
f 119 169 176
f 119 176 126
f 121 175 122
f 122 175 163
f 125 177 126
f 125 178 179
f 125 179 180
f 125 180 181
f 125 181 182
f 125 182 177
f 126 177 183
f 126 183 184
f 126 184 185
f 126 185 171
f 126 171 170
f 128 131 144
f 128 144 129
f 131 134 186
f 131 186 144
f 133 136 186
f 133 186 134
f 135 187 136
f 135 143 187
f 136 187 188
f 136 188 189
f 136 189 190
f 136 190 186
f 137 167 191
f 137 191 217
f 137 217 192
f 137 192 138
f 138 192 217
f 138 217 193
f 139 193 233
f 139 233 194
f 139 194 189
f 139 189 143
f 143 189 188
f 143 188 187
f 144 186 145
f 145 195 196
f 145 196 146
f 145 186 230
f 145 230 195
f 146 196 238
f 146 238 197
f 146 197 147
f 147 197 198
f 147 198 149
f 149 198 199
f 149 199 200
f 149 200 201
f 149 201 151
f 151 201 152
f 152 201 200
f 152 200 199
f 152 199 202
f 152 202 203
f 152 203 204
f 152 204 153
f 153 204 205
f 153 205 206
f 153 206 154
f 154 206 156
f 154 156 155
f 156 207 157
f 156 206 207
f 159 208 209
f 159 209 160
f 160 209 208
f 160 208 161
f 162 164 210
f 162 210 211
f 162 211 212
f 162 212 165
f 163 213 210
f 163 210 164
f 163 175 174
f 163 174 213
f 165 212 214
f 165 214 215
f 165 215 166
f 166 216 167
f 166 215 216
f 167 193 217
f 167 217 191
f 167 216 193
f 171 185 172
f 172 174 173
f 172 185 184
f 172 184 218
f 172 218 174
f 174 218 219
f 174 219 220
f 174 220 221
f 174 221 213
f 177 184 183
f 177 182 184
f 178 222 223
f 178 223 179
f 179 223 180
f 180 224 181
f 180 223 222
f 180 222 224
f 181 224 225
f 181 225 226
f 181 226 227
f 181 227 182
f 182 227 226
f 182 226 228
f 182 228 184
f 184 228 229
f 184 229 218
f 186 190 231
f 186 231 230
f 189 194 190
f 190 194 233
f 190 233 231
f 193 216 232
f 193 232 233
f 195 230 234
f 195 234 235
f 195 235 236
f 195 236 196
f 196 237 238
f 196 236 237
f 197 238 239
f 197 239 198
f 198 239 240
f 198 240 199
f 199 240 241
f 199 241 202
f 202 241 242
f 202 242 203
f 203 242 282
f 203 282 243
f 203 243 244
f 203 244 204
f 204 244 205
f 205 244 206
f 206 244 207
f 207 244 245
f 210 213 212
f 210 212 211
f 212 213 214
f 213 246 247
f 213 247 248
f 213 248 214
f 213 221 220
f 213 220 249
f 213 249 246
f 214 250 215
f 214 248 251
f 214 251 250
f 215 250 252
f 215 252 216
f 216 252 253
f 216 253 232
f 218 254 219
f 218 229 255
f 218 255 254
f 219 249 220
f 219 254 256
f 219 256 249
f 222 257 258
f 222 258 259
f 222 259 224
f 224 259 260
f 224 260 261
f 224 261 225
f 225 261 262
f 225 262 263
f 225 263 264
f 225 264 226
f 226 264 265
f 226 265 266
f 226 266 267
f 226 267 268
f 226 268 228
f 228 268 229
f 229 268 267
f 229 267 255
f 230 231 250
f 230 250 251
f 230 251 269
f 230 269 270
f 230 270 234
f 231 233 232
f 231 232 250
f 232 253 250
f 234 270 249
f 234 249 271
f 234 271 235
f 235 271 236
f 236 271 272
f 236 272 273
f 236 273 255
f 236 255 274
f 236 274 275
f 236 275 237
f 237 275 274
f 237 274 276
f 237 276 239
f 237 239 238
f 239 276 240
f 240 276 277
f 240 277 278
f 240 278 241
f 241 278 242
f 242 278 279
f 242 279 280
f 242 280 281
f 242 281 282
f 243 282 301
f 243 301 283
f 243 283 244
f 244 283 245
f 246 269 251
f 246 251 247
f 246 249 270
f 246 270 269
f 247 251 248
f 249 256 272
f 249 272 271
f 250 253 252
f 254 255 256
f 255 267 274
f 255 273 256
f 256 273 272
f 257 284 285
f 257 285 258
f 258 286 259
f 258 285 286
f 259 286 260
f 260 286 287
f 260 287 262
f 260 262 261
f 262 288 289
f 262 289 290
f 262 290 264
f 262 264 263
f 262 287 288
f 264 290 289
f 264 289 265
f 265 289 291
f 265 291 267
f 265 267 266
f 267 291 292
f 267 292 274
f 274 292 276
f 276 293 291
f 276 291 289
f 276 289 294
f 276 294 295
f 276 295 277
f 276 292 293
f 277 295 278
f 278 295 294
f 278 294 289
f 278 289 288
f 278 288 296
f 278 296 279
f 279 296 280
f 280 296 297
f 280 297 281
f 281 298 299
f 281 299 300
f 281 300 301
f 281 301 282
f 281 297 298
f 284 302 285
f 285 302 303
f 285 303 286
f 286 303 287
f 287 303 304
f 287 304 305
f 287 305 306
f 287 306 307
f 287 307 308
f 287 308 309
f 287 309 288
f 288 309 296
f 291 293 292
f 296 309 297
f 297 309 307
f 297 307 310
f 297 310 298
f 303 311 304
f 304 311 312
f 304 312 305
f 305 312 311
f 306 310 307
f 307 309 308

