# https://github.com/mikedh/trimesh
v -0.06355575 -0.25445908 0.34644982
v -0.06355575 -0.25422749 0.34497917
v 0.06499451 -0.25447357 0.33500755
v -0.00498839 -0.25539994 0.38498938
v -0.00498839 -0.25529861 0.40392241
v -0.00606262 -0.25508150 0.40392241
v -0.01500027 -0.25322872 0.40392241
v -0.06355575 -0.25221547 0.35476524
v 0.06508046 -0.25416958 0.33372241
v -0.06355575 -0.25222993 0.33803132
v 0.07473426 -0.25286683 0.33372241
v 0.07469130 -0.25263524 0.33509001
v 0.07797129 -0.25221547 0.33372241
v 0.00238803 -0.25254840 0.40392241
v -0.01557319 -0.25293922 0.40392241
v -0.06355575 -0.25202730 0.35526693
v -0.06355575 -0.25189704 0.33735785
v -0.06355575 -0.24636763 0.33491132
v -0.06355575 -0.24499252 0.33469829
v 0.05534072 -0.25275105 0.33372241
v 0.07116780 -0.25092721 0.34083521
v 0.08239715 -0.24499252 0.33372241
v 0.00266017 -0.25173780 0.40392241
v -0.02031416 -0.25047851 0.40392241
v -0.06355575 -0.25175229 0.35568613
v -0.06355575 -0.10752475 0.33385301
v 0.04905285 -0.24499252 0.33372241
v 0.08276954 -0.10752475 0.33372241
v 0.00478000 -0.24499252 0.40392241
v -0.02065791 -0.24499252 0.40392241
v -0.06355575 -0.24499252 0.35824946
v -0.06034736 -0.25031927 0.36025617
v -0.06355575 -0.10752475 0.35824946
v 0.04858019 -0.10752475 0.33372241
v 0.00478000 -0.10752475 0.40392241
v -0.02068656 -0.23499039 0.40392241
v -0.02068656 -0.10752475 0.40392241
f 1 2 3
f 1 3 4
f 1 4 5
f 1 5 6
f 1 6 7
f 1 7 8
f 1 8 16
f 1 16 25
f 1 25 31
f 1 31 33
f 1 33 26
f 1 26 19
f 1 19 18
f 1 18 17
f 1 17 10
f 1 10 2
f 2 9 3
f 2 10 9
f 3 5 4
f 3 9 11
f 3 11 12
f 3 12 5
f 5 12 13
f 5 13 14
f 5 14 23
f 5 23 29
f 5 29 35
f 5 35 37
f 5 37 36
f 5 36 30
f 5 30 24
f 5 24 15
f 5 15 7
f 5 7 6
f 7 15 16
f 7 16 8
f 9 10 17
f 9 17 18
f 9 18 19
f 9 19 20
f 9 20 27
f 9 27 34
f 9 34 28
f 9 28 22
f 9 22 13
f 9 13 11
f 11 13 12
f 13 21 14
f 13 22 21
f 14 21 22
f 14 22 23
f 15 24 16
f 16 24 25
f 19 26 27
f 19 27 20
f 22 28 29
f 22 29 23
f 24 30 31
f 24 31 32
f 24 32 25
f 25 32 31
f 26 33 37
f 26 37 35
f 26 35 28
f 26 28 34
f 26 34 27
f 28 35 29
f 30 36 31
f 31 36 37
f 31 37 33

