# https://github.com/mikedh/trimesh
v -0.05487180 0.10674220 0.23146121
v 0.04767041 0.10674220 0.23146121
v -0.05487180 0.10674220 0.31886765
v -0.05487180 0.23464811 0.23146121
v 0.04767041 0.10674220 0.31949678
v 0.04767041 0.23464811 0.23146121
v -0.04693221 0.10674220 0.31910035
v -0.05487180 0.10675472 0.31909174
v -0.05487180 0.23345858 0.23228857
v 0.04767041 0.23373404 0.23209897
v -0.05487180 0.14961541 0.28972930
v 0.04767041 0.23339596 0.23233166
v -0.05487180 0.23339596 0.23233166
v -0.05487180 0.20887911 0.24912865
f 1 2 5
f 1 5 7
f 1 7 3
f 1 3 8
f 1 8 11
f 1 11 14
f 1 14 13
f 1 13 9
f 1 9 4
f 1 4 6
f 1 6 2
f 2 6 10
f 2 10 12
f 2 12 5
f 3 7 8
f 4 9 10
f 4 10 6
f 5 11 8
f 5 8 7
f 5 12 13
f 5 13 14
f 5 14 11
f 9 13 12
f 9 12 10

