# https://github.com/mikedh/trimesh
v -0.06355575 -0.10752475 0.35822868
v -0.06355575 -0.10752475 0.23146430
v -0.06555983 -0.10752475 0.35682642
v -0.06355575 -0.19786295 0.35824111
v -0.06355575 -0.23465142 0.23146430
v -0.24314916 -0.10752475 0.23146430
v -0.06355575 -0.24499592 0.35824111
v -0.06355575 -0.25421822 0.34496281
v -0.06501485 -0.25447720 0.34497520
v -0.10502607 -0.25429016 0.31499353
v -0.17497540 -0.25420383 0.26500753
v -0.20498380 -0.25439087 0.24500321
v -0.21746534 -0.25354201 0.23146430
v -0.24314916 -0.24498153 0.23146430
v -0.16006787 -0.25004590 0.29007500
v -0.13063958 -0.25054944 0.31045163
v -0.07176543 -0.25126880 0.35121727
v -0.06355575 -0.25175798 0.35565990
v -0.18425743 -0.24499592 0.27303657
v -0.06355575 -0.25446281 0.34642714
v -0.09502327 -0.25447720 0.32498330
v -0.16497259 -0.25450596 0.27502212
v -0.13501690 -0.25444841 0.29501402
v -0.22852291 -0.25441962 0.23146430
v -0.22498941 -0.25429016 0.23146430
v -0.24147910 -0.25100982 0.23146430
v -0.23033363 -0.25030485 0.24025032
v -0.10121129 -0.25095230 0.33081582
v -0.20088775 -0.25075087 0.26063934
v -0.06422377 -0.25206012 0.35472918
v -0.06355575 -0.25201696 0.35523799
v -0.17144188 -0.25111055 0.28104079
v -0.14201359 -0.25141269 0.30141741
v -0.11260289 -0.25164288 0.32180643
v -0.08313945 -0.25181553 0.34219545
v -0.06355575 -0.25220400 0.35474160
v -0.07507040 -0.25295213 0.34531027
v -0.12503168 -0.25434771 0.30500379
v -0.22498941 -0.25424698 0.23501346
v -0.23798075 -0.25236225 0.23146430
v -0.24123299 -0.25131196 0.23146430
v -0.21227935 -0.25152779 0.25162995
v -0.18283348 -0.25171483 0.27203140
v -0.17486991 -0.25279385 0.27522066
v -0.10472722 -0.25264999 0.32507017
v -0.15498737 -0.25411749 0.28501186
v -0.21537337 -0.25311038 0.24551201
v -0.20452674 -0.25246295 0.25498056
f 1 2 6
f 1 6 3
f 1 3 4
f 1 4 7
f 1 7 18
f 1 18 31
f 1 31 36
f 1 36 20
f 1 20 8
f 1 8 5
f 1 5 2
f 2 5 13
f 2 13 25
f 2 25 24
f 2 24 40
f 2 40 41
f 2 41 26
f 2 26 14
f 2 14 6
f 3 6 14
f 3 14 19
f 3 19 7
f 3 7 4
f 5 8 9
f 5 9 10
f 5 10 11
f 5 11 12
f 5 12 13
f 7 15 16
f 7 16 17
f 7 17 18
f 7 19 15
f 8 20 9
f 9 20 21
f 9 21 22
f 9 22 23
f 9 23 10
f 10 23 12
f 10 12 11
f 12 24 25
f 12 25 13
f 12 23 22
f 12 22 24
f 14 26 27
f 14 27 15
f 14 15 19
f 15 27 16
f 16 28 17
f 16 27 29
f 16 29 28
f 17 30 31
f 17 31 18
f 17 28 32
f 17 32 33
f 17 33 34
f 17 34 35
f 17 35 30
f 20 36 37
f 20 37 21
f 21 38 24
f 21 24 22
f 21 37 38
f 24 38 39
f 24 39 40
f 26 41 27
f 27 41 29
f 28 29 32
f 29 41 32
f 30 35 37
f 30 37 36
f 30 36 31
f 32 41 42
f 32 42 33
f 33 42 34
f 34 42 43
f 34 43 44
f 34 44 45
f 34 45 37
f 34 37 35
f 37 45 44
f 37 44 46
f 37 46 38
f 38 46 39
f 39 47 40
f 39 46 47
f 40 47 44
f 40 44 48
f 40 48 42
f 40 42 41
f 42 48 44
f 42 44 43
f 44 47 46

