# https://github.com/mikedh/trimesh
v 0.22722712 0.10674219 0.23146121
v 0.16562304 0.10674219 0.27535197
v 0.20244601 0.06582257 0.27620614
v 0.20332938 0.06477389 0.27620614
v 0.21276760 0.05323837 0.27620614
v 0.21806788 0.04658972 0.27620614
v 0.22039255 0.04359049 0.27620614
v 0.22229880 0.03998302 0.27620614
v 0.22443751 0.03511713 0.27620614
v 0.22499543 0.03301976 0.27620614
v 0.22718063 0.02431569 0.27620614
v 0.22945881 0.01498242 0.27620614
v 0.23183000 0.00499895 0.27620614
v 0.22722712 -0.10752474 0.23146121
v -0.24310267 0.10674219 0.23146121
v 0.16441420 0.10674219 0.27620614
v 0.23183000 -0.00498451 0.27620614
v 0.22945881 -0.01498895 0.27620614
v 0.22718063 -0.02432222 0.27620614
v 0.22443751 -0.03510269 0.27620614
v 0.22155491 -0.04196107 0.27620614
v 0.22039255 -0.04357605 0.27620614
v 0.21895126 -0.04548465 0.27620614
v 0.21806788 -0.04659626 0.27620614
v 0.21276760 -0.05322393 0.27620614
v 0.20332938 -0.06478041 0.27620614
v 0.19951689 -0.06937365 0.27620614
v 0.22601828 -0.10752474 0.23233290
v -0.24314916 -0.10752474 0.23146121
v -0.24314916 -0.05498572 0.23146121
v -0.24300969 0.10674219 0.23153129
v -0.17973182 0.10674219 0.27620614
v 0.16436771 -0.10750377 0.27620614
v 0.21258160 -0.10752474 0.24182503
v -0.23552421 -0.10752474 0.23684461
v -0.23552421 0.10674219 0.23684461
v -0.24259123 0.10674219 0.23184229
v -0.18303287 0.10674219 0.27388895
v -0.17973182 -0.10752474 0.27620614
v 0.16232198 -0.10752474 0.27620614
v 0.16971448 -0.10752474 0.27209738
v -0.21343973 -0.10752474 0.25243416
v -0.21343973 0.10674219 0.25243416
v -0.19070432 -0.10752474 0.26847050
v -0.18926302 -0.10752474 0.26948673
v -0.20548931 0.10674219 0.25804535
f 1 2 3
f 1 3 4
f 1 4 5
f 1 5 6
f 1 6 7
f 1 7 8
f 1 8 9
f 1 9 10
f 1 10 11
f 1 11 12
f 1 12 13
f 1 13 17
f 1 17 14
f 1 14 29
f 1 29 30
f 1 30 15
f 1 15 31
f 1 31 37
f 1 37 36
f 1 36 43
f 1 43 46
f 1 46 38
f 1 38 32
f 1 32 16
f 1 16 2
f 2 16 3
f 3 16 32
f 3 32 39
f 3 39 40
f 3 40 33
f 3 33 27
f 3 27 26
f 3 26 25
f 3 25 24
f 3 24 23
f 3 23 22
f 3 22 21
f 3 21 20
f 3 20 19
f 3 19 18
f 3 18 17
f 3 17 13
f 3 13 12
f 3 12 11
f 3 11 10
f 3 10 9
f 3 9 8
f 3 8 7
f 3 7 6
f 3 6 5
f 3 5 4
f 14 17 18
f 14 18 19
f 14 19 20
f 14 20 21
f 14 21 22
f 14 22 23
f 14 23 24
f 14 24 25
f 14 25 26
f 14 26 27
f 14 27 28
f 14 28 34
f 14 34 41
f 14 41 40
f 14 40 39
f 14 39 45
f 14 45 44
f 14 44 42
f 14 42 35
f 14 35 29
f 15 30 31
f 27 33 28
f 28 33 34
f 29 35 36
f 29 36 30
f 30 36 37
f 30 37 31
f 32 38 39
f 33 40 41
f 33 41 34
f 35 42 43
f 35 43 36
f 38 44 45
f 38 45 39
f 38 46 42
f 38 42 44
f 42 46 43

