# https://github.com/mikedh/trimesh
v -0.19499242 0.25443861 0.25499851
v -0.20499973 0.25439525 0.24500178
v -0.22499590 0.25429404 0.23146120
v -0.22499590 0.25426513 0.23500185
v -0.21537562 0.25312299 0.24550894
v -0.20453899 0.25247240 0.25496981
v -0.19079047 0.25253022 0.26404789
v -0.18555644 0.25320971 0.26404789
v -0.17499626 0.25383139 0.26404789
v -0.05487180 0.23464647 0.23146120
v -0.23446873 0.25296396 0.23146120
v -0.24123242 0.25133026 0.23146120
v -0.23419228 0.25205314 0.23473710
v -0.21227944 0.25153267 0.25162053
v -0.19499242 0.25193748 0.26265076
v -0.19499242 0.24838096 0.26404789
v -0.16677663 0.25153267 0.26404789
v -0.05487180 0.23338868 0.23232882
v -0.05487180 0.10675664 0.23146120
v -0.24206175 0.24888697 0.23146120
v -0.23034050 0.25031826 0.24024901
v -0.20088992 0.25076643 0.26063803
v -0.19690910 0.24499795 0.26404789
v -0.05492709 0.18708175 0.26404789
v -0.05487180 0.19156353 0.26098251
v -0.05487180 0.19659469 0.25753757
v -0.05487180 0.21499892 0.24493159
v -0.05487180 0.22115776 0.24071153
v -0.05487180 0.22618891 0.23726340
v -0.05487180 0.11003846 0.26404789
v -0.05492709 0.10675664 0.26404789
v -0.24314910 0.10675664 0.23146120
v -0.24313067 0.24499795 0.23146120
v -0.24259621 0.24499795 0.23184398
v -0.23052479 0.24499795 0.24037342
v -0.21344051 0.24499795 0.25243074
v -0.20135066 0.24499795 0.26096019
v -0.19698283 0.23499346 0.26404789
v -0.05487180 0.18513000 0.26404789
v -0.05487180 0.19149125 0.26102719
v -0.19698283 0.10675664 0.26404789
v -0.23052479 0.10675664 0.24037342
v -0.24314910 0.22498895 0.23146120
f 1 2 3
f 1 3 4
f 1 4 5
f 1 5 6
f 1 6 7
f 1 7 8
f 1 8 9
f 1 9 2
f 2 9 10
f 2 10 3
f 3 11 4
f 3 10 19
f 3 19 32
f 3 32 43
f 3 43 33
f 3 33 20
f 3 20 12
f 3 12 11
f 4 11 12
f 4 12 13
f 4 13 5
f 5 13 6
f 6 14 15
f 6 15 7
f 6 13 12
f 6 12 14
f 7 15 16
f 7 16 23
f 7 23 38
f 7 38 41
f 7 41 31
f 7 31 30
f 7 30 39
f 7 39 24
f 7 24 17
f 7 17 9
f 7 9 8
f 9 17 10
f 10 17 18
f 10 18 29
f 10 29 28
f 10 28 27
f 10 27 26
f 10 26 25
f 10 25 40
f 10 40 39
f 10 39 30
f 10 30 19
f 12 20 21
f 12 21 22
f 12 22 14
f 14 22 15
f 15 22 16
f 16 22 23
f 17 24 25
f 17 25 26
f 17 26 27
f 17 27 28
f 17 28 29
f 17 29 18
f 19 30 31
f 19 31 41
f 19 41 42
f 19 42 32
f 20 33 21
f 21 33 34
f 21 34 35
f 21 35 36
f 21 36 37
f 21 37 23
f 21 23 22
f 23 37 38
f 24 39 40
f 24 40 25
f 32 42 35
f 32 35 43
f 33 43 34
f 34 43 35
f 35 42 41
f 35 41 38
f 35 38 36
f 36 38 37

