# https://github.com/mikedh/trimesh
v 0.04767041 0.10674220 0.28581768
v 0.04767041 0.10674220 0.35824105
v 0.04767041 0.15534106 0.28581768
v 0.04768359 0.10674220 0.26321444
v 0.12499087 0.10674220 0.31115562
v 0.04767041 0.24498861 0.35824105
v 0.04768359 0.18828993 0.26321444
v 0.04767041 0.25061506 0.33659589
v 0.18226969 0.10674220 0.26321444
v 0.13431993 0.10674220 0.30422583
v 0.18228287 0.24498861 0.26321444
v 0.13005070 0.25005099 0.30004933
v 0.10061411 0.25052828 0.32042947
v 0.07119070 0.25093329 0.34080958
v 0.05312553 0.25180113 0.35218561
v 0.04767041 0.24508986 0.35819453
v 0.13976188 0.25021008 0.26984659
v 0.14499301 0.25152630 0.26806065
v 0.15536301 0.25274128 0.26321444
v 0.04767041 0.25196022 0.33732143
v 0.05810630 0.25135273 0.32864290
v 0.12837727 0.25120810 0.27885997
v 0.18228287 0.19855933 0.26321444
v 0.18062261 0.24971831 0.26321444
v 0.17088509 0.25074524 0.27064654
v 0.14143531 0.25110686 0.29102665
v 0.11201189 0.25141060 0.31139746
v 0.08256213 0.25162756 0.33180550
v 0.07472204 0.25265449 0.33507040
v 0.04767041 0.25258219 0.35428780
v 0.11697949 0.25177220 0.28788266
v 0.12500405 0.25290039 0.28472936
v 0.15619314 0.25298718 0.26321444
v 0.04767041 0.25318965 0.34085611
v 0.05486485 0.25301608 0.33461463
v 0.08756924 0.25159863 0.30828139
v 0.17856705 0.25197470 0.26321444
v 0.15283310 0.25172880 0.28201327
v 0.14486124 0.25279912 0.28520375
v 0.11518747 0.25303054 0.30542576
v 0.04767041 0.25303054 0.35300416
v 0.14499301 0.25420213 0.27500904
v 0.15467782 0.25308841 0.26453528
v 0.16677397 0.25441909 0.26321444
v 0.04767041 0.25327644 0.34458610
v 0.06502403 0.25447696 0.33498669
v 0.07501192 0.25431785 0.32499662
v 0.17653786 0.25258219 0.26321444
v 0.17452183 0.25246647 0.26498178
v 0.12497770 0.25411534 0.29500780
v 0.09500086 0.25434679 0.31499726
v 0.10500193 0.25446248 0.30500716
v 0.13499194 0.25449142 0.28501773
v 0.16499513 0.25443357 0.26500037
f 1 2 6
f 1 6 16
f 1 16 30
f 1 30 41
f 1 41 45
f 1 45 34
f 1 34 20
f 1 20 8
f 1 8 3
f 1 3 7
f 1 7 4
f 1 4 9
f 1 9 10
f 1 10 5
f 1 5 2
f 2 5 6
f 3 8 7
f 4 7 19
f 4 19 33
f 4 33 44
f 4 44 48
f 4 48 37
f 4 37 24
f 4 24 11
f 4 11 23
f 4 23 9
f 5 10 11
f 5 11 12
f 5 12 6
f 6 12 13
f 6 13 14
f 6 14 15
f 6 15 16
f 7 17 18
f 7 18 19
f 7 8 20
f 7 20 21
f 7 21 22
f 7 22 17
f 9 23 10
f 10 23 11
f 11 24 25
f 11 25 12
f 12 25 13
f 13 25 14
f 14 25 26
f 14 26 27
f 14 27 28
f 14 28 15
f 15 28 29
f 15 29 30
f 15 30 16
f 17 22 18
f 18 22 19
f 19 22 31
f 19 31 32
f 19 32 33
f 20 34 35
f 20 35 32
f 20 32 36
f 20 36 21
f 21 36 22
f 22 36 31
f 24 37 25
f 25 37 38
f 25 38 26
f 26 38 27
f 27 38 28
f 28 38 29
f 29 38 39
f 29 39 40
f 29 40 41
f 29 41 30
f 31 36 32
f 32 35 42
f 32 42 43
f 32 43 33
f 33 43 44
f 34 45 46
f 34 46 47
f 34 47 35
f 35 47 42
f 37 48 49
f 37 49 38
f 38 49 39
f 39 50 40
f 39 49 48
f 39 48 50
f 40 50 41
f 41 50 51
f 41 51 46
f 41 46 45
f 42 47 52
f 42 52 53
f 42 53 44
f 42 44 43
f 44 53 54
f 44 54 48
f 46 51 54
f 46 54 53
f 46 53 52
f 46 52 47
f 48 54 50
f 50 54 51

