# https://github.com/mikedh/trimesh
v 0.04545738 0.10674219 0.35974267
v 0.04547942 0.00478922 0.37548229
v 0.04547942 0.03568342 0.36774373
v 0.04547942 0.03580926 0.36770624
v 0.04547942 0.04497476 0.36488086
v 0.04547942 0.05038596 0.36300561
v 0.04545738 0.10674219 0.27623144
v 0.00475760 0.10674219 0.40393609
v 0.04547942 -0.00483769 0.37548229
v 0.04547942 -0.05077001 0.36300561
v 0.04545738 -0.10752474 0.27623144
v -0.17973629 0.10674219 0.27623144
v -0.02070732 0.10674219 0.40393609
v 0.00475760 -0.10752474 0.40393609
v 0.04545738 -0.10752474 0.35974267
v 0.04547942 -0.03575287 0.36774373
v 0.04547942 -0.04443596 0.36519340
v -0.17973629 -0.10752474 0.27623144
v -0.02070732 -0.10752474 0.40393609
f 1 2 3
f 1 3 4
f 1 4 5
f 1 5 6
f 1 6 7
f 1 7 12
f 1 12 13
f 1 13 8
f 1 8 2
f 2 9 16
f 2 16 17
f 2 17 10
f 2 10 6
f 2 6 5
f 2 5 4
f 2 4 3
f 2 8 14
f 2 14 9
f 6 10 11
f 6 11 7
f 7 11 18
f 7 18 12
f 8 13 19
f 8 19 14
f 9 15 16
f 9 14 15
f 10 17 15
f 10 15 11
f 11 15 14
f 11 14 19
f 11 19 18
f 12 18 19
f 12 19 13
f 15 17 16

