# https://github.com/mikedh/trimesh
v 0.20852390 0.25462472 0.23146430
v 0.20499039 0.25420490 0.23146430
v 0.17499956 0.25440758 0.25499949
v 0.16677231 0.25442207 0.26321134
v 0.20499039 0.25455236 0.23500142
v 0.21944085 0.25309017 0.23146430
v 0.04768798 0.23464648 0.23146430
v 0.17652899 0.25258347 0.26321134
v 0.18535396 0.25311914 0.25549993
v 0.19498760 0.25424832 0.24500047
v 0.15618938 0.25298885 0.26321134
v 0.22309741 0.25180173 0.23219784
v 0.22341384 0.25197545 0.23146430
v 0.21502836 0.25294542 0.23531845
v 0.04768798 0.10674220 0.23146430
v 0.04768798 0.23338698 0.23232839
v 0.15536314 0.25274274 0.26321134
v 0.17856823 0.25197545 0.26321134
v 0.21170580 0.25126606 0.24121779
v 0.22722861 0.24499753 0.23146430
v 0.18227753 0.25152665 0.26160750
v 0.04768798 0.10674220 0.26321134
v 0.22726378 0.10674220 0.23146430
v 0.04768798 0.22804497 0.23599294
v 0.04768798 0.22109601 0.24075468
v 0.04768798 0.21045542 0.24804337
v 0.04768798 0.19649959 0.25760105
v 0.04768798 0.18830560 0.26321134
v 0.18062505 0.24971704 0.26321134
v 0.20033181 0.25029612 0.25023466
v 0.22466199 0.24499753 0.23329502
v 0.22724620 0.23499393 0.23146430
v 0.18227753 0.10674220 0.26321134
v 0.22726378 0.11020219 0.23146430
v 0.20550022 0.10674220 0.24682496
v 0.18227753 0.24499753 0.26321134
v 0.20550022 0.24499753 0.24682496
f 1 2 3
f 1 3 4
f 1 4 5
f 1 5 6
f 1 6 13
f 1 13 20
f 1 20 32
f 1 32 34
f 1 34 23
f 1 23 15
f 1 15 7
f 1 7 2
f 2 7 3
f 3 7 4
f 4 8 9
f 4 9 10
f 4 10 5
f 4 7 11
f 4 11 17
f 4 17 28
f 4 28 22
f 4 22 33
f 4 33 36
f 4 36 29
f 4 29 18
f 4 18 8
f 5 10 6
f 6 12 13
f 6 10 14
f 6 14 12
f 7 15 22
f 7 22 28
f 7 28 27
f 7 27 26
f 7 26 25
f 7 25 24
f 7 24 16
f 7 16 17
f 7 17 11
f 8 18 14
f 8 14 9
f 9 14 10
f 12 19 20
f 12 20 13
f 12 14 21
f 12 21 19
f 14 18 21
f 15 23 35
f 15 35 33
f 15 33 22
f 16 24 17
f 17 24 25
f 17 25 26
f 17 26 27
f 17 27 28
f 18 29 21
f 19 30 20
f 19 21 30
f 20 31 32
f 20 30 31
f 21 29 30
f 23 34 37
f 23 37 35
f 29 36 30
f 30 37 31
f 30 36 37
f 31 34 32
f 31 37 34
f 33 35 37
f 33 37 36

