# https://github.com/mikedh/trimesh
v -0.19697364 0.10675664 0.26405475
v -0.05492744 0.10675664 0.26405475
v -0.18839133 0.10675664 0.27011350
v -0.09760250 0.19855940 0.33422506
v -0.18427405 0.24498872 0.27303296
v -0.19697364 0.23499413 0.26405475
v -0.05488571 0.11003996 0.26405475
v -0.05488571 0.10675664 0.31146005
v -0.16423012 0.10675664 0.28717008
v -0.06420523 0.19855940 0.33422506
v -0.09760250 0.23499413 0.33422506
v -0.13593772 0.10675664 0.30713236
v -0.12980354 0.10675664 0.31146005
v -0.10679683 0.24498872 0.32772666
v -0.16007110 0.25006557 0.29005519
v -0.19690409 0.24498872 0.26405475
v -0.05488571 0.18512239 0.26405475
v -0.05488571 0.11789390 0.31146005
v -0.06420523 0.23499413 0.33422506
v -0.09756077 0.24498872 0.33422506
v -0.13062420 0.25055736 0.31044340
v -0.17144927 0.25112146 0.28103575
v -0.18284135 0.25172892 0.27202317
v -0.19499846 0.24838775 0.26405475
v -0.05491353 0.18707502 0.26405475
v -0.05488571 0.18506454 0.26542860
v -0.05488571 0.12009242 0.30995566
v -0.06423305 0.24498872 0.33422506
v -0.09501529 0.24915434 0.33422506
v -0.10119121 0.25094789 0.33083159
v -0.14201628 0.25141072 0.30141708
v -0.11258328 0.25164217 0.32181215
v -0.10473819 0.25265461 0.32508883
v -0.17487107 0.25281373 0.27521741
v -0.19078380 0.25252444 0.26405475
v -0.16677561 0.25152645 0.26405475
v -0.15838803 0.25120825 0.26887015
v -0.08812997 0.25133842 0.31865913
v -0.07675181 0.25181571 0.32770604
v -0.06501199 0.24624708 0.33422506
v -0.05488571 0.18499221 0.26549044
v -0.05488571 0.16691226 0.27788961
v -0.09109274 0.25259677 0.33422506
v -0.09501529 0.25209051 0.33297482
v -0.09501529 0.25447708 0.32499266
v -0.12500468 0.25436139 0.30499601
v -0.15498015 0.25412995 0.28500623
v -0.14520161 0.25304514 0.29542014
v -0.18569285 0.25323319 0.26574460
v -0.18553984 0.25321871 0.26405475
v -0.17498235 0.25382620 0.26405475
v -0.16585757 0.25193143 0.26532558
v -0.15502188 0.25288606 0.27474344
v -0.14698206 0.25177231 0.27789646
v -0.11757687 0.25158429 0.29828465
v -0.08488900 0.25300175 0.32462171
v -0.07344130 0.25320426 0.33422506
v -0.08573750 0.25323319 0.33422506
v -0.16499516 0.25450602 0.27501133
v -0.07524955 0.25327659 0.33422506
v -0.07406723 0.25327659 0.33422506
v -0.07405332 0.25327659 0.33403271
v -0.10501639 0.25431800 0.31499776
v -0.13499187 0.25444818 0.29500797
v -0.17498235 0.25420228 0.26500958
v -0.12538023 0.25256783 0.29498050
f 1 2 8
f 1 8 13
f 1 13 12
f 1 12 9
f 1 9 3
f 1 3 4
f 1 4 5
f 1 5 6
f 1 6 16
f 1 16 24
f 1 24 35
f 1 35 50
f 1 50 51
f 1 51 36
f 1 36 25
f 1 25 17
f 1 17 7
f 1 7 2
f 2 7 8
f 3 9 4
f 4 10 19
f 4 19 28
f 4 28 40
f 4 40 57
f 4 57 61
f 4 61 60
f 4 60 58
f 4 58 43
f 4 43 29
f 4 29 20
f 4 20 11
f 4 11 5
f 4 9 12
f 4 12 13
f 4 13 8
f 4 8 10
f 5 11 14
f 5 14 15
f 5 15 16
f 5 16 6
f 7 17 26
f 7 26 41
f 7 41 42
f 7 42 27
f 7 27 18
f 7 18 8
f 8 18 19
f 8 19 10
f 11 20 14
f 14 20 15
f 15 21 22
f 15 22 16
f 15 20 21
f 16 22 23
f 16 23 24
f 17 25 26
f 18 27 28
f 18 28 19
f 20 29 30
f 20 30 21
f 21 30 22
f 22 30 31
f 22 31 23
f 23 31 32
f 23 32 33
f 23 33 34
f 23 34 35
f 23 35 24
f 25 36 37
f 25 37 38
f 25 38 39
f 25 39 40
f 25 40 28
f 25 28 26
f 26 28 41
f 27 42 28
f 28 42 41
f 29 43 44
f 29 44 30
f 30 44 32
f 30 32 31
f 32 44 33
f 33 43 45
f 33 45 46
f 33 46 47
f 33 47 48
f 33 48 34
f 33 44 43
f 34 48 47
f 34 47 49
f 34 49 35
f 35 49 50
f 36 51 52
f 36 52 37
f 37 52 53
f 37 53 54
f 37 54 55
f 37 55 38
f 38 55 39
f 39 55 56
f 39 56 57
f 39 57 40
f 43 58 45
f 45 59 46
f 45 58 60
f 45 60 61
f 45 61 62
f 45 62 63
f 45 63 64
f 45 64 59
f 46 59 47
f 47 59 49
f 49 59 65
f 49 65 50
f 50 65 51
f 51 65 53
f 51 53 52
f 53 65 56
f 53 56 66
f 53 66 54
f 54 66 55
f 55 66 56
f 56 65 63
f 56 63 62
f 56 62 57
f 57 62 61
f 59 64 65
f 63 65 64

