# https://github.com/mikedh/trimesh
v -0.24498539 -0.25550002 -0.48494071
v -0.25498933 -0.25484979 -0.49496788
v -0.24498539 -0.25545001 -0.49496788
v 0.23495236 -0.25550002 -0.48494071
v -0.24498539 -0.25550002 -0.33496594
v -0.26169193 -0.25209868 -0.49496788
v -0.26114172 -0.25139844 -0.50138819
v -0.25498933 -0.25239885 -0.50239813
v -0.25498933 -0.25484979 0.20498659
v -0.24498539 -0.25274897 -0.50268668
v 0.23495236 -0.25545001 -0.49496788
v 0.24345569 -0.25274897 -0.49496788
v 0.23495236 -0.25550002 -0.33496594
v -0.24498539 -0.25545001 0.21494164
v -0.26344264 -0.24499592 -0.49496788
v -0.26169193 -0.25209868 0.20498659
v -0.26169193 -0.24499592 -0.50210959
v -0.25498933 -0.24499592 -0.50485080
v -0.24498539 -0.24499592 -0.50542790
v -0.25583965 -0.25299907 0.21580730
v -0.26114172 -0.25139844 0.21299390
v 0.23495236 -0.25274897 -0.50268668
v 0.24230523 -0.25179857 -0.50182098
v 0.24705710 -0.24499592 -0.49496788
v 0.24720715 -0.24499592 -0.48494071
v 0.24345569 -0.25274897 0.20498659
v 0.23495236 -0.25545001 0.20498659
v 0.22499846 -0.25545001 0.21494164
v -0.22852895 -0.25439960 0.23138909
v -0.24503541 -0.25294906 0.22525735
v -0.26344264 0.24499589 -0.49496788
v -0.26344264 -0.24499592 0.20498659
v -0.26169193 0.24499589 -0.50210959
v -0.25498933 0.24499589 -0.50485080
v 0.23495236 -0.24499592 -0.50542790
v -0.24498539 0.24499589 -0.50542790
v -0.25308856 -0.25179857 0.22215544
v -0.26169193 -0.24499592 0.21450882
v -0.25969112 -0.24499592 0.21948631
v 0.24345569 -0.24499592 -0.50268668
v 0.24720715 -0.23499201 -0.49496788
v 0.24755730 -0.23499201 -0.48494071
v 0.24720715 -0.24499592 0.20498659
v 0.24250533 -0.25204867 0.21494164
v 0.23495236 -0.25479978 0.21494164
v 0.21499455 -0.25474977 0.22496881
v 0.20499064 -0.25419950 0.23138909
v -0.23793264 -0.25234878 0.23138909
v -0.24173412 -0.25124836 0.23117267
v -0.26169193 0.25209868 -0.49496788
v -0.26114172 0.25139838 -0.50138819
v -0.26344264 0.24499589 0.20498659
v -0.25498933 0.25239879 -0.50239813
v 0.23495236 0.24499589 -0.50542790
v -0.24498539 0.25274891 -0.50268668
v -0.26169193 0.24499589 0.21450882
v -0.25468919 -0.24499592 0.22330965
v -0.25969112 0.24499589 0.21948631
v 0.24345569 0.24499589 -0.50268668
v 0.24720715 0.23499198 -0.49496788
v 0.24755730 0.23499198 -0.48494071
v 0.24755730 -0.23499201 0.20498659
v 0.24520637 -0.24499592 0.21494164
v 0.24105474 -0.25089824 0.22078480
v 0.23495236 -0.25204867 0.22294895
v 0.22339784 -0.25194865 0.23138909
v 0.22584879 -0.25324917 0.22583447
v 0.21499455 -0.25359929 0.23138909
v -0.24123393 -0.25129837 0.23138909
v -0.24143401 -0.25099826 0.23138909
v -0.24203424 -0.24889745 0.23138909
v -0.24313466 -0.24499592 0.23138909
v -0.24758641 -0.24499592 0.22828715
v -0.25498933 0.25484973 -0.49496788
v -0.26169193 0.25209868 0.20498659
v -0.26114172 0.25139838 0.21299390
v -0.24498539 0.25545001 -0.49496788
v 0.23495236 0.25274891 -0.50268668
v 0.24230523 0.25179857 -0.50182098
v -0.25468919 0.24499589 0.22330965
v -0.24173412 0.25124836 0.23117267
v -0.25308856 0.25179857 0.22215544
v 0.24705710 0.24499589 -0.49496788
v 0.24720715 0.24499589 -0.48494071
v 0.24755730 0.23499198 0.20498659
v 0.24535643 -0.23499201 0.21494164
v 0.24155495 -0.24499592 0.22121765
v 0.23495236 -0.24499592 0.22590660
v 0.22965029 -0.24499592 0.22965778
v 0.22719933 -0.24499592 0.23138909
v 0.22504848 -0.24974778 0.23138909
v -0.24313466 0.24499589 0.23138909
v -0.24758641 0.24499589 0.22828715
v -0.25498933 0.25484973 0.20498659
v -0.24498539 0.25550002 0.04498462
v -0.25583965 0.25299901 0.21580730
v 0.23495236 0.25545001 -0.49496788
v 0.24345569 0.25274891 -0.49496788
v -0.24203424 0.24889742 0.23138909
v -0.24123393 0.25129837 0.23138909
v -0.24503541 0.25294900 0.22525735
v 0.24720715 0.24499589 0.20498659
v 0.24520637 0.24499589 0.21494164
v 0.24535643 0.23499198 0.21494164
v 0.24155495 0.24499589 0.22121765
v 0.23495236 -0.23499201 0.22597875
v 0.22965029 -0.23499201 0.22972991
v 0.22724934 -0.23979390 0.23138909
v -0.24498539 0.25545001 0.21494164
v -0.24498539 0.25550002 0.20498659
v 0.23495236 0.25550002 0.04498462
v 0.24345569 0.25274891 0.20498659
v -0.23443127 0.25294900 0.23138909
v -0.23498148 0.25474972 0.22496881
v 0.24250533 0.25204867 0.21494164
v 0.24105474 0.25089818 0.22078480
v 0.23495236 0.24499589 0.22590660
v 0.23495236 0.23499198 0.22597875
v 0.22965029 0.23499198 0.22972991
v 0.22724934 0.23499198 0.23138909
v 0.20849201 0.25459963 0.23138909
v 0.22499846 0.25550002 0.21494164
v 0.23495236 0.25550002 0.20498659
v 0.23495236 0.25479972 0.21494164
v -0.22497757 0.25429952 0.23138909
v 0.23495236 0.25204867 0.22294895
v 0.22339784 0.25194860 0.23138909
v 0.22719933 0.24499589 0.23138909
v 0.22965029 0.24499589 0.22965778
v 0.21944629 0.25304908 0.23138909
f 1 2 3
f 1 3 11
f 1 11 4
f 1 4 13
f 1 13 5
f 1 5 9
f 1 9 2
f 2 6 7
f 2 7 8
f 2 8 3
f 2 9 16
f 2 16 6
f 3 8 10
f 3 10 22
f 3 22 11
f 4 11 12
f 4 12 26
f 4 26 13
f 5 13 28
f 5 28 14
f 5 14 9
f 6 15 7
f 6 16 32
f 6 32 15
f 7 17 18
f 7 18 8
f 7 15 17
f 8 18 19
f 8 19 10
f 9 14 20
f 9 20 21
f 9 21 16
f 10 19 35
f 10 35 22
f 11 23 12
f 11 22 23
f 12 23 24
f 12 24 25
f 12 25 43
f 12 43 26
f 13 26 27
f 13 27 28
f 14 28 29
f 14 29 30
f 14 30 20
f 15 31 33
f 15 33 17
f 15 32 52
f 15 52 31
f 16 21 32
f 17 33 34
f 17 34 18
f 18 34 36
f 18 36 19
f 19 36 54
f 19 54 35
f 20 30 37
f 20 37 21
f 21 38 32
f 21 37 39
f 21 39 38
f 22 35 23
f 23 35 40
f 23 40 24
f 24 40 41
f 24 41 42
f 24 42 25
f 25 42 62
f 25 62 43
f 26 43 44
f 26 44 45
f 26 45 27
f 27 45 28
f 28 45 46
f 28 46 29
f 29 47 68
f 29 68 66
f 29 66 91
f 29 91 90
f 29 90 108
f 29 108 120
f 29 120 128
f 29 128 127
f 29 127 130
f 29 130 121
f 29 121 125
f 29 125 113
f 29 113 100
f 29 100 99
f 29 99 92
f 29 92 72
f 29 72 71
f 29 71 70
f 29 70 69
f 29 69 48
f 29 48 30
f 29 46 47
f 30 48 49
f 30 49 37
f 31 50 51
f 31 51 33
f 31 52 75
f 31 75 50
f 32 38 56
f 32 56 52
f 33 51 34
f 34 51 53
f 34 53 36
f 35 54 59
f 35 59 40
f 36 53 55
f 36 55 78
f 36 78 54
f 37 49 39
f 38 39 58
f 38 58 56
f 39 49 57
f 39 57 80
f 39 80 58
f 40 59 60
f 40 60 41
f 41 60 61
f 41 61 42
f 42 61 85
f 42 85 62
f 43 62 63
f 43 63 44
f 44 63 64
f 44 64 45
f 45 64 65
f 45 65 66
f 45 66 67
f 45 67 68
f 45 68 46
f 46 68 47
f 48 69 49
f 49 69 70
f 49 70 71
f 49 71 72
f 49 72 73
f 49 73 57
f 50 74 51
f 50 75 94
f 50 94 74
f 51 74 53
f 52 56 76
f 52 76 75
f 53 74 77
f 53 77 55
f 54 78 79
f 54 79 59
f 55 77 97
f 55 97 78
f 56 58 76
f 57 73 93
f 57 93 80
f 58 80 81
f 58 81 82
f 58 82 76
f 59 79 83
f 59 83 60
f 60 83 61
f 61 83 84
f 61 84 102
f 61 102 85
f 62 85 104
f 62 104 86
f 62 86 63
f 63 86 87
f 63 87 64
f 64 87 88
f 64 88 89
f 64 89 90
f 64 90 91
f 64 91 66
f 64 66 65
f 66 68 67
f 72 92 93
f 72 93 73
f 74 94 110
f 74 110 95
f 74 95 77
f 75 76 94
f 76 82 96
f 76 96 94
f 77 95 111
f 77 111 97
f 78 97 79
f 79 97 98
f 79 98 83
f 80 93 81
f 81 93 92
f 81 92 99
f 81 99 100
f 81 100 101
f 81 101 82
f 82 101 96
f 83 98 84
f 84 98 112
f 84 112 102
f 85 102 103
f 85 103 104
f 86 104 105
f 86 105 87
f 87 105 118
f 87 118 106
f 87 106 88
f 88 106 107
f 88 107 89
f 89 107 90
f 90 107 108
f 94 96 109
f 94 109 110
f 95 110 122
f 95 122 123
f 95 123 111
f 96 101 109
f 97 111 98
f 98 111 123
f 98 123 112
f 100 113 101
f 101 114 109
f 101 113 114
f 102 112 115
f 102 115 103
f 103 115 116
f 103 116 105
f 103 105 104
f 105 116 117
f 105 117 118
f 106 118 119
f 106 119 107
f 107 119 120
f 107 120 108
f 109 114 121
f 109 121 122
f 109 122 110
f 112 123 124
f 112 124 115
f 113 125 114
f 114 125 121
f 115 124 116
f 116 126 127
f 116 127 128
f 116 128 129
f 116 129 117
f 116 124 126
f 117 129 119
f 117 119 118
f 119 129 128
f 119 128 120
f 121 130 124
f 121 124 122
f 122 124 123
f 124 130 126
f 126 130 127

