# https://github.com/mikedh/trimesh
v 0.00501908 0.46539348 0.39152396
v 0.00501908 0.46451607 0.39500043
v 0.02501625 0.46454349 0.39152396
v -0.00499365 0.46539348 0.39152396
v 0.00501908 0.46162340 0.40235376
v 0.02501625 0.46119839 0.40181237
v 0.03500070 0.46096534 0.40149918
v 0.02501625 0.46366608 0.39500043
v -0.00499365 0.46451607 0.39500043
v 0.03500070 0.46409109 0.39152396
v -0.02499083 0.46454349 0.39152396
v 0.00501908 0.45729122 0.40735143
v 0.01500352 0.45708558 0.40708745
v -0.00499365 0.46162340 0.40235376
v 0.02501625 0.45686623 0.40681005
v 0.03500070 0.46321368 0.39500043
v 0.03500070 0.45663318 0.40649685
v 0.04501343 0.46052665 0.40084147
v -0.02499083 0.46366608 0.39500043
v -0.03497528 0.46096534 0.40149918
v -0.02499083 0.46119839 0.40181237
v 0.03847970 0.46378949 0.39152396
v -0.03497528 0.46409109 0.39152396
v 0.00501908 0.45228729 0.41169363
v 0.01500352 0.45208165 0.41156834
v 0.02501625 0.45187601 0.41143638
v 0.03500070 0.45162922 0.41127083
v -0.00499365 0.45729122 0.40735143
v -0.01497810 0.45708558 0.40708745
v 0.04501343 0.46233630 0.39500043
v 0.04501343 0.45117682 0.41093749
v 0.04501343 0.45616704 0.40583915
v 0.05115118 0.46014279 0.40023971
v 0.07499506 0.45352113 0.40430450
v -0.03497528 0.46321368 0.39500043
v -0.04498801 0.46052665 0.40084147
v -0.03497528 0.45663318 0.40649685
v -0.02499083 0.45686623 0.40681005
v 0.04501343 0.46321368 0.39152396
v -0.04498801 0.46321368 0.39152396
v 0.00501908 0.44499388 0.41388151
v 0.01500352 0.44499388 0.41375625
v 0.02501625 0.44499388 0.41362426
v 0.03500070 0.44499388 0.41345870
v -0.00499365 0.45228729 0.41169363
v 0.04501343 0.44499388 0.41312537
v 0.07499506 0.44406164 0.41218802
v 0.08497950 0.44319794 0.41203815
v -0.03497528 0.45162922 0.41127083
v -0.02499083 0.45187601 0.41143638
v -0.01497810 0.45208165 0.41156834
v 0.04849243 0.46277499 0.39152396
v 0.05779805 0.45967665 0.39888850
v 0.05468675 0.46100646 0.39533374
v 0.06501061 0.46066374 0.39152396
v 0.05502616 0.45053250 0.41044086
v 0.06113562 0.45013490 0.41012096
v 0.06781077 0.44961396 0.40975407
v 0.07499506 0.44906557 0.40930441
v 0.08497950 0.45267114 0.40344098
v 0.09499223 0.45160180 0.40225309
v -0.04498801 0.46233630 0.39500043
v -0.05109747 0.46014279 0.40023971
v -0.07414939 0.45352113 0.40443203
v -0.04498801 0.45616704 0.40583915
v -0.04498801 0.45117682 0.41093749
v -0.05477446 0.46196613 0.39152396
v 0.07499506 0.43499970 0.41437590
v -0.00499365 0.44499388 0.41388151
v 0.08497950 0.43499970 0.41422603
v -0.03497528 0.44499388 0.41345870
v -0.02499083 0.44499388 0.41362426
v -0.01497810 0.44499388 0.41375625
v 0.09499223 0.43499970 0.41376296
v 0.10497668 0.43499970 0.41304931
v 0.12497385 0.43340942 0.41202027
v 0.09499223 0.44216973 0.41157284
v -0.07414939 0.44419873 0.41215897
v -0.04498801 0.44499388 0.41312537
v 0.06501061 0.45919684 0.39706972
v 0.07010183 0.45999199 0.39152396
v 0.10327961 0.45071071 0.40106520
v 0.08497950 0.45663318 0.39500043
v 0.08497950 0.44820189 0.40844089
v 0.09499223 0.44717368 0.40725076
v -0.06498519 0.46066374 0.39152396
v -0.05466133 0.46100646 0.39533374
v -0.05777262 0.45967665 0.39888850
v -0.07414939 0.45401466 0.40368706
v -0.07414939 0.44913411 0.40935588
v -0.06778535 0.44961396 0.40975407
v -0.06111020 0.45013490 0.41012096
v -0.05497245 0.45053250 0.41044086
v -0.07414939 0.44471970 0.41190168
v -0.07414939 0.43499970 0.41437590
v 0.11498941 0.42499185 0.41437590
v 0.12497385 0.42499185 0.41421038
v 0.13498658 0.42499185 0.41357279
v 0.15498376 0.42362091 0.41200012
v 0.13498658 0.43194252 0.41138491
v 0.10497668 0.44110042 0.41085920
v -0.07414939 0.43587711 0.41416562
v 0.07457078 0.45862103 0.39432481
v 0.07612643 0.45914200 0.39152396
v 0.10596664 0.44687206 0.40463784
v 0.11484799 0.44370520 0.40574744
v 0.10995476 0.44998410 0.39997348
v 0.09499223 0.45449451 0.39500043
v 0.08514921 0.45749685 0.39152396
v 0.11142555 0.44037381 0.41030663
v -0.06498519 0.45919684 0.39706972
v -0.06713481 0.46037585 0.39152396
v -0.07414939 0.45864844 0.39445233
v -0.07414939 0.41499770 0.41437590
v 0.14499933 0.41499770 0.41437590
v 0.17498094 0.40498981 0.41437367
v 0.15498376 0.41499770 0.41419023
v 0.16499649 0.41499770 0.41336697
v 0.18499367 0.41259855 0.41164219
v 0.16499649 0.42170158 0.41117910
v 0.14256684 0.43077722 0.41060865
v 0.11810070 0.43940043 0.40957734
v 0.12497385 0.44296488 0.40366021
v 0.11498941 0.44933975 0.39763796
v 0.11926037 0.44992927 0.39152396
v 0.11498941 0.45066959 0.39263806
v 0.11498941 0.45095748 0.39152396
v 0.10961534 0.45219132 0.39152396
v 0.10557065 0.45310986 0.39152396
v 0.10596664 0.45187601 0.39598474
v 0.13498658 0.44145685 0.40201148
v 0.14152032 0.44045606 0.40071395
v 0.09847123 0.45464531 0.39152396
v -0.07414939 0.45871699 0.39421967
v -0.07191490 0.45973149 0.39152396
v -0.07414939 0.40494868 0.41222829
v 0.21480559 0.35500529 0.41374281
v 0.20499085 0.36501315 0.41436473
v 0.21480559 0.36501315 0.41437590
v 0.19497812 0.39500937 0.41437590
v 0.18499367 0.40498981 0.41383007
v 0.19203652 0.41102195 0.41073391
v 0.17116252 0.42046773 0.41036257
v 0.20499085 0.40272775 0.41163099
v 0.14921370 0.42969418 0.40980330
v 0.12497385 0.43839964 0.40866014
v 0.13498658 0.43694645 0.40700915
v 0.12409703 0.44779059 0.39412796
v 0.14819548 0.43940043 0.39790642
v 0.12149485 0.44928491 0.39152396
v 0.15498376 0.43323120 0.40386602
v 0.16499649 0.43136671 0.40179226
v 0.17059684 0.43024254 0.40037170
v -0.07414939 0.45942989 0.39152396
v -0.07414939 0.40441403 0.41209409
v 0.21480559 0.34779415 0.41155717
v 0.21480559 0.38500148 0.41437590
v 0.20499085 0.39500937 0.41382110
v 0.18499367 0.41760248 0.40790400
v 0.17780939 0.41909680 0.40929547
v 0.21197712 0.40100038 0.41071603
v 0.19871168 0.40930828 0.40949458
v 0.15498376 0.42862484 0.40886596
v 0.21480559 0.39554402 0.41224173
v 0.21480559 0.39622951 0.41200012
v 0.13498658 0.44425356 0.39500043
v 0.15455949 0.43808433 0.39474314
v 0.15082593 0.44027784 0.39152396
v 0.14491446 0.44127864 0.39474314
v 0.13846558 0.44410276 0.39152396
v 0.16499649 0.42670554 0.40678993
v 0.18499367 0.42233223 0.40290633
v 0.17758311 0.42902240 0.39500043
v 0.17257676 0.43103769 0.39500043
v 0.16499649 0.43408120 0.39500043
v 0.19183853 0.42089275 0.40124416
v 0.18499367 0.42603377 0.39500043
v -0.07414939 0.38500148 0.39152396
v 0.20555654 0.32557118 0.39152396
v 0.21480559 0.32533813 0.39152396
v 0.20499085 0.40773168 0.40802926
v 0.19526096 0.41512108 0.40536937
v 0.21480559 0.40456483 0.40603602
v 0.15580401 0.43852302 0.39152396
v 0.15122192 0.44014075 0.39152396
v 0.14494275 0.44211489 0.39152396
v 0.18502195 0.42697972 0.39152396
v 0.17373642 0.43151754 0.39152396
v 0.16468537 0.43515053 0.39152396
v 0.19509125 0.42172900 0.39440086
v 0.20499085 0.41258484 0.40302935
v 0.21177913 0.41089857 0.40121284
v 0.19848540 0.41920647 0.39733371
v 0.18847266 0.42545795 0.39152396
v 0.21480559 0.41266710 0.39152396
v 0.21480559 0.40519544 0.40544990
v 0.21480559 0.40579867 0.40483916
v 0.19506297 0.42252415 0.39152396
v 0.20012590 0.42005646 0.39152396
v 0.19718431 0.42149594 0.39152396
v 0.21480559 0.41166630 0.39489752
v 0.21480559 0.41187194 0.39434272
v 0.20125729 0.41949436 0.39152396
f 1 2 8
f 1 8 3
f 1 3 10
f 1 10 22
f 1 22 39
f 1 39 52
f 1 52 55
f 1 55 81
f 1 81 104
f 1 104 109
f 1 109 133
f 1 133 129
f 1 129 128
f 1 128 127
f 1 127 125
f 1 125 150
f 1 150 170
f 1 170 186
f 1 186 168
f 1 168 185
f 1 185 184
f 1 184 189
f 1 189 188
f 1 188 187
f 1 187 194
f 1 194 198
f 1 198 200
f 1 200 199
f 1 199 203
f 1 203 195
f 1 195 180
f 1 180 179
f 1 179 178
f 1 178 154
f 1 154 135
f 1 135 112
f 1 112 86
f 1 86 67
f 1 67 40
f 1 40 23
f 1 23 11
f 1 11 4
f 1 4 9
f 1 9 2
f 2 5 6
f 2 6 7
f 2 7 8
f 2 9 14
f 2 14 5
f 3 8 16
f 3 16 10
f 4 11 19
f 4 19 9
f 5 12 13
f 5 13 6
f 5 14 28
f 5 28 12
f 6 15 17
f 6 17 7
f 6 13 15
f 7 16 8
f 7 17 18
f 7 18 16
f 9 19 20
f 9 20 21
f 9 21 14
f 10 16 22
f 11 23 35
f 11 35 19
f 12 24 25
f 12 25 26
f 12 26 27
f 12 27 13
f 12 28 45
f 12 45 24
f 13 27 15
f 14 21 29
f 14 29 28
f 15 27 17
f 16 18 30
f 16 30 22
f 17 27 31
f 17 31 32
f 17 32 18
f 18 33 30
f 18 32 34
f 18 34 33
f 19 35 20
f 20 35 36
f 20 36 37
f 20 37 38
f 20 38 21
f 21 38 29
f 22 30 39
f 23 40 62
f 23 62 35
f 24 41 42
f 24 42 43
f 24 43 44
f 24 44 25
f 24 45 69
f 24 69 41
f 25 44 26
f 26 44 27
f 27 44 46
f 27 46 47
f 27 47 48
f 27 48 31
f 28 29 49
f 28 49 50
f 28 50 51
f 28 51 45
f 29 38 49
f 30 52 39
f 30 33 53
f 30 53 54
f 30 54 55
f 30 55 52
f 31 56 32
f 31 48 56
f 32 56 57
f 32 57 58
f 32 58 59
f 32 59 34
f 33 34 60
f 33 60 61
f 33 61 53
f 34 59 60
f 35 62 36
f 36 62 63
f 36 63 64
f 36 64 65
f 36 65 37
f 37 65 66
f 37 66 49
f 37 49 38
f 40 67 62
f 41 68 42
f 41 69 95
f 41 95 68
f 42 68 43
f 43 68 70
f 43 70 44
f 44 70 46
f 45 51 71
f 45 71 72
f 45 72 73
f 45 73 69
f 46 70 48
f 46 48 47
f 48 70 74
f 48 74 75
f 48 75 76
f 48 76 77
f 48 77 59
f 48 59 58
f 48 58 57
f 48 57 56
f 49 66 78
f 49 78 79
f 49 79 71
f 49 71 50
f 50 71 51
f 53 80 81
f 53 81 55
f 53 55 54
f 53 61 82
f 53 82 83
f 53 83 80
f 59 77 84
f 59 84 60
f 60 84 85
f 60 85 61
f 61 85 82
f 62 67 86
f 62 86 87
f 62 87 88
f 62 88 63
f 63 88 89
f 63 89 64
f 64 89 113
f 64 113 134
f 64 134 154
f 64 154 178
f 64 178 155
f 64 155 136
f 64 136 114
f 64 114 95
f 64 95 102
f 64 102 78
f 64 78 94
f 64 94 90
f 64 90 65
f 65 90 91
f 65 91 92
f 65 92 93
f 65 93 66
f 66 93 94
f 66 94 78
f 68 95 114
f 68 114 139
f 68 139 157
f 68 157 140
f 68 140 115
f 68 115 96
f 68 96 70
f 69 73 95
f 70 96 97
f 70 97 74
f 71 79 95
f 71 95 72
f 72 95 73
f 74 97 98
f 74 98 75
f 75 98 76
f 76 98 99
f 76 99 100
f 76 100 101
f 76 101 77
f 77 101 84
f 78 102 79
f 79 102 95
f 80 103 81
f 80 83 103
f 81 103 104
f 82 85 105
f 82 105 106
f 82 106 107
f 82 107 83
f 83 107 108
f 83 108 109
f 83 109 104
f 83 104 103
f 84 101 110
f 84 110 85
f 85 110 106
f 85 106 105
f 86 111 88
f 86 88 87
f 86 112 111
f 88 111 89
f 89 111 113
f 90 94 91
f 91 94 92
f 92 94 93
f 96 115 97
f 97 115 116
f 97 116 117
f 97 117 98
f 98 117 118
f 98 118 99
f 99 118 119
f 99 119 120
f 99 120 100
f 100 120 121
f 100 121 110
f 100 110 101
f 106 110 122
f 106 122 123
f 106 123 107
f 107 124 125
f 107 125 126
f 107 126 127
f 107 127 128
f 107 128 129
f 107 129 130
f 107 130 108
f 107 123 131
f 107 131 132
f 107 132 124
f 108 133 109
f 108 130 133
f 110 121 122
f 111 112 134
f 111 134 113
f 112 135 134
f 114 136 137
f 114 137 138
f 114 138 139
f 115 140 116
f 116 140 141
f 116 141 117
f 117 141 118
f 118 141 119
f 119 142 143
f 119 143 120
f 119 141 144
f 119 144 142
f 120 143 145
f 120 145 121
f 121 145 146
f 121 146 122
f 122 146 123
f 123 146 147
f 123 147 131
f 124 148 125
f 124 132 149
f 124 149 148
f 125 148 150
f 125 127 126
f 129 133 130
f 131 147 151
f 131 151 132
f 132 151 152
f 132 152 153
f 132 153 149
f 134 135 154
f 136 155 137
f 137 156 180
f 137 180 195
f 137 195 202
f 137 202 201
f 137 201 197
f 137 197 196
f 137 196 183
f 137 183 165
f 137 165 164
f 137 164 157
f 137 157 139
f 137 139 138
f 137 155 156
f 140 157 158
f 140 158 141
f 141 158 144
f 142 159 160
f 142 160 143
f 142 144 161
f 142 161 162
f 142 162 159
f 143 160 163
f 143 163 145
f 144 158 164
f 144 164 165
f 144 165 161
f 145 163 151
f 145 151 147
f 145 147 146
f 148 149 166
f 148 166 150
f 149 167 168
f 149 168 169
f 149 169 166
f 149 153 167
f 150 166 170
f 151 163 152
f 152 171 172
f 152 172 153
f 152 163 171
f 153 173 174
f 153 174 175
f 153 175 167
f 153 172 176
f 153 176 177
f 153 177 173
f 155 178 179
f 155 179 156
f 156 179 180
f 157 164 158
f 159 162 181
f 159 181 182
f 159 182 176
f 159 176 172
f 159 172 171
f 159 171 160
f 160 171 163
f 161 181 162
f 161 165 183
f 161 183 181
f 166 169 170
f 167 184 185
f 167 185 168
f 167 175 184
f 168 186 169
f 169 186 170
f 173 177 187
f 173 187 174
f 174 187 188
f 174 188 175
f 175 188 189
f 175 189 184
f 176 190 177
f 176 182 181
f 176 181 191
f 176 191 192
f 176 192 193
f 176 193 190
f 177 190 194
f 177 194 187
f 181 183 196
f 181 196 197
f 181 197 192
f 181 192 191
f 190 198 194
f 190 193 199
f 190 199 200
f 190 200 198
f 192 197 201
f 192 201 202
f 192 202 193
f 193 202 203
f 193 203 199
f 195 203 202

