# https://github.com/mikedh/trimesh
v -0.38510120 -0.06477090 0.39152396
v -0.40608060 -0.06477090 0.41218802
v -0.37767425 -0.07766647 0.39152396
v -0.46085149 -0.06477090 0.39152396
v -0.39959607 -0.07761645 0.41051915
v -0.41499966 -0.06477090 0.41437590
v -0.38500023 -0.15499987 0.41380993
v -0.37490317 -0.16696504 0.41212988
v -0.37318668 -0.16696504 0.41137373
v -0.34627241 -0.16625473 0.39152396
v -0.46082905 -0.06500100 0.39152396
v -0.46082905 -0.06477090 0.39162239
v -0.38500023 -0.16499418 0.41437590
v -0.43499184 -0.06477090 0.41437590
v -0.38500023 -0.16696504 0.41437590
v -0.34625000 -0.16696504 0.39152396
v -0.45737362 -0.08514971 0.39152396
v -0.45650977 -0.08500964 0.39500043
v -0.46060467 -0.06500100 0.39239198
v -0.46057102 -0.06477090 0.39264253
v -0.46061590 -0.06477090 0.39246804
v -0.44573957 -0.06477090 0.41188380
v -0.43499184 -0.07500532 0.41437590
v -0.39500752 -0.16696504 0.41437590
v -0.43430746 -0.16696504 0.39152396
v -0.45677900 -0.08848114 0.39152396
v -0.45560104 -0.09500396 0.39152396
v -0.45470351 -0.09500396 0.39500043
v -0.45930329 -0.06477090 0.39746347
v -0.44589663 -0.06477090 0.41181892
v -0.44396698 -0.07500532 0.41218802
v -0.43499184 -0.08500964 0.41425288
v -0.42499575 -0.11500259 0.41437590
v -0.40499237 -0.16499418 0.41437590
v -0.40499237 -0.16696504 0.41437367
v -0.43339872 -0.16696504 0.39500043
v -0.43507037 -0.16499418 0.39152396
v -0.45482692 -0.09848546 0.39152396
v -0.45198852 -0.10588866 0.39588630
v -0.44993547 -0.10981035 0.39981017
v -0.45081055 -0.10314748 0.40119717
v -0.45170805 -0.09500396 0.40238509
v -0.45260558 -0.08500964 0.40341190
v -0.45343578 -0.07500532 0.40421501
v -0.45360404 -0.06477090 0.40581456
v -0.44957644 -0.06813236 0.40972275
v -0.44318166 -0.08500964 0.41206276
v -0.45345822 -0.06477090 0.40597785
v -0.43499184 -0.09500396 0.41381887
v -0.42499575 -0.12499691 0.41425288
v -0.41499966 -0.14499554 0.41437590
v -0.41499966 -0.15499987 0.41419694
v -0.41499966 -0.16499418 0.41344753
v -0.41508943 -0.16696504 0.41316116
v -0.43104276 -0.16696504 0.40142983
v -0.43413919 -0.16499418 0.39500043
v -0.44134176 -0.14492552 0.39458433
v -0.44042179 -0.14984764 0.39152396
v -0.45321140 -0.10553851 0.39152396
v -0.45107979 -0.11376206 0.39152396
v -0.44722047 -0.12499691 0.39500043
v -0.44446063 -0.13499123 0.39500043
v -0.44054520 -0.14154406 0.40081239
v -0.44156614 -0.13499123 0.40214571
v -0.44294605 -0.12499691 0.40368035
v -0.43842483 -0.12499691 0.40868026
v -0.44727656 -0.09500396 0.40738276
v -0.44818529 -0.08500964 0.40841180
v -0.44227293 -0.09500396 0.41163099
v -0.43343240 -0.12499691 0.41206276
v -0.42499575 -0.13499123 0.41362873
v -0.42351484 -0.15499987 0.41200906
v -0.42178714 -0.16499418 0.41125739
v -0.42141691 -0.16696504 0.41101131
v -0.42799121 -0.16696504 0.40474522
v -0.43140176 -0.16499418 0.40188619
v -0.43932235 -0.14820693 0.39764243
v -0.44425869 -0.13847274 0.39152396
v -0.44214952 -0.14494553 0.39152396
v -0.44125199 -0.14749663 0.39152396
v -0.44803947 -0.12533706 0.39152396
v -0.44717559 -0.12846841 0.39152396
v -0.44536936 -0.13499123 0.39152396
v -0.43703368 -0.13499123 0.40714562
v -0.43081838 -0.14232439 0.41062653
v -0.43204126 -0.13499123 0.41143861
v -0.44029838 -0.11118095 0.41024622
v -0.44110614 -0.10500827 0.41084802
v -0.42956185 -0.14899728 0.40970710
v -0.42851850 -0.15499987 0.40876752
v -0.42679077 -0.16499418 0.40688387
v -0.42636445 -0.16696504 0.40647227
f 1 2 3
f 1 3 10
f 1 10 16
f 1 16 25
f 1 25 37
f 1 37 58
f 1 58 80
f 1 80 79
f 1 79 78
f 1 78 83
f 1 83 82
f 1 82 81
f 1 81 60
f 1 60 59
f 1 59 38
f 1 38 27
f 1 27 26
f 1 26 17
f 1 17 11
f 1 11 4
f 1 4 12
f 1 12 21
f 1 21 20
f 1 20 29
f 1 29 45
f 1 45 48
f 1 48 30
f 1 30 22
f 1 22 14
f 1 14 6
f 1 6 2
f 2 5 3
f 2 6 7
f 2 7 8
f 2 8 9
f 2 9 5
f 3 5 10
f 4 11 12
f 5 9 10
f 6 13 7
f 6 14 23
f 6 23 33
f 6 33 51
f 6 51 34
f 6 34 24
f 6 24 15
f 6 15 13
f 7 13 8
f 8 13 15
f 8 15 24
f 8 24 35
f 8 35 54
f 8 54 74
f 8 74 92
f 8 92 75
f 8 75 55
f 8 55 36
f 8 36 25
f 8 25 16
f 8 16 9
f 9 16 10
f 11 17 18
f 11 18 19
f 11 19 20
f 11 20 21
f 11 21 12
f 14 22 23
f 17 26 18
f 18 26 27
f 18 27 28
f 18 28 29
f 18 29 19
f 19 29 20
f 22 30 31
f 22 31 32
f 22 32 23
f 23 32 33
f 24 34 35
f 25 36 37
f 27 38 28
f 28 38 39
f 28 39 40
f 28 40 41
f 28 41 29
f 29 41 42
f 29 42 43
f 29 43 44
f 29 44 45
f 30 46 47
f 30 47 31
f 30 48 46
f 31 47 32
f 32 49 50
f 32 50 33
f 32 47 49
f 33 50 51
f 34 51 35
f 35 51 52
f 35 52 53
f 35 53 54
f 36 55 56
f 36 56 37
f 37 56 57
f 37 57 58
f 38 59 39
f 39 59 60
f 39 60 40
f 40 60 61
f 40 61 62
f 40 62 63
f 40 63 64
f 40 64 41
f 41 64 65
f 41 65 66
f 41 66 67
f 41 67 42
f 42 67 68
f 42 68 43
f 43 45 44
f 43 68 45
f 45 68 48
f 46 68 69
f 46 69 47
f 46 48 68
f 47 69 49
f 49 70 71
f 49 71 50
f 49 69 70
f 50 71 52
f 50 52 51
f 52 71 53
f 53 71 72
f 53 72 54
f 54 72 73
f 54 73 74
f 55 75 76
f 55 76 63
f 55 63 77
f 55 77 56
f 56 77 57
f 57 62 78
f 57 78 79
f 57 79 80
f 57 80 58
f 57 77 63
f 57 63 62
f 60 81 61
f 61 81 82
f 61 82 62
f 62 82 83
f 62 83 78
f 63 76 84
f 63 84 64
f 64 84 66
f 64 66 65
f 66 84 85
f 66 85 86
f 66 86 87
f 66 87 67
f 67 88 68
f 67 87 88
f 68 88 69
f 69 88 86
f 69 86 70
f 70 86 72
f 70 72 71
f 72 86 73
f 73 86 85
f 73 85 74
f 74 85 89
f 74 89 90
f 74 90 91
f 74 91 92
f 75 92 91
f 75 91 76
f 76 91 84
f 84 91 90
f 84 90 89
f 84 89 85
f 86 88 87

