# https://github.com/mikedh/trimesh
v -0.44398797 0.13928211 0.39152396
v -0.44311017 0.13928211 0.39482147
v -0.44133589 0.14493562 0.39458433
v -0.44213897 0.14496019 0.39152396
v -0.36479899 0.13928211 0.39152396
v -0.44189617 0.13928211 0.39880124
v -0.44042072 0.14985172 0.39152396
v -0.44053277 0.14156809 0.40081239
v -0.43931881 0.14822942 0.39764243
v -0.43412670 0.16501790 0.39500043
v -0.36039129 0.14500937 0.39152396
v -0.38595963 0.13928211 0.41215223
v -0.44088763 0.13928211 0.40127325
v -0.43506053 0.16501790 0.39152396
v -0.43621847 0.13928211 0.40635815
v -0.43139991 0.16501790 0.40188619
v -0.43033534 0.17084350 0.40053052
v -0.43117577 0.17288367 0.39500043
v -0.43313682 0.17015524 0.39152396
v -0.25318736 0.29716280 0.39152396
v -0.25707209 0.31771213 0.41145873
v -0.25318736 0.32459468 0.41250345
v -0.39049804 0.13928211 0.41340277
v -0.25318736 0.32545498 0.41275403
v -0.43339831 0.13928211 0.40917915
v -0.42852372 0.15501364 0.40876752
v -0.42678678 0.16501790 0.40688387
v -0.42906532 0.17789811 0.39500043
v -0.42475101 0.17443225 0.40490851
v -0.42224836 0.18500188 0.40276092
v -0.42075422 0.19168778 0.40106070
v -0.41920406 0.19834909 0.39729792
v -0.43166137 0.17396522 0.39152396
v -0.43033534 0.17716068 0.39152396
v -0.25318736 0.39037216 0.39152396
v -0.39499912 0.13928211 0.41434908
v -0.25318736 0.33499223 0.41426182
v -0.43132520 0.13928211 0.41096434
v -0.43082094 0.14235467 0.41062653
v -0.42955092 0.14901599 0.40970710
v -0.42058611 0.17135969 0.41045651
v -0.41907331 0.17802101 0.40928653
v -0.42590898 0.18500188 0.39500043
v -0.42837429 0.18165892 0.39152396
v -0.42955092 0.17900422 0.39152396
v -0.41750449 0.18500188 0.40775859
v -0.41266721 0.20501041 0.40315911
v -0.41100502 0.21186839 0.40133810
v -0.41731772 0.20424843 0.39437851
v -0.41948420 0.20132333 0.39152396
v -0.42155731 0.19503072 0.39437851
v -0.25636238 0.38840568 0.39152396
v -0.25318736 0.39005259 0.39260674
v -0.39499912 0.14500937 0.41437590
v -0.40071419 0.13928211 0.41437590
v -0.25318736 0.33681118 0.41437590
v -0.42943886 0.13928211 0.41172272
v -0.42351836 0.15501364 0.41200906
v -0.42178142 0.16501790 0.41125739
v -0.41249913 0.18500188 0.41159296
v -0.41091162 0.19205648 0.41068023
v -0.40936145 0.19874239 0.40953931
v -0.42383587 0.19173694 0.39152396
v -0.42686146 0.18502645 0.39152396
v -0.40781131 0.20501041 0.40815902
v -0.40510318 0.21521133 0.40536267
v -0.39738974 0.22501896 0.40769818
v -0.40233904 0.22501896 0.40270051
v -0.40063947 0.23116410 0.40087503
v -0.40913734 0.21852970 0.39712343
v -0.41186413 0.21511301 0.39427337
v -0.41386253 0.21275328 0.39152396
v -0.41770992 0.20510875 0.39152396
v -0.42049274 0.19911110 0.39152396
v -0.26177862 0.38476777 0.39152396
v -0.26353422 0.38250637 0.39500043
v -0.25492430 0.38798782 0.39590645
v -0.25318736 0.38948724 0.39451498
v -0.41498312 0.13928211 0.41437590
v -0.25318736 0.35679513 0.41437590
v -0.42529264 0.13928211 0.41301128
v -0.41498312 0.16501790 0.41344753
v -0.41545004 0.17482555 0.41201577
v -0.40499112 0.18500188 0.41378084
v -0.40280595 0.20501041 0.41164890
v -0.40105036 0.21191755 0.41073841
v -0.39918268 0.21857888 0.40938944
v -0.38874245 0.23787458 0.40907848
v -0.39471897 0.23453163 0.40497562
v -0.39210424 0.24330688 0.40241417
v -0.38995641 0.24996820 0.39992428
v -0.39888388 0.23802206 0.39500043
v -0.41061279 0.21880010 0.39152396
v -0.40213361 0.23401543 0.39152396
v -0.41266721 0.21508843 0.39152396
v -0.26439333 0.38297340 0.39152396
v -0.26164788 0.38115445 0.40143654
v -0.25318736 0.38865149 0.39726883
v -0.26853955 0.37889302 0.39500043
v -0.27948409 0.36957702 0.39878112
v -0.41498312 0.14500937 0.41437590
v -0.42071688 0.13928211 0.41394863
v -0.25318736 0.36498046 0.41386586
v -0.26500967 0.35497618 0.41410300
v -0.27500167 0.34499651 0.41435578
v -0.28501236 0.33499223 0.41437590
v -0.41498312 0.15501364 0.41419694
v -0.40499112 0.17502218 0.41436473
v -0.39499912 0.20501041 0.41383678
v -0.39550340 0.21516217 0.41218355
v -0.39238441 0.22501896 0.41144308
v -0.39066613 0.23121326 0.41048113
v -0.38207489 0.24308565 0.41123280
v -0.37979633 0.24977155 0.40987712
v -0.36860901 0.26801029 0.40900466
v -0.37802204 0.25500721 0.40838498
v -0.38327020 0.25500721 0.40338507
v -0.38104767 0.26157022 0.40130681
v -0.39053541 0.25291786 0.39152396
v -0.39098364 0.25146762 0.39325774
v -0.39535397 0.24546996 0.39152396
v -0.39369175 0.24598615 0.39595565
v -0.36967358 0.27958772 0.39904732
v -0.37895590 0.26845273 0.39500043
v -0.38233635 0.26348749 0.39500043
v -0.38280326 0.26437238 0.39152396
v -0.39938813 0.23893154 0.39152396
v -0.26734427 0.38083488 0.39152396
v -0.27281651 0.37205964 0.40223965
v -0.26482290 0.37483725 0.40517026
v -0.25501767 0.37810647 0.40851921
v -0.25501767 0.38334212 0.40351927
v -0.25318736 0.38570184 0.40220836
v -0.29059666 0.36048222 0.40062672
v -0.26926795 0.37943381 0.39152396
v -0.27530050 0.37498474 0.39152396
v -0.28090352 0.37065858 0.39211458
v -0.27569270 0.37350988 0.39526886
v -0.28454545 0.36694691 0.39526886
v -0.29186669 0.36149001 0.39500043
v -0.39499912 0.19500615 0.41437590
v -0.25318736 0.36716813 0.41349673
v -0.25501767 0.36498046 0.41375175
v -0.28501236 0.34499651 0.41327751
v -0.29500437 0.33499223 0.41348779
v -0.30501506 0.32498795 0.41366675
v -0.31500706 0.31498367 0.41368240
v -0.32501775 0.29499972 0.41437590
v -0.38498843 0.21501470 0.41436473
v -0.37499642 0.23502323 0.41420814
v -0.38498843 0.22501896 0.41363096
v -0.38523123 0.23472828 0.41190615
v -0.37587425 0.24586324 0.41249004
v -0.37301672 0.25500721 0.41155270
v -0.36194146 0.27248394 0.41114554
v -0.37090626 0.26134896 0.41061088
v -0.35930806 0.27914527 0.40953708
v -0.36580753 0.27602354 0.40593758
v -0.37212023 0.27292639 0.40233809
v -0.37484702 0.26479024 0.40515462
v -0.39124513 0.25186089 0.39152396
v -0.36031660 0.29040316 0.40042537
v -0.35226697 0.30274257 0.39500043
v -0.36130646 0.29160759 0.39500043
v -0.37075683 0.28093964 0.39238077
v -0.37514585 0.27533528 0.39152396
v -0.37361437 0.27575317 0.39542770
v -0.37762985 0.27184486 0.39152396
v -0.37947884 0.26923934 0.39152396
v -0.28501236 0.36254698 0.40263563
v -0.26797926 0.36849546 0.40890399
v -0.26131171 0.37095353 0.41062430
v -0.25318736 0.37872097 0.40901360
v -0.25318736 0.37980253 0.40800020
v -0.25318736 0.38388288 0.40407407
v -0.29685336 0.35723758 0.39500043
v -0.30256841 0.35224774 0.39500043
v -0.31325144 0.34283340 0.39500043
v -0.31823811 0.33838433 0.39500043
v -0.30107427 0.35092041 0.40107861
v -0.29365966 0.35379630 0.40418372
v -0.28501236 0.35704094 0.40763554
v -0.28144512 0.37043732 0.39152396
v -0.28559133 0.36736476 0.39152396
v -0.29031652 0.36377603 0.39152396
v -0.29252037 0.36205536 0.39152396
v -0.29427597 0.36060512 0.39152396
v -0.36498576 0.24500293 0.41437590
v -0.25318736 0.37368196 0.41174510
v -0.25501767 0.37311661 0.41156387
v -0.26478556 0.36507878 0.41190615
v -0.27548727 0.35561529 0.41238937
v -0.30430534 0.33447602 0.41134688
v -0.31455880 0.32454550 0.41150349
v -0.28501236 0.35202652 0.41108739
v -0.32455081 0.31446749 0.41146994
v -0.33500975 0.29499972 0.41356608
v -0.34500176 0.27499115 0.41432893
v -0.33500975 0.28499544 0.41437590
v -0.35499376 0.26498690 0.41414326
v -0.36498576 0.25500721 0.41374058
v -0.36515385 0.26481482 0.41193077
v -0.35559142 0.27548277 0.41240054
v -0.35264048 0.28327480 0.41139385
v -0.34059405 0.30065322 0.41037598
v -0.34995106 0.28993613 0.40997329
v -0.36250177 0.28499544 0.40247232
v -0.34791529 0.29499972 0.40834245
v -0.35458288 0.29423770 0.40292868
v -0.35095960 0.30116943 0.40115020
v -0.34802735 0.30775699 0.39500043
v -0.35079151 0.30586430 0.39152396
v -0.35262182 0.30367664 0.39152396
v -0.35456419 0.30131692 0.39152396
v -0.35783261 0.29731029 0.39152396
v -0.36360368 0.29015735 0.39152396
v -0.37042066 0.28170165 0.39152396
v -0.37088758 0.28111172 0.39152396
v -0.37159729 0.28015307 0.39152396
v -0.27914789 0.35935152 0.40955496
v -0.25318736 0.37550092 0.41098896
v -0.27248034 0.36180958 0.41109410
v -0.29752570 0.35782754 0.39152396
v -0.31130907 0.34570932 0.39152396
v -0.31661326 0.34103903 0.39152396
v -0.31891048 0.33899885 0.39152396
v -0.32343021 0.33339450 0.39500043
v -0.32171196 0.33167386 0.40174526
v -0.31153321 0.34133399 0.40147233
v -0.29672262 0.34708583 0.40774292
v -0.29005507 0.35001093 0.41002029
v -0.29403317 0.34425908 0.41105160
v -0.31091687 0.33081353 0.41051245
v -0.32090887 0.32093215 0.41053259
v -0.30049530 0.34042451 0.41027084
v -0.33446813 0.30438948 0.41137373
v -0.34290996 0.29499972 0.41137597
v -0.33077013 0.31078041 0.41045651
v -0.32757643 0.31744173 0.40828878
v -0.33743772 0.30731454 0.40816572
v -0.34434807 0.30424199 0.40465796
v -0.34143451 0.31146866 0.40150142
v -0.34302202 0.31314012 0.39500043
v -0.34606633 0.31119826 0.39152396
v -0.34860635 0.30842069 0.39152396
v -0.32404655 0.33400899 0.39152396
v -0.32679203 0.33125597 0.39152396
v -0.32843557 0.32835549 0.39500043
v -0.31455880 0.33457434 0.40493983
v -0.33157325 0.32162040 0.40162447
v -0.32464421 0.32461923 0.40501592
v -0.31758443 0.32759348 0.40840957
v -0.30716285 0.33747485 0.40813667
v -0.34365702 0.31373006 0.39152396
v -0.33883846 0.31876907 0.39152396
v -0.32903323 0.32896999 0.39152396
f 1 2 3
f 1 3 4
f 1 4 7
f 1 7 14
f 1 14 19
f 1 19 33
f 1 33 34
f 1 34 45
f 1 45 44
f 1 44 64
f 1 64 63
f 1 63 74
f 1 74 50
f 1 50 73
f 1 73 72
f 1 72 95
f 1 95 93
f 1 93 94
f 1 94 127
f 1 127 121
f 1 121 161
f 1 161 119
f 1 119 126
f 1 126 169
f 1 169 168
f 1 168 166
f 1 166 219
f 1 219 218
f 1 218 217
f 1 217 216
f 1 216 215
f 1 215 214
f 1 214 213
f 1 213 212
f 1 212 245
f 1 245 244
f 1 244 254
f 1 254 255
f 1 255 256
f 1 256 247
f 1 247 246
f 1 246 226
f 1 226 225
f 1 225 224
f 1 224 223
f 1 223 187
f 1 187 186
f 1 186 185
f 1 185 184
f 1 184 183
f 1 183 136
f 1 136 135
f 1 135 128
f 1 128 96
f 1 96 75
f 1 75 52
f 1 52 35
f 1 35 20
f 1 20 11
f 1 11 5
f 1 5 12
f 1 12 23
f 1 23 36
f 1 36 55
f 1 55 79
f 1 79 102
f 1 102 81
f 1 81 57
f 1 57 38
f 1 38 25
f 1 25 15
f 1 15 13
f 1 13 6
f 1 6 2
f 2 6 3
f 3 7 4
f 3 6 8
f 3 8 9
f 3 9 10
f 3 10 7
f 5 11 12
f 6 13 8
f 7 10 14
f 8 13 15
f 8 15 16
f 8 16 17
f 8 17 9
f 9 17 10
f 10 17 18
f 10 18 19
f 10 19 14
f 11 20 21
f 11 21 22
f 11 22 12
f 12 22 24
f 12 24 23
f 15 25 26
f 15 26 27
f 15 27 16
f 16 27 17
f 17 28 18
f 17 27 29
f 17 29 30
f 17 30 31
f 17 31 32
f 17 32 28
f 18 33 19
f 18 28 34
f 18 34 33
f 20 35 53
f 20 53 78
f 20 78 98
f 20 98 133
f 20 133 175
f 20 175 174
f 20 174 173
f 20 173 221
f 20 221 189
f 20 189 142
f 20 142 103
f 20 103 80
f 20 80 56
f 20 56 37
f 20 37 24
f 20 24 22
f 20 22 21
f 23 24 37
f 23 37 36
f 25 38 39
f 25 39 40
f 25 40 26
f 26 40 41
f 26 41 27
f 27 41 42
f 27 42 29
f 28 43 44
f 28 44 45
f 28 45 34
f 28 32 43
f 29 42 30
f 30 42 46
f 30 46 47
f 30 47 31
f 31 47 48
f 31 48 32
f 32 48 49
f 32 49 50
f 32 50 51
f 32 51 43
f 35 52 53
f 36 54 55
f 36 37 56
f 36 56 54
f 38 57 58
f 38 58 59
f 38 59 39
f 39 59 41
f 39 41 40
f 41 59 60
f 41 60 61
f 41 61 62
f 41 62 42
f 42 62 46
f 43 63 64
f 43 64 44
f 43 51 63
f 46 62 65
f 46 65 47
f 47 65 48
f 48 65 66
f 48 66 67
f 48 67 68
f 48 68 69
f 48 69 70
f 48 70 49
f 49 70 71
f 49 71 72
f 49 72 73
f 49 73 50
f 50 74 51
f 51 74 63
f 52 75 76
f 52 76 77
f 52 77 78
f 52 78 53
f 54 56 80
f 54 80 106
f 54 106 148
f 54 148 199
f 54 199 188
f 54 188 141
f 54 141 101
f 54 101 79
f 54 79 55
f 57 81 58
f 58 81 82
f 58 82 83
f 58 83 59
f 59 83 60
f 60 84 85
f 60 85 61
f 60 83 82
f 60 82 84
f 61 85 86
f 61 86 62
f 62 86 65
f 65 86 87
f 65 87 66
f 66 87 67
f 67 87 88
f 67 88 89
f 67 89 68
f 68 89 69
f 69 89 90
f 69 90 91
f 69 91 92
f 69 92 70
f 70 93 71
f 70 92 94
f 70 94 93
f 71 93 95
f 71 95 72
f 75 96 76
f 76 97 98
f 76 98 77
f 76 96 99
f 76 99 100
f 76 100 97
f 77 98 78
f 79 101 102
f 80 103 104
f 80 104 105
f 80 105 106
f 81 102 107
f 81 107 82
f 82 107 84
f 84 107 108
f 84 108 109
f 84 109 85
f 85 109 110
f 85 110 111
f 85 111 86
f 86 111 112
f 86 112 87
f 87 112 88
f 88 113 114
f 88 114 115
f 88 115 116
f 88 116 117
f 88 117 90
f 88 90 89
f 88 112 113
f 90 117 118
f 90 118 91
f 91 119 120
f 91 120 121
f 91 121 122
f 91 122 92
f 91 118 123
f 91 123 124
f 91 124 125
f 91 125 126
f 91 126 119
f 92 122 127
f 92 127 94
f 96 128 99
f 97 129 130
f 97 130 131
f 97 131 132
f 97 132 133
f 97 133 98
f 97 100 134
f 97 134 129
f 99 128 135
f 99 135 136
f 99 136 137
f 99 137 138
f 99 138 100
f 100 139 140
f 100 140 134
f 100 138 137
f 100 137 139
f 101 107 102
f 101 141 108
f 101 108 107
f 103 142 143
f 103 143 104
f 104 143 144
f 104 144 105
f 105 144 145
f 105 145 146
f 105 146 106
f 106 146 147
f 106 147 148
f 108 141 109
f 109 149 150
f 109 150 151
f 109 151 110
f 109 141 149
f 110 151 111
f 111 151 152
f 111 152 113
f 111 113 112
f 113 152 153
f 113 153 154
f 113 154 155
f 113 155 156
f 113 156 114
f 114 156 115
f 115 155 157
f 115 157 158
f 115 158 159
f 115 159 160
f 115 160 116
f 115 156 155
f 116 118 117
f 116 160 118
f 118 160 159
f 118 159 123
f 119 161 120
f 120 161 121
f 121 127 122
f 123 159 162
f 123 162 163
f 123 163 164
f 123 164 165
f 123 165 166
f 123 166 167
f 123 167 124
f 124 166 168
f 124 168 169
f 124 169 126
f 124 126 125
f 124 167 166
f 129 134 170
f 129 170 171
f 129 171 130
f 130 171 131
f 131 171 172
f 131 172 173
f 131 173 174
f 131 174 132
f 132 174 175
f 132 175 133
f 134 176 177
f 134 177 178
f 134 178 179
f 134 179 180
f 134 180 181
f 134 181 182
f 134 182 170
f 134 140 176
f 136 183 137
f 137 183 184
f 137 184 139
f 139 184 140
f 140 184 185
f 140 185 186
f 140 186 187
f 140 187 176
f 141 188 149
f 142 189 190
f 142 190 143
f 143 190 191
f 143 191 192
f 143 192 144
f 144 193 194
f 144 194 145
f 144 192 195
f 144 195 193
f 145 194 146
f 146 194 147
f 147 196 197
f 147 197 198
f 147 198 199
f 147 199 148
f 147 194 196
f 149 188 150
f 150 188 198
f 150 198 200
f 150 200 201
f 150 201 151
f 151 201 153
f 151 153 152
f 153 201 202
f 153 202 154
f 154 202 155
f 155 202 203
f 155 203 204
f 155 204 205
f 155 205 206
f 155 206 157
f 157 207 158
f 157 206 208
f 157 208 209
f 157 209 207
f 158 207 159
f 159 207 162
f 162 207 210
f 162 210 163
f 163 210 211
f 163 211 212
f 163 212 213
f 163 213 214
f 163 214 215
f 163 215 164
f 164 216 217
f 164 217 165
f 164 215 216
f 165 217 218
f 165 218 219
f 165 219 166
f 170 182 171
f 171 182 220
f 171 220 172
f 172 190 221
f 172 221 173
f 172 220 222
f 172 222 190
f 176 187 223
f 176 223 177
f 177 223 224
f 177 224 225
f 177 225 178
f 178 225 226
f 178 226 179
f 179 226 227
f 179 227 228
f 179 228 229
f 179 229 180
f 180 229 230
f 180 230 181
f 181 230 182
f 182 230 231
f 182 231 220
f 188 199 198
f 189 221 190
f 190 222 191
f 191 222 192
f 192 222 195
f 193 195 232
f 193 232 233
f 193 233 194
f 194 233 234
f 194 234 196
f 195 222 231
f 195 231 235
f 195 235 233
f 195 233 232
f 196 236 197
f 196 234 236
f 197 236 237
f 197 237 203
f 197 203 201
f 197 201 200
f 197 200 198
f 201 203 202
f 203 237 204
f 204 237 205
f 205 236 238
f 205 238 239
f 205 239 240
f 205 240 241
f 205 241 208
f 205 208 206
f 205 237 236
f 207 209 210
f 208 241 210
f 208 210 209
f 210 241 242
f 210 242 211
f 211 242 243
f 211 243 244
f 211 244 245
f 211 245 212
f 220 231 222
f 226 246 227
f 227 246 247
f 227 247 248
f 227 248 228
f 228 249 229
f 228 248 250
f 228 250 251
f 228 251 252
f 228 252 249
f 229 249 253
f 229 253 230
f 230 253 231
f 231 253 235
f 233 252 234
f 233 235 253
f 233 253 252
f 234 252 239
f 234 239 238
f 234 238 236
f 239 252 251
f 239 251 240
f 240 242 241
f 240 251 250
f 240 250 242
f 242 250 248
f 242 248 243
f 243 254 244
f 243 248 255
f 243 255 254
f 247 256 248
f 248 256 255
f 249 252 253

