# https://github.com/mikedh/trimesh
v 0.21480560 -0.16690415 0.21349898
v 0.44653270 -0.16690415 0.21349898
v 0.21480560 -0.16690415 0.39141154
v 0.21480560 0.42450267 0.21349898
v 0.44754881 -0.16361585 0.21349898
v 0.47058040 -0.14205921 0.25939286
v 0.46115324 -0.16690415 0.25894061
v 0.38302648 -0.16690415 0.41418150
v 0.21480560 0.36494792 0.41435850
v 0.21480560 0.42462447 0.21355796
v 0.21500318 0.42456359 0.21349898
v 0.44932699 -0.15776998 0.21349898
v 0.49019676 -0.12080705 0.30967164
v 0.48085427 -0.15247217 0.30888513
v 0.46298787 -0.16690415 0.26501653
v 0.45624208 -0.13499546 0.21349898
v 0.46039116 -0.12129420 0.21349898
v 0.46533054 -0.10497451 0.21349898
v 0.46575391 -0.10345215 0.21349898
v 0.47992286 -0.10972428 0.26055300
v 0.38497400 -0.16690415 0.41437814
v 0.21500318 0.36494792 0.41437814
v 0.21480560 0.37499550 0.41437814
v 0.21480560 0.44118777 0.25923556
v 0.23622836 0.41323721 0.21349898
v 0.22014011 0.44003075 0.25994343
v 0.24006696 0.42998317 0.25998276
v 0.49019676 -0.12080705 0.31059581
v 0.50013196 -0.07075183 0.30978963
v 0.47453189 -0.16690415 0.31500039
v 0.47323352 -0.16690415 0.30723342
v 0.48085427 -0.15247217 0.31226718
v 0.46820951 -0.09419619 0.21349898
v 0.46860462 -0.09194309 0.21349898
v 0.46967718 -0.08536649 0.21349898
v 0.48060024 -0.10308677 0.25933388
v 0.48980159 -0.04846446 0.26161480
v 0.40300977 -0.16690415 0.41437814
v 0.22502305 0.37499550 0.41437814
v 0.21480560 0.38498217 0.41435850
v 0.21480560 0.44289279 0.26499689
v 0.25649390 0.40239799 0.21349898
v 0.22310375 0.45153981 0.30839354
v 0.24286124 0.44149223 0.30841321
v 0.26165909 0.43095750 0.30886546
v 0.28037223 0.42017916 0.30969131
v 0.27080396 0.41043606 0.25953051
v 0.26044539 0.40020579 0.21349898
v 0.48048735 -0.14175475 0.32113528
v 0.48189861 -0.14504305 0.31533465
v 0.50013196 -0.07075183 0.31039917
v 0.49095881 -0.11496118 0.31254247
v 0.48901129 -0.11496118 0.31753692
v 0.49014032 -0.04176608 0.25984511
v 0.50052708 -0.06496686 0.30919972
v 0.47376981 -0.16690415 0.31686836
v 0.47952771 -0.14839223 0.31891334
v 0.47108844 -0.16690415 0.32337689
v 0.47365689 -0.04499348 0.21349898
v 0.40498552 -0.16690415 0.41435850
v 0.40498552 -0.16495553 0.41437814
v 0.21500318 0.38498217 0.41435850
v 0.24500632 0.36494792 0.41437814
v 0.21480560 0.39551693 0.41223484
v 0.21480560 0.45367113 0.30743003
v 0.21480560 0.45507169 0.31500039
v 0.21500318 0.45501080 0.31498072
v 0.22256747 0.45123532 0.31498072
v 0.24232495 0.44118777 0.31498072
v 0.26165909 0.43095750 0.31232616
v 0.32045171 0.39034089 0.30955365
v 0.30010149 0.39003640 0.25996310
v 0.28037223 0.42017916 0.31057614
v 0.26654199 0.39618677 0.21349898
v 0.26400173 0.39789182 0.21349898
v 0.46945140 -0.13785750 0.34874240
v 0.47797534 -0.14504305 0.32467467
v 0.48139057 -0.13499546 0.32319993
v 0.50052708 -0.06496686 0.31151998
v 0.49860781 -0.06496686 0.31649476
v 0.49355552 -0.07495354 0.32498926
v 0.49112818 -0.09498781 0.32262969
v 0.49045077 -0.10223426 0.32109597
v 0.49197492 -0.10533987 0.31566891
v 0.48977339 -0.10893264 0.31946391
v 0.49039432 -0.03494589 0.25955015
v 0.50193834 -0.03494589 0.30770531
v 0.50151497 -0.04499348 0.30807891
v 0.50109160 -0.05498016 0.30849186
v 0.47577378 -0.02349775 0.21349898
v 0.47758019 -0.00498582 0.21349898
v 0.46984655 -0.14954925 0.33971700
v 0.47458833 -0.15496883 0.32498926
v 0.47089088 -0.14291173 0.34207660
v 0.46860462 -0.14571288 0.34524235
v 0.46905625 -0.16690415 0.32791910
v 0.41302964 -0.16690415 0.41361129
v 0.41497716 -0.15496883 0.41418150
v 0.41497716 -0.14498216 0.41437814
v 0.23501468 0.37499550 0.41418150
v 0.22502305 0.38498217 0.41363093
v 0.28500113 0.33498785 0.41437814
v 0.27500948 0.34497452 0.41433883
v 0.21520075 0.39551693 0.41217586
v 0.21480560 0.39618677 0.41199890
v 0.21480560 0.45501080 0.31517735
v 0.21480560 0.45129624 0.32359320
v 0.22030947 0.45013922 0.32030943
v 0.24023631 0.44009167 0.32025045
v 0.24732077 0.43838662 0.31498072
v 0.25923172 0.42949602 0.31897235
v 0.27797312 0.41871771 0.31722230
v 0.32045171 0.39034089 0.31083179
v 0.33089495 0.38078046 0.30916041
v 0.31093988 0.38071957 0.25939286
v 0.28350520 0.38285089 0.21349898
v 0.27740860 0.38784420 0.21349898
v 0.27241278 0.39192414 0.21349898
v 0.33284247 0.34229517 0.21349898
v 0.32177830 0.35142934 0.21349898
v 0.28497291 0.41494226 0.31494138
v 0.29169047 0.41122770 0.31266046
v 0.47029814 -0.13122001 0.35066938
v 0.44052076 -0.14151117 0.40081054
v 0.46166128 -0.15496883 0.35298967
v 0.46050406 -0.16148454 0.35108232
v 0.47622538 -0.13499546 0.33499783
v 0.48155990 -0.11441314 0.33505684
v 0.48017687 -0.11069858 0.34040523
v 0.47752374 -0.11441314 0.34423953
v 0.48263246 -0.12573951 0.32587412
v 0.48582187 -0.11496118 0.32498926
v 0.50109160 -0.05498016 0.31299472
v 0.49510789 -0.06496686 0.32498926
v 0.49917230 -0.05498016 0.31796950
v 0.48655573 -0.06496686 0.34498674
v 0.48853147 -0.07495354 0.33662987
v 0.48006397 -0.09042074 0.35015815
v 0.48791051 -0.08463576 0.33425063
v 0.48898309 -0.09498781 0.32764381
v 0.47949949 -0.09705822 0.34884071
v 0.47865272 -0.10497451 0.34693339
v 0.49073303 -0.02495921 0.25917655
v 0.50233352 -0.02495921 0.30739072
v 0.50275683 -0.02495921 0.31498072
v 0.47758019 0.00500086 0.21349898
v 0.49090236 -0.00498582 0.25897995
v 0.49090236 -0.01497252 0.25899959
v 0.46558458 -0.15496883 0.34498674
v 0.46891510 -0.15496883 0.33761305
v 0.47117311 -0.15496883 0.33259892
v 0.46713695 -0.16428569 0.33425063
v 0.46202821 -0.16489464 0.34512439
v 0.46606439 -0.16690415 0.33456525
v 0.41509008 -0.16690415 0.41315901
v 0.41497716 -0.16495553 0.41343433
v 0.42499703 -0.13499546 0.41361129
v 0.42499703 -0.12494788 0.41424051
v 0.42499703 -0.11496118 0.41437814
v 0.26501784 0.35496122 0.41410285
v 0.25502619 0.36494792 0.41374892
v 0.24590953 0.37590891 0.41247082
v 0.23467599 0.38516486 0.41186124
v 0.22502305 0.39241129 0.41142866
v 0.31500429 0.31495357 0.41367027
v 0.30501264 0.32494026 0.41365060
v 0.33501580 0.28499353 0.41437814
v 0.29502100 0.33498785 0.41347364
v 0.28500113 0.34497452 0.41327700
v 0.21867242 0.39923149 0.40946233
v 0.21480560 0.40452930 0.40602130
v 0.21480560 0.45080909 0.32467467
v 0.21717650 0.44855598 0.32697526
v 0.23447841 0.43156645 0.34435752
v 0.23044224 0.44021344 0.33043599
v 0.24049033 0.43022674 0.34058219
v 0.24506278 0.43503740 0.32502860
v 0.25257063 0.43156645 0.32314092
v 0.27131200 0.42078811 0.32160720
v 0.27128381 0.41080144 0.34162432
v 0.28051335 0.41031426 0.33067194
v 0.28254557 0.41177574 0.32498926
v 0.31508896 0.39277667 0.31448913
v 0.31847596 0.38869673 0.31747794
v 0.32471368 0.38473862 0.31454811
v 0.33089495 0.38078046 0.31163797
v 0.34136641 0.37115914 0.30882612
v 0.33800766 0.35806686 0.26501653
v 0.32132667 0.37109825 0.25917655
v 0.33710444 0.33851972 0.21349898
v 0.28954536 0.40964442 0.31930661
v 0.30072245 0.40051028 0.32097799
v 0.30266997 0.40191084 0.31498072
v 0.47111666 -0.12494788 0.35222280
v 0.44991970 -0.10978517 0.39980772
v 0.44156510 -0.13499546 0.40212798
v 0.43702090 -0.13499546 0.40714210
v 0.43140411 -0.16495553 0.40187234
v 0.43103719 -0.16690415 0.40142012
v 0.45954442 -0.16690415 0.34899804
v 0.46033472 -0.16690415 0.34728733
v 0.50151497 -0.04499348 0.31405655
v 0.50165606 -0.03518946 0.31582624
v 0.49987793 -0.03866045 0.31971952
v 0.49623689 -0.05498016 0.32498926
v 0.48980159 -0.05778131 0.33955970
v 0.48218086 -0.06496686 0.35403180
v 0.48139057 -0.07495354 0.35279304
v 0.48051560 -0.08494022 0.35114133
v 0.48491868 -0.07495354 0.34498674
v 0.48810810 -0.05467570 0.34412155
v 0.45979846 -0.05832936 0.39937514
v 0.45169789 -0.09498781 0.40238360
v 0.45079467 -0.10308677 0.40118414
v 0.50250286 -0.01497252 0.30725306
v 0.50315201 -0.01497252 0.31498072
v 0.50044239 -0.02495921 0.32103696
v 0.50016016 -0.03196207 0.32038808
v 0.47743905 0.00652322 0.21349898
v 0.49014032 0.04184200 0.25984511
v 0.49039432 0.03502182 0.25955015
v 0.49073303 0.02503514 0.25917655
v 0.49090236 0.01504844 0.25899959
v 0.49090236 0.00500086 0.25897995
v 0.42050928 -0.16690415 0.41140899
v 0.42350113 -0.15496883 0.41199890
v 0.43340808 -0.12494788 0.41205788
v 0.43498868 -0.09498781 0.41380790
v 0.43498868 -0.08494022 0.41424051
v 0.43498868 -0.07495354 0.41437814
v 0.27548930 0.35557017 0.41237250
v 0.26479203 0.36506969 0.41190058
v 0.25502619 0.37310776 0.41154665
v 0.24319993 0.38193744 0.41119272
v 0.23111963 0.39064538 0.41046518
v 0.32502416 0.30496687 0.41361129
v 0.32454434 0.31446642 0.41146800
v 0.31455269 0.32451400 0.41148764
v 0.36499074 0.24498586 0.41437814
v 0.34500745 0.27494591 0.41431916
v 0.33501580 0.29498020 0.41355228
v 0.30430701 0.33443981 0.41133034
v 0.28500113 0.35203829 0.41107473
v 0.22502305 0.40239799 0.40281618
v 0.21480560 0.40519914 0.40545106
v 0.23778073 0.38857496 0.40893143
v 0.22502305 0.39746556 0.40781063
v 0.21480560 0.44161400 0.34406257
v 0.23075272 0.43034855 0.35072839
v 0.23744203 0.42858261 0.34724802
v 0.21480560 0.44130954 0.34469178
v 0.21748698 0.43869108 0.34730700
v 0.24520391 0.42505074 0.34520304
v 0.25259885 0.42157975 0.34317774
v 0.24777238 0.42858261 0.33499783
v 0.26518720 0.41768250 0.33543041
v 0.26863062 0.40909639 0.34829015
v 0.27478367 0.40672150 0.34496707
v 0.28025934 0.40014490 0.35031545
v 0.28488824 0.40489468 0.33484054
v 0.29502100 0.40282425 0.32459602
v 0.31178665 0.39137611 0.32262969
v 0.30952865 0.38961017 0.32929552
v 0.31136328 0.38114583 0.34211591
v 0.32189119 0.38163298 0.32498926
v 0.32900387 0.37907541 0.31828412
v 0.34136641 0.37115914 0.31240484
v 0.35152742 0.36147693 0.30864915
v 0.34311637 0.35307348 0.26501653
v 0.33783829 0.33778900 0.21349898
v 0.44291991 -0.12494788 0.40366170
v 0.43843213 -0.12494788 0.40867582
v 0.43081141 -0.14230281 0.41062248
v 0.42954126 -0.14894029 0.40969831
v 0.42849696 -0.15496883 0.40875447
v 0.42677522 -0.16495553 0.40686679
v 0.42635185 -0.16690415 0.40645388
v 0.49369663 -0.03494589 0.33499783
v 0.49008384 -0.05114381 0.34022826
v 0.48822099 -0.04499348 0.34583226
v 0.48280180 -0.05498016 0.35472003
v 0.46013713 -0.05163097 0.40025997
v 0.45260108 -0.08494022 0.40340608
v 0.44726655 -0.09498781 0.40737805
v 0.50250286 0.01504844 0.30725306
v 0.50061178 -0.01497252 0.32146958
v 0.50315201 0.01504844 0.31498072
v 0.49118462 -0.02495921 0.34278446
v 0.49488211 -0.01497252 0.33499783
v 0.49138218 -0.01497252 0.34325638
v 0.47252792 0.05651756 0.21349898
v 0.48980159 0.04854038 0.26161480
v 0.50013196 0.07082775 0.30978963
v 0.50052708 0.06504278 0.30919972
v 0.50109160 0.05505610 0.30849186
v 0.50151497 0.04500851 0.30807891
v 0.50193834 0.03502182 0.30770531
v 0.46970540 0.08501616 0.21349898
v 0.50233352 0.02503514 0.30739072
v 0.42141247 -0.16690415 0.41099608
v 0.42177939 -0.16495553 0.41125169
v 0.43202507 -0.13499546 0.41142866
v 0.44227073 -0.09498781 0.41162530
v 0.44317394 -0.08494022 0.41205788
v 0.44498032 -0.05498016 0.41270676
v 0.44498032 -0.04499348 0.41308036
v 0.44498032 -0.02495921 0.41367027
v 0.44498032 -0.01497252 0.41380790
v 0.44498032 -0.00498582 0.41382757
v 0.43498868 0.07502947 0.41437814
v 0.27249748 0.36178142 0.41109440
v 0.26132035 0.37091556 0.41062248
v 0.24986103 0.37986705 0.40991461
v 0.33447951 0.30435795 0.41136968
v 0.32093152 0.32092124 0.41052416
v 0.31093988 0.33078611 0.41050449
v 0.37498236 0.23499918 0.41420117
v 0.35502732 0.26495925 0.41414219
v 0.39499390 0.19499153 0.41437814
v 0.38497400 0.21496490 0.41435850
v 0.36499074 0.25497255 0.41372925
v 0.35559180 0.27549398 0.41239217
v 0.34291878 0.29498020 0.41136968
v 0.29403311 0.34424379 0.41103539
v 0.30049664 0.34040743 0.41026855
v 0.29005340 0.35002875 0.41001290
v 0.21480560 0.40574718 0.40482181
v 0.23120432 0.40069294 0.40094817
v 0.21847485 0.40915728 0.39723185
v 0.25502619 0.37810111 0.40851849
v 0.25502619 0.38333803 0.40350440
v 0.24328461 0.39198506 0.40226561
v 0.23447841 0.39466441 0.40493980
v 0.24322817 0.42194512 0.35298967
v 0.24988925 0.41987470 0.34984356
v 0.21480560 0.41165394 0.39489192
v 0.26196954 0.41116679 0.35206550
v 0.24994570 0.38991463 0.39982739
v 0.26165909 0.38114583 0.40142012
v 0.29061788 0.36044174 0.40061390
v 0.29143643 0.39101073 0.35175088
v 0.29809752 0.38857496 0.34730700
v 0.30481505 0.38486040 0.34471145
v 0.30918995 0.37925810 0.34878173
v 0.31554055 0.37542176 0.34579292
v 0.31968963 0.36969769 0.34948960
v 0.32183474 0.37158543 0.34282377
v 0.33064091 0.37055022 0.33096689
v 0.33755603 0.36780995 0.32498926
v 0.33944711 0.36945409 0.31905100
v 0.34557194 0.36549598 0.31598353
v 0.35152742 0.36147693 0.31291607
v 0.37122846 0.34125996 0.30882612
v 0.34811220 0.34801924 0.26501653
v 0.33854392 0.33705825 0.21349898
v 0.35293865 0.34302592 0.26501653
v 0.44029498 -0.11112484 0.41022921
v 0.43933535 -0.11782324 0.40952134
v 0.42485592 -0.16690415 0.40798759
v 0.48864436 -0.03494589 0.34683508
v 0.48903954 -0.02495921 0.34779859
v 0.46044761 -0.04499348 0.40071222
v 0.45610097 -0.04499348 0.40570667
v 0.45638323 -0.05498016 0.40415329
v 0.45356071 -0.06484507 0.40582466
v 0.45341960 -0.07495354 0.40421227
v 0.45023018 -0.06143497 0.41018987
v 0.44816977 -0.08494022 0.40840054
v 0.44108528 -0.10497451 0.41083878
v 0.50061178 0.01504844 0.32146958
v 0.50275683 0.02503514 0.31498072
v 0.50044239 0.02503514 0.32103696
v 0.49488211 0.01504844 0.33499783
v 0.48923710 -0.01497252 0.34825084
v 0.49138218 0.01504844 0.34325638
v 0.48060024 0.10316271 0.25933388
v 0.47992286 0.10980020 0.26055300
v 0.49019676 0.12088299 0.30967164
v 0.50013196 0.07082775 0.31039917
v 0.50052708 0.06504278 0.31151998
v 0.50109160 0.05505610 0.31299472
v 0.46820951 0.09427211 0.21349898
v 0.45062533 -0.05498016 0.41050449
v 0.45110515 -0.04499348 0.41087809
v 0.45152852 -0.03494589 0.41119272
v 0.45195189 -0.02495921 0.41146800
v 0.45217770 -0.01497252 0.41162530
v 0.44498032 0.00500086 0.41382757
v 0.44498032 0.01504844 0.41380790
v 0.43498868 0.08501616 0.41424051
v 0.42499703 0.11503712 0.41437814
v 0.27915856 0.35934561 0.40954101
v 0.26798147 0.36847979 0.40889210
v 0.34060434 0.30064338 0.41036683
v 0.32759261 0.31745023 0.40828255
v 0.31760100 0.32755873 0.40840054
v 0.30718598 0.33748454 0.40812525
v 0.38497400 0.22495160 0.41363093
v 0.39499390 0.20497821 0.41382757
v 0.41497716 0.14499718 0.41437814
v 0.40498552 0.17495725 0.41435850
v 0.37585735 0.24583837 0.41249049
v 0.36516008 0.26477656 0.41192025
v 0.36194244 0.27244925 0.41113371
v 0.35265642 0.28322756 0.41138935
v 0.29671448 0.34704494 0.40773198
v 0.29366618 0.35380423 0.40417296
v 0.28500113 0.35703164 0.40763366
v 0.27283615 0.37207258 0.40222630
v 0.28500113 0.36251214 0.40261954
v 0.30108938 0.35088128 0.40106615
v 0.33013287 0.36007637 0.35017782
v 0.30250061 0.38187659 0.35283235
v 0.32510883 0.36707920 0.34569460
v 0.32849583 0.36866248 0.33763272
v 0.33182639 0.36153781 0.34498674
v 0.34105593 0.36092889 0.33167475
v 0.34308815 0.36281660 0.32498926
v 0.34974924 0.35971099 0.31956223
v 0.35556358 0.35557017 0.31610152
v 0.37122846 0.34125996 0.31240484
v 0.38088140 0.33102971 0.30902275
v 0.36772856 0.32755873 0.26501653
v 0.36270452 0.33285654 0.26501653
v 0.35793447 0.33784989 0.26501653
v 0.37117201 0.32140839 0.25911757
v 0.34235430 0.33279565 0.21349898
v 0.46129435 -0.02495921 0.40191168
v 0.46087098 -0.03494589 0.40134144
v 0.45652434 -0.03494589 0.40633589
v 0.50151497 0.04500851 0.31405655
v 0.50165606 0.03526540 0.31582624
v 0.50016016 0.03203800 0.32038808
v 0.49118462 0.02503514 0.34278446
v 0.46152017 -0.00498582 0.40222630
v 0.46149194 -0.01497252 0.40220663
v 0.48923710 0.01504844 0.34825084
v 0.48903954 0.02503514 0.34779859
v 0.46533054 0.10505043 0.21349898
v 0.47058040 0.14213514 0.25939286
v 0.49019676 0.12088299 0.31059581
v 0.48085427 0.15248720 0.30888513
v 0.49355552 0.07502947 0.32498926
v 0.49860781 0.06504278 0.31649476
v 0.49095881 0.11503712 0.31254247
v 0.49197492 0.10541580 0.31566891
v 0.49045077 0.10231018 0.32109597
v 0.49112818 0.09500284 0.32262969
v 0.49917230 0.05505610 0.31796950
v 0.49987793 0.03873638 0.31971952
v 0.45694771 -0.02495921 0.40692580
v 0.45717353 -0.01497252 0.40720108
v 0.45720175 -0.00498582 0.40722075
v 0.45217770 0.01504844 0.41162530
v 0.44498032 0.02503514 0.41367027
v 0.44498032 0.04500851 0.41308036
v 0.44498032 0.05505610 0.41270676
v 0.44317394 0.08501616 0.41205788
v 0.43498868 0.09500284 0.41380790
v 0.42499703 0.12502381 0.41424051
v 0.34435827 0.30423617 0.40464485
v 0.33744314 0.30728087 0.40816456
v 0.34997505 0.28992596 0.40997359
v 0.34791461 0.29498020 0.40834153
v 0.32465723 0.32457489 0.40499881
v 0.34145111 0.31148261 0.40149873
v 0.32172182 0.33163863 0.40173471
v 0.31455269 0.33456159 0.40493980
v 0.31153262 0.34132087 0.40145943
v 0.30413768 0.34418291 0.40460554
v 0.39239720 0.22495160 0.41142866
v 0.38522804 0.23469469 0.41190058
v 0.39550194 0.21508670 0.41217586
v 0.40281221 0.20497821 0.41164497
v 0.40498552 0.18494394 0.41376859
v 0.41497716 0.15498388 0.41418150
v 0.38206685 0.24303724 0.41123202
v 0.37300661 0.25497255 0.41154665
v 0.37088975 0.26130557 0.41060281
v 0.36860353 0.26800397 0.40899044
v 0.35931751 0.27914762 0.40952134
v 0.33682221 0.35703164 0.34498674
v 0.33893907 0.35898024 0.33834058
v 0.34040678 0.35039413 0.35063007
v 0.35296687 0.35307348 0.32498926
v 0.36947849 0.33943313 0.31905100
v 0.37520817 0.33523142 0.31547228
v 0.38088140 0.33102971 0.31191325
v 0.39022386 0.32025141 0.30969131
v 0.39005452 0.30003443 0.25994343
v 0.38062736 0.31081277 0.25947151
v 0.34797105 0.32597548 0.21349898
v 0.49369663 0.03502182 0.33499783
v 0.48864436 0.03502182 0.34683508
v 0.46152017 0.00500086 0.40222630
v 0.46149194 0.01504844 0.40220663
v 0.46129435 0.02503514 0.40191168
v 0.46013713 0.05170690 0.40025997
v 0.46044761 0.04500851 0.40071222
v 0.46087098 0.03502182 0.40134144
v 0.46039116 0.12137014 0.21349898
v 0.45579049 0.13653286 0.21349898
v 0.44410536 0.17495725 0.21349898
v 0.44376665 0.17599246 0.21349898
v 0.46053231 0.17160806 0.25943220
v 0.45889524 0.12630259 0.21349898
v 0.48901129 0.11503712 0.31753692
v 0.48085427 0.15248720 0.31226718
v 0.48189861 0.14505808 0.31533465
v 0.48048735 0.14183067 0.32113528
v 0.47066507 0.18183832 0.30908176
v 0.48322517 0.08501616 0.34498674
v 0.48853147 0.07502947 0.33662987
v 0.48655573 0.06504278 0.34498674
v 0.49510789 0.06504278 0.32498926
v 0.48898309 0.09500284 0.32764381
v 0.47949949 0.09713416 0.34884071
v 0.48977339 0.10894768 0.31946391
v 0.49623689 0.05505610 0.32498926
v 0.48980159 0.05785724 0.33955970
v 0.45720175 0.00500086 0.40722075
v 0.45717353 0.01504844 0.40720108
v 0.45195189 0.02503514 0.41146800
v 0.45152852 0.03502182 0.41119272
v 0.44227073 0.09500284 0.41162530
v 0.45110515 0.04500851 0.41087809
v 0.45062533 0.05505610 0.41050449
v 0.45023018 0.06151091 0.41018987
v 0.43340808 0.12502381 0.41205788
v 0.42499703 0.13501050 0.41361129
v 0.35099113 0.30113053 0.40114480
v 0.35460395 0.29418856 0.40291449
v 0.33157235 0.32159108 0.40161672
v 0.36981720 0.31976426 0.34968624
v 0.36010781 0.33011627 0.35019749
v 0.39064723 0.23116282 0.41046518
v 0.40106225 0.21185929 0.41072080
v 0.41249338 0.18494394 0.41158599
v 0.41091278 0.19200769 0.41066182
v 0.41497716 0.16497056 0.41343433
v 0.38872793 0.23786122 0.40906909
v 0.37978062 0.24973562 0.40987527
v 0.37213165 0.27287552 0.40232462
v 0.36580926 0.27604204 0.40592298
v 0.37803066 0.25497255 0.40838087
v 0.37484124 0.26477656 0.40513644
v 0.35189435 0.34192979 0.34498674
v 0.34709609 0.34692317 0.34498674
v 0.35101935 0.35100308 0.33167475
v 0.35889414 0.33882421 0.33810461
v 0.36166018 0.33169955 0.34498674
v 0.37066394 0.33072525 0.33120283
v 0.37244213 0.33261296 0.32498926
v 0.37921613 0.32908109 0.31855941
v 0.38474822 0.32469669 0.31454811
v 0.39022386 0.32025141 0.31055650
v 0.42008591 0.28012195 0.30984861
v 0.41116679 0.29175279 0.30872780
v 0.41043293 0.27062243 0.25958949
v 0.39702609 0.26532459 0.21349898
v 0.39620757 0.26648161 0.21349898
v 0.39194560 0.27232748 0.21349898
v 0.38785297 0.27738172 0.21349898
v 0.48822099 0.04500851 0.34583226
v 0.45694771 0.02503514 0.40692580
v 0.45610097 0.04500851 0.40570667
v 0.48280180 0.05505610 0.35472003
v 0.48218086 0.06504278 0.35403180
v 0.45979846 0.05834439 0.39937514
v 0.45260108 0.08501616 0.40340608
v 0.45341960 0.07502947 0.40421227
v 0.45356071 0.06492099 0.40582466
v 0.45638323 0.05505610 0.40415329
v 0.45652434 0.03502182 0.40633589
v 0.44128287 0.18287353 0.21349898
v 0.44980681 0.19961950 0.26141816
v 0.48139057 0.13501050 0.32319993
v 0.47066507 0.18183832 0.31177559
v 0.46933848 0.17812376 0.31842175
v 0.47952771 0.14840728 0.31891334
v 0.47797534 0.14505808 0.32467467
v 0.46945140 0.13793343 0.34874240
v 0.45000437 0.23000583 0.31000593
v 0.48491868 0.07502947 0.34498674
v 0.48051560 0.08501616 0.35114133
v 0.48139057 0.07502947 0.35279304
v 0.48810810 0.05469073 0.34412155
v 0.48384613 0.10505043 0.33499783
v 0.48082605 0.10505043 0.34193894
v 0.47865272 0.10505043 0.34693339
v 0.45079467 0.10316271 0.40118414
v 0.45169789 0.09500284 0.40238360
v 0.48006397 0.09043577 0.35015815
v 0.48582187 0.11503712 0.32498926
v 0.48017687 0.11071362 0.34040523
v 0.44816977 0.08501616 0.40840054
v 0.44108528 0.10505043 0.41083878
v 0.43202507 0.13501050 0.41142866
v 0.42350113 0.15498388 0.41199890
v 0.36247870 0.28499353 0.40246224
v 0.36030537 0.29035223 0.40041727
v 0.37918788 0.30898592 0.34850645
v 0.37540576 0.31550163 0.34577328
v 0.38694978 0.31495357 0.32544154
v 0.38155881 0.32189554 0.32498926
v 0.36874464 0.32859391 0.33786866
v 0.39115530 0.29150921 0.35196716
v 0.39917117 0.21855767 0.40938368
v 0.40936041 0.19870609 0.40954101
v 0.40780804 0.20497821 0.40814492
v 0.41542876 0.17477457 0.41199890
v 0.42177939 0.16497056 0.41125169
v 0.42059395 0.17130359 0.41044551
v 0.39208671 0.24328081 0.40240327
v 0.38105074 0.26154914 0.40130213
v 0.39739302 0.22495160 0.40769267
v 0.40233237 0.22495160 0.40269822
v 0.39471164 0.23445112 0.40495947
v 0.36964786 0.27957392 0.39904085
v 0.39129642 0.31160438 0.32241338
v 0.40063888 0.30082607 0.32123360
v 0.40216303 0.30271381 0.31498072
v 0.41116679 0.29175279 0.31266046
v 0.42008591 0.28012195 0.31028122
v 0.43106541 0.26179272 0.30876714
v 0.42979530 0.23962715 0.26147717
v 0.40024373 0.26039216 0.21349898
v 0.43894017 0.18786687 0.21349898
v 0.44015387 0.22032361 0.25982547
v 0.48263246 0.12581544 0.32587412
v 0.45000437 0.23000583 0.31002557
v 0.46126616 0.20278601 0.31311271
v 0.46318543 0.19584404 0.31584588
v 0.46801192 0.18512662 0.31505936
v 0.46262094 0.17544441 0.33554840
v 0.47049570 0.17142537 0.32113528
v 0.47458833 0.15498388 0.32498926
v 0.46312898 0.18573557 0.32579547
v 0.46115324 0.18293442 0.33259892
v 0.45965731 0.17903718 0.33926475
v 0.46984655 0.14956427 0.33971700
v 0.46860462 0.14572792 0.34524235
v 0.47089088 0.14298767 0.34207660
v 0.46050406 0.16143869 0.35108232
v 0.46166128 0.15498388 0.35298967
v 0.44052076 0.14158709 0.40081054
v 0.47029814 0.13123503 0.35066938
v 0.47752374 0.11442818 0.34423953
v 0.47930190 0.11741200 0.33843890
v 0.44991970 0.10986109 0.39980772
v 0.47111666 0.12502381 0.35222280
v 0.44156510 0.13501050 0.40212798
v 0.44291991 0.12502381 0.40366170
v 0.43843213 0.12502381 0.40867582
v 0.44726655 0.09500284 0.40737805
v 0.44029498 0.11120076 0.41022921
v 0.43933535 0.11789916 0.40952134
v 0.43081141 0.14237872 0.41062248
v 0.38853037 0.29814672 0.34734631
v 0.38477644 0.30472332 0.34459347
v 0.39507857 0.30508867 0.32514659
v 0.40010262 0.28018284 0.35023680
v 0.39807039 0.28712481 0.34498674
v 0.39956632 0.28937793 0.33918610
v 0.39267945 0.29491931 0.34439683
v 0.41099745 0.21179840 0.40132177
v 0.41906980 0.17800197 0.40928537
v 0.41748920 0.18494394 0.40775165
v 0.41266271 0.20497821 0.40315047
v 0.42849696 0.15498388 0.40875447
v 0.42677522 0.16497056 0.40686679
v 0.40063888 0.23110193 0.40086952
v 0.38996983 0.24991831 0.39990604
v 0.40752578 0.29504108 0.31559026
v 0.39191735 0.30234843 0.33499783
v 0.40128806 0.29181367 0.33252028
v 0.40964264 0.28949970 0.31930661
v 0.41856176 0.27786887 0.31692737
v 0.42194873 0.27470237 0.31415486
v 0.42765018 0.26508102 0.31553128
v 0.43106541 0.26179272 0.31256214
v 0.40238884 0.25643402 0.21349898
v 0.43831924 0.18908477 0.21349898
v 0.41060230 0.24108861 0.21349898
v 0.43524271 0.19499153 0.21349898
v 0.43129122 0.20242065 0.21349898
v 0.42962593 0.25935695 0.31920829
v 0.44001272 0.24005342 0.32005382
v 0.44131109 0.23426843 0.32402578
v 0.44853669 0.22708289 0.31667173
v 0.45020196 0.22044539 0.32044709
v 0.45107692 0.22422086 0.31399754
v 0.45988312 0.19974129 0.31975886
v 0.46137905 0.19304290 0.32300329
v 0.45830253 0.17544441 0.34512439
v 0.45934683 0.16813707 0.34854579
v 0.46891510 0.15498388 0.33761305
v 0.47117311 0.15498388 0.33259892
v 0.45982668 0.18957192 0.32966912
v 0.45466149 0.18494394 0.34498674
v 0.46558458 0.15498388 0.34498674
v 0.45116159 0.18494394 0.35212448
v 0.43033156 0.17081642 0.40051559
v 0.43140411 0.16497056 0.40187234
v 0.43702090 0.13501050 0.40714210
v 0.41127971 0.26191452 0.35216379
v 0.40904993 0.26855201 0.34813285
v 0.41074342 0.27110958 0.34146702
v 0.41020715 0.28030464 0.33039665
v 0.42073506 0.19164233 0.40104651
v 0.44037965 0.21082407 0.35078737
v 0.43885550 0.21752247 0.34760195
v 0.43035978 0.23061478 0.35068905
v 0.42474303 0.17440920 0.40490049
v 0.42225921 0.18494394 0.40275720
v 0.41997299 0.24991831 0.34994185
v 0.42081976 0.27123135 0.32162687
v 0.42307773 0.26520282 0.32496962
v 0.42132780 0.26203629 0.33269724
v 0.41966254 0.25941783 0.33936307
v 0.42849696 0.23731315 0.34691373
v 0.44026676 0.23043209 0.33055395
v 0.44647625 0.22422086 0.32426172
v 0.44043612 0.22081077 0.34093612
v 0.44864959 0.21703531 0.32711288
v 0.45883879 0.19584404 0.32579547
v 0.45494375 0.19499153 0.33499783
v 0.45006081 0.19011997 0.35013849
v 0.41302964 0.26514190 0.34486875
v 0.41856176 0.25564238 0.34595025
v 0.44856489 0.19681835 0.34691373
v 0.43671042 0.22446443 0.34455416
v 0.43862972 0.22750916 0.33721977
f 1 2 7
f 1 7 15
f 1 15 31
f 1 31 30
f 1 30 56
f 1 56 58
f 1 58 96
f 1 96 154
f 1 154 201
f 1 201 200
f 1 200 199
f 1 199 277
f 1 277 359
f 1 359 300
f 1 300 225
f 1 225 155
f 1 155 97
f 1 97 60
f 1 60 38
f 1 38 21
f 1 21 8
f 1 8 3
f 1 3 9
f 1 9 23
f 1 23 40
f 1 40 64
f 1 64 105
f 1 105 171
f 1 171 245
f 1 245 327
f 1 327 336
f 1 336 251
f 1 251 248
f 1 248 172
f 1 172 107
f 1 107 106
f 1 106 66
f 1 66 65
f 1 65 41
f 1 41 24
f 1 24 10
f 1 10 4
f 1 4 11
f 1 11 25
f 1 25 42
f 1 42 48
f 1 48 75
f 1 75 74
f 1 74 118
f 1 118 117
f 1 117 116
f 1 116 120
f 1 120 119
f 1 119 190
f 1 190 270
f 1 270 355
f 1 355 427
f 1 427 492
f 1 492 563
f 1 563 562
f 1 562 561
f 1 561 560
f 1 560 627
f 1 627 682
f 1 682 684
f 1 684 686
f 1 686 685
f 1 685 683
f 1 683 628
f 1 628 575
f 1 575 504
f 1 504 503
f 1 503 502
f 1 502 506
f 1 506 501
f 1 501 439
f 1 439 382
f 1 382 298
f 1 298 291
f 1 291 219
f 1 219 146
f 1 146 91
f 1 91 90
f 1 90 59
f 1 59 35
f 1 35 34
f 1 34 33
f 1 33 19
f 1 19 18
f 1 18 17
f 1 17 16
f 1 16 12
f 1 12 5
f 1 5 2
f 2 5 6
f 2 6 7
f 3 8 9
f 4 10 11
f 5 12 6
f 6 13 14
f 6 14 15
f 6 15 7
f 6 12 16
f 6 16 17
f 6 17 18
f 6 18 19
f 6 19 20
f 6 20 13
f 8 21 9
f 9 22 23
f 9 21 22
f 10 24 11
f 11 24 26
f 11 26 27
f 11 27 25
f 13 28 32
f 13 32 14
f 13 20 29
f 13 29 51
f 13 51 28
f 14 30 31
f 14 31 15
f 14 32 30
f 19 33 20
f 20 33 34
f 20 34 35
f 20 35 36
f 20 36 37
f 20 37 29
f 21 38 61
f 21 61 99
f 21 99 159
f 21 159 230
f 21 230 310
f 21 310 391
f 21 391 400
f 21 400 319
f 21 319 239
f 21 239 167
f 21 167 102
f 21 102 63
f 21 63 39
f 21 39 23
f 21 23 22
f 23 39 62
f 23 62 40
f 24 41 26
f 25 27 42
f 26 41 43
f 26 43 27
f 27 43 44
f 27 44 45
f 27 45 46
f 27 46 47
f 27 47 48
f 27 48 42
f 28 49 50
f 28 50 32
f 28 51 52
f 28 52 53
f 28 53 49
f 29 37 54
f 29 54 55
f 29 55 79
f 29 79 51
f 30 32 56
f 32 50 57
f 32 57 58
f 32 58 56
f 35 59 54
f 35 54 37
f 35 37 36
f 38 60 61
f 39 63 62
f 40 62 64
f 41 65 43
f 43 65 66
f 43 66 67
f 43 67 68
f 43 68 44
f 44 68 69
f 44 69 70
f 44 70 45
f 45 70 73
f 45 73 46
f 46 71 72
f 46 72 47
f 46 73 113
f 46 113 71
f 47 72 74
f 47 74 75
f 47 75 48
f 49 76 77
f 49 77 57
f 49 57 50
f 49 53 78
f 49 78 76
f 51 79 80
f 51 80 81
f 51 81 82
f 51 82 83
f 51 83 84
f 51 84 52
f 52 84 85
f 52 85 53
f 53 85 78
f 54 86 87
f 54 87 88
f 54 88 89
f 54 89 55
f 54 59 90
f 54 90 91
f 54 91 86
f 55 89 133
f 55 133 79
f 57 92 93
f 57 93 58
f 57 77 76
f 57 76 94
f 57 94 95
f 57 95 92
f 58 93 96
f 60 97 98
f 60 98 99
f 60 99 61
f 62 63 100
f 62 100 101
f 62 101 64
f 63 102 103
f 63 103 100
f 64 104 105
f 64 101 104
f 66 106 67
f 67 106 107
f 67 107 108
f 67 108 68
f 68 108 109
f 68 109 69
f 69 109 110
f 69 110 70
f 70 110 111
f 70 111 112
f 70 112 73
f 71 113 186
f 71 186 114
f 71 114 115
f 71 115 72
f 72 116 117
f 72 117 118
f 72 118 74
f 72 115 119
f 72 119 120
f 72 120 116
f 73 112 121
f 73 121 122
f 73 122 113
f 76 123 124
f 76 124 125
f 76 125 126
f 76 126 95
f 76 95 94
f 76 78 127
f 76 127 128
f 76 128 129
f 76 129 130
f 76 130 123
f 78 131 127
f 78 85 132
f 78 132 131
f 79 133 135
f 79 135 80
f 80 134 81
f 80 135 134
f 81 134 136
f 81 136 137
f 81 137 138
f 81 138 139
f 81 139 140
f 81 140 82
f 82 140 83
f 83 140 141
f 83 141 85
f 83 85 84
f 85 129 132
f 85 141 142
f 85 142 129
f 86 91 143
f 86 143 144
f 86 144 87
f 87 144 145
f 87 145 88
f 88 145 89
f 89 145 133
f 91 146 224
f 91 224 147
f 91 147 148
f 91 148 143
f 92 95 149
f 92 149 150
f 92 150 151
f 92 151 93
f 93 151 96
f 95 126 149
f 96 152 153
f 96 153 154
f 96 151 152
f 97 155 156
f 97 156 98
f 98 157 158
f 98 158 99
f 98 156 157
f 99 158 159
f 100 103 160
f 100 160 161
f 100 161 101
f 101 161 162
f 101 162 163
f 101 163 164
f 101 164 104
f 102 165 166
f 102 166 103
f 102 167 165
f 103 166 168
f 103 168 169
f 103 169 160
f 104 164 105
f 105 164 170
f 105 170 171
f 107 172 108
f 108 172 173
f 108 173 174
f 108 174 175
f 108 175 109
f 109 175 174
f 109 174 176
f 109 176 177
f 109 177 178
f 109 178 110
f 110 178 111
f 111 178 179
f 111 179 112
f 112 179 180
f 112 180 181
f 112 181 182
f 112 182 121
f 113 183 184
f 113 184 185
f 113 185 186
f 113 122 183
f 114 186 267
f 114 267 187
f 114 187 115
f 115 187 188
f 115 188 189
f 115 189 190
f 115 190 119
f 121 182 191
f 121 191 122
f 122 191 192
f 122 192 193
f 122 193 183
f 123 194 195
f 123 195 124
f 123 130 142
f 123 142 194
f 124 195 196
f 124 196 197
f 124 197 198
f 124 198 199
f 124 199 126
f 124 126 125
f 126 199 200
f 126 200 201
f 126 201 149
f 127 131 128
f 128 132 129
f 128 131 132
f 129 142 130
f 133 145 202
f 133 202 203
f 133 203 204
f 133 204 135
f 134 135 205
f 134 205 206
f 134 206 136
f 135 204 205
f 136 207 208
f 136 208 209
f 136 209 138
f 136 138 210
f 136 210 137
f 136 206 211
f 136 211 207
f 137 210 138
f 138 209 212
f 138 212 213
f 138 213 214
f 138 214 141
f 138 141 139
f 139 141 140
f 141 214 142
f 142 214 195
f 142 195 194
f 143 148 144
f 144 148 215
f 144 215 216
f 144 216 145
f 145 216 217
f 145 217 218
f 145 218 203
f 145 203 202
f 146 219 220
f 146 220 221
f 146 221 222
f 146 222 223
f 146 223 224
f 147 224 285
f 147 285 215
f 147 215 148
f 149 201 153
f 149 153 150
f 150 153 151
f 151 153 152
f 153 201 154
f 155 225 226
f 155 226 156
f 156 226 157
f 157 227 228
f 157 228 158
f 157 226 227
f 158 228 229
f 158 229 230
f 158 230 159
f 160 169 161
f 161 169 231
f 161 231 232
f 161 232 233
f 161 233 162
f 162 233 234
f 162 234 163
f 163 234 164
f 164 235 170
f 164 234 235
f 165 236 237
f 165 237 238
f 165 238 166
f 165 167 236
f 166 238 168
f 167 239 240
f 167 240 241
f 167 241 236
f 168 238 169
f 169 238 242
f 169 242 243
f 169 243 231
f 170 244 245
f 170 245 171
f 170 235 246
f 170 246 247
f 170 247 244
f 172 248 173
f 173 248 174
f 174 249 250
f 174 250 176
f 174 248 251
f 174 251 252
f 174 252 249
f 176 250 253
f 176 253 254
f 176 254 255
f 176 255 178
f 176 178 177
f 178 255 254
f 178 254 256
f 178 256 179
f 179 256 180
f 180 257 258
f 180 258 181
f 180 256 257
f 181 191 182
f 181 258 259
f 181 259 260
f 181 260 261
f 181 261 191
f 183 262 184
f 183 193 262
f 184 263 264
f 184 264 265
f 184 265 266
f 184 266 185
f 184 262 263
f 185 266 186
f 186 266 267
f 187 268 188
f 187 267 352
f 187 352 268
f 188 268 269
f 188 269 190
f 188 190 189
f 190 269 270
f 191 261 192
f 192 261 263
f 192 263 262
f 192 262 193
f 195 214 196
f 196 271 272
f 196 272 197
f 196 214 271
f 197 272 273
f 197 273 274
f 197 274 275
f 197 275 276
f 197 276 198
f 198 276 199
f 199 276 277
f 203 218 204
f 204 206 205
f 204 218 278
f 204 278 206
f 206 278 279
f 206 279 280
f 206 280 211
f 207 212 208
f 207 211 280
f 207 280 281
f 207 281 282
f 207 282 212
f 208 212 209
f 212 282 283
f 212 283 213
f 213 283 368
f 213 368 284
f 213 284 214
f 214 284 272
f 214 272 271
f 215 285 287
f 215 287 216
f 216 286 217
f 216 287 370
f 216 370 286
f 217 288 218
f 217 286 289
f 217 289 290
f 217 290 288
f 218 288 278
f 219 291 220
f 220 292 293
f 220 293 294
f 220 294 295
f 220 295 296
f 220 296 297
f 220 297 221
f 220 291 298
f 220 298 292
f 221 297 299
f 221 299 222
f 222 299 223
f 223 299 285
f 223 285 224
f 225 300 301
f 225 301 226
f 226 302 227
f 226 301 302
f 227 302 303
f 227 303 228
f 228 303 304
f 228 304 229
f 229 304 305
f 229 305 306
f 229 306 307
f 229 307 308
f 229 308 230
f 230 308 309
f 230 309 388
f 230 388 310
f 231 243 311
f 231 311 232
f 232 311 233
f 233 311 312
f 233 312 234
f 234 312 313
f 234 313 235
f 235 313 246
f 236 241 237
f 237 241 314
f 237 314 315
f 237 315 238
f 238 315 316
f 238 316 242
f 239 317 318
f 239 318 240
f 239 319 320
f 239 320 317
f 240 318 241
f 241 318 321
f 241 321 322
f 241 322 323
f 241 323 314
f 242 324 243
f 242 316 324
f 243 324 316
f 243 316 325
f 243 325 326
f 243 326 311
f 244 327 245
f 244 247 328
f 244 328 329
f 244 329 327
f 246 313 330
f 246 330 331
f 246 331 332
f 246 332 333
f 246 333 247
f 247 333 328
f 249 252 329
f 249 329 328
f 249 328 334
f 249 334 250
f 250 334 335
f 250 335 253
f 251 336 329
f 251 329 252
f 253 335 254
f 254 335 257
f 254 257 256
f 257 335 337
f 257 337 338
f 257 338 259
f 257 259 258
f 259 338 339
f 259 339 340
f 259 340 341
f 259 341 342
f 259 342 260
f 260 342 261
f 261 342 263
f 263 342 343
f 263 343 344
f 263 344 264
f 264 344 345
f 264 345 265
f 265 345 346
f 265 346 347
f 265 347 348
f 265 348 349
f 265 349 350
f 265 350 266
f 266 350 267
f 267 350 351
f 267 351 352
f 268 352 421
f 268 421 353
f 268 353 354
f 268 354 269
f 269 354 270
f 270 354 356
f 270 356 355
f 272 284 357
f 272 357 358
f 272 358 302
f 272 302 273
f 273 302 301
f 273 301 300
f 273 300 274
f 274 300 275
f 275 300 359
f 275 359 276
f 276 359 277
f 278 288 360
f 278 360 280
f 278 280 279
f 280 360 282
f 280 282 281
f 282 360 361
f 282 361 362
f 282 362 363
f 282 363 364
f 282 364 365
f 282 365 366
f 282 366 283
f 283 366 365
f 283 365 367
f 283 367 368
f 284 368 303
f 284 303 369
f 284 369 357
f 285 299 287
f 286 370 373
f 286 373 289
f 287 299 371
f 287 371 372
f 287 372 370
f 288 290 361
f 288 361 360
f 289 373 375
f 289 375 290
f 290 374 361
f 290 375 437
f 290 437 374
f 292 298 376
f 292 376 377
f 292 377 293
f 293 377 378
f 293 378 441
f 293 441 379
f 293 379 380
f 293 380 294
f 294 380 381
f 294 381 295
f 295 371 297
f 295 297 296
f 295 381 371
f 297 371 299
f 298 382 377
f 298 377 376
f 302 358 357
f 302 357 369
f 302 369 303
f 303 368 367
f 303 367 304
f 304 367 383
f 304 383 384
f 304 384 385
f 304 385 305
f 305 385 386
f 305 386 306
f 306 386 307
f 307 386 387
f 307 387 308
f 308 387 309
f 309 387 454
f 309 454 388
f 310 388 389
f 310 389 455
f 310 455 390
f 310 390 460
f 310 460 391
f 311 326 392
f 311 392 312
f 312 392 393
f 312 393 330
f 312 330 313
f 314 394 315
f 314 323 394
f 315 395 396
f 315 396 316
f 315 394 395
f 316 396 397
f 316 397 325
f 317 398 321
f 317 321 318
f 317 320 399
f 317 399 398
f 319 400 401
f 319 401 399
f 319 399 320
f 321 398 402
f 321 402 403
f 321 403 322
f 322 403 404
f 322 404 405
f 322 405 323
f 323 405 394
f 325 397 326
f 326 397 406
f 326 406 407
f 326 407 408
f 326 408 392
f 327 329 336
f 328 333 332
f 328 332 338
f 328 338 337
f 328 337 335
f 328 335 334
f 330 339 331
f 330 393 339
f 331 339 332
f 332 339 338
f 339 393 409
f 339 409 340
f 340 410 408
f 340 408 407
f 340 407 411
f 340 411 412
f 340 412 346
f 340 346 344
f 340 344 413
f 340 413 341
f 340 409 410
f 341 413 344
f 341 344 342
f 342 344 343
f 344 346 345
f 346 412 414
f 346 414 347
f 347 414 348
f 348 414 415
f 348 415 416
f 348 416 417
f 348 417 349
f 349 417 350
f 350 417 418
f 350 418 419
f 350 419 351
f 351 419 352
f 352 419 420
f 352 420 421
f 353 422 423
f 353 423 424
f 353 424 425
f 353 425 356
f 353 356 354
f 353 421 488
f 353 488 422
f 355 356 425
f 355 425 424
f 355 424 423
f 355 423 426
f 355 426 427
f 361 374 428
f 361 428 429
f 361 429 362
f 362 429 430
f 362 430 363
f 363 430 383
f 363 383 367
f 363 367 364
f 364 367 365
f 370 372 373
f 371 431 432
f 371 432 433
f 371 433 372
f 371 381 431
f 372 433 434
f 372 434 375
f 372 375 373
f 374 435 436
f 374 436 428
f 374 437 495
f 374 495 435
f 375 434 438
f 375 438 437
f 377 382 439
f 377 439 440
f 377 440 378
f 378 440 442
f 378 442 508
f 378 508 441
f 379 443 444
f 379 444 380
f 379 441 445
f 379 445 446
f 379 446 447
f 379 447 448
f 379 448 443
f 380 444 449
f 380 449 381
f 381 449 450
f 381 450 432
f 381 432 431
f 383 430 451
f 383 451 384
f 384 451 385
f 385 451 386
f 386 451 452
f 386 452 387
f 387 452 453
f 387 453 521
f 387 521 454
f 388 454 389
f 389 454 455
f 390 455 456
f 390 456 457
f 390 457 458
f 390 458 459
f 390 459 460
f 391 460 400
f 392 408 393
f 393 408 410
f 393 410 409
f 394 461 462
f 394 462 395
f 394 405 404
f 394 404 463
f 394 463 464
f 394 464 461
f 395 465 396
f 395 462 466
f 395 466 465
f 396 467 468
f 396 468 397
f 396 465 467
f 397 468 469
f 397 469 470
f 397 470 407
f 397 407 406
f 398 471 472
f 398 472 402
f 398 399 473
f 398 473 471
f 399 474 473
f 399 401 475
f 399 475 474
f 400 460 401
f 401 460 476
f 401 476 475
f 402 477 478
f 402 478 403
f 402 472 477
f 403 478 404
f 404 478 477
f 404 477 479
f 404 479 480
f 404 480 481
f 404 481 463
f 407 470 411
f 411 470 469
f 411 469 412
f 412 482 483
f 412 483 417
f 412 417 416
f 412 416 414
f 412 469 484
f 412 484 482
f 414 416 415
f 417 419 418
f 417 483 484
f 417 484 419
f 419 485 486
f 419 486 420
f 419 484 485
f 420 486 421
f 421 486 487
f 421 487 488
f 422 488 556
f 422 556 489
f 422 489 490
f 422 490 491
f 422 491 426
f 422 426 423
f 426 491 427
f 427 491 490
f 427 490 492
f 428 436 452
f 428 452 451
f 428 451 429
f 429 451 430
f 432 450 433
f 433 450 493
f 433 493 434
f 434 493 494
f 434 494 438
f 435 495 521
f 435 521 453
f 435 453 452
f 435 452 436
f 437 496 495
f 437 438 497
f 437 497 496
f 438 494 498
f 438 498 499
f 438 499 500
f 438 500 497
f 439 501 440
f 440 502 503
f 440 503 504
f 440 504 505
f 440 505 442
f 440 501 506
f 440 506 502
f 441 507 445
f 441 508 509
f 441 509 510
f 441 510 507
f 442 505 511
f 442 511 578
f 442 578 508
f 443 512 513
f 443 513 514
f 443 514 515
f 443 515 444
f 443 448 516
f 443 516 517
f 443 517 512
f 444 515 449
f 445 507 518
f 445 518 446
f 446 518 447
f 447 518 517
f 447 517 516
f 447 516 448
f 449 519 450
f 449 515 519
f 450 519 520
f 450 520 493
f 454 521 522
f 454 522 523
f 454 523 455
f 455 523 456
f 456 523 457
f 457 523 524
f 457 524 458
f 458 525 459
f 458 524 526
f 458 526 527
f 458 527 528
f 458 528 525
f 459 525 529
f 459 529 530
f 459 530 460
f 460 530 476
f 461 464 531
f 461 531 466
f 461 466 462
f 463 481 464
f 464 481 532
f 464 532 531
f 465 466 533
f 465 533 467
f 466 531 534
f 466 534 535
f 466 535 484
f 466 484 533
f 467 533 484
f 467 484 469
f 467 469 468
f 471 536 477
f 471 477 472
f 471 473 474
f 471 474 537
f 471 537 536
f 474 475 538
f 474 538 539
f 474 539 537
f 475 476 540
f 475 540 538
f 476 530 540
f 477 541 542
f 477 542 479
f 477 536 541
f 479 542 480
f 480 543 544
f 480 544 481
f 480 542 541
f 480 541 545
f 480 545 546
f 480 546 543
f 481 544 532
f 482 484 483
f 484 547 548
f 484 548 549
f 484 549 485
f 484 535 547
f 485 549 547
f 485 547 486
f 486 547 550
f 486 550 551
f 486 551 552
f 486 552 553
f 486 553 554
f 486 554 487
f 487 554 488
f 488 554 555
f 488 555 556
f 489 557 558
f 489 558 490
f 489 556 624
f 489 624 557
f 490 558 557
f 490 557 559
f 490 559 560
f 490 560 561
f 490 561 562
f 490 562 563
f 490 563 492
f 493 564 494
f 493 520 564
f 494 564 498
f 495 496 522
f 495 522 521
f 496 497 522
f 497 565 522
f 497 500 565
f 498 566 499
f 498 564 567
f 498 567 568
f 498 568 569
f 498 569 570
f 498 570 571
f 498 571 572
f 498 572 573
f 498 573 566
f 499 566 574
f 499 574 500
f 500 574 565
f 504 575 505
f 505 575 576
f 505 576 511
f 507 510 577
f 507 577 518
f 508 578 579
f 508 579 580
f 508 580 509
f 509 580 510
f 510 580 581
f 510 581 582
f 510 582 577
f 511 576 583
f 511 583 631
f 511 631 578
f 512 584 513
f 512 517 584
f 513 584 514
f 514 520 515
f 514 584 585
f 514 585 586
f 514 586 568
f 514 568 587
f 514 587 520
f 515 520 519
f 517 518 588
f 517 588 589
f 517 589 590
f 517 590 591
f 517 591 592
f 517 592 593
f 517 593 584
f 518 577 594
f 518 594 595
f 518 595 590
f 518 590 589
f 518 589 588
f 520 587 564
f 522 565 523
f 523 565 524
f 524 565 526
f 525 528 596
f 525 596 597
f 525 597 598
f 525 598 529
f 526 565 527
f 527 565 574
f 527 574 566
f 527 566 528
f 528 566 573
f 528 573 572
f 528 572 570
f 528 570 596
f 529 598 599
f 529 599 530
f 530 599 540
f 531 532 600
f 531 600 601
f 531 601 534
f 532 544 600
f 534 602 660
f 534 660 603
f 534 603 604
f 534 604 605
f 534 605 554
f 534 554 552
f 534 552 606
f 534 606 535
f 534 601 607
f 534 607 602
f 535 606 552
f 535 552 551
f 535 551 547
f 536 537 608
f 536 608 541
f 537 539 609
f 537 609 610
f 537 610 608
f 538 540 611
f 538 611 612
f 538 612 613
f 538 613 539
f 539 613 609
f 540 599 612
f 540 612 611
f 541 614 615
f 541 615 545
f 541 608 616
f 541 616 617
f 541 617 618
f 541 618 614
f 543 546 615
f 543 615 619
f 543 619 601
f 543 601 600
f 543 600 544
f 545 615 546
f 547 549 548
f 547 551 550
f 552 554 553
f 554 605 604
f 554 604 620
f 554 620 621
f 554 621 555
f 555 621 622
f 555 622 556
f 556 622 623
f 556 623 624
f 557 625 559
f 557 624 681
f 557 681 625
f 559 625 626
f 559 626 627
f 559 627 560
f 564 587 568
f 564 568 567
f 568 586 569
f 569 586 585
f 569 585 592
f 569 592 570
f 570 592 655
f 570 655 596
f 570 572 571
f 575 628 629
f 575 629 576
f 576 629 583
f 577 630 594
f 577 582 630
f 578 631 632
f 578 632 633
f 578 633 634
f 578 634 579
f 579 635 636
f 579 636 637
f 579 637 580
f 579 634 638
f 579 638 639
f 579 639 640
f 579 640 635
f 580 637 641
f 580 641 642
f 580 642 643
f 580 643 582
f 580 582 581
f 582 643 642
f 582 642 644
f 582 644 645
f 582 645 646
f 582 646 647
f 582 647 648
f 582 648 595
f 582 595 649
f 582 649 594
f 582 594 630
f 583 629 626
f 583 626 625
f 583 625 681
f 583 681 631
f 584 593 585
f 585 593 592
f 590 650 591
f 590 595 648
f 590 648 647
f 590 647 651
f 590 651 650
f 591 650 652
f 591 652 653
f 591 653 654
f 591 654 655
f 591 655 592
f 594 649 595
f 596 655 597
f 597 656 598
f 597 655 656
f 598 656 657
f 598 657 654
f 598 654 658
f 598 658 612
f 598 612 599
f 601 619 607
f 602 659 660
f 602 607 659
f 603 660 604
f 604 660 661
f 604 661 620
f 607 619 615
f 607 615 662
f 607 662 663
f 607 663 664
f 607 664 665
f 607 665 659
f 608 610 666
f 608 666 616
f 609 613 667
f 609 667 668
f 609 668 610
f 610 668 669
f 610 669 666
f 612 658 613
f 613 658 670
f 613 670 671
f 613 671 667
f 614 618 672
f 614 672 673
f 614 673 615
f 615 673 662
f 616 666 617
f 617 672 618
f 617 666 672
f 620 661 621
f 621 674 622
f 621 661 675
f 621 675 659
f 621 659 665
f 621 665 664
f 621 664 676
f 621 676 677
f 621 677 674
f 622 674 623
f 623 677 678
f 623 678 624
f 623 674 677
f 624 678 679
f 624 679 680
f 624 680 681
f 626 629 627
f 627 629 682
f 628 683 629
f 629 684 682
f 629 683 685
f 629 685 686
f 629 686 684
f 631 681 687
f 631 687 688
f 631 688 689
f 631 689 690
f 631 690 691
f 631 691 692
f 631 692 632
f 632 693 633
f 632 692 691
f 632 691 693
f 633 694 634
f 633 693 694
f 634 694 638
f 635 640 695
f 635 695 696
f 635 696 697
f 635 697 698
f 635 698 637
f 635 637 636
f 637 698 641
f 638 694 699
f 638 699 639
f 639 700 640
f 639 699 700
f 640 700 695
f 641 698 697
f 641 697 701
f 641 701 642
f 642 701 644
f 644 696 702
f 644 702 703
f 644 703 646
f 644 646 645
f 644 701 696
f 646 703 704
f 646 704 705
f 646 705 652
f 646 652 650
f 646 650 647
f 647 650 651
f 652 705 654
f 652 654 653
f 654 705 658
f 654 657 656
f 654 656 655
f 658 705 670
f 659 675 660
f 660 675 661
f 662 664 663
f 662 673 706
f 662 706 707
f 662 707 664
f 664 677 676
f 664 707 708
f 664 708 709
f 664 709 677
f 666 669 710
f 666 710 711
f 666 711 712
f 666 712 713
f 666 713 672
f 667 671 714
f 667 714 715
f 667 715 668
f 668 715 669
f 669 715 710
f 670 705 671
f 671 704 703
f 671 703 714
f 671 705 704
f 672 713 716
f 672 716 673
f 673 716 706
f 677 709 717
f 677 717 678
f 678 717 679
f 679 717 680
f 680 687 681
f 680 717 687
f 687 717 718
f 687 718 719
f 687 719 720
f 687 720 716
f 687 716 721
f 687 721 688
f 688 721 689
f 689 721 722
f 689 722 690
f 690 723 691
f 690 722 723
f 691 723 724
f 691 724 712
f 691 712 725
f 691 725 693
f 693 725 726
f 693 726 694
f 694 726 699
f 695 700 702
f 695 702 696
f 696 701 697
f 699 726 727
f 699 727 728
f 699 728 700
f 700 728 702
f 702 728 703
f 703 728 710
f 703 710 715
f 703 715 714
f 706 720 729
f 706 729 707
f 706 716 730
f 706 730 720
f 707 729 708
f 708 729 709
f 709 729 717
f 710 728 711
f 711 728 731
f 711 731 712
f 712 731 725
f 712 724 732
f 712 732 713
f 713 732 733
f 713 733 722
f 713 722 721
f 713 721 716
f 716 720 730
f 717 729 719
f 717 719 718
f 719 729 720
f 722 733 724
f 722 724 723
f 724 733 732
f 725 731 727
f 725 727 726
f 727 731 728

